<?xml version="1.0" encoding="iso-8859-1"?>
<!-- Generator: Adobe Illustrator 22.1.0, SVG Export Plug-In . SVG Version: 6.00 Build 0)  -->
<svg version="1.1" id="&#x421;&#x43B;&#x43E;&#x439;_1"
	 xmlns="http://www.w3.org/2000/svg" xmlns:xlink="http://www.w3.org/1999/xlink" x="0px" y="0px" width="36px" height="32.743px"
	 viewBox="0 0 36 32.743" style="enable-background:new 0 0 36 32.743;" xml:space="preserve">
<path d="M30.941,13.68c-0.253-0.141-0.575-0.056-0.72,0.191c-0.145,0.247-0.057,0.562,0.196,0.703
	c2.921,1.634,4.529,3.74,4.529,5.931c0,4.259-6.142,7.976-14.287,8.647c-0.29,0.024-0.505,0.273-0.481,0.557
	c0.023,0.269,0.254,0.472,0.525,0.472c0.015,0,0.03-0.001,0.045-0.002c4.157-0.342,7.978-1.471,10.759-3.179
	C34.404,25.222,36,22.915,36,20.506C36,17.929,34.204,15.505,30.941,13.68L30.941,13.68z M30.941,13.68"/>
<path d="M18.441,30.059c0.003-0.005,0.006-0.009,0.009-0.014c0.007-0.011,0.014-0.023,0.02-0.035
	c0.003-0.005,0.005-0.01,0.007-0.015c0.006-0.012,0.011-0.024,0.016-0.036c0.002-0.005,0.004-0.011,0.006-0.016
	c0.004-0.013,0.008-0.025,0.012-0.038c0.001-0.005,0.003-0.01,0.004-0.016c0.003-0.014,0.005-0.027,0.007-0.041
	c0.001-0.005,0.002-0.01,0.002-0.015c0.002-0.019,0.003-0.038,0.003-0.057c0-0.019-0.001-0.038-0.003-0.057
	c0-0.005-0.002-0.009-0.002-0.014c-0.002-0.014-0.004-0.028-0.007-0.042c-0.001-0.005-0.003-0.01-0.004-0.016
	c-0.003-0.013-0.007-0.026-0.012-0.038c-0.002-0.005-0.004-0.01-0.006-0.016c-0.005-0.012-0.01-0.024-0.016-0.036
	c-0.003-0.005-0.005-0.01-0.007-0.015c-0.006-0.012-0.013-0.023-0.02-0.035c-0.003-0.004-0.005-0.009-0.009-0.013
	c-0.009-0.013-0.018-0.026-0.029-0.039c-0.001-0.002-0.003-0.004-0.004-0.005c-0.012-0.014-0.025-0.028-0.038-0.04
	c-0.004-0.004-0.008-0.007-0.012-0.011c-0.01-0.009-0.02-0.018-0.031-0.026c-0.002-0.002-0.004-0.004-0.006-0.005l-2.77-2.08
	c-0.231-0.174-0.562-0.131-0.739,0.095c-0.177,0.226-0.134,0.549,0.097,0.722l1.487,1.116c-3.973-0.193-7.655-1.104-10.499-2.613
	c-3.123-1.657-4.842-3.824-4.842-6.102c0-2.191,1.608-4.298,4.529-5.931c0.253-0.141,0.34-0.456,0.196-0.703
	c-0.145-0.247-0.467-0.333-0.719-0.191C1.797,15.505,0,17.929,0,20.506c0,2.674,1.916,5.163,5.394,7.008
	c3.017,1.601,6.913,2.558,11.1,2.744l-1.584,1.19c-0.231,0.173-0.274,0.497-0.097,0.723c0.104,0.132,0.26,0.201,0.419,0.201
	c0.112,0,0.225-0.034,0.321-0.107l2.77-2.08c0.002-0.002,0.004-0.003,0.006-0.005c0.011-0.008,0.021-0.017,0.031-0.026
	c0.004-0.004,0.008-0.007,0.012-0.011c0.013-0.013,0.026-0.026,0.038-0.04c0.002-0.002,0.003-0.004,0.004-0.006
	C18.422,30.085,18.432,30.072,18.441,30.059L18.441,30.059z M18.441,30.059"/>
<path d="M7.395,18.145l10.366,5.161c0.006,0.003,0.011,0.005,0.017,0.007c0.008,0.004,0.016,0.007,0.025,0.011
	c0.013,0.005,0.027,0.01,0.04,0.014c0.008,0.002,0.016,0.005,0.024,0.007c0.015,0.004,0.03,0.007,0.045,0.009
	c0.007,0.001,0.014,0.003,0.021,0.004c0.022,0.003,0.045,0.005,0.067,0.005c0.022,0,0.044-0.002,0.067-0.005
	c0.007-0.001,0.014-0.002,0.021-0.004c0.015-0.002,0.03-0.005,0.045-0.009c0.008-0.002,0.016-0.005,0.024-0.007
	c0.013-0.004,0.027-0.009,0.04-0.014c0.008-0.003,0.016-0.007,0.025-0.011c0.006-0.002,0.011-0.004,0.017-0.007l10.366-5.161
	c0.177-0.088,0.288-0.265,0.288-0.459v-2.07c0-0.284-0.236-0.515-0.527-0.515c-0.291,0-0.527,0.231-0.527,0.515v1.755l-9.312,4.636
	V11.526l9.312-4.636v6.665c0,0.285,0.236,0.515,0.527,0.515c0.291,0,0.527-0.231,0.527-0.515V6.048c0-0.023-0.002-0.046-0.005-0.069
	c-0.001-0.008-0.003-0.015-0.004-0.023c-0.003-0.015-0.005-0.029-0.01-0.044c-0.002-0.009-0.006-0.017-0.009-0.026
	c-0.004-0.013-0.009-0.026-0.014-0.038c-0.004-0.009-0.008-0.017-0.013-0.026c-0.006-0.012-0.012-0.023-0.018-0.034
	c-0.005-0.009-0.011-0.017-0.017-0.025c-0.007-0.01-0.015-0.021-0.023-0.031c-0.006-0.008-0.013-0.016-0.02-0.023
	c-0.009-0.01-0.017-0.019-0.026-0.028c-0.008-0.007-0.015-0.014-0.023-0.021c-0.01-0.008-0.02-0.016-0.03-0.023
	c-0.009-0.006-0.017-0.012-0.026-0.018c-0.005-0.003-0.009-0.007-0.014-0.01c-0.006-0.004-0.013-0.007-0.02-0.01
	c-0.005-0.003-0.01-0.007-0.016-0.01L18.239,0.428c-0.15-0.075-0.328-0.075-0.479,0L16.27,1.17c-0.26,0.129-0.363,0.44-0.231,0.693
	c0.132,0.254,0.449,0.355,0.709,0.225L18,1.465l9.204,4.583l-0.576,0.287L18,10.631L9.372,6.336L8.796,6.048l6.067-3.021
	c0.259-0.129,0.363-0.439,0.231-0.693c-0.132-0.254-0.45-0.355-0.709-0.225l-6.989,3.48c-0.005,0.003-0.011,0.007-0.016,0.01
	c-0.007,0.004-0.013,0.006-0.02,0.01c-0.005,0.003-0.009,0.006-0.014,0.01C7.335,5.624,7.327,5.63,7.318,5.637
	c-0.01,0.008-0.02,0.015-0.03,0.023C7.28,5.667,7.273,5.674,7.265,5.681C7.256,5.69,7.247,5.699,7.239,5.709
	c-0.007,0.008-0.014,0.015-0.02,0.023c-0.008,0.01-0.015,0.02-0.023,0.031C7.191,5.771,7.185,5.779,7.18,5.788
	C7.173,5.799,7.167,5.81,7.161,5.822C7.157,5.831,7.153,5.839,7.149,5.848C7.143,5.86,7.139,5.873,7.135,5.886
	C7.132,5.895,7.128,5.903,7.126,5.912c-0.004,0.015-0.007,0.029-0.01,0.044C7.115,5.964,7.113,5.971,7.112,5.979
	C7.109,6.002,7.107,6.025,7.107,6.048v3.936c0,0.285,0.236,0.515,0.527,0.515c0.291,0,0.528-0.231,0.528-0.515V6.889l9.311,4.636
	v10.481L8.162,17.37v-5.324c0-0.285-0.236-0.515-0.528-0.515c-0.291,0-0.527,0.231-0.527,0.515v5.64
	C7.107,17.88,7.218,18.057,7.395,18.145L7.395,18.145z M7.395,18.145"/>
</svg>
