<?xml version="1.0" encoding="iso-8859-1"?>
<!-- Generator: Adobe Illustrator 22.1.0, SVG Export Plug-In . SVG Version: 6.00 Build 0)  -->
<svg version="1.1" id="&#x421;&#x43B;&#x43E;&#x439;_1"
	 xmlns="http://www.w3.org/2000/svg" xmlns:xlink="http://www.w3.org/1999/xlink" x="0px" y="0px" width="41px" height="46px"
	 viewBox="0 0 41 46" style="enable-background:new 0 0 41 46;" xml:space="preserve">
<path style="fill:#CC3298;" d="M5.429,17.13L5.429,17.13c1.788,0,2.299-1.533,2.299-3.321c0-2.554,0.511-5.109,1.022-7.408
	c3.321-1.277,19.158-1.788,22.479-0.255c0.766,2.299,1.277,4.598,1.533,6.897c0.511,1.533,1.277,3.065,3.065,2.81
	c1.788-0.255,2.81-1.788,2.554-3.576v-0.255c-0.511-5.875-1.277-7.919-2.044-8.94s-3.321-2.81-12.517-3.065
	C8.75-0.24,5.174,2.825,4.663,3.591C3.641,4.613,2.619,6.912,2.364,13.809C2.619,15.597,3.896,16.874,5.429,17.13z"/>
<path style="fill:#CC3298;" d="M33.272,24.026c-3.065-2.554-5.109-6.131-5.364-10.218c0-1.022-0.766-2.044-1.533-2.299
	c-3.832-1.277-8.429-1.533-12.517-0.255c-0.511,0.511-0.766,1.022-0.766,1.533c0,4.598-2.044,8.685-5.62,11.495
	c-4.853,3.832-7.408,9.707-7.408,15.837c0,5.62,17.625,5.875,21.201,5.875c4.342,0,8.685-0.255,12.772-1.277
	c1.788-0.255,6.897-1.277,6.897-4.598C40.68,33.988,38.125,28.113,33.272,24.026z M32.761,42.673c-11.75,2.044-29.12,0-29.886-2.299
	c0-5.364,2.299-10.473,6.641-13.794c4.087-3.065,6.386-7.919,6.386-13.027c3.065-0.766,6.386-0.511,9.451,0.511
	c0.255,4.598,2.554,8.94,6.131,11.75c4.342,3.576,6.641,8.685,6.897,14.305C38.125,40.374,37.359,41.652,32.761,42.673
	L32.761,42.673z"/>
<path style="fill:#CC3298;" d="M21.522,24.026c-1.788-0.255-5.364,0-8.685,4.853l0,0c-1.022,1.788-1.022,3.832,0,5.62
	c1.277,2.81,3.576,5.109,6.641,5.875c0.511,0,1.022,0,1.277,0c2.044,0,4.087-1.022,5.364-2.299c1.788-1.788,2.554-4.598,2.299-7.152
	C27.652,27.603,25.098,25.048,21.522,24.026z M24.076,35.777c-1.277,1.277-3.321,1.788-5.109,1.277
	c-2.299-0.766-3.576-3.321-2.81-5.62c0.511-1.533,0.766-3.321,4.598-3.321c2.554,0,4.598,2.044,4.598,4.598l0,0
	C25.353,33.733,25.098,35.01,24.076,35.777L24.076,35.777z"/>
</svg>
