<?xml version="1.0" encoding="iso-8859-1"?>
<!-- Generator: Adobe Illustrator 22.1.0, SVG Export Plug-In . SVG Version: 6.00 Build 0)  -->
<svg version="1.1" id="Capa_1" xmlns="http://www.w3.org/2000/svg" xmlns:xlink="http://www.w3.org/1999/xlink" x="0px" y="0px"
	 width="48px" height="48px" viewBox="183 373 48 48" style="enable-background:new 183 373 48 48;" xml:space="preserve">
<path style="fill:#C44890;" d="M223.971,404.029c-2.614-2.614-5.725-4.549-9.12-5.72c3.636-2.504,6.024-6.695,6.024-11.434
	c0-7.651-6.224-13.875-13.875-13.875s-13.875,6.224-13.875,13.875c0,4.739,2.389,8.93,6.025,11.434
	c-3.395,1.171-6.506,3.107-9.12,5.72C185.496,408.562,183,414.589,183,421h3.75c0-11.166,9.084-20.25,20.25-20.25
	s20.25,9.084,20.25,20.25H231C231,414.589,228.504,408.562,223.971,404.029z M196.875,386.875c0-5.583,4.542-10.125,10.125-10.125
	s10.125,4.542,10.125,10.125S212.583,397,207,397S196.875,392.458,196.875,386.875z"/>
</svg>
