<?xml version="1.0" encoding="iso-8859-1"?>
<!-- Generator: Adobe Illustrator 22.1.0, SVG Export Plug-In . SVG Version: 6.00 Build 0)  -->
<svg version="1.1" id="_&#x43B;&#x43E;&#x439;_1" xmlns="http://www.w3.org/2000/svg" xmlns:xlink="http://www.w3.org/1999/xlink"
	 x="0px" y="0px" width="57px" height="44.163px" viewBox="0 0 57 44.163" style="enable-background:new 0 0 57 44.163;"
	 xml:space="preserve">
<title>icon-metro</title>
<g>
	<path style="fill:#C44890;" d="M28.5,43.675l-7.656-12.6l-1.132,3.239h2.285v7.682H0v-7.682h4.178L17.589,0.415L28.5,19.54
		L39.412,0.415l13.411,33.899H57v7.682H35.003v-7.682h2.285l-1.131-3.239L28.5,43.675z M37.853,39.146H54.15v-1.982h-3.265
		L38.946,6.984L28.5,25.292L18.055,6.984L6.114,37.164H2.85v1.982h16.297v-1.982h-3.449l4.447-12.728l8.356,13.75l8.357-13.752
		l4.445,12.73h-3.448V39.146z"/>
</g>
</svg>
