<?xml version="1.0" encoding="iso-8859-1"?>
<!-- Generator: Adobe Illustrator 22.1.0, SVG Export Plug-In . SVG Version: 6.00 Build 0)  -->
<svg version="1.1" id="&#x421;&#x43B;&#x43E;&#x439;_1"
	 xmlns="http://www.w3.org/2000/svg" xmlns:xlink="http://www.w3.org/1999/xlink" x="0px" y="0px" width="33px" height="48px"
	 viewBox="0 0 33 48" style="enable-background:new 0 0 33 48;" xml:space="preserve">
<g>
	<path style="fill:#C44890;" d="M13.201,48l-0.944-1.378C11.757,45.892,0,28.589,0,15.935C0,7.148,7.402,0,16.5,0
		C25.598,0,33,7.148,33,15.935c0,15.115-17.766,30.342-18.522,30.983L13.201,48z M16.5,2.989c-7.439,0-13.491,5.807-13.491,12.946
		c0,9.735,8.002,23.17,10.791,27.557c4.027-3.751,16.19-16.04,16.19-27.557C29.991,8.797,23.939,2.989,16.5,2.989z M16.5,24.169
		c-3.586,0-6.503-2.83-6.503-6.308c0-3.419,1.707-8.235,5.503-8.235c3.49,0,9.502,3.593,9.502,7.271
		C25.002,20.505,20.055,24.169,16.5,24.169z M15.5,12.616c-1.522,0-2.494,3.107-2.494,5.245c0,1.83,1.567,3.318,3.494,3.318
		c2.104,0,5.493-2.641,5.493-4.282C21.993,15.377,17.806,12.616,15.5,12.616z"/>
</g>
</svg>
