<?xml version="1.0" encoding="iso-8859-1"?>
<!-- Generator: Adobe Illustrator 22.1.0, SVG Export Plug-In . SVG Version: 6.00 Build 0)  -->
<svg version="1.1" id="Layer_1" xmlns="http://www.w3.org/2000/svg" xmlns:xlink="http://www.w3.org/1999/xlink" x="0px" y="0px"
	 width="33px" height="33px" viewBox="190.499 380.501 33 33" style="enable-background:new 190.499 380.501 33 33;"
	 xml:space="preserve">
<g>
	<path d="M213.76,395.398l-7.964-4.598c-0.579-0.334-1.271-0.335-1.85,0c-0.579,0.334-0.925,0.933-0.925,1.602v9.196
		c0,0.668,0.346,1.268,0.925,1.602c0.284,0.164,0.604,0.251,0.925,0.251s0.642-0.087,0.925-0.251l7.964-4.598
		c0.579-0.334,0.925-0.933,0.925-1.602S214.339,395.733,213.76,395.398z M213.26,397.737l-7.964,4.598
		c-0.265,0.152-0.585,0.152-0.85,0c-0.266-0.154-0.425-0.43-0.425-0.736v-9.196c0-0.307,0.159-0.583,0.425-0.736
		c0.135-0.078,0.28-0.117,0.425-0.117c0.145,0,0.29,0.039,0.425,0.117l7.964,4.598c0.266,0.153,0.425,0.429,0.425,0.736
		C213.685,397.308,213.525,397.583,213.26,397.737z"/>
	<path d="M221.282,388.754c-2.202-3.815-5.759-6.544-10.015-7.685c-4.21-1.13-8.741-0.532-12.515,1.648
		c-3.815,2.203-6.544,5.759-7.685,10.015c-1.14,4.255-0.555,8.701,1.647,12.515s5.759,6.544,10.015,7.686
		c1.421,0.38,2.862,0.568,4.295,0.568c2.858,0,5.68-0.75,8.221-2.218c3.815-2.202,6.544-5.759,7.685-10.014
		C224.07,397.014,223.485,392.569,221.282,388.754z M221.964,401.011c-1.07,3.997-3.634,7.338-7.218,9.407
		c-3.584,2.067-7.758,2.622-11.757,1.548c-3.998-1.071-7.339-3.636-9.408-7.219c-2.069-3.584-2.619-7.759-1.548-11.756
		c1.071-3.998,3.635-7.338,7.219-9.407c2.36-1.363,5.029-2.083,7.721-2.083c1.354,0,2.711,0.18,4.036,0.535
		c3.998,1.071,7.339,3.635,9.408,7.219C222.485,392.838,223.035,397.013,221.964,401.011z"/>
</g>
</svg>
