<?xml version="1.0" encoding="utf-8"?>
<!-- Generator: Adobe Illustrator 22.1.0, SVG Export Plug-In . SVG Version: 6.00 Build 0)  -->
<svg version="1.1" id="_x2018_лой_x5F_1" xmlns="http://www.w3.org/2000/svg" xmlns:xlink="http://www.w3.org/1999/xlink"
	 x="0px" y="0px" viewBox="0 0 157 128" style="enable-background:new 0 0 157 128;" xml:space="preserve">
<g>
	<g>
		<g>
			<path d="M86.3,128c-18.7,0-23-7.5-23.2-7.8c-0.1-0.1-0.1-0.3,0-0.5c0,0,1.2-2.5,0.1-5.6c-0.6-1.9-1.5-4.1-2.4-6.5
				c-3.3-8.6-7.4-19.3-7.4-27.3c0-13.1,2.8-24.7,8.1-33.8c0-0.1,0.1-0.1,0.1-0.1c0.1-0.1,1.8-1.4,6.2-2.9c4-1.4,11-3.2,22-4.1
				c17.8-1.4,26.8,0,26.9,0c0.1,0,0.2,0.1,0.3,0.2c9,9.2,13.9,23,13.9,39c0,10.2-6.7,21.8-12.2,31.1c-1.2,2.1-2.3,4-3.3,5.7
				c-1.8,3.2-0.6,6.1-0.6,6.1c0.1,0.2,0,0.4-0.1,0.6c-0.3,0.2-6.4,5.2-26.3,5.7C87.6,128,86.9,128,86.3,128z M64.1,119.9
				c0.4,0.5,1.6,2.1,4.5,3.6c3.3,1.7,9.3,3.7,19.6,3.4c17.2-0.5,24-4.4,25.4-5.3c-0.3-1-0.9-3.6,0.8-6.6c1-1.8,2.1-3.7,3.3-5.8
				c5.4-9.2,12-20.7,12-30.6c0-15.7-4.8-29.2-13.5-38.2c-1.3-0.2-10.1-1.3-26.5,0c-19.5,1.5-26.7,6.1-27.5,6.7
				c-5.2,8.9-7.9,20.3-7.9,33.1c0,7.8,4.2,18.9,7.3,26.9c0.9,2.4,1.8,4.7,2.5,6.6C65.2,116.7,64.5,119.2,64.1,119.9z"/>
		</g>
		<g>
			<path d="M62.8,46.6c-0.2,0-0.4-0.1-0.5-0.3c-0.9-2-0.8-4.1,0.5-6c3.9-6.1,17.7-10.5,27.7-10.7c11.4-0.2,22.5,2.8,25.3,6.9
				c0.8,1.2,0.9,2.4,0.3,3.6c-0.1,0.3-0.4,0.4-0.7,0.3c-0.3-0.1-0.4-0.4-0.3-0.7c0.4-0.9,0.3-1.8-0.3-2.6
				c-2.5-3.8-13.4-6.7-24.4-6.4c-9.7,0.2-23.3,4.6-26.9,10.3c-1.1,1.7-1.2,3.4-0.4,5.1c0.1,0.3,0,0.6-0.3,0.7
				C62.9,46.6,62.8,46.6,62.8,46.6z"/>
		</g>
		<g>
			<path d="M52.9,92.3c-8.1,0-14.4-4.1-17.1-11.4c-1.2-3.1-1.4-6.5-1.7-9.7c-0.1-1.6-0.2-3.3-0.5-4.9c-0.2-1.1-0.3-2.3-0.5-3.4
				c-1-8-2.1-16.3-9.1-21.1c-6.7-4.6-17.5-3.2-23.4-1.9c-0.2,0.1-0.5-0.1-0.6-0.3c-0.1-0.2,0-0.5,0.2-0.6c1.7-1.3,3.6-2.6,5.4-3.8
				c0.6-0.4,1.3-0.9,1.9-1.3c-1.2-1.4-5-6-5-6c-0.1-0.2-0.2-0.4,0-0.6C2.5,27,2.8,26.9,3,27c1,0.2,2.9,0.5,4.8,0.8
				c2,0.3,4,0.6,5.2,0.9c5.6,1.1,6.5,1.4,8.6,2.1c0.4,0.1,0.8,0.3,1.2,0.4c6.6,2.2,12.1,5.8,15.8,10.3c2.7,3.2,4.5,6.9,6.3,10.6
				c0.7,1.5,1.5,3.1,2.3,4.6c0.2,0.4,0.5,0.9,0.8,1.5c1.6,3.1,3.5,7,7.2,8.1c0.3,0.1,0.4,0.4,0.3,0.6c-0.1,0.3-0.4,0.4-0.7,0.3
				c-4.1-1.3-6.2-5.5-7.8-8.6c-0.3-0.5-0.5-1-0.7-1.4c-0.8-1.5-1.6-3.1-2.3-4.7c-1.7-3.6-3.5-7.3-6.1-10.4c-3.6-4.4-8.9-7.8-15.3-10
				c-0.5-0.2-0.9-0.3-1.2-0.4c-2-0.7-2.9-1-8.4-2.1c-1.2-0.2-3.2-0.5-5.2-0.8c-1.2-0.2-2.5-0.4-3.4-0.5l3.6,4.3
				c1.1,1.3,1.1,1.3,0.9,1.6c0,0.1-0.1,0.1-0.2,0.2c-0.8,0.5-1.6,1.1-2.4,1.6c-1.2,0.8-2.3,1.6-3.5,2.4c11.9-2.2,18.5,0.1,21.9,2.5
				c7.4,5.1,8.5,13.6,9.6,21.8c0.1,1.1,0.3,2.3,0.5,3.4c0.2,1.6,0.4,3.3,0.5,5c0.2,3.2,0.5,6.5,1.6,9.4c2.9,7.7,10,11.6,19,10.6
				c0.3,0,0.5,0.2,0.6,0.5c0,0.3-0.2,0.5-0.5,0.6C54.8,92.3,53.9,92.3,52.9,92.3z"/>
		</g>
		<g>
			<path d="M131.6,110.1C131.6,110.1,131.6,110.1,131.6,110.1c-4.4,0-6.9-2.3-7.4-6.7c-0.5-4.7,1.8-10.8,5.4-14.3
				c1.5-1.4,3.1-2.7,4.7-3.9c1.9-1.5,3.8-3,5.5-4.7c3.2-3.4,5.7-7.6,7.2-12.4c1.5-4.9,2-10,1.3-14.8c-0.7-4.9-2.2-8.5-4.4-10.8
				c-2.6-2.7-7.2-3.7-11.5-2.5c-4.4,1.2-7.5,4.4-8.5,8.9c-0.1,0.3-0.3,0.5-0.6,0.4c-0.3-0.1-0.5-0.3-0.4-0.6
				c1.1-4.8,4.4-8.3,9.2-9.6c4.6-1.3,9.7-0.2,12.5,2.8c2.4,2.4,3.9,6.2,4.7,11.3c0.7,4.9,0.3,10.2-1.3,15.2
				c-1.5,4.9-4.1,9.3-7.4,12.8c-1.7,1.8-3.7,3.3-5.6,4.8c-1.5,1.2-3.2,2.4-4.6,3.8c-3.3,3.2-5.5,9.1-5,13.4c0.4,3.9,2.5,5.7,6.4,5.7
				c0,0,0,0,0,0c3.4,0,6.3-2.6,7.7-5.1c0.9-1.8,1-3.7,0.1-5.1c-0.7-1.2-2-1.8-3.7-1.7c-1.2,0-2.1,0.7-2.5,1.7
				c-0.4,1-0.1,2.1,0.6,2.8c0.2,0.2,0.2,0.5,0.1,0.7c0,0.1-0.1,0.1-0.1,0.2c-0.2,0.2-0.4,0.4-0.5,0.5l-0.2,0.2
				c-0.1,0.1-0.2,0.2-0.4,0.3c0,0,0,0,0,0c-0.1,0.1-0.3,0.2-0.4,0.2l-0.2,0.1c0,0-0.1,0-0.1,0.1c-0.2,0.1-0.4,0-0.6-0.2
				c-0.1-0.1-0.2-0.3-0.2-0.4c-0.2-0.4-0.3-0.6-0.5-1.1c-1.1-3.5-1-8.2,1.9-10.8c2.6-2.3,6.8-5.2,12.9-8.7c9-5.3,9.8-17,9.6-25.3
				c-0.1-4.5-0.9-8.9-2.4-12.5c-0.1-0.2,0-0.5,0.2-0.7l0.3-0.2c0.5-0.2,0.9-0.5,1.4-0.7c0.7-0.5,1.2-1.2,1.4-1.9
				c0.1-0.6,0-1.1-0.3-1.5c-0.8-1.1-2.6-1.8-3.8-1c-0.5,0.3-1,0.6-1.5,0.9c-0.2,0.1-0.5,0.1-0.7-0.1c-1.5-1.9-3.3-3.3-5.4-4.2
				c-7.2-3.3-19.5,0.8-24.4,8.1c-0.2,0.2-0.5,0.3-0.7,0.1c-0.2-0.2-0.3-0.5-0.1-0.7c5.2-7.8,17.9-12,25.7-8.5
				c2.1,0.9,3.9,2.4,5.5,4.2c0.4-0.2,0.7-0.4,1.1-0.6c1.8-1.1,4.2-0.3,5.3,1.2c0.5,0.7,0.7,1.5,0.5,2.3c-0.2,1-0.9,1.9-1.8,2.6
				c-0.4,0.3-0.9,0.5-1.4,0.7c1.4,3.6,2.2,8,2.3,12.4c0.4,18-5.6,23.6-10.1,26.2c-5.9,3.5-10.2,6.4-12.7,8.6
				c-2.5,2.3-2.6,6.5-1.6,9.7c0.1,0.4,0.2,0.5,0.3,0.8c0,0,0,0,0.1,0c0.1,0,0.2-0.1,0.2-0.2l0.2-0.2c0.1-0.1,0.2-0.2,0.3-0.3
				c-0.8-0.9-1-2.3-0.5-3.5c0.5-1.4,1.8-2.3,3.4-2.4c2.1-0.1,3.7,0.7,4.6,2.2c1.1,1.7,1,4-0.1,6.1
				C138.7,107.2,135.4,110.1,131.6,110.1z"/>
		</g>
	</g>
	<g>
		<path d="M99.6,13.8c-1-1.9-3.5-2.8-5.5-1.9c-2.1,0.9-3.1,3.1-4.5,4.8c-0.9-1.8-2.5-3.2-4.4-3.9c-1.7-0.7-4.1-1-5.5,0.6
			c-2.5,2.8,0.2,8.1,1.7,10.8c1.2,2.2,3.1,5.1,5.7,6c2.3,0.8,5.1-1.6,6.8-2.9C97.6,24.4,102.1,18.7,99.6,13.8z M96.1,23.2
			c-0.9,1.1-2,2.2-3.2,3.1c-1.1,0.8-2.6,2-3.8,2.4c-3,1-5.5-3.6-6.7-5.7c-0.8-1.6-1.5-3.2-1.9-4.9c-0.4-1.9-0.6-4.5,2-4.6
			c2.7-0.1,5.5,2.3,6.2,4.8c0.2,0.7,1.3,0.5,1.4-0.1c1.2-1.3,2-2.9,3.3-4.2c2.3-2.2,5.2-0.8,5.4,2.2C99,18.8,97.7,21.3,96.1,23.2z"
			/>
	</g>
	<g>
		<path d="M118.9,14.8c-1.1-1.1-3.3,0.2-4.4,0.7c-0.8,0.4-1.7,0.9-2.6,1.4c1.4-2.2,2.5-4.6,3.2-7.1c0.1-0.1,0.1-0.2,0.2-0.3
			c0.5-1.6,2-2.7,2.8-4.2c0.7-1.6,0.4-3.7-1-4.8c-1.2-1-2.5-0.2-3.1,1c-0.9,2.1-0.6,4.6-0.1,6.7c0,0.1,0.1,0.2,0.2,0.3
			c-0.1,0.1-0.1,0.2-0.2,0.3c-0.5,2.1-1.3,4.1-2.3,6c0.2-2.5-0.2-5.3-2.2-5.5c-1.7-0.1-2,2-2.1,3.3c-0.1,0.9-0.1,1.8,0.2,2.7
			c0.4,1.3,1.1,2.3,1.5,3.5c-0.4,0.5-0.8,1.1-1.3,1.6c-1.4,1.6-3,3.1-4.8,4.3c1.6-1.5,2.8-3.2,2.2-4.9c-0.1-0.3-0.5-0.6-0.9-0.5
			c-3,1-5.7,4.3-7,7.1c-0.1,0.1-0.2,0.2-0.3,0.3c-0.1,0.1-0.1,0.2-0.1,0.3c-0.1,0.1-0.1,0.3-0.1,0.4c-0.3,0.5,0.4,1.2,1,0.9
			c0.2-0.1,0.4-0.2,0.7-0.3c0.1,0,0.2,0,0.3,0c1.9,0.5,3.7,1,5.7,1.1c1.2,0.1,3.8,0.2,4.4-1.3c0.5-1.3-1.5-2-2.5-2.1
			c-1-0.2-2-0.1-2.9,0.1c0.2-0.1,0.4-0.3,0.6-0.4c1.8-1.2,3.4-2.7,4.8-4.3c0.3-0.4,0.7-0.8,1-1.2c0.2,0.1,0.4,0,0.6-0.1
			c2.2-0.4,4.5-0.5,6.6-1.4C118.1,17.9,120.3,16.1,118.9,14.8z M115,3.2c0.1-0.7,0.4-2.4,1.4-1.5c0.6,0.5,0.7,1.7,0.6,2.4
			c-0.2,1.2-1.1,2.1-1.9,3.1C114.8,5.9,114.7,4.5,115,3.2z M99.2,25.7c1.1-1.8,2.8-3.8,4.5-4.7c-0.3,1.3-1.8,2.6-2.7,3.3
			C100.5,24.8,99.9,25.2,99.2,25.7z M105.4,27.1c0.5,0,2.8,0.4,1.1,0.8c-1.5,0.3-3.1,0.1-4.7-0.3c0.2,0,0.4-0.1,0.6-0.1
			C103.4,27.3,104.4,27.1,105.4,27.1z M109.3,10.9c1.2,0,0.8,4.6,0.5,6.3c-0.5-1-1-2-1.1-3.1C108.6,13.4,108.5,10.9,109.3,10.9z
			 M116.9,17c-0.7,0.5-1.7,0.7-2.5,0.9c-0.6,0.1-1.3,0.3-1.9,0.3c0.4-0.2,0.7-0.4,1.1-0.6c0.8-0.5,3.2-2.2,4.1-1.9
			C118.2,15.9,117.4,16.7,116.9,17z"/>
	</g>
	<g>
		<path d="M109.4,115.6c0-0.2-0.2-0.4-0.4-0.5c-0.1-0.1-0.1-0.2-0.2-0.2c-0.1,0-0.2-0.1-0.2-0.1c-0.5-0.8-1.5-1.3-2.3-1.7
			c-0.4-0.2-0.9-0.1-1,0.4c-0.3,1,0.5,1.6,1.4,2c-1.1,0.2-2.2,0.4-3.4,0.5c-0.6-1.3-1.9-2.9-3.4-2.8c-0.5,0-0.9,0.5-0.6,1
			c0.4,0.8,1.1,1.5,1.8,2.1c-1,0.1-1.9,0.1-2.9,0.2c0,0,0-0.1,0-0.1c-0.9-1.5-2.1-2.9-3.7-3.6c-0.3-0.1-0.8-0.1-1,0.2
			c-0.9,1.6,0.7,2.5,1.9,3.5c-1.8,0-3.7,0-5.5-0.1c0,0,0,0,0,0c-1.4-1.6-1.9-4-4.2-4.6c-0.4-0.1-0.7,0.1-0.9,0.5
			c-0.5,1.4,0.5,2.9,1.6,4.1c-1.1-0.1-2.2-0.1-3.3-0.2c-0.3,0-0.6,0-0.9,0c-0.4-1.4-2.7-5.2-4.3-4.2c-1.2,0.8,0.1,2.7,1.5,4
			c-2.1-0.1-4.2-0.3-6.3-0.6c0.2-1.8-0.7-3.6-2-4.9c-0.3-0.3-0.9-0.3-1.1,0.1c-0.7,1.6-0.2,3,0.6,4.4c-1.7-0.3-3.5-0.6-5.2-1
			c0-1.3-0.1-4.9-1.9-4.8c-2.2,0-0.9,2.8,0,4.3c-1.5-0.4-3-0.9-4.4-1.5c0,0,0-0.1-0.1-0.1c-0.5-0.6-1.1-1.2-1.7-1.7
			c-0.6-0.5-1.5-1.3-2.4-1.1c-1,0.3-0.9,1.6-0.4,2.2c0.8,1,2.1,1.4,3.2,2.1c0.4,0.3,0.8,0.1,1.1-0.1c1.2,0.5,2.5,0.9,3.7,1.3
			c-1.2,0.7-2.2,1.6-2.8,2.7c-0.1,0.3,0.2,0.7,0.5,0.8c1.9,0.3,3.8-1.1,4.7-2.7c0-0.1,0.1-0.1,0.1-0.2c1.7,0.4,3.3,0.7,5,1
			c-1.9,1.1-4.3,2.8-3,4c1.5,1.4,5.2-2.4,5.7-3.6c0,0,0,0,0-0.1c2,0.3,4.1,0.4,6.1,0.6c-1,0.6-1.8,1.6-2.3,2.5c-0.2,0.4,0,0.9,0.4,1
			c2.3,0.5,3.8-2.2,5.4-3.2c0,0,0,0,0,0c0,0,0.1,0,0.1,0c1.4,0.1,2.8,0.1,4.2,0.2c-1.2,0.7-2.2,1.5-2.8,2.7c-0.2,0.4,0,0.8,0.4,1
			c1.9,0.4,5-1.6,5.4-3.5c1.3,0.1,2.7,0.1,4,0.1c-0.7,0.6-1.3,1.2-1.4,2c-0.1,0.4,0.2,0.8,0.7,0.8c1.7,0,3.8-1.4,4.8-2.8
			c0.6,0,1.3,0,1.9-0.1c-0.4,0.4-0.8,1-1,1.5c-0.1,0.4,0.2,0.7,0.5,0.8c1.4,0.5,2.9-1.3,3.7-2.2c0.1-0.1,0.1-0.2,0.2-0.3
			c0.9-0.1,1.9-0.2,2.8-0.4c-0.4,0.4-0.7,0.9-1,1.4c-0.3,0.5,0.1,0.9,0.6,1c1.8,0.1,2.9-1.8,3.9-2.8c0.1-0.1,0.1-0.2,0.2-0.2
			C109.5,116.1,109.5,115.8,109.4,115.6z M61.7,116.4c0.3-0.2,0.6-0.5,0.9-0.7C62.3,116,62,116.3,61.7,116.4z M70.9,112.6
			c0.3,0.5,0.5,1,0.6,1.5C71.3,113.6,71,113.1,70.9,112.6z M85.9,119.6c0.5-0.5,1.1-0.9,1.7-1.2C87.2,118.9,86.5,119.4,85.9,119.6z
			 M86,113.4c0.8,0.6,1.3,1.5,1.8,2.5C87.1,115.1,86.3,114.2,86,113.4z"/>
	</g>
</g>
</svg>
