<?xml version="1.0" encoding="utf-8"?>
<!-- Generator: Adobe Illustrator 19.0.1, SVG Export Plug-In . SVG Version: 6.00 Build 0)  -->
<svg version="1.1" id="Capa_1" xmlns="http://www.w3.org/2000/svg" xmlns:xlink="http://www.w3.org/1999/xlink" x="0px" y="0px"
	 viewBox="178 411.7 15 18.2" style="enable-background:new 178 411.7 15 18.2;" xml:space="preserve">
<style type="text/css">
	.st0{fill:#FFFFFF;}
</style>
<g>
	<g>
		<path class="st0" d="M190.6,413.9h-2.9c-0.1-2-1.2-2.2-2.5-2.2c-1.3,0-2.3,0.2-2.5,2.2h-2.9c-1.2,0-1.8,0.8-1.8,1.9v0.1
			c0,0.9,0,1.6,1,1.9v9.9c0,1.2,1,2.1,2.2,2.1h8.1c1.2,0,1.7-1,1.7-2.1v-9.9c1-0.3,2-1.1,2-1.9v-0.1
			C193,414.6,191.8,413.9,190.6,413.9z M185.2,412.7c0.7,0,1.3,0.2,1.5,1.2h-3C183.9,412.9,184.5,412.7,185.2,412.7z M190,427.7
			c0,0.6-0.1,1.1-0.7,1.1h-8.1c-0.6,0-1.2-0.5-1.2-1.1v-9.9h10V427.7z M192,415.9c0,0.5-0.4,1-1,1h-11c-0.6,0-1-0.5-1-1l0,0
			c0-0.5,0.4-1,1-1h11C191.6,414.9,192,415.3,192,415.9L192,415.9z"/>
		<path class="st0" d="M182.5,427.6c0.3,0,0.5-0.2,0.5-0.5v-5.6c0-0.3-0.2-0.5-0.5-0.5s-0.5,0.2-0.5,0.5v5.6
			C182,427.4,182.2,427.6,182.5,427.6z"/>
		<path class="st0" d="M185.5,427.6c0.3,0,0.5-0.2,0.5-0.5v-5.6c0-0.3-0.2-0.5-0.5-0.5c-0.3,0-0.5,0.2-0.5,0.5v5.6
			C185,427.4,185.2,427.6,185.5,427.6z"/>
		<path class="st0" d="M187.5,427.6c0.3,0,0.5-0.2,0.5-0.5v-5.6c0-0.3-0.2-0.5-0.5-0.5c-0.3,0-0.5,0.2-0.5,0.5v5.6
			C187,427.4,187.2,427.6,187.5,427.6z"/>
	</g>
</g>
</svg>
