<?xml version="1.0" encoding="utf-8"?>
<!-- Generator: Adobe Illustrator 21.0.0, SVG Export Plug-In . SVG Version: 6.00 Build 0)  -->
<svg version="1.1" id="Слой_1" xmlns="http://www.w3.org/2000/svg" xmlns:xlink="http://www.w3.org/1999/xlink" x="0px" y="0px"
	 viewBox="0 0 19 19" style="enable-background:new 0 0 19 19;" xml:space="preserve">
<style type="text/css">
	.st0{fill:#7F7D7C;}
</style>
<title>icon-ru</title>
<path class="st0" d="M17.5,1.3c-1.4-1.3-7-1.4-10.2-1.3c-2.2,0.1-5,0.4-5.8,1.4c-2,2.1-2,14.1,0,16.1C2.7,18.8,7.2,19,9.1,19h0.4
	c3,0,6.9-0.4,8-1.4c1.1-1,1.4-4.7,1.5-6.8C19.1,8.1,18.8,2.6,17.5,1.3 M17.9,10.7c-0.1,3.6-0.6,5.7-1.1,6s-3.4,1.1-7.3,1.1
	c-4.2,0-6.7-0.5-7.2-1.1C0.9,15.4,0.6,4,2.3,2.1c0.4-0.4,2.1-0.9,5.1-1c4.1-0.2,8.6,0.3,9.4,1C17.6,2.9,18.1,6.3,17.9,10.7"/>
<path class="st0" d="M5.1,11.5h0.8V12H3.3v-0.5h0.8V6.3H3.3V5.8h0.9H5H6c0.3,0,0.6,0,0.9,0.1C7.1,5.9,7.4,6,7.6,6.2
	C7.8,6.3,8,6.4,8.1,6.6c0.1,0.2,0.2,0.5,0.2,0.8c0,0.4-0.1,0.8-0.4,1.1c-0.3,0.3-0.6,0.5-1,0.6l1.8,2.4h0.5V12H7.8L6,9.3H5.1V11.5z
	 M5.8,8.9c0.4,0,0.8-0.1,1.1-0.4c0.3-0.3,0.4-0.6,0.4-1c0-0.4-0.1-0.7-0.4-1C6.5,6.3,6.1,6.1,5.7,6.2H5.3H5v2.7L5.8,8.9z"/>
<path class="st0" d="M14.9,10.9c-0.1,0.3-0.3,0.5-0.5,0.7c-0.2,0.2-0.5,0.3-0.7,0.4c-0.3,0.1-0.6,0.1-1,0.1c-0.7,0-1.3-0.1-1.9-0.5
	c-0.5-0.4-0.7-1-0.7-1.6V6.3H9.4V5.8h2.5v0.5h-0.7v3.6c0,0.3,0,0.5,0.1,0.8c0.1,0.2,0.2,0.4,0.3,0.5c0.2,0.1,0.3,0.2,0.5,0.3
	c0.2,0.1,0.5,0.1,0.7,0.1c0.4,0,0.9-0.1,1.2-0.4c0.3-0.3,0.5-0.8,0.4-1.3V6.3h-0.7V5.8h2.1v0.5h-0.8v3.6
	C15.1,10.2,15.1,10.6,14.9,10.9z"/>
</svg>
