<svg xmlns="http://www.w3.org/2000/svg" viewBox="0 0 126.26 159.23"><title>icon-menu-cake</title><path d="M116,79.7c-1.1-9.4-16.7-19.2-24.6-22.3-5.4-2.1-8.4-1.1-13-2.6,1.1-3.9,3.3-2.5,4.4-8.7,3.5-20-14.2-19.4-15.3-20,2.5-3,5.2-2.6,7.9-5.4l5.1-7.8c-2.4-.7.3,0-1.3.2-1.1.2,0,.4-1.1,0a19.78,19.78,0,0,0,.2-6.9c-.9-5.1-2.6-4.6-2.6-4.6-.7,1-.7-.5-1.3,2.8-.3,1.8,1.9,7.6-5.5,13.2-5.4,4.1-3.6-.4-6.4,4.9-6.2,11.8-15,6.1-15.4,16.6-.3,6.8,1.6,9.5,5.8,15.5-5.5,3.3-25.3,7.4-33.8,20.7-5.8,9.1-3.4,9.6-3.3,13.4-6.9-.7-5.8-3.1-10.4-2.8-7.5.4-2.3,9.5.9,19.2,7.2,22,6.6,11.6,11,35.9a90.25,90.25,0,0,0,2.1,9.2c1.1,3.2,1.3,3.7,2.9,8h0l.1.1c0,.1.1.2.1.3h.1c.8.8,3.6,2.4,12.9,2.2,12.3-.3,57.3-2,64.6-2.9,5.7-.7,8.7-1.7,9.8-2.8h.2c1.6-3.7,2.3-4.7,2.8-9.1.4-3.7.6-6.6,1-10.4.4-3.1,4.2-13.5,5.3-16.5a26.72,26.72,0,0,0,.9-2.6,50.46,50.46,0,0,0,2.7-14.8c.6-8.7,4.8-11.6,5-16.5C125.15,81.8,122.35,80,116,79.7ZM52.25,38.1c2.6-3.3,1.1-4.2,7-3.6,2.9.3,5.4,1.7,8.7,1.8,3.8-4.2,7.7-3.2,7.4,2.9-.2,4.2-1.7,5.1-6.8,7.5C57,51.9,55.45,47,52.25,38.1ZM32.55,68.7c1.6-.7,1.9-.4,3.4-1,2.3-.9,3.2-2.2,6.2-3.2,21.5-7.4,11.7-2.8,18.2-3.4l2.4-1.6c7.9,0,23.3,2.5,28.7,5.6,5,2.9,15.5,11.6,17.5,16.6-1.8.4-4.2.7-6.1,1.1-2.9.7-2.2,1.2-5.4,1.5-2.1-1.2-6.6-4.4-10.3-4.2-5,.3-6.1,3.4-10.6,4.6-5.6-.4-10.2-12.3-22.5.2-5.7-2.5-8.3-6.3-17-2.9-6.2,2.4-8.6,6-12.6,9.4-3.8-.4-4.7-.9-7.2-2.9C18.55,80.7,25.55,71.5,32.55,68.7ZM47,154.1h-4.8c-1.4-5.1-1.4-7.2-1.9-12.5-.5-4.9-2.3-10.3-3-15.6-1-7.4-2.8-22.4-7-28.7,2.4-5.5,7.9-8.7,14.6-8.3,6.1,8.3,2.3,17.6,2.1,33.5C46.85,138.9,42.55,136.8,47,154.1ZM65,141.6c.2,9.4-1.8,6.2,1.5,10.9l-10.4.6c-2.1-19.9-1.3-34.6-1.1-55.8,2.6-3.5,8.4-9.6,12.9-9.8l2.2,2.1c-.8,4.5-2.5,9-3.3,15A268.93,268.93,0,0,0,65,141.6Zm26.3-40.8c-5.3,21.5-2.7,16.9-4.9,35.7-1.1,9.8-.1,6.7.8,15l-11,.5L74,138.2c.3-22.1,1.8-18.8,3.1-36.5.6-8.6-1.9-4.2,9.8-10.5C96,86.3,92.75,94.5,91.25,100.8Zm-71.9,7.8c-5.3-14.5-.3-6.1-5.6-12L13,95.3c4.7.7,9.5,2.9,13.1,4.7,1.4,9.9,3.9,18.7,5.9,28.8,1.9,9.5,2.4,16.1,4.5,25.6h-7.1l-2.9-13.7C25.85,131.6,22.35,117,19.35,108.6Zm93.1-10c-.9,2.8-.9,5-1.3,8.2-.7,4.9-4,9-4.9,14.2-1,5.8-.2,11.9-1.8,18.3-1.9,7.8-.9,3.6-1.1,11.3l-8.9.5c.6-7.1-.5-16.1.9-25,.7-4.6,1.9-9.6,2.6-14,1-6.5,0-9.2.5-14.6,4-3.9,8.6-6.2,16.2-7C114.25,95.2,113.75,94.4,112.45,98.6Z" transform="translate(-1.5 -1.59)"/></svg>