<?xml version="1.0" encoding="utf-8"?>
<!-- Generator: Adobe Illustrator 21.0.0, SVG Export Plug-In . SVG Version: 6.00 Build 0)  -->
<svg version="1.1" id="Слой_1" xmlns="http://www.w3.org/2000/svg" xmlns:xlink="http://www.w3.org/1999/xlink" x="0px" y="0px"
	 viewBox="0 0 19 19" style="enable-background:new 0 0 19 19;" xml:space="preserve">
<style type="text/css">
	.st0{fill:#7F7D7C;}
</style>
<title>icon-info</title>
<path class="st0" d="M17.5,1.4c-1.4-1.3-7-1.5-10.2-1.3c-2.2,0.1-5,0.4-5.8,1.4c-2,2.2-2,14.2,0,16.2C2.7,18.9,7.2,19,9.1,19h0.4
	c3,0,6.8-0.4,8-1.4c1.2-1,1.4-4.7,1.5-6.9C19.1,8,18.9,2.5,17.5,1.4 M17.9,10.7c-0.1,3.6-0.6,5.7-1.1,6c-0.5,0.4-3.4,1.1-7.3,1.1
	c-4.2,0-6.7-0.5-7.2-1.1c-1.4-1.5-1.7-12.7,0-14.7c0.3-0.3,2.1-0.8,5.1-0.9c4.1-0.2,8.6,0.3,9.4,1C17.6,2.9,18,6.3,17.9,10.7"/>
<path class="st0" d="M11.3,14.8H7.7v-0.7h1V7.9h-1V7.2h2.5v6.9h1L11.3,14.8z M8.5,4.9c0-0.3,0.1-0.5,0.3-0.7C9,4.1,9.2,4,9.5,4
	c0.3,0,0.5,0.1,0.8,0.2c0.2,0.2,0.3,0.4,0.3,0.7c0,0.3-0.1,0.5-0.3,0.7C10,5.7,9.8,5.8,9.5,5.8C9.2,5.8,9,5.7,8.7,5.6
	C8.6,5.4,8.5,5.2,8.5,4.9z"/>
</svg>
