<?xml version="1.0" encoding="iso-8859-1"?>
<!-- Generator: Adobe Illustrator 19.0.0, SVG Export Plug-In . SVG Version: 6.00 Build 0)  -->
<svg version="1.1" id="Capa_1" xmlns="http://www.w3.org/2000/svg" xmlns:xlink="http://www.w3.org/1999/xlink" x="0px" y="0px"
	 viewBox="0 0 480 480" style="enable-background:new 0 0 480 480;" xml:space="preserve">
	<path d="M400,208.008h-48v-16c0-8.832-7.168-16-16-16H16c-8.832,0-16,7.168-16,16v128c0,79.392,64.608,144,144,144h64
		c62.496,0,115.264-40.256,135.168-96H400c21.6,0,41.696-8.416,56.288-23.392C471.584,329.704,480,309.608,480,288.008
		C480,243.912,444.128,208.008,400,208.008z M320,320.008c0,61.76-50.24,112-112,112h-64c-61.76,0-112-50.24-112-112v-112h288
		V320.008z M433.664,321.96c-8.832,9.056-20.8,14.048-33.664,14.048h-49.632c0.608-5.312,1.632-10.528,1.632-16v-80h48
		c26.464,0,48,21.536,48,48C448,300.904,443.008,312.84,433.664,321.96z"/>

	<path d="M285.952,72.168c-10.624-18.912-3.968-27.392-2.912-28.576c6.208-5.92,6.688-15.744,0.928-22.208
		c-5.888-6.624-16.032-7.232-22.592-1.344c-1.12,1.024-27.36,25.056-3.328,67.808c10.848,19.264,3.712,27.712,3.328,28.192
		c-6.592,5.856-7.232,16-1.344,22.592c3.168,3.552,7.552,5.376,11.968,5.376c3.776,0,7.584-1.344,10.624-4.032
		C283.744,138.984,309.984,114.92,285.952,72.168z"/>

	<path d="M173.952,72.168c-10.624-18.912-3.968-27.392-2.912-28.576c6.208-5.92,6.688-15.744,0.928-22.208
		c-5.888-6.624-16.064-7.232-22.592-1.344c-1.12,1.024-27.36,25.056-3.328,67.808c10.848,19.264,3.712,27.712,3.328,28.192
		c-6.592,5.856-7.232,16-1.344,22.592c3.168,3.552,7.552,5.376,11.968,5.376c3.776,0,7.584-1.344,10.624-4.032
		C171.744,138.984,197.984,114.92,173.952,72.168z"/>

	<path d="M61.952,72.168c-10.624-18.912-3.968-27.392-2.912-28.576c6.208-5.92,6.688-15.744,0.928-22.208
		c-5.92-6.624-16.064-7.232-22.592-1.344c-1.12,1.024-27.36,25.056-3.328,67.808c10.848,19.264,3.712,27.712,3.328,28.192
		c-6.592,5.888-7.232,16-1.344,22.592c3.168,3.552,7.552,5.376,11.968,5.376c3.776,0,7.584-1.344,10.624-4.032
		C59.744,138.984,85.984,114.92,61.952,72.168z"/>

</svg>
