<svg version="1.1" xmlns="http://www.w3.org/2000/svg" xmlns:xlink="http://www.w3.org/1999/xlink" x="0px" y="0px"
	 viewBox="228 60 501 442" enable-background="new 228 60 501 442" xml:space="preserve">
<g>

	<g>
		<path d="M270,123.1c134.3-21,270.2,1.9,405.1-11.5c34.2-3.4,54.1-45.4,8.1-40.8C548.2,84.2,412.5,61.3,278,82.3
			C244.6,87.5,224.1,130.3,270,123.1z"/>
		<path d="M260.5,128.9c-8.8,0-15.1-2.3-18.9-7c-3.6-4.5-4.2-10.6-1.7-17.2c4.4-11.4,18.6-24.5,37.3-27.4
			c74.1-11.6,149.5-9.9,222.5-8.3c60,1.3,122.1,2.7,182.9-3.3c28.3-2.8,31.9,11.3,32.3,15.7c1.4,14-15.9,32.7-39.4,35.1
			c-61.4,6.1-123.8,4.7-184.2,3.4c-72.6-1.6-147.6-3.3-220.6,8.1h0C267,128.6,263.6,128.9,260.5,128.9z M421.5,77.9
			c-47.5,0-95.5,1.9-142.7,9.3c-14.3,2.2-26.3,12.5-29.6,21.2c-0.9,2.2-1.5,5.3,0.1,7.4c2.5,3.1,9.9,4.1,19.9,2.5h0
			c73.9-11.6,149.4-9.9,222.4-8.2c60.1,1.3,122.2,2.7,183-3.3c18.6-1.8,31.3-16,30.5-24.2c-0.5-5.5-8.6-8-21.4-6.8
			c-61.4,6.1-123.8,4.7-184.1,3.3C473.8,78.5,447.7,77.9,421.5,77.9z"/>
	</g>
	<g>
		<path d="M261,302.1c87.8,5.6,174.8-8,262.6-5.8c53.7,1.3,102.4,9.8,164.7-1.9c13.2-3.3,29.5-10.1,29.7-25.8c0-0.6,0-1.3,0-1.9
			c0.2-15.1-28-15.9-48-7.1c-48.1,8.8-101.8-3.5-150-3.1c-77.4,0.6-154.6,11.4-232,6.4C261.4,261.2,215.9,299.2,261,302.1z"/>
		<path d="M306.5,308.4c-15.3,0-30.6-0.4-45.8-1.4h0c-21.4-1.4-24.1-10.7-23.7-16.1c1-15.2,30.8-34.3,51.4-33
			c46.8,3,94.4,0.1,140.4-2.6c29.9-1.8,60.8-3.6,91.3-3.9c18.1-0.1,37.3,1.5,55.9,3.1c31.1,2.7,63.2,5.4,92.7,0.2
			c14.6-6.2,35.9-8.7,47.2-1.2c4.7,3.1,7.2,7.8,7.2,13.1l0,1.9c-0.2,14.7-11.4,25-33.5,30.5l-0.3,0.1c-46.5,8.7-86.1,6.3-124.3,4
			c-13.5-0.8-27.5-1.7-41.5-2c-39.3-0.9-79.2,1.3-117.8,3.5C373.2,306.5,339.9,308.4,306.5,308.4z M261.4,297.1
			c48,3.1,96.7,0.3,143.8-2.4c38.8-2.2,78.9-4.5,118.6-3.5c14.2,0.3,28.2,1.2,41.8,2c37.6,2.3,76.5,4.6,121.7-3.8
			c17-4.3,25.7-11.4,25.8-21l0-1.9c0-1.4-0.3-3.2-2.7-4.8c-7.1-4.7-24.7-3.7-38.3,2.3l-0.5,0.2l-0.6,0.1
			c-30.9,5.6-63.9,2.8-95.9,0.1c-19.2-1.6-37.3-3.2-54.9-3.1c-30.2,0.2-61,2.1-90.7,3.8c-46.3,2.8-94.2,5.6-141.6,2.6
			c-16.9-1.1-40.4,15.5-40.9,23.7C246.7,294.4,252.4,296.5,261.4,297.1L261.4,297.1z"/>
	</g>
	<g>
		<path d="M664.1,437.8c-72,8.8-118.3,11.2-176.6,8.7c-69.7-3-139.1,2.1-208-7.7c-32.6-4.6-68,34.4-23.2,40.7
			c82.5,11.7,166.7,13.1,250.4,13.8c63.5,0.6,135.3-1.1,186.7-18.6C725.3,461.2,714.7,429.6,664.1,437.8z"/>
		<path d="M524.8,498.4c-6.1,0-12.2,0-18.2-0.1c-85.9-0.7-169.8-2.4-251-13.9c-25.1-3.6-26-16.6-25.2-22
			c2.2-15.4,26.1-31.9,49.8-28.6c44.1,6.3,89.5,6.4,133.3,6.4c24.3,0,49.4,0.1,74.2,1.2c57.2,2.5,103.2,0.2,175.7-8.6
			c33.5-5.4,49.2,5.7,52.4,16.9c3.3,11.3-4.8,22.9-20.5,29.5l-0.3,0.1C648,495.4,584.1,498.4,524.8,498.4z M273.9,443.4
			c-16.9,0-32.5,11.8-33.7,20.5c-1.1,7.4,11.4,10,16.8,10.8c80.7,11.4,160.8,13,249.7,13.8c63.2,0.6,134.5-1.2,184.9-18.3
			c10.5-4.5,16.4-11.5,14.7-17.6c-2.2-7.6-16.1-13.9-41.4-9.8l-0.2,0c-73.1,8.9-119.5,11.2-177.4,8.7c-24.6-1.1-49.6-1.1-73.7-1.2
			c-44.2-0.1-89.9-0.2-134.7-6.5C277.2,443.5,275.6,443.4,273.9,443.4z"/>
	</g>

</g>
</svg>
