
<svg version="1.1" id="Слой_1" xmlns="http://www.w3.org/2000/svg" xmlns:xlink="http://www.w3.org/1999/xlink" x="0px" y="0px"
	 viewBox="0 0 960 720" enable-background="new 0 0 960 720" xml:space="preserve">
<path stroke="#000000" stroke-width="5.6693" stroke-miterlimit="10" d="M693.9,55.6c6.7-6.1,14.1-7.9,22.2-5.2
	c1,0.4,3.1,1.4,6.3,3.2c10,6.5,15.5,12.1,16.4,16.7c1,4.6-1.8,11.8-8.3,21.6c-6.3,9.8-11.9,16.7-16.7,20.7c-6.5,5.2-6.5,10.8,0,17
	c5.2,4.4,7.8,7.7,7.8,9.8c0.2,2.3-1.7,6.3-5.8,12.1c-5.2,7.9-12.3,16.5-21.3,25.9c-5.2,5.4-13.1,13.3-23.6,23.9l-13.2,13.8
	c-2.7,2.3-5.7,1.8-8.9-1.4c9-13.2,19.7-25.3,32-36.3c3.3-3.1,10.1-11.2,20.4-24.5c3.8-4.8,4.4-9,1.7-12.7
	c-13.8-17.7-26.3-29.9-37.4-36.6c-4.2-2.5-8.2-1.7-11.8,2.3L552.5,223.8c-5.6,6.5-14.4,15.9-26.5,28.2
	c-11.7,13.1-15.5,27.6-11.2,43.8c13.2-3.3,22.7-9.1,28.2-17.6l-10.7-9.2c-2.1-1.9-3.4-3.3-3.7-4c-1.1-1.7-1.1-3.5,0-5.2
	c2.3-2.9,6.1-3.3,11.5-1.2c1.2,0.8,2.6,2.6,4.3,5.5c1.5,2.5,3.2,3.9,4.9,4.3c18.8-17.7,32.6-31.2,41.5-40.6
	c15.9-15.9,27.8-27.9,35.7-36c14.4-14.6,26-27.3,34.9-38c6-7.3,9.3-12,10.1-14.1c0.4-1.7,1.2-3.3,2.6-4.6c5-3.6,9.2-3.9,12.7-0.9
	c4.4,3.5,4,7.5-1.2,12.1c-8.1,6.9-18.5,17.4-31.4,31.4c-14.2,15.6-24.6,26.4-31.1,32.5c-31.5,28.8-54.3,53.1-68.5,72.9
	c-6.3,8.8-11.1,14.6-14.4,17.3c-6.1,5.4-13.2,7.8-21.3,7.2c-6,5.4-13.9,8-23.9,7.8l-28.5-1.4c-2.7-1-4.2-1.5-4.6-1.7
	c-1.5-1-2.2-2.5-2-4.6c0.6-2.1,3-3.2,7.2-3.2h33.4c-0.6-4-0.2-10.2,1.2-18.4c1.1-7.9,1.2-13.9,0.3-18.1c-0.6-2.9-0.1-5.5,1.4-7.8
	c0.8-1,2.6-2.8,5.5-5.5c11.5-10.2,25.6-25,42.3-44.4c20.2-23.8,33.7-39.3,40.6-46.4c4.2-5.8,7.7-10.3,10.4-13.5
	c-6.7-2.7-14.6-4.2-23.6-4.6c-5.4-0.6-13.2-0.9-23.3-0.9c-38.8-1.7-95.7-3.7-170.8-6c-8.6-0.4-13.6,0.2-15,1.7
	c-1.3,1.2-2.6,6.1-3.7,15c-2.7,20.9-4,46.3-4,76c0,16.7,0.2,41.9,0.6,75.5c0,4.8,0.3,8.4,0.9,10.7c1.2,8.3,1.2,13.2,0.3,15
	c-1.2,1.7-5.8,3.7-13.8,6c1-4.4,1.4-7.5,1.4-9.2c0.2-3.3-0.7-6.1-2.6-8.6c-3.6,0-7.1,1.3-10.4,4c-1.9,1.5-4.9,3.9-8.9,7.2
	c1.7,1,5.6,1.3,11.5,1.2c4.4-0.4,7.4,1.2,8.9,4.9c-19.4,8.3-30.2,12.7-32.5,13.2c-14,5.2-25.4,15.6-34.3,31.1
	c-8.8,15.2-11.6,30.1-8.4,44.9c4.2-1.7,9.1-5.3,14.7-10.7c6.1-6.1,10.9-10.2,14.1-12.1c1,3.6-1,7.5-5.8,11.5l-13.8,13.2
	c-5,5-5.7,10.2-2,15.6c4.4,6.3,7.8,9.7,10.1,10.1c2.3,0.2,6.2-2.4,11.8-7.8c6-6.1,10-9.9,12.1-11.2c2.3-1.3,7.1-3,14.4-4.9
	c-1,1-6.7,6-17.3,15c-6.3,5.4-10.8,10.6-13.5,15.6c8.3,5.2,13.7,7.6,16.4,7.2c2.5,0,6.9-3.1,13.3-9.2c3.6-3.1,6.3-5.1,8.1-6
	c1.5-0.8,5.5-2.2,11.8-4.3l-19,17.9c-4,3.6-3.5,6.7,1.7,9.2c7.1,3.8,13,5.4,17.6,4.6c4.8-0.6,10.5-3.6,17-9.2
	c4.8-4.8,8.5-8.4,11.2-10.9c4.4-4.4,9.1-7.2,14.1-8.4c-1.3,4.4-5.6,9.4-12.7,15c-6.7,5.4-10.6,10.6-11.5,15.6
	c14,5.4,25.4,2.9,34.3-7.5c1.9-2.5,7.2-7.1,15.8-13.8c1.7-1.3,3.2-1,4.3,1.2c1.3,1.3,1.2,2.7-0.6,4c-2.3,1.9-5.9,4.6-10.7,8.1
	c-4.2,3.5-7.5,6.8-9.8,10.1c5,3.5,10.1,4.5,15.3,3.2c3.8-1.3,6-2.1,6.3-2.3c2.3-0.2,4.6,0.2,6.9,1.2c2.1,1.2,4.3,1.1,6.6-0.3
	c1.9-2.5,3.5-4.2,4.6-5.2c10.4-10.4,19.6-17,27.6-19.9c-1.3,3.6-4.9,7.8-10.7,12.4c-6.1,5-10.2,9-12.1,12.1
	c11.3,2.7,20.5,1.2,27.7-4.6c4.6-4.4,8.3-7.8,10.9-10.1c4.4-3.8,8.8-6.6,13.2-8.4c-0.6,3.8-3.3,7.6-8.1,11.2c-5.2,4-8.3,7.3-9.2,9.8
	c9.2,3.8,18.3,2.8,27.4-3.2c9.8-8.3,17.5-13.7,23-16.4c-0.2,3.8-1.8,7.1-4.9,9.8c-4,3.1-6.2,5.2-6.6,6.3c6.7,2.7,11.7,3.4,15,2
	c3.5-1.3,11.9-7.2,25.3-17.6c1.7,2.9,1.3,5.7-1.1,8.4c-2.9,3.3-4.2,6-4,8.1c9.6,0.8,22.3,0,38-2.3c19.4-2.9,32.1-4.5,38-4.9
	c49.5-2.1,75-3.2,76.3-3.2c-5.8,1.9-9.8,5.9-12.1,11.8c-0.2,0.4-1.2,5.7-2.9,15.8c-1.2,7.1-5.3,12-12.4,14.7
	c-10.6,3.6-19.1,5.8-25.6,6.3c-11.1,1-27.7,2.5-49.8,4.6c-19.2,1.5-35.9,2.3-50.1,2.3c-88.9,0-146-0.3-171.4-0.9
	c-27.6-0.2-58.2-5.7-91.6-16.4c-9.4-2.9-17.8-11.2-25.1-25.1c-1.5-2.7-1.1-4.8,1.2-6.3c1.9-1.3,3.4-1.3,4.3,0
	c4.2,4.4,7.9,5.4,10.9,2.9c3.5-4,6.2-7.1,8.4-9.2c-10-9-15.1-13.6-15.3-13.8c-5.4-5.8-9-11.4-10.9-17c-8.4,3.6-13,6.3-13.5,8.1
	c-0.8,1.5,0.9,5.4,4.9,11.5l6.3,9.8v2.3c-3.8,1.2-7.5,0.8-10.9-1.2c-1.9-1-4.9-3.3-8.9-6.9c-7.3-6.9-11.3-14.7-12.1-23.3
	c-0.2-6.3-1.8-17-4.9-32c-2.7-13.4-3.8-24.1-3.5-32l2-171.1c0.2-19.4,4.2-41.9,12.1-67.4c4.8-14.4,16.4-29.7,34.8-45.8
	c6.3-5.6,15.5-11.3,27.4-17.3c16.5-8.1,26.1-13,28.8-14.7c4.6-2.3,8.5-2.1,11.8,0.6c1.2,1.3,1.6,3,1.4,4.9c-0.2,1.2-0.7,2.9-1.4,5.2
	c-0.8,2.7-1.2,4.6-1.4,5.8c-0.2,2.5,0.3,4.9,1.4,7.2c2.3,0.2,5.4-0.9,9.2-3.2c4.2-1.9,7.4-3,9.5-3.2c5.2-0.2,8.4,0.2,9.8,1.2
	c1.2,1,1.8,3.8,2,8.6l-0.3,28.5c-0.2,6.9,3.1,10.8,9.8,11.5l17.9,2c36.9-0.2,64.4,0.5,82.7,2c16.3,1.2,36.3,2,59.9,2.6
	c26.7,0.4,46.7,0.7,59.9,0.9c6.3,0.4,11.2-0.2,14.7-1.7c4.2-1.9,7.9-5.5,10.9-10.7c3.3-5.2,8-11.2,14.1-18.1
	c6.7-7.5,11.7-13.2,15-17.3c2.3-2.1,3.6-3.2,4-3.2c7.5-1.3,14.4-5.3,20.7-11.8C684.7,65,690.1,59.3,693.9,55.6z M692.8,107.5
	c4.2,4.2,8.1,5.5,11.5,3.7c2.9-1.5,6-4.6,9.2-9.2c3.5-5.8,6-10,7.8-12.7c4.6-7.3,3.4-14.5-3.7-21.6c-4.8-5-10.6-5.4-17.3-1.2
	c-11.5,7.3-21.1,15.7-28.8,25.3c6.5,4.2,10,6.4,10.4,6.6C683.7,99.3,687.4,102.3,692.8,107.5z M694.2,233.9c1-0.5,2.3-0.6,3.8-0.5
	c2.5,0.3,3.8,1.5,3.8,3.4c0,9-0.3,14.6-0.8,16.7c-6.1,18.8-9.7,40.8-10.9,66.1c-0.5,14.8-0.6,37.1-0.3,67c0,6.7,0.8,15.9,2.5,27.7
	c2.2,13,3.4,22.1,3.5,27.5c0.5,6.9,0.7,11.7,0.5,14.4c-0.3,4-1.4,8.5-3.3,13.7c-5.6-15.6-9.3-32.5-11.4-50.8
	c-1-11.7-1.5-28.2-1.5-49.4c0-38.4,1.1-66,3.3-82.6c0.3-3.7,2.1-12,5.3-25.2c2.7-10.4,3.8-18.8,3.3-25.4
	C692.2,235.5,692.9,234.6,694.2,233.9z M552.5,492.5c-3.1,1.2-12.8,8.5-29.1,22.2c12.1,3.5,20.9,3.9,26.5,1.4
	c5.6-2.3,14.1-9.9,25.6-22.8C563.5,491.3,555.8,491,552.5,492.5z M564.9,514.1c13.4,3.3,26,1.8,37.7-4.3c6-2.9,16-10.5,30.2-22.8
	c-14.2-2.9-27.1-1.8-38.6,3.2C584.7,494.6,574.9,502.6,564.9,514.1z M678.7,485.9c-3.3,2.3-8.3,5.3-15,8.9
	c-5.4,3.6-9.4,7.8-12.1,12.4c7.9-0.2,14.4-2.3,19.6-6.3C676.2,496.8,678.7,491.8,678.7,485.9z M642.1,506.6
	c5.4-6.5,14.3-14.7,26.8-24.5c-21.1,0-38.4,9.9-51.8,29.7c6.1,0.6,10.7,0.8,13.5,0.6C635.4,511.6,639.2,509.7,642.1,506.6z
	 M234.3,273.1l0.9,20.7c10-11.5,15.6-18,17-19.3c3.1-4,5.5-7.1,7.2-9.2c3.3-3.5,7.5-5,12.7-4.6c-5.6,6.5-12.9,15.1-21.9,25.6
	c-2.1,2.7-5.5,6.5-10.1,11.5c-3.6,4.8-5.5,10-5.5,15.6c3.5-1.5,6.7-4.4,9.8-8.6c4-5.2,6.7-8.3,8.1-9.2c3.5-3.6,6.2-6.3,8.3-8.1
	c3.5-3.3,7.4-4.3,11.8-3.2c-3.5,5-8.6,10.9-15.6,17.9c-8.4,7.9-13.8,13.4-16.1,16.7c-6.5,7.9-8.4,17.6-5.8,29.1
	c4.2-3.1,11.4-10.2,21.6-21.3c8.1-9.4,15.8-15.6,23.3-18.4c0.4,2.7-0.1,4.7-1.4,6c-0.8,1-2.1,2.1-4,3.5
	c-10.9,9.8-22.8,22.2-35.4,37.2c-2.9,3.6-4.4,6.3-4.6,8.1c-0.2,1.5,0.6,5.4,2.3,11.5c12.1-21.5,23.7-36.3,34.8-44.4l38.3-26.8
	c4.8-3.3,7.9-5.6,9.2-6.9c2.9-3.5,4.2-7.4,4-11.8c0.8-20.7,0-36-2.3-45.8c-2.1-10.2-2.3-25.7-0.6-46.7c1.9-20.9,1.6-36.5-0.9-46.7
	c1.9-4.8,2.8-11.3,2.6-19.6c-0.2-9.8,0.1-16.4,0.9-19.9c1-4,1.4-8.9,1.4-14.7c0.2-6.5,0.4-11.4,0.6-14.7
	c-23.2,5.4-43.3,18.8-60.2,40.3c-18.6,23.6-28.1,51.3-28.5,82.9c1.9,0,4.9-2,8.9-6c3.6-3.5,7.6-4.6,11.8-3.5
	c-2.7,2.9-6.5,7-11.5,12.4c-4.2,4.6-7.3,8.6-9.2,12.1c-2.1,4-3.1,9.3-2.9,15.8c0,3.6,0.1,9.6,0.3,17.9c4.2-1.5,9.7-5.4,16.4-11.5
	c5.6-5.2,10.6-8.2,15-8.9c-5.2,6.3-13.4,15.5-24.8,27.4C236.5,260.1,234.5,266,234.3,273.1z M335.6,135.7
	c-2.3,4.4-2.8,13.4-1.4,27.1c9.2-6,15.4-11.4,18.4-16.4c4.8-6.5,6-14.1,3.7-22.8C345.1,127.2,338.1,131.3,335.6,135.7z M352.4,114.4
	c5.2-5.6,6.9-12.4,5.2-20.4c-12.3,7.3-19.6,12.8-21.9,16.4c-2.1,3.5-1.9,9.2,0.6,17.3C346.8,119,352.2,114.6,352.4,114.4z
	 M353.8,159.3c-12.1,7.5-19.1,12.9-21,16.1c-2.9,5.6-3,16.1-0.3,31.7l7.8-13.5c2.9-4.2,6.5-6.8,10.9-7.8c1.7-0.2,2.6-2.1,2.6-5.8
	L353.8,159.3L353.8,159.3z M332.8,215.2c-1.9,4-1.5,10.5,1.2,19.3c6.7-5,11.4-9.9,14.1-14.7c3.1-6,3.9-12.7,2.6-20.2
	C340.5,206.2,334.5,211.3,332.8,215.2z M333.9,274.2c-0.8,1.9-0.4,7.5,1.2,16.7c8.6-4,13.5-7.3,14.7-9.8c1.5-2.1,1.8-8.3,0.9-18.4
	C341,266.9,335.5,270.8,333.9,274.2z M336.2,263.3c5.8-5,9.5-9.1,11.2-12.4c3.1-5.4,3.4-11.3,0.9-17.9c-9,6.3-14.2,11.2-15.6,14.7
	C331.4,251.2,332.6,256.4,336.2,263.3z M531.4,419.9c-67.3-6.1-117.8-9.6-151.6-10.7c-6.3-0.5-11.1-1.3-14.3-2.4
	c-4.8-1.1-6.2-3.3-4.4-6.7c0.8-2.6,2.4-4,4.8-4h9.9c60.4,6.3,117.4,9.5,171,9.5c4.8,0,7.7,0.3,8.7,0.8c2.6,0.5,3.6,2.9,2.8,7.1
	c-1.3,7.4-5.3,9.9-11.9,7.5C544.3,420.3,539.3,419.9,531.4,419.9z M348.9,295c-2.7-0.8-5.8,0.6-9.2,4
	c-11.9,10.9-27.4,21.5-46.4,31.7c-12.3,6.1-22.7,15-31.1,26.5c-6.7,8.8-13.2,20.7-19.6,35.7c-2.3,5.8-2,10.8,0.9,15.3
	c9-6.7,14.1-10.8,15.3-12.1c5.4-5.2,8.9-10.8,10.7-17c2.1-7.3,3.4-11.5,3.7-12.7c1-1.7,2.6-3.5,4.9-5.2l21.9-17.3
	c19-12.7,33-22.3,42-28.8C349.3,309.7,351.6,303,348.9,295z M321,486.2c-4.6-1.9-10.8-4.7-18.7-8.4c-2.1-0.8-5.2,0.1-9.2,2.6
	c-3.7,2.1-5.5,4.3-5.5,6.6c-0.2,2.7,0.7,4.8,2.6,6.3c1,0.6,3.1,1.4,6.3,2.6c6.7,2.7,11.1,3.6,13.2,2.6
	C311.7,497.8,315.4,493.7,321,486.2z M333.6,490.2c-4.2,0.6-9,5-14.4,13.2c10.4,5,18.2,7.1,23.6,6.3c5.6-1,10.5-5.3,14.7-13
	C345.6,491.8,337.7,489.6,333.6,490.2z M376,498.9c-8.8,1.2-15.6,5.5-20.4,13c10.4,3.6,18.6,4.8,24.8,3.5
	c8.4-1.3,15.4-6.8,20.7-16.4C386,498.7,377.7,498.7,376,498.9z M419.8,515c4.2-1.9,9.7-6.2,16.4-13c-8.8-3.6-15.7-4.6-20.7-2.9
	c-5,1.9-10.6,7.5-16.7,16.7C405.8,518.5,412.8,518.2,419.8,515z M462.7,515.8c6.5-2.3,13.7-8.7,21.6-19.3c-12.1-1.2-21.6-0.5-28.5,2
	c-7.1,2.3-15.1,8.1-23.9,17.3C446.4,518,456.7,518,462.7,515.8z M257.6,407c-8.8,3.1-14.2,7.8-16.1,14.1c-1.7,6-0.1,12.4,4.9,19.3
	c6.3-3.1,10.1-6,11.2-8.9C258.8,428.2,258.8,420,257.6,407z M475.3,518.4c25.9,1.9,46.4-6.4,61.3-25.1
	C504.6,491.1,484.2,499.4,475.3,518.4z"/>
</svg>
