<svg xmlns="http://www.w3.org/2000/svg" viewBox="0 0 88.28 99.89"><title>icon-berry</title><path d="M.87,31.29C5.52,23.38,13.66,14.9,23.43,17.73L13,3C12.17,1.72,14.22.28,15.1,1.52L45.73,45.06a.46.46,0,0,1-.24.7c-.7.19.14,1.67-1.8.76l-18-25.61c-.9,2.83-4.82,5.32-6.85,6.72-.67.46-1.36.88-2.06,1.28S15.58,29.67,15,30a22.7,22.7,0,0,1-13.25,2.9A1.1,1.1,0,0,1,.87,31.29Z" transform="translate(-0.72 -1.05)"/><path d="M62.73,100.11c-7.22,2.33-16.11-.3-26.43-7.82C21.48,81.48,16.79,68.86,23.45,57.66c4.74-8,14.63-13.32,21.07-11.79C45.17,39,53.17,29.75,62.41,28c6.22-1.21,17.64.13,24.26,22.67,2.3,7.82,4.94,22.51-3.14,33-3.43,4.44-7.73,6.61-10.65,6.9A17.08,17.08,0,0,1,66.94,98,15.66,15.66,0,0,1,62.73,100.11Zm9.39-11.79c2,.06,6.14-1.51,9.65-6.07,7.48-9.7,4.95-23.59,2.77-31C80,35.79,72.3,28.29,62.84,30.13,54,31.85,46.15,41.43,46.73,47.32l.19,2-1.78-.84c-4.68-2.22-14.94,2.21-19.79,10.37-3.53,5.93-6.63,17.93,12.25,31.7,9.57,7,18,9.58,24.44,7.5a14.39,14.39,0,0,0,9-8.91l.26-.79Z" transform="translate(-0.72 -1.05)"/></svg>