<svg width="37" height="33" fill="#817878" xmlns="http://www.w3.org/2000/svg" xmlns:xlink="http://www.w3.org/1999/xlink" x="0px" y="0px"
	 viewBox="-437.9 264.9 37 33" style="enable-background:new -437.9 264.9 37 33;" xml:space="preserve">
<path d="M-401.3,280.6c-0.3-0.3-0.7-0.5-1.1-0.5h-0.1c0.5-1,0.8-2.1,0.8-3.2c0-2.5-1.5-4.8-3.8-5.8
	c-0.1-3.5-2.8-6.2-6.2-6.2c-3.4,0-6.2,2.8-6.2,6.2c-0.1,0-0.3,0-0.4,0c-0.6,0-1.1,0.3-1.4,0.7l-0.2,0.2c-0.1,0.2-0.4,0.3-0.6,0.2
	l-0.2-0.1c-0.5-0.2-1.1-0.2-1.6,0.1s-0.8,0.8-0.8,1.3l0,0.3c0,0.1-0.1,0.2-0.1,0.4c-0.1-0.1-0.2-0.2-0.3-0.4l0-0.3
	c0-0.5-0.3-1-0.7-1.3l2-2.8c0.4-0.6,0.5-1.2,0.4-1.9c-0.1-0.7-0.5-1.3-1-1.6c-1.1-0.8-2.7-0.5-3.5,0.6l-3.6,5.2
	c-0.1,0.2-0.2,0.4-0.3,0.6c-0.1,0-0.1,0-0.2,0l-0.2-0.1c-0.5-0.2-1.1-0.2-1.6,0.1c-0.5,0.3-0.8,0.8-0.8,1.3l0,0.3
	c0,0.2-0.2,0.4-0.4,0.4l-0.3,0c-0.6,0.1-1,0.4-1.3,0.9c-0.3,0.5-0.3,1.1-0.1,1.6l0.1,0.2c0.1,0.2,0,0.4-0.2,0.6l-0.2,0.2
	c-0.5,0.3-0.7,0.9-0.7,1.4c0,0.4,0.1,0.7,0.3,1h-0.6c-0.4,0-0.8,0.2-1.1,0.5c-0.3,0.3-0.4,0.7-0.4,1.1c0.4,5.6,3.8,8.3,9,10.8
	c0.6,0.3,1,0.7,1.3,1.3c0.3,0.5,0.2,1.3-0.1,1.9c-0.3,0.5-0.3,1,0,1.5c0.3,0.5,0.7,0.7,1.2,0.7h14.2c0.5,0,1-0.3,1.2-0.7
	c0.3-0.5,0.2-1,0-1.5c-0.3-0.6-0.4-1.3-0.1-1.8c0.3-0.6,0.8-1,1.3-1.3c5.1-2.5,8.6-5.3,9-10.8C-400.9,281.3-401,280.9-401.3,280.6z
	 M-402.9,277c0,1.2-0.4,2.3-1.1,3.2h-3.3v-2.5c0-0.4-0.3-0.6-0.6-0.6c-0.3,0-0.6,0.3-0.6,0.6v2.5h-2.2c0.1-0.1,0.1-0.1,0.1-0.2
	c0,0,0,0,0,0c0.1-0.1,0.1-0.2,0.1-0.3c0,0,0-0.1,0-0.1c0-0.1,0-0.2,0-0.4c0-0.6-0.3-1.1-0.7-1.4l-0.1-0.1c0,0,0.1,0,0.1,0
	c0.1,0,0.1,0,0.2,0c0.1,0,0.2,0,0.4-0.1c0.1,0,0.1,0,0.2,0c0.1,0,0.3-0.1,0.4-0.1c0.1,0,0.1,0,0.2,0c0.2-0.1,0.4-0.1,0.5-0.2
	c0,0,0.1,0,0.1-0.1c0.1-0.1,0.2-0.1,0.4-0.2c0.1,0,0.1-0.1,0.2-0.1c0.1-0.1,0.2-0.1,0.3-0.2c0.1,0,0.1-0.1,0.2-0.1
	c0.1-0.1,0.2-0.1,0.2-0.2c0.1-0.1,0.1-0.1,0.2-0.2c0.1-0.1,0.1-0.1,0.2-0.2c0.1-0.1,0.1-0.1,0.2-0.2c0.1-0.1,0.1-0.1,0.2-0.2
	c0.1-0.1,0.2-0.3,0.4-0.4c0-0.1,0.1-0.1,0.1-0.2c0.1-0.1,0.1-0.2,0.2-0.3c0-0.1,0.1-0.1,0.1-0.2c0.1-0.1,0.1-0.2,0.2-0.3
	c0,0,0-0.1,0.1-0.1c0.1-0.1,0.1-0.3,0.2-0.4c0,0,0-0.1,0-0.1c0.1-0.3,0.2-0.6,0.3-1C-403.9,273.4-402.9,275.1-402.9,277z
	 M-411.6,266.2c2.8,0,5,2.3,5,5.1c0,0.1,0,0.2,0,0.3c0,0,0,0,0,0c0,0.7-0.2,1.3-0.5,1.9c0,0,0,0,0,0c-0.1,0.1-0.1,0.3-0.2,0.4
	c0,0,0,0,0,0c-0.1,0.1-0.1,0.2-0.2,0.3c0,0,0,0,0,0.1c-0.1,0.1-0.1,0.2-0.2,0.3c0,0,0,0.1-0.1,0.1c-0.1,0.1-0.2,0.2-0.2,0.2
	c0,0-0.1,0.1-0.1,0.1c-0.1,0.1-0.2,0.1-0.2,0.2c0,0-0.1,0.1-0.1,0.1c-0.1,0.1-0.2,0.1-0.2,0.2c0,0-0.1,0.1-0.1,0.1
	c-0.1,0.1-0.2,0.1-0.2,0.1c-0.1,0-0.1,0.1-0.2,0.1c-0.1,0-0.2,0.1-0.2,0.1c-0.1,0-0.1,0.1-0.2,0.1c-0.1,0-0.2,0.1-0.2,0.1
	c-0.1,0-0.1,0-0.2,0.1c-0.1,0-0.2,0-0.2,0.1c-0.1,0-0.1,0-0.2,0.1c-0.1,0-0.2,0-0.2,0c-0.1,0-0.2,0-0.2,0c0,0,0,0,0,0v0
	c0,0,0,0,0,0c0-0.1,0-0.2,0-0.3c0,0,0-0.1,0-0.1c0-0.1,0-0.2,0-0.3c0,0,0-0.1,0-0.1c0-0.1-0.1-0.2-0.1-0.3
	c-0.3-0.5-0.8-0.8-1.3-0.9l-0.3,0c-0.2,0-0.3-0.1-0.4-0.3l1.3-1.4c0.2-0.2,0.2-0.6,0-0.9s-0.6-0.2-0.9,0l-0.9,0.9
	c-0.1-0.2-0.3-0.3-0.5-0.4c-0.1-0.1-0.3-0.1-0.4-0.2c0,0-0.1,0-0.1,0c-0.1,0-0.2,0-0.3,0c0,0,0,0,0,0c-0.1,0-0.1,0-0.2,0
	c0,0-0.1,0-0.1,0c-0.1,0-0.3,0.1-0.4,0.1l-0.2,0.1c-0.1,0-0.1,0-0.2,0c0,0,0,0,0,0c-0.1,0-0.1,0-0.2-0.1c-0.1-0.3-0.1-0.6-0.1-0.9
	C-416.6,268.4-414.4,266.2-411.6,266.2z M-421.9,273.9l0-0.3c0-0.2,0.1-0.3,0.2-0.4c0.1-0.1,0.3-0.1,0.4,0l0.2,0.1
	c0.7,0.4,1.6,0.1,2.1-0.6l0.2-0.2c0.2-0.3,0.6-0.3,0.8,0l0.2,0.2c0.3,0.5,0.8,0.7,1.3,0.7c0,0,0,0,0,0c0.1,0,0.2,0,0.2,0
	c0,0,0.1,0,0.1,0c0.1,0,0.1,0,0.2,0c0.1,0,0.2-0.1,0.3-0.1l0.2-0.1c0.1-0.1,0.3-0.1,0.4,0c0.1,0.1,0.2,0.2,0.2,0.4l0,0.3
	c0.1,0.8,0.7,1.5,1.5,1.6l0.3,0c0.2,0,0.3,0.1,0.4,0.2c0.1,0.1,0.1,0.3,0,0.4l-0.1,0.3c0,0,0,0,0,0c-0.2,0.5-0.2,1.1,0.1,1.6
	c0,0,0,0,0,0c0,0.1,0.1,0.1,0.1,0.2c0,0,0,0.1,0.1,0.1c0,0,0.1,0.1,0.1,0.1c0.1,0.1,0.1,0.1,0.2,0.2l0.2,0.2
	c0.1,0.1,0.2,0.2,0.2,0.4c0,0.2-0.1,0.3-0.2,0.4l-0.2,0.2c0,0,0,0,0,0c-0.1,0.1-0.2,0.1-0.2,0.2c0,0-0.1,0.1-0.1,0.1
	c0,0-0.1,0.1-0.1,0.1c0,0,0,0,0,0.1h-8.2c0.1-0.1,0.1-0.1,0.1-0.2c0,0,0,0,0,0c0.1-0.1,0.1-0.2,0.1-0.3c0,0,0-0.1,0-0.1
	c0-0.1,0-0.2,0-0.4v0l0,0l0,0c0-0.1,0-0.2,0-0.2c0-0.1,0-0.1,0-0.2c0-0.2-0.1-0.4-0.2-0.5c-0.1-0.2-0.3-0.4-0.4-0.5l-0.2-0.2
	c-0.2-0.1-0.2-0.4-0.2-0.6l0.1-0.2c0.1-0.1,0.1-0.2,0.1-0.4c0,0,0-0.1,0-0.1c0-0.1,0-0.2,0-0.3c0,0,0-0.1,0-0.1c0-0.1,0-0.2,0-0.2
	c0-0.1,0-0.1,0-0.2c0,0,0-0.1,0-0.1c0,0,0,0,0-0.1c0,0,0-0.1,0-0.1c0-0.1-0.1-0.1-0.1-0.2c0,0-0.1-0.1-0.1-0.1
	c-0.1-0.1-0.2-0.2-0.3-0.2c0,0,0,0-0.1-0.1C-421.9,274.3-421.9,274.1-421.9,273.9z M-425.3,267.2c0.4-0.6,1.2-0.7,1.7-0.3
	c0.3,0.2,0.5,0.5,0.5,0.8c0.1,0.3,0,0.7-0.2,0.9l-2.4,3.5c0,0,0,0,0,0l-1.2,1.7c-0.2,0.3-0.5,0.5-0.8,0.5c-0.3,0.1-0.7,0-0.9-0.2
	c0,0,0,0,0,0c-0.1-0.1-0.2-0.1-0.2-0.2c0,0,0,0,0-0.1c-0.1-0.1-0.1-0.2-0.1-0.3c0,0,0,0,0,0c0-0.1-0.1-0.2-0.1-0.3c0,0,0-0.1,0-0.1
	c0-0.1,0-0.2,0-0.3c0-0.2,0.1-0.3,0.2-0.5L-425.3,267.2z M-434.5,279.6l-0.2-0.2c-0.1-0.1-0.2-0.2-0.2-0.4s0.1-0.3,0.2-0.4l0.2-0.2
	c0.7-0.5,0.9-1.4,0.6-2.2l-0.1-0.2c-0.1-0.1-0.1-0.3,0-0.4c0.1-0.1,0.2-0.2,0.4-0.2l0.3,0c0.8-0.1,1.5-0.7,1.6-1.6l0-0.3
	c0-0.2,0.1-0.3,0.2-0.4c0.1-0.1,0.3-0.1,0.4,0l0.2,0.1c0.2,0.1,0.4,0.1,0.6,0.1c0,0,0,0,0,0c0,0,0,0,0,0c0,0.1,0,0.1,0.1,0.2
	c0,0.1,0,0.2,0.1,0.2c0,0.1,0.1,0.2,0.1,0.3c0,0.1,0.1,0.1,0.1,0.2c0.1,0.1,0.1,0.2,0.2,0.3c0,0,0.1,0.1,0.1,0.1
	c0.1,0.1,0.2,0.2,0.4,0.3c0.1,0.1,0.3,0.2,0.4,0.2c0,0,0.1,0,0.1,0.1c0.1,0,0.2,0.1,0.3,0.1c0,0,0.1,0,0.2,0c0.1,0,0.2,0,0.3,0
	c0,0,0.1,0,0.1,0c0,0,0,0,0,0c0.1,0,0.3,0,0.4,0c0.7-0.1,1.2-0.5,1.6-1l0.9-1.3c0.1,0.1,0.2,0.2,0.2,0.3l0,0.3
	c0.1,0.8,0.7,1.5,1.5,1.6l0.3,0c0.1,0,0.1,0,0.2,0.1c0,0,0,0,0.1,0c0,0,0.1,0.1,0.1,0.1c0,0,0,0,0,0.1c0,0.1,0.1,0.1,0.1,0.2
	c0,0,0,0,0,0c0,0.1,0,0.1,0,0.2l-0.1,0.2c-0.1,0.3-0.2,0.6-0.2,0.9c0,0,0,0,0,0c0,0.1,0,0.2,0,0.3c0.1,0.4,0.3,0.7,0.7,1l0.2,0.1
	l0.1,0c0.1,0.1,0.2,0.2,0.2,0.4c0,0.1,0,0.2-0.1,0.2c0,0,0,0,0,0c0,0-0.1,0.1-0.1,0.1l0,0l-0.2,0.2c-0.1,0.1-0.2,0.1-0.2,0.2
	c0,0,0,0.1-0.1,0.1c0,0.1-0.1,0.1-0.1,0.2c0,0,0,0,0,0H-434C-434.2,279.9-434.3,279.8-434.5,279.6z M-410.4,291.4
	c-0.8,0.4-1.5,1.1-1.9,1.9c-0.5,0.9-0.4,2.1,0.2,3.1c0,0.1,0,0.1,0,0.2c0,0-0.1,0.1-0.1,0.1h-14.2c-0.1,0-0.1,0-0.1-0.1
	c0,0,0-0.1,0-0.2c0.6-1,0.6-2.1,0.2-3.1c-0.4-0.8-1.1-1.5-1.9-1.9c-4.8-2.3-7.9-4.8-8.2-9.8c0-0.1,0-0.2,0.1-0.2
	c0,0,0.1-0.1,0.2-0.1h2h12.3h10h0h8.4h1.3c0.1,0,0.1,0,0.2,0.1c0,0,0.1,0.1,0.1,0.2C-402.5,286.6-405.5,289.1-410.4,291.4z"/>
<path class="st0" d="M-414.8,292.2h-5.4c-0.3,0-0.6,0.3-0.6,0.6c0,0.4,0.3,0.6,0.6,0.6h5.4c0.3,0,0.6-0.3,0.6-0.6
	C-414.1,292.5-414.4,292.2-414.8,292.2z"/>
<path class="st0" d="M-424.1,293.5h2.1c0.3,0,0.6-0.3,0.6-0.6c0-0.4-0.3-0.6-0.6-0.6h-2.1c-0.3,0-0.6,0.3-0.6,0.6
	C-424.8,293.2-424.5,293.5-424.1,293.5z"/>
<path class="st0" d="M-414.8,294.1h-9.4c-0.3,0-0.6,0.3-0.6,0.6c0,0.4,0.3,0.6,0.6,0.6h9.4c0.3,0,0.6-0.3,0.6-0.6
	C-414.1,294.4-414.4,294.1-414.8,294.1z"/>
<path class="st0" d="M-413,270.8c0.1,0.1,0.3,0.2,0.4,0.2c0.2,0,0.3-0.1,0.4-0.2c0.2-0.2,0.2-0.6,0-0.9l-1.8-1.8
	c-0.2-0.2-0.6-0.2-0.9,0c-0.2,0.2-0.2,0.6,0,0.9L-413,270.8z"/>
<path class="st0" d="M-409.4,274.4c0.1,0.1,0.3,0.2,0.4,0.2s0.3-0.1,0.4-0.2c0.2-0.2,0.2-0.6,0-0.9l-1.8-1.8
	c-0.2-0.2-0.6-0.2-0.9,0c-0.2,0.2-0.2,0.6,0,0.9L-409.4,274.4z"/>
<path class="st0" d="M-410.8,271c0.2,0,0.3-0.1,0.4-0.2l1.8-1.8c0.2-0.2,0.2-0.6,0-0.9c-0.2-0.2-0.6-0.2-0.9,0l-1.8,1.8
	c-0.2,0.2-0.2,0.6,0,0.9C-411.1,270.9-410.9,271-410.8,271z"/>
<path class="st0" d="M-407.3,276.3c0,0.4,0.3,0.6,0.6,0.6h2.5c0.3,0,0.6-0.3,0.6-0.6c0-0.4-0.3-0.6-0.6-0.6h-2.5
	C-407,275.7-407.3,276-407.3,276.3z"/>
<path class="st0" d="M-418.8,276.6c0.2,0,0.3-0.1,0.4-0.2l0.9-1c0.2-0.2,0.2-0.6,0-0.9s-0.6-0.2-0.9,0l-0.9,1
	c-0.2,0.2-0.2,0.6,0,0.9C-419.2,276.6-419,276.6-418.8,276.6z"/>
<path class="st0" d="M-415.8,278c0.1,0.1,0.3,0.2,0.4,0.2s0.3-0.1,0.4-0.2c0.2-0.2,0.2-0.6,0-0.9l-0.6-0.6c-0.2-0.2-0.6-0.2-0.9,0
	c-0.2,0.2-0.2,0.6,0,0.9L-415.8,278z"/>
<path class="st0" d="M-418.3,277.8l-0.6,0.6c-0.2,0.2-0.2,0.6,0,0.9c0.1,0.1,0.3,0.2,0.4,0.2s0.3-0.1,0.4-0.2l0.6-0.6
	c0.2-0.2,0.2-0.6,0-0.9C-417.7,277.5-418.1,277.5-418.3,277.8z"/>

</svg>
