<?xml version="1.0" encoding="utf-8"?>
<!-- Generator: Adobe Illustrator 21.0.0, SVG Export Plug-In . SVG Version: 6.00 Build 0)  -->
<svg version="1.1" id="Слой_1" xmlns="http://www.w3.org/2000/svg" xmlns:xlink="http://www.w3.org/1999/xlink" x="0px" y="0px"
	 viewBox="0 0 23 23" style="enable-background:new 0 0 23 23;" xml:space="preserve">
<g>
	<g>
		<path d="M12.2,23c-2.8,0-5.2-2.3-5.2-5.2c0-2.8,2.3-5.2,5.2-5.2s5.2,2.3,5.2,5.2C17.4,20.7,15.1,23,12.2,23z M12.2,13.3
			c-2.5,0-4.5,2-4.5,4.5c0,2.5,2,4.5,4.5,4.5s4.5-2,4.5-4.5C16.7,15.3,14.7,13.3,12.2,13.3z"/>
		<path d="M5.2,21.7c-2.8,0-5.2-2.3-5.2-5.2s2.3-5.2,5.2-5.2c1.8,0,3.5,0.9,4.4,2.5c0.1,0.2,0,0.4-0.1,0.4c-0.2,0.1-0.4,0-0.4-0.1
			C8.2,12.9,6.7,12,5.2,12c-2.5,0-4.5,2-4.5,4.5c0,2.5,2,4.5,4.5,4.5c1,0,2-0.3,2.7-0.9C8,20,8.2,20,8.4,20.2
			c0.1,0.1,0.1,0.3-0.1,0.5C7.4,21.3,6.3,21.7,5.2,21.7z"/>
		<path d="M14.7,14c-0.1,0-0.2,0-0.2-0.1c-0.1-0.1-0.1-0.3,0-0.5c0.8-0.9,1.3-2,1.3-3.2c0-2.5-2-4.5-4.5-4.5s-4.5,2-4.5,4.5
			c0,0.6,0.1,1.1,0.3,1.6c0.1,0.2,0,0.4-0.2,0.4c-0.2,0.1-0.4,0-0.4-0.2c-0.2-0.6-0.3-1.2-0.3-1.9c0-2.8,2.3-5.2,5.2-5.2
			s5.2,2.3,5.2,5.2c0,1.4-0.5,2.7-1.5,3.6C14.9,14,14.8,14,14.7,14z"/>
		<path d="M17.8,19c-0.3,0-0.6,0-0.9-0.1c-0.2,0-0.3-0.2-0.3-0.4c0-0.2,0.2-0.3,0.4-0.3c0.3,0,0.5,0.1,0.8,0.1c2.5,0,4.5-2,4.5-4.5
			c0-2.5-2-4.5-4.5-4.5c-0.6,0-1.2,0.1-1.7,0.3c-0.2,0.1-0.4,0-0.4-0.2c-0.1-0.2,0-0.4,0.2-0.4c0.6-0.3,1.3-0.4,2-0.4
			c2.8,0,5.2,2.3,5.2,5.2C23,16.6,20.7,19,17.8,19z"/>
		<path d="M3.1,12.5c-0.1,0-0.2,0-0.2-0.1C0.8,10.1,0,7.6,0.3,4.6c0-0.2,0.1-0.3,0.3-0.3c2.9-0.2,5.2,0.9,6.8,3.2
			C7.5,7.7,7.5,7.9,7.3,8C7.2,8.1,7,8,6.9,7.9c-1.4-2.1-3.4-3.1-5.9-3c-0.3,2.7,0.5,5,2.4,7c0.1,0.1,0.1,0.3,0,0.5
			C3.3,12.5,3.2,12.5,3.1,12.5z"/>
		<path d="M8.3,6.8C8.2,6.8,8,6.7,8,6.5C7.2,4.2,7.9,2,10,0.1c0.1-0.1,0.3-0.1,0.4,0c2.5,1.7,3.8,3.7,3.7,6.1c0,0.2-0.1,0.3-0.3,0.3
			c0,0,0,0,0,0c-0.2,0-0.3-0.2-0.3-0.3c0-2.1-1-3.9-3.2-5.4C8.5,2.5,7.9,4.3,8.6,6.3c0.1,0.2,0,0.4-0.2,0.4C8.4,6.8,8.3,6.8,8.3,6.8
			z"/>
	</g>
	<path d="M10.9,5.8c-0.2,0-0.3-0.1-0.3-0.3L10,2.9c0-0.2,0.1-0.3,0.3-0.4c0.2,0,0.3,0.1,0.4,0.3l0.5,2.6C11.2,5.5,11.1,5.7,10.9,5.8
		C10.9,5.7,10.9,5.8,10.9,5.8z"/>
	<path d="M6.7,12c-0.1,0-0.2,0-0.3-0.1L3.1,7.8C3,7.6,3,7.4,3.2,7.3c0.1-0.1,0.3-0.1,0.5,0l3.3,4.1c0.1,0.1,0.1,0.3,0,0.5
		C6.8,12,6.7,12,6.7,12z"/>
	<g>
		<path d="M13.7,20.2c0,0-0.1,0-0.1,0c-0.2-0.1-0.3-0.2-0.2-0.4c0.2-0.6-0.1-1.3-0.6-1.4c-0.2-0.1-0.3-0.2-0.2-0.4
			c0.1-0.2,0.2-0.3,0.4-0.2c0.9,0.3,1.3,1.3,1,2.3C14,20.2,13.8,20.2,13.7,20.2z"/>
		<path d="M13.7,20.2c0,0-0.1,0-0.1,0c-0.2-0.1-0.3-0.2-0.2-0.4c0.2-0.5,0.5-0.9,0.9-1.1c0.4-0.2,0.8-0.2,1.2-0.1
			c0.2,0.1,0.3,0.2,0.2,0.4c-0.1,0.2-0.2,0.3-0.4,0.2c-0.2-0.1-0.5-0.1-0.7,0.1c-0.3,0.1-0.5,0.4-0.6,0.7
			C14,20.2,13.8,20.2,13.7,20.2z"/>
		<path d="M13.3,18.5c-0.2,0-0.3,0-0.5-0.1c-0.2-0.1-0.3-0.2-0.2-0.4c0.1-0.2,0.2-0.3,0.4-0.2c0.2,0.1,0.5,0.1,0.7-0.1
			c0.3-0.1,0.5-0.4,0.6-0.7c0.1-0.2,0.2-0.3,0.4-0.2c0.2,0.1,0.3,0.2,0.2,0.4c-0.2,0.5-0.5,0.9-0.9,1.1
			C13.8,18.4,13.5,18.5,13.3,18.5z"/>
		<path d="M15.5,19.3c0,0-0.1,0-0.1,0c-0.9-0.3-1.3-1.3-1-2.3c0.1-0.2,0.2-0.3,0.4-0.2c0.2,0.1,0.3,0.2,0.2,0.4
			c-0.2,0.6,0.1,1.3,0.6,1.4c0.2,0.1,0.3,0.2,0.2,0.4C15.7,19.2,15.6,19.3,15.5,19.3z"/>
	</g>
	<g>
		<path d="M8.6,10.5c0,0-0.1,0-0.1,0c-0.2-0.1-0.3-0.2-0.2-0.4c0.2-0.6-0.1-1.3-0.6-1.4C7.5,8.5,7.4,8.4,7.5,8.2
			C7.6,8,7.7,7.9,7.9,8c0.9,0.3,1.3,1.3,1,2.3C8.9,10.4,8.7,10.5,8.6,10.5z"/>
		<path d="M8.6,10.5c0,0-0.1,0-0.1,0c-0.2-0.1-0.3-0.2-0.2-0.4c0.2-0.5,0.5-0.9,0.9-1.1c0.4-0.2,0.8-0.2,1.2-0.1
			c0.2,0.1,0.3,0.2,0.2,0.4c-0.1,0.2-0.2,0.3-0.4,0.2C10,9.4,9.8,9.4,9.5,9.5C9.2,9.7,9,9.9,8.9,10.2C8.9,10.4,8.7,10.5,8.6,10.5z"
			/>
		<path d="M8.2,8.7c-0.2,0-0.3,0-0.5-0.1C7.5,8.5,7.4,8.4,7.5,8.2C7.6,8,7.7,7.9,7.9,8C8.1,8.1,8.4,8,8.6,7.9
			c0.3-0.1,0.5-0.4,0.6-0.7C9.3,7,9.5,6.9,9.7,7C9.8,7,9.9,7.2,9.9,7.4C9.7,7.9,9.4,8.3,8.9,8.5C8.7,8.6,8.4,8.7,8.2,8.7z"/>
		<path d="M10.4,9.5c0,0-0.1,0-0.1,0c-0.9-0.3-1.3-1.3-1-2.3C9.3,7,9.5,6.9,9.7,7C9.8,7,9.9,7.2,9.9,7.4C9.7,8,9.9,8.7,10.5,8.8
			c0.2,0.1,0.3,0.2,0.2,0.4C10.6,9.4,10.5,9.5,10.4,9.5z"/>
	</g>
	<g>
		<path d="M18.8,12.8c-0.1,0-0.2-0.1-0.3-0.1c-0.1-0.1-0.1-0.4,0.1-0.4c0.4-0.2,0.4-0.8,0.2-1.2c-0.1-0.1-0.1-0.4,0.1-0.4
			c0.1-0.1,0.4-0.1,0.4,0.1c0.5,0.7,0.3,1.7-0.3,2.1C19,12.8,18.9,12.8,18.8,12.8z"/>
		<path d="M20.1,11.8c-0.1,0-0.2,0-0.3,0c-0.4-0.1-0.8-0.3-1-0.7c-0.1-0.1-0.1-0.4,0.1-0.4c0.1-0.1,0.4-0.1,0.4,0.1
			c0.1,0.2,0.4,0.4,0.6,0.4c0.2,0,0.4,0,0.6-0.1c0.1-0.1,0.4-0.1,0.4,0.1c0.1,0.1,0.1,0.4-0.1,0.4C20.6,11.7,20.4,11.8,20.1,11.8z"
			/>
		<path d="M20.4,13.3c-0.1,0-0.2-0.1-0.3-0.1c-0.1-0.2-0.4-0.4-0.6-0.4c-0.2,0-0.4,0-0.6,0.1c-0.1,0.1-0.4,0.1-0.4-0.1
			c-0.1-0.1-0.1-0.4,0.1-0.4c0.3-0.2,0.7-0.3,1-0.2c0.4,0.1,0.8,0.3,1,0.7c0.1,0.1,0.1,0.4-0.1,0.4C20.6,13.2,20.5,13.3,20.4,13.3z"
			/>
		<path d="M20.4,13.3c-0.1,0-0.2-0.1-0.3-0.1c-0.5-0.7-0.3-1.7,0.3-2.1c0.1-0.1,0.4-0.1,0.4,0.1c0.1,0.1,0.1,0.4-0.1,0.4
			c-0.4,0.2-0.4,0.8-0.2,1.2c0.1,0.1,0.1,0.4-0.1,0.4C20.6,13.2,20.5,13.3,20.4,13.3z"/>
	</g>
	<g>
		<path d="M3.3,17c-0.3,0-0.6-0.1-0.8-0.3c-0.3-0.2-0.6-0.6-0.6-1c0-0.2,0.1-0.3,0.2-0.4c0.2,0,0.3,0.1,0.4,0.2
			c0.1,0.2,0.2,0.5,0.4,0.6c0.2,0.1,0.4,0.2,0.6,0.1c0.2,0,0.3,0.1,0.4,0.2c0,0.2-0.1,0.3-0.2,0.4C3.5,17,3.4,17,3.3,17z"/>
		<path d="M1.3,17.5c-0.1,0-0.3-0.1-0.3-0.3c0-0.2,0.1-0.3,0.2-0.4c0.4-0.1,0.7-0.6,0.6-1.1c0-0.2,0.1-0.3,0.2-0.4
			c0.2,0,0.3,0.1,0.4,0.2C2.6,16.5,2.2,17.3,1.3,17.5C1.4,17.5,1.4,17.5,1.3,17.5z"/>
		<path d="M2.7,18.5c-0.1,0-0.3-0.1-0.3-0.3c-0.2-0.8,0.3-1.7,1-1.9c0.2,0,0.3,0.1,0.4,0.2c0,0.2-0.1,0.3-0.2,0.4
			c-0.4,0.1-0.7,0.6-0.6,1.1C3.1,18.2,2.9,18.4,2.7,18.5C2.7,18.5,2.7,18.5,2.7,18.5z"/>
		<path d="M2.7,18.5c-0.1,0-0.3-0.1-0.3-0.3C2.3,18,2.2,17.7,2,17.6c-0.2-0.1-0.4-0.1-0.6-0.1c-0.2,0-0.3-0.1-0.4-0.2
			c0-0.2,0.1-0.3,0.2-0.4c0.4-0.1,0.7,0,1,0.2c0.4,0.2,0.6,0.6,0.7,1C3.1,18.2,2.9,18.4,2.7,18.5C2.7,18.5,2.7,18.5,2.7,18.5z"/>
	</g>
</g>
</svg>
