<?xml version="1.0" encoding="utf-8"?>
<!-- Generator: Adobe Illustrator 19.0.1, SVG Export Plug-In . SVG Version: 6.00 Build 0)  -->
<svg version="1.1" id="Слой_1" xmlns="http://www.w3.org/2000/svg" xmlns:xlink="http://www.w3.org/1999/xlink" x="0px" y="0px"
	 viewBox="0 0 29 25.8" style="enable-background:new 0 0 29 25.8;" xml:space="preserve">
<style type="text/css">
	.st0{fill:#FBF6E7;stroke:#4B4B4B;stroke-miterlimit:10;}
</style>
<path class="st0" d="M5.9,4.9C6,3.8,7.6,1.6,11.6,1c1.1-0.2,5.7-0.8,8.6-0.4c1.1-0.1,3.9,0.7,4.8,1.2c1,0.6,1.6,1.6,2.2,2.6
	c0.5,1,0.6,2.1,0.9,3.1c0.3,1,0.5,2.1,0.5,3.1c0,0.8-0.1,4-0.1,4.8c0,1.1-0.1,2.1-0.2,3.2c-0.1,1.7-1.1,2.9-2.3,3.9
	c-1.4,1.2-5.7,2.4-12.8,2.8c-6.3,0.5-7.4-4.6-7.5-5.7c-0.1-1.2-0.1-2.5,0-3.7c0.1-0.8,0-1.5-0.3-2.2c-0.4-1-1-1.7-1.9-2.2
	c-0.5-0.3-1.1-0.3-1.6-0.6c-0.4-0.3-0.9-0.2-1.3-0.5c-0.4-0.3,3-1.7,3.9-1.8c0.3,0,0.6-0.1,0.8-0.3c0.4-0.3,0.2-0.7,0.2-1
	C5.4,6.4,5.8,5.5,5.9,4.9z"/>
</svg>
