<?xml version="1.0" encoding="utf-8"?>
<!-- Generator: Adobe Illustrator 19.0.1, SVG Export Plug-In . SVG Version: 6.00 Build 0)  -->
<svg version="1.1" id="Слой_1" xmlns="http://www.w3.org/2000/svg" xmlns:xlink="http://www.w3.org/1999/xlink" x="0px" y="0px"
	 viewBox="0 0 21 16" style="enable-background:new 0 0 21 16;" xml:space="preserve">
<style type="text/css">
	.st0{fill:#5F4D41;}
</style>
<g>
	<path class="st0" d="M16,5.3H5.3C4.6,5.3,4,5.9,4,6.6h6v9.3h1.3V6.6h6C17.2,6,16.7,5.4,16,5.3z"/>
	<path class="st0" d="M1.2,0.1c-0.1,0-0.2,0-0.3,0H0V16h1.2v-4.8h4.5V16h1.2v-4.9V11c-0.2-0.9-0.8-1.4-1.8-1.4H2.5
		c-0.5,0-1,0.2-1.3,0.5V6.5l0,0"/>
	<path class="st0" d="M19.8,6.4V10c-0.4-0.3-0.8-0.5-1.3-0.5h-2.6c-0.9,0-1.6,0.5-1.8,1.4V11v4.9h1.2v-4.8h4.5v4.8H21V6.4l0,0V0
		h-0.9c-0.1,0-0.2,0-0.3,0l0,0"/>
</g>
</svg>
