<svg id="Слой_1" data-name="Слой 1" xmlns="http://www.w3.org/2000/svg" viewBox="0 0 359.42 359.42"><defs><style>.cls-1{fill:#555451;}</style></defs><title>icon-clip</title><path class="cls-1" d="M304.13,139.39a17.72,17.72,0,0,0,17.28,17.28h0a16.58,16.58,0,0,0,12.1-5.18A88.79,88.79,0,0,0,207.94,25.92l-182,182A88.79,88.79,0,0,0,151.49,333.5L274.75,210.24l.58-.58c18.43-20.74,17.28-52.42-2.3-72.58a52.7,52.7,0,0,0-37.44-15.55h0a52.7,52.7,0,0,0-37.44,15.55L96.77,238.46a16.7,16.7,0,0,0,0,24.19c6.34,6.34,17.86,6.34,24.19,0L222.34,161.28c6.91-6.91,19-6.91,26.5,0a18.43,18.43,0,0,1,0,26.5L127.3,309.31A54.52,54.52,0,0,1,88.7,325.44h0a54.58,54.58,0,0,1-38.59-93.31l182-182a54.58,54.58,0,1,1,77.18,77.18A15.69,15.69,0,0,0,304.13,139.39Z"/></svg>