<?xml version="1.0" encoding="utf-8"?>
<!-- Generator: Adobe Illustrator 19.0.1, SVG Export Plug-In . SVG Version: 6.00 Build 0)  -->
<svg version="1.1" id="Графика" xmlns="http://www.w3.org/2000/svg" xmlns:xlink="http://www.w3.org/1999/xlink" x="0px"
	 y="0px" viewBox="0 0 71 131.4" style="enable-background:new 0 0 71 131.4;" xml:space="preserve">
<style type="text/css">
	.st0{fill:#090C10;}
</style>
<g>
	<g>
		<path class="st0" d="M61,130.9c0.8-20.8,1.6-41.7,2.5-62.5c0.9-21.2,2.2-42.4,2.4-63.5c0-0.7,0.5-4.5-0.6-4.8
			c-0.9-0.2-2.3,2.2-2.7,2.8c-2,2.6-4,5.3-6,8c-1,1.4-2,2.8-3,4.1c-0.4,0.6-0.8,1.1-1.2,1.7c-0.2,0.3-1.2,1.5-0.8,1.4
			c-0.7,0.2-2.8-0.6-3.6-0.7c-2.2-0.3-4.4-0.5-6.6-0.7c-6.6-0.4-13.1,0.3-19.6,1.2c-0.3,0-0.9,0-1.2,0.2c-0.3,0.1-0.8-0.1-0.2,0.2
			c0.6,0.3-0.6-1-0.8-1.3c-1.6-1.9-3.2-3.8-4.8-5.7C14.1,10.3,8.3,2.7,7,4.3c-0.7,0.8-0.1,4-0.1,5c0.1,3,0.2,6,0.2,9.1
			c0.3,8.8,0.4,17.6,0.3,26.4C7.2,61,6.5,77.1,4.9,93.2c-1.2,11.6-2.5,23.1-3.9,34.7c-0.1,0.7-0.2,1.4-0.3,2.2
			c-0.1,0.7,1.1,0.7,1.2,0C3.7,114.5,5.6,98.9,7,83.2C9.3,58.1,8.5,32.9,8,7.8c0-0.6,0.2-2,0-2.5C7.9,5.2,8,5,8,4.9
			c0-0.1-0.5,0.1-0.4,0.3C7.7,5.4,8,5.6,8.2,5.8c1.5,1.3,2.8,2.9,4.2,4.4c2.5,2.8,5.3,5.6,7.4,8.8c0.2,0.2,0.4,0.3,0.7,0.3
			c4.6-0.6,9.2-1.2,13.8-1.5c2.9-0.2,5.7,0,8.6,0.2c2.9,0.2,6.1,0.3,8.8,1.3c0.2,0.1,0.5-0.1,0.7-0.3c3.5-5.2,7.2-10.3,11.1-15.3
			c0.4-0.5,1.8-1.7,1.9-2.4c0-0.1,0.3-0.2,0.2-0.3c0-0.1-0.9-0.2-0.8-0.2c0,0,0.1,0.2,0,0.3c-0.3,0.6,0.1,2.2,0.1,2.9
			c0,9.7-0.5,19.4-0.9,29.1c-0.8,20.5-1.8,41-2.6,61.5c-0.5,12.1-1,24.2-1.5,36.3C59.8,131.6,60.9,131.6,61,130.9L61,130.9z"/>
	</g>
	<g>
		<path class="st0" d="M51.4,36.7c-0.2-2-1-5-3.6-4.8c-2,0.1-3.7,3-3.5,4.8c0.1,0.7,1.2,0.7,1.2,0c-0.1-1.1,1-3.2,2.2-3.6
			c2-0.5,2.5,2.3,2.6,3.6C50.3,37.5,51.4,37.5,51.4,36.7L51.4,36.7z"/>
	</g>
	<g>
		<path class="st0" d="M28.6,36.7c-0.5-1.3-0.7-2.5-1.6-3.6c-0.8-0.9-1.9-1.5-3.1-1.3c-2.9,0.3-2.6,3.4-2.7,5.5c0,0.7,1.1,0.7,1.2,0
			c0-1.5-0.4-4.2,1.7-4.4c2.3-0.2,2.8,2.5,3.5,4.1C27.8,37.7,28.9,37.4,28.6,36.7L28.6,36.7z"/>
	</g>
	<g>
		<path class="st0" d="M42.4,17.8c0,1.2-0.1,2.4-0.1,3.6c0,0.7,1.1,0.7,1.2,0c0-1.2,0.1-2.4,0.1-3.6C43.6,17.1,42.4,17.1,42.4,17.8
			L42.4,17.8z"/>
	</g>
	<g>
		<path class="st0" d="M36.7,17.3c0.2,2.1,0.3,4.2,0.2,6.2c0,0.7,1.1,0.7,1.2,0c0.1-2.1,0-4.2-0.2-6.2
			C37.8,16.6,36.7,16.6,36.7,17.3L36.7,17.3z"/>
	</g>
	<g>
		<path class="st0" d="M31.6,17.2c0,2.5,0,4.9,0,7.4c0,0.7,1.1,0.7,1.2,0c0.1-2.5,0.1-4.9,0-7.4C32.8,16.5,31.6,16.5,31.6,17.2
			L31.6,17.2z"/>
	</g>
	<g>
		<path class="st0" d="M26.9,18.2c0.3,1.4,0.4,2.7,0.4,4.1c0,0.7,1.1,0.7,1.2,0c0-1.5-0.1-3-0.4-4.4C27.9,17.1,26.8,17.4,26.9,18.2
			L26.9,18.2z"/>
	</g>
	<g>
		<path class="st0" d="M37.8,50.5c1.7-1,5.9-3.1,5.8-5.5c0-2-3.4-2.1-4.8-2.2c-1.5-0.1-3.5-0.3-5,0c-0.5,0.1-1,0.3-1.1,0.9
			c-0.2,1,0.9,2.3,1.4,3.1c0.8,1.3,1.9,2.5,3,3.5c0.5,0.5,1.4-0.3,0.8-0.8c-1.3-1.3-2.7-2.7-3.5-4.4c-0.2-0.3-0.3-0.6-0.3-0.9
			c-0.1-0.5,0.1-0.6,0.7-0.3c0.8-0.2,2,0,2.9,0c1.2,0,6,0,4,2.4c-1.2,1.4-2.9,2.3-4.4,3.2C36.5,49.8,37.1,50.8,37.8,50.5z"/>
	</g>
	<g>
		<path class="st0" d="M48,52.8c0.1,2.1-1.5,3.6-3.5,3.7c-1.5,0.1-2.7-0.7-3.9-1.4c-1.5-0.8-2.7-1.1-4.4-0.7
			c-1.9,0.5-3.5,1.7-5.4,2.2c-3.1,0.8-6.1-1.4-5-4.8c0.2-0.7-0.9-1-1.1-0.3c-0.7,2.1,0,4.5,1.8,5.7c2.3,1.6,5.2,0.4,7.5-0.7
			c0.9-0.4,1.9-1,2.9-1.2c2.2-0.3,2.8,0.6,4.4,1.4c1.2,0.6,2.6,0.9,3.9,0.7c2.4-0.4,4.1-2.3,4-4.8C49.1,52,48,52,48,52.8L48,52.8z"
			/>
	</g>
	<g>
		<path class="st0" d="M40.4,60.5c-2.3,0.8-4.7,0.8-6.9-0.2c-0.7-0.3-1.3,0.7-0.6,1c2.5,1.1,5.2,1.2,7.8,0.3
			C41.4,61.4,41.1,60.3,40.4,60.5L40.4,60.5z"/>
	</g>
	<g>
		<path class="st0" d="M47.3,70.4c0.1,4.2,0.2,8.5,0.3,12.7c0.3-0.2,0.6-0.3,0.9-0.5c-4.5-2-9-4-13.5-5.9c0,0.3,0,0.7,0,1
			c4.2-2.6,8.7-4.8,13.2-6.8c0.7-0.3,0.1-1.3-0.6-1c-4.6,2-9,4.2-13.2,6.8c-0.3,0.2-0.4,0.8,0,1c4.5,2,9,4,13.5,5.9
			c0.4,0.2,0.9,0,0.9-0.5c-0.1-4.2-0.2-8.5-0.3-12.7C48.5,69.6,47.3,69.6,47.3,70.4z"/>
	</g>
	<g>
		<path class="st0" d="M34.9,76.4c-4.4-2.3-8.9-4.5-13.2-7c-0.4-0.2-0.8,0.1-0.9,0.5c-0.3,4.2-0.5,8.4-0.5,12.6
			c0,0.3,0.4,0.7,0.7,0.6c4.6-1.9,9.1-3.7,13.7-5.6c0.7-0.3,0.4-1.4-0.3-1.1c-4.6,1.9-9.1,3.7-13.7,5.6c0.2,0.2,0.5,0.4,0.7,0.6
			c0-4.2,0.1-8.4,0.5-12.6c-0.3,0.2-0.6,0.3-0.9,0.5c4.3,2.5,8.8,4.7,13.2,7C35,77.7,35.6,76.7,34.9,76.4z"/>
	</g>
	<g>
		<path class="st0" d="M66.3,42.1c-4,0.5-8.1,1-12.1,1.5c-0.7,0.1-0.7,1.2,0,1.2c4-0.5,8.1-1,12.1-1.5C67,43.2,67,42.1,66.3,42.1
			L66.3,42.1z"/>
	</g>
	<g>
		<path class="st0" d="M70.4,46.3c-3.6,0-7.2-0.1-10.7-0.2c-0.7,0-0.7,1.1,0,1.2c3.6,0.1,7.2,0.2,10.7,0.2
			C71.2,47.5,71.2,46.3,70.4,46.3L70.4,46.3z"/>
	</g>
	<g>
		<path class="st0" d="M66.2,52.3c-3.3-0.8-6.6-1.8-9.7-3c-0.7-0.3-1,0.8-0.3,1.1c3.2,1.2,6.4,2.2,9.7,3
			C66.6,53.6,66.9,52.5,66.2,52.3L66.2,52.3z"/>
	</g>
	<g>
		<path class="st0" d="M16.7,41.1c-3.9-1.2-7.8-2.2-11.8-3c-0.7-0.2-1,1-0.3,1.1c4,0.8,7.9,1.8,11.8,3
			C17.1,42.4,17.4,41.3,16.7,41.1L16.7,41.1z"/>
	</g>
	<g>
		<path class="st0" d="M11.3,43.6c-3.6-0.3-7.2-0.4-10.7-0.3c-0.7,0-0.7,1.2,0,1.2c3.6-0.1,7.2,0,10.7,0.3
			C12,44.9,12,43.7,11.3,43.6L11.3,43.6z"/>
	</g>
	<g>
		<path class="st0" d="M16.8,46.3c-4.7,1.1-9.5,2.2-14.2,3.4c-0.7,0.2-0.4,1.3,0.3,1.1c4.7-1.1,9.5-2.2,14.2-3.4
			C17.8,47.2,17.5,46.1,16.8,46.3L16.8,46.3z"/>
	</g>
</g>
</svg>
