<svg xmlns="http://www.w3.org/2000/svg" viewBox="0 0 84.54 88.65"><title>icon-bird-up</title><path d="M.65,78.8C5.31,81,11,80.35,16,80a90.75,90.75,0,0,0,20-3.45c17.8-5.21,40-15.07,44.86-34.9,2.09-8.57,1.34-18.47-3.09-26.22C75,10.7,70.31,6.23,64.89,4.76,59,3.16,55.09,6.09,51.17,10.14a39,39,0,0,0-6.86,9.73C40.76,27,36.89,33.92,33,40.87c-4.13,7.28-8.41,14.91-14.14,21.08a86.27,86.27,0,0,1-8.88,7.81c-3,2.46-5.83,5-9.28,6.88A1.23,1.23,0,0,0,.65,78.8Zm3.68-1.37a69.52,69.52,0,0,0,6.15-4.76c3-2.52,6.19-4.9,9-7.67C24.9,59.66,29,52.94,32.83,46.42c4.11-7,8.57-14.07,12-21.4a57,57,0,0,1,6.25-10.62C53,12,55.09,9.73,58,8.53c5.61-2.31,11.72,1.09,15.21,5.17S78.4,23.23,79,28.47c1.24,11.3-2.76,21.32-11.05,29S49,69.81,38.41,73.2a92.31,92.31,0,0,1-19.23,4.09C14.8,77.71,8.94,78.58,4.33,77.43Z" transform="translate(0 -1)"/><path d="M54.57,89.65a87.73,87.73,0,0,1-3.3-14.19c-.93-5.33-2-11-1.93-16.4,0-1.63,2.72-1.62,2.71,0,0,5.57,1,11.54,2.06,17a82.38,82.38,0,0,0,3.32,13.57Z" transform="translate(0 -1)"/><path d="M47.2,89.65c-.35-1.06-.67-2.12-1-3.12-2.17-6.82-3.29-13.9-5-20.83-.4-1.62,2.23-2.22,2.62-.66,1.4,5.68,2.4,11.46,3.91,17.11.52,1.94,1.12,4.87,2.08,7.5Z" transform="translate(0 -1)"/><path d="M5,57.78c3.18,2.75,8.71,3.08,12.72,3.17a33.43,33.43,0,0,0,13.71-2.2A29.31,29.31,0,0,0,47.89,39.69c.43-1.55,3.06-.93,2.61.68a31.75,31.75,0,0,1-19,21.07,38.17,38.17,0,0,1-15.45,2c-4.37-.26-9.56-.9-13-3.85C1.73,58.41,3.75,56.72,5,57.78Z" transform="translate(0 -1)"/><path d="M60.08,20.27a2.19,2.19,0,1,1,0,4.37A2.19,2.19,0,1,1,60.08,20.27Z" transform="translate(0 -1)"/><path d="M71.78,9.86c3.54-2.77,6.88-5.79,10.41-8.56.87-.69,2.78-.13,2.26,1.23-1.81,4.8-3.67,9.61-6.73,13.78-.95,1.29-3.34.09-2.34-1.28A41.13,41.13,0,0,0,80,6.4c-2,1.67-4,3.34-6,4.94l-.06.09-.26.29a1.42,1.42,0,0,1-2.13-.26l0-.08A1.21,1.21,0,0,1,71.78,9.86Z" transform="translate(0 -1)"/></svg>