<?xml version="1.0" encoding="utf-8"?>
<!-- Generator: Adobe Illustrator 21.0.0, SVG Export Plug-In . SVG Version: 6.00 Build 0)  -->
<svg version="1.1" id="_x2018_лой_x5F_1" xmlns="http://www.w3.org/2000/svg" xmlns:xlink="http://www.w3.org/1999/xlink"
	 x="0px" y="0px" viewBox="0 0 102 144.8" style="enable-background:new 0 0 102 144.8;" xml:space="preserve">
<g>
	<g>
		<path d="M84.5,94.1c-0.9-6.2-3.9-11.9-8.4-16.2c1.1-2,1.3-4.6,0.5-6.7c-1.1-3-3.7-5.1-6.7-6.2c0-2.3-1.3-4.6-3.8-5.9
			c-0.8-0.4-1.6,0.8-0.8,1.2c2.4,1.3,4.1,4.2,2.7,6.8c-1.2,2.2-3.8,3.4-6.1,4.2c-5,1.7-10.2,2.9-15.5,2.4c-3-0.3-6-1.1-8.8-2.2
			c-2-0.8-5.1-1.7-5.3-4.1c-0.6-5.1,5.2-7.8,9.5-7.6c1,0,1-1.4,0-1.4c-3.9-0.2-8.7,1.6-10.4,5.4c-0.4,0.9-0.7,2.1-0.7,3.2
			c-3.9-0.6-5.6,3.6-6.1,7.1c-0.3,1.9-0.5,4.1-0.2,6c0,0.2,0.1,0.5,0.2,0.7c-7,7.7-6,21.3-1.1,29.7c0.5,0.8,1.8,0.1,1.3-0.7
			c-4.5-7.7-5.6-20.4,0.5-27.6c1.2,1.6,3.3,2.4,5.1,3.3c3.5,1.6,7.2,3.1,11.1,3.6c4.1,0.6,8.2,0.3,12.2-0.5
			c7.1-1.4,15.3-3.6,20.9-8.6c0.2-0.2,0.4-0.4,0.6-0.6c4.2,4,6.9,9.4,7.7,15.1c0.6,4,1.3,10.3-1.4,13.6c-0.6,0.7,0.8,1.4,1.3,0.7
			C85.8,105,85.1,98.4,84.5,94.1z M72.4,79.6c-5.1,3.6-10.9,5.5-16.9,6.9C49,88.1,42.4,88.3,36,86.1c-2.7-1-5.7-2.1-8.2-3.7
			c-2.1-1.3-2.1-3.4-2-5.5c0.1-3,0.7-9.5,5-8.5c0.1,0.2,0.1,0.4,0.2,0.5c0.9,1.8,3.3,2.7,5.1,3.5c5.3,2.2,11,3.3,16.7,2.6
			c2.8-0.3,5.4-1.1,8.1-1.9c2.1-0.6,4.3-1.4,6-2.7c1.4-1.1,2.3-2.5,2.7-3.9C75.2,68.7,78,75.7,72.4,79.6z"/>
	</g>
	<g>
		<path d="M27.2,88.6c-1.3,1.2-2.1,3-2.6,4.7c-0.2,0.9,1.2,1.3,1.5,0.4c0.4-1.5,1-3,2.2-4.1C29,88.9,27.9,88,27.2,88.6z"/>
	</g>
	<g>
		<path d="M31.1,97.7c-0.8,0.7-1.5,1.5-2.6,1.8c-1,0.2-0.5,1.6,0.4,1.4c1.3-0.3,2.2-1.3,3.3-2.2C32.9,98.1,31.8,97.2,31.1,97.7z"/>
	</g>
	<g>
		<path d="M34.9,93c-1.4-0.9-2.9-1-4.5-1c-1,0-1,1.4,0,1.4c1.3,0,2.6,0.1,3.7,0.8C35,94.7,35.8,93.5,34.9,93z"/>
	</g>
	<g>
		<path d="M74.3,86.1c-0.7,1.2-1.7,2.1-2.2,3.5c-0.3,0.9,1.2,1.2,1.5,0.4c0.4-1.2,1.4-2.1,2.1-3.2C76.2,86,74.8,85.3,74.3,86.1z"/>
	</g>
	<g>
		<path d="M78.1,92.7c-0.3-0.8-1.8-0.5-1.5,0.4c0.5,1.2,0.8,2.5,0.8,3.8c0,0.9,1.5,0.9,1.5,0C79,95.5,78.7,94.1,78.1,92.7z"/>
	</g>
	<g>
		<path d="M72.8,98.2c-1.5-0.9-2.3-2.5-3.9-3.3c-0.8-0.5-1.6,0.7-0.8,1.2c1.5,0.8,2.4,2.4,3.9,3.3C72.9,99.9,73.7,98.7,72.8,98.2z"
			/>
	</g>
	<g>
		<path d="M69.9,72.8c-0.9,1.1-1.7,2.3-2.4,3.6c-0.5,0.8,0.9,1.5,1.3,0.7c0.7-1.3,1.5-2.4,2.4-3.6C71.8,72.7,70.5,72,69.9,72.8z"/>
	</g>
	<g>
		<path d="M77.6,63.2c-1.7-0.2-3.3-1.2-5-1.6c-0.9-0.2-1.4,1.2-0.4,1.4c1.8,0.4,3.5,1.4,5.4,1.6C78.6,64.8,78.6,63.3,77.6,63.2z"/>
	</g>
	<g>
		<path d="M75.7,57.7c-1.2-1.1-2.1-2.5-3.5-3.4c-0.8-0.5-1.6,0.7-0.8,1.2c1.2,0.9,2.1,2.2,3.2,3.2C75.2,59.4,76.4,58.4,75.7,57.7z"
			/>
	</g>
	<g>
		<path d="M70.1,9c-1.3,0.8-2.3,2.1-3.2,3.5c-2.8-6-8.7-9.3-15.1-10.8c-3.7-0.9-7.5-0.9-11.3-1.4c-2.1-0.3-4.2-0.5-6.3-0.2
			c-2.7,0.4-5.4,1.2-8.2,0.6c-0.5-0.1-1.1,0.4-0.8,0.9c3.7,6.1,9.7,12,16.6,14.3c7.9,2.7,16.5,0.3,24.2-2.1c0,0,0,0,0,0
			c-0.2,0.3-0.4,0.6-0.5,0.8c-2.1,3.3-3.6,6.8-4.9,10.5c-1.3,4-2.5,8.1-3.6,12.1c-0.3,1.3-0.6,2.5-0.9,3.8c0,0,0,0-0.1,0
			c-3.9-3.5-10.1-4.3-14.2-0.6c-4.6,4.2-4.2,12.3-1.3,17.3c3.2,5.7,9.9,8.2,16.2,7.2c3-0.5,5.9-1.8,8-4c2.3-2.4,3.3-5.8,3.8-9
			c0.6-3.5-0.1-7.1-3.3-9.1c-2.1-1.4-5.1-2.4-7.8-2.1c0.9-4.8,2.6-9.6,4-14.2c1.1-3.7,2.6-7.3,4.6-10.6c0.6-1,1.3-2.1,2-3.1
			c0.7-1,1.4-2.3,2.5-3C71.5,9.7,70.8,8.6,70.1,9z M64,43.7c2.9,1.6,3.8,4.4,3.5,7.5c-0.6,5.9-3.6,10.9-9.6,12.4
			c-5.4,1.3-11.6-0.3-15-4.8c-3.1-4.1-4.2-10.9-1.4-15.5c3.2-5.3,10.3-4.8,14.3-0.8c0.1,0.1,0.1,0.1,0.2,0.1
			c-0.3,2.4-0.4,4.8-0.2,7.2c0.1,0.8,1.4,0.8,1.4,0c-0.3-2.6-0.1-5.1,0.2-7.7C59.6,42,62.1,42.7,64,43.7z M38.1,1.3
			c3.8,0.3,7.8,0.6,11.5,1.3c6.1,1.1,12.2,3.9,15.4,9.3c-6.4-2-12.8-3.7-19.4-4.7c-6.1-0.9-12.3-1.8-17.6-5
			C31.4,2.2,34.7,1,38.1,1.3z M42.8,15c-5.7-1.8-10.8-6.2-14.4-11.1c5,2.7,10.7,3.6,16.3,4.4C51.4,9.3,58,11,64.5,13
			C57.5,15.2,49.9,17.2,42.8,15z"/>
	</g>
</g>
<g>
	<path d="M27.9,56.4c-0.2-1-0.8-3.3-2.3-2.9c-1.2,0.3-1.5,2.3-1.7,3.3c-0.2,1.4-0.1,2.6,0.2,3.8c-2.1-1.7-4-3.5-5.8-5.4
		c0,0,0-0.1,0.1-0.1c0.7-2.3,2.2-4.2,2.7-6.6c0.2-1.2,0.2-3.9-1.5-4c-1.4-0.1-2.2,1.9-2.6,2.9c-0.6,1.5-1.2,3.1-1.2,4.7
		c-1.6-2.1-3.1-4.3-4.5-6.6c0.1,0,0.1-0.1,0.1-0.1c1.2-1.7,3.1-2.9,3.9-4.9c0.5-1.2,0.4-3.4-1.4-3.3c-1.5,0.1-2.4,2.1-3,3.2
		c-0.4,0.8-0.8,1.6-1.1,2.5c-0.7-1.4-1.4-2.8-2-4.3c0.1-0.1,0.2-0.3,0.2-0.5c-0.1-3.7-1.1-10.9-6-11.1c-1.8-0.1-2.4,1.5-2,3.1
		C1,33.4,4.2,35.9,6,38.7c0.1,0.1,0.2,0.2,0.4,0.3c0.7,1.8,1.6,3.6,2.4,5.3c-1.9-0.3-3.7-1.4-5.7-1.2C2,43.2,0.5,44,1,45.5
		c0.5,1.5,2.5,2.2,3.9,2.2c1.8,0,3.4-0.8,5.1-1.4c1.6,2.7,3.3,5.3,5.3,7.6c-0.4-0.2-0.8-0.4-1.1-0.5c-1.1-0.4-2.1-0.8-3.2-1.1
		c-1.3-0.3-3.5-0.7-3.9,0.9c-0.6,2,1.3,3.4,3,3.7c2.3,0.4,4.8-0.3,7-1c2,2.2,4.2,4.2,6.5,6.1c-3-0.8-8.5-3-8.5,1.1
		c0,1.8,2.1,2.7,3.6,3c1.1,0.2,2,0.1,3.1-0.3c0.8-0.2,1.5-0.5,2.3-0.9c0.6-0.3,1.4-1,2-1.1c0.1,0,0.2,0,0.2-0.1
		c0.4,0,0.8-0.3,0.8-0.6c0-0.1,0.1-0.2,0.1-0.3C27.6,60.9,28.4,58.7,27.9,56.4z M12,42.1c0.4-0.9,1-2.8,2-3.3c0.1,0,0.1-0.1,0.2-0.1
		c0.2,0.2,0.1,0.8,0,1c-0.2,0.7-0.7,1.3-1.1,1.9c-0.5,0.6-1,1.1-1.5,1.6C11.6,42.8,11.8,42.4,12,42.1z M3.2,32.6
		c-0.6-0.8-1.3-1.8-1.6-2.8c-0.3-1.4,0.6-1.6,1.7-0.9c2.4,1.4,3,5.1,3.2,7.9C5.5,35.4,4.2,34,3.2,32.6z M3.7,46
		c-0.6-0.2-0.8-0.7-0.5-1.5c0.5-0.1,1-0.1,1.5,0c0.5,0.1,1,0.3,1.5,0.4c0.7,0.2,1.3,0.4,2,0.6C6.6,46.2,4.8,46.8,3.7,46z M11.8,55.6
		c-0.9,0-2.3,0.1-2.9-0.7c-0.6-0.8-0.5-1.3,0.4-1.4c1.7-0.1,3.5,1.1,5.2,1.7C13.6,55.5,12.7,55.6,11.8,55.6z M18.2,48.5
		c0.2-0.5,0.4-1,0.6-1.4c0.1-0.2,0.3-0.5,0.4-0.7c0.3-0.4,0.2-0.3,0.3-0.2c0.9,1.2-0.3,3.7-0.9,4.8c-0.4,0.9-0.9,1.7-1.2,2.6
		C17.1,51.9,17.6,50.2,18.2,48.5z M20.8,64.8c-1.1,0.2-4.7-0.1-4-1.9c0.6-1.5,4.8,0.2,7,0.7C22.9,64.1,21.9,64.5,20.8,64.8z
		 M26.4,59.4c-0.1,0.7-0.3,1.4-0.4,2.1c-0.4-1-0.7-1.9-0.7-2.9c0-0.6,0.1-2.4,0.5-3.2c0.1,0.1,0.2,0.2,0.3,0.4
		c0.2,0.4,0.3,0.9,0.3,1.3C26.6,57.9,26.5,58.7,26.4,59.4z"/>
</g>
<g>
	<path d="M34.3,80.2c-0.5-1.4-1.3-2.8-1.9-4.2c-0.4-0.8-1.7-0.1-1.3,0.7c0.6,1.3,1.3,2.5,1.8,3.8C33.1,81.4,34.6,81,34.3,80.2z"/>
</g>
<g>
	<path d="M101.6,66.7c-0.8-0.8-2.2-0.2-3.1,0.1c-0.3,0.1-0.7,0.3-1,0.5c0.5-1,0.9-2,1-3.1c0.1,0,0.2-0.1,0.3-0.2
		c1.2-1.5,1.7-4,1.5-5.9c-0.1-1.3-1.2-3.2-2.8-2.7c-1.4,0.4-1.4,2.5-1.4,3.7c0,1.6,0.2,3.3,0.7,4.8c0,0.1,0.1,0.2,0.2,0.3
		c-0.1,0.9-0.4,1.8-0.9,2.7c-0.1-0.7-0.3-1.3-0.5-1.9c-0.4-1-1.5-2.5-2.8-2.2c-2.6,0.5,0.2,5.3,1.5,6.9c-0.3,0.5-0.7,0.9-1,1.3
		c-1.3,1.9-3.2,3.3-4.9,4.8c0.9-2.9,1.6-8.1-1.4-7.7c-3.1,0.3-1.8,7.1-1.2,9.6c-0.4,0.3-0.5,0.9,0.1,1.1c2,0.9,4.6,1.1,6.8,0.7
		c1.6-0.3,4.1-1.6,3.5-3.6c-0.5-1.6-2.4-1.7-4.4-1.2c1.2-1.1,2.4-2.2,3.3-3.6c0.3-0.4,0.5-0.8,0.8-1.2c1.3,0.7,3.2,0.7,4.5,0
		C101.4,69.4,102.6,67.7,101.6,66.7z M97.9,57.1c0.2-0.4,0.2-0.7,0.7,0c0.4,0.6,0.4,1.5,0.3,2.1c-0.1,1.1-0.3,2.2-0.8,3.2
		c-0.1-0.6-0.2-1.1-0.2-1.7C97.7,59.8,97.4,58,97.9,57.1z M87.5,72.7c-0.1,0.9-0.3,2-0.6,2.9c-0.1-0.5-0.1-0.9-0.2-1.4
		c-0.1-0.9-0.6-3.8,0.2-4.5c0.5-0.5,0.6,0.2,0.6,0.8C87.7,71.3,87.6,72,87.5,72.7z M94.7,76.2c0.8,1.4-3,2-3.6,2
		c-0.9,0-1.9,0-2.8-0.2c0.2-0.3,0.5-0.5,0.7-0.8c0.7-0.4,1.6-0.7,2.3-0.9C91.8,76.2,94.3,75.4,94.7,76.2z M93.9,66
		c-0.2-0.4-0.3-0.8-0.4-1.3c0-0.1,0-0.3-0.1-0.4c0.1,0,0.1,0.1,0.2,0.2c0.1,0.2,0.3,0.3,0.4,0.5c0.2,0.4,0.4,0.8,0.5,1.3
		c0.1,0.5,0.2,1,0.2,1.5C94.3,67.2,94.1,66.6,93.9,66z M99.7,68.6c-0.6,0.4-1.5,0.4-2.3,0.3c0.1-0.1,0.3-0.2,0.4-0.2
		c0.8-0.4,1.5-0.6,2.3-0.9c0.1,0,0.1,0,0.2-0.1C100.3,68.1,100.1,68.4,99.7,68.6z"/>
</g>
<g>
	<path d="M47.4,47.5c0,1.3-0.5,2.5-1.4,3.5c-0.6,0.7,0.5,1.7,1.1,1c1.1-1.3,1.8-2.8,1.8-4.5C49,46.6,47.4,46.6,47.4,47.5z"/>
</g>
<g>
	<path d="M66.2,144.8c-0.9,0-2-0.1-3.7-0.2c-0.5,0-0.9-0.1-1-0.1H40.7c-1.4,0-2.9-2.3-5.1-5.8c-0.7-1.1-1.3-2.1-1.7-2.5
		c-3.5-3.5-6.4-7.4-8.6-11.7c-0.9-1.7-1.9-3.3-2.8-4.9c-1.7-2.8-3.3-5.5-4.7-8.7c-0.1-0.2-0.1-0.4,0-0.6c0.1-0.2,0.3-0.3,0.5-0.3
		c2.6-0.3,11.8-0.8,12.8-0.8c11.3-0.3,21.7-0.7,31.7-1.1c8.1-0.3,16.5-0.6,25.3-0.9l0.3,0c0.1,0,0.4,0,0.7,0c0.7,0,2.4,0.1,2.8,0
		c0.2-0.1,0.4-0.1,0.7,0c0.3,0.2,0.5,0.6,0.3,0.9c0,0,0,0,0,0l0,0c0,0,0,0,0,0c-1.6,3.2-6.4,10.6-7.4,11.9c-0.8,1.2-1.5,2.3-2.1,3.3
		c-2.4,3.9-3.8,6-7,10.2c-0.9,1.2-1.8,2.4-2.7,3.5c-1.8,2.3-3.6,4.7-5.4,7.1l0,0C68.1,144.6,67.7,144.8,66.2,144.8z M67.8,143.9
		L67.8,143.9L67.8,143.9z M67.3,143.5C67.3,143.5,67.3,143.5,67.3,143.5C67.3,143.5,67.3,143.5,67.3,143.5z M61.4,143.2
		c0.2,0,0.5,0,1.1,0.1c1,0.1,4.1,0.3,4.8,0.1c1.7-2.4,3.5-4.7,5.3-7c0.9-1.2,1.8-2.3,2.7-3.5c3.2-4.2,4.5-6.3,6.9-10.2
		c0.6-1,1.3-2.1,2.1-3.3c0,0,0,0,0,0c0.7-0.9,4.7-7,6.6-10.6c-0.5,0-1.2,0-2,0c-0.3,0-0.6,0-0.6,0l-0.3,0
		c-8.8,0.3-17.2,0.6-25.3,0.9c-10,0.4-20.4,0.7-31.7,1.1c-0.9,0-8.4,0.5-11.7,0.7c1.2,2.7,2.7,5.1,4.2,7.6c0.9,1.6,1.9,3.2,2.9,4.9
		c2.3,4.2,5,7.9,8.4,11.3c0.4,0.4,1,1.4,1.8,2.7c0.9,1.5,3.2,5.1,3.9,5.2L61.4,143.2z M67.4,143.3L67.4,143.3L67.4,143.3z
		 M91.7,107.6L91.7,107.6L91.7,107.6z"/>
</g>
</svg>
