<?xml version="1.0" encoding="utf-8"?>
<!-- Generator: Adobe Illustrator 19.0.1, SVG Export Plug-In . SVG Version: 6.00 Build 0)  -->
<svg version="1.1" id="Слой_1" xmlns="http://www.w3.org/2000/svg" xmlns:xlink="http://www.w3.org/1999/xlink" x="0px" y="0px"
	 viewBox="-123.7 413 21 16.4" style="enable-background:new -123.7 413 21 16.4;" xml:space="preserve">
<style type="text/css">
	.st0{fill:#604E42;}
</style>
<g>
	<path class="st0" d="M-107.7,418.5h-10.7c-0.7,0-1.3,0.6-1.3,1.3h6v9.6h1.3v-9.6h6C-106.5,419.2-107,418.6-107.7,418.5z"/>
	<path class="st0" d="M-122.5,413.1c-0.1,0-0.2,0-0.3,0h-0.9v16.4h1.2v-5h4.5v5h1.2v-5.1v-0.1c-0.2-0.9-0.8-1.4-1.8-1.4h-2.6
		c-0.5,0-1,0.2-1.3,0.5v-3.7l0,0"/>
	<path class="st0" d="M-103.9,419.6v3.7c-0.4-0.3-0.8-0.5-1.3-0.5h-2.6c-0.9,0-1.6,0.5-1.8,1.4c0,0,0,0.1,0,0.1v5.1h1.2v-5h4.5v5
		h1.2v-9.8l0,0l0-6.6h-0.9c-0.1,0-0.2,0-0.3,0l0,0"/>
</g>
</svg>
