<?xml version="1.0" encoding="utf-8"?>
<!-- Generator: Adobe Illustrator 21.0.0, SVG Export Plug-In . SVG Version: 6.00 Build 0)  -->
<svg version="1.1" id="Слой_1" xmlns="http://www.w3.org/2000/svg" xmlns:xlink="http://www.w3.org/1999/xlink" x="0px" y="0px"
	 viewBox="501 318.8 31 32.5" style="enable-background:new 501 318.8 31 32.5;" xml:space="preserve">
<style type="text/css">
	.st0{fill:#FFFFFF;}
</style>
<g>
	<g>
		<path class="st0" d="M510.1,345.2l7,4c0.1-0.8,0.2-1.6,0.5-2.3l-12.6-7.3c-0.5,0.6-1.1,1.1-1.8,1.5
			C503.7,341.5,510.1,345.2,510.1,345.2z M520.5,329.9c0.9-1.1,1.7-2.3,2.4-3.5l0,0c0.8-1.4,1.4-2.8,1.7-4c0.2-1,0.3-1.7-0.1-2
			c0,0,0,0-0.1-0.1c0,0-0.1,0-0.1,0c-0.4-0.1-1,0.2-1.8,1c-0.9,0.8-1.8,2.1-2.6,3.6v0c-0.7,1.2-1.3,2.6-1.8,3.9
			c0.4,0.1,0.7,0.3,1.1,0.5c0,0,0.1,0,0.1,0.1C519.8,329.4,520.2,329.7,520.5,329.9L520.5,329.9z M516.8,328.2
			c0.5-1.4,1.2-2.9,2-4.2h0c0.9-1.6,1.9-2.9,2.9-3.9c1.1-1.1,2.3-1.6,3.2-1.3c0.1,0,0.2,0.1,0.4,0.2c0.1,0.1,0.2,0.1,0.3,0.2
			c0.8,0.7,0.9,2,0.5,3.5c-0.3,1.3-1,2.8-1.9,4.4l0,0c-0.8,1.3-1.7,2.6-2.6,3.8c0.8,0.9,1.4,2,1.7,3.2c0.5,2,0.3,4.2-0.8,6.1l0,0.1
			l0,0c-2.1,3.6-3.8,6.6-3.9,10.2c0,0.1,0,0.3-0.1,0.4c-0.2,0.4-0.7,0.5-1,0.3l-16-9.2c-0.1-0.1-0.2-0.2-0.3-0.3
			c-0.2-0.4-0.1-0.8,0.3-1c3.1-1.8,4.8-4.8,6.9-8.4c0,0,0-0.1,0.1-0.1c1.1-1.9,2.9-3.2,4.9-3.7C514.4,328.1,515.6,328,516.8,328.2
			L516.8,328.2z M518.1,345.5c0.7-1.9,1.8-3.8,3.1-5.9h0l0-0.1c0.9-1.6,1.1-3.4,0.6-5c-0.4-1.7-1.5-3.1-3.1-4.1l0,0
			c-1.6-0.9-3.4-1.1-5-0.6c-1.7,0.4-3.1,1.5-4.1,3.1l0,0l0,0c-1.2,2.1-2.3,4-3.6,5.6L518.1,345.5L518.1,345.5z"/>
	</g>
	<g>
		<path class="st0" d="M510.8,348.7c-0.7,1.3-2.5,1.6-3.7,0.6c-0.8-0.8-1-2-0.4-3l0,0c0.1-0.2,0-0.4-0.2-0.6l-0.2-0.1
			c-0.2-0.1-0.4,0-0.5,0.1l0,0c-0.9,1.5-0.5,3.6,1,4.5c0.9,0.6,1.9,0.7,2.8,0.4c0.8-0.2,1.6-0.8,2-1.6l0,0c0.1-0.2,0.1-0.5-0.2-0.7
			l0,0C511.2,348.4,510.9,348.5,510.8,348.7L510.8,348.7z"/>
		<path class="st0" d="M508.7,351.1c-0.7,0-1.4-0.2-2-0.6c-1.5-1-2-3.1-1.1-4.8c0.2-0.3,0.5-0.4,0.8-0.2l0.2,0.1
			c0.1,0.1,0.2,0.2,0.3,0.4c0,0.2,0,0.3-0.1,0.5c-0.5,0.9-0.4,2.1,0.4,2.8c0.5,0.5,1.2,0.6,1.8,0.5c0.7-0.1,1.2-0.5,1.5-1.1
			c0.1-0.2,0.2-0.3,0.4-0.3c0.2,0,0.4,0,0.5,0.1c0.2,0.1,0.3,0.2,0.3,0.4c0,0.2,0,0.4-0.1,0.5c-0.5,0.8-1.2,1.4-2.1,1.7
			C509.4,351,509.1,351.1,508.7,351.1z M506.2,345.8c-0.1,0-0.1,0-0.2,0.1c-0.8,1.5-0.4,3.4,0.9,4.3c0.8,0.5,1.7,0.7,2.6,0.4
			c0.8-0.2,1.5-0.7,1.9-1.5c0-0.1,0-0.1,0-0.2c0-0.1-0.1-0.1-0.1-0.2c-0.1,0-0.1,0-0.2,0c-0.1,0-0.1,0.1-0.2,0.1v0
			c-0.4,0.7-1.1,1.1-1.8,1.3c-0.8,0.1-1.6-0.1-2.2-0.6c-0.9-0.8-1.1-2.2-0.5-3.3c0,0,0-0.1,0-0.2c0-0.1,0-0.1-0.1-0.1L506.2,345.8
			C506.3,345.8,506.2,345.8,506.2,345.8z"/>
	</g>
</g>
<g>
	<g>
		<path class="st0" d="M526.1,334.4c1.3,3.4,0.2,6.5-1.9,9.2l0.8,0.7c2.4-3.1,3.5-6.5,2.1-10.2L526.1,334.4z"/>
	</g>
	<g>
		<path class="st0" d="M528.8,336.3c0.9,2.2,0.2,4.1-1.2,5.9l0.6,0.5c1.5-2,2.2-4.2,1.4-6.6L528.8,336.3z"/>
		<path class="st0" d="M528.2,342.8l-0.7-0.6l0.1-0.1c1.5-1.9,2-3.9,1.2-5.8l0-0.1l0.9-0.3l0,0.1C530.4,338.2,530,340.5,528.2,342.8
			L528.2,342.8z M527.8,342.2l0.4,0.3c1.6-2.1,2-4.2,1.3-6.3l-0.4,0.2C529.7,338.3,529.3,340.2,527.8,342.2z"/>
	</g>
	<g>
		<path class="st0" d="M531.1,337.5c0.6,1.6,0.1,3-0.9,4.2l0.4,0.3c1.1-1.4,1.6-3,1-4.7L531.1,337.5z"/>
		<path class="st0" d="M530.6,342.3l-0.7-0.5l0.1-0.2c1.1-1.4,1.4-2.7,0.9-4l-0.1-0.2l0.9-0.3l0.1,0.2c0.6,1.6,0.3,3.3-1,4.9
			L530.6,342.3z M530.5,341.7L530.5,341.7c1.1-1.3,1.4-2.7,1-4.1l-0.1,0C531.8,338.9,531.5,340.3,530.5,341.7z"/>
	</g>
</g>
<g>
	<path class="st0" d="M510.4,334.6c0,0,0.5-1.7,1.9-2.4c1.2-0.6,2.4-0.9,3-1c0.6,0,1.1,0.6,0.6,0.6c-0.5,0.1-2.3,0.3-3.3,0.9
		c-1,0.6-1.6,1.5-1.8,2C510.6,335.2,510.4,335,510.4,334.6z"/>
	<path class="st0" d="M510.6,335.1C510.5,335.1,510.5,335.1,510.6,335.1c-0.2,0-0.3-0.2-0.3-0.5v0l0,0c0-0.1,0.6-1.8,2-2.5
		c1.2-0.6,2.4-1,3.1-1c0.5,0,0.9,0.3,0.9,0.6c0,0.1-0.1,0.3-0.3,0.3c-0.1,0-0.2,0-0.3,0c-0.7,0.1-2.1,0.3-3,0.9
		c-1.1,0.7-1.6,1.6-1.8,1.9C510.8,335,510.7,335.1,510.6,335.1z M510.5,334.6c0,0.2,0,0.2,0.1,0.3c0,0,0.1-0.1,0.1-0.2
		c0.2-0.4,0.7-1.3,1.9-2c0.9-0.6,2.4-0.8,3.1-0.9c0.1,0,0.2,0,0.3,0c0,0,0.1,0,0.1-0.1c0-0.1-0.3-0.4-0.7-0.3c-0.6,0-1.8,0.3-3,1
		C511.1,332.9,510.5,334.5,510.5,334.6z"/>
</g>
</svg>
