<?xml version="1.0" encoding="utf-8"?>
<!-- Generator: Adobe Illustrator 19.0.1, SVG Export Plug-In . SVG Version: 6.00 Build 0)  -->
<svg version="1.1" id="Слой_1" xmlns="http://www.w3.org/2000/svg" xmlns:xlink="http://www.w3.org/1999/xlink" x="0px" y="0px"
	 viewBox="0 0 206 158.1" style="enable-background:new 0 0 206 158.1;" xml:space="preserve">
<path d="M204.3,131.1c-0.2-4.6-0.1-7.4,0.6-17.9c-0.1-1.8,0.7-6.5,0.8-12.3c-0.2-3.7,0.3-6.8,0.3-10.5c0-4.9-0.5-10-4.4-13.2
	c-4.6-3.8-150.1-1.7-156.2-1.3c-1,0.1-2,0.1-2.9,0.2c-7.1,0.3-15.2,0.9-22.3,4.2c-7.4,3.5-7.8,10.2-7.2,16.4
	c0.1,0.8,0.2,1.8,0.4,2.9c0.8,4.9,2.1,13.1-2,14.4c-4,1.3-7.3,2-10,2.1c-0.6,0-1.1,0.4-1.3,0.8C0,117.3,0,117.6,0,117.7
	c0.1,0.2,0.2,0.4,0.7,0.5c1.7,0.3,3.4,0.8,5,1.3c0.7,0.2,1.3,0.4,2,0.6c0.6,0.2,1.1,0.3,1.6,0.4c3.5,0.9,6.2,1.6,6.4,5.8
	c0.1,2.2,0.2,4.4,0.3,6.5c0.2,4,0.3,8.2,0.8,12.3l0,0.2c0.4,3.9,1,8.7,4.7,11.1c2.1,1.4,5.2,1.2,7.7,1.1c0.5,0,1,0,1.5,0
	c4.5-0.1,9.1,0.2,13.6,0.5c2.3,0.1,140.4-1.3,142.7-1.2c0.5,0,1,0,1.5,0c8.4,0,13.8-3.3,15.2-9.3c0.8-3.4,0.6-7,0.4-10.5
	C204.3,135.1,204.2,133.1,204.3,131.1z M19.7,144l-0.1-1c-0.4-3.8-0.6-7.7-0.7-11.5c-0.1-2.2-0.1-4.5-0.3-6.8
	c-0.2-3.7-3-4.6-5.4-5.3c-0.8-0.2-1.6-0.5-2.4-0.8c-1.4-0.4-2.7-0.9-4.1-1.3c0.8-0.2,1.7-0.4,2.5-0.6l1.1-0.3c4-1,5.1-1.7,6.2-6.1
	c1-3.7,0.4-7.7-0.1-11.6c-1-6.9-1.9-13.5,5.8-17.1c6.8-3.2,15.2-3.4,22.6-3.6l2-0.1c5.3-0.2,147.9-1.7,152,0.3
	c4.8,2.5,4.7,9.6,4.6,14.8c0,0.9-1.4,19.3-1.4,22.7c0,2.9-0.1,5.9-0.2,8.8c-0.1,3.6,2.4,25.5-3.8,28.3c-4.4,2-146.3,3.7-151.5,3.2
	c-1.2-0.1-2.4-0.2-3.5-0.3c-2.9-0.2-5.8-0.2-8.6-0.2c-2.5,0-5,0-7.5-0.2C20.9,155.2,20.2,149,19.7,144z"/>
<g>
	<g>
		<path d="M147.1,76.6c-0.2-8.8,2.3-12.9,3.6-21.6c1.2-7.9,2.1-15.9,2.1-23.9c0-7.9-0.7-16.1-3.1-23.7c-1-3.1-3.1-8.1-7.2-7.3
			c-5.5,1-5.5,8.9-6.2,13.2c-1.3,8.3-1,16.4-0.5,24.8c0.2,2.8,0.2,5.6,0.4,8.4c0.1,1,0.1,2,0.1,3c0,2-0.1,3-2.3,2.6
			c-2.6-0.4-4.8-1.2-7.5-1.1c-1.9,0.1-3.9,0.4-5.8,0.1c-2.9-0.4-2.2-3-2.3-5.2c-0.1-5.8-1.3-11.5-2-17.3c-0.4-3.6-0.9-7.2-1.5-10.7
			c-0.7-4-1.6-8.2-3.4-11.8c-1.1-2.2-2.8-4.8-5.5-5c-8.2-0.6-5.6,16.2-5.2,20.8c0.9,9.4,2.7,18.7,4,28.1c1.3,9.6,2.9,16.6,4.9,26.1
			L112,76c-1.6-7.8-2.4-9-3.7-16.8c-1.3-7.9-2.3-15.9-3.5-23.8c-1-6.5-1.9-13-2.2-19.5c-0.1-2.1-0.1-4.3,0.1-6.5
			c0.2-1.8,0.3-5.2,2.2-6.1c5.4-2.7,8.1,14.3,8.5,17c0.5,3.2,0.9,6.3,1.3,9.5c0.7,5.8,1.8,11.6,1.9,17.5c0,1.8-0.1,3.7,1.4,4.9
			c2.1,1.6,5.6,0.9,8,0.8c2.8-0.1,5.1,0.6,7.8,1c1.5,0.2,3.4,0.4,4.3-1.1c0.8-1.3,0.5-3.5,0.5-4.9c-0.1-2.4-0.3-4.7-0.4-7.1
			c-0.3-8.2-1.1-16.3-0.1-24.5c0.4-3.2,0.9-6.5,1.6-9.7c0.6-3.2,3.4-7,6.2-3.3c1.3,1.7,1.9,3.9,2.4,5.9c1.1,4.1,1.8,8.3,2.2,12.6
			c0.9,9.2,0.2,18.4-0.9,27.5c-1.1,8.5-3.6,18.7-4.2,27.2L147.1,76.6z"/>
	</g>
	<g>
		<path d="M123.3,68.6c-1.4-1.9-3.5-2.7-5.9-2.3c-2.3,0.5-3.4,2.4-4.1,4.5c-0.4,1.2,1.6,1.5,2,0.3c0.4-1.3,1.1-2.6,2.6-3
			c1.5-0.3,2.8,0.3,3.7,1.5C122.4,70.7,124.1,69.6,123.3,68.6z"/>
	</g>
	<g>
		<path d="M133.4,70.3c-0.8,1,0.8,2.2,1.6,1.2c1.8-2.1,4.7-0.1,4.8,2.3c0.1,1.2,2.1,1.1,2.1-0.2C141.7,69.4,136.2,66.9,133.4,70.3z"
			/>
	</g>
	<g>
		<path d="M112.2,45.8c-1.7-6.3-1.8-13.1-4.3-19.2c-0.5-1.1-2.4-0.5-1.9,0.7c2.6,6.1,2.6,12.8,4.3,19.2
			C110.6,47.7,112.5,47.1,112.2,45.8z"/>
	</g>
	<g>
		<path d="M143,36.1c-0.7,5.3-0.9,10.7-1.4,16.1c-0.1,1.3,1.9,1.6,2,0.3c0.4-5.4,0.6-10.7,1.4-16.1C145.2,35.1,143.1,34.8,143,36.1z
			"/>
	</g>
</g>
</svg>
