<?xml version="1.0" encoding="utf-8"?>
<!-- Generator: Adobe Illustrator 21.0.0, SVG Export Plug-In . SVG Version: 6.00 Build 0)  -->
<svg version="1.1" id="Слой_1" xmlns="http://www.w3.org/2000/svg" xmlns:xlink="http://www.w3.org/1999/xlink" x="0px" y="0px"
	 viewBox="0 0 36 20" style="enable-background:new 0 0 36 20;" xml:space="preserve">
<style type="text/css">
	.st0{fill:#5A3217;}
</style>
<g>
	<path class="st0" d="M22,8.9c-0.5-1-1.4-1.7-2.6-2.3c0.6-0.5,1.1-0.8,1.5-1.2c0.2-0.2,0.4-0.3,0.6-0.5c1.3-0.9,2.6-1.8,3.6-3.1
		c0.3-0.3,0.7-1,0.3-1.5c-0.3-0.5-1-0.5-1.5-0.2c-1.5,0.6-2.8,2-3.9,3.2c-0.1,0.1-0.3,0.3-0.4,0.4c-0.4,0.4-0.8,0.8-1.1,1.2
		c-0.2,0.3-0.5,0.5-0.7,0.8c0,0,0,0,0,0c-2.7-1-5.6-1.4-8.7-1.1c-2.5,0.2-6,1-7.9,3.7C0,9.7-0.3,11.5,0.3,13c0,0,0,0,0,0.1
		c0,0,0,0.1,0.1,0.1l0,0.1c0,0.1,0.1,0.1,0.1,0.2c0.7,1.3,1.8,2.4,3.2,3.2c0.1,0.3,0.2,0.6,0.4,0.9c0.2,0.3,0.4,0.6,0.7,0.8
		c0.6,0.5,1.4,0.8,2.1,1.1c1,0.3,2.1,0.5,3.3,0.6c0.5,0,1,0.1,1.4,0.1c0.8,0,1.5-0.1,2.2-0.2c1.2-0.2,2.5-0.4,3.6-1.1
		c0,0,0,0,0.1-0.1c0.6-0.4,1-1.1,1.3-1.7c0.6-0.3,1.2-0.8,1.7-1.3c1-1,1.7-1.9,2-2.8C22.9,11.8,22.7,10.1,22,8.9z M16.5,18.7
		c-0.8,0.3-1.6,0.5-2.5,0.7c-1.2,0.2-2.4,0.3-3.6,0.2c-1.7-0.1-3.8-0.4-5.4-1.5c-0.1-0.1-0.2-0.3-0.3-0.4c-0.1-0.1-0.2-0.2-0.3-0.4
		c-0.1-0.1-0.2-0.3-0.2-0.5c0,0,0.1,0,0.1,0.1c0,0,0,0,0,0l0,0c0.1,0.2,0.2,0.4,0.3,0.6c0,0,0.1,0,0.1,0c0,0,0.1-0.1,0-0.1
		c0-0.1-0.1-0.2-0.1-0.3c0.1,0,0.2,0.1,0.3,0.1c0,0.1,0.1,0.2,0.1,0.3l0,0c0,0.1,0.1,0.2,0.1,0.2c0,0,0.1,0,0.1,0
		c0,0,0.1-0.1,0.1-0.1c0-0.1,0-0.2-0.1-0.3l0,0c0.1,0,0.2,0.1,0.3,0.1c0,0,0,0,0,0c0,0.1,0.1,0.2,0.2,0.3c0,0,0.1,0,0.1,0
		c0,0,0.1-0.1,0.1-0.1c0,0,0-0.1,0-0.1c0.1,0,0.2,0.1,0.3,0.1c0,0,0,0,0,0c0,0.1,0,0.1,0.1,0.2l0,0.1c0,0.1,0.1,0.1,0.1,0.2
		c0,0,0.1,0,0.1,0c0,0,0.1,0,0.1-0.1c0-0.1,0-0.2,0-0.3c0.1,0,0.3,0.1,0.4,0.1C7,18,7,18.2,7.1,18.2c0,0,0.1,0,0.2,0
		c0,0,0.1,0,0.1-0.1c0,0,0-0.1,0-0.1c0.1,0,0.3,0.1,0.4,0.1c0,0.2,0.1,0.3,0.1,0.3c0,0,0.1,0,0.1,0c0.1,0,0.1-0.1,0.1-0.3
		c0,0,0,0,0,0c0.2,0,0.4,0.1,0.6,0.1c0,0,0,0.1,0,0.1c0,0.1,0,0.1,0.1,0.2c0,0,0.1,0,0.1,0c0,0,0.1,0,0.1-0.1c0-0.1,0-0.1,0-0.2
		c0.2,0,0.3,0,0.5,0.1c0,0.1,0.1,0.2,0.1,0.3c0,0,0.1,0,0.1,0c0,0,0.1,0,0.1-0.1c0-0.1,0-0.1,0-0.2c0.1,0,0.2,0,0.3,0l0.1,0
		c0,0.2,0.1,0.3,0.2,0.3c0,0,0.1,0,0.1,0c0,0,0.1-0.1,0-0.1c0-0.1,0-0.1-0.1-0.2c0.2,0,0.5,0,0.7,0c0,0.1,0,0.2,0.1,0.3
		c0,0,0.1,0,0.1,0c0,0,0,0,0,0c0,0,0.1,0,0.1,0c0.1-0.1,0.1-0.2,0.1-0.3c0.2,0,0.3,0,0.5,0c0,0.1,0,0.2,0.1,0.2c0,0,0.1,0,0.1,0
		c0,0,0.1,0,0.1-0.1c0-0.1,0-0.1,0-0.2c0.1,0,0.3,0,0.4,0c0,0.1,0,0.1,0.1,0.2c0,0,0.1,0,0.1,0c0,0,0.1,0,0.1-0.1c0,0,0-0.1,0-0.1
		c0.2,0,0.4,0,0.6,0c0,0,0,0.1,0,0.1c0,0,0.1,0.1,0.1,0.1c0,0,0.1,0,0.1-0.1c0,0,0-0.1,0-0.1c0.1,0,0.2,0,0.3,0c0,0.1,0,0.1,0.1,0.1
		c0,0,0.1,0,0.2,0c0,0,0.1-0.1,0.1-0.2c0.1,0,0.3,0,0.4-0.1c0,0,0,0.1,0,0.1c0,0.1,0,0.1,0.1,0.1c0,0,0.1,0,0.1,0
		c0,0,0.1-0.1,0.1-0.1c0,0,0-0.1,0-0.1c0.1,0,0.2,0,0.4-0.1c0,0,0,0,0,0l0,0c0,0.1,0,0.1,0,0.2c0,0,0,0.1,0.1,0.1c0,0,0.1,0,0.1,0
		c0.1-0.1,0.1-0.2,0.1-0.3c0-0.1,0-0.1,0-0.2c0.1,0,0.2,0,0.3-0.1c0,0,0,0.1,0,0.1c0,0.1,0,0.1,0.1,0.2c0.1,0,0.1,0,0.2-0.1
		c0-0.1,0.1-0.2,0-0.3c0.1,0,0.2-0.1,0.3-0.1c0,0.1,0,0.1,0,0.2c0,0,0,0.1,0.1,0.1c0,0,0.1,0,0.1,0c0.1-0.1,0.1-0.2,0.2-0.4
		c0.1,0,0.1,0,0.2-0.1c0,0.1,0,0.1,0,0.2c0,0,0,0.1,0.1,0.1c0,0,0.1,0,0.1,0c0.1,0,0.1-0.1,0.2-0.2l0.1-0.1c0,0,0.1-0.1,0.1-0.2
		c0.1,0,0.2-0.1,0.3-0.1c-0.1,0.2-0.3,0.4-0.4,0.5c-0.1,0.1-0.2,0.2-0.3,0.3c-0.1,0.1-0.2,0.2-0.3,0.3C17,18.6,16.7,18.7,16.5,18.7z
		 M5.2,17c-2.1-0.9-3.7-2.3-4.6-4.1c0,0,0-0.1-0.1-0.1C0.2,11.4,0.4,10.2,1.1,9c1.4-2.2,4.3-3.5,6.5-3.8c1.8-0.3,3.3-0.3,4.7-0.2
		c1.6,0.1,3.2,0.5,5.1,1.1l0,0c-0.4,0.4-0.8,0.8-1.1,1.1c-2.9-1-6.1-1.1-9-0.5C6.3,7,4.2,7.6,2.8,9.1c-1.1,1.2-1.4,2.7-0.9,4
		c0,0,0,0.1,0,0.1c1.6,3.2,5.5,4.1,8.4,4.3c1.7,0.1,4.3,0.1,6.5-0.8c0.9-0.3,1.7-0.8,2.4-1.5c0.6-0.6,1.5-1.5,1.7-2.5
		c0.4-2.5-1.3-4.1-3.1-4.8l0,0c0.5-0.4,0.9-0.7,1.4-1.1c0.8,0.4,1.8,1.1,2.4,2.2l0,0c0.7,1.1,0.9,2.8,0.6,3.9
		c-0.4,1.2-1.3,2.2-2.1,2.9c-0.9,0.8-2,1.4-3.2,1.8C13,18.6,8.6,18.4,5.2,17z M2.3,13C2.3,13,2.3,13,2.3,13
		c-0.3-1.1-0.2-2.1,0.3-2.9C3.7,8.4,6.1,7.3,8,7c2.8-0.4,5.5-0.2,8.1,0.5c-0.4,0.4-0.7,0.7-1.2,0.9c-1.5-0.1-3.5,0.6-4.4,2.1
		c-0.2-0.1-0.5-0.1-0.8,0c-0.1,0-0.1,0.1-0.1,0.2c0,0.1,0.1,0.1,0.2,0.1c0.5-0.2,0.7,0.2,1,0.6c0.2,0.3,0.3,0.6,0.6,0.7
		c0.4,0.2,0.9,0.2,1.4,0.1c0.5-0.1,0.9-0.1,1.4,0.1c0.1,0,0.2,0.1,0.3,0.1c0.2,0.1,0.4,0.2,0.6,0.2c0.5,0.1,0.8,0,1.1-0.3
		c0-0.1,0-0.1,0-0.2c0-0.1-0.1-0.1-0.2,0c-0.1,0.1-0.2,0.1-0.3,0.1c0.3-0.5,0.5-1.1,0.6-1.6c0.1-0.3,0.1-1-0.1-1.4
		c0.5-0.4,1.1-0.8,1.5-1.2c0.7,0.3,1.5,0.8,2.1,1.4c0.8,0.8,1.1,2.2,0.9,3.3c-0.2,0.8-0.8,1.6-1.8,2.4c-0.8,0.7-1.7,1.1-2.7,1.4
		c-3.3,0.9-6.9,0.7-9.9-0.4C4.4,15.6,3,14.4,2.3,13z M21.3,2.6l0.1-0.1C22.2,1.7,23,1,24,0.5c0.3-0.1,0.7-0.2,0.9-0.1
		c0.1,0.1,0.2,0.3,0.2,0.5c0,0.3-0.3,0.7-0.5,0.9L24.6,2c-0.3,0.3-0.7,0.7-1.1,1c-0.8,0.7-1.6,1.2-2.4,1.8L21,4.9
		c-1.8,1.3-3.5,2.7-5.2,4.1c0,0-0.1,0.1-0.1,0.1c0,0,0,0.1,0,0.1c0,0.1,0,0.2,0.1,0.4c0.1,0.3,0.1,0.7,0,1c-0.1,0.6-0.3,1.1-0.7,1.6
		c-0.2,0-0.4-0.1-0.5-0.2c0,0,0,0,0,0c0.4-0.4,0.8-1.2,0.7-1.9c-0.1-0.4-0.3-0.7-0.7-0.8c-1.3-0.5-2.9,0.5-3.6,1.4c0,0,0,0.1,0,0.2
		c0,0,0.1,0.1,0.2,0c0.2-0.1,0.4-0.3,0.6-0.4c0.5-0.4,1-0.7,1.7-0.9c0.5-0.1,1,0,1.3,0.3c0.2,0.2,0.3,0.5,0.2,0.8
		c-0.1,0.4-0.3,0.8-0.5,1.1c0,0,0,0.1,0,0.1c-0.2-0.1-0.4-0.2-0.6-0.2c-0.1,0-0.2,0-0.4,0c-0.2,0-0.5,0-0.7,0.1
		c-0.2,0-0.5,0.1-0.8,0.1c-0.5,0-0.8-0.2-1-0.7l0-0.1c-0.1-0.2-0.2-0.3-0.3-0.5c0,0,0,0,0,0c0.6-0.7,1.1-1.1,1.8-1.4
		C13,9.1,13.5,9,14.1,8.9c0.3,0,0.5-0.1,0.8-0.1c0,0,0.1,0,0.1-0.1c0.6-0.3,1.1-0.8,1.6-1.3C16.8,7.3,16.9,7.2,17,7
		c0.6-0.6,1.2-1.2,1.7-1.8l0.4-0.4C19.8,4.1,20.5,3.3,21.3,2.6z"/>
	<path class="st0" d="M7.5,11c-0.2,0.5-0.2,1,0,1.4c0,0,0.1,0.1,0.1,0.1c0,0,0,0,0,0c0.1,0,0.1-0.1,0.1-0.1c-0.3-1.1,0.3-2,1.8-2.8
		c0.1,0,0.1-0.1,0.1-0.1c0-0.1-0.1-0.1-0.1-0.1l0,0C8.7,9.5,7.9,10.2,7.5,11z"/>
	<path class="st0" d="M9.3,7.9c0-0.1-0.1-0.1-0.1-0.1c-1.4,0-2.6,0.5-3.7,1.3c-1,0.8-2,2.2-1.7,3.5c0,0.1,0.1,0.1,0.1,0.1
		c0,0,0,0,0,0c0.1,0,0.1-0.1,0.1-0.1C4.2,9.8,6.8,8.1,9.2,8C9.3,8,9.3,7.9,9.3,7.9z"/>
	<path class="st0" d="M12.9,14.7C12.9,14.7,12.9,14.7,12.9,14.7c1.7-0.1,3.7-0.9,4.7-2.5c0-0.1,0-0.1,0-0.2c-0.1,0-0.1,0-0.2,0
		c-1.2,1.7-2.8,2.1-4.4,2.4c-0.1,0-0.1,0.1-0.1,0.1C12.8,14.7,12.9,14.7,12.9,14.7z"/>
	<path class="st0" d="M13.9,16.3L13.9,16.3c-0.1,0-0.1,0.1-0.1,0.1c0,0.1,0.1,0.1,0.1,0.1c0.1,0,0.2,0,0.3,0c1.1,0,2.4-0.4,3.5-1.2
		c0.8-0.6,1.8-1.6,1.8-2.7c0-0.1,0-0.1-0.1-0.1c-0.1,0-0.1,0-0.1,0.1l-0.1,0.2c-0.2,0.5-0.4,1-0.7,1.4c-0.3,0.4-0.7,0.7-1.2,1
		C16.1,15.9,14.8,16.2,13.9,16.3z"/>
	<path class="st0" d="M35.9,10.9c-0.7-0.3-1.5-0.4-2.2-0.4c-0.1-0.2-0.3-0.3-0.5-0.3l-0.1,0C33,10,32.9,10,32.8,9.9
		c0.1-0.1,0.1-0.1,0.2-0.2c0.1-0.1,0.2-0.2,0.3-0.3c0.2-0.2,0.4-0.5,0.6-0.8c0-0.1,0-0.2,0-0.2c-0.1-0.1-0.1-0.1-0.2,0
		c-0.4,0.2-1,0.6-1.5,1.1c0.1-0.7,0.2-1.4,0.2-2.1c0-0.1,0-0.1-0.1-0.2c0,0,0,0-0.1,0l0,0l0,0c0,0-0.1,0-0.1,0
		c-0.3,0.2-0.3,0.7-0.4,1.1c0,0.1,0,0.2,0,0.3c0,0.3-0.1,0.6-0.2,0.9c-0.2-0.8-0.5-1.5-1-2.2c0,0-0.1-0.1-0.2,0l-0.1-0.1l0,0.1
		c0,0,0,0,0,0c-0.1,0-0.1,0.1-0.1,0.2c0.3,0.7,0.5,1.4,0.7,2.2c0,0,0,0-0.1,0c-1-0.2-2.1,0.2-2.8,1c-0.5,0.5-0.7,1.2-0.6,1.8
		c-0.1,0.1-0.2,0.1-0.3,0.2c-0.3,0.2-0.6,0.4-0.9,0.4c-0.4,0.1-0.7,0.1-1.1,0c-0.5,0-1-0.1-1.5,0.2c-0.5,0.2-0.9,0.8-1.1,1.6
		c-0.1,0.6,0,1.2,0.2,1.8c0.2,0.5,0.4,0.9,0.7,1.3c0.4,0.5,0.7,1,1.3,1.3c0.6,0.4,1.3,0.5,2,0.5c0.5,0,0.9-0.1,1.4-0.2
		c0.9-0.4,1.7-1.1,2.1-2c0.1-0.2,0.2-0.5,0.3-0.8c1.3,0.8,3.2,0.3,4.1-1.1c0.5-0.7,0.7-1.5,0.6-2.4c-0.1-0.7-0.2-1.6-0.7-2.2
		c0.3,0,0.6,0,0.9,0c0.2,0,0.3,0,0.5,0c0,0,0,0,0,0c0.1,0,0.2-0.1,0.2-0.1C36,11,36,10.9,35.9,10.9z M27.1,13
		c0.4-0.2,0.7-0.5,1.2-0.5c0.5,0,1,0.2,1.4,0.5c0.4,0.4,0.6,0.9,0.6,1.4c0,1-0.5,1.8-1,2.5c0,0,0,0,0,0c-0.1,0.1-0.2,0.1-0.3,0.2
		c0.4-0.3,0.7-0.7,0.8-1.2c0.1-0.7,0-1.8-0.7-2.3c-0.5-0.3-0.9-0.2-1.4-0.1c-0.4,0.1-0.7,0.2-1.1,0c0,0,0,0,0,0c0,0-0.1,0-0.1,0
		c0,0-0.1,0.1,0,0.1c0,0,0,0.1,0,0.1c0.2,0.3,0.4,0.4,0.7,0.4c0,0,0.1,0,0.2,0c0.4,0,0.6,0,0.6,0c0,0,0,0,0,0l0,0
		c0,0.1-0.2,0.3,0,0.5c0.1,0.1,0.2,0.1,0.2,0.1c0,0-0.1,0.1-0.1,0.1c0,0-0.1,0.1-0.1,0.1c0,0.1,0,0.1,0,0.2c0,0,0.1,0.1,0.2,0.1
		c0.1,0,0.1,0,0.2,0c0.2-0.1,0.3-0.2,0.3-0.2c0-0.1,0-0.1,0-0.2c0,0-0.1,0-0.1-0.1c0,0,0,0,0.1,0l0,0c0.1,0,0.2,0,0.2,0c0,0,0,0,0,0
		c0,0,0,0.1,0,0.1c0,0,0,0.1-0.1,0.2c-0.1,0.3,0,0.6,0.3,0.6c0,0,0,0,0.1,0c0,0,0,0,0.1,0c0,0.1,0,0.1,0,0.1c0,0-0.1,0-0.1,0.1
		c0,0,0,0-0.1,0c-0.1,0.1-0.2,0.1-0.3,0.3c0,0.1,0,0.1-0.1,0.2c0,0,0,0.1,0,0.1c0,0.1-0.1,0.2-0.2,0.3c0,0-0.1,0-0.2,0
		c0,0-0.1,0-0.1,0c-0.2,0-0.4,0.1-0.6,0.2c0,0,0,0,0,0c0,0,0,0-0.1,0c-0.2-0.2-0.4-0.2-0.7-0.1c0,0-0.1,0-0.1,0
		c-0.2,0.1-0.3,0.1-0.4,0c0,0,0,0,0,0c0,0,0,0,0.1,0.1c0,0,0,0,0.1,0c0.2,0,0.2-0.2,0.2-0.3c0.1-0.2,0-0.3-0.1-0.4
		c-0.1,0-0.1,0-0.1,0c-0.1,0.1-0.2,0.1-0.2,0.2c0,0.1,0,0.1,0,0.2c0-0.1-0.1-0.2-0.2-0.2l0,0l0,0c-0.1,0-0.2,0-0.3,0
		c0,0-0.1,0-0.1,0c0,0-0.1,0-0.1,0c-0.1,0-0.1,0-0.2,0c-0.1,0-0.1-0.1-0.2-0.3c0-0.1,0-0.2-0.1-0.3c0,0,0-0.1-0.1-0.1
		C24.8,16,24.7,16,24.7,16c0,0-0.1,0-0.1-0.1c0,0,0,0,0,0c0-0.1,0.1-0.1,0.1-0.2l0.1-0.1c0.1-0.1,0.1-0.2,0.1-0.4h0
		c0,0.1,0.1,0.1,0.2,0.1c0,0,0.1,0,0.1,0l0-0.1l0,0.1c0.1,0,0.2,0,0.2-0.2c0,0,0,0,0,0l0.2-0.1l-0.2,0c0,0,0,0,0,0c0,0,0,0,0,0
		c0,0,0,0,0,0c-0.1,0-0.2-0.1-0.3,0c-0.1,0-0.1,0.1-0.1,0.2l0,0l0,0c0-0.2,0-0.2,0.1-0.3c0,0,0.1,0,0.1-0.1c0,0,0.1,0,0.1-0.1l0,0
		c0.4-0.2,0.4-0.5,0.3-0.6c-0.1-0.2-0.5-0.4-0.9-0.3c-0.9,0.1-1.3,1.2-1.3,2.1c0.1,0.9,0.7,1.6,1.5,1.9c0.3,0.1,0.7,0.1,1.1,0.1
		c0.6,0,1.1-0.1,1.4-0.5c0.3,0.3,0.9,0.1,1.1,0c0.1,0,0.2-0.1,0.4-0.2c-1.3,0.9-2.8,1.1-4.2,0.6c-1-0.3-1.6-1-1.8-1.8
		c-0.1-0.6,0-1.3,0.3-1.8c0.2-0.4,0.5-0.6,0.9-0.7c0.3-0.1,0.7-0.1,1.1,0c0.4,0,0.8,0,1.2-0.1C26.5,13.4,26.8,13.2,27.1,13z
		 M25,14.6L25,14.6L25,14.6L25,14.6z M29.3,15.7h0.1H29.3c0-0.3-0.1-0.3-0.2-0.3c-0.1,0-0.1,0-0.2,0c0,0,0,0,0,0c0,0,0,0,0,0
		c0-0.1,0-0.2,0-0.3l0,0c0-0.1,0.1-0.2,0.1-0.2c0-0.1-0.1-0.2-0.1-0.3c-0.2-0.1-0.4,0-0.5,0l-0.1,0c-0.1,0-0.2,0.1-0.2,0.1
		c0,0,0-0.1,0-0.1l0,0c0.1-0.2,0-0.3,0-0.3c-0.1-0.1-0.3-0.2-0.4-0.2c0,0,0,0,0,0c0.2-0.1,0.4-0.1,0.6-0.1c0.6,0,0.9,0.5,1,0.8
		c0.3,0.8,0.2,1.5-0.3,2.1c-0.2,0.2-0.7,0.6-1.1,0.6c0,0,0,0,0,0c-0.1,0-0.2,0-0.3-0.1c0.1-0.1,0.3-0.1,0.5-0.1l0.1,0
		c0.1,0,0.2,0,0.4-0.1c0.2-0.1,0.3-0.4,0.2-0.7c0,0,0,0,0,0c0-0.1,0.1-0.1,0.2-0.2c0,0,0.1,0,0.1,0C29.2,16,29.3,15.9,29.3,15.7z
		 M26.5,13.7L26.5,13.7L26.5,13.7L26.5,13.7z M24.4,15.1C24.4,15.2,24.4,15.2,24.4,15.1c0,0.1,0,0.2,0,0.3l0,0l0,0v0
		c-0.1,0.1-0.2,0.4-0.1,0.6c0.1,0.1,0.2,0.1,0.2,0.2c0.1,0,0.1,0.1,0.2,0.1c0,0.1,0,0.2,0.1,0.2c0,0.2,0,0.4,0.3,0.5
		c0.1,0.1,0.2,0,0.3,0c0,0,0.1,0,0.1,0c0,0,0,0,0.1,0c0,0,0.1,0,0.1,0c0.1,0,0.1,0,0.1,0c0,0,0.1,0.1,0.1,0.2c0,0.1,0.1,0.2,0.2,0.2
		c0.1,0.1,0.3,0.1,0.4,0c0.1,0,0.2-0.1,0.3-0.1c0.2-0.1,0.2-0.1,0.4,0c-0.4,0.3-1,0.3-1.6,0.3c-0.7-0.1-1.1-0.3-1.5-0.7
		c-0.4-0.4-0.5-1.1-0.3-1.6c0.1-0.3,0.2-0.6,0.4-0.8c0.2-0.2,0.4-0.3,0.6-0.3c0.3,0.1,0.4,0.2,0.4,0.2c0,0,0,0-0.1,0.1l0,0l0,0
		c0,0-0.1,0-0.1,0.1l0,0c-0.4,0.1-0.4,0.3-0.4,0.5C24.4,15,24.4,15.1,24.4,15.1z M24.5,18.3c1.8,0.5,3.8,0.1,4.9-1.2c0,0,0,0,0,0
		c0.2-0.2,0.4-0.4,0.6-0.7c-0.4,1.4-1.1,2.4-2.3,2.8c-1,0.4-2.3,0.3-3.1-0.3c-0.4-0.2-0.8-0.6-1.1-1.1
		C23.9,18.1,24.2,18.2,24.5,18.3z M33,9.2C32.9,9.2,32.9,9.2,33,9.2c-0.2,0.2-0.3,0.3-0.4,0.5l-0.1,0.1c-0.2,0.3-0.5,0.6-0.7,1l0,0
		c0,0,0,0-0.1,0c0,0,0-0.1,0.1-0.1C32,10,32.4,9.6,33,9.2z M33.5,10.9c-0.4,0-0.8,0-1.2,0.3c0,0-0.1-0.1-0.1-0.1
		C32.7,10.9,33.1,10.9,33.5,10.9z M32.3,10.7c0.1-0.1,0.2-0.2,0.2-0.4l0.1-0.1c0.1,0,0.1,0.1,0.2,0.1c0.1,0,0.2,0.1,0.2,0.1
		c0,0,0.1,0.1,0.1,0.1C32.8,10.5,32.5,10.6,32.3,10.7z M30.8,9.9C30.8,9.9,30.9,9.9,30.8,9.9c0.1,0.1,0.1,0.2,0.2,0.4l-0.2-0.1
		c-0.1,0-0.2,0-0.2,0.1c0,0.1,0,0.1,0.1,0.2c0.1,0.1,0.3,0.2,0.4,0.2c0.1,0.1,0.2,0.1,0.3,0.2l0,0.1l0-0.1c0,0,0.1,0,0.1,0.1
		c0.1,0.1,0.2,0.2,0.3,0.2c0.1,0.1,0.2,0.2,0.4,0.2c0,0,0,0,0.1,0l0,0c0,0,0,0,0,0c0,0,0.1,0,0.1,0c0,0,0,0,0,0
		c0.5-0.1,0.9-0.2,1.5-0.2c0.8,1.1,1.2,2.8,0.4,4.2c-0.8,1.3-2.4,1.8-3.9,1.1c0.2-0.8,0.3-1.4,0.2-2c0,0,0,0,0-0.1
		c0-0.5-0.2-0.9-0.4-1.2c-0.4-0.6-1.2-1-1.9-0.9c-0.2,0-0.4,0.1-0.6,0.1c0-0.8,0.4-1.4,1.1-1.9c0.5-0.3,1-0.4,1.6-0.5
		C30.5,10,30.7,10,30.8,9.9z"/>
	<path class="st0" d="M25.3,15.6C25.3,15.6,25.3,15.6,25.3,15.6c-0.1-0.1-0.1-0.1-0.1-0.1c-0.1,0-0.2-0.1-0.3,0
		c-0.1,0-0.1,0.1-0.1,0.2c0,0.1,0,0.1,0,0.2l0,0c0,0.1,0.1,0.1,0.2,0.1c0,0,0.1,0,0.1,0c0.1,0,0.2-0.1,0.2-0.1
		C25.3,15.8,25.3,15.7,25.3,15.6z M24.8,15.8L24.8,15.8L24.8,15.8L24.8,15.8z"/>
	<path class="st0" d="M25.1,16.3c0,0.1,0,0.2,0,0.3v0c0,0.1,0.1,0.1,0.1,0.1c0,0,0,0,0,0c0.1,0,0.1,0,0.2-0.1
		c0.1-0.1,0.2-0.2,0.2-0.3c0,0,0,0,0-0.1c0,0,0,0,0-0.1c0,0,0,0,0,0l0-0.1l-0.1,0c0,0,0,0-0.1,0c0,0,0,0,0,0
		C25.4,16,25.2,16.1,25.1,16.3z"/>
	<path class="st0" d="M27.2,14.7c0,0,0.1,0,0.1,0c0.1,0,0.2,0,0.2-0.1c0.1,0,0.1-0.1,0.1-0.2l0,0l0,0c0-0.1-0.1-0.1-0.1-0.1
		c-0.1,0-0.2,0-0.3,0l0,0c0,0,0,0-0.1,0c0,0,0,0-0.1,0c0,0,0,0.1,0,0.1C27,14.6,27.1,14.7,27.2,14.7z"/>
	<path class="st0" d="M28,15.8c0.1,0,0.2,0.1,0.3,0.1c0,0,0.1,0,0.1,0c0.1,0,0.1,0,0.2-0.1c0-0.1,0-0.2,0-0.2
		c-0.1-0.1-0.3-0.1-0.4-0.1c0,0,0,0-0.1,0c-0.1,0-0.1,0-0.1,0.1C27.9,15.7,28,15.8,28,15.8L28,15.8z"/>
	<path class="st0" d="M27.5,16.2C27.5,16.2,27.5,16.2,27.5,16.2c0,0.1-0.1,0.1-0.1,0.2c0,0.1,0,0.2,0.1,0.2c0.1,0.1,0.2,0.2,0.4,0.2
		c0,0,0,0,0.1,0c0.1,0,0.1-0.1,0.1-0.1c0.1-0.3-0.2-0.4-0.4-0.4l0,0C27.6,16.1,27.5,16.1,27.5,16.2z"/>
</g>
</svg>
