<?xml version="1.0" encoding="utf-8"?>
<!-- Generator: Adobe Illustrator 19.0.1, SVG Export Plug-In . SVG Version: 6.00 Build 0)  -->
<svg version="1.1" id="Capa_1" xmlns="http://www.w3.org/2000/svg" xmlns:xlink="http://www.w3.org/1999/xlink" x="0px" y="0px"
	 viewBox="299 405.9 30 30" style="enable-background:new 299 405.9 30 30;" xml:space="preserve">
<g>
	<g id="_x32__26_">
		<g>
			<path d="M318.7,421.8h-9.4c-0.5,0-0.9,0.4-0.9,0.9s0.4,0.9,0.9,0.9h9.4c0.5,0,0.9-0.4,0.9-0.9S319.2,421.8,318.7,421.8z
				 M320.6,416.2h-13.1c-0.5,0-0.9,0.4-0.9,0.9s0.4,0.9,0.9,0.9h13.1c0.5,0,0.9-0.4,0.9-0.9S321.1,416.2,320.6,416.2z M314,405.9
				c-8.3,0-15,5.9-15,13.1c0,4.1,2.2,7.8,5.6,10.2v6.6l6.6-4c0.9,0.2,1.8,0.2,2.8,0.2c8.3,0,15-5.9,15-13.1S322.3,405.9,314,405.9z
				 M314,430.3c-1.1,0-2.2-0.1-3.2-0.3l-4.4,2.7l0.1-4.3c-3.4-2-5.6-5.4-5.6-9.2c0-6.2,5.9-11.3,13.1-11.3s13.1,5,13.1,11.3
				S321.2,430.3,314,430.3z"/>
		</g>
	</g>
</g>
</svg>
