<svg id="Слой_1" data-name="Слой 1" xmlns="http://www.w3.org/2000/svg" viewBox="0 0 509.53 475.04"><defs><style>.cls-1{fill:#604e42;}</style></defs><title>icon-factory</title><path class="cls-1" d="M255.72,7.09c-43,.05-86,21.6-100.5,64.48a118.77,118.77,0,0,0-29.32-3.65c-65,0-117.82,52.72-117.82,117.68,0,62.94,49.62,114.4,111.83,117.52v130.1a14.42,14.42,0,0,0,4.37,9.83,34.37,34.37,0,0,0,9.43,6.59c7.57,3.85,17.72,7,30,9.71,24.5,5.37,57.32,8.62,92.08,8.62s67.54-3.25,92-8.62c12.25-2.69,22.4-5.86,30-9.71A34.36,34.36,0,0,0,387.2,443a14.59,14.59,0,0,0,4.36-9.36c0-.16,0-.31,0-.47V303.11c62.25-3.12,111.88-54.58,111.88-117.52,0-65-52.84-117.68-117.87-117.68a118.57,118.57,0,0,0-29.26,3.65C341.78,28.48,298.75,7,255.72,7.09Zm0,11.65c39.78-.06,79.56,20.06,90.92,60.54a5.76,5.76,0,0,0,2.87,4.38l.22.12.14.07a5.76,5.76,0,0,0,5.11,0A106.17,106.17,0,1,1,324.53,272.5c17.82-16.24,31.85-38.58,40.21-64.39a5.76,5.76,0,1,0-10.9-3.74l-.06.18c-8.5,26.24-23,48.13-41.15,63a5.76,5.76,0,0,0-1.83,1.47c-16.13,12.67-35,19.9-55,19.9s-39-7.28-55.2-20a5.76,5.76,0,0,0-1.59-1.28c-18.2-14.92-32.74-36.84-41.29-63.12a5.76,5.76,0,0,0-11,3.45l0,.11c8.39,25.8,22.42,48.13,40.24,64.37A106.21,106.21,0,1,1,125.9,79.43a106.83,106.83,0,0,1,30.63,4.44,5.76,5.76,0,0,0,5.25-.09l.25-.14.1-.06a5.76,5.76,0,0,0,2.76-4.3c11.29-40.25,51-60.5,90.83-60.56ZM196.16,280.06c17.42,13,37.76,20.43,59.61,20.43s42.17-7.48,59.58-20.42A117.26,117.26,0,0,0,380,303.13V418c-.73-.41-1.49-.83-2.28-1.23-7.56-3.85-17.72-7-30-9.73-24.5-5.39-57.3-8.65-92-8.65s-67.58,3.26-92.09,8.65c-12.25,2.69-22.41,5.87-30,9.73-.79.4-1.54.81-2.28,1.23V303.13a117.15,117.15,0,0,0,64.73-23.07Zm59.61,129.86c34,0,66.23,3.25,89.56,8.38,11.67,2.57,21.13,5.65,27.21,8.74a24.81,24.81,0,0,1,6.34,4.3c1.14,1.19,1.17,1.7,1.17,1.86s0,.67-1.16,1.86a24.79,24.79,0,0,1-6.34,4.29c-6.08,3.09-15.54,6.16-27.21,8.72-23.33,5.12-55.55,8.35-89.57,8.35s-66.28-3.24-89.62-8.35c-11.67-2.56-21.14-5.63-27.22-8.72a24.8,24.8,0,0,1-6.34-4.29c-1.14-1.19-1.16-1.69-1.16-1.86s0-.68,1.17-1.86a24.83,24.83,0,0,1,6.34-4.3c6.08-3.1,15.55-6.18,27.22-8.74,23.34-5.13,55.58-8.38,89.61-8.38Z" transform="translate(-1)"/><path class="cls-1" d="M255.77,475c-34.52,0-67.76-3.12-93.6-8.79-13.47-3-23.83-6.32-31.67-10.31a40.85,40.85,0,0,1-11.33-8,21.47,21.47,0,0,1-6.34-14.74V309.67A124.69,124.69,0,0,1,1,185.59C1,116.79,57,60.83,125.9,60.83a126.46,126.46,0,0,1,24.87,2.46C166.81,24.69,207.26.06,255.71,0h.17c48.42,0,88.84,24.62,104.88,63.29a126.06,126.06,0,0,1,24.8-2.46c68.9,0,125,56,125,124.76A124.71,124.71,0,0,1,398.65,309.67V433.15c0,.29,0,.58,0,.87a21.43,21.43,0,0,1-6.32,13.92,40.85,40.85,0,0,1-11.33,8c-7.84,4-18.19,7.36-31.66,10.31C323.49,471.92,290.26,475,255.77,475ZM142.46,433.2c5.64,2.81,14.57,5.63,25.21,8,23.74,5.2,55.85,8.19,88.1,8.19s64.32-3,88-8.19c10.63-2.33,19.56-5.15,25.2-8-5.64-2.81-14.57-5.64-25.21-8C320.07,420,288,417,255.77,417s-64.35,3-88.09,8.21C157,427.56,148.1,430.39,142.46,433.2Zm-3.94-123.48v97.21a165.91,165.91,0,0,1,23.64-6.79c25.86-5.68,59.1-8.81,93.61-8.81s67.71,3.13,93.56,8.81A165.87,165.87,0,0,1,373,406.92V309.72a124.08,124.08,0,0,1-57.61-20.95c-18.18,12.32-38.68,18.81-59.58,18.81s-41.41-6.49-59.6-18.82A123.85,123.85,0,0,1,138.52,309.72Zm197.34-38.37a98.64,98.64,0,0,0,49.72,13.31c54.74,0,99.27-44.44,99.27-99.07s-44.53-99.07-99.27-99.07a99.61,99.61,0,0,0-28.12,4,12.93,12.93,0,0,1-10.76-.37l-.27-.14-.5-.28a12.84,12.84,0,0,1-6.23-9c-11.64-40.54-52.33-54.93-83.81-54.93h-.16c-31.5,0-72.29,14.48-83.9,55a12.93,12.93,0,0,1-6.06,8.89l-.22.13-.5.27a12.88,12.88,0,0,1-11,.47A99.12,99.12,0,1,0,125.9,284.66a98.57,98.57,0,0,0,49.76-13.32c-15.7-16.4-28-37.31-35.66-61l-.06-.2a12.85,12.85,0,0,1,24.52-7.68c8,24.57,21.34,45.13,38.61,59.43a12.79,12.79,0,0,1,2.3,1.85c15.26,11.89,32.67,18.18,50.41,18.18s35-6.23,50.19-18a12.74,12.74,0,0,1,2.65-2.13c17.2-14.31,30.48-34.82,38.44-59.37l.12-.35a12.85,12.85,0,0,1,16.3-7.93,12.86,12.86,0,0,1,8,16.25C363.79,234,351.55,255,335.86,271.35Zm-184.91-64.6v0Z" transform="translate(-1)"/></svg>