<svg version="1.1" id="Слой_1" xmlns="http://www.w3.org/2000/svg" xmlns:xlink="http://www.w3.org/1999/xlink" x="0px" y="0px"
	 viewBox="0 0 18 2.6" enable-background="new 0 0 18 2.6" xml:space="preserve">
<g>
	<path d="M0.9,2.2C4.2,2.4,7.4,1.9,10.6,2c2,0,3.8,0.4,6.1-0.1c0.5-0.1,1.1-0.4,1.1-1c0,0,0,0,0-0.1c0-0.6-1-0.6-1.8-0.3
		c-1.8,0.3-3.8-0.1-5.5-0.1c-2.9,0-5.7,0.4-8.6,0.2C0.9,0.7-0.7,2.1,0.9,2.2z"/>
	<path d="M2.6,2.4c-0.6,0-1.1,0-1.7-0.1h0C0.1,2.3,0,2,0,1.8c0-0.6,1.1-1.3,1.9-1.2c1.7,0.1,3.5,0,5.2-0.1c1.1-0.1,2.2-0.1,3.4-0.1
		c0.7,0,1.4,0.1,2.1,0.1c1.1,0.1,2.3,0.2,3.4,0c0.5-0.2,1.3-0.3,1.7,0C17.9,0.5,18,0.7,18,0.9l0,0.1c0,0.5-0.4,0.9-1.2,1.1l0,0
		c-1.7,0.3-3.2,0.2-4.6,0.1c-0.5,0-1-0.1-1.5-0.1c-1.5,0-2.9,0-4.4,0.1C5.1,2.3,3.8,2.4,2.6,2.4z M0.9,2c1.8,0.1,3.6,0,5.3-0.1
		c1.4-0.1,2.9-0.2,4.4-0.1c0.5,0,1,0,1.5,0.1C13.6,1.9,15,2,16.7,1.7c0.6-0.2,1-0.4,1-0.8l0-0.1c0-0.1,0-0.1-0.1-0.2
		c-0.3-0.2-0.9-0.1-1.4,0.1l0,0l0,0c-1.1,0.2-2.4,0.1-3.5,0c-0.7-0.1-1.4-0.1-2-0.1c-1.1,0-2.3,0.1-3.4,0.1C5.4,0.9,3.7,1,1.9,0.9
		c-0.6,0-1.5,0.6-1.5,0.9C0.4,1.9,0.6,2,0.9,2L0.9,2z"/>
</g>
</svg>
