<?xml version="1.0" encoding="utf-8"?>
<!-- Generator: Adobe Illustrator 22.1.0, SVG Export Plug-In . SVG Version: 6.00 Build 0)  -->
<svg version="1.1" id="Слой_1" xmlns="http://www.w3.org/2000/svg" xmlns:xlink="http://www.w3.org/1999/xlink" x="0px" y="0px"
	 viewBox="0 0 20 25" style="enable-background:new 0 0 20 25;" xml:space="preserve">
<g>
	<g>
		<g>
			<g>
				<path d="M3.7,22.4c-0.2-0.6-0.5-1.1-0.9-1.7c-0.7-1-0.8-2.3-1-3.5c-0.2-1.5-0.4-2.9-1.1-4.2c-0.1,0.1-0.1,0.2-0.2,0.3
					c3.8,0.5,7.6,0.7,11.4,0.5c0.8-0.1,1.6-0.1,2.3-0.2c0.3,0,2.6-0.5,2.5-0.1c-0.4,1.5-1.3,3-1.8,4.5c-0.4,1.3-0.8,2.7-1.4,3.9
					c-0.9,1.7-2.5,1.9-4.2,2.1c-1.3,0.2-2.7,0.2-4,0.3c-0.7,0-2,0.1-1.6-1.1C3.9,22.8,3.9,22.6,3.7,22.4c-0.2-0.2-0.5-0.1-0.3,0.1
					c0.4,0.6-0.4,1.2,0.1,1.8c0.4,0.4,1.4,0.4,1.9,0.3c2.2,0,4.4-0.2,6.6-0.8c1.7-0.5,2.4-2.4,2.9-3.9c0.4-1.3,0.8-2.5,1.2-3.8
					c0.4-1.1,1.1-2.1,1.2-3.2c0-0.1-0.1-0.2-0.2-0.2c-5.4,1.1-10.9,1-16.4,0.3c-0.2,0-0.3,0.1-0.2,0.3c0.8,1.6,0.9,3.3,1.1,5
					c0.1,0.6,0.2,1.3,0.4,1.9c0.4,0.8,1,1.5,1.3,2.4C3.4,22.7,3.7,22.6,3.7,22.4L3.7,22.4z"/>
				<path d="M4.8,25c-0.5,0-1.2-0.1-1.5-0.4c-0.4-0.4-0.3-0.9-0.2-1.2c0.1-0.3,0.1-0.5,0-0.6C3,22.6,3,22.6,3,22.5
					c-0.2-0.5-0.4-0.9-0.7-1.3c-0.2-0.3-0.4-0.6-0.6-1c-0.3-0.6-0.4-1.3-0.5-1.9c0-0.3-0.1-0.6-0.1-0.8c-0.2-1.3-0.3-2.6-0.9-3.8
					l-0.3,0l0.2-0.2c-0.1-0.2-0.1-0.3,0-0.5c0.1-0.2,0.3-0.2,0.5-0.2l0.1-0.2l0.1,0.2C6.7,13.5,12,13.4,17,12.4c0.2,0,0.3,0,0.5,0.1
					c0.1,0.1,0.2,0.2,0.1,0.4c-0.1,0.8-0.4,1.5-0.8,2.2c-0.2,0.4-0.3,0.7-0.5,1.1c-0.3,0.8-0.5,1.6-0.8,2.4
					c-0.1,0.5-0.3,0.9-0.4,1.4c-0.5,1.5-1.2,3.6-3.1,4.1c-1.9,0.5-4,0.8-6.6,0.8c-0.1,0-0.1,0-0.2,0C5,25,4.9,25,4.8,25z M3.9,22.2
					c0.2,0.3,0.3,0.6,0.1,1.1C4,23.5,4,23.6,4,23.8C4.2,24,5,24,5.4,24l0.3,0c1.2,0,2.5-0.1,3.7-0.3l0.2,0c1.6-0.2,3-0.5,3.8-1.9
					c0.5-0.9,0.8-1.9,1.1-2.9c0.1-0.3,0.2-0.6,0.3-1c0.2-0.7,0.5-1.4,0.8-2.1c0.3-0.7,0.6-1.4,0.9-2.2c-0.2,0-0.8,0-1.9,0.2
					c-0.1,0-0.2,0-0.2,0C13.5,14,12.8,14,12,14.1c-3.3,0.2-6.8,0.1-10.6-0.3c0.4,1.1,0.6,2.2,0.7,3.4l0,0.1c0.1,1.1,0.3,2.3,0.9,3.3
					C3.4,21.1,3.7,21.6,3.9,22.2z M16.9,13.1c0,0,0.1,0,0.1,0.1c0,0,0-0.1,0-0.1C16.9,13,16.9,13,16.9,13.1z"/>
			</g>
		</g>
	</g>
	<g>
		<g>
			<g>
				<path d="M16.1,16.1c0.7-0.7,2.5-2.2,3.1-0.6c0.5,1.3,0.1,2.8-1.1,3.5c-1.5,0.9-3.4,0.8-4.2,2.5c-0.1,0.2,0.2,0.4,0.3,0.2
					c1.1-2.4,4.9-1.4,5.5-4.3c0.2-0.8,0.2-2.7-0.9-3c-1.1-0.3-2.2,0.6-2.9,1.4C15.7,16,15.9,16.2,16.1,16.1L16.1,16.1z"/>
				<path d="M14,22.1c-0.2,0-0.3-0.1-0.4-0.2c-0.1-0.1-0.1-0.3,0-0.5c0.6-1.3,1.8-1.7,2.8-2c0.5-0.2,1-0.3,1.5-0.6
					c1-0.6,1.4-1.9,1-3.1c-0.2-0.5-0.4-0.5-0.5-0.5c-0.5-0.1-1.4,0.5-2.1,1.2c-0.1,0.1-0.3,0.2-0.5,0.1c-0.2,0-0.3-0.2-0.4-0.4
					c0-0.2,0-0.3,0.1-0.5c0.4-0.4,1.7-1.8,3.2-1.4c1.3,0.3,1.3,2.4,1.1,3.3c-0.4,1.7-1.7,2.2-3,2.6c-1,0.4-2,0.7-2.5,1.7
					C14.3,22,14.2,22.1,14,22.1C14,22.1,14,22.1,14,22.1z M15.9,15.9C15.9,15.9,15.9,15.9,15.9,15.9L15.9,15.9
					C15.9,15.9,15.9,15.9,15.9,15.9z"/>
			</g>
		</g>
	</g>
	<g>
		<g>
			<g>
				<path d="M9.6,11.4C8.3,10.9,8.1,10,9,8.7c0.3-0.1,0.6-0.1,0.9-0.1c0.3,0,0.7,0,1-0.2c0.8-0.3,1.3-1,1.2-1.9
					c-0.1-0.8-1-1.5-1.5-1.9C9.9,4,9.2,3.6,8.9,2.7C8.6,2,8.9,1.2,9.2,0.5c0.1-0.2-0.3-0.3-0.4-0.1c-0.4,1-0.6,2,0,2.9
					c0.2,0.4,0.7,0.8,1,1c0.4,0.3,0.8,0.6,1.2,1c0.7,0.6,0.7,1.5,0,2.5c-0.4,0.2-0.7,0.2-1.1,0.2c-1,0.1-1.8,0.3-2,1.4
					c-0.1,0.9,0.8,1.9,1.6,2.2C9.7,11.8,9.8,11.5,9.6,11.4L9.6,11.4z"/>
				<path d="M9.5,12.1c-0.1,0-0.1,0-0.2,0c-1-0.4-1.9-1.4-1.8-2.5C7.8,8,9.2,7.9,9.9,7.9c0.3,0,0.6-0.1,0.9-0.2
					c0.8-1.2,0.4-1.8,0-2.1c-0.4-0.4-0.8-0.7-1.2-1C9.2,4.3,8.8,4,8.5,3.5c-0.6-1.1-0.3-2.2,0-3.2C8.6,0.2,8.7,0,8.9,0
					c0.2,0,0.4,0,0.5,0.2c0.1,0.1,0.1,0.3,0.1,0.5l0,0.1C9.2,1.3,8.9,2.1,9.1,2.6c0.3,0.7,0.8,1.1,1.4,1.6l0.2,0.2
					c0.5,0.4,1.6,1.2,1.6,2.2c0.1,1-0.4,1.8-1.4,2.2c-0.3,0.1-0.7,0.2-1,0.2l-0.1,0c-0.2,0-0.5,0-0.7,0.1c-0.4,0.6-0.5,1-0.4,1.4
					c0.1,0.3,0.4,0.6,0.9,0.8c0.2,0.1,0.3,0.2,0.3,0.4c0,0.2,0,0.4-0.2,0.5C9.7,12,9.6,12.1,9.5,12.1z M9.6,11.5
					C9.6,11.5,9.6,11.5,9.6,11.5C9.6,11.5,9.6,11.5,9.6,11.5z M8.5,8.9C8.3,9.1,8.2,9.3,8.2,9.6c0,0.1,0,0.1,0,0.2
					C8.2,9.5,8.3,9.2,8.5,8.9z M11.8,6.6c0,0.2-0.1,0.5-0.2,0.8C11.8,7.2,11.8,6.9,11.8,6.6z"/>
			</g>
		</g>
	</g>
	<g>
		<g>
			<g>
				<path d="M5.5,10.8c-0.8-1.1-1.1-2.7,0.9-3C6.7,7.7,7,7.3,7.1,7c0.3-1.3-1-2.3-1.7-3.2C5.3,3.6,4.9,3.8,5.1,4
					C5.5,4.5,6,5,6.4,5.6c0.4,0.6,0.4,1.7-0.6,1.9C5.5,7.6,5.3,7.6,5.1,7.8C4,8.8,4.3,9.9,5.2,11C5.3,11.2,5.6,11,5.5,10.8L5.5,10.8
					z"/>
				<path d="M5.3,11.4c-0.2,0-0.3-0.1-0.4-0.2c-0.4-0.5-1.7-2.2,0-3.6c0.2-0.2,0.5-0.3,0.7-0.3l0,0C6,7.1,6.2,6.9,6.3,6.7
					c0.1-0.3,0-0.7-0.2-0.9C5.9,5.5,5.7,5.2,5.5,5C5.3,4.7,5,4.4,4.8,4.2C4.7,4,4.7,3.9,4.8,3.7C4.8,3.5,5,3.4,5.2,3.4
					c0.2,0,0.3,0.1,0.5,0.2C5.8,3.8,6,4,6.2,4.3C6.9,5,7.7,5.9,7.4,7.1c-0.1,0.4-0.5,0.9-1,1c-0.6,0.1-1,0.3-1.2,0.7
					C5,9.3,5.2,10,5.7,10.6c0.2,0.2,0.1,0.5-0.1,0.6C5.5,11.3,5.4,11.4,5.3,11.4z"/>
			</g>
		</g>
	</g>
	<g>
		<g>
			<g>
				<path d="M13.4,4.4c1.1,2.2-1.3,3.9-1,6.2c0,0.2,0.4,0.1,0.4-0.1c-0.4-2.4,2.1-3.9,0.9-6.3C13.6,4,13.3,4.2,13.4,4.4L13.4,4.4z"
					/>
				<path d="M12.5,11.1c-0.1,0-0.1,0-0.2,0c-0.1-0.1-0.3-0.2-0.3-0.4c-0.2-1.1,0.3-2.1,0.7-3c0.5-1.1,0.9-2.1,0.4-3.2
					c-0.1-0.2-0.1-0.3,0-0.5c0.1-0.1,0.3-0.2,0.5-0.2c0.2,0,0.3,0.1,0.4,0.3c0.7,1.5,0.2,2.6-0.3,3.8c-0.4,0.9-0.8,1.7-0.6,2.7
					c0,0.2,0,0.4-0.2,0.5C12.8,11.1,12.7,11.1,12.5,11.1z M13.6,4.3L13.6,4.3C13.6,4.3,13.6,4.3,13.6,4.3
					C13.6,4.3,13.6,4.3,13.6,4.3z"/>
			</g>
		</g>
	</g>
	<g>
		<g>
			<g>
				<path d="M3.4,22.6c2.9,1.2,6.9,1.8,9.8,0.4c0.2-0.1,0-0.4-0.2-0.3c-2.8,1.3-6.7,0.7-9.6-0.5C3.3,22.1,3.2,22.5,3.4,22.6
					L3.4,22.6z"/>
				<path d="M9.4,24.1c-2.2,0-4.3-0.5-6-1.2C3.2,22.8,3,22.6,3,22.5c0-0.2,0-0.4,0.2-0.5c0.1-0.1,0.3-0.1,0.5-0.1
					c2.6,1.1,6.5,1.8,9.3,0.5c0.2-0.1,0.3-0.1,0.5,0c0.1,0.1,0.2,0.3,0.2,0.5c0,0.2-0.1,0.3-0.3,0.4C12.2,23.9,10.8,24.1,9.4,24.1z"
					/>
			</g>
		</g>
	</g>
</g>
</svg>
