<?xml version="1.0" encoding="utf-8"?>
<!-- Generator: Adobe Illustrator 19.0.1, SVG Export Plug-In . SVG Version: 6.00 Build 0)  -->
<svg version="1.1" id="Слой_1" xmlns="http://www.w3.org/2000/svg" xmlns:xlink="http://www.w3.org/1999/xlink" x="0px" y="0px"
	 viewBox="0 0 14 14" style="enable-background:new 0 0 14 14;" xml:space="preserve">
<style type="text/css">
	.st0{fill:#0D0F0F;}
	.st1{fill:#FFFFFF;}
</style>
			<path class="st0" d="M13.8,7.8l-0.2-0.3c-0.2-0.3-0.2-0.7,0-1.1l0.2-0.3c0.3-0.4,0.2-1.1-0.3-1.3l-0.3-0.2
				c-0.4-0.2-0.5-0.6-0.5-1l0.1-0.4c0.1-0.5-0.3-1-0.9-1.1l-0.4,0c-0.4,0-0.7-0.3-0.9-0.7l-0.1-0.3c-0.2-0.5-0.7-0.8-1.3-0.6
				L8.9,0.8C8.6,1,8.2,0.9,7.9,0.6L7.6,0.3c-0.4-0.4-1-0.4-1.4,0L6,0.6C5.7,0.9,5.3,1,5,0.8L4.6,0.7C4.1,0.5,3.5,0.8,3.4,1.3
				L3.3,1.6C3.2,2,2.8,2.3,2.4,2.3l-0.4,0c-0.6,0-1,0.5-0.9,1.1l0.1,0.4c0.1,0.4-0.1,0.8-0.5,1L0.5,4.9C0,5.2-0.2,5.8,0.2,6.2
				l0.2,0.3c0.2,0.3,0.2,0.7,0,1.1L0.2,7.9C-0.1,8.3,0,8.9,0.5,9.2l0.3,0.2c0.4,0.2,0.5,0.6,0.5,1l-0.1,0.4c-0.1,0.5,0.3,1,0.9,1.1
				l0.4,0c0.4,0,0.7,0.3,0.9,0.7l0.1,0.3c0.2,0.5,0.7,0.8,1.3,0.6l0.3-0.1c0.4-0.2,0.8-0.1,1.1,0.2l0.2,0.3c0.4,0.4,1,0.4,1.4,0
				L8,13.4C8.3,13.1,8.7,13,9,13.2l0.3,0.1c0.5,0.2,1.1-0.1,1.3-0.6l0.1-0.3c0.1-0.4,0.4-0.6,0.8-0.7l0.4,0c0.6,0,1-0.5,0.9-1.1
				l-0.1-0.4c-0.1-0.4,0.1-0.8,0.5-1l0.3-0.2C14,8.8,14.2,8.2,13.8,7.8z"/>
			<path class="st1" d="M5.1,7.2c0.8,0,1.4-0.6,1.4-1.4S5.9,4.4,5.1,4.4C4.3,4.4,3.7,5,3.7,5.8C3.7,6.6,4.3,7.2,5.1,7.2z M5.1,5.2
				c0.3,0,0.6,0.3,0.6,0.6S5.4,6.4,5.1,6.4c-0.3,0-0.6-0.3-0.6-0.6S4.8,5.2,5.1,5.2z"/>
			<path class="st1" d="M4.9,9.5c0.1,0.1,0.4,0.1,0.5,0L9.2,5c0.1-0.1,0.1-0.4,0-0.5C9,4.4,8.7,4.4,8.6,4.6L4.8,9
				C4.7,9.2,4.7,9.4,4.9,9.5z"/>
			<path class="st1" d="M7.5,8.2c0,0.8,0.6,1.4,1.4,1.4s1.4-0.6,1.4-1.4c0-0.8-0.6-1.4-1.4-1.4S7.5,7.4,7.5,8.2z M9.5,8.2
				c0,0.3-0.3,0.6-0.6,0.6c-0.3,0-0.6-0.3-0.6-0.6c0-0.3,0.3-0.6,0.6-0.6C9.2,7.6,9.5,7.9,9.5,8.2z"/>

</svg>
