<svg
		xmlns="http://www.w3.org/2000/svg"
		xmlns:xlink="http://www.w3.org/1999/xlink"
		width="138px" height="73px">
	<path fill-rule="evenodd"  fill="rgb(180, 31, 127)"
		  d="M134.045,65.024 L136.266,70.004 L137.416,72.591 L137.561,72.917 C137.619,72.994 137.536,72.976 137.479,72.976 L137.307,72.975 L136.617,72.972 L135.230,72.964 C129.256,72.931 123.274,72.899 117.316,72.866 C106.573,72.794 95.917,72.664 85.593,72.494 C79.806,72.761 73.664,72.424 67.596,72.673 C71.463,72.553 64.125,72.453 64.755,72.157 L56.655,72.183 C56.604,72.174 56.534,72.165 56.477,72.157 C52.910,72.211 49.238,72.274 45.385,72.336 C48.605,72.491 48.605,72.491 51.825,72.646 C49.882,72.575 47.968,72.504 46.042,72.434 C39.405,72.157 27.287,71.796 15.209,71.448 C10.851,71.336 6.496,71.225 2.270,71.117 L1.265,71.093 L0.764,71.081 C0.765,70.961 0.864,70.775 0.910,70.626 C1.142,69.996 1.372,69.368 1.601,68.743 C2.059,67.500 2.512,66.268 2.959,65.050 C3.647,63.189 4.319,61.372 4.969,59.612 C6.835,54.638 8.456,50.317 9.591,47.292 C11.162,43.181 12.721,39.098 14.265,35.056 L14.164,34.798 L14.112,34.666 L13.929,34.249 L13.112,32.390 C12.565,31.152 12.021,29.919 11.478,28.689 C10.384,26.233 9.296,23.792 8.215,21.367 C7.121,18.948 6.034,16.545 4.955,14.160 C3.289,10.536 1.636,6.940 -0.004,3.372 C2.937,3.291 5.861,3.211 8.767,3.131 C10.678,3.059 12.578,2.989 14.466,2.918 C17.881,2.772 21.253,2.601 24.577,2.401 C27.130,2.247 29.639,2.060 32.145,1.870 C32.524,1.863 32.947,1.846 33.495,1.802 C33.590,1.925 32.788,2.004 33.309,2.150 C35.506,2.238 34.871,2.212 37.518,2.318 C39.418,2.278 39.652,2.081 39.801,1.957 C41.311,1.849 42.926,1.838 43.717,1.931 C41.024,2.464 48.512,2.286 46.070,2.816 L48.768,2.819 C47.386,2.660 47.474,2.586 48.611,2.383 C49.390,2.388 50.105,2.396 50.792,2.405 C51.098,2.481 51.350,2.561 51.466,2.649 C51.873,2.575 52.213,2.504 52.507,2.435 C54.268,2.472 55.927,2.522 57.960,2.578 C59.184,2.473 58.291,2.480 59.275,2.400 C62.621,2.547 68.644,1.742 69.800,2.134 C69.735,2.146 69.698,2.158 69.668,2.169 C69.440,2.230 69.373,2.245 70.005,2.321 C70.012,2.299 69.982,2.284 69.974,2.266 C70.256,2.291 70.669,2.328 71.025,2.360 C72.948,2.180 74.514,2.122 76.345,2.179 C76.393,2.320 74.809,2.402 74.536,2.452 L74.197,2.384 C72.274,2.563 71.291,2.854 70.427,3.026 C73.414,2.672 77.613,2.872 80.467,2.592 L81.731,2.746 C82.149,2.742 82.011,2.697 82.040,2.674 C83.354,2.780 80.966,3.032 82.808,3.063 C82.550,2.926 83.864,2.869 84.953,2.836 C85.873,3.083 101.263,1.908 102.522,2.036 C103.494,1.993 100.431,2.194 97.144,2.391 C95.499,2.484 93.799,2.580 92.521,2.652 C92.367,2.660 92.241,2.666 92.100,2.673 C92.533,2.698 92.980,2.735 93.681,2.718 C93.352,2.813 103.971,1.863 104.196,1.998 C104.938,2.061 105.903,2.099 106.863,1.976 C106.274,1.958 106.540,1.910 106.798,1.862 L108.840,1.844 C107.751,1.900 108.453,1.985 108.078,2.125 C109.686,2.294 112.651,2.154 114.132,2.074 L113.794,2.030 C115.475,1.948 117.486,1.908 118.482,2.059 C117.922,2.356 113.819,2.167 115.168,2.517 C112.054,2.637 116.180,2.168 113.186,2.195 C112.319,2.379 112.787,2.549 113.391,2.689 L134.972,2.040 C135.142,1.750 135.322,1.447 135.525,1.112 C136.382,-0.375 135.952,0.680 135.386,2.027 L137.297,1.970 L136.965,2.650 C137.174,2.741 137.052,2.869 136.788,3.013 L136.254,4.106 C136.350,4.108 136.476,4.105 136.585,4.104 L137.010,4.029 C137.502,4.043 137.391,4.102 137.232,4.165 C137.272,4.201 137.198,4.227 137.051,4.248 C136.976,4.294 136.994,4.334 137.347,4.353 C137.669,4.349 137.053,4.427 136.041,4.543 L124.287,28.631 C123.787,29.803 123.273,31.008 122.753,32.225 C122.076,33.804 121.352,35.482 120.866,36.693 C120.994,36.945 121.111,37.174 121.226,37.400 C121.424,37.887 121.619,38.366 121.810,38.837 C122.022,39.341 122.231,39.838 122.436,40.327 C122.861,41.299 123.272,42.241 123.673,43.161 C124.493,44.992 125.300,46.716 126.100,48.389 C127.699,51.734 129.265,54.876 130.826,58.260 L130.727,57.736 C131.830,60.158 132.936,62.588 134.045,65.024 ZM63.556,71.435 C63.575,71.435 63.597,71.435 63.616,71.436 L63.514,71.431 C63.530,71.432 63.540,71.434 63.556,71.435 ZM21.620,71.287 C21.638,71.280 21.629,71.275 21.653,71.268 C21.426,71.275 21.427,71.281 21.620,71.287 ZM136.976,4.356 C136.791,4.321 136.568,4.308 136.319,4.307 C136.263,4.311 136.209,4.314 136.151,4.317 L136.115,4.391 C136.441,4.392 136.792,4.392 136.976,4.356 ZM34.320,1.717 C33.604,1.775 32.865,1.815 32.145,1.870 C30.186,1.906 30.023,1.539 27.354,1.619 C25.359,1.707 21.418,1.807 21.328,2.083 C18.638,2.126 18.634,1.926 18.897,1.697 L16.711,1.711 C23.781,1.544 31.217,1.487 38.545,1.447 C23.117,0.864 61.074,0.438 52.507,2.435 C51.952,2.424 51.382,2.414 50.792,2.405 C47.532,1.597 34.603,1.474 34.320,1.717 Z"/>
</svg>