<svg xmlns="http://www.w3.org/2000/svg" viewBox="0 0 92.27 82.51"><title>icon-site-map</title><path d="M83.09,58.48c.2-.3-1.22-.8-1.22-1.2-.2-6.3-.5-12.7-2.1-18.8a1.62,1.62,0,0,0-3.1.1c-4.9-.7-10-.5-14.9-.5l-13.5-.3c-.2-3.1-.4-6.1-.8-9.2a59.09,59.09,0,0,0,11.2-.9c4.3-.8,4-4.2,4-7.9,0-5.3.1-10.5.2-15.8.1-3.2-3.8-4-5.7-2.3a96.84,96.84,0,0,0-10.7-.2c-2.5,0-5,0-7.5.1-2,.1-4.3-.1-6.1.8-3.9,1.7-2.7,6.9-2.5,10.3.1,2.5.2,5.1.4,7.6.1,1.8-.1,4,1,5.6,2.2,3.2,7.5,2.6,10.9,2.7a12.1,12.1,0,0,1,1.9.1,55,55,0,0,0-.4,9.1c-10.1-.3-20.2-.9-30.3-1.7-2.3-.3-3.2,2-2.6,3.8a59.21,59.21,0,0,0,.2,6.2c0,3.9-.4,7.8-.5,11.7v.4c-4.5.8-10,4.5-10.7,9.7-1.2,6.1,1.4,15,11,15.1,5.9,1.4,11.4-3.6,12.5-9.2.5.1,2.2-.1,2.3-.7,1.8-6.7-2.8-12.6-9.1-14.6.1-.3-.9-.6-.9-.9-.1-4-.7-8.1-1.2-12.2-.1-1-.1-2.3-.3-3.6,9.7.7,19.4,1.2,29.2,1.2a119.75,119.75,0,0,0,.4,14.7c-5.5-.1-11.6,4-12.4,9.9-.9,6.3,2,14.76,11.2,15.3,5.9,1.4,11.4-3.6,12.5-9.2.5.1,2.2-.1,2.3-.7,1.6-6-1.8-11.3-7.1-13.8.1-.2-.9-.5-.9-.8,0-5.1-.9-10.3-1.4-15.4,4.4,0,8.8-.2,13.1-.4,4.9-.3,10.1-.4,14.9-1.5a125.13,125.13,0,0,1-.2,16.2V58c-4.7.6-10.2,4.5-10.9,9.8-.9,6.3,1.65,14.81,11.2,15.3,5.9,1.4,11.4-3.6,12.5-9.2.5.1,2.72-.1,2.82-.7C93.79,66.28,89.29,60.48,83.09,58.48ZM15.77,63c4,1.4,6.8,3.7,7.2,7.7a2,2,0,0,0-2.8,1.7c-.2,4.5-4.6,6.2-8.8,4.9C7,75.88,5.3,74.32,6,69.92,6.9,64.72,10.67,61.28,15.77,63Zm25.4-40.6a15.83,15.83,0,0,0-3.7-.3c-.2-.1-.4-.1-.6-.2v-.5c.5-2.4-.2-5.8-.3-8.2,0-1.2-.1-2.3-.1-3.5a9.15,9.15,0,0,0-.1-1.7c.1,0,.2-.1.4-.1,1.2.3,3.3-.4,4.6-.6s2.5-.3,3.7-.4c3.5-.3,7.4-.2,11.1-.6.1,2.7.1,5.4.2,8.1,0,1.6,0,3.2.1,4.9v2.8a48.65,48.65,0,0,1-6.5.5C47,22.58,44.07,22.58,41.17,22.38Zm13.5,48.4a2,2,0,0,0-2.8,1.7c-.2,4.5-4.6,6.2-8.8,4.9-4.4-1.4-6.4-4-5.7-8.4.9-5.2,5.62-7.84,10.72-6.14C52.19,64.13,54.27,66.68,54.67,70.78Zm30.9,1.7c-.2,4.5-4.6,6.2-8.8,4.9-4.4-1.4-6.4-4-5.7-8.4.9-5.2,4.9-7.6,10-5.9,4,1.4,6.8,3.7,7.2,7.7A1.92,1.92,0,0,0,85.57,72.48Z" transform="translate(0 -0.81)"/></svg>