<svg fill="#817F7E" xmlns="http://www.w3.org/2000/svg" viewBox="0 0 31 15">
	<path d="M30.8,7.5l-3.6-4.1c-0.1-0.1-0.3-0.2-0.5-0.2h-3V0.6c0-0.3-0.3-0.6-0.6-0.6H10.4c-0.3,0-0.6,0.3-0.6,0.6v0.8
		H3.9c-0.3,0-0.6,0.3-0.6,0.6c0,0.3,0.3,0.6,0.6,0.6h5.9v8.1H6.2c-0.3,0-0.6,0.3-0.6,0.6c0,0.3,0.3,0.6,0.6,0.6h3.6v0.6
		c0,0.3,0.3,0.6,0.6,0.6h1.3c0.3,1,1.2,1.7,2.3,1.7s2-0.7,2.3-1.7h8.2v0c0.3,1,1.2,1.7,2.3,1.7c1.1,0,2-0.7,2.3-1.7h1.4
		c0.3,0,0.6-0.3,0.6-0.6V7.9C31,7.8,30.9,7.6,30.8,7.5z M14,13.8c-0.6,0-1.1-0.5-1.1-1.1c0-0.6,0.5-1.1,1.1-1.1
		c0.6,0,1.1,0.5,1.1,1.1C15.1,13.3,14.6,13.8,14,13.8z M16.2,12c-0.3-1-1.2-1.7-2.3-1.7S12,11,11.7,12H11V1.2h11.5V12H16.2z
		 M26.7,13.8c-0.6,0-1.1-0.5-1.1-1.1c0-0.6,0.5-1.1,1.1-1.1c0.6,0,1.1,0.5,1.1,1.1C27.8,13.3,27.3,13.8,26.7,13.8z M29.8,12H29
		c-0.3-1-1.2-1.7-2.3-1.7c-1.1,0-2,0.7-2.3,1.7h-0.7V4.4h2.7l3.3,3.7L29.8,12L29.8,12z"/>
	<pathd d="M4.2,10.8H3.9c-0.3,0-0.6,0.3-0.6,0.6c0,0.3,0.3,0.6,0.6,0.6h0.3c0.3,0,0.6-0.3,0.6-0.6
		C4.8,11,4.5,10.8,4.2,10.8z"/>
	<path d="M7.2,6.1H0.6C0.3,6.1,0,6.3,0,6.7C0,7,0.3,7.3,0.6,7.3h6.6c0.3,0,0.6-0.3,0.6-0.6S7.6,6.1,7.2,6.1z"/>
</svg>
