<?xml version="1.0" encoding="utf-8"?>
<!-- Generator: Adobe Illustrator 19.0.1, SVG Export Plug-In . SVG Version: 6.00 Build 0)  -->
<svg version="1.1" id="Слой_1" xmlns="http://www.w3.org/2000/svg" xmlns:xlink="http://www.w3.org/1999/xlink" x="0px" y="0px"
	 viewBox="0 0 38 40" style="enable-background:new 0 0 38 40;" xml:space="preserve">
<style type="text/css">
	.st0{fill:#010202;}
</style>
<path class="st0" d="M37.9,34.8c0.1-0.3,0-0.6-0.2-0.7c-1.6-0.8-2.8-2-4.2-3.1c-1.4-1.1-2.7-2.3-4-3.5c-2.6-2.8-4.5-6.2-6.4-9.5
	c-1.7-3.1-3.5-6.3-5.1-9.5c-0.8-1.6-1.8-3.1-3.1-4.4C13.1,2.3,11.4,1,8.7,1.7C6.3,2.4,4.2,4.4,2.9,6.5c-2,3.5-2.3,8-1.4,11.8
	C3.7,27.2,13.7,31.7,21.7,34c2.9,0.9,5.9,1.4,9,1.6c2.2,0.2,4.8,0.5,6.9-0.5C37.8,35,37.9,34.9,37.9,34.8z M29.4,34.4
	c-2.9-0.3-5.8-0.9-8.6-1.8C16,31.1,11.2,29,7.5,25.5s-5.5-8-5-13.1c0.3-2.4,1-4.8,2.6-6.7s4.3-3.4,6.8-2.3C13.2,3.9,14.1,5,15,6
	c1.1,1.5,2,3.1,2.8,4.8c1.5,3.3,3.5,6.5,5.4,9.7c1.7,2.9,3.6,6,6,8.4c1.3,1.2,2.7,2.3,4,3.5c0.9,0.8,1.8,1.5,2.8,2.1
	C34,35,31.3,34.6,29.4,34.4z"/>
<path class="st0" d="M12.2,40c0.7-2,1.2-4,1.5-6.1c0.5-2.5,0.9-5.2,0.9-7.7c0-0.7,1.2-0.7,1.2,0c0,2.4-0.4,5-0.9,7.4
	c-0.3,2.2-0.8,4.3-1.5,6.4L12.2,40z"/>
<path class="st0" d="M15.6,40c0.4-1.2,0.7-2.5,0.9-3.4c0.7-2.5,1.1-5.2,1.8-7.7c0.2-0.7,1.4-0.4,1.2,0.3c-0.8,3.1-1.3,6.3-2.2,9.4
	c-0.1,0.5-0.3,0.9-0.4,1.4L15.6,40L15.6,40z"/>
<path class="st0" d="M36.6,26.4c-1.5,1.3-3.9,1.6-5.8,1.7c-2.4,0.2-4.7-0.1-6.9-0.9c-4.2-1.6-7.3-5.2-8.5-9.5c-0.2-0.7,1-1,1.2-0.3
	c1.1,3.8,3.8,7,7.4,8.6c2,0.8,4.1,1.1,6.2,1c1.8,0,4.3-0.2,5.7-1.4C36.3,25.1,37.2,25.9,36.6,26.4z"/>
<path class="st0" d="M11.1,8.7c0.5,0,1,0.5,0.9,1.1c0,0.5-0.5,1-1,0.9h-0.1c-0.5,0-1-0.5-0.9-1.1c0-0.5,0.5-1,1-0.9
	C11,8.7,11.1,8.7,11.1,8.7z"/>
<path class="st0" d="M5.8,4.6L5.8,4.6c0,0.1,0,0.1-0.1,0.1C5.5,5,5.1,5,4.8,4.7L4.7,4.6l0,0C3.8,3.9,2.9,3.1,2,2.4
	c0.5,1.4,1.2,2.7,2.1,3.9C4.5,6.9,3.5,7.5,3,6.9C1.6,5,0.8,2.8,0,0.7c-0.2-0.6,0.6-0.9,1-0.6C2.6,1.3,4.1,2.7,5.7,4
	C5.9,4.1,6,4.4,5.8,4.6z"/>
</svg>
