<?xml version="1.0" encoding="utf-8"?>
<!-- Generator: Adobe Illustrator 22.1.0, SVG Export Plug-In . SVG Version: 6.00 Build 0)  -->
<svg version="1.1" id="Слой_1" xmlns="http://www.w3.org/2000/svg" xmlns:xlink="http://www.w3.org/1999/xlink" x="0px" y="0px"
	 viewBox="-326.2 276.3 14 19.2" style="enable-background:new -326.2 276.3 14 19.2;" xml:space="preserve">
<style type="text/css">
	.st0{fill:#FFFFFF;}
</style>
<path class="st0" d="M-318.8,284.4c0.3-0.1,0.6-0.2,0.9-0.2c1.3-0.1,1.8,0.6,1.2,1.7c-0.8,1.4-1.4,2.8-1.5,4.5
	c0,0.7-0.6,0.8-1.2,0.7c-0.6-0.2-1-0.6-1.2-1.2c-0.4-1.1-1-2-2-2.6c-0.3-0.2-0.6-0.5-0.7-0.9c-0.1-0.4-0.2-0.8,0.2-1.1
	c0.3-0.2,0.6-0.1,0.9,0c0.4,0.2,0.6,0.7,1.3,0.6c-0.3-2.7,0-5.4,0-8.1c0-0.5-0.2-1.3,0.7-1.3c0.9,0,1.1,0.6,1.1,1.3
	c0,1.6,0,3.2,0,4.8C-319,283.1-319.1,283.7-318.8,284.4z"/>
<path class="st0" d="M-316.3,294.6c-2.6-0.2-5,0.2-7.5,0.6c-0.9,0.2-1.7,0.3-2.3-0.7c-0.4-0.8-0.2-1.4,0.8-1.6
	c2.8-0.5,5.6-0.7,8.5-0.8c0.9,0,1.9,0,2.8,0c0.7,0,1.3,0.2,1.6,0.9c0.3,0.8-0.1,1.5-0.9,1.5C-314.3,294.7-315.3,294.6-316.3,294.6z"
	/>
</svg>
