<?xml version="1.0" encoding="utf-8"?>
<!-- Generator: Adobe Illustrator 19.0.1, SVG Export Plug-In . SVG Version: 6.00 Build 0)  -->
<svg version="1.1" id="Режим_изоляции"
	 xmlns="http://www.w3.org/2000/svg" xmlns:xlink="http://www.w3.org/1999/xlink" x="0px" y="0px" viewBox="0 0 40 25.5"
	 style="enable-background:new 0 0 40 25.5;" xml:space="preserve">
<style type="text/css">
	.st0{fill:#FFFFFF;}
</style>
<g>
	<path class="st0" d="M38.8,12.5c-0.1-0.5-0.6-1.1-1.2-1.5c1.2-1.2,2.5-3.8,2.4-5.6c-0.1-1-0.5-1.4-0.8-1.6
		c-0.5-0.3-0.9-0.3-1.4-0.2c-1.2,0.4-2.3,2-3.9,5.5c0,0-0.1,0-0.1-0.1c-0.5-0.2-1.1-0.4-1.9-0.6c0.7-1.8,1.7-5.6,0.8-7.2
		c-0.2-0.4-0.5-0.7-0.9-0.8c-0.5-0.1-1,0-1.4,0.4c-1.1,0.9-1.8,3.5-1.8,6.7c-1.2-0.2-2.3-0.3-2.7,0c-1,0.8-5.6,10.8-4.8,12.8
		c0.4,1.1,3.1,2.6,5.6,3.6c0.2,0.1,0.5,0.2,0.8,0.3c1.8,0.7,4.8,1.6,6.5,1c1.1-0.4,2.8-4.8,3.2-5.6C37.7,18.1,39.1,14.2,38.8,12.5
		 M38,4.4c0.2-0.1,0.4,0,0.7,0.1C38.9,4.6,39,5,39.1,5.4c0.1,1.6-1.2,4.2-2.3,5c-0.6-0.4-1.4-0.7-2.1-1C36.1,6.3,37.1,4.7,38,4.4
		 M30.9,1.5c0.2-0.2,0.4-0.2,0.7-0.2c0.1,0,0.2,0.1,0.3,0.3c0.6,1.1-0.1,4.5-0.9,6.5c-0.5-0.1-1-0.3-1.5-0.4
		C29.4,4.8,30,2.3,30.9,1.5 M33.5,24.4c-2.5,1-11.1-2.9-11.7-4.4c-0.6-1.5,3.7-11.1,4.5-11.7c0.5-0.3,4,0.4,7.2,1.6
		c0.7,0.3,1.4,0.6,2,0.9c2,1,2.3,1.6,2.4,1.9C38.4,15,34.5,23.8,33.5,24.4"/>
	<path class="st0" d="M28.2,17.1c-1.1-0.2-1.8,0-2.1,0.5c-0.1,0.2-0.1,0.5,0.2,0.6c0,0,0.1,0,0.1,0c0.2,0.1,0.4,0,0.5-0.2
		c0.2-0.1,1.2-0.2,2.6,0.3c1.3,0.4,2,0.9,2,1.2c0.1,0.2,0.3,0.4,0.6,0.3c0.2-0.1,0.4-0.3,0.3-0.6C32.1,18.1,29.4,17.3,28.2,17.1"/>
	<path class="st0" d="M35.7,14.8c-1.1-0.5-2.4-1.4-2.6-1.8c0-0.2-0.1-0.4-0.3-0.5c-0.2-0.1-0.5,0-0.6,0.2c-0.1,0.1-0.1,0.3,0,0.6
		c0.3,0.8,2.2,2,3.1,2.3l0,0c0.2,0.1,0.5,0,0.6-0.3C36,15.2,35.9,14.9,35.7,14.8"/>
	<path class="st0" d="M30.5,12.2c0.1-0.2,0-0.5-0.3-0.6c-0.2-0.1-0.4,0-0.5,0.1c-0.4,0.1-2.2,0-3.1-0.2c-0.2-0.1-0.5,0.1-0.6,0.3
		c-0.1,0.2,0.1,0.5,0.3,0.6c0,0,0,0,0,0C26.4,12.5,30.1,13.3,30.5,12.2"/>
	<path class="st0" d="M27.9,13.7c-0.1,0.3,0,0.7,0.4,0.9c0.3,0.1,0.7,0,0.9-0.4c0.1-0.3,0-0.7-0.4-0.9C28.4,13.1,28,13.3,27.9,13.7"
		/>
	<path class="st0" d="M33.4,15.2c-0.3-0.1-0.7,0-0.9,0.4c-0.1,0.3,0,0.7,0.4,0.9c0.3,0.1,0.7,0,0.9-0.4
		C33.9,15.7,33.7,15.3,33.4,15.2"/>
</g>
<g>
	<path class="st0" d="M13.9,7.6c-0.5-0.3-1.5-0.4-2.6-0.3c0.3-3.1-0.1-5.8-1.2-6.8C9.7,0.1,9.2-0.1,8.7,0c-0.4,0.1-0.7,0.3-1,0.7
		C6.7,2.2,7.3,6,7.8,7.9C7.6,7.9,7.4,7.9,7.2,8C6.8,8.1,6.3,8.2,5.8,8.4C4.6,4.8,3.6,3,2.4,2.5C2,2.3,1.5,2.3,1,2.5
		C0.6,2.7,0.2,3.1,0,4c-0.3,1.8,0.9,4.6,2.1,5.9c-0.7,0.4-1.2,0.8-1.5,1.3c-0.6,1,0.5,5.5,0.7,6.4c0.4,1.7,1.5,5.6,2.8,6.8
		c1,1,3.8,0.5,6-0.1c0.1,0,0.1,0,0.2,0c2.1-0.6,6.9-2.3,7.2-3.5C17.9,19.6,15.7,8.7,13.9,7.6 M8.5,1.2C8.6,1,8.7,0.9,8.8,0.9
		c0.2,0,0.4,0,0.6,0.2c0.8,0.8,1.2,3.4,0.9,6.3C9.8,7.5,9.3,7.6,8.7,7.7C8.2,5.6,7.8,2.2,8.5,1.2 M1,4.1C1,3.5,1.3,3.4,1.4,3.4
		c0.2-0.1,0.5-0.1,0.7,0c0.8,0.4,1.8,2.1,2.8,5.3C4.2,8.9,3.6,9.1,3,9.4C1.9,8.5,0.7,5.6,1,4.1 M16.7,20.5c-0.3,0.6-5.1,2.8-8.9,3.4
		c-2.2,0.4-2.8,0-3-0.1c-1.7-1.6-3.9-11-3.4-12.1c0.6-1,2.9-2.1,6-2.8c3-0.7,5.4-0.8,6-0.5C14.7,9.2,16.9,19.6,16.7,20.5"/>
	<path class="st0" d="M14.3,14.6c-0.3,0-0.5,0.2-0.4,0.5c0.1,1.1-1.5,2.5-3.7,3.4c-2.4,0.9-4.7,0.9-5.5-0.1C4.5,18.1,4.2,18,4,18.2
		c-0.2,0.2-0.2,0.5-0.1,0.7c1.1,1.3,3.3,1.3,5.5,0.8c0.4-0.1,0.7-0.2,1.1-0.3c2-0.8,4.4-2.3,4.3-4.3C14.7,14.8,14.5,14.6,14.3,14.6"
		/>
	<path class="st0" d="M3.5,15C4.7,14.4,6,14.1,7,14.3c0.1,0,0.1,0,0.2,0c0.2,0,0.3-0.2,0.3-0.4c0-0.3-0.1-0.5-0.4-0.5
		c-1.2-0.2-2.7,0.1-4.1,0.8c-0.2,0.1-0.3,0.4-0.2,0.6C3,15.1,3.3,15.2,3.5,15"/>
	<path class="st0" d="M9.7,13.4c0.1,0,0.1,0,0.2-0.1c0.7-0.6,2.5-1.1,3.2-1c0.2,0.1,0.5-0.1,0.5-0.4c0.1-0.2-0.1-0.5-0.4-0.5
		c-0.9-0.2-3.1,0.4-4,1.2c-0.2,0.2-0.2,0.5-0.1,0.7C9.3,13.4,9.5,13.4,9.7,13.4"/>
</g>
</svg>
