<?xml version="1.0" encoding="utf-8"?>
<!-- Generator: Adobe Illustrator 22.1.0, SVG Export Plug-In . SVG Version: 6.00 Build 0)  -->
<svg version="1.1" id="Слой_1" xmlns="http://www.w3.org/2000/svg" xmlns:xlink="http://www.w3.org/1999/xlink" x="0px" y="0px"
	 viewBox="0 0 27 19.8" style="enable-background:new 0 0 27 19.8;" xml:space="preserve">
<g>
	<g transform="translate(-240.000000, -822.000000)">
		<g transform="translate(239.000000, 821.000000)">
			<path d="M8.7,3.7c-0.2,0-0.4-0.2-0.4-0.4C8.2,2,9.2,1,10.5,1c0.2,0,0.4,0.2,0.4,0.4s-0.2,0.4-0.4,0.4c-0.7,0-1.3,0.6-1.3,1.3
				C9.1,3.5,8.9,3.7,8.7,3.7"/>
			<path d="M20.4,3.7c-0.2,0-0.4-0.2-0.4-0.4c0-1.2,1-2.2,2.2-2.2c0.2,0,0.4,0.2,0.4,0.4s-0.2,0.4-0.4,0.4c-0.7,0-1.3,0.6-1.3,1.3
				C20.8,3.5,20.6,3.7,20.4,3.7"/>
			<path d="M19.5,4.6h1.8c0-0.5-0.4-0.9-0.9-0.9C19.9,3.7,19.5,4.1,19.5,4.6 M21.6,5.5h-2.5c-0.2,0-0.4-0.1-0.4-0.3
				c-0.1-0.2-0.1-0.4-0.1-0.6c0-1,0.8-1.8,1.8-1.8s1.8,0.8,1.8,1.8c0,0.2,0,0.4-0.1,0.6C22,5.4,21.8,5.5,21.6,5.5"/>
			<path d="M7.8,4.6h1.8c0-0.5-0.4-0.9-0.9-0.9C8.2,3.7,7.8,4.1,7.8,4.6 M9.9,5.5H7.4C7.2,5.5,7,5.4,7,5.2C6.9,5,6.9,4.8,6.9,4.6
				c0-1,0.8-1.8,1.8-1.8s1.8,0.8,1.8,1.8c0,0.2,0,0.4-0.1,0.6C10.3,5.4,10.1,5.5,9.9,5.5"/>
			<path d="M14.5,3.7c-0.2,0-0.4-0.2-0.4-0.4c0-1.2,1-2.2,2.2-2.2c0.2,0,0.4,0.2,0.4,0.4s-0.2,0.4-0.4,0.4c-0.7,0-1.3,0.6-1.3,1.3
				C15,3.5,14.8,3.7,14.5,3.7"/>
			<path d="M13.6,4.6h1.8c0-0.5-0.4-0.9-0.9-0.9C14,3.7,13.6,4.1,13.6,4.6 M15.8,5.5h-2.5c-0.2,0-0.4-0.1-0.4-0.3
				c-0.1-0.2-0.1-0.4-0.1-0.6c0-1,0.8-1.8,1.8-1.8s1.8,0.8,1.8,1.8c0,0.2,0,0.4-0.1,0.6C16.1,5.4,16,5.5,15.8,5.5"/>
			<path d="M4.2,18.1h20.6L23.3,6.6C23.2,6,22.6,5.5,22,5.5H7.1C6.4,5.5,5.8,6,5.7,6.6L4.2,18.1z M25.3,19H3.7
				c-0.1,0-0.3-0.1-0.3-0.2c-0.1-0.1-0.1-0.2-0.1-0.4l1.6-12C5,5.4,5.9,4.6,7.1,4.6H22c1.1,0,2.1,0.8,2.2,1.9l1.6,12
				c0,0.1,0,0.3-0.1,0.4C25.6,18.9,25.4,19,25.3,19L25.3,19z"/>
			<path d="M24.2,10.8c-0.1,0-0.2,0-0.3-0.1l-1.4-1c-0.8-0.6-1.9-0.6-2.7,0c-1.1,0.8-2.5,0.8-3.6,0.1l-0.4-0.3
				c-0.8-0.5-1.8-0.5-2.6,0.1l-0.1,0.1c-1.1,0.8-2.5,0.8-3.6,0.1L9.1,9.6C8.3,9.1,7.3,9.1,6.5,9.7L5,10.7c-0.2,0.1-0.5,0.1-0.6-0.1
				c-0.1-0.2-0.1-0.5,0.1-0.6L6,8.9c1.1-0.8,2.5-0.8,3.6-0.1L10,9.1c0.8,0.5,1.8,0.5,2.6-0.1l0.1-0.1c1.1-0.8,2.5-0.8,3.6-0.1
				l0.4,0.3c0.8,0.5,1.8,0.5,2.6-0.1c1.1-0.8,2.7-0.8,3.8,0l1.4,1c0.2,0.1,0.2,0.4,0.1,0.6C24.5,10.8,24.4,10.8,24.2,10.8"/>
			<path d="M3,19.9H26l0.7-0.9H2.4L3,19.9z M26.2,20.8H2.8c-0.1,0-0.3-0.1-0.4-0.2l-1.3-1.8C1,18.7,1,18.5,1,18.3
				c0.1-0.2,0.2-0.2,0.4-0.2h26.1c0.2,0,0.3,0.1,0.4,0.2c0.1,0.2,0.1,0.3,0,0.5l-1.3,1.8C26.5,20.7,26.3,20.8,26.2,20.8L26.2,20.8z"
				/>
		</g>
	</g>
</g>
</svg>
