<?xml version="1.0" encoding="utf-8"?>
<!-- Generator: Adobe Illustrator 19.0.1, SVG Export Plug-In . SVG Version: 6.00 Build 0)  -->
<svg version="1.1" id="Режим_изоляции"
	 xmlns="http://www.w3.org/2000/svg" xmlns:xlink="http://www.w3.org/1999/xlink" x="0px" y="0px" viewBox="0 0 27 28.8"
	 enable-background="new 0 0 27 28.8" xml:space="preserve">
<g>
	<path fill="#9AC359" d="M2.1,28.8l23-0.1c1.1,0,2-0.9,2-2L27,2c0-1.1-0.9-2-2-2L2,0.1c-1.1,0-2,0.9-2,2l0.1,24.7
		C0.1,27.9,1,28.8,2.1,28.8"/>
	<path fill="#FFFFFF" d="M9.9,11.1c1.5-1.4,3-2.7,4.5-4.1c1.6-1.5,4.2,0.9,2.5,2.4c-1.1,1-2.3,2.1-3.4,3.1c-0.6,0.5-1.1,1-1.7,1.6
		c-0.2,0.2-0.4,0.4-0.7,0.6c0.3,0.4,0.7,0.7,0.9,1c0.6,0.7,1.1,1.4,1.6,2.1c1,1.4,1.8,2.8,2.5,4.4c0.9,2-2.4,3-3.3,1
		c-0.7-1.6-1.8-3-2.8-4.4c-0.9-1.1-2.6-2.6-2.7-4C7.1,13.1,8.9,12,9.9,11.1"/>
</g>
</svg>
