<?xml version="1.0" encoding="utf-8"?>
<!-- Generator: Adobe Illustrator 21.0.0, SVG Export Plug-In . SVG Version: 6.00 Build 0)  -->
<svg version="1.1" id="Слой_1" xmlns="http://www.w3.org/2000/svg" xmlns:xlink="http://www.w3.org/1999/xlink" x="0px" y="0px"
	 viewBox="0 0 19 19" style="enable-background:new 0 0 19 19;" xml:space="preserve">
<style type="text/css">
	.st0{fill:#7F7D7C;}
</style>
<title>icon-en</title>
<path class="st0" d="M17.5,1.3c-1.4-1.3-7-1.4-10.2-1.3c-2.2,0.1-5,0.4-5.8,1.4c-2,2.1-2,14.1,0,16.1C2.7,18.8,7.2,19,9.1,19h0.4
	c3,0,6.9-0.4,8-1.4c1.1-1,1.4-4.7,1.5-6.8C19.1,8.1,18.8,2.6,17.5,1.3 M17.9,10.7c-0.1,3.6-0.6,5.7-1.1,6s-3.4,1.1-7.3,1.1
	c-4.2,0-6.7-0.5-7.2-1.1C0.9,15.4,0.6,4,2.3,2.1c0.4-0.4,2.1-0.9,5.1-1c4.1-0.2,8.6,0.3,9.4,1C17.6,2.9,18.1,6.3,17.9,10.7"/>
<path class="st0" d="M8,5.8v1.4H7.4V6.5L7.2,6.3H5.1v2.3h1.5l0.1-0.1V8.1h0.6v1.6H6.7V9.2L6.6,9.1H5.1v2.4h2.3l0.2-0.2v-0.9h0.5V12
	H3.3v-0.5h0.8V6.3H3.3V5.8H8z"/>
<path class="st0" d="M13.5,5.8h2.2v0.5h-0.8v5.9h-0.6l-3.6-4.9l-0.4-0.7l0,0l0.1,0.7v4.3h0.8V12H9v-0.5h0.8V6.3H9V5.8h1.8l3.1,4.3
	l0.5,0.8l0,0V10V6.3h-0.8V5.8z"/>
</svg>
