<?xml version="1.0" encoding="utf-8"?>
<!-- Generator: Adobe Illustrator 21.0.0, SVG Export Plug-In . SVG Version: 6.00 Build 0)  -->
<svg version="1.1" id="Capa_1" xmlns="http://www.w3.org/2000/svg" xmlns:xlink="http://www.w3.org/1999/xlink" x="0px" y="0px"
	 viewBox="0 0 115 115" style="enable-background:new 0 0 115 115;" xml:space="preserve">
<style type="text/css">
	.st0{fill:#C7368A;}
	.st1{clip-path:url(#SVGID_2_);}
	.st2{fill:#FFFFFF;}
</style>
<circle class="st0" cx="57.5" cy="57.5" r="57.5"/>
<g>
	<defs>
		<circle id="SVGID_1_" cx="57.5" cy="57.5" r="57.5"/>
	</defs>
	<clipPath id="SVGID_2_">
		<use xlink:href="#SVGID_1_"  style="overflow:visible;"/>
	</clipPath>
	<g class="st1">
		<g>
			<path class="st2" d="M115.1,99.2c-0.7,0-1.5,0-2.2-0.2c-1.8-0.4-3.3-1.4-4.4-2.7c-1.6,0.7-3.4,0.9-5.2,0.4
				c-1.8-0.4-3.3-1.4-4.4-2.7c-1.6,0.7-3.4,0.9-5.2,0.4c-1.8-0.4-3.3-1.4-4.4-2.7c-1.6,0.7-3.4,0.9-5.2,0.4
				c-1.8-0.4-3.3-1.4-4.4-2.7c-1.6,0.7-3.4,0.9-5.2,0.4s-3.3-1.4-4.4-2.7c-1.6,0.7-3.4,0.9-5.2,0.4c-1.8-0.4-3.3-1.4-4.4-2.7
				c-1.6,0.7-3.4,0.9-5.2,0.4c-1.8-0.4-3.3-1.4-4.4-2.7c-1.6,0.7-3.4,0.9-5.2,0.4c-0.7-0.2-1.4-0.4-2.1-0.8l-1.7,7.3l71.6,16.7
				L115.1,99.2L115.1,99.2z"/>
			<path class="st2" d="M37.9,106.4c0,0.1,0,0.3-0.1,0.4l71.6,16.7c0.1-0.1,0.1-0.2,0.1-0.4l3.4-14.4L41.2,92L37.9,106.4z"/>
			<path class="st2" d="M44,80.1c0.6,0.4,1.3,0.7,2,0.9c2,0.5,4.1-0.1,5.4-1.4c0.6,1.8,2.2,3.2,4.2,3.7c2,0.5,4.1-0.1,5.4-1.4
				c0.6,1.8,2.2,3.2,4.2,3.7c2,0.5,4.1-0.1,5.4-1.4c0.6,1.8,2.2,3.2,4.2,3.7c2,0.5,4.1-0.1,5.4-1.4c0.6,1.8,2.2,3.2,4.2,3.7
				c2,0.5,4.1-0.1,5.4-1.4c0.6,1.8,2.2,3.2,4.2,3.7c2,0.5,4.1-0.1,5.4-1.4c0.6,1.8,2.2,3.2,4.2,3.7c2,0.5,4.1-0.1,5.4-1.4
				c0.6,1.8,2.2,3.2,4.2,3.7c0.8,0.2,1.5,0.2,2.2,0.1c2.2-0.3,4.1-1.9,4.7-4.2c0.1-0.2,0.1-0.5,0.1-0.7c0.1-0.1,0.1-0.2,0.1-0.3
				l1.6-6.9c0.2-1-0.7-2.1-2-2.4l-34-7.9l0.3-1.1l0.3-1.1l1.1-4.6c0.3-1.3-0.5-2.5-1.8-2.8l-1.2-0.3c-1.3-0.3-2.5,0.5-2.8,1.8
				l-1.1,4.6l-0.3,1.1L80.4,73l-34-7.9c-1.3-0.3-2.6,0.2-2.9,1.3l-1.6,6.9c0,0.1,0,0.2,0,0.4c-0.1,0.2-0.2,0.4-0.2,0.7
				C41.2,76.5,42.2,78.8,44,80.1z"/>
			<path class="st2" d="M111.2,126.4l-76.2-17.8c-1.3-0.3-2.6,0.8-3,2.4l0,0.2c-0.4,1.6,0.4,3.1,1.6,3.4l76.2,17.8
				c1.3,0.3,2.6-0.8,3-2.4l0-0.2C113.2,128.2,112.4,126.7,111.2,126.4z"/>
			<path class="st2" d="M86.2,63.1c0.1,0,0.2,0.1,0.3,0.1c2.8,0.1,6.2-2.9,6.4-6.2c0.2-3-1.7-4.8-2.4-7.2c-0.3-1-0.3-2.2,0.2-3.4
				c0.3-0.7,0.2-0.9-0.4-0.4c-1.7,1.1-3.6,2.7-4.7,4c-1.2,1.5-1.6,2.7-1.5,4.6c0,0.5,0.1,0.9,0.1,1.2c0.2,0.7-0.3,1.1-0.9,0.6
				c-0.3-0.2-0.6-0.5-0.8-0.8c-0.5-0.6-0.7-0.7-0.7,0.1C81.7,58.7,83.5,62.4,86.2,63.1z"/>
		</g>
	</g>
</g>
</svg>
