<?xml version="1.0" encoding="utf-8"?>
<!-- Generator: Adobe Illustrator 19.0.1, SVG Export Plug-In . SVG Version: 6.00 Build 0)  -->
<svg version="1.1" id="_x2018_лой_x5F_1" xmlns="http://www.w3.org/2000/svg" xmlns:xlink="http://www.w3.org/1999/xlink"
	 x="0px" y="0px" viewBox="0 0 15 15" style="enable-background:new 0 0 15 15;" xml:space="preserve">
<style type="text/css">
	.st0{fill:#82B338;}
</style>
<path class="st0" d="M0.1,13c0.6,2.2,4.8,2.1,6.4,2c1.6-0.1,3.2-0.1,4.7-0.5c0.7-0.2,1.5-0.6,2-1.1c0.8-0.8,0.7-1.6,0.9-2.7
	c0.1-0.6,0.2-1.2,0.3-1.8c0.2-1.3,0.4-2.7,0.5-4.1c0.1-1.5,0.3-5-2-4.8c-1.5,0.1-1.8,2.3-1.9,3.5c-0.1,1,0,1.9,0,2.9
	c-0.4-0.6-0.9-1.2-1.4-1.8c-1-1.2-3-3-4.6-1.8C3.3,3.9,4.8,6.8,5.7,8c0.8,1,1.7,1.9,2.8,2.6c-1.7-0.4-3.4-0.7-5.1-0.5
	C2.1,10.3-0.5,11.2,0.1,13z M12.8,1.5c1.2-0.4,0.5,5.1,0.4,5.6c-0.2,0.8-0.3,1.6-0.5,2.4c-0.1-0.8-0.2-1.7-0.3-2.5
	C12.4,6.2,11.9,1.9,12.8,1.5z M6.7,7.1c-0.4-0.6-1.5-2.3-1-3.1c0.9-1.6,3.5,1.9,4,2.6c0.8,1.1,1.5,2.4,1.9,3.7
	c0,0.3,0.1,0.6,0.1,0.9c-1.1-0.7-2.1-1.3-3.1-2.1C7.9,8.5,7.2,7.9,6.7,7.1z M11.6,13c-1.1,0.4-2.7,0.4-3.7,0.6c-1.2,0.2-6,0.7-6-1
	C1.9,9.9,8.7,12,11.6,13z"/>
</svg>
