<?xml version="1.0" encoding="utf-8"?>
<!-- Generator: Adobe Illustrator 19.0.1, SVG Export Plug-In . SVG Version: 6.00 Build 0)  -->
<svg version="1.1" id="Слой_1" xmlns="http://www.w3.org/2000/svg" xmlns:xlink="http://www.w3.org/1999/xlink" x="0px" y="0px"
	 viewBox="0 0 10 17.8" style="enable-background:new 0 0 10 17.8;" xml:space="preserve">
<style type="text/css">
	.st0{fill:#868484;}
</style>
<path class="st0" d="M2.3,12.6l4,4.6c1.5,1.7,4.2-0.4,2.8-2.1L6,11.6L4.4,9.8C4.3,9.6,4,9.4,3.8,9.2c0.3-0.3,0.8-0.6,1-0.9
	C5.4,7.7,6.1,7,6.7,6.4c1.1-1.3,2.1-2.6,3-4.1C10.8,0.4,7.6-1,6.5,1c-0.9,1.5-2,2.9-3.3,4.1c-1,1-2.8,2.3-3.2,3.7
	C-0.3,10.2,1.4,11.6,2.3,12.6"/>
</svg>
