<?xml version="1.0" encoding="utf-8"?>
<!-- Generator: Adobe Illustrator 22.1.0, SVG Export Plug-In . SVG Version: 6.00 Build 0)  -->
<svg version="1.1" id="Layer_1" xmlns="http://www.w3.org/2000/svg" xmlns:xlink="http://www.w3.org/1999/xlink" x="0px" y="0px"
	 viewBox="0 0 196.8 51.5" style="enable-background:new 0 0 196.8 51.5;" xml:space="preserve">
<style type="text/css">
	.st0{fill:#9A237B;}
</style>
<path class="st0" d="M19.8,3.3c-2.5-0.5-5.1,0-7.6-0.3C9,2.7,5.2,1.2,2.3,0.2C1-0.3,0.1,0.3,0,1.5c0,0.7,0.3,1.1,1.9,2.1
	c3.8,2.3,5.9,4.5,7.3,7.5c1.5,3.3,2.6,7.1,2.3,8.3c-0.4,1.6,0.5,1.9,3.9,1.3c4.8-0.9,7,0.2,9.2,4.5c1.1,2.2,1.9,6.9,1.6,9.1
	c-0.3,1.8,0.1,2.2,2,2.1c0.7,0,2.6-0.1,4.2-0.2c5.4-0.3,14,2.1,16.2,4.5c0.6,0.7,6.1,5.7,6.2,8.2c0.1,2,1,2.9,2.6,2.6
	c1.2-0.3,1.3-0.5,0.9-1.9c0,0,0-0.1,0-0.1c0,0,0-0.1-0.1-0.2c-0.2-0.6-0.6-1.5-0.9-2c-1.4-2.2-3.5-7.1-3.6-8.2
	c0-0.7-2.2-9.5-2.6-10.7c-0.7-2.3-0.5-6.1,0.4-7.6c1-1.7,0.3-2.5-2.2-2.7c-2.2-0.2-2.4-0.3-5.4-2.6c-2.5-1.9-3.4-2.9-4.4-4.6
	c-1.3-2.4-2-5.1-1.9-7.4c0.1-1.1-0.1-1.5-0.9-1.8c-0.2-0.2-0.5-0.3-0.9-0.2c-0.5,0-1.2,0.3-2.2,1c-2.4,1.6-5,2-7.7,1.9
	C23.9,4.1,21.9,3.7,19.8,3.3z M30.7,18.5c1.2,1,3.7,3,5.6,4.6c6.4,5.2,13.7,12.8,13.1,13.8c-0.1,0.2-1.2,0-2.5-0.5
	c-5.1-1.8-7.1-2.2-11.8-2.7c-2.7-0.3-5.2-0.7-5.7-1c-0.5-0.3-0.8-1-0.8-2.1c0-2.3-1.8-7.5-3.3-9.6c-1.6-2.3-4-3.4-7.8-3.7
	c-1.5-0.1-3-0.4-3.2-0.5c-0.2-0.1-0.8-1.5-1.3-3c-0.5-1.5-1.2-3.4-1.6-4.3c-1-1.9-1-2.6-0.2-2.9C12.1,6.5,27.5,15.9,30.7,18.5z
	 M31.8,6.6c1.4-0.3,2.6-0.4,3.1-0.4c0.1,0.1,0.3,0.2,0.4,0.3c0.1,0.3,0.3,0.9,0.5,1.6c0.8,3.7,3.1,6.9,7.2,10
	c1.5,1.2,2.9,2.1,3.1,2.1c0.1,0,0.1,0,0.2,0c0.2,0.2,0.5,0.4,0.7,0.5c0.5,0.7,0.8,2,0.7,3.2c-0.1,1.1,0,2.6,0.2,3.3
	c0.4,1.5,0.3,2-0.6,1.8c-0.3-0.1-3.2-2.3-6.5-5.1C32.3,16.9,28,13.8,22.1,10.6c-3.3-1.8-5.2-3-5.2-3.3c0-1,3-1.1,10.2-0.3
	C28,7.1,30.1,6.9,31.8,6.6z"/>
<path class="st0" d="M118,21.4c-0.1-0.2-0.2-0.4-0.4-0.5c0,0-0.2,0-0.3,0c-0.6-0.2-1.4-0.2-2.3,0.1c-3.8,1.3-6.7,1.8-7.8,1.1
	c-1.1-0.7-1.6-3.1-1.3-6.6c0.3-3.6-2.4-4.5-4.9-1.7c-2.2,2.4-5.5,8.4-5.5,8.4s-3.3,0.8-6.1,1.5c-2.5,0.6-5.4,0.3-4.6,3.6
	c0.4,1.7,6.3,5,6.7,5.3c0,0,0.5,1.1,0.5,1.1c1.2,0.8,0.4,3.9-0.6,5.6c-1.1,1.8-1.7,4.4-1.2,5.4c0.5,1,0.8,1.1,2.4,0.7
	c1-0.3,2-1.2,3.4-3.2c1.6-2.3,2.4-3,4.4-3.7c2.1-0.7,2.7-0.7,4,0.2c5.4,3.8,6.9,4.1,8.3,1.7c0.7-1.1,0.2-2-1.8-3.2
	c-0.8-0.5-1.4-1.5-1.6-2.6c-0.6-2.8,2.1-7,5.7-8.9C117.9,24,118.9,22.5,118,21.4z"/>
<path class="st0" d="M196.8,20.6c0.1-0.2,0-0.3-0.1-0.5l-2.4-3.5c-1-1.5-1.2-1.8-1.3-1.9l-0.4-0.6c-1.2-1.9-2.4-3.8-3.5-5.7
	l-2.9-4.7c-0.2-0.3-0.4-0.6-0.7-0.9l-0.3-0.3l0,0c-0.1-0.1-0.3-0.2-0.4-0.2c-0.2,0-0.3,0.1-0.3,0.1L183.8,3
	c-0.5,0.3-0.9,0.6-1.2,0.8c-0.3,0.2-0.5,0.4-0.7,0.5c-0.2,0.1-0.3,0.3-0.6,0.4c-1.6,1-2.2,1.4-2.4,1.6l-3.5,2.6l-1.7,1.3
	c-0.5,0.4-0.7,0.6-1,0.7c-0.7,0.5-0.9,0.7-1.1,0.8c-0.2,0.2-0.5,0.3-1,0.7c-0.2,0.1-1,0.8-2.6,2.1c-0.3,0.2-0.5,0.5-0.7,0.6
	c0,0,0,0-0.1,0c-0.6,0.5-1.1,0.9-1.7,1.3c-0.7,0.6-1.4,1.1-2.2,1.8c-1.9,1.6-3.9,3.3-5.9,5.2l-0.8,0.7c-0.2,0-0.3,0.1-0.4,0.5
	c0,0,0,0,0,0.1l0,0c0,0,0,0,0,0c0,0,0,0,0,0h0c0,0,0,0,0,0c0,0.2,0,0.4,0,0.8c0,0.1,0.1,0.3,0.2,0.4l4.3,4.3
	c0.1,0.1,0.1,0.1,0.2,0.1l2.3,2.3l-2.1,1.2c-0.5,0.3-0.6,0.3-0.7,0.4c0,0-0.1,0.1-0.2,0.2c-0.1,0-0.2,0-0.2,0.1
	c-0.4,0.3-0.7,0.5-1,0.6c-0.3,0.2-0.6,0.3-0.9,0.6c0,0-0.1,0-0.1,0.1c-0.1,0.1-0.2,0.2-0.4,0.3c-0.1,0-0.3,0.1-0.5,0.3
	c-0.1,0.1-0.2,0.1-0.2,0.2c-0.1,0-0.1,0-0.1,0.1l-3.8,2.7l-0.2,0.1c-0.2,0.2-0.4,0.3-0.6,0.4l-0.2,0.1c0,0,0,0-0.1,0l-0.4,0.3
	c-0.1,0-0.2,0-0.3,0.1c-0.3,0.2-0.6,0.4-0.9,0.6c-0.1,0.1-0.1,0.1-0.2,0.2c-0.2,0.1-0.4,0.3-0.6,0.4c-0.1,0-0.1,0.1-0.2,0.1
	c-0.2,0-0.4,0.2-0.9,0.6c-0.1,0.1-0.3,0.2-0.4,0.3c-0.1,0.1-0.2,0.2-0.5,0.3c-0.1,0.1-0.3,0.2-0.4,0.3c-0.2,0-0.3,0.1-0.4,0.2
	c0,0-0.1,0.1-0.1,0.1c0,0-0.1,0-0.1,0.1l-0.1,0.1c-0.1,0.1-0.2,0.1-0.3,0.2c-0.3,0.2-0.5,0.3-0.6,0.5l-0.1,0.1
	c-0.4,0.3-0.7,0.5-0.8,0.7c0,0,0,0,0,0l0,0c-0.3,0.3-0.3,0.4-0.2,0.6c0,0.1,0.1,0.2,0.2,0.3c0,0,0,0,0,0c-0.1,0.1-0.2,0.2-0.1,0.4
	c0,0.3,0.3,0.4,0.5,0.4c0,0,0.1,0,0.3,0c0.8-0.1,1.2-0.2,1.6-0.3c0.3-0.1,0.7-0.1,1.3-0.2c0.1,0,0.1,0,0.1,0c5.4-0.9,11-2,17.8-3.2
	c2.5-0.5,5.1-1,7.7-1.5c1.6-0.3,3.2-0.6,4.8-0.9l3.1-0.6c0.2,0,0.3-0.1,0.4-0.3c0.1-0.2,0-0.3-0.1-0.5l-7.1-9.8
	c-0.4-0.5-0.7-1-1-1.4l9.7-2.8c0,0,0,0,0,0l5.5-1.5c0,0,0.1,0,0.1,0c0,0,0.1,0,0.2-0.1l0.2-0.1c0.4-0.1,1.7-0.5,6.1-1.8
	c0,0,0.1,0,0.1,0c0.2,0,0.3,0,0.5-0.4c0,0,0,0,0,0l0,0c0,0,0,0,0,0c0,0,0,0,0,0l0,0c0,0,0,0,0,0C196.6,21.1,196.7,20.9,196.8,20.6z
	 M176.5,34.7c0.6,0.8,1.1,1.6,1.7,2.3l1.2,1.7l-14.9,3c-0.1,0-0.1,0-0.2,0.1c-0.6,0.1-1.3,0.3-1.9,0.4c-1.5,0.3-3,0.7-4.9,1
	c-0.6,0.1-1.3,0.3-2,0.4c-1.6,0.4-3.1,0.7-3.6,0.9c-1.3,0.3-2.1,0.4-3,0.6c-0.7,0.1-1.3,0.3-2.2,0.5c0.1-0.1,0.2-0.2,0.3-0.2
	c0.2-0.1,0.7-0.4,0.9-0.5c0.1-0.1,0.3-0.2,0.4-0.3l0.1-0.1c0.1-0.1,0.2-0.1,0.3-0.2c0.1,0,0.2-0.1,0.2-0.1c0.1-0.1,0.3-0.2,0.4-0.3
	c0.1-0.1,0.3-0.2,0.5-0.3c0.1-0.1,0.2-0.1,0.2-0.2l0.2-0.1c0.1,0,0.2,0,0.4,0c0.2-0.1,0.7-0.4,1.3-0.8c0,0,0.1,0,0.1-0.1
	c0.3-0.2,0.6-0.4,1-0.7c0.1,0,0.2,0,0.3-0.1l0.6-0.4c0,0,0.1-0.1,0.1-0.1c0.2-0.1,0.4-0.2,0.5-0.3h0c0.1,0,0.2-0.1,0.4-0.3
	c0,0,0,0,0,0c0.1-0.1,0.8-0.5,1.6-1.1c1-0.7,2.7-1.9,2.9-2c0,0,0.1,0,0.1,0c0.2-0.1,0.4-0.2,0.5-0.3c0.1,0,0.2-0.1,0.3-0.1
	c0,0,0.1-0.1,0.1-0.1l0.4-0.2c0.2-0.2,0.5-0.3,0.8-0.5c0.1,0,0.2,0,0.3-0.1c0.5-0.3,0.9-0.6,1.4-0.9l0.2-0.1c0,0,0,0,0.1,0
	c0.2-0.1,0.6-0.3,1.2-0.7l0.7-0.5c0.2,0,0.3-0.2,0.4-0.3c0,0,0-0.1,0-0.1h0c0,0,0,0,0,0c0,0,0,0,0,0h0c0,0,0,0,0,0
	c0-0.1,0-0.2,0-0.3c0-0.2-0.1-0.3-0.2-0.4c-0.2-0.2-0.4-0.4-0.6-0.7c-0.1-0.1-0.2-0.1-0.2-0.2c0,0-0.1,0-0.1-0.1l-2.1-2.2
	c-0.1-0.1-0.2-0.2-0.3-0.2c-0.1-0.1-0.2-0.3-0.4-0.6c0,0,0,0,0,0c0-0.1-0.1-0.3-0.2-0.3c-0.2-0.2-0.5-0.5-0.8-0.8c0,0,0,0,0,0
	c0-0.2-0.1-0.3-0.2-0.4l-1.5-1.7l2.3-2c2.1-1.8,3.8-3.3,5-4.7c0.3-0.1,0.9-0.6,2.3-1.6c1.4-1.1,1.9-1.4,2-1.6l0,0
	c0.8-0.7,1.5-1.3,2.3-2l0,0c2.4-2,5.1-4,8-6.1l3.5-2.4l2.2,3.6c1.1,1.8,3.2,5.1,5.1,8.1L194,20l-4,1.1c-0.1,0-0.2,0.1-0.3,0.2
	l-4.6,1.4c-0.1,0-0.2,0.1-0.3,0.2c-0.6,0.2-1.5,0.5-2.3,0.7c-0.5,0.1-0.9,0.3-1.3,0.4c-0.1,0-0.4,0.1-1.5,0.4c-0.1,0-0.1,0-0.2,0.1
	l-7,2c-0.3-0.1-0.4,0-0.6,0.4c0,0,0,0,0,0l0,0c0,0,0,0,0,0c0,0,0,0,0,0l0,0c0,0,0,0,0,0c-0.1,0.1-0.1,0.3-0.2,0.6c0,0.1,0,0.3,0,0.4
	c0,0,0,0.1,0.1,0.1l0.6,0.8c0.2,0.3,0.3,0.5,0.4,0.7l1.4,2c0.1,0.1,0.2,0.4,0.4,0.7c0,0.1,0,0.1,0.1,0.2l0.1,0.2
	C175.5,33.3,176,34,176.5,34.7z"/>
</svg>
