<svg xmlns="http://www.w3.org/2000/svg" viewBox="0 0 13.37 20.44">
    <path d="M12.94,7.47a4.35,4.35,0,0,0-2.11-.83c1-2.52,1.2-4.82.57-5.9A1.41,1.41,0,0,0,10.35,0a1.19,1.19,0,0,0-1,.32c-1.14,1-1.51,4.31-1.52,6l-.53,0c-.33,0-.78,0-1.28,0C5.9,3,5.47,1.3,4.64.64A1.44,1.44,0,0,0,3.44.36a1.52,1.52,0,0,0-1.11,1,7.64,7.64,0,0,0,.39,5.35,3.85,3.85,0,0,0-1.57.76c-.72.66-.83,4.68-.85,5.48,0,1.46,0,5,.78,6.26.65,1,3,1.25,5,1.25h.15c1.89,0,6.2-.34,6.76-1.26s1.19-10.37,0-11.71M9.92.92A.39.39,0,0,1,10.25.8a.62.62,0,0,1,.47.34c.51.88.22,3.07-.68,5.37-.44-.07-.9-.12-1.37-.16,0-1.83.45-4.71,1.25-5.42M3,1.66c.21-.46.45-.51.53-.52a.65.65,0,0,1,.57.12c.61.48,1,2.14,1.13,5A15.2,15.2,0,0,0,3.5,6.5,7,7,0,0,1,3,1.66m9.27,17.09c-.43.45-4.85,1.14-8.12.81-1.89-.19-2.35-.62-2.46-.8C.68,17.08,1,8.81,1.69,8s2.9-1,5.63-1,4.67.55,5,1c.92,1,.4,10,0,10.74"
          transform="translate(-0.29 0)"/>
    <path d="M11.67,13.3a.4.4,0,0,0-.47.3c-.21.95-1.77,1.74-3.79,1.94-2.2.21-4-.34-4.48-1.34a.4.4,0,0,0-.73.32c.58,1.32,2.46,1.86,4.33,1.86.32,0,.64,0,.95,0,1.85-.18,4.13-1,4.49-2.55a.4.4,0,0,0-.3-.47"
          transform="translate(-0.29 0)"/>
    <path d="M2.69,11.25a4.83,4.83,0,0,1,3,.18.4.4,0,0,0,.34-.72,5.61,5.61,0,0,0-3.55-.23.4.4,0,1,0,.17.77"
          transform="translate(-0.29 0)"/>
    <path d="M8.15,11.3a.39.39,0,0,0,.17,0,4.65,4.65,0,0,1,2.83-.1.4.4,0,0,0,.36-.7A5.34,5.34,0,0,0,8,10.54a.4.4,0,0,0,.17.76"
          transform="translate(-0.29 0)"/>
</svg>