<svg xmlns="http://www.w3.org/2000/svg" viewBox="0 0 13.97 13.81">
    <title>icon-email</title>
    <path d="M12.89,1.09C11.89.17,7.75,0,5.38.12c-1.62.08-3.67.31-4.29,1C-.33,2.69-.34,11.13,1,12.8l0,0,0,.06,0,0h0c1,.87,4.18,1,5.55,1H7c2.14,0,4.9-.28,5.81-.94h0l0,0,0,0,0,0,0-.06c.79-.8,1-3.38,1-4.89C14,6,13.87,2,12.89,1.09ZM5.42.92a22.47,22.47,0,0,1,6.38.49c-.87,1.83-3.3,5.75-4.87,5.82-.67,0-3.09-3-4.92-5.77A11.42,11.42,0,0,1,5.42.92ZM1.44,2A34.36,34.36,0,0,0,5.23,6.94c-.78,1-2.95,3.83-3.81,5C.66,10.06.52,4,1.44,2ZM7,13.11a13.7,13.7,0,0,1-5-.59c1.21-1.61,3.15-4.16,3.86-5.05A2,2,0,0,0,6.94,8H7a2.65,2.65,0,0,0,1.39-.57c.67.83,2.84,3.57,3.72,5A16.5,16.5,0,0,1,7,13.11Zm6.2-5.19a13.23,13.23,0,0,1-.55,3.94c-1-1.54-3-4.11-3.67-4.92a20.86,20.86,0,0,0,3.5-5.1C12.89,2.54,13.26,5,13.18,7.92Z"
          transform="translate(-0.02 -0.09)" style="fill:#7f7d7c"/>
</svg>