<svg xmlns="http://www.w3.org/2000/svg" viewBox="0 0 13.97 13.81"><title>icon-info</title><path d="M12.89,1.09C11.89.17,7.75,0,5.38.13c-1.62.08-3.67.31-4.28,1-1.45,1.6-1.44,10.3,0,11.78.89.91,4.21,1,5.6,1H7c2.19,0,5-.29,5.89-1s1.06-3.42,1.1-5c.05-2-.1-6-1.08-6.86m.29,6.83c-.07,2.62-.47,4.11-.81,4.39s-2.49.77-5.39.8c-3.09,0-4.92-.38-5.31-.77-1-1.07-1.28-9.26,0-10.69C1.94,1.36,3.2,1,5.42.92c3-.14,6.35.22,6.94.76s.92,3,.83,6.25" transform="translate(-0.01 -0.09)" style="fill:#7f7d7c"/><path d="M8.35,10.84H5.7v-.52h.77V5.87H5.7V5.35H7.57v5h.77ZM6.25,3.66a.59.59,0,0,1,.21-.48A.83.83,0,0,1,7,3a.82.82,0,0,1,.56.18.61.61,0,0,1,.2.48.61.61,0,0,1-.2.48A.82.82,0,0,1,7,4.32a.83.83,0,0,1-.55-.18A.59.59,0,0,1,6.25,3.66Z" transform="translate(-0.01 -0.09)" style="fill:#7f7d7c"/></svg>