
<svg version="1.1" id="Слой_1" xmlns="http://www.w3.org/2000/svg" xmlns:xlink="http://www.w3.org/1999/xlink" x="0px" y="0px"
	 viewBox="0 0 116.7 195.8" enable-background="new 0 0 116.7 195.8" xml:space="preserve">
<g>
	<defs>
		<rect id="SVGID_1_" width="116.7" height="195.8"/>
	</defs>
	<clipPath id="SVGID_2_">
		<use xlink:href="#SVGID_1_"  overflow="visible"/>
	</clipPath>
	<path clip-path="url(#SVGID_2_)" d="M44.1,195.2c-20.7-2.2-33.1-10-38-13.7c-1.8-1.4-3-3.5-3.1-5.9l-2.6-60.2l1.3-0.1l0.6-1.1
		c0.1,0,6.9,3.2,18.5,6.2c10.3,2.7,26.7,5.8,46.3,5.3c43.1-1,46.3-15.4,46.3-15.5c0.1-0.7,0.7-1.1,1.4-1.1c0.6,0.1,1.2,0.6,1.2,1.3
		l0.8,61.9c0,2.8-1.1,5.5-3.2,7.4c-6.3,5.9-22.1,15.8-57.3,16.1C51.9,195.8,47.9,195.6,44.1,195.2 M3.1,117.3l2.5,58.1
		c0.1,1.6,0.8,3,2,4c5.5,4.2,21.3,14,48.5,13.8c34.3-0.2,49.5-9.7,55.6-15.4c1.5-1.4,2.4-3.4,2.3-5.5l-0.7-57.1
		c-4.3,5-15.7,12.4-46.3,13.1c-20,0.5-36.9-2.8-47.5-5.6c-6-1.6-10.7-3.2-13.6-4.3C4.8,118,3.8,117.6,3.1,117.3"/>
	<path clip-path="url(#SVGID_2_)" d="M0.6,115.8c-0.1-0.2-1.7-4.1,1.1-8.7c6.4-10.4,28.9-13.7,46.7-14.6
		c60.2-3.1,67.2,16.7,67.5,17.5l-2.4,0.8c-0.1-0.2-7.1-18.7-64.9-15.8c-31,1.6-41.3,8.1-44.6,13.3c-2.2,3.5-1,6.3-1,6.4L0.6,115.8z"
		/>
	
		<rect x="-7.9" y="81.8" transform="matrix(0.1553 0.9879 -0.9879 0.1553 103.4969 45.2186)" clip-path="url(#SVGID_2_)" width="66.4" height="2.6"/>
	<path clip-path="url(#SVGID_2_)" d="M19.5,47c-2-0.2-4.1-1.4-5.6-3.3c-2.6-3.3-0.9-9.4-0.6-10.3L16.6,19l1.7,2.6
		c1,1.6,9.8,16,7.4,21.4c-1,2.3-2.7,3.7-4.8,3.9C20.4,47.1,20,47.1,19.5,47 M17.7,25.8l-1.9,8.4c-0.5,1.6-1.3,6,0.2,8
		c1.2,1.5,3,2.4,4.5,2.3c1.2-0.1,2.1-1,2.8-2.4C24.5,39.3,21,31.5,17.7,25.8"/>
	
		<rect x="49.9" y="73.4" transform="matrix(-7.650016e-002 0.9971 -0.9971 -7.650016e-002 168.2197 -6.4597)" clip-path="url(#SVGID_2_)" width="74.4" height="2.6"/>
	<path clip-path="url(#SVGID_2_)" d="M91,35c-0.1,0-0.2,0-0.3,0c-2.4-0.4-4.7-2.4-5.7-5c-1.5-3.9,1.8-9.3,2.3-10.1l7.2-13l0.9,3
		c0.5,1.8,5,18,1.1,22.6C94.9,34.4,93,35.2,91,35 M93.6,13.7l-4.2,7.5c-0.9,1.4-3,5.4-2,7.8c0.7,1.8,2.2,3.2,3.7,3.4
		c1.2,0.2,2.3-0.3,3.3-1.6C96.4,28.6,95.2,20.2,93.6,13.7"/>
	
		<rect x="17.3" y="73.4" transform="matrix(3.694559e-002 0.9993 -0.9993 3.694559e-002 129.8954 14.6735)" clip-path="url(#SVGID_2_)" width="80" height="2.6"/>
	<path clip-path="url(#SVGID_2_)" d="M55.7,32c-2-0.2-4.1-1.4-5.6-3.3C47.7,25.5,48,16,48,14.9l0.1-1.8l3.5,1.4L55.9,0l1.4,3.6
		c0.7,1.9,7,19.1,4.6,24.5c-1,2.3-2.7,3.7-4.8,3.9C56.6,32.1,56.1,32.1,55.7,32 M50.6,16.9c0,3.7,0.4,8.7,1.6,10.3
		c1.2,1.5,3,2.4,4.5,2.3c1.2-0.1,2.1-1,2.8-2.4c1.2-2.8-1.1-11.8-3.4-18.8L53.3,18L50.6,16.9z"/>
	<polygon clip-path="url(#SVGID_2_)" points="90.6,133.9 94.2,148 106.1,144.1 96,154.9 103.9,167.8 91.8,161 77,166.1 85.6,155.6 
		74.2,146.7 86.9,148.3 	"/>
	<polygon clip-path="url(#SVGID_2_)" points="17.1,131.1 26,139 32.2,130.9 30.3,142.7 41.6,147.7 30.4,148.8 22.8,159 23.7,148 
		12,147.3 21.2,142.5 	"/>
	<polygon clip-path="url(#SVGID_2_)" points="57.8,160.5 55.3,167.7 61.7,169.5 54.1,171.3 53.8,179.3 50.4,172.8 42.4,170.7 
		49.3,168.6 46.8,161.3 52,165.8 	"/>
</g>
</svg>
