<svg fill="#817F7E" xmlns="http://www.w3.org/2000/svg" viewBox="0 0 19 19">
	<path d="M2.4,3V0.6C2.4,0.3,2.6,0,3,0c0.3,0,0.6,0.3,0.6,0.6V3c0,0.3-0.3,0.6-0.6,0.6C2.6,3.6,2.4,3.3,2.4,3z
		 M12.5,3.6c0.3,0,0.6-0.3,0.6-0.6V0.6c0-0.3-0.3-0.6-0.6-0.6c-0.3,0-0.6,0.3-0.6,0.6V3C11.9,3.3,12.1,3.6,12.5,3.6z M19,14.2
		c0,2.6-2.1,4.8-4.8,4.8c-2.6,0-4.7-2.1-4.7-4.8c0-2.6,2.1-4.7,4.7-4.7C16.9,9.5,19,11.6,19,14.2z M17.8,14.2c0-2-1.6-3.6-3.6-3.6
		c-2,0-3.6,1.6-3.6,3.6c0,2,1.6,3.6,3.6,3.6C16.2,17.8,17.8,16.2,17.8,14.2z M4.8,7.1H2.4v2.4h2.4V7.1z M2.4,13.1h2.4v-2.4H2.4V13.1
		z M5.9,9.5h2.4V7.1H5.9V9.5z M5.9,13.1h2.4v-2.4H5.9V13.1z M1.2,14.1V5.9h13.1v2.4h1.2V3.7c0-0.7-0.6-1.3-1.3-1.3h-0.5V3
		c0,0.7-0.5,1.2-1.2,1.2c-0.7,0-1.2-0.5-1.2-1.2V2.4H4.2V3c0,0.7-0.5,1.2-1.2,1.2C2.3,4.2,1.8,3.6,1.8,3V2.4H1.3C0.6,2.4,0,3,0,3.7
		v10.5c0,0.7,0.6,1.3,1.3,1.3h7v-1.2h-7C1.2,14.2,1.2,14.2,1.2,14.1z M11.9,9.5V7.1H9.5v2.4H11.9z M16,14.2h-1.8v-1.8
		c0-0.3-0.3-0.6-0.6-0.6c-0.3,0-0.6,0.3-0.6,0.6v2.4c0,0.3,0.3,0.6,0.6,0.6H16c0.3,0,0.6-0.3,0.6-0.6C16.6,14.5,16.4,14.2,16,14.2z"
		/>
</svg>
