<?xml version="1.0" encoding="utf-8"?>
<!-- Generator: Adobe Illustrator 21.0.0, SVG Export Plug-In . SVG Version: 6.00 Build 0)  -->
<svg version="1.1" id="Слой_1" xmlns="http://www.w3.org/2000/svg" xmlns:xlink="http://www.w3.org/1999/xlink" x="0px" y="0px"
	 viewBox="0 0 22 15.7" style="enable-background:new 0 0 22 15.7;" xml:space="preserve">
<path d="M11,0C5.7,0,0,1.5,0,4.2v7.2c0,2.7,5.7,4.2,11,4.2s11-1.5,11-4.2V4.2C22,1.5,16.3,0,11,0z M11,1c5.9,0,10,1.7,10,3.2
	s-4.1,3.2-10,3.2S1,5.7,1,4.2S5.1,1,11,1z M21,11.4c0,1.5-4.1,3.2-10,3.2S1,12.9,1,11.4V9.5l0-1.2V6.1c1.9,1.5,6,2.4,10,2.4
	s8.1-0.8,10-2.4l0,2.3"/>
</svg>
