<svg fill="#604e42" id="Слой_1" data-name="Слой 1" xmlns="http://www.w3.org/2000/svg" viewBox="0 0 634.03 600.67">
    <path d="M319,26.95c-63.52,0-115.2,84.77-115.2,165.62S255.48,339.18,319,339.18s115.2-65.77,115.2-146.62S382.52,26.95,319,26.95m0,333.18c-75.07,0-136.15-75.17-136.15-167.56S243.93,6,319,6s136.15,94.17,136.15,186.56S394.07,360.13,319,360.13" transform="translate(-1.98 -3.17)"/>
    <path d="M319,363c-76.63,0-139-76.44-139-170.4,0-45.76,14.74-93,40.44-129.56C247.57,24.42,282.56,3.17,319,3.17S390.43,24.42,417.54,63C443.24,99.59,458,146.81,458,192.57,458,286.52,395.63,363,319,363ZM319,8.84c-76.3,0-133.31,97-133.31,183.73,0,90.83,59.8,164.73,133.31,164.73s133.31-73.9,133.31-164.73C452.31,105.84,395.3,8.84,319,8.84ZM319,342c-65.08,0-118-67-118-149.45,0-40.23,12.49-82,34.26-114.7C258.33,43.2,288.08,24.11,319,24.11s60.67,19.09,83.78,53.75C424.55,110.53,437,152.34,437,192.57,437,275,384.08,342,319,342Zm0-312.24C290,29.78,262,48,239.94,81c-21.17,31.76-33.31,72.42-33.31,111.56,0,79.28,50.41,143.78,112.37,143.78s112.37-64.5,112.37-143.78c0-39.14-12.14-79.8-33.31-111.56C376,48,348,29.78,319,29.78Z" transform="translate(-1.98 -3.17)"/>
    <path d="M235.22,203a10.47,10.47,0,0,1-10.47-10.47c0-68.13,43.16-125.67,94.25-125.67a10.47,10.47,0,1,1,0,20.95c-39.73,0-73.31,48-73.31,104.73A10.47,10.47,0,0,1,235.22,203" transform="translate(-1.98 -3.17)"/><path class="cls-1" d="M235.22,205.87a13.32,13.32,0,0,1-13.31-13.31c0-69.66,44.46-128.51,97.09-128.51a13.31,13.31,0,1,1,0,26.61c-38.2,0-70.47,46.66-70.47,101.89A13.32,13.32,0,0,1,235.22,205.87ZM319,69.73c-49.55,0-91.42,56.25-91.42,122.84a7.64,7.64,0,0,0,15.28,0C242.86,134.26,277.73,85,319,85a7.64,7.64,0,0,0,0-15.28Z" transform="translate(-1.98 -3.17)"/>
    <path d="M57.18,276.35a10.47,10.47,0,0,1-10.47-10.47c0-68.13,43.16-125.67,94.25-125.67a10.47,10.47,0,0,1,0,20.95c-39.73,0-73.31,48-73.31,104.73a10.47,10.47,0,0,1-10.47,10.47" transform="translate(-1.98 -3.17)"/><path class="cls-1" d="M57.18,279.18a13.32,13.32,0,0,1-13.31-13.31c0-69.66,44.46-128.51,97.09-128.51A13.31,13.31,0,0,1,141,164c-38.2,0-70.47,46.66-70.47,101.89A13.32,13.32,0,0,1,57.18,279.18ZM141,143c-49.55,0-91.42,56.25-91.42,122.84a7.64,7.64,0,0,0,15.28,0c0-58.3,34.87-107.56,76.14-107.56A7.64,7.64,0,0,0,141,143Z" transform="translate(-1.98 -3.17)"/><path class="cls-1" d="M497,433.44c-54.53,0-103.64-39.84-125.12-101.5L391.69,325c18.51,53.13,59.85,87.45,105.35,87.45,63.52,0,115.2-65.77,115.2-146.62S560.55,119.26,497,119.26c-19.74,0-39.34,6.63-56.67,19.18l-12.27-17C449,106.32,472.85,98.31,497,98.31c75.07,0,136.15,75.17,136.15,167.56S572.1,433.44,497,433.44" transform="translate(-1.98 -3.17)"/><path class="cls-1" d="M497,436.27c-55.75,0-105.91-40.59-127.79-103.4l-.93-2.68,25.13-8.76.93,2.68c18.1,52,58.4,85.54,102.67,85.54,62,0,112.37-64.5,112.37-143.78S559,122.09,497,122.09c-19.14,0-38.16,6.44-55,18.64l-2.3,1.66-15.6-21.56,2.3-1.66c21.42-15.5,45.83-23.69,70.6-23.69,76.63,0,139,76.44,139,170.4S573.67,436.27,497,436.27ZM375.55,333.67c21.55,59,69,96.93,121.49,96.93,73.51,0,133.31-73.9,133.31-164.73S570.54,101.15,497,101.15c-22.69,0-45.09,7.25-65,21l9,12.38c17.24-11.84,36.55-18.08,56-18.08,65.08,0,118,67,118,149.45s-53,149.45-118,149.45c-45.95,0-87.72-33.92-107.07-86.68Z" transform="translate(-1.98 -3.17)"/>
    <path d="M141,433.44C65.9,433.44,4.82,358.27,4.82,265.88S65.9,98.31,141,98.31c24.18,0,48,8,68.94,23.16l-12.27,17C180.3,125.89,160.7,119.26,141,119.26c-63.52,0-115.2,65.77-115.2,146.62S77.45,412.49,141,412.49c45.49,0,86.84-34.32,105.35-87.45l19.77,6.89C244.6,393.6,195.5,433.44,141,433.44" transform="translate(-1.98 -3.17)"/><path class="cls-1" d="M141,436.27c-76.63,0-139-76.44-139-170.4S64.33,95.48,141,95.48c24.77,0,49.19,8.19,70.6,23.69l2.3,1.66-15.6,21.56-2.3-1.66c-16.84-12.19-35.86-18.64-55-18.64-62,0-112.37,64.5-112.37,143.78S79,409.66,141,409.66c44.27,0,84.57-33.58,102.67-85.54l.93-2.68,25.13,8.76-.93,2.68C246.88,395.69,196.71,436.27,141,436.27Zm0-335.13C67.46,101.15,7.65,175,7.65,265.88S67.46,430.6,141,430.6c52.52,0,99.94-37.95,121.49-96.93l-14.42-5C228.68,381.4,186.91,415.33,141,415.33c-65.08,0-118-67-118-149.45s53-149.45,118-149.45c19.47,0,38.77,6.24,56,18.08l9-12.38C186.05,108.39,163.65,101.15,141,101.15Z" transform="translate(-1.98 -3.17)"/><path class="cls-1" d="M123,454.38h36l-5.24-20.95H128.2Zm49.42,20.95H109.55a10.48,10.48,0,0,1-10.16-13l10.47-41.89A10.46,10.46,0,0,1,120,412.49h41.89a10.45,10.45,0,0,1,10.15,7.93l10.47,41.89a10.47,10.47,0,0,1-10.15,13Z" transform="translate(-1.98 -3.17)"/><path class="cls-1" d="M172.38,478.17H109.55A13.2,13.2,0,0,1,99.06,473a13.35,13.35,0,0,1-2.42-11.42l10.47-41.89A13.28,13.28,0,0,1,120,409.66h41.89a13.27,13.27,0,0,1,12.9,10.08l10.47,41.89a13.3,13.3,0,0,1-12.9,16.54ZM120,415.33a7.62,7.62,0,0,0-7.41,5.78L102.14,463a7.64,7.64,0,0,0,7.41,9.5h62.84a7.63,7.63,0,0,0,7.4-9.48l-10.48-41.9a7.61,7.61,0,0,0-7.4-5.78Zm42.58,41.89H119.33L126,430.6h30Zm-36-5.67h28.74l-3.82-15.28H130.41Z" transform="translate(-1.98 -3.17)"/><path class="cls-1" d="M301,381.08h36l-5.24-20.95H306.24ZM350.42,402H287.58a10.48,10.48,0,0,1-10.16-13l10.47-41.89a10.46,10.46,0,0,1,10.16-7.93h41.89a10.45,10.45,0,0,1,10.15,7.93L360.57,389a10.47,10.47,0,0,1-10.15,13Z" transform="translate(-1.98 -3.17)"/><path class="cls-1" d="M350.42,404.86H287.58a13.31,13.31,0,0,1-12.91-16.54l10.47-41.89a13.28,13.28,0,0,1,12.91-10.07h41.89a13.27,13.27,0,0,1,12.9,10.08l10.47,41.89a13.3,13.3,0,0,1-12.9,16.54ZM298.06,342a7.62,7.62,0,0,0-7.41,5.78l-10.47,41.89a7.64,7.64,0,0,0,7.41,9.5h62.84a7.63,7.63,0,0,0,7.4-9.48l-10.48-41.9a7.61,7.61,0,0,0-7.4-5.78Zm42.58,41.89H297.37L304,357.29h30Zm-36-5.67h28.74L329.56,363H308.45Z" transform="translate(-1.98 -3.17)"/><path class="cls-1" d="M479,454.38h36l-5.24-20.95H484.27Zm49.42,20.95H465.62a10.48,10.48,0,0,1-10.16-13l10.47-41.89a10.46,10.46,0,0,1,10.16-7.93H518a10.45,10.45,0,0,1,10.15,7.93l10.47,41.89a10.47,10.47,0,0,1-10.15,13Z" transform="translate(-1.98 -3.17)"/><path class="cls-1" d="M528.46,478.17H465.62a13.31,13.31,0,0,1-12.91-16.54l10.47-41.89a13.28,13.28,0,0,1,12.91-10.08H518a13.27,13.27,0,0,1,12.9,10.08l10.47,41.89a13.3,13.3,0,0,1-12.9,16.54Zm-52.36-62.84a7.62,7.62,0,0,0-7.41,5.78L458.21,463a7.65,7.65,0,0,0,7.41,9.5h62.84a7.63,7.63,0,0,0,7.4-9.48l-10.48-41.9a7.61,7.61,0,0,0-7.4-5.78Zm42.58,41.89H475.41l6.65-26.62h30Zm-36-5.67h28.74l-3.82-15.28H486.49Z" transform="translate(-1.98 -3.17)"/><path class="cls-1" d="M161.91,601a10.47,10.47,0,1,1,0-20.95,10.48,10.48,0,0,0,10.47-10.47V559.11a10.48,10.48,0,0,0-10.47-10.47,31.46,31.46,0,0,1-31.42-31.42V464.86a10.47,10.47,0,0,1,20.95,0v52.36a10.48,10.48,0,0,0,10.47,10.47,31.46,31.46,0,0,1,31.42,31.42v10.47A31.46,31.46,0,0,1,161.91,601" transform="translate(-1.98 -3.17)"/><path class="cls-1" d="M161.91,603.84a13.31,13.31,0,0,1,0-26.62,7.65,7.65,0,0,0,7.64-7.64V559.11a7.65,7.65,0,0,0-7.64-7.64,34.29,34.29,0,0,1-34.25-34.25V464.86a13.31,13.31,0,1,1,26.61,0v52.36a7.65,7.65,0,0,0,7.64,7.64,34.29,34.29,0,0,1,34.25,34.25v10.47A34.29,34.29,0,0,1,161.91,603.84ZM141,457.22a7.65,7.65,0,0,0-7.64,7.64v52.36a28.62,28.62,0,0,0,28.58,28.58,13.32,13.32,0,0,1,13.31,13.31v10.47a13.32,13.32,0,0,1-13.31,13.31,7.64,7.64,0,1,0,0,15.28,28.62,28.62,0,0,0,28.58-28.58V559.11a28.62,28.62,0,0,0-28.58-28.58,13.32,13.32,0,0,1-13.31-13.31V464.86A7.65,7.65,0,0,0,141,457.22Z" transform="translate(-1.98 -3.17)"/><path class="cls-1" d="M339.95,527.69a10.47,10.47,0,0,1,0-20.95,10.48,10.48,0,0,0,10.47-10.47V485.8a10.48,10.48,0,0,0-10.47-10.47,31.46,31.46,0,0,1-31.42-31.42V391.55a10.47,10.47,0,1,1,20.95,0v52.36a10.48,10.48,0,0,0,10.47,10.47,31.46,31.46,0,0,1,31.42,31.42v10.47a31.46,31.46,0,0,1-31.42,31.42" transform="translate(-1.98 -3.17)"/><path class="cls-1" d="M339.95,530.53a13.31,13.31,0,1,1,0-26.62,7.65,7.65,0,0,0,7.64-7.64V485.8a7.65,7.65,0,0,0-7.64-7.64,34.29,34.29,0,0,1-34.25-34.25V391.55a13.31,13.31,0,1,1,26.61,0v52.36a7.65,7.65,0,0,0,7.64,7.64A34.29,34.29,0,0,1,374.2,485.8v10.47A34.29,34.29,0,0,1,339.95,530.53ZM319,383.91a7.65,7.65,0,0,0-7.64,7.64v52.36a28.62,28.62,0,0,0,28.58,28.58,13.32,13.32,0,0,1,13.31,13.31v10.47a13.32,13.32,0,0,1-13.31,13.31,7.64,7.64,0,0,0,0,15.28,28.62,28.62,0,0,0,28.58-28.58V485.8a28.62,28.62,0,0,0-28.58-28.58,13.32,13.32,0,0,1-13.31-13.31V391.55A7.65,7.65,0,0,0,319,383.91Z" transform="translate(-1.98 -3.17)"/><path class="cls-1" d="M518,601a10.47,10.47,0,1,1,0-20.95,10.48,10.48,0,0,0,10.47-10.47V559.11A10.48,10.48,0,0,0,518,548.64a31.46,31.46,0,0,1-31.42-31.42V464.86a10.47,10.47,0,0,1,20.95,0v52.36A10.48,10.48,0,0,0,518,527.69a31.46,31.46,0,0,1,31.42,31.42v10.47A31.46,31.46,0,0,1,518,601" transform="translate(-1.98 -3.17)"/>
    <path class="cls-1" d="M518,603.84a13.31,13.31,0,1,1,0-26.62,7.65,7.65,0,0,0,7.64-7.64V559.11a7.65,7.65,0,0,0-7.64-7.64,34.29,34.29,0,0,1-34.25-34.25V464.86a13.31,13.31,0,1,1,26.62,0v52.36a7.65,7.65,0,0,0,7.64,7.64,34.29,34.29,0,0,1,34.25,34.25v10.47A34.29,34.29,0,0,1,518,603.84ZM497,457.22a7.65,7.65,0,0,0-7.64,7.64v52.36A28.62,28.62,0,0,0,518,545.8a13.32,13.32,0,0,1,13.31,13.31v10.47A13.32,13.32,0,0,1,518,582.89a7.64,7.64,0,0,0,0,15.28,28.62,28.62,0,0,0,28.58-28.58V559.11A28.62,28.62,0,0,0,518,530.53a13.32,13.32,0,0,1-13.31-13.31V464.86A7.65,7.65,0,0,0,497,457.22Z" transform="translate(-1.98 -3.17)"/>
</svg>