<svg xmlns="http://www.w3.org/2000/svg" viewBox="0 0 13.5 13.35"><title>icon-ru</title><path d="M12.69,1.29c-1-.88-5-1-7.26-.93-1.56.07-3.55.3-4.14,1C-.1,2.86-.1,11.26,1.3,12.69c.86.88,4.07,1,5.41,1H7c2.12,0,4.88-.28,5.69-.95s1-3.3,1.06-4.81c.05-1.91-.1-5.76-1-6.63M13,7.89c-.07,2.53-.46,4-.78,4.24s-2.41.75-5.21.77c-3,0-4.76-.36-5.13-.75-1-1-1.24-9,0-10.33.25-.28,1.46-.6,3.61-.7,2.94-.14,6.13.21,6.71.73s.89,2.94.8,6" transform="translate(-0.25 -0.33)" style="fill:#7f7d7c"/><path d="M3.85,8.44H4.4v.35H2.57V8.44h.57V4.74H2.57V4.39h.64l.62,0,.66,0a2.81,2.81,0,0,1,.65.07,1.55,1.55,0,0,1,.53.22A1.11,1.11,0,0,1,6,5a1.16,1.16,0,0,1,.13.56,1.13,1.13,0,0,1-.28.77,1.52,1.52,0,0,1-.73.45L6.38,8.44h.39v.35h-1L4.49,6.89H3.85Zm.5-1.87a1,1,0,0,0,.76-.27,1,1,0,0,0,.27-.72.8.8,0,0,0-.29-.69,1.26,1.26,0,0,0-.77-.22H4l-.2,0V6.58Z" transform="translate(-0.25 -0.33)" style="fill:#7f7d7c"/><path d="M10.86,8a1.26,1.26,0,0,1-.34.48,1.38,1.38,0,0,1-.53.29,2.35,2.35,0,0,1-.69.09A2.22,2.22,0,0,1,7.95,8.5a1.29,1.29,0,0,1-.47-1.1V4.74H6.91V4.39h1.8v.35H8.18V7.26a1.61,1.61,0,0,0,.08.55.87.87,0,0,0,.24.36,1,1,0,0,0,.38.2,2.08,2.08,0,0,0,.52.06,1.25,1.25,0,0,0,.87-.28,1.15,1.15,0,0,0,.31-.91V4.74h-.52V4.39h1.5v.35H11V7.29A1.83,1.83,0,0,1,10.86,8Z" transform="translate(-0.25 -0.33)" style="fill:#7f7d7c"/></svg>