<?xml version="1.0" encoding="utf-8"?>
<!-- Generator: Adobe Illustrator 21.0.0, SVG Export Plug-In . SVG Version: 6.00 Build 0)  -->
<svg version="1.1" id="Слой_1" xmlns="http://www.w3.org/2000/svg" xmlns:xlink="http://www.w3.org/1999/xlink" x="0px" y="0px"
	 viewBox="0 0 22 23" style="enable-background:new 0 0 22 23;" xml:space="preserve">
<title>icon-basket</title>
<path d="M18.4,10.7c0.5-0.5,0.9-1.1,1-1.8c0.1-0.6-0.1-1.3-0.6-1.8c-0.4-0.4-1.3-0.9-2.2-0.9c0-0.2,0.1-0.5,0.1-0.7
	c0-0.4,0-0.6,0.6-1.4c0.5-0.8,1.1-1.4,1.7-2c0.2-0.2,0.5-0.4,0.8-0.6c0.3-0.2,0.7-0.4,0.9-0.6c0.2-0.2,0.2-0.5,0-0.7c0,0,0,0,0,0
	c-0.2-0.2-0.5-0.2-0.8,0c0,0,0,0,0,0c-0.2,0.2-0.5,0.4-0.8,0.6c-0.3,0.2-0.7,0.4-1,0.7c-0.7,0.6-1.3,1.3-1.8,2.1
	c-0.7,1-0.7,1.4-0.8,2.1c0,0.2,0,0.4-0.1,0.7c-0.4-0.3-0.9-0.5-1.4-0.5c-0.6,0-1.1,0.2-1.6,0.6c-0.6,0.5-0.9,1.4-0.8,2.4
	c0,0.2,0,0.4,0.1,0.6c0,0-0.1,0-0.1,0L0.5,13.6c0,0,0,0-0.1,0s0,0-0.1,0s0,0-0.1,0s0,0-0.1,0l0,0c0,0,0,0,0,0.1s0,0,0,0.1s0,0,0,0.1
	s0,0,0,0.1c0,0,0,0,0,0.1v8.2C0,22.7,0.3,23,0.7,23h20.6c0.4,0,0.7-0.3,0.7-0.7v-8.6C22,13.6,19.7,11.8,18.4,10.7z M13.9,6.8
	L13.9,6.8c0.6,0,1.2,0.4,1.5,0.9c0.1,0.2,0.3,0.3,0.5,0.3h0c0.2,0,0.4-0.1,0.5-0.3c0.1-0.1,0.1-0.3,0-0.4l0,0c0,0,0.1,0,0.1,0
	c0.5,0,1.4,0.5,1.6,0.7l0,0c0.2,0.3,0.3,0.6,0.2,1c-0.1,0.5-0.5,1-0.9,1.3c-0.2,0.1-0.4,0.3-0.5,0.4c0,0-0.1,0-0.1,0.1
	c-0.9,0.5-2.2,0.8-3.2-0.2c-0.7-0.7-1.1-2.2-0.5-3.1C13.2,7,13.5,6.8,13.9,6.8L13.9,6.8z M12.2,10.8c0,0,0.1,0,0.1-0.1
	c0.1,0.1,0.1,0.2,0.2,0.3c0.6,0.8,1.6,1.2,2.6,1.2c0.7,0,1.4-0.2,2-0.5l2.2,1.9l-14.8,0L12.2,10.8z M1.4,14.9h19.2v2h0
	c-0.7,0.1-1.2,0.4-1.7,0.7c-0.6,0.3-1.1,0.7-1.9,0.7c-0.8,0-1.2-0.3-1.7-0.6c-0.6-0.4-1.3-0.8-2.5-0.8s-1.9,0.4-2.5,0.8
	c-0.5,0.3-0.9,0.6-1.6,0.6S7.5,18,6.9,17.7c-0.6-0.4-1.3-0.8-2.4-0.8c-1.2,0-1.9,0.4-2.4,0.8c-0.3,0.2-0.5,0.3-0.7,0.3L1.4,14.9z
	 M20.6,21.6H1.4v-2.2c0.6-0.1,1.1-0.3,1.5-0.6c0.5-0.3,0.8-0.6,1.6-0.6c0.7,0,1.1,0.3,1.7,0.6c0.6,0.4,1.4,0.8,2.5,0.8
	s1.8-0.4,2.4-0.8c0.5-0.3,1-0.6,1.8-0.6c0.8,0,1.2,0.3,1.7,0.6c0.6,0.4,1.3,0.8,2.5,0.8c1.2,0,2-0.5,2.7-0.9c0.4-0.2,0.7-0.4,1-0.5
	L20.6,21.6z"/>
</svg>
