<?xml version="1.0" encoding="utf-8"?>
<!-- Generator: Adobe Illustrator 19.0.1, SVG Export Plug-In . SVG Version: 6.00 Build 0)  -->
<svg version="1.1" id="Слой_1" xmlns="http://www.w3.org/2000/svg" xmlns:xlink="http://www.w3.org/1999/xlink" x="0px" y="0px"
	 viewBox="629.6 115 35 17" style="enable-background:new 629.6 115 35 17;" xml:space="preserve">
<style type="text/css">
	.st0{fill:#7CBD41;}
	.st1{fill:#BB2B7F;}
</style>
<path class="st0" d="M632.9,118.5c-0.9-2.2-4.1-0.2-3.2,2c1.6,3.6,4.1,6.8,6.1,10.1c0.7,1.2,2.4,1.2,3.2,0c2.5-4.1,4.8-8.2,6.3-12.8
	c0.7-2.3-2.8-3.3-3.5-1.1c-1.4,4.2-3.6,8.1-5.9,11.6c1.1,0,2.1,0,3.2,0C637,124.8,634.5,122.1,632.9,118.5L632.9,118.5z"/>
<path class="st1" d="M664.4,128.3c-1.6-1.6-3.8-3.7-5.9-5.6c1.7-1.9,3.7-3.7,5.6-5.5c1.3-1.3-0.5-3-1.8-1.8
	c-1.9,1.9-3.7,3.8-5.5,5.8c-1.8-1.6-3.7-3.1-5.7-4.6c-1.4-1-3.4,1-2,2c2.1,1.5,4,3.1,5.9,4.8c-1.7,2.1-3.3,4.3-4.7,6.6
	c-0.9,1.5,1.4,2.8,2.4,1.3c1.3-2.2,2.5-4.5,4-6.4c2,1.9,4.1,3.8,5.7,5.4C663.2,131,665.2,129.1,664.4,128.3z"/>
</svg>
