<?xml version="1.0" encoding="utf-8"?>
<!-- Generator: Adobe Illustrator 17.1.0, SVG Export Plug-In . SVG Version: 6.00 Build 0)  -->
<!DOCTYPE svg PUBLIC "-//W3C//DTD SVG 1.1//EN" "http://www.w3.org/Graphics/SVG/1.1/DTD/svg11.dtd">
<svg version="1.1" id="Слой_1" xmlns="http://www.w3.org/2000/svg" xmlns:xlink="http://www.w3.org/1999/xlink" x="0px" y="0px"
	 viewBox="0 0 960 720" enable-background="new 0 0 960 720" xml:space="preserve">
<path d="M755,434.1c0.6,5.2,0.8,10.4,0.4,15.6c-0.3,2.9-0.9,5.8-1.4,9.2c-0.5,3.3-1.3,6.5-2.4,9.7c-14.7,47.6-53.3,84.1-101.7,96
	c-48.7,12-100.1-2-135.9-37.1c-10.9-10.8-20.1-23.3-27.2-36.9c-15.4-27.3-21.3-58.9-16.9-89.9c1.1-7.7,2.8-15.3,5-22.8
	c2.4-7.4,5.4-14.6,8.9-21.5c21.2-42,61.7-70.9,108.3-77.2c7.5-1,15.1-1.5,22.7-1.4c7.6,0.3,15.1,1.1,22.5,2.4
	c14.9,2.6,29.2,7.6,42.5,14.9c21.4,11.6,38.9,29.1,50.3,50.6c9.9,18.7,13.9,39.9,11.5,60.9c-1.9,11.5-5.4,18.1-9.9,12.8
	c-3.1-4.7-5.3-9.9-6.5-15.4c-4-28.7-19.3-54.7-42.5-72.2c-23.2-17.5-52.2-25.3-81-22.1c-28.8,3.3-55.4,17.2-74.5,39.1
	c-19.5,22.3-30.3,50.9-30.5,80.5c5.5,64.6,62.3,112.4,126.9,106.9c4-0.3,8-0.9,11.9-1.6c2.5-0.4,4.9-0.9,7.3-1.7
	c2.4-0.7,4.9-1.1,7.3-2c4.8-1.6,9.5-3.6,14.1-5.8c9.2-4.2,17.9-9.5,25.8-15.8c7.9-6.4,15-13.8,21.2-21.9
	c6.1-8.2,11.1-17.1,14.9-26.6c2.4-5.2,3.7-10.4,5.8-14.8c1.3-4.1,2.9-8.2,4.8-12.1c2.7-7,6.1-11.5,9.8-12.5S753.3,425.3,755,434.1z
	 M632.5,348.7c-2.1,22.3,3.5,45-5.8,67.1c7.5,5.8,15,12,21.9,18.5c5.5,5.7,10.3,11.9,14.4,18.7c2.5,3.7,0.7,9.6-4.2,14.9
	s-10.8,6.3-14.5,4c-12.6-8.2-23.6-18.4-32.7-30.3c-1.5-1.8-2.9-3.7-4.3-5.8c-1.3-1-2.7-2-4-3.1c-2.6-2.1-4.2-5.2-4.5-8.5v-3.1
	c-1.6-17.3,1.8-34.6,4.1-51.8c1.3-9,6.4-17,14.1-21.9c3-2,6.7-2.7,10.3-1.8C629.8,346.1,632.6,347.7,632.5,348.7z M617.8,419.7h0.6
	l-0.5-1.3L617.8,419.7z M229,388.2L210,368l-0.7-0.7c-2.6-2.8-4-6.6-3.9-10.4v-2.4c-2.9-81,1-161.6,3.6-241.9l0.5-12.5l0.4-6.2
	c0.1-3.3,0.9-6.6,2.1-9.7c2.5-6.1,7.2-11,13.1-13.8c2.8-1.3,5.8-2.2,8.9-2.4c1.5-0.1,3-0.1,4.4,0l3,0.4c14.9,2,29.7,5.3,44,10
	c0.3-19,2.1-37.9,5.3-56.6l0.8-4.3c0.8-5.3,5.7-8.9,11-8.1c0.1,0,0.2,0,0.3,0.1l0,0l3.4,0.6c21.2-0.9,42.4-2.1,63.4-2.8
	c7.5-0.3,13.9,5.6,14.1,13.2c0,0,0,0,0,0l0,0v0.9c0,8.2,0.3,16.6,0,25c0,4.8,0,9.7-0.5,14.5c12.1-2.7,24.6-3.2,36.9-1.3
	c2,0,4,0.6,6,1c16.4-2.9,32.5,1,48.8,3.6c3.6,0.6,7.1,2,10,4.1c0.6-15.7,2.2-31.3,5-46.8l1.6-4.3c1-5.1,5.8-8.5,10.9-7.7l0,0
	l3.4,0.6c21.2-0.9,42.4-2.1,63.4-2.8c7.5-0.4,14,5.3,14.4,12.8c0,0.1,0,0.3,0,0.4l0,0v0.9c0,8.2,0.3,16.6,0,25
	c0,5.2,0,10.4-0.6,15.6c1-0.3,2.1-0.6,3.1-0.7c12-1.7,24.1-2.7,36.3-2.8H634c1.5,0,3,0.2,4.6,0.4c3,0.4,6,1.3,8.8,2.5
	c11.3,5,19.1,15.8,20.2,28.2c0.2,2.5,0.2,5.1,0,7.7l-0.5,5.8c2.9,30.9-1,61.7-3.6,92.2c-0.7,13.1-5.6,25.6-14.1,35.7
	c-2.4,3.5-6.7,4.9-10.7,3.6c-2.2-0.8-5.2-3.4-5.1-5.1c0.7-11.9,0.5-23.8,0.3-35.8c-3.3,0.9-6.7,1.4-10.1,1.7
	c-44.6,3.1-89.2,3.7-133.9,1.7c-7,0-14.1-0.6-21.1-1c-57,2.9-113.6-1-170.2-3.6c-20.4-0.5-40.6-4.4-59.7-11.5
	c0,44.5-1.6,88.8-6.2,132.5l0.6,23.6c1.5-0.9,3.1-1.4,4.7-1.7c20.5-3.1,41.3-3.7,61.9-1.7c3.3,0,6.5,0.6,9.8,1c1-0.1,2.1-0.1,3.1,0
	c1.6,0,3.2,0.1,4.8,0.3c3.2,0.4,6.3,1.4,9.2,2.8c5.9,2.8,10.8,7.3,14.1,12.9c1.7,2.8,2.9,5.8,3.6,9c0.4,1.6,0.6,3.2,0.8,4.8v2.4v2.2
	c0,3.3-0.2,6.5-0.6,9.8c-0.9,13.1-2.5,26.2-3.8,39.3c-0.8,9.4-4.3,18.3-10.2,25.7c22.1,0.6,44.1,1.6,66.1,2.6
	c18.5,0.9,31.2,6.2,32.4,13.5c1.2,7.3-13.7,12-31.6,13.1c-25,1.4-50.1,2.2-75.2,2.6c-4.5,0.1-8.8-1.7-12-4.8l-0.4-0.4
	C282.4,443.5,255.4,416,229,388.2z M238.5,93.4v2.1c0,22.4,0,44.8,0,67.2c67.1,1.8,134.9-3.6,201.3,6.3c37.6-1.2,75.2-2.9,112.8-3.3
	c23.4,0,46.9,1.4,70.2,3c3.6,0.2,7.2,0.9,10.6,2c-0.2-17.7,1.8-35.3,6.2-52.4l-1-15.3l-0.5-7.7v-1.9c0-0.3,0-0.4,0-0.6
	c-0.1-0.3-0.3-0.6-0.5-0.8c-0.6-0.9-1.6-1.5-2.6-1.7h-2.5h-7.7c-12.8-0.1-25.5-1.1-38.1-3c-2-0.2-4-0.9-5.8-2
	c-0.7,6.2-1.5,12.4-2.2,18.4c-1.3,10.3-5.8,13.6-10.6,9c-5.9-7-9.6-15.6-10.6-24.7c-3.1-16.6-5-33.4-5.8-50.2h-8.1l-15.8-1l-8.6,0.5
	c-0.3,21.8-1.6,43.6-3,65.4c16.6,3,33,7.4,48.8,13.1c6.3,2,12.1,4.3,12.7,7.5c0.3,1.6-1.7,4.3-4.5,4.6c-23,2-47.2,3.8-70.6,3.9
	c-9.5,0-17.3-7.7-17.3-17.3l0,0c0-7,0-14.1,0-21.1c-16.7,0-33.5,2.7-50.1-5.8c-10.8,1.2-21.5,2.9-32.4,3.3c-6.8-0.1-13.6-1.2-20.1-3
	c-0.4-0.1-0.8-0.3-1.2-0.5c-0.7,5.8-1.4,11.5-2.1,16.9c-1.3,10.3-5.8,13.6-10.6,9c-5.9-7-9.6-15.6-10.6-24.7
	c-3.1-16.6-5-33.4-5.8-50.2h-8.1l-16.1-1l-8.6,0.5c-0.3,21.8-1.6,43.6-3,65.4c16.6,3,33,7.4,48.8,13.1c6.3,2,12.1,4.3,12.7,7.5
	c0.3,1.6-1.7,4.3-4.5,4.6c-23,2-47.2,3.8-70.6,3.9c-9.5,0-17.3-7.7-17.3-17.3l0,0c0-7,0-14,0-21c-1,0.3-2.1,0.4-3.2,0.4
	c-12.1-0.3-24.3-0.4-36.5-0.5L238.5,93.4z M270.6,365.1c-8.3,0-16.6-0.6-24.8-1.9c21.9,20.9,43.8,41.8,65.4,63.4c0-9-0.3-18,0-27
	c0-7.9,0.4-15.8,1.3-23.7c0.5-3.6,1.1-9.3,1.8-8.5c0.9-1.1,1.2-2.6,0.9-4c0.3-0.6,0.6-1.2,0.8-1.8c-0.2,0.6-0.5,1.2-0.8,1.8
	c-0.6-0.3-1.3-0.5-2.1-0.6h-1h-0.5h-1.6l-13.1,1C288.1,364.4,279.3,365,270.6,365.1z"/>
</svg>
