<?xml version="1.0" encoding="utf-8"?>
<!-- Generator: Adobe Illustrator 22.1.0, SVG Export Plug-In . SVG Version: 6.00 Build 0)  -->
<svg version="1.1" id="Слой_1" xmlns="http://www.w3.org/2000/svg" xmlns:xlink="http://www.w3.org/1999/xlink" x="0px" y="0px"
	 viewBox="0 0 15 12.7" style="enable-background:new 0 0 15 12.7;" xml:space="preserve">
<style type="text/css">
	.st0{fill:#604E42;}
</style>
<title>icon-umbrella</title>
<path class="st0" d="M14.5,9.8c0.4-0.9,0.5-1.9,0.5-2.9c-0.1-1.7-0.8-3.4-2-4.6c0.2-0.3,0.4-0.6,0.5-1c0-0.1,0-0.3-0.1-0.3
	c-0.1,0-0.2,0-0.2,0c-0.2,0.3-0.5,0.5-0.7,0.7l-0.1-0.1c-0.1-0.1-0.2-0.2-0.4-0.3c-0.1-0.1-0.3-0.2-0.4-0.3C11.3,1,11,0.9,10.7,0.8
	c-0.3-0.1-0.6-0.3-0.9-0.4C9.7,0.4,9.6,0.3,9.4,0.3L9.2,0.2c-0.1,0-0.2,0-0.2,0L8.5,0.1L8,0.1c-0.2,0-0.3,0-0.5,0
	c-0.2,0-0.3,0-0.5,0L6.6,0.1c-0.2,0-0.3,0.1-0.5,0.1C5.8,0.3,5.5,0.4,5.2,0.5L4.8,0.7c-0.1,0-0.1,0.1-0.2,0.1L4.4,0.9
	C4.2,0.9,4.1,1,4,1.1L3.6,1.4C3.4,1.4,3.3,1.5,3.2,1.6L3,1.8L2.9,1.9l0,0l0,0l0,0c-0.3,0.3-0.3,0.7,0,0.9c0,0,0.1,0.1,0.1,0.1
	c0,0,0,0,0.1,0l0.1,0c0.1,0,0.2,0.1,0.4,0.1c0.5,0.2,0.9,0.6,1.3,1c0.2,0.2,0.3,0.4,0.5,0.7C5.4,5,5.4,5.2,5.5,5.5v0.1
	c0,0,0,0,0,0.1c0,0.1,0,0.1,0.1,0.2C5.6,5.9,5.7,6,5.9,6.1c0.1,0,0.1,0,0.2,0.1h0.1c0.1,0,0.1,0,0.2,0c0.3,0.1,0.5,0.2,0.7,0.3
	C7.5,6.7,7.9,7,8.2,7.3C8.5,7.6,8.7,8,8.9,8.4C8.9,8.5,9,8.6,9,8.7l0,0.2C9,9,9.1,9,9.1,9.1c0.1,0.1,0.1,0.1,0.2,0.1
	c0,0,0.1,0,0.1,0h0.1c0.1,0,0.2,0,0.3,0c0.4,0.1,0.8,0.2,1.2,0.4c0.2,0.1,0.4,0.2,0.5,0.3s0.2,0,0.1-0.1c-0.1-0.3-0.3-0.5-0.6-0.6
	c-0.3-0.2-0.6-0.3-0.9-0.4c0.7-0.6,1.3-1.3,1.7-2.2l0.1-0.2L12,6.2c0.3-0.6,0.5-1.2,0.7-1.8c0.1-0.3,0.1-0.6,0.1-0.9
	c0.7,1,1.1,2.1,1.3,3.3c0.2,1.4-0.1,2.8-0.8,4L13,11c-0.1,0.1-0.1,0.2-0.2,0.3l-0.1,0.1l0,0c0,0,0-0.1-0.1-0.2
	c-0.1-0.1-0.1-0.2-0.2-0.3c-0.1-0.2-0.3-0.3-0.4-0.5c-0.3-0.2-0.5-0.3-0.6-0.3c-0.1,0.1,0,0.2,0.2,0.5c0.1,0.1,0.2,0.3,0.3,0.5
	c0,0.1,0.1,0.2,0.1,0.3c0,0.1,0,0.1,0.1,0.2c0,0,0,0.1,0,0.1c0,0,0,0,0,0.1c0,0,0,0.1,0.1,0.1c0.2,0.3,0.6,0.4,0.9,0.2
	c0,0,0.1-0.1,0.1-0.1l0,0l0,0l0,0l0.1-0.1l0.2-0.3c0.1-0.1,0.1-0.2,0.2-0.3l0.2-0.3l0.2-0.3c0.1-0.1,0.1-0.2,0.2-0.3L14.5,9.8z
	 M11.4,2l-0.1,0c-0.2,0-0.3,0.1-0.5,0.1c-0.2,0-0.3,0.1-0.5,0.1C9.7,2.4,9.1,2.7,8.6,3.1C8,3.4,7.4,3.8,6.8,4.2
	C6.6,4.4,6.4,4.7,6.2,4.9c0,0,0-0.1,0-0.1C6,4.4,5.8,4.1,5.6,3.8C5.3,3.5,5,3.2,4.7,2.9c-0.3-0.3-0.6-0.5-1-0.6l0,0l0.1-0.1
	C3.9,2.2,3.9,2.1,4,2.1l0.4-0.3C5,1.5,5.6,1.2,6.3,1L6.5,1c0.1,0,0.2,0,0.2-0.1l0.5-0.1l0.5,0c0.2,0,0.3,0,0.5,0c0,0,0.1,0,0.1,0h0
	l-0.2,0C9.4,0.9,10.5,1.4,11.4,2z M12,2.6v0.2c0,0.1,0,0.2,0,0.4c0,0.1,0,0.2,0,0.4c0,0.1,0,0.2-0.1,0.4c-0.1,0.5-0.2,1-0.3,1.4
	c-0.3,0.7-0.7,1.4-1.2,2c-0.1,0.1-0.1,0.2-0.2,0.3C10.1,7.7,10,7.8,9.9,7.9L9.7,8.2c0,0-0.1,0.1-0.1,0.1C9.5,8,9.3,7.7,9.1,7.4
	C8.9,7,8.6,6.7,8.4,6.5C8.1,6.2,7.8,6,7.4,5.8C7.2,5.6,7,5.5,6.7,5.5c0.2-0.2,0.4-0.4,0.6-0.5c0.1-0.1,0.3-0.2,0.4-0.4
	C7.9,4.5,7.9,4.4,8,4.4l0.2-0.2l0.1-0.1L8.5,4c0.1-0.1,0.2-0.1,0.3-0.2C9,3.8,9.1,3.7,9.2,3.7c0.2-0.1,0.4-0.2,0.7-0.3
	c0.4-0.2,0.9-0.4,1.4-0.5C11.5,2.8,11.7,2.7,12,2.6z M0.4,9.4c0.1-0.1,0.1-0.1,0.2-0.2c0.1,0,0.1-0.1,0.2-0.1c0.1,0,0.2,0,0.3,0.1
	c0.1,0.1,0.1,0.2,0.1,0.3c0,0.1,0,0.1,0,0.2c0,0.1,0,0.1-0.1,0.2c-0.2,0.4-0.2,0.9,0,1.3c0,0,0,0,0,0.1c0.4,0.6,1.2,0.9,1.8,0.5
	c0,0,0,0,0,0c0,0,0.1-0.1,0.1-0.1c0,0,0.1-0.1,0.1-0.1l0.2-0.2c0.1-0.2,0.3-0.3,0.4-0.5c0.3-0.3,0.6-0.6,0.9-0.9
	c0.6-0.6,1.2-1.2,1.8-1.8C6.3,8,6.4,8,6.5,8c0.1,0,0.1,0.2,0.1,0.3c-0.2,0.5-0.5,1-0.9,1.4c-0.5,0.5-0.9,1-1.4,1.6L4,11.7l-0.2,0.2
	L3.8,12c0,0-0.1,0.1-0.1,0.1c-0.3,0.3-0.7,0.5-1.2,0.5c-0.2,0-0.4,0-0.7,0c-0.7-0.1-1.3-0.6-1.6-1.2c-0.1-0.3-0.2-0.7-0.2-1
	C0.1,10,0.2,9.7,0.4,9.4z"/>
<path class="st0" d="M2.1,12.7c-1.2,0-2.1-0.9-2.1-2.1c0-0.1,0-0.1,0-0.2c0-0.4,0.2-0.7,0.4-1l0,0c0.1-0.1,0.1-0.1,0.2-0.2
	c0.1-0.1,0.1-0.1,0.2-0.1c0.1,0,0.3,0,0.3,0.1l0,0c0.1,0.1,0.1,0.2,0.1,0.3c0,0.1,0,0.1,0,0.2c0,0.1,0,0.1-0.1,0.2
	c-0.2,0.4-0.2,0.9,0,1.3c0,0,0,0,0,0.1c0.4,0.6,1.1,0.8,1.7,0.5c0,0,0.1-0.1,0.1-0.1l0,0c0,0,0.1-0.1,0.1-0.1l0.2-0.2
	c0.1-0.2,0.3-0.3,0.4-0.5c0.2-0.3,0.5-0.6,0.9-0.9c0.2-0.2,0.4-0.4,0.6-0.6C5.4,8.9,5.8,8.4,6.2,8l0,0C6.3,8,6.4,7.9,6.5,8h0
	C6.6,8,6.6,8,6.7,8c0,0.1,0,0.2,0,0.3c-0.2,0.5-0.5,1-0.9,1.4c-0.1,0.2-0.3,0.3-0.4,0.5c-0.3,0.4-0.6,0.7-1,1.1l-0.4,0.4L3.8,12
	c0,0-0.1,0.1-0.1,0.1c-0.3,0.3-0.8,0.5-1.2,0.6C2.4,12.7,2.2,12.7,2.1,12.7z M0.5,9.5c-0.2,0.3-0.3,0.6-0.4,0.9c0,0.3,0,0.7,0.2,1
	c0.4,0.8,1.3,1.3,2.2,1.2h0c0.4,0,0.8-0.2,1.1-0.5c0,0,0.1-0.1,0.1-0.1L4,11.6l0.4-0.4c0.3-0.4,0.7-0.7,1-1.1
	C5.4,10,5.6,9.9,5.7,9.7c0.4-0.4,0.7-0.9,0.8-1.4c0-0.1,0-0.2,0-0.2c0,0,0,0-0.1,0c-0.1,0-0.1,0-0.2,0.1C5.9,8.5,5.5,8.9,5.1,9.3
	C4.9,9.5,4.7,9.7,4.6,9.9c-0.3,0.3-0.6,0.6-0.9,0.9c-0.1,0.2-0.3,0.3-0.4,0.5l-0.2,0.2c0,0-0.1,0.1-0.1,0.1c0,0-0.1,0.1-0.1,0.1l0,0
	c-0.7,0.4-1.5,0.1-1.9-0.5c0,0,0,0,0-0.1c-0.2-0.4-0.2-0.9,0-1.4C1,9.7,1,9.7,1,9.6c0,0,0-0.1,0-0.2v0c0-0.1,0-0.2,0-0.2
	C1,9.2,0.9,9.2,0.8,9.2h0c-0.1,0-0.1,0.1-0.2,0.1C0.6,9.3,0.5,9.4,0.5,9.5z M12.7,12.2c-0.2,0-0.5-0.1-0.6-0.3c0,0,0-0.1-0.1-0.1
	c0,0,0,0,0-0.1c0,0,0,0,0,0c0,0,0,0,0,0s0,0,0,0c0,0,0-0.1-0.1-0.1c0-0.1-0.1-0.2-0.1-0.3c-0.1-0.2-0.2-0.3-0.3-0.5l0,0
	c-0.2-0.3-0.2-0.4-0.2-0.5c0,0,0-0.1,0.1-0.1c0.1-0.1,0.4,0,0.6,0.3c0.2,0.1,0.3,0.3,0.4,0.5c0.1,0.1,0.1,0.2,0.2,0.3c0,0,0,0,0,0.1
	l0.1-0.1c0,0,0-0.1,0.1-0.1c0-0.1,0.1-0.1,0.1-0.2l0.2-0.3c0.7-1.2,1-2.6,0.8-4c-0.1-1.1-0.5-2.2-1.2-3.1c0,0.3-0.1,0.5-0.1,0.8
	c-0.1,0.6-0.3,1.3-0.7,1.8L12,6.4l-0.1,0.2c-0.4,0.8-0.9,1.5-1.6,2.1c0.3,0.1,0.6,0.2,0.8,0.4c0.2,0.2,0.4,0.4,0.6,0.7l0,0
	c0,0,0.1,0.1,0,0.2s-0.2,0-0.2,0c-0.1,0-0.2-0.1-0.3-0.2c-0.1,0-0.1-0.1-0.2-0.1c-0.4-0.2-0.7-0.3-1.1-0.4c-0.1,0-0.2,0-0.3,0H9.5
	c0,0-0.1,0-0.1,0c-0.1,0-0.2-0.1-0.2-0.1C9,9.1,9,9,9,8.9v0l0-0.2c0-0.1,0-0.2-0.1-0.3C8.7,8,8.4,7.7,8.1,7.4C7.8,7,7.5,6.7,7.1,6.5
	C6.9,6.4,6.6,6.3,6.4,6.2c-0.1,0-0.1,0-0.2,0H6.1c-0.1,0-0.2,0-0.2-0.1C5.7,6.1,5.6,6,5.5,5.8c0-0.1-0.1-0.1-0.1-0.2v0
	c0,0,0,0,0-0.1V5.5c0-0.2-0.1-0.5-0.2-0.7C5.1,4.6,4.9,4.4,4.7,4.2c-0.3-0.4-0.8-0.7-1.3-1C3.4,3.1,3.2,3.1,3.1,3.1L3.1,3
	C3,3,3,3,3,3C2.6,2.8,2.5,2.4,2.7,2c0-0.1,0.1-0.1,0.1-0.2l0,0l0,0L3,1.7l0.2-0.2c0.1-0.1,0.2-0.2,0.4-0.3L3.9,1
	C4,1,4.1,0.9,4.2,0.9c0,0,0.1,0,0.1-0.1l0.2-0.1c0.1,0,0.1,0,0.2-0.1l0.1,0l0.4-0.2c0.3-0.1,0.6-0.2,0.9-0.3c0.1,0,0.1,0,0.2,0
	c0.1,0,0.2,0,0.3-0.1L7.1,0c0.1,0,0.2,0,0.3,0c0.1,0,0.1,0,0.2,0C7.7,0,7.9,0,8,0l0.5,0L9,0.1l0.1,0c0.1,0,0.1,0,0.2,0l0.2,0.1
	c0,0,0.1,0,0.1,0c0.1,0,0.2,0.1,0.3,0.1c0.3,0.1,0.6,0.2,0.9,0.4c0.3,0.1,0.6,0.3,0.8,0.4c0.1,0.1,0.2,0.1,0.3,0.2
	c0,0,0.1,0.1,0.1,0.1c0.1,0.1,0.3,0.2,0.4,0.3l0,0c0.2-0.2,0.5-0.5,0.7-0.7l0,0C13.2,1,13.3,1,13.4,1h0c0.1,0,0.2,0.1,0.1,0.4
	c-0.1,0.4-0.3,0.7-0.5,1c1.2,1.2,1.9,2.9,2,4.6c0.1,1-0.1,2-0.5,2.9l0,0l-0.1,0.3c0,0.1-0.1,0.2-0.1,0.2c0,0,0,0.1-0.1,0.1L14,10.9
	l-0.2,0.3c0,0,0,0.1-0.1,0.1c0,0.1-0.1,0.1-0.1,0.2l-0.2,0.3L13.2,12l0,0c-0.1,0.1-0.1,0.1-0.2,0.2C12.9,12.2,12.8,12.2,12.7,12.2z
	 M11.5,10.2C11.5,10.2,11.5,10.2,11.5,10.2C11.5,10.2,11.5,10.2,11.5,10.2c-0.1,0.1,0.1,0.3,0.1,0.4l0,0c0.1,0.1,0.2,0.3,0.3,0.5
	c0.1,0.1,0.1,0.2,0.1,0.3c0,0.1,0,0.1,0.1,0.2c0,0,0,0,0,0.1c0,0,0,0,0,0s0,0,0,0c0,0,0,0,0,0c0,0,0,0.1,0.1,0.1
	c0.2,0.3,0.5,0.3,0.8,0.2c0,0,0.1-0.1,0.1-0.1l0,0l0-0.1l0.1-0.1l0.2-0.3c0-0.1,0.1-0.1,0.1-0.2c0,0,0-0.1,0.1-0.1l0.2-0.3l0.2-0.3
	c0,0,0-0.1,0.1-0.1c0-0.1,0.1-0.1,0.1-0.2l0.1-0.3c0.4-0.9,0.5-1.9,0.5-2.9c-0.1-1.7-0.8-3.3-2-4.6l0,0l0,0c0.2-0.3,0.4-0.6,0.5-1
	c0.1-0.2,0-0.2-0.1-0.2c-0.1,0-0.1,0-0.2,0c-0.2,0.3-0.5,0.5-0.7,0.7l0,0l-0.1-0.1c-0.1-0.1-0.2-0.2-0.4-0.3c0,0-0.1-0.1-0.1-0.1
	c-0.1-0.1-0.2-0.1-0.2-0.2C11.3,1.1,11,1,10.7,0.8c-0.3-0.1-0.6-0.3-0.9-0.4c-0.1,0-0.2-0.1-0.3-0.1c0,0-0.1,0-0.1,0L9.2,0.3
	c-0.1,0-0.1,0-0.2,0l-0.1,0L8.5,0.2L8,0.1c-0.2,0-0.3,0-0.5,0c-0.1,0-0.1,0-0.2,0c-0.1,0-0.2,0-0.3,0L6.6,0.2c-0.1,0-0.2,0-0.3,0.1
	c-0.1,0-0.1,0-0.2,0C5.9,0.3,5.5,0.4,5.3,0.5L4.8,0.7l-0.1,0c0,0-0.1,0-0.1,0.1L4.4,0.9c0,0-0.1,0-0.1,0.1C4.2,1,4.1,1.1,4,1.1
	L3.6,1.4C3.5,1.5,3.4,1.6,3.2,1.7L3.1,1.8L2.9,1.9l0,0c-0.2,0.2-0.2,0.6,0,0.8c0,0,0.1,0.1,0.1,0.1c0,0,0,0,0.1,0l0.1,0
	C3.3,3,3.4,3,3.5,3.1c0.5,0.2,0.9,0.6,1.3,1C5,4.3,5.1,4.5,5.3,4.7C5.4,5,5.5,5.2,5.5,5.4v0v0.1c0,0,0,0,0,0c0,0.1,0,0.1,0.1,0.2
	C5.7,5.9,5.8,6,5.9,6.1c0.1,0,0.1,0,0.2,0h0.1c0.1,0,0.1,0,0.2,0c0.3,0.1,0.5,0.2,0.7,0.3c0.4,0.2,0.8,0.5,1.1,0.9
	C8.5,7.6,8.8,8,9,8.4C9,8.5,9,8.6,9,8.7v0l0,0.2c0,0.1,0.1,0.1,0.1,0.2c0.1,0.1,0.1,0.1,0.2,0.1c0,0,0.1,0,0.1,0h0.1
	c0.1,0,0.2,0,0.3,0c0.4,0.1,0.8,0.2,1.2,0.4c0.1,0,0.1,0.1,0.2,0.1c0.1,0.1,0.2,0.1,0.3,0.2c0,0,0,0,0.1,0c0,0,0,0,0,0
	c-0.1-0.2-0.3-0.5-0.6-0.6c-0.3-0.2-0.6-0.3-0.9-0.4l-0.1,0l0.1-0.1c0.7-0.6,1.2-1.3,1.6-2.1l0.1-0.2L12,6.1
	c0.3-0.6,0.5-1.2,0.6-1.8c0.1-0.3,0.1-0.6,0.1-0.9l0-0.2l0.1,0.1c0.7,1,1.1,2.1,1.3,3.3c0.2,1.4-0.1,2.8-0.8,4L13.1,11
	c0,0.1-0.1,0.1-0.1,0.2c0,0,0,0.1-0.1,0.1l0,0l-0.1,0.1l-0.1,0.1l0-0.1c0,0,0,0,0-0.1c0,0,0-0.1,0-0.1c-0.1-0.1-0.1-0.2-0.2-0.3
	c-0.1-0.2-0.3-0.3-0.4-0.4C11.8,10.3,11.6,10.2,11.5,10.2L11.5,10.2z M9.6,8.4L9.6,8.4C9.4,8,9.3,7.7,9.1,7.4
	C8.9,7.1,8.6,6.8,8.3,6.5C8,6.2,7.7,6,7.4,5.8C7.2,5.7,7,5.6,6.7,5.5l-0.1,0l0.1-0.1C6.9,5.2,7.1,5,7.3,4.9l0,0
	c0.1-0.1,0.3-0.2,0.4-0.4C7.8,4.4,7.9,4.4,8,4.3l0.2-0.2L8.3,4l0.2-0.1c0.1-0.1,0.2-0.1,0.3-0.2c0.1,0,0.1-0.1,0.2-0.1
	c0,0,0.1,0,0.1-0.1c0.2-0.1,0.3-0.2,0.5-0.2c0.1,0,0.1-0.1,0.2-0.1c0.4-0.2,0.9-0.4,1.4-0.5c0.3-0.1,0.5-0.2,0.8-0.3l0.1,0v0.3
	c0,0.1,0,0.2,0,0.3v0c0,0.1,0,0.2,0,0.3c0,0,0,0.1,0,0.1c0,0.1,0,0.3-0.1,0.4c-0.1,0.5-0.2,1-0.3,1.4v0l0,0c-0.3,0.7-0.7,1.4-1.2,2
	c0,0.1-0.1,0.1-0.1,0.2c0,0-0.1,0.1-0.1,0.1c0,0.1-0.1,0.1-0.1,0.2c0,0-0.1,0.1-0.1,0.1L9.7,8.2C9.7,8.3,9.7,8.3,9.6,8.4L9.6,8.4z
	 M6.9,5.4c0.2,0.1,0.4,0.2,0.6,0.3c0.3,0.2,0.7,0.4,1,0.7C8.7,6.7,8.9,7,9.2,7.3c0.2,0.3,0.3,0.6,0.4,0.9c0,0,0,0,0-0.1l0.2-0.3
	c0,0,0.1-0.1,0.1-0.1c0-0.1,0.1-0.1,0.1-0.2c0,0,0.1-0.1,0.1-0.1c0,0,0.1-0.1,0.1-0.2l0,0c0.5-0.6,0.9-1.3,1.2-2
	c0.1-0.5,0.2-1,0.3-1.4c0-0.1,0-0.2,0.1-0.4c0,0,0-0.1,0-0.1c0-0.1,0-0.2,0-0.3v0c0-0.1,0-0.2,0-0.3V2.6c-0.2,0.1-0.5,0.2-0.7,0.3
	C10.8,3,10.3,3.2,9.9,3.4c-0.1,0-0.1,0.1-0.2,0.1C9.5,3.6,9.4,3.6,9.2,3.7c0,0-0.1,0-0.1,0.1C9,3.8,8.9,3.8,8.9,3.9
	C8.8,3.9,8.7,4,8.6,4L8.4,4.1L8.3,4.2L8,4.4C8,4.5,7.9,4.5,7.8,4.6C7.7,4.7,7.5,4.8,7.4,5C7.2,5.1,7.1,5.3,6.9,5.4z M6.2,5l0-0.1
	c0,0,0,0,0,0c0,0,0,0,0-0.1C6,4.5,5.8,4.1,5.5,3.8C5.3,3.5,5,3.2,4.7,3c-0.3-0.3-0.6-0.5-1-0.6l-0.1,0l0.1-0.1C3.8,2.1,3.9,2.1,4,2
	l0.4-0.3C5,1.4,5.6,1.2,6.3,1l0.2-0.1c0.1,0,0.2,0,0.3-0.1l0.5-0.1l0.5,0c0.1,0,0.2,0,0.3,0c0.1,0,0.1,0,0.2,0l0,0c0,0,0.1,0,0.1,0
	h0l0,0.1c1.1,0.1,2.1,0.5,3,1.2l0.1,0.1l-0.3,0c-0.1,0-0.2,0-0.3,0.1c-0.1,0-0.1,0-0.2,0c-0.2,0-0.3,0.1-0.5,0.1
	C9.7,2.5,9.1,2.7,8.6,3.1l0,0l0,0C8,3.5,7.4,3.8,6.9,4.3C6.6,4.5,6.4,4.7,6.2,5L6.2,5z M3.8,2.3c0.3,0.2,0.7,0.4,0.9,0.6
	c0.3,0.3,0.6,0.5,0.8,0.8c0.3,0.3,0.5,0.7,0.6,1.1c0.2-0.2,0.4-0.4,0.6-0.6c0.5-0.4,1.1-0.8,1.8-1.1c0.5-0.4,1.1-0.7,1.7-0.9
	c0.2,0,0.3-0.1,0.5-0.1c0.1,0,0.1,0,0.2,0C11,2,11.1,2,11.2,2c-0.9-0.6-1.9-1-3-1.1l0,0c0,0-0.1,0-0.1,0c-0.1,0-0.2,0-0.3,0l-0.5,0
	L6.8,1C6.7,1,6.6,1,6.5,1L6.3,1.1C5.7,1.3,5,1.5,4.5,1.9L4,2.1C4,2.2,3.9,2.2,3.8,2.3L3.8,2.3z"/>
</svg>
