<?xml version="1.0" encoding="utf-8"?>
<!-- Generator: Adobe Illustrator 19.0.1, SVG Export Plug-In . SVG Version: 6.00 Build 0)  -->
<svg version="1.1" id="Слой_1" xmlns="http://www.w3.org/2000/svg" xmlns:xlink="http://www.w3.org/1999/xlink" x="0px" y="0px"
	 viewBox="315.3 64.9 329.2 445.9" style="enable-background:new 315.3 64.9 329.2 445.9;" xml:space="preserve">
<style type="text/css">
	.st0{fill:#604E42;}
</style>
<g>
	<g>
		<path class="st0" d="M626.9,407.2c-7.5-7.5-17.3-12.7-27.6-14.4L586,357.1c3.5,0.6,6.3,1.2,9.8,1.2c17.3,0,33.4-9.8,41.5-25.3
			c9.8-19,5.2-42-10.9-55.9l-58.2-50.1c7.5-13.8,12.1-30,12.1-46.7c0-10.9-1.7-21.3-5.2-31.7c9.2-8.6,15-21.3,15-34
			c0-25.9-20.7-46.7-46.7-46.7c-13.8,0-27.1,6.3-35.7,16.7c-17.9-5.2-36.3-5.2-54.1,0.6C444.9,74.3,431.6,68,417.2,68
			c-25.9,0-46.7,20.7-46.7,46.7c0,13.8,5.8,26.5,16.1,35.1c-3.5,9.8-4.6,20.2-4.6,30.5c0,16.7,4,32.3,11.5,46.1l-59.9,51.3
			c-16.1,13.8-20.2,36.9-10.4,55.9c8.1,15.6,24.2,25.3,41.5,25.3c3.5,0,6.3-0.6,9.8-1.2l-13.2,35.1c-10.4,1.7-20.2,6.9-27.6,14.4
			c-20.7,20.7-20.7,54.7,0,75.5l10.4,10.4c10.4,10.4,24.2,15.6,37.4,15.6c13.8,0,27.1-5.2,37.4-15.6c9.2-9.2,13.8-20.7,15-32.8
			c0-0.6,0-1.2,0-1.7c0-17.9,14.4-37.4,46.1-37.4c31.1,0,45.5,19.6,45.5,37.4v0.6c0.6,12.7,5.8,24.8,15.6,34
			c10.4,10.4,24.2,15.6,37.4,15.6c13.2,0,27.1-5.2,37.4-15.6l10.4-10.4C647.6,461.4,647.6,428,626.9,407.2z M417.2,84.7
			c10.4,0,19.6,5.2,25.3,14.4l3.5,6.3l6.9-2.3c17.9-6.3,36.9-6.9,55.3-0.6l6.3,2.3l3.5-5.8c5.2-8.6,15-13.8,24.8-13.8
			c16.1,0,29.4,13.2,29.4,29.4c0,9.8-4.6,18.4-12.7,24.2l-5.8,4l2.9,6.3c4,9.8,6.3,20.2,6.3,31.1c0,45.5-36.9,81.8-81.8,81.8
			s-81.8-36.9-81.8-81.8c0-10.4,1.7-20.7,5.8-30l2.9-6.9l-5.8-4c-8.6-5.2-13.8-15-13.8-24.8C387.8,97.9,401.1,84.7,417.2,84.7z
			 M406.3,480.4c-13.8,13.8-36.9,13.8-50.7,0L345.2,470c-13.8-13.8-13.8-36.9,0-50.7c6.9-6.9,16.1-10.4,25.3-10.4
			c9.8,0,18.4,4,25.3,10.4l10.4,10.4C420.7,443.5,420.7,466.6,406.3,480.4z M480,403.2c-24.8,0-42.6,10.4-53,24.8
			c-2.3-4-5.2-7.5-8.1-10.4l-10.4-10.4c-8.1-8.1-18.4-13.2-29.4-15l16.1-42l27.1-9.8c4.6-1.7,6.9-6.3,5.2-10.9
			c-1.7-4.6-6.3-6.9-10.9-5.2l-44.4,15.6c-13.2,4-27.6-2.3-34-15c-6.3-12.1-3.5-26.5,6.3-35.1l57.6-49.5
			c18.4,23.6,46.7,38.6,78.3,38.6s59.9-15,77.8-38l56.4,49c9.8,8.6,12.7,23.6,6.9,35.1c-6.3,12.7-20.7,18.4-33.4,15l-44.9-15.6
			c-4.6-1.7-9.2,0.6-10.9,5.2c-1.7,4.6,0.6,9.2,5.2,10.9l27.1,9.8l16.1,42c-10.9,1.7-21.3,6.9-29.4,15l-10.4,10.4
			c-3.5,3.5-5.8,6.9-8.1,10.4C523.2,413.6,505.3,403.2,480,403.2z M614.8,470l-10.4,10.4c-13.8,13.8-36.9,13.8-50.7,0
			c-13.8-13.8-13.8-36.9,0-50.7l10.4-10.4c6.9-6.9,16.1-10.4,25.3-10.4c9.8,0,18.4,4,25.3,10.4C629.2,433.2,629.2,456.2,614.8,470z"
			/>
		<path class="st0" d="M578.5,510.7c-14.5,0-28.7-5.9-38.9-16.2c-9.8-9.2-15.6-21.8-16.2-35.4l0-0.7c0-17-13.6-35.3-43.4-35.3
			c-30.2,0-44,18.3-44,35.3l0,1.9c-1.3,13.4-6.7,25.2-15.6,34.1c-10.4,10.4-24.3,16.2-38.9,16.2c-14.5,0-28.7-5.9-38.9-16.2
			l-10.4-10.4C321.8,473.8,316,459.8,316,445s5.7-28.8,16.2-39.2c7.6-7.6,17.3-12.8,27.6-14.8l11.5-30.6c-2.1,0.3-4.2,0.6-6.5,0.6
			c-18,0-35-10.4-43.4-26.5c-10.3-20.1-5.9-44.1,10.9-58.5l58.6-50.2c-7.3-14-11-29.3-11-45.6c0-11.4,1.4-21.2,4.3-29.9
			c-10-8.9-15.8-21.9-15.8-35.8c0-13.1,5.1-25.4,14.2-34.6c9.2-9.2,21.4-14.2,34.6-14.2c14.5,0,27.9,6.2,37,16.9
			c17.2-5.3,34.9-5.4,52.7-0.5c9.1-10.3,22.6-16.4,36.4-16.4c13.1,0,25.4,5.1,34.6,14.2c9.2,9.2,14.2,21.4,14.2,34.6
			c0,12.6-5.5,25.5-14.7,34.6c3.3,10.3,4.9,20.4,4.9,31.1c0,15.7-4,31.6-11.5,46.2l56.9,49c17,14.5,21.7,38.6,11.4,58.5
			c-8.3,16.1-25.4,26.5-43.4,26.5c-2.3,0-4.4-0.3-6.5-0.6l11.5,31.1c10.2,2,20,7.2,27.6,14.8l0,0l0,0c10.5,10.5,16.2,24.3,16.1,39
			c-0.1,14.8-6,28.8-16.7,39.4l-10.4,10.4C607.2,504.8,593,510.7,578.5,510.7z M480,418.9c31.3,0,47.6,19.9,47.6,39.6v0.6
			c0.6,12.4,5.9,23.9,14.9,32.4c9.5,9.5,22.6,15,36,15s26.4-5.4,35.9-14.9l10.4-10.4c9.9-9.9,15.4-22.8,15.4-36.5
			c0.1-13.6-5.2-26.3-14.9-36l0,0c-7.3-7.3-16.7-12.2-26.5-13.8l-1.2-0.2l-15-40.3l4.9,0.8c2.8,0.5,5.3,0.9,8.1,0.9
			c16.4,0,32-9.5,39.6-24.2c9.3-18.1,5-40-10.4-53.3l-59.5-51.2l0.8-1.5c7.7-14.3,11.8-30.1,11.8-45.6c0-10.6-1.7-20.8-5.1-31
			l-0.4-1.3l1-0.9c9-8.4,14.3-20.5,14.3-32.4c0-24.6-20-44.5-44.5-44.5c-13,0-25.8,6-34.1,15.9l-0.9,1.1l-1.3-0.4
			c-17.9-5.2-35.7-5-52.9,0.6l-1.4,0.5l-0.9-1.2c-8.3-10.5-20.9-16.5-34.6-16.5c-24.6,0-44.5,20-44.5,44.5
			c0,13.3,5.5,25.2,15.4,33.5l1.1,0.9l-0.5,1.4c-3,8.6-4.5,18.3-4.5,29.8c0,16.1,3.8,31.3,11.3,45.1l0.8,1.5l-61.2,52.4
			c-15.2,13.1-19.3,35-9.9,53.3c7.6,14.7,23.2,24.2,39.6,24.2c2.8,0,5.3-0.4,8.1-0.9l4.9-0.8l-15,39.7l-1.2,0.2
			c-9.8,1.6-19.2,6.5-26.5,13.8c-9.6,9.6-14.9,22.5-14.9,36.2s5.3,26.6,14.9,36.2l10.4,10.4c9.5,9.5,22.6,14.9,35.9,14.9
			c13.7,0,26.2-5.2,35.9-14.9c8.3-8.3,13.1-18.9,14.4-31.4v-1.6C431.8,439.4,446.9,418.9,480,418.9z M380.9,492.9
			c-10.2,0-19.8-3.9-26.8-11l-10.4-10.4c-7.1-7.1-11-16.6-11-26.8c0-10.2,3.9-19.8,11-26.8c7.1-7.1,16.6-11,26.8-11
			c9.7,0,19,3.8,26.8,10.9l10.4,10.4c7.4,7.1,11.4,16.6,11.4,26.8c0,10.2-4.1,19.8-11.4,26.9C400.7,489,391.1,492.9,380.9,492.9z
			 M370.6,411.1c-9.1,0-17.6,3.5-23.8,9.7c-6.3,6.3-9.7,14.8-9.7,23.8c0,9.1,3.5,17.6,9.7,23.8l10.4,10.4c6.3,6.3,14.8,9.7,23.8,9.7
			c9.1,0,17.6-3.5,23.8-9.7l0,0c6.5-6.3,10.1-14.7,10.1-23.8c0-9.1-3.6-17.5-10.1-23.8l-10.4-10.4
			C387.5,414.5,379.2,411.1,370.6,411.1z M579.1,492.8c-9.8,0-19.6-3.6-26.8-10.9c-14.6-14.6-14.6-39.1,0-53.7l10.4-10.4
			c7.1-7.1,16.6-11,26.8-11c9.7,0,19,3.8,26.8,10.9c7.4,7.1,11.5,16.7,11.5,26.9c0,10.2-4.1,19.8-11.4,26.9l-10.4,10.4
			C598.6,489.2,588.9,492.8,579.1,492.8z M589.4,411.1c-9.1,0-17.6,3.5-23.8,9.7l-10.4,10.4c-12.9,12.9-12.9,34.8,0,47.7
			c6.3,6.3,14.8,9.7,23.8,9.7c9.1,0,17.6-3.5,23.8-9.7l10.4-10.4c6.5-6.3,10.1-14.7,10.1-23.8s-3.6-17.5-10.1-23.8
			C606.3,414.5,598.1,411.1,589.4,411.1z M426.8,431.9l-1.6-2.9c-1.9-3.4-4.5-6.7-7.7-9.9l-10.4-10.4c-7.6-7.6-17.6-12.7-28.2-14.4
			l-2.6-0.4l17.4-45.4l28-10.1c1.7-0.6,3.1-1.8,3.8-3.3c0.7-1.5,0.8-3.2,0.1-4.9c-0.6-1.7-1.8-3.1-3.3-3.8c-1.5-0.7-3.2-0.8-4.9-0.1
			L373,341.8c-14.4,4.4-29.8-2.4-36.6-16c-6.7-12.7-3.9-28.2,6.8-37.7l59.3-51l1.4,1.8c18.7,24,46.7,37.8,76.7,37.8
			c30,0,57.8-13.6,76.1-37.2l1.4-1.8l58.1,50.4c10.6,9.3,13.7,25.2,7.4,37.7c-6.6,13.2-21.7,19.9-35.9,16.1l-0.1,0l-44.9-15.6
			c-1.7-0.7-3.4-0.6-4.9,0.1c-1.5,0.7-2.7,2.1-3.3,3.8c-1.3,3.4,0.4,6.9,3.9,8.2l28,10.1l17.4,45.4l-2.6,0.4
			c-10.6,1.7-20.6,6.8-28.2,14.4l-10.4,10.4c-3.3,3.3-5.5,6.6-7.8,10l-1.8,2.6l-1.8-2.6c-10.5-15.4-28.6-23.8-51.2-23.8
			c-22,0-40.2,8.5-51.3,23.9L426.8,431.9z M480,401.1c22.8,0,41.5,8.2,52.9,23.2c1.8-2.7,3.9-5.4,6.6-8.2l10.4-10.4
			c7.6-7.6,17.5-12.9,28-15.1L563,351.9l-26.2-9.5c-5.8-2.2-8.6-8.1-6.5-13.7c1-2.8,3-4.9,5.5-6.1c2.5-1.2,5.5-1.3,8.2-0.3
			l44.8,15.5c12.2,3.3,25.2-2.5,30.9-13.9c5.3-10.7,2.6-24.7-6.4-32.6l-54.8-47.5c-19.1,23.6-47.4,37.1-78,37.1
			c-30.6,0-59.1-13.7-78.6-37.7L346,291.3c-9.2,8.1-11.6,21.5-5.8,32.5c5.9,11.8,19.2,17.7,31.5,13.9l44.3-15.5
			c2.7-1,5.6-0.9,8.2,0.3c2.5,1.2,4.4,3.4,5.5,6.1c1,2.8,0.9,5.7-0.3,8.2c-1.2,2.5-3.4,4.4-6.1,5.5l-26.2,9.5l-14.9,38.7
			c10.5,2.2,20.4,7.5,28,15.1l10.4,10.4c2.6,2.6,4.9,5.3,6.7,8.1C439.2,409.3,457.8,401.1,480,401.1z M481.2,264.2
			c-46.3,0-83.9-37.6-83.9-83.9c0-11.4,2-21.8,5.9-30.8l2.2-5.3l-4.3-3c-9-5.4-14.8-15.8-14.8-26.6c-0.3-8.5,2.8-16.6,8.7-22.6
			c5.9-6.1,13.8-9.4,22.3-9.4c11.1,0,21,5.6,27.1,15.4l0.1,0.1l2.6,4.8l5.2-1.7c18.8-6.7,38.4-6.9,56.7-0.6l4.7,1.7l2.6-4.3
			c5.4-9,15.9-14.9,26.6-14.9c17.4,0,31.5,14.1,31.5,31.5c0,10.5-4.8,19.7-13.6,25.9l-4.3,3l2.1,4.7c4.3,10.5,6.5,21.3,6.5,32
			C565.1,226.6,527.4,264.2,481.2,264.2z M417.2,86.8c-7.3,0-14.1,2.9-19.2,8.1c-5.1,5.2-7.7,12.2-7.5,19.6c0,9.3,5,18.4,12.8,23
			l0.1,0.1l7.2,5l-3.5,8.5c-3.7,8.5-5.6,18.3-5.6,29.1c0,43.9,35.7,79.7,79.7,79.7c43.9,0,79.7-35.7,79.7-79.7
			c0-10.1-2.1-20.3-6.2-30.3l-3.6-7.9l7.2-5c7.6-5.4,11.8-13.4,11.8-22.5c0-15-12.2-27.3-27.3-27.3c-9.3,0-18.3,5-22.9,12.8
			l-4.4,7.3l-8-2.9c-17.3-6-36-5.8-53.9,0.6L445,108l-4.3-7.8C435.4,91.7,426.8,86.8,417.2,86.8z"/>
	</g>
	<g>
		<path class="st0" d="M459.8,204.5l12.7,13.2c4,4.6,11.5,4.6,15.6,0l12.1-13.2c6.3-6.9,1.2-17.9-8.1-17.9h-24.2
			C458.7,186.6,453.5,197.6,459.8,204.5z"/>
		<path class="st0" d="M480.3,223.3L480.3,223.3c-3.6,0-7.1-1.5-9.4-4.2l-12.6-13.2c-3.4-3.8-4.3-9-2.3-13.6
			c2.1-4.8,6.7-7.8,11.9-7.8h24.2c5.2,0,9.8,3,11.9,7.8c2.1,4.7,1.2,9.9-2.3,13.6l-12.1,13.2C487.3,221.8,483.9,223.3,480.3,223.3z
			 M461.4,203l12.7,13.2c1.6,1.8,3.8,2.8,6.2,2.8s4.7-1,6.2-2.7l12.1-13.3c2.3-2.5,2.9-5.9,1.5-9.1c-1.1-2.5-3.8-5.2-8-5.2h-24.2
			c-4.2,0-6.9,2.7-8,5.2C458.5,197.1,459.1,200.5,461.4,203z"/>
	</g>
	<g>
		<circle class="st0" cx="505.3" cy="163" r="7.5"/>
		<path class="st0" d="M505.3,172.6c-5.3,0-9.6-4.3-9.6-9.6s4.3-9.6,9.6-9.6c5.3,0,9.6,4.3,9.6,9.6S510.6,172.6,505.3,172.6z
			 M505.3,157.6c-3,0-5.4,2.4-5.4,5.4s2.4,5.4,5.4,5.4c3,0,5.4-2.4,5.4-5.4S508.3,157.6,505.3,157.6z"/>
	</g>
	<g>
		<circle class="st0" cx="454.7" cy="163" r="7.5"/>
		<path class="st0" d="M454.7,172.6c-5.3,0-9.6-4.3-9.6-9.6s4.3-9.6,9.6-9.6s9.6,4.3,9.6,9.6S460,172.6,454.7,172.6z M454.7,157.6
			c-3,0-5.4,2.4-5.4,5.4s2.4,5.4,5.4,5.4s5.4-2.4,5.4-5.4S457.6,157.6,454.7,157.6z"/>
	</g>
</g>
</svg>
