<?xml version="1.0" encoding="utf-8"?>
<!-- Generator: Adobe Illustrator 22.1.0, SVG Export Plug-In . SVG Version: 6.00 Build 0)  -->
<svg version="1.1" id="_x2018_лой_x5F_1" xmlns="http://www.w3.org/2000/svg" xmlns:xlink="http://www.w3.org/1999/xlink"
	 x="0px" y="0px" viewBox="0 0 130 164.6" style="enable-background:new 0 0 130 164.6;" xml:space="preserve">
<g>
	<g>
		<path d="M87.3,118.6c-0.1,0-0.1,0-0.2,0l-66.9-18.1c-0.3-0.1-0.5-0.4-0.4-0.7l3.8-20c0-0.2,0.1-0.3,0.3-0.4
			c0.2-0.1,0.3-0.1,0.5-0.1L91,100.6c0.3,0.1,0.5,0.4,0.4,0.7l-3.5,16.9c0,0.2-0.1,0.3-0.3,0.4C87.5,118.6,87.4,118.6,87.3,118.6z
			 M21.1,99.5l65.7,17.7l3.3-15.7L24.6,80.8L21.1,99.5z"/>
	</g>
	<g>
		<path d="M85.3,81.7c0,0-0.1,0-0.1,0l-54.3-13c-0.3-0.1-0.5-0.4-0.5-0.7l4-20.2c0-0.2,0.1-0.3,0.3-0.4c0.2-0.1,0.3-0.1,0.5,0
			l53.5,20.1c0.3,0.1,0.5,0.4,0.4,0.7l-3.2,13.1C85.8,81.5,85.6,81.7,85.3,81.7z M31.7,67.6l53.1,12.7l3-12L35.5,48.6L31.7,67.6z"/>
	</g>
	<g>
		<path d="M78.2,47.5c-0.1,0-0.1,0-0.2,0l-21.8-7.1c-0.3-0.1-0.5-0.4-0.4-0.7l2.6-10c0-0.2,0.1-0.3,0.3-0.4c0.1-0.1,0.3-0.1,0.5-0.1
			l21.2,6.4c0.3,0.1,0.5,0.4,0.4,0.7l-2,10.6c0,0.2-0.1,0.3-0.3,0.4C78.4,47.5,78.3,47.5,78.2,47.5z M57.1,39.4l20.6,6.7l1.7-9.4
			l-20.1-6.1L57.1,39.4z"/>
	</g>
	<g>
		<path d="M94.8,86c1.2-0.3,4.7-2.1,3.7-3.8c-1.4-2.2-4.2,1.3-4.6,2.8c-1,0.4-2,0.8-3,1c0.5-0.6,1-1.3,1.3-2.1
			c0.4-1.1,0-2.2-1.2-2.5c-2.1-0.4-2.5,3.3-2.3,4.7c0,0.1,0.1,0.2,0.1,0.3c-1.9,0.3-3.9,0.3-5.8,0.2c0.7-0.2,1.3-0.5,1.9-1
			c0.8-0.6,1.1-1.9,0-2.5c-0.9-0.5-1.9,0.3-2.5,0.9c-0.7,0.7-1.4,1.5-1.8,2.4c-1-0.1-2-0.2-3-0.3c-1.5-0.2-3.1-0.4-4.6-0.6
			c1.5-0.5,3.1-1.4,1.9-2.7c-1.4-1.4-3.8,1.2-4.7,2.2c-2.7-0.5-5.4-1-8-1.6c1.6-0.6,3.5-1.9,2.2-3.2c-1.3-1.3-3.3,1.1-4.1,2.5
			c-0.1,0.1-0.1,0.1-0.2,0.2c0,0,0,0,0,0c-1.9-0.4-3.8-0.8-5.7-1.2c1.5-0.8,3.2-2.1,2-3.2c-1.5-1.4-3.3,1.9-4.5,2.7
			c-2.5-0.6-5-1.1-7.4-1.7c1.2-0.5,2.7-1.4,1.6-2.4c-1.2-1.2-3,0.8-3.8,1.9c-2-0.5-4-1-6-1.5c1.2-0.4,2.2-1.2,1.8-2.5
			c-0.1-0.3-0.4-0.4-0.7-0.4c-1.4,0.3-2.9,1-3.7,2.2c-2.2-0.6-4.4-1.1-6.7-1.7c2.1-0.4,4.4-1.3,3.3-3.1c-1.4-2.2-5.2,1.1-6.2,2.3
			c0,0.1-0.1,0.1-0.1,0.2c-0.3,0.2-0.4,0.8,0.1,1c-0.1,2,2.3,5.3,4.5,4.5c1.7-0.7,0.5-2.3-0.7-3.4c1.8,0.5,3.6,1,5.5,1.4
			c-0.2,0.8,0.2,1.6,0.6,2.3c0.5,0.8,1.4,1.7,2.5,1.5c1.1-0.2,1.2-1.1,0.8-2c-0.2-0.4-0.5-0.7-0.7-1c1.9,0.5,3.9,1,5.8,1.4
			c0.1,0.8,0.4,1.6,0.7,2.3c0.4,0.8,1,1.8,2,1.8c1.1-0.1,1.4-1.2,1.1-2.1c-0.2-0.4-0.4-0.8-0.7-1.2c2.1,0.5,4.2,1,6.3,1.4
			c0.3,0.8,0.7,1.5,1.1,2.2c0.4,0.7,1.1,1.8,2,1.9c0.9,0.1,1.5-0.8,1.2-1.6c-0.3-0.7-0.8-1.3-1.4-1.9c2,0.4,3.9,0.8,5.9,1.2
			c0,1.7,1.3,4.5,3,4.2c1.2-0.2,1.5-1.5,1.1-2.4c-0.2-0.4-0.5-0.7-0.8-1.1c1.4,0.3,2.8,0.6,4.3,0.8c1,0.2,1.9,0.4,2.9,0.5
			c-0.2,1.8,1.5,5.3,3.6,4.6c1.9-0.7,0.6-2.8-0.7-4.1c2.4,0.4,4.7,0.7,7.1,0.8c-0.1,1,0.6,2.2,1.2,3c0.6,0.8,1.7,2.2,2.9,1.8
			c1.9-0.7-0.1-3.3-1.4-4.7c2.1,0.1,4.2,0,6.3-0.3l0,0c0.3,1.2,2.7,4.2,4.2,3.1c0.9-0.7,0.3-1.8-0.3-2.4c-0.4-0.4-1-0.8-1.6-1.2
			c0.8-0.2,1.6-0.5,2.4-0.9C94.5,86,94.6,86,94.8,86z M26.8,73.5c0.4-0.3,1.9-1.4,2.4-0.8c0.6,0.7-1.8,1.3-3.5,1.7
			C26,74,26.4,73.7,26.8,73.5z M28.1,78.9c-0.4,0.7-1.8-0.8-2-1.1c-0.4-0.5-0.9-1.3-1-2c0.1,0,0.3,0.1,0.4,0.1c0,0,0.1,0.1,0.1,0.1
			C26,76.4,28.5,78.3,28.1,78.9z M36.7,76c-0.3,0.4-0.9,0.6-1.5,0.8C35.7,76.4,36.2,76.2,36.7,76z M36.2,80.7
			c-0.3,0.4-1.1-0.6-1.3-0.8c-0.2-0.3-0.9-1.2-0.6-1.6c0.1,0,0.2,0,0.2,0.1c0.3,0.4,0.7,0.8,1,1.2C35.7,79.6,36.4,80.4,36.2,80.7z
			 M44.6,78.1c0.1-0.1,0.2-0.1,0.4-0.2c0,0,0.1,0,0.1,0c0,0-0.1,0.1-0.1,0.1c-0.2,0.2-0.5,0.3-0.7,0.4c0,0-0.1,0-0.1,0
			C44.3,78.3,44.5,78.2,44.6,78.1z M44.5,83.1c-0.5-0.2-0.8-1.2-1-1.7c-0.1-0.2-0.1-0.4-0.2-0.6c0.5,0.3,1,0.8,1.2,1.3
			C44.8,82.3,45.1,83.4,44.5,83.1z M55.5,79.5c0,0.1,0,0.1-0.1,0.2c-0.2,0.4-0.6,0.6-1,0.8c-0.2,0.1-0.4,0.3-0.7,0.4
			C54.3,80.3,54.8,79.8,55.5,79.5z M54.3,84.6c0.1,0.2,0.4,0.5,0.3,0.7c0,0,0,0,0,0c-0.1,0-0.2-0.2-0.3-0.2c-0.5-0.5-1-1.3-1.3-2
			C53.4,83.6,53.9,84.1,54.3,84.6z M62.9,81.4c0.1-0.1,0.6-0.4,0.6-0.4c0.2,0.3-0.6,0.8-1.5,1.2C62.4,82,62.6,81.7,62.9,81.4z
			 M62.9,87.3c-0.5,0-1-1.1-1.2-1.5c-0.1-0.4-0.3-0.8-0.4-1.2c0.6,0.3,1.1,0.7,1.6,1.2C63.1,86.1,63.8,87.4,62.9,87.3z M72.2,84.6
			c0.3-0.2,1.3-1.3,1.8-1c0.4,0.2-0.7,0.7-0.8,0.8C72.8,84.5,72.5,84.6,72.2,84.6C72.1,84.7,72.2,84.6,72.2,84.6z M73.8,89.8
			c-0.6,0.2-1.3-1-1.5-1.5c-0.2-0.5-0.6-1.2-0.5-1.8c0,0,0.1,0.1,0.1,0.1C72.4,86.9,74.8,89.4,73.8,89.8z M82.7,85.2
			c0.2-0.3,1.1-1.4,1.6-1.2c0.7,0.2-0.8,1.1-1,1.2c-0.3,0.1-0.6,0.3-0.9,0.4C82.4,85.5,82.5,85.4,82.7,85.2z M84.3,91.3
			c-0.4,0.3-1.5-1.3-1.6-1.5c-0.3-0.5-0.9-1.4-0.9-2.1C82.3,88,84.9,90.8,84.3,91.3z M90.8,84.1c-0.3,0.5-0.7,1-1.1,1.5
			c0-0.5,0.1-0.9,0.1-1.4c0.1-0.4,0.2-1.6,0.8-1.7C91.6,82.2,91,83.8,90.8,84.1z M92.2,88.2c0.2,0.1,1.3,1.1,0.9,1.3
			c-0.3,0.2-1.2-0.8-1.4-1c-0.3-0.3-0.6-0.7-0.8-1.1C91.4,87.7,91.8,87.9,92.2,88.2z M96.1,83.5c0.1-0.2,1.2-1.2,1.4-0.7
			c0.2,0.4-1.2,1.2-1.4,1.4c-0.3,0.2-0.5,0.3-0.8,0.5C95.5,84.2,95.8,83.8,96.1,83.5z"/>
	</g>
	<g>
		<path d="M86.2,60c-2-0.8-4.1-1.3-6.1-2.1c-0.3-0.1-0.6-0.3-0.9-0.4c0.1-1.5-0.3-2.9-1.1-4.1c-0.6-0.8-1.9-1.6-2.8-0.6
			c-0.7,0.8,0,2,0.5,2.7c0.1,0.2,0.3,0.4,0.4,0.7c-0.7-0.3-1.3-0.6-2-0.9c-0.6-0.3-1.2-0.6-1.8-0.9c0-0.1,0-0.2,0-0.3
			c-0.4-0.8-0.2-1.9-0.4-2.8c-0.3-0.9-1.1-1.6-2.1-1.2c-1,0.4-0.7,1.8-0.1,3c-1.4-0.7-2.9-1.4-4.3-2.1c0.4-1.1,0.8-2.3,0.2-3.4
			c-0.4-0.8-1.4-2-2.4-1.3c-0.8,0.5-0.6,1.8-0.4,2.6c0.1,0.3,0.2,0.6,0.3,1c-0.4-0.2-0.8-0.4-1.2-0.6c-1.1-0.6-2.2-1.2-3.2-1.8
			c0.4-0.8,0.4-1.8,0.2-2.6c-0.2-0.8-0.8-2.4-1.9-2.3c-1.2,0.1-0.9,2.2-0.4,3.7c-1.3-0.8-2.5-1.6-3.8-2.4c0.5-1.2,1-2.3,0.7-3.6
			c-0.2-0.8-1.1-1.8-2-1.3c-1.1,0.6-0.7,2.5-0.3,3.8c-0.3-0.2-0.7-0.4-1-0.7c-0.8-0.5-1.6-1.1-2.4-1.6c0.2-0.5,0.7-0.9,0.9-1.4
			c0.2-0.3,0.3-0.7,0.3-1.1c0.1-0.8,0.1-2-0.9-2.2c-0.9-0.2-1.5,0.9-1.8,1.6c-0.3,0.6-0.4,1.2-0.3,1.8c-0.4-0.3-0.8-0.5-1.1-0.8
			c-0.4-0.3-0.8-0.5-1.2-0.8c0.4-0.7,0.9-1.3,1.1-2.1c0.2-0.8-0.1-1.6-1-1.6c-1.2,0-1.6,1.3-1.6,2.6c-0.5-0.4-0.9-0.9-1.3-1.5
			c0,0,0-0.1,0-0.1c-0.2-1.2-0.4-4.9-2.3-4.5c-1.1,0.2-1.5,1.5-1.1,2.5c0.3,1,1.2,2,2.2,2.5c0.1,0.1,0.2,0.1,0.3,0.1
			c0.2,0.4,0.5,0.7,0.8,1c-1.3-0.2-2.7,0-2.7,1.1c0.1,1.9,3.8,1.1,4.8,0.7c0,0,0,0,0,0c0.1,0.1,0.2,0.1,0.2,0.2
			c0.7,0.4,1.3,0.9,2,1.3c-0.4,0-0.7,0.1-1,0.1c-0.7,0.1-2,0.4-1.9,1.4c0.1,1.1,1.4,1.2,2.2,1.1c1-0.2,2.1-0.5,2.9-1.1
			c0.4,0.3,0.8,0.5,1.2,0.8c0.7,0.5,1.4,0.9,2,1.4c-1.4,0.2-3.6,0.8-3,2.2c0.9,1.8,3.9,0,4.6-1.2c1.3,0.8,2.6,1.7,3.9,2.5
			c-1.6,0.2-3.7,0.7-3.1,2.2c0.7,1.9,3.8,0.1,4.7-0.7c0,0,0,0,0.1-0.1c0.1,0,0.1,0,0.2-0.1c0.1,0,0.1-0.1,0.2-0.1
			c0.8,0.5,1.6,0.9,2.4,1.3c0.7,0.4,1.3,0.7,2,1.1c-1.5,0.1-3.2,0.5-2.6,2.1c0.8,1.9,4.1,0.2,5-0.7c0,0,0.1-0.1,0.1-0.1
			c1.5,0.8,3.1,1.5,4.6,2.3c-0.4,0.1-0.7,0.2-1,0.3c-0.8,0.2-2.1,0.7-2,1.7c0.1,1.2,1.6,1.4,2.4,1.1c1.1-0.4,2-1.3,2.9-2
			c0.4,0.2,0.7,0.3,1.1,0.5c1.4,0.6,2.8,1.3,4.2,1.9c-0.5,0.1-1.1,0.3-1.5,0.5c-0.7,0.3-2,0.7-2.2,1.6c-0.2,1.1,1.2,1.3,1.9,1.2
			c1.7-0.3,2.5-1.3,3.6-2.4c0.1,0.1,0.3,0.1,0.4,0.2c2.2,0.9,4.5,1.5,6.7,2.4C86.5,61.3,86.9,60.3,86.2,60z M38.4,32.8
			c-0.1-0.3-0.2-0.7-0.1-1c0.1-0.1,0.2-0.3,0.3-0.4c0,0,0,0,0,0c0.4,0.4,0.5,1.2,0.7,1.8c0.1,0.3,0.1,0.6,0.2,0.9
			C39,33.8,38.6,33.3,38.4,32.8z M39.1,37.6C39.1,37.6,39.2,37.6,39.1,37.6c0.4-0.1,0.7-0.1,1,0c0.2,0,0.4,0,0.7,0.1
			C40.2,37.7,39.6,37.7,39.1,37.6z M43.2,35.9c0,0-0.1,0.1-0.1,0.1c0-0.5,0.2-0.9,0.5-1.1c0,0.1,0,0.2-0.1,0.3
			C43.4,35.5,43.3,35.7,43.2,35.9z M44.6,41.1c-0.2,0.1-1.6,0.4-1.6,0.2c0-0.2,1.3-0.4,1.5-0.4c0.2,0,0.5-0.1,0.8-0.1
			C45.1,40.9,44.8,41,44.6,41.1z M47,39.4c-0.1-0.4-0.1-0.8,0-1.1c0.1-0.3,0.2-0.5,0.4-0.8c0.1-0.1,0.2-0.4,0.3-0.5
			c0,0,0.1-0.1,0.1-0.1c0,0,0,0,0,0c0.2,0.3-0.1,1.3-0.3,1.6C47.4,38.8,47.2,39.1,47,39.4z M49.6,44.9c-0.3,0.2-0.6,0.3-0.9,0.3
			c-0.1,0-0.2,0-0.3,0c0,0-0.1,0-0.1-0.1c0,0,0,0,0-0.1c0.1-0.1,0.2-0.1,0.3-0.2c0.3-0.2,0.6-0.2,0.9-0.3c0.2-0.1,0.5-0.1,0.7-0.2
			C50.1,44.7,49.8,44.8,49.6,44.9z M51.9,40.1c0-0.2,0.1-0.3,0.1-0.3c0.3,0,0.3,0.7,0.3,0.9c0,0.5-0.1,1-0.2,1.4
			C51.9,41.5,51.7,40.7,51.9,40.1z M55.1,48.6c-0.3,0.1-0.7,0.3-1,0.3c-0.1,0-0.3,0-0.4,0c0,0,0-0.1,0-0.1c0.1-0.5,1.2-0.6,1.6-0.7
			c0.3-0.1,0.6-0.1,0.9-0.1C55.9,48.2,55.5,48.4,55.1,48.6z M57.3,45.2c-0.1-0.3-0.1-0.7-0.2-1c0-0.1,0-0.3,0-0.4
			c0.2,0.3,0.4,0.7,0.5,1c0.1,0.5,0.2,1.1,0.1,1.7C57.5,46.1,57.4,45.6,57.3,45.2z M60.7,52.3c-0.2-0.6,1.6-0.7,2.7-0.7
			C62.5,52.1,60.9,52.9,60.7,52.3z M63.7,47.5c0.1-0.9,0.8,0.3,0.9,0.6c0.3,0.7,0,1.5-0.3,2.3C63.9,49.5,63.6,48.4,63.7,47.5z
			 M69.2,55.8c-0.3,0.2-0.7,0.5-1.1,0.6c-0.2,0-0.3,0-0.4,0c-0.1,0-0.2-0.2-0.2-0.1c0.1-0.4,1.3-0.7,1.6-0.7
			c0.2-0.1,0.6-0.1,0.9-0.2C69.7,55.4,69.5,55.6,69.2,55.8z M70.7,52.7c-0.2-0.3-0.3-0.7-0.4-1.1c0-0.1,0-0.6-0.1-0.5
			c0.5-0.4,0.7,1.1,0.7,1.3c0,0.3,0,0.6,0.1,0.9C70.9,53.1,70.8,52.9,70.7,52.7z M76.1,53.8c0-0.9,1,0.2,1.2,0.5
			c0.5,0.8,0.7,1.6,0.7,2.4c-0.3-0.3-0.6-0.7-0.9-1.1C76.8,55.3,76.1,54.4,76.1,53.8z M75.5,59.7c-0.4,0.1-0.7,0.2-1,0.2
			c0,0,0.1-0.1,0.1-0.1c0.6-0.4,1.5-0.8,2.4-1C76.6,59.1,76.1,59.5,75.5,59.7z"/>
	</g>
	<g>
		<path d="M65.5,65c-0.1-2.3-2.3-1.7-3.9-0.7c0.1-0.4,0.2-0.8,0.2-1.3c0-0.9-0.5-2.2-1.6-1.9c-1,0.2-1.2,1.4-1.4,2.2
			c-0.1,0.4-0.1,0.8-0.2,1.2c-1.5-1.3-3.6-2.5-4.4-0.7c-0.8,1.7,1.9,2.5,3.7,3c-0.5,0.2-1,0.5-1.4,0.9c-0.8,0.7-0.9,1.9,0.1,2.5
			c1.3,0.8,2.3-0.5,3-1.8c0.4,1.3,1.2,2.7,2.4,2.1c0.9-0.5,1.1-1.8,0.7-2.6c-0.2-0.3-0.4-0.7-0.6-1C63.8,67,65.6,66.8,65.5,65z
			 M57.3,65.5c-0.4-0.1-2-0.5-2-1.1c0-1,2,0.4,2.3,0.6c0.3,0.3,0.7,0.6,1,0.9C58.1,65.7,57.7,65.6,57.3,65.5z M58.5,68.1
			c-0.2,0.3-0.7,1.3-1.2,1.3c-0.2,0-0.3-0.3-0.3-0.4c0-0.3,0.4-0.5,0.7-0.7c0.3-0.2,0.7-0.4,1.1-0.6C58.7,67.8,58.6,67.9,58.5,68.1z
			 M60.4,62.2c0.1-0.1,0.2-0.1,0.3,0.2c0.1,0.4,0,0.9-0.1,1.3c-0.2,0.5-0.4,1.1-0.7,1.6c0,0,0,0-0.1,0c0-0.3,0-0.7,0-1
			C59.9,63.9,60,62.6,60.4,62.2z M61.5,69.5c0.1,0-0.1-0.1-0.2-0.2c-0.2-0.2-0.3-0.5-0.4-0.8c-0.2-0.5-0.4-1.1-0.3-1.6
			c0,0,0-0.1,0-0.1c0.3,0.3,0.6,0.6,0.8,0.9c0.2,0.3,0.4,0.6,0.4,1C61.8,68.9,61.7,69.5,61.5,69.5z M64.3,65.3
			c-0.3,0.6-1.5,0.6-2.1,0.6c-0.3,0-0.6,0-0.9-0.1c0.4-0.4,1-0.7,1.5-1c0.3-0.2,0.8-0.5,1.2-0.4C64.4,64.5,64.5,65,64.3,65.3z"/>
	</g>
	<g>
		<path d="M51.6,62.5c-1.1-0.3-2.3-0.6-3.4-1c0-1.1,0-2.3-0.5-3.3c-0.4-1-1.5-1.6-2.5-1c-1.2,0.7-0.5,2.1,0.3,3.4
			c-1.8-0.7-3.5-1.6-5-2.8c-0.5-1.5-1.2-4.4-3.1-4.1c-1.2,0.2-1.6,1.5-1.1,2.6c0.3,0.6,0.7,1.1,1.2,1.5c0.7,0.5,1.4,0.6,2.2,0.8
			c0.1,0.1,0.2,0.1,0.3,0.2c1.2,0.9,2.5,1.6,3.8,2.2c-1.9,0-3.8,0.4-3.7,1.6c0.2,2.3,5.8,0.5,7,0.2c0.1,0,0.2-0.1,0.2-0.1
			c0.1,0,0.1-0.1,0.2-0.1c0.1,0,0.2,0,0.3,0c1.2,0.4,2.3,0.7,3.5,1C52,63.7,52.3,62.7,51.6,62.5z M37.4,56.1
			c-0.2-0.4-0.4-0.8-0.1-1.2c0.2-0.2,0.4-0.2,0.6,0c0.6,0.5,0.9,1.5,1.2,2.4C38.5,57.1,37.8,56.8,37.4,56.1z M44.1,62.3
			c-0.6,0.1-2.2,0.5-2.8,0.2c0,0,0.1,0,0.1-0.1c0.2-0.1,0.5-0.1,0.7-0.2c0.5-0.1,1.1-0.2,1.7-0.2c0.5,0,1.1-0.1,1.7,0
			C45.1,62.1,44.6,62.2,44.1,62.3z M46.7,60.4c-0.3-0.5-1.1-1.6-0.9-2.2c0.1-0.2,0.3-0.3,0.6-0.1c0.3,0.2,0.5,0.8,0.5,1.1
			c0.1,0.6,0.2,1.2,0.2,1.7C46.9,60.8,46.8,60.6,46.7,60.4z"/>
	</g>
	<g>
		<path d="M84,70c-0.7-0.7-2-0.3-2.8,0c-0.9,0.3-1.8,0.9-2.7,1c-0.1,0-0.2,0-0.2,0.1c-1.5-0.1-2.9-0.3-4.4-0.5
			c1.2-0.5,2.9-2,2.8-3.3c0-0.2-0.2-0.5-0.4-0.5c-2.1-0.4-3.5,1.9-4.4,3.6c-1.4-0.2-2.7-0.5-3.9-1.2c-0.6-0.3-1.2,0.6-0.6,0.9
			c1.3,0.7,2.7,1,4.2,1.3c0.3,1.1,1.4,2.2,2.2,2.9c0.6,0.6,2.1,1.8,2.9,1c0.9-0.8-0.4-2.3-1.8-3.4c1.3,0.2,2.6,0.3,3.9,0.4
			c0.1,0,0.2,0,0.3-0.1c1.2,0.4,2.5,0.8,3.7,0.4C83.7,72.2,84.8,70.9,84,70z M75.4,67.8c-0.3,0.7-1.2,1.4-1.8,1.7
			C74.1,68.7,74.7,67.9,75.4,67.8z M75.5,73.8c0.1,0.1,0.2,0.3,0.3,0.4c-0.2-0.1-0.4-0.2-0.5-0.3c-0.4-0.3-0.8-0.6-1.1-1
			c-0.3-0.3-0.8-0.7-1.1-1.2c0.5,0.2,1.1,0.8,1.4,1C74.8,73.2,75.2,73.5,75.5,73.8z M83.1,70.7c-0.2,0.5-0.4,0.8-1,0.8
			c-0.5,0.1-1.1,0-1.6-0.2c0.7-0.3,1.5-0.6,2.3-0.7C82.9,70.7,83,70.7,83.1,70.7C83.1,70.7,83.1,70.7,83.1,70.7z"/>
	</g>
	<g>
		<g>
			<path d="M108.4,128.6c0-0.3-0.2-0.7-0.6-0.7c-13.9-1.9-27.1-6.7-40.5-10.6c-14.1-4.1-28.5-7.1-42.8-10.4
				c-8-1.9-15.4-5.4-23.4-7.3c-0.3-0.1-0.6,0.1-0.7,0.3c-0.2,0.1-0.3,0.3-0.3,0.5c0.2,2.3,1,4.7,3.4,5.4c2,0.6,3.8-0.2,5.4-1.3
				c0.4,1.7,2.5,3.4,3.8,4.3c3.1,2.1,6.4,1.2,9.2-0.7c0.4,1.9,2.3,3.3,4,4c1.1,0.5,2.2,0.7,3.4,0.4c1.1-0.3,1.9-1.1,2.8-1.7
				c0.9,2.3,3.3,4.1,5.6,5c2.9,1.1,5.5-0.1,7.6-2c0.6,2.3,2.4,4.2,4.7,4.8c1.3,0.4,2.5,0.2,3.7-0.2c0.6-0.2,1.3-0.4,1.7-0.8
				c0.2-0.2,0.4-0.5,0.6-0.8c0.5,2.6,3.1,4.9,5.4,6c3,1.3,6.4,0.1,8.5-2.2c-0.1,2.4,2.7,4.5,4.7,5.4c3,1.4,5.9,0.6,8.3-1.4
				c0.7,2.5,2.3,4.8,4.8,5.8c2.8,1,5.1-0.3,7.2-2c0.6,2.5,3,4.1,5.5,4.6c3.5,0.7,5.9-0.9,8.1-3.5C108.6,129,108.5,128.8,108.4,128.6
				z M4.5,104.7c-2.2-0.1-2.9-2-3.2-3.8c2.4,0.6,4.8,1.3,7.2,2.1C7.4,103.9,6.1,104.7,4.5,104.7z M13.7,108c-1-0.6-4.4-2.9-3.6-4.5
				c3.5,1.2,7.1,2.5,10.7,3.6C18.6,108.5,16.1,109.4,13.7,108z M26.9,111.1c-1.4-0.4-3.6-1.7-3.8-3.4c2.7,0.7,5.4,1.3,8.1,1.9
				C29.8,110.6,28.6,111.6,26.9,111.1z M37.7,114.4c-1.9-0.8-3.8-2.3-4.6-4.2c3.4,0.7,6.8,1.5,10.1,2.2c0.3,0.1,0.7,0.2,1,0.2
				C42.5,114.3,40.2,115.4,37.7,114.4z M54.8,115.9c-0.8,0.9-2.1,1.4-3.3,1.5c-2.4,0.2-4.7-2-5.2-4.3c3,0.7,6,1.4,9,2.2
				C55.2,115.5,55,115.7,54.8,115.9z M61.3,121.1c-1.9-1.1-4-3.1-4.1-5.4c2.6,0.7,5.2,1.4,7.8,2.1c1.4,0.4,2.8,0.8,4.2,1.2
				C67.3,121.5,64,122.6,61.3,121.1z M75.2,124.6c-1.7-0.8-4.6-2.7-3.8-4.9c3.6,1.1,7.3,2.2,10.9,3.3
				C80.3,124.9,77.8,125.9,75.2,124.6z M88.4,129.1c-2.5-0.7-4-3.1-4.5-5.5c0.4,0.1,0.9,0.3,1.3,0.4c3.2,0.9,6.3,1.8,9.5,2.6
				C93,128.1,91,129.7,88.4,129.1z M100.7,131.5c-2.3-0.5-4.7-2-4.6-4.7c0,0,0,0,0,0c3.6,0.9,7.2,1.6,10.9,2.1
				C105.2,130.9,103.4,132.1,100.7,131.5z"/>
		</g>
		<g>
			<path d="M53.9,120.6c0.2-0.8-1.1-1.1-1.3-0.3c-2.8,10.9-1.6,14-5.9,24.4c-1,2.5-2.4,4.9-4,7.1c-1.3,1.8-3.9,4.9-6.4,3.2
				c-1.7-1.2-2.8-3.7-1.5-5.5c1.2-1.6,3.6-1.9,4,0.4c0.2,0.8,1.4,0.5,1.3-0.3c-0.7-3.8-5.3-3-6.8-0.2c-1.6,2.9,1.2,7.4,4.5,7.4
				c3.3,0,5.8-3.8,7.3-6.3c2.5-4.1,1.9-2.8,3.5-7C51.7,135.5,51.8,128.8,53.9,120.6z"/>
		</g>
		<g>
			<path d="M60.3,156.1c-1.4-1.4-3.3-0.9-4.3,0.7c-0.4,0.7,0.8,1.3,1.2,0.7c0.6-1,1.8-1.3,2.5-0.1c0.3,0.6,0.3,1.3,0.2,1.9
				c-0.2,1.1-0.6,2.3-1.4,3.1c-1.4,1.5-3.5,1.4-5.2,0.5c-1.8-1-3.2-2.9-3.5-5c-0.4-2.9,1.1-5.7,1.9-8.4c3.2-11.9,2.2-15.9,5.5-27.7
				c0.2-0.8-1.1-1.1-1.3-0.3c-1.8,6.5-1.6,8.5-2.9,15c-0.7,3.4-0.6,3.2-1.3,6.6c-0.7,3.3-1.4,6.4-2.4,9.6c-1.3,4.2-1,8.4,2.9,11
				c3,2,6.9,1.4,8.4-2.1C61.3,159.7,61.8,157.5,60.3,156.1z"/>
		</g>
	</g>
	<g>
		<g>
			<path d="M128.8,128.1c-1.2-1.2-2.1-2.5-3.1-3.9c-1-1.4-2-2.7-2.8-4.2c-1.7-3.2-2.6-6.9-3.5-10.3c-0.9-3.3-1.7-6.6-2.4-10
				c-0.3-1.7-0.9-3.3-1.8-4.8c-1.2-2.1-2.5-3.8-5.1-3.8c-2.4,0-4.9,1.3-6.5,3c-2.7,2.7-4.1,6.8-4.2,10.5
				c-0.2,8.8,7.9,15.4,14.7,19.5c2.5,1.5,5.2,2.7,7.9,3.7c2,0.7,4.3,1.6,6.5,1.2C129,129,129.1,128.4,128.8,128.1z M121,126.3
				c-2.7-1-5.1-2.3-7.5-3.9c-4-2.6-7.9-5.7-10.5-9.8c-2.6-4.1-3.1-8.7-1.3-13.3c0.8-2.1,2.1-4.2,4-5.5c1.9-1.3,4.8-2,6.9-0.4
				c1.1,0.8,1.7,2,2.2,3.2c0.7,1.6,1.1,3.4,1.4,5.1c0.6,3.4,1.7,6.9,2.6,10.2c0.9,3.1,1.8,6.4,3.5,9.2c0.9,1.5,1.9,2.8,2.9,4.2
				c0.7,0.9,1.3,1.8,2,2.7C125.1,128,122.8,127,121,126.3z"/>
		</g>
		<g>
			<path d="M104.9,127.5c1.2-1.7,2.1-3.7,3-5.5c1-2.1,2-4.3,2.6-6.6c0.2-0.7-1-1-1.1-0.3c-0.6,2.3-1.7,4.7-2.8,6.8
				c-0.9,1.8-1.7,3.6-2.9,5.3L104.9,127.5z"/>
		</g>
		<g>
			<path d="M108,128.3c0.3-0.4,0.5-0.8,0.8-1.2c1.7-2.6,2.9-5.4,4.4-8.1c0.3-0.6-0.7-1.2-1-0.6c-1.2,2.2-2.3,4.5-3.5,6.7
				c-0.4,0.7-1,1.9-1.7,2.9L108,128.3z"/>
		</g>
		<g>
			<path d="M129.1,119.8c-1.6,0.8-4,0.3-5.6-0.1c-1.9-0.5-3.9-1.2-5.5-2.5c-3-2.3-4.7-6-4.7-9.8c0-0.7-1.2-0.7-1.2,0
				c0,4.2,2.1,8.4,5.5,10.9c1.8,1.3,4,2.1,6.2,2.5c1.8,0.4,4.1,0.7,5.8-0.1C130.4,120.4,129.7,119.5,129.1,119.8z"/>
		</g>
		<g>
			<path d="M110.4,98.1c-1.3-0.3-1.7,1.5-0.5,1.8C111.2,100.2,111.7,98.4,110.4,98.1z"/>
		</g>
		<g>
			<path d="M106.7,92.4c-1.2-1.5-2.2-3.2-3.4-4.7c-0.3-0.4-1.1-0.4-1.1,0.3c0.2,2.2,0.4,4.4,1.3,6.5c0.2,0.6,1.4,0.4,1.1-0.3
				c-0.5-1.3-0.8-2.7-1-4.1c0.6,0.9,1.3,1.8,1.9,2.7c0,0,0,0,0,0c0,0.1,0,0.1,0.1,0.2c0.2,0.3,0.7,0.4,0.9,0.1c0,0,0,0,0,0
				C106.8,92.9,106.9,92.6,106.7,92.4z"/>
		</g>
	</g>
	<g>
		<g>
			<g>
				<path d="M59.4,1.5C60.6,2.4,62,3,63.3,3.7c1.4,0.7,2.7,1.4,4.1,1.9c3,1,6.3,1.3,9.4,1.6c3,0.3,5.9,0.5,8.9,0.6
					c1.5,0.1,3,0.3,4.4,0.9c2,0.7,3.7,1.7,4.2,4c0.5,2.2-0.2,4.6-1.2,6.3c-1.8,2.8-4.9,4.7-8,5.4c-7.4,1.5-14.5-4.8-19.3-10.3
					c-1.8-2-3.3-4.2-4.7-6.6c-1-1.7-2.2-3.6-2.3-5.6C58.7,1.5,59.1,1.3,59.4,1.5z M62.5,8.2c1.4,2.2,3,4.3,4.7,6.2
					c3,3.2,6.4,6.3,10.4,8c4,1.7,8,1.5,11.5-0.8c1.6-1.1,3.1-2.5,3.8-4.4c0.7-1.9,0.8-4.6-1-6.3c-0.9-0.8-2-1.2-3.1-1.5
					c-1.5-0.4-3.1-0.5-4.6-0.5c-3,0-6.1-0.5-9.1-0.8c-2.8-0.3-5.7-0.7-8.4-1.7c-1.4-0.6-2.7-1.3-4.1-2c-0.9-0.4-1.8-0.9-2.6-1.4
					C60.3,4.8,61.6,6.7,62.5,8.2z"/>
			</g>
			<g>
				<path d="M81.1,12.6c-1.5,0.5-3.4-0.2-4.7-0.7c-1.6-0.6-3.1-1.4-4.3-2.7c-2.3-2.3-3.3-5.6-2.9-8.7c0.1-0.6-0.9-0.7-1-0.1
					c-0.4,3.6,0.8,7.3,3.5,9.8c1.4,1.3,3.2,2.2,5,2.8c1.5,0.5,3.4,1,4.9,0.5C82.2,13.3,81.7,12.4,81.1,12.6z"/>
			</g>
			<g>
				<path d="M87.7,15.6c-1.1-0.3-1.5,1.3-0.4,1.5C88.3,17.5,88.7,15.9,87.7,15.6z"/>
			</g>
			<g>
				<path d="M86.4,24.1c0.9,1.4,1.7,2.8,2.6,4.2c0.2,0.3,0.9,0.4,0.9-0.2c0-1.9-0.1-3.8-0.6-5.6c-0.2-0.6-1.1-0.4-1,0.2
					c0.4,1.2,0.5,2.3,0.6,3.5c-0.5-0.8-1-1.6-1.5-2.4c0,0,0,0,0,0c0,0,0-0.1-0.1-0.1c-0.1-0.3-0.5-0.4-0.8-0.2c0,0,0,0,0,0
					C86.3,23.7,86.3,23.9,86.4,24.1z"/>
			</g>
		</g>
		<g>
			<path d="M74.3,20.9l-1-0.3c-0.7,4.6-0.3,9.2,0.8,13.7c0.1,0.6,1.1,0.4,1-0.2C74,29.8,73.7,25.3,74.3,20.9z"/>
		</g>
		<g>
			<path d="M78,23l-1-0.3c-1.1,4-1.1,8.5,0.2,12.5c0.2,0.5,1.1,0.4,1-0.2C76.9,31.2,76.9,26.9,78,23z"/>
		</g>
	</g>
	<g>
		<path d="M61,97.4c-0.3-2.3-3.3-2.5-5-1.4c-1-1.6-2.9-2.6-4.1-1c-0.9,1.2-0.4,3-0.2,4.3c0.3,1.6,0.8,3.3,1.7,4.6
			c0.2,0.4,0.8,0.5,1.1,0.3C56.7,102.9,61.4,100.6,61,97.4z M58.2,99.6c-1.1,1.1-2.4,2-3.8,2.8c-0.7-1.3-1.1-3-1.3-4.4
			c-0.1-0.4-0.3-2,0.3-2.2c0.7-0.2,1.4,1.2,1.4,1.9c0,0,0,0.1,0,0.1c0,0,0,0.1,0,0.1c-0.2,1,1.3,1.4,1.6,0.5
			c0.1-0.1,0.1-0.2,0.1-0.4c-0.1-0.8,2-1.3,2.5-1C59.9,97.7,58.7,99.1,58.2,99.6z"/>
	</g>
</g>
</svg>
