<svg id="Режим_изоляции" data-name="Режим изоляции" xmlns="http://www.w3.org/2000/svg" viewBox="0 0 40.35 61.72"><defs><style>.cls-1{fill:#9b9595;}</style></defs><title>icon-mark</title><path class="cls-1" d="M35.52,34.88c4.19-7.69,7.05-17.16,2.56-25.33C32.74-.15,20.47-2.37,11.2,2.48-.48,8.58-1.87,21.53,1.79,32.92a1.68,1.68,0,0,0,1,1.08c4,7.88,10.18,14.7,12.65,23.31a1.77,1.77,0,0,0,.77,1,6.69,6.69,0,0,1-3.34-.63,1.76,1.76,0,0,0-1.78,3c2.35,1.39,5.82,1,8.41.85A32.4,32.4,0,0,0,29.28,60c2.09-.81,1.18-4.21-.94-3.39A28.8,28.8,0,0,1,20.24,58l-2,.2a1.48,1.48,0,0,0,.12-.1c6.34-7.25,12.56-14.71,17.19-23.21M5,30.63a1.7,1.7,0,0,0-.4-.55,26.41,26.41,0,0,1-.77-13.28C5.17,11,9.94,6.59,15.28,4.43A16.07,16.07,0,0,1,36.67,15.79c1.61,7.6-3.07,15.85-6.94,22a129.7,129.7,0,0,1-12,15.61C14.59,45.28,8.67,38.55,5,30.63"/><path class="cls-1" d="M25.17,25.53c3.49-3,3.23-8.57.78-12.12-3.43-5-9.22-3.73-13.38-.49a1.37,1.37,0,0,0-.42,1.84,7.88,7.88,0,0,0-1.32,7.1c1.6,5.42,10.26,7.18,14.34,3.67M22.91,15.19c1.43,1.89,2.05,5.17.48,7.16-2.08,2.63-7.46,1.54-9-1.09-2.19-3.7,2.93-7.12,6-7.22a1.76,1.76,0,0,0,.83-.23,4.14,4.14,0,0,1,1.71,1.37"/></svg>