<svg fill="#817878" xmlns="http://www.w3.org/2000/svg" viewBox="0 0 49 28">
<g>
	<path d="M7,23.9c-1.5-1.5-2.5-3-3.1-4.9C2.3,13,6.7,6.7,12.8,6.5c4.3-0.1,8.5,0,12.8-0.1c0.3,0,0.7,0,0.9,0
		C27.4,5.3,26.9,4.6,26,4c-0.3-0.3-0.7-0.5-0.9-0.9c-0.1-0.3-0.1-0.8,0-0.9C25.3,2,25.8,2,26,2.2c0.5,0.1,0.8,0.4,1,0.8
		c0.7,1.2,1.7,0.9,2.7,0.8c0.2,0,0.4-0.3,0.5-0.5c1-1.1,2.1-1.6,3.6-1.3c0.7,0.2,1-0.2,1.3-0.6c0.9-1.1,2-1.6,3.3-1.3
		c0.3,0.1,0.6,0.5,0.9,0.8c-0.3,0.2-0.6,0.7-0.9,0.6c-1.3-0.2-2.1,0.5-2.6,1.2c0.3,1.3,0.6,2.5,0.9,3.8c2.4,0.2,4.7,1.2,6.4,3.2
		c0.7,0.8,1.3,1.7,1.8,2.6c0.8,1.5,0.6,2.2-1,3.1c0.2,3.3-0.8,6.1-3.4,8.5c0.5,0,0.8,0.1,1.1,0.1c1.8,0,3.5,0,5.3,0c1.2,0,2,0.9,2,2
		s-0.8,2-1.9,2.1c-0.5,0.1-1,0-1.4,0c-14.4,0-28.7,0-43.1,0c-0.2,0-0.4,0-0.7,0c-1.1-0.1-2-1-1.9-2.1c0-1.1,0.9-2,2-2
		C3.6,23.8,5.2,23.9,7,23.9z M13.6,23.9C13.6,23.9,13.6,23.8,13.6,23.9c0.7,0,1.5-0.1,2.2,0c1.6,0.2,2.8-0.5,3.9-1.6
		c2.4-2.4,3.1-5.9,1.9-9c-1.3-3.2-4.5-5.4-7.9-5.3c-3.5,0-6.2,1.5-7.8,4.7c-1.5,3.1-1.1,6,0.9,8.8c1.2,1.5,2.6,2.7,4.8,2.4
		C12.3,23.8,12.9,23.9,13.6,23.9z M19,7.9c2.7,2.3,2.8,2.5,4.2,5.4c0.1,0.2,0.5,0.4,0.8,0.4c1.4,0,2.7,0,4.1,0c1.5,0,2,0.5,2,2
		c0,0.3,0,0.7,0.1,0.8c0.3,0.3,0.8,0.7,1.2,0.7c0.3,0,0.7-0.5,0.9-0.9c0.1-0.1,0-0.4,0-0.6c0.1-1.3,1-2.1,2.2-2.1s2,0.9,2,2.1
		c0,0.5,0,1,0.1,1.5c0.1,0.6,0.6,1,1.2,0.8c0.4-0.1,0.7-0.6,1-1c0.2-0.3,0-0.8,0-1.1c0-1.8,0.5-2.3,2.3-2.3c0.9,0,1.8,0,2.9,0
		c-1.3-3.3-3.5-5.3-6.7-5.7c-2.5-0.3-5-0.2-7.5-0.2C26.3,7.9,22.7,7.9,19,7.9z M20.2,23.8c0.3,0.1,0.4,0.1,0.5,0.1
		c5.6,0,11.2,0,16.8,0c0.2,0,0.4,0,0.7-0.1c2.9-1.2,5.1-5.3,4.4-8.5c-0.7,0-1.3,0-2,0c0,0.8,0,1.6-0.1,2.3c-0.2,1.3-1.3,2.3-2.6,2.2
		c-1.3-0.1-2.3-1.1-2.4-2.4c0-0.3,0.1-0.7,0-1.1s-0.4-1-0.7-1c-0.6-0.1-0.7,0.5-0.7,1c-0.1,1-0.4,1.7-1.3,2.2
		c-1.7,1-3.7-0.2-3.9-2.2c0-0.4-0.3-1-0.4-1c-1.6-0.1-3.1,0-4.7,0C23.8,18.7,22.7,21.4,20.2,23.8z M24.5,26.6c3.9,0,7.9,0,11.9,0
		c3.4,0,6.8,0,10.2,0c0.5,0,1-0.1,0.9-0.7c0-0.3-0.6-0.4-0.9-0.6c-0.1-0.1-0.2,0-0.4,0c-14.5,0-29,0-43.4,0c-0.3,0-0.6,0-0.8,0.1
		S1.5,25.8,1.6,26c0,0.2,0.3,0.4,0.5,0.6c0.2,0.1,0.4,0,0.7,0C10,26.6,17.2,26.6,24.5,26.6z M32.1,6.5c0.1,0,0.3,0,0.5,0
		c0.5,0,1.1,0.1,1.6,0c0.3-0.1,0.7-0.3,0.8-0.6C35.4,5,34.9,4,34,3.5c-1-0.5-2-0.1-2.6,0.9C31.6,5.1,31.9,5.7,32.1,6.5z M30.5,6.4
		c0-0.8-0.4-1.2-1.1-1.2s-1.1,0.4-1,1.2C29,6.4,29.7,6.4,30.5,6.4z"/>
	<path d="M15.2,20.7c2.8-0.4,4.3-4.5,2.3-7.1c-1.2-1.6-2.9-2.3-5-1.9c-0.2,0-0.3,0.1-0.5,0.1
		c-0.4-0.1-0.7-0.3-1.1-0.4c0.2-0.3,0.4-0.8,0.7-0.9c2.2-0.8,5,0,6.5,1.8c1.6,1.9,2.1,4,1.1,6.4c-0.9,2.4-2.8,3.6-5.3,3.9
		c-0.5,0-1.2-0.2-1.4-0.5s0.1-1,0.4-1.4c0.9-1.1,1.4-2.4,1.5-3.8c0.1-0.9-0.3-1.5-1-1.6c-0.8,0-1.1,0.5-1.2,1.3
		c-0.2,1.6-1.3,2.5-2.9,2.3c-1.5-0.2-2.4-1.4-2.2-2.9c0.1-1.3,0.5-2.5,1.4-3.4c0.2-0.2,0.7-0.2,1.1-0.3c0,0.4,0.2,0.8,0.1,1.2
		c-0.3,0.9-0.7,1.8-1,2.7c-0.2,0.8,0.1,1.4,1,1.4c0.8,0.1,1.2-0.4,1.3-1.2c0.2-1.3,0.9-2.2,2-2.4c1.7-0.3,3.2,0.8,3.1,2.5
		C16,17.8,15.5,19.3,15.2,20.7z"/>
</g>
</svg>
