<?xml version="1.0" encoding="utf-8"?>
<!-- Generator: Adobe Illustrator 21.0.0, SVG Export Plug-In . SVG Version: 6.00 Build 0)  -->
<svg version="1.1" id="Слой_1" xmlns="http://www.w3.org/2000/svg" xmlns:xlink="http://www.w3.org/1999/xlink" x="0px" y="0px"
	 viewBox="0 0 386 442.3" style="enable-background:new 0 0 386 442.3;" xml:space="preserve">
<style type="text/css">
	.st0{fill:#604E42;}
</style>
<title>icon-nipple</title>
<path class="st0" d="M352.6,324.2c24-31.6-25.7-86.2-73.9-128.1c5.2-2.2,10.4-4,15.8-5.6c8.5-2.6,17.2-5.4,24.9-10.3l0,0
	c37.5-24.2,48.3-74.3,24.1-111.8s-74.3-48.3-111.8-24.1c-15.9,10.3-27.7,25.8-33.4,43.9l0,0c-2.7,8.8-2.9,17.9-3.2,26.8
	c0,5.6-0.3,11.1-1,16.7C100.4,69.4,64.5,77.1,50.8,95.1c-15.2,20-1.3,49,23.4,78.3c-14.9,8.8-28,20.4-38.4,34.2
	C-8.6,266.2,2.9,350,61.4,394.5s142.4,33,186.9-25.6c10.6-13.8,18.3-29.7,22.7-46.5C305.5,338,337.5,344.1,352.6,324.2z M314.1,61.6
	c28,21.3,33.4,61.2,12.1,89.2c-4.5,5.9-9.9,10.9-16.1,14.9l0,0l0,0c-5.7,3.7-12.9,5.9-20.6,8.3c-20.7,6.4-46.3,14.4-54.5,55.1
	c-5.4-0.8-18.4-6-34.3-18s-24.4-23.2-26.6-28.2c37.3-18.8,38-45.6,38.5-67.2c0.2-8,0.4-15.7,2.4-22.1l0,0
	c10.4-33.6,46.1-52.3,79.6-41.9C301.6,53.7,308.2,57.1,314.1,61.6z M234.5,358.4c-38.8,51.1-111.6,61-162.7,22.3
	S10.8,269.1,49.6,218c9.8-12.9,22.2-23.7,36.4-31.4c4.7,5,9.6,9.9,14.7,14.8c-48,22.8-68.4,80.2-45.6,128.2s80.2,68.4,128.2,45.6
	c28.3-13.5,48.3-39.9,53.6-70.8c6,3.5,12.1,6.9,18.2,10.1C251.5,330.5,244.4,345.4,234.5,358.4z M220.7,294.6
	c-3.5,43.5-41.6,75.9-85.1,72.4c-43.5-3.5-75.9-41.6-72.4-85.1c2.5-30.6,22.5-57.1,51.3-67.7c17.5,15.8,35.9,30.5,51.5,42.3
	C179.8,267,199.3,281.1,220.7,294.6L220.7,294.6z M176.5,242.8C81.8,170.9,52.1,122.1,64.6,105.5c9.8-13,47.6-8.3,123.9,43.2
	c-4.4,7.2-11.7,13.7-24.1,19.6c-2.2,0.9-4.1,2.3-5.5,4.2c-13.1,17.2,23.8,46.5,31.3,52.3c7.5,5.7,45.7,33.3,58.7,16.1
	c1.2-1.6,2-3.5,2.4-5.5c0-0.2,0.1-0.4,0.1-0.6c2.4-13.6,6.8-22.5,12.5-28.7c69.9,59.9,84.1,95.3,74.9,107.5
	C326.3,330.2,266.5,311.1,176.5,242.8z"/>
<path class="st0" d="M59.3,397.3C-0.9,351.6-12.6,265.6,33,205.4c9.9-13.1,22-24.2,35.9-32.9c-27.9-34.2-35-61-20.9-79.6
	c9.1-12.1,24.3-16.5,45-13.1c24.8,4,57.9,19.4,98.3,45.8c0.2-3.2,0.3-6.7,0.5-10.5c0.2-9,0.4-18.3,3.2-27.4l0.1-0.3
	c13.8-44.5,61-69.5,105.6-55.7s69.5,61,55.7,105.6c-5.9,18.9-18.2,35.2-34.8,46l-0.3,0.2c-8,5.1-16.9,7.9-25.5,10.6
	c-3.3,1-6.8,2.1-10.3,3.4c27.1,23.9,47.4,45.7,60.3,64.7c18.3,27.1,21.6,48.7,9.8,64.3c-13.9,18.3-41.5,18.6-82.1,0.9
	c-4.7,15.8-12.2,30.6-22.2,43.8C205.5,431.1,119.4,442.9,59.3,397.3z M201.9,89.1l-0.1,0.2c-2.6,8.3-2.8,17.3-3,25.9
	c0,5.7-0.4,11.4-1.1,17l-0.8,5.6l-4.7-3.1c-41.8-27.8-75.5-43.9-100.3-48C74,83.9,61.1,87.4,53.7,97.2c-12.3,16.2-4.4,41,23.3,73.9
	l2.7,3.2l-3.6,2.1C14.3,212.9-6.2,292.5,30.2,354.2S146.3,436.5,208,400c14.5-8.6,27.2-19.9,37.4-33.3
	c10.3-13.5,17.8-28.9,22.1-45.3l1.1-4.1l3.8,1.7c39.2,17.8,65.3,18.8,77.3,2.9c9.8-12.9,6.4-31.8-10-56.1
	c-13.2-19.5-34.6-42.1-63.4-67.2l-4.2-3.6l5.1-2.3c5.3-2.2,10.7-4.1,16.2-5.7c8.2-2.6,16.7-5.2,23.9-9.8l0.3-0.2
	c35.8-23.2,46-71.1,22.8-106.9c-23.2-35.8-71.1-46-106.9-22.8C218.4,57.2,207.2,72,201.9,89.1L201.9,89.1z M69.7,383.5
	c-52.6-40-62.8-115-23-167.6c10.1-13.3,22.9-24.4,37.5-32.4l2.4-1.3l1.9,2c4.4,4.7,9.3,9.6,14.6,14.7l3.7,3.6l-4.6,2.2
	c-46.2,22-65.9,77.3-43.9,123.5S135.6,394,181.8,372c13.4-6.4,25.1-15.9,34.1-27.7c9-11.8,15-25.7,17.5-40.4l0.9-5l4.4,2.6
	c6,3.5,12.1,6.9,18.1,10l2.4,1.3l-0.6,2.7c-14.9,64.3-79.2,104.4-143.6,89.5C98.6,400.9,83.2,393.7,69.7,383.5z M85.3,191
	c-12.8,7.4-24,17.3-32.9,29.2c-37.6,49.5-27.9,120.1,21.6,157.7s120.1,27.9,157.7-21.6c0,0,0,0,0,0c9-11.9,15.6-25.4,19.3-39.9
	c-3.8-2-7.7-4.2-11.6-6.4c-12,53.8-65.3,87.7-119.1,75.7s-87.7-65.3-75.7-119.1c6.3-28.3,24.6-52.4,50.1-66.1
	C91.4,197.2,88.3,194.1,85.3,191z M92.2,353.9c-36.3-27.5-43.4-79.2-15.9-115.5c9.5-12.5,22.3-22,37-27.5l2-0.7l1.6,1.4
	c15.1,13.6,32.4,27.8,51.3,42.2c12.7,9.7,32.5,24.1,54.4,37.9l1.8,1.1l-0.2,2.1c-3.7,45.4-43.4,79.2-88.8,75.5
	C119.7,369.2,104.7,363.5,92.2,353.9z M113.8,218.3c-38.6,15.6-57.3,59.6-41.7,98.2s59.6,57.3,98.2,41.7
	c25.8-10.4,43.7-34.1,46.7-61.7c-21.4-13.6-40.6-27.6-53.1-37.1C145.5,245.4,128.7,231.6,113.8,218.3z M174.4,245.6
	c-43.8-33.3-77.3-64.4-96.9-90.1c-22.9-30.1-21.2-45-15.8-52.1c4.5-5.9,15.2-11.4,40.8-3.8c22.9,6.8,52.4,22.3,87.8,46.3l2.8,1.9
	l-1.8,2.9c-5.1,8.4-13.5,15.2-25.6,20.9l-0.2,0.1c-1.6,0.6-3,1.7-4.1,3.1c-9.1,12,15,35.4,30.6,47.3c15.7,11.9,44.6,28.9,53.8,16.8
	c0.9-1.2,1.5-2.5,1.8-4l0-0.3l0-0.2c2.3-13.3,6.7-23.3,13.5-30.5l2.3-2.5l2.6,2.2c32.3,27.6,55.1,52,67.8,72.5
	c14.1,22.6,11.9,34.1,7.6,39.9c-7.7,10.2-27.2,9.3-56.2-2.5C254.8,301,216.4,277.5,174.4,245.6z M183.5,149.7
	c-33.1-22.1-61.7-37.1-82.9-43.4c-16.7-5-28.8-4.5-33.2,1.3c-5.4,7.2,0.4,23.5,15.7,43.6c19.1,25.1,52.2,55.8,95.5,88.7
	c92.6,70.3,147.8,84.2,157.4,71.6c4.1-5.4,1.1-17.3-7.9-31.8c-11.8-19-33.8-42.6-63.7-68.5c-4.5,6-7.6,13.9-9.5,24.2
	c0,0.2-0.1,0.5-0.1,0.7c-0.5,2.5-1.5,4.9-3.1,6.9c-14.7,19.4-52.5-6.9-63.7-15.4c-11.2-8.5-46.7-37.8-32-57.2
	c1.8-2.4,4.2-4.2,6.9-5.3C172.3,160.7,179.1,155.6,183.5,149.7z M198.5,213.9c-15.2-11.6-24.9-23.2-27.7-29.6l-1.4-3.1l3-1.5
	c35.4-17.9,36-42.5,36.5-64.2c0.2-8.3,0.4-16.2,2.5-23.1l0.1-0.3c11.1-35.4,48.8-55,84.2-43.9c35.4,11.1,55,48.8,43.9,84.2
	c-4.7,14.9-14.4,27.6-27.4,36.1l-0.2,0.2l-0.2,0.1c-6.1,3.8-13.4,6.1-21.3,8.6c-20.8,6.4-44.3,13.7-52.1,52.4l-0.7,3.3l-3.3-0.4
	C227.5,231.6,213.7,225.4,198.5,213.9z M178.9,184.3c3.3,5.1,10.7,13.9,23.9,23.9c13.2,10,23.8,14.8,29.5,16.6
	c9.4-39.7,36.3-48.1,56.1-54.2c7.4-2.3,14.3-4.4,19.6-7.8l0.2-0.1c27.8-18,35.8-55.1,17.8-83c-18-27.8-55.1-35.8-83-17.8
	c-11.7,7.6-20.4,19-24.6,32.3l-0.1,0.3l-0.1,0.2c-1.8,5.9-2,13.2-2.1,20.9C215.6,136.4,214.9,164.6,178.9,184.3z"/>
</svg>
