<?xml version="1.0" encoding="utf-8"?>
<!-- Generator: Adobe Illustrator 21.0.0, SVG Export Plug-In . SVG Version: 6.00 Build 0)  -->
<svg version="1.1" id="Слой_1" xmlns="http://www.w3.org/2000/svg" xmlns:xlink="http://www.w3.org/1999/xlink" x="0px" y="0px"
	 viewBox="0 0 15 21" style="enable-background:new 0 0 15 21;" xml:space="preserve">
		<path d="M0.3,8.6c-0.2-2.7,1-4.9,2.9-6.6c1.4-1.3,3.6-1.9,5.5-1.7c3.8,0.3,6.3,4.2,6.1,7.3c-0.1,2-0.5,3.1-1.3,4.9
			c-0.9,2.2-3.1,3.8-4.3,5.8c-0.3,0.5-0.6,1.2-0.8,1.8c-0.1,0.3-0.2,0.6-0.5,0.6c-0.4,0.1-0.6-0.2-0.7-0.5C5.4,17,2,13.8,0.6,10.2
			C0.3,9.5,0.3,8.9,0.3,8.6 M7.6,18.8c0.4-0.1,0.5-0.4,0.5-0.6c1.3-2.5,3.7-4.2,4.7-6.8c0.6-1.5,0.8-2.2,0.9-3.9
			c0.1-2.6-2.5-6.3-5.8-6.4C4.9,1.1,3.2,3,2.2,4.5C1.3,5.9,1,7.8,1.5,9.7c0.6,2.2,2.3,4.5,3.8,6.3C6.1,17.2,6.9,17.9,7.6,18.8"/>

		<path d="M7.8,21c-0.5,0-0.7-0.4-0.8-0.6c-0.7-1.4-1.8-2.7-2.8-4.1c-1.4-1.9-3-3.9-3.8-6C0.1,9.5,0,8.9,0,8.6
			C-0.2,6,0.8,3.7,3,1.8C4.4,0.5,6.5-0.2,8.6,0c3.9,0.4,6.6,4.3,6.3,7.6c-0.1,2.1-0.5,3.2-1.3,4.9c-0.6,1.3-1.5,2.3-2.4,3.3
			c-0.7,0.8-1.4,1.6-2,2.5c-0.2,0.3-0.6,1-0.8,1.7c-0.1,0.2-0.2,0.7-0.6,0.8C7.9,21,7.9,21,7.8,21z M7.9,0.5
			c-1.8,0-3.4,0.6-4.6,1.6c-2,1.8-3,4-2.8,6.4l0,0c0,0.3,0,0.8,0.3,1.5c0.8,2.1,2.3,4.1,3.8,5.9c1.1,1.4,2.1,2.7,2.8,4.1
			c0.2,0.3,0.3,0.4,0.5,0.3c0.1,0,0.2-0.3,0.2-0.5c0.2-0.8,0.6-1.5,0.8-1.9c0.6-0.9,1.3-1.8,2-2.6c0.9-1,1.8-2.1,2.3-3.2
			c0.8-1.7,1.1-2.7,1.3-4.8c0.2-3-2.3-6.7-5.9-7.1C8.4,0.5,8.1,0.5,7.9,0.5z M7.5,19.1l-0.1-0.1c-0.2-0.3-0.6-0.7-0.8-1
			C6,17.4,5.6,16.9,5,16.1c-2-2.4-3.3-4.6-3.8-6.3C0.8,7.9,1,5.9,2,4.4c1.4-2.3,3.5-3.5,6-3.4c1.4,0,2.9,0.7,4,2
			c1.3,1.4,2.1,3.2,2,4.7c-0.1,1.7-0.3,2.5-0.9,4c-0.6,1.5-1.6,2.7-2.6,3.8c-0.8,0.9-1.6,1.9-2.2,3c0,0,0,0.1,0,0.1
			c-0.1,0.2-0.2,0.5-0.6,0.6H7.5z M7.8,1.4c-2.2,0-4.1,1.1-5.4,3.2c-0.9,1.4-1.2,3.3-0.7,5c0.5,1.7,1.7,3.8,3.7,6.2
			c0.5,0.7,1,1.3,1.4,1.8c0.3,0.3,0.5,0.6,0.7,0.9c0.1-0.1,0.1-0.1,0.2-0.2c0,0,0-0.1,0.1-0.1C8.4,17,9.3,16,10,15.1
			c1-1.2,1.9-2.3,2.5-3.7c0.6-1.5,0.8-2.2,0.9-3.8c0.1-1.4-0.7-3.1-1.9-4.3c-1.1-1.1-2.3-1.8-3.6-1.8C7.9,1.4,7.8,1.4,7.8,1.4z"/>

	<path d="M7.4,4.1c-2.1,0-3.4,1.7-3.4,3c0,0.6,0.2,1.5,0.8,2.4c0.5,0.7,1.2,1.4,2.5,1.4c2.2,0,3.6-1.2,3.6-3
		C10.9,5.4,9.7,4.1,7.4,4.1z M9.8,9.7c-0.1,0.1-0.6,0.4-0.6,0.4c-0.6,0.3-1.1,0.4-1.1,0.4c-0.2,0-0.5,0.1-0.8,0.1
		c-0.6,0-1.1-0.2-1.5-0.5C5.6,9.8,5.3,9.6,5.2,9.3C4.7,8.6,4.5,7.7,4.5,7.2c0-1.1,1.2-2.6,3-2.6c2.1,0,3.1,1.1,3.1,3.4
		C10.5,8.9,9.8,9.7,9.8,9.7z"/>
	<path d="M7.3,11.3c-1.4,0-2.3-0.9-2.8-1.6C3.9,8.8,3.7,7.8,3.7,7.1c0-1.4,1.4-3.4,3.7-3.4c2.5,0,3.9,1.4,3.9,4.1
		C11.3,9.9,9.7,11.3,7.3,11.3z M7.4,4.9c-1.6,0-2.6,1.4-2.6,2.3c0,0.5,0.2,1.3,0.7,1.9l0,0c0.1,0.2,0.3,0.5,0.6,0.6
		c0.4,0.3,0.8,0.5,1.3,0.5c0.2,0,0.5,0,0.7-0.1c0.1,0,0.5-0.1,1-0.4c0.1-0.1,0.4-0.2,0.5-0.3l0.3,0.2L9.6,9.5c0,0,0.6-0.7,0.6-1.5
		C10.1,5.8,9.3,4.9,7.4,4.9z M9.6,9.4l0.3,0.2L9.6,9.4z"/>

</svg>
