<?xml version="1.0" encoding="utf-8"?>
<!-- Generator: Adobe Illustrator 22.1.0, SVG Export Plug-In . SVG Version: 6.00 Build 0)  -->
<svg version="1.1" id="Layer_1" xmlns="http://www.w3.org/2000/svg" xmlns:xlink="http://www.w3.org/1999/xlink" x="0px" y="0px"
	 viewBox="0 0 236.6 56.7" style="enable-background:new 0 0 236.6 56.7;" xml:space="preserve">
<style type="text/css">
	.st0{fill:#9A237B;}
</style>
<path class="st0" d="M112.5,19.2c-0.7-0.4-4.1-0.3-4.6,0.2c-0.2,0.2-0.7,0.3-1,0.3c-0.5,0-1-0.5-2.1-2.3c-1.6-2.6-3.4-4.4-4.1-4.2
	c-0.6,0.2-1,1-1.8,4.3c-0.4,1.6-0.9,3.5-1.1,4.3l-0.4,1.4L95.7,23c-1.7-0.1-4.3,0.3-6,0.8c-0.9,0.3-1.2,1.1-0.5,1.5
	c0.2,0.1,1.4,1.4,2.7,3c2.2,2.5,2.4,2.9,2.2,3.8c-0.1,0.5-0.3,2-0.4,3.2c-0.2,1.9-0.2,2.2,0.4,2.6c0.3,0.2,0.8,0.3,1.1,0.2
	c0.9-0.3,2-0.6,2.9-0.8c0.6-0.1,1.4-0.8,2.5-1.9c0.7-0.7,1.3-1.4,1.7-1.7c0.2-0.1,0.3-0.2,0.4-0.3c0.9-0.3,4.2,1,5.4,2.1
	c1.9,1.8,3.4,1.2,3-1.1c-0.1-0.7-0.3-2.5-0.5-3.9c-0.2-2.3-0.2-2.8,0.3-3.8c0.3-0.7,0.6-1.5,0.6-1.8c0-0.3,0.4-1.6,0.8-2.9
	C113.1,19.6,113.1,19.5,112.5,19.2z M107.9,25.7c-0.6,0.7-0.6,0.8-0.2,1.5c0.6,1.1,0.9,4.7,0.4,5.3c-0.4,0.5-0.6,0.4-2.7-0.6
	c-2.7-1.3-3.1-1.2-5,1c-0.7,0.8-1.6,1.8-2.1,2.1c-1.1,0.7-1.5,0.7-2.3,0c-0.6-0.5-0.6-0.6,0-2.1c0.8-1.8,0.8-1.6-2.2-5.3l-1.7-2.1
	l0.7-0.5c0.6-0.4,1-0.5,2.6-0.3c2.1,0.2,3.9-0.4,4.1-1.4c0.1-0.3,0.4-1.8,0.7-3.3c0.3-1.5,0.7-2.9,0.8-3c0.5-0.5,1.2,0.2,2.4,2.6
	c1.5,2.8,1.8,2.9,4.4,1.9c1.5-0.6,2.3-0.6,2.3,0.2C110.2,22.2,108.8,24.7,107.9,25.7z"/>
<path class="st0" d="M38.8,23.1l-1.1-1.4c0-0.1,0.1-0.4,0.2-0.8l2.2-4.4c1.4-2.8,2.7-5.8,2.8-6.6c0.2-0.9,0.5-2,0.8-2.6
	c0.5-1,0.6-2.3,0.2-4.5c-0.2-1.2-0.4-1.4-1.2-1.9c-0.9-0.5-1.3-0.5-2.8,0.1c-2.2,0.8-4.4,2.7-5.1,4.5C33.7,8.5,33.3,13.6,34,17
	c0.3,1.5,0.3,2.4,0,3.1c-0.7,1.6-3.5,3.4-7.6,5.1c-2.1,0.8-4.3,1.8-5,2.2c-1.8,1.1-4.3,1.7-5.8,1.6c-0.7-0.1-2.2-0.2-3.4-0.2
	C10,28.6,5.3,27.1,3.9,26c-0.5-0.4-1-1.1-1.1-1.6c-0.4-1.3,0.5-4.8,1.5-6C5.2,17.3,7,16.6,8.1,17c0.6,0.3,0.7,0.4,0.7,1.8
	c0,1.3,0.1,1.5,0.6,1.8c0.8,0.5,1.4,0,1.7-1.5c0.5-2.3-0.6-4-3.2-5c-1.8-0.7-2.1-0.6-4.1,0.9c-1.2,0.9-1.7,1.8-2.7,3.9
	C0.5,20.4,0,22.1,0,22.7l0,0c0.1,1.5,0.2,1.9,1.2,3.6c0.8,1.3,1.3,1.6,4.4,3c3.7,1.6,6,2.1,10.7,2.1c1.9,0,3-0.2,4.3-0.8
	c9.1-3.9,12-5.3,12.7-6c1.5-1.6,1.7-1.5,6.3,2.9c1.9,1.8,7.7,3.6,11.1,3.3c1-0.1,2.4-0.2,3.2-0.2c1,0,1.5-0.2,1.9-0.6
	c0.3-0.3,1.3-1.3,2.2-2.1c1-1,2.2-2.6,3-4.2c1.1-2.2,1.3-3,1.4-5.1c0.1-4-1.3-7.3-3.4-8.8c0,0-0.1,0-0.1-0.1
	c-0.5-0.3-0.9-0.6-1.4-0.7c-1.6-0.4-2.7-0.2-3.9,0.9c-0.9,0.8-1.7,2.8-1.6,4.2c0,1.3,1.4,3.2,2.4,3.4c1.5,0.3,2.3-0.6,2-1.8
	c0-0.3-0.2-0.6-0.4-0.9c-0.1-0.1-0.1-0.2-0.2-0.4c-0.9-1.1-0.8-1.9,0.2-2.2c0.6-0.2,1.2,0,1.9,0.5c1.4,1,2.3,3.8,2.1,6.2
	c-0.2,1.8-2.5,6.2-3.7,6.9c-0.4,0.2-1,0.8-1.4,1.3c-0.6,0.7-1,0.9-1.9,1C47.6,28.6,41.7,26.5,38.8,23.1z M36.8,16.7
	c-0.5-0.2-0.8-1.1-0.5-2c0.1-0.4,0.1-1.3,0.1-1.9C36.1,11.2,37,7.4,37.9,6c0.8-1.2,2.4-2.4,3.2-2.3c1,0.1,0.8,2-0.7,6.7
	C39.6,12.7,37.3,16.9,36.8,16.7z"/>
<g>
	<g>
		<g>
			<path class="st0" d="M190.8,18.8l0.4,0.6l-0.5-0.7c-0.2-0.2-0.4-0.4-0.6-0.6c-0.4-0.4-0.9-0.8-1.3-1.1c-1-0.6-2-1.2-3.2-1.5
				c1.2,0.4,2.4,1.1,3.4,2c0.5,0.4,0.9,0.9,1.4,1.4c0.4,0.5,0.8,1,1.1,1.6c0.4,0.5,0.6,1.1,0.9,1.7l0.1,0.2c0,0.1,0.1,0.3,0.1,0.4
				l0.3,0.9l0.3,0.9l0.1,0.4l0.1,0.2c0.1,0,0.1,0,0.2,0c1-0.3,2.1-0.5,3.1-0.8c0.5-0.1,1-0.2,1.5-0.3c0.2,0.3,1.4,0.6,2.4,1.3
				c1,0.7,1.7,1.5,1.8,1.5c0.7,0.6,1.3,1.5,1.8,2.4c-0.3-0.6-0.7-1.2-1.1-1.8c0.4,0.5,0.8,1.1,1.1,1.8c0.7,1.5,1,3.2,0.8,4.9
				c-0.2,1.7-0.9,3.4-2.1,4.6c-0.6,0.6-1.3,1.2-2.1,1.6c-0.4,0.2-0.8,0.4-1.2,0.6l-1.4,0.5c-1,0.3-2,0.7-3.1,1.2
				c-1.1,0.6-2.1,1.3-2.9,2.2c-0.5,0.5-1.1,1.3-1.5,2.2c-0.2,0.4-0.3,0.9-0.5,1.1c-0.1,0.2-0.2,0.4-0.5,0.6
				c-0.5,0.4-1.3,0.8-2.2,1.1c-0.9,0.3-1.9,0.6-2.8,0.8c-1.9,0.3-3.9,0.2-5.5-0.2c-1.6-0.5-2.9-1.2-3.8-1.8l-0.7-0.6l-0.8-0.7
				c0.4,0.4,0.7,0.6,0.9,0.8c0.2,0.2,0.4,0.3,0.8,0.6c-0.6-0.3-1.1-0.7-1.6-1.1c-0.5-0.4-1-0.9-1.4-1.3l-0.4-0.3l-0.2-0.2l-0.1-0.1
				c0,0-0.1-0.1-0.1,0l-0.8,0.6c-0.8,0.6-1.6,1.1-2.3,1.7c-0.5,0.4-1.1,0.7-1.6,1c0.4-0.1,0.5-0.1,1.5-0.6l-1.1,0.6
				c-0.9,0.8-3.3,2-4.4,2.5c0.2-0.2-0.7,0.2-1.5,0.4l0.3,0c-1.6,0.5-3.3,0.8-4.9,0.8c-0.4,0-0.8,0-1.2-0.1c-0.4-0.1-0.8-0.2-1.1-0.3
				c-0.7-0.3-1.4-0.5-1.9-1c-0.3-0.2-0.5-0.4-0.6-0.5l-1-0.9c-0.3-0.3-0.6-0.7-0.9-1c0.1,0-0.2-0.4-0.4-0.8c-0.2-0.4-0.3-0.7,0-0.1
				c-0.4-0.6-0.8-1.2-1.1-1.8c-0.2-0.5-0.4-0.9-0.6-1.4c-0.2-0.5-0.4-1.1-0.7-1.6c-0.5,0.2-1.1,0.5-1.5,0.6l-0.7,0.2l-0.2,0.1
				l-0.1,0l-0.2,0c-0.7,0-1.3-0.2-1.8-0.7c-0.5-0.5-0.9-1.2-1.2-2c-0.5-1.6-0.6-3.5-0.4-5.3c0.3-1.8,0.8-3.6,1.8-5.2
				c0.9-1.5,2.3-2.8,4-3.3l-0.2,0l0.6-0.2c0.2,0,0.5-0.1,0.8-0.1c0.3,0,0.6,0,0.8-0.1l0.4,0c0.1,0,0.3,0,0.3-0.1
				c-0.1-0.5-0.2-1.1-0.2-1.6c0-0.3,0-0.4,0.1-0.6c0-0.2,0.1-0.4,0.2-0.6c0.3-0.8,1-1.6,1.8-2.2c0.8-0.8,2-1.7,3.1-2.3
				c1.1-0.6,2.1-1.1,2.5-1.4c1.3-0.4,2.3-0.7,3.3-0.8c0.5-0.1,1-0.1,1.6-0.1c0.6,0,1.2,0.1,2,0.4c-0.4-0.2,0.5,0,1,0.7
				c0.1,0.2,0.2,0.4,0.3,0.5c0.1,0.1,0.1,0.2,0.1,0.2c0.1,0.1,0.1,0,0-0.3c-0.2-0.7-0.6-1.1-1-1.4c-0.3-0.2-0.6-0.4-0.9-0.5
				c-0.5-0.2-1-0.3-1.9-0.4l0,0.1c-1.6-0.1-3.1,0.2-4.5,0.5c-1.4,0.4-2.8,0.9-4.2,1.6c-1.3,0.7-2.6,1.6-3.7,2.8
				c-0.5,0.6-1,1.4-1.4,2.2c-0.1,0.2-0.2,0.4-0.2,0.7c0,0.3,0,0.2,0,0.3c0,0.1,0,0.2,0,0.2c0,0-0.2,0-0.2,0c-0.1,0-0.1,0-0.7,0.1
				c-0.9,0.2-1.8,0.5-2.5,1c-2.5,1.6-4,4.1-4.9,6.7c-0.8,2.6-1.1,5.4-0.5,8.2c0.2,0.8,0.5,1.6,0.9,2.4c0.4,0.8,1,1.6,1.9,2.2
				c0.9,0.6,2,0.9,2.9,0.8l0.4,0c0.1,0,0.3,0,0.3,0l0.3-0.1c0.2,0,0.2-0.1,0.3-0.1c0.1,0.1,0.2,0.3,0.3,0.5c0.2,0.5,0.5,1.1,0.9,1.7
				c0.6,1.1,1.4,2.1,2.1,2.9c0.4,0.4,0.8,0.8,1.1,1.2c0.4,0.4,0.8,0.6,1.2,1c1,0.6,2.3,1.1,3.6,1.3c0.6,0.2,1.3,0.1,2,0.2
				c0.7,0,1.3-0.1,2-0.1c2.7-0.4,5.2-1.4,7.3-2.5c-0.1,0-0.2,0.1-0.2,0.1c0.6-0.3,1.1-0.6,1.6-0.9c0.5-0.3,1-0.5,1.5-0.8
				c0.5-0.3,1-0.5,1.5-0.9c0.1-0.1,0.2-0.2,0.4-0.2c0.1,0,0.1-0.1,0.2-0.1c0-0.1,0.1,0,0.1,0c0,0,0.1,0.1,0.2,0.2
				c0.1,0.1,0.3,0.2,0.5,0.4c0.2,0.2,0.5,0.4,0.8,0.6c1.2,0.9,3,1.8,5,2.3c1.9,0.5,4,0.5,5.5,0.4c1.5-0.2,2.6-0.5,2.8-0.5
				c0.3-0.1,0.5-0.1,0.8-0.2c0.7-0.2,1.3-0.4,1.9-0.6c0.6-0.2,1.3-0.5,2-0.9c0.6-0.4,1.4-1,1.7-1.8c0.4-0.8,0.5-1.3,0.8-1.7
				c0.3-0.4,0.6-0.7,1-1.1c0.4-0.4,0.8-0.7,1.3-1c0.8-0.5,1.8-0.9,2.9-1.3c0.9-0.4,1.8-0.9,2.6-1.4c0.4-0.1,0.6-0.3,0.9-0.4
				c0.2-0.2,0.5-0.3,0.9-0.6c0.6-0.3,1.1-0.6,1.5-1c0.4-0.3,0.7-0.6,0.9-0.9c0.3-0.5,0.3-0.5-0.2,0c1.4-1.7,2.2-3.9,2.4-5.8
				c0.1-0.9,0-1.8-0.1-2.7c-0.1-0.8-0.2-1.2-0.2-1.6c-0.3-0.9-0.4-1.3-0.5-1.6c-0.1-0.3-0.2-0.7-0.7-1.6c-0.1-0.2-0.8-1.4-1.8-2.3
				c-1-0.9-2.2-1.5-2.5-1.7l0.3,0.2c-1.1-0.6-2-1-3-1.3c-0.5-0.1-1-0.2-1.5-0.2c-0.3,0-0.5,0-0.8,0c-0.1,0-0.3,0-0.4,0
				c-0.1,0-0.2,0-0.3,0c-0.2,0-0.5,0.2-0.4-0.1l0-0.1c0-0.1,0,0-0.1-0.3l-0.5-1.2c-0.8-1.5-1.7-3-3-4.1c-2.5-2.3-5.9-3.5-8.9-3.4
				c-0.1,0.2,1.4,0,1.4,0.2c-1.8-0.2-3.6,0-5.4,0.5l-1.3,0.5c-0.2,0.1-0.4,0.2-0.6,0.3l-0.5,0.2c-0.2,0.1-0.3,0.2-0.4,0.2
				c0-0.2,0-0.4,0-0.5c0-0.1,0-0.1,0-0.1c0,0,0,0,0,0c0-0.1-0.1-0.2-0.2-0.4l0.1-0.2c-0.2-0.3-0.3-0.5-0.4-0.8
				c-0.1-0.2-0.2-0.5-0.3-0.7c-0.2-0.4-0.5-0.9-1-1.4c-0.1,0-0.5-0.4-0.9-0.7c0-0.1-0.3-0.3-0.7-0.5c-0.4-0.2-0.7-0.3-0.7-0.3l0,0
				c-0.3-0.1-0.5-0.1-0.9-0.2c-0.2,0-0.6,0-1.1,0c-0.3,0-0.6,0-0.9,0.1c-0.3,0-0.6,0.1-0.9,0.2c-1.2,0.3-2.3,0.6-2.5,0.7l-0.2,0
				c-0.6,0.1-0.9,0.3-0.5,0.3c-0.3,0.1-0.5,0.1-0.8,0.2l0.1,0l-0.8,0.2c-0.1,0-0.3,0-0.1-0.1c-0.4,0.2-0.9,0.4-1.3,0.6
				c1.2-0.5,2.8-0.7,4-0.8c-0.5,0.2-1.4,0.3-2,0.5c-0.7,0.1-2.1,0.5-3.2,1.1c-0.2,0.2-0.3,0.4-0.8,0.8c-0.2,0.1-0.3,0.2-0.4,0.4
				c-0.1,0.2-0.3,0.4-0.5,0.6c0.3-0.6,0.8-1,1.3-1.4c-0.1,0-0.4,0.2-0.7,0.5c-0.2,0.2-0.3,0.3-0.5,0.5c-0.1,0.2-0.2,0.3-0.3,0.5
				c-0.1,0.1-0.2,0.5-0.4,0.9c-0.1,0.5-0.3,1-0.2,1.4c-0.1-0.4-0.1,0.7-0.1,1.1c0,0.5,0.2,0.8,0.2,0.6c0.1,0.1,0-0.4,0-0.9
				c-0.1-0.4,0-0.8,0.1-0.5c-0.1,0.2,0.1,1.2,0.2,1.7c0.1,0,0-0.3,0.1-0.1c0.1,0.6,0.4,1,0.5,1.3c-0.1-0.1-0.1-0.3-0.2-0.4
				c0.1,0.3-0.4-0.5-0.7-1.4c-0.3-1-0.3-2.2-0.3-1.6c0-0.1,0,0.2,0.1,0.6c0.1,0.4,0.2,1,0.4,1.4c0.2,0.5,0.4,0.9,0.6,1.2
				c0.2,0.3,0.2,0.4,0.2,0.3c-0.1-0.4,0.2,0.2,0.1-0.2l-0.3-0.4c-0.2-0.6-0.1-0.9,0-0.7c0.1,0.5-0.2-0.1-0.5-0.9
				c-0.3-0.7-0.3-1.7-0.3-1.2l0-0.4c0,0.4,0.1,1.5,0.2,1.9c0.1,0,0.2,0.5,0.4,0.9l0,0.1c0.2,0.4,0.4,0.9,0.4,0.6
				c-0.5-1.1-0.1-0.8,0.2-0.5c0.3,0.3,0.7,0.6,0.3-0.5c0.2,0.9-0.3-0.2-0.5-1.2c0.1-0.1,0-0.6,0.1-1.3c0.1-0.6,0-0.4,0-0.5
				c0.1-0.4,0.4-0.9,0.4-0.8c0.1-0.5,0.4-0.6,0.8-1.1c0.3-0.4-0.1,0,0.2-0.3c0.6-0.5,1.5-1,2.1-1.2c0.2,0,0.9-0.1,0.5,0.2
				c-1,0.4,0.3-0.4-0.7,0.1c0.5,0-0.9,0.5-1,0.7c0.4-0.2,1-0.5,1.5-0.7l-0.1,0c0.5-0.2,1.5-0.6,2.1-0.6c-0.1,0.1,0.1,0.1-0.2,0.2
				l0.7-0.2c0.1,0,0.2-0.1,0-0.1c0.3-0.1,0.7-0.2,0.9-0.2c0,0,1-0.2,1.9-0.4c0.9-0.2,1.9-0.1,1.8-0.1c0.3,0,0.4,0.1,0.6,0.1
				c0.2,0,0.3,0.1,0.5,0.2c0.1-0.1-1.2-0.4-2.4-0.2c-1.2,0.1-2.2,0.4-1.9,0.3c0.2,0,1.7-0.4,3.1-0.3c0.7,0,1.4,0.3,1.9,0.6
				c0.5,0.3,0.7,0.6,0.8,0.7c0.3,0.3,0.5,0.7,0.5,0.6c0.3,0.6-0.2-0.1,0,0.3c0,0,0-0.1,0.1,0.1l0.1,0.4c0.3,0.4,0.5,1,0.7,1.7
				c0.2,0.7,0.4,1.4,0.6,1.9c-0.1-0.2-0.3-0.4-0.6-1.2l0-0.2c0-0.1-0.3-0.8-0.4-0.7c0.2,0.8,0.5,1.6,0.7,2.3c0,0.2,0.1,0.4,0.1,0.6
				c0,0,0,0,0-0.1c0,0,0,0.1,0,0.1c0,0,0,0,0,0c0,0,0,0,0,0c0,0,0,0-0.1,0.1c0,0,0,0-0.1,0.1c0.2,0,0.9-0.6,1.7-1.3
				c0.2-0.2,0.4-0.3,0.6-0.5c0.2-0.1,0.4-0.2,0.6-0.4c0.3-0.2,0.6-0.4,0.9-0.4c0.3-0.2,0,0,0.4-0.2c1.1-0.4,1.9-0.4,3.2-0.5
				c0.4-0.1,0.4-0.2-0.1-0.2c0.3,0,0.6,0,0.9,0c-0.4,0.1,0,0.2,0.4,0.2c0.4,0.1,0.8,0.2,0.3,0.3c0.3,0.1,0.8,0.2,1.3,0.2
				c0.1,0,0.2-0.1,0.8,0c0.4,0.1,0.6,0.2,0.7,0.3c0.1,0.1,0.2,0.1,0.6,0.3c0.1,0.1-0.1,0.1-0.1,0.1c0.5,0.1,0.7,0.3,0.9,0.5
				c0.2,0.2,0.4,0.3,0.8,0.6c0.3,0.2,0.7,0.5,1,0.7c0.3,0.3,0.6,0.5,0.6,0.4c0.3,0.3,0.4,0.5,0.5,0.6
				C190.9,18.8,190.9,18.8,190.8,18.8z"/>
		</g>
	</g>
</g>
<path class="st0" d="M123.8,45.2c-4,0.2-4.2,7.7,0.6,7C127.8,51.7,128.5,45,123.8,45.2"/>
<path class="st0" d="M181.4,0c-2.5,0.1-2.6,4.8,0.4,4.4C183.9,4.1,184.3-0.1,181.4,0"/>
<path class="st0" d="M207.3,53.4c-1.5-2-5.5,0.4-3.5,2.7C205.2,57.7,209,55.8,207.3,53.4"/>
<path class="st0" d="M214.3,8.1c-2.5-3.2-8.7,0.9-5.4,4.5C211.2,15,217.1,11.8,214.3,8.1"/>
<path class="st0" d="M81.3,8.1c-2.5-3.2-8.7,0.9-5.4,4.5C78.2,15,84.1,11.8,81.3,8.1"/>
<path class="st0" d="M236,33.9c-1.8-2.3-6.4,0.6-4,3.3C233.8,39,238.1,36.7,236,33.9"/>
<path class="st0" d="M138,13.9c-1.8-2.3-6.4,0.6-4,3.3C135.8,19,140.1,16.7,138,13.9"/>
<path class="st0" d="M75.3,40.9c-1.5-2-5.5,0.4-3.5,2.7C73.2,45.2,77,43.3,75.3,40.9"/>
</svg>
