<?xml version="1.0" encoding="utf-8"?>
<!-- Generator: Adobe Illustrator 22.1.0, SVG Export Plug-In . SVG Version: 6.00 Build 0)  -->
<svg version="1.1" id="Слой_1" xmlns="http://www.w3.org/2000/svg" xmlns:xlink="http://www.w3.org/1999/xlink" x="0px" y="0px"
	 viewBox="0 0 40 35" style="enable-background:new 0 0 40 35;" xml:space="preserve">
<g>
	<path d="M39.5,18.1c0-0.1,0-0.2,0-0.4v-3.8c0.4-0.9,0.6-1.9,0.3-2.8l-0.1-0.5c-0.6-2.4-0.8-3.3-3.5-4.8c-0.5-0.8-2.2-3.2-5.1-3.7
		c0,0-0.1,0-0.1,0h-1.6c-0.2-0.1-0.4-0.2-1-0.4c-0.4-0.1-0.8-0.3-0.9-0.4c-0.4-0.4-0.9-0.5-1.2-0.6l-2.8-0.7c-0.7-0.2-1.4-0.1-2,0.3
		c-0.1,0.1-0.3,0.2-0.4,0.4c-0.9-0.2-2.6-0.3-3.4-0.3c-0.5,0-1.9,0.4-2.4,0.6c-0.5-0.4-1-0.5-1.6-0.5c-0.9,0-1.6,0.5-1.8,0.7
		C8.8,1.3,7.4,3,6.8,3.7l0,0.1C6.7,3.9,6.7,4,6.6,4c-0.8,0-2.6,0.3-4,2.1C1.4,7.8,1.3,9.3,1.3,10c-0.6,0.7-2,2.5-0.9,4.5
		c0.4,0.8,0.9,1.6,1.8,2.1c-0.1,0.8-0.1,1.9-0.1,2.8c-0.5,0.8-1.2,2.2-0.9,3.5c0.1,0.5,0.4,0.9,0.9,1.3v2.3c0,0,0.2,2.2,3.1,2.4
		c2.2,0.2,9.6-1.3,11.8-1.8c-0.1,0.4-0.1,0.7-0.1,1l-0.1,5.4c0,0.8,0.6,1.4,1.4,1.5c0.2,0,0.4,0,0.8,0c4.1,0,19.2-0.8,20-11.8
		c0.7-0.7,1-1.4,1.1-2C40.1,19.8,39.7,18.6,39.5,18.1z M29.1,2.8c0.1,0,0.2,0.1,0.3,0.1h1.7c2.8,0.5,4.4,2.9,4.6,3.4
		c0,0,0.1,0.1,0.1,0.1c2.4,1.2,2.6,2,3.2,4.3l0.1,0.5c0.2,0.6,0.1,1.2-0.1,1.9c-0.5,0.8-1.2,1.2-2,1.7c-0.4,0.3-0.9,0.5-1.3,0.8
		c-1-1-2.8-2-5.3-2c0,0,0-0.1,0-0.1c0-0.1,0-0.2,0-0.3c0.6,0.1,1.5,0.3,2.1,0.3c0.2,0,0.3,0,0.4,0c2-0.4,2.3-2,2.2-2.9l-0.2-3
		c0-0.8-0.4-1.4-0.9-1.9c-0.8-0.6-1.8-0.8-2.7-0.5c-0.9,0.3-4,1.5-5.1,4.3l-1.3-0.4C24.7,9,24.3,8.9,23.8,9c0-0.1,0-0.2,0-0.4
		c2-0.4,4.3-3.3,4.5-5c0-0.4,0-0.8-0.1-1.2C28.6,2.6,29,2.8,29.1,2.8z M22,13.6c-0.1-0.5-0.1-1.1-0.1-1.6c0-0.9,0.5-1.6,1.2-2
		c0.3-0.2,0.7-0.3,1-0.3c0.2,0,0.4,0,0.7,0.1l3.2,1c0.1,0,2,0.6,1.6,2.6c0,0.2-0.1,0.3-0.1,0.5v0c-0.5,1.3-1.9,2.8-3.3,3.6
		c0,0-0.1,0-0.1,0c-0.7,0.4-1.3,0.7-1.8,0.7c-0.1,0-0.2,0-0.3,0c-0.9-0.3-1.8-2.4-2.1-4.5l0,0C22,13.6,22,13.6,22,13.6z M27.1,9.8
		c1.1-2.5,3.8-3.6,4.6-3.8c0.7-0.2,1.5-0.1,2,0.4c0.4,0.3,0.6,0.8,0.7,1.3l0.2,3c0,0.1,0.1,1.8-1.6,2.1c-0.4,0.1-1.7-0.1-2.4-0.3
		c-0.2-1.4-1.4-2.1-2.2-2.4L27.1,9.8z M30.2,14.5c2.7,0,4.3,1.2,4.9,1.7l0,0c-1.3,1.7-4.3,2.9-5.7,3.3c0-0.1-0.1-0.3-0.2-0.5
		c-0.4-0.6-1.1-1.1-1.9-1.3C28.6,16.9,29.7,15.7,30.2,14.5z M29.3,20.4c1.3-0.4,4.8-1.6,6.5-3.7c0.1,0,0.1-0.1,0.2-0.1
		c0,0,0.1-0.1,0.1-0.1c0,0,0.1,0,0.2-0.1c0.4-0.3,0.8-0.5,1.2-0.8c0.4-0.3,0.9-0.5,1.4-0.9v3.1c0,0.1,0,0.2,0,0.2
		c-5.8,7.4-18,8.4-21,8.3l-0.1-4.1c0.4,0.1,0.9,0.1,1.5,0h0c0.2,0,0.4,0,0.7,0c0.6,0,1.4,0,2.3,0.2c0.4,0.1,0.8,0.1,1.2,0.1
		C25.8,22.5,28.4,21.2,29.3,20.4z M21.1,3c0-0.1,0-0.2,0-0.3c0-0.7,0.3-1.3,0.9-1.7c0.4-0.3,0.9-0.3,1.4-0.2l2.8,0.7
		c0.1,0,0.5,0.1,0.8,0.4c0,0,0,0.1,0.1,0.1c0.3,0.3,0.6,0.8,0.5,1.5c-0.2,1.4-2.2,4-3.8,4.3c0-0.9-0.2-1.8-0.4-2.3
		c-0.3-0.6-0.7-1.1-1.2-1.4c0,0,0.1-0.1,0.1-0.2c0-0.2,0-0.4-0.1-0.5h0c-0.1,0-0.3,0.1-0.3,0.4c0,0,0,0.1,0,0.1
		c-0.2-0.1-0.5-0.1-0.8-0.2C21.1,3.6,21.1,3.2,21.1,3z M20.7,4.6c0.9,0,1.6,0.4,2,1.3c0.2,0.4,0.3,1.5,0.3,2.4l0,0l0,0
		c0,0.3,0,0.6,0,0.9c-0.1,0-0.2,0.1-0.3,0.1c-0.9,0.5-1.5,1.5-1.6,2.7c0,0.4,0,0.8,0,1.3c-2.5-0.3-4.8-2.6-5.7-4.2
		c-0.4-0.8-0.5-1.6-0.1-2.4c0.3-0.5,0.7-0.9,1.3-1.1l3.3-1C19.9,4.7,20.3,4.6,20.7,4.6L20.7,4.6z M17.8,1.2c0.7,0,2,0,2.8,0.2
		c-0.2,0.4-0.3,0.8-0.3,1.3c0,0,0,0.1,0,0.3c0,0.3,0,0.6,0,0.8c-0.4,0-0.7,0.1-0.7,0.1l-2.4,0.8c-0.3-0.9-0.8-2.2-1.3-3
		C16.7,1.5,17.5,1.2,17.8,1.2z M12.4,1.9c0,0,0.6-0.6,1.4-0.6c0.4,0,0.8,0.2,1.2,0.5c0.5,0.4,1.2,1.9,1.5,3.2h-0.1
		c-0.8,0.3-1.4,0.8-1.8,1.5c-0.3,0.6-0.4,1.2-0.3,1.9c-0.4,0-1.1,0-1.6-0.3c-0.2-0.5-0.5-1-0.9-1.4c-0.4-0.4-1-0.6-1.5-0.6
		c-0.2,0-0.4,0-0.6,0.1C9.5,5.8,9.5,5.3,9.5,5.2c0-0.5,0.2-1,0.6-1.3L12.4,1.9z M12.5,10.9c0,0.8-0.2,1.3-0.4,1.5
		c-0.1,0.1-0.3,0.2-0.8,0.2c-1.1,0-2.8-0.6-3.7-1.2C7.1,11,6.8,10.4,6.8,9.9c0-0.3,0.1-0.6,0.3-0.8c0,0,0,0,0,0
		c0-0.1,0.1-0.1,0.2-0.2l1.9-1.6c0,0,0.5-0.4,1.1-0.4c0.4,0,0.7,0.1,1,0.4c0.3,0.3,0.5,0.7,0.8,1.2l0,0C12.4,9.2,12.5,10,12.5,10.9z
		 M7.4,4.2L7.4,4.2C7.9,3.5,8.9,2.3,11.1,2L9.6,3.3C9.1,3.8,8.8,4.4,8.8,5.2v0C8.5,5,8,4.7,7.4,4.2C7.4,4.3,7.4,4.2,7.4,4.2z
		 M3.2,6.6C4.4,5,6,4.8,6.7,4.7C7.7,5.5,8.4,6,9,6.2c0,0.1,0.1,0.2,0.1,0.3C8.9,6.6,8.8,6.7,8.7,6.7L6.9,8.3c0,0-0.1,0.1-0.2,0.2
		C4.7,8.2,3,9,2.1,9.5C2.1,8.8,2.3,7.7,3.2,6.6z M1.1,14.1c-0.8-1.6,0.3-3.1,0.9-3.7c0,0,0.1,0,0.2-0.1c0.7-0.4,2.3-1.2,4.1-1.2
		C6.2,9.4,6.1,9.6,6.1,9.9c0,0.8,0.4,1.6,1.1,2.1c1.1,0.8,2.9,1.4,4.2,1.4c0.6,0,1-0.1,1.3-0.4c0.5-0.4,0.6-1.4,0.6-2
		c0-0.6-0.1-1.3-0.3-2c0.4,0.1,0.8,0.1,1.1,0.1c0.2,0,0.4,0,0.4,0c0.1,0.2,0.1,0.3,0.2,0.5c0.8,1.4,2.3,2.9,4,3.8h-0.6
		c-0.1,0-0.1,0-0.2,0c-2,0.6-7.7,1.3-7.8,1.3c-0.1,0-0.2,0-0.3,0.1c-0.3,0.2-2.4,0.5-4.5,0.7c-0.1,0-0.5,0.1-1,0.1
		c-0.6,0.1-1.6,0.2-2,0.3C1.8,15.4,1.5,14.9,1.1,14.1z M2.6,23.6c-0.4-0.3-0.6-0.6-0.7-1c-0.2-0.8,0.2-1.7,0.5-2.4
		c0.7,1,2.1,1.7,2.8,1.6c0.4,0,4.2-0.7,7.6-1.2c1.6-0.3,3-0.5,3.9-0.6c0,0.4,0,0.8,0,1.1c0,0.2,0.1,0.4,0.2,0.5v0.2
		c-1.2,0.6-2.8,0.6-3.6,0.6c-0.8,0-1.6,0-2.4,0.3c-1.1,0.4-2.5,0.5-3.6,0.5c-0.6,0-1.1,0-1.5,0.1c0,0-0.1,0-0.1,0
		C5.7,23.6,4.7,24.1,2.6,23.6z M5.2,28c-2.1-0.2-2.4-1.6-2.4-1.7v-1.9c1.9,0.4,3,0,3.2-0.2c0.4,0,0.8-0.1,1.4-0.1
		c1.2-0.1,2.6-0.1,3.8-0.6c0.7-0.2,1.4-0.2,2.1-0.2c0.8,0,2.3,0,3.6-0.5l0.1,3.5C14.7,26.7,7.3,28.2,5.2,28z M16.8,19.3
		c-0.8,0.1-2.4,0.4-4.2,0.7c-3.2,0.5-7.2,1.1-7.6,1.2c-0.4,0-2-0.7-2.3-1.8c-0.1-1,0-2.2,0.1-2.9c0.4,0,0.9-0.1,1.5-0.2
		c0.5,0,0.9-0.1,1-0.1c0,0,4.1-0.3,4.9-0.8c0,0,0,0,0,0c0,0,5.8-0.8,7.9-1.3h1.2c0,0,0,0,0,0v0l-1.5,2.7
		C17.8,17,17.1,18.1,16.8,19.3z M17.5,19.8C17.5,19.7,17.5,19.7,17.5,19.8c0.3-1.3,1-2.6,1-2.6l1.5-2.7c0.1-0.2,0.1-0.4,0-0.7
		c0.4,0.1,0.8,0.2,1.2,0.2c0.4,2.2,1.3,4.6,2.6,4.9c0.1,0,0.3,0,0.5,0c0.6,0,1.3-0.3,2.1-0.7c1,0.2,1.8,0.7,2.1,1.2
		c0.1,0.1,0.1,0.3,0.1,0.4c-0.8,0.6-3.1,1.9-5.3,1.9c-0.4,0-0.7,0-1-0.1c-1-0.2-1.8-0.2-2.4-0.2c-0.2,0-0.5,0-0.7,0h0
		c-0.2,0-0.4,0-0.5,0c-0.7,0-1,0-1.1-0.2l0,0c-0.1-0.1-0.1-0.1-0.1-0.3C17.4,20.6,17.4,20.2,17.5,19.8z M18.1,34.1
		c-0.4,0-0.7-0.3-0.7-0.7l0-4.4c0.8,0.4,2.6,0.8,6.8-0.2l0,0l0,0c0,0,4.6,0.2,8-2.3l0,0c0.5-0.1,3.1-0.7,4.6-2.9l0,0
		c0.2-0.1,0.4-0.1,0.7-0.1c0.2,0,0.4,0,0.6,0C36.9,34.4,20.1,34.2,18.1,34.1z M39.2,21c0,0.5-0.4,1-0.9,1.6
		c-0.3,0.2-0.6,0.2-0.9,0.2c-0.3,0-0.7,0-1,0.2l-0.1,0c0,0-0.1,0-0.1,0.1l0,0.1c-1.3,2-3.7,2.5-4.1,2.6h0l-0.1,0c0,0-0.1,0-0.1,0
		l0,0c-3.1,2.3-7.4,2.1-7.5,2.1h0c0,0-0.1,0-0.1,0h0c-4.9,1.1-6.2,0.3-6.4,0.1c-0.1,0-0.1-0.1-0.1-0.2c0-0.3,0.1-0.7,0.2-1.1h0
		c3,0.1,15.1-0.9,21.2-8C39.1,19.5,39.3,20.3,39.2,21z"/>
	<ellipse transform="matrix(0.9632 -0.2688 0.2688 0.9632 -1.4032 4.8162)" cx="16.9" cy="7.5" rx="0.3" ry="0.5"/>
	<ellipse transform="matrix(0.9632 -0.2688 0.2688 0.9632 -1.9556 5.1003)" cx="17.6" cy="9.7" rx="0.3" ry="0.5"/>
	<ellipse transform="matrix(0.9632 -0.2688 0.2688 0.9632 -1.1534 5.3515)" cx="19" cy="6.9" rx="0.3" ry="0.5"/>
	<ellipse transform="matrix(0.9632 -0.2688 0.2688 0.9632 -2.3063 5.6528)" cx="19.5" cy="11.2" rx="0.3" ry="0.5"/>
	<ellipse transform="matrix(0.9632 -0.2688 0.2688 0.9632 -1.7086 5.6355)" cx="19.7" cy="9.1" rx="0.3" ry="0.5"/>
	<ellipse transform="matrix(0.9632 -0.2688 0.2688 0.9632 -1.4972 6.1785)" cx="21.8" cy="8.6" rx="0.3" ry="0.5"/>
	<ellipse transform="matrix(0.9632 -0.2688 0.2688 0.9632 -0.9425 5.887)" cx="21" cy="6.4" rx="0.3" ry="0.5"/>
	<ellipse transform="matrix(0.3219 -0.9468 0.9468 0.3219 1.9144 35.6518)" cx="25.8" cy="16.5" rx="0.5" ry="0.3"/>
	<ellipse transform="matrix(0.3219 -0.9468 0.9468 0.3219 6.9465 35.3)" cx="28.1" cy="12.8" rx="0.5" ry="0.3"/>
	<ellipse transform="matrix(0.3219 -0.9468 0.9468 0.3219 4.4656 36.2249)" cx="27.5" cy="15" rx="0.5" ry="0.3"/>
	<ellipse transform="matrix(0.3219 -0.9468 0.9468 0.3219 6.2987 32.9211)" cx="26.1" cy="12.1" rx="0.5" ry="0.3"/>
	<ellipse transform="matrix(0.3219 -0.9468 0.9468 0.3219 3.8172 33.8485)" cx="25.5" cy="14.3" rx="0.5" ry="0.3"/>
	<ellipse transform="matrix(0.3219 -0.9468 0.9468 0.3219 1.2435 33.5901)" cx="24.1" cy="15.9" rx="0.5" ry="0.3"/>
	<ellipse transform="matrix(0.3219 -0.9468 0.9468 0.3219 5.4776 30.4692)" cx="24" cy="11.4" rx="0.5" ry="0.3"/>
	<ellipse transform="matrix(0.3219 -0.9468 0.9468 0.3219 3.0111 31.4461)" cx="23.5" cy="13.6" rx="0.5" ry="0.3"/>
	<ellipse transform="matrix(0.9994 -3.399368e-02 3.399368e-02 0.9994 -0.3634 1.1168)" cx="32.7" cy="11.2" rx="0.4" ry="0.3"/>
	<ellipse transform="matrix(0.9994 -3.398214e-02 3.398214e-02 0.9994 -0.3008 1.116)" cx="32.7" cy="9.4" rx="0.4" ry="0.3"/>
	<ellipse transform="matrix(0.9994 -3.399372e-02 3.399372e-02 0.9994 -0.2345 1.1113)" cx="32.6" cy="7.5" rx="0.4" ry="0.3"/>
	<ellipse transform="matrix(0.9994 -3.399467e-02 3.399467e-02 0.9994 -0.2873 0.9858)" cx="28.8" cy="8.9" rx="0.4" ry="0.3"/>
	<ellipse transform="matrix(0.9994 -3.399467e-02 3.399467e-02 0.9994 -0.243 1.043)" cx="30.6" cy="7.7" rx="0.4" ry="0.3"/>
	<ellipse transform="matrix(0.9994 -3.398214e-02 3.398214e-02 0.9994 -0.3089 1.048)" cx="30.7" cy="9.6" rx="0.4" ry="0.3"/>
	<ellipse transform="matrix(0.9994 -3.399372e-02 3.399372e-02 0.9994 -0.365 1.0464)" cx="30.6" cy="11.3" rx="0.4" ry="0.3"/>
	<path d="M24.5,5.8C24.4,5.8,24.4,5.8,24.5,5.8c-0.2,0-0.3,0.1-0.4,0.4c0,0.2,0,0.4,0.1,0.5h0c0.1,0,0.3-0.1,0.3-0.4
		S24.6,5.9,24.5,5.8z"/>
	<path d="M25.9,3.5C25.9,3.5,26,3.5,25.9,3.5c0.2,0,0.3-0.1,0.4-0.4c0-0.2,0-0.4-0.1-0.5h0c-0.1,0-0.3,0.1-0.3,0.4
		C25.8,3.2,25.8,3.5,25.9,3.5z"/>
	<path d="M25.5,5.4C25.6,5.4,25.6,5.4,25.5,5.4c0.2,0,0.3-0.1,0.4-0.4c0-0.2,0-0.4-0.1-0.5h0c-0.1,0-0.3,0.1-0.3,0.4
		C25.4,5.1,25.4,5.3,25.5,5.4z"/>
	<path d="M24.3,3C24.3,3,24.3,3,24.3,3c0.2,0,0.3-0.1,0.4-0.4c0-0.2,0-0.4-0.1-0.5h0c-0.1,0-0.3,0.1-0.3,0.4C24,2.7,24.1,2.9,24.3,3
		z"/>
	<path d="M23.9,4.8C23.9,4.8,23.9,4.8,23.9,4.8c0.2,0,0.3-0.1,0.4-0.4s0-0.4-0.1-0.5h0c-0.1,0-0.3,0.1-0.3,0.4
		C23.7,4.6,23.7,4.8,23.9,4.8z"/>
	<path d="M22.5,2.5L22.5,2.5c0.2,0,0.3-0.1,0.4-0.4c0-0.2,0-0.4-0.1-0.5h0c-0.1,0-0.3,0.1-0.3,0.4C22.3,2.3,22.3,2.5,22.5,2.5z"/>
	<ellipse transform="matrix(0.7747 -0.6323 0.6323 0.7747 -2.7258 8.2528)" cx="10.2" cy="8" rx="0.2" ry="0.4"/>
	<ellipse transform="matrix(0.7747 -0.6323 0.6323 0.7747 -4.5404 7.1548)" cx="7.8" cy="9.9" rx="0.2" ry="0.4"/>
	<ellipse transform="matrix(0.7747 -0.6323 0.6323 0.7747 -5.0181 8.1482)" cx="8.9" cy="11.1" rx="0.2" ry="0.4"/>
	<ellipse transform="matrix(0.7747 -0.6323 0.6323 0.7747 -3.6007 7.6961)" cx="9" cy="8.9" rx="0.2" ry="0.4"/>
	<ellipse transform="matrix(0.7747 -0.6323 0.6323 0.7747 -4.0987 8.6723)" cx="10.1" cy="10.1" rx="0.2" ry="0.4"/>
	<ellipse transform="matrix(0.7748 -0.6323 0.6323 0.7748 -4.9703 9.3319)" cx="10.6" cy="11.6" rx="0.2" ry="0.4"/>
	<ellipse transform="matrix(0.7747 -0.6323 0.6323 0.7747 -4.2022 9.7583)" cx="11.6" cy="10.8" rx="0.2" ry="0.4"/>
	<ellipse transform="matrix(0.7747 -0.6323 0.6323 0.7747 -3.2346 9.256)" cx="11.4" cy="9.2" rx="0.2" ry="0.4"/>
	<path d="M15.5,4.7c0,0,0.1,0,0.1,0c0.1-0.1,0.1-0.3-0.1-0.5c-0.1-0.1-0.3-0.2-0.4-0.2c0,0-0.1,0-0.1,0C14.9,4,15,4.2,15.1,4.4
		C15.3,4.6,15.5,4.7,15.5,4.7z"/>
	<path d="M14.1,3.2c0,0,0.1,0,0.1,0c0.1-0.1,0.1-0.3-0.1-0.5c-0.1-0.1-0.3-0.2-0.4-0.2c0,0-0.1,0-0.1,0c-0.1,0.1-0.1,0.3,0.1,0.5
		C13.9,3.2,14,3.2,14.1,3.2z"/>
	<path d="M14.1,5.8c0,0,0.1,0,0.1,0c0.1-0.1,0.1-0.3-0.1-0.5C14,5.1,13.9,5,13.8,5c0,0-0.1,0-0.1,0c-0.1,0.1-0.1,0.3,0.1,0.5
		C13.9,5.8,14,5.8,14.1,5.8z"/>
	<path d="M12.7,4.4c0,0,0.1,0,0.1,0c0.1-0.1,0.1-0.3-0.1-0.5c-0.1-0.1-0.3-0.2-0.4-0.2c0,0-0.1,0-0.1,0c-0.1,0.1-0.1,0.3,0.1,0.5
		C12.4,4.4,12.6,4.4,12.7,4.4z"/>
	<path d="M11.3,5.7c0,0,0.1,0,0.1,0c0.1-0.1,0.1-0.3-0.1-0.5c-0.1-0.1-0.3-0.2-0.4-0.2c0,0-0.1,0-0.1,0c-0.1,0.1-0.1,0.3,0.1,0.5
		C11,5.7,11.2,5.7,11.3,5.7z"/>
	<path d="M12.7,7.1c0,0,0.1,0,0.1,0c0.1-0.1,0.1-0.3-0.1-0.5c-0.1-0.1-0.3-0.2-0.4-0.2c0,0-0.1,0-0.1,0c-0.1,0.1-0.1,0.3,0.1,0.5
		C12.4,7,12.6,7.1,12.7,7.1z"/>
</g>
</svg>
