<?xml version="1.0" encoding="utf-8"?>
<!-- Generator: Adobe Illustrator 22.1.0, SVG Export Plug-In . SVG Version: 6.00 Build 0)  -->
<svg version="1.1" id="Слой_1" xmlns="http://www.w3.org/2000/svg" xmlns:xlink="http://www.w3.org/1999/xlink" x="0px" y="0px"
	 viewBox="0 0 20 22.5" style="enable-background:new 0 0 20 22.5;" xml:space="preserve">
<style type="text/css">
	.st0{fill:#010101;}
	.st1{fill:#060606;}
	.st2{fill:#050505;}
	.st3{fill:#FEFEFE;}
	.st4{fill:#FCFCFC;}
	.st5{fill:#FBFBFB;}
	.st6{fill:#F4F4F4;}
	.st7{fill:#DBDBDB;}
</style>
<g>
	<path d="M5.7,18.2c-3.3,0.1-5.9-3-5.3-6.2c0-0.2,0.2-0.5-0.2-0.6C0,11.3,0,11,0.1,10.7C1.1,7.3,2.2,3.9,3.3,0.5
		C3.3,0.3,3.4,0,3.7,0c0.2,0,0.4,0.1,0.5,0.3c2,3,3.9,6,5.9,9c0,0.1,0.1,0.1,0.1,0.2c-0.2,0.9,0.5,1.6,0.6,2.4
		C11.3,15.2,9,18.1,5.7,18.2z"/>
	<path d="M11.2,13.9c0.1-0.6-0.1-1.2,0.6-1.4c0,0,0.1-0.1,0.1-0.1c-0.2-0.8,0.5-0.9,0.9-1.2c2-1.6,4.1-3.1,6.1-4.7
		c0.2-0.2,0.4-0.4,0.8-0.3C20,6.4,19.9,6.8,19.9,7c0,2.8,0.1,5.6,0.1,8.4c0,0.3,0,0.7-0.4,0.8c-0.4,0.1-0.1,0.3-0.1,0.5
		c0.1,2.4-1,4.5-3.1,5.4c-3.2,1.5-7.1-0.7-7.4-4.2c0-0.4,0-0.4,0.8-1c0,0.6,0,1.1,0.2,1.6c0.7,2.4,3.3,3.8,5.7,3
		c2.4-0.8,3.6-3.5,2.7-5.8c-0.1-0.3-0.3-0.6-0.6-0.8c-1-0.7-2.2-1.2-3.3-1.7c-0.9-0.4-1.7-0.2-2.5,0.3
		C11.7,13.6,11.5,13.7,11.2,13.9z"/>
	<path class="st0" d="M12.9,17.9c0.8,0.1,1.6,0.2,2.4,0.3c0.5,0.1,0.6,0.3,0.4,0.8c-0.8,1.4-2.6,1.4-3.4,0c-0.1-0.3-0.3-0.5-0.2-0.8
		C12.2,17.8,12.6,18,12.9,17.9z"/>
	<path class="st1" d="M12,15.1c0.4,0,0.8,0.1,1.1,0.4c0.2,0.1,0.3,0.3,0.1,0.5c-0.1,0.2-0.4,0.3-0.6,0.2c-0.3-0.2-0.6-0.2-1-0.1
		c-0.3,0.1-0.5,0-0.5-0.3c-0.1-0.3,0-0.5,0.3-0.6C11.7,15.2,11.9,15.1,12,15.1z"/>
	<path class="st2" d="M15.8,15.6c0.5,0,0.9,0.1,1.2,0.3c0.3,0.2,0.3,0.4,0.2,0.7c-0.1,0.3-0.4,0.2-0.6,0.1c-0.3-0.2-0.5-0.2-0.8-0.1
		c-0.3,0.1-0.6,0.1-0.7-0.3c-0.1-0.4,0.3-0.5,0.6-0.5C15.8,15.6,15.9,15.6,15.8,15.6z"/>
	<path class="st3" d="M7.3,9.9c0,0,0.1,0,0.1,0c1.8,0,2.4,0.6,2.6,2.3c0.3,2.6-1.5,4.8-4,5c-2.4,0.2-4.6-1.6-4.9-4.1
		c0-0.2,0-0.3,0-0.5c0.1-1.4,0.3-1.7,1.6-2.1C4.2,10.2,5.7,9.9,7.3,9.9z"/>
	<path class="st4" d="M1.2,10.1c0-0.4,0.2-0.6,0.5-0.7c1.8-0.8,3.6-1.5,5.3-2.3c0.5-0.2,0.6,0.1,0.8,0.4C8,7.9,7.6,7.8,7.5,7.9
		C5.5,8.9,3.4,9.6,1.2,10.1z"/>
	<path class="st4" d="M1.9,8.1c0-0.8,0.3-1.2,1-1.4c0.9-0.3,1.8-0.8,2.7-1.2C6.4,5.2,6.4,5.2,6.8,6C5.2,6.7,3.6,7.4,1.9,8.1z"/>
	<path class="st5" d="M2.6,5.6c0-0.7,0.3-1.1,1-1.3C4,4.2,4.5,4,4.9,3.7c0.3-0.2,0.4-0.1,0.6,0.2c0.2,0.3,0.3,0.4-0.1,0.6
		C4.5,4.8,3.6,5.2,2.6,5.6z"/>
	<path class="st6" d="M3.9,1.5c0.8,1.2,0.8,1.2-0.5,1.7C3.5,2.6,3.7,2.1,3.9,1.5z"/>
	<path class="st7" d="M8.8,9.1C8.4,9.1,8,9.1,7.6,9C8.5,8.5,8.5,8.5,8.8,9.1z"/>
	<path class="st3" d="M19,14.7c-1.7-1.3-3.6-2.2-5.8-2.8c1.9-1.5,3.8-2.9,5.8-4.4C19,10,19,12.3,19,14.7z"/>
	<path d="M6.9,13.4c0.5,0.1,1-0.2,1.3,0.3C8.4,14.3,8,14.7,7.7,15c-1.1,1.4-3.2,1.2-4-0.4c-0.3-0.5-0.1-0.9,0.5-0.9
		C5.1,13.6,6,13.5,6.9,13.4z"/>
	<path class="st2" d="M7.8,10.9C8,10.9,8.2,11,8.3,11c0.3,0.1,0.5,0.2,0.4,0.6c-0.1,0.3-0.3,0.4-0.6,0.3c-0.3-0.1-0.6-0.1-0.9,0.1
		C7,12,6.8,12,6.7,11.7c-0.1-0.2,0-0.4,0.2-0.6C7.2,11,7.5,10.9,7.8,10.9z"/>
	<path class="st2" d="M3.8,11.2c0.1,0,0.3,0,0.4,0c0.3,0.1,0.7,0.1,0.6,0.6c-0.1,0.4-0.4,0.4-0.7,0.3c-0.2-0.1-0.5,0-0.7,0.1
		c-0.2,0.1-0.5,0.2-0.6-0.2c-0.2-0.3,0.1-0.5,0.3-0.6C3.3,11.2,3.5,11.1,3.8,11.2z"/>
</g>
</svg>
