<?xml version="1.0" encoding="utf-8"?>
<!-- Generator: Adobe Illustrator 19.0.1, SVG Export Plug-In . SVG Version: 6.00 Build 0)  -->
<svg version="1.1" id="_x2018_лой_x5F_1" xmlns="http://www.w3.org/2000/svg" xmlns:xlink="http://www.w3.org/1999/xlink"
	 x="0px" y="0px" viewBox="0 0 71 203.8" style="enable-background:new 0 0 71 203.8;" xml:space="preserve">
<g>
	<g>
		<path d="M18.1,13.2c-0.9,0.7-0.5,2.7-0.3,3.7c0.2,0.9,0.7,1.8,1.2,2.7c-1-1.1-2-2.2-3.2-3.2c-0.7-0.6-1.4-1.1-2.2-1.6c0,0,0,0,0,0
			c1.1-2.6,2.4-5.9-0.2-8c-0.1-0.1-0.4-0.1-0.6,0c-2.1,2-1.6,4.5-0.8,7c-1.3-0.8-2.7-1.6-4.1-2.2c0,0,0-0.1-0.1-0.1
			C6.4,9.6,5.5,7.8,3.3,6.8C1.9,6.2,0.1,6.3,0,8.2c-0.2,2.8,4.8,3.8,6.8,4c0.1,0,0.1,0,0.2,0c1.3,0.6,2.6,1.2,3.8,2
			c-0.1,0-0.2,0-0.3-0.1c-1.1-0.2-2.1-0.3-3.2-0.4c-1.3-0.1-3.7-0.1-3.9,1.6c-0.3,2,1.8,2.5,3.4,2.2c2.1-0.4,3.9-1.7,5.9-2.2
			c0.7,0.5,1.4,1,2.1,1.6c1.3,1,2.3,2.1,3.4,3.3c0.1,0.1,0.2,0.2,0.3,0.3c-0.1-0.1-0.3-0.2-0.4-0.2c-0.8-0.4-1.6-0.7-2.5-1
			c-1.5-0.5-4.2-1.5-5.7-0.4c-1.1,0.8-0.6,2.1,0.4,2.6c1.6,0.8,3.7,0.7,5.5,0.8c1.2,0.1,2.3,0.1,3.5,0.2c0.2,0,0.4,0,0.7,0.1
			c0.5,0.3,1,0.5,1.5,0.7c0,0.1,0.1,0.1,0.1,0.2c0.3,0.5,1.2,0.1,0.9-0.4c0,0,0,0,0,0c0,0,0,0,0,0c0.1-0.1,0.1-0.3,0-0.5
			c-0.1-0.1-0.1-0.2-0.2-0.3c-0.3-1.2-0.7-2.3-0.8-3.6c-0.1-1.1-0.2-2.3-0.5-3.3C20.6,14.5,19.3,12.1,18.1,13.2z M1.3,9.1
			C0.8,8.4,0.9,7.3,2,7.4c0.6,0,1.3,0.5,1.8,0.8c1.2,0.8,1.9,1.9,2.6,3C4.7,11,2.3,10.4,1.3,9.1z M8.2,16.1
			c-0.8,0.3-1.8,0.7-2.7,0.6c-0.6-0.1-1.5-0.9-1-1.6C5.1,14,8.1,14.6,9,14.7c0.5,0.1,1,0.2,1.6,0.3C9.8,15.4,9,15.8,8.2,16.1z
			 M13.1,7.7c1.6,1.6,0.7,4.1-0.1,6C12.3,11.7,11.6,9.5,13.1,7.7z M17.4,21.5c-2-0.1-4.6,0.1-6.5-0.8c-0.9-0.4-1-1.2,0.2-1.4
			c1.2-0.2,2.6,0.3,3.8,0.6c1.1,0.3,2.2,0.7,3.2,1.3c0.1,0.1,0.3,0.2,0.4,0.3C18.1,21.5,17.7,21.5,17.4,21.5z M20.3,17.7
			c0.1,0.7,0.1,1.4,0.2,2.1c0,0.2,0.1,0.4,0.1,0.6c-0.5-0.8-1-1.6-1.4-2.4c-0.4-0.9-1.1-2.7-0.7-3.7c0.2-0.5,0-0.4,0.5-0.3
			c0.4,0.1,0.7,0.8,0.8,1.1C20.1,15.9,20.2,16.8,20.3,17.7z"/>
	</g>
	<g>
		<path d="M43.7,107.9c-1.6,0-3.3-0.1-5-0.4c-8.5-1.4-15.3-4.4-20-9C12.5,92.6,10,84.4,11,74c1.4-13.4,10.5-32.2,15.8-42.1
			c0.1-0.3,0.4-0.5,0.8-0.5c0.2,0,4.4,0,18.8,1.9c9.4,1.3,19.4,3.7,19.5,3.7c0.3,0.1,0.5,0.3,0.6,0.6c2,6.6,5.2,27.3,4.3,35.6
			c-1.4,14.2-6,24.6-13.1,30C53.8,106.3,49.1,107.9,43.7,107.9z M28.1,33.2c-8.9,16.8-14.3,31.4-15.3,41
			c-1.2,12.3,2.3,27.7,26.1,31.6c7,1.1,13-0.2,17.8-3.8c6.8-5.2,11.1-15.2,12.4-28.8c0.8-7.8-2.3-27.7-4.1-34.5
			c-2.1-0.5-10.7-2.5-18.8-3.5C34.6,33.5,29.6,33.2,28.1,33.2z"/>
	</g>
	<g>
		<path d="M33.5,105.8c-2.2,7.8-2.9,15.8-3.9,23.8c-1.1,8.5-2.8,16.9-4.4,25.2c-1.3,6.8-2.8,13.6-3.9,20.5c-0.7,4.4-1.5,8.8-3,13
			c-1.6,4.4-4.4,9.5-9.8,9.2c-0.7,0-0.7,1,0,1.1c9.6,0.6,12.1-13,13.4-20c2.7-14.8,6-29.6,8.3-44.5c1.4-9.4,1.8-18.9,4.4-28.1
			C34.8,105.4,33.7,105.1,33.5,105.8z"/>
	</g>
	<g>
		<path d="M36.5,106.3c-1.9,13.4-3.2,26.8-5,40.2c-0.9,6.7-1.9,13.4-3,20.1c-1.1,6-2.6,12.1-3.2,18.2c-0.7,6.6,0.2,13.1,3.6,18.8
			c0.3,0.6,1.3,0.1,1-0.6c-6.7-11.2-2.4-24-0.3-35.9c2.3-12.8,3.8-25.6,5.3-38.5c0.9-7.4,1.7-14.7,2.8-22.1
			C37.7,105.9,36.6,105.6,36.5,106.3z"/>
	</g>
	<g>
		<path d="M61.4,0.1c-1.6-0.7-2.8,1.6-3.4,2.7c-1.1,2.1-1.6,4.3-1.7,6.6c-0.2,0.2-0.2,0.6,0,0.8c0,0.1,0,0.1,0,0.2c0,0,0,0,0,0.1
			c-0.9,0.8-2.6,5.4-3.1,6.2c-1.4,2.5-3.3,4.3-5.4,6.2c-0.1,0.1-0.2,0.2-0.4,0.3c1-2.9,2.9-5.3,3.5-8.4c0.5-2.5,0.6-5.7-1.4-7.6
			c-0.2-0.2-0.6-0.2-0.9,0c-4.4,4.6-3.8,11.7-3,17.5c-1.6,1.3-3.3,2.5-5.1,3.5c-2.5,1.4-5,3.2-7.9,3.8c-0.8,0.2-0.5,1.3,0.3,1.1
			c2.8-0.6,5.3-2.3,7.8-3.7c2.2-1.2,4.2-2.6,6.1-4.2c2.6,2.1,6.4,3.5,9.8,3.2c1.5-0.1,5.2-0.5,5.2-2.6c0.1-2.6-3.7-2.7-5.4-2.7
			c-2.8,0.1-5.5,0.6-8.2,0.9c0,0,0,0,0,0c2.2-1.9,4.3-3.7,5.7-6.2c1.3-2.2,2.2-4.6,3.5-6.9C59.2,9.4,61,7.5,62,5.4
			C62.7,3.9,63.4,1,61.4,0.1z M49.1,8.4c1.6,2,1,5.4,0.3,7.7c-0.6,2.2-2,4-2.9,6.1C46.1,17.5,46,12.1,49.1,8.4z M60.1,25
			c1.9,1.8-2.8,2.3-3.7,2.4c-2.6,0.1-5.4-0.8-7.7-2.2c1.7-0.2,3.3-0.5,4.9-0.6C55.3,24.3,58.7,23.7,60.1,25z M61.3,4
			C61,4.9,60.5,5.7,60,6.4c-0.7,1-1.6,2-2.5,2.9c0.1-1.8,0.4-3.4,1.1-5.1C59,3.5,60.2,0.8,61,1.3C61.8,1.8,61.5,3.4,61.3,4z"/>
	</g>
	<g id="XMLID_4_">
		<g>
			<path d="M37.6,26.5c1.5-0.3,6.8-0.5,6.3,2.3c-0.4,2.2-3.9,3.6-5.7,4.1c-2,0.5-4.1,0.9-6.1,0.9c1.3,0.5,2.6,1,3.8,1.8
				c1.3,0.9,2.4,2,3.1,3.4c0.4,0.9,1,2.3,0.2,3.2c-1.3,1.5-4.3-0.1-5.6-0.9c-2-1.3-3.9-3.1-5.4-5.1c0.8,3.9,0.6,8.4-3,9.1
				c-0.2,0-0.5-0.1-0.6-0.3c-1.1-2.2-1.1-4.5-0.7-6.8c-0.2,0.7-0.5,1.4-0.8,2.1c-0.8,1.5-2.7,3.9-4.7,2.9c-1.8-0.9-0.1-3.8,0.5-4.9
				c0.4-0.8,0.9-1.7,1.5-2.5c-1.1,0.4-2.3,0.7-3.5,0.8c-1.3,0.1-5.4,0.1-5-2.2c0.3-1.8,3.5-2.5,4.9-2.9c2.1-0.6,4.2-0.8,6.4-0.8
				c-0.5-0.2-0.9-0.5-1.4-0.7c-1.2-0.6-2.4-1.1-3.6-1.7c-1.4-0.7-3.9-2.2-3-4.2c0.8-1.7,3.4-1.1,4.7-0.5c2.3,1,3.8,3.3,5.2,5.5
				c0-0.6,0-1.3,0-1.9c0.1-1.5,0-2.9,0.1-4.4c0-1.8,0.4-5.7,3-5.6c2,0.1,2.3,3.2,2.3,4.7c0,0.8-0.2,1.6-0.4,2.3
				c0.3-0.5,0.7-1.1,1.1-1.6c1-1.3,4.1-4,5.7-1.9c1.3,1.7-0.6,4.6-1.6,5.9c-0.1,0.1-0.2,0.3-0.4,0.5C35.7,26.9,36.7,26.7,37.6,26.5z
				 M42.7,29c0.7-1.4-1.8-1.6-2.7-1.7c-1.7-0.1-3.4,0.4-4.9,1c-0.7,0.3-1.5,0.6-2.2,1c-1.5,1.4-3.3,2.5-5.2,3.1
				c3,0.7,6.2,0.4,9.1-0.2C38.6,31.8,41.7,30.9,42.7,29z M38.4,41.4c0.5-1-1-3-1.6-3.6c-1-1.1-2.3-1.8-3.6-2.4
				c-1.8-0.8-3.6-1.2-5.5-1.8c1.5,2.4,3.5,4.6,5.8,6.4C34.1,40.5,37.6,42.8,38.4,41.4z M35.5,24.2c0.3-0.6,0.8-1.9,0.4-2.5
				c-0.7-1.1-2.8,0.6-3.3,1.2c-0.8,0.8-1.4,1.8-2,2.8c-0.5,0.9-1,1.9-1.6,2.8c-0.5,0.9-1.2,1.8-1.7,2.7c1.6-0.9,3.2-1.8,4.9-2.6
				c0.6-0.5,1.1-1.1,1.5-1.6C34.4,26,35.1,25.2,35.5,24.2z M29.1,23.5c0.3-1.1,0.5-4.5-0.8-5c-1.2-0.4-1.8,1.9-1.9,2.6
				c-0.2,1.1-0.2,2.3-0.1,3.5c0,1.8-0.4,4,0,5.9C27.2,28.2,28.4,25.9,29.1,23.5z M25.4,44.2c2.1-0.8,2-4,1.9-5.8
				c-0.1-1.7-0.5-3.4-1.1-5C25.3,37,23.9,40.7,25.4,44.2z M23.2,37c0.5-1.4,0.9-2.9,1.7-4.1c-0.7,0.5-1.4,1.1-2.1,1.6
				c-1.2,1.2-2.1,2.7-2.9,4.1c-0.4,0.7-0.8,1.5-1.1,2.2c-0.1,0.3-0.4,1-0.2,1.3c0.3,0.5,1.1,0.2,1.5,0C21.9,41.2,22.6,38.7,23.2,37z
				 M24.5,30.5c-1.3-1.9-2.6-4-4.5-5.4c-0.8-0.6-4.3-1.8-3.9,0.3c0.3,1.7,3.4,2.6,4.7,3.2C22.1,29.2,23.3,29.9,24.5,30.5z
				 M21.9,33.9c0.7-0.7,1.5-1.4,2.4-1.9c-2.1-0.1-4.3,0-6.3,0.4c-1.4,0.3-3.8,0.8-4.7,1.9c-0.8,1,1,1.4,1.8,1.4
				c1.4,0.1,2.8-0.2,4.1-0.5C20.1,34.9,21,34.5,21.9,33.9z"/>
		</g>
	</g>
	<g>
		<path d="M23.6,112.3c0.2-0.3,0.2-0.6-0.1-0.9c-2.5-2.8-8.7-4.9-12.2-2.9c-0.3,0.1-0.5,0.5-0.4,0.8c1.4,3.2,5.6,3.3,8.9,3.3
			c-1,0.7-2.4,1.3-3.2,1.8c-1,0.7-3.4,2-3.4,3.5c0,1.7,2.7,1.6,3.8,1.4c3.1-0.7,4.8-4,6.6-6.3C23.9,112.8,23.8,112.5,23.6,112.3z
			 M12.8,109.5c2.4-0.9,5.9,0.2,8.2,1.7C18.4,111.2,14.3,111.5,12.8,109.5z M16.8,118c-0.4,0.1-2,0.1-2,0.1c0-0.4,1.1-1.1,1.3-1.3
			c1.3-1,2.7-1.9,4-2.7c0.5-0.3,1.1-0.6,1.6-1C20.5,114.9,19.1,117.4,16.8,118z"/>
	</g>
</g>
</svg>
