<svg xmlns="http://www.w3.org/2000/svg" viewBox="0 0 14.16 13.76"><title>icon-vk</title><path d="M13.41,1C12-.3,3-.06,1.66,1c-2.17,1.73-1,10.2-.09,11.75.47.8,2.59,1.1,4.91,1.1,2.83,0,6-.44,6.87-1,.56-.32.93-1.29,1.11-3,.33-2.89,0-7.91-1-8.91m.26,8.82c-.17,1.54-.5,2.24-.72,2.37-1.58.91-10,1.26-10.7.14A16.84,16.84,0,0,1,1.24,7c-.15-2.75.19-4.73.91-5.31,1.19-.95,9.7-1,10.72,0,.64.6,1.16,5,.79,8.24" transform="translate(-0.42 -0.12)" style="fill:#7f7d7c"/><path d="M9.47,7.25a11.85,11.85,0,0,0,1.36-1.4.79.79,0,1,0-1.23-1A9.83,9.83,0,0,1,8.15,6.28C8.08,5.42,8,4.45,7.84,3.36a.79.79,0,0,0-1.57.2,36.34,36.34,0,0,1,.37,6.16A6.7,6.7,0,0,1,4.57,5.87.79.79,0,1,0,3,6c.22,2.43,2.47,5.53,4,5.53a1,1,0,0,0,.76-.35,4.72,4.72,0,0,0,.49-2.71,3.11,3.11,0,0,1,2.21,2.12.79.79,0,0,0,.75.55.77.77,0,0,0,.24,0,.79.79,0,0,0,.51-1,4.52,4.52,0,0,0-2.5-2.86" transform="translate(-0.42 -0.12)" style="fill:#7f7d7c"/></svg>