<svg xmlns="http://www.w3.org/2000/svg" viewBox="0 0 174.98 155.66"><title>icon-giraffe</title><path d="M46.83,125.18a25.2,25.2,0,0,0,10-9.33l0-.06a135.7,135.7,0,0,0,34,29.34c32.59,19.78,56.2,15.09,74.32-14.76s11.38-53-21.21-72.74A135.7,135.7,0,0,0,102.21,41l0-.06a25.2,25.2,0,0,0,3.67-13.17,34.6,34.6,0,0,0-5.5-17.5c-3.62-5.69-8-8.93-11.93-8.91C79.65,1.47,74.33,16.95,74.4,28A33.11,33.11,0,0,0,76.21,38.8q-3.55.19-6.83.69L56.88,19.92a9,9,0,1,0-3.54,2.22L65,40.33C54.32,42.79,46.3,47.92,41.72,55.47S36.29,72.42,39,82.93L17.59,81a8.81,8.81,0,1,0-.34,4.17l23,2.06q1.08,3.21,2.59,6.52a33.14,33.14,0,0,0-10.4,3.36C22.59,102.18,11.33,114,15.35,121.9c1.81,3.52,6.69,5.89,13.41,6.47A34.57,34.57,0,0,0,46.83,125.18ZM46.47,11.36A4.69,4.69,0,1,1,48,17.8,4.69,4.69,0,0,1,46.47,11.36Zm-40,75a4.69,4.69,0,1,1,6.44-1.57A4.69,4.69,0,0,1,6.44,86.35ZM42.6,115.06a18.11,18.11,0,0,1-8.6,1.76c-3.08-.12-4.51-1-4.72-1.42s0-1.15.61-2.11a21.57,21.57,0,0,1,8.16-7.11,16,16,0,0,1,7.23-1.92c1.66,0,2.88.5,3.27,1.26C49.47,107.32,47.64,112.47,42.6,115.06ZM161.55,128.2c-16.41,27-36.9,31.6-66.15,14.73-7.91-6.36-4-28.52,8.75-49.56s30.75-34.83,40-30.6C172.56,80.92,177.94,101.19,161.55,128.2ZM86.65,36.11A16,16,0,0,1,85,28.81c0-6.44,2.74-12,4.13-12,.46,0,1.9.86,3.44,3.53A18.09,18.09,0,0,1,95,28.75c0,5.66-3.69,9.67-5.72,9.68C88.42,38.43,87.44,37.57,86.65,36.11ZM78.58,28c-.07-10.85,5-22.36,9.92-22.39,2.38,0,5.67,2.72,8.38,7a30.27,30.27,0,0,1,4.85,15.28,21,21,0,0,1-4,12.35c-.93-.16-1.86-.31-2.79-.45a13.82,13.82,0,0,0,1.88-2.44,16.41,16.41,0,0,0,2.33-8.59,22.14,22.14,0,0,0-3-10.49c-1.21-2.11-3.74-5.66-7.09-5.64-5.47,0-8.33,9.45-8.29,16.24A20,20,0,0,0,83,38.11c.12.22.25.41.37.61-.91,0-1.81-.05-2.7-.05A28.12,28.12,0,0,1,78.58,28ZM45.3,57.64c12.19-20.09,54.7-19.42,91.36.65-11.11,2.44-25.08,14.77-36.09,32.91S85.1,127.39,88.05,138.39C53.32,115.13,33.11,77.73,45.3,57.64ZM19.08,120c-2.23-4.35,5.62-14.19,15.28-19.14a28.19,28.19,0,0,1,10.43-3.09c.41.78.85,1.58,1.29,2.37-.24,0-.47,0-.71,0a20,20,0,0,0-9.22,2.37c-6,3.1-13.08,10-10.58,14.85,1.53,3,5.84,3.59,8.28,3.69a22.14,22.14,0,0,0,10.67-2.21,16.41,16.41,0,0,0,6.54-6A13.82,13.82,0,0,0,52.34,110c.55.76,1.11,1.52,1.68,2.27a21,21,0,0,1-9.11,9.24,30.24,30.24,0,0,1-15.79,2.75C24.11,123.77,20.16,122.11,19.08,120Z" transform="translate(0 -1.42)"/><path d="M130.89,113.24c-4.93-1.53-9.4-.23-10.42,3.06s1.94,6.89,6.86,8.42c4.4,1.37,8.44.47,10-2.07a4.48,4.48,0,0,0,.44-1c1-3.27-1.94-6.88-6.87-8.42Zm2.87,7.18c-.15.46-2.13,1.25-5.19.3s-4.25-2.73-4.11-3.18l0-.06c.27-.45,2.23-1.15,5.16-.24S133.9,120,133.76,120.42Z" transform="translate(0 -1.42)"/><path d="M132.69,96.77c-2.69,2.11-2.34,6.76.83,10.83s7.6,5.55,10.3,3.44a4.36,4.36,0,0,0,1-1.18,6.07,6.07,0,0,0,.66-4.09,13.21,13.21,0,0,0-7.31-9.37A5.41,5.41,0,0,0,132.69,96.77Zm7,6h0a8.26,8.26,0,0,1,1.7,3.61c.13.84,0,1.27-.15,1.35-.37.29-2.46-.2-4.43-2.72-1.83-2.35-1.92-4.39-1.62-4.88a.26.26,0,0,1,.07-.08c.1-.08.56-.14,1.34.19A8.24,8.24,0,0,1,139.69,102.78Z" transform="translate(0 -1.42)"/><path d="M78.32,107.79a2.09,2.09,0,0,0-.7-2.87A6.06,6.06,0,0,1,83.9,94.56,2.09,2.09,0,1,0,86.07,91a10.24,10.24,0,0,0-10.63,17.51A2.09,2.09,0,0,0,78.32,107.79Z" transform="translate(0 -1.42)"/><path d="M96.57,77.73a2.09,2.09,0,0,0-.7-2.87,6.06,6.06,0,0,1,6.29-10.36,2.09,2.09,0,0,0,2.17-3.58A10.24,10.24,0,0,0,93.69,78.43,2.09,2.09,0,0,0,96.57,77.73Z" transform="translate(0 -1.42)"/></svg>