<?xml version="1.0" encoding="utf-8"?>
<!-- Generator: Adobe Illustrator 21.0.0, SVG Export Plug-In . SVG Version: 6.00 Build 0)  -->
<svg version="1.1" id="Слой_1" xmlns="http://www.w3.org/2000/svg" xmlns:xlink="http://www.w3.org/1999/xlink" x="0px" y="0px"
	 viewBox="0 0 16 18" style="enable-background:new 0 0 16 18;" xml:space="preserve">
<style type="text/css">
	.st0{fill:#7F7D7D;}
</style>
<path class="st0" d="M2.1,6.7L2.1,6.7c0.7,0,0.9-0.6,0.9-1.3c0-1,0.2-2,0.4-2.9c1.3-0.5,7.5-0.7,8.8-0.1c0.3,0.9,0.5,1.8,0.6,2.7
	C13,5.7,13.3,6.3,14,6.2c0.7-0.1,1.1-0.7,1-1.4c0,0,0-0.1,0-0.1c-0.2-2.3-0.5-3.1-0.8-3.5S12.9,0.1,9.3,0C3.4-0.1,2,1.1,1.8,1.4
	C1.4,1.8,1,2.7,0.9,5.4C1,6.1,1.5,6.6,2.1,6.7z"/>
<path class="st0" d="M13,9.4c-1.2-1-2-2.4-2.1-4c0-0.4-0.3-0.8-0.6-0.9C8.8,4,7,3.9,5.4,4.4C5.2,4.6,5.1,4.8,5.1,5
	c0,1.8-0.8,3.4-2.2,4.5C1,11,0,13.3,0,15.7C0,17.9,6.9,18,8.3,18c1.7,0,3.4-0.1,5-0.5C14,17.4,16,17,16,15.7
	C15.9,13.3,14.9,11,13,9.4z M12.8,16.7c-4.6,0.8-11.4,0-11.7-0.9c0-2.1,0.9-4.1,2.6-5.4c1.6-1.2,2.5-3.1,2.5-5.1
	C7.4,5,8.7,5.1,9.9,5.5c0.1,1.8,1,3.5,2.4,4.6c1.7,1.4,2.6,3.4,2.7,5.6C14.9,15.8,14.6,16.3,12.8,16.7L12.8,16.7z"/>
<path class="st0" d="M8.4,9.4c-0.7-0.1-2.1,0-3.4,1.9l0,0c-0.4,0.7-0.4,1.5,0,2.2c0.5,1.1,1.4,2,2.6,2.3c0.2,0,0.4,0,0.5,0
	c0.8,0,1.6-0.4,2.1-0.9c0.7-0.7,1-1.8,0.9-2.8C10.8,10.8,9.8,9.8,8.4,9.4z M9.4,14c-0.5,0.5-1.3,0.7-2,0.5c-0.9-0.3-1.4-1.3-1.1-2.2
	c0.2-0.6,0.3-1.3,1.8-1.3c1,0,1.8,0.8,1.8,1.8c0,0,0,0,0,0C9.9,13.2,9.8,13.7,9.4,14L9.4,14z"/>
</svg>
