<svg xmlns="http://www.w3.org/2000/svg" viewBox="438.5 319.5 83 81">
<g>
	<path d="M514.4,360.9c3.2-7.1,5.1-14.4,7.1-21.9c0.1-0.2,0-0.5-0.1-0.7c-0.2-0.2-0.4-0.3-0.6-0.3c-8.6,0.5-16.2,2.2-23.2,5.3
		c-0.5,0.2-0.6,0.9-0.2,1.3c0.8,0.7,1.5,1.4,2.2,2.1l-4.7,4.3c-0.1,0.1-0.3,0.2-0.3,0.3l-18,16.5c0,0-0.1,0.1-0.1,0.1l-3.9,3.6
		c-0.1,0.1-0.2,0.2-0.3,0.3l-3,2.8c-0.2,0.2-0.3,0.6-0.2,0.9c1.3,2.7,3,4.9,5,6.7l-18.4,16.2c-0.3,0.3-0.3,0.8-0.1,1.1
		c0.3,0.3,0.8,0.3,1.1,0.1l16.5-14.6c-0.2,0.6-0.3,1.3-0.2,1.9c0.3,2.3,2.3,4.7-0.2,8c-0.2,0.3-0.2,0.8,0.1,1.1
		c0.3,0.2,0.7,0.2,0.9,0c0,0.1,0,0.1,0,0.2c0,0.2,0.1,0.3,0.2,0.5c-0.1,0-0.3,0-0.4,0.1c-0.4,0.2-0.5,0.7-0.2,1.1
		c0.3,0.4,0.4,0.8,0.5,1.3c0.1,0.4,0.5,0.7,0.9,0.6c0.4-0.1,0.7-0.5,0.6-0.9c-0.1-0.6-0.4-1.2-0.7-1.7c0,0-0.1-0.1-0.1-0.1l1.5-0.1
		c0.4,0,0.7-0.4,0.7-0.8c0-0.4-0.4-0.7-0.8-0.7l-1.6,0.1c-0.1,0-0.2,0-0.3,0.1c2.6-3.8,0.4-6.7,0.2-8.7c-0.1-1.1,0.4-2.3,1.3-3
		c1.6,1.2,3.5,2.2,5.6,3c0.3,0.1,0.7,0.1,0.9-0.1c3.2-3.1,5.9-6.8,9.9-9.2l0,0c0.1-0.1,0.3-0.3,0.3-0.5c1.3-1.2,2.5-2.4,3.8-3.6
		c0.2-0.1,0.3-0.2,0.4-0.4c5-4.5,10.1-8.8,15.2-13c0.3,0.4,1.1,1.3,1.2,1.3C513.6,361.5,514.2,361.4,514.4,360.9z M476.9,382.3
		l-3.2-9.8l2.8-2.6c2.3,8.6,3.2,11.9,4.7,15.1c-1.6-0.7-3-1.4-4.2-2.3C477,382.5,477,382.4,476.9,382.3z M499.3,349
		c1.5,5.1,3.4,10.1,5.4,15c-1.2,1-2.3,2-3.5,3l-5.2-15.1L499.3,349z M485.7,361.5l5.2,14.7c-1.2,1.1-2.4,2.2-3.6,3.3l-5.3-14.7
		L485.7,361.5z M477.8,368.7l3-2.8l5.3,14.8c-1.2,1.1-2.4,2.3-3.6,3.4C481.1,381,480.2,377.6,477.8,368.7z M486.9,360.4l3.1-2.9
		c0.6,2.4,1.6,4.8,2.5,7c1,2.5,2.1,5.1,2.7,7.7c-1.1,0.9-2.1,1.9-3.1,2.8L486.9,360.4z M493.9,363.9c-1-2.5-2.1-5-2.7-7.6l3.6-3.3
		l5.1,15c-1.2,1-2.3,2-3.5,3C495.9,368.6,494.9,366.2,493.9,363.9z M505.9,363c-2.1-4.9-3.9-10-5.4-15.1l0.1-0.1
		c3.6,3.5,7,7.3,10.4,11C509.3,360.1,507.6,361.6,505.9,363z M472.5,373.6l2.4,7.3c-1.7-1.6-3.1-3.4-4.3-5.6L472.5,373.6z
		 M499.2,344.3c6.2-2.6,13-4.1,20.5-4.6c-1.7,6.5-3.4,13.1-6.2,19.6C509.1,354.4,504.4,349.1,499.2,344.3z"/>
	<path d="M472.6,396.5L472.6,396.5c-0.3-0.3-0.8-0.2-1.1,0.1c-0.3,0.3-0.6,0.6-0.9,0.8c-0.5,0.3-0.5,0.9-0.1,1.3
		c0.2,0.2,0.6,0.2,0.8,0.1c0.5-0.3,1-0.7,1.4-1.1C472.9,397.3,472.9,396.8,472.6,396.5z"/>
	<path d="M471.7,395.1c0.3,0,0.6-0.2,0.7-0.5l0.4-1.3c0.1-0.4-0.1-0.8-0.5-1c-0.4-0.1-0.8,0.1-1,0.5l-0.4,1.3c0,0.1,0,0.2,0,0.3
		l-0.8-0.6c-0.3-0.3-0.8-0.2-1,0.1c-0.3,0.3-0.2,0.8,0.1,1l0,0l1.4,1.1c0.3,0.3,0.8,0.2,1.1-0.1
		C471.8,395.7,471.8,395.3,471.7,395.1z"/>
	<path d="M466,376.3l2.3-4.8c0-0.1,0.1-0.1,0.1-0.2l10.4-22.1c0.1-0.1,0.2-0.2,0.2-0.4l2.7-5.7c0.9,0.5,1.8,1,2.7,1.5
		c0.5,0.3,1.1,0,1.1-0.6c0.9-7.6,0.3-15.3-1.8-23.7c-0.1-0.2-0.2-0.4-0.5-0.5c-0.2-0.1-0.5-0.1-0.7,0.1c-6.6,4.1-13,8-18.8,13.2
		c-0.4,0.4-0.3,1,0.2,1.3l1.5,0.7c-2.5,6.2-5.2,12.3-8,18.4c-0.1,0.1-0.2,0.3-0.2,0.5c-0.7,1.6-1.5,3.2-2.2,4.8
		c-0.1,0.1-0.2,0.3-0.3,0.5c0,0,0,0,0,0c-1.9,4.1-3.9,8.1-5.9,12.1c-0.1,0.3-0.1,0.6,0.1,0.8c1.1,1.4,2.2,2.6,3.4,3.6
		c0.3,0.3,0.7,0.6,1,0.8c-0.4,1.1-1.3,1.9-2.5,2.1c-1.8,0.4-5.4-0.8-8.3,2.8c0-0.1,0-0.2,0-0.3l-0.4-1.5c-0.1-0.4-0.5-0.6-0.9-0.5
		c-0.4,0.1-0.6,0.5-0.5,0.9l0.4,1.5c0,0-0.1,0-0.1-0.1c-0.6-0.2-1.2-0.2-1.9-0.2c-0.4,0-0.7,0.4-0.7,0.8c0,0.4,0.4,0.7,0.8,0.7
		c0.5,0,0.9,0,1.4,0.1c0.4,0.1,0.8-0.1,0.9-0.5c0-0.1,0-0.3,0-0.4c0.2,0.1,0.3,0.1,0.5,0.1c0.1,0,0.1-0.1,0.2-0.1
		c-0.1,0.3-0.1,0.6,0.2,0.9c0,0,0,0,0,0c0.3,0.2,0.8,0.2,1.1-0.2c2.4-3.3,5.5-2.1,7.6-2.5c0.6-0.1,1.2-0.4,1.8-0.7l-9,20.1
		c-0.2,0.4,0,0.8,0.4,1c0.4,0.2,0.8,0,1-0.4l10-22.3c2.4,1.4,5,2.3,7.9,2.8c0.3,0.1,0.7-0.1,0.8-0.4l1.7-3.7
		C466,376.6,466,376.4,466,376.3z M451.1,370.4c0.7-1.5,1.5-3,2.2-4.4l15.7,0.7l-1.7,3.7C457.9,370.7,454.4,370.9,451.1,370.4z
		 M456.1,360.1l15.6,0.6l-2.1,4.5l-15.6-0.7C454.7,363,455.4,361.6,456.1,360.1z M463.7,343.3c5.3,0.6,10.6,0.8,15.9,0.8l-1.9,3.9
		l-15.9-0.5C462.5,346.1,463.1,344.7,463.7,343.3z M466.9,335.7c4.5,2.1,9.1,4.3,13.6,6.7l-0.1,0.2c-5.3,0.1-10.7-0.2-16-0.7
		C465.2,339.8,466,337.8,466.9,335.7z M477.1,349.5l-2.1,4.4c-2.7,0.2-5.4-0.1-8-0.3c-2.5-0.2-5.1-0.5-7.6-0.3
		c0.6-1.4,1.2-2.8,1.9-4.2L477.1,349.5z M466.8,355.1c2.4,0.2,4.9,0.5,7.4,0.4l-1.8,3.8l-15.6-0.6c0.6-1.3,1.2-2.5,1.8-3.8
		C461.3,354.6,464.1,354.8,466.8,355.1z M465.7,333.5c5.4-4.6,11.3-8.3,16.9-11.7c1.7,7.4,2.3,14.3,1.6,21
		c-5.8-3.3-11.9-6.2-17.9-8.9L465.7,333.5z M450.6,371.9c3.4,0.5,6.8,0.3,15.8,0l-1.6,3.5l-10.3-0.2c-0.1,0-0.2,0-0.3,0.1
		C452.9,374.3,451.7,373.2,450.6,371.9z M456.3,376.8l7.7,0.1l-1.1,2.3C460.5,378.7,458.4,377.9,456.3,376.8z"/>
	<path d="M442.3,384.6c0.2-0.4,0.1-0.8-0.2-1.1c-0.4-0.2-0.8-0.1-1.1,0.2c-0.3,0.5-0.5,1.1-0.7,1.7c-0.1,0.4,0.2,0.8,0.6,0.9
		c0.4,0.1,0.8-0.2,0.9-0.6C441.9,385.4,442.1,385,442.3,384.6z"/>
	<path d="M445.5,385.1l-0.9-0.6c0.1,0,0.2,0,0.2-0.1l1.2-0.8c0.3-0.2,0.4-0.7,0.2-1.1c-0.2-0.4-0.7-0.4-1.1-0.2l-1.2,0.8
		c-0.3,0.2-0.4,0.5-0.3,0.8c-0.3-0.1-0.6,0.1-0.8,0.3c-0.2,0.3-0.2,0.8,0.1,1c0.1,0,1.5,1,1.5,1.1c0.3,0.2,0.8,0.1,1.1-0.2
		C445.9,385.8,445.8,385.4,445.5,385.1z"/>
	<path d="M465.3,344.9l-0.7-0.4c-0.2-0.1-0.4-0.1-0.5,0.1c-0.1,0.2-0.1,0.4,0.1,0.5c0,0,0.7,0.4,0.7,0.5c0.2,0.1,0.4,0.1,0.5-0.1
		C465.5,345.3,465.5,345,465.3,344.9z"/>
	<path d="M467.5,344.4l-0.4-0.1c-0.2,0-0.4,0.1-0.4,0.3c0,0.1,0,0.3,0.1,0.4c0.1,0.1,0.4,0.1,0.6,0.2c0.2,0,0.4-0.1,0.4-0.3
		C467.9,344.7,467.8,344.5,467.5,344.4z"/>
	<path d="M470.7,344.7c-0.2-0.1-0.4-0.1-0.5,0l0,0.1c-0.1,0.2-0.1,0.4,0.1,0.5c0.2,0.1,0.4,0.1,0.6-0.1
		C470.9,345.1,470.9,344.8,470.7,344.7z"/>
	<path d="M477.5,345.1c-0.4-0.3-1,0.4-0.6,0.7c0.2,0.1,0.4,0.1,0.5,0l0.1-0.1C477.7,345.5,477.7,345.2,477.5,345.1z"/>
	<path d="M474.1,345.2l0,0.4L474.1,345.2c-0.3,0-0.4,0.2-0.4,0.4c0,0.5,0.9,0.5,0.8-0.1C474.5,345.3,474.3,345.1,474.1,345.2z"/>
	<path d="M475.3,346.1c-0.3-0.4-0.9,0-0.7,0.4c0.2,0.3,0.3,0.5,0.6,0.3C475.6,346.6,475.5,346.4,475.3,346.1z"/>
	<path d="M467.7,346.3l-0.1-0.2c-0.1-0.2-0.3-0.2-0.5-0.1c-0.2,0.1-0.2,0.3-0.1,0.5c0.2,0.3,0.3,0.5,0.6,0.3
		C467.7,346.8,467.8,346.5,467.7,346.3z"/>
	<path d="M459.1,356.8c0.2,0.1,0.4,0.1,0.5-0.1c0.3-0.5-0.7-1.1-1-0.6C458.3,356.4,458.7,356.6,459.1,356.8z"/>
	<path d="M462.3,355.9l0.4,0.3c0,0,0,0,0,0c0.2,0.1,0.4,0.1,0.5,0c0.1-0.2,0.1-0.4,0-0.5l-0.4-0.3c-0.2-0.2-0.4-0.1-0.5,0
		C462.1,355.6,462.2,355.8,462.3,355.9z"/>
	<path d="M466.9,356.9c0.1,0.1,0.3,0.1,0.5,0.2c0.2,0.1,0.4-0.1,0.5-0.3c0-0.2-0.1-0.4-0.3-0.5l-0.3-0.1c-0.2-0.1-0.4,0.1-0.5,0.3
		C466.7,356.7,466.8,356.8,466.9,356.9z"/>
	<path d="M470.4,356.7c0,0.1,0.1,0.2,0.1,0.3s0.2,0.1,0.3,0.1c0.2,0,0.4-0.2,0.3-0.4l0-0.2c0-0.2-0.2-0.4-0.4-0.3
		c-0.2,0-0.4,0.2-0.3,0.4L470.4,356.7z"/>
	<path d="M463,357.8c0,0.1,0.1,0.2,0.1,0.2c0.1,0.1,0.2,0.1,0.3,0.1c0.3,0,0.5-0.3,0.6-0.6c0-0.2-0.1-0.4-0.3-0.5
		c-0.2,0-0.4,0.1-0.4,0.3C463.1,357.4,463,357.6,463,357.8z"/>
	<path d="M460.1,358c0.2,0.1,0.4,0.1,0.5,0c0.1-0.2,0.1-0.4,0-0.5l-0.1,0c-0.2-0.1-0.4-0.1-0.5,0.1
		C459.9,357.6,459.9,357.9,460.1,358z"/>
	<path d="M468.7,358.4c0.1,0.1,0.2,0.1,0.3,0.1c0.5,0,0.5-0.9-0.1-0.8c-0.2,0-0.4,0.3-0.3,0.5C468.5,358.3,468.6,358.4,468.7,358.4z
		"/>
	<path d="M454.5,367.9c0.2,0,0.3-0.2,0.3-0.4l-0.1-0.6c0-0.2-0.2-0.3-0.4-0.3c-0.2,0-0.3,0.2-0.3,0.4l0.1,0.6
		C454.1,367.8,454.3,367.9,454.5,367.9z"/>
	<path d="M453.7,369.3l-0.6,0c-0.2,0-0.4,0.2-0.4,0.4c0,0.2,0.2,0.4,0.4,0.4l0.6-0.1c0.2,0,0.4-0.2,0.3-0.4
		C454.1,369.4,453.9,369.3,453.7,369.3z"/>
	<path d="M459.2,367.4c-0.1,0-0.1-0.1-0.2-0.1c-0.1-0.2-0.3-0.3-0.5-0.2c-0.2,0.1-0.3,0.3-0.2,0.5c0.1,0.2,0.2,0.3,0.3,0.4
		c0.2,0.1,0.4,0.2,0.6,0.2c0.2,0,0.4-0.2,0.4-0.4C459.6,367.5,459.4,367.4,459.2,367.4z"/>
	<path d="M464.9,367.7L464.9,367.7c-0.3-0.1-0.5,0-0.6,0.2c0,0.1,0,0.3,0.1,0.4c0.2,0.2,0.6,0.2,0.7-0.1
		C465.3,368,465.1,367.8,464.9,367.7z"/>
	<path d="M467.7,367.7c0-0.2-0.2-0.4-0.3-0.4c-0.3-0.1-0.6,0.2-0.5,0.5c0,0.1,0,0.3,0.1,0.4c0.1,0.1,0.3,0.1,0.4,0.1
		C467.6,368.1,467.7,367.9,467.7,367.7z"/>
	<path d="M461.8,369.3c0.1-0.2-0.1-0.4-0.3-0.5c-0.2-0.1-0.4,0.1-0.5,0.3l0,0.1c-0.1,0.2,0,0.4,0.2,0.5c0.2,0.1,0.4,0,0.5-0.2
		L461.8,369.3z"/>
	<path d="M462.3,366.9c-0.1-0.2-0.4-0.2-0.5-0.1l-0.2,0.2c-0.2,0.1-0.2,0.4-0.1,0.5c0.1,0.2,0.4,0.2,0.5,0.1l0.2-0.2
		C462.4,367.3,462.4,367.1,462.3,366.9z"/>
	<path d="M499.6,351.2c0-0.2-0.1-0.4-0.3-0.5c-0.2,0-0.4,0.1-0.5,0.3l-0.1,0.3c0,0.1,0,0.3,0.1,0.4c0,0,0.1,0.1,0.2,0.1
		c0.2,0.1,0.4-0.1,0.5-0.3L499.6,351.2z"/>
	<path d="M499.3,354c-0.2-0.1-0.4-0.1-0.6,0.1c-0.1,0.2-0.1,0.4,0,0.5c0.2,0.1,0.4,0.1,0.5,0l0-0.1
		C499.5,354.3,499.5,354.1,499.3,354z"/>
	<path d="M500.8,357.5L500.8,357.5c-0.1-0.2-0.3-0.3-0.5-0.2c-0.2,0.1-0.3,0.3-0.2,0.5l0,0.1c0,0.1,0.1,0.1,0.1,0.1
		c0.1,0.1,0.3,0.1,0.4,0.1C500.9,358,501,357.8,500.8,357.5L500.8,357.5z"/>
	<path d="M502.8,362.8l0.1,0.1c0.2,0.1,0.4,0.1,0.5,0c0.1-0.2,0.1-0.4,0-0.5l-0.1-0.1c-0.2-0.1-0.4-0.1-0.5,0
		C502.6,362.4,502.6,362.6,502.8,362.8z"/>
	<path d="M502.2,364l-0.2-0.3c-0.1-0.2-0.4-0.2-0.5-0.1c-0.2,0.1-0.2,0.4-0.1,0.5c0.2,0.3,0.4,0.6,0.8,0.4
		C502.3,364.4,502.3,364.2,502.2,364z"/>
	<path d="M500.6,359.7l-0.3-0.1c-0.2-0.1-0.4,0-0.5,0.2c-0.1,0.2,0,0.3,0.1,0.5c0,0,0,0,0.1,0.1l0.3,0.1c0.2,0.1,0.4,0,0.5-0.2
		C500.9,360.1,500.8,359.8,500.6,359.7z"/>
	<path d="M489.6,360l-0.3-0.2c-0.2-0.1-0.4-0.1-0.5,0c-0.1,0.2-0.1,0.4,0,0.5l0.3,0.2c0.2,0.1,0.4,0.1,0.5,0
		C489.8,360.4,489.7,360.1,489.6,360z"/>
	<path d="M489.5,362.9c0-0.5-0.8-0.5-0.8,0l0,0.1C489.2,363,489.1,363,489.5,362.9l-0.4,0L489.5,362.9z"/>
	<path d="M491.2,363.9l-0.1-0.2c-0.1-0.2-0.3-0.2-0.5-0.1c-0.2,0.1-0.2,0.3-0.1,0.5l0.1,0.2C490.8,364.7,491.4,364.3,491.2,363.9z"
		/>
	<path d="M492,367.5l-0.1-0.1c-0.1-0.2-0.3-0.2-0.5-0.1c-0.2,0.1-0.2,0.3-0.1,0.5l0.1,0.2c0.1,0.2,0.3,0.2,0.5,0.1
		C492.1,367.9,492.1,367.7,492,367.5z"/>
	<path d="M493.6,370.2c-0.2-0.1-0.4-0.1-0.5,0l-0.1,0.1c-0.1,0.2-0.1,0.4,0,0.5c0.2,0.1,0.4,0.1,0.5,0l0.1-0.1
		C493.7,370.6,493.7,370.3,493.6,370.2z"/>
	<path d="M491.7,372.3l0.4-0.1c-0.5,0-0.3,0-0.8,0.1L491.7,372.3l-0.4,0.1c0,0.1,0.1,0.2,0.1,0.3c0.3,0.2,0.7,0,0.6-0.3L491.7,372.3
		z"/>
	<path d="M490,365.4L490,365.4c-0.2-0.2-0.4-0.1-0.6,0c-0.1,0.2-0.1,0.4,0.1,0.6c0.2,0.1,0.4,0.1,0.5,0
		C490.2,365.7,490.2,365.5,490,365.4z"/>
	<path d="M480.6,367.7c-0.1-0.2-0.3-0.3-0.5-0.2c-0.2,0.1-0.3,0.3-0.2,0.5c0,0.1,0.1,0.2,0.2,0.3c0.1,0.1,0.3,0.1,0.4,0.1
		c0.2-0.1,0.3-0.3,0.2-0.5L480.6,367.7z"/>
	<path d="M479.4,369.2l-0.2-0.2c-0.1-0.2-0.4-0.2-0.5-0.1c-0.2,0.1-0.2,0.4-0.1,0.5l0.2,0.2c0.1,0.2,0.4,0.2,0.5,0.1
		C479.5,369.6,479.5,369.4,479.4,369.2z"/>
	<path d="M480.8,373.6l-0.1-0.1c-0.2-0.1-0.4-0.1-0.5,0c-0.1,0.2-0.1,0.4,0,0.5l0.1,0.1c0.2,0.1,0.4,0.1,0.5,0
		C481,373.9,481,373.7,480.8,373.6z"/>
	<path d="M481.9,371.1l-0.1-0.1c-0.1-0.2-0.3-0.2-0.5-0.1c-0.2,0.1-0.2,0.3-0.1,0.5l0.1,0.2c0.1,0.2,0.3,0.2,0.5,0.1
		C482,371.6,482,371.3,481.9,371.1z"/>
	<path d="M482.6,377.6l-0.1-0.2c-0.1-0.2-0.3-0.2-0.5-0.1c-0.2,0.1-0.2,0.3-0.1,0.5l0.1,0.2c0.1,0.2,0.3,0.2,0.5,0.1
		C482.7,378,482.7,377.7,482.6,377.6z"/>
	<path d="M484.4,380.3c0.1,0.1,0.3,0.1,0.4,0.1c0.2-0.1,0.3-0.3,0.3-0.5c0-0.2-0.2-0.4-0.3-0.4c-0.2-0.1-0.4,0.1-0.5,0.3
		c0,0.1,0,0.2,0,0.2C484.2,380.1,484.3,380.2,484.4,380.3z"/>
	<path d="M483.5,382.1l0-0.1c0-0.2-0.2-0.3-0.4-0.3c-0.2,0-0.4,0.2-0.3,0.4c0,0,0,0.1,0,0.1c0,0.1,0.1,0.2,0.1,0.3
		c0.1,0.1,0.2,0.1,0.3,0.1C483.4,382.4,483.5,382.3,483.5,382.1z"/>
	<path d="M482.8,374.7l-0.2-0.1c-0.2-0.1-0.4-0.1-0.5,0c-0.1,0.2-0.1,0.4,0,0.5l0.2,0.1c0.2,0.1,0.4,0.1,0.5,0
		C483,375.1,482.9,374.9,482.8,374.7z"/>
	<path d="M471.9,374.8c-0.1-0.2-0.3-0.3-0.5-0.2c-0.2,0.1-0.3,0.3-0.2,0.5l0.1,0.4c0.1,0.2,0.3,0.3,0.5,0.2c0.2-0.1,0.3-0.3,0.2-0.5
		L471.9,374.8z"/>
	<path d="M472.5,376.5l-0.3-0.1c-0.2-0.1-0.4,0-0.5,0.2c-0.1,0.2,0,0.3,0.1,0.5c0.3,0.2,0.7,0.3,0.9,0
		C472.8,376.8,472.7,376.6,472.5,376.5z"/>
	<path d="M459.4,377l-0.3-0.1c-0.2,0-0.4,0.1-0.5,0.3c-0.1,0.4,0.2,0.4,0.6,0.5c0.2,0,0.4-0.1,0.5-0.3
		C459.8,377.3,459.6,377.1,459.4,377z"/>
	<path d="M460.7,377.6l0.7,0.6L460.7,377.6z"/>
	<path d="M479,329.6l0.8-0.1c0.2,0,0.4-0.2,0.3-0.4s-0.2-0.4-0.4-0.3l-0.8,0.1l-0.1-1.2l1.8-0.1c0.2,0,0.4-0.2,0.3-0.4
		c0-0.2-0.2-0.4-0.4-0.3l-1.8,0.1l0-0.4c0-0.2-0.2-0.4-0.4-0.3c-0.2,0-0.4,0.2-0.3,0.4l0,0.4l-1.5,0.1c-0.2,0-0.4,0.2-0.3,0.4
		c0,0.2,0.2,0.4,0.4,0.3l1.5-0.1l0.1,1.2l-2.3,0.2c-0.2,0-0.4,0.2-0.3,0.4c0,0.1,0.1,0.2,0.2,0.3l0.2,2.6c0,0.2,0.2,0.4,0.4,0.3
		c0.2,0,0.4-0.2,0.3-0.4l-0.2-2.5l1.8-0.1l0.1,0.9c0,0.2,0.2,0.4,0.4,0.3c0.2,0,0.4-0.2,0.3-0.4L479,329.6z"/>
	<path d="M514.1,344.5l-1.6,0.1l0-0.6c0-0.2-0.2-0.4-0.4-0.3c-0.2,0-0.4,0.2-0.3,0.4l0,0.6L508,345l0-0.6c0-0.2-0.2-0.4-0.4-0.3
		c-0.2,0-0.4,0.2-0.3,0.4l0,0.6l-0.9,0.1c-0.2,0-0.4,0.2-0.3,0.4c0,0.2,0.2,0.4,0.4,0.3l0.9-0.1l0.1,0.9c0,0.2,0.2,0.4,0.4,0.3
		c0.2,0,0.4-0.2,0.3-0.4l-0.1-0.9l3.8-0.3l0.1,1c0,0.2,0.2,0.4,0.4,0.3c0.2,0,0.4-0.2,0.3-0.4l-0.1-1l1.6-0.1c0.2,0,0.4-0.2,0.3-0.4
		C514.5,344.7,514.3,344.5,514.1,344.5z"/>
	<path d="M510,348.2l1-0.1c0.5,0,0.4-0.8-0.1-0.8l-1,0.1l0-0.5c0-0.2-0.2-0.4-0.4-0.3c-0.2,0-0.4,0.2-0.3,0.4l0,0.5l-2.4,0.2
		c-0.2,0-0.4,0.2-0.3,0.4c0,0.2,0.2,0.4,0.4,0.3l2.4-0.2l0.1,1.1c0,0.2,0.2,0.4,0.4,0.3c0.2,0,0.4-0.2,0.3-0.4L510,348.2z"/>
</g>
</svg>
