<?xml version="1.0" encoding="utf-8"?>
<!-- Generator: Adobe Illustrator 21.0.0, SVG Export Plug-In . SVG Version: 6.00 Build 0)  -->
<svg version="1.1" id="Слой_1" xmlns="http://www.w3.org/2000/svg" xmlns:xlink="http://www.w3.org/1999/xlink" x="0px" y="0px"
	 viewBox="471.1 277.5 20 20" style="enable-background:new 471.1 277.5 20 20;" xml:space="preserve">
<style type="text/css">
	.st0{fill:#A0C251;}
	.st1{fill:#FFFFFF;}
</style>
<g>
	<path class="st0" d="M489.1,297.5h-16c-1.1,0-2-0.9-2-2v-16c0-1.1,0.9-2,2-2h16c1.1,0,2,0.9,2,2v16
		C491.1,296.6,490.2,297.5,489.1,297.5z"/>
	<path class="st1" d="M488.4,290.9H488c-0.2-2.9-2.3-5.3-5-6.1v-0.4c0-1.1-0.8-2-1.9-2s-1.9,0.9-1.9,2v0.4c-2.7,0.8-4.8,3.2-5,6.1
		h-0.4c-0.4,0-0.7,0.3-0.7,0.8s0.3,0.8,0.7,0.8h14.6c0.4,0,0.7-0.3,0.7-0.8S488.8,290.9,488.4,290.9z M480.7,284.5
		c0-0.2,0.2-0.4,0.4-0.4c0.2,0,0.4,0.2,0.4,0.4l0,0v0.2c-0.1,0-0.3,0-0.4,0c-0.1,0-0.3,0-0.4,0L480.7,284.5z M481.1,286.2
		c2.8,0,5.1,2.1,5.4,4.8h-10.9C476,288.3,478.3,286.2,481.1,286.2z"/>
</g>
</svg>
