<?xml version="1.0" encoding="utf-8"?>
<!-- Generator: Adobe Illustrator 21.0.0, SVG Export Plug-In . SVG Version: 6.00 Build 0)  -->
<svg version="1.1" id="Слой_1" xmlns="http://www.w3.org/2000/svg" xmlns:xlink="http://www.w3.org/1999/xlink" x="0px" y="0px"
	 viewBox="467.8 233.8 78 131.2" style="enable-background:new 467.8 233.8 78 131.2;" xml:space="preserve">
<g>
	<path d="M527.8,312.5c15-5.7,20.3-24,12.3-32.6c3.3-5.6,7.8-13.8,4.8-21.8c-2.7-7.3-11.1-11.4-18.5-9.9
		c-3.2-9.3-9.6-14.8-16.9-14.3c-7.4,0.4-15,7.7-14.3,21.3c-4.5-3.9-10.4-5.9-14.4-4.9c-5.8,1.4-12.6,10.1-12.3,18.2
		c0.3,7.2,6.9,17.2,13,20.1c0.5,1.5,1.3,2.9,2.3,4.1c-7.5-0.6-12.8,4.1-14.9,10.3c-5.6,16.2,11.8,31.5,25,32.1c0.1,0,0.1,0,0.2,0
		c0.2,0.1,0.3,0.3,0.5,0.4c-9.1,8.7,3.6,32.5,6.5,29.3c0.1-0.1,0.1-0.2,0.1-0.2c0.2-0.1,0.4-0.2,0.5-0.4c0.3-0.5,0.1-1.1-0.3-1.3
		c-5-3.1-0.1-10.8,0.7-16.2c9.8,1.4,19.8-2.5,26.9-10.4C537.6,326.6,535,316.9,527.8,312.5z M525.6,311.2c-0.1,0-0.1,0.1-0.2,0.1
		c-2.5-1-5.2-1.4-8-1.1c-1-4.8-3.3-8.8-6.8-11.6c2.5-20.1,18.6-24.6,26.6-18.5C546.4,286.9,541.4,306.4,525.6,311.2z M487,311
		c0.4-4.3,2.4-11.9,10.7-13.9c3.5-0.9,7.3-0.2,10.5,2c3.8,2.5,6.3,6.5,7.4,11.4c-1.4,0.3-2.8,0.7-4.1,1.4
		c-9.2,4.3-13.4,14.7-14.5,22.9C490.4,330.7,486,320.5,487,311z M543,258.8c2.6,7-1.4,14.5-4.4,19.7c0,0,0,0-0.1-0.1
		c-1-0.8-2.1-1.4-3.3-1.8c0.2,0.1,0.4,0,0.5-0.1c0.2-0.2,0.2-0.5,0-0.7l-0.7-0.6c-0.2-0.2-0.5-0.2-0.7,0c-0.2,0.2-0.2,0.5,0,0.7
		l0.7,0.7c0,0,0.1,0.1,0.1,0.1c-5.6-2.2-12.9-1-18.5,4.2c-3.7-8.2-2.7-24,6-29.2C529.8,247.3,540.1,251,543,258.8z M497.2,256.7
		c-1.4-14.1,6.2-20.5,12.4-20.9c7.5-0.4,12.5,6.2,14.9,12.9c-0.9,0.3-1.9,0.7-2.8,1.3c-7.1,4.3-9.6,14.5-8.8,23.3
		c-3.5-4.7-7.7-7.3-11.8-8.4c-0.6-2.9-2-5.5-3.9-7.7C497.2,257,497.2,256.9,497.2,256.7z M470.4,268.4c-0.3-7.7,6.3-15.2,10.8-16.2
		c5.4-1.3,15.5,3.9,17.8,12.2c-4.7-0.6-9.1,0.7-12,3.4c-4.7,4.2-6.7,12.6-6,18.2C475.8,282.7,470.7,274.3,470.4,268.4z M483.4,287.9
		c0-0.1-0.1-0.3-0.1-0.4c-1.6-6.1,0.8-14.6,5-18.3c5.7-5.2,17.8-4.7,25.2,8.3c0.1,0.1,0.1,0.2,0.2,0.2c0.4,1.7,1,3.2,1.7,4.5
		c-3.1,3.5-5.4,8.5-6.4,14.9c-3.6-2.2-7.8-3-11.7-2.1c-1.1,0.3-2.1,0.7-3.1,1.1c-2.2-1.4-4.3-2.3-6.3-2.9
		C485.6,292.3,484.1,290.3,483.4,287.9z M470.7,303.6c2.2-6.3,7.9-10.7,16.2-8.4c0.2,0.1,0.4,0.2,0.5,0.3c0.2,0.1,0.4,0.1,0.6,0.1
		c1.3,0.4,2.6,1.1,4.1,1.8c-4,2.7-6.5,7.4-7.1,13.3c-0.8,8.1,2.1,16.7,6.8,22.1C480.1,331,465.9,317.6,470.7,303.6z M496.3,336.6
		c0.1,0.1,0.2,0.1,0.4,0.2c-0.2,2.6-0.1,4.8,0.3,6.4c0.2,0.7,0.4,1.3,0.7,1.7c-2,1.9-3.1,4.8-3,8
		C492.7,346.6,492.6,339.8,496.3,336.6z M500.1,346.3c-0.4,2.7-2.1,6.4-2.7,10c-0.2-0.7-0.4-1.5-0.6-2.3c-0.5-3.1,0.5-6.3,2.5-8
		C499.6,346.1,499.8,346.2,500.1,346.3z M527.5,334.9c-9.7,10.8-21.6,10.5-26,9.7c-0.1,0-0.2,0-0.3,0c-0.6-0.1-1.1-0.3-1.3-0.4
		c-2.9-1.3-2.1-23.9,12.3-30.6c4.2-2,8.9-2.1,12.9-0.3C532.5,316.5,536,325.5,527.5,334.9z"/>
	<path d="M486.3,296.5l-0.6-0.3c-0.2-0.1-0.5,0-0.6,0.3c-0.1,0.2,0,0.5,0.3,0.6l0.6,0.3c0.2,0.1,0.5,0,0.6-0.3
		S486.5,296.6,486.3,296.5z"/>
	<path d="M489,296.8c-0.2-0.1-0.6,0.1-0.7,0.3c-0.1,0.2,0,0.5,0.3,0.6c0.2,0.1,0.5,0,0.6-0.3l0-0.1
		C489.4,297.2,489.3,296.9,489,296.8z"/>
	<path d="M487.2,299.8c-0.3,0-0.5,0.2-0.5,0.5c0,0.4-0.1,0.7,0.3,0.8c0,0,0.1,0,0.2,0c0.5,0,0.5-0.4,0.5-0.8
		C487.7,300.1,487.5,299.9,487.2,299.8z"/>
	<path d="M485.5,303.9l-0.3-0.1c-0.3,0-0.5,0.1-0.5,0.4c0,0.2,0.1,0.4,0.3,0.5c0,0,0.1,0,0.1,0l0.3,0c0.3,0,0.5-0.1,0.6-0.4
		C486,304.2,485.8,303.9,485.5,303.9z"/>
	<path d="M484.8,299.1c-0.2-0.1-0.5,0-0.6,0.3c-0.1,0.2,0,0.5,0.3,0.6l0.1,0c0.2,0.1,0.5,0,0.6-0.3
		C485.2,299.5,485,299.2,484.8,299.1z"/>
	<path d="M482.6,295.6c-0.2-0.1-0.5,0-0.6,0.3c-0.1,0.2,0,0.5,0.3,0.6l0.1,0c0.2,0.1,0.5,0,0.6-0.3C483,296,482.9,295.7,482.6,295.6
		z"/>
	<path d="M513.4,308.8c0.1,0,0.2,0.1,0.3,0l0.5-0.1c0.3-0.1,0.4-0.3,0.4-0.6c-0.1-0.3-0.3-0.4-0.6-0.4l-0.5,0.1
		c-0.3,0.1-0.4,0.3-0.4,0.6C513.2,308.7,513.3,308.8,513.4,308.8z"/>
	<path d="M510.7,310.1l-0.1,0.3c-0.1,0.2,0,0.5,0.3,0.6c0.2,0.1,0.5,0,0.6-0.3l0.1-0.3c0.1-0.2,0-0.5-0.3-0.6
		C511,309.7,510.8,309.8,510.7,310.1z"/>
	<path d="M507.7,312c-0.2-0.1-0.6,0.1-0.7,0.3c-0.1,0.2,0,0.5,0.3,0.6c0.2,0.1,0.5,0,0.6-0.3l0-0.1C508.1,312.3,508,312.1,507.7,312
		z"/>
	<path d="M511.9,306.5l0.1,0c0.2,0.1,0.5,0,0.6-0.3c0.1-0.2-0.1-0.6-0.3-0.7c-0.2-0.1-0.5,0-0.6,0.3
		C511.6,306.1,511.7,306.4,511.9,306.5z"/>
	<path d="M510.8,303.7c0.2,0.1,0.5,0,0.6-0.3l0-0.1c0.1-0.2,0-0.5-0.3-0.6c-0.2-0.1-0.6,0.1-0.7,0.3
		C510.4,303.3,510.5,303.6,510.8,303.7z"/>
	<path d="M509.5,306.9c-0.3,0.1-0.4,0.4-0.3,0.6l0.1,0.1c0,0.1,0.1,0.2,0.3,0.3s0.2,0.1,0.4,0c0.3-0.1,0.4-0.4,0.3-0.6l-0.1-0.1
		C510,306.9,509.7,306.8,509.5,306.9z"/>
	<path d="M520,307.9l-0.6,0.1c-0.3,0-0.5,0.3-0.4,0.5c0,0.3,0.3,0.5,0.5,0.4l0.6-0.1c0.3,0,0.5-0.3,0.4-0.5
		C520.5,308,520.3,307.9,520,307.9z"/>
	<path d="M524.3,308.5l-0.2-0.1c-0.2-0.1-0.5,0-0.6,0.3s0,0.5,0.3,0.6l0.2,0.1c0.2,0.1,0.5,0,0.6-0.3S524.5,308.6,524.3,308.5z"/>
	<path d="M526.6,309.4l0.1-0.1c0.3-0.1,0.4-0.4,0.3-0.6c-0.1-0.3-0.4-0.4-0.6-0.3l-0.1,0.1c-0.3,0.1-0.4,0.4-0.3,0.6
		C526.1,309.4,526.4,309.5,526.6,309.4z"/>
	<path d="M518.9,305.1c-0.2-0.1-0.5,0-0.6,0.3l0,0.1c-0.1,0.2,0,0.5,0.3,0.6c0.2,0.1,0.6-0.1,0.7-0.3
		C519.2,305.5,519.1,305.2,518.9,305.1z"/>
	<path d="M516.3,302.8l-0.4-0.4c-0.2-0.2-0.5-0.2-0.7,0s-0.2,0.5,0,0.7l0.4,0.4c0.2,0.2,0.5,0.2,0.7,0
		C516.5,303.3,516.4,303,516.3,302.8z"/>
	<path d="M500.1,294.3l0.8-0.2c0.3-0.1,0.4-0.3,0.3-0.6c-0.1-0.3-0.3-0.4-0.6-0.3l-0.8,0.2c-0.3,0.1-0.4,0.3-0.3,0.6
		C499.6,294.2,499.9,294.3,500.1,294.3z"/>
	<path d="M503.6,294.1l0.2,0.1c0.2,0.1,0.5,0,0.6-0.3c0.1-0.2,0-0.5-0.3-0.6l-0.2-0.1c-0.2-0.1-0.5,0-0.6,0.3S503.3,294,503.6,294.1
		z"/>
	<path d="M507.3,294.5c-0.2-0.1-0.5,0-0.6,0.3c-0.1,0.2,0,0.5,0.3,0.6l0.2,0.1c0.2,0.1,0.5,0,0.6-0.3c0.1-0.2,0-0.5-0.3-0.6
		L507.3,294.5z"/>
	<path d="M507.9,292.5c0.2,0.1,0.5,0,0.6-0.3l0-0.1c0.1-0.2,0-0.5-0.3-0.6c-0.2-0.1-0.6,0.1-0.7,0.3
		C507.5,292.1,507.6,292.3,507.9,292.5z"/>
	<path d="M505.6,291.5C505.6,291.5,505.7,291.5,505.6,291.5c0.3,0.1,0.5,0,0.7-0.2l0.5-0.8c0.1-0.2,0.1-0.5-0.2-0.7
		c-0.2-0.2-0.5-0.1-0.7,0.2l-0.5,0.8C505.3,291,505.4,291.3,505.6,291.5z"/>
	<path d="M509.1,290.1c0.2,0.1,0.5,0,0.6-0.3s0-0.5-0.3-0.6c-0.4-0.2-0.6-0.1-0.7,0.2C508.7,289.7,508.9,290,509.1,290.1z"/>
	<path d="M494.8,261.3c0.2,0.1,0.4,0,0.5-0.1l0.2-0.2c0.2-0.2,0.2-0.5,0-0.7c-0.2-0.2-0.5-0.2-0.7,0l-0.2,0.2
		c-0.2,0.2-0.2,0.5,0,0.7C494.6,261.2,494.7,261.2,494.8,261.3z"/>
	<path d="M491.3,262.1l0.3,0.2c0.2,0.2,0.5,0.2,0.7,0c0.2-0.2,0.2-0.5,0-0.7l-0.3-0.2c-0.2-0.2-0.5-0.2-0.7,0
		C491.1,261.6,491.1,261.9,491.3,262.1z"/>
	<path d="M496.3,263.3l0.4-0.2c0.3-0.1,0.4-0.4,0.3-0.6c-0.1-0.3-0.4-0.4-0.6-0.3l-0.4,0.2c-0.3,0.1-0.4,0.4-0.3,0.6
		C495.8,263.2,496.1,263.4,496.3,263.3z"/>
	<path d="M489.3,264.5c0.4,0.2,0.6,0.1,0.7-0.2c0.1-0.2-0.1-0.6-0.3-0.7c-0.2-0.1-0.5,0-0.6,0.3C489,264.1,489.1,264.4,489.3,264.5z
		"/>
	<path d="M504,264.5c0.1,0,1.2,0.2,1.3,0.2c0.3,0,0.5-0.2,0.5-0.4s-0.2-0.5-0.4-0.5l-1.1-0.1c-0.3,0-0.5,0.2-0.5,0.4
		C503.7,264.2,503.8,264.4,504,264.5z"/>
	<path d="M508.1,265.9l0.3,0.2c0.2,0.2,0.5,0.2,0.7,0c0.2-0.2,0.2-0.5,0-0.7l-0.2-0.2c-0.2-0.2-0.5-0.2-0.7,0
		C507.9,265.4,507.9,265.7,508.1,265.9z"/>
	<path d="M511.1,269.7c0.2,0.1,0.5,0,0.6-0.3c0.1-0.3,0-0.5-0.4-0.7c-0.2-0.1-0.5,0-0.6,0.3C510.7,269.3,510.9,269.6,511.1,269.7z"
		/>
	<path d="M517.8,277.9c-0.2-0.1-0.5,0-0.6,0.3l-0.1,0.2c-0.1,0.2,0,0.5,0.3,0.6c0.2,0.1,0.5,0,0.6-0.3l0.1-0.2
		C518.1,278.3,518,278,517.8,277.9z"/>
	<path d="M537.2,276l0.4,0.2c0.2,0.1,0.5,0,0.6-0.3s0-0.5-0.3-0.6l-0.4-0.2c-0.2-0.1-0.5,0-0.6,0.3
		C536.8,275.6,536.9,275.9,537.2,276z"/>
	<path d="M538.4,272.9l0.2,0.2c0.2,0.2,0.5,0.2,0.7,0c0.2-0.2,0.2-0.5,0-0.7l-0.3-0.2c-0.2-0.2-0.5-0.2-0.7,0
		C538.2,272.4,538.2,272.7,538.4,272.9z"/>
	<path d="M535.2,272.9l0.3-0.1c0.2-0.1,0.4-0.4,0.3-0.6c-0.1-0.3-0.4-0.4-0.6-0.3l-0.3,0.1c-0.2,0.1-0.4,0.4-0.3,0.6
		C534.7,272.8,535,273,535.2,272.9z"/>
	<path d="M530.6,274.5c0.1,0,0.2,0.1,0.3,0.1l0.1,0c0.3,0,0.4-0.2,0.4-0.5c0-0.3-0.3-0.5-0.6-0.5l-0.1,0c-0.3,0-0.4,0.2-0.4,0.5
		C530.3,274.3,530.5,274.5,530.6,274.5z"/>
	<path d="M516.3,275.2l-0.2-0.1c-0.2-0.1-0.5,0-0.6,0.3c-0.1,0.2,0,0.5,0.3,0.6l0.2,0.1c0.2,0.1,0.5,0,0.6-0.3
		C516.7,275.6,516.6,275.3,516.3,275.2z"/>
	<path d="M520.9,276c-0.2-0.1-0.5,0-0.6,0.3l0,0.1c-0.1,0.2,0,0.5,0.3,0.6c0.2,0.1,0.6-0.1,0.7-0.3S521.2,276.2,520.9,276z"/>
	<path d="M520.2,272.7l-0.2,0.2c-0.2,0.2-0.2,0.5,0,0.7c0,0.1,0.1,0.1,0.2,0.1c0.2,0.1,0.4,0,0.5-0.1l0.2-0.2c0.2-0.2,0.2-0.5,0-0.7
		C520.7,272.5,520.4,272.5,520.2,272.7z"/>
	<path d="M503.9,243.9l1.9-0.7l1,2.6l-3,1.1c-0.3,0.1-0.4,0.4-0.3,0.6c0.1,0.3,0.4,0.4,0.6,0.3l3-1.1l0.9,2.3
		c0.1,0.3,0.4,0.4,0.6,0.3c0.3-0.1,0.4-0.4,0.3-0.6l-0.9-2.3l1.6-0.6c0.3-0.1,0.4-0.4,0.3-0.6c-0.1-0.3-0.4-0.4-0.6-0.3l-1.6,0.6
		l-1-2.6l2.9-1.1c0.3-0.1,0.4-0.4,0.3-0.6c-0.1-0.3-0.4-0.4-0.6-0.3l-2.9,1.1c-0.1-0.2-0.4-0.4-0.6-0.3c-0.2,0.1-0.4,0.4-0.3,0.6
		l-1.9,0.7c-0.3,0.1-0.4,0.4-0.3,0.6C503.3,243.9,503.6,244,503.9,243.9z"/>
	<path d="M525.4,261.3l5.4-2.1c0.3-0.1,0.4-0.4,0.3-0.6c-0.1-0.3-0.4-0.4-0.6-0.3l-5.4,2.1c-0.3,0.1-0.4,0.4-0.3,0.6
		C524.8,261.3,525.1,261.4,525.4,261.3z"/>
	<path d="M519.5,260.4c0.1,0.3,0.4,0.4,0.6,0.3l4.3-1.7c0.3-0.1,0.4-0.4,0.3-0.6c-0.1-0.3-0.4-0.4-0.6-0.3l-4.3,1.7
		C519.5,259.9,519.4,260.2,519.5,260.4z"/>
	<path d="M522.8,263l0.9,2.3c0.1,0.3,0.4,0.4,0.6,0.3c0.3-0.1,0.4-0.4,0.3-0.6l-0.9-2.3c-0.1-0.3-0.4-0.4-0.6-0.3
		C522.8,262.4,522.7,262.7,522.8,263z"/>
	<path d="M481.9,256.8l2-0.8c0.3-0.1,0.4-0.4,0.3-0.6c-0.1-0.3-0.4-0.4-0.6-0.3l-2,0.8l-0.3-0.8c-0.1-0.3-0.4-0.4-0.6-0.3
		c-0.3,0.1-0.4,0.4-0.3,0.6l0.3,0.8l-0.7,0.3c-0.3,0.1-0.4,0.4-0.3,0.6c0.1,0.3,0.4,0.4,0.6,0.3l0.7-0.3l0.3,0.7l-2.3,0.9
		c-0.3,0.1-0.4,0.4-0.3,0.6c0.1,0.3,0.4,0.4,0.6,0.3l2.3-0.9l0.3,0.8c0.1,0.3,0.4,0.4,0.6,0.3c0.3-0.1,0.4-0.4,0.3-0.6L481.9,256.8z
		"/>
	<path d="M498.8,275.7c0.1,0.3,0.4,0.4,0.6,0.3c0.3-0.1,0.4-0.4,0.3-0.6l-0.7-1.7l0.7-0.3c0.3-0.1,0.4-0.4,0.3-0.6
		c-0.1-0.3-0.4-0.4-0.6-0.3l-0.7,0.3l-0.5-1.2l1.9-0.7c0.3-0.1,0.4-0.4,0.3-0.6c-0.1-0.3-0.4-0.4-0.6-0.3l-1.9,0.7l-0.3-0.8
		c-0.1-0.3-0.4-0.4-0.6-0.3c-0.3,0.1-0.4,0.4-0.3,0.6l0.3,0.8l-1.3,0.5c-0.3,0.1-0.4,0.4-0.3,0.6c0.1,0.3,0.4,0.4,0.6,0.3l1.3-0.5
		l0.5,1.2l-3.4,1.3c-0.3,0.1-0.4,0.4-0.3,0.6c0.1,0.3,0.4,0.4,0.6,0.3l3.4-1.3L498.8,275.7z"/>
	<path d="M499,305.1l1-0.4c0.3-0.1,0.4-0.4,0.3-0.6c-0.1-0.3-0.4-0.4-0.6-0.3l-1,0.4l-0.4-1l2.3-0.9c0.3-0.1,0.4-0.4,0.3-0.6
		c-0.1-0.3-0.4-0.4-0.6-0.3l-2.3,0.9l-0.2-0.6c-0.1-0.3-0.4-0.4-0.6-0.3c-0.3,0.1-0.4,0.4-0.3,0.6l0.2,0.6l-1.3,0.5
		c-0.3,0.1-0.4,0.4-0.3,0.6c0.1,0.3,0.4,0.4,0.6,0.3l1.3-0.5l0.4,1l-4.3,1.7c-0.3,0.1-0.4,0.4-0.3,0.6c0.1,0.3,0.4,0.4,0.6,0.3
		l4.3-1.7l0.4,1.1c0.1,0.3,0.4,0.4,0.6,0.3c0.3-0.1,0.4-0.4,0.3-0.6L499,305.1z"/>
	<path d="M520.4,320.3l-2.8,1.1l-0.7-1.9l2-0.8c0.3-0.1,0.4-0.4,0.3-0.6c-0.1-0.3-0.4-0.4-0.6-0.3l-2,0.8l-0.3-0.8
		c-0.1-0.3-0.4-0.4-0.6-0.3c-0.3,0.1-0.4,0.4-0.3,0.6l0.3,0.8l-1.1,0.4c-0.3,0.1-0.4,0.4-0.3,0.6c0.1,0.3,0.4,0.4,0.6,0.3l1.1-0.4
		l0.7,1.9l-3.5,1.4c-0.3,0.1-0.4,0.4-0.3,0.6c0.1,0.3,0.4,0.4,0.6,0.3l3.5-1.4l0.7,1.7c0.1,0.3,0.4,0.4,0.6,0.3
		c0.3-0.1,0.4-0.4,0.3-0.6l-0.7-1.7l2.8-1.1c0.3-0.1,0.4-0.4,0.3-0.6C520.9,320.3,520.6,320.2,520.4,320.3z"/>
	<path d="M527,289c-0.1-0.1,0-0.3,0.1-0.3c0.2,0.1,0.4,0,0.5-0.1c0.1-0.1,0.2-0.3,0.1-0.5l-0.7-1.7l0.4-0.2c0.3-0.1,0.4-0.4,0.3-0.6
		c-0.1-0.3-0.4-0.4-0.6-0.3l-0.4,0.2l-0.6-1.5l2.4-0.9c0.3-0.1,0.4-0.4,0.3-0.6c-0.1-0.3-0.4-0.4-0.6-0.3l-2.4,0.9l-0.2-0.6
		c-0.1-0.3-0.4-0.4-0.6-0.3c-0.3,0.1-0.4,0.4-0.3,0.6l0.2,0.6l-1.9,0.7c-0.3,0.1-0.4,0.4-0.3,0.6c0.1,0.3,0.4,0.4,0.6,0.3l1.9-0.7
		l0.6,1.5l-2.6,1c-0.3,0.1-0.4,0.4-0.3,0.6c0.1,0.3,0.4,0.4,0.6,0.3l2.6-1l0.4,1.1c-0.8,0.4-0.8,1.4-0.2,1.9
		c0.2,0.2,0.5,0.1,0.7-0.1C527.3,289.4,527.3,289.1,527,289z"/>
</g>
</svg>
