<?xml version="1.0" encoding="utf-8"?>
<!-- Generator: Adobe Illustrator 19.0.1, SVG Export Plug-In . SVG Version: 6.00 Build 0)  -->
<svg version="1.1" id="Слой_1" xmlns="http://www.w3.org/2000/svg" xmlns:xlink="http://www.w3.org/1999/xlink" x="0px" y="0px"
	 viewBox="0 0 17 15" style="enable-background:new 0 0 17 15;" xml:space="preserve">
<style type="text/css">
	.st0{fill:#807777;}
</style>
<path class="st0" d="M4.1,5.4C4,5.3,3.7,5.3,3.6,5.5l0,0C3.5,5.7,3.6,5.9,3.8,6h0.1C4,6,4.1,6,4.2,5.8l0,0C4.3,5.7,4.3,5.5,4.1,5.4z
	"/>
<path class="st0" d="M15.4,6.5c-0.5-2.1-2.1-3.8-4.2-4.6C10.8,0.7,9.7,0,8.5,0S6.2,0.8,5.9,1.8C4.6,2.3,3.5,3.1,2.7,4.3
	C2.2,4.9,1.9,5.7,1.6,6.5C0.7,6.5,0,7.3,0,8.2s0.7,1.6,1.6,1.7c0.8,3,3.5,5.1,6.8,5.1s6-2.2,6.8-5.1C16.2,9.8,17,9,17,8.2
	C17.1,7.3,16.4,6.5,15.4,6.5z M0.8,8.2c0-0.5,0.3-0.9,0.8-1c0,0.2,0,0.4,0,0.6l0,0v0.1l0,0c0,0,0,0,0,0.1v0.1v0.1l0,0v0.1l0,0v0.1
	l0,0c0,0,0,0,0,0.1c0,0,0,0,0,0.1c0,0,0,0,0,0.1s0,0.1,0,0.1l0,0C1.1,9,0.8,8.7,0.8,8.2z M8.6,0.6c0.7,0,1.3,0.3,1.7,0.9l0,0l0,0
	l0,0c-1.1,0-2,0.9-2,1.9c0,0.4,0.1,0.8,0.4,1.2l0,0c-1.1,0-2-0.9-2-2C6.5,1.5,7.4,0.6,8.6,0.6z M14.9,8.4L14.9,8.4v0.1l0,0v0.1l0,0
	v0.1l0,0v0.1l0,0c0,0,0,0,0,0.1l0,0c0,0,0,0,0,0.1s0,0,0,0.1l0,0c-0.6,2.8-3.1,4.9-6.2,4.9c-3,0-5.6-2.1-6.2-4.9c0,0,0,0,0-0.1
	s0,0,0-0.1c0,0,0,0,0-0.1l0,0V8.7l0,0V8.6l0,0c0-0.2,0-0.4,0-0.6V7.9l0,0c0,0,0,0,0-0.1l0,0c0,0,0,0,0-0.1V7.6l0,0
	C2.6,5.5,4,3.6,6,2.7l0,0C6,3,6,3.2,6.1,3.4C5.4,3.8,4.9,4.2,4.4,4.7C4.3,4.8,4.3,5,4.4,5.2c0,0,0.1,0.1,0.2,0.1s0.2,0,0.2-0.1
	c0.4-0.4,0.8-0.8,1.4-1.1c0.5,0.8,1.3,1.4,2.4,1.4c0.3,0,0.6,0,0.9-0.1c0.1,0,0.2-0.1,0.2-0.3c0-0.1,0-0.2-0.1-0.3
	C9.4,4.4,9.2,4,9.2,3.6c0-0.7,0.5-1.3,1.2-1.3C12.8,3,14.5,4.8,15,7v0.1l0,0c0,0,0,0,0,0.1l0,0c0,0,0,0,0,0.1l0,0c0,0.1,0,0.2,0,0.3
	l0,0v0.1l0,0v0.1l0,0v0.1C14.9,8.2,14.9,8.3,14.9,8.4z M15.6,9.2C15.6,9.1,15.6,9.1,15.6,9.2c0-0.1,0-0.1,0-0.2c0,0,0,0,0-0.1l0,0
	c0,0,0,0,0-0.1l0,0V8.7l0,0V8.6l0,0V8.5V8.4l0,0c0,0,0,0,0-0.1l0,0c0,0,0,0,0-0.1l0,0l0,0l0,0l0,0l0,0c0,0,0,0,0-0.1c0,0,0,0,0-0.1
	s0,0,0-0.1c0.4,0.1,0.8,0.5,0.8,1C16.4,8.7,16,9,15.6,9.2z"/>
<path class="st0" d="M7.3,8.6C7.2,8,6.6,7.5,6,7.5s-1.2,0.4-1.3,1c0,0.2,0,0.4,0.2,0.4s0.4,0,0.4-0.2C5.4,8.5,5.7,8.2,6,8.2
	s0.6,0.2,0.7,0.5C6.8,8.9,6.9,9,7.1,9c0,0,0,0,0.1,0C7.3,9,7.4,8.8,7.3,8.6z"/>
<path class="st0" d="M11.2,7.5c-0.6,0-1.2,0.4-1.3,1c0,0.2,0,0.4,0.2,0.4s0.4,0,0.4-0.2c0.1-0.3,0.3-0.5,0.7-0.5
	c0.3,0,0.6,0.2,0.7,0.5C12,8.9,12.2,9,12.3,9c0,0,0,0,0.1,0c0.2,0,0.3-0.2,0.2-0.4C12.4,8,11.8,7.5,11.2,7.5z"/>
<path class="st0" d="M9.7,11c-0.2,0-0.4,0-0.4,0.2c-0.1,0.3-0.3,0.5-0.7,0.5c-0.3,0-0.6-0.2-0.7-0.5c0-0.2-0.2-0.3-0.4-0.2
	c-0.2,0-0.3,0.2-0.2,0.4c0.1,0.6,0.7,1,1.3,1c0.6,0,1.2-0.4,1.3-1C10,11.2,9.9,11,9.7,11z"/>
</svg>
