<svg fill="#817F7E" xmlns="http://www.w3.org/2000/svg" viewBox="0 0 18 18">
	<path class="st0" d="M17.5,6.2l-5.7-5.7C11.5,0.2,11.1,0,10.7,0c-0.4,0-0.8,0.2-1.2,0.5l-9,9C0.2,9.8,0,10.2,0,10.7
		c0,0.4,0.2,0.8,0.5,1.2l0.7,0.7c0,0,0,0,0,0s0,0,0,0l4.7,4.7H5.2c-0.2,0-0.4,0.2-0.4,0.4C4.9,17.8,5,18,5.2,18h2.1c0,0,0,0,0,0
		c0,0,0,0,0,0l5.4,0c0.2,0,0.4-0.2,0.4-0.4c0-0.2-0.2-0.4-0.4-0.4l-4,0l8.8-8.8C18.2,7.9,18.2,6.8,17.5,6.2z M17,8l-9,9
		c-0.2,0.2-0.4,0.3-0.6,0.3h0c-0.2,0-0.5-0.1-0.6-0.3L2,12.3l8.7-8.7c0.1-0.1,0.1-0.4,0-0.5c-0.1-0.1-0.4-0.1-0.5,0l-8.7,8.7
		L1,11.3c-0.2-0.2-0.3-0.4-0.3-0.6c0-0.2,0.1-0.5,0.3-0.6l9-9c0.2-0.2,0.4-0.3,0.6-0.3s0.5,0.1,0.6,0.3l2,2l-8.7,8.7
		c-0.1,0.1-0.1,0.4,0,0.5c0.1,0.1,0.2,0.1,0.3,0.1c0.1,0,0.2,0,0.3-0.1l8.7-8.7L17,6.7C17.3,7.1,17.3,7.6,17,8z"/>
	<path class="st0" d="M9.2,10.8c-0.1-0.1-0.4-0.1-0.5,0l-3,3c-0.1,0.1-0.1,0.4,0,0.5c0.1,0.1,0.2,0.1,0.3,0.1c0.1,0,0.2,0,0.3-0.1
		l3-3C9.4,11.2,9.4,11,9.2,10.8z"/>
	<path class="st0" d="M8,13.6l-1.2,1.2c-0.1,0.1-0.1,0.4,0,0.5c0.1,0.1,0.2,0.1,0.3,0.1c0.1,0,0.2,0,0.3-0.1l1.2-1.2
		c0.1-0.1,0.1-0.4,0-0.5C8.4,13.5,8.2,13.5,8,13.6z"/>
	<path class="st0" d="M9.1,12.5L9,12.7c-0.1,0.1-0.1,0.4,0,0.5c0.1,0.1,0.2,0.1,0.3,0.1s0.2,0,0.3-0.1L9.7,13
		c0.1-0.1,0.1-0.4,0-0.5C9.5,12.4,9.3,12.4,9.1,12.5z"/>
	<path class="st0" d="M14.3,5.8c-0.1-0.1-0.2-0.1-0.3-0.1c-0.1,0-0.2,0-0.3,0.1l-1.6,1.6c-0.1,0.1-0.1,0.2-0.1,0.3s0,0.2,0.1,0.3
		l1.1,1.1C13.3,9,13.4,9,13.5,9c0.1,0,0.2,0,0.3-0.1l1.6-1.6c0.1-0.1,0.1-0.4,0-0.5L14.3,5.8z M13.5,8.1L13,7.6L14,6.6l0.5,0.5
		L13.5,8.1z"/>
	<path class="st0" d="M11.3,2.8c0.1,0,0.2,0,0.3-0.1l0.2-0.2c0.1-0.1,0.1-0.4,0-0.5c-0.1-0.1-0.4-0.1-0.5,0L11,2.2
		c-0.1,0.1-0.1,0.4,0,0.5C11.1,2.8,11.2,2.8,11.3,2.8z"/>
	<path class="st0" d="M3.8,12.6l-0.2,0.2c-0.1,0.1-0.1,0.4,0,0.5c0.1,0.1,0.2,0.1,0.3,0.1s0.2,0,0.3-0.1l0.2-0.2
		c0.1-0.1,0.1-0.4,0-0.5C4.2,12.4,3.9,12.4,3.8,12.6z"/>
</svg>
