<svg id="Слой_1" data-name="Слой 1" xmlns="http://www.w3.org/2000/svg" viewBox="0 0 57.08 55.59"><defs><style>.cls-1{fill:#fff;}</style></defs><title>icon-filter</title><path class="cls-1" d="M28.67,55.08a8.21,8.21,0,0,1-8.21-8.21V34.47a8.92,8.92,0,0,0-1.73-5.3L1.35,5.46l-.07-.11A2.9,2.9,0,0,1,3.73.92H53.6a2.9,2.9,0,0,1,2.46,4.43L56,5.46,38.62,29.16a8.92,8.92,0,0,0-1.73,5.3V46.84a8.26,8.26,0,0,1-8.08,8.21ZM5.1,4.5,21.61,27A12.48,12.48,0,0,1,24,34.46V46.84a4.59,4.59,0,0,0,1.39,3.3,4.49,4.49,0,0,0,3.33,1.32,4.65,4.65,0,0,0,4.49-4.62V34.47A12.48,12.48,0,0,1,35.69,27L52.2,4.51Z" transform="translate(-0.13 -0.21)"/><path class="cls-1" d="M28.73,55.79h-.07a8.93,8.93,0,0,1-8.92-8.92V34.47a8.27,8.27,0,0,0-1.59-4.88L.68,5.74a3.61,3.61,0,0,1,3-5.54H53.6a3.61,3.61,0,0,1,3.06,5.52l-.08.12L39.19,29.58a8.27,8.27,0,0,0-1.59,4.88V46.84a8.92,8.92,0,0,1-8.71,8.92ZM3.73,1.62A2.19,2.19,0,0,0,1.87,5l.06.09L19.29,28.74a9.7,9.7,0,0,1,1.87,5.73V46.84a7.52,7.52,0,0,0,7.44,7.53l.19,0a7.51,7.51,0,0,0,7.38-7.51V34.47A9.7,9.7,0,0,1,38,28.74L55.47,5A2.19,2.19,0,0,0,53.6,1.62ZM28.62,52.18a5.21,5.21,0,0,1-3.69-1.53,5.32,5.32,0,0,1-1.6-3.81V34.46a11.7,11.7,0,0,0-2.29-7L3.7,3.79H53.6L36.26,27.46a11.69,11.69,0,0,0-2.29,7V46.84a5.34,5.34,0,0,1-5.17,5.33ZM6.49,5.21,22.18,26.62a13.11,13.11,0,0,1,2.57,7.84V46.84a3.9,3.9,0,0,0,1.18,2.8,3.85,3.85,0,0,0,2.81,1.12,3.93,3.93,0,0,0,3.8-3.92V34.47a13.09,13.09,0,0,1,2.57-7.84L50.8,5.21Z" transform="translate(-0.13 -0.21)"/></svg>