<svg id="Слой_1" data-name="Слой 1" xmlns="http://www.w3.org/2000/svg" viewBox="0 0 524.07 386.18"><defs><style>.cls-1{fill:#604e42;}</style></defs><title>icon-coffe</title><path class="cls-1" d="M132,9.94a17.28,17.28,0,0,0-11.52,27.54c7.3,10.14,8.38,13.78,8.28,18.18-.11,4.92-3.19,12.71-7.74,18.36A17.34,17.34,0,0,0,148,95.8c8.65-10.75,14.95-24.12,15.3-39.24.32-13.71-5.54-26.61-14.76-39.42A17.28,17.28,0,0,0,132,9.94Zm86.4,0a17.28,17.28,0,0,0-11.52,27.54c7.3,10.14,8.38,13.78,8.28,18.18C215,60.58,212,68.37,207.42,74a17.34,17.34,0,1,0,27,21.78c8.65-10.75,14.95-24.12,15.3-39.24C250,42.85,244.18,30,235,17.14A17.28,17.28,0,0,0,218.4,9.94Zm86.4,0a17.28,17.28,0,0,0-11.52,27.54c7.3,10.14,8.38,13.78,8.28,18.18-.11,4.92-3.19,12.71-7.74,18.36a17.34,17.34,0,0,0,27,21.78h0c8.65-10.75,14.95-24.12,15.3-39.24.32-13.71-5.54-26.61-14.76-39.42A17.28,17.28,0,0,0,304.8,9.94ZM48.12,125.32A40.62,40.62,0,0,0,7.8,165.64v57.6c0,47.63,26.2,90.09,66.06,119.7s93.68,47.34,152.82,47.34,113-17.73,152.82-47.34c21-15.59,38.1-34.75,49.68-56.34h33.66a63.36,63.36,0,1,0,0-126.72H445c-2.92-19.3-19.75-34.56-39.78-34.56Zm0,34.56H405.24a5.41,5.41,0,0,1,5.76,5.76v57.6c0,35.05-18.91,67.38-52,92s-80.1,40.5-132.3,40.5-99.19-15.9-132.3-40.5-52-56.93-52-92v-57.6A5.41,5.41,0,0,1,48.12,159.88Zm397.44,34.56h17.28a28.8,28.8,0,1,1,0,57.6H442.32a130.13,130.13,0,0,0,3.24-28.8Z" transform="translate(-4.97 -6.93)"/><path class="cls-1" d="M226.68,393.12c-58.06,0-112.94-17-154.51-47.9-20.74-15.41-37.14-33.57-48.75-54C11.17,269.73,5,246.85,5,223.24v-57.6a43.45,43.45,0,0,1,43.15-43.15H405.24c20.28,0,38,14.69,42.15,34.56h15.45a66.19,66.19,0,1,1,0,132.39h-32c-11.53,20.92-28.68,40.18-49.67,55.78C339.62,376.1,284.74,393.12,226.68,393.12Zm-178.56-265c-20.32,0-37.49,17.17-37.49,37.49v57.6c0,44,23.66,86.77,64.92,117.42,40.6,30.17,94.28,46.78,151.13,46.78s110.52-16.61,151.13-46.78c20.83-15.48,37.73-34.63,48.87-55.4l.8-1.49h35.36a60.53,60.53,0,0,0,0-121.05H442.58l-.36-2.41c-2.77-18.33-18.66-32.15-37-32.15Zm178.56,230.4c-50,0-98.87-15-134-41.06C58.41,292,39.53,258.55,39.53,223.24v-57.6A8.22,8.22,0,0,1,48.12,157H405.24a8.22,8.22,0,0,1,8.59,8.59v57.6c0,35.31-18.88,68.78-53.16,94.25C325.55,343.59,276.71,358.55,226.68,358.55ZM48.12,162.71a2.62,2.62,0,0,0-2.93,2.93v57.6c0,33.47,18.07,65.33,50.88,89.7,34.17,25.38,81.77,39.94,130.61,39.94s96.44-14.56,130.61-39.94c32.81-24.37,50.88-56.23,50.88-89.7v-57.6a2.62,2.62,0,0,0-2.92-2.93Zm414.72,92.16H438.77l.79-3.46a127.33,127.33,0,0,0,3.17-28.17V191.61h20.12a31.63,31.63,0,1,1,0,63.27Zm-17-5.67h17c14.8,0,26-11.16,26-26s-11.16-26-26-26H448.39v26A133,133,0,0,1,445.82,249.21ZM134.48,105.09a20.18,20.18,0,0,1-15.67-32.85c4.5-5.59,7-12.75,7.11-16.65.08-3.33-.42-6.28-7.75-16.46a20.17,20.17,0,1,1,32.7-23.62c10.72,14.89,15.58,28,15.27,41.11-.33,14.26-5.84,28.43-15.93,41a20,20,0,0,1-13.56,7.4A20.45,20.45,0,0,1,134.48,105.09Zm-.05-92.49a14.66,14.66,0,0,0-2,.14h0a14.45,14.45,0,0,0-9.63,23c7.73,10.73,9,14.82,8.85,20-.13,5.78-3.65,14.22-8.37,20.07A14.51,14.51,0,1,0,145.81,94c9.29-11.54,14.37-24.52,14.67-37.53.28-11.86-4.24-23.83-14.23-37.7A14.4,14.4,0,0,0,134.43,12.6Zm86.47,92.48a20.17,20.17,0,0,1-15.69-32.84c4.5-5.59,7-12.75,7.11-16.65.08-3.33-.42-6.28-7.75-16.46a20.17,20.17,0,1,1,32.7-23.62c10.72,14.89,15.58,28,15.27,41.11-.33,14.26-5.84,28.42-15.93,41A20.16,20.16,0,0,1,220.9,105.08Zm-.07-92.48a14.65,14.65,0,0,0-2,.14h0a14.45,14.45,0,0,0-9.63,23c7.73,10.73,9,14.82,8.85,20-.13,5.78-3.65,14.22-8.37,20.07A14.51,14.51,0,1,0,232.21,94c9.3-11.54,14.37-24.52,14.67-37.53.28-11.86-4.24-23.83-14.23-37.7A14.4,14.4,0,0,0,220.83,12.6Zm86.47,92.48a20.17,20.17,0,0,1-15.69-32.84c4.5-5.59,7-12.75,7.11-16.65.08-3.33-.42-6.28-7.75-16.46a20.17,20.17,0,1,1,32.7-23.62c10.72,14.89,15.58,28,15.27,41.11-.33,14.26-5.84,28.43-15.93,41A20.16,20.16,0,0,1,307.3,105.08Zm-.07-92.48a14.65,14.65,0,0,0-2,.14h0a14.45,14.45,0,0,0-9.63,23c7.73,10.73,9,14.82,8.85,20-.13,5.78-3.65,14.22-8.37,20.07A14.51,14.51,0,1,0,318.61,94C327.91,82.48,333,69.5,333.29,56.49c.28-11.85-4.24-23.83-14.23-37.7A14.4,14.4,0,0,0,307.23,12.6Z" transform="translate(-4.97 -6.93)"/></svg>