<?xml version="1.0" encoding="utf-8"?>
<!-- Generator: Adobe Illustrator 22.1.0, SVG Export Plug-In . SVG Version: 6.00 Build 0)  -->
<svg version="1.1" id="Layer_1" xmlns="http://www.w3.org/2000/svg" xmlns:xlink="http://www.w3.org/1999/xlink" x="0px" y="0px"
	 viewBox="0 0 113.9 57.7" style="enable-background:new 0 0 113.9 57.7;" xml:space="preserve">
<style type="text/css">
	.st0{fill:#9A237B;stroke:#9A237B;stroke-width:0.5;stroke-miterlimit:10;}
	.st1{fill:#9A237B;}
	.st2{fill:none;}
</style>
<path class="st0" d="M77.6,9c0.1-0.2,0.1-0.4-0.1-0.5c-4.5-4.7-11-6.8-17.3-7.6c-7.3-1-15-0.6-22.3,0.9C24.6,4.3,10.1,12.1,5,25.5
	c0,0-0.1,0-0.1,0c-1,0.7-0.5,1.9-0.2,2.8c1,2.8,2,5.6,3.3,8.3c0,0,0,0,0,0c-3,2.5-5.4,5.8-7.7,8.9c-0.3,0.4,0,1,0.5,1
	c4-0.1,8.1-0.6,12-1.6c0.1,0,0.1,0,0.2-0.1c0.3,3.2,1.1,6.3,2.1,9.2c0.4,1.1,0.9,3.4,2.5,3.3c1.9-0.1,2.3-3.5,2.6-4.9
	c0.8-2.9,1.6-6,1.7-8.9c0,0,0,0,0,0c4.4-0.4,8.7-1.5,12.9-3c0.5-0.2,0.5-0.9,0.2-1.2c1.9-3.9,3.5-7.7,6.1-11.3
	c2.6-3.6,5.7-6.7,9.2-9.4c3.9-2.9,8.3-5.2,13-6.7c2.3-0.7,4.6-1.2,7-1.6c2.4-0.3,4.8-0.3,7.1-0.5C77.9,9.9,78,9.3,77.6,9z
	 M17.8,11.5c6-4.4,13.1-7.1,20.4-8.5C48.9,1,60.8,0.7,70.7,5.3C60.3,1.8,47.6,3.3,37.6,6.8c-10.1,3.6-20.3,11.3-23.2,22.1
	c-1.4-1-2.8-1.8-4.4-2.4c-1-0.4-2.7-1.3-4.1-1.3C9,19.9,12.8,15.2,17.8,11.5z M23.2,34.6C23.2,34.6,23.2,34.6,23.2,34.6
	c-0.1-1.9-0.1-3.8-0.1-5.7c0-1.8,0.2-3.7,0.1-5.5c0-0.2-0.1-0.3-0.2-0.3c6.7-6.9,15.2-12,24.5-14.5C52.2,7.4,57.1,6.8,62,7
	c2.3,0.1,4.6,0.3,6.8,0.7c-3.4,0.2-6.9,1.1-10.1,2c-4.7,1.3-9.2,3.1-13.5,5.4c-8.6,4.6-16.4,11.1-21.9,19.2
	C23.2,34.4,23.2,34.5,23.2,34.6z M61.4,5.7c-5,0-10,0.6-14.8,1.9c-9.4,2.6-18.1,7.7-24.4,15.3c-0.2-0.1-0.4,0-0.6,0.1
	c-2.2,2-4.1,4.5-6.1,6.7c-0.2-0.2-0.5-0.3-0.7-0.5c4.4-10.5,12.7-17.9,23.5-21.5c5.9-2,12.1-2.9,18.3-3c4.4-0.1,8.8,0.3,13,1.6
	C66.9,5.8,64,5.7,61.4,5.7z M21.1,42.8c-0.4,0.1-0.4,0.4-0.3,0.7c-0.5,2.1-0.7,4.2-1.2,6.3c-0.2,0.8-0.4,1.6-0.6,2.4
	c-0.2,0.7-0.4,2.6-0.9,3.1c-1.3,1.4-1.6-1.3-1.8-2.1c-0.3-0.8-0.5-1.6-0.7-2.3c-0.6-2.1-1-4.2-1.5-6.4c-0.1-0.4-0.4-0.5-0.7-0.3
	c-0.1-0.3-0.3-0.4-0.7-0.4C9.1,44.5,5.8,45,2.3,45.2c2.1-2.8,4.5-5.4,6.7-8.2c0.1-0.2,0.1-0.4,0-0.5c0-0.1,0-0.1,0-0.2
	c-0.5-1.5-1-2.9-1.5-4.3c-0.3-0.8-2.3-5-1.2-5.4c0.4-0.1,2,0.6,2.4,0.7c0.8,0.3,1.7,0.7,2.5,1.1c1.5,0.8,2.9,1.7,4.2,2.8
	c0.2,0.2,0.6,0.2,0.8-0.1c1.9-2.1,4.1-4.2,5.8-6.5c-0.6,3.4-0.2,7.2,0.3,10.5c0,0.3,0.3,0.4,0.5,0.4c0.1,0.2,0.2,0.4,0.5,0.4
	c3.3,1,6.5,2.3,9.6,3.8C28.9,41.1,25,42,21.1,42.8z M62.3,11c-4.5,1.5-8.8,3.7-12.6,6.6c-6.8,5-13.4,13-15.4,21.4
	c-3.4-1.8-6.9-3.3-10.6-4.3c0,0,0,0,0,0c6.1-7.5,13.4-13.9,22-18.5c4.2-2.2,8.6-4,13.2-5.2c3.7-1,7.7-2,11.6-1.9
	C67.6,9.4,64.8,10.2,62.3,11z"/>
<g>
	<path class="st1" d="M107.9,56.5c3-5.4,4.9-11.2,5.6-17.2c0-0.4-0.6-0.9-1.1-0.6c-4.3,2.5-8.5,4.9-12.8,7.4
		c-1.9-6.4-4.2-12.8-6.7-19.2c-0.1-0.3-0.8-0.5-1.1-0.2c-4.8,5.6-9.6,11.2-14.3,16.8c-1.7-2-3.6-3.9-5.6-5.7c-0.8-0.7-2.9-3-4.5-2.2
		c-0.8,0.4-0.4,1.2-0.4,1.9c0.1,1.4,0.2,2.9,0.4,4.3c0.3,3,0.8,6,1.5,8.9c0,0,0,0.1,0,0.1c-0.1,0.2,0,0.4,0.3,0.5
		c12.7,2.1,25.5,4.1,38.2,6.1C108.3,57.5,108.5,56.7,107.9,56.5z M68.4,38.4c-0.1-0.9-0.5-2.4,1.2-1.5c1.1,0.6,2,1.8,2.9,2.6
		c1.7,1.6,3.2,3.3,4.6,5c0.2,0.3,0.8,0.4,1,0.1c4.7-5.5,9.4-11,14.1-16.4c2.4,6.2,4.6,12.5,6.4,18.8c0.1,0.4,0.6,0.7,1.1,0.5
		c4.1-2.4,8.2-4.7,12.3-7.1c-0.8,5.5-2.6,10.7-5.4,15.7c0,0.1-0.1,0.2-0.1,0.2C94.3,54,82,52.1,69.7,50.6
		C69.1,46.6,68.6,42.5,68.4,38.4z"/>
	<g>
		<path class="st2" d="M107.9,56.5c3-5.4,4.9-11.2,5.6-17.2c0-0.4-0.6-0.9-1.1-0.6c-4.3,2.5-8.5,4.9-12.8,7.4
			c-1.9-6.4-4.2-12.8-6.7-19.2c-0.1-0.3-0.8-0.5-1.1-0.2c-4.8,5.6-9.6,11.2-14.3,16.8c-1.7-2-3.6-3.9-5.6-5.7
			c-0.8-0.7-2.9-3-4.5-2.2c-0.8,0.4-0.4,1.2-0.4,1.9c0.1,1.4,0.2,2.9,0.4,4.3c0.3,3,0.8,6,1.5,8.9c0,0,0,0.1,0,0.1
			c-0.1,0.2,0,0.4,0.3,0.5c12.7,2.1,25.5,4.1,38.2,6.1C108.3,57.5,108.5,56.7,107.9,56.5z M68.4,38.4c-0.1-0.9-0.5-2.4,1.2-1.5
			c1.1,0.6,2,1.8,2.9,2.6c1.7,1.6,3.2,3.3,4.6,5c0.2,0.3,0.8,0.4,1,0.1c4.7-5.5,9.4-11,14.1-16.4c2.4,6.2,4.6,12.5,6.4,18.8
			c0.1,0.4,0.6,0.7,1.1,0.5c4.1-2.4,8.2-4.7,12.3-7.1c-0.8,5.5-2.6,10.7-5.4,15.7c0,0.1-0.1,0.2-0.1,0.2C94.3,54,82,52.1,69.7,50.6
			C69.1,46.6,68.6,42.5,68.4,38.4z"/>
		<g>
			<path class="st1" d="M89.6,32.9l0.4-0.4c-1.2,1.4-2.5,2.9-3.8,4.3c1.5-1.5,3.1-3.1,4.6-4.7c0.2-0.2,0.4-0.4,0.5-0.6l0.3-0.3
				c0.1-0.1,0.1-0.1,0.1-0.1l0,0c0-0.1,0.1-0.1,0.1-0.2l0.1-0.2c0-0.1,0.1,0,0.1,0c0.1,0,0.2,0,0.3,0.1C92.1,30.9,92,31,92,31.2
				c0.1,0.4,0.2,1,0.4,1.5c0.3,1,0.6,2,0.7,2c0.4,0.8,0.7,1.5,1,2.3c-0.2-0.5-0.5-1.1-0.7-1.6c0.2,0.5,0.5,1.1,0.7,1.6
				c0.6,1.5,1.2,3.1,1.8,4.7c0.3,0.8,0.5,1.6,0.8,2.5c0.3,1,0.6,1.9,0.9,2.9c0.2,0.4,0.3,0.8,0.7,1.1c0.3,0.3,0.8,0.4,1.2,0.4
				c0.4,0,0.9-0.2,1.3-0.5l1-0.5c1-0.6,2.1-1.1,3.2-1.7c0.7-0.4,1.8-1,3-1.7c0.6-0.3,1.2-0.6,1.8-1c0.1,0,0.2-0.1,0.3-0.1
				c0.1-0.1,0,0.1,0,0.2l0,0.1l0,0.1c0,0,0,0-0.1,0.2c-0.3,1.3-0.7,2.5-1,3.3c-0.2,0.5-0.3,0.9-0.5,1.4c0.3-0.8,0.3-0.8,0.6-1.5
				c-0.5,2-1.1,3.8-1.8,5.5c0.2-0.3,0.3-0.3,0.6-1l-0.4,0.8c-0.1,0.4-0.3,0.9-0.6,1.5c-0.2,0.5-0.5,1-0.7,1.4c0,0.1,0,0.1-0.1,0.2
				c0-0.1-0.1-0.1-0.1,0c0,0-0.2,0-0.4-0.1l0.1,0.1c-0.1,0-0.9-0.2-1.5-0.3c-0.6-0.1-1.3-0.2-1.9-0.3c-1.3-0.2-2.5-0.4-3.6-0.6
				c-0.3-0.1-0.5-0.1-0.7-0.2l-2.1-0.3c0.2-0.1-1.7-0.4-0.7-0.3c-1.6-0.1-3.2-0.5-4.7-0.5c-5.4-0.8-11.1-1.6-16.7-2.1l0.1,0.1
				c-1-0.1-1.9-0.1-2.9-0.2c-0.2,0-0.4,0-0.7,0l-0.3,0l-0.2,0c-0.1,0,0-0.1-0.1-0.1c-0.1-0.5-0.1-0.9-0.2-1.5
				c-0.4-1.7-0.8-4.1-1.1-4.7c-0.2-2-0.4-2.7-0.6-4.7c-0.1,0.5-0.3-1.9-0.3-0.9c-0.1,1.3,0.1,1.4,0,2.5l0,0c0.1,2.5,0.3,5.1,0.6,7.6
				l0.1,1l0.2,1.6c-0.1,0.8,0.7,0.6,1.2,0.7l1.4,0.2c1.3,0.2,2.5,0.4,3.8,0.5c3.4,0.3,7.1,0.9,10.6,1.4c3.8,0.5,7.9,1.1,11.1,1.5
				c0.8,0.1,1.3,0.3,2,0.5c1.3,0.2,2.6,0.4,4.1,0.7c0.7,0.1,1.5,0.3,2.2,0.4l0.7,0.1c0.3,0,0.6,0.1,0.9,0.1l0.4,0l0.2,0
				c0,0,0.1,0,0.1-0.1c0.1,0,0.2-0.2,0.2-0.3l0.2-0.4l0.3-0.6l0.2-0.5c0.1-0.3,0.3-0.5,0.4-0.8c0,0.1-0.1,0.1-0.1,0.1
				c0.8-1.7,1.5-2.9,2.1-4.6c0,0,0.1-0.3,0.1-0.4c0.1-0.1,1-2.7,1.5-5.3c0.1-0.4,0.2-0.9,0.2-1.3c0.1-0.5,0.2-1,0.2-1.5
				c0.1-0.9,0.2-1.8,0.4-2.5c0-0.1,0-0.2,0-0.3c0,0,0-0.1,0-0.1l-0.1,0.1c-0.2,0.1-0.3,0.2-0.5,0.3c-0.3,0.2-0.5,0.3-0.8,0.4
				c-0.4,0.2-0.7,0.4-0.8,0.4c-0.2,0.1-0.5,0.3-0.7,0.5c-0.6,0.3-1.2,0.6-1.8,1c-0.4,0.2-0.8,0.4-1.2,0.7c-0.8,0.4-1.7,0.9-2.5,1.3
				c-1.6,0.8-3.2,1.7-4.6,2.5c-0.2,0.1-0.2,0.2-0.3,0.3c-0.1,0.1-0.3,0.1-0.4,0.1c-0.1-0.2-0.1-0.2-0.2-0.3c0-0.1-0.1-0.1-0.1-0.2
				c0-0.1,0-0.1,0-0.2c0-0.1,0-0.2,0-0.3c0-0.2-0.1-0.4-0.1-0.5c-0.1-0.3-0.1-0.6-0.2-0.7c-0.1-0.3-0.2-0.4-0.1,0.1
				c-0.5-1.4-0.9-2.7-1.3-3.9c-0.2-0.5-0.4-1.1-0.6-1.7c-0.2-0.5-0.2-0.8-0.2-1c-0.5-1.2-0.3-0.9-0.7-2.2c0-0.4-1.3-3.1-1.4-3.5
				l0.1,0.2c-0.1-0.4-0.2-0.7-0.3-1l-0.1-0.5l-0.2-0.7c-0.3-1-0.7-2.1-1.2-3.4l-0.1-0.2c0,0,0-0.2-0.1-0.1l-0.2,0.3l-0.4,0.5l-0.9,1
				c-0.5,0.6-1.1,1.3-1.7,1.9c-0.7,0.8-1.4,1.7-2.1,2.5c-1.4,1.7-2.8,3.3-4.1,4.8c0.1,0.1,0.5-0.7,0.7-0.6c-1.5,1.7-3.2,3.4-4.7,5.2
				c-0.3,0.3-0.7,0.6-0.8,0.8c-0.3,0.3-0.3,0.4-0.4,0.4c-0.1,0.1,0,0.1-0.1,0.1l-0.1-0.1c0,0.2-0.1-0.1-0.1,0c0,0,0,0,0,0l0,0
				c0,0,0,0,0,0l0,0c0,0,0,0,0,0c-0.1-0.2-0.3-0.3-0.2-0.3h0c-0.1-0.1-0.2-0.2-0.3-0.4c-0.2-0.2-2.5-2.1-2.7-2.3l-0.1-0.1
				c-0.3-0.3-0.5-0.4-0.3-0.2l-0.4-0.4l0.1,0l-0.4-0.4c-0.1-0.1-0.1-0.2,0-0.1c-0.2-0.2-0.5-0.4-0.7-0.6c0.3,0.3,0.5,0.7,0.8,1
				c0.3,0.4,0.6,0.7,0.9,1.1c-0.3-0.2-0.7-0.7-1-1c-0.3-0.4-0.8-1.1-1.4-1.7c-0.1-0.1-0.3-0.1-0.6-0.4c-0.1-0.2-0.3-0.3-0.6-0.6
				c0.4,0.2,0.6,0.5,0.9,0.8c0-0.1-0.7-0.7-0.9-0.9c-0.1,0-0.3-0.2-0.5-0.3c-0.3-0.1-0.6-0.3-1-0.4c0.1,0,0.1,0,0.1,0
				c0,0-0.2-0.1-0.4-0.1c-0.2,0-0.5,0-0.9,0.2c-0.4,0.2-0.6,0.5-0.7,0.7C67,36.7,67,37,67,37.1c0,0.1,0,0.1,0,0c0,0,0,0,0.1-0.2
				c0-0.2,0.1-0.5,0.5-0.9c0.4-0.4,0.9-0.4,1-0.4c0.2,0,0.2,0-0.1,0.1c-0.1,0-0.3,0-0.5,0.1c-0.3,0.1-0.5,0.4-0.6,0.7
				c-0.2,0.5-0.2,0.8-0.2,1c0.1,0,0-0.3,0.1,0c0,0.4,0.1,0.8,0.1,1c0,0,0-0.2,0-0.3c0,0.1,0,0-0.1-0.2c0-0.2-0.2-0.5-0.1-1.1
				c0-0.1,0.1-0.4,0.1-0.5c0.1-0.2,0.3-0.5,0.6-0.6c0.2-0.2,0.5-0.2,0.7-0.3c0.2,0,0.3,0,0.5,0c0.4,0,0.5,0.1,0.2,0
				c0,0.1-0.1-0.1-0.9,0.1c-0.2,0.1-0.5,0.2-0.7,0.4c-0.2,0.2-0.3,0.5-0.4,0.6c-0.1,0.4-0.1,0.7-0.1,0.9c0.1,0.8,0.3,1.2,0.2,1.1
				c0-0.2,0.1,0.2,0.1-0.1l-0.1-0.3c0-0.4,0.1-0.6,0.1-0.4c0,0.2,0,0.1-0.1,0c0-0.2-0.1-0.4-0.1-0.9c0-0.1,0.1-0.3,0.1-0.4
				c0.1-0.2,0.2-0.3,0.3-0.5c0.2-0.1,0.3-0.2,0.5-0.3c0.1,0,0.2,0,0.2-0.1c0.1,0,0.1,0,0.2,0c0.2,0,0.3,0,0.3,0c0,0,0,0-0.2,0
				c0.2,0,0.3,0.1,0.4,0.1c-0.1,0-0.2-0.1-0.5-0.1c-0.2,0-0.6,0-1,0.3c-0.2,0.1-0.3,0.3-0.4,0.4c-0.1,0.1-0.1,0.2-0.2,0.4
				c0,0.1-0.1,0.3-0.1,0.4c0,0,0.1,0.5,0.1,0.7l0,0.1c0.1,0.3,0.1,0.6,0.1,0.4c-0.2-1.5,0.7,1,0.6-0.5c0,0.3-0.1,0.3-0.1,0.1
				c0-0.2-0.1-0.6,0-1.1c0,0,0.1-0.2,0.3-0.3c0.2-0.2,0.6-0.2,0.8-0.1c0.4,0.2,0.3,0.1,0.4,0.1c0.2,0.1,0.6,0.4,0.5,0.4
				c0.3,0.1,0.4,0.4,0.7,0.6c0.3,0.2,0,0,0.2,0.1c0.4,0.4,0.9,0.9,1.1,1.2c0.1,0.2,0.3,0.6,0,0.4c-0.5-0.6,0.3,0.1-0.3-0.5
				c0.1,0.4-0.5-0.5-0.7-0.5c0.1,0.2,0.5,0.6,0.8,0.9l0-0.1c0.3,0.3,0.9,0.8,1.1,1.1c-0.1,0,0,0.1-0.2-0.1l0.4,0.4
				c0.1,0,0.1,0.1,0,0c0.2,0.1,0.4,0.3,0.5,0.5c0,0.1,2.1,1.9,2,1.9c0.3,0.3,0.3,0.4,0.5,0.7c0.1,0-2.6-2.6-2.3-2.2
				c0.2,0.2,2,1.9,2.8,2.8c0.2,0.3,0.4,0.4,0.5,0.5c0.3,0.2,0.6,0.1,0.6,0.1c0.5-0.1-0.1,0.2,0.2,0.1c0,0,0,0,0.1-0.1
				c0.1,0,0.2-0.1,0.3-0.2c0.6-0.7,1.3-1.5,1.7-2.1c-0.1,0.2-0.2,0.5-0.5,0.9l-0.1,0c0,0.1-0.3,0.4-0.2,0.4c0.3-0.3,0.6-0.7,0.9-1.1
				c0.1-0.1,0.2-0.1,0.2-0.2c0,0,0,0,0,0c0.1-0.1,0.1-0.1,0.1,0c0,0,0,0,0,0c0.3-0.1,1.1-1.5,1.8-2.1c0.2-0.2,0,0,0.2-0.3
				c0.6-0.6,1.1-1.1,1.7-1.8c0.1-0.3,0.1-0.3-0.2-0.1l0.5-0.5c-0.3,0.6,1-0.9,0.7-0.2c0.2-0.1,0.5-0.4,0.7-0.8c0-0.1,0-0.2,0.3-0.5
				c0.5-0.5,0.4-0.4,0.8-0.8c0.1-0.1,0,0.1,0.1,0.1c0.5-0.7,0.6-0.5,1.1-1.1c0.3-0.4,1-1.2,0.9-1.3C89.5,32.8,89.5,32.8,89.6,32.9z"
				/>
		</g>
		<g>
			<path class="st1" d="M100.6,44.2l-0.2,0.1c0.6-0.3,1.2-0.7,1.8-1c0.9-0.5,1.8-1,2.7-1.5c-1,0.5-2.1,1-3.1,1.5l-0.8,0.4l-0.4,0.2
				l-0.1,0c-0.1,0-0.1,0.1-0.1,0c0-0.1,0-0.1-0.1-0.2c-0.2-0.5-0.4-1-0.6-1.5c-0.4-1-0.8-1.9-1.3-2.6c0.3-0.5-0.9-4.7-1.1-4.7
				c-0.4-0.9-0.7-1.7-1.1-2.5c0.2,0.6,0.5,1.2,0.7,1.8c-0.3-0.6-0.5-1.2-0.7-1.8c-0.4-0.8-0.7-1.7-1.1-2.5c-0.4-1-0.8-2-1.3-3.1
				c-0.2-0.3-0.4-0.6-0.7-0.9c-0.3-0.2-0.7-0.4-1.1-0.4c-0.4,0-0.7,0.1-1,0.3c-0.3,0.2-0.6,0.6-0.9,0.9c-0.8,0.9-1.5,1.8-2.3,2.7
				c-1.5,1.6-3,3.3-4.5,5c-0.7,0.8-1.9,2.1-3.2,3.6c-0.6,0.7-1.3,1.5-2,2.3l-0.9,1l-0.1,0.1l-0.1-0.1l0,0l0,0l0,0L77.3,41
				c-0.4-0.5-0.8-0.9-1.2-1.3c-0.8-0.8-1.4-1.5-2-2c-0.4-0.4-0.8-0.8-1.2-1.2c0.6,0.7,0.6,0.7,1.3,1.3c-0.4-0.4-0.9-0.7-1.3-1.1
				c-0.4-0.3-0.8-0.7-1.3-1c-0.5-0.4-0.9-0.7-1.5-1L70,34.6l-0.3-0.1c-0.2-0.1-0.4-0.1-0.6-0.2c-0.4-0.1-0.9-0.1-1.3,0
				c0.3,0,0.5,0,0.7,0.1c0.3,0.1,0.6,0.1,1.2,0.5c-0.5-0.2-1-0.4-1.6-0.4c-0.4,0-0.8,0.2-1.2,0.4c-0.4,0.3-0.8,0.8-0.8,1.4
				c0,0.3,0,0.6,0,0.9c0,0.1,0,0.3,0.1,0.4l0,0.2c0,0.4,0.1,0.7,0.1,0.9c-0.1-0.2-0.1,0.6,0,1.3l0-0.3c0.1,2.7,0.6,5.8,1.1,8.1
				c0.1,0.3,0.1,0.6,0.1,0.7l0.3,1.1c0.1,0.4,0.2,0.7,0.3,1.3c0,0,0,0,0,0.1c0,0,0,0.1,0,0.1l0,0.1l0,0l0,0l0,0l0,0
				c0.1,0-0.1,0-0.1,0l0,0l0,0l0,0c0.1,0.1,0,0.2,0.1,0.3c0,0.1,0.1,0.2,0.2,0.3c0.2,0.2,0.4,0.2,0.4,0.3c0.1,0-0.1,0-0.4-0.2
				c0.3,0.2,0.6,0.2,0.9,0.3c0.3,0,0.6,0.1,0.9,0.1c0.4,0.1,0.8,0.1,1.3,0.2c0.8,0.1,1.7,0.2,2.5,0.3c5.7,0.9,11.8,1.8,17.8,2.5
				l-0.1-0.1c2.1,0.2,4,0.3,6.5,0.8c1.8,0.1,4.4,0.4,5.2,0.3c1,0.1,1.8,0.2,2.5,0.3c0.6,0.1,1.2,0.1,2,0.2c0,0,0,0,0,0
				c0,0,0.1,0,0,0.1c0,0-0.1,0.1-0.1,0.1l0,0.1l0,0c-0.1,0-0.2,0-0.2,0c-0.1,0-0.1,0,0.2,0.1c0.1-0.2,0.2-0.3,0.2-0.3c0,0,0,0,0,0
				c0,0-0.1-0.1-0.1-0.3l0-0.1c0,0,0,0-0.1,0c-0.1,0-0.2,0-0.3-0.1c-0.2,0-0.4-0.1-0.7-0.2l0,0c-5.3-1-10.7-2-16.1-2.9
				c-3.6-0.5-7.5-1.2-11.3-1.7c-2-0.3-4.1-0.6-6.2-0.9c-1-0.1-2-0.3-2.9-0.4l-0.3,0c-0.1,0-0.2-0.1-0.1-0.2c0-0.1,0-0.1-0.1-0.3
				c-0.1-0.2-0.1-0.4-0.2-0.6c-0.2-0.8-0.2-1.4-0.3-2.1c-0.3-1.6-0.6-3.4-0.8-5.2c-0.1-0.9-0.2-1.9-0.3-2.8c0-0.5-0.1-0.9-0.1-1.4
				l0-0.4c0-0.2,0-0.2,0-0.2c0-0.1,0-0.2,0-0.2c0,0,0,0,0,0.1c0.2-0.8,0.8-0.4,2.3,0.8c0,0,0.2,0.2,0.3,0.2c0,0.1,0.3,0.3,0.7,0.7
				c0.4,0.4,1,0.9,1.6,1.4c1.3,1.2,2.5,2.3,4.6,4.6c0.8-0.9,1.4-1.8,2-2.4c0.3-0.4,0.6-0.7,0.7-0.8c0.1-0.2,0.3-0.3,0.4-0.5
				c2.7-3,5.6-5.9,7.8-8.5c0.4-0.6,0.9-1.3,1.3-1.8c0.4-0.4,0.4-0.6,0.9-1.1c0.4-0.3,0.7-0.6,0.9-0.8c0.3-0.3,0.3-0.3,0.3-0.3
				c0.1-0.1,0.1-0.2-0.1-0.1l0.2-0.3c0.1-0.1,0.1-0.2,0.3-0.2c0.1,0,0.2,0,0.3,0.1l0.1,0.3c0.1,0.3,0.2,0.5,0.3,0.7
				c0.2,0.6,0.5,1.1,0.7,1.7c0.2,0.5,0.3,0.8,0.3,1.1c0.5,1.3,0.3,0.9,0.8,2.3c0,0.4,1.4,3.3,1.5,3.7l-0.1-0.2
				c0.5,1.6,0.7,2.7,1.1,4.3c0.4,1.3,0.8,2.6,1.2,3.9l0.4,1.5l0.1,0.4c0,0,0,0.2,0.1,0.2l0.2-0.1l0.7-0.4c0.8-0.5,1.6-0.9,2.4-1.4
				c2-1.2,4-2.3,5.8-3.4c0-0.1-0.8,0.5-0.9,0.4c1.1-0.6,2.2-1.2,3.3-1.8l0.8-0.4l0.2-0.1l0.1,0l0.1,0c0.1,0,0.2-0.2,0.4-0.1
				c0.1,0.1-0.1,0.3-0.1,0.3c0,0,0,0,0,0.1c0,0,0.1,0,0,0.1l-0.1,0c0,0,0,0,0,0.1c0,0.1,0,0.2,0,0.3c0,0.2-0.1,0.3-0.1,0.4
				c-0.1,0.3-0.2,0.6-0.2,0.9c0,0,0,0.3-0.1,0.6c-0.1,0-0.2,0.8-0.3,0.8l0,0c0,0.2-0.1,0.3-0.1,0.5c0,0.3-0.5,3.3-0.6,3.6l-0.1,0.1
				c-0.1,0.4-0.1,0.6,0,0.4l-0.2,0.5l0-0.1l-0.2,0.5c0,0.1-0.1,0.2-0.1,0c-0.1,0.3-0.2,0.6-0.3,0.9c0.4-0.8,0.9-1.8,1.3-2.6
				c-0.1,0.4-0.4,1-0.5,1.4c-0.2,0.4-0.7,1.3-1,2c-0.1,0.2,0,0.3-0.2,0.7c-0.2,0.1-0.2,0.4-0.4,0.7c0.1-0.4,0.3-0.7,0.4-1
				c-0.1,0-0.4,0.8-0.6,1.1c0,0.1-0.4,0.8-0.5,1.2c0-0.2-0.2,0.3-0.4,0.5c-0.1,0.3-0.2,0.5-0.1,0.4c0.1,0.1,0.6-1,0.5-0.6
				c-0.1,0.1-0.4,0.6-0.5,0.9c0.1,0,0.1-0.2,0.1,0c-0.2,0.3-0.3,0.7-0.5,0.8c0-0.1,0.1-0.2,0.1-0.3c-0.2,0.4,0.8-2.4,0.6-1.9
				c0.1-0.1-0.9,2.5-0.8,2.2c0.2-0.2,0,0.2,0.2,0l0.1-0.3c0.2-0.3,0.4-0.4,0.4-0.3c-0.3,0.6,0.5-1.9,0.3-1.4l0.1-0.2
				c-0.1,0.2-0.3,0.8-0.5,1c0.1,0-0.1,0.3-0.2,0.6l-0.1,0.1c-0.1,0.3-0.3,0.6-0.1,0.5c0.8-1.5,0,1.3,0.8-0.1c-0.4,0.5,0-0.3,0.3-0.9
				c0.1,0,0.3-0.3,0.5-0.7c0.2-0.4,0.1-0.3,0.1-0.4c0.1-0.2,0.4-0.6,0.4-0.5c0.1-0.4,0.3-0.5,0.4-0.9c0.1-0.4,0,0,0-0.2
				c0.2-0.5,0.5-1.2,0.7-1.6c0.1-0.1,0.4-0.6,0.4-0.2c-0.3,0.8,0-0.4-0.3,0.5c0.3-0.3-0.2,0.7-0.2,0.9c0.2-0.2,0.4-0.8,0.5-1.2
				l-0.1,0.1c0.1-0.4,0.4-1.2,0.6-1.6c0,0.1,0.1-0.1,0,0.2l0.2-0.5c0-0.1,0-0.2,0,0c0-0.3,0.2-0.5,0.3-0.7c0.1,0,0.6-3,0.6-2.9
				c0.1-0.4,0.2-0.5,0.2-0.9c0,0-0.1,0.2-0.1,0.6c-0.1,0.4-0.2,0.8-0.3,1.3c-0.2,0.9-0.4,1.7-0.3,1.5c0.1-0.2,0.4-1.3,0.6-2.4
				c0.2-1.1,0.4-2.3,0.5-2.4c0.1-0.3,0.1-0.7,0-0.6c0.1-0.5,0.1,0.2,0.2-0.2c0,0,0,0,0-0.1l0.1-0.3c0-0.4,0.1-0.9,0.2-1.5
				c0-0.3,0-0.5,0.1-0.8c0.1-0.3-0.1-0.5-0.3-0.6c0.1,0.1,0.2,0.1,0.3,0.3c0.1,0.1,0.1,0.3,0.1,0.6l0,0.1c0,0.1,0,0.2,0,0.3
				c0,0.1,0,0.2,0,0.2c0-0.1,0-0.2,0-0.2c0-0.2,0-0.5,0-0.7c0-0.2,0-0.5-0.2-0.7c-0.1-0.1-0.2-0.2-0.2-0.3c0,0,0,0,0,0
				c-0.2-0.1-0.1-0.1-0.1-0.1c0,0,0,0,0,0c-0.1-0.1-0.2-0.2-0.5-0.2c-0.3,0-0.5,0.1-0.8,0.2c-0.3,0.1-0.7,0.4-1,0.6
				c-0.2,0.1-0.3,0.2-0.5,0.3c-0.1,0.1-0.2,0.1-0.3,0.2c-0.2,0.2,0,0-0.3,0.2c-0.9,0.4-1.5,0.7-2.3,1.2c-0.2,0.2-0.2,0.3,0.1,0.1
				l-0.7,0.4c0.5-0.5-1.3,0.6-0.8,0c-0.2,0.1-0.6,0.3-1,0.5c0,0.1,0,0.2-0.5,0.4c-0.7,0.3-0.5,0.2-1.1,0.5c-0.2,0,0-0.1,0-0.1
				c-0.8,0.5-0.8,0.3-1.6,0.8c-0.5,0.3-1.5,0.9-1.3,0.9C100.6,44.4,100.6,44.3,100.6,44.2z"/>
		</g>
	</g>
</g>
</svg>
