<?xml version="1.0" encoding="utf-8"?>
<!-- Generator: Adobe Illustrator 21.0.0, SVG Export Plug-In . SVG Version: 6.00 Build 0)  -->
<svg version="1.1" id="Слой_1" xmlns="http://www.w3.org/2000/svg" xmlns:xlink="http://www.w3.org/1999/xlink" x="0px" y="0px"
	 viewBox="0 0 24 18.4" style="enable-background:new 0 0 24 18.4;" xml:space="preserve">
<style type="text/css">
	.st0{fill:#847C7C;}
	.st1{fill:#7CBD41;}
</style>
<g>
	<rect y="17.7" class="st0" width="10.2" height="0.7"/>
	<path class="st0" d="M1.1,16.4c-0.1,0-0.1,0-0.2,0c-0.1-0.1-0.2-0.2-0.2-0.3l0.3-4C1,12,1,12,1,11.9L8.2,0.3C8.3,0.2,8.4,0.1,8.5,0
		C8.7,0,8.9,0,9,0.1l2.7,1.7c0.1,0,0.2,0.2,0.3,0.3c0,0.2,0,0.3-0.1,0.5L4.8,14.2l-0.1,0.1l-3.4,2C1.2,16.3,1.2,16.4,1.1,16.4z
		 M1.7,12.2l-0.2,3.2l2.8-1.6l7-11.5L8.7,0.7L1.7,12.2z M4.5,14L4.5,14L4.5,14z M11.4,2.3L11.4,2.3L11.4,2.3z M8.7,0.6L8.7,0.6z"/>
</g>
<g>
	<rect x="12" y="17.7" class="st1" width="10.2" height="0.7"/>
	<path class="st1" d="M13.1,16.4c-0.1,0-0.1,0-0.2,0c-0.1-0.1-0.2-0.2-0.2-0.3l0.3-4c0-0.1,0-0.1,0-0.2l7.2-11.6
		c0.1-0.1,0.2-0.2,0.3-0.3c0.2,0,0.4,0,0.5,0.1l2.7,1.7c0.1,0,0.2,0.2,0.3,0.3c0,0.2,0,0.3-0.1,0.5l-7.1,11.6l-0.1,0.1l-3.4,2
		C13.2,16.3,13.2,16.4,13.1,16.4z M13.7,12.2l-0.2,3.2l2.8-1.6l7-11.5l-2.6-1.6L13.7,12.2z M16.5,14L16.5,14L16.5,14z M23.4,2.3
		L23.4,2.3L23.4,2.3z M20.7,0.6L20.7,0.6z"/>
</g>
<path class="st0" d="M10.5,4.6c-0.1,0-0.1,0-0.2,0l-3.1-2C7,2.5,6.9,2.3,7,2.1C7.1,2,7.3,1.9,7.5,2l3.2,2c0.2,0.1,0.2,0.3,0.1,0.5
	C10.7,4.5,10.6,4.6,10.5,4.6z"/>
<path class="st0" d="M4.5,14.4c-0.1,0-0.1,0-0.2,0l-3.2-1.9c-0.1-0.2-0.1-0.4,0-0.6c0.1-0.2,0.3-0.2,0.5-0.1l3.2,1.9
	C5,13.8,5,14,4.9,14.2C4.7,14.3,4.6,14.4,4.5,14.4z"/>
</svg>
