<?xml version="1.0" encoding="utf-8"?>
<!-- Generator: Adobe Illustrator 21.0.0, SVG Export Plug-In . SVG Version: 6.00 Build 0)  -->
<svg version="1.1" id="Режим_изоляции"
	 xmlns="http://www.w3.org/2000/svg" xmlns:xlink="http://www.w3.org/1999/xlink" x="0px" y="0px" viewBox="0 0 1.5 34.9"
	 style="enable-background:new 0 0 1.5 34.9;" xml:space="preserve">
<style type="text/css">
	.st0{fill:#FBF6E8;}
</style>
<g>
	<path class="st0" d="M0.6,34.9H0.1c0-0.6,0.3-1,0.5-1.2c0.2-0.3,0.4-0.5,0.4-1S0.8,32,0.6,31.8c-0.2-0.3-0.5-0.6-0.5-1.2
		s0.3-1,0.5-1.3s0.4-0.5,0.4-1s-0.2-0.7-0.4-0.9c-0.2-0.3-0.5-0.6-0.5-1.2s0.3-1,0.5-1.2C0.8,24.7,1,24.4,1,24
		c0-0.5-0.2-0.7-0.4-0.9c-0.2-0.3-0.5-0.6-0.5-1.2s0.3-1,0.5-1.2C0.8,20.3,1,20.1,1,19.6s-0.2-0.7-0.4-0.9c-0.2-0.3-0.5-0.6-0.5-1.2
		s0.3-1,0.5-1.2c0.2-0.4,0.4-0.6,0.4-1c0-0.5-0.2-0.7-0.4-0.9c-0.2-0.3-0.5-0.6-0.5-1.2c0-0.6,0.3-1,0.5-1.2C0.8,11.6,1,11.4,1,10.9
		S0.8,10.2,0.6,10C0.4,9.7,0.1,9.4,0.1,8.7s0.3-1,0.5-1.2C0.8,7.2,1,7,1,6.5S0.8,5.9,0.6,5.6C0.4,5.3,0.1,5,0.1,4.4s0.3-1,0.5-1.2
		C0.8,2.9,1,2.6,1,2.2c0-0.5-0.2-0.7-0.4-0.9C0.4,1,0.1,0.6,0.1,0h0.5c0,0.5,0.2,0.7,0.4,0.9c0.2,0.3,0.5,0.6,0.5,1.2S1.2,3.1,1,3.3
		C0.8,3.7,0.6,3.9,0.6,4.4C0.6,4.8,0.8,5,1,5.3s0.5,0.6,0.5,1.2S1.2,7.5,1,7.7C0.8,8,0.6,8.3,0.6,8.7c0,0.5,0.2,0.7,0.4,0.9
		c0.2,0.3,0.5,0.6,0.5,1.2c0,0.6-0.3,1-0.5,1.2c-0.2,0.3-0.4,0.5-0.4,0.9c0,0.5,0.2,0.7,0.4,0.9c0.2,0.3,0.5,0.6,0.5,1.2
		c0,0.6-0.3,1-0.5,1.2c-0.2,0.3-0.4,0.5-0.4,0.9c0,0.5,0.2,0.7,0.4,0.9c0.2,0.3,0.5,0.6,0.5,1.2s-0.3,1-0.5,1.2
		c-0.2,0.3-0.4,0.5-0.4,0.9S0.8,22,1,22.2C1.2,23,1.5,23.4,1.5,24S1.2,25,1,25.2c-0.2,0.3-0.4,0.5-0.4,0.9S0.8,26.8,1,27
		c0.2,0.3,0.5,0.6,0.5,1.2s-0.3,1-0.5,1.2c-0.2,0.3-0.4,0.5-0.4,0.9c0,0.5,0.2,0.7,0.4,0.9c0.2,0.3,0.5,0.6,0.5,1.2
		C1.5,33,1.2,33.7,1,34C0.8,34.2,0.6,34.4,0.6,34.9z"/>
</g>
</svg>
