<?xml version="1.0" encoding="utf-8"?>
<!-- Generator: Adobe Illustrator 19.0.1, SVG Export Plug-In . SVG Version: 6.00 Build 0)  -->
<svg version="1.1" id="Графика" xmlns="http://www.w3.org/2000/svg" xmlns:xlink="http://www.w3.org/1999/xlink" x="0px"
	 y="0px" viewBox="0 0 65 138" style="enable-background:new 0 0 65 138;" xml:space="preserve">
<g>
	<g>
		<path d="M16.9,137.3c-0.6-17.2-1.2-34.4-1.7-51.6c-0.1-4.3-0.3-8.5-1.1-12.8c-0.8-4.8-2.5-9.3-3.8-14c-2.6-9.6-3.9-19.6-4.2-29.6
			c-0.1-4.6,0-9.3,0.4-13.9c0.3-4,1.2-16.4,8.3-12.4c3.3,1.9,4,7.5,4.6,10.8c0.9,4.9,1.4,9.9,1.6,14.9c0.2,4.4,0.2,8.8,0.1,13.2
			c-0.1,2.2-0.2,4.3-0.3,6.5c-0.1,1.9-0.9,4.8-0.4,6.6c0.5,1.9,4.1,1.8,5.5,1.5c1.9-0.3,3.7-0.9,5.6-1.4c2.1-0.6,4.5-0.2,6.6,0
			c1.9,0.1,5.2,0.1,6.5-1.8c1-1.4,0.7-4,0.7-5.6c0.1-6,0.6-11.9,1.2-17.9c0.6-6.8,1.6-13.2,4.6-19.3c1.7-3.5,3.5-6.7,7-8.6
			c3.5-2,5.2,3.6,5.5,5.7c0.3,2.2-0.2,4.5-0.6,6.7c-2,9.1-4.7,18.1-6.7,27.3c-1.9,8.9-3.4,17.9-4.2,26.9c-0.9,9.6-2,19.3-2.2,28.9
			c-0.3,8.1,0.2,16.3,0.5,24.5c0.2,4.9,0.4,9.8,0.4,14.7c0,1,1.5,1,1.5,0c-0.2-16.5-1.8-32.9-0.2-49.4c1-9.9,1.4-19.9,2.9-29.8
			c1.4-9.3,3.4-18.4,5.6-27.5c1.1-4.5,2.3-9,3.5-13.5c0.8-3.1,1.6-6.6,1-9.8C64.2,4,63,1.6,60.5,0.3c-2.1-1.1-4.6,1-6.1,2.3
			c-2.4,1.9-3.8,5.4-5.1,8c-1.4,2.8-2.4,5.8-3.1,8.8c-1.5,6.4-1.5,13.1-2.3,19.6c-0.3,2.3-0.3,4.5-0.3,6.9c0,1.3,0,2.6-0.1,4
			c-0.1,2.1-0.1,3.1-2.5,3.7c-3.3,0.8-6.8-0.5-10.1,0.2c-2.1,0.4-4.1,1.2-6.2,1.5c-4,0.4-2.6-4.4-2.5-6.7c0.5-9.1,0.6-18.3-0.3-27.4
			c-0.4-4-1.1-7.9-1.9-11.8c-0.6-2.5-1.7-5.6-3.9-7.2c-5.7-4.3-10,2.6-10.6,7.7C4.3,19.4,4.2,29,5.1,38.6c0.9,9.3,2.9,18.3,5.6,27.2
			c2.7,9.2,2.9,18.2,3.2,27.7c0.4,14.6,0.9,29.2,1.5,43.8C15.4,138.3,16.9,138.3,16.9,137.3L16.9,137.3z"/>
	</g>
	<g>
		<path d="M14,25c1.1,8.2,2,16.4,2.7,24.6c0.1,1,1.6,1,1.5,0c-0.7-8.4-1.6-16.7-2.8-25C15.3,23.6,13.8,24,14,25L14,25z"/>
	</g>
	<g>
		<path d="M53.3,18.4c-2.6,8.9-4.4,18-5.4,27.3c-0.1,1,1.4,1,1.5,0c1-9.1,2.8-18.1,5.4-26.9C55.1,17.8,53.6,17.4,53.3,18.4
			L53.3,18.4z"/>
	</g>
	<g>
		<path d="M20.7,76.8c0.2-2,1-4.1,3.2-4.4c1.9-0.2,2.6,1.9,3.3,3.2c0.5,0.9,1.8,0.1,1.3-0.8c-1.1-2.2-2.5-4.6-5.3-3.9
			c-2.8,0.6-3.9,3.2-4.1,5.8C19.1,77.8,20.7,77.8,20.7,76.8L20.7,76.8z"/>
	</g>
	<g>
		<path d="M39.1,71.2c0.3-1.3,1.5-2.9,3-2.6c1.4,0.3,2.4,2.1,2.6,3.3c0.1,1,1.6,0.6,1.5-0.4c-0.3-1.9-2.1-4.4-4.1-4.5
			c-2.1-0.1-4,1.7-4.4,3.7C37.5,71.8,38.9,72.2,39.1,71.2L39.1,71.2z"/>
	</g>
	<g>
		<path d="M22.3,95.4c0.3,3.3,3.2,6.6,6.8,5.9c4-0.8,5.9-7.7,6.1-11c-0.5,0-1,0-1.5,0c0,3.5,0.6,7.5,3.8,9.6
			c2.9,1.9,5.9-2.3,6.5-4.7c0.2-1-1.2-1.4-1.5-0.4c-0.5,2.1-2.7,5.1-4.9,3.3c-2.1-1.8-2.4-5.1-2.4-7.7c0-1-1.5-1-1.5,0
			c-0.2,3.1-1.4,6-3.5,8.4c-2.5,2.8-6.1-0.4-6.4-3.3C23.7,94.5,22.2,94.4,22.3,95.4L22.3,95.4z"/>
	</g>
	<g>
		<path d="M35.1,90c-0.9-1.5-1.7-3.1-2.2-4.8c-0.3-0.9-0.3-1.9-0.1-2.8c0.4-0.4,0.7-0.3,0.9,0.3c0.3,0.6,0.4,1.4,0.3,2
			c-0.2,0.8,1,1.4,1.4,0.6c0.3-0.7,0.6-1.4,1.1-2.1c0.2-0.3,0.3,1.8,0.2,2.1c-0.5,1.7-1.6,3.2-2.8,4.5c-0.7,0.7,0.4,1.8,1.1,1.1
			c1.9-2.1,4-5,3.3-8c-0.2-0.7-1-1.7-1.8-1.4c-1.3,0.5-1.9,1.8-2.4,3c0.5,0.2,0.9,0.4,1.4,0.6c0.3-1.3,0.1-2.7-0.8-3.7
			c-0.7-0.9-1.9-1.3-2.8-0.4c-2.4,2.4,0.5,7.6,1.9,9.8C34.3,91.6,35.6,90.8,35.1,90z"/>
	</g>
	<g>
		<path d="M19.1,70.9c0.4,0.7,0.8,1.4,1,2.3c0.2,1,1.7,0.6,1.5-0.4c-0.2-0.9-0.6-1.8-1.1-2.6C19.9,69.3,18.5,70.1,19.1,70.9
			L19.1,70.9z"/>
	</g>
	<g>
		<path d="M22.4,68.7c-0.1,0.9-0.2,1.9-0.2,2.8c0,1,1.5,1,1.5,0c0-0.8,0.1-1.6,0.2-2.4c0.1-0.4-0.1-0.8-0.5-0.9
			C23,68.1,22.5,68.3,22.4,68.7L22.4,68.7z"/>
	</g>
	<g>
		<path d="M26.3,68.6c-0.7,0.8-1.2,1.7-1.4,2.8c-0.3,1,1.2,1.4,1.5,0.4c0.2-0.8,0.5-1.5,1.1-2.1c0.3-0.3,0.3-0.8,0-1.1
			C27.1,68.4,26.5,68.3,26.3,68.6L26.3,68.6z"/>
	</g>
	<g>
		<path d="M37.4,66.9c0.4,0.8,0.6,1.6,0.7,2.4c0.1,0.4,0.6,0.6,0.9,0.5c0.4-0.1,0.6-0.5,0.5-0.9c-0.1-1-0.5-1.9-0.9-2.8
			C38.3,65.2,37,66,37.4,66.9L37.4,66.9z"/>
	</g>
	<g>
		<path d="M41,65.8c-0.1,0.6-0.1,1.2,0,1.8c0,0.4,0.3,0.8,0.8,0.8c0.4,0,0.8-0.3,0.8-0.8c0-0.6,0-1.2,0-1.8c0-0.4-0.4-0.8-0.8-0.8
			C41.3,65,41,65.4,41,65.8L41,65.8z"/>
	</g>
	<g>
		<path d="M45,66.4c-0.5,0.6-0.9,1.2-1.3,1.9c-0.2,0.4-0.1,0.8,0.3,1.1c0.3,0.2,0.9,0.1,1.1-0.3c0.3-0.6,0.6-1.1,1-1.6
			c0.3-0.3,0.3-0.8,0-1.1C45.8,66.1,45.3,66.1,45,66.4L45,66.4z"/>
	</g>
	<g>
		<path d="M42.8,86.3c4.6,0.3,9.2,0.3,13.8-0.4c3.1-0.5,6.1-1.5,6.6-4.9c0.1-1-1.4-1-1.5,0c-0.5,3.8-7,3.7-9.8,3.9
			c-3,0.2-6.1,0.1-9.1-0.1C41.8,84.7,41.8,86.2,42.8,86.3L42.8,86.3z"/>
	</g>
	<g>
		<path d="M45.9,88.8c5.7,1.4,11.4,1.2,16.9-0.8c0.9-0.3,0.5-1.8-0.4-1.5c-5.3,1.9-10.7,2.1-16.1,0.8C45.3,87,44.9,88.5,45.9,88.8
			L45.9,88.8z"/>
	</g>
	<g>
		<path d="M48.1,84.1c3.3,0.2,8.1-2,8.1-5.9c0-1-1.5-1-1.5,0c0,3-4.2,4.5-6.6,4.3C47.1,82.5,47.1,84.1,48.1,84.1L48.1,84.1z"/>
	</g>
	<g>
		<path d="M25.4,83.4c-2,0.5-4,0.6-6,0.6c-0.5,0-9.5-1-8.3-2.5c0.6-0.8-0.5-1.9-1.1-1.1c-2.3,2.7,1.9,4.1,4,4.6
			c3.8,0.9,8.1,0.8,11.9-0.1C26.7,84.7,26.3,83.2,25.4,83.4L25.4,83.4z"/>
	</g>
	<g>
		<path d="M24.6,85.6c-3.5,1.2-7.1,1.8-10.8,2.2C11,88.1,1.6,89.1,1.5,84.6c0-1-1.6-1-1.5,0c0.1,4,5.3,4.8,8.4,5
			c5.4,0.4,11.5-0.8,16.6-2.5C25.9,86.7,25.5,85.3,24.6,85.6L24.6,85.6z"/>
	</g>
	<g>
		<path d="M25,88.2c-2.5,0.6-4.8,1.5-7.2,2.5c-3.3,1.4-6.3,3.3-10,1.9c-0.9-0.4-1.3,1.1-0.4,1.5c2.7,1.1,5.3,0.6,7.9-0.5
			c3.4-1.4,6.5-2.9,10-3.8C26.4,89.4,25.9,87.9,25,88.2L25,88.2z"/>
	</g>
</g>
</svg>
