<?xml version="1.0" encoding="utf-8"?>
<!-- Generator: Adobe Illustrator 17.1.0, SVG Export Plug-In . SVG Version: 6.00 Build 0)  -->
<!DOCTYPE svg PUBLIC "-//W3C//DTD SVG 1.1//EN" "http://www.w3.org/Graphics/SVG/1.1/DTD/svg11.dtd">
<svg version="1.1" id="Слой_1" xmlns="http://www.w3.org/2000/svg" xmlns:xlink="http://www.w3.org/1999/xlink" x="0px" y="0px"
	 viewBox="0 0 960 720" enable-background="new 0 0 960 720" xml:space="preserve">
<g>
	<path d="M300.6,183c2.5,0.5,5,0.9,7.6,1.2c1,56.7-0.3,112.9,3.6,169.6c3.9,56,10.3,111.9,19,167.3c1.4,9.1,11,13.5,19,14.5
		c56.4,6.5,114.4,7.1,171,2.7c26.8-2.1,59.6-2.7,84.5-14.4c18-8.5,21.4-27.1,23.7-45.3c4.2-32.9,7.3-65.9,9.9-99
		c5.2-67.8,7.3-135.9,6.4-203.9c-0.1-3.9-1-7.1-2.5-9.9c-0.9-5.7-4.8-10.6-12.6-11.6c-26.5-3.6-54.2-1.5-80.9-1.1
		c-28.5,0.4-56.9,1.2-85.4,2.3c-28.5,1.1-57,2.3-85.3,4.6c-25.6,2.1-53.4,2.1-77.9,10.3C294.9,172.2,293.7,181.7,300.6,183z
		 M588.3,487.3C589.8,484.8,591.6,486.4,588.3,487.3L588.3,487.3z M378.4,185.4c27.3,0.1,54.5-0.3,81.8-0.2
		c27.3,0.1,54.6,0.6,81.9,1.3c20.4,0.6,41.5,2.8,62.2,3c0.5,55-1,109.9-4.5,164.8c-2,31-4.6,61.9-7.8,92.8
		c-1.3,12.6-5.1,26.4-4.9,38.9c0,0.6,0,1,0.1,1.4C561,492,535.8,497,509,498.7c-47.8,3.1-95.4,1.1-143.1-1.5
		c-10.4-49.8-18.9-100-25.3-150.5c-6.8-53-14.1-107.4-15.2-160.9C343,186.6,361,185.4,378.4,185.4z"/>
	<path d="M299.3,128.3c107.6-4.4,215.5,5.9,323.2,0.6c24.9-1.2,25.1-39.7,0-38.9c-30.9,1-61.8,3.5-92.5,6.6
		c1.1-17.7-0.9-39.8-10.6-54.1c-11.7-17.2-44.5-11.7-62.1-9.1c-14.8,2.2-46,8.9-49.9,26.9c-1.6,7.4,4.1,20.1,5.5,27.3
		c1.4,7.6,4,14.6,7,21.5c-40.1,4.6-80.3,8.5-120.5,10.2C293.5,119.5,293.5,128.5,299.3,128.3z M424.6,75.3
		c9.5,0.1,19.4-2.6,28.7-3.6c11.1-1.2,22.1-1.7,33.1-0.8c2.1,9.9,2.2,20.2,1,30.4c-18.8,2.2-37.6,4.4-56.4,6.6
		C425.9,97.3,421.1,86,424.6,75.3z"/>
	<path d="M384.7,377.9c-4.4,7.7,4.1,14.8,11.4,11.4c28.9-13.6,52.8-42.2,76.2-63.9c21.3,20.5,42,41.4,62.2,63
		c16.8,17.9,44.8-10.2,26.9-26.9c-21.2-19.8-44.1-37.9-67.1-55.8c20.3-17.6,41.1-34.5,62.8-50.4c19.7-14.5-1.2-42.2-20.7-26.8
		c-23.2,18.3-45.1,37.9-66.3,58.3c-25.5-20.1-50.9-40.6-78.5-57.5c-5.6-3.4-10,3.9-6.5,8.4c19.5,24.7,43,46.1,66.1,67.7
		C428.2,327.6,400.2,350.5,384.7,377.9z"/>
</g>
</svg>
