
<svg version="1.1" id="Режим_изоляции"
	 xmlns="http://www.w3.org/2000/svg" xmlns:xlink="http://www.w3.org/1999/xlink" x="0px" y="0px" viewBox="0 0 960 720"
	 enable-background="new 0 0 960 720" xml:space="preserve">
<g>
	<path fill="none" d="M549.6,380.3c-6.1,2-12.1,4-18.5,4.6c-15.3,1.5-30.6,3.3-45.9,4.7c-9.3,0.8-18.7,1.3-28.1,1.4
		c-9.4,0.1-18.7,1.1-28,2.7c-5.8,1-7.5,3.1-8.2,8.9c-0.8,6.7-1.7,13.4-2.4,20.1c-0.7,5.7,1.5,9.5,6.6,11.6c3.5,1.5,7.2,2,11,2.1
		c4.9,0.1,9.8-0.1,14.6,0.7c10.4,1.6,20.9,1.8,30.4,2c5.2,0,9.3,0,13.5,0c16.3,0.1,32.1-3.2,47.8-7.1c5.9-1.5,9-5,9.5-11
		c0.2-2.2,0.5-4.6,1.4-6.6c4.5-10.2,2.4-20.6,1.4-31C554.2,380.6,552.3,379.5,549.6,380.3z"/>
	<path fill="none" d="M449.1,384.2c7.4,0.5,17.8-1.1,28.3-1.3c18.4-0.4,36.6-3.1,54.9-4.6c2.9-0.2,5.8-1.4,8.7-2.3
		c1.8-0.6,3.5-1.6,3.5-3.9c0-2.1-1.6-3.3-3.3-4.2c-6-3.1-12.2-5.6-19.3-5.5c-4.5,0-9-0.5-13.5-0.8c-14.9-1.2-29.8-3.2-44.7,0.8
		c-2.5,0.7-5.2,0.4-7.8,0.6c-12.1,0.7-23.6,3.8-35.2,6.9c-3.7,1-6.8,3-9.5,5.8c-3.4,3.6-2.4,8.2,2.4,9.6c1.7,0.5,3.7,0.9,5.5,0.6
		C428,384.4,437.1,385,449.1,384.2z"/>
	<path fill="none" d="M690.3,273c0.6,0.3,1.4,0.6,1.9,0.4c2.2-1,4.3-2.1,6.4-3.1c-2.3,0.1-4.7,0.2-7,0.5
		C690.4,270.9,689.5,272.7,690.3,273z"/>
	<path fill="none" d="M575.8,268.7c-4.4,0.5-8.9,1-13.2,2c-7.6,1.8-15.2,3.8-22.7,6c-2.6,0.8-3.6,3.8-2.6,6.5
		c0.9,2.4,2.8,3.5,5.3,2.8c10.4-2.8,20.9-5.6,31.3-8.5c1.7-0.5,3.4-1.5,4.8-2.7c0.7-0.6,0.9-1.9,1.2-2.6
		C579.3,269.7,577.8,268.5,575.8,268.7z"/>
	<path fill="none" d="M610,422.5c-3.2-4.5-6.7-4.2-10.6-2.4c-4.6,2.1-9.4,2.1-14.2,1.8c-3.7-0.3-7.4-0.6-11.2-0.6
		c-0.9,0-2.4,0.7-2.6,1.4c-0.3,0.8,0.3,2.1,0.9,2.9c4.8,6.3,11.2,9.9,18.9,10.6c5.2,0.5,10.4,0.1,15.6,0.1c0,0.1,0,0.2,0,0.3
		c4.8-0.3,9.7-0.4,14.5-0.9c5-0.5,6.6-1.6,6.9-4.2c0.3-3.1-1.8-5-6.9-5.4C617.1,425.9,612.4,425.9,610,422.5z"/>
	<path fill="none" d="M686.1,288.5c-2.6,0.2-5,1.7-5.8,4.6c-0.8,3,1.3,4.8,3.2,6.6c0.5,0.5,1.1,1,1.8,1.4c7,4.2,14.6,7.2,21.3,12.1
		c3,2.2,5.9,0.9,7.2-2.5c1.5-3.8,2.5-7.8,3.9-11.6c1.6-4.2,6.5-5.9,8.6-10C712.5,284.1,699.3,287.5,686.1,288.5z"/>
	<path fill="none" d="M723.2,266.1c-8.1,0.3-16.2,0.8-23.8,4c1,0,1.9-0.1,2.9,0c1.8,0.3,3.8,0.4,5.3,1.3c2,1.1,0.9,3.3,0.9,5.1
		c0,1.7,0.9,2.9,2.4,3.4c2.9,1.1,5.8,1.3,8.9,0.8c3.3-0.6,3.2-3.8,4.5-5.9c0.6-0.9,1.5-1.7,2-2.7C728.3,268.8,727,266,723.2,266.1z"
		/>
	<path fill="none" d="M615,389.7c-1.6,0.4-2.3,1.7-2.3,3.2c0,1.2,0.9,2.1,2,2c1.8-0.1,2.2-1.5,2.1-3.1
		C616.8,390.7,616.4,389.7,615,389.7z"/>
	<path fill="none" d="M574,394.5c0.6-0.8,0.5-1.5-0.4-1.7c-0.7-0.1-1.6,0-2.1,0.3c-0.4,0.3-0.6,1.6-0.4,1.8
		C572.1,395.7,573.1,395.3,574,394.5z"/>
	<path fill="none" d="M623.4,367.3c-5.3-3.3-10.9-2.1-16.3-0.7c-3.2,0.8-6.2,2.5-9.7,2.6c-11.8,0.4-20.1,6.7-26.9,15.7
		c3.7-0.1,7.3-0.7,10.8-1.8c3.3-1,6,1.8,5.4,5.1c-0.8,4.7-3.2,8.4-7.7,10.2c-2.8,1.1-5.8,1.6-8.6,2.7c-4.1,1.6-5,5.3-5.2,9.1
		c-0.1,3.4,3.1,3.8,5.3,4.9c4.2,2.1,8.7,1.8,13.2,1.5c6.8-0.5,25.1-6.4,32.7-10.5c-0.1-0.4-0.1-0.9-0.3-1c-1.8-1.3-3.7-2.6-5.6-3.7
		c-9.1-5.6-8.9-11.9,0.4-17.5c2.9-1.7,5.8-3.4,8.7-5.1c2.7-1.6,4.4-4.1,5.4-6.9C625.9,370,625.2,368.4,623.4,367.3z"/>
	<path stroke="#000000" stroke-width="4.252" stroke-miterlimit="10" d="M637.6,367.4c2.2-2.5,1.6-4.9-1.2-6.8
		c-3.4-2.3-7.2-3.2-11.1-3.2c-15.2-0.1-30.1,1.4-42.3,12c-2.7,2.4-3.7,2.3-6.2,0c-4.1-3.6-8.7-6.4-13.3-9.3
		c-4.9-3.1-10.3-4.8-16.1-5.4c-13.2-1.4-26.4-2-39.7-1.5c-8.4,0.3-16.9,0.7-25.2,2c-10.8,1.7-20.7,6.1-30.5,11
		c-1.6,0.8-3.1,2-4.1,3.5c-2.2,3.4-5.2,3.6-8.7,3c-6.2-1-12.5-1.9-18.7-2.8c-8.6-1.3-16.6,0.6-24.1,4.9c-6.2,3.5-8.2,7.2-5.9,14.1
		c1.5,4.5,1.5,8.1-2.3,11.4c-2.3,2-3.5,4.8-3.8,7.9c-0.4,3.9,1.1,5.7,4.9,5.9c1.2,0,2.4-0.3,3.6-0.2c5.1,0.3,8,4.5,6.7,9.4
		c-0.4,1.4-1.2,2.8-1.6,4.2c-1.8,7,3,12,9.9,10.1c11-3.1,21.8-6.9,31.5-13.2c3.3-2.1,6.8-3.9,10.3-5.6c4.2-2,5-2.1,7.8,1.4
		c2.3,2.8,4.9,4.2,8.3,4.8c2.1,0.3,4.1,0.9,6.2,1.1c10.5,0.7,21,1.5,31.5,2c19,0.8,37.9,0.6,56.3-5.3c5.4-1.7,11.1-2.7,15.1-7.4
		c1.3-1.5,3.3-1.1,4.8,0.4c0.6,0.6,1.3,1.2,1.9,1.9c8,8.9,18.6,10.2,29.7,9.6c3.3-0.2,6.6-0.8,9.8-1.3c3.9-0.6,7.7-1.2,11.6-1.9
		c1.5-0.3,2.9-1,3.8-2.3c2.6-3.6,1.6-9.4-2.2-11.9c-1.9-1.3-4.1-2.3-6.2-3.4c2.2-3.7,4-7.3,8-9.4c3-1.5,2.7-4.7-0.1-6.5
		c-1.5-1-3.3-1.5-4.6-2.7c-4.8-4.2-4.8-9.6-0.3-13.9C633.4,371.7,635.7,369.7,637.6,367.4z M396.2,406.4c-0.8,0.2-2,0-2.4-0.6
		c-0.4-0.5-0.4-1.8,0-2.4c2.7-4.9,4-12.1,3.2-18.4c-0.3-2.3,1.7-4,5.6-4.1c5,1.5,11.1,1.1,17,1.9c4.9,0.7,8.6,4.1,13.1,5.9
		c1.6,0.6,3.7,1.2,3.4,3.5c-0.2,1.9-1.9,3.1-3.6,3.7c-5,2-10,4.1-15.2,5.5C410.3,403.5,403.3,404.9,396.2,406.4z M451,411.4
		c-13.1,7.9-26.3,15.8-41,20.4c-0.3,0.1-0.6,0.2-0.8,0.3c-1.5,0.3-3,0.5-4.1-0.9c-0.8-1-0.9-2.2-0.5-3.4c0.2-0.6,0.4-1.1,0.7-1.7
		c1.7-3.4,1.9-6.8,1.1-10.5c-0.9-3.9-0.3-4.5,3.5-5.8c1.1-0.4,2.3-0.8,3.5-1c9.8-2.1,18.7-6.7,27.8-10.5c1.1-0.5,2.1-1.1,3.1-1.8
		c4.5-2.7,4.5-4.7,0-7.9c-4.8-3.4-9.7-6.8-15.8-11.1c5,0.1,8.4,1,11.6,2.4c3.8,1.7,7.5,3.9,11.2,5.9c3.8,2.1,5.6,5.3,5.5,9.6
		c0,1.5,0.2,3,0.3,4.5C457.1,404.9,455.2,408.8,451,411.4z M458.3,378.9c-3.8-1.2-4.6-4.9-1.9-7.7c2.1-2.2,4.7-3.9,7.6-4.6
		c9.3-2.5,18.6-5,28.2-5.5c2.1-0.1,4.3,0.1,6.3-0.4c11.9-3.2,23.9-1.6,35.8-0.6c3.6,0.3,7.2,0.7,10.8,0.7c5.6-0.1,10.6,1.9,15.4,4.4
		c1.3,0.7,2.6,1.6,2.6,3.4c0,1.8-1.3,2.6-2.8,3.1c-2.3,0.7-4.6,1.6-7,1.8c-14.7,1.2-29.2,3.4-44,3.7c-8.4,0.2-16.8,1.4-22.7,1
		c-9.7,0.6-16.9,0.2-24.1,1.4C461.3,379.7,459.7,379.4,458.3,378.9z M570.1,402.2c-0.7,1.6-1,3.5-1.1,5.3c-0.4,4.9-2.9,7.7-7.6,8.8
		c-12.6,3.1-25.2,5.8-38.3,5.7c-3.3,0-6.6,0-10.8,0c-7.6-0.2-16-0.3-24.4-1.6c-3.8-0.6-7.8-0.4-11.7-0.5c-3-0.1-6-0.5-8.8-1.7
		c-4.1-1.7-5.8-4.8-5.3-9.3c0.6-5.4,1.3-10.7,2-16.1c0.6-4.7,2-6.3,6.6-7.1c7.4-1.3,14.9-2.1,22.4-2.2c7.5-0.1,15-0.5,22.5-1.1
		c12.3-1.1,24.6-2.5,36.8-3.7c5.1-0.5,10-2.1,14.9-3.7c2.2-0.7,3.7,0.2,3.9,2.4C572,385.7,573.7,394,570.1,402.2z M630.4,416
		c-0.2,2.1-1.5,3-5.5,3.4c-3.9,0.4-7.7,0.5-11.6,0.7c0-0.1,0-0.2,0-0.3c-4.2,0-8.4,0.3-12.5-0.1c-6.2-0.6-11.4-3.5-15.2-8.5
		c-0.5-0.6-0.9-1.7-0.7-2.4c0.2-0.6,1.3-1.1,2.1-1.1c3,0.1,6,0.3,8.9,0.5c3.9,0.3,7.7,0.2,11.4-1.4c3.2-1.4,5.9-1.7,8.5,1.9
		c1.9,2.7,5.7,2.7,9.1,3C628.9,412,630.6,413.5,630.4,416z M627.9,368.3c-0.8,2.3-2.2,4.3-4.3,5.6c-2.3,1.4-4.7,2.7-7,4.1
		c-7.5,4.5-7.6,9.6-0.3,14c1.5,0.9,3,2,4.5,3c0.2,0.1,0.2,0.6,0.3,0.8c-6.1,3.3-20.8,8-26.2,8.4c-3.6,0.2-7.2,0.5-10.6-1.2
		c-1.8-0.9-4.4-1.2-4.3-4c0.1-3.1,0.8-6.1,4.2-7.3c2.2-0.9,4.6-1.3,6.9-2.2c3.7-1.5,5.5-4.4,6.2-8.2c0.5-2.6-1.7-4.9-4.3-4.1
		c-2.9,0.8-5.7,1.4-8.7,1.4c5.4-7.2,12.1-12.2,21.6-12.6c2.8-0.1,5.2-1.4,7.8-2.1c4.3-1.1,8.8-2.1,13.1,0.5
		C628,365.4,628.5,366.7,627.9,368.3z M619.6,386.6c-1,0.1-1.6-0.7-1.6-1.6c0-1.2,0.6-2.2,1.8-2.5c1.1,0,1.5,0.8,1.5,1.7
		C621.4,385.4,621,386.5,619.6,386.6z M584.9,385.2c0.4-0.3,1.1-0.4,1.7-0.3c0.8,0.2,0.8,0.7,0.3,1.4c-0.7,0.7-1.5,1-2.3,0.3
		C584.4,386.4,584.5,385.4,584.9,385.2z"/>
	<path d="M731.8,290.8c2.4-3.6,1.6-6.3-2.2-8.2c-4.8-2.5-10.1-2.9-15.4-2.8c-10.5,0.3-21,1.3-31.3,3.4c-2.4,0.5-4.6,0.2-5.8-2.3
		c-4.4-9.8-13.5-13.5-22.4-17.6c-12.3-5.7-25-7.2-38.4-4.7c-6.3,1.2-12.5,2.4-18.5,4.7c-6.1,2.4-11.5,1.8-16.6-2.5
		c-4-3.4-8.4-6.2-13.3-8.4c-6.2-2.7-12.3-5.6-18.4-8.4c-1.7-0.8-3.3-1.8-5.1-1.6c-2.6,0-5.1,1-6.4,4c-2.4,5.4-6.4,8.1-12.1,8.7
		c-1.1,0.1-2.2,0.6-3.2,1.1c-2,0.9-2.7,3.8-1.5,5.8c1.2,2.1,3,3.2,4.8,4.6c7.9,6.1,7.8,10.5-0.2,16.7c-2.1,1.6-4.3,3-6.3,4.8
		c-2.9,2.5-3.3,4.9-0.6,7.7c3.1,3.2,4.2,6.9,4.6,11.1c0.2,1.9,0.5,3.7,1,5.5c1.1,4.2,3.1,5.3,7.5,4.1c11.9-3.3,23.8-6.7,35.7-10.1
		c2.2-0.6,4.3-1.2,6.5-1.8c2.5-0.6,4.5,0,5.6,2.4c5.1,11.1,14.8,15.7,25.9,17.5c10,1.6,20.1,2,30.3,2.6c4.8,0.3,9.9,0.3,14.6-0.8
		c12.6-3,23.7-0.2,33.9,7.3c1.2,0.9,2.3,1.9,3.6,2.7c4.5,2.8,9,5.4,13.4,8.2c4.8,3,8,1.6,11.7-2.7c1.8-2.1,1.9-4.8,2.5-7.3
		c1.6-6.6,3.6-13.1,9.6-17.3c0.9-0.6,1.6-1.5,2.4-2.4c2.2-2.4,3-5.2,1.9-8.3c-0.5-1.4-1.2-2.7-1.9-4.1c-1.4-3-1.2-5.8,1.1-8.3
		C729.9,293.1,731,292,731.8,290.8z M572.7,295.7c-1.4,1.1-3.1,2.2-4.8,2.7c-10.4,2.9-20.9,5.7-31.3,8.5c-2.5,0.7-4.4-0.3-5.3-2.8
		c-1-2.8,0-5.8,2.6-6.5c7.5-2.2,15.1-4.2,22.7-6c4.3-1,8.8-1.5,13.2-2c2-0.2,3.5,1,4.1,3.5C573.6,293.8,573.4,295.1,572.7,295.7z
		 M575.2,281.2c-12.5,0.3-24.1,4.9-36.3,6.8c-1,0.2-2.1-0.4-3.3-0.6c0-3.8,3-6.1,4.1-9.2c1.3-3.4-1.8-8.6,2.6-10
		c3.2-0.9,7.2,1.1,10.8,1.9c5.2,1.2,10.4,0.3,15.5,0.4c0.9-3.1-1.2-3.5-2.8-3.9c-6.1-1.9-12.2-3.5-18.3-5.4c-3-0.9-4.2-3-3.2-4.8
		c1.3-2.5,4.6-4.1,6.6-2.5c6.8,5.4,15.9,6.7,22.4,12.5c1.7,1.5,3.6,2.7,5.1,4.3C581.9,274.3,580,281.1,575.2,281.2z M669.1,299.5
		c-1.7,7.8-6.9,13.2-14.1,16.3c-6.3,2.8-13,3.3-22.4,2.6c-6.9,0.3-16-2.1-25.3-3.5c-2.9-0.5-5.9-1.3-8.7-2.4
		c-11.9-4.7-16.6-21.6-8.3-32.1c4.4-5.6,9.6-8.8,16.4-10.8c17.6-5.1,34.2-1.9,50.2,5.5C666,279.3,671.1,289.9,669.1,299.5z
		 M685.6,291.8c2.3-0.2,4.7-0.3,7-0.5c-2.1,1.1-4.2,2.2-6.4,3.1c-0.5,0.2-1.3-0.1-1.9-0.4C683.5,293.7,684.4,291.9,685.6,291.8z
		 M711.6,320c-1.4,3.8-2.4,7.8-3.9,11.6c-1.3,3.4-4.2,4.7-7.2,2.5c-6.7-4.9-14.3-7.9-21.3-12.1c-0.6-0.4-1.2-0.9-1.8-1.4
		c-1.9-1.8-4-3.6-3.2-6.6c0.8-2.8,3.2-4.4,5.8-4.6c13.1-1,26.3-4.3,40,0.5C718.1,314.1,713.1,315.8,711.6,320z M720.3,293.2
		c-0.6,1-1.4,1.8-2,2.7c-1.4,2.1-1.2,5.4-4.5,5.9c-3,0.5-6,0.2-8.9-0.8c-1.5-0.6-2.4-1.8-2.4-3.4c0-1.8,1.1-4-0.9-5.1
		c-1.5-0.9-3.5-1-5.3-1.3c-0.9-0.1-1.9-0.1-2.9,0c7.6-3.2,15.7-3.7,23.8-4C721,287,722.3,289.8,720.3,293.2z"/>
</g>
</svg>
