<svg
		xmlns="http://www.w3.org/2000/svg"
		xmlns:xlink="http://www.w3.org/1999/xlink"
		width="189px" height="75px">
	<path fill-rule="evenodd"  fill="rgb(180, 31, 127)"
		  d="M188.313,4.440 C188.639,4.435 188.016,4.517 186.994,4.638 L175.106,29.120 C174.552,30.420 173.980,31.764 173.405,33.114 C172.706,34.751 171.956,36.496 171.471,37.722 C171.537,37.852 171.596,37.969 171.655,38.085 C171.848,38.563 172.037,39.032 172.224,39.494 C172.438,40.007 172.649,40.511 172.857,41.008 C173.286,41.996 173.702,42.954 174.108,43.888 C174.935,45.748 175.751,47.500 176.559,49.200 C178.174,52.600 179.756,55.793 181.334,59.232 L181.233,58.700 C182.288,61.031 183.347,63.369 184.408,65.712 C185.779,68.801 187.153,71.897 188.528,74.996 C179.406,74.908 170.260,74.819 161.208,74.731 C152.960,74.597 144.799,74.464 136.831,74.335 C130.981,74.584 124.771,74.224 118.636,74.454 C122.546,74.347 115.128,74.220 115.764,73.925 L107.575,73.923 C107.038,73.831 106.148,73.725 104.958,73.699 C96.421,73.483 98.330,73.426 88.780,73.120 L89.772,73.295 C87.257,73.204 84.405,73.096 85.188,72.882 C81.564,72.988 73.862,72.798 70.512,73.165 L66.849,72.984 C69.847,73.260 70.064,73.412 71.326,73.593 C64.137,73.617 56.710,73.729 48.515,73.832 C51.770,73.999 51.770,73.999 55.026,74.167 C53.062,74.088 51.126,74.011 49.180,73.933 C44.530,73.724 37.219,73.465 29.132,73.197 C25.088,73.065 20.851,72.927 16.656,72.791 C10.939,72.623 5.280,72.457 -0.001,72.302 C1.620,67.345 3.123,62.749 4.448,58.700 C5.378,55.910 6.182,53.497 6.820,51.586 C8.891,45.447 10.942,39.368 12.964,33.376 L12.893,33.125 L12.712,32.540 L12.176,30.846 C11.818,29.718 11.461,28.594 11.105,27.473 C10.384,25.233 9.669,23.006 8.957,20.792 C7.110,15.206 5.285,9.688 3.486,4.247 C6.289,4.156 9.076,4.066 11.847,3.976 C13.576,3.901 15.296,3.827 17.006,3.753 C20.256,3.598 23.466,3.421 26.635,3.217 C29.956,3.004 33.240,2.763 36.482,2.487 C36.794,2.218 52.442,2.323 53.820,3.351 C66.228,1.044 85.278,1.401 101.413,1.940 C94.004,2.012 86.486,2.101 79.339,2.299 L81.549,2.275 C81.285,2.507 81.290,2.709 84.009,2.654 C84.099,2.375 88.083,2.257 90.099,2.161 C93.320,2.051 92.898,2.605 96.308,2.319 C96.405,2.442 95.594,2.525 96.122,2.670 C96.258,2.674 96.353,2.678 96.469,2.682 C95.342,2.655 94.147,2.625 93.065,2.596 C92.899,2.906 98.140,2.819 96.026,3.285 L98.753,3.276 C97.356,3.122 97.444,3.048 98.593,2.838 C102.205,2.846 104.589,2.915 108.045,2.995 C109.283,2.884 108.381,2.895 109.374,2.810 C112.758,2.944 118.844,2.107 120.015,2.497 C119.948,2.510 119.911,2.522 119.882,2.533 C119.651,2.595 119.583,2.610 120.222,2.684 C120.229,2.662 120.199,2.647 120.191,2.629 C120.476,2.653 120.893,2.689 121.253,2.719 C123.197,2.530 124.780,2.465 126.632,2.514 C126.681,2.656 125.079,2.745 124.804,2.796 L124.461,2.730 C122.517,2.918 121.525,3.215 120.652,3.392 C123.670,3.023 127.916,3.207 130.801,2.913 L132.079,3.062 C132.502,3.056 132.362,3.011 132.392,2.988 C133.720,3.089 131.307,3.353 133.169,3.376 C132.907,3.239 134.236,3.177 135.337,3.138 C136.268,3.383 151.823,2.134 153.097,2.258 C154.079,2.211 150.983,2.426 147.660,2.638 C145.998,2.739 144.280,2.843 142.988,2.921 C142.833,2.930 142.707,2.936 142.566,2.943 C143.002,2.967 143.452,3.003 144.160,2.983 C143.829,3.079 154.561,2.077 154.789,2.212 C155.540,2.273 156.515,2.306 157.485,2.179 C156.889,2.163 157.157,2.114 157.419,2.064 L159.483,2.038 C158.383,2.099 159.093,2.181 158.714,2.324 C160.340,2.487 163.338,2.333 164.834,2.246 L164.492,2.204 C166.191,2.114 168.224,2.065 169.232,2.212 C168.694,2.500 164.917,2.358 165.735,2.643 L185.931,2.104 C186.100,1.815 186.278,1.512 186.479,1.179 C187.341,-0.327 186.912,0.731 186.342,2.093 L188.254,2.042 L187.921,2.728 C188.133,2.819 188.010,2.949 187.743,3.095 L187.207,4.197 C187.304,4.198 187.432,4.195 187.543,4.194 L187.971,4.116 C188.469,4.128 188.357,4.187 188.196,4.252 C188.237,4.288 188.162,4.315 188.014,4.336 C187.938,4.382 187.956,4.423 188.313,4.440 ZM163.878,2.372 C163.329,2.491 163.321,2.601 163.535,2.701 L164.641,2.672 C164.585,2.577 166.005,2.345 163.878,2.372 ZM187.104,4.410 L187.068,4.484 C187.400,4.483 187.751,4.482 187.938,4.445 C187.752,4.411 187.525,4.399 187.274,4.399 C187.217,4.403 187.162,4.406 187.104,4.410 ZM100.378,2.821 C97.864,2.731 98.248,2.745 96.469,2.682 C99.078,2.745 101.253,2.799 100.378,2.821 Z"/>
</svg>