<svg id="Слой_1" data-name="Слой 1" xmlns="http://www.w3.org/2000/svg" viewBox="0 0 270.59 368.4"><defs><style>.cls-1{fill:#604e42;}</style></defs><title>icon-teddy-bear</title><path class="cls-1" d="M264.65,266.18h0c6.91-10.37,10.37-21.12,10.37-31.87,0-28.42-23.42-54.91-61.82-69.89a88.63,88.63,0,0,0,18.43-54.14,93.59,93.59,0,0,0-1.92-18.43,47.1,47.1,0,0,0,18.82-37.63c0-26.11-21.12-47.62-47.23-47.62a47,47,0,0,0-36.1,16.9,93.79,93.79,0,0,0-47.62,0A47.16,47.16,0,0,0,34.25,54.22,46.55,46.55,0,0,0,53.06,91.85a100.12,100.12,0,0,0-1.92,18.43,88.63,88.63,0,0,0,18.43,54.14c-38.4,15-61.82,41.47-61.82,69.89,0,11.14,3.46,21.89,10,31.87v.38a37.27,37.27,0,0,0-6.14,10.75c-5.76,15-5.76,32.26,0,48.38s16.51,30,30,38a53.72,53.72,0,0,0,28,8.06A47.4,47.4,0,0,0,85.7,369.1c14.21-5,25.34-16.13,31.1-31.49a7.12,7.12,0,0,0,.77-2.69l20.35,15a5.76,5.76,0,0,0,6.91,0l19.58-14.59c.38.77.38,1.92.77,2.69,5.76,15.36,16.9,26.5,31.1,31.49a47.4,47.4,0,0,0,16.13,2.69,53.72,53.72,0,0,0,28-8.06c13.82-8.06,24.58-21.5,30-38,5.76-16.51,5.76-33.41,0-48.38A53.84,53.84,0,0,0,264.65,266.18ZM200.9,17.74a35.73,35.73,0,0,1,35.71,36.1,36.6,36.6,0,0,1-10.75,25.73c-1.54-4.22-3.46-8.06-5.38-12.29a23.28,23.28,0,0,0,4.22-13.44A23.93,23.93,0,0,0,200.9,30a21.93,21.93,0,0,0-12.29,3.46,115.71,115.71,0,0,0-11.9-6.14A35,35,0,0,1,200.9,17.74Zm12.29,35.71v1.92a78.6,78.6,0,0,0-13.44-14.21h1.15A12.37,12.37,0,0,1,213.19,53.45ZM56.14,79.18A36.6,36.6,0,0,1,45.38,53.45,36,36,0,0,1,81.1,17.35,35,35,0,0,1,105.29,27a115.71,115.71,0,0,0-11.9,6.14A21.93,21.93,0,0,0,81.1,29.64,23.93,23.93,0,0,0,57.29,53.45a23.28,23.28,0,0,0,4.22,13.44C59.59,71.11,57.67,75,56.14,79.18Zm26.5-38A78.6,78.6,0,0,0,69.19,55.37V53.45A12.13,12.13,0,0,1,81.48,41.16ZM62.28,109.9a78.72,78.72,0,1,1,157.44,0,77.43,77.43,0,0,1-25.34,57.6,46.69,46.69,0,0,0,4.22-19.2c0-16.13-8.06-30.34-20.74-39.94a9.62,9.62,0,0,0,3.07-6.91,9.64,9.64,0,0,0-19.2-1.15,63.94,63.94,0,0,0-41.47,0,9.89,9.89,0,0,0-9.6-8.45,9.51,9.51,0,0,0-9.6,9.6,9,9,0,0,0,3.07,6.91C91.46,118,83.4,132.17,83.4,148.3a45.36,45.36,0,0,0,4.22,19.2A78.05,78.05,0,0,1,62.28,109.9Zm124.8,38.4c0,22.27-20.74,40.32-46.08,40.32s-46.08-18-46.08-40.32S115.66,108,141,108,187.08,126,187.08,148.3ZM73.8,174.79l3.46-1.15a83.66,83.66,0,0,0,16.13,12.67,59.73,59.73,0,0,0-36.86,26.11l-.38,1.15a5.46,5.46,0,0,0-2.3-.77,5.91,5.91,0,0,0-5.76,5.76,41.54,41.54,0,0,0,6.53,21.89,9.63,9.63,0,0,1,1.54,2.69,49.84,49.84,0,0,0-12.67,2.69A52,52,0,0,0,25.8,256.58a45.24,45.24,0,0,1-6.53-22.66C18.5,210.12,39.62,187.85,73.8,174.79Zm32.26,159C101.45,346.06,93,354.5,81.86,358.34c-10.75,3.84-23,2.3-34.18-4.22-11.52-6.91-20.35-18-25-31.87-5-13.82-5-28,0-40.7,4.61-12.29,13.06-20.74,24.19-24.58A33,33,0,0,1,59.21,255c7.3,0,15,2.3,22.27,6.53,11.52,6.91,20.35,18,25,31.87C110.66,306.89,110.66,321.1,106.06,333.77ZM161.74,323l-20.35,15-21.12-15.36c1.54-10.75,0-22.27-3.84-33.41-5.76-16.13-16.51-30-30-38a63.54,63.54,0,0,0-18.82-7.3,29.62,29.62,0,0,0-3.84-9.6,30.62,30.62,0,0,1-3.07-6.14C68,209.35,84.94,196.3,104.9,196.3h0a45.71,45.71,0,0,1,31.87,13.06,5.57,5.57,0,0,0,8.06,0c8.83-8.45,20-13.44,31.87-13.44a46,46,0,0,1,33.79,15,60.15,60.15,0,0,1,10.75,16.9,45.84,45.84,0,0,1-3.07,6.14,29.62,29.62,0,0,0-3.84,9.6,51.8,51.8,0,0,0-18.82,7.3c-13.82,8.06-24.58,21.89-30,38A70.43,70.43,0,0,0,161.74,323Zm97.92-.77a59.83,59.83,0,0,1-25,31.87c-11.14,6.53-23.42,8.06-34.18,4.22-11.14-3.84-19.58-12.67-24.19-24.58-4.61-12.67-4.61-26.88,0-40.7a59.83,59.83,0,0,1,25-31.87c7.3-4.22,14.59-6.53,22.27-6.53a45.51,45.51,0,0,1,12.29,1.92c11.14,3.84,19.58,12.67,24.19,24.58A65.43,65.43,0,0,1,259.66,322.25ZM257,257a46.64,46.64,0,0,0-17.66-10.75,49.84,49.84,0,0,0-12.67-2.69,6.19,6.19,0,0,1,1.54-2.69A38.37,38.37,0,0,0,234.7,219a5.91,5.91,0,0,0-5.76-5.76,5.46,5.46,0,0,0-2.3.77l-1.15-2.69c-1.92-2.69-3.84-5.76-6.14-8.06a59.41,59.41,0,0,0-30-17.28,81.43,81.43,0,0,0,15.74-12.67l3.46,1.15c34.18,13.06,54.91,35.71,54.91,59.52A45.52,45.52,0,0,1,257,257Z" transform="translate(-5.84 -5.18)"/><path class="cls-1" d="M212.42,373.58a48.57,48.57,0,0,1-16.6-2.77c-14.71-5.17-26-16.63-31.93-32.26a4.84,4.84,0,0,1-.3-.86L145.69,351a7.16,7.16,0,0,1-8.54,0l-18.67-13.74c-.12.31-.24.59-.36.84-5.88,15.64-17.22,27.09-31.94,32.26a48.55,48.55,0,0,1-16.6,2.77,55.44,55.44,0,0,1-28.77-8.27c-13.51-8.11-24.65-22.23-30.55-38.75s-5.89-34,0-49.37a39.45,39.45,0,0,1,5.85-10.52c-6.49-10.17-9.78-20.92-9.78-32,0-28.4,23.32-55.3,61-70.52a89.43,89.43,0,0,1-17.6-53.51,99.88,99.88,0,0,1,1.78-17.82A48.17,48.17,0,0,1,32.83,54.22c0-27,21.82-49,48.65-49a48.18,48.18,0,0,1,36.6,16.73,94.89,94.89,0,0,1,46.61,0,48.17,48.17,0,0,1,36.6-16.73c26.83,0,48.65,22,48.65,49a48.57,48.57,0,0,1-18.67,38.21A93.8,93.8,0,0,1,233,110.28a89.42,89.42,0,0,1-17.6,53.51c37.67,15.22,61,42.12,61,70.52,0,10.84-3.39,21.56-10.09,31.87a56,56,0,0,1,5.4,11c5.9,15.35,5.91,32.42,0,49.33-5.42,16.66-16.29,30.44-30.58,38.77A55.41,55.41,0,0,1,212.42,373.58Zm-47.49-40.43.76,1.52a6.68,6.68,0,0,1,.51,1.7,4.75,4.75,0,0,0,.26,1l.06.14c5.58,14.87,16.32,25.75,30.25,30.65a45.8,45.8,0,0,0,15.66,2.61,52.6,52.6,0,0,0,27.29-7.86c13.71-8,24.13-21.22,29.34-37.24,5.69-16.31,5.69-32.7,0-47.44A52.74,52.74,0,0,0,263.47,267l-.52-.79.52-.79c6.72-10.08,10.13-20.54,10.13-31.09,0-27.64-23.34-53.91-60.92-68.57l-1.76-.69,1.15-1.5a86.67,86.67,0,0,0,18.14-53.28,91.69,91.69,0,0,0-1.89-18.15l-.17-.87.7-.54A46,46,0,0,0,201.29,8a45.44,45.44,0,0,0-35,16.4l-.57.67-.85-.21a92.38,92.38,0,0,0-46.93,0l-.85.21-.57-.67A45.44,45.44,0,0,0,81.48,8a46.06,46.06,0,0,0-45.81,46.2A45.28,45.28,0,0,0,53.9,90.71l.72.53-.16.88a98.7,98.7,0,0,0-1.9,18.17A86.66,86.66,0,0,0,70.7,163.56l1.15,1.5-1.76.69C32.51,180.4,9.17,206.67,9.17,234.31c0,10.74,3.28,21.2,9.75,31.1l.23.35v1.34l-.35.4a35.24,35.24,0,0,0-5.89,10.34c-5.65,14.69-5.65,31.52,0,47.38s16.38,29.5,29.35,37.28a52.62,52.62,0,0,0,27.3,7.86,45.77,45.77,0,0,0,15.65-2.61c13.94-4.9,24.68-15.78,30.25-30.65l.06-.13a5.89,5.89,0,0,0,.62-2.06v-2.8l22.61,16.64a4.35,4.35,0,0,0,5.29,0ZM69.66,361.86A44.93,44.93,0,0,1,47,355.34,59.85,59.85,0,0,1,21.38,322.7c-5.12-14.19-5.12-28.61,0-41.67,4.72-12.58,13.38-21.37,25-25.4,4.47-1.79,9.42-2,12.75-2,7.44,0,15.39,2.32,23,6.72A59.85,59.85,0,0,1,107.78,293c4.37,13.9,4.23,28.54-.4,41.25h0c-4.73,12.61-13.39,21.4-25.06,25.42A37.55,37.55,0,0,1,69.66,361.86ZM59.21,256.47c-5,0-8.62.56-11.76,1.82-10.9,3.76-19,12-23.39,23.76-4.9,12.43-4.89,26.16,0,39.72a57,57,0,0,0,24.36,31.14c10.85,6.36,22.56,7.82,33,4.1,10.85-3.74,18.92-11.95,23.34-23.73,4.41-12.13,4.54-26.12.36-39.4a57,57,0,0,0-24.34-31.08C73.61,258.66,66.15,256.47,59.21,256.47ZM212.72,361.86A37.58,37.58,0,0,1,200,359.68c-11.31-3.9-20.21-12.92-25-25.4-4.75-13.07-4.76-27.46,0-41.66A61.09,61.09,0,0,1,200.54,260c7.84-4.54,15.36-6.74,23-6.74a47.62,47.62,0,0,1,12.66,2c11.41,3.93,20.31,13,25.14,25.43a66.88,66.88,0,0,1-.36,42h0a61.1,61.1,0,0,1-25.56,32.63A45,45,0,0,1,212.72,361.86Zm10.84-105.78c-7.14,0-14.2,2.07-21.56,6.34a58.23,58.23,0,0,0-24.33,31.09c-4.53,13.59-4.53,27.34,0,39.77,4.51,11.66,12.8,20.09,23.32,23.72s22.13,2.26,33-4.11a58.24,58.24,0,0,0,24.33-31.1,64,64,0,0,0,.38-40.19c-4.5-11.62-12.79-20.06-23.31-23.68A43.21,43.21,0,0,0,223.56,256.08Zm-82.17,83.67-22.65-16.47.12-.84c1.44-10.08.13-21.4-3.78-32.75-5.68-15.89-16.37-29.48-29.34-37.26a62,62,0,0,0-18.35-7.12l-.92-.17-.2-.91a28.33,28.33,0,0,0-3.66-9.16,32,32,0,0,1-3.21-6.45l-.16-.48.18-.48c7.72-19.91,25.57-32.78,45.48-32.78a46.83,46.83,0,0,1,32.85,13.45,4.15,4.15,0,0,0,6.08,0c9.35-8.94,21-13.85,32.87-13.85a47.53,47.53,0,0,1,34.83,15.43,61.06,61.06,0,0,1,11,17.29l.24.54-.22.55a47.27,47.27,0,0,1-3.17,6.35,28.39,28.39,0,0,0-3.67,9.18l-.21.92-.93.16a50.54,50.54,0,0,0-18.31,7.1c-13.38,7.8-24.06,21.38-29.36,37.26a69,69,0,0,0-3.78,33.53l.12.83ZM121.78,322l19.6,14.25,18.84-13.87a71.86,71.86,0,0,1,4-34c5.5-16.49,16.64-30.63,30.57-38.75a53.29,53.29,0,0,1,18.36-7.3,30.62,30.62,0,0,1,3.81-9.13,45,45,0,0,0,2.73-5.37,57.86,57.86,0,0,0-10.25-16,44.69,44.69,0,0,0-32.75-14.52c-11.13,0-22.1,4.63-30.89,13a7,7,0,0,1-10,0,44,44,0,0,0-30.87-12.64c-18.57,0-35.25,11.95-42.65,30.48A31.37,31.37,0,0,0,65,233.58a30.56,30.56,0,0,1,3.8,9.12A66.27,66.27,0,0,1,87.17,250c13.56,8.13,24.69,22.26,30.59,38.77C121.71,300.21,123.1,311.68,121.78,322Zm135.49-62.71L256,258a45.15,45.15,0,0,0-17.13-10.42,48.56,48.56,0,0,0-12.33-2.61l-1.78-.16.57-1.7a7.7,7.7,0,0,1,1.77-3.14,36.86,36.86,0,0,0,6.22-21,4.51,4.51,0,0,0-4.34-4.34,4.69,4.69,0,0,0-1.67.62l-1.34.67L224.24,212c-.41-.57-.82-1.16-1.23-1.76a44,44,0,0,0-4.68-6,58.32,58.32,0,0,0-29.27-16.9l-3.41-.8,3-1.8a80.06,80.06,0,0,0,15.47-12.46l.62-.62,4.29,1.43c34.49,13.17,55.88,36.49,55.88,60.86a47.08,47.08,0,0,1-6.72,23.75Zm-28.52-16.95a49.49,49.49,0,0,1,11,2.56,48.8,48.8,0,0,1,16.83,9.79,43.69,43.69,0,0,0,5.46-20.75c0-23.17-20.69-45.47-54-58.2l-2.57-.86a86.49,86.49,0,0,1-12.62,10.5,61.22,61.22,0,0,1,27.47,16.85,45.92,45.92,0,0,1,5,6.37c.43.63.86,1.25,1.29,1.85l.15.27.58,1.36a4.61,4.61,0,0,1,1.57-.3,7.37,7.37,0,0,1,7.18,7.18,39.62,39.62,0,0,1-6.77,22.67l-.18.22A4,4,0,0,0,228.75,242.33ZM25.46,258.83l-.89-1.53a46.44,46.44,0,0,1-6.72-23.37c-.78-24.28,19.94-46.9,55.44-60.46l.06,0L77.64,172l.62.62A82.65,82.65,0,0,0,94.11,185.1l3,1.82-3.45.78A58,58,0,0,0,57.81,213L57,215.58l-1.46-.73a4.68,4.68,0,0,0-1.67-.62,4.51,4.51,0,0,0-4.34,4.34,40.23,40.23,0,0,0,6.24,21A8.42,8.42,0,0,1,57.15,242c.09.19.17.38.25.54l.93,1.86-2.07.19a48.5,48.5,0,0,0-12.32,2.61,50.3,50.3,0,0,0-17.19,10.46Zm48.82-82.7C40.49,189,20,211.17,20.69,233.88a43,43,0,0,0,5.49,20.47A52.93,52.93,0,0,1,43,244.5a49.42,49.42,0,0,1,11-2.55,2.76,2.76,0,0,0-.38-.49l-.21-.26a43.07,43.07,0,0,1-6.74-22.63,7.37,7.37,0,0,1,7.18-7.18,4.54,4.54,0,0,1,1.49.27h0a61.06,61.06,0,0,1,34.5-25.9,86.29,86.29,0,0,1-13-10.49ZM141,190c-26.19,0-47.5-18.72-47.5-41.74s21.31-41.74,47.5-41.74,47.5,18.72,47.5,41.74S167.19,190,141,190Zm0-80.64c-24.63,0-44.66,17.45-44.66,38.9s20,38.9,44.66,38.9,44.66-17.45,44.66-38.9S165.63,109.39,141,109.39ZM92,173.46l-5.31-4.92a79.23,79.23,0,0,1-25.8-58.64,80.14,80.14,0,1,1,160.27,0,79,79,0,0,1-25.81,58.65L190.44,173l2.64-6a45.15,45.15,0,0,0,4.11-18.63c0-14.95-7.35-29.09-20.17-38.81l-1.3-1,1.15-1.15a8.22,8.22,0,0,0,2.66-5.91,8.22,8.22,0,0,0-16.38-.94l-.26,1.69-1.61-.57a62.52,62.52,0,0,0-40.53,0l-1.59.56-.28-1.67a8.45,8.45,0,0,0-8.2-7.26,8.1,8.1,0,0,0-8.18,8.18,7.61,7.61,0,0,0,2.54,5.8l1.42,1.14-1.45,1.1c-12.82,9.71-20.17,23.86-20.17,38.81a43.66,43.66,0,0,0,4.09,18.6Zm88-65.28C192.72,118.39,200,132.93,200,148.3A45.83,45.83,0,0,1,197.94,162,76.4,76.4,0,0,0,218.3,109.9a77.3,77.3,0,0,0-154.61,0,76.14,76.14,0,0,0,20.24,51.88,46.86,46.86,0,0,1-2-13.48c0-15.34,7.28-29.85,20-40.07a11,11,0,0,1,8.66-17.8,11.19,11.19,0,0,1,10.62,8,65.61,65.61,0,0,1,39.41,0,11,11,0,0,1,21.66,3A10.59,10.59,0,0,1,179.93,108.17Zm45.36-26L224.53,80c-1.14-3.15-2.51-6.08-3.95-9.18-.46-1-.92-2-1.39-3l-.33-.74.46-.66a21.91,21.91,0,0,0,4-12.63A22.42,22.42,0,0,0,200.9,31.44a20.62,20.62,0,0,0-11.5,3.22l-.75.5-.77-.46a113.31,113.31,0,0,0-11.76-6.07l-1.92-.87,1.54-1.45a36.59,36.59,0,0,1,25.16-10A37.36,37.36,0,0,1,238,53.83a38.12,38.12,0,0,1-11.17,26.73Zm-3.19-14.73,1,2.27c1.14,2.46,2.23,4.81,3.22,7.27a35.22,35.22,0,0,0,8.82-23.11c0-19.45-15.06-34.68-34.29-34.68A33.24,33.24,0,0,0,179.27,27c3.55,1.67,6.51,3.21,9.32,4.86a23.74,23.74,0,0,1,12.31-3.21,25.25,25.25,0,0,1,25.22,25.23A24.73,24.73,0,0,1,222.11,67.41ZM56.71,81.75l-1.57-1.57A38.11,38.11,0,0,1,44,53.45,37.37,37.37,0,0,1,81.1,15.93a36.59,36.59,0,0,1,25.16,10l1.54,1.45-1.92.87a113.39,113.39,0,0,0-11.76,6.07l-.77.46-.75-.5a20.62,20.62,0,0,0-11.5-3.22A22.42,22.42,0,0,0,58.71,53.45a21.91,21.91,0,0,0,4,12.63l.46.66-.33.74c-.46,1-.93,2-1.38,3-1.44,3.1-2.81,6-4,9.19Zm24.39-63A34.53,34.53,0,0,0,46.8,53.45a35.22,35.22,0,0,0,8.82,23.11c1-2.46,2.08-4.82,3.23-7.28l1-2.25a24.72,24.72,0,0,1-4-13.57A25.25,25.25,0,0,1,81.1,28.22a23.74,23.74,0,0,1,12.31,3.21c2.81-1.65,5.77-3.19,9.32-4.86A33.24,33.24,0,0,0,81.1,18.77Zm-13.32,41V53.45A13.56,13.56,0,0,1,81.48,39.74h5l-3,2.5a77.23,77.23,0,0,0-13.2,13.95ZM78.4,43a10.68,10.68,0,0,0-7.48,7.81A80.78,80.78,0,0,1,78.4,43ZM214.61,59.79,212,56.19a77.25,77.25,0,0,0-13.2-13.95l-3-2.5h5a13.72,13.72,0,0,1,13.71,13.71ZM204,43.06a80.71,80.71,0,0,1,7.38,7.7A11.16,11.16,0,0,0,204,43.06Z" transform="translate(-5.84 -5.18)"/><path class="cls-1" d="M160.58,172.87c3.07-1.15,4.22-4.61,3.07-7.68S159,161,156,162.12l-1.15.38a33.21,33.21,0,0,1-8.83,2.3v-10a17.64,17.64,0,0,0-5-34.56h-.77a17.87,17.87,0,0,0-17.66,17.66,17.42,17.42,0,0,0,11.9,16.51v10a35.92,35.92,0,0,1-8.45-2.69,5.75,5.75,0,0,0-5,10.37,44,44,0,0,0,19.58,4.22A45.38,45.38,0,0,0,159,172.49Zm-14.21-34.56a5.77,5.77,0,1,1-5.76-6.14A6.56,6.56,0,0,1,146.38,138.31Z" transform="translate(-5.84 -5.18)"/><path class="cls-1" d="M140.62,177.75a45.47,45.47,0,0,1-20.22-4.37,7.59,7.59,0,0,1-3.38-9.45l.1-.21a7.57,7.57,0,0,1,9.41-3.31,42.52,42.52,0,0,0,6.53,2.3v-7.28a18.8,18.8,0,0,1-11.9-17.5,19.34,19.34,0,0,1,19.08-19.08H141a19,19,0,0,1,6.41,37v7.33a30.73,30.73,0,0,0,6.86-2l.11,0,1.15-.38a7.18,7.18,0,0,1,9.46,3.92c1.48,4-.23,8.13-3.9,9.51l-.41.15-1.5-.37A46.43,46.43,0,0,1,140.62,177.75Zm-21-12.72a4.72,4.72,0,0,0,2.1,5.84,42.62,42.62,0,0,0,18.88,4,43.7,43.7,0,0,0,17.86-3.72l.44-.19,1.54.39a4.4,4.4,0,0,0,1.86-5.69c-.83-2.22-3.35-3.18-5.86-2.24l-1.15.38a34.73,34.73,0,0,1-9.16,2.38l-1.59.2V153.79l1-.31A16.22,16.22,0,0,0,141,121.68h-.77A16.46,16.46,0,0,0,124,137.93a16,16,0,0,0,10.94,15.17l1,.32v12.64l-1.62-.23a36,36,0,0,1-8.81-2.79A4.71,4.71,0,0,0,119.63,165Zm21-19.15-.18,0a7.57,7.57,0,0,1,0-15.1l.18,0,.18,0a8,8,0,0,1,7,7.55,7.7,7.7,0,0,1-7,7.55Zm0-12.28a4.73,4.73,0,1,0,4.34,4.71A5.15,5.15,0,0,0,140.61,133.6Z" transform="translate(-5.84 -5.18)"/></svg>