<?xml version="1.0" encoding="utf-8"?>
<!-- Generator: Adobe Illustrator 22.1.0, SVG Export Plug-In . SVG Version: 6.00 Build 0)  -->
<svg version="1.1" id="Графика" xmlns="http://www.w3.org/2000/svg" xmlns:xlink="http://www.w3.org/1999/xlink" x="0px"
	 y="0px" viewBox="0 0 153 156.3" style="enable-background:new 0 0 153 156.3;" xml:space="preserve">
<style type="text/css">
	<!--.st0{fill:#FFFFFF;}-->
</style>
<g>
	<g>
		<g>
			<path d="M102.7,82.3c5.5,0.5,11.2,2.4,15.6,6c0.2,0.2,0.6,0.2,0.8,0c1.3-1.6,2.8-3.2,4.3-4.6c0.7-0.7,2-1.4,2.2-2.6
				c0.1-1.3-1.2-2.7-1.9-3.6c-1-1.3-2.1-2.5-3.4-3.6c-4.9-4.2-11.3-6.2-17.7-5.5c-0.7,0.1-0.7,1.2,0,1.1c5.5-0.6,11.1,0.8,15.6,4.1
				c2.1,1.5,4.8,3.8,5.9,6.3c0.8,1.9-1,2.7-2.2,3.9c-1.2,1.2-2.4,2.5-3.5,3.8c0.3,0,0.5,0,0.8,0c-4.6-3.7-10.5-5.8-16.3-6.3
				C102,81.2,102,82.2,102.7,82.3L102.7,82.3z"/>
		</g>
	</g>
	<g>
		<g>
			<path d="M22.4,64.1c2.4-0.4,4.9-0.6,7.3-0.8c1.1-0.1,2.2-0.1,3.3-0.2c0.9,0,3-0.4,3.7,0c0.6-0.1,0.6,0,0,0.4
				c-0.2,0.3-0.4,0.4-0.7,0.4c-0.5,0.2-1.2,0.2-1.8,0.3c-1.1,0.1-2.3,0.2-3.4,0.2c-1.1,0-7.4,0.7-7.7-0.7c-0.2-0.7-1.2-0.4-1,0.3
				c0.2,1,0.7,1.3,1.7,1.5c1.8,0.3,3.9,0.1,5.8,0c1.9,0,3.8,0,5.6-0.3c0.9-0.2,2.9-0.4,3.4-1.4c1-2.3-3.4-1.7-4.4-1.7
				c-4.1,0.1-8.1,0.4-12.2,1C21.4,63.2,21.7,64.2,22.4,64.1L22.4,64.1z"/>
		</g>
		<g>
			<path d="M37.9,63c0,2.7-0.3,5.3-1,7.9c-0.3,1.1-0.5,2.9-1.2,3.8c-0.9,1.2-3,0.8-4.3,0.9c-1.5,0-2.8,0.2-4-0.8
				c-0.9-0.7-1.6-1.9-2.2-2.9c-1.4-2.3-2.2-4.7-2.2-7.4c0-0.7-1.1-0.7-1.1,0c0,3.1,1,5.9,2.7,8.5c0.7,1.1,1.6,2.5,2.7,3.2
				c1.1,0.7,2.4,0.5,3.7,0.4c2.7-0.1,5,0.4,6.1-2.5C38.4,70.5,39,66.8,39,63C39,62.3,37.9,62.3,37.9,63L37.9,63z"/>
		</g>
	</g>
	<g>
		<path class="st0" d="M57.7,66.6c-1.4,1.9-3.1,3.5-4.9,5c-1.3,1-2.9,1.9-4.5,1.6c-2.6-0.4-3.8-3.6-5.9-5.2c-2-1.6-5.2-1.6-7.3-0.1
			c0.7,0.2,1.4,0.3,2,0.7c0.6,0.4,1.1,1.1,1.1,1.8c0,0.6-0.5,1.2-0.5,1.8c0,0.7,0.5,1.3,1.1,1.6c0.6,0.3,1.4,0.2,2.1,0
			c0.3-0.1,0.6-0.2,0.9-0.2c0.3,0,0.6,0.2,0.8,0.4c2.5,1.6,5.5,3.1,8.3,2.2c3-1.1,4.4-4.5,7-6.3"/>
		<g>
			<path d="M57.3,66.2c-1.7,2.1-3.7,4.3-6,5.7c-3.3,1.9-5.1-0.4-7.1-2.8c-2.4-2.9-6.1-3.9-9.4-1.7c-0.4,0.2-0.3,0.9,0.1,1
				c2,0.5,2.6,1,2.4,3c0,0.3-0.1,0.6-0.1,0.9c0.1,0.9,0.6,1.6,1.4,1.9c0.9,0.4,1.6,0.1,2.5,0c1.8-0.1,3.1,1.3,4.7,2
				c2.3,0.9,4.7,1,6.8-0.5c2.2-1.5,3.4-4,5.6-5.6c0.6-0.4,0-1.3-0.5-0.9c-1.8,1.3-2.9,3.1-4.4,4.6c-3,2.9-6.4,2-9.7,0
				c-0.9-0.5-1.2-0.7-2.2-0.8c-1.1-0.1-2.4,3-3-1.4c0-0.4,0.4-1,0.4-1.4c0-1.9-1.9-2.6-3.5-3c0,0.3,0.1,0.7,0.1,1
				c2.8-1.8,5.8-1.1,8,1.4c1.2,1.3,2.1,3,3.8,3.7c4.2,1.9,8.8-3.6,11-6.4C58.5,66.4,57.8,65.6,57.3,66.2L57.3,66.2z"/>
		</g>
	</g>
	<g>
		<path class="st0" d="M47.3,0.5c-2.6,11.9-3.4,28.7-0.9,47.2c0.2,1.4,0.4,2.9,1.5,3.9c1.1,1.1,2.7,1.3,4.2,1.4
			c16.3,1.5,32.8,1.3,49.1-0.4c1.6-0.2,3.3-0.4,4.7-1.3c1.5-1,2.6-2.5,3.3-4.2c5.7-13.1,9.1-33,7.3-45.7c-3.6,5.8-7.4,8.9-8.8,10.6
			c-1.5,1.9-3.5,2.2-5.8,3c-1.6,0.6-7,0.9-8.6,0.9c-9.8,0-19.6-0.1-29.4-0.1c-1.5,0-5.3-0.1-6.5-0.9C55.6,13.7,51.1,6.9,47.3,0.5z"
			/>
		<g>
			<path d="M46.8,0.4c-2.2,10.2-2.7,20.7-2.3,31.1c0.2,5.8,0.4,12,1.6,17.7c1.1,5.2,6.8,4.6,11.1,4.9C70.4,55,83.7,54.9,97,53.6
				c5-0.5,9.8-0.5,12.3-5.5c2.1-4.2,3.4-8.9,4.6-13.4c2.8-10.6,4.5-22.2,3-33.2c-0.1-0.5-0.7-0.8-1-0.3c-1.9,3-4.2,5.8-6.7,8.4
				c-0.7,0.7-1.3,1.4-2,2.1c-1.3,1.3-2.6,1.9-4.3,2.4c-6.1,2-13.1,1.2-19.4,1.2c-4.3,0-8.7,0-13-0.1c-3.5,0-7.1,0.2-10.6-0.2
				c-3-0.4-4.2-2.6-5.9-4.9c-2.2-3.2-4.3-6.5-6.3-9.9c-0.4-0.6-1.3-0.1-0.9,0.5c1.8,3,3.6,6,5.6,8.8c1.2,1.8,2.4,3.7,4,5.2
				c1.2,1.2,3,1.3,4.6,1.4c3.2,0.2,6.4,0.1,9.5,0.1c7.6,0,15.2,0.2,22.8,0.1c4.2,0,9-0.3,12.7-2.4c1.8-1,3.2-2.9,4.6-4.4
				c2.3-2.4,4.4-5,6.2-7.9c-0.3-0.1-0.7-0.2-1-0.3c1.2,8.9,0.2,18.2-1.6,27c-0.9,4.5-2.1,8.9-3.6,13.2c-0.7,2.1-1.4,4.3-2.5,6.2
				c-1.7,3.3-4.5,4-7.9,4.3c-11.8,1.3-23.7,1.7-35.6,1.2c-2.8-0.1-5.6-0.3-8.5-0.5c-2.6-0.2-7.3,0.2-8.7-2.5
				c-1.2-2.3-1.1-5.9-1.4-8.5c-0.3-3-0.5-5.9-0.6-8.9c-0.5-10.8,0-21.8,2.2-32.4C48,0,47-0.3,46.8,0.4z"/>
		</g>
	</g>
	<g>
		<path d="M91.2,28.5c0.4-1.1,1.4-2.5,2.7-2c1.2,0.4,1.7,2,1.9,3.2c0.1,0.7,1.1,0.4,1-0.3c-0.2-1.7-1.2-3.8-3.1-4
			c-1.8-0.2-3,1.4-3.5,2.9C89.9,28.8,91,29.1,91.2,28.5L91.2,28.5z"/>
	</g>
	<g>
		<path d="M109.5,34.2c3.7-0.5,7.4-0.9,11-1.4c0.7-0.1,0.7-1.2,0-1.1c-3.7,0.5-7.4,0.9-11,1.4C108.8,33.3,108.8,34.3,109.5,34.2
			L109.5,34.2z"/>
	</g>
	<g>
		<path d="M109.5,38.3c3-0.1,6,0.3,8.9,1.2c0.7,0.2,0.9-0.8,0.3-1c-3-0.9-6.1-1.3-9.2-1.2C108.8,37.2,108.8,38.3,109.5,38.3
			L109.5,38.3z"/>
	</g>
	<g>
		<path d="M107.3,42.7c2.6,1.1,5.1,2.3,7.7,3.4c0.6,0.3,1.2-0.6,0.5-0.9c-2.6-1.1-5.1-2.3-7.7-3.4C107.3,41.5,106.7,42.4,107.3,42.7
			L107.3,42.7z"/>
	</g>
	<g>
		<path d="M52.3,33.4c-3.8-1.2-7.7-1.8-11.8-2c-0.7,0-0.7,1.1,0,1.1c3.9,0.1,7.7,0.8,11.5,1.9C52.7,34.6,52.9,33.6,52.3,33.4
			L52.3,33.4z"/>
	</g>
	<g>
		<path d="M50.2,36.6c-3.4,0-6.9,0-10.3,0c-0.7,0-0.7,1.1,0,1.1c3.4,0,6.9,0,10.3,0C50.9,37.7,50.9,36.6,50.2,36.6L50.2,36.6z"/>
	</g>
	<g>
		<path d="M49.9,39.3c-2.6,1.8-5.6,2.9-8.8,3.1c-0.7,0-0.7,1.1,0,1.1c3.4-0.2,6.5-1.3,9.3-3.2C51.1,39.8,50.5,38.9,49.9,39.3
			L49.9,39.3z"/>
	</g>
	<g>
		<path d="M77.3,12.6c0.2,3,0.5,6,0.7,9c0.1,0.7,1.1,0.7,1.1,0c-0.2-3-0.5-6-0.7-9C78.3,11.9,77.2,11.9,77.3,12.6L77.3,12.6z"/>
	</g>
	<g>
		<path d="M82.5,11.5c0.8,2.7,0.7,5.4,0,8c-0.2,0.7,0.8,1,1,0.3c0.8-2.9,0.8-5.7,0-8.6C83.3,10.5,82.3,10.8,82.5,11.5L82.5,11.5z"/>
	</g>
	<g>
		<path d="M88.3,12c0,3.2,0,6.4,0,9.7c0,0.7,1.1,0.7,1.1,0c0-3.2,0-6.4,0-9.7C89.4,11.3,88.3,11.3,88.3,12L88.3,12z"/>
	</g>
	<g>
		<path d="M56.5,54c0.5,7,0.8,14.1,1.2,21.2c0.2,3.4,0.4,6.7,0.6,10.1c0.3,3.6,0.5,7.7-1.1,11c-2.2,4.3-6.9,4.9-11.3,5.2
			c-3.3,0.2-6.6,0.6-9.8,1.5c-5.8,1.5-11.5,4.3-15.7,8.7c-4.7,5-6.6,11.7-5.9,18.5c0.2-0.2,0.4-0.4,0.5-0.5
			c-4.9,0.4-9.7,1.1-14.6,1.5c-0.5,0-0.8,0.7-0.3,1c5.9,3.4,11.9,6,18.6,7.1c0.2,0,0.5,0,0.6-0.2c3.5-6.5-1.1-14.7,3.4-20.9
			c5.8-8.1,17-6.7,25.5-5.4c0-0.4,0.1-0.7,0.1-1.1c-6.4-0.3-11.6,4.3-14.1,9.9c-3.2,7-1.6,14.4,0,21.6c0.1-0.2,0.3-0.4,0.4-0.7
			c-4.1,0.7-7.9,2.5-11.7,4.2c-0.4,0.2-0.3,0.9,0.1,1c6.8,2.1,13.9,2.4,20.8,1c0.3-0.1,0.4-0.4,0.4-0.7c-1.2-5.1-1.8-10.2-1.8-15.4
			c0-5-0.2-11.1,4.9-13.6c4-1.9,9.1-2.4,13.4-3.1c5.1-0.7,10.2-1.2,15.3-1.5c4.8-0.3,9.6-0.4,14.3-0.6c2.5-0.1,4.9-0.1,7.4-0.3
			c1.4-0.1,2.8-0.2,3.7-1.4c0.8-1,0.8-2.4,0.9-3.6c0.2-2.6,0.3-5.3,0.4-7.9c0.2-4.8,0.3-9.5,0.2-14.3c-0.1-11-0.9-22.1-2.2-33
			c-0.1-0.7-1.2-0.7-1.1,0c1.2,9.8,2,19.6,2.2,29.4c0.1,4.9,0.1,9.7-0.1,14.6c-0.1,2.5-0.2,5-0.3,7.4c-0.1,2.6,0.4,7.3-3.1,7.7
			c-4.8,0.6-9.8,0.4-14.6,0.6c-4.9,0.2-9.8,0.4-14.7,0.9c-4.7,0.4-9.3,1-13.9,1.9c-3.6,0.7-7.9,1.3-10.7,3.7
			c-3.3,2.9-3.2,8.2-3.2,12.3c-0.1,5.6,0.5,11.1,1.8,16.5c0.1-0.2,0.3-0.4,0.4-0.7c-6.8,1.4-13.6,1-20.2-1c0,0.3,0.1,0.7,0.1,1
			c3.7-1.7,7.4-3.4,11.5-4.1c0.3,0,0.4-0.4,0.4-0.7c-1.5-6.6-2.9-13.2-0.5-19.8c2.1-5.7,7.3-10.6,13.6-10.4c0.6,0,0.7-1,0.1-1.1
			c-6.3-1-13-2.1-19.1,0.2c-4.3,1.6-8.3,5-9.5,9.5c-0.6,2.5-0.5,5.1-0.4,7.6c0.1,1.5,0.1,3,0,4.6c-0.1,0.8-0.1,3.7-1,4.4
			c-0.7,0.5-3.8-0.6-4.7-0.8c-1.3-0.4-2.6-0.8-3.9-1.3c-3.3-1.2-6.4-2.9-9.4-4.7c-0.1,0.3-0.2,0.7-0.3,1c4.9-0.4,9.7-1.1,14.6-1.5
			c0.3,0,0.6-0.2,0.5-0.5c-0.7-6.7,1.2-13.2,6-18.1c4.7-4.8,11.2-7.4,17.7-8.7c6.1-1.2,14.9,0.3,18.5-6c3.2-5.5,1.5-13.1,1.1-19.1
			C58.5,70.1,58.2,62,57.6,54C57.6,53.3,56.5,53.3,56.5,54L56.5,54z"/>
	</g>
	<g>
		<g>
			<path d="M68.2,117.8c-1.1,1.1-1.1,2.8-0.2,4.1c1.3,1.7,3.6,1.8,5.6,1.8c7.1-0.2,14.1-0.6,21.2-1c1.8-0.1,4.1,0,5.6-1.4
				c1.1-1,1-2.5,0-3.6c-3.5-3.7-10.2-2.3-14.6-2.2c-5.7,0.1-12.1-0.2-17.4,2.2c-0.6,0.3-0.1,1.2,0.5,0.9c4.3-1.9,9.4-1.9,14.1-2
				c2.6-0.1,5.1-0.1,7.7-0.2c2.6-0.1,5.4-0.2,7.7,1.1c0.9,0.5,2.3,1.3,1.4,2.8c-0.3,0.5-1.2,0.8-1.7,0.9c-1.3,0.4-2.8,0.3-4.1,0.4
				c-2.9,0.1-5.8,0.3-8.7,0.4c-2.9,0.1-5.8,0.3-8.7,0.4c-1.3,0.1-2.6,0.2-3.9,0.1c-1.7-0.1-6-1.6-3.6-4.1
				C69.5,118.1,68.7,117.3,68.2,117.8L68.2,117.8z"/>
		</g>
	</g>
	<g>
		<path d="M100.6,118.3c5.6-1.1,7.9-6.6,9.3-11.5c1.9-6.8,4.6-13,9.1-18.6c0.4-0.5-0.3-1.3-0.8-0.8c-3.5,4.4-6.3,9.3-8.1,14.7
			c-1.9,5.6-2.8,13.8-9.8,15.1C99.7,117.4,100,118.5,100.6,118.3L100.6,118.3z"/>
	</g>
	<g>
		<path d="M70.2,122.9c0.4,4.3,0.4,8.9-0.6,13.1c-0.6,2.3-2,4.7-4.7,4.8c-1.5,0.1-2.4-0.8-3.1-2c-0.3-0.5-0.5-1-0.7-1.5
			c0.6-0.9,1-0.9,1.2,0c0.3,0.6,1.2,0.1,0.9-0.5c-0.4-0.9-0.7-1.9-1.9-1.7c-0.9,0.1-1.4,0.9-1.4,1.8c0,2.6,2.4,5.2,5,5.1
			c3-0.1,4.9-2.6,5.6-5.2c1.2-4.4,1.1-9.3,0.7-13.7C71.2,122.2,70.1,122.2,70.2,122.9L70.2,122.9z"/>
	</g>
	<g>
		<path d="M97.4,121.6c-0.2,4.6,0.1,9.2,0.7,13.7c0.4,2.9,0.7,6.9,3.5,8.6c1.7,1,4.7,0.8,5.2-1.5c0.4-1.9-1.2-3.9-3.1-3.3
			c-0.7,0.2-0.4,1.2,0.3,1c2.4-0.7,2.3,3.9-0.9,3.1c-1.3-0.3-2.1-1.2-2.6-2.4c-0.9-1.9-1.1-4.4-1.4-6.5c-0.5-4.3-0.7-8.6-0.6-12.9
			C98.5,120.9,97.4,120.9,97.4,121.6L97.4,121.6z"/>
	</g>
	<g>
		<path d="M77.6,124.1c0.8,6.4,1.1,12.9,1.1,19.3c0,3,0.3,6.9-1.4,9.6c-1,1.7-3.2,3-5.1,1.8c-2.4-1.4-1.9-4.8,0.6-5.8
			c-0.2-0.2-0.5-0.3-0.7-0.5c0.1,0.7,0.1,1.4,0.2,2.1c0.1,0.7,1.1,0.7,1.1,0c-0.1-0.7-0.1-1.4-0.2-2.1c0-0.3-0.3-0.7-0.7-0.5
			c-2.6,1.1-4,4.1-2.2,6.5c2,2.8,5.7,2.1,7.6-0.4c2.6-3.4,1.9-9.1,1.9-13.1c0-5.6-0.4-11.3-1.1-16.9
			C78.6,123.4,77.5,123.4,77.6,124.1L77.6,124.1z"/>
	</g>
	<g>
		<g>
			<path d="M68.7,73.6c0.4,2.5,0.5,6,2.1,8.1c1.5,1.9,4.5,2.5,6.7,2.6c2,0.1,4.3-0.1,5.7-1.9c1.7-2.2,2.2-5.8,2.9-8.5
				c0.2-0.7-0.9-1-1-0.3c-0.5,2-1.1,4-1.8,6c-1,2.8-2.9,3.7-5.8,3.5c-2.5-0.1-5.4-0.8-6.4-3.3c-0.9-2-1.1-4.5-1.4-6.7
				C69.7,72.6,68.6,72.9,68.7,73.6L68.7,73.6z"/>
		</g>
		<g>
			<path d="M69.9,72.5c-2.4-3.4,2.8-4.6,4.2-6.9c1.3-2,1.4-4.6,1.5-6.9c-0.4,0-0.7,0.1-1.1,0.1c0.9,2.5,3,4,5.2,5.3
				c2.9,1.7,8,4.8,5,8.8c-0.4,0.6,0.5,1.1,0.9,0.5c1.7-2.3,0.9-5.3-1-7.2c-2.8-2.9-7.7-3.6-9.2-7.7c-0.2-0.6-1-0.5-1.1,0.1
				c-0.1,1.8-0.1,3.6-0.8,5.2c-0.8,2-2.4,2.6-4,3.9c-1.7,1.3-2.1,3.5-0.8,5.3C69.3,73.6,70.3,73.1,69.9,72.5L69.9,72.5z"/>
		</g>
		<g>
			<path d="M74.4,60.8c0,1.8,0.9,3.2,2.2,4.4c0.8,0.8,1.7,1.4,2.4,2.3c1.2,1.7,0.9,3.5,0.5,5.4c-0.2,0.7,0.9,1,1,0.3
				c0.4-1.9,0.9-4-0.2-5.8c-1.4-2.4-4.9-3.4-4.8-6.6C75.5,60.1,74.4,60.1,74.4,60.8L74.4,60.8z"/>
		</g>
		<g>
			<path d="M73.5,64.6c-0.4,1.1-0.4,2.1,0.1,3.1c0.9,1.9,1.7,3.3,0.9,5.5c-0.2,0.6,0.8,0.9,1,0.3c0.4-1.2,0.6-2.4,0.3-3.7
				c-0.4-1.8-2-3-1.3-4.9C74.8,64.3,73.7,64,73.5,64.6L73.5,64.6z"/>
		</g>
		<g>
			<path d="M69.2,72.8c2,1.5,4.8,1.2,6.3-0.9c0.4-0.6-0.5-1.1-0.9-0.5c-1,1.4-3.2,1.7-4.6,0.6C69.4,71.6,68.7,72.4,69.2,72.8
				L69.2,72.8z"/>
		</g>
		<g>
			<path d="M74.6,73.7c2.3,2,4.6-0.4,5.8-2.3c0.4-0.6-0.5-1.1-0.9-0.5c-0.8,1.2-2.5,3.5-4.2,2C74.9,72.5,74.1,73.2,74.6,73.7
				L74.6,73.7z"/>
		</g>
		<g>
			<path d="M79.9,73.7c2.2,0.3,4.5,0.5,6.2-1.2c0.5-0.5-0.3-1.2-0.8-0.8c-1.4,1.4-3.4,1.2-5.2,0.9C79.5,72.6,79.2,73.6,79.9,73.7
				L79.9,73.7z"/>
		</g>
		<g>
			<path d="M71.6,76.1c0.2,0.2,0.3,0.3,0.5,0.5c0.2,0.2,0.5,0.2,0.8,0c0.2-0.2,0.2-0.6,0-0.8c-0.2-0.2-0.3-0.3-0.5-0.5
				c-0.2-0.2-0.5-0.2-0.8,0C71.4,75.6,71.3,75.9,71.6,76.1L71.6,76.1z"/>
		</g>
		<g>
			<path d="M76.6,75.2c-0.2,0.3-0.4,0.6-0.6,0.9c-0.2,0.2-0.1,0.6,0.2,0.7c0.3,0.2,0.6,0.1,0.7-0.2c0.2-0.3,0.4-0.6,0.6-0.9
				c0.2-0.2,0.1-0.6-0.2-0.7C77.1,74.9,76.7,75,76.6,75.2L76.6,75.2z"/>
		</g>
		<g>
			<path d="M79.6,75.9c0.2,0.3,0.5,0.5,0.7,0.8c0.2,0.2,0.6,0.2,0.8,0c0.2-0.2,0.2-0.5,0-0.8c-0.2-0.3-0.5-0.5-0.7-0.8
				c-0.2-0.2-0.6-0.2-0.8,0C79.4,75.4,79.4,75.7,79.6,75.9L79.6,75.9z"/>
		</g>
		<g>
			<path d="M74.3,77.9c-0.2,0.4-0.3,0.7-0.5,1.1c-0.1,0.3-0.1,0.6,0.2,0.7c0.2,0.1,0.6,0.1,0.7-0.2c0.2-0.4,0.3-0.7,0.5-1.1
				c0.1-0.3,0.1-0.6-0.2-0.7C74.8,77.6,74.4,77.6,74.3,77.9L74.3,77.9z"/>
		</g>
	</g>
	<g>
		<path class="st0" d="M98.4,67.4c0.3,4.7,0.1,9.4-0.8,14c-0.4,2-0.9,4-2.1,5.6c-1.7,2.2-4.6,3.3-7.4,3.7c-1.3,0.2-2.6,0.2-3.9-0.1
			c-3.2-0.7-5.7-3.2-8-5.6c-0.5-0.6-1.1-1.2-1.1-1.9c0-0.8,0.8-1.5,1.5-1.1c0.4,0.3,0.6,0.9,1,1c0.5,0.1,0.9-0.4,0.9-1
			s-0.3-1-0.4-1.5c-0.2-0.6-0.1-1.3,0.4-1.8c0.4-0.4,1.3-0.4,1.6,0.1c0.3,0.6,0,1.5,0.6,1.8c0.5,0.3,1-0.3,1.2-0.9
			c0.1-0.6,0-1.2,0.3-1.6c0.6-1,2.4-0.3,2.6,0.9c0.3,1.1-0.4,2.3-1,3.2c-0.6,1-1.3,2.1-1.1,3.2c0.2,1.2,1.4,2,2.5,2.3
			c1.2,0.3,2.4,0,3.6-0.2c1.5-0.3,3.1-0.6,4-1.9c0.5-0.8,0.7-1.7,0.8-2.7c0.5-4.7,0.4-9.5-0.4-14.2"/>
		<g>
			<path d="M97.8,67.4c0.3,4.3,0.1,8.7-0.6,13c-0.7,4.1-2.1,7.6-6.4,9c-4.1,1.4-8.1,0.8-11.4-2c-0.6-0.5-1.2-1.1-1.7-1.6
				c-0.4-0.4-1.7-1.4-1.8-2c-0.5-2.6,1-0.6,1.4-0.5c0.3,0.1,0.6,0.1,0.9,0c0.5-0.2,0.8-0.8,0.9-1.4c0.1-0.9-0.5-0.9,0.2-1.7
				c1-1.1,0.2-0.2,0.7,0.3c0.5,0.4,0.6,0.8,1.4,0.5c0.2-0.1,0.5-0.4,0.7-0.6c0.1-0.2,0.3-1.3,0.4-1.4c0.6,0.3,1.2,0.7,1.8,1
				c-0.2,0.4-0.3,0.8-0.5,1.2c-0.2,0.4-0.5,0.8-0.7,1.2c-0.2,0.4-0.5,0.9-0.7,1.4c-0.3,1-0.2,2.1,0.5,2.9c1.7,2.1,4.8,1.5,7,1
				C93,87,94,85.2,94.3,82c0.4-4.5,0.2-9-0.5-13.5c-0.1-0.7-1.1-0.4-1,0.3c0.4,2.4,0.6,4.9,0.7,7.4c0,2.5,0.3,5.6-0.5,8
				c-0.8,2.4-3.9,3-6.2,3c-2.4,0.1-4.1-1.8-2.8-4.2c0.5-0.9,1.1-1.7,1.4-2.6c0.4-1.6-0.9-4.3-2.9-3.2c-0.2,0.1-0.4,0.3-0.6,0.5
				c-0.2,0.3-0.2,1.2-0.3,1.3c-0.8,0.8-0.6-0.3-0.8-0.6c-0.4-0.4-0.5-0.6-1.1-0.7c-0.8-0.1-1.5,0.4-1.8,1.1c-0.2,0.5-0.2,1-0.1,1.5
				c0,0.2,0.2,0.4,0.2,0.6c0.3,0.4,0.2,0.6-0.2,0.6c-0.3,0.3-0.5,0.2-0.7-0.2c-0.6-0.1-0.9-0.4-1.6,0c-0.8,0.5-1,1.5-0.6,2.3
				c0.5,1.3,2,2.5,3,3.4c1.2,1.2,2.6,2.3,4.1,3c3.1,1.5,6.8,1.2,9.9,0c3.5-1.4,5.3-4.1,6.1-7.7c1.1-4.9,1.3-10.1,1-15.1
				C98.8,66.7,97.8,66.7,97.8,67.4L97.8,67.4z"/>
		</g>
	</g>
	<g>
		<path d="M31.9,57.8c-1.5-0.7-3.3-1.6-2.9-3.5c0.2-1.5,1.3-2.2,2.1-3.3c1.1-1.4,1.7-3.2,0.4-4.7c-0.5-0.6-1.1-0.9-1.7-1.3
			c-1.3-0.8-2.8-1.4-1.4-3.7c0.2-0.3,0.6-0.6,0.9-0.9c0.7-1,1-2.2,0-3.1c-0.5-0.5-1.3,0.3-0.8,0.8c1.2,1.1-1.2,2.5-1.7,3.4
			c-0.3,0.7-0.4,1.4-0.1,2.1c1,2.5,6,2.9,3.8,6.3c-1,1.6-3.1,2.8-2.9,5c0.2,2,2.1,3,3.7,3.8C32,59,32.5,58.1,31.9,57.8L31.9,57.8z"
			/>
	</g>
	<g>
		<path d="M26.7,48.8c-1.2,1.5-2.6,2.8-2.8,4.8c-0.2,1.8,0.5,3.6,1.7,4.9c0.5,0.5,1.2-0.3,0.8-0.8c-1.1-1.2-1.7-2.8-1.4-4.5
			c0.3-1.5,1.5-2.6,2.4-3.7C27.9,49,27.1,48.3,26.7,48.8L26.7,48.8z"/>
	</g>
	<g>
		<path d="M33.1,52c-1.3,2.3,0.6,4.3,2.4,5.6c0.6,0.4,1.1-0.5,0.5-0.9c-1.3-0.9-3-2.4-2-4.1C34.3,52,33.4,51.4,33.1,52L33.1,52z"/>
	</g>
	<g>
		<path d="M63.9,30c-0.5-1.5,0.1-3.4,1.8-3.8c1.8-0.5,3.5,1,3.1,2.9c-0.1,0.7,0.9,1,1,0.3c0.5-2.4-1.5-4.6-4-4.3
			c-2.5,0.4-3.7,2.9-3,5.2C63.1,31,64.1,30.7,63.9,30L63.9,30z"/>
	</g>
	<g>
		<path d="M102.9,103.1c5.6-0.8,11.3,1.6,14.5,6.2c1.4,2,2.3,4.3,4.1,6c1.5,1.5,3.5,2.3,5.5,2.9c8.1,2.5,21,4.6,23.9-6.1
			c-0.3,0.1-0.6,0.2-0.9,0.2c2.7,2.9,2.2,6.9,1.1,10.3c-0.6,2.1-1.2,4.2-3.1,5.4c-1.4,0.8-3,1.2-4.6,1.5c-7.1,1.1-15.2-0.7-20.6-5.5
			c-2.5-2.2-4.2-4.9-5.3-8c-0.9-2.4-1.6-5-3-7.2c-2.6-4-7.6-5.6-12-3.8c-0.6,0.3-0.4,1.3,0.3,1c3.4-1.4,7.5-0.6,10,2.2
			c2.4,2.7,3,6.4,4.4,9.6c2.5,5.9,7.8,10,13.9,11.8c3.4,1,7.1,1.4,10.7,1.1c2.8-0.2,6.2-0.7,8.2-2.8c2-2,2.9-6.1,3.2-8.9
			c0.3-2.8-0.3-5.5-2.2-7.6c-0.3-0.3-0.8-0.1-0.9,0.2c-1.6,5.8-6.8,7.7-12.3,7.3c-2.8-0.2-5.6-0.7-8.4-1.4c-2.7-0.7-5.4-1.5-7.4-3.6
			c-1.6-1.8-2.5-4.1-4-6c-1.1-1.4-2.4-2.6-3.9-3.6c-3.4-2.2-7.3-3-11.2-2.4C101.9,102.1,102.2,103.2,102.9,103.1L102.9,103.1z"/>
	</g>
	<g>
		<path class="st0" d="M105.1,72.3c0.7,0,0.7-1.1,0-1.1C104.4,71.3,104.4,72.3,105.1,72.3L105.1,72.3z"/>
	</g>
	<g>
		<path class="st0" d="M109.2,73c0.7,0,0.7-1.1,0-1.1C108.5,71.9,108.5,73,109.2,73L109.2,73z"/>
	</g>
	<g>
		<path class="st0" d="M113.2,73.9c0.7,0,0.7-1.1,0-1.1C112.5,72.9,112.5,73.9,113.2,73.9L113.2,73.9z"/>
	</g>
	<g>
		<path class="st0" d="M117.4,74.9c0.7,0,0.7-1.1,0-1.1C116.7,73.8,116.7,74.9,117.4,74.9L117.4,74.9z"/>
	</g>
	<g>
		<path class="st0" d="M106.5,75.1c0.7,0,0.7-1.1,0-1.1C105.8,74,105.8,75.1,106.5,75.1L106.5,75.1z"/>
	</g>
	<g>
		<path class="st0" d="M110.8,75.9c0.7,0,0.7-1.1,0-1.1C110.1,74.8,110.1,75.9,110.8,75.9L110.8,75.9z"/>
	</g>
	<g>
		<path class="st0" d="M114.9,76.7c0.7,0,0.7-1.1,0-1.1C114.2,75.6,114.2,76.7,114.9,76.7L114.9,76.7z"/>
	</g>
	<g>
		<path class="st0" d="M119.5,77.9c0.7,0,0.7-1.1,0-1.1C118.8,76.8,118.8,77.9,119.5,77.9L119.5,77.9z"/>
	</g>
	<g>
		<path class="st0" d="M107.7,78.7c0.7,0,0.7-1.1,0-1.1C107,77.6,107,78.7,107.7,78.7L107.7,78.7z"/>
	</g>
	<g>
		<path class="st0" d="M112.2,79.4c0.7,0,0.7-1.1,0-1.1C111.5,78.3,111.5,79.4,112.2,79.4L112.2,79.4z"/>
	</g>
	<g>
		<path class="st0" d="M116.5,80c0.7,0,0.7-1.1,0-1.1C115.8,79,115.8,80,116.5,80L116.5,80z"/>
	</g>
	<g>
		<path class="st0" d="M121,81.4c0.7,0,0.7-1.1,0-1.1C120.3,80.3,120.3,81.4,121,81.4L121,81.4z"/>
	</g>
	<g>
		<path class="st0" d="M105.1,81.1c0.7,0,0.7-1.1,0-1.1C104.4,80,104.4,81.1,105.1,81.1L105.1,81.1z"/>
	</g>
	<g>
		<path class="st0" d="M109.9,81.6c0.7,0,0.7-1.1,0-1.1C109.2,80.5,109.2,81.6,109.9,81.6L109.9,81.6z"/>
	</g>
	<g>
		<path class="st0" d="M114.2,83c0.7,0,0.7-1.1,0-1.1C113.5,81.9,113.5,83,114.2,83L114.2,83z"/>
	</g>
	<g>
		<path class="st0" d="M118.5,84c0.7,0,0.7-1.1,0-1.1C117.8,82.9,117.8,84,118.5,84L118.5,84z"/>
	</g>
	<g>
		<path class="st0" d="M72,119.7c0.7,0,0.7-1.1,0-1.1C71.3,118.6,71.3,119.7,72,119.7L72,119.7z"/>
	</g>
	<g>
		<path class="st0" d="M74.9,121.7c0.7,0,0.7-1.1,0-1.1C74.3,120.6,74.3,121.7,74.9,121.7L74.9,121.7z"/>
	</g>
	<g>
		<path class="st0" d="M77.2,118.8c0.7,0,0.7-1.1,0-1.1C76.5,117.7,76.5,118.8,77.2,118.8L77.2,118.8z"/>
	</g>
	<g>
		<path class="st0" d="M80.4,121.6c0.7,0,0.7-1.1,0-1.1C79.7,120.5,79.7,121.6,80.4,121.6L80.4,121.6z"/>
	</g>
	<g>
		<path class="st0" d="M82.6,118.4c0.7,0,0.7-1.1,0-1.1C82,117.3,82,118.4,82.6,118.4L82.6,118.4z"/>
	</g>
	<g>
		<path class="st0" d="M84.9,121.3c0.7,0,0.7-1.1,0-1.1C84.2,120.2,84.2,121.3,84.9,121.3L84.9,121.3z"/>
	</g>
	<g>
		<path class="st0" d="M87.2,118.5c0.7,0,0.7-1.1,0-1.1C86.5,117.4,86.5,118.5,87.2,118.5L87.2,118.5z"/>
	</g>
	<g>
		<path class="st0" d="M89.7,121.3c0.7,0,0.7-1.1,0-1.1C89,120.2,89,121.3,89.7,121.3L89.7,121.3z"/>
	</g>
	<g>
		<path class="st0" d="M91.9,118.4c0.7,0,0.7-1.1,0-1.1C91.2,117.3,91.2,118.4,91.9,118.4L91.9,118.4z"/>
	</g>
	<g>
		<path class="st0" d="M94.1,120.9c0,0,0.1,0,0.1,0c0.7,0,0.7-1.1,0-1.1c0,0-0.1,0-0.1,0C93.4,119.8,93.4,120.9,94.1,120.9
			L94.1,120.9z"/>
	</g>
	<g>
		<path class="st0" d="M96.2,118.9c0.7,0,0.7-1.1,0-1.1C95.5,117.8,95.5,118.9,96.2,118.9L96.2,118.9z"/>
	</g>
	<path class="st0" d="M79,33.5c-1.1,0.1-2.3,0.3-2.9,1.1c-0.5,0.6-0.6,1.4-0.7,2.2c-0.1,0.5-0.1,1.1,0,1.6c0.2,0.8,0.6,1.5,1.1,2.2
		c0.3,0.5,0.6,1,0.9,1.4c0.2,0.2,0.3,0.5,0.5,0.7c0.7,0.6,1.5,0.1,2.1-0.3c0.9-0.7,1.7-1.6,2.3-2.6c0.6-1,1-2.2,0.8-3.6
		c0-0.4-0.1-0.8-0.3-1.2c-0.4-0.6-1-1-1.6-1.1s-1.2-0.2-1.8-0.4"/>
	<g>
		<path d="M66.8,45.2c2,3.1,6,2.2,8.7,0.8c3.7-1.8,7.5-5.2,8.3-9.4c0.4-1.7,0-2.7-1.7-3.3c-1.6-0.5-3.7-0.8-5.3-0.1
			c-4.2,1.9-1.1,8.4,1.2,10.5c2.4,2.1,9.5,6.1,11.7,1.8c0.3-0.6-0.6-1.2-0.9-0.5c-1.9,3.7-9.2-1-10.9-3c-1.4-1.6-3.1-5.4-1.3-7.3
			c1.1-1.2,4.3-1,5.6-0.2c1.6,1.1-0.1,4.1-1,5.3c-1.1,1.6-2.6,3-4.3,4.1c-2.3,1.6-7.2,3.9-9.3,0.7C67.4,44.1,66.5,44.7,66.8,45.2
			L66.8,45.2z"/>
	</g>
</g>
</svg>
