<svg id="Слой_1" data-name="Слой 1" xmlns="http://www.w3.org/2000/svg" viewBox="0 0 445.14 201.64"><defs><style>.cls-1{fill:#604e42;}</style></defs><title>icon-veranda</title><path class="cls-1" d="M342.92,75.27H109.73V45.48H342.92ZM121.07,63.93H331.58V56.82H121.07Z" transform="translate(-4.43 -3.68)"/><path class="cls-1" d="M238.07,187.75H207.83V67.06h30.24Zm-18.9-11.34h7.56v-98h-7.56Z" transform="translate(-4.43 -3.68)"/><path class="cls-1" d="M279.47,205.32H172.28V176.43H279.47ZM183.62,194h84.51v-6.21H183.62Z" transform="translate(-4.43 -3.68)"/><path class="cls-1" d="M132.5,115.77H33.91L10.42,10.59A5.67,5.67,0,1,1,21.48,8.12L43,104.43H132.5a5.67,5.67,0,0,1,0,11.34Z" transform="translate(-4.43 -3.68)"/><path class="cls-1" d="M10.1,204.87a5.67,5.67,0,0,1-5.36-7.51l28.35-82.8a5.67,5.67,0,1,1,10.73,3.67L15.46,201A5.67,5.67,0,0,1,10.1,204.87Z" transform="translate(-4.43 -3.68)"/><path class="cls-1" d="M134.75,204.87a5.67,5.67,0,0,1-5.35-3.81l-28.8-82.8a5.67,5.67,0,0,1,10.71-3.72l28.8,82.8a5.67,5.67,0,0,1-5.35,7.53Z" transform="translate(-4.43 -3.68)"/><path class="cls-1" d="M110.45,148.62H31.7a5.67,5.67,0,0,1,0-11.34h78.75a5.67,5.67,0,1,1,0,11.34Z" transform="translate(-4.43 -3.68)"/><path class="cls-1" d="M420.09,115.77H321.5a5.67,5.67,0,0,1,0-11.34H411L432.52,8.12a5.67,5.67,0,0,1,11.07,2.47Z" transform="translate(-4.43 -3.68)"/><path class="cls-1" d="M443.9,204.87a5.67,5.67,0,0,1-5.36-3.83l-28.35-82.8a5.67,5.67,0,1,1,10.73-3.67l28.35,82.8a5.67,5.67,0,0,1-5.36,7.51Z" transform="translate(-4.43 -3.68)"/><path class="cls-1" d="M319.25,204.87a5.67,5.67,0,0,1-5.35-7.53l28.8-82.8a5.67,5.67,0,0,1,10.71,3.72l-28.8,82.8A5.67,5.67,0,0,1,319.25,204.87Z" transform="translate(-4.43 -3.68)"/><path class="cls-1" d="M423.65,148.62H344.9a5.67,5.67,0,0,1,0-11.34h78.75a5.67,5.67,0,0,1,0,11.34Z" transform="translate(-4.43 -3.68)"/></svg>