<?xml version="1.0" encoding="utf-8"?>
<!-- Generator: Adobe Illustrator 19.0.1, SVG Export Plug-In . SVG Version: 6.00 Build 0)  -->
<svg version="1.1" id="Режим_изоляции"
	 xmlns="http://www.w3.org/2000/svg" xmlns:xlink="http://www.w3.org/1999/xlink" x="0px" y="0px" viewBox="0 0 221 265.8"
	 style="enable-background:new 0 0 221 265.8;" xml:space="preserve">
<g>
	<g>
		<path d="M85.9,195c0.3-2,0.9-3.8,1.3-5.8c-0.4,0-0.7,0-1.1,0c0.4,1.6,0.8,3.3,0.9,5c0,0.3,0.2,0.5,0.6,0.6
			c3.1,0.2,6.1,0.4,9.2,0.6c-0.1-0.4-0.2-0.7-0.3-1.1c-2.3,1.3-4.6,2.6-6.9,3.9c-0.2,0.1-0.3,0.4-0.3,0.6c0.5,2.6,0.9,5.2,1.5,7.7
			c0.3-0.2,0.6-0.4,0.9-0.5c-1.9-2-3.6-4.2-5.1-6.4c-0.2-0.3-0.6-0.4-0.9-0.1c-1.6,1.8-3.4,3.4-5.4,4.8c0.3,0.2,0.6,0.4,0.8,0.6
			c1-2.4,2.1-4.9,3.1-7.3c0.1-0.3,0-0.7-0.3-0.8c-1.4-0.5-2.9-0.9-4.3-1.4c0,0.4,0,0.7,0,1.1c1.9-0.5,3.7-1.1,5.7-1.1
			c0.7,0,0.7-1.1,0-1.1c-2.1,0-4,0.7-6,1.2c-0.6,0.1-0.5,0.9,0,1.1c1.5,0.4,2.9,0.9,4.3,1.4c-0.1-0.3-0.2-0.6-0.3-0.8
			c-1.1,2.5-2.2,5-3.2,7.6c-0.2,0.5,0.4,0.9,0.8,0.6c2.1-1.5,3.9-3.1,5.6-5c-0.3,0-0.6-0.1-0.9-0.1c1.6,2.3,3.3,4.6,5.3,6.7
			c0.4,0.4,1.1,0,0.9-0.5c-0.6-2.6-1.1-5.2-1.5-7.7c-0.1,0.2-0.2,0.4-0.3,0.6c2.3-1.3,4.6-2.6,6.9-3.9c0.5-0.3,0.2-1-0.3-1.1
			c-3.1-0.2-6.1-0.4-9.2-0.6c0.2,0.2,0.4,0.4,0.6,0.6c-0.1-1.8-0.5-3.6-0.9-5.3c-0.1-0.5-1-0.6-1.1,0c-0.3,1.9-1,3.8-1.3,5.8
			C84.8,195.4,85.8,195.7,85.9,195L85.9,195z"/>
	</g>
	<g>
		<path d="M5.8,117c-1,0.2-1.7,1.3-1.3,2.3c0.4,1,1.5,1.5,2.5,1.1c1-0.3,1.8-1.4,1.6-2.4c-0.3-1.1-1.5-1.3-2.4-1.2
			c-0.7,0.1-0.7,1.2,0,1.1c0.4,0,0.9-0.1,1.2,0.2c0.4,0.4-0.1,0.9-0.5,1.1c-0.4,0.2-0.9,0.2-1.2-0.1c-0.4-0.4-0.1-0.9,0.4-1
			C6.8,118,6.5,116.9,5.8,117L5.8,117z"/>
	</g>
	<g>
		<path d="M26.3,194.7c0.3-4.2,2.5-8.2,7.2-8.1c2,0.1,3.9,0.3,5.4,1.7c1.3,1.2,2.2,2.8,3,4.3c0.3,0.6,1.3,0.1,1-0.6
			c-1-1.9-2.2-3.9-4-5.2c-1.9-1.3-4.4-1.6-6.6-1.4c-4.7,0.4-6.9,4.9-7.2,9.2C25.1,195.5,26.2,195.5,26.3,194.7L26.3,194.7z"/>
	</g>
	<g>
		<path d="M42.6,191.2c0.5-1.5,2-3,3.4-3.8c1.8-1.1,3.9-0.6,5.7,0.3c2.6,1.2,3.7,5.4,3.9,8c0,0.7,1.2,0.7,1.1,0
			c-0.1-2.2-0.9-4.4-1.9-6.3c-0.8-1.7-2-2.5-3.8-3.2c-1.9-0.7-3.8-0.9-5.6,0.2c-1.7,1-3.3,2.6-3.9,4.5
			C41.3,191.6,42.4,191.9,42.6,191.2L42.6,191.2z"/>
	</g>
	<g>
		<path d="M56,196.9c3.8-1.3,7.8,0.8,9.5,4.2c0.9,1.8,1.3,3.9,1.2,5.9c-0.1,2-0.4,5.6-2.7,6.2c-0.7,0.2-0.4,1.3,0.3,1.1
			c2.2-0.6,3-2.9,3.3-5c0.5-2.7,0.3-5.5-0.8-8.1c-1.9-4.2-6.6-7-11.1-5.4C55,196,55.3,197.1,56,196.9L56,196.9z"/>
	</g>
	<g>
		<path d="M65,213.7c2.5,4.3,1.9,10.2-1.7,13.8c-4.6,4.6-11.6,4.2-17.1,2c-0.7-0.3-1,0.8-0.3,1.1c6.1,2.3,13.9,2.5,18.6-2.7
			c3.6-4,4.2-10.2,1.5-14.8C65.6,212.5,64.6,213.1,65,213.7L65,213.7z"/>
	</g>
	<g>
		<path d="M45,228.8c0.1,4.1-2.9,7.2-6.7,8.1c-3.9,1-9-0.6-9.3-5.3c0-0.7-1.2-0.7-1.1,0c0.3,5,5.3,7.3,9.8,6.6
			c4.7-0.7,8.6-4.4,8.5-9.4C46.1,228.1,44.9,228,45,228.8L45,228.8z"/>
	</g>
	<g>
		<path d="M28.5,232.3c-1.7,2-5.6,1.2-7.7,0.2c-2.4-1.1-4.1-3.3-4.9-5.8c-0.2-0.7-1.3-0.4-1.1,0.3c0.9,3,2.9,5.5,5.9,6.7
			c2.5,1,6.6,1.7,8.6-0.6C29.7,232.6,28.9,231.8,28.5,232.3L28.5,232.3z"/>
	</g>
	<g>
		<path d="M16.9,224.6c-4.1,4.2-11.1-1.2-10.8-6.2c0.2-2.7,1.1-4.7,3.8-5.6c1.8-0.6,3.8-0.8,5.7-1.1c0.7-0.1,0.4-1.2-0.3-1.1
			c-2.7,0.4-6,0.6-8.2,2.3c-2.1,1.7-2.6,5.2-2,7.7c1.2,5,8.5,8.9,12.6,4.7C18.2,224.9,17.4,224.1,16.9,224.6L16.9,224.6z"/>
	</g>
	<g>
		<path d="M26,192.7c-4.4-1.9-10.5-1.7-13,3c-2.5,4.9-1.9,10.7,0.1,15.6c0.3,0.7,1.4,0.4,1.1-0.3c-1.6-3.9-2.4-8.4-1.1-12.5
			c0.7-2.4,2-4.7,4.6-5.4c2.5-0.7,5.4-0.4,7.7,0.6C26.1,194,26.6,193,26,192.7L26,192.7z"/>
	</g>
	<g>
		<path d="M24.3,200c-1-0.5-2.2,0-2.7,1c-0.5,1.1-0.4,2.6,0.3,3.6c0.4,0.6,1.4,0,1-0.6c-0.4-0.6-0.5-1.3-0.5-2
			c0.1-0.6,0.5-1.5,1.3-1.1C24.3,201.3,24.9,200.4,24.3,200L24.3,200z"/>
	</g>
	<g>
		<path d="M18.4,213.2c-1,2.8,0,6.4,2.9,7.6c0.7,0.3,1-0.8,0.3-1.1c-2.4-1-2.9-4.1-2.1-6.3C19.8,212.8,18.7,212.5,18.4,213.2
			L18.4,213.2z"/>
	</g>
	<g>
		<path d="M34.9,225c-0.3,1.1,0.1,2.3,1,3.1c1.2,1,2.6,0.6,3.9,0.1c0.7-0.3,0.4-1.3-0.3-1.1c-0.8,0.3-1.9,0.8-2.7,0.2
			c-0.7-0.4-1-1.3-0.8-2C36.2,224.6,35.1,224.3,34.9,225L34.9,225z"/>
	</g>
	<g>
		<path d="M61.7,211.6c0.9,1.7,1.1,3.5,0.6,5.4c-0.2,0.7,0.9,1,1.1,0.3c0.6-2.1,0.4-4.3-0.7-6.2C62.3,210.4,61.3,211,61.7,211.6
			L61.7,211.6z"/>
	</g>
	<g>
		<path d="M44.1,219.1c1.1,1.7,4,2.4,5.9,1.9c2.3-0.7,3.3-3,3.4-5.2c0-0.7-1.1-0.7-1.1,0c-0.1,1.7-0.8,3.6-2.6,4.1
			c-1.4,0.4-3.9-0.1-4.6-1.4C44.7,217.9,43.8,218.4,44.1,219.1L44.1,219.1z"/>
	</g>
	<g>
		<path d="M45,203.2c0.9-1.5,2.3-2.5,4.1-2.6c1.9,0,4.2,1.2,4.3,3.3c0,0.7,1.2,0.7,1.1,0c-0.1-2.5-2.4-4.2-4.7-4.4
			c-2.4-0.3-4.5,1-5.8,3.1C43.6,203.2,44.6,203.8,45,203.2L45,203.2z"/>
	</g>
	<g>
		<path d="M31,206.8c-2.5,0.1-4.9,1.2-5.2,3.9c-0.3,2.6,0.3,5.8,3.1,6.8c0.7,0.2,1-0.8,0.3-1.1c-2.2-0.8-2.5-3.5-2.2-5.5
			c0.3-2.1,2.1-2.9,4.1-3C31.7,207.9,31.7,206.8,31,206.8L31,206.8z"/>
	</g>
	<g>
		<path d="M24.1,196.5c1.6-0.9,3.4-1.1,5.1-0.5c0.7,0.2,1-0.9,0.3-1.1c-2-0.7-4.2-0.5-6,0.6C22.9,195.9,23.4,196.9,24.1,196.5
			L24.1,196.5z"/>
	</g>
	<g>
		<path d="M56.7,167.8c-7.7,3-12.2,10.7-11,18.8c0.1,0.7,1.2,0.4,1.1-0.3c-1-7.5,3.2-14.7,10.2-17.5
			C57.6,168.6,57.3,167.5,56.7,167.8L56.7,167.8z"/>
	</g>
	<g>
		<path d="M58.4,157c-12.8,4.4-21.9,15.8-23.3,29.3c-0.1,0.7,1.1,0.7,1.1,0c1.4-13,10.2-23.9,22.5-28.2
			C59.4,157.9,59.1,156.8,58.4,157L58.4,157z"/>
	</g>
	<g>
		<path d="M59.6,148.6c-5.3,0.1-10.2,2.4-14.7,4.9c-4.3,2.3-8.1,5.3-11,9.2c-6.2,8.4-10.7,19-10.6,29.5c0,0.7,1.1,0.7,1.1,0
			c-0.1-10,4.1-19.8,9.7-27.9c2.8-4.1,6.5-7.1,10.8-9.5c4.5-2.5,9.4-4.9,14.7-5C60.3,149.7,60.3,148.6,59.6,148.6L59.6,148.6z"/>
	</g>
	<g>
		<path d="M60.9,131.2c-0.4,4.7-1,9.4-1.6,14.1c-0.6,4.7-0.8,9.5-1.6,14.2c-1.4,9.1-2.7,18.9-7.9,26.7c-0.4,0.6,0.6,1.2,1,0.6
			c5.2-7.9,6.6-17.8,8-27c0.7-4.6,1-9.3,1.5-14c0.6-4.9,1.3-9.8,1.7-14.7C62.1,130.5,61,130.5,60.9,131.2L60.9,131.2z"/>
	</g>
	<g>
		<path d="M37.1,69.4c-10.9,8-21.9,16.7-29.8,27.8c-6.2,8.7-9.7,19.6-5.5,30c2.5,6.2,7.5,11.3,13.3,14.7c8,4.6,18.1,7.6,27.2,4.6
			c8.7-2.9,14.6-10.2,21.1-16.3c0.5-0.5-0.3-1.3-0.8-0.8c-5.4,5.1-10.3,11-17,14.5c-9.4,4.9-19.9,2.3-28.8-2.4
			c-5-2.7-9.5-6.7-12.4-11.7c-5.3-9.2-3.5-20,1.8-28.8C13.8,88.5,26,79,37.7,70.4C38.2,70,37.7,69,37.1,69.4L37.1,69.4z"/>
	</g>
	<g>
		<path d="M30.1,121.3c2.2-1.8,4.7-3.7,7.6-2.6c0.7,0.2,1-0.9,0.3-1.1c-3.4-1.1-6.2,0.9-8.7,2.9C28.7,121,29.6,121.8,30.1,121.3
			L30.1,121.3z"/>
	</g>
	<g>
		<path d="M33.7,118.5c1.1,4.9-0.6,10.1-2.2,14.7c-1.5,4.5-4,9-8.6,10.8c-0.7,0.3-0.4,1.4,0.3,1.1c4.6-1.8,7.3-5.9,8.9-10.3
			c1.9-5.1,3.8-11.1,2.6-16.6C34.6,117.5,33.5,117.8,33.7,118.5L33.7,118.5z"/>
	</g>
	<g>
		<path d="M50.1,83.3c3,3.4,7.9,4.3,12.3,3.8c5-0.6,7.4-3.9,9.3-8.2c0.3-0.7-0.7-1.2-1-0.6c-0.8,1.7-1.6,3.5-2.8,5
			c-1.6,1.8-3.8,2.5-6.1,2.7c-3.9,0.3-8.2-0.5-10.9-3.6C50.4,81.9,49.6,82.7,50.1,83.3L50.1,83.3z"/>
	</g>
	<g>
		<path d="M70.7,79.2c3.8,3.6,8.2,4.3,13.3,3.2c0.7-0.2,0.4-1.2-0.3-1.1c-4.6,1-8.7,0.4-12.2-2.9C71,77.9,70.2,78.7,70.7,79.2
			L70.7,79.2z"/>
	</g>
	<g>
		<path d="M69.1,83.1c3,2.2,5.9,3.8,9.7,3.1c0.7-0.1,0.4-1.2-0.3-1.1c-3.5,0.6-6.2-1-8.8-3C69.1,81.7,68.5,82.7,69.1,83.1L69.1,83.1
			z"/>
	</g>
	<g>
		<path d="M66.4,85.4c1.7,1.7,3.7,3,6,3.7c0.7,0.2,1-0.9,0.3-1.1c-2.1-0.6-4-1.8-5.5-3.4C66.7,84.1,65.9,84.9,66.4,85.4L66.4,85.4z"
			/>
	</g>
	<g>
		<path d="M64.3,97.6c-0.9-0.1-2.1,0-2.5,1.1c-0.3,1,0.4,2,1.3,2.4c0.9,0.4,2.1,0.4,2.5-0.7c0.3-0.9-0.1-2-0.9-2.5
			c-0.6-0.4-1.2,0.6-0.6,1c0.3,0.2,0.5,0.7,0.4,1.1c-0.1,0.5-0.8,0.2-1.1,0.1c-0.3-0.2-0.8-0.7-0.4-1.1c0.3-0.3,0.9-0.2,1.3-0.2
			C65.1,98.9,65.1,97.7,64.3,97.6L64.3,97.6z"/>
	</g>
	<g>
		<path d="M96.3,82.6c-0.8,0.1-1.9-0.2-2.4,0.7c-0.5,0.8,0,2,0.7,2.6c1.7,1.5,3.7-1.5,2.3-2.9c-0.5-0.5-1.3,0.3-0.8,0.8
			c0.3,0.3,0.1,0.9-0.1,1.2c-0.3,0.4-0.7,0.2-0.9-0.2c-0.2-0.3-0.5-0.8-0.1-1c0.4-0.1,0.9,0,1.3-0.1C97,83.6,97,82.5,96.3,82.6
			L96.3,82.6z"/>
	</g>
	<g>
		<path d="M53.9,100.2c-0.3-2.1-0.8-4.2-1.3-6.2c-0.1-0.6-0.9-0.5-1.1,0c-0.6,1.8-1.1,3.6-1.7,5.4c-0.4,1.4-1.1,1.6-2.5,1.9
			c-0.9,0.2-1.9,0.2-2.9,0.4c-0.6,0.1-0.8,0.9-0.2,1.1c1.5,0.6,2.9,1.2,4.4,1.8c-0.1-0.3-0.2-0.6-0.3-0.8c-1.1,1.8-1.9,3.7-2.5,5.7
			c-0.1,0.5,0.4,0.9,0.8,0.6c2.3-1.3,4.1-3.2,5.2-5.6c-0.3,0-0.6,0.1-0.9,0.1c1.5,1.2,3,2.4,4.5,3.6c0.3,0.3,1,0.1,1-0.4
			c-0.1-2.2-0.9-4-2.3-5.7c-0.1,0.3-0.2,0.6-0.2,0.9c1.4-0.3,2.8-0.8,4.1-1.4c0.5-0.2,0.3-0.9-0.1-1c-1.5-0.4-3-0.6-4.5-0.6
			c-0.7,0-0.7,1.1,0,1.1c1.4,0,2.8,0.2,4.2,0.6c0-0.3-0.1-0.7-0.1-1c-1.3,0.5-2.5,1-3.8,1.3c-0.4,0.1-0.5,0.6-0.2,0.9
			c1.2,1.4,1.8,3,1.9,4.9c0.3-0.1,0.6-0.3,1-0.4c-1.5-1.2-3-2.4-4.5-3.6c-0.3-0.2-0.7-0.2-0.9,0.1c-1.1,2.2-2.6,4-4.8,5.2
			c0.3,0.2,0.6,0.4,0.8,0.6c0.6-1.9,1.4-3.7,2.4-5.4c0.2-0.3,0-0.7-0.3-0.8c-1.5-0.6-2.9-1.2-4.4-1.8c-0.1,0.4-0.1,0.7-0.2,1.1
			c1.4-0.2,2.9-0.3,4.4-0.5c0.5-0.1,1-0.2,1.4-0.6c0.7-0.7,0.8-2.1,1.1-3c0.4-1.4,0.9-2.9,1.3-4.3c-0.4,0-0.7,0-1.1,0
			c0.6,2.1,1,4.1,1.3,6.2C52.9,101.2,54,100.9,53.9,100.2L53.9,100.2z"/>
	</g>
	<g>
		<path d="M58.3,111.6c0.5-1,1.1-1.9,1.8-2.7c-0.4-0.1-0.7-0.2-1.1-0.3c0.1,0.9,0.1,1.8,0,2.7c-0.1,0.4,0.1,0.7,0.5,0.7
			c1.1,0,2.2,0.1,3.3,0.1c-0.1-0.3-0.3-0.6-0.4-1c-0.8,0.6-1.5,0.9-2.4,1.3c-0.3,0.1-0.6,0.2-0.8,0.5c-0.5,0.9,0.5,2.7,0.7,3.6
			c0.3-0.2,0.6-0.4,0.8-0.6c-1-0.6-1.9-1.4-2.6-2.3c-0.2-0.3-0.6-0.4-0.9-0.1c-0.8,0.9-1.6,1.6-2.8,2c0.2,0.2,0.5,0.5,0.7,0.7
			c0.3-1.1,0.8-2.1,1.6-3c0.2-0.3,0.2-0.7-0.1-0.9c-0.7-0.4-1.6-1-2-1.7c0,0.2-0.1,0.5-0.1,0.7c0.2-0.2,2.4,0.7,2.7,0.8
			c0.7,0.2,1-0.9,0.3-1.1c-1-0.3-2.9-1.5-3.8-0.5c-0.2,0.2-0.2,0.5-0.1,0.7c0.5,0.9,1.6,1.5,2.4,2.1c0-0.3-0.1-0.6-0.1-0.9
			c-0.9,1-1.5,2.1-1.9,3.5c-0.1,0.4,0.3,0.8,0.7,0.7c1.3-0.5,2.4-1.2,3.3-2.2c-0.3,0-0.6-0.1-0.9-0.1c0.8,1.1,1.8,2,3,2.7
			c0.4,0.2,1-0.2,0.8-0.6c-0.2-0.6-0.5-1.3-0.6-1.9c-0.1-0.8-0.2-0.7,0.4-1.1c0.8-0.4,1.5-0.8,2.2-1.4c0.4-0.3,0.1-0.9-0.4-1
			c-1.1,0-2.2-0.1-3.3-0.1c0.2,0.2,0.4,0.5,0.5,0.7c0.1-1,0.2-2,0-3c-0.1-0.6-0.7-0.7-1.1-0.3c-0.7,0.9-1.3,1.8-1.8,2.7
			C57,111.6,57.9,112.2,58.3,111.6L58.3,111.6z"/>
	</g>
	<g>
		<path d="M124.6,45.5c0.8-0.2,1.1,0.7,0.6,1.3c-0.2,0.3-0.6,0.2-0.7-0.1c-0.2-0.4,0.1-0.9,0.4-1.2c0.4-0.6-0.6-1.2-1-0.6
			c-0.5,0.7-0.8,1.8-0.2,2.6c0.5,0.7,1.5,0.9,2.2,0.2c0.6-0.6,0.8-1.6,0.5-2.3c-0.4-0.8-1.3-1.2-2.1-0.9
			C123.6,44.7,123.9,45.7,124.6,45.5L124.6,45.5z"/>
	</g>
	<g>
		<path d="M1.6,1.1c4,1.3,7.9,2.9,11.7,4.8c1.7,0.9,3.5,1.8,5.2,2.8c2.2,1.3,3.4,4.1,2.6,6.7c-0.6,1.9-2.7,1.6-4.1,0.7
			c-0.9-0.6-1.7-1.4-2.4-2.1c-1.4-1.3-2.7-2.7-4.1-4c-3-3-5.8-6.1-8.1-9.6c-0.4-0.6-1.4,0-1,0.6c3.1,4.5,6.8,8.4,10.7,12.2
			c1.9,1.9,6.9,7.7,9.6,3.8c1.1-1.6,0.8-4.1,0.2-5.8c-0.7-2.3-2.7-3.2-4.7-4.3C12.3,4,7.1,1.8,1.9,0.1C1.2-0.2,0.9,0.9,1.6,1.1
			L1.6,1.1z"/>
	</g>
	<g>
		<path d="M20.5,9.5c3.2-0.3,5.3,3.5,6.9,5.8c1.6,2.3,2.1,4.6,1.9,7.4c-0.1,1.6-0.7,3.4-2.4,4c-1.5,0.5-3.1,0.1-4.2-0.9
			c-2.3-2-2.7-5.2-2.9-8.1c0-0.7-1.2-0.7-1.1,0c0.2,3.5,0.9,7.7,4.2,9.6c2.4,1.4,5.7,0.8,6.9-1.8c1.5-3.1,0.8-7.5-1.1-10.3
			c-1.8-2.7-4.4-7.2-8.2-6.8C19.8,8.5,19.8,9.6,20.5,9.5L20.5,9.5z"/>
	</g>
	<g>
		<path d="M26.9,12.9c8.1-1.3,10.7,9,10.8,15c0,3.2-0.9,10.1-5.7,8.7c-3.5-1-7.1-4.9-6.5-8.7c0.1-0.7-1-1-1.1-0.3
			c-0.8,4.3,2.7,8.2,6.5,9.8c4.5,1.9,6.9-2.3,7.5-6.1c1.3-7.4-1.8-21.1-11.9-19.5C25.9,12,26.2,13.1,26.9,12.9L26.9,12.9z"/>
	</g>
	<g>
		<path d="M37.6,21.2c3.7-0.8,8.3,3,9.5,6.4c1.2,3.6,1.5,7.3,1.3,11c-0.1,1.8,0,3.9-1.1,5.4c-1.4,2.2-4.1,2.3-6.3,1.3
			c-2.5-1.1-7.3-4.6-6.2-7.9c0.2-0.7-0.9-1-1.1-0.3c-1.3,3.9,3.8,7.8,6.7,9.2c3.8,1.8,7.9,0.1,8.7-4.2c0.9-5,0.7-11.3-1.4-15.9
			c-0.8-1.8-2.6-3.2-4.1-4.4c-1.9-1.4-4-2.3-6.4-1.7C36.6,20.3,36.9,21.4,37.6,21.2L37.6,21.2z"/>
	</g>
	<g>
		<path d="M48.7,29.9c3.5-0.5,6.9,1.7,7.7,5.2c0.9,3.9,0.7,8.4,0.6,12.4c0,0.7,1.1,0.7,1.1,0c0.1-2.7,0-5.5-0.2-8.2
			c-0.1-2.1-0.2-4.3-1.1-6.2c-1.5-3-4.9-4.7-8.2-4.3C48,28.8,48,30,48.7,29.9L48.7,29.9z"/>
	</g>
	<g>
		<path d="M43.3,47.1c-0.3,2.2,0.4,4.6,1.6,6.5c1.1,1.8,3.2,2.6,5.1,3.2c0.7,0.2,1-0.9,0.3-1.1c-1.6-0.5-3.3-1.1-4.3-2.5
			c-1.1-1.5-1.9-3.9-1.6-5.8C44.5,46.7,43.4,46.4,43.3,47.1L43.3,47.1z"/>
	</g>
	<g>
		<path d="M57.1,36c3-0.1,9.7,0.8,10,4.7c0.1,0.7,1.2,0.7,1.1,0c-0.5-4.7-7.4-6-11.2-5.8C56.4,34.9,56.4,36,57.1,36L57.1,36z"/>
	</g>
	<g>
		<path d="M64,36.6c4.5-2.5,9.1-5.1,14.4-5.3c4.3-0.2,10.8,0.5,13.4,4.4c0.4,0.6,1.4,0,1-0.6c-2.7-4-8.5-4.9-13-5
			c-6-0.2-11.2,2.6-16.3,5.5C62.8,36,63.3,37,64,36.6L64,36.6z"/>
	</g>
	<g>
		<path d="M23.6,48.4c1,1.3,2,2.7,3.5,3.6c1.7,1,3.7,1,5.5,1.1c3.9,0.2,8,0,11.4-2.1c0.6-0.4,0-1.4-0.6-1c-2.9,1.8-6.3,2.1-9.6,2
			c-1.6,0-3.4,0-5-0.4c-1.9-0.6-3.1-2.1-4.3-3.7C24.1,47.2,23.1,47.8,23.6,48.4L23.6,48.4z"/>
	</g>
	<g>
		<path d="M92.2,46.6c-6.1-0.9-9.2,3.5-12.3,8c-4,5.8-9.9,10.5-16.1,13.8c-7.5,3.9-18,5.5-25.8,1.3c-3.9-2.1-6.7-5.7-9.2-9.3
			c-2.5-3.7-4.4-7.8-4.2-12.4c-0.4,0.1-0.7,0.1-1.1,0.2c1.1,3.8,4.4,6.1,7.6,8c4.7,2.8,10,4.6,15.5,3.7c5.6-0.9,10.5-4.3,14.8-7.8
			c1.6-1.4,3.2-2.9,5-4.1c2.2-1.5,4.6-2.6,7-3.5c2.7-1,5.5-2,8.4-1.5c3.7,0.6,7.2,1.8,9.8,4.6c0.5,0.5,1.3-0.3,0.8-0.8
			c-3.3-3.4-8.8-5.6-13.6-5c-4.5,0.6-9.3,2.7-13,5.2c-3.9,2.6-7,6.1-11.1,8.6c-5.9,3.5-12.3,4.5-18.8,1.9
			c-4.3-1.7-10.1-4.7-11.4-9.5c-0.2-0.6-1.1-0.5-1.1,0.2c-0.3,7.3,4.3,13.8,9.1,18.9c4,4.2,9.1,5.9,14.8,6.2
			c10.1,0.6,19.1-4,26.6-10.5c3.1-2.7,5.6-5.6,7.9-9c2.5-3.6,5.2-6.7,10-6C92.6,47.8,92.9,46.7,92.2,46.6z"/>
	</g>
	<g>
		<path d="M87.8,43.2c-6.5-6.4-16.9-5.3-24.3-1.2c-4,2.2-7.2,5.7-10,9.3c-2.1,2.7-4.7,6.9-8.4,7.4c-0.7,0.1-0.7,1.2,0,1.1
			c3-0.4,5.4-2.9,7.2-5.1c2.6-3.2,5-6.6,8.2-9.2c7-5.9,19.3-8.6,26.6-1.5C87.5,44.6,88.3,43.8,87.8,43.2L87.8,43.2z"/>
	</g>
	<g>
		<path d="M83.1,40.7c4.7-2.8,9.5-5.5,14.8-6.9c3.2-0.9,6.5-1.1,9.8-1c4.5,0.1,9.2,1.4,13.2,3.5c4.6,2.4,8.3,7.2,11.2,11.4
			c5.5,8.1,7.4,17.4,10,26.6c2.9,10.3,8.1,20.5,16.5,27.3c4.6,3.7,9.5,6.3,15.4,7.1c4.6,0.6,10.1,0,13.4-3.6
			c-0.3-0.2-0.6-0.5-0.9-0.7c-3.8,6.1-9.6,11.2-16.5,13.5c-7.6,2.5-15.2,3.1-22.6-0.5c-2.6-1.3-4.9-2.9-7.1-4.7
			c-2-1.7-4.3-3.5-5.8-5.7c-2.4-3.6-3.4-8-4.5-12.1c-2.7-10.2-5.3-20.3-11.5-29c-6.5-9.1-15.7-15.9-26.5-19.2
			c-0.7-0.2-1,0.9-0.3,1.1c10.6,3.3,19.7,10,26.1,19.2c6.5,9.3,8.7,20.1,11.7,30.8c1,3.7,2.2,7.8,4.6,10.8c3.3,4.1,8.1,7.7,12.9,10
			c7.1,3.4,14.7,3.2,22.1,0.9c7.7-2.4,14-7.6,18.3-14.4c0.3-0.5-0.5-1.2-0.9-0.7c-3.5,3.8-9.6,3.9-14.3,3c-5.7-1.2-10.4-4.2-14.7-8
			c-8.2-7.3-12.7-18.1-15.3-28.5c-2.3-9.3-5.2-18.5-11.1-26.2c-2.7-3.6-6.1-7.5-10.2-9.5c-3.8-1.8-8.1-3.3-12.3-3.4
			c-3.5-0.1-7.1,0-10.5,0.9c-5.6,1.4-10.8,4.2-15.7,7.2C81.9,40.1,82.5,41.1,83.1,40.7L83.1,40.7z"/>
	</g>
	<g>
		<path d="M79.1,56.7c6.5,3.5,13.2,6.7,19.5,10.6c5.8,3.6,10.1,9.5,14.4,14.7c4.2,5.1,8.3,10.4,11.7,16.1c3.5,5.9,5.8,12.2,7.3,18.9
			c2.6,12.1,4.2,24.7,2.2,37c-1.8,11.1-6.7,21.2-13,30.4c-3.1,4.6-6.6,8.9-10.3,13c-1.7,1.9-3.5,3.9-5.8,5.1c-3.7,1.9-7.6,1-11-1.1
			c-0.5-0.3-1.1,0.3-0.8,0.8c3,4.4,7.4,8,13.1,7c4.1-0.8,7.2-3.5,10.2-6.2c4.5-4.1,9.1-8,13-12.7c4.5-5.4,8.1-11.6,11.4-17.8
			c4.1-7.6,7.3-15.6,9.2-24c0.2-0.7-0.9-1-1.1-0.3c-3.1,13.3-9.4,25.7-17.1,37c-3.6,5.3-8.1,9.8-12.8,14.1c-2.9,2.6-5.7,5.6-9.2,7.4
			c-2.2,1.2-4.8,1.9-7.4,1.5c-3.7-0.7-6.4-3.5-8.4-6.5c-0.3,0.3-0.5,0.5-0.8,0.8c5.1,3.1,10.6,3.1,15.2-0.9c3.3-2.9,6.2-6.6,8.9-10
			c7.2-9.2,13.5-19.7,16.5-31.1c3-11.6,2.5-23.8,0.6-35.6c-1.2-7.1-2.6-14.1-5.6-20.7c-2.8-6.3-6.7-12-10.9-17.4
			c-2.4-3-4.8-6-7.3-8.9c-2.7-3.1-5.2-6.4-8.4-9c-3.2-2.5-6.9-4.3-10.4-6.2c-4.1-2.2-8.1-4.4-12.2-6.6C79,55.3,78.5,56.3,79.1,56.7
			L79.1,56.7z"/>
	</g>
	<g>
		<path d="M163.8,156.5c-4.8,13-11.5,25.4-21.3,35.3c-4.6,4.7-9.9,8.7-15.7,11.8c-3,1.6-6,2.9-9.2,4c-3.5,1.1-7.2,2-10.8,0.6
			c-0.7-0.3-1,0.8-0.3,1.1c4.9,2.1,10.5-0.1,15.1-1.9c5-2,9.7-4.8,14.1-8c8.8-6.6,15.8-15.2,21.2-24.7c3.2-5.6,5.8-11.6,8.1-17.7
			C165.1,156.1,164,155.8,163.8,156.5L163.8,156.5z"/>
	</g>
	<g>
		<path d="M182.6,155.8c-2.2,10.6-6.8,21.5-14.2,29.5c-3.8,4.1-8.3,8-12.9,11.2c-3.9,2.7-8.4,4.6-12.8,6.4
			c-6.2,2.6-12.8,3.7-19.5,2.7c-0.7-0.1-1,1-0.3,1.1c5.9,0.9,11.8,0.3,17.5-1.7c4.4-1.5,9.1-3.5,13.2-5.9c5-2.9,9.6-7,13.7-11
			c3.9-3.8,7.1-8.1,9.6-12.9c3.1-5.9,5.4-12.5,6.8-19C183.9,155.3,182.8,155,182.6,155.8L182.6,155.8z"/>
	</g>
	<g>
		<path d="M175.9,115.6c2,4.8,3.9,9.6,5.2,14.7c1.4,5.9,2.2,12.2,2.3,18.3c0,0.7,1.1,0.7,1.1,0c-0.1-6-0.8-12.1-2.2-18
			c-1.2-5.3-3.2-10.3-5.3-15.3C176.7,114.6,175.6,114.9,175.9,115.6L175.9,115.6z"/>
	</g>
	<g>
		<path d="M138.2,59.3c7.7,5.8,13.8,13,19.1,21c5.8,8.7,10.9,17.7,15.1,27.2c0.3,0.7,1.3,0.1,1-0.6c-4.4-9.9-9.7-19.2-15.7-28.2
			c-5.3-7.8-11.3-14.8-18.9-20.5C138.2,57.9,137.6,58.8,138.2,59.3L138.2,59.3z"/>
	</g>
	<g>
		<path d="M154.2,120.5c-0.3,9,6.3,16.4,13.2,21.3c7.7,5.5,16.8,8.8,26.2,9.4c-0.1-0.3-0.3-0.6-0.4-1c-4.1,3.7-9.4,5.5-14.8,6
			c-5.6,0.6-11.6,0.2-16.9-1.5c-10.7-3.4-17.9-13.2-21.1-23.5c-2.1-6.5-2.7-13.4-2.8-20.2c0-0.7-1.1-0.7-1.1,0
			c0.1,12.2,2.4,24.8,10.2,34.5c3.4,4.2,7.8,7.7,12.9,9.7c5.6,2.2,12,2.6,18,2.2c6-0.5,12-2.3,16.5-6.5c0.4-0.4,0.1-0.9-0.4-1
			c-8.8-0.6-17.4-3.5-24.7-8.5c-7-4.8-14-12.1-13.6-21.1C155.4,119.8,154.3,119.8,154.2,120.5L154.2,120.5z"/>
	</g>
	<g>
		<path d="M99.2,67.5c1.7,1.9,2.7,4.3,3.8,6.5c1.3,2.9,2.1,5.7,2.4,8.9c0.6,5.4,1.6,12.4-2.4,16.7c-0.3,0.4,0,1.2,0.5,0.9
			c6.7-2.8,11.6-9,12.6-16.2c0.1-0.7-1-1-1.1-0.3c-0.9,6.8-5.4,12.8-11.8,15.4c0.2,0.3,0.4,0.6,0.5,0.9c4.3-4.6,3.4-11.8,2.8-17.5
			c-0.3-3-0.9-5.9-2.2-8.6c-1.2-2.6-2.4-5.4-4.3-7.6C99.5,66.2,98.7,67,99.2,67.5L99.2,67.5z"/>
	</g>
	<g>
		<path d="M128,42.1c8.8,4.9,18.4,8.3,28.3,10.3c4.2,0.9,8.5,1.6,12.8,0.8c3.9-0.7,7.4-2.7,10.6-4.9c-0.3-0.3-0.5-0.5-0.8-0.8
			c-3.6,5.7-8.8,10.9-14.5,14.5c-4.9,3.1-10.5,4.5-16.2,5.3c-0.7,0.1-0.4,1.2,0.3,1.1c6-0.9,11.8-2.4,16.9-5.7
			c5.7-3.8,10.8-8.9,14.5-14.7c0.3-0.5-0.3-1.1-0.8-0.8c-3.1,2.2-6.3,4.1-10.1,4.8c-4.6,0.9-9.3-0.1-13.8-1
			c-9.3-2-18.4-5.3-26.8-9.9C127.9,40.8,127.3,41.7,128,42.1L128,42.1z"/>
	</g>
	<g>
		<path d="M174.7,177.1c-2.4,14-7.4,27.3-10.9,41c-1.7,6.7-3.1,13.5-3.7,20.4c-0.5,6-0.4,12.5,3.1,17.7c3.6,5.4,9.8,8.1,15.8,9.7
			c0.1-0.4,0.1-0.7,0.2-1.1c-13.9-1.2-28.6-6.6-35.8-19.3c-3.7-6.5-4.2-14.1-4.7-21.4c-0.4-6.9-0.4-14.1,1.5-20.8
			c0.2-0.7-0.9-1-1.1-0.3c-1.6,5.5-1.9,11.3-1.7,16.9c0.1,6,0.5,12.3,1.9,18.2c2.5,10.6,10.7,18.8,20.5,23.2
			c6.1,2.7,12.7,4.1,19.4,4.7c0.6,0.1,0.8-1,0.2-1.1c-5.7-1.5-11.5-4-15-8.9c-3.7-5.3-3.6-12.2-3-18.3c1.2-13.1,5.4-25.7,9.1-38.3
			c2.1-7.2,4.1-14.4,5.3-21.7C175.9,176.7,174.8,176.4,174.7,177.1L174.7,177.1z"/>
	</g>
	<g>
		<path d="M127.1,206c-4.4,5.2-7.2,12.3-8.1,19c-0.6,4.2-0.8,8.4-0.3,12.6c0.4,3.9,1.6,7.3,3.3,10.9c0.3,0.5,1,0.2,1.1-0.3
			c0.7-10.5,6.3-20.8,15.2-26.5c0.6-0.4,0-1.4-0.6-1c-9.2,5.9-15.1,16.7-15.8,27.5c0.4-0.1,0.7-0.2,1.1-0.3
			c-1.8-3.6-2.8-6.9-3.2-10.9c-0.4-3.7-0.2-7.5,0.3-11.2c0.8-6.6,3.4-13.7,7.8-18.9C128.4,206.2,127.6,205.4,127.1,206L127.1,206z"
			/>
	</g>
	<g>
		<path d="M126.3,233.7c0.9,4,0.3,7.9,3.9,10.6c3.5,2.5,7.9,2.2,11.9,1.4c-0.2-0.3-0.4-0.6-0.6-0.8c-1.6,2.8-1.2,6.3,0.9,8.8
			c2.3,2.7,6.1,3.5,9.5,3c0.7-0.1,0.4-1.2-0.3-1.1c-2.9,0.4-5.9-0.2-8-2.4c-2-2.1-2.5-5.3-1-7.8c0.3-0.5-0.2-0.9-0.6-0.8
			c-3.9,0.8-8.3,1.1-11.5-1.7c-2.8-2.5-2.2-6.2-2.9-9.6C127.3,232.7,126.2,233,126.3,233.7L126.3,233.7z"/>
	</g>
	<g>
		<path d="M162.9,253.9c5.9,1,13.9,1.8,17.1-4.7c-0.3,0-0.7,0-1,0c3.1,4.9,9.5,5.3,14.5,3.5c5-1.8,8.8-6,9-11.4
			c-0.3,0.2-0.6,0.3-0.8,0.5c3.2,1.8,6.9,1.8,10.5,1.5c2.9-0.3,6.1-0.9,7.7-3.7c1.4-2.5,1.6-6.8,0.3-9.4c-1.4-2.9-4.7-3.4-7.7-3.6
			c-0.7,0-0.7,1.1,0,1.1c2.9,0.2,6.1,0.7,7,3.9c0.8,2.7,0.5,6.8-1.7,8.7c-1.9,1.6-4.7,1.8-7.1,1.9c-2.9,0.2-5.8,0-8.4-1.5
			c-0.4-0.2-0.8,0.1-0.8,0.5c-0.2,4.9-3.7,8.7-8.2,10.3c-4.5,1.6-10.5,1.5-13.3-3c-0.2-0.3-0.8-0.4-1,0c-2.9,6-10.4,5.1-15.8,4.2
			C162.5,252.6,162.2,253.7,162.9,253.9L162.9,253.9z"/>
	</g>
	<g>
		<path d="M170.3,200.6c4.5-4,12.4-1.8,12.3,4.9c0,0.5,0.6,0.8,1,0.4c4-5.1,11.2-4.6,16.7-2.8c3.5,1.1,4.6,3.6,4.4,7.2
			c-0.2,2.8-0.5,5.9-2.5,8c-0.5,0.5,0.3,1.3,0.8,0.8c2.3-2.3,2.7-5.7,2.9-8.8c0.2-3-0.5-6.1-3.4-7.5c-3.2-1.6-7.6-2.3-11.1-1.9
			c-3.3,0.3-6.4,1.7-8.5,4.3c0.3,0.1,0.6,0.3,1,0.4c0-3.2-1.8-6.1-4.7-7.4c-3.2-1.5-6.9-0.5-9.5,1.8
			C169,200.3,169.8,201.1,170.3,200.6L170.3,200.6z"/>
	</g>
	<g>
		<path d="M205.2,214.6c2.9-1.9,8.1-0.3,10.3,2c2.9,3,2.2,7.4,0.6,10.7c-0.3,0.7,0.7,1.2,1,0.6c1.8-3.8,2.5-8.8-0.7-12.1
			c-2.6-2.7-8.3-4.4-11.7-2.2C204,214,204.6,215,205.2,214.6L205.2,214.6z"/>
	</g>
	<g>
		<path d="M180.8,207c2.3-0.1,4.7-0.3,6.7,1.2c0.6,0.4,1.1-0.5,0.6-1c-2.1-1.6-4.8-1.5-7.3-1.4C180.1,205.9,180.1,207.1,180.8,207
			L180.8,207z"/>
	</g>
	<g>
		<path d="M177.7,225.6c0.4,3.3,3.3,5.2,6.5,5.6c2.9,0.3,7.7,0.3,9.7-2.2c0.5-0.6-0.3-1.4-0.8-0.8c-1.6,2-5.1,1.9-7.4,1.9
			c-2.9,0-6.4-1.2-6.8-4.6C178.8,224.9,177.6,224.9,177.7,225.6L177.7,225.6z"/>
	</g>
	<g>
		<path d="M175.7,215.1c-5.3,0.4-7.7,6.2-4.5,10.3c0.5,0.6,1.2-0.2,0.8-0.8c-2.7-3.3-0.6-8,3.7-8.4
			C176.4,216.2,176.4,215,175.7,215.1L175.7,215.1z"/>
	</g>
	<g>
		<path d="M168.6,239.6c0.5,4.4,7.1,5.2,10.4,3.9c0.7-0.3,0.4-1.4-0.3-1.1c-1.5,0.6-3.1,0.8-4.8,0.5c-1.6-0.3-4-1.4-4.2-3.2
			C169.7,238.9,168.6,238.9,168.6,239.6L168.6,239.6z"/>
	</g>
	<g>
		<path d="M172,191.4c2,1.6,4.1,3.5,4,6.3c0,0.7,1.1,0.7,1.1,0c0.1-3.1-2.1-5.3-4.4-7.1C172.2,190.1,171.4,190.9,172,191.4
			L172,191.4z"/>
	</g>
	<g>
		<path d="M175.9,176.5c2.1,1.1,4.2,2.3,5.8,4c1.9,1.9,2.8,4.3,3.4,6.9c1.2,5.2,1,10.6-0.5,15.7c-0.2,0.7,0.9,1,1.1,0.3
			c1.6-5.5,1.8-11.4,0.3-16.9c-0.6-2.4-1.6-4.7-3.3-6.5c-1.8-1.9-4-3.1-6.3-4.4C175.8,175.2,175.2,176.1,175.9,176.5L175.9,176.5z"
			/>
	</g>
	<g>
		<path d="M180.8,165.2c5.7,3.4,10.3,8.3,13.3,14.2c3.5,6.9,4.1,14.7,3.6,22.3c0,0.7,1.1,0.7,1.1,0c0.4-7.8-0.2-15.7-3.8-22.8
			c-3-6.1-7.8-11.1-13.7-14.6C180.8,163.9,180.2,164.8,180.8,165.2L180.8,165.2z"/>
	</g>
</g>
</svg>
