<svg version="1.1" id="Режим_изоляции"
	 xmlns="http://www.w3.org/2000/svg" xmlns:xlink="http://www.w3.org/1999/xlink" x="0px" y="0px" viewBox="0 0 960 720"
	 enable-background="new 0 0 960 720" xml:space="preserve">
<path d="M526.2,205.2c-1.1-9.4-16.7-19.2-24.6-22.3c-5.4-2.1-8.4-1.1-13-2.6c1.1-3.9,3.3-2.5,4.4-8.7c3.5-20-14.2-19.4-15.3-20
	c2.5-3,5.2-2.6,7.9-5.4l5.1-7.8c-2.4-0.7,0.3,0-1.3,0.2c-1.1,0.2,0,0.4-1.1,0c0.4-2.5,0.6-4.1,0.2-6.9c-0.9-5.1-2.6-4.6-2.6-4.6
	c-0.7,1-0.7-0.5-1.3,2.8c-0.3,1.8,1.9,7.6-5.5,13.2c-5.4,4.1-3.6-0.4-6.4,4.9c-6.2,11.8-15,6.1-15.4,16.6c-0.3,6.8,1.6,9.5,5.8,15.5
	c-5.5,3.3-25.3,7.4-33.8,20.7c-5.8,9.1-3.4,9.6-3.3,13.4c-6.9-0.7-5.8-3.1-10.4-2.8c-7.5,0.4-2.3,9.5,0.9,19.2
	c7.2,22,6.6,11.6,11,35.9c0.6,3.1,1.3,6.7,2.1,9.2c1.1,3.2,1.3,3.7,2.9,8c0,0,0,0,0,0s0,0,0.1,0.1c0,0.1,0.1,0.2,0.1,0.3l0.1,0
	c0.8,0.8,3.6,2.4,12.9,2.2c12.3-0.3,57.3-2,64.6-2.9c5.7-0.7,8.7-1.7,9.8-2.8l0.2,0c1.6-3.7,2.3-4.7,2.8-9.1c0.4-3.7,0.6-6.6,1-10.4
	c0.4-3.1,4.2-13.5,5.3-16.5c0.5-1.2,0.5-1.4,0.9-2.6c1.7-4.6,2.4-9.5,2.7-14.8c0.6-8.7,4.8-11.6,5-16.5
	C535.4,207.3,532.6,205.5,526.2,205.2z M462.5,163.6c2.6-3.3,1.1-4.2,7-3.6c2.9,0.3,5.4,1.7,8.7,1.8c3.8-4.2,7.7-3.2,7.4,2.9
	c-0.2,4.2-1.7,5.1-6.8,7.5C467.2,177.4,465.7,172.5,462.5,163.6z M442.8,194.2c1.6-0.7,1.9-0.4,3.4-1c2.3-0.9,3.2-2.2,6.2-3.2
	c21.5-7.4,11.7-2.8,18.2-3.4l2.4-1.6c7.9,0,23.3,2.5,28.7,5.6c5,2.9,15.5,11.6,17.5,16.6c-1.8,0.4-4.2,0.7-6.1,1.1
	c-2.9,0.7-2.2,1.2-5.4,1.5c-2.1-1.2-6.6-4.4-10.3-4.2c-5,0.3-6.1,3.4-10.6,4.6c-5.6-0.4-10.2-12.3-22.5,0.2c-5.7-2.5-8.3-6.3-17-2.9
	c-6.2,2.4-8.6,6-12.6,9.4c-3.8-0.4-4.7-0.9-7.2-2.9C428.8,206.2,435.8,197,442.8,194.2z M457.3,279.6h-4.8
	c-1.4-5.1-1.4-7.2-1.9-12.5c-0.5-4.9-2.3-10.3-3-15.6c-1-7.4-2.8-22.4-7-28.7c2.4-5.5,7.9-8.7,14.6-8.3c6.1,8.3,2.3,17.6,2.1,33.5
	C457.1,264.4,452.8,262.3,457.3,279.6z M475.2,267.1c0.2,9.4-1.8,6.2,1.5,10.9l-10.4,0.6c-2.1-19.9-1.3-34.6-1.1-55.8
	c2.6-3.5,8.4-9.6,12.9-9.8l2.2,2.1c-0.8,4.5-2.5,9-3.3,15C475.5,241.9,475,255.2,475.2,267.1z M501.5,226.3
	c-5.3,21.5-2.7,16.9-4.9,35.7c-1.1,9.8-0.1,6.7,0.8,15l-11,0.5l-2.1-13.8c0.3-22.1,1.8-18.8,3.1-36.5c0.6-8.6-1.9-4.2,9.8-10.5
	C506.3,211.8,503,220,501.5,226.3z M429.6,234.1c-5.3-14.5-0.3-6.1-5.6-12l-0.7-1.3c4.7,0.7,9.5,2.9,13.1,4.7
	c1.4,9.9,3.9,18.7,5.9,28.8c1.9,9.5,2.4,16.1,4.5,25.6h-7.1l-2.9-13.7C436.1,257.1,432.6,242.5,429.6,234.1z M522.7,224.1
	c-0.9,2.8-0.9,5-1.3,8.2c-0.7,4.9-4,9-4.9,14.2c-1,5.8-0.2,11.9-1.8,18.3c-1.9,7.8-0.9,3.6-1.1,11.3l-8.9,0.5
	c0.6-7.1-0.5-16.1,0.9-25c0.7-4.6,1.9-9.6,2.6-14c1-6.5,0-9.2,0.5-14.6c4-3.9,8.6-6.2,16.2-7C524.5,220.7,524,219.9,522.7,224.1z"/>
</svg>
