<?xml version="1.0" encoding="utf-8"?>
<!-- Generator: Adobe Illustrator 22.1.0, SVG Export Plug-In . SVG Version: 6.00 Build 0)  -->
<svg version="1.1" id="Слой_1" xmlns="http://www.w3.org/2000/svg" xmlns:xlink="http://www.w3.org/1999/xlink" x="0px" y="0px"
	 viewBox="0 0 11 17.3" style="enable-background:new 0 0 11 17.3;" xml:space="preserve">
<path d="M0,13.6c0.1-1.1,0.4-2.1,1.1-2.9C1.6,10,2.2,9.5,2.7,9c0.3-0.3,0.5-0.6,0.4-1C3,7,3.2,6.2,3.6,5.3C3.7,5,4,4.7,4.3,4.5
	c0.7-0.5,1.5-0.9,2.3-1.3C6.9,3.1,7.2,3,7.5,2.8C8,2.5,8.2,2,8.2,1.4c0-0.8,0.6-1.5,1.4-1.4c0.3,0,0.6,0.1,0.8,0.2
	c0.2,0.1,0.5,0.7,0.5,1c0,0.7-0.3,1.3-0.6,1.9c-0.3,0.5-0.2,0.9,0,1.4c0.2,0.3,0.4,0.6,0.4,1c0,0.4,0.2,0.8,0.3,1.3
	c0,0.4,0,0.7,0,1.1c-0.2,0.6-0.3,1.2-0.7,1.7C9.7,9.9,9.3,10.4,9,11c-0.2,0.3-0.4,0.6-0.3,1c0,0.1,0,0.1,0,0.2
	c-0.2,0.9-0.3,1.8-0.6,2.7c-0.1,0.5-0.4,1-0.9,1.4c-0.2,0.1-0.3,0.4-0.4,0.5c-0.5,0.2-0.9,0.4-1.4,0.5c-0.4,0.1-0.9,0.1-1.3,0
	c-0.7-0.2-1.5-0.3-2.1-0.7c-0.3-0.2-0.6-0.5-0.9-0.7c-0.4-0.3-0.6-0.7-0.8-1.1C0.1,14.4,0.1,13.9,0,13.6z M3.8,7.2
	c0,0.3-0.1,0.5-0.1,0.8c0,0.4-0.2,0.7-0.5,1c-0.5,0.5-1,0.9-1.5,1.5c-0.6,0.7-0.9,1.5-1,2.3c0,0.2-0.1,0.5,0,0.7
	c0.1,0.5,0.3,0.9,0.5,1.4c0.2,0.5,0.5,0.9,1,1.1s1,0.4,1.5,0.6c0.9,0.3,1.8,0.2,2.7-0.3c0.6-0.4,0.8-1,1.1-1.6
	C8,13.9,8,13.1,8.1,12.3c0.1-0.5,0.2-0.9,0.4-1.4c0.2-0.4,0.4-0.8,0.7-1.2C7.4,9.1,5.4,8.5,3.8,7.2z M5.9,4.2
	c0.3,0.3,0.5,0.5,0.8,0.7C7,5.1,7.5,5.3,7.8,5.6C8.5,6.1,9.3,6.1,10.1,6c0.1,0,0.2-0.1,0.2-0.2c0-0.2,0-0.5-0.1-0.7
	c-0.2-0.3-0.4-0.6-0.5-1C9.4,3.5,9.6,2.8,10,2.3c0.5-0.5,0.5-1.1,0.1-1.6C10,0.4,9.5,0.3,9.3,0.4C8.9,0.7,8.7,1.2,8.7,1.7
	c0,0.7-0.4,1.1-0.9,1.5C7.2,3.5,6.5,3.8,5.9,4.2z M9.8,9.1c0,0,0.1-0.1,0.2-0.2c0.2-0.6,0.3-1.2,0.4-1.8c0-0.1-0.1-0.4-0.2-0.4
	c-0.2-0.1-0.4-0.1-0.7-0.1c-0.3,0-0.5,0-0.8,0C8.2,6.5,7.7,6.2,7.2,5.9C6.5,5.6,5.9,5.2,5.4,4.6c-0.3-0.3-0.3-0.3-0.6,0
	C4.3,4.9,4.1,5.5,3.9,6C3.8,6.1,4,6.3,4,6.3c0.6,0.2,1.2,0.4,1.8,0.6c0.7,0.3,1.5,0.6,2.2,1C8.7,8.3,9.2,8.7,9.8,9.1z M4,6.6
	c0,0,0,0.1,0,0.1c0.2,0.2,0.5,0.4,0.7,0.5C5.1,7.5,5.6,7.8,6.1,8c0.7,0.3,1.4,0.6,2.1,0.8C8.5,9,8.9,9.1,9.2,9.2c0,0,0,0,0-0.1
	C9.1,9,9,8.9,8.8,8.8C8.1,8.4,7.4,8,6.6,7.6C5.9,7.3,5.1,7,4.3,6.6C4.2,6.6,4,6.6,4,6.6z"/>
<path d="M4.5,10.7c0.1,0.1,0.3,0.2,0.4,0.3c-0.2,0.3-0.3-0.1-0.5,0c-0.1,0.3-0.3,0.6-0.4,0.8c0.2,0.1,0.4,0.2,0.6,0.3
	c-0.1,0.2-0.1,0.2-0.7,0c-0.1,0.1-0.1,0.3-0.2,0.4c-0.1,0.1-0.1,0.3-0.2,0.4c0.2,0.1,0.3,0.2,0.5,0.3c-0.3,0.2-0.4-0.1-0.6-0.1
	C3.2,13.4,3,13.7,2.9,14c0,0,0,0,0,0c0.1-0.3,0.2-0.7,0.4-1c-0.1,0-0.2-0.1-0.3-0.2c0.2,0,0.3,0,0.4,0c0.1-0.3,0.3-0.6,0.4-0.9
	c-0.1-0.1-0.2-0.1-0.3-0.2c0,0,0-0.1-0.1-0.1c0,0,0.1,0,0.2,0c0.1,0,0.2,0.1,0.3,0.1c0.1-0.3,0.3-0.6,0.4-0.9
	c-0.2-0.1-0.3-0.2-0.5-0.3c0,0,0-0.1,0-0.1c0.2,0,0.3,0.1,0.5,0.2c0.2-0.3,0.3-0.7,0.5-1c0,0,0,0,0.1,0C4.7,10,4.6,10.3,4.5,10.7z"
	/>
<path d="M9.8,0.9C9.6,1.1,9.5,1.3,9.4,1.6c0,0-0.1,0.1-0.1,0.1C9.2,1.6,9.1,1.6,9,1.5C8.9,1.3,9.1,1,9.3,0.8
	C9.5,0.7,9.7,0.8,9.8,0.9z"/>
</svg>
