<?xml version="1.0" encoding="utf-8"?>
<!-- Generator: Adobe Illustrator 22.1.0, SVG Export Plug-In . SVG Version: 6.00 Build 0)  -->
<svg version="1.1" id="Layer_1" xmlns="http://www.w3.org/2000/svg" xmlns:xlink="http://www.w3.org/1999/xlink" x="0px" y="0px"
	 viewBox="0 0 80.9 107.9" style="enable-background:new 0 0 80.9 107.9;" xml:space="preserve">
<style type="text/css">
	.st0{fill:#9A237B;}
</style>
<path class="st0" d="M53,69.1c-3.9,2-8.3,5.1-10.3,7.4c-2.9,3.3-5.3,6.3-6.5,8.3c-0.7,1.2-1.8,2.7-2.4,3.1c-0.6,0.5-1,1-0.9,1.2
	c0.2,0.4-1.8,3.9-3.1,5.6c-0.3,0.4-0.7,1-1,1.7c-0.2,0.3-0.3,0.6-0.4,0.8c-0.2,0.4-0.4,0.9-0.6,1.3c-0.2,0.5-0.3,0.9-0.4,1.3
	c-0.2,0.4-0.3,0.9-0.2,1.2c-0.1,1.3,0.2,2.3,0.9,3.3c0.8,1.1,3.7,3.6,4.2,3.5c0.2,0,0.6-0.6,0.9-1.3c0.6-1.4,3.9-5.4,4.7-5.8
	c1.1-0.5,2.3-2.3,2.1-3.2c-0.3-1.3-0.1-1.7,1.7-4.2c0.9-1.2,2.2-3.1,2.8-4.1c0.6-1,1.4-2,1.7-2.1c0.3-0.1,0.9-0.8,1.4-1.6
	c0.5-0.7,1.2-1.5,1.6-1.7c0.4-0.2,1.5-1.3,2.5-2.4c3.1-3.6,6.2-6.1,9.8-7.8c3-1.4,4.9-1.6,7.1-0.8c1.7,0.6,2,0.8,2.5,2
	c0.8,1.8,0.7,2.9-0.4,4.8c-1.3,2.3-1.9,3.5-1.6,4.5c0,0.1,0,0.2,0,0.2c0,0.1,0.1,0.2,0.2,0.3c0.3,0.4,0.7,0.8,1.3,1.3
	c1.5,1.2,2.1,1.3,3.9,0.8c1.3-0.4,1.6-0.6,2.2-1.7c0.4-0.7,1-1.5,1.3-1.8c0.8-0.7,2.7-5,2.9-6.5c0.1-0.7-0.1-2.1-0.5-3.2
	c-0.4-1.3-0.7-2.2-1.1-2.9c0-0.2-0.2-0.4-0.3-0.6c-0.5-0.9-1.1-1.6-2.2-2.6c-2.2-2-3.2-2.7-6.6-4c-1.8-0.7-2.6-0.8-3.3-0.5
	c-0.5,0.2-1.6,0.5-2.4,0.5c-1.2,0-1.9,0.3-4.5,1.9C58.3,66.4,55.1,68.1,53,69.1z M34.9,99c0.9,0.5,0.8,1.3-0.2,1.8
	c-0.4,0.2-1.2,0.9-1.9,1.6c-1.4,1.6-2.1,1.7-2.7,0.3c-0.4-0.8-0.4-1.4,0.2-2.7c0.3-0.8,0.7-1.5,0.9-1.7c0,0,0.1-0.1,0.1-0.1
	C31.7,98.2,34.3,98.7,34.9,99z M37.7,91.2c2.4,0,2.6,0.7,1,2.9c-1.5,2.1-2.3,2.5-4.1,2.2c-2-0.3-2.2-0.9-1.1-2.4
	c0.5-0.7,1-1.4,1-1.6C34.5,91.6,35.8,91.2,37.7,91.2z M76.2,77.6c0.2-0.1,0.4-0.2,0.6-0.2c2-0.5,1.4,1.8-1.3,5
	c-2.4,2.8-4.2,2.6-3-0.3c0.8-2,2.1-3.6,3.4-4.3C76,77.7,76.1,77.7,76.2,77.6z M57.4,69.6l3.5-1.7l0.4,0.7c0.2,0.4,0.4,1.2,0.3,1.7
	c-0.2,0.8-0.4,1.1-2.1,1.8c-1.1,0.5-2.2,1-2.5,1.3c-0.7,0.6-3.1,0.3-3.4-0.4C53.2,71.9,53.8,71.3,57.4,69.6z M46,83.3
	c0.1,0.2-0.5,1.3-1.4,2.4c-1.4,1.6-1.9,2.1-3.3,2.6c-1.8,0.7-3.7,0.6-3.8-0.2c0-0.5,1.6-3.1,2.7-4.4c0.4-0.4,0.7-0.9,0.7-1.2
	c0.1-0.7,0.5-0.7,2.5,0c1,0.4,2,0.6,2.2,0.5C45.7,83,45.9,83.1,46,83.3z M48.6,80.1c-1.3,0.6-1.8,0.6-2.9,0.2
	c-2.1-0.8-2-1.4,0.8-4.1c3-2.9,3.8-3.2,4.7-2.1l0,0c0.3,0.5,0.8,1,1,1.2c0.2,0.2,0.4,0.6,0.3,0.8C52.5,77.1,50.1,79.4,48.6,80.1z
	 M75.2,69.2c0.8,0.4,2.9,4.7,2.6,5.2c-0.1,0.2-0.9,0.5-1.7,0.8c-1.4,0.4-1.6,0.4-2.4-0.6c-0.9-1-0.9-1.1-0.2-3.1
	C74.2,68.9,74.3,68.7,75.2,69.2z M70.2,66c1,0.4,1.8,1,1.9,1.2c0.2,0.4-1.2,3.4-1.7,3.6c-0.2,0.1-0.9,0-1.5-0.1
	c-0.6-0.1-1.8-0.3-2.5-0.5c-1.6-0.2-2.7-1.3-2.9-2.8c-0.1-0.9,0.1-1.1,1.2-1.6C66.5,65,68.2,65.1,70.2,66z"/>
<path class="st0" d="M20,38.2c-1.7-4-3.3-8-5-12c-0.5-1.1-1.8-1.3-2.5-0.3C9,31.1,4.9,35.8,0.8,40.5c-0.2,0.3-0.3,0.6-0.2,0.8
	c-0.1,0-0.1-0.1-0.2-0.1c-0.2-0.1-0.5,0-0.4,0.3c1.5,4.3,4.6,7.9,7.1,11.6c2.3,3.3,4.6,6.6,6.9,9.9c-3.9-0.8-8.2-1.2-10.8,2.4
	C0.8,68.8,1.6,73.9,5,76.4c8.5,6.2,17.7-4.8,13.9-13.2c-0.3-0.7-1-0.7-1.5-0.5c-2.7-3.7-5.4-7.3-8.1-11c-0.2-0.2-0.4-0.5-0.5-0.7
	c3.2-0.5,6.4-1.6,9.5-2.6c1.6-0.5,3.9-0.8,4.3-2.8C23.1,43.4,20.8,40.2,20,38.2z M16.9,66.5c0.2,1.9,0.1,3.7-1,5.4
	c-1.8,3-5.6,4.2-8.6,2.4c-3.4-2.1-3.8-7.2,0.7-8.9C10.4,64.5,14.4,66,16.9,66.5C16.9,66.5,16.9,66.5,16.9,66.5z M19.3,45.2
	c-0.3,0.5-3.7,1.1-4.4,1.3c-2.6,0.7-5.2,1.3-7.6,2.5c-1.8-2.5-3.6-5.1-5.9-7.1c0.2,0,0.4,0,0.6-0.2c4.1-3.9,7.8-8.2,11.4-12.5
	c2,4.5,4.2,9.1,5.6,13.8C19.3,43.9,19.9,44.3,19.3,45.2z"/>
<g>
	<g>
		<g>
			<path class="st0" d="M32.5,30.2l0.2,0.4c-0.1-0.2-0.3-0.5-0.4-0.7c1.2,0.1,2.5,0.1,3.7,0.2c-1.3-0.2-2.8-0.4-4.4-0.6
				c0.4,0.9,1,1.9,1.7,2.9c0.7,0.9,1.4,1.8,2.1,2.3c-0.1,0.1,0,0.4,0,0.7c0,0.2,0.1,0.5,0.2,0.7c0.2,0.5,0.4,0.9,0.5,0.9
				c0.3,0.3,0.6,0.6,0.8,0.8c-0.2-0.2-0.4-0.4-0.5-0.6c0.2,0.2,0.4,0.4,0.5,0.6c1.6,1.9,2.8,4.3,3.8,6.8c0.3,0.7,0.8,2,1.1,3.3
				c0.3,1.3,0.5,2.5,0.4,3.1l-0.1,0.5c0-0.3,0.1-0.3,0.1-0.6c0.2,0.7,0.2,1.4,0.1,1.9c0.1-0.1,0.2,0,0.4-0.3l-0.2,0.3
				c0.1,0.4-0.3,0.9-0.5,1.2c0-0.1-0.2,0-0.4,0.2c0,0,0.1,0,0.1,0c-0.7,0.6-1.7,1-2.5,1.1c-0.1,0-0.2,0-0.3-0.1c-0.3,0-0.5,0-0.8,0
				c0.1-0.1-0.6-0.3-0.2-0.3c-0.6,0.1-1.1-0.3-1.7-0.4c-0.9-0.5-1.7-1.3-1.8-2.1c-0.1-0.4,0-0.8,0.3-1.2c0.3-0.4,0.7-0.8,1.2-1.1
				l-0.1,0c0.7-0.4,1.3-1,2.4-1.1c0.7-0.4,1.8-0.6,2.1-1c0.9-0.1,1.2-0.3,2.1-0.4c-0.2-0.2,0.9-0.2,0.4-0.3c-0.6-0.2-0.6,0-1.2-0.2
				l0,0.1c-1.2-0.1-2.4,0-3.7,0.2c-1.2,0.2-2.5,0.5-3.8,1.2c-0.8,0.6-1.7,1.4-2.1,2.7c-0.4,1.3,0,2.8,0.7,3.6
				c1.4,1.9,3.7,2.7,5.6,2.7c0.4,0,0.7,0.1,1.1,0.1c0.9-0.1,1.8-0.4,2.7-0.9c0.2-0.1,0.4-0.3,0.6-0.4c0.2-0.2,0.4-0.3,0.6-0.5
				c0.2-0.2,0.3-0.3,0.5-0.5c0.2-0.2,0.3-0.4,0.5-0.6c0,0,0,0.1-0.1,0.1c0.6-0.9,1-1.6,1.1-2.6c0,0,0-0.2,0-0.2
				c0.2-0.1,0.1-1.5-0.2-2.8c-0.3-1.3-0.9-2.4-0.9-2.6l-0.1-0.2c-0.5-1.7-0.9-3.5-1.6-4.8c-0.2-0.2-0.5-0.5-0.7-0.7
				c0-0.3-0.2-0.2-0.4-0.5c0-0.9-0.4-1.2-0.3-0.8c-0.4-0.5-0.7-1.1-1-1.6c-0.2-0.2-0.3-0.4-0.5-0.6c-0.1-0.2-0.2-0.3-0.1-0.5
				c-0.4-0.5-0.2-0.4-0.5-0.9c0-0.2-1-1.2-1.1-1.4l0.1,0.1c-0.1-0.2-0.2-0.3-0.2-0.5c-0.1-0.1-0.1-0.3-0.1-0.4c0-0.1,0-0.2,0-0.3
				c-0.1-0.2-0.2-0.4-0.3-0.6c0.3,0,0.5,0,0.8,0c0-0.2-0.1,0-0.2-0.2c0.1,0,0.2,0,0.3,0c0.2,0,0.5,0,0.8,0.1c0.6,0,1.1,0.1,1.7,0
				c0.2,0,0.5,0.1,0.6,0.1c0.4,0,0.2-0.1,0.5-0.1l0.1,0.1c0.4-0.2,0.6,0,1-0.1c0-0.1,0.1-0.1,0.3-0.1c0,0.1,0.4-0.1,0.5,0l0,0
				c0.1,0,0.1-0.1,0.3-0.1c0.1-0.1,0.5-0.3,0.9-0.6c0.4-0.3,0.7-0.7,0.8-0.8l0.1,0c0.2-0.2,0.2-0.4,0.1-0.3l0.3-0.2l0,0
				c0.1-0.1,0.2-0.2,0.2-0.3c0.1,0,0.2-0.1,0.1,0.1c0.1-0.2,0.2-0.4,0.3-0.6c-0.4,0.5-1,0.9-1.5,1.1c0.1-0.2,0.5-0.4,0.6-0.5
				c0.3-0.1,0.7-0.6,1-1.1c0-0.1-0.1-0.2,0-0.5c0.1-0.1,0.1-0.3,0.2-0.5c0,0.2,0,0.5-0.1,0.7c0.2,0,0.2-0.6,0.3-0.8
				c0-0.1,0-0.6,0-0.8c0.1,0.1,0.1-0.2,0.1-0.4c0-0.2-0.1-0.3-0.1-0.2c-0.1,0,0,0.7-0.2,0.5c0.1-0.1,0-0.4-0.1-0.6
				c-0.1,0,0,0.1-0.1,0c0-0.2-0.2-0.4-0.1-0.5c0,0,0,0.1,0.1,0.2c0-0.1,0.2,0.2,0.4,0.5c0.2,0.3,0.3,0.7,0.3,0.5
				c0,0-0.2-0.4-0.4-0.7c-0.2-0.3-0.4-0.6-0.4-0.5c0,0.2-0.2-0.1-0.1,0.1l0.1,0.1c0,0.2-0.1,0.3-0.1,0.3c0-0.2,0.2,0,0.3,0.3
				c0.2,0.2,0.3,0.5,0.3,0.4c0,0,0,0.1,0,0.1c-0.1-0.1-0.2-0.5-0.1-0.7c-0.1,0-0.1-0.2-0.2-0.3l0-0.1c-0.1-0.1-0.1-0.3-0.2-0.2
				c0.1,0.4-0.1,0.3-0.3,0.3c-0.2-0.1-0.5-0.1-0.4,0.2c0.1-0.3,0.2,0,0.3,0.4c-0.1,0-0.1,0.2-0.1,0.4c0,0.2,0.1,0.1,0.1,0.2
				c0,0.1-0.1,0.3-0.2,0.3c0.1,0.2-0.1,0.2-0.1,0.4c0,0.2,0,0,0.1,0.1c-0.1,0.3-0.2,0.6-0.4,0.7c-0.1,0-0.4,0.1-0.4-0.1
				c0.2-0.3,0.1,0.2,0.3-0.1c-0.2,0,0.1-0.3,0-0.4c-0.1,0.1-0.2,0.3-0.3,0.4l0,0c-0.1,0.2-0.3,0.4-0.5,0.5c0-0.1-0.1-0.1,0-0.2
				l-0.2,0.1c0,0,0,0.1,0,0c-0.1,0.1-0.2,0.1-0.2,0.2c0,0-0.2,0.2-0.5,0.4c-0.2,0.2-0.5,0.4-0.5,0.4c-0.2,0.1-0.2,0-0.4,0.1
				c0,0,0.4-0.1,0.7-0.4c0.3-0.2,0.6-0.5,0.5-0.4c-0.1,0-0.4,0.3-0.9,0.5c-0.4,0.2-0.9,0.4-0.9,0.4c-0.1,0-0.3,0.1-0.2,0.1
				c-0.2,0,0-0.1-0.1-0.2c0,0,0,0,0,0L42,30.9c-0.3,0.2-0.8,0.1-1.2,0.3c0.1-0.1,0.2-0.2,0.4-0.3l0,0c0,0,0.2-0.1,0.2-0.1
				c-0.2,0-0.4,0-0.6,0.1c0,0-0.1,0-0.1,0c0,0,0,0,0,0c-0.1,0-0.1,0,0-0.1c0,0,0,0,0,0c-0.1-0.2-0.8,0.2-1.2,0.1c-0.1,0,0,0-0.2,0.1
				c-0.2,0-0.4-0.1-0.5-0.1c-0.2,0-0.3-0.1-0.6-0.1c-0.2,0.1-0.2,0.1,0,0.2l-0.4,0c0.3-0.2-0.9-0.2-0.6-0.5c-0.2-0.1-0.5-0.1-0.7,0
				c0,0.1,0,0.2-0.3,0.1c-0.5-0.1-0.4-0.1-0.9-0.2c-0.2-0.1-0.1-0.1-0.1-0.2c-0.5,0.1-0.8-0.2-1.4-0.2c-0.4,0-1.1,0-0.9,0.1
				c0,0-0.1,0-0.1,0C32.8,30.4,32.8,30.3,32.5,30.2z"/>
		</g>
	</g>
</g>
<g>
	<g>
		<g>
			<path class="st0" d="M60.1,11.8l-0.4,0.1c0.8-0.1,1-0.2,1.4-0.2c0.4-0.1,0.8-0.1,1.1-0.2c-0.4,0-0.9-0.1-1.3-0.1
				c-0.1,0-0.2,0-0.3,0l-0.2,0c-0.1,0-0.1,0-0.2,0c-0.4,0-0.9,0.1-1.3,0.2c-1.7,0.2-3.3,0.6-3.5,1.1c-0.3-0.1-0.8-0.2-1.4-0.2
				c0,0.5,1,1.8,1.2,1.8c0.6,0.5,1.1,1,1.6,1.4c-0.3-0.3-0.7-0.6-1-1c0.4,0.3,0.7,0.7,1,1c0.4,0.4,0.8,0.7,1.1,1.1
				c0.3,0.3,0.6,0.5,0.8,0.8c0.4,0.4,0.8,0.8,1.2,1.3c0.8,0.9,1.5,1.9,2.1,2.9c0.4,0.6,1.1,1.6,1.7,2.6c0.6,1.1,1.1,2.1,1.2,2.7
				c0,0.2,0.1,0.3,0.1,0.5c-0.1-0.3,0-0.3-0.1-0.6c0.4,0.6,0.7,1.2,0.9,1.8c0.1-0.1,0.1-0.1,0.2-0.4c0,0.1,0,0.2,0,0.3
				c0.3,0.3,0.3,0.9,0.3,1.2c-0.1-0.1-0.2,0.1-0.2,0.3l0.1,0c-0.2,0.6-0.8,1.5-1.4,1.8c-0.1,0-0.2,0-0.2,0c-0.2,0.1-0.4,0.2-0.6,0.3
				c0-0.1-0.6,0-0.3-0.2c-0.4,0.3-1,0.2-1.5,0.3c-0.9-0.1-1.8-0.5-2.3-1.2c-0.2-0.3-0.3-0.6-0.3-1c0-0.4,0.2-0.8,0.6-1.2l-0.1,0
				c0.4-0.5,0.9-1.2,1.8-1.5c0.5-0.5,1.5-0.9,1.6-1.3c0.8-0.3,1.1-0.5,1.8-0.8c-0.2-0.1,0.7-0.4,0.3-0.4c-0.6-0.1-0.6,0.1-1.1,0l0,0
				c-1.1,0.1-2.2,0.3-3.3,0.7c-1.1,0.4-2.2,0.9-3.3,2c-0.1,0.2-0.3,0.4-0.4,0.7c-0.1,0.3-0.3,0.5-0.3,0.8c-0.2,0.6-0.2,1.3,0,1.9
				c0.4,1.2,1.2,2.1,2,2.6c1.8,1.1,4.1,1.1,5.7,0.3c0.4-0.2,0.7-0.2,1-0.3c0.7-0.5,1.3-1.1,1.8-1.9c0.5-0.9,0.8-1.9,0.7-2.8
				c0,0,0,0.1,0,0.1c0-0.9,0-1.6-0.3-2.4c0,0-0.1-0.1-0.1-0.2c0.1-0.1-0.4-1.2-1.1-2.2c-0.6-1-1.4-1.8-1.4-2l-0.2-0.2
				c-0.8-1.4-1.5-2.9-2.4-3.9c-0.3-0.2-0.5-0.4-0.8-0.5c-0.1-0.2-0.2-0.2-0.4-0.4c-0.1-0.8-0.6-1-0.4-0.6c-0.4-0.4-0.8-0.9-1.2-1.2
				l-0.3-0.2l-0.2-0.1c-0.1-0.1-0.1-0.1,0-0.2c-0.2-0.1-0.1-0.1-0.1-0.3c0.1,0-0.1-0.1-0.3-0.2c-0.2-0.1-0.5-0.3-0.4-0.3l0.1,0
				c0,0,0-0.1,0-0.1c0,0,0,0,0.1,0c0.3,0,0.6,0.1,0.8,0.1c0.2,0,0.3,0,0.4,0l0.2,0l0.4-0.1c0.9-0.2,1.8-0.4,2.6-0.5
				c0-0.2-0.3,0.1-0.4-0.1c1-0.2,2-0.3,2.9-0.5c0.2,0,0.4,0,0.5,0c0.3-0.1,0.2-0.1,0.4-0.2l0.1,0.1c0.3-0.2,0.5,0,0.8-0.2
				c0-0.1,0.1-0.1,0.2-0.2c0.1,0.1,0.3-0.2,0.4,0l0,0c0.1,0,0.1-0.1,0.2-0.1c0.1-0.1,1.1-1.1,1.2-1.3l0.1,0c0.2-0.1,0.2-0.3,0.1-0.2
				c0.1,0,0.1-0.1,0.2-0.2l0,0l0.2-0.2c0,0,0.1,0,0.1,0.1c0.1-0.2,0.2-0.3,0.3-0.4c-0.4,0.3-0.9,0.6-1.3,0.7
				c0.1-0.1,0.4-0.3,0.5-0.4c0.2-0.1,0.7-0.4,1-0.8c0-0.1-0.1-0.2,0.1-0.4c0.1-0.1,0.1-0.3,0.2-0.4c0,0.3-0.1,0.5-0.2,0.7
				c0.1,0,0.4-0.5,0.4-0.7c0-0.1,0.1-0.6,0-1C72.1,8.3,72,7.8,72,7.6c0-0.2-0.1-0.3-0.1-0.2c-0.1,0,0.1,0.8-0.1,0.6
				c0.1-0.1,0-0.5-0.1-0.7c-0.1,0,0,0.1-0.1,0c-0.1-0.2-0.2-0.4-0.2-0.5c0,0,0.1,0.1,0.1,0.2c-0.1-0.1,0.2,0.1,0.4,0.5
				c0.2,0.4,0.3,0.9,0.3,0.6c0,0.1-0.2-0.4-0.4-0.8c-0.2-0.3-0.5-0.6-0.5-0.5c0,0.2-0.2,0-0.1,0.1L71.3,7c0.1,0.2,0,0.4-0.1,0.3
				c-0.1-0.2,0.2,0,0.4,0.3c0.2,0.3,0.3,0.6,0.3,0.4l0,0.2c0-0.2-0.2-0.6-0.1-0.8c-0.1,0-0.2-0.2-0.2-0.3l0-0.1
				c-0.1-0.1-0.2-0.3-0.2-0.2c0.2,0.4-0.1,0.3-0.3,0.3c-0.2,0-0.5,0-0.3,0.3c0-0.3,0.2,0,0.3,0.3c-0.1,0-0.1,0.2-0.1,0.4
				c0,0.2,0.1,0.1,0.1,0.2c0,0.1-0.1,0.3-0.2,0.3c0.1,0.2-0.1,0.2-0.2,0.4c0,0.2,0,0,0,0.1c-0.1,0.2-0.3,0.5-0.5,0.6
				c-0.1,0-0.3,0-0.3-0.2c0.2-0.2,0.1,0.2,0.3,0c-0.2,0,0.1-0.3,0-0.4c-0.1,0-0.2,0.2-0.3,0.3l0,0c-0.1,0.1-0.3,0.4-0.5,0.4
				c0-0.1-0.1-0.1,0-0.2c-0.1,0-0.1,0.1-0.2,0.1c0,0,0,0.1,0,0c0,0.1-0.1,0.1-0.2,0.1c0,0-0.8,0.8-0.8,0.8c-0.1,0.1-0.2,0-0.3,0.1
				c0,0.1,1.2-0.9,1-0.8c-0.1,0-1.4,1.1-1.5,1c-0.1,0.1-0.2,0.1-0.2,0.2c-0.2,0,0-0.1-0.2-0.2c0,0,0,0,0,0l-0.2,0
				c-0.2,0.2-0.7,0.2-1,0.5c0.1-0.1,0.1-0.3,0.3-0.4l0,0c0,0,0.2-0.1,0.1-0.2c-0.2,0-0.3,0.1-0.5,0.2c0,0-0.1,0-0.1,0c0,0,0,0,0,0
				c-0.1,0-0.1,0-0.1-0.1c0,0,0,0,0,0c-0.2-0.2-0.7,0.4-1.1,0.3c-0.1,0.1,0,0-0.1,0.1c-0.4,0-0.6,0-1,0.1c-0.1,0.1-0.1,0.2,0.1,0.2
				l-0.3,0c0.2-0.3-0.6-0.1-0.3-0.4c-0.1,0-0.3,0-0.4,0.1c0,0.1,0,0.2-0.2,0.2c-0.3,0-0.2,0-0.5,0c-0.1-0.1,0-0.1,0-0.2
				c-0.3,0.2-0.3-0.1-0.7,0c-0.2,0.1-0.6,0.1-0.6,0.3C60.2,12,60.1,11.9,60.1,11.8z"/>
		</g>
	</g>
</g>
<g>
	<g>
		<g>
			<path class="st0" d="M73.3,6.6l0.1,0.1c-0.4-0.3-0.7-0.6-1.1-0.9c0.6,0.9,1.3,2,2.5,1.9c-0.2,0.4,0.4,1.2,0.5,1.1
				c0.2,0.1,0.4,0.2,0.6,0.3c-0.1-0.1-0.2-0.2-0.4-0.2c0.1,0.1,0.2,0.1,0.4,0.2c0.6,0.3,1,0.8,1.4,1.3c0.3,0.5,0.5,1.2,0.7,1.8
				c0,0.3,0.1,1,0,1.4c-0.1,0.5-0.4,0.8-0.7,0.9c0,0-0.1,0.1-0.2,0.1c0.1,0,0.1,0,0.2-0.1c0,0.2-0.2,0.3-0.3,0.4
				c-0.1,0.1-0.2,0.2-0.4,0.3c0.1,0,0.1,0.1,0.3,0.1c-0.1,0-0.1,0-0.2,0c-0.1,0.2-0.5,0.3-0.7,0.4c0-0.1-0.1-0.1-0.3-0.1l0.1,0.1
				c-0.3,0-0.6,0.1-0.9,0.1c-0.1,0-0.3,0-0.4,0c0,0,0,0,0-0.1c0,0-0.1,0-0.1,0l-0.1-0.1c0.1-0.1,0.1-0.3,0.2-0.2
				c-0.1,0-0.1-0.1-0.1-0.2c0-0.1,0-0.1-0.1-0.3c0-0.5,0.2-1,0.5-1.5c0.3-0.5,0.9-0.9,1.4-1.2l0,0c0.4-0.3,0.7-0.6,1.3-0.7
				c0.4-0.3,1-0.4,1.1-0.7c0.5-0.1,0.7-0.2,1.2-0.3c-0.1-0.1,0.5-0.2,0.2-0.3c-0.3-0.2-0.4,0-0.7-0.2l0,0c-1.4-0.1-2.8,0-4.3,0.6
				c-0.9,0.5-2,1.2-2.5,2.4c-0.2,0.3-0.2,0.6-0.3,1c0,0.3-0.1,0.6,0,1.1c0.1,0.4,0.1,0.8,0.2,1.2c0.1,0.3,0.2,0.7,0.3,1
				c0.3,0.1,0.5,0.2,0.7,0.3c0.3,0,0.7,0.1,1,0.1c0.4,0,0.6,0,0.9,0c0.5,0,1.1-0.1,1.5-0.3c0,0,0,0-0.1,0c0.5-0.2,1-0.2,1.5-0.5
				c0,0,0.1-0.1,0.1-0.1c0.1,0,0.8-0.5,1.2-1.3c0.4-0.8,0.4-1.7,0.4-1.7c0-0.1,0-0.1,0-0.2c0.2-1.1,0.1-2.4-0.3-3.2
				c-0.2-0.1-0.3-0.3-0.5-0.4c0-0.2-0.2-0.1-0.2-0.3c0-0.6-0.3-0.8-0.2-0.5c-0.3-0.3-0.5-0.6-0.7-0.9C78,8.1,77.8,8,77.7,7.9
				c-0.1-0.1-0.1-0.2-0.1-0.3c-0.3-0.2-0.1-0.2-0.4-0.5c0-0.2-0.8-0.5-0.8-0.6l0.1,0c-0.3-0.3-0.3-0.6-0.6-0.9
				C75,4.9,74,4.3,73.2,3.6c-0.1,0.1,0.2,0.1,0.1,0.2c-0.5-0.4-0.8-0.9-1.3-1.2C72,2.6,72,2.4,71.9,2.4c-0.1-0.2-0.1,0-0.2-0.1
				l0.1-0.1c-0.2-0.1-0.1-0.3-0.3-0.4c0,0-0.1,0-0.1-0.1c0.1-0.1-0.2-0.1-0.1-0.2l0,0c0,0-0.1,0-0.1-0.1c-0.1,0-0.8-0.2-0.9-0.2l0,0
				c-0.1-0.1-0.2,0-0.1,0L70,1.1l0,0L69.9,1c0,0,0-0.1,0.1-0.1c-0.1,0-0.2-0.1-0.2-0.1C69.9,1,70,1.3,70.1,1.5
				c-0.1,0-0.2-0.2-0.2-0.2c0-0.1-0.1-0.3-0.2-0.5c0,0-0.1,0.1-0.2,0c0-0.1-0.1-0.1-0.1-0.2c0.1,0,0.1,0.1,0.2,0.2
				c0.1-0.1-0.1-0.2-0.1-0.3c-0.1,0-0.1-0.1-0.2-0.2c0.1,0,0-0.1,0-0.2c0-0.1-0.1-0.1-0.1,0c-0.1,0.1,0.1,0.2,0,0.3
				c0-0.1-0.1-0.1-0.1-0.2c0,0,0,0.1-0.1,0.1c0-0.1-0.2-0.1-0.1-0.2c0,0,0,0,0.1,0c-0.1-0.1,0.7,0.1,0.6,0.1c0,0.1-0.7-0.2-0.6-0.1
				c0,0.1-0.1,0-0.1,0.1l0.1,0c0,0.1,0,0.2-0.1,0.2c-0.1-0.1,0.6,0,0.5,0l0,0.1c-0.1,0-0.2-0.1-0.2-0.2c0,0-0.1,0-0.2,0l0,0
				c-0.1,0-0.1-0.1-0.1,0c0.3,0.3-0.6,0.2-0.4,0.5c0-0.2,0.1-0.1,0.3,0.1c0,0,0,0.1,0,0.3c0.1,0.1,0.1,0,0.1,0c0,0.1,0.1,0.2,0,0.2
				c0.1,0,0.1,0.1,0.1,0.2c0.1,0,0,0,0.1,0c0.1,0.1,0.2,0.2,0.3,0.3c0,0.1,0,0.2-0.1,0.3c-0.1-0.1,0.2-0.1,0-0.2
				c0,0.2-0.2-0.1-0.3,0c0,0.1,0.1,0.2,0.2,0.3l0,0C69,1.9,69.2,2,69.2,2.1c-0.1,0,0,0.1-0.1,0l0.1,0.1c0,0,0,0,0,0
				c0.1,0,0.1,0.1,0.1,0.1c0,0.1,0.7,0.3,0.7,0.3c0.1,0.1,0,0.1,0.1,0.2c0,0-0.8-0.5-0.7-0.4c0,0.1,1,0.5,1,0.6c0.1,0,0.1,0.1,0.2,0
				c0.1,0.1-0.1,0.1-0.1,0.2c0,0,0,0,0,0l0,0.1c0.2,0.1,0.3,0.3,0.6,0.3c-0.1,0-0.2,0.1-0.3,0l0,0c0,0-0.1,0-0.2,0
				c0.1,0.1,0.2,0.2,0.3,0.2c0,0,0,0.1,0,0.1l0,0c0,0.1,0,0.1,0,0.1c0,0,0,0,0,0c0,0.2,0.4,0.2,0.6,0.4c0.1,0,0,0,0.1,0
				c0.1,0.2,0.2,0.3,0.4,0.5c0.1,0,0.1,0,0.1-0.1l0.1,0.1c-0.2,0.1,0.2,0.4-0.1,0.4c0,0.1,0.1,0.1,0.2,0.2c0,0,0.1-0.1,0.2,0
				c0.1,0.2,0.1,0.1,0.2,0.3c0,0.1-0.1,0.1-0.1,0.1c0.2,0.1,0.1,0.2,0.2,0.3c0.1,0.1,0.3,0.2,0.4,0.1C73.4,6.5,73.4,6.5,73.3,6.6z"
				/>
		</g>
	</g>
</g>
</svg>
