<?xml version="1.0" encoding="utf-8"?>
<!-- Generator: Adobe Illustrator 21.0.0, SVG Export Plug-In . SVG Version: 6.00 Build 0)  -->
<svg version="1.1" id="Режим_изоляции"
	 xmlns="http://www.w3.org/2000/svg" xmlns:xlink="http://www.w3.org/1999/xlink" x="0px" y="0px" viewBox="0 0 58 57.3"
	 style="enable-background:new 0 0 58 57.3;" xml:space="preserve">
<style type="text/css">
	.st0{fill:#7DB65E;}
	.st1{fill:#FFFFFF;}
</style>
<path class="st0" d="M53.5,4.1c-4.1-3.8-21.3-4.5-31.2-4C15.6,0.4,7,1.4,4.5,4.2c-6,6.6-6,42.7,0,48.9c3.7,3.8,17.5,4.2,23.2,4.2
	c0.4,0,0.9,0,1.2,0c9.1-0.1,21-1.2,24.4-4.1c3.6-2.9,4.4-14.2,4.6-20.7C58.2,24.4,57.5,7.9,53.5,4.1"/>
<path class="st1" d="M35.6,34.9c1.2,2.4,5.1,0.2,3.9-2.2c-1.9-4-5-7.6-7.6-11.4c-0.9-1.3-3-1.3-3.9,0c-3.1,4.5-6,9.2-7.8,14.3
	c-0.9,2.5,3.5,3.8,4.4,1.2c1.7-4.7,4.5-9.1,7.3-13c-1.3,0-2.6,0-3.9,0C30.6,27.8,33.6,30.9,35.6,34.9L35.6,34.9z"/>
</svg>
