<svg fill="#847C7C" xmlns="http://www.w3.org/2000/svg" viewBox="0 0 17 17">
	<path class="st0" d="M17,7.9h-0.8V4.2c0-0.9-0.7-1.6-1.6-1.6h-1.1l-1.1-2C12.1,0.2,11.8,0,11.4,0c-0.2,0-0.3,0-0.5,0.1L6.5,2.5H1.6
		C0.7,2.5,0,3.3,0,4.2v11.2C0,16.3,0.7,17,1.6,17h12.9c0.9,0,1.6-0.7,1.6-1.6v-3.3H17L17,7.9L17,7.9z M14.5,3.2c0.5,0,0.9,0.4,1,0.9
		h-1.2l-0.5-0.9H14.5z M11.2,0.7c0.2-0.1,0.4,0,0.4,0.1l1.8,3.2H5.1L11.2,0.7z M15.5,15.4c0,0.5-0.4,1-1,1H1.6c-0.5,0-1-0.4-1-1V4.2
		c0-0.5,0.4-1,1-1h3.7L3.8,4.1H1.9c-0.2,0-0.3,0.1-0.3,0.3s0.1,0.3,0.3,0.3h0.7h12h0.9v3.2h-2.4c-1.1,0-2,0.9-2,2v0.1
		c0,1.1,0.9,2,2,2h2.4L15.5,15.4L15.5,15.4z M16.3,11.4h-0.2h-3.1c-0.8,0-1.4-0.6-1.4-1.4V9.9c0-0.7,0.6-1.4,1.4-1.4h3.1h0.2V11.4z
		 M14.1,10c0,0.4-0.3,0.7-0.7,0.7c-0.4,0-0.7-0.3-0.7-0.7s0.3-0.7,0.7-0.7C13.8,9.3,14.1,9.6,14.1,10z"/>
</svg>
