<?xml version="1.0" encoding="utf-8"?>
<!-- Generator: Adobe Illustrator 21.0.0, SVG Export Plug-In . SVG Version: 6.00 Build 0)  -->
<svg version="1.1" id="Слой_1" xmlns="http://www.w3.org/2000/svg" xmlns:xlink="http://www.w3.org/1999/xlink" x="0px" y="0px"
	 viewBox="0 0 36 18" style="enable-background:new 0 0 36 18;" xml:space="preserve">
<style type="text/css">
	.st0{fill:#5A3217;}
</style>
<path class="st0" d="M36,9.5c-0.1-1.4-0.7-2.8-1.8-3.8c-1-1-2.4-1.8-4.4-2.4c-2-0.7-4-1-5.9-1c0,0,0,0,0,0c-0.8-1-1.9-1.4-3-0.9
	c-0.5-0.8-1.8-1.4-3-1.4c-0.8,0-1.4,0.4-1.7,1c-0.6-0.4-2.2-1.2-3.4-0.3c-0.2,0.2-0.4,0.4-0.5,0.6c-1.1,0-2.4,0.3-3.4,0.6L8.5,2
	C7.2,2.3,5.9,2.7,4.9,3.3C3.2,4.1,1.1,5.5,0.3,7.8c-0.8,2.2,0.1,4.5,2.2,6.3c1.8,1.5,4,2.6,6,2.9c0,0,0,0,0.1,0
	c1.5,0.5,3.1,0.6,4.6,0.7l0.3,0c1.7,0.1,3.4,0.2,5,0.2c0.2,0,0.5,0,0.7,0c2.7,0,5.2-0.3,7.7-1c2.6-0.7,5.5-1.6,7.6-3.7
	C35.5,12.1,36.1,10.9,36,9.5z M23.1,2.1c0.3,0.3,0.5,0.6,0.7,0.9c0.1,0.2,0.2,0.3,0.3,0.5c0.3,0.5,0.8,0.7,1.3,0.9
	c0.5,0.2,1.1,0.4,1.2,1c0,0,0,0,0,0c-0.4-0.2-0.9-0.1-1.3,0C24.6,5.7,24,6.3,23.6,7c-0.1-0.1-0.1-0.2-0.2-0.3c0.2-0.3,0.3-0.7,0.2-1
	c0-0.1-0.1-0.1-0.1-0.1c0,0,0,0,0,0c-0.1,0-0.1,0-0.1,0.1c0,0.2-0.1,0.4-0.1,0.6C23.2,6.2,23.1,6,23,5.8c0.3-0.7,0.6-1.7,0.2-2.3
	c0-0.1-0.1-0.1-0.2-0.1c-0.1,0-0.1,0.1-0.1,0.1c0,0.1,0,0.2,0,0.4c0,0.3,0,0.5,0,0.8c0,0.2-0.1,0.4-0.1,0.6
	c-0.1-0.3-0.2-0.6-0.2-0.8c-0.1-0.3-0.1-0.5-0.2-0.8c0-0.1-0.1-0.1-0.2-0.1c-0.1,0-0.1,0.1-0.1,0.1c0,0.5,0.1,1.1,0.3,1.6
	c-0.1,0-0.2-0.1-0.3-0.1c-0.1,0-0.1,0-0.2,0.1c0,0.1,0,0.1,0,0.2c0.2,0.2,0.4,0.3,0.7,0.4c0.3,0.5,0.6,1,0.9,1.4
	c0,0.2-0.1,0.3-0.1,0.5c-0.4-0.3-0.8-0.4-1.2-0.1c-0.1,0-0.1,0.1-0.1,0.1c-0.1,0-0.2-0.1-0.3-0.1c-0.1,0-0.3-0.1-0.4-0.2
	c-0.1-0.1-0.2-0.1-0.3-0.2c0.3-0.6,0.5-1.4,0.5-1.9c0.2-0.4,0.3-0.8,0.2-1.2c-0.1-0.4-0.4-0.8-0.8-1.1c0.3-0.5,0.3-1.2,0.1-1.7
	C21.9,1.5,22.6,1.5,23.1,2.1z M9.7,9.1C9.7,9.1,9.7,9.1,9.7,9.1C9.7,9.1,9.7,9.1,9.7,9.1C9.7,9.1,9.7,9.1,9.7,9.1z M7.6,7.4
	c0,0,0-0.1,0-0.1c0,0,0,0,0,0C7.6,7.3,7.6,7.3,7.6,7.4z M16.9,1.7C17,1.7,17,1.6,17.1,1.6c0,0,0.1-0.1,0.1-0.1
	c-0.1,0.1-0.3,0.2-0.4,0.4c0,0-0.1,0-0.1-0.1C16.8,1.8,16.9,1.8,16.9,1.7z M16.4,5.3c0.1-0.1,0.1-0.1,0.2-0.2c0.1-0.1,0.5-0.1,0.6,0
	c0,0.1,0,0.1,0,0.1c0,0.1-0.1,0.2-0.3,0.2C16.7,5.5,16.5,5.4,16.4,5.3z M19.8,3.5c0.1-0.2,0.1-0.4,0.1-0.6C20,3,20.1,3.2,20.1,3.4
	c0,0-0.1,0-0.1,0C19.9,3.5,19.9,3.5,19.8,3.5z M19.6,3c0,0.1,0,0.2-0.1,0.2c0,0,0,0.1,0,0.1c0,0-0.1,0-0.1,0
	c0.1-0.2,0.2-0.3,0.2-0.5C19.6,2.9,19.6,3,19.6,3z M18.6,3c0.1-0.1,0.1-0.2,0.2-0.3l0.1-0.1C18.9,2.5,19,2.3,19,2.2c0,0,0,0,0,0
	l0,0.1c0,0.1-0.1,0.3-0.1,0.4c0,0.1,0,0.1-0.1,0.2c0,0.1-0.1,0.2-0.1,0.3C18.7,3.1,18.7,3,18.6,3z M18.6,2.4
	C18.6,2.4,18.6,2.4,18.6,2.4l0,0.1L18.6,2.4l-0.1,0.2c0,0.1-0.1,0.2-0.1,0.3c0,0-0.1-0.1-0.1-0.1C18.4,2.6,18.5,2.5,18.6,2.4z
	 M19.3,2.2C19.3,2.2,19.3,2.2,19.3,2.2c0,0.2,0,0.3,0,0.5c0,0.1,0,0.2-0.1,0.2c0,0.1-0.1,0.2-0.1,0.3c0,0-0.1,0-0.1-0.1
	C19.2,3,19.3,2.5,19.3,2.2z M16.6,1.5c0-0.1,0.1-0.1,0.1-0.1c0.1,0,0.2-0.1,0.3-0.1c0,0,0,0,0,0l0,0C16.8,1.4,16.7,1.5,16.6,1.5
	C16.5,1.6,16.5,1.6,16.6,1.5C16.5,1.6,16.5,1.5,16.6,1.5z M16,5.1c0,0.1,0,0.2,0,0.3c0,0.1,0.1,0.1,0.1,0.1c0,0,0,0,0,0
	c0,0.1,0.1,0.2,0.2,0.2c0.2,0.2,0.6,0.1,0.8,0.1c0.2-0.1,0.5-0.4,0.5-0.6c0-0.1,0-0.2-0.1-0.3c0.1-0.7,0.3-1.3,0.6-1.8
	c0,0,0.1,0.1,0.1,0.1c0,0.1,0,0.2,0,0.3c-0.2,0.3-0.5,0.8-0.6,1.3c0,0.1,0,0.1,0.1,0.1c0.1,0,0.1,0,0.2-0.1c0.2-0.2,0.3-0.5,0.4-0.8
	c0.1,0.6,0.5,1.4,1.1,1.8c0.1,0,0.1,0,0.2,0c0.1,0,0.1-0.1,0-0.2c-0.1-0.2-0.2-0.4-0.3-0.6c-0.1-0.2-0.3-0.4-0.4-0.7
	c0.1,0.1,0.3,0.2,0.4,0.2l0.1,0c0.3,0.2,0.6,0.3,1,0.4c0.1,0,0.1,0,0.2-0.1c0-0.1,0-0.1-0.1-0.2c-0.2-0.1-0.4-0.3-0.7-0.4
	c-0.1,0-0.2-0.1-0.3-0.2c-0.1-0.1-0.2-0.1-0.3-0.2C19,4.1,18.8,4,18.7,3.9c0-0.2-0.1-0.3-0.1-0.5C19,3.7,19.8,4,20.4,3.8
	c0.1,0,0.2-0.1,0.3-0.2C21,4,21.3,4.3,21.3,4.8c0,0.7-0.6,1-1.1,1.2c-0.7,0.2-1.4,0.2-2.1,0.1l-0.2,0C17,6.1,15.7,6,14.8,6.6
	c-0.1-0.5-0.2-1-0.5-1.5c0.1-0.2,0.2-0.4,0.3-0.6C14.8,4.2,15,4,15.1,3.7C15,4.1,15,4.5,15.2,4.9c0,0.1,0.1,0.1,0.2,0.1
	c0.1,0,0.1-0.1,0.1-0.1c0-0.2,0-0.3,0-0.5c0-0.2,0-0.4,0.1-0.6c0.1-0.3,0.2-0.7,0.4-1.1c0.2-0.2,0.4-0.4,0.6-0.6
	c0.1,0.1,0.2,0.2,0.3,0.2C16,3.2,15.8,4.2,16,5.1z M9.5,13.1c0,0.1-0.1,0.2-0.1,0.2c0,0.1,0,0.1,0.1,0.2c0,0,0.1,0,0.2,0
	c0.1-0.1,0.2-0.2,0.3-0.3l0.1-0.1c0,0,0,0,0.1-0.1c0,0.1,0,0.1,0.1,0.2c0,0,0,0-0.1,0c-0.1,0-0.1,0-0.1,0.1c0,0,0,0,0,0.1
	c0,0.1-0.1,0.2-0.1,0.3c-0.4-0.2-0.8-0.3-1.2-0.6C8.9,13.2,9.2,13.2,9.5,13.1z M10.2,13.6C10.2,13.6,10.2,13.6,10.2,13.6
	c0.2,0.2,0.5,0.5,0.9,0.6c-0.3-0.1-0.7-0.2-1-0.4C10.1,13.8,10.1,13.7,10.2,13.6z M11.3,9.8c0-0.2,0-0.3,0-0.5c0-0.4,0.1-0.7,0.2-1
	c0.7,0.2,1.5,0.4,2.2,0.1c-0.3,0.7-0.2,1.5,0.2,2.3c-0.8,0.1-1.7-0.1-2.2-0.4C11.4,10.2,11.3,10.2,11.3,9.8z M22.4,8.1
	c0-0.1,0.2-0.1,0.5-0.1c0.4,0,0.6,0.4,0.9,0.8c0.3,0.4,0.6,0.9,1.2,1c0.6,0.1,1.2-0.1,1.6-0.5l0.2-0.1c0,0,0,0,0,0
	c0,0.4,0,0.7-0.2,1.1c-0.2,0.3-0.5,0.7-0.9,1c-0.8,0.6-1.4,0.6-2.5,0.5c0.3-0.1,0.5-0.2,0.6-0.5c0.2-0.3,0.1-0.6,0-1
	c-0.2-0.4-0.4-0.7-0.7-1C22.4,8.5,22.4,8.3,22.4,8.1z M21.5,13.1c0,0.1-0.1,0.1-0.1,0.2c0,0,0,0,0,0c0-0.1,0-0.1,0-0.2
	C21.4,13.1,21.5,13.1,21.5,13.1z M23.5,11C23.5,11,23.4,11,23.5,11c0,0-0.1,0-0.1-0.1c0,0-0.1-0.1-0.1-0.1c-0.1-0.1-0.2-0.3-0.3-0.4
	l0,0c0,0,0,0,0-0.1c0,0,0,0,0,0l0,0c0,0.1,0.1,0.2,0.1,0.3l0,0.1C23.3,10.8,23.3,10.9,23.5,11C23.5,11,23.5,11,23.5,11z M27.5,6.1
	c0,0.1-0.1,0.2-0.1,0.2c0,0,0,0.1-0.1,0.1c0,0,0,0,0,0.1c0,0,0-0.1,0-0.1l0,0C27.3,6.3,27.4,6.2,27.5,6.1L27.5,6.1
	C27.5,6.1,27.5,6.1,27.5,6.1C27.5,6,27.5,6,27.5,6.1C27.5,6.1,27.5,6.1,27.5,6.1z M18.2,10.1C18.2,10.1,18.2,10.1,18.2,10.1
	C18.2,10.1,18.2,10.1,18.2,10.1C18.2,10.1,18.2,10.1,18.2,10.1z M17.4,12.4c0.1,0.1,0.1,0.1,0.2,0.2c0.2,0.6,0.7,1.3,1.4,1.4
	c0.1,0,0.1,0,0.2-0.1c0-0.1,0-0.1,0-0.2c-0.1-0.1-0.2-0.2-0.3-0.3c-0.1-0.1-0.3-0.2-0.4-0.3c0,0,0,0,0,0c0.5,0.3,1.3,0.6,2,0.5
	c0.1,0,0.1-0.1,0.1-0.1c0-0.1,0-0.1-0.1-0.2c-0.2-0.1-0.5-0.2-0.7-0.2c-0.3-0.1-0.6-0.1-0.8-0.3c-0.1,0-0.2-0.1-0.3-0.1
	c0.4,0,0.8,0,1.1,0c0.1,0,0.1-0.1,0.1-0.1c0-0.1,0-0.1-0.1-0.1c-0.4-0.1-0.9-0.1-1.4-0.1c0.5-0.1,1.2-0.4,1.5-0.9
	c0.1,0.1,0.2,0.2,0.3,0.3c0.6,0.7,1.2,1.3,1.1,2.3c-0.2,0-0.4,0-0.6,0.1c-0.6,0.1-1.2,0.1-1.8,0c-0.8-0.1-1.5-0.5-2.1-0.9
	c0.1-0.3,0.2-0.5,0.2-0.8C16.9,12.4,17.2,12.4,17.4,12.4z M19.9,10.5c0-0.1-0.1-0.1-0.2-0.1l0,0c-0.1-0.2-0.4-0.4-0.6-0.5l-0.1-0.1
	c-0.3-0.2-0.6-0.4-0.9-0.5c0.1-0.2,0.2-0.3,0.3-0.4c0.3,0.1,0.6,0.2,0.9,0.3c0.1,0.7,0.7,1.4,1.3,1.5c0.1,0,0.1,0,0.2-0.1
	c0-0.1,0-0.1-0.1-0.2c-0.4-0.2-0.6-0.4-0.8-0.7c-0.1-0.1-0.1-0.2-0.2-0.3c0.2,0.1,0.3,0.2,0.5,0.3c0.3,0.2,0.6,0.5,0.8,0.7
	c0.2,0.2,0.4,0.4,0.6,0.5c0.1,0,0.1,0,0.2,0c0.1,0,0.1-0.1,0-0.2c-0.3-0.6-0.9-1.2-1.7-1.6c0.3,0,0.6,0,0.9,0c0,0,0,0,0,0
	c0.1,0,0.1,0,0.1-0.1c0-0.1,0-0.1-0.1-0.2c-0.5-0.2-1.2-0.2-1.8-0.1c-0.3-0.1-0.6-0.2-0.9-0.2c0-0.1,0.1-0.1,0.1-0.2
	C19,8.2,19.1,8,19.1,7.7c0,0,0,0,0.1,0c1.3,0.2,3,1.2,3.4,2.5c0.2,0.5,0.2,1.1,0,1.5c0,0.1,0,0.1-0.1,0.2c0,0,0,0.1,0,0.1
	c-0.2,0.4-0.7,0.5-1.2,0.6c-0.3-0.7-0.9-1.3-1.4-1.6c0-0.1,0.1-0.2,0.1-0.3c0,0,0,0,0-0.1C20,10.6,20,10.5,19.9,10.5z M27.2,10.2
	c0,0.1,0,0.3-0.1,0.4l-0.2,0l0.1,0c-0.1,0.6-0.5,1.1-1,1.4c-1.1,0.8-2.2,0.5-3,0c0.4,0.1,0.7,0.2,1,0.2c0.7,0,1.3-0.2,1.9-0.7
	c0.3-0.2,1-0.9,1.2-1.6C27.1,10,27.2,10.1,27.2,10.2z M22.7,12.5c0.3,0.3,0.7,0.5,1.2,0.6c0.9,0.1,2-0.1,2.6-0.6
	c0.5-0.4,0.8-0.9,1-1.4c0.1,0,0.1,0.1,0.2,0.1c0.1,0,0.1,0.1,0.2,0.1c0.3,0.1,0.5,0.3,0.5,0.5c0,0.2-0.1,0.5-0.4,0.8
	c-0.5,0.6-1.1,0.9-2,1.2c-1.8,0.5-3.1,0.3-4-0.7C22.3,12.8,22.5,12.7,22.7,12.5z M28.3,10.9c0.1,0,0.2,0,0.3,0c0,0,0,0.1,0,0.1l0,0
	c0,0,0,0,0,0C28.5,11,28.4,10.9,28.3,10.9z M27.6,10.6L27.6,10.6c0.1-0.8-0.1-1.5-0.6-2.2c0,0-0.1-0.1-0.1-0.1c0,0,0,0-0.1,0
	c-0.2-0.2-0.5-0.2-0.9-0.1c0.2-0.2,0.4-0.4,0.6-0.5c0.1,0,0.2,0,0.3,0c0.2,0,0.4,0,0.6-0.1c0,0.1-0.1,0.2-0.1,0.3c0,0,0,0.1,0,0.1
	c0,0,0.1,0.1,0.1,0.1c0.5,0.2,1,0.1,1.4-0.2c0.4,0.2,0.7,0.4,0.9,0.7c0.3,0.5,0,1.1-0.3,1.5c-0.4,0.3-0.9,0.4-1.4,0.4
	C28,10.6,27.8,10.6,27.6,10.6C27.6,10.6,27.6,10.6,27.6,10.6z M26.5,8.8C26.5,8.8,26.5,8.8,26.5,8.8c-0.1,0-0.1-0.1-0.1-0.2
	c0,0,0.1,0,0.1,0C26.5,8.6,26.5,8.7,26.5,8.8C26.5,8.7,26.5,8.7,26.5,8.8L26.5,8.8z M25.4,9.1L25.4,9.1c-0.1-0.1-0.1-0.2-0.2-0.3
	c0,0,0,0,0,0c0,0,0.1,0,0.1,0l0,0c0,0,0,0.1,0.1,0.1l0.1,0.2c0,0,0,0.1,0,0.1c0,0.1,0.1,0.1,0.1,0.2c0,0-0.1,0-0.1,0
	C25.5,9.3,25.4,9.2,25.4,9.1z M25.9,9L25.9,9C26,9.1,26,9.2,26.1,9.2c0,0-0.1,0.1-0.1,0.1c0-0.1-0.1-0.2-0.1-0.3l0,0l0,0
	c-0.1-0.1-0.1-0.2-0.2-0.3c0,0,0.1,0,0.1,0C25.8,8.8,25.9,8.9,25.9,9z M24.9,9C25,9.1,25,9.1,25,9.2l0,0.1c0,0.1,0.1,0.1,0.1,0.2
	c0,0-0.1,0-0.1,0c0-0.1-0.1-0.2-0.1-0.3c0-0.1-0.1-0.1-0.1-0.2C24.8,9,24.9,9,24.9,9z M14.9,8.7C14.9,8.6,14.9,8.6,14.9,8.7
	c0.1-0.2,0.2-0.2,0.3-0.3c0,0,0,0,0,0c0,0,0,0,0,0C15.1,8.5,15,8.6,14.9,8.7C14.9,8.7,14.9,8.7,14.9,8.7C14.9,8.7,14.9,8.7,14.9,8.7
	z M15.2,8.8L15.2,8.8c0.1-0.1,0.1-0.2,0.2-0.3c0,0,0,0,0,0c0,0-0.1,0.1-0.1,0.1C15.3,8.8,15.3,8.8,15.2,8.8
	C15.2,8.9,15.2,8.9,15.2,8.8C15.2,8.9,15.2,8.8,15.2,8.8z M24.5,9.2c0,0,0.1,0.1,0.1,0.1C24.6,9.2,24.5,9.2,24.5,9.2
	C24.5,9.2,24.5,9.2,24.5,9.2z M26.8,8.9C26.8,8.9,26.9,8.9,26.8,8.9c0,0-0.1,0.1-0.1,0.1c0,0.1,0,0.1,0,0.2l-0.2,0
	C26.7,9.1,26.8,9,26.8,8.9z M20.6,7.4c-0.1,0.1-0.1,0.2-0.2,0.3c-0.2-0.1-0.4-0.1-0.6-0.2c0.2-0.1,0.4-0.2,0.6-0.4
	c0.1-0.1,0.3-0.2,0.4-0.3C20.8,7,20.7,7.2,20.6,7.4z M20.2,6.8c-0.3,0.2-0.6,0.3-0.9,0.4c-0.1,0-0.2,0.1-0.2,0.1
	c-0.1-0.2-0.3-0.4-0.7-0.6c-0.7-0.3-1.2,0.3-1.5,0.8c-0.1,0.1-0.1,0.2-0.2,0.3c-0.1,0.2-0.3,0.5-0.5,0.7c-0.2-0.2-0.5-0.4-0.7-0.6
	c-0.2-0.1-0.4-0.2-0.7-0.3c0.1-0.2,0.1-0.5,0.1-0.8c0.9-0.5,1.9-0.5,3-0.4c0.9,0.1,1.9,0.1,2.8-0.2c0,0,0,0,0,0
	C20.5,6.5,20.4,6.7,20.2,6.8z M15.5,9.3c0.8-0.1,1.1-0.6,1.4-1.2c0.1-0.2,0.3-0.5,0.5-0.7c0.2-0.2,0.7-0.3,1-0.2
	c0.2,0.1,0.3,0.3,0.3,0.6c0,0.2-0.2,0.4-0.4,0.6c-0.1,0.1-0.1,0.2-0.2,0.2c-0.2,0.3-0.5,0.8-0.5,1.3c0.1,0.9,1.1,0.9,1.8,0.9
	c-0.8,1.1-2.3,1.4-3.7,0.9c-0.7-0.3-1.3-0.8-1.5-1.4c-0.2-0.5-0.2-1.1,0-1.8c0,0.1,0.1,0.2,0.2,0.4C14.6,9.2,15,9.3,15.5,9.3z
	 M31.1,7.4c-0.4,0.5-0.6,1-0.8,1.4c0-0.2-0.1-0.4-0.2-0.6c0.2-0.3,0.4-0.8,0.5-1.1l0-0.1C30.9,7.1,31,7.3,31.1,7.4
	C31.1,7.4,31.1,7.4,31.1,7.4z M26.8,6.3c0,0.1,0.1,0.2,0.1,0.4c0,0.2,0.1,0.4,0.2,0.6c-0.2,0-0.3,0-0.5,0c-0.5-0.2-1.3-0.3-1.8-0.1
	c-0.1,0-0.1,0.1-0.1,0.2c0,0.1,0.1,0.1,0.1,0.1c0.3,0,0.5,0,0.8,0.1c-0.5,0.1-0.9,0.4-1.3,0.6c-0.1,0-0.1,0.1,0,0.2
	c0,0.1,0.1,0.1,0.2,0.1l0.2-0.1C25,8.1,25.4,8,25.8,7.9c-0.2,0.2-0.4,0.3-0.5,0.5c-0.4,0.1-0.8,0.2-1.1,0.6
	c-0.1-0.1-0.2-0.3-0.3-0.4c-0.1-0.1-0.1-0.2-0.2-0.3c0,0-0.1-0.1-0.1-0.1C23.7,7.5,24,7,24.5,6.5c0.4-0.4,1.1-0.9,1.6-0.8
	c0.3,0,0.5,0.2,0.6,0.5C26.7,6.2,26.7,6.3,26.8,6.3z M22.9,9.9c-0.1-0.1-0.1-0.3-0.2-0.4c0,0,0,0,0.1,0.1
	C22.8,9.7,22.9,9.8,22.9,9.9C22.9,9.9,22.9,9.9,22.9,9.9z M21.2,8.1c0.2,0.1,0.5,0.2,0.7,0.2c0,0.1,0,0.3,0.1,0.5
	C21.8,8.5,21.5,8.3,21.2,8.1z M20.8,7.8C20.8,7.8,20.8,7.8,20.8,7.8C20.8,7.8,20.8,7.8,20.8,7.8C20.8,7.8,20.8,7.8,20.8,7.8z
	 M14.1,11c0.1,0.1,0.1,0.2,0.2,0.2c-0.1,0-0.2,0.1-0.2,0.1c0,0,0,0,0,0c-0.9-0.2-2,0.1-2.7,0.7c0,0-0.1,0.1,0,0.2
	c0,0.1,0.1,0.1,0.2,0.1c0.1,0,0.2-0.1,0.3-0.1c0.3-0.1,0.6-0.3,0.9-0.3c0.3-0.1,0.6-0.1,0.9-0.1c-0.5,0.4-1.1,0.9-1.4,1.5
	c0,0.1,0,0.1,0,0.2c0.1,0,0.1,0,0.2,0c0.1-0.1,0.3-0.3,0.4-0.4c0.2-0.2,0.4-0.4,0.6-0.6c0.2-0.2,0.3-0.3,0.5-0.4c0,0,0,0,0,0
	c0,0.1,0.1,0.3,0.1,0.4c0,0.1,0,0.1,0,0.2c0,0.1,0,0.2,0,0.3c0,0.1,0.1,0.1,0.1,0.1c0.1,0,0.1,0,0.2-0.1c0.2-0.4,0.1-0.9-0.1-1.2
	c0.1-0.1,0.2-0.1,0.3-0.2c0.3,0.3,0.6,0.5,0.9,0.6c0.2,0.1,0.6,0.2,0.9,0.3c-0.3,0.9-0.8,1.4-1.8,1.6c-0.7,0.2-1.5,0.2-2.4,0.1
	c-0.8-0.1-1.3-0.3-1.6-0.7c-0.2-0.3-0.2-0.6-0.1-1c0.2-0.8,0.8-1.3,1.7-1.5c0.2,0.1,0.4,0.1,0.5,0.1C13.2,11.1,13.7,11.2,14.1,11z
	 M15.1,14.3c0.1,0,0.1,0,0.2-0.1c0,0,0,0,0,0c-0.1,0.1-0.2,0.2-0.2,0.4c0,0,0,0.1,0.1,0.1c0,0,0.1,0,0.1,0c0.2,0,0.3-0.2,0.4-0.3
	l0-0.1c0.1-0.1,0.2-0.3,0.3-0.5c0,0,0,0,0-0.1c0.1-0.1,0.3-0.2,0.4-0.3c0.1,0.1,0.1,0.1,0.2,0.2c0,0.1-0.1,0.2-0.1,0.2
	c-0.1,0.1-0.1,0.2-0.2,0.4c0,0.1,0,0.1,0,0.2c0,0,0.1,0.1,0.2,0c0.2-0.1,0.3-0.3,0.4-0.6c0.2,0.1,0.5,0.3,0.7,0.4c0,0,0,0,0,0.1
	c0,0.1-0.1,0.2-0.1,0.3c0,0,0,0.1,0.1,0.1c0,0,0.1,0,0.1,0c0.1-0.1,0.1-0.1,0.2-0.2l0,0c0,0,0-0.1,0-0.1c0.2,0.1,0.5,0.1,0.7,0.2
	c0,0.1,0,0.2,0,0.3c0,0,0,0.1,0.1,0.1c0,0,0.1,0,0.1,0c0.1-0.1,0.2-0.2,0.2-0.3c0.6,0.1,1.5,0,2.2-0.4c0,0,0.1-0.1,0.1-0.1
	c0,0,0,0,0,0c0-0.1,0-0.1,0.1-0.2c0,0,0,0,0,0c0.2-0.1,0.4-0.4,0.5-0.7c0.1,0.1,0.2,0.2,0.3,0.3c0,0,0,0,0,0c0,0.1-0.1,0.2-0.1,0.3
	l0,0.1c0,0.1-0.1,0.2-0.1,0.2c0,0.1,0,0.1,0.1,0.2c0,0,0.1,0,0.1,0c0.2-0.1,0.3-0.2,0.4-0.5c0.2,0.2,0.5,0.3,0.9,0.4
	c0,0.1-0.1,0.2-0.1,0.2c0,0.1,0,0.1,0.1,0.1c0,0,0.1,0,0.1,0c0,0,0.1-0.1,0.1-0.1l0-0.1c0-0.1,0-0.1,0.1-0.1c0,0,0,0,0,0
	c0.7,0.1,1.5,0,2.3-0.2c-1,0.3-2,0.5-2.8,0.6c-3.1,0.5-7.4,0.9-11.6-0.3C12.8,14.7,14,14.6,15.1,14.3z M30,12
	c-1,0.9-2.2,1.5-3.4,1.9c0.1,0,0.2-0.1,0.3-0.1c0.7-0.3,1.7-1,1.9-1.8c0-0.2,0-0.4-0.1-0.6c0.1-0.2,0.2-0.4,0.2-0.5
	c0.1,0,0.3-0.1,0.4-0.1c0,0.1-0.1,0.2-0.1,0.3l-0.1,0.2c-0.1,0.1-0.1,0.3-0.1,0.5c0,0.1,0,0.1,0.1,0.2c0,0,0,0,0.1,0
	c0,0,0.1,0,0.1-0.1l0,0c0.2-0.2,0.3-0.6,0.4-0.9c0-0.1,0-0.1,0-0.2c0-0.1,0-0.1-0.1-0.2c0.2-0.2,0.4-0.4,0.6-0.7
	c0-0.1,0.1-0.2,0.1-0.3c0,0,0,0,0,0c0,0,0.1,0,0.1-0.1c0.2-0.3,0.4-0.7,0.5-1c0.1-0.2,0.2-0.5,0.3-0.7c0.3,0.4,0.5,0.8,0.5,1.2
	C31.9,9.9,31.3,11,30,12z M30.4,6.8c0,0.1-0.1,0.1-0.1,0.2c-0.2,0.3-0.3,0.6-0.5,1c-0.1-0.1-0.2-0.1-0.3-0.2
	c0.1-0.1,0.1-0.2,0.1-0.3l0-0.1c0-0.1,0.1-0.3,0.1-0.4c0-0.1,0-0.1-0.1-0.1l0,0c0.1-0.1,0.1-0.3,0.1-0.4C30,6.5,30.2,6.6,30.4,6.8z
	 M29.4,5.4c0.1,0.5,0.1,1.1-0.2,1.6v0c-0.1,0.3-0.3,0.5-0.5,0.7c-0.1,0.1-0.6,0.2-0.8,0.2c0,0,0,0,0,0c0,0,0,0,0,0
	c0-0.1,0.1-0.4,0.1-0.5c0-0.2,0.1-0.3,0.1-0.3c0-0.3,0.1-0.7-0.1-1c-0.1-0.2-0.2-0.3-0.4-0.4c-0.2,0-0.4,0-0.6,0.2c0,0,0,0,0,0
	c0.2-0.2,0.3-0.6,0.2-0.8c-0.1-0.3-0.4-0.6-0.7-0.7l-0.1-0.1l0,0.1c0,0-0.1,0-0.1,0c0,0,0,0-0.1,0c0.7-0.3,1.5-0.3,2.1-0.1
	C28.9,4.4,29.2,4.8,29.4,5.4z M20.7,2.9c0,0.2-0.1,0.3-0.2,0.4c0-0.3-0.1-0.6-0.3-0.9c-0.4-0.5-1-0.7-1.4-0.5
	c-0.5,0.2-0.8,0.7-1.1,1.2c-0.3,0.6-0.4,1.1-0.5,1.7c-0.2-0.1-0.6-0.1-0.9,0c0-0.6,0.1-1.1,0.4-1.6C17,2.7,17.3,2.4,17.7,2
	c0.2-0.2,0.3-0.3,0.4-0.5c0,0,0-0.1,0-0.1c0,0,0-0.1,0-0.1c-0.1-0.2-0.2-0.4-0.5-0.4c-0.2-0.1-0.5-0.1-0.8,0
	c0.4-0.3,0.8-0.4,1.3-0.4c0.5,0,1.3,0.1,1.9,0.7C20.5,1.5,20.8,2.3,20.7,2.9z M9.5,3.4c0.2,0.5,0.5,1,0.9,1.5c0,0.7,0.5,1.8,1.1,2.2
	c0.1,0,0.1,0,0.2,0c0.1,0,0.1-0.1,0-0.2c-0.1-0.2-0.2-0.4-0.3-0.5c-0.1-0.2-0.2-0.3-0.3-0.5c0-0.1-0.1-0.2-0.1-0.3
	c0.5,0.5,1.2,1.1,1.9,1.6c0.1,0,0.1,0,0.2,0c0,0,0.1-0.1,0-0.2c-0.4-0.5-0.8-0.9-1.3-1.3c-0.2-0.2-0.3-0.3-0.5-0.5
	c0,0-0.1-0.1-0.1-0.1c0.1,0,0.1,0,0.2,0.1C12,5.3,12.6,5.6,13.1,6c0.1,0,0.1,0,0.2,0c0.1,0,0.1-0.1,0-0.2c-0.4-0.7-1.4-1-2.2-1.1
	c-0.1,0-0.3-0.1-0.4-0.1c0,0,0,0,0,0c-0.3-0.4-0.6-0.8-0.9-1.3c1.3,0,2.6,0.4,3.4,1.2c0.8,0.7,1.3,2,1.1,3.1c0,0-0.1,0-0.1,0.1
	c-0.1,0.1-0.1,0.1-0.1,0.2c-0.2,0-0.4,0.1-0.5,0.1c-0.4,0.1-0.7,0.2-1.1,0.1c-0.4,0-0.8-0.2-1.3-0.3L11,7.7c-0.1-0.4-0.4-0.7-0.7-1
	C10,6.5,9.8,6.4,9.4,6.4C9,5.4,9.2,4.5,9.5,3.4z M10.2,9.2c0-0.3-0.2-0.6-0.4-0.7c-0.3-0.2-0.7-0.2-1,0c0,0,0,0-0.1,0
	c-1,0.7-2.1,1-2.9,0.7C5.5,9.1,5.4,8.9,5.3,8.7c0-0.2,0.1-0.3,0.4-0.4c0.2-0.1,0.4-0.1,0.6-0.1l0.1,0c0.1,0,0.1,0,0.2,0
	c0.3,0,0.7,0,1-0.2c0.2-0.1,0.5-0.4,0.6-0.7c0-0.1,0-0.3-0.1-0.4C8,7,8,6.9,7.9,6.9c0.4-0.1,0.8-0.1,1.2-0.1
	c0.7,0.1,1.1,0.3,1.4,0.7c0.2,0.3,0.3,0.8,0.1,1.1c-0.1,0.1-0.2,0.2-0.3,0.4C10.2,9.1,10.2,9.1,10.2,9.2z M11.1,8.1
	c0,0,0.1,0,0.1,0.1c-0.1,0.1-0.1,0.2-0.2,0.3C11.1,8.4,11.1,8.3,11.1,8.1z M16.3,1.9c-0.2,0.1-0.4,0.3-0.6,0.5
	c-0.8-0.2-1.7,0-2.3,0.5c-0.1,0-0.1,0.1,0,0.2c0,0.1,0.1,0.1,0.2,0.1l0.1-0.1c0.3-0.1,0.6-0.3,1-0.4c0.3-0.1,0.5-0.1,0.8-0.1
	c-0.6,0.7-1.1,1.4-1.3,2.1c-0.1-0.2-0.2-0.3-0.3-0.4c-0.4-0.4-0.8-0.7-1.4-1c0-0.9-0.1-2.1,1-2.5c0.8-0.3,1.5,0,2.3,0.3
	c0.1,0,0.2,0.1,0.3,0.1c0,0.1,0,0.1,0.1,0.2c0,0,0,0,0,0c0,0,0,0,0,0.1C16.2,1.7,16.2,1.8,16.3,1.9z M12,3.2C11.2,3,10.4,2.9,9.6,3
	c0,0-0.1,0-0.1,0c0,0,0,0-0.1,0C9.3,3,9.3,3,9.2,3.1C8.9,4,8.4,5.3,8.9,6.3C8,6.3,7.1,6.6,6.5,7.2c0,0-0.1,0-0.1,0.1
	c0,0,0,0.1,0,0.1c0,0,0,0.1,0,0.1c0,0,0,0,0.1,0c0.1,0.1,0.2,0.3,0.4,0.3c0,0,0,0,0,0C6.7,7.7,6.7,7.7,6.6,7.6l0,0
	C6.4,7.5,6.2,7.4,6.1,7.4c-0.1,0-0.1,0-0.2,0.1c0,0.1,0,0.1,0,0.2c0.1,0.1,0.2,0.2,0.3,0.2c0,0-0.1,0-0.1,0C5.8,7.9,5.3,8,5.1,8.3
	C4.9,8.5,4.9,8.6,4.9,8.9C5,9.3,5.4,9.6,6.3,9.7c0.5,0,1,0,1.4-0.2c0,0,0.1,0.1,0.1,0.1c-0.1,0.7,0,1.7,0.6,2.3c0,0,0.1,0.1,0.2,0
	c0.1,0,0.1-0.1,0.1-0.2c0-0.1-0.1-0.2-0.2-0.4c-0.1-0.2-0.2-0.4-0.2-0.6c-0.1-0.3-0.1-0.6-0.1-0.8c0,0,0,0,0,0
	c0.1,0.1,0.2,0.2,0.4,0.3c0.1,0.1,0.2,0.3,0.3,0.4c0.2,0.3,0.4,0.5,0.7,0.7c0,0,0.1,0,0.2,0c0,0,0.1-0.1,0-0.2
	c-0.2-0.4-0.5-0.8-0.8-1.1l-0.1-0.1C8.8,10,8.7,9.9,8.7,9.9c0.1,0,0.2,0,0.3,0.1c0.2,0.1,0.3,0.1,0.5,0.2c0.1,0.1,0.3,0.1,0.5,0.2
	c0.1,0,0.1,0,0.2-0.1c0-0.1,0-0.1,0-0.2C9.6,9.6,8.8,9.4,8.2,9.4c0,0,0,0-0.1-0.1C8.3,9.2,8.5,9.1,8.7,9c0.3,0.3,1,0.8,1.5,0.6
	c0,0,0,0,0,0c0,0,0,0,0,0c0.3-0.2,0.6-0.4,0.7-0.7C11,9,10.9,9.2,10.9,9.4c0,0.3-0.1,0.9,0.2,1.1c0.1,0.1,0.2,0.1,0.4,0.2
	c-0.6,0.2-1,0.7-1.3,1.3c-0.1,0.2-0.1,0.4-0.2,0.5c0,0-0.1,0.1-0.1,0.1c-0.4,0-0.7,0-1.1,0c-1.3,0-2.4,0-3.5-0.8
	c-0.7-0.5-1.2-1.4-1.1-2.1c0-0.9,0.7-1.6,1.3-2.2c0,0,0.1,0,0.1,0c0,0,0.1-0.1,0-0.1C5.4,6.4,5.5,5.7,5.9,4.9
	c0.2-0.3,0.4-0.6,0.7-0.8c0,0,0,0,0,0C6.5,4.3,6.4,4.4,6.3,4.5c0,0.1-0.1,0.1-0.1,0.2C5.6,5.5,5.3,6.6,6.1,7.2c0.1,0.1,0.2,0,0.2,0
	C6.4,7.1,6.4,7,6.3,7C5.7,6.1,6.1,5.5,6.6,4.9c0.2-0.3,0.4-0.6,0.6-1c0-0.1,0-0.1,0-0.2c0-0.1-0.1-0.1-0.2-0.1
	C6.3,3.8,5.6,4.4,5.3,5.2C5,5.9,4.9,6.7,5.2,7.2C4.5,7.7,3.9,8.5,3.8,9.4c-0.1,0.8,0.1,1.5,0.6,2.1c0.7,0.9,2,1.5,3.6,1.6
	c0,0,0,0.1,0.1,0.1c3.2,2.1,7.3,2.8,13.1,2.2c2.1-0.2,4.4-0.5,6.6-1.4c1.2-0.5,3.5-1.7,4.3-3.7c0.9-2.2-0.9-3.7-2.1-4.4
	c0-0.2,0-0.4-0.1-0.5c-0.2-0.8-0.8-1.5-1.7-1.8c-0.8-0.2-1.7-0.1-2.2,0.5c-0.1,0-0.2,0-0.2-0.1c-0.1,0-0.3-0.1-0.4-0.1
	c-0.6-0.2-0.7-0.5-1-1c0-0.1-0.1-0.2-0.2-0.3c2.5,0.2,6.1,0.7,8.8,2.7c1.5,1.1,2.5,2.6,2.6,4.1c0.1,1.4-0.5,2.7-1.8,3.9
	c-2,1.8-4.7,2.6-7.3,3.3c-2.2,0.5-4.4,0.8-6.7,0.9c-1.9,0-3.8,0-5.7-0.1l-0.4,0c-1.6-0.1-3.3-0.2-4.8-0.7c-0.4-0.2-0.9-0.3-1.3-0.5
	c-0.5-0.2-1.1-0.4-1.6-0.6c-1.1-0.5-2.1-1.1-2.9-1.8c-1.1-0.9-3.5-3.4-2-6.5c2-4.1,7.7-5.1,11.2-5.7C11.9,2.2,11.9,2.7,12,3.2z"/>
</svg>
