<?xml version="1.0" encoding="utf-8"?>
<!-- Generator: Adobe Illustrator 19.0.1, SVG Export Plug-In . SVG Version: 6.00 Build 0)  -->
<svg version="1.1" id="Слой_1" xmlns="http://www.w3.org/2000/svg" xmlns:xlink="http://www.w3.org/1999/xlink" x="0px" y="0px"
	 viewBox="0 0 20.1 18.9" style="enable-background:new 0 0 20.1 18.9;" xml:space="preserve">
<style type="text/css">
	.st0{fill:#010202;}
</style>
<g>
	<g>
		<g>
			<path class="st0" d="M17.3,9h-0.7c-0.4,0-0.7,0.3-0.7,0.7v0.7c0,0.4,0.3,0.7,0.7,0.7h0.7c0.4,0,0.7-0.3,0.7-0.7V9.7
				C18,9.3,17.7,9,17.3,9z M17.5,10.4c0,0.1-0.1,0.1-0.1,0.1h-0.7c-0.1,0-0.1-0.1-0.1-0.1V9.7c0-0.1,0.1-0.1,0.1-0.1h0.7
				c0.1,0,0.1,0.1,0.1,0.1V10.4z"/>
		</g>
	</g>
	<g>
		<g>
			<path class="st0" d="M19.6,7.6c-0.2-0.2-0.5-0.3-0.8-0.3h-0.6V3.6c0-0.3-0.1-0.5-0.3-0.7s-0.5-0.3-0.7-0.3h-1V0.7
				c0-0.4-0.3-0.7-0.7-0.7H4.4C4,0,3.7,0.3,3.7,0.7v1.9h-1l0,0c-0.6,0-1,0.5-1,1v3.6H1.1l0,0C0.5,7.2,0,7.7,0,8.3v7.6
				C0,16.5,0.5,17,1.1,17h2.5l-0.5,1.3c-0.1,0.1,0,0.3,0.1,0.4s0.2,0.2,0.4,0.2h12.9l0,0c0.2,0,0.3-0.1,0.4-0.2
				c0.1-0.1,0.1-0.3,0.1-0.4L16.5,17H19l0,0c0.6,0,1.1-0.5,1.1-1.1V8.3C19.9,8,19.8,7.8,19.6,7.6z M16.2,3.1L16.2,3.1h1
				c0.1,0,0.2,0,0.3,0.1s0.1,0.2,0.1,0.3v3.7h-1.5L16.2,3.1L16.2,3.1z M4.2,0.6c0-0.1,0.1-0.2,0.2-0.2h11.1c0.1,0,0.2,0.1,0.2,0.2
				v6.6H4.3V0.6H4.2z M2.2,3.5c0-0.2,0.2-0.4,0.4-0.4l0,0h1v4.1H2.2V3.5z M2.8,16.3V15c0-0.1,0.1-0.2,0.2-0.2l0,0h1.2l-0.3,0.7
				l-0.3,0.8l0,0H2.8z M3.6,18.3l0.6-1.6l0,0l0.7-1.9H15l0.7,1.9l0,0l0.6,1.6H3.6z M17,16.4h-0.9L16,16.1l-0.4-1.2h1.2h0.1V15
				L17,16.4z M19.3,15.9c0,0.3-0.2,0.5-0.5,0.5l0,0h-1.2v-1.3c0-0.2-0.1-0.4-0.2-0.5c-0.1-0.1-0.3-0.2-0.5-0.2h-1.6l0,0H4.8l0,0l0,0
				H3.2l0,0c-0.4,0-0.7,0.3-0.7,0.7v1.3H1.3c-0.3,0-0.5-0.2-0.5-0.5V8.3C0.8,8,1,7.8,1.3,7.8l0,0h0.9l17,0.1c0.3,0,0.5,0.2,0.5,0.5
				L19.3,15.9z"/>
		</g>
	</g>
	<g>
		<g>
			<path class="st0" d="M11.7,4.6H5.8c-0.2,0-0.3,0.1-0.3,0.3s0.1,0.3,0.3,0.3h5.9c0.2,0,0.3-0.1,0.3-0.3S11.8,4.6,11.7,4.6z"/>
		</g>
	</g>
	<g>
		<g>
			<path class="st0" d="M14.1,4.6h-0.9c-0.2,0-0.3,0.1-0.3,0.3s0.1,0.3,0.3,0.3h0.9c0.2,0,0.3-0.1,0.3-0.3S14.3,4.6,14.1,4.6z"/>
		</g>
	</g>
	<g>
		<g>
			<path class="st0" d="M6.7,2.4H5.8c-0.2,0-0.3,0.1-0.3,0.3C5.5,2.9,5.6,3,5.8,3h0.9C6.9,3,7,2.9,7,2.7S6.8,2.4,6.7,2.4z"/>
		</g>
	</g>
	<g>
		<g>
			<path class="st0" d="M14.1,2.4H8.2C8,2.4,7.9,2.5,7.9,2.7C7.9,2.9,8,3,8.2,3h5.9c0.2,0,0.3-0.1,0.3-0.3S14.3,2.4,14.1,2.4z"/>
		</g>
	</g>
</g>
</svg>
