<svg xmlns="http://www.w3.org/2000/svg" viewBox="0 0 13.25 14.34">
    <path d="M12.84,1.32C10.61.09,3-.1,1.17,1.35-.13,2.36.41,11.64,1,13.06s4,1.61,6.15,1.61h.43c1.44,0,4.83-.25,5.38-1.62.61-1.53,1.07-11-.18-11.73m-.56,11.44c-.2.51-1.87,1.06-4.66,1.12-3.16.07-5.58-.53-5.85-1.14C1,11.09.94,2.64,1.66,2,3,.9,10.1.74,12.43,2c.62.81.51,9.09-.15,10.76"
          transform="translate(-0.38 -0.33)"/>
    <path d="M6.75,2.67A2.69,2.69,0,0,0,5.31,5.29c0,.41,0,.89.06,1.42h0A.79.79,0,0,0,5.41,8.3h.06c.13,1.82.28,3.57.29,3.69a.79.79,0,0,0,.79.72h.07a.79.79,0,0,0,.72-.86S7.18,10,7,8.13L8.36,8A.79.79,0,0,0,8.2,6.42l-1.25.13c0-.48,0-.92-.05-1.29a1.14,1.14,0,0,1,.55-1.17,1,1,0,0,1,.93,0,.79.79,0,0,0,1-1.23,2.53,2.53,0,0,0-2.63-.21"
          transform="translate(-0.38 -0.33)"/>
</svg>