<?xml version="1.0" encoding="utf-8"?>
<!-- Generator: Adobe Illustrator 21.0.0, SVG Export Plug-In . SVG Version: 6.00 Build 0)  -->
<svg version="1.1" id="Графика" xmlns="http://www.w3.org/2000/svg" xmlns:xlink="http://www.w3.org/1999/xlink" x="0px"
	 y="0px" viewBox="0 0 56 57" style="enable-background:new 0 0 56 57;" xml:space="preserve">
<g>
	<g>
		<path d="M13.7,16.6c-0.1-2.8-0.6-6.3-3.5-7.6C9.6,8.7,8.8,8.6,8.1,8.4c-1.5-0.6-2-2.2-1.4-3.7c0.6-1.4,3.2-1.5,3.7,0
			c0.2,0.7,0,1.6,0,2.3c0,0.2,0.1,0.4,0.3,0.4c0.9,0.2,1.7,0.2,2.5,0c0.1,0,0.3-0.2,0.3-0.3c0.2-1.5,0.2-3.3-0.4-4.7
			C12.6,1,11,0.4,9.6,0.2C5.5-0.6,3.2,1.7,2.7,5.6c-0.2,1.9-0.1,3.7,1.1,5.3c1.1,1.6,2.6,1.5,4.3,2c2.2,0.7,2.2,2.5,2,4.4
			c-0.1,0.8-0.1,2.2-0.5,2.9c-0.8,1.4-3.2,0.8-3.5-0.7c-0.2-1.2,0.2-2.6,0.4-3.8c0-0.3-0.1-0.6-0.4-0.6c-0.8,0-1.6,0-2.4-0.1
			c-0.2,0-0.5,0.1-0.6,0.3c-1,3.6-0.7,8.2,3.8,9.2C11.9,25.4,13.7,20.7,13.7,16.6c0-0.6-0.9-0.6-0.9,0c0,3.5-1.6,8.3-6.1,6.8
			c-3.6-1.1-3.5-5-2.7-7.9c-0.2,0.1-0.4,0.2-0.6,0.3c0.9,0.1,1.8,0.1,2.6,0.1c-0.1-0.2-0.3-0.4-0.4-0.6c-0.2,1.6-1.1,4.4,0.2,5.7
			c0.9,1,3.3,1.1,4.3,0.1c1.1-1.1,1.2-4.5,1-5.9c-0.3-2.6-2.3-3.1-4.5-3.6c-3.6-0.9-3.8-6-2.3-8.8c1-1.9,3.3-2.2,5.2-1.7
			c2.2,0.5,3,1.7,3.2,3.8c0,0.3,0.2,1.2,0,1.5c-0.2,0.3-0.7,0.5-1.1,0.4c-0.7-0.2-0.2,0.1-0.4-0.4c-0.3-0.9,0.3-1.9-0.3-2.7
			c-0.8-1.1-3.5-1.4-4.5-0.4C5.1,4.6,5.1,7.6,6.8,8.8c1.4,1,3.2,0.7,4.5,2.1c1.3,1.5,1.5,3.7,1.5,5.7C12.8,17.2,13.7,17.2,13.7,16.6
			z"/>
	</g>
	<g>
		<path d="M23.8,1.2c-0.9-0.2-1.9-0.2-2.8-0.2c-0.3,0-0.4,0.2-0.5,0.5c-0.1,2.1-0.2,4.2-0.3,6.3c0,0.2,0,0.5,0,0.7
			c0,0.1,0,0.2,0,0.3c0,0.7-0.6,1-1.8,0.9c-0.3-0.5,0-1.8,0-2.4c0.1-2,0.2-3.9,0.3-5.9c0-0.3-0.2-0.4-0.5-0.5
			c-0.8-0.1-1.5-0.2-2.3-0.2c-0.3,0-0.4,0.2-0.5,0.5c-0.2,2.1-0.3,4.2-0.4,6.2c0,1.5-0.2,3.2,0.5,4.6c0.9,1.9,3.7,1.9,5.4,1.3
			c-0.2-0.1-0.4-0.3-0.6-0.4c0,1.7-0.1,3.5-0.4,5.2c-0.1,0.5-0.1,1.1-0.2,1.6c-0.1,0.9-1,3.2-2.3,1.4c-0.4-0.6-0.1-1.6,0-2.3
			c0.1-1,0.2-1.9,0.4-2.9c0-0.1,0-0.3-0.1-0.4c-0.7-0.5-2.2-1.1-2.9-0.3c-0.8,0.8-0.7,3-0.8,4c-0.2,1.5-0.5,3.9,0.7,5.1
			c1,1,2.8,1.3,4.1,1.1c1.2-0.1,2.5-0.3,3.1-1.3c0.9-1.4,1.1-3.3,1.3-4.8c0.8-5.8,0.2-11.7,0.8-17.5c0.1-0.6-0.9-0.6-0.9,0
			c-0.6,6.5,0.4,13.5-1.2,19.9c-0.2,0.7-0.4,1.8-1,2.3c-1,0.8-3.1,0.7-4.2,0.3c-2.9-1-1.9-5.2-1.4-7.6c0.1-0.5,0-0.7,0.5-1
			c0.4,0.1,0.7,0.1,1.1,0.1c0,0.2-0.1,0.4-0.1,0.6c0,1-0.3,2.1-0.4,3c-0.2,1.1-0.1,2.3,1,2.9c1.1,0.7,2.5,0.1,3-1
			c0.4-1,0.4-2.1,0.5-3.1c0.2-1.7,0.4-3.4,0.4-5.2c0-0.3-0.3-0.6-0.6-0.4c-0.9,0.3-2,0.4-2.9,0.2c-1.7-0.3-1.8-2.1-1.8-3.5
			c-0.1-2.6,0.1-5.3,0.3-7.9c-0.2,0.2-0.3,0.3-0.5,0.5c0.8,0,1.5,0.1,2.3,0.2c-0.2-0.2-0.3-0.3-0.5-0.5c-0.1,2.6-0.7,5.5-0.4,8.1
			c0.2,1.4,1.6,2.2,2.9,1.3c1.2-0.9,0.9-3.3,0.9-4.6c0.1-1.6,0.2-3.2,0.2-4.8c-0.2,0.2-0.3,0.3-0.5,0.5c0.9,0,1.8,0,2.6,0.2
			C24.1,2.2,24.3,1.3,23.8,1.2z"/>
	</g>
	<g>
		<path d="M34,1.3c-2.7,0.1-5.4,0.1-8.1,0c-0.3,0-0.5,0.2-0.5,0.5c0,5.8-0.5,11.6-0.9,17.3c-0.1,1.6-0.6,3.7-0.4,5.4
			c0.2,1.3,2.1,0.9,3.2,0.9c0.3,0,0.4-0.2,0.5-0.5c0.4-6.3,0.7-12.6,1.1-18.8c-0.2,0.2-0.3,0.3-0.5,0.5c0.5,0,1.6-0.2,2-0.1
			c0.6,0.2,0-0.3,0.3,0.3c0.2,0.4,0,1.2,0,1.6c-0.1,2-0.2,4-0.3,6.1c-0.1,2.5-0.3,4.9-0.5,7.4c-0.1,1.1-0.4,2.4-0.3,3.5
			c0,0.2,0.2,0.5,0.5,0.5c0.7,0,1.4,0,2.1,0.1c0.3,0,0.4-0.2,0.5-0.5c0.5-7.8,1-15.6,1.8-23.4c0.1-0.6-0.9-0.6-0.9,0
			c-0.8,7.8-1.3,15.6-1.8,23.4c0.2-0.2,0.3-0.3,0.5-0.5c-0.7,0-1.4-0.1-2.1-0.1c0.2,0.2,0.3,0.3,0.5,0.5c-0.2-1.4,0.2-3.1,0.4-4.6
			c0.2-2.9,0.4-5.8,0.5-8.6c0.1-1.7,0.4-3.6,0.2-5.4c-0.1-1.5-2-1-3.2-1c-0.3,0-0.4,0.2-0.5,0.5c-0.4,6.3-0.7,12.6-1.1,18.8
			c0.2-0.2,0.3-0.3,0.5-0.5c-0.4,0-2.5-0.1-2.3,0.2c-0.1-0.2,0.1-0.9,0.1-1.1c0.1-2.1,0.3-4.2,0.4-6.2c0.3-5.2,0.7-10.3,0.8-15.5
			c-0.2,0.2-0.3,0.3-0.5,0.5c2.7,0.1,5.4,0.1,8.1,0C34.5,2.2,34.5,1.3,34,1.3z"/>
	</g>
	<g>
		<path d="M45.7,2.4c-0.7,7.7-0.6,15.5-1.3,23.2c0,0.2,0.2,0.4,0.3,0.4c1,0.2,2.6,0.5,3.6,0.1c0.2-0.1,0.3-0.2,0.3-0.4
			c0.2-3,0.3-6,0.5-9.1c-0.2,0.2-0.3,0.3-0.5,0.5c2,0.2,4.1,0.3,5.5-1.4c1.5-2,1.9-4.7,1.7-7.2c-0.1-1.7-0.5-4.5-2.1-5.4
			C51.8,1.9,48.5,2,46.2,2c-0.6,0-0.6,0.9,0,0.9c2.1,0,4.2,0,6.2,0.6c2.1,0.6,2.5,3.1,2.6,5c0.1,2-0.1,4.2-1.1,6
			c-1.2,2-3.1,1.9-5.2,1.7c-0.3,0-0.4,0.2-0.5,0.5c-0.2,2.4-0.3,4.7-0.4,7.1c0,0.4,0.1,1.1-0.1,1.5c-0.1,0.3,0,0.4,0.1,0.1
			c-0.2,0-0.5,0-0.7,0c-0.4,0-1.4,0.1-1.7-0.1c-0.4-0.3,0-1.5,0-2c0.5-6.9,0.5-13.9,1.1-20.9C46.7,1.8,45.8,1.9,45.7,2.4z"/>
	</g>
	<g>
		<path d="M2.5,26.3C1.8,35,1.1,43.6,0,52.3c0,0.3,0.2,0.4,0.5,0.5c1.1,0.1,2.2,0.1,3.2,0.2c0.3,0,0.4-0.2,0.5-0.5
			C5.1,45.2,6,37.9,6.2,30.5c-0.2,0.2-0.3,0.3-0.5,0.5c0.7,0,1.3-0.1,2,0c1.1,0,1.8-0.1,1.8,1.1c0.1,2.2-0.3,4.6-0.5,6.7
			c-0.4,4.7-1,9.3-1.2,14c0,0.2,0.1,0.4,0.3,0.4c1.2,0.2,2.4,0.4,3.6,0.3c0.2,0,0.4-0.1,0.4-0.3c1.5-8.7,2.2-17.4,2.6-26.2
			c0-0.3-0.2-0.4-0.5-0.5C10.6,26.4,6.8,26,3,25.8c-0.6,0-0.6,0.9,0,0.9c3.8,0.2,7.6,0.6,11.5,0.8c-0.2-0.2-0.3-0.3-0.5-0.5
			c-0.2,4.3-0.5,8.5-0.8,12.8c-0.2,2.1-0.4,4.2-0.7,6.3c-0.2,1.2-0.3,2.5-0.5,3.7c-0.1,0.5-0.1,2.5-0.5,2.8
			c-0.3,0.2-2.3-0.1-2.5-0.2c-0.4-0.4,0-2.3,0.1-2.8c0.2-2.1,0.4-4.2,0.6-6.3c0.4-4.1,1-8.4,1-12.5c0-0.2-0.1-0.3-0.2-0.4
			c-1.4-0.7-3.1-0.4-4.6-0.4c-0.3,0-0.5,0.2-0.5,0.5C5,37.9,4.2,45.2,3.2,52.5c0.2-0.2,0.3-0.3,0.5-0.5c-1.1-0.1-2.2-0.1-3.2-0.2
			c0.2,0.2,0.3,0.3,0.5,0.5C2,43.6,2.8,35,3.4,26.3C3.5,25.7,2.6,25.7,2.5,26.3z"/>
	</g>
	<g>
		<path d="M29.7,27.3c-2.2,0.1-4.5-0.1-6.7-0.3c-0.2,0-0.4,0.2-0.4,0.3c-3,8.7-6.1,17.4-9.1,26.1c-0.1,0.2,0.1,0.5,0.3,0.6
			c1,0.3,3.1,0.8,4.1,0.6c0.7-0.2,0.7-0.5,1-1.2c0.4-1.4,0.8-2.8,1.2-4.2c0.2-0.6,0.4-1.3,0.6-1.9c0.1-0.3,0.6-1.3,0.2-1.1
			c0.7-0.4,2.9,0.1,3.6,0.1c1.2,0.1,2.9-0.1,4.1,0.3c0.5,0.2-0.1-0.2,0-0.1c0.1,0.2,0.1,0.5,0.1,0.7c0.1,0.8,0.2,1.6,0.3,2.5
			c0.2,1.8,0.4,3.5,0.7,5.3c0,0.1,0.2,0.3,0.3,0.3c1.4,0.2,2.8,0.4,4.2,0.4c0.2,0,0.5-0.2,0.5-0.5c-1.1-9.3-3.2-18.3-4.5-27.6
			c-0.1-0.6-1-0.3-0.9,0.2c1.4,9.1,3.4,18.1,4.5,27.3c0.2-0.2,0.3-0.3,0.5-0.5c-0.8,0-1.6,0-2.3-0.1c-1.3-0.1-1.2,0.1-1.5-0.9
			c-0.3-1-0.3-2.2-0.4-3.2c-0.1-0.9-0.2-1.9-0.4-2.8c-0.1-0.4,0-1.3-0.3-1.7c-0.4-0.6-1.1-0.5-1.8-0.5c-1.7-0.1-3.5-0.2-5.2-0.3
			c-0.7,0-1.7-0.2-2.2,0.3c-0.7,0.8-0.8,2.4-1.1,3.4c-0.4,1.5-0.9,3.1-1.3,4.6c-0.1,0.5,0.1,0.2,0.1,0.2c-0.2,0.1-0.7-0.1-1-0.1
			c-1-0.1-2-0.2-2.9-0.5c0.1,0.2,0.2,0.4,0.3,0.6c2.2-6.6,4.6-13.2,6.9-19.8c0.4-1.3,0.9-2.5,1.3-3.8c0.2-0.6,0.8-1.6,0.8-2.2
			c-0.1-0.7,0.2,0.3-0.3,0c0.4,0.2,1,0.1,1.4,0.1c1.8,0.1,3.5,0.2,5.3,0.2C30.3,28.2,30.3,27.2,29.7,27.3z"/>
	</g>
	<g>
		<path d="M37.2,55.6c0.3-9.2,1.8-18.4,2-27.7c-0.2,0.2-0.3,0.3-0.5,0.5c4.6-0.1,9.2,0.4,13.8,0.6c-0.2-0.2-0.3-0.3-0.5-0.5
			c-0.6,9.3-1.1,18.7-1.7,28.1c0.2-0.2,0.3-0.3,0.5-0.5c-1.3,0-2.6-0.1-4-0.1c0.2,0.2,0.3,0.3,0.5,0.5c0.5-7.9,1.9-15.8,1.8-23.7
			c0-0.3-0.2-0.4-0.5-0.5c-1.8-0.1-3.9-0.4-5.7-0.2c-0.7,0.1-0.7,0.2-0.9,0.8c-0.6,2.5-0.5,5.4-0.7,7.9c-0.3,3.6-0.6,7.3-0.9,10.9
			c-0.1,1.2-0.3,2.4-0.4,3.5c0,0.9-0.2,0.2,0.1,0.3c-1.2-0.2-2.2-0.5-3.4-0.4c-0.6,0-0.6,1,0,0.9c1.2-0.1,2.3,0.2,3.5,0.4
			c0.2,0,0.4,0,0.5-0.2c0.7-1.2,0.4-3.4,0.6-4.7c0.3-3.2,0.6-6.5,0.8-9.7c0.2-2.7,0.4-5.4,0.7-8.1c0-0.3,0-0.7,0.1-1
			c0,0,0-0.1,0-0.1c-0.3,0.5-0.1,0.2,0.5,0.2c1.6,0.3,3.5,0.1,5.2,0.2c-0.2-0.2-0.3-0.3-0.5-0.5c0.1,7.9-1.4,15.8-1.8,23.7
			c0,0.2,0.2,0.5,0.5,0.5c1.3,0,2.6,0.1,4,0.1c0.3,0,0.4-0.2,0.5-0.5c0.6-9.3,1.1-18.7,1.7-28.1c0-0.3-0.2-0.5-0.5-0.5
			c-4.6-0.2-9.2-0.7-13.8-0.6c-0.3,0-0.5,0.2-0.5,0.5c-0.2,9.2-1.7,18.4-2,27.7C36.3,56.2,37.2,56.2,37.2,55.6z"/>
	</g>
	<g>
		<path d="M38,1.4c-1.8-0.2-2.3,1.7-2.5,3.1c-0.3,2.1-0.9,5.2,0.3,7.1c1,1.5,2.8,2.1,4.5,1.9c2.1-0.3,3.4-1.4,3.6-3.5
			c0-0.2-0.2-0.4-0.3-0.4c-0.7-0.2-1.3-0.3-2-0.4c-0.2,0-0.4,0.2-0.4,0.3c-0.2,0.8-2.7,1.1-2.1-0.6c0.3-0.9,0.9-0.6,1.7-0.5
			c1,0.1,2,0.4,3,0.2c0.2,0,0.3-0.2,0.3-0.3c0.4-1.3,0.7-4.1-0.2-5.2C42.4,1.5,39.8,1.5,38,1.4c-0.6,0-0.6,0.9,0,0.9
			c2.6,0.1,5.5,0.4,5.3,3.7c-0.1,1.2-0.1,1.6-1.3,1.6c-1.1,0-2.2-0.2-3.3-0.4c-0.2,0-0.4,0.2-0.4,0.3c-0.3,1.3-0.4,2.8,0.9,3.7
			c0.8,0.6,1.9,0.4,2.5-0.4c0.1-0.1,0.2-0.6,0.3-0.7c0.5-0.2,0.8,0,0.8,0.4c0.3,0.7-0.1,1.2-1,1.6c-1.6,1-4,0.6-5.1-0.9
			c-1-1.3-1.2-9.2,1.3-9C38.6,2.3,38.6,1.4,38,1.4z"/>
	</g>
	<g>
		<path d="M40,6.9c1.1,0.2,2.2,0,2.3-1.2c0.2-1.2-0.7-2.3-1.9-2.5c-1.1-0.2-2.7,0.3-2.8,1.6c0,0.6,0.1,1.3,0.6,1.7
			c0.5,0.4,1.3,0.5,1.9,0.5c0.6,0,0.6-0.9,0-0.9c-0.7,0-1.6-0.1-1.6-1c0-0.9,1.1-1.1,1.8-1c0.6,0.1,1,0.6,1.1,1.2
			c0.1,0.8-0.6,0.9-1.2,0.8C39.7,5.9,39.4,6.8,40,6.9z"/>
	</g>
	<g>
		<path d="M35.5,25.3c1.2-0.8,2.5-1.7,3.6-2.6c-0.2,0-0.4,0-0.7,0c0.9,0.9,1.9,1.7,2.8,2.6c0.3,0.2,0.8,0.1,0.8-0.3
			c-0.1-0.9-0.7-2.6-0.4-3.5c0.1-0.4,1.8-1.4,2.5-1.8c0.3-0.2,0.3-0.8-0.1-0.8c-0.6-0.1-1.3-0.2-1.9-0.4c-0.3-0.1-1.3,0-1.6-0.2
			c0.4,0.3-0.1-0.9-0.2-1.2c-0.2-0.7-0.5-1.4-0.8-2.1c-0.1-0.3-0.7-0.5-0.8-0.1c-0.4,0.8-0.8,2-1.4,2.7c-0.7,0.8-2.3,0.7-3.3,0.8
			c-0.4,0-0.6,0.5-0.3,0.8c0.8,0.7,2,1.4,2,2.5c0,1-0.6,2.2-0.9,3.2c-0.1,0.6,0.8,0.8,0.9,0.2c0.3-1.1,1.3-2.9,1-4
			c-0.2-1-1.7-1.8-2.4-2.5c-0.1,0.3-0.2,0.5-0.3,0.8c1.1-0.1,2.2-0.3,3.3-0.3c0.2,0,0.3-0.1,0.4-0.2c0.6-1.1,1.2-2.2,1.8-3.4
			c-0.3,0-0.6-0.1-0.8-0.1c0.4,1.2,1,2.4,1.3,3.6c0,0.2,0.2,0.3,0.4,0.3c1.1,0.1,2.3,0.3,3.4,0.5c0-0.3-0.1-0.6-0.1-0.8
			c-0.9,0.6-1.8,1.3-2.8,1.9c-0.2,0.1-0.3,0.3-0.2,0.5c0.2,1.2,0.3,2.4,0.4,3.6c0.3-0.1,0.5-0.2,0.8-0.3c-0.9-0.9-1.9-1.7-2.8-2.6
			c-0.2-0.2-0.5-0.2-0.7,0c-1.1,0.9-2.2,1.7-3.4,2.5C34.5,24.8,35,25.6,35.5,25.3z"/>
	</g>
	<g>
		<path d="M23.2,42.7c0.9-0.6,1.8-1.3,2.7-2c-0.2,0-0.4,0-0.7,0c0.7,0.7,1.4,1.3,2.1,1.9c0.3,0.2,0.8,0.1,0.8-0.3
			c-0.1-1-0.2-2-0.4-2.9c-0.1,0.2-0.1,0.3-0.2,0.5c0.7-0.5,1.4-1,2.1-1.4c0.3-0.2,0.3-0.8-0.1-0.8c-0.9-0.2-1.8-0.4-2.8-0.4
			c0.1,0.1,0.3,0.2,0.4,0.3c-0.2-0.9-0.6-1.8-0.9-2.7c-0.1-0.3-0.7-0.5-0.8-0.1c-0.3,0.6-0.6,1.4-1,1.9c-0.4,0.6-1.7,0.5-2.4,0.6
			c-0.4,0-0.6,0.5-0.3,0.8c0.6,0.5,1.5,1,1.5,1.8c0,0.7-0.5,1.6-0.6,2.3c-0.1,0.6,0.7,0.8,0.9,0.2c0.2-0.8,0.9-2.2,0.8-3
			c-0.2-0.8-1.3-1.4-1.8-1.9c-0.1,0.3-0.2,0.5-0.3,0.8c0.8-0.1,1.6-0.2,2.4-0.3c0.2,0,0.3-0.1,0.4-0.2c0.5-0.8,0.9-1.6,1.3-2.5
			c-0.3,0-0.6-0.1-0.8-0.1c0.3,0.9,0.7,1.8,0.9,2.7c0,0.2,0.2,0.3,0.4,0.3c0.8,0,1.7,0.2,2.5,0.4c0-0.3-0.1-0.6-0.1-0.8
			c-0.7,0.5-1.4,1-2.1,1.4c-0.2,0.1-0.3,0.3-0.2,0.5c0.2,0.9,0.3,1.8,0.3,2.7c0.3-0.1,0.5-0.2,0.8-0.3c-0.7-0.6-1.4-1.3-2.1-1.9
			c-0.2-0.2-0.5-0.2-0.7,0c-0.8,0.7-1.6,1.3-2.5,1.8C22.3,42.2,22.7,43,23.2,42.7z"/>
	</g>
	<g>
		<path d="M48.8,12.6c0.8-0.5,1.5-1.1,2.2-1.6c-0.2,0-0.4,0-0.7,0c0.6,0.5,1.1,1.1,1.7,1.6c0.3,0.2,0.8,0.1,0.8-0.3
			c-0.1-0.8-0.1-1.6-0.3-2.4c-0.1,0.2-0.1,0.3-0.2,0.5c0.6-0.4,1.1-0.8,1.7-1.2c0.3-0.2,0.3-0.8-0.1-0.8c-0.8-0.2-1.5-0.3-2.3-0.4
			C51.8,8,52,8.2,52.1,8.3c-0.2-0.8-0.5-1.5-0.8-2.2c-0.1-0.3-0.7-0.5-0.8-0.1c-0.2,0.5-0.5,1.1-0.8,1.6c-0.3,0.3-0.2,0.2-0.7,0.3
			c-0.4,0-0.8,0.1-1.2,0.2c-0.4,0-0.6,0.5-0.3,0.8c0.4,0.4,1.2,0.8,1.2,1.4c0,0.6-0.4,1.3-0.5,1.9c-0.1,0.6,0.7,0.8,0.9,0.2
			c0.2-0.7,0.8-1.8,0.6-2.5c-0.1-0.7-1.1-1.2-1.5-1.7c-0.1,0.3-0.2,0.5-0.3,0.8c0.7-0.1,1.3-0.2,2-0.2c0.2,0,0.3-0.1,0.4-0.2
			c0.4-0.7,0.8-1.4,1.1-2.1c-0.3,0-0.6-0.1-0.8-0.1c0.2,0.7,0.6,1.4,0.8,2.2c0,0.2,0.2,0.3,0.4,0.3c0.7,0,1.4,0.2,2.1,0.3
			c0-0.3-0.1-0.6-0.1-0.8c-0.6,0.4-1.1,0.8-1.7,1.2c-0.2,0.1-0.3,0.3-0.2,0.5c0.1,0.7,0.2,1.5,0.3,2.2c0.3-0.1,0.5-0.2,0.8-0.3
			c-0.6-0.5-1.2-1.1-1.7-1.6c-0.2-0.2-0.5-0.2-0.7,0c-0.6,0.5-1.3,1-2.1,1.5C47.9,12.1,48.3,12.9,48.8,12.6z"/>
	</g>
</g>
</svg>
