<svg
		xmlns="http://www.w3.org/2000/svg"
		xmlns:xlink="http://www.w3.org/1999/xlink"
		width="172px" height="76px">
	<path fill-rule="evenodd"  fill="rgb(180, 31, 127)"
		  d="M171.524,74.332 L171.190,74.330 L170.519,74.325 L169.169,74.314 L159.773,74.243 C157.158,74.238 154.546,74.234 151.939,74.230 C141.507,74.204 131.162,74.179 121.136,74.155 C115.523,74.501 109.553,74.252 103.665,74.593 C107.418,74.410 100.291,74.427 100.897,74.119 L93.032,74.277 C92.514,74.196 91.657,74.107 90.514,74.104 C82.311,74.062 91.657,74.239 82.479,74.149 L83.436,74.302 C81.018,74.267 78.277,74.222 79.024,73.990 C75.545,74.179 68.144,74.169 64.935,74.615 L61.413,74.520 C64.299,74.724 64.511,74.872 65.727,75.024 C58.823,75.219 51.693,75.508 43.825,75.817 C46.956,75.904 46.956,75.904 50.086,75.990 C48.198,75.960 46.337,75.931 44.466,75.901 C40.348,75.814 34.062,75.744 27.034,75.685 C23.520,75.661 19.821,75.635 16.114,75.609 C10.662,75.598 5.200,75.587 -0.009,75.577 C1.588,72.008 3.136,68.550 4.612,65.252 C5.421,63.467 6.192,61.769 6.913,60.182 C8.360,57.012 9.605,54.286 10.555,52.206 C12.676,47.623 14.779,43.076 16.858,38.584 L16.762,38.284 L16.510,37.563 L15.755,35.459 C15.250,34.059 14.747,32.664 14.246,31.274 C13.231,28.498 12.223,25.742 11.223,23.008 C10.203,20.281 9.190,17.576 8.187,14.895 C6.696,10.989 5.219,7.118 3.755,3.283 C5.762,3.215 7.759,3.148 9.747,3.080 C10.755,3.044 11.762,3.008 12.766,2.971 L14.707,2.882 C17.033,2.750 19.338,2.619 21.624,2.490 C24.815,2.287 27.971,2.056 31.086,1.791 C31.386,1.522 46.420,1.678 47.743,2.714 C59.668,0.443 57.970,0.863 73.471,1.456 C66.353,1.504 79.130,1.568 72.263,1.744 L74.386,1.727 C74.248,1.853 74.203,1.968 74.596,2.042 C74.635,2.016 74.667,1.991 74.693,1.969 C75.826,1.884 77.011,1.858 77.850,1.893 C79.149,1.770 81.295,1.701 82.602,1.641 C85.696,1.541 85.290,2.095 88.566,1.820 C88.659,1.943 87.880,2.024 88.387,2.170 C89.616,2.220 83.306,2.232 78.219,2.254 C79.231,2.431 82.486,2.444 80.784,2.829 L83.405,2.829 C82.062,2.670 82.147,2.596 83.251,2.390 C86.721,2.409 89.012,2.486 92.333,2.578 C93.522,2.471 92.655,2.479 93.610,2.397 C96.860,2.542 102.709,1.724 103.834,2.119 C103.770,2.131 103.734,2.144 103.705,2.154 C103.483,2.216 103.419,2.231 104.032,2.307 C104.039,2.285 104.010,2.270 104.002,2.251 C104.277,2.277 104.677,2.314 105.023,2.345 C106.891,2.162 108.412,2.102 110.191,2.158 C110.238,2.300 108.699,2.384 108.434,2.434 L108.105,2.366 C106.237,2.549 105.283,2.843 104.444,3.018 C107.345,2.658 111.424,2.855 114.196,2.571 L115.424,2.724 C115.830,2.720 115.696,2.674 115.724,2.651 C117.000,2.757 114.681,3.014 116.471,3.043 C116.219,2.905 117.496,2.846 118.553,2.812 C119.448,3.060 134.395,1.860 135.618,1.988 C136.562,1.944 133.587,2.150 130.394,2.351 C128.797,2.447 127.146,2.545 125.904,2.619 C125.756,2.627 125.634,2.633 125.498,2.640 C125.918,2.665 126.350,2.702 127.031,2.685 C126.713,2.781 137.025,1.812 137.244,1.948 C137.965,2.011 138.902,2.048 139.835,1.923 C139.263,1.906 139.520,1.857 139.771,1.809 L141.755,1.789 C140.697,1.846 141.380,1.931 141.016,2.073 C142.578,2.242 145.458,2.098 146.895,2.015 L146.567,1.972 C148.200,1.887 150.153,1.845 151.121,1.996 C150.593,2.287 146.830,2.121 147.818,2.434 L167.236,1.943 C167.329,1.727 167.424,1.504 167.529,1.265 C168.128,-0.197 167.919,0.674 167.584,1.934 L169.397,1.888 L169.149,2.639 C169.187,2.694 169.174,2.755 169.088,2.824 L168.686,4.041 C168.694,4.041 168.703,4.041 168.711,4.041 L169.123,3.965 C169.601,3.979 169.493,4.037 169.338,4.102 C169.377,4.138 169.306,4.164 169.164,4.185 C169.090,4.231 169.108,4.272 169.451,4.290 C169.723,4.287 169.314,4.346 168.555,4.439 L160.294,29.461 C159.969,30.647 159.635,31.866 159.298,33.098 C159.073,33.914 158.849,34.729 158.630,35.529 C158.431,36.278 158.236,37.013 158.048,37.720 C158.162,37.993 158.265,38.242 158.367,38.487 C160.980,46.853 163.638,52.815 166.159,59.638 L166.105,59.117 C166.995,61.565 167.889,64.021 168.784,66.482 L170.542,71.435 L171.465,74.045 L171.523,74.210 L171.552,74.292 L171.566,74.333 L171.524,74.332 ZM72.476,2.335 C72.892,2.326 73.216,2.308 73.485,2.285 C72.421,2.298 71.940,2.314 72.476,2.335 ZM145.977,2.138 C145.413,2.263 145.445,2.381 145.695,2.488 L146.750,2.461 C146.417,2.384 148.182,2.116 145.977,2.138 ZM169.090,4.295 C168.957,4.268 168.784,4.264 168.615,4.258 L168.592,4.328 C168.791,4.325 168.976,4.318 169.090,4.295 Z"/>
</svg>