<svg fill="#817878" xmlns="http://www.w3.org/2000/svg" viewBox="0 0 19 17" >
	<ellipse class="st0" cx="5.5" cy="10.4" rx="0.8" ry="0.7"/>
	<ellipse class="st0" cx="13.5" cy="10.4" rx="0.8" ry="0.7"/>
	<path class="st0" d="M19,10.1c0-1.1-0.8-2-1.8-2.2V7.6c0-4.2-3.4-7.6-7.7-7.6C5.3,0,1.8,3.4,1.8,7.6v0.3C0.8,8.1,0,9,0,10.1
		c0,1.1,0.8,2,1.9,2.2C2,14,2.8,15.2,4.2,16c1.2,0.7,3,1,5.3,1c2.4,0,4.1-0.3,5.3-1c1.4-0.8,2.2-2,2.3-3.7
		C18.2,12.1,19,11.2,19,10.1z M0.8,10.1c0-0.7,0.4-1.2,1-1.4v2.7C1.2,11.3,0.8,10.8,0.8,10.1z M16.4,11.7c0,1.7-0.6,2.9-1.9,3.6
		c-1.1,0.6-2.7,0.9-5,0.9s-3.8-0.3-5-0.9c-1.3-0.7-1.9-1.9-1.9-3.6V7.6c0-3.1,2.1-5.7,4.9-6.5c2.2,0,3.3,1.6,3.3,2.7
		c0,0.9-0.7,1.6-1.6,1.6c-0.6,0-1.2-0.5-1.2-1.2c0-0.5,0.4-0.9,0.9-0.9c0.2,0,0.4-0.2,0.4-0.4S9.2,2.5,9,2.5C8,2.5,7.3,3.3,7.3,4.2
		c0,1.1,0.9,1.9,2,1.9c1.3,0,2.4-1,2.4-2.3c0-0.8-0.4-1.7-1.1-2.3C10.2,1.2,9.9,1,9.6,0.8c3.8,0.1,6.8,3.1,6.8,6.8L16.4,11.7
		L16.4,11.7z M17.2,11.5V8.7c0.6,0.2,1,0.7,1,1.4S17.8,11.3,17.2,11.5z"/>
	<path class="st0" d="M11,11.5c-0.8,0.8-2.2,0.8-3,0c-0.2-0.2-0.4-0.2-0.6,0c-0.2,0.2-0.2,0.4,0,0.6c0.6,0.6,1.3,0.9,2.1,0.9
		s1.5-0.3,2.1-0.9c0.2-0.2,0.2-0.4,0-0.6C11.4,11.4,11.2,11.4,11,11.5z"/>
</svg>
