<?xml version="1.0" encoding="utf-8"?>
<!-- Generator: Adobe Illustrator 22.1.0, SVG Export Plug-In . SVG Version: 6.00 Build 0)  -->
<svg version="1.1" id="Слой_1" xmlns="http://www.w3.org/2000/svg" xmlns:xlink="http://www.w3.org/1999/xlink" x="0px" y="0px"
	 viewBox="0 0 17 18.9" style="enable-background:new 0 0 17 18.9;" xml:space="preserve">
<style type="text/css">
	.st0{fill:#604E42;}
</style>
<title>icon-nipple</title>
<path class="st0" d="M16.5,14.1C17.7,12.6,15.3,10,13,8c0.2-0.1,0.5-0.2,0.8-0.3c0.4-0.1,0.8-0.3,1.2-0.5l0,0
	c1.8-1.2,2.3-3.5,1.1-5.3c-1.2-1.8-3.5-2.3-5.3-1.1C10,1.3,9.5,2,9.2,2.9l0,0C9.1,3.3,9,3.7,9,4.1c0,0.3,0,0.5,0,0.8
	C4.5,2,2.8,2.3,2.2,3.2c-0.7,1-0.1,2.3,1.1,3.7C2.6,7.3,2,7.9,1.5,8.5c-2.1,2.8-1.6,6.8,1.2,8.9s6.8,1.6,8.9-1.2
	c0.5-0.7,0.9-1.4,1.1-2.2C14.3,14.8,15.8,15,16.5,14.1z M14.7,1.6c1.3,1,1.6,2.9,0.6,4.2c-0.2,0.3-0.5,0.5-0.8,0.7l0,0l0,0
	c-0.3,0.2-0.6,0.3-1,0.4c-1,0.3-2.2,0.7-2.6,2.6c-0.3,0-0.9-0.3-1.6-0.9C8.5,8.1,8.1,7.6,8,7.4c1.8-0.9,1.8-2.2,1.8-3.2
	c0-0.4,0-0.7,0.1-1.1l0,0c0.5-1.6,2.2-2.5,3.8-2C14.1,1.2,14.4,1.4,14.7,1.6z M10.9,15.7c-1.8,2.4-5.3,2.9-7.7,1.1
	C0.7,14.9,0.3,11.5,2.1,9c0.5-0.6,1.1-1.1,1.7-1.5C4.1,7.8,4.3,8,4.5,8.3c-2.3,1.1-3.3,3.8-2.2,6.1s3.8,3.3,6.1,2.2
	c1.3-0.6,2.3-1.9,2.6-3.4c0.3,0.2,0.6,0.3,0.9,0.5C11.7,14.4,11.4,15.1,10.9,15.7z M10.3,12.7c-0.2,2.1-2,3.6-4,3.4
	c-2.1-0.2-3.6-2-3.4-4c0.1-1.5,1.1-2.7,2.4-3.2c0.8,0.8,1.7,1.5,2.5,2C8.3,11.4,9.2,12,10.3,12.7L10.3,12.7z M8.1,10.2
	C3.6,6.8,2.2,4.5,2.8,3.7c0.5-0.6,2.3-0.4,5.9,2.1C8.5,6.1,8.2,6.4,7.6,6.7c-0.1,0-0.2,0.1-0.3,0.2C6.7,7.7,8.4,9.1,8.8,9.4
	c0.4,0.3,2.2,1.6,2.8,0.8c0.1-0.1,0.1-0.2,0.1-0.3c0,0,0,0,0,0c0.1-0.6,0.3-1.1,0.6-1.4c3.3,2.8,4,4.5,3.6,5.1
	C15.3,14.4,12.4,13.5,8.1,10.2z"/>
<path class="st0" d="M2.6,17.6c-2.9-2.2-3.4-6.3-1.3-9.1c0.5-0.6,1-1.2,1.7-1.6C1.7,5.3,1.4,4,2,3.1c0.4-0.6,1.2-0.8,2.1-0.6
	c1.2,0.2,2.8,0.9,4.7,2.2c0-0.2,0-0.3,0-0.5c0-0.4,0-0.9,0.2-1.3l0,0c0.7-2.1,2.9-3.3,5-2.7s3.3,2.9,2.7,5c-0.3,0.9-0.9,1.7-1.7,2.2
	l0,0c-0.4,0.2-0.8,0.4-1.2,0.5c-0.2,0-0.3,0.1-0.5,0.2c1.3,1.1,2.3,2.2,2.9,3.1c0.9,1.3,1,2.3,0.5,3.1c-0.7,0.9-2,0.9-3.9,0
	c-0.2,0.8-0.6,1.5-1.1,2.1C9.5,19.2,5.4,19.7,2.6,17.6z M9.4,2.9L9.4,2.9C9.2,3.3,9.2,3.7,9.2,4.2c0,0.3,0,0.5-0.1,0.8l0,0.3
	L8.9,5.1C6.9,3.8,5.3,3,4.1,2.8c-0.9-0.1-1.5,0-1.8,0.5c-0.6,0.8-0.2,2,1.1,3.5L3.5,7L3.4,7.1c-2.9,1.7-3.9,5.5-2.2,8.5
	s5.5,3.9,8.5,2.2c0.7-0.4,1.3-0.9,1.8-1.6c0.5-0.6,0.8-1.4,1.1-2.2l0.1-0.2l0.2,0.1c1.9,0.8,3.1,0.9,3.7,0.1
	c0.5-0.6,0.3-1.5-0.5-2.7c-0.6-0.9-1.6-2-3-3.2l-0.2-0.2l0.2-0.1c0.3-0.1,0.5-0.2,0.8-0.3c0.4-0.1,0.8-0.2,1.1-0.5l0,0
	C16.6,6,17.1,3.7,15.9,2s-3.4-2.2-5.1-1.1C10.1,1.4,9.6,2.1,9.4,2.9L9.4,2.9z M3.1,16.9c-2.5-1.9-3-5.5-1.1-8
	c0.5-0.6,1.1-1.2,1.8-1.5l0.1-0.1L4,7.4c0.2,0.2,0.4,0.5,0.7,0.7l0.2,0.2L4.6,8.4c-2.2,1-3.1,3.7-2.1,5.9s3.7,3.1,5.9,2.1
	c0.6-0.3,1.2-0.8,1.6-1.3c0.4-0.6,0.7-1.2,0.8-1.9l0-0.2l0.2,0.1c0.3,0.2,0.6,0.3,0.9,0.5l0.1,0.1l0,0.1c-0.7,3.1-3.8,5-6.8,4.3
	C4.4,17.7,3.7,17.4,3.1,16.9z M3.8,7.8C3.2,8.1,2.7,8.6,2.2,9.1c-1.8,2.4-1.3,5.7,1,7.5s5.7,1.3,7.5-1l0,0c0.4-0.6,0.7-1.2,0.9-1.9
	c-0.2-0.1-0.4-0.2-0.6-0.3C10.6,16,8,17.6,5.5,17c-2.6-0.6-4.2-3.1-3.6-5.7C2.2,10,3,8.9,4.3,8.2C4.1,8.1,4,7.9,3.8,7.8z M4.1,15.5
	c-1.7-1.3-2.1-3.8-0.8-5.5c0.5-0.6,1.1-1,1.8-1.3l0.1,0l0.1,0.1c0.7,0.6,1.5,1.3,2.4,2c0.6,0.5,1.5,1.1,2.6,1.8l0.1,0.1l0,0.1
	c-0.2,2.2-2.1,3.8-4.2,3.6C5.4,16.2,4.7,16,4.1,15.5z M5.2,9.1c-1.8,0.7-2.7,2.8-2,4.7s2.8,2.7,4.7,2c1.2-0.5,2.1-1.6,2.2-2.9
	c-1-0.6-1.9-1.3-2.5-1.8C6.7,10.3,5.9,9.7,5.2,9.1z M8,10.4C6,8.8,4.4,7.3,3.4,6.1c-1.1-1.4-1-2.1-0.8-2.5C2.9,3.3,3.4,3,4.6,3.4
	c1.1,0.3,2.5,1.1,4.2,2.2l0.1,0.1L8.9,5.8c-0.2,0.4-0.6,0.7-1.2,1l0,0C7.6,6.9,7.5,6.9,7.4,7C7,7.6,8.1,8.7,8.9,9.2
	c0.7,0.6,2.1,1.4,2.6,0.8c0-0.1,0.1-0.1,0.1-0.2v0v0c0.1-0.6,0.3-1.1,0.6-1.5l0.1-0.1l0.1,0.1c1.5,1.3,2.6,2.5,3.2,3.4
	c0.7,1.1,0.6,1.6,0.4,1.9c-0.4,0.5-1.3,0.4-2.7-0.1C11.9,13,10,11.9,8,10.4z M8.5,5.8C6.9,4.7,5.5,4,4.5,3.7C3.7,3.5,3.2,3.5,3,3.8
	C2.7,4.1,3,4.9,3.7,5.9c0.9,1.2,2.5,2.7,4.5,4.2c4.4,3.3,7,4,7.5,3.4c0.2-0.3,0.1-0.8-0.4-1.5c-0.6-0.9-1.6-2-3-3.3
	C12.1,9,12,9.4,11.9,9.9c0,0,0,0,0,0c0,0.1-0.1,0.2-0.1,0.3c-0.7,0.9-2.5-0.3-3-0.7C8.2,9.1,6.5,7.7,7.2,6.8
	c0.1-0.1,0.2-0.2,0.3-0.3C7.9,6.3,8.3,6.1,8.5,5.8z M9.2,8.8C8.5,8.3,8,7.7,7.9,7.4L7.8,7.3L8,7.2c1.7-0.9,1.7-2,1.7-3.1
	c0-0.4,0-0.8,0.1-1.1l0,0c0.5-1.7,2.3-2.6,4-2.1s2.6,2.3,2.1,4c-0.2,0.7-0.7,1.3-1.3,1.7l0,0l0,0c-0.3,0.2-0.6,0.3-1,0.4
	c-1,0.3-2.1,0.7-2.5,2.5l0,0.2l-0.2,0C10.6,9.7,9.9,9.4,9.2,8.8z M8.3,7.4c0.2,0.2,0.5,0.7,1.1,1.1c0.6,0.5,1.1,0.7,1.4,0.8
	c0.4-1.9,1.7-2.3,2.7-2.6c0.4-0.1,0.7-0.2,0.9-0.4l0,0c1.3-0.9,1.7-2.6,0.8-3.9c-0.9-1.3-2.6-1.7-3.9-0.8c-0.6,0.4-1,0.9-1.2,1.5
	l0,0l0,0C10,3.5,10,3.8,10,4.2C10,5.2,10,6.5,8.3,7.4z"/>
</svg>
