<svg id="Слой_1" data-name="Слой 1" xmlns="http://www.w3.org/2000/svg" viewBox="0 0 385.96 442.28"><defs><style>.cls-1{fill:#604e42;}</style></defs><title>icon-nipple</title><path class="cls-1" d="M383.44,210.54c0-39.69-72.62-53.15-136.28-57.32a145.31,145.31,0,0,1,9.23-14C261.53,132,266.86,124.54,270,116h0a80.85,80.85,0,1,0-152,0v0c3.14,8.62,8.51,16.07,13.7,23.26A145.37,145.37,0,0,1,141,153.12C28.52,160.09,4.56,188,4.56,210.54c0,25.16,28.55,39.81,66,48.23a132.09,132.09,0,0,0-9.91,50.46c0,73.54,59.83,133.37,133.37,133.37s133.37-59.83,133.37-133.37a132.12,132.12,0,0,0-10-50.79C354.22,250.06,383.44,235.53,383.44,210.54ZM194,24.68A63.62,63.62,0,0,1,253.75,110v0h0c-2.32,6.36-6.73,12.54-11.41,19.08-12.59,17.61-28.19,39.42-10.09,76.83-4.8,2.67-18.26,6.38-38.25,6.38s-33.42-3.71-38.24-6.38c18.33-37.56,2.65-59.29-10-76.83-4.71-6.53-9.16-12.7-11.49-19.08h0A63.62,63.62,0,0,1,194,24.68ZM310.09,309.22a116.09,116.09,0,0,1-232.19,0,114.94,114.94,0,0,1,10-47.07c6.74,1.13,13.66,2.08,20.65,2.91a96.25,96.25,0,1,0,170.82-.22c6.93-.84,13.84-1.84,20.62-3A115,115,0,0,1,310.09,309.22Zm-49.55-42.44a79,79,0,1,1-133.21.17c23.54,2,47,2.56,66.66,2.56C211.2,269.52,235.3,269,260.55,266.78ZM194,252.24c-118.92,0-172.16-20.94-172.16-41.7,0-16.27,32.88-35.34,124.8-40.44.84,8.34-1,18-7.34,30.16a13.17,13.17,0,0,0-1.85,6.7c0,21.59,47.1,22.68,56.54,22.68s56.54-1.09,56.54-22.68a13.14,13.14,0,0,0-1.37-5.81c-.08-.17-.17-.34-.27-.5-6.35-12.31-8.2-22-7.36-30.45,91.91,5.43,124.61,25.08,124.61,40.35C366.16,231.26,307,252.24,194,252.24Z" transform="translate(-1.02 -3.86)"/><path class="cls-1" d="M194,446.14c-75.5,0-136.92-61.42-136.92-136.92a135.82,135.82,0,0,1,8.66-47.94C22.79,250.92,1,233.86,1,210.54c0-15.13,9.39-27.8,27.91-37.66,22.2-11.82,57.83-19.52,106-22.91-1.77-2.72-3.78-5.52-6-8.65-5.27-7.3-10.71-14.84-14-23.78l-.13-.33a84.4,84.4,0,1,1,158.64-.15l-.11.3c-3.29,8.93-8.7,16.5-13.93,23.83-2,2.79-4.15,5.8-6.13,8.89,36.09,2.67,65.38,7.75,87.13,15.12,31,10.49,46.67,25.75,46.67,45.34,0,23-21.81,39.94-64.84,50.41a135.86,135.86,0,0,1,8.78,48.28C330.92,384.72,269.5,446.14,194,446.14ZM121.27,114.51l.09.23c3,8.2,8.21,15.43,13.26,22.43a146.77,146.77,0,0,1,9.44,14.22l2.75,4.92-5.62.35c-50.09,3.1-86.73,10.66-108.92,22.47-16,8.53-24.16,19.1-24.16,31.4,0,20.28,21.27,35.34,63.21,44.77l4.09.92-1.59,3.88a129.83,129.83,0,1,0,250,49.12,128.74,128.74,0,0,0-9.77-49.43l-1.6-3.88,4.09-.93c42-9.55,63.34-24.5,63.34-44.44,0-16.22-14.08-29.21-41.86-38.62-22.32-7.56-53-12.66-91.1-15.16l-5.56-.36,2.69-4.88a149.64,149.64,0,0,1,9.45-14.39c5-7,10.14-14.19,13.1-22.25l.12-.32a77.31,77.31,0,1,0-145.46,0ZM194,428.86A119.77,119.77,0,0,1,74.36,309.22a118.55,118.55,0,0,1,10.29-48.51l1.12-2.51,2.71.45c6.31,1.06,13.2,2,20.48,2.88l5.09.6-2.36,4.55a92.69,92.69,0,1,0,175,42.53,91.57,91.57,0,0,0-10.49-42.74l-2.37-4.54,5.08-.62c6.94-.84,13.82-1.84,20.45-3l2.71-.46,1.12,2.5A119.61,119.61,0,0,1,194,428.86ZM90,266.1a111.48,111.48,0,0,0-8.6,43.13,112.55,112.55,0,1,0,225.1,0,111.54,111.54,0,0,0-8.73-43.43c-4.3.7-8.69,1.35-13.11,1.94a99.79,99.79,0,1,1-181.53.24C98.61,267.39,94.22,266.76,90,266.1ZM194,391.74a82.46,82.46,0,0,1-69.65-126.68l1.15-1.81,2.14.18C147.9,265.11,170.23,266,194,266c16,0,40.41-.47,66.24-2.72l2.14-.19,1.16,1.81A82.45,82.45,0,0,1,194,391.74ZM129.21,270.66a75.43,75.43,0,1,0,129.47-.16c-25.28,2.11-49,2.56-64.68,2.56C170.88,273.06,149.1,272.25,129.21,270.66ZM194,255.78c-55,0-100.56-4.56-131.62-13.2-36.43-10.12-44.08-23-44.08-32,0-7.44,5.24-18.3,30.22-27.73,22.3-8.42,55.25-13.89,97.92-16.26l3.38-.19.34,3.37c1,9.75-1.54,20.27-7.72,32.14l-.08.15a9.67,9.67,0,0,0-1.36,4.91c0,15.11,33.31,19.14,53,19.14s53-4,53-19.14a9.65,9.65,0,0,0-1-4.25l-.14-.26-.09-.17c-6.18-12-8.71-22.6-7.73-32.43l.34-3.39,3.4.2c42.4,2.51,75.32,8.13,97.82,16.71,24.89,9.5,30.12,20,30.12,27.17,0,12.75-16,23.83-46.31,32C291.52,251.21,246.77,255.78,194,255.78Zm-50.72-81.94c-39.71,2.41-71.55,7.79-92.26,15.6-16.29,6.15-25.64,13.84-25.64,21.1,0,9,14.54,18.45,38.89,25.22,30.45,8.46,75.31,12.94,129.73,12.94,116.3,0,168.62-22.31,168.62-38.16,0-6.76-9.55-14.45-25.56-20.55-20.9-8-52.71-13.5-92.15-16,0,7.5,2.33,15.71,7.11,25,.12.21.23.42.34.63a16.69,16.69,0,0,1,1.74,7.38c0,24.33-46,26.22-60.09,26.22s-60.09-1.89-60.09-26.22a16.65,16.65,0,0,1,2.28-8.4C141,189.37,143.29,181.25,143.28,173.84ZM194,215.89c-19.11,0-33.84-3.43-40-6.82l-2.94-1.63,1.47-3c17.4-35.66,3-55.6-9.7-73.2-4.87-6.75-9.46-13.11-11.94-19.94l-.1-.29a67.12,67.12,0,1,1,126.34,0l-.06.27-.13.23c-2.5,6.73-7,13-11.76,19.68-12.64,17.68-27,37.71-9.78,73.23l1.46,3L234,209.06C227.86,212.46,213.13,215.89,194,215.89Zm-33.5-11.7c5.65,2.06,16.93,4.61,33.5,4.61s27.88-2.56,33.52-4.62c-16.51-37.33-.13-60.25,11.93-77.11,4.48-6.27,8.72-12.2,10.9-18.06l.07-.19a60,60,0,1,0-112.9-.18l.13.27,0,.21c2.14,5.76,6.41,11.67,10.92,17.92C160.75,143.87,177.24,166.7,160.5,204.19Z" transform="translate(-1.02 -3.86)"/></svg>