<svg
		xmlns="http://www.w3.org/2000/svg"
		xmlns:xlink="http://www.w3.org/1999/xlink"
		width="81.5px" height="37.5px">
	<path fill-rule="evenodd"  stroke="rgb(0, 0, 0)" stroke-width="1px" stroke-linecap="butt" stroke-linejoin="miter" fill="none"
		  d="M75.906,36.500 L65.813,36.500 C63.603,36.500 61.812,34.709 61.812,32.500 L61.812,6.906 C61.812,4.697 63.603,2.906 65.813,2.906 L66.625,2.906 L66.625,0.500 L69.031,0.500 L69.031,2.906 L72.656,2.906 L72.656,0.500 L75.063,0.500 L75.063,2.906 L75.906,2.906 C78.115,2.906 79.906,4.697 79.906,6.906 L79.906,32.500 C79.906,34.709 78.115,36.500 75.906,36.500 ZM55.594,36.500 L45.500,36.500 C43.291,36.500 41.500,34.709 41.500,32.500 L41.500,6.906 C41.500,4.697 43.291,2.906 45.500,2.906 L46.312,2.906 L46.312,0.500 L48.719,0.500 L48.719,2.906 L52.375,2.906 L52.375,0.500 L54.781,0.500 L54.781,2.906 L55.594,2.906 C57.803,2.906 59.594,4.697 59.594,6.906 L59.594,32.500 C59.594,34.709 57.803,36.500 55.594,36.500 ZM34.906,36.500 L24.812,36.500 C22.603,36.500 20.813,34.709 20.813,32.500 L20.813,6.906 C20.813,4.697 22.603,2.906 24.812,2.906 L25.625,2.906 L25.625,0.500 L28.031,0.500 L28.031,2.906 L31.656,2.906 L31.656,0.500 L34.063,0.500 L34.063,2.906 L34.906,2.906 C37.115,2.906 38.906,4.697 38.906,6.906 L38.906,32.500 C38.906,34.709 37.115,36.500 34.906,36.500 ZM14.594,36.500 L4.500,36.500 C2.291,36.500 0.500,34.709 0.500,32.500 L0.500,6.906 C0.500,4.697 2.291,2.906 4.500,2.906 L5.313,2.906 L5.313,0.500 L7.719,0.500 L7.719,2.906 L11.375,2.906 L11.375,0.500 L13.781,0.500 L13.781,2.906 L14.594,2.906 C16.803,2.906 18.594,4.697 18.594,6.906 L18.594,32.500 C18.594,34.709 16.803,36.500 14.594,36.500 Z"/>
</svg>