<?xml version="1.0" encoding="utf-8"?>
<!-- Generator: Adobe Illustrator 21.0.0, SVG Export Plug-In . SVG Version: 6.00 Build 0)  -->
<svg version="1.1" id="Слой_1" xmlns="http://www.w3.org/2000/svg" xmlns:xlink="http://www.w3.org/1999/xlink" x="0px" y="0px"
	 viewBox="0 0 18 14" style="enable-background:new 0 0 18 14;" xml:space="preserve">
<style type="text/css">
	.st0{fill:#9ACC4E;}
</style>
<path class="st0" d="M17.9,0c-0.6-0.6-7.9,5-11.5,8.7c-0.5,0.5-1,1-1.3,1.4C5.1,10.1,5,10.1,4.9,10C2.9,7.9,0.5,6.8,0.1,7.1
	c-0.3,0.3,0,2.8,1.9,4.8c1.1,1.1,2.1,1.8,2.8,2c0,0,0,0,0,0c0,0,0,0,0,0c0,0,0,0,0.1,0c0,0,0,0,0,0c1,0.4,3.5-2.1,6.4-5.2
	C14.7,5.1,18.5,0.7,17.9,0z"/>
</svg>
