<?xml version="1.0" encoding="utf-8"?>
<!-- Generator: Adobe Illustrator 22.1.0, SVG Export Plug-In . SVG Version: 6.00 Build 0)  -->
<svg version="1.1" id="Capa_1" xmlns="http://www.w3.org/2000/svg" xmlns:xlink="http://www.w3.org/1999/xlink" x="0px" y="0px"
	 viewBox="0 0 23 32.5" style="enable-background:new 0 0 23 32.5;" xml:space="preserve">
<style type="text/css">
	.st0{fill:#050505;}
</style>
<g>
	<g>
		<path class="st0" d="M22.9,27.6c-0.3-1-0.9-1.8-1.8-2.3l-2-1.2c0.4-1,0.6-2,0.6-3.2c0-0.8-0.1-1.5-0.3-2.2l0.9-0.2
			c0.7-0.2,1.4-0.7,1.7-1.3c0.4-0.7,0.5-1.4,0.3-2.2c-0.4-1.5-2-2.4-3.5-2l-2.5,0.7c1.7-1.3,2.9-3.2,2.9-5.3c0,0,0-0.1,0-0.1
			c1.7-0.5,3-2.1,3-4C22,1.9,20.2,0,17.9,0c-1.5,0-2.8,0.8-3.5,2c-0.9-0.3-1.8-0.5-2.8-0.5c-1,0-1.9,0.2-2.8,0.5
			C7.9,0.8,6.6,0,5.1,0C2.8,0,0.9,1.9,0.9,4.2c0,1.9,1.2,3.5,3,4c0,0,0,0.1,0,0.1c0,2.2,1.1,4.1,2.9,5.3L4.3,13
			c-1.5-0.4-3.1,0.5-3.5,2c-0.2,0.7-0.1,1.5,0.3,2.2c0.4,0.7,1,1.1,1.7,1.3l0.9,0.2c-0.2,0.7-0.3,1.5-0.3,2.2c0,1.1,0.2,2.2,0.6,3.2
			l-2,1.2c-0.9,0.5-1.6,1.4-1.8,2.3c-0.3,1-0.1,2.1,0.4,2.9c1.1,1.9,3.4,2.5,5.3,1.5l4.7-2.6c0.3,0,0.7,0.1,1,0.1s0.7,0,1-0.1
			l4.7,2.6c1.9,1.1,4.2,0.4,5.3-1.5C23,29.7,23.1,28.6,22.9,27.6z M8.4,7.2c0.4,0,0.8,0.4,0.8,0.8c0,0.4-0.4,0.8-0.8,0.8
			C7.9,8.8,7.6,8.4,7.6,8C7.6,7.6,7.9,7.2,8.4,7.2z M14.6,7.3c0.4,0,0.8,0.4,0.8,0.8s-0.4,0.8-0.8,0.8s-0.8-0.4-0.8-0.8
			C13.8,7.6,14.2,7.3,14.6,7.3z M11.2,26.2c-0.9-0.9-3.4-3.4-3.4-3.4c-1-1-1-2.7,0-3.8c1-1,2.7-1,3.8,0c1-1,2.7-1,3.8,0
			c1,1,1,2.7,0,3.8c-0.1,0.1-2.5,2.5-3.4,3.4C11.6,26.4,11.4,26.4,11.2,26.2z M17.9,2.1c1.1,0,2.1,0.9,2.1,2.1
			c0,0.8-0.5,1.6-1.2,1.9c-0.5-1.3-1.3-2.3-2.5-3.1C16.6,2.4,17.2,2.1,17.9,2.1z M11.5,8.9c1.4,0,2.5,1,2.5,2.3s-1.1,2.3-2.5,2.3
			c-1.4,0-2.5-1-2.5-2.3C9,9.9,10.1,8.9,11.5,8.9z M3.1,4.2C3.1,3,4,2.1,5.1,2.1c0.7,0,1.3,0.3,1.7,0.8c-1.1,0.8-2,1.9-2.5,3.1
			C3.6,5.8,3.1,5,3.1,4.2z"/>
		<ellipse class="st0" cx="11.5" cy="10.3" rx="1.1" ry="1"/>
	</g>
</g>
</svg>
