<?xml version="1.0" encoding="utf-8"?>
<!-- Generator: Adobe Illustrator 19.0.1, SVG Export Plug-In . SVG Version: 6.00 Build 0)  -->
<svg version="1.1" id="Графика" xmlns="http://www.w3.org/2000/svg" xmlns:xlink="http://www.w3.org/1999/xlink" x="0px"
	 y="0px" viewBox="0 0 29.2 36.5" style="enable-background:new 0 0 29.2 36.5;" xml:space="preserve">
<style type="text/css">
	.st0{fill:#090C10;}
</style>
<g>
	<g>
		<path class="st0" d="M22.4,27.4c0-0.2-0.3-0.3-0.4-0.1c-0.1,0.6-1,1-1.5,1.1c1.3-2,2.9-4.3,3.9-5.6c0.1-0.1,0.1-0.1,0.1-0.2
			c0,0,0,0,0,0c0.1-0.1,0.1-0.3,0.1-0.6c-0.2-0.9-1-2.3-2.5-3.3l0.1-0.2c0.6-0.2,1.2-0.4,1.8-0.8c0.2-0.1,0-0.4-0.2-0.3
			c-0.4,0.3-0.8,0.5-1.3,0.7l2-3.4c0,0,0,0,0,0l0,0c0-0.1,0.1-0.6-0.5-1.4c-0.1-0.2-0.3-0.4-0.5-0.6l2.4-3.3l0.2,1.2
			c0,0.1,0,0.1,0.1,0.1c0,0,0,0,0,0c0.1,0,0.1,0,0.2-0.1l0.9-1.4l1.5-0.1c0.1,0,0.1-0.1,0.2-0.1c0-0.1,0-0.1-0.1-0.2l-1.1-0.9
			l0.6-1.7c0-0.1,0-0.2-0.1-0.2c-0.1,0-0.1,0-0.2,0l-1.4,1L25.5,6c-0.1-0.1-0.1-0.1-0.2,0S25.2,6,25.2,6.1l0.2,1.7l-1.4,0.8
			C24,8.7,24,8.8,24,8.9C24,8.9,24.1,9,24.2,9l1.5,0.1l-2.5,3.4c-0.8-0.7-2-1.4-3.5-2l2.7-5.8l0.7,1.4c0,0,0,0.1,0.1,0.1
			c0,0,0.1,0,0.1,0c0.1,0,0.1-0.1,0.2-0.1l0.4-1.9l1.8-0.6c0.1,0,0.1-0.1,0.1-0.2c0-0.1,0-0.1-0.1-0.2L24,2.6l0.3-2.2
			c0-0.1,0-0.2-0.1-0.2c0,0,0,0,0,0c-0.1,0-0.2,0-0.2,0l-1.4,1.7L21,1c-0.1,0-0.1,0-0.2,0c-0.1,0.1-0.1,0.1,0,0.2L21.5,3l-1.3,1.5
			c0,0.1-0.1,0.1,0,0.2c0,0.1,0.1,0.1,0.2,0.1l1.8-0.3l-2.7,5.9c-0.2-0.1-0.4-0.2-0.5-0.2c-1.3-0.5-2.3-0.9-3.2-1.1l0.9-4l1.2,1
			c0.1,0,0.1,0.1,0.2,0c0.1,0,0.1-0.1,0.1-0.2l-0.4-1.7L19,3.3c0.1,0,0.1-0.1,0.1-0.2C19,3.1,19,3,18.9,3l-1.5-0.2L17.2,1
			c0-0.1-0.1-0.1-0.1-0.1c-0.1,0-0.1,0-0.2,0.1l-1,1.7l-1.3-0.4c-0.1,0-0.2,0-0.2,0.1c0,0.1,0,0.2,0,0.2l1,1.1l-1.1,1.4
			c0,0.1,0,0.1,0,0.2c0,0,0,0,0.1,0.1c0,0,0.1,0,0.1,0l1.7-0.5l-0.9,4.1c-1-0.2-1.7-0.2-2.1,0.1C13,9.2,13,9.4,13,9.5L12.3,12
			c-0.2-0.5-0.2-1.1-0.2-1.6c0-0.2-0.4-0.2-0.4,0c0,0.7,0.1,1.5,0.4,2.2l-0.4,1.3C9,13.4,8.2,15,8.2,15.1c0,0,0,0,0,0c0,0,0,0,0,0
			c0,0,0,0,0,0l-2.1,7.2c-0.4-0.4-0.7-1-0.7-1.5c0-0.2-0.4-0.2-0.4,0c0,0.7,0.5,1.4,1,1.9l-1,3.6c0,0,0,0.1,0,0.1c0.1,0.1,2,3,6.4,5
			c3.8,1.7,6.5,0.8,6.6,0.8c0,0,0.1,0,0.1-0.1c0,0,1-1.5,2.2-3.2c0.1,0,0.3,0,0.4-0.1C21.3,28.6,22.3,28.2,22.4,27.4z M25.7,8.1
			c0.1,0,0.1-0.1,0.1-0.2l-0.2-1.4l0.9,0.9c0.1,0.1,0.2,0.1,0.2,0l1.1-0.8l-0.5,1.3c0,0.1,0,0.1,0.1,0.2l0.8,0.7l-1.1,0.1
			c-0.1,0-0.1,0-0.1,0.1l-0.7,1.1L26.1,9c0-0.1,0-0.1-0.1-0.1c0,0,0,0-0.1,0l-1.3-0.1L25.7,8.1z M21.9,3.2c0-0.1,0.1-0.1,0-0.2
			l-0.6-1.4l1.3,0.7c0.1,0,0.2,0,0.2,0l1.1-1.3l-0.2,1.8c0,0.1,0,0.2,0.1,0.2l1.3,0.5l-1.4,0.5c-0.1,0-0.1,0.1-0.1,0.1l-0.3,1.5
			l-0.6-1.3c0,0,0-0.1-0.1-0.1c0,0-0.1,0-0.1,0l-1.6,0.3L21.9,3.2z M15.8,3.6L15,2.8L15.9,3c0.1,0,0.2,0,0.2-0.1l0.8-1.3L17.1,3
			c0,0.1,0.1,0.1,0.2,0.2l1.1,0.1l-1,0.6c-0.1,0-0.1,0.1-0.1,0.2l0.3,1.3l-1-0.9c0,0-0.1-0.1-0.2,0l-1.5,0.4l0.8-1.1
			C15.8,3.7,15.8,3.6,15.8,3.6z M22,18.3c-0.7,0.2-1.4,0.2-2.1-0.1c-0.4-0.1-0.9-0.4-1.2-0.7c0,0,0.1-0.1,0.1-0.1
			c0.2-0.2,0.3-0.7,0.1-1c-0.2-0.2-0.5-0.2-0.7,0c-0.2,0.2-0.2,0.5-0.1,0.8c0,0.1,0.1,0.1,0.1,0.2c-0.1,0-0.3,0-0.4,0
			c-1.2,0-2.5-0.5-3.3-1.4c-0.4-0.4-0.6-0.9-0.5-1.4c0.1,0,0.2,0,0.2,0c0.5,0,1-0.9,0.3-1c-0.4-0.1-0.7,0.2-0.8,0.5
			c-0.1,0-0.1-0.1-0.2-0.1c-0.5-0.4-0.8-0.9-1.1-1.5l0.7-2.3c0.4,0.7,1.4,1.9,4.5,3.4c3.6,1.9,5.4,1.8,6.3,1.5L22,18.3z M18.6,17.1
			c0,0.1-0.1,0.1-0.1,0.1c0,0,0,0,0-0.1c-0.1-0.2-0.2-0.3,0-0.4C18.7,16.5,18.7,16.9,18.6,17.1z M14.1,14.3c0-0.1,0.1-0.1,0.1-0.2
			c0.1-0.1,0.4-0.1,0.2,0.1C14.3,14.3,14.2,14.3,14.1,14.3z M13.3,9.5L13.3,9.5c0,0,0-0.1,0.2-0.2c0.2-0.1,0.7-0.3,1.8,0l-0.2,1
			l0.3,0.1l0.2-1c0.8,0.2,1.8,0.5,3.1,1.1c0.2,0.1,0.4,0.2,0.5,0.2l-0.7,1.6l0.3,0.1l0.7-1.6c1.7,0.8,2.7,1.4,3.4,2l-0.6,0.8
			l0.3,0.2l0.6-0.8c0.9,0.8,0.9,1.4,0.9,1.5c-0.2,0.2-1.7,1.2-6.4-1.2C13.1,10.9,13.3,9.6,13.3,9.5C13.3,9.6,13.3,9.5,13.3,9.5z
			 M12.5,13.3c0.3,0.4,0.7,1,1.2,1.3c0,0.2,0,0.4,0,0.6c0.1,0.9,0.9,1.6,1.7,2c0.8,0.5,1.7,0.7,2.6,0.6c0.1,0,0.3,0,0.4-0.1
			c0.5,0.6,1.4,0.9,2.1,1c0.4,0.1,0.8,0,1.2,0l-1.5,2.5c-0.3,0-1.7-0.1-5-1.4c-3.1-1.2-3.9-2.5-4.1-2.8l1.2-4
			C12.4,13.1,12.4,13.2,12.5,13.3z M11.6,14.2L10.8,17c0,0,0,0.1,0,0.1c0,0.1,0.5,1.3,3.4,2.6c0.3,0.1,0.6,0.3,0.9,0.4
			c4,1.6,5.2,1.4,5.3,1.4c0.1,0,0.1,0,0.1-0.1l1.4-2.3c1.6,1.1,2.2,2.4,2.3,3c0,0.2,0,0.3,0,0.4c0,0-0.1,0.1-0.1,0.1
			c-0.2,0.3-0.9,1-2.2,1.3c-2.7,0.7-5.8-0.9-8-2.3c-6-3.9-5.5-6.3-5.4-6.5l0,0C8.6,15.1,9.3,13.8,11.6,14.2z M8.2,16.2
			c0.3,1.2,1.5,3.2,5.5,5.8c0.8,0.5,1.6,1,2.6,1.4c1.8,0.8,3.9,1.4,5.8,0.9c0.5-0.1,0.9-0.3,1.2-0.5c-1,1.4-2.2,3.2-3.3,4.8
			c-0.3,0-0.6,0-1-0.1c-0.3-0.1-1-0.5-1.5-0.9c0.2-0.4,0.2-0.9-0.3-1.2c-0.1,0-0.2,0-0.2,0c-0.5,0.4-0.3,0.8,0,1.2
			c-0.2,0.3-0.5,0.5-0.7,0.6c-0.7,0.2-1.5,0-2.1-0.3c-0.7-0.3-1.3-0.8-1.6-1.5c0,0,0-0.1,0-0.1c0.3-0.2,0.5-0.4,0.5-0.7
			c0.1-0.3-0.1-0.6-0.4-0.7c-0.3,0-0.4,0.2-0.5,0.5c-0.1,0.2-0.1,0.5-0.1,0.7c-0.4,0.2-0.8,0.3-1.2,0.3c-0.8,0-1.7-0.2-2.3-0.7
			c-0.4-0.4-0.7-1-0.5-1.5c0.2,0,0.3,0,0.5,0C9.2,24,9.4,22.9,8.7,23c-0.3,0.1-0.6,0.3-0.7,0.6c0,0,0,0,0,0c-0.5-0.2-1.1-0.5-1.6-1
			L8.2,16.2z M17.3,27.3c-0.1-0.2-0.2-0.4-0.1-0.6C17.4,26.9,17.4,27.1,17.3,27.3z M12.7,25.6c0,0.1-0.1,0.1-0.1,0.2
			c0-0.1,0-0.1,0-0.2c0-0.1,0-0.3,0.1-0.3C12.8,25.1,12.7,25.5,12.7,25.6z M8.3,23.7c0-0.1,0.1-0.1,0.1-0.2c0,0,0.3-0.3,0.3-0.2
			c0.1,0.1-0.1,0.3-0.2,0.4C8.5,23.8,8.4,23.8,8.3,23.7z M17.8,31.9c-0.4,0.1-2.9,0.8-6.3-0.8c-2.3-1-3.8-2.3-4.7-3.2
			c-0.8-0.8-1.3-1.4-1.4-1.6l1-3.3c0.2,0.1,0.3,0.3,0.5,0.4c0.3,0.2,0.7,0.4,1,0.6c-0.1,0.4-0.1,0.8,0.1,1.2c0.5,1.1,1.9,1.5,3,1.5
			c0.4,0,0.9-0.1,1.4-0.3c0.2,0.5,0.6,0.9,1,1.3c0.9,0.7,2.2,1.2,3.3,0.8c0.3-0.1,0.5-0.3,0.7-0.6c0.5,0.4,1.2,0.7,1.5,0.9
			c0.3,0.1,0.6,0.2,0.9,0.2C18.8,30.4,18,31.6,17.8,31.9z"/>
		<path d="M13.6,32.4c-0.7-0.2-1.5-0.4-2.4-0.8c-4.5-2-6.4-5-6.5-5.1c-0.1-0.1-0.1-0.2,0-0.3l1-3.4c-0.6-0.6-0.9-1.3-0.9-1.9
			c0-0.1,0.1-0.2,0.2-0.3c0.1-0.1,0.3-0.1,0.4,0c0.1,0.1,0.2,0.2,0.2,0.3c0,0.4,0.2,0.7,0.4,1.1l2-6.9c0,0,0,0,0,0l0,0
			c0.1-0.1,0.9-1.8,3.6-1.4l0.3-1.1c-0.3-0.7-0.4-1.5-0.4-2.3c0-0.1,0.1-0.3,0.2-0.3c0.1-0.1,0.3-0.1,0.4,0c0.1,0.1,0.2,0.2,0.2,0.3
			c0,0.3,0,0.6,0,0.8l0.5-1.7c0-0.1,0.1-0.4,0.4-0.6c0.4-0.3,1.1-0.3,2.1-0.2L16,5.2l-1.4,0.4c-0.1,0-0.2,0-0.3,0
			c-0.1,0-0.1-0.1-0.2-0.1c-0.1-0.1-0.1-0.3,0-0.4l1-1.3l-0.9-1c-0.1-0.1-0.1-0.3,0-0.4c0.1-0.1,0.3-0.2,0.4-0.2l1.2,0.4l0.9-1.5
			c0.1-0.1,0.2-0.2,0.4-0.2c0.2,0,0.3,0.2,0.3,0.3l0.2,1.6l1.3,0.2c0.2,0,0.3,0.1,0.3,0.3c0,0.2,0,0.3-0.2,0.4l-1.2,0.7l0.4,1.5
			c0,0.2,0,0.3-0.2,0.4c-0.1,0.1-0.3,0.1-0.4,0l-1-0.8L16,8.9c0.8,0.2,1.9,0.6,3,1.1c0.1,0.1,0.2,0.1,0.4,0.2l2.5-5.3L20.4,5
			c-0.2,0-0.3,0-0.4-0.2c-0.1-0.1-0.1-0.3,0-0.4L21.3,3l-0.8-1.7c-0.1-0.1,0-0.3,0.1-0.4c0.1-0.1,0.3-0.1,0.4,0l1.5,0.8l1.3-1.5
			C24,0,24.1,0,24.3,0l0,0c0.1,0.1,0.2,0.2,0.2,0.4l-0.3,2.1L25.8,3C25.9,3.1,26,3.2,26,3.4c0,0.2-0.1,0.3-0.3,0.3L24,4.3l-0.4,1.8
			c0,0.2-0.2,0.3-0.3,0.3c-0.1,0-0.1,0-0.2,0c-0.1,0-0.1-0.1-0.2-0.2l-0.5-1L20,10.4c1.3,0.6,2.4,1.2,3.2,1.8l2.2-2.9l-1.2-0.1
			c-0.2,0-0.3-0.1-0.3-0.3c0-0.2,0-0.3,0.2-0.4l1.2-0.8L25,6.1c0-0.2,0.1-0.3,0.2-0.4c0.1-0.1,0.3,0,0.4,0.1l1.1,1L28,5.9
			c0.1-0.1,0.3-0.1,0.4,0c0.1,0.1,0.2,0.3,0.1,0.4l-0.6,1.5l1,0.8c0.1,0.1,0.2,0.3,0.1,0.4c0,0.1-0.2,0.2-0.3,0.3l-1.4,0.1l-0.8,1.4
			c-0.1,0.1-0.2,0.2-0.4,0.2c0,0-0.1,0-0.1,0c-0.1-0.1-0.2-0.2-0.2-0.3L25.8,10l-2,2.8c0.2,0.2,0.3,0.3,0.4,0.5
			c0.7,0.9,0.6,1.5,0.6,1.6l-0.1,0.2l0,0L23,17.7c0.3-0.1,0.5-0.3,0.7-0.4c0.1-0.1,0.2-0.1,0.4,0c0.1,0.1,0.2,0.2,0.2,0.3
			c0,0.1,0,0.3-0.2,0.3c-0.5,0.4-1.1,0.6-1.8,0.8l0,0c1.5,1,2.3,2.4,2.4,3.3c0.1,0.3,0,0.5-0.1,0.7l0,0c0,0-0.1,0.1-0.1,0.2
			c-0.8,1-2,2.8-3.6,5.1c0.5-0.2,0.8-0.5,0.9-0.8c0-0.2,0.2-0.3,0.4-0.3c0.2,0,0.4,0.2,0.3,0.4l0,0c-0.1,0.7-0.8,1.2-1.9,1.5
			c-0.1,0-0.2,0.1-0.3,0.1c-1,1.5-1.9,2.8-2.1,3.1l0,0c0,0.1-0.1,0.1-0.2,0.1C17.9,32.4,16.2,33,13.6,32.4z M5.5,26.2
			c0.2,0.2,0.6,0.8,1.3,1.5c0.9,0.9,2.5,2.1,4.7,3.2c3.1,1.4,5.5,0.9,6.1,0.8c0.3-0.4,1-1.4,1.8-2.6c-0.2,0-0.4-0.1-0.6-0.2
			c-0.4-0.2-0.9-0.4-1.4-0.8c-0.2,0.2-0.5,0.4-0.7,0.5c-1,0.4-2.3,0.1-3.5-0.8c-0.3-0.3-0.8-0.7-1-1.2c-0.5,0.2-1,0.2-1.3,0.2
			c-1.1,0-2.6-0.4-3.1-1.6c-0.1-0.3-0.2-0.7-0.1-1.1C7.3,24,7,23.8,6.7,23.5c-0.1-0.1-0.2-0.1-0.3-0.2L5.5,26.2z M12.8,26.3
			c0.2,0.5,0.7,1,1.5,1.4c0.4,0.2,1.2,0.5,2,0.3c0.1,0,0.4-0.2,0.5-0.4c-0.2-0.2-0.3-0.5-0.3-0.7c0-0.2,0.1-0.5,0.4-0.7
			c0.1-0.1,0.3-0.1,0.5,0c0.5,0.3,0.6,0.8,0.4,1.3c0.4,0.3,1,0.6,1.3,0.7c0.3,0.1,0.5,0.1,0.8,0.1c1.1-1.6,2-3,2.8-4.1
			c-0.2,0.1-0.4,0.1-0.6,0.2c-1.7,0.4-3.6,0.1-5.9-0.9c-0.8-0.4-1.7-0.9-2.6-1.4c-3.5-2.2-4.9-4-5.4-5.3l-1.7,5.7
			c0.4,0.3,0.8,0.6,1.3,0.8c0.2-0.3,0.5-0.5,0.8-0.5C9,22.8,9.1,22.9,9.2,23c0.1,0.2,0.2,0.5,0.1,0.7c-0.1,0.3-0.3,0.5-0.6,0.6
			c-0.1,0-0.2,0-0.3,0c-0.1,0.4,0.1,0.8,0.5,1.1c0.6,0.5,1.5,0.7,2.2,0.7c0.3,0,0.6-0.1,1-0.2c0-0.2,0-0.4,0.1-0.7
			c0.2-0.6,0.5-0.6,0.7-0.6c0.2,0,0.3,0.1,0.4,0.3c0.1,0.2,0.2,0.4,0.1,0.6C13.2,25.8,13.1,26.1,12.8,26.3z M17,26.8
			c0,0,0,0.1,0,0.1c0,0,0,0,0,0.1C17,26.9,17,26.8,17,26.8z M12.8,25.7c0,0-0.1,0.1-0.1,0.1c0.1-0.1,0.2-0.2,0.2-0.4
			C12.9,25.6,12.8,25.7,12.8,25.7L12.8,25.7z M12.7,25C12.7,25,12.7,25,12.7,25c-0.1,0-0.1,0-0.2,0.1C12.6,25,12.7,25,12.7,25
			C12.8,25,12.7,25,12.7,25z M8.4,23.4c-0.1,0.1-0.2,0.2-0.2,0.3c0-0.1,0.1-0.1,0.1-0.2C8.4,23.4,8.4,23.4,8.4,23.4z M8.7,15.3
			c0,0.2-0.3,2.5,5.4,6.2c2.1,1.4,5.3,2.9,7.9,2.3c1.2-0.3,1.9-1,2.1-1.3l0.1-0.1c0,0,0-0.1,0-0.2c-0.1-0.5-0.7-1.8-2.1-2.8
			l-1.3,2.1c-0.1,0.1-0.1,0.2-0.3,0.2c-0.1,0-1.4,0.2-5.4-1.4c-0.3-0.1-0.6-0.3-0.9-0.4c-2.9-1.3-3.4-2.6-3.5-2.7c0-0.1,0-0.2,0-0.2
			l0.8-2.6C9.5,14.1,8.8,15.1,8.7,15.3z M24.1,23c-0.1,0.1-0.2,0.2-0.3,0.3l0.2-0.1C24,23.2,24,23.1,24.1,23z M11.4,17
			c0.2,0.4,1.1,1.5,3.9,2.6c3,1.2,4.4,1.3,4.9,1.4l1.2-2.1c-0.3,0-0.6,0-0.9,0c-0.9-0.1-1.7-0.5-2.1-1c-0.1,0-0.2,0-0.3,0
			c-0.9,0.1-1.9-0.2-2.8-0.7c-1.1-0.6-1.7-1.3-1.8-2.1c0-0.2,0-0.3,0-0.5c-0.4-0.3-0.8-0.8-1.1-1.1L11.4,17z M8.3,15.5l0,0.2
			c0-0.1,0-0.2,0-0.3L8.3,15.5z M19,17.5c0.3,0.3,0.7,0.4,0.9,0.5c0.6,0.2,1.2,0.2,1.9,0.1l1.6-2.6c-1.1,0.2-2.9-0.1-5.9-1.6
			c-2.6-1.3-3.8-2.4-4.3-3.1l-0.5,1.8c0.2,0.5,0.6,1,1,1.4c0.2-0.3,0.5-0.5,0.9-0.4c0.3,0,0.5,0.3,0.5,0.5c0,0.4-0.4,0.8-0.8,0.9
			c0,0,0,0-0.1,0c0,0.4,0.3,0.8,0.5,1c0.8,0.9,2,1.4,3.1,1.3c0,0,0.1,0,0.1,0c-0.2-0.4-0.1-0.8,0.2-1c0.3-0.3,0.8-0.2,1,0.1
			C19.4,16.7,19.3,17.2,19,17.5z M18.7,16.5c-0.1,0-0.2,0-0.3,0.1c-0.1,0.1-0.1,0.1-0.1,0.2c0-0.1,0.1-0.1,0.1-0.2
			C18.5,16.4,18.7,16.5,18.7,16.5c0.2,0.1,0.2,0.3,0.2,0.5c0-0.1,0-0.3-0.1-0.4C18.8,16.5,18.7,16.5,18.7,16.5z M14.4,13.9
			c0,0,0.1,0,0.1,0.1c0,0,0.1,0.1,0.1,0.2c0,0,0-0.1,0-0.1C14.7,14,14.7,13.9,14.4,13.9c0,0-0.2,0-0.3,0.1
			C14.2,13.9,14.3,13.9,14.4,13.9z M13.5,9.7c0,0.3,0.5,1.5,4.3,3.5c4.3,2.2,5.8,1.6,6.1,1.3c0-0.2-0.1-0.6-0.7-1.1l-0.5,0.7
			l-0.6-0.4l0.6-0.8c-0.7-0.6-1.7-1.2-3-1.8L19,12.6l-0.7-0.3l0.7-1.6c-0.1,0-0.2-0.1-0.3-0.1c-1.1-0.5-2.1-0.8-2.9-1l-0.2,1
			l-0.7-0.2l0.2-1c-1-0.2-1.4,0-1.5,0c-0.1,0-0.1,0.1-0.1,0.1L13.5,9.7z M24.3,14.8c0,0-0.1,0.1-0.1,0.1L24.3,14.8L24.3,14.8z
			 M13.1,9.7L13.1,9.7C13.1,9.8,13.1,9.7,13.1,9.7L13.1,9.7z M26,8.6C26.1,8.6,26.1,8.6,26,8.6c0.2,0.1,0.3,0.2,0.3,0.3l0.1,0.7
			l0.4-0.7c0.1-0.1,0.2-0.2,0.3-0.2l0.7,0l-0.5-0.4c-0.1-0.1-0.2-0.3-0.1-0.4l0.2-0.7l-0.6,0.4c-0.1,0.1-0.3,0.1-0.5,0l-0.5-0.5
			L26,7.9C26,8,26,8.2,25.8,8.2l-0.5,0.3L26,8.6C26,8.6,26,8.6,26,8.6z M15.9,3.4c0.1,0.1,0.1,0.3,0,0.5l-0.5,0.6l0.9-0.3
			c0.1,0,0.3,0,0.3,0.1l0.6,0.5l-0.2-0.6c0-0.2,0-0.3,0.2-0.4l0.5-0.3l-0.6-0.1c-0.2,0-0.3-0.2-0.3-0.3l-0.1-0.9L16.3,3
			c-0.1,0.2-0.3,0.2-0.4,0.2l-0.2-0.1L15.9,3.4z M22.5,3.9C22.5,3.9,22.5,3.9,22.5,3.9C22.6,4,22.7,4,22.7,4.1l0.4,0.8l0.2-1
			c0-0.1,0.1-0.2,0.2-0.3l0.9-0.3l-0.8-0.3c-0.2-0.1-0.3-0.2-0.2-0.4l0.1-1.1l-0.7,0.8c-0.1,0.1-0.3,0.2-0.5,0.1L21.7,2l0.4,0.9
			c0.1,0.1,0,0.3-0.1,0.4l-0.7,0.8l1-0.2C22.4,3.9,22.4,3.9,22.5,3.9z"/>
	</g>
	<g>
		<g>
			<path class="st0" d="M5.6,24.1c-1.5-0.5-6.2-1.2-5.6,1.8c0.3,1.4,1.6,2.4,2.6,3.3c1.3,1.1,2.7,2.2,4.1,3.1
				c2.2,1.4,4.6,2.6,7.1,3.3c2.1,0.6,5,1.5,7.1,0.5c3.2-1.4-0.5-4.5-2-5.6c-0.5-0.3-1.1,0.3-0.6,0.7c0.8,0.6,1.6,1.2,2.3,2
				c0.3,0.3,0.7,0.8,0.7,1.2c0,0.7-0.8,0.9-1.4,1c-1.7,0.3-3.8-0.3-5.5-0.7c-4.4-1.2-8.2-3.7-11.6-6.7c-0.7-0.6-2.7-2.4-1.5-3.2
				c1.1-0.8,3-0.2,4.1,0.2C6,25.2,6.2,24.3,5.6,24.1L5.6,24.1z"/>
		</g>
	</g>
</g>
</svg>
