<svg id="Слой_1" data-name="Слой 1" xmlns="http://www.w3.org/2000/svg" viewBox="0 0 383.93 280.13"><defs><style>.cls-1{fill:#fff;}</style></defs><title>icon-food-menu</title><path class="cls-1" d="M37.82,249.24H362.28a26,26,0,0,0,25.8-28.8,191.64,191.64,0,0,0-162.2-167A29.26,29.26,0,0,0,229.8,39a29.66,29.66,0,0,0-59.33,0,29.26,29.26,0,0,0,3.8,14.17,191.64,191.64,0,0,0-162.2,167A26,26,0,0,0,37.82,249ZM200.14,26.79a12.33,12.33,0,1,1-12.38,12.27V39A12.38,12.38,0,0,1,200.14,26.79ZM29.24,222.28a173.78,173.78,0,0,1,170.9-153.5A173.78,173.78,0,0,1,371,222.28a8.7,8.7,0,0,1-2.19,6.8,8.52,8.52,0,0,1-6.45,2.88H37.82a8.47,8.47,0,0,1-6.39-2.88A8.7,8.7,0,0,1,29.24,222.28Z" transform="translate(-8.14 -6.5)"/><path class="cls-1" d="M362.28,252.07H35v-.38l-.22,0A28.85,28.85,0,0,1,9.25,219.9,194.87,194.87,0,0,1,170.06,51,32.18,32.18,0,0,1,167.64,39,32.5,32.5,0,1,1,230.13,51.2,194.86,194.86,0,0,1,390.9,220.11a29,29,0,0,1,.17,3.14,28.81,28.81,0,0,1-28.79,28.83ZM40.65,246.41H362.28a23.15,23.15,0,0,0,23-25.66A189.17,189.17,0,0,0,225.47,56.2l-4.12-.61L223.43,52A26.47,26.47,0,0,0,227,39a26.83,26.83,0,0,0-53.66,0,26.47,26.47,0,0,0,3.43,12.77l2,3.6-4.09.61A189.17,189.17,0,0,0,14.89,220.54a23.15,23.15,0,0,0,22.94,25.63h2.83ZM362.4,234.79H37.78A11.29,11.29,0,0,1,29.3,231a11.52,11.52,0,0,1-2.88-9v0a176.61,176.61,0,0,1,173.69-156A176.61,176.61,0,0,1,373.79,222a11.54,11.54,0,0,1-2.9,9A11.34,11.34,0,0,1,362.4,234.79Zm-.06-5.67h0a5.7,5.7,0,0,0,4.28-1.92,5.88,5.88,0,0,0,1.5-4.6c-10-85.2-82.25-150.12-168.05-151-85.77.84-158,65.75-168.05,151a5.87,5.87,0,0,0,1.48,4.58,5.65,5.65,0,0,0,4.26,1.95H362.34ZM200.08,54.28H200A15.16,15.16,0,0,1,200.14,24h0a15.16,15.16,0,0,1-.07,30.32Zm.05-24.65a9.49,9.49,0,1,0-.1,19h0a9.49,9.49,0,0,0,.05-19Z" transform="translate(-8.14 -6.5)"/><path class="cls-1" d="M19.62,283.8h361a8.64,8.64,0,1,0,0-17.28h-361a8.64,8.64,0,1,0,0,17.28Z" transform="translate(-8.14 -6.5)"/><path class="cls-1" d="M380.6,286.63h-361a11.48,11.48,0,0,1,0-23h361a11.48,11.48,0,1,1,0,23Zm-361-17.28a5.81,5.81,0,1,0,0,11.61h361a5.81,5.81,0,1,0,0-11.61Z" transform="translate(-8.14 -6.5)"/><path class="cls-1" d="M73.59,203.74A8.64,8.64,0,0,0,84.4,198l0-.06a121.65,121.65,0,0,1,78.39-79.26,8.64,8.64,0,1,0-5.36-16.36,138.93,138.93,0,0,0-89.51,90.55A8.64,8.64,0,0,0,73.59,203.74Z" transform="translate(-8.14 -6.5)"/><path class="cls-1" d="M76.14,207a11.42,11.42,0,0,1-3.39-.51h0a11.49,11.49,0,0,1-7.5-14.38A142,142,0,0,1,156.46,99.7a11.47,11.47,0,0,1,15.57,8,11.47,11.47,0,0,1-8.45,13.74,119,119,0,0,0-76.46,77.38A11.52,11.52,0,0,1,76.14,207ZM74.44,201a5.81,5.81,0,0,0,7.26-3.83A124.74,124.74,0,0,1,161.93,116l.24-.07a5.81,5.81,0,1,0-2.63-11.31,5.83,5.83,0,0,0-1,.32l-.24.09a136.34,136.34,0,0,0-87.68,88.7A5.81,5.81,0,0,0,74.44,201Z" transform="translate(-8.14 -6.5)"/></svg>