<?xml version="1.0" encoding="utf-8"?>
<!-- Generator: Adobe Illustrator 22.1.0, SVG Export Plug-In . SVG Version: 6.00 Build 0)  -->
<svg version="1.1" id="Слой_1" xmlns="http://www.w3.org/2000/svg" xmlns:xlink="http://www.w3.org/1999/xlink" x="0px" y="0px"
	 viewBox="0 0 23.2 24.4" style="enable-background:new 0 0 23.2 24.4;" xml:space="preserve">
<style type="text/css">
	.st0{fill:#131414;}
</style>
<g transform="translate(0,-952.36218)">
	<g>
		<path class="st0" d="M19.9,952.6c-0.2,0-0.3,0.1-0.4,0.2l-4.9,7c-0.3-0.1-0.6-0.2-0.9-0.2c-1.4,0-2.9,1-3.7,2.4
			c-2.1,3.7-6.9,5.1-9.4,5.7c-0.3,0.1-0.5,0.5-0.3,0.8c1.1,1.6,2.2,2.8,3.6,3.9c0.2,0.1,0.5,0.2,0.7,0l0.7-0.5l-0.4,0.6
			c-0.2,0.2-0.1,0.6,0.2,0.8c1.2,0.8,2.6,1.5,3.9,1.9c0.2,0.1,0.4,0,0.6-0.1l0.6-0.6l-0.1,0.2c-0.2,0.3,0.2,1,0.6,1.1
			c1.4,0.4,4.3,0.8,5.4,0.8c0.2,0,0.4-0.1,0.5-0.3l3.2-8.9l0,0c0.6-1,0.8-2,0.7-3c-0.1-0.8-0.4-1.5-1-2l3.6-7.7
			c0.1-0.2,0-0.6-0.2-0.7l-2.4-1.4C20.1,952.6,20,952.6,19.9,952.6z M20.1,953.8l1.6,0.9l-3.3,7.1l-2.8-1.6L20.1,953.8z M13.7,960.7
			c0.3,0,0.6,0.1,0.8,0.2l3.8,2.2c0.5,0.3,0.8,0.8,0.9,1.5c0.1,0.6,0,1.2-0.3,1.9l-7.7-4.3C11.9,961.3,12.9,960.7,13.7,960.7z
			 M10.6,963.1l7.8,4.4l-2.7,8.2c-0.7,0-3.4-0.5-4.4-0.8l1.5-2.6c0.1-0.2,0.1-0.5-0.1-0.7c-0.2-0.2-0.5-0.2-0.7,0l-3,2.7
			c-0.9-0.4-2-0.9-2.9-1.5l1.6-2.5c0.1-0.2,0.1-0.5-0.1-0.7s-0.5-0.2-0.7,0l-2.6,1.9c-1-0.8-1.8-1.7-2.6-2.8
			C4.1,967.9,8.3,966.5,10.6,963.1z"/>
		<path class="st0" d="M15.9,976.8L15.9,976.8c-0.6,0-1.6-0.1-2.6-0.3c-1.1-0.2-2.2-0.4-2.8-0.6c-0.2-0.1-0.5-0.4-0.6-0.7
			c0-0.1-0.1-0.2-0.1-0.3l-0.3,0.3c-0.2,0.2-0.4,0.2-0.7,0.1c-1.1-0.4-2.5-1.1-3.9-2c-0.1-0.1-0.3-0.2-0.3-0.4s0-0.4,0.1-0.5l0,0
			l-0.2,0.1c-0.2,0.2-0.6,0.2-0.8,0c-1.4-1.1-2.5-2.3-3.7-3.9c0-0.1,0-0.3,0-0.5c0.1-0.2,0.2-0.4,0.4-0.4c2.1-0.6,7.2-1.9,9.4-5.7
			c0.4-0.7,1-1.3,1.7-1.8c0.7-0.4,1.4-0.7,2.1-0.7c0.3,0,0.5,0,0.9,0.1l4.9-6.9c0.1-0.2,0.3-0.3,0.5-0.3l0,0c0.1,0,0.3,0,0.4,0.1
			l2.4,1.4c0.3,0.2,0.4,0.6,0.3,0.9l-3.6,7.7c0.5,0.5,0.9,1.2,1,2c0.1,1-0.1,2.1-0.7,3.1l0,0l-3.1,8.9l0,0
			C16.4,976.7,16.2,976.8,15.9,976.8z M10.5,974l-0.5,0.8c0,0.1,0,0.2,0,0.3c0.1,0.2,0.3,0.5,0.5,0.5c1.4,0.4,4.3,0.8,5.4,0.8
			c0.1,0,0.3-0.1,0.4-0.2l3.2-8.9l0,0l0,0c0.5-0.9,0.8-2,0.6-2.9c-0.1-0.8-0.4-1.5-1-2l-0.1-0.1v-0.1l3.6-7.7c0.1-0.2,0-0.4-0.2-0.5
			l-2.4-1.4c-0.1,0-0.2-0.1-0.2-0.1c-0.1,0-0.2,0.1-0.3,0.2l-5,7.1h-0.1c-0.3-0.1-0.6-0.2-0.9-0.1c-1.4,0-2.8,1-3.6,2.4
			c-0.5,0.9-1.2,1.7-2.1,2.4c-0.7,0.6-1.6,1.2-2.6,1.7c-1.9,0.9-3.9,1.5-4.9,1.7c-0.1,0-0.2,0.1-0.3,0.3c-0.1,0.1,0,0.3,0,0.4
			c1.1,1.6,2.2,2.8,3.6,3.9l0,0c0.1,0.1,0.4,0.1,0.5,0l1.2-0.8l-0.7,1.1c-0.1,0.1-0.1,0.2,0,0.3c0,0.1,0.1,0.2,0.2,0.3
			c1.4,0.8,2.7,1.5,3.9,1.9c0.1,0.1,0.3,0,0.4-0.1L10.5,974z M15.7,975.7L15.7,975.7c-0.8-0.1-3.5-0.5-4.5-0.8h-0.1l1.6-2.8
			c0.1-0.2,0-0.4-0.1-0.5c-0.2-0.1-0.4-0.1-0.5,0l-3,2.8H9c-1-0.4-2-1-3-1.6l-0.1-0.1l1.7-2.6c0.1-0.2,0.1-0.4-0.1-0.5
			c-0.1-0.1-0.4-0.1-0.5,0l0,0l-2.7,2l-0.1-0.1c-1-0.8-1.8-1.7-2.7-2.8l-0.1-0.1h0.2c2.8-0.8,6.8-2.2,9-5.5l0.1-0.1l7.9,4.5
			L15.7,975.7z M11.4,974.7c1.1,0.3,3.4,0.7,4.1,0.8l2.7-8l-7.6-4.3c-0.5,0.8-1.2,1.5-2,2.2c-0.7,0.6-1.5,1.1-2.4,1.6
			c-1.6,0.8-3.2,1.3-4.5,1.7c0.8,1,1.5,1.8,2.4,2.6l2.6-1.9c0.2-0.2,0.6-0.2,0.8,0c0.2,0.2,0.3,0.6,0.1,0.8l-1.5,2.4
			c1,0.6,1.9,1,2.7,1.4l2.9-2.7l0,0c0.2-0.2,0.6-0.2,0.8,0s0.3,0.6,0.2,0.8l0,0L11.4,974.7z M18.9,966.6l-7.9-4.4l0.1-0.1
			c0.3-0.4,0.8-0.8,1.2-1.1c0.5-0.3,0.9-0.4,1.3-0.4l0,0c0.3,0,0.6,0.1,0.9,0.2l0,0c0.1,0,3.7,2.1,3.8,2.2l0,0
			c0.5,0.3,0.8,0.9,0.9,1.6C19.3,965.2,19.2,965.9,18.9,966.6L18.9,966.6z M11.4,962.1l7.4,4.2c0.2-0.6,0.3-1.2,0.2-1.7
			c-0.1-0.7-0.4-1.2-0.8-1.4l0,0c-0.1-0.1-3.7-2.1-3.8-2.2l0,0c-0.2-0.1-0.5-0.2-0.8-0.2l0,0C12.9,960.9,12,961.4,11.4,962.1z
			 M18.4,962l-3-1.7l4.7-6.6l1.8,1L18.4,962z M15.7,960.2l2.5,1.5l3.2-6.9L20,954L15.7,960.2z"/>
	</g>
</g>
</svg>
