<svg id="Режим_изоляции" data-name="Режим изоляции" xmlns="http://www.w3.org/2000/svg" viewBox="0 0 59.07 58.8"><defs><style>.cls-1{fill:#9b9595;}</style></defs><title>icon-clock</title><path class="cls-1" d="M1,31.47A36.33,36.33,0,0,1,3.71,20.34c2.06-4.63,5.38-8,9.19-11.19A41.26,41.26,0,0,1,22.34,2.9a15.37,15.37,0,0,1,6.5-1.63C29.9,1.22,30.78.65,32,.72a26.13,26.13,0,0,1,8.19,1.94c1.94.81,3.94,1.63,5.81,2.5S49,7.66,50.6,8.91c2.94,2.31,4.31,5.69,5.75,9a46.27,46.27,0,0,1,2.88,11.31c.38,2.38-.5,4.56-.94,6.81a17.14,17.14,0,0,1-2.88,6.44c-1.5,2.19-2.44,4.63-3.88,6.81-1.13,1.63-2.19,3.31-3.94,4.25a55.11,55.11,0,0,1-10.06,4.38,16.49,16.49,0,0,1-8.19.63C23.47,57.35,17.65,56.1,12.4,53a5.47,5.47,0,0,1-2.06-1.69c-1.63-2.44-3.81-4.5-5-7.25s-2.88-5-3.63-7.81A15.4,15.4,0,0,1,1,31.47ZM32.53,5.09a24.06,24.06,0,0,0-8.44,1.06C21.22,7,18.9,8.91,16.4,10.47a41.7,41.7,0,0,0-6.69,5.75,8.9,8.9,0,0,0-2,2.81,28,28,0,0,1-2.06,4.38C2.71,28.28,4.09,33.16,5.4,38.1a2.19,2.19,0,0,0,.31.5c.94,1.63,2.06,3.19,2.88,4.88a14.64,14.64,0,0,0,4.63,5.31c4.38,3.31,9.5,5.06,14.75,6.38a11.36,11.36,0,0,0,7.19-.5c1.75-.69,3.44-1.5,5.19-2.19a19.92,19.92,0,0,0,7.81-5.56,30.88,30.88,0,0,0,6.31-12.63,20.53,20.53,0,0,1,.69-2.81,7.1,7.1,0,0,0,.13-4.69,30.89,30.89,0,0,1-.88-4.69c0-.25.06-.56-.06-.75-1.44-2.06-1.81-4.69-3.81-6.38a31.1,31.1,0,0,1-3-3.44,18.38,18.38,0,0,0-4.25-3.63A20,20,0,0,0,32.53,5.09Z" transform="translate(-0.6 -0.36)"/><path class="cls-1" d="M32.09,59.16a14.33,14.33,0,0,1-2.82-.28c-6.55-1.32-12-2.58-17.05-5.61A5.8,5.8,0,0,1,10,51.48c-.57-.86-1.23-1.69-1.87-2.5A21.85,21.85,0,0,1,5,44.18c-.42-1-.95-2-1.45-2.9a23.23,23.23,0,0,1-2.19-5,15.88,15.88,0,0,1-.76-4.86v0A36.82,36.82,0,0,1,3.39,20.2c2.23-5,5.94-8.52,9.28-11.31a41.81,41.81,0,0,1,9.51-6.3A15.69,15.69,0,0,1,28.83.92,5.79,5.79,0,0,0,30.07.66,5.68,5.68,0,0,1,32,.36a26.43,26.43,0,0,1,8.3,2l1.09.45c1.58.66,3.21,1.34,4.74,2.05A13,13,0,0,1,49.3,7.27c.49.46,1,.94,1.51,1.36,2.88,2.27,4.3,5.55,5.67,8.72l.18.42a46.8,46.8,0,0,1,2.9,11.4A13,13,0,0,1,59,34.38c-.14.57-.28,1.15-.4,1.72a17.24,17.24,0,0,1-2.93,6.57,33.61,33.61,0,0,0-2,3.53,37,37,0,0,1-1.85,3.28l-.28.4a11.47,11.47,0,0,1-3.79,4,54.43,54.43,0,0,1-10.13,4.4A18.68,18.68,0,0,1,32.09,59.16ZM1.32,31.5a15.31,15.31,0,0,0,.74,4.63,22.66,22.66,0,0,0,2.13,4.81c.51,1,1,1.94,1.48,3a21.31,21.31,0,0,0,3.07,4.65c.65.82,1.31,1.66,1.9,2.54a5.18,5.18,0,0,0,1.94,1.57c5,3,10.36,4.22,16.84,5.53a16,16,0,0,0,8-.62,53.77,53.77,0,0,0,10-4.35A10.8,10.8,0,0,0,51,49.48l.27-.4A36.57,36.57,0,0,0,53,45.88a34,34,0,0,1,2.07-3.61A16.58,16.58,0,0,0,57.94,36c.12-.59.26-1.18.4-1.76a12.26,12.26,0,0,0,.53-4.93A45.55,45.55,0,0,0,56,18l-.18-.42c-1.34-3.09-2.72-6.28-5.46-8.44-.55-.44-1.06-.93-1.56-1.4a12.23,12.23,0,0,0-3-2.31c-1.52-.71-3.14-1.38-4.71-2L40,3a25.74,25.74,0,0,0-8.08-1.91,5,5,0,0,0-1.68.28,6.36,6.36,0,0,1-1.4.29A15,15,0,0,0,22.5,3.22a41.14,41.14,0,0,0-9.37,6.2C9.85,12.17,6.21,15.63,4,20.49A36.14,36.14,0,0,0,1.32,31.5ZM30.81,55.88a11.71,11.71,0,0,1-2.93-.38C23.17,54.33,17.72,52.64,13,49.07a15.15,15.15,0,0,1-4.73-5.44A32,32,0,0,0,6.5,40.56c-.37-.59-.74-1.19-1.09-1.79l-.09-.12a1.54,1.54,0,0,1-.25-.44L5,37.92c-1.28-4.81-2.6-9.78.36-14.7a22.66,22.66,0,0,0,1.77-3.67l.27-.66A9.13,9.13,0,0,1,9.46,16l.71-.69a36.9,36.9,0,0,1,6-5.11C16.82,9.79,17.41,9.4,18,9a23.06,23.06,0,0,1,6-3.19,24.32,24.32,0,0,1,8.54-1.08A20.18,20.18,0,0,1,43.45,7.59a18.79,18.79,0,0,1,4.34,3.7c.36.4.69.83,1,1.25a14.17,14.17,0,0,0,1.94,2.16,10.2,10.2,0,0,1,2.55,3.91,15.32,15.32,0,0,0,1.33,2.53,1.23,1.23,0,0,1,.13.78c0,.06,0,.12,0,.17a30.92,30.92,0,0,0,.87,4.61,7.53,7.53,0,0,1-.15,4.91A8,8,0,0,0,55,33.29c-.07.37-.14.73-.23,1.09a31.17,31.17,0,0,1-6.39,12.77,20.17,20.17,0,0,1-8,5.66c-.87.34-1.73.72-2.58,1.09s-1.72.75-2.6,1.1A12.09,12.09,0,0,1,30.81,55.88Zm.53-50.46A23.08,23.08,0,0,0,24.2,6.49a22.52,22.52,0,0,0-5.81,3.1c-.6.4-1.19.79-1.8,1.17a36.41,36.41,0,0,0-5.92,5l-.71.69A8.44,8.44,0,0,0,8,19.17l-.27.66A23.59,23.59,0,0,1,6,23.6c-2.8,4.65-1.58,9.26-.28,14.14l.07.27a1.08,1.08,0,0,0,.14.23L6,38.4c.35.61.72,1.2,1.09,1.78a32.55,32.55,0,0,1,1.81,3.14,14.5,14.5,0,0,0,4.52,5.19c4.62,3.5,10,5.15,14.62,6.31a11,11,0,0,0,7-.49c.87-.34,1.72-.71,2.58-1.09s1.73-.75,2.61-1.1a19.47,19.47,0,0,0,7.68-5.47,30.48,30.48,0,0,0,6.24-12.49c.09-.34.16-.69.22-1a8.67,8.67,0,0,1,.48-1.82,6.79,6.79,0,0,0,.11-4.47,31.37,31.37,0,0,1-.88-4.74c0-.1,0-.17,0-.24a1.07,1.07,0,0,0,0-.34,15.89,15.89,0,0,1-1.39-2.64,9.53,9.53,0,0,0-2.36-3.66,14.8,14.8,0,0,1-2-2.26c-.32-.41-.65-.83-1-1.21A18.15,18.15,0,0,0,43.1,8.21,19.49,19.49,0,0,0,32.55,5.45h0Z" transform="translate(-0.6 -0.36)"/><path class="cls-1" d="M31.91,14.47c-.56,4.69,0,9.31-.31,13.88-.06,1.44,1.13,2.25,1.25,3.56.06.44.75.31,1.19.19,1.19-.44,2.38-.94,3.63-1.31a39.35,39.35,0,0,1,9.69-2.44,2.51,2.51,0,0,1,2,.5.69.69,0,0,1-.13,1.25,5.21,5.21,0,0,1-.94.25c-3.94,1.31-7.88,2.69-11.88,3.81a4,4,0,0,1-1.5.31,3,3,0,0,0-2.38,1,4.6,4.6,0,0,1-3.25,1.44,2.71,2.71,0,0,1-2.38-1A4.22,4.22,0,0,1,27.72,29a2.17,2.17,0,0,0,1.13-2.31C28.53,22.34,29,18,29,13.66v-.19c.19-.69-.06-1.69.94-1.88s2,1.06,2,2.06Z" transform="translate(-0.6 -0.36)"/><path class="cls-1" d="M29,37.29a3.12,3.12,0,0,1-2.31-1.14,4.71,4.71,0,0,1-1.49-3.85,4.82,4.82,0,0,1,2.38-3.56,1.82,1.82,0,0,0,1-2,70.59,70.59,0,0,1,0-7.75c.07-1.75.14-3.55.11-5.33v-.29a3.14,3.14,0,0,0,.08-.52c.05-.57.14-1.42,1.14-1.61a1.66,1.66,0,0,1,1.37.43,2.76,2.76,0,0,1,1.05,2v.85A58.15,58.15,0,0,0,32,22.32c0,2,.06,4-.08,6a3.29,3.29,0,0,0,.59,1.77,4.31,4.31,0,0,1,.66,1.73,2.74,2.74,0,0,0,.74-.12l1-.39c.84-.32,1.7-.65,2.59-.92l.38-.13A38,38,0,0,1,47.32,28a2.88,2.88,0,0,1,2.26.59,1.15,1.15,0,0,1,.45,1,1.14,1.14,0,0,1-.64.85,5.35,5.35,0,0,1-1,.29l-2.16.73C43,32.48,39.76,33.58,36.5,34.5l-.41.13a2.75,2.75,0,0,1-1.22.2,2.6,2.6,0,0,0-2.08.89,5,5,0,0,1-3.47,1.55Zm.37-23.77v.14c0,1.8,0,3.61-.11,5.37a70.19,70.19,0,0,0,0,7.67,2.52,2.52,0,0,1-1.29,2.64,4.13,4.13,0,0,0-2.05,3,4,4,0,0,0,1.29,3.28,2.41,2.41,0,0,0,2.08.9,4.3,4.3,0,0,0,3-1.31,3.32,3.32,0,0,1,2.65-1.13,2.18,2.18,0,0,0,1-.16l.45-.14c3.24-.91,6.49-2,9.64-3.06L48.17,30a5.38,5.38,0,0,0,.92-.24.45.45,0,0,0,.24-.29.5.5,0,0,0-.22-.37,2.12,2.12,0,0,0-1.74-.41A37.47,37.47,0,0,0,38.17,31l-.4.14c-.88.26-1.73.59-2.56.91l-1.06.4a1.7,1.7,0,0,1-1.36,0,.65.65,0,0,1-.3-.47,3.75,3.75,0,0,0-.57-1.47,3.93,3.93,0,0,1-.68-2.16c.14-2,.1-4,.07-6a58.88,58.88,0,0,1,.24-7.89v-.79a2.08,2.08,0,0,0-.79-1.43,1,1,0,0,0-.78-.28c-.45.08-.51.34-.57,1A4.27,4.27,0,0,1,29.32,13.51Z" transform="translate(-0.6 -0.36)"/></svg>