<?xml version="1.0" encoding="utf-8"?>
<!-- Generator: Adobe Illustrator 22.1.0, SVG Export Plug-In . SVG Version: 6.00 Build 0)  -->
<svg version="1.1" id="Слой_1" xmlns="http://www.w3.org/2000/svg" xmlns:xlink="http://www.w3.org/1999/xlink" x="0px" y="0px"
	 viewBox="0 0 16 16.5" style="enable-background:new 0 0 16 16.5;" xml:space="preserve">
<path d="M14.2,2.2c-0.9-0.1-1.6-1-2.5-0.6c-0.1,0.1-0.2,0.2-0.2,0.4c0.1,0.6,0.6,0.8,0.9,1.2c0.4,0.1,0.3-0.4,0.7-0.4
	c-0.1,0.5,0.3,0.7,0,1c-1.6,0.1-2.4-1-2-2.5C12.2,0.5,13.8,1,14.2,2.2z"/>
<path d="M2.3,4.2c0.1-0.5-0.4-0.9,0.2-0.9C3.1,3.2,2.7,4,2.9,4.1c1-0.2,1-1.6,0.4-2.1C2.6,1.9,2.1,2,2,2.5c0.2-1.6,3.1-1.2,2.3,1
	C4,4.1,3.1,4.9,2.3,4.2z"/>
<path d="M14.2,9.5c-0.1,0.3-0.8,0.5-1.1,0.2C13,8.9,13.9,8.9,14.2,9.5z"/>
<path d="M4.1,9.5c0.1,0.7-0.6,0.8-1,0.6C2.9,9.4,3.6,9.2,4.1,9.5z"/>
<path d="M14.1,4.7c3,2.4,2.1,6.9,0.2,9.3c-3.3,4.3-13,2.7-13.7-2.5c-0.4-2.9,1-4,2.2-5.7C2.3,5.7,1,5.9,0.3,5.3
	c-0.4-1-0.5-1.4-0.1-2.4c0.1-0.3,0.2-0.8,0.3-1c1.3-2.3,5.9-2.3,4.9,0.7c0.8-0.4,2.5-0.9,4-0.4C9.4-1.3,17-0.4,15.4,3.5
	C15.2,4,14.9,4.4,14.1,4.7z M10.2,1c-0.2,1.1,0.2,1.5,0.2,2.1c-1,0.4-1.7-0.4-2.6-0.5C6.6,2.5,5.9,3.1,4.8,3.5
	c0.3-0.8,0.3-1.7-0.3-2.4c-2.3-1-3.9,0.7-3.7,3.2c0.4,1.2,2.3,0.9,3,0.9C2.9,6.9,1,7.7,1.3,10.6c0.7,1.8,1.8,3.2,3.6,4
	c1.5-2,6.3-2.9,7.5-0.1c1.4-0.9,2.6-2.3,2.7-4.2c0.2-2.7-1.4-4.2-2.1-5.7C17.3,3.6,13.8-1.3,10.2,1z M9.7,14.1
	c0-0.3,0.4-0.2,0.4-0.6c-0.9-0.1-1.9-0.7-2.6,0C7.9,13.8,7,13.9,7,14.3c0.6,0,0.9-1,1.2-0.9c-0.1,0.3-0.7,1.2-0.5,1
	c0.4-0.2,0.5-0.7,1-0.7C8.1,15.2,9.4,12.9,9.7,14.1z M6,14.5c0.5-0.2,0.9-0.6,1.2-1C6.6,13.5,6.4,14.1,6,14.5z M10.5,14.6
	c0.2,0.3,0.9-0.6,0.7,0.4c0.8-0.1,0-0.9-0.4-1C11,14.4,10.4,14.2,10.5,14.6z"/>
</svg>
