<?xml version="1.0" encoding="utf-8"?>
<!-- Generator: Adobe Illustrator 19.0.1, SVG Export Plug-In . SVG Version: 6.00 Build 0)  -->
<svg version="1.1" id="Слой_1" xmlns="http://www.w3.org/2000/svg" xmlns:xlink="http://www.w3.org/1999/xlink" x="0px" y="0px"
	 viewBox="0 0 77 20.6" style="enable-background:new 0 0 77 20.6;" xml:space="preserve">
<style type="text/css">
	.st0{clip-path:url(#SVGID_2_);fill:#010202;}
	.st1{clip-path:url(#SVGID_4_);fill:#010202;}
	.st2{clip-path:url(#SVGID_6_);fill:#010202;}
	.st3{clip-path:url(#SVGID_8_);fill:#010202;}
	.st4{clip-path:url(#SVGID_10_);fill:#010202;}
	.st5{clip-path:url(#SVGID_12_);fill:#010202;}
	.st6{clip-path:url(#SVGID_14_);fill:#010202;}
</style>
<g>
	<g>
		<defs>
			<rect id="SVGID_1_" y="0" width="77" height="20.5"/>
		</defs>
		<clipPath id="SVGID_2_">
			<use xlink:href="#SVGID_1_"  style="overflow:visible;"/>
		</clipPath>
		<path class="st0" d="M2.4,13.4c-0.3,1-0.7,1.2-1.4,0.4c0-0.3,0-0.7,0.1-1c0.4-1.2,1.6-1.7,2.8-1.8c1.6-0.1,3.3,0.5,4.7,1
			c2.8,0.9,5.5,2.1,8.1,3.4c4.4,2.2,9,5.2,14.1,5.2c1.5,0,3.2-0.2,4-1.8c0.5-1.1,0-2.5-1-3.2c-2.5-1.7-4.2,2.5-1.4,2.5
			c0.6,0,0.6-0.9,0-0.9c1.4-0.7,1.8-0.4,1.3,0.8c0.1,0.8-0.2,1.3-1,1.5c-0.6,0.2-1.8,0.2-2.5,0.2c-1.4-0.1-2.8-0.4-4.1-0.8
			c-2.6-0.8-5-2.2-7.4-3.5c-4.2-2.2-8.8-4.6-13.5-5.2c-1.6-0.2-3.4,0-4.5,1.4c-0.7,0.9-1,2.5-0.1,3.4c1.3,1.3,3.3-0.4,2.6-1.9
			C2.9,12.3,2.1,12.8,2.4,13.4"/>
	</g>
	<g>
		<defs>
			<rect id="SVGID_3_" y="0" width="77" height="20.5"/>
		</defs>
		<clipPath id="SVGID_4_">
			<use xlink:href="#SVGID_3_"  style="overflow:visible;"/>
		</clipPath>
		<path class="st1" d="M19.4,15.6c-2.3-0.1-4.2-0.6-6.2,0.8c-0.7,0.5-2.6,2.2-1.8,3.2c0.4,0.5,1.6,0.4,2.2,0.4
			c1,0.1,1.9,0.1,2.9-0.1c2-0.4,2.9-1.9,3.5-3.8c0.2-0.6-0.7-0.8-0.9-0.2c-0.5,1.5-1.1,2.8-2.8,3.1c-0.7,0.1-3.4,0.4-3.7-0.2
			c-0.5-0.8,2.1-2.2,2.7-2.4c1.4-0.4,2.9,0,4.3,0.1C20,16.6,20,15.7,19.4,15.6"/>
	</g>
	<g>
		<defs>
			<rect id="SVGID_5_" y="0" width="77" height="20.5"/>
		</defs>
		<clipPath id="SVGID_6_">
			<use xlink:href="#SVGID_5_"  style="overflow:visible;"/>
		</clipPath>
		<path class="st2" d="M19.7,15.8c-2.6-2.3-2.9-5.9-0.7-8.6h-0.7c2.8,2.5,1.2,5.8,0.6,8.8c-0.1,0.6,0.8,0.8,0.9,0.2
			c0.7-3.4,2.3-7-0.8-9.8c-0.2-0.2-0.5-0.2-0.7,0c-2.5,3.1-2.3,7.3,0.7,10C19.5,16.8,20.2,16.2,19.7,15.8"/>
	</g>
	<g>
		<defs>
			<rect id="SVGID_7_" y="0" width="77" height="20.5"/>
		</defs>
		<clipPath id="SVGID_8_">
			<use xlink:href="#SVGID_7_"  style="overflow:visible;"/>
		</clipPath>
		<path class="st3" d="M46.6,17.4c0.9-0.2,1.3-1.2,0.9-2c-0.6-1.1-2.4-1.2-3.4-0.7s-1.4,1.8-1.1,2.9c0.4,1.7,2,2.5,3.6,2.7
			c4.7,0.8,9.8-1.2,13.8-3.4c2.3-1.3,4.6-2.8,6.8-4.2c1.1-0.7,2.2-1.5,3.4-2c0.7-0.3,1.4-0.5,2.2-0.6c0.6-0.1,1.1-0.1,1.7,0.1
			c2.2,1.2,2,1.9-0.4,2c0-0.6-0.9-0.6-0.9,0C73.1,15,77.1,14.7,77,12c0-3.7-5-3-7.1-2c-4.2,2-7.8,5.2-12,7.2
			c-2.5,1.2-5.3,2.1-8.1,2.3c-1.2,0.1-2.5,0.1-3.6-0.2c-0.8-0.2-2.3-0.9-2.3-1.9c0.3-0.6,0.6-1.3,0.9-1.9c0.8-0.3,1.3,0,1.6,1
			C45.8,16.6,46,17.5,46.6,17.4"/>
	</g>
	<g>
		<defs>
			<rect id="SVGID_9_" y="0" width="77" height="20.5"/>
		</defs>
		<clipPath id="SVGID_10_">
			<use xlink:href="#SVGID_9_"  style="overflow:visible;"/>
		</clipPath>
		<path class="st4" d="M59.6,17.3c2.7-2.2,3.9-5.6,3.4-9C63,8,62.6,7.9,62.4,8c-3.9,0.5-4,6.2-3.6,9.1c0.1,0.6,1,0.3,0.9-0.2
			c-0.4-2.5-0.4-7.5,2.9-7.9c-0.2-0.1-0.4-0.2-0.6-0.3c0.5,3.1-0.7,6.1-3.1,8.1C58.5,17,59.1,17.7,59.6,17.3"/>
	</g>
	<g>
		<defs>
			<rect id="SVGID_11_" y="0" width="77" height="20.5"/>
		</defs>
		<clipPath id="SVGID_12_">
			<use xlink:href="#SVGID_11_"  style="overflow:visible;"/>
		</clipPath>
		<path class="st5" d="M59.4,17.4c3-0.8,6-0.3,8.2,2v-0.7c-2.5,1.9-6.2-0.2-8-2.2c-0.4-0.4-1.1,0.2-0.7,0.7c2.2,2.4,6.4,4.4,9.3,2.2
			c0.2-0.2,0.2-0.5,0-0.7c-2.4-2.5-5.8-3.2-9.1-2.3C58.6,16.7,58.8,17.6,59.4,17.4"/>
	</g>
	<g>
		<defs>
			<rect id="SVGID_13_" y="0" width="77" height="20.5"/>
		</defs>
		<clipPath id="SVGID_14_">
			<use xlink:href="#SVGID_13_"  style="overflow:visible;"/>
		</clipPath>
		<path class="st6" d="M39,6.9c2.3-4.6-5.1-8-8.2-4.9c-4.2,4.2,4.3,10,7.5,11.4c0.2,0.1,0.4,0.1,0.6-0.1c3-2.6,8.6-6.6,7.3-11.3
			c-1.1-4.1-6.5-1-7.8,1.3c-0.3,0.5,0.5,1,0.8,0.5c0.7-1.3,2.5-3,4.2-2.7c2.7,0.3,2.1,3.2,1.2,5c-0.7,1.3-1.7,2.5-2.8,3.5
			c-0.7,0.7-2.2,2.5-3.1,2.8c-1.1,0.3-2.4-0.9-3.2-1.5c-1.4-1-2.9-2.4-3.9-3.8c-4.8-7.2,9.4-6,6.6-0.5C37.9,6.9,38.7,7.4,39,6.9"/>
	</g>
</g>
</svg>
