<svg id="Слой_1" data-name="Слой 1" xmlns="http://www.w3.org/2000/svg" viewBox="0 0 421.09 574.09"><defs><style>.cls-1{fill:#817f7e;}</style></defs><title>icon-chair</title><path class="cls-1" d="M382.67,297h-18V67.5c0-35.1-27.9-58.5-63-58.5h-180c-35.1,0-63,23.4-63,58.5V297h-18a36.11,36.11,0,0,0-36,36v52.2c0,19.8,16.2,37.8,36,37.8h5.4L22.67,561.6c0,2.7,0,7.2,1.8,9s4.5,5.4,7.2,5.4h27c3.6,0,7.2-3.6,9-8.1L108.17,423h207.9l39.6,144.9c.9,3.6,4.5,8.1,9,8.1h27c2.7,0,5.4-3.6,7.2-5.4a7,7,0,0,0,1.8-7.2L377.27,423h5.4c19.8,0,36-18,36-37.8V333A36.11,36.11,0,0,0,382.67,297ZM94.67,67.5c0-15.3,11.7-22.5,27-22.5h180c15.3,0,27,7.2,27,22.5V297h-234ZM51.47,558h-9.9l22.5-135h24.3Zm329.4,0H371l-37.8-135h24.3Zm1.8-171h-342V333h342Z" transform="translate(-1.12 -5.46)"/><path class="cls-1" d="M391.67,579.54h-27c-6.1,0-11.11-5.48-12.44-10.78L313.36,426.54H110.86L71,569l-.07.18c-2.47,6.18-7.41,10.33-12.29,10.33h-27c-3.75,0-6.62-3.11-8.71-5.39-.36-.39-.69-.75-1-1.05-2.62-2.62-2.84-7.12-2.84-11.5l0-.59,22.7-134.47H40.67c-21.43,0-39.54-18.93-39.54-41.34V333a39.59,39.59,0,0,1,39.54-39.54H55.12V67.5c0-36,28-62,66.54-62h180c38.56,0,66.54,26.09,66.54,62v226h14.46A39.59,39.59,0,0,1,422.21,333v52.2c0,22.41-18.11,41.34-39.54,41.34h-1.22l22.67,136a10.56,10.56,0,0,1-2.75,10.53c-.3.3-.64.67-1,1.05C398.29,576.43,395.42,579.54,391.67,579.54ZM26.21,561.89c0,3.5.28,5.59.78,6.22.35.34.75.78,1.17,1.24.81.88,2.72,3,3.55,3.1H58.67c1.63,0,4.16-2.13,5.64-5.71l41.17-147.29H318.77L359.08,567c.58,2.34,3,5.49,5.58,5.49h27c.78-.15,2.69-2.22,3.5-3.1.43-.46.83-.89,1.19-1.26a3.52,3.52,0,0,0,.94-3.57l-.13-.54L373.08,419.46h9.58c17.29,0,32.46-16,32.46-34.26V333a32.49,32.49,0,0,0-32.46-32.46H361.12V67.5c0-31.84-25-55-59.46-55h-180c-34.45,0-59.46,23.11-59.46,55v233H40.67A32.49,32.49,0,0,0,8.21,333v52.2c0,18.25,15.17,34.26,32.46,34.26h9.59Zm358.87-.35h-16.8L328.49,419.46h32Zm-11.42-7.09h3L354.48,426.54H337.84ZM54.17,561.54H37.38L61.07,419.46H93Zm-8.42-7.09h3l35-127.91H67.07ZM386.21,390.54H37.12V329.46H386.21Zm-342-7.09H379.12V336.54H44.21Zm288-82.91H91.12V67.5c0-16.06,11.7-26,30.54-26h180c18.84,0,30.54,10,30.54,26Zm-234-7.09H325.12V67.5c0-17.11-16.4-19-23.46-19h-180c-7.05,0-23.46,1.85-23.46,19Z" transform="translate(-1.12 -5.46)"/></svg>