<?xml version="1.0" encoding="utf-8"?>
<!-- Generator: Adobe Illustrator 21.0.0, SVG Export Plug-In . SVG Version: 6.00 Build 0)  -->
<svg version="1.1" id="Capa_1" xmlns="http://www.w3.org/2000/svg" xmlns:xlink="http://www.w3.org/1999/xlink" x="0px" y="0px"
	 viewBox="0 0 55 55" style="enable-background:new 0 0 55 55;" xml:space="preserve">
<style type="text/css">
	.st0{fill:#222220;}
</style>
<g>
	<path class="st0" d="M51.2,3.8c-5.1-5.1-13.3-5.1-18.4,0L23.6,13c-0.8,0.8-0.8,2,0,2.8c0.8,0.8,2,0.8,2.8,0l9.2-9.2
		C37.3,4.9,39.6,4,42,4c2.4,0,4.7,0.9,6.4,2.6s2.6,4,2.6,6.4c0,2.4-0.9,4.7-2.6,6.4l-12,12c-3.5,3.5-9.2,3.5-12.7,0
		c-0.8-0.8-2-0.8-2.8,0s-0.8,2,0,2.8c2.5,2.5,5.9,3.8,9.2,3.8s6.7-1.3,9.2-3.8l12-12c2.4-2.4,3.8-5.7,3.8-9.2
		C55,9.5,53.6,6.2,51.2,3.8z"/>
	<path class="st0" d="M27.1,40.6l-7.8,7.8C17.7,50,15.4,51,13,51c-2.4,0-4.7-0.9-6.4-2.6c-3.5-3.5-3.5-9.2,0-12.7l11.3-11.3
		c1.7-1.7,4-2.6,6.4-2.6c2.4,0,4.7,0.9,6.4,2.6c0.8,0.8,2,0.8,2.8,0s0.8-2,0-2.8c-5.1-5.1-13.3-5.1-18.4,0L3.8,32.8
		C1.4,35.2,0,38.5,0,42c0,3.5,1.3,6.7,3.8,9.2C6.2,53.6,9.5,55,13,55c3.5,0,6.7-1.3,9.2-3.8l7.8-7.8c0.8-0.8,0.8-2,0-2.8
		S27.9,39.8,27.1,40.6z"/>
</g>
</svg>
