<?xml version="1.0" encoding="utf-8"?>
<!-- Generator: Adobe Illustrator 22.1.0, SVG Export Plug-In . SVG Version: 6.00 Build 0)  -->
<svg version="1.1" id="Capa_1" xmlns="http://www.w3.org/2000/svg" xmlns:xlink="http://www.w3.org/1999/xlink" x="0px" y="0px"
	 viewBox="98 410 27 22.7" style="enable-background:new 98 410 27 22.7;" xml:space="preserve">
<g>
	<g>
		<path d="M111.3,412.8h0.5c0.3,0,0.6-0.1,0.7-0.4c0.2-0.3,0.2-0.7,0.2-0.8c0-0.5-0.3-1-0.5-1.2c-0.2-0.2-0.4-0.3-0.7-0.3
			c-0.3,0-0.5,0.1-0.7,0.3c-0.1,0.2-0.5,0.7-0.5,1.2c0,0.1,0,0.5,0.2,0.8C110.7,412.7,111,412.8,111.3,412.8z"/>
		<path d="M118.1,412.8h0.5c0.3,0,0.6-0.1,0.7-0.4c0.2-0.3,0.2-0.7,0.2-0.8c0-0.5-0.3-1-0.5-1.2c-0.2-0.2-0.4-0.3-0.7-0.3
			c-0.3,0-0.5,0.1-0.7,0.3c-0.1,0.2-0.5,0.7-0.5,1.2c0,0.1,0,0.5,0.2,0.8C117.5,412.7,117.8,412.8,118.1,412.8z"/>
		<path d="M104.5,412.8h0.5c0.3,0,0.6-0.1,0.7-0.4c0.2-0.3,0.2-0.7,0.2-0.8c0-0.5-0.3-1-0.5-1.2c-0.2-0.2-0.4-0.3-0.7-0.3
			c-0.3,0-0.5,0.1-0.7,0.3c-0.1,0.2-0.5,0.7-0.5,1.2c0,0.1,0,0.5,0.2,0.8C103.9,412.7,104.2,412.8,104.5,412.8z"/>
		<path d="M124.3,426.6v-6.4c0-2.3-1.9-4.1-4.1-4.1h-1v-2c0-0.5-0.4-0.8-0.8-0.8s-0.8,0.4-0.8,0.8v2h-5.1v-2c0-0.5-0.4-0.8-0.8-0.8
			s-0.8,0.4-0.8,0.8v2h-5.1v-2c0-0.5-0.4-0.8-0.8-0.8c-0.5,0-0.8,0.4-0.8,0.8v2h-1c-2.3,0-4.1,1.9-4.1,4.1v6.4
			c-0.4,0-0.7,0.4-0.7,0.8c0,0.5,0.4,0.6,0.8,0.6h0.7h11.1v3.1h-3.1c-0.5,0-0.8,0.4-0.8,0.8c0,0.5,0.4,0.8,0.8,0.8h7.8
			c0.5,0,0.8-0.4,0.8-0.8c0-0.5-0.4-0.8-0.8-0.8h-3.1V428h11.1h0.7c0.5,0,0.8-0.2,0.8-0.6C125,427,124.7,426.6,124.3,426.6z
			 M100.2,426.6v-6.4c0-1.4,1.3-2.7,2.7-2.7h17.3c1.4,0,2.7,1.3,2.7,2.7v6.4H100.2z"/>
	</g>
</g>
</svg>
