<?xml version="1.0" encoding="utf-8"?>
<!-- Generator: Adobe Illustrator 21.0.0, SVG Export Plug-In . SVG Version: 6.00 Build 0)  -->
<svg version="1.1" id="Слой_1" xmlns="http://www.w3.org/2000/svg" xmlns:xlink="http://www.w3.org/1999/xlink" x="0px" y="0px"
	 viewBox="467.1 280 27 34" style="enable-background:new 467.1 280 27 34;" xml:space="preserve">
<style type="text/css">
	.st0{fill:#92C647;}
	.st1{fill:#FFFFFF;}
	.st2{fill:#DF3A4F;}
	.st3{fill:#B34E84;}
	.st4{fill:#FFCD4C;}
</style>
<g>
	<g>
		<path class="st0" d="M472.8,298.4c0.8-0.1,1.6-0.2,2.3-0.6c0.2-0.1,0.2-0.3,0.2-0.4c-0.1-0.2-0.3-0.2-0.4-0.2
			c-0.7,0.3-1.5,0.5-2.2,0.5c0,0,0,0,0,0c-0.4,0-0.9,0-1.3-0.1l4.4-6.8c0.5-0.1,1-0.4,1.5-0.7c0.1-0.1,0.2-0.3,0.1-0.5
			c-0.1-0.1-0.3-0.2-0.5-0.1c0,0,0,0,0,0c-0.7,0.5-1.6,0.8-2.5,0.7l6.3-9.1l6.3,9.1c-0.9,0.1-1.8-0.1-2.5-0.7
			c-0.1-0.1-0.3-0.1-0.5,0.1c-0.1,0.1-0.1,0.4,0.1,0.5c0.4,0.3,0.9,0.6,1.5,0.7l4.4,6.8c-0.4,0.1-0.9,0.1-1.3,0.1c0,0,0,0,0,0
			c-0.8,0-1.5-0.2-2.2-0.5c-0.2-0.1-0.4,0-0.4,0.2s0,0.4,0.2,0.4c0,0,0,0,0,0c0.7,0.3,1.5,0.5,2.3,0.6l4.9,6.7
			c-1.9,1.3-6.4,2.2-11.5,2.3h-2.1c-5.1-0.1-9.7-1-11.5-2.4L472.8,298.4z"/>
	</g>
	<g>
		<path class="st1" d="M493.7,304.6l-4.6-6.4c0.5,0,0.9-0.1,1.4-0.2c0.2,0,0.3-0.2,0.2-0.4c0,0,0-0.1,0-0.1l-4.4-6.7
			c0.1,0,0.1,0,0.2,0c0.3,0,0.7,0,1-0.1c0.2,0,0.3-0.2,0.3-0.4c0,0,0-0.1-0.1-0.1l-6.9-9.9c0,0-0.1-0.1-0.1-0.1c0,0,0,0,0,0
			c0,0,0,0-0.1,0c-0.1,0-0.2,0-0.2,0c0,0,0,0-0.1,0c0,0,0,0,0,0c0,0-0.1,0.1-0.1,0.1l-6.9,9.9c-0.1,0.1-0.1,0.4,0.1,0.5
			c0,0,0.1,0,0.1,0.1c0.3,0.1,0.7,0.1,1,0.1c0.1,0,0.1,0,0.2,0l-4.4,6.7c-0.1,0.2-0.1,0.4,0.1,0.5c0,0,0.1,0,0.1,0
			c0.4,0.1,0.9,0.2,1.4,0.2l-4.7,6.5c-0.1,0.1-0.1,0.3,0.1,0.4c1.7,1.5,6.3,2.5,11.6,2.7v4.3c0,0.9,0.7,1.7,1.6,1.7s1.6-0.7,1.6-1.7
			v-4.3c5.3-0.2,9.9-1.2,11.6-2.7c0.1-0.1,0.2-0.3,0-0.5c0,0,0,0,0,0C493.8,304.7,493.7,304.6,493.7,304.6z M472.8,298.2
			c0.8-0.1,1.6-0.2,2.3-0.6c0.2-0.1,0.2-0.3,0.2-0.4c-0.1-0.2-0.3-0.2-0.4-0.2c-0.7,0.3-1.5,0.5-2.2,0.5c0,0,0,0,0,0
			c-0.4,0-0.9,0-1.3-0.1l4.4-6.8c0.5-0.1,1-0.4,1.5-0.7c0.1-0.1,0.2-0.3,0.1-0.5c-0.1-0.1-0.3-0.2-0.5-0.1c0,0,0,0,0,0
			c-0.7,0.5-1.6,0.8-2.5,0.7l6.3-9.1l6.3,9.1c-0.9,0.1-1.8-0.1-2.5-0.7c-0.1-0.1-0.3-0.1-0.5,0.1c-0.1,0.1-0.1,0.4,0.1,0.5
			c0.4,0.3,0.9,0.6,1.5,0.7l4.4,6.8c-0.4,0.1-0.9,0.1-1.3,0.1c0,0,0,0,0,0c-0.8,0-1.5-0.2-2.2-0.5c-0.2-0.1-0.4,0-0.4,0.2
			s0,0.4,0.2,0.4c0,0,0,0,0,0c0.7,0.3,1.5,0.5,2.3,0.6l4.9,6.7c-1.9,1.3-6.4,2.2-11.5,2.3h-2.1c-5.1-0.1-9.7-1-11.5-2.4L472.8,298.2
			z M481.5,312.2c0,0.5-0.4,1-1,1s-1-0.4-1-1v-4.3c0.3,0,0.7,0,1,0c0.3,0,0.6,0,0.9,0V312.2z"/>
		<path class="st1" d="M480.5,314c-1,0-1.8-0.8-1.8-1.8V308c-5.4-0.2-9.8-1.2-11.5-2.7c-0.2-0.2-0.2-0.5-0.1-0.7l4.6-6.3
			c-0.4,0-0.8-0.1-1.1-0.2c0,0-0.1,0-0.1-0.1c-0.1-0.1-0.2-0.2-0.2-0.3c0-0.1,0-0.3,0.1-0.4l4.2-6.4c-0.3,0-0.6,0-0.9-0.1
			c-0.1,0-0.1,0-0.2-0.1c-0.2-0.2-0.3-0.5-0.1-0.7l6.9-9.9l0,0c0,0,0,0,0.1-0.1l0,0l0,0l0,0c0,0,0,0,0.1,0c0.1-0.1,0.2-0.1,0.3,0
			c0,0,0.1,0,0.1,0c0,0,0,0,0,0l0,0l0,0c0,0,0,0,0.1,0.1l0,0l0,0l6.9,9.9c0,0.1,0.1,0.1,0.1,0.2c0,0.3-0.1,0.5-0.4,0.6
			c-0.3,0.1-0.6,0.1-0.9,0.1l4.2,6.4c0,0,0,0.1,0.1,0.1c0.1,0.3-0.1,0.5-0.3,0.6c-0.4,0.1-0.7,0.2-1.1,0.2l4.5,6.2
			c0.1,0,0.1,0.1,0.2,0.1c0.2,0.2,0.1,0.5-0.1,0.7c-1.7,1.5-6.3,2.5-11.6,2.7v4.2C482.3,313.2,481.5,314,480.5,314z M475.1,290.6
			l-4.5,6.9c0,0,0,0.1,0,0.1s0,0.1,0.1,0.1c0,0,0,0,0.1,0c0.4,0.1,0.9,0.2,1.3,0.2l0.3,0l-4.9,6.8c-0.1,0.1,0,0.2,0,0.2
			c1.7,1.4,6.2,2.5,11.5,2.7l0.1,0v4.5c0,0.8,0.7,1.5,1.5,1.5s1.5-0.7,1.5-1.5v-4.5l0.1,0c5.3-0.2,9.8-1.2,11.5-2.7
			c0.1-0.1,0.1-0.2,0-0.2c0,0,0,0-0.1,0l0,0l-4.8-6.7l0.3,0c0.5,0,0.9-0.1,1.3-0.2c0.1,0,0.1-0.1,0.1-0.2c0,0,0,0,0-0.1l-4.5-6.9
			l0.4,0c0,0,0.1,0,0.1,0c0.3,0,0.7,0,1-0.1c0.1,0,0.2-0.1,0.1-0.2c0,0,0,0,0-0.1l-6.8-9.9c0,0,0,0-0.1-0.1c0,0,0,0,0,0l0,0
			c0,0-0.1,0-0.1,0l0,0c0,0,0,0,0,0c0,0,0,0-0.1,0.1l-6.8,9.9c-0.1,0.1,0,0.2,0,0.2c0,0,0,0,0.1,0c0.3,0.1,0.7,0.1,1,0.1
			c0,0,0.1,0,0.1,0L475.1,290.6z M480.4,280.4L480.4,280.4C480.4,280.4,480.4,280.4,480.4,280.4z M480.3,280.1
			C480.3,280.1,480.3,280.1,480.3,280.1L480.3,280.1z M480.5,313.3c-0.6,0-1.1-0.5-1.1-1.1v-4.5l0.2,0c0.3,0,0.7,0,1,0
			c0.3,0,0.6,0,0.9,0l0.2,0v4.5C481.6,312.8,481.1,313.3,480.5,313.3z M479.7,308.1v4.1c0,0.5,0.4,0.8,0.8,0.8s0.8-0.4,0.8-0.8v-4.1
			c-0.3,0-0.5,0-0.8,0C480.3,308.1,480,308.1,479.7,308.1z M479.5,307.4c-5.2-0.1-9.7-1.1-11.6-2.4l-0.1-0.1l5-6.9l0.1,0
			c0.8-0.1,1.5-0.2,2.2-0.5c0,0,0.1-0.1,0.1-0.1c0,0,0-0.1,0-0.1c0-0.1-0.1-0.1-0.2-0.1c-0.7,0.3-1.5,0.5-2.3,0.5c0,0,0,0,0,0l0,0
			c-0.5,0-0.9,0-1.4-0.1l-0.2,0l4.6-7l0.1,0c0.5-0.1,1-0.3,1.4-0.7c0.1-0.1,0.1-0.2,0-0.2c-0.1-0.1-0.2-0.1-0.2,0l0,0
			c-0.8,0.6-1.7,0.8-2.6,0.7l-0.3,0l6.6-9.5l6.6,9.5l-0.3,0c-0.9,0.1-1.9-0.1-2.6-0.7c0,0-0.1,0-0.1,0c0,0-0.1,0-0.1,0.1
			c-0.1,0.1,0,0.2,0,0.2c0.4,0.3,0.9,0.5,1.4,0.7l0.1,0l4.6,7l-0.2,0c-0.5,0.1-0.9,0.1-1.4,0.1c0,0,0,0,0,0c-0.8,0-1.6-0.2-2.3-0.5
			c0,0-0.1,0-0.1,0c0,0-0.1,0-0.1,0.1c0,0,0,0.1,0,0.1c0,0,0,0.1,0.1,0.1c0.7,0.3,1.5,0.5,2.2,0.5l0.1,0l0,0.1l5,6.8l-0.1,0.1
			c-1.9,1.3-6.5,2.3-11.6,2.4H479.5z M468.2,304.8c1.9,1.3,6.3,2.1,11.3,2.3h2.1c4.9-0.1,9.3-1,11.3-2.2l-4.7-6.5
			c-0.8-0.1-1.5-0.3-2.3-0.6c-0.1-0.1-0.2-0.1-0.3-0.3c0-0.1,0-0.3,0-0.4c0.1-0.1,0.1-0.2,0.3-0.3c0.1,0,0.3,0,0.4,0
			c0.7,0.3,1.4,0.5,2.2,0.5c0,0,0,0,0,0c0.4,0,0.7,0,1.1-0.1l-4.2-6.5c-0.5-0.1-1-0.4-1.5-0.7c-0.2-0.2-0.3-0.5-0.1-0.7
			c0.2-0.2,0.5-0.3,0.7-0.1c0.6,0.5,1.4,0.7,2.1,0.7l-6-8.7l-6,8.7c0.8,0,1.5-0.2,2.1-0.7l0,0c0.2-0.2,0.5-0.1,0.7,0.1
			c0.2,0.2,0.1,0.5-0.1,0.7c-0.4,0.3-0.9,0.6-1.5,0.7l-4.2,6.5c0.4,0.1,0.7,0.1,1.1,0.1c0,0,0,0,0,0c0.8,0,1.5-0.2,2.2-0.5
			c0.2-0.1,0.5,0,0.6,0.3c0.1,0.1,0.1,0.3,0,0.4c0,0.1-0.1,0.2-0.3,0.3c-0.7,0.3-1.5,0.5-2.3,0.6L468.2,304.8z"/>
	</g>
	<g>
		<g>
			<path class="st2" d="M480.6,288.7c0.7,0,1.3-0.6,1.3-1.3s-0.6-1.3-1.3-1.3c-0.7,0-1.3,0.6-1.3,1.3
				C479.3,288.1,479.9,288.7,480.6,288.7z M480.6,286.8c0.3,0,0.6,0.3,0.6,0.6s-0.2,0.6-0.6,0.6c-0.3,0-0.6-0.3-0.6-0.6
				C480.1,287.1,480.3,286.8,480.6,286.8z"/>
		</g>
	</g>
	<g>
		<ellipse class="st2" cx="480.6" cy="287.4" rx="1.3" ry="1.3"/>
	</g>
	<g>
		<ellipse class="st3" cx="483.1" cy="293.9" rx="1.3" ry="1.3"/>
	</g>
	<g>
		<ellipse class="st1" cx="477.2" cy="294.5" rx="1.3" ry="1.3"/>
	</g>
	<g>
		<ellipse class="st4" cx="482.2" cy="299.7" rx="1.3" ry="1.3"/>
	</g>
	<g>
		<ellipse class="st1" cx="487.8" cy="303.4" rx="1.3" ry="1.3"/>
	</g>
	<g>
		<ellipse class="st3" cx="479.4" cy="304.6" rx="1.3" ry="1.3"/>
	</g>
	<g>
		<ellipse class="st2" cx="473.8" cy="301.3" rx="1.3" ry="1.3"/>
	</g>
</g>
</svg>
