<?xml version="1.0" encoding="utf-8"?>
<!-- Generator: Adobe Illustrator 19.0.1, SVG Export Plug-In . SVG Version: 6.00 Build 0)  -->
<svg version="1.1" id="Capa_1" xmlns="http://www.w3.org/2000/svg" xmlns:xlink="http://www.w3.org/1999/xlink" x="0px" y="0px"
	 viewBox="-289 412.9 17 17" style="enable-background:new -289 412.9 17 17;" xml:space="preserve">
<style type="text/css">
	.st0{fill:#817F7E;}
</style>
<g>
	<g id="Layer_2_16_">
		<g>
			<path class="st0" d="M-278.8,428.4c-0.1,0-0.3,0.1-0.4,0.1c-0.4,0.1-0.6,0.4-0.5,0.8c0,0.2,0.1,0.3,0.3,0.4
				c0.1,0.2,0.3,0.2,0.4,0.2c0.2,0,0.3-0.1,0.5-0.1c0.4-0.1,0.6-0.5,0.5-0.8C-278,428.6-278.4,428.3-278.8,428.4z"/>
			<path class="st0" d="M-273.7,419.2c0,0.1,0.1,0.3,0.3,0.3c0.2,0.1,0.4,0.2,0.6,0.1c0.4-0.1,0.6-0.5,0.4-0.9
				c-0.1-0.2-0.1-0.3-0.2-0.5c-0.1-0.3-0.5-0.4-0.9-0.3s-0.5,0.5-0.4,0.9C-273.8,418.9-273.8,419.1-273.7,419.2z"/>
			<path class="st0" d="M-276.6,427.5c-0.1,0.1-0.2,0.2-0.4,0.2c-0.3,0.2-0.4,0.6-0.3,0.9c0.1,0.1,0.1,0.2,0.2,0.2
				c0.2,0.1,0.5,0.2,0.7,0c0.1-0.1,0.3-0.2,0.4-0.3c0.3-0.2,0.4-0.6,0.2-1C-275.8,427.3-276.2,427.2-276.6,427.5z"/>
			<path class="st0" d="M-272,421.1c0-0.4-0.3-0.7-0.7-0.7s-0.7,0.3-0.7,0.7c0,0.1,0,0.3,0,0.4c0,0.2,0.1,0.5,0.3,0.6
				c0.1,0.1,0.2,0.1,0.4,0.1c0.4,0,0.7-0.3,0.7-0.7C-272,421.5-272,421.3-272,421.1z"/>
			<path class="st0" d="M-273.8,425.6c-0.3-0.2-0.7-0.2-1,0.1c-0.1,0.1-0.2,0.2-0.3,0.3c-0.2,0.3-0.2,0.7,0.1,1c0,0,0,0,0.1,0
				c0.3,0.2,0.7,0.2,0.9-0.1c0.1-0.1,0.2-0.3,0.3-0.4C-273.5,426.3-273.5,425.9-273.8,425.6z"/>
			<path class="st0" d="M-272.8,423.2c-0.4-0.1-0.7,0.1-0.9,0.5c0,0.1-0.1,0.3-0.1,0.4c-0.1,0.3,0,0.6,0.2,0.8c0,0,0.1,0.1,0.2,0.1
				c0.4,0.1,0.7,0,0.9-0.4c0.1-0.2,0.1-0.3,0.2-0.5C-272.3,423.7-272.5,423.3-272.8,423.2z"/>
			<path class="st0" d="M-281.8,428.5c-0.6-0.1-1.2-0.3-1.8-0.6l0,0c-0.1-0.1-0.3-0.1-0.4-0.2l0,0c-0.2-0.1-0.5-0.3-0.7-0.4
				c-3.2-2.3-4-6.8-1.7-10c0.5-0.7,1.1-1.3,1.8-1.8l0,0c2.3-1.6,5.5-1.7,8-0.1l-0.5,0.8c-0.1,0.2-0.1,0.4,0.2,0.4l2.3-0.2
				c0.3,0,0.4-0.3,0.3-0.5l-0.6-2.3c-0.1-0.3-0.2-0.3-0.4-0.1l-0.5,0.8c-1.8-1.2-4-1.7-6.2-1.3c-0.2,0-0.4,0.1-0.6,0.1l0,0l0,0
				c-1.9,0.6-3.5,1.7-4.7,3.2l0,0c0,0.1-0.1,0.1-0.1,0.2c-0.1,0.1-0.2,0.2-0.2,0.3l0,0c-1,1.5-1.4,3.2-1.3,5l0,0c0,0.2,0,0.3,0,0.5
				l0,0c0,0.2,0,0.3,0.1,0.5c0.3,1.8,1.1,3.4,2.4,4.6l0,0l0,0c0.3,0.3,0.7,0.6,1.1,0.9c1,0.7,2.2,1.2,3.4,1.4
				c0.4,0.1,0.7-0.2,0.8-0.6C-281.1,429-281.4,428.6-281.8,428.5z"/>
			<path class="st0" d="M-280.9,415.9c-0.3,0-0.6,0.3-0.6,0.6v5.5l5,2.6c0.1,0,0.2,0.1,0.3,0.1c0.2,0,0.4-0.1,0.5-0.3
				c0.1-0.3,0-0.6-0.2-0.8l-4.5-2.3v-4.8C-280.4,416.2-280.6,415.9-280.9,415.9z"/>
		</g>
	</g>
</g>
</svg>
