<?xml version="1.0" encoding="utf-8"?>
<!-- Generator: Adobe Illustrator 22.1.0, SVG Export Plug-In . SVG Version: 6.00 Build 0)  -->
<svg version="1.1" id="Слой_1" xmlns="http://www.w3.org/2000/svg" xmlns:xlink="http://www.w3.org/1999/xlink" x="0px" y="0px"
	 viewBox="0 0 49.9 50.7" style="enable-background:new 0 0 49.9 50.7;" xml:space="preserve">
<style type="text/css">
	.st0{fill:#0E0F0F;}
</style>
<g>
	<g>
		<path class="st0" d="M46.2,15c-0.9-0.2-2.1-0.5-2.7-3.6c-0.1-0.2-0.2-0.2-0.4-0.2c-0.1,0-0.2,0.1-0.2,0.2v1.3
			c-0.5,0.7-1.1,1.2-1.9,1.5c-0.6,0.2-1,0.7-1.1,1.3c0,0.7,0.4,1.4,1,1.8c0.5,0.3,1.2,0.5,1.8,0.5c0.8,0,1.6-0.2,2.4-0.5
			c0.3,0.2,0.6,0.2,0.9,0.2c0.6-0.1,1.1-0.5,1.4-1c0.1-0.4,0-0.8-0.2-1.1C47,15.2,46.6,15,46.2,15z M41.3,16.8
			c-0.4-0.2-0.7-0.7-0.7-1.2c0-0.4,0.3-0.7,0.7-0.8c0.7-0.3,1.3-0.7,1.7-1.2c0.1,0.9,0.3,2.1,0.8,2.6l0.1,0.1
			c0.2,0.2,0.5,0.5,0.7,0.7C43.1,17.4,42.1,17.3,41.3,16.8L41.3,16.8z M46.9,16.3c-0.2,0.3-0.5,0.6-0.9,0.6c-0.2,0-0.4,0-0.6-0.2
			l0,0c-0.4-0.3-0.8-0.6-1.1-0.9l-0.1-0.1c-0.2-0.2-0.5-1.2-0.6-2c0.4,1,1.4,1.7,2.5,1.9c0.2,0,0.5,0.1,0.7,0.2
			C46.9,15.9,46.9,16.1,46.9,16.3L46.9,16.3z"/>
	</g>
	<g>
		<path class="st0" d="M30.3,11.5c0.4-1.9-0.3-3.3-2.1-4c-0.8-0.3-1.6-0.3-2.4-0.2l-0.3-1.4c-0.8-3.6-2.7-5.1-3.3-5.4
			c-0.1-0.1-0.3-0.1-0.4-0.2s-0.3-0.2-0.5-0.2S21,0.2,21,0.4c0,0.2,0.1,0.3,0.3,0.3l0.1,0.1c0.1,0.1,0.3,0.2,0.5,0.3
			c0,0,2.1,1.1,3,5l0.3,1.3c-1.6-0.2-2.9,0.2-3.7,1c-0.6,0.6-0.9,1.4-0.9,2.2l0,0c-0.1,0.6-1.2,1-1.6,1.1C13,12.4,7.9,14,4.7,16.1
			l0,0c-0.4,0.3-4.4,2.6-4.4,4.5c0,0.6,0.1,1.1,0.2,1.7c0.3,1.2,0.2,2.4-0.2,3.5C-0.2,27,0,28.3,0.7,29.4c0.2,0.3,0.6,0.5,0.9,0.6
			l0.3,6.7c0.1,3.2,1.8,6.2,4.4,8c4.3,2.9,10.1,5.9,20.1,5.9c9.5,0,15.7-3.6,19.1-6.5c2.1-1.8,3.3-4.4,3.4-7.1l0.6-12.3l0,0l0.2-3.5
			C49.9,16.4,41.7,12.4,30.3,11.5z M32,16.8c-0.5-1-2.5-1.3-3.9-1.4l-0.6-0.1c-1.1-0.2-2.3-1.7-2.4-1.7c-0.2-0.2-0.3-0.3-0.4-0.4
			c0.3-0.1,0.6-0.2,1-0.3s0.9,0.2,1.5,0.6c0.4,0.3,0.9,0.5,1.4,0.6c0.5,0,1-0.1,1.4-0.4c0.3-0.2,0.6-0.3,0.9-0.4
			c0.6-0.1,1.8,1,2.7,2c0.1,0.1,0.1,0.3,0.1,0.4c-0.2,0.8-0.6,1.5-1.2,2.1c-0.1,0.1-0.2,0.1-0.3,0.1c-0.1,0-0.1-0.1-0.1-0.1
			C32.2,17.5,32.2,17.2,32,16.8z M20,15.9c0.3,1.1,1.3,2,2.7,2.4c-1.3,0.4-3.4,0.8-4.7-0.3c-0.5-0.5-1.1-1.7-0.7-2.3
			c0.2-0.3,0.4-0.5,0.6-0.7l0,0c0.6-0.4,1.4-0.6,2.1-0.4C19.9,15.1,19.9,15.5,20,15.9z M20.6,15.8c-0.2-0.6,0-1.2,0.5-1.7
			c0.8-0.6,1.9-0.9,2.9-0.7c0.3,0.2,0.5,0.4,0.7,0.6c0.1,0.1,1.4,1.7,2.7,1.9L28,16c1.1,0.1,3.1,0.4,3.4,1.1
			c0.1,0.2,0.1,0.4-0.1,0.6v0.1c-0.4,0.4-3.6,0.5-7.5,0.1l0,0h-0.2C22.1,17.6,20.9,16.9,20.6,15.8z M21.9,8.7c0.7-0.7,2-1,3.6-0.8
			h0.1C26.4,7.7,27.2,7.8,28,8c1.6,0.6,2.2,1.8,1.6,3.6l0,0c-0.2,0.6-0.5,1.3-0.8,1.8c0,0,0,0,0,0.1h-0.1c-0.4-0.1-0.8-0.3-1.1-0.5
			c-0.6-0.4-1.2-0.8-1.9-0.6c-0.5,0.1-1.1,0.3-1.6,0.4c-0.7-0.1-1.5,0-2.2,0.2l-0.2-0.5l0,0c-0.2-0.5-0.3-0.9-0.4-1.4
			C21.1,10.3,21.4,9.4,21.9,8.7z M19.2,12.2c0.5-0.1,1-0.4,1.5-0.7c0.1,0.4,0.2,0.9,0.4,1.3l0.2,0.5c-0.2,0.1-0.4,0.2-0.6,0.4
			c-0.2,0.1-0.3,0.3-0.4,0.5c-0.7-0.2-1.5-0.1-2.2,0.2C18,13.4,18.5,12.7,19.2,12.2z M48.5,36.9c-0.1,2.6-1.3,5-3.2,6.7
			c-3.4,2.9-9.4,6.4-18.7,6.4c-9.8,0-15.5-2.9-19.8-5.8c-2.5-1.7-4.1-4.5-4.2-7.5l-0.3-6.8c0.7-0.2,1.2-1.1,1.6-1.8
			c0.2-0.3,0.6-1.1,0.7-1c0.8,0.4,1.8,3.1,1.5,5c-0.3,1.8-0.5,3.4,1.2,3.8c0.2,0,0.4,0,0.5-0.1c0.4-0.3,0.5-1.2,0.6-2.4
			c0.1-1.2,0.2-2.8,0.8-3.4c0.2-0.2,0.5-0.2,0.7-0.2c2.8,0.3,4.1,1.7,4,4.2s0.2,4.2,1,5c0.3,0.3,0.8,0.5,1.2,0.4
			c0.3,0,0.5-0.2,0.7-0.4c0.5-0.7,0.2-2-0.1-3.4c-0.2-0.7-0.3-1.4-0.3-2.2c0-0.8,0.5-2.3,1.6-2.8s2.5,0,4.3,1.5c1,1,1.7,2.2,2,3.6
			c0.4,1.8,1.4,2.3,2,2.3c0.5,0,1.1-0.4,1.1-1.5c0.2-1.9,0.5-4.1,1.8-5c0.8-0.5,1.8-0.6,3.3-0.2c1.9,0.5,2.1,1.8,2.5,4.3
			c0.1,0.8,0.3,1.6,0.5,2.6c0.1,0.9,0,1.8-0.2,2.7c-0.1,0.4-0.2,0.9-0.2,1.3c0,0.8,0.4,1.5,1.1,1.9c0.2,0.2,0.8,0.5,1.2,0.3
			c1.5-0.7,1.2-1.8,0.8-3c-0.1-0.2-0.1-0.4-0.2-0.7c-0.3-1.2-0.2-4.5,0.5-5.5c0.2-0.2,0.3-0.2,0.3-0.2c1.3-0.1,2-1.1,2.5-1.9
			c0.3-0.4,0.6-0.9,0.8-0.9c0.1,0,0.4,0.1,0.8,1.1c0.1,0.4,0.5,0.6,0.9,0.6c1.5-0.1,3.6-4.4,4.8-7.3L48.5,36.9z M49.1,24.6
			c-1.3,3.8-3.9,8.6-5,8.7c-0.1,0-0.2,0-0.3-0.3c-0.5-0.9-0.9-1.3-1.3-1.4c-0.6,0-0.9,0.5-1.4,1.2c-0.5,0.8-1.1,1.6-2.1,1.7
			c-0.3,0-0.6,0.2-0.8,0.5c-0.9,1.2-0.9,4.8-0.7,6c0.1,0.2,0.1,0.5,0.2,0.7c0.4,1.3,0.5,1.9-0.5,2.3c-0.3-0.1-0.6-0.2-0.8-0.5
			c-0.3-0.3-0.5-0.7-0.6-1.1c0.1-0.4,0.1-0.8,0.2-1.2c0.3-1,0.4-2,0.2-2.9c-0.2-1-0.4-1.8-0.5-2.6c-0.4-2.5-0.7-4.1-3-4.8
			c-1.6-0.4-2.8-0.3-3.8,0.3c-1.5,1.1-1.9,3.3-2.1,5.4c-0.1,0.6-0.3,0.9-0.6,0.9c-0.4,0-1.1-0.6-1.4-1.8c-0.3-1.5-1.1-2.8-2.2-3.9
			c-1.9-1.6-3.6-2.1-4.9-1.6c-1.4,0.7-1.9,2.4-2,3.4c0,0.8,0.1,1.5,0.3,2.3c0.2,1.1,0.5,2.5,0.2,2.9c-0.1,0.1-0.2,0.1-0.3,0.1
			c-0.3,0-0.6,0-0.8-0.2c-0.6-0.6-0.9-2.2-0.8-4.5c0.1-2.9-1.4-4.5-4.6-4.9c-0.4-0.1-0.9,0.1-1.2,0.3c-0.9,0.7-1,2.4-1.1,3.8
			c0,0.7-0.1,1.9-0.4,2c-1-0.2-1.2-1-0.8-3.1c0.4-2-0.6-5-1.8-5.6c-0.6-0.3-1.1,0.4-1.5,1.2c-0.4,0.7-0.9,1.5-1.4,1.5l0,0
			c-0.3,0-0.6-0.2-0.7-0.4c-0.6-0.9-0.7-2-0.4-3c0.5-1.2,0.5-2.5,0.2-3.8c-0.1-0.5-0.2-1-0.2-1.6c0-1.3,2.9-3.3,4-3.9h0.1
			c2.9-2,7.6-3.5,13.1-4.2c-0.5,0.6-0.8,1.4-0.7,2.2c-0.2,0.2-0.5,0.5-0.6,0.7c-0.6,1,0.1,2.5,0.8,3.1c2.1,1.7,5.7,0.3,6.3,0
			c2.8,0.3,6.7,0.5,7.8-0.1c0.1,0.1,0.2,0.2,0.3,0.2c0.3,0.1,0.6,0,0.8-0.2c0.7-0.7,1.2-1.5,1.4-2.5c0.1-0.3,0-0.6-0.2-0.9
			c-0.6-0.7-2.2-2.4-3.3-2.2c-0.4,0.1-0.7,0.2-1.1,0.5H29c0.2-0.4,0.3-0.8,0.5-1.1c10.9,0.8,19.1,4.7,19.1,9L49.1,24.6z"/>
		<path class="st0" d="M26.6,50.7c-4.6,0-8.6-0.6-12.2-1.9c-3.5-1.2-6.1-2.8-8-4.1c-1.3-0.9-2.4-2.1-3.2-3.5c-0.8-1.4-1.2-3-1.3-4.6
			l-0.3-6.7c-0.4-0.1-0.7-0.3-0.9-0.7c-0.8-1.1-0.9-2.5-0.5-3.7c0.4-1.1,0.5-2.3,0.2-3.4l0,0c-0.1-0.6-0.2-1.1-0.2-1.7l0,0
			c0-0.8,0.7-1.8,2.1-2.9c1-0.8,2.1-1.5,2.4-1.6c3.2-2.2,8.3-3.8,14.3-4.4c0.4-0.1,1.4-0.4,1.5-1c0-0.9,0.3-1.7,0.9-2.3l0,0
			c0.8-0.8,2-1.2,3.6-1l-0.3-1.1c-0.5-2-1.2-3.2-1.8-3.9c-0.6-0.7-1.1-1-1.1-1c-0.2-0.1-0.3-0.2-0.5-0.3l-0.1-0.1
			c-0.2,0-0.4-0.2-0.4-0.4C20.8,0.2,21,0,21.2,0l0,0c0.2,0,0.4,0.1,0.5,0.2s0.2,0.2,0.4,0.2c0.7,0.3,2.5,1.9,3.4,5.5l0,0l0.3,1.3
			c0.8-0.1,1.6,0,2.3,0.2l0,0C29,7.7,29.7,8.3,30,9c0.4,0.7,0.4,1.5,0.3,2.4c2.7,0.2,5.3,0.6,7.7,1.2c2.4,0.6,4.5,1.3,6.2,2.2
			c1.8,0.9,3.1,1.8,4.1,2.9s1.5,2.3,1.5,3.4l0,0l-0.2,3.5l0,0L49,36.9c-0.1,1.4-0.4,2.7-1,3.9s-1.4,2.3-2.5,3.2
			C42.3,47.2,36.1,50.7,26.6,50.7z M0.7,22.2c0.3,1.2,0.2,2.4-0.2,3.5c-0.4,1.2-0.3,2.5,0.4,3.5c0.2,0.3,0.5,0.5,0.9,0.6h0.1
			l0.3,6.8c0.1,3.2,1.8,6.1,4.4,7.9c4.3,2.9,10.1,5.9,20.1,5.9c9.5,0,15.6-3.5,19-6.5c2-1.8,3.3-4.3,3.4-7l0.6-12.3l0,0l0.2-3.5
			c0-4.6-8.2-8.6-19.5-9.5h-0.1v-0.1c0.4-1.8-0.3-3.2-2-3.8c-0.8-0.2-1.6-0.3-2.3-0.2h-0.1L25.6,6c-0.3-1.5-0.9-2.9-1.7-3.9
			c-0.6-0.8-1.2-1.3-1.5-1.4c-0.1-0.1-0.3-0.1-0.4-0.2l0,0c-0.1-0.1-0.3-0.2-0.4-0.2s-0.1,0-0.1,0.1l-0.1,0.1c0,0.1,0.1,0.2,0.2,0.2
			l0,0l0.2,0.1c0.1,0.1,0.3,0.2,0.4,0.3l0,0c0,0,0.5,0.3,1.2,1.1c0.6,0.7,1.4,2,1.8,4l0.3,1.4h-0.2c-1.6-0.1-2.8,0.2-3.6,1
			c-0.6,0.6-0.9,1.4-0.9,2.2l0,0l0,0c-0.1,0.9-1.6,1.2-1.7,1.2l0,0c-6,0.7-11.1,2.3-14.2,4.4l0,0c-0.2,0.1-1.3,0.8-2.3,1.6
			c-1.3,1.1-2,2-2,2.8C0.5,21.1,0.5,21.7,0.7,22.2z M26.6,50.1c-9.8,0-15.5-2.9-19.8-5.8c-1.3-0.8-2.3-2-3-3.3s-1.2-2.8-1.2-4.3
			l-0.3-6.8h0.1c0.7-0.2,1.1-1,1.5-1.7L4,28.1c0.3-0.6,0.6-0.9,0.7-1h0.1c0.4,0.2,0.9,1,1.2,2c0.4,1.1,0.5,2.2,0.3,3.1
			C6,34,5.8,35.5,7.5,35.9l0,0c0.2,0,0.3,0,0.4-0.1c0.4-0.3,0.5-1.2,0.5-2.3c0.1-1.3,0.2-2.9,0.9-3.5c0.2-0.2,0.5-0.3,0.8-0.2
			c1.5,0.2,2.5,0.6,3.2,1.3c0.7,0.7,1,1.7,0.9,3s0,2.3,0.2,3.1c0.2,0.8,0.4,1.4,0.8,1.8c0.3,0.3,0.7,0.4,1.1,0.4l0,0
			c0.2,0,0.5-0.1,0.6-0.3c0.5-0.6,0.2-1.9-0.1-3.3c-0.2-0.7-0.3-1.4-0.3-2.2l0,0c0-0.9,0.5-2.4,1.7-2.9s2.6,0,4.4,1.5l0,0
			c1,1,1.8,2.2,2.1,3.6c0.4,1.7,1.3,2.2,1.9,2.2c0.4,0,1-0.4,1-1.4l0,0c0.2-2,0.5-4.1,1.9-5.1c0.8-0.6,1.9-0.6,3.4-0.2
			c0.9,0.3,1.5,0.7,1.9,1.5c0.3,0.7,0.5,1.6,0.7,2.9l0,0c0.1,0.8,0.3,1.6,0.5,2.6l0,0c0.1,0.9,0,1.8-0.2,2.7
			c-0.1,0.4-0.2,0.9-0.2,1.3c0,0.7,0.4,1.4,1,1.8l0,0c0.3,0.2,0.7,0.5,1,0.3l0,0c1.4-0.6,1.1-1.7,0.8-2.9c-0.1-0.2-0.1-0.4-0.2-0.7
			c-0.1-0.6-0.2-1.7-0.1-2.8c0.1-0.8,0.2-2.1,0.7-2.7c0.2-0.2,0.3-0.3,0.4-0.3l0,0c1.2-0.1,1.9-1.1,2.4-1.9V33
			c0.4-0.6,0.7-0.9,0.9-0.9c0.2,0,0.6,0.4,0.9,1.1l0,0c0.1,0.3,0.4,0.5,0.8,0.5c0.6,0,1.5-0.9,2.4-2.6c1-1.7,1.9-3.7,2.3-4.7
			l0.2-0.6l-0.5,11c-0.1,1.3-0.4,2.5-0.9,3.7c-0.6,1.2-1.3,2.2-2.3,3C42,46.6,36,50.1,26.6,50.1z M2.5,30l0.3,6.7
			c0.1,3,1.7,5.8,4.1,7.4c4.3,2.9,10,5.8,19.7,5.8c9.3,0,15.3-3.5,18.6-6.4c1.9-1.7,3.1-4.1,3.2-6.6l0,0l0.5-9.8
			c-0.5,1.1-1.2,2.7-2.1,4.1c-1,1.7-1.9,2.6-2.6,2.7c-0.4,0-0.8-0.2-1-0.6c-0.5-1-0.7-1-0.7-1l0,0c0,0-0.1,0-0.3,0.2
			c-0.1,0.2-0.3,0.4-0.4,0.6v0.1c-0.6,0.8-1.3,1.9-2.6,2l0,0c0,0-0.1,0-0.2,0.2c-0.3,0.4-0.5,1.4-0.6,2.6c-0.1,1.1,0,2.2,0.1,2.8
			c0.1,0.2,0.1,0.4,0.2,0.6c0.3,1.2,0.7,2.5-0.9,3.2c-0.4,0.2-0.9-0.1-1.3-0.3c-0.7-0.4-1.1-1.2-1.1-2l0,0l0,0
			c0.1-0.4,0.1-0.9,0.2-1.3l0,0c0.3-0.8,0.3-1.7,0.2-2.6c-0.2-1-0.4-1.8-0.5-2.6l0,0c-0.2-1.3-0.4-2.2-0.7-2.8
			c-0.3-0.7-0.9-1.1-1.7-1.3c-1.4-0.4-2.4-0.3-3.2,0.2c-1.3,0.9-1.6,3-1.8,4.9c-0.1,1.1-0.7,1.5-1.2,1.6h-0.1c-0.7,0-1.6-0.6-2-2.4
			c-0.3-1.3-1-2.6-2-3.5c-1.7-1.5-3.1-1.9-4.1-1.5c-1.1,0.5-1.6,1.9-1.6,2.7c0,0.7,0.1,1.4,0.3,2.1l0,0c0.3,1.4,0.6,2.8,0.1,3.5
			c-0.2,0.3-0.5,0.4-0.8,0.4c-0.5,0.1-1-0.1-1.3-0.4c-0.8-0.8-1.1-2.5-1-5s-1.2-3.8-3.9-4.1l0,0c-0.2,0-0.5,0-0.6,0.2
			C9,31,8.9,33,8.9,33.7c-0.1,1.2-0.1,2.1-0.6,2.5c-0.2,0.1-0.4,0.2-0.6,0.1c-0.9-0.2-1.3-0.7-1.5-1.5c-0.1-0.7,0-1.6,0.2-2.5
			c0.2-0.8,0.1-1.9-0.3-3c-0.3-0.9-0.7-1.7-1.1-1.9c-0.1,0.1-0.3,0.3-0.6,0.9l-0.1,0.1C3.6,29,3.2,29.7,2.5,30z M37.3,44L37.3,44
			c-0.4-0.1-0.7-0.3-0.9-0.5c-0.4-0.3-0.6-0.7-0.6-1.2l0,0l0,0c0.1-0.4,0.1-0.8,0.2-1.3l0,0c0.3-0.9,0.4-1.9,0.2-2.9
			c-0.2-1-0.3-1.8-0.5-2.6c-0.2-1.2-0.4-2.3-0.8-3.1c-0.4-0.8-1.1-1.3-2.1-1.6c-1.6-0.4-2.8-0.3-3.7,0.3c-1.5,1-1.8,3.2-2.1,5.3
			c-0.1,0.6-0.3,1-0.7,1c-0.5,0-1.2-0.6-1.5-1.9c-0.3-1.5-1.1-2.8-2.2-3.8c-1.9-1.6-3.5-2.1-4.8-1.6c-1.4,0.7-1.9,2.4-1.9,3.3
			c0,0.8,0.1,1.5,0.3,2.3l0,0l0,0c0.2,1.2,0.5,2.5,0.2,3c-0.1,0.1-0.2,0.2-0.3,0.2c-0.3,0-0.6-0.1-0.8-0.3c-0.6-0.6-0.9-2.2-0.8-4.6
			c0.1-2.8-1.4-4.4-4.5-4.8l0,0c-0.4-0.1-0.8,0-1.1,0.3c-0.4,0.3-0.6,0.8-0.8,1.6c-0.1,0.7-0.2,1.4-0.2,2.2c-0.1,1.5-0.2,2-0.4,2.1
			l0,0l0,0c-0.6-0.1-0.9-0.4-1-0.9s-0.1-1.2,0.1-2.3c0.2-0.9,0.1-2.1-0.3-3.3c-0.4-1.1-0.9-2-1.4-2.2C4.4,26.4,4,27,3.5,27.8l0,0
			c-0.4,0.7-0.9,1.5-1.5,1.6l0,0l0,0c-0.3,0-0.6-0.2-0.8-0.5c-0.6-0.9-0.8-2.1-0.4-3.1c0.5-1.2,0.5-2.5,0.2-3.7l0,0
			c-0.1-0.5-0.2-1.1-0.2-1.6c0-0.6,0.5-1.4,1.6-2.3c0.8-0.7,1.9-1.4,2.5-1.7H5c1.4-1,3.3-1.9,5.6-2.6c2.3-0.7,4.8-1.3,7.5-1.6h0.3
			l-0.2,0.2c-0.5,0.6-0.7,1.4-0.6,2.1v0.1l0,0c-0.2,0.2-0.4,0.4-0.6,0.7c-0.3,0.4-0.3,1-0.1,1.6c0.2,0.5,0.5,1.1,0.9,1.4
			c0.8,0.7,2.1,1,3.6,0.7c1.2-0.2,2.3-0.6,2.6-0.7l0,0l0,0c1.5,0.2,3.2,0.3,4.5,0.3l0,0c1.6,0,2.7-0.1,3.1-0.4h0.1l0.1,0.1
			c0.1,0.1,0.2,0.1,0.3,0.2c0.3,0.1,0.5,0,0.7-0.2c0.7-0.6,1.2-1.5,1.4-2.4c0-0.3,0-0.6-0.2-0.8c-0.5-0.6-2.1-2.4-3.2-2.2
			c-0.4,0.1-0.7,0.2-1,0.4l0,0l-0.4,0.2l0.2-0.3c0.2-0.4,0.3-0.7,0.5-1.1v-0.1h0.1c5.3,0.4,10.2,1.5,13.7,3.2c1.7,0.8,3.1,1.7,4,2.7
			c1,1,1.5,2.1,1.5,3.2l0,0l-0.2,3.5l0,0c-0.7,1.9-1.6,4-2.6,5.8c-0.7,1.3-1.8,2.9-2.5,3l0,0c-0.1,0-0.3,0-0.4-0.3l0,0
			c-0.5-0.9-0.8-1.3-1.3-1.3s-0.8,0.5-1.3,1.1l0,0c-0.5,0.8-1.1,1.7-2.1,1.7c-0.3,0-0.5,0.2-0.7,0.4l0,0c-0.4,0.5-0.7,1.6-0.8,3
			c-0.1,1.1,0,2.3,0.1,2.9c0.1,0.3,0.1,0.5,0.2,0.7c0.2,0.7,0.3,1.1,0.2,1.5C38.1,43.5,37.8,43.8,37.3,44L37.3,44z M36,42.3
			c0,0.4,0.2,0.8,0.5,1l0,0l0,0c0.2,0.2,0.5,0.4,0.7,0.4c0.8-0.4,0.8-0.9,0.4-2.2c-0.1-0.2-0.1-0.4-0.2-0.7c-0.2-0.6-0.2-1.9-0.1-3
			c0.1-0.8,0.2-2.3,0.8-3.1c0.2-0.3,0.5-0.5,0.9-0.5l0,0c0.9,0,1.5-0.9,2-1.6l0,0c0.4-0.6,0.8-1.2,1.5-1.2c0.5,0,0.9,0.5,1.4,1.4
			C44,33,44.1,33,44.1,33c0.9-0.1,3.4-4.5,4.8-8.6l0.2-3.5c0-2-1.9-4.1-5.4-5.7s-8.3-2.8-13.5-3.2c-0.1,0.3-0.2,0.5-0.3,0.8
			c0.3-0.1,0.5-0.2,0.8-0.3l0,0c0.5-0.1,1.1,0.2,1.9,0.8c0.6,0.5,1.2,1.1,1.5,1.5l0,0c0.2,0.3,0.3,0.6,0.2,1c-0.2,1-0.7,1.9-1.4,2.6
			c-0.3,0.2-0.6,0.3-0.9,0.2l0,0c-0.1,0-0.2-0.1-0.3-0.2c-0.5,0.3-1.6,0.4-3.2,0.4c-1.4,0-3-0.1-4.5-0.3c-0.3,0.1-1.4,0.6-2.6,0.7
			c-1.6,0.2-2.9,0-3.8-0.8c-0.4-0.3-0.8-0.9-0.9-1.5c-0.2-0.7-0.2-1.3,0.1-1.8c0.2-0.3,0.4-0.5,0.6-0.7c-0.1-0.7,0.1-1.4,0.5-2
			c-5.3,0.7-10,2.2-12.8,4.2l0,0H5c-0.6,0.3-1.6,1-2.4,1.7c-1,0.9-1.5,1.6-1.5,2.1s0.1,1,0.2,1.6c0.3,1.3,0.3,2.6-0.2,3.9
			c-0.4,1-0.2,2.1,0.3,2.9l0,0C1.5,29,1.8,29.2,2,29.2c0.5,0,1-0.8,1.3-1.5l0,0c0.4-0.8,1-1.6,1.7-1.2c0.6,0.3,1.2,1.2,1.5,2.4
			c0.4,1.2,0.5,2.4,0.3,3.4c-0.2,1.1-0.3,1.8-0.1,2.2c0.1,0.4,0.3,0.6,0.8,0.8c0,0,0.1-0.2,0.2-0.7c0.1-0.4,0.1-0.8,0.1-1.2
			C7.9,32,8,30.3,8.9,29.5c0.4-0.3,0.8-0.4,1.3-0.3c1.6,0.2,2.8,0.7,3.6,1.5c0.8,0.8,1.1,2,1.1,3.5c-0.1,1.1,0,2.1,0.1,2.9
			c0.1,0.7,0.3,1.3,0.6,1.5l0,0c0.2,0.2,0.4,0.3,0.7,0.2l0,0c0.1,0,0.1,0,0.2-0.1c0.3-0.4,0-1.8-0.2-2.8l0,0
			c-0.2-0.8-0.3-1.5-0.3-2.3l0,0l0,0c0-0.3,0.1-1.1,0.5-1.9s0.9-1.3,1.6-1.6l0,0c1.4-0.6,3-0.1,5,1.6l0,0c1.1,1.1,1.9,2.4,2.2,3.9
			c0.3,1.2,0.9,1.8,1.2,1.7c0.2,0,0.4-0.4,0.5-0.8c0.1-1,0.3-2.1,0.6-3.1c0.4-1.1,0.9-1.9,1.6-2.4c1-0.7,2.2-0.8,3.9-0.3
			c1.1,0.3,1.8,0.8,2.2,1.7c0.4,0.8,0.6,1.9,0.8,3.1c0.1,0.8,0.3,1.6,0.5,2.6l0,0c0.1,1,0.1,2-0.2,3C36.1,41.5,36,41.9,36,42.3z
			 M7.5,35.3L7.5,35.3L7.5,35.3z M20.3,18.8c-1,0-1.8-0.2-2.3-0.7l0,0c-0.3-0.3-0.6-0.7-0.7-1.1c-0.2-0.5-0.2-1,0-1.3
			s0.4-0.5,0.6-0.7l0,0c0.6-0.4,1.4-0.6,2.2-0.4h0.1v0.1c-0.1,0.4-0.1,0.8,0,1.2l0,0c0.3,1.1,1.2,1.9,2.7,2.3l0.4,0.1l-0.4,0.1
			c-0.6,0.2-1.5,0.4-2.4,0.4C20.4,18.8,20.3,18.8,20.3,18.8z M18.1,17.9c1.2,1,3.1,0.7,4.3,0.4c-0.6-0.2-1.1-0.5-1.5-0.8
			c-0.5-0.4-0.8-0.9-1-1.5c-0.1-0.4-0.1-0.8,0-1.2c-0.7-0.1-1.3,0-1.9,0.4c-0.2,0.2-0.4,0.4-0.6,0.6c-0.2,0.3-0.2,0.7,0,1.1
			S17.8,17.7,18.1,17.9z M28.4,18.3c-1.4,0-2.9-0.1-4.5-0.3h-0.2l0,0c-0.8-0.1-1.6-0.4-2.1-0.8c-0.6-0.4-0.9-0.9-1.1-1.4
			c-0.2-0.6,0-1.3,0.5-1.8l0,0c0.8-0.6,1.9-0.9,3-0.7l0,0l0,0c0.3,0.2,0.5,0.4,0.8,0.7l0,0c0.1,0.1,1.4,1.6,2.6,1.9l0.7,0.1
			c1.5,0.2,3.1,0.5,3.5,1.2l0,0c0.1,0.2,0.1,0.5-0.1,0.7c0,0,0,0,0,0.1l0,0l0,0c-0.3,0.3-1.7,0.4-2.5,0.4
			C28.8,18.3,28.6,18.3,28.4,18.3z M23.8,17.8H24c1.8,0.2,3.5,0.3,5,0.3c1.4,0,2.1-0.2,2.3-0.3v-0.1l0,0c0.1-0.1,0.1-0.3,0-0.5
			c-0.3-0.7-2.4-0.9-3.3-1l0,0l-0.7-0.1c-1.3-0.2-2.6-1.7-2.8-1.9c-0.2-0.2-0.4-0.4-0.7-0.6c-1-0.1-2,0.1-2.8,0.7
			c-0.4,0.4-0.6,1-0.4,1.5l0,0C21,16.8,22.1,17.5,23.8,17.8z M32.2,18.1L32.2,18.1L32.2,18.1L32.2,18.1c-0.1,0-0.2-0.1-0.3-0.2v-0.1
			v-0.1c0.1-0.3,0.1-0.6,0-0.9c-0.5-0.9-2.5-1.2-3.8-1.4l-0.6-0.1c-1-0.2-2.1-1.4-2.4-1.7l0,0l0,0c-0.2-0.2-0.3-0.3-0.4-0.4
			l-0.1-0.1l0.2-0.1c0.4-0.1,0.7-0.2,1-0.3c0.4-0.1,1,0.2,1.5,0.6l0,0c0.4,0.3,0.8,0.5,1.3,0.6c0.5,0,1-0.1,1.4-0.4l0,0
			c0.3-0.2,0.6-0.3,0.9-0.4l0,0c0.7-0.1,2.1,1.2,2.8,2l0,0l0,0c0.1,0.1,0.1,0.3,0.1,0.5c-0.2,0.8-0.6,1.6-1.2,2.2
			C32.5,18,32.4,18.1,32.2,18.1z M32.2,17.9c0.1,0,0.2,0,0.2-0.1c0.6-0.5,1-1.3,1.1-2l0,0c0-0.1,0-0.2,0-0.3c-1-1.2-2.1-2-2.6-2
			c-0.3,0.1-0.6,0.2-0.9,0.4c-0.4,0.3-1,0.5-1.5,0.4l0,0l0,0c-0.5-0.1-1-0.3-1.4-0.6c-0.5-0.3-1-0.6-1.4-0.5
			c-0.3,0.1-0.5,0.1-0.8,0.2c0.1,0.1,0.2,0.2,0.3,0.3l0,0c0.3,0.3,1.4,1.5,2.3,1.6l0.6,0.1c1.4,0.2,3.4,0.4,4,1.5l0,0
			C32.3,17.1,32.3,17.5,32.2,17.9L32.2,17.9z M17.9,14.4v-0.2c0-0.9,0.5-1.7,1.2-2.1l0,0l0,0c0.5-0.1,1-0.4,1.4-0.7l0.1-0.1v0.2
			c0.1,0.4,0.2,0.8,0.4,1.2l0.3,0.6h-0.1c-0.2,0.1-0.4,0.2-0.5,0.3c-0.2,0.1-0.3,0.3-0.4,0.4v0.1h-0.1c-0.7-0.2-1.5-0.1-2.2,0.2
			L17.9,14.4z M19.2,12.3c-0.6,0.4-1,1-1.1,1.7c0.7-0.2,1.4-0.3,2.1-0.1c0.1-0.2,0.3-0.3,0.4-0.4c0.2-0.1,0.3-0.2,0.5-0.3l-0.2-0.4
			c-0.2-0.4-0.3-0.7-0.3-1.1C20.2,12,19.7,12.2,19.2,12.3z M28.9,13.7h-0.3l0,0c-0.4-0.1-0.8-0.3-1.1-0.5c-0.6-0.4-1.2-0.7-1.8-0.6
			c-0.5,0.1-1.1,0.2-1.6,0.4l0,0l0,0c-0.7-0.1-1.5,0-2.2,0.2h-0.1l-0.3-0.6c-0.2-0.5-0.3-0.9-0.4-1.4c-0.2-0.9,0.1-1.8,0.7-2.5l0,0
			c0.8-0.8,2.1-1,3.7-0.8h0.1C26.4,7.7,27.2,7.8,28,8l0,0c0.8,0.3,1.4,0.8,1.7,1.4c0.3,0.6,0.3,1.4,0,2.3c-0.2,0.6-0.5,1.3-0.8,1.8
			l0,0L28.9,13.7z M28.7,13.4L28.7,13.4L28.7,13.4c0.4-0.6,0.6-1.2,0.8-1.8l0,0c0.5-1.7,0-2.9-1.5-3.4c-0.7-0.2-1.5-0.3-2.3-0.1l0,0
			h-0.1l0,0c-1.5-0.2-2.8,0-3.5,0.7c-0.6,0.6-0.8,1.5-0.7,2.3l0,0c0.1,0.5,0.2,0.9,0.4,1.4l0.2,0.4c0.7-0.2,1.4-0.3,2.2-0.2
			c0.5-0.2,1-0.3,1.6-0.4c0.7-0.1,1.3,0.3,2,0.7l0,0C27.9,13.2,28.3,13.3,28.7,13.4z"/>
	</g>
	<g>
		<path class="st0" d="M27.1,6.7L27.1,6.7c1.7,0,2.3-0.4,2.4-0.5s0.1-0.1,0.1-0.2c0-1.6-1.1-1.9-1.2-1.9s-0.2,0-0.3,0.1
			c-0.3,0.3-0.7,0.6-1.1,0.7c-0.1,0-0.2,0.2-0.2,0.3v1.1C26.8,6.6,26.9,6.7,27.1,6.7L27.1,6.7z M27.4,5.5c0.4-0.2,0.7-0.4,1-0.7
			C28.8,5,29,5.4,29,5.9c-0.5,0.2-1,0.3-1.6,0.3V5.5z"/>
	</g>
	<g>
		<path class="st0" d="M45.5,21.3c-0.4-0.2-0.9,0.1-1.8,0.5c-2.4,1.2-5,2-7.7,2.4c-0.4,0-0.8,0.3-0.9,0.7c-0.2,0.5,0,1,0.4,1.2l0,0
			c0.2,0.1,0.4,0.1,0.7,0.1c2.1,0,7.5-1.7,9.4-3.3l0,0c0.3-0.3,0.4-0.7,0.4-1.1C45.9,21.6,45.7,21.4,45.5,21.3z M45.2,22.5
			c-2.2,1.8-8.6,3.4-9.3,3.1c-0.3-0.2-0.3-0.3-0.2-0.4l0,0c0.1-0.2,0.3-0.3,0.5-0.3c2.7-0.3,5.4-1.2,7.9-2.4
			c0.4-0.2,0.8-0.4,1.3-0.5l0,0c0.1,0,0.1,0.1,0.1,0.1C45.4,22.2,45.3,22.3,45.2,22.5L45.2,22.5z"/>
	</g>
	<g>
		<path class="st0" d="M10.9,15.1c-0.9-0.2-2.1-0.5-2.7-3.6c0-0.2-0.2-0.3-0.4-0.2c-0.1,0-0.2,0.2-0.2,0.3V13c0,0.1,0,0.1,0,0.2
			c-0.6,0.5-1.2,0.9-1.9,1.2c-0.6,0.2-1,0.7-1.1,1.3c0,0.7,0.4,1.4,1,1.8c0.6,0.3,1.2,0.5,1.9,0.4c0.9,0,1.8-0.1,2.6-0.3
			c0.2,0.1,0.4,0.1,0.6,0.1c0.6-0.1,1.1-0.5,1.4-1c0.1-0.4,0-0.8-0.2-1.1C11.7,15.3,11.3,15.1,10.9,15.1z M6,16.9
			c-0.4-0.2-0.7-0.7-0.7-1.2c0-0.4,0.3-0.7,0.7-0.8c0.6-0.3,1.2-0.6,1.8-1c0.1,0.8,0.3,1.9,0.7,2.3l0.1,0.1c0.3,0.3,0.5,0.5,0.8,0.8
			C8,17.3,6.8,17.4,6,16.9L6,16.9z M11.6,16.4c-0.2,0.3-0.5,0.6-0.9,0.6c-0.1,0-0.2,0-0.4,0h-0.1c-0.5-0.3-1-0.6-1.3-1.1l-0.1-0.1
			c-0.2-0.2-0.5-1.2-0.6-2c0.4,1,1.4,1.7,2.5,1.9c0.2,0,0.5,0.1,0.7,0.2C11.6,16,11.6,16.2,11.6,16.4z"/>
	</g>
	<g>
		<path class="st0" d="M29,19.9c-0.9-0.2-2.1-0.5-2.7-3.6c0-0.2-0.2-0.3-0.4-0.2c-0.1,0-0.2,0.2-0.2,0.3v1.5c-0.5,0.6-1.2,1-1.9,1.3
			c-0.6,0.2-1,0.7-1.1,1.3c0,0.7,0.4,1.4,1,1.8c0.6,0.3,1.3,0.5,2,0.4c0.9,0,1.8-0.1,2.6-0.3c0.2,0,0.4,0,0.5,0
			c0.6-0.1,1.1-0.5,1.4-1c0.1-0.4,0-0.8-0.2-1.1C29.7,20.1,29.3,19.9,29,19.9z M24,21.8c-0.4-0.2-0.7-0.7-0.7-1.2
			c0-0.4,0.3-0.7,0.7-0.8c0.6-0.3,1.2-0.6,1.8-1.1c0.1,0.8,0.3,2,0.8,2.4l0.1,0.1c0.3,0.3,0.6,0.6,0.9,0.8
			C26.1,22.2,24.8,22.2,24,21.8z M29.6,21.2c-0.2,0.3-0.5,0.6-0.9,0.6c-0.1,0-0.2,0-0.3,0h-0.1c-0.5-0.3-1-0.6-1.4-1.1l-0.1-0.1
			c-0.2-0.2-0.5-1.2-0.6-2c0.4,1,1.4,1.7,2.5,1.9c0.2,0,0.5,0.1,0.7,0.2C29.6,20.9,29.7,21.1,29.6,21.2L29.6,21.2z"/>
	</g>
</g>
</svg>
