<?xml version="1.0" encoding="utf-8"?>
<!-- Generator: Adobe Illustrator 19.0.1, SVG Export Plug-In . SVG Version: 6.00 Build 0)  -->
<svg version="1.1" id="Слой_1" xmlns="http://www.w3.org/2000/svg" xmlns:xlink="http://www.w3.org/1999/xlink" x="0px" y="0px"
	 viewBox="0 0 35.3 19.6" style="enable-background:new 0 0 35.3 19.6;" xml:space="preserve">
<g>
	<path d="M9.4,7.5C8.7,7.8,8,8,7.2,8.2C7.1,8.3,7,8.4,6.9,8.5C6.7,8.6,6.5,8.8,6.5,9c0,0.3,0,0.4,0.1,0.6c0.6,1.9,1.2,3.8,1.8,5.7
		C8.6,16,9.1,16.2,9.8,16l0.4-0.1c0.5-0.2,1-0.4,1.2-0.9c0.1-0.3,0.1-0.5,0-0.9c-0.1-1.1-0.2-2.2-0.4-3.3l-0.2-1.6
		c0-0.3-0.1-0.6-0.1-0.8c-0.1-0.5-0.3-0.7-0.5-0.8C10.1,7.5,9.8,7.4,9.4,7.5z M9.7,8.6c0,0.3,0,0.5,0.1,0.8L10,11
		c0.1,1.1,0.2,2.2,0.4,3.3c0,0.3,0,0.4,0,0.4l0.5,0.2l-0.5-0.2c0,0-0.1,0.1-0.4,0.2L9.5,15c-0.1,0-0.1,0-0.1,0
		c-0.6-2-1.2-3.8-1.8-5.7c0,0,0,0,0,0C8.3,9,9,8.8,9.7,8.6z"/>
	<path d="M35.2,4.8c0.1-0.3,0.1-0.5,0-0.8l-1.4-3c-0.3-0.7-1.2-1.1-2-1l-17,3.8c0,0,0,0,0,0c0,0,0,0,0,0L1.3,7.4
		C0.3,7.7,0,8.3,0,8.8c-0.1,2,1.7,2.2,2.7,2.3c0.2,0,0.4,0,0.6,0.1l0.6-0.1l-0.5,0.2c0.4,1.4,0.9,2.8,1.4,4.2
		c-0.6,0.7-1.1,1.3-1.6,2c-0.3,0.4-0.4,0.9-0.2,1.3c0.2,0.4,0.6,0.7,1.2,0.8c0.2,0,0.5,0,0.8-0.1c1.3-0.4,2.9-0.9,4.5-1.3
		c1.6-0.5,3.1-0.9,4.4-1.3c0.1,0,0.1,0,0.2,0c0.3-0.1,0.6-0.4,0.6-0.7l0.2-0.5l0.5,0.4c0.3,0.2,0.6,0.2,0.9,0.1
		c0.3-0.1,0.5-0.3,0.6-0.6l0.2-0.6l0.4,0.2c0.3,0.2,0.6,0.2,0.9,0.1c0.3-0.1,0.5-0.4,0.6-0.7l0.2-0.6l0.4,0.2
		c0.3,0.2,0.6,0.2,0.9,0.1c0.3-0.1,0.5-0.3,0.6-0.7l0.2-0.6l0.4,0.2c0.3,0.1,0.6,0.2,0.9,0c0.3-0.1,0.5-0.4,0.6-0.7l0.2-0.6
		c0.1,0.1,0.2,0.1,0.2,0.1c0.1,0.2,0.4,0.3,0.7,0.2c0.6-0.1,0.8-0.4,1-1.3l0.4,0.2c0.3,0.1,0.6,0.2,0.9,0c0.3-0.1,0.5-0.4,0.6-0.7
		L27,9.9l0.4,0.2c0.3,0.1,0.6,0.1,0.9,0c0.3-0.1,0.5-0.4,0.6-0.7L29,8.9l0.4,0.2c0.3,0.1,0.6,0.1,0.9,0c0.3-0.1,0.5-0.4,0.5-0.7
		L31,7.9l0.5,0.2c0.3,0.1,0.6,0.1,0.9,0c0.3-0.1,0.5-0.4,0.5-0.7L33,6.9l0.5,0.2c0.3,0.1,0.6,0.1,0.9,0c0.2-0.1,0.4-0.3,0.5-0.6
		c0,0,0-0.1,0-0.1L35.2,4.8z M12.1,5.6l1.8,9l-0.3,1.1c0,0,0,0-0.1,0c-1.3,0.4-2.9,0.9-4.4,1.3c-1.6,0.5-3.2,0.9-4.5,1.3
		c-0.2,0.1-0.3,0.1-0.4,0.1c-0.2,0-0.3-0.1-0.3-0.1c0-0.1,0-0.1,0.1-0.2c0.5-0.6,1-1.2,1.5-1.8c0.2-0.3,0.4-0.6,0.3-1.1
		c-0.5-1.4-0.9-2.8-1.3-4.2c-0.1-0.4-0.4-0.7-0.9-0.8c-0.2,0-0.4-0.1-0.7-0.1C1.5,9.9,1,9.7,1.1,8.9c0-0.1,0-0.3,0.5-0.4L12.1,5.6z
		 M34.2,4.5l-0.4,1.8l-1-0.6c-0.1-0.1-0.3-0.1-0.5,0c-0.1,0.1-0.3,0.2-0.3,0.4l-0.3,1.2l-1-0.6c-0.1-0.1-0.3-0.1-0.5,0
		c-0.1,0.1-0.2,0.2-0.3,0.4l-0.3,1.2l-1-0.6c-0.1-0.1-0.3-0.1-0.5,0c-0.1,0.1-0.3,0.2-0.3,0.4l-0.3,1.2l-0.9-0.6
		c-0.1-0.1-0.3-0.1-0.5,0c-0.1,0.1-0.3,0.2-0.3,0.4l-0.3,1.2l-0.9-0.6c-0.1-0.1-0.3-0.1-0.5,0c-0.2,0.1-0.3,0.2-0.3,0.4
		c-0.1,0.3-0.2,0.8-0.3,1.1c-0.2-0.1-0.6-0.3-1-0.5c-0.1-0.1-0.3-0.1-0.5,0c-0.1,0.1-0.3,0.2-0.3,0.4l-0.3,1.3l-0.9-0.6
		c-0.1-0.1-0.3-0.1-0.5,0c-0.2,0.1-0.3,0.2-0.3,0.4l-0.3,1.3l-0.9-0.6c-0.1-0.1-0.3-0.1-0.5,0c-0.2,0.1-0.3,0.2-0.3,0.4l-0.4,1.3
		L17,13.6c-0.1-0.1-0.3-0.1-0.5,0c-0.2,0.1-0.3,0.2-0.3,0.3l-0.3,1.2L15,14.4l-1.8-9L15,4.9l0,0l17-3.8c0.3-0.1,0.6,0.1,0.8,0.4
		L34.2,4.5z"/>
	<path d="M32.6,3.7C32.9,3,32.5,2.2,31.8,2c-0.7-0.2-1.5,0.1-1.7,0.8c-0.2,0.7,0.1,1.5,0.8,1.7C31.7,4.8,32.4,4.4,32.6,3.7z
		 M31.2,3.6C31,3.6,30.9,3.3,31,3.1c0.1-0.2,0.3-0.3,0.5-0.3s0.3,0.3,0.3,0.5C31.7,3.6,31.5,3.7,31.2,3.6z"/>
</g>
</svg>
