
<svg version="1.1" id="Слой_1" xmlns="http://www.w3.org/2000/svg" xmlns:xlink="http://www.w3.org/1999/xlink" x="0px" y="0px"
	 viewBox="0 0 18 2.6" enable-background="new 0 0 18 2.6" xml:space="preserve">
<g>
	<path d="M1.2,2.3c5.1-0.8,10.2,0.1,15.3-0.4c1.3-0.1,2-1.7,0.3-1.5C11.7,0.8,6.6-0.1,1.5,0.7C0.3,0.9-0.5,2.6,1.2,2.3z"/>
	<path d="M0.9,2.5c-0.3,0-0.6-0.1-0.7-0.3C0,2.1,0,1.8,0.1,1.6c0.2-0.4,0.7-0.9,1.4-1c2.8-0.4,5.6-0.4,8.4-0.3
		c2.3,0.1,4.6,0.1,6.9-0.1C17.8,0,18,0.5,18,0.7C18,1.2,17.4,1.9,16.5,2c-2.3,0.2-4.7,0.2-6.9,0.1C6.8,2.1,4,2,1.3,2.5h0
		C1.1,2.5,1,2.5,0.9,2.5z M6.9,0.6c-1.8,0-3.6,0.1-5.4,0.4C1,1,0.6,1.4,0.4,1.7c0,0.1-0.1,0.2,0,0.3c0.1,0.1,0.4,0.2,0.7,0.1h0
		C4,1.7,6.8,1.7,9.6,1.8c2.3,0.1,4.6,0.1,6.9-0.1c0.7-0.1,1.2-0.6,1.1-0.9c0-0.2-0.3-0.3-0.8-0.3c-2.3,0.2-4.7,0.2-6.9,0.1
		C8.9,0.6,7.9,0.6,6.9,0.6z"/>
</g>
</svg>
