<?xml version="1.0" encoding="utf-8"?>
<!-- Generator: Adobe Illustrator 22.1.0, SVG Export Plug-In . SVG Version: 6.00 Build 0)  -->
<svg version="1.1" id="Layer_1" xmlns="http://www.w3.org/2000/svg" xmlns:xlink="http://www.w3.org/1999/xlink" x="0px" y="0px"
	 viewBox="163.8 416.4 19.1 21.8" style="enable-background:new 163.8 416.4 19.1 21.8;" xml:space="preserve">
<style type="text/css">
	.st0{fill:#2C2F33;}
</style>
<g>
	<g>
		<g>
			<path class="st0" d="M170,423c-0.2-0.1-0.4-0.2-0.5-0.2c-0.2-0.1-0.5-0.1-0.6,0.1c-0.1,0.1-0.2,0.2-0.2,0.4c0,0.1,0,0.2,0.1,0.3
				l3.7,8.1c0.1,0.3,0.4,0.4,0.5,0.4c0,0,0,0,0,0c0.2,0,0.4-0.1,0.5-0.4l0.4-1c0.3-0.6,0.5-1.3,0.8-1.9c0.7-0.3,1.4-0.6,2.1-0.8
				l0.8-0.3c0.3-0.1,0.4-0.4,0.4-0.5c0-0.2-0.1-0.4-0.4-0.5c-2.1-1-4.2-1.9-6.3-2.9L170,423z M176.4,427c-0.7,0.3-1.5,0.6-2.3,0.9
				c-0.1,0-0.2,0.1-0.2,0.2c-0.3,0.7-0.6,1.4-0.8,2.1l-0.2,0.4l-3.1-6.8l1.1,0.5c1.9,0.9,3.8,1.7,5.7,2.6L176.4,427z"/>
			<path d="M172.9,432c-0.2,0-0.4-0.1-0.6-0.4l-3.7-8.1c-0.1-0.1-0.1-0.2-0.1-0.3c0-0.2,0.1-0.3,0.2-0.4c0.2-0.2,0.5-0.2,0.7-0.1
				c0.1,0,0.2,0.1,0.3,0.1c0.1,0,0.2,0.1,0.3,0.1l1.3,0.6c1,0.5,2.1,1,3.1,1.4c1.1,0.5,2.1,1,3.1,1.4c0.3,0.2,0.4,0.4,0.4,0.6
				c0,0.2-0.1,0.4-0.4,0.6l-1.5,0.6c-0.5,0.2-0.9,0.4-1.4,0.6c-0.1,0.3-0.2,0.6-0.4,0.9c-0.1,0.3-0.3,0.7-0.4,1l-0.4,1
				C173.4,431.9,173.1,432,172.9,432L172.9,432z M169.2,422.7c-0.1,0-0.3,0-0.4,0.1c-0.1,0.1-0.1,0.2-0.1,0.4c0,0.1,0,0.2,0.1,0.3
				l3.7,8.1c0.1,0.3,0.3,0.4,0.5,0.4h0c0.2,0,0.4-0.1,0.5-0.4l0.4-1c0.1-0.3,0.3-0.7,0.4-1c0.1-0.3,0.2-0.6,0.4-0.9l0,0l0,0
				c0.5-0.2,1-0.4,1.4-0.6l1.5-0.6c0.2-0.1,0.4-0.3,0.4-0.5c0-0.2-0.1-0.4-0.4-0.5c-1-0.5-2.1-1-3.1-1.4s-2.1-1-3.1-1.4L170,423
				c-0.1,0-0.2-0.1-0.3-0.1c-0.1,0-0.2-0.1-0.3-0.1C169.4,422.7,169.3,422.7,169.2,422.7z M172.9,430.8l-3.2-7l2.3,1.1
				c1.5,0.7,3,1.4,4.5,2.1l0.1,0l-0.3,0.1c-0.8,0.3-1.6,0.6-2.3,0.9c-0.1,0-0.2,0.1-0.2,0.2c-0.1,0.3-0.3,0.7-0.4,1
				c-0.1,0.3-0.3,0.7-0.4,1L172.9,430.8z M170,424l3,6.5l0.1-0.3c0.1-0.3,0.3-0.7,0.4-1c0.1-0.3,0.3-0.7,0.4-1
				c0-0.1,0.1-0.2,0.3-0.3c0.7-0.3,1.4-0.6,2.3-0.9l0.1,0c-1.5-0.7-3-1.3-4.4-2L170,424z"/>
		</g>
		<g>
			<path class="st0" d="M169.3,435.9c0.1,0,0.1,0,0.2,0c0.2,0,0.3-0.1,0.4-0.3c0.1-0.2,0-0.5-0.2-0.6c-3-1.4-4.9-4.4-4.9-7.7
				c-0.1-4.7,3.7-8.6,8.4-8.7l-0.6,0.6c-0.2,0.2-0.2,0.5,0,0.6c0.1,0.1,0.2,0.1,0.3,0.1c0.1,0,0.2,0,0.3-0.1l1.3-1.4
				c0.2-0.2,0.2-0.5,0-0.6l-1.4-1.3c-0.2-0.2-0.5-0.2-0.6,0c-0.2,0.2-0.2,0.5,0,0.6l0.6,0.6c-5.2,0.1-9.3,4.4-9.3,9.6
				c0,1.8,0.6,3.6,1.5,5.1C166.3,434,167.7,435.2,169.3,435.9z"/>
			<path d="M169.4,436c-0.1,0-0.1,0-0.2,0l0,0c-1.6-0.8-3-1.9-3.9-3.4c-1-1.5-1.5-3.3-1.6-5.1c-0.1-5.2,4-9.5,9.2-9.7l-0.5-0.5
				c-0.1-0.1-0.1-0.2-0.1-0.3c0-0.1,0-0.3,0.1-0.4c0.1-0.1,0.2-0.1,0.3-0.1c0,0,0,0,0,0c0.1,0,0.3,0,0.3,0.1l1.4,1.3
				c0.1,0.1,0.1,0.2,0.1,0.3c0,0.1,0,0.3-0.1,0.4l-1.3,1.4c-0.1,0.1-0.2,0.1-0.4,0.1c-0.1,0-0.3,0-0.3-0.1c-0.1-0.1-0.1-0.2-0.1-0.3
				c0-0.1,0-0.3,0.1-0.4l0.5-0.5c-4.6,0.2-8.3,4.1-8.2,8.7c0,3.3,1.9,6.2,4.9,7.7c0.2,0.1,0.3,0.4,0.2,0.7
				C169.8,435.9,169.6,436,169.4,436z M169.3,435.9c0.2,0.1,0.4,0,0.5-0.2c0.1-0.2,0-0.4-0.2-0.5c-3-1.4-4.9-4.4-5-7.8
				c-0.1-4.7,3.7-8.6,8.4-8.8l0.1,0l-0.7,0.7c-0.1,0.1-0.1,0.2-0.1,0.3c0,0.1,0,0.2,0.1,0.3c0.1,0.1,0.4,0.1,0.5,0l1.3-1.4
				c0.1-0.1,0.1-0.2,0.1-0.3c0-0.1,0-0.2-0.1-0.3l-1.4-1.3c-0.1-0.1-0.2-0.1-0.3-0.1c0,0,0,0,0,0c-0.1,0-0.2,0-0.3,0.1
				c-0.1,0.1-0.1,0.2-0.1,0.3c0,0.1,0,0.2,0.1,0.3l0.7,0.7l-0.1,0c-5.1,0.1-9.3,4.4-9.2,9.6c0,1.8,0.6,3.6,1.5,5.1
				C166.4,434,167.7,435.1,169.3,435.9z"/>
		</g>
		<g>
			<path class="st0" d="M173.6,438c0.1,0.1,0.2,0.1,0.3,0.1c0.1,0,0.2,0,0.3-0.1c0.2-0.2,0.2-0.5,0-0.6l-0.6-0.6
				c5.2-0.1,9.3-4.4,9.3-9.6c0-1.8-0.6-3.6-1.5-5.1c-1-1.5-2.3-2.6-3.9-3.4c-0.2-0.1-0.5,0-0.6,0.2c-0.1,0.2,0,0.5,0.2,0.6
				c3,1.4,4.9,4.4,4.9,7.7c0.1,4.7-3.7,8.6-8.4,8.7l0.6-0.6c0.2-0.2,0.2-0.5,0-0.6c-0.2-0.2-0.5-0.2-0.6,0l-1.3,1.4
				c-0.2,0.2-0.2,0.5,0,0.6L173.6,438z"/>
			<path d="M173.9,438.2c-0.1,0-0.3,0-0.3-0.1l-1.4-1.3c-0.1-0.1-0.1-0.2-0.1-0.3c0-0.1,0-0.3,0.1-0.4l1.3-1.4
				c0.1-0.1,0.2-0.1,0.3-0.1c0,0,0,0,0,0c0.1,0,0.3,0,0.3,0.1c0.1,0.1,0.1,0.2,0.1,0.3c0,0.1,0,0.3-0.1,0.4l-0.5,0.5
				c4.6-0.2,8.3-4.1,8.2-8.7c0-3.3-1.9-6.2-4.9-7.7c-0.2-0.1-0.3-0.4-0.2-0.7c0.1-0.2,0.4-0.3,0.7-0.2c1.6,0.8,3,1.9,3.9,3.4
				c1,1.5,1.5,3.3,1.6,5.1c0.1,5.2-4,9.5-9.2,9.7l0.5,0.5c0.1,0.1,0.1,0.2,0.1,0.3c0,0.1,0,0.3-0.1,0.4
				C174.1,438.2,174,438.2,173.9,438.2z M173.8,434.6C173.8,434.6,173.8,434.6,173.8,434.6c-0.1,0-0.2,0-0.3,0.1l-1.3,1.4
				c-0.1,0.1-0.1,0.2-0.1,0.3c0,0.1,0,0.2,0.1,0.3l1.4,1.3c0.1,0.1,0.2,0.1,0.3,0.1c0.1,0,0.2,0,0.3-0.1c0.1-0.1,0.1-0.2,0.1-0.3
				c0-0.1,0-0.2-0.1-0.3l-0.7-0.7l0.1,0c5.1-0.1,9.3-4.4,9.2-9.6c0-1.8-0.6-3.6-1.5-5.1c-1-1.5-2.3-2.6-3.9-3.4
				c-0.2-0.1-0.4,0-0.5,0.2c-0.1,0.2,0,0.4,0.2,0.5c3,1.4,4.9,4.4,5,7.8c0.1,4.7-3.7,8.6-8.4,8.8l-0.1,0l0.7-0.7
				c0.1-0.1,0.1-0.2,0.1-0.3c0-0.1,0-0.2-0.1-0.3C174,434.7,173.9,434.6,173.8,434.6z"/>
		</g>
	</g>
</g>
</svg>
