<svg fill="#817878" xmlns="http://www.w3.org/2000/svg" xmlns:xlink="http://www.w3.org/1999/xlink" x="0px" y="0px"
	 viewBox="100.1 402.8 26 36" style="enable-background:new 100.1 402.8 26 36;" xml:space="preserve">
<path d="M114,412.9c0.7,1.4,2.1,2.2,3.6,2.2c0.6,0,1.2-0.1,1.8-0.4c2-1,2.8-3.4,1.8-5.4c-0.3-0.6-0.7-1.1-1.2-1.5
	c0.6-0.9,1.5-1.7,2.4-2.3c0.4-0.3,0.5-0.8,0.3-1.2c-0.2-0.4-0.8-0.5-1.2-0.3c-1.3,0.8-2.3,1.8-3.1,3.1c-0.8-0.2-1.7,0-2.5,0.4
	c-1,0.5-1.7,1.3-2,2.3C113.4,410.8,113.5,411.9,114,412.9L114,412.9z M115.4,410.4c0.2-0.6,0.6-1,1.1-1.3c0,0,0,0,0,0
	c0.3-0.1,0.5-0.2,0.8-0.2c0,0.1-0.1,0.2-0.1,0.3c-0.2,0.5,0.1,1,0.5,1.1c0.5,0.2,0.9-0.1,1.1-0.5c0-0.1,0.1-0.2,0.1-0.3
	c0.2,0.2,0.4,0.4,0.5,0.7c0.5,1.1,0.1,2.5-1,3c-1.1,0.6-2.4,0.1-3-1C115.3,411.6,115.2,411,115.4,410.4L115.4,410.4z M120.7,422.4
	c0.1,0.5-0.3,0.9-0.7,1c-0.2,0-0.3,0-0.5,0.1c0,0,0,0-0.1,0c-0.5,0-0.8-0.4-0.9-0.8c0-0.5,0.3-0.9,0.8-0.9c0.1,0,0.2,0,0.4,0
	C120.2,421.6,120.6,421.9,120.7,422.4L120.7,422.4z M123.4,414c0.1,0.3,0.1,0.6,0.1,1c0,0,0,0,0,0c0,1.9-1,3.4-2.8,4.1
	c-0.8,0.3-1.9,0.5-2.9,0.5c-0.9,0-1.8-0.1-2.7-0.3c-2.1-0.5-4-1.5-5.2-2.9c-1.9-2.1-2.3-4.7-1.1-7.4c0.2-0.4,0.7-0.6,1.2-0.4
	c0.4,0.2,0.6,0.7,0.4,1.2c-0.9,2.1-0.7,3.9,0.8,5.4c1.6,1.6,4.3,2.7,6.6,2.7c0.8,0,1.6-0.1,2.3-0.4c1.2-0.5,1.7-1.3,1.7-2.5
	c0-0.2,0-0.4-0.1-0.7c-0.1-0.5,0.2-0.9,0.7-1C122.9,413.2,123.4,413.6,123.4,414L123.4,414z M124.1,418.7c-0.4-0.3-0.9-0.2-1.2,0.2
	c-0.3,0.4-0.2,0.9,0.2,1.2c0.8,0.5,1.3,1.4,1.3,2.4c0,1.6-1.3,2.9-2.8,2.9h-15.3c0,0,0,0,0,0c-2.4,0-4.4-2-4.4-4.4
	c0-1.3,0.5-2.5,1.5-3.3c0.4-0.3,0.4-0.9,0.1-1.2c-0.3-0.4-0.9-0.4-1.2-0.1c-1.3,1.2-2.1,2.9-2.1,4.6c0,2.5,1.5,4.7,3.7,5.7
	c0,0,0,0.1,0,0.1l4.7,7.5c0.2,0.3,0.4,0.4,0.7,0.4h3.5v2.5h-3.5c-0.5,0-0.9,0.4-0.9,0.9s0.4,0.9,0.9,0.9h4.4c0,0,0,0,0,0
	c0,0,0,0,0,0h4.4c0.5,0,0.9-0.4,0.9-0.9s-0.4-0.9-0.9-0.9h-3.5v-2.5h3.5c0.3,0,0.6-0.2,0.7-0.4l4.7-7.5c0,0,0-0.1,0-0.1
	c1.5-0.8,2.5-2.3,2.5-4.1C126.1,420.9,125.3,419.5,124.1,418.7L124.1,418.7z M117.6,432.8h-7.9l-3.6-5.7h15.1L117.6,432.8
	L117.6,432.8z M106.5,419.3c-1.9-2.1-2.9-4.8-2.9-7.5c0-2.3,0.8-4.4,2.3-6c1.6-1.7,4-2.8,7-3c0.3,0,0.5,0.1,0.7,0.3
	c0.2,0.2,0.3,0.5,0.2,0.7c-0.1,0.9-0.1,1.7,0.2,2.3c0.2,0.5,0,1-0.5,1.1c-0.4,0.2-0.9,0-1.1-0.5c-0.2-0.6-0.4-1.3-0.4-2.1
	c-4.9,0.8-6.6,4.2-6.7,7.1c0,4.3,3.3,9.1,9.6,9.7c0.5,0,0.8,0.5,0.8,1c0,0.5-0.4,0.8-0.9,0.8c0,0-0.1,0-0.1,0
	C110.5,422.9,107.9,420.9,106.5,419.3L106.5,419.3z M107,423.2c-0.1,0.3-0.5,0.5-0.8,0.5c-0.1,0-0.2,0-0.3-0.1
	c-1.2-0.5-2.1-1.5-2.5-2.8c-0.1-0.5,0.1-1,0.6-1.1c0.5-0.2,0.9,0.1,1.1,0.6c0.3,0.8,0.8,1.4,1.6,1.7
	C107,422.3,107.2,422.8,107,423.2z"/>
</svg>
