<?xml version="1.0" encoding="utf-8"?>
<!-- Generator: Adobe Illustrator 22.1.0, SVG Export Plug-In . SVG Version: 6.00 Build 0)  -->
<svg version="1.1" id="Layer_1" xmlns="http://www.w3.org/2000/svg" xmlns:xlink="http://www.w3.org/1999/xlink" x="0px" y="0px"
	 viewBox="0 0 251.9 59.5" style="enable-background:new 0 0 251.9 59.5;" xml:space="preserve">
<style type="text/css">
	.st0{fill:#9A237B;}
	.st1{fill:#A0C652;}
	.st2{fill:none;}
	.st3{fill:#FFFFFF;}
</style>
<path class="st0" d="M128.3,39.6c0.1-0.2,0.2-0.4,0.1-0.6c0,0-0.1-0.1-0.1-0.2c-0.2-0.6-0.7-1.2-1.5-1.8c-3.4-2.3-5.5-4.3-5.6-5.5
	c-0.1-1.3,1.6-3.2,4.5-5c3.1-1.9,2.2-4.6-1.6-4.9c-3.2-0.3-10,0.6-10,0.6s-2.6-2.1-4.8-4c-2-1.6-3.5-4.1-5.6-1.5
	c-1.1,1.3-0.2,8.1-0.2,8.5c0,0-0.6,1-0.6,1.1c0.1,1.5-2.8,2.7-4.8,2.9c-2.1,0.2-4.5,1.3-5,2.3c-0.5,1-0.4,1.4,0.9,2.4
	c0.9,0.6,2.2,0.9,4.6,0.8c2.9-0.1,3.8,0.1,5.6,1.3c1.8,1.2,2.2,1.7,2.3,3.3c0.2,6.6,0.9,7.9,3.6,7.6c1.3-0.1,1.7-1.1,1.5-3.3
	c-0.1-0.9,0.3-2,1.1-2.9c1.9-2.1,6.8-2.5,10.5-0.8C126.2,41.1,128,41,128.3,39.6z"/>
<g>
	<g>
		<g>
			<path class="st1" d="M160.6,50.6c-0.3-0.6-0.7-1.1-1-1.7c-0.9-1.6-1.6-3.2-2-5c-0.2-1.3-0.3-2.9,0.6-4c1.7-1.9,4.9-1.3,7-0.7
				c2.7,0.8,4.8,2.6,7.7,3c1.7,0.3,3.3-0.2,4.7-1.2c0.5-0.3,0.9-0.7,1.3-1.1c0.6-0.6,1.2-1.3,1.7-1.9c3-3.2,6-6.5,9.1-9.7
				c6.3-6.3,13.5-11.8,21.2-16.4c3.2-1.9,6.7-3.6,10.4-4.5c3.2-0.7,6.6-0.7,9.8-0.3c2.8,0.4,5.6,1.1,8.1,2.2c0,0,0,0,0.1,0
				c0.2,0.1,0.4,0.2,0.6,0.2c0.1,0,0.2,0.1,0.3,0.1c0,0,0,0-0.1,0c3.3,1.3,6.3,3.3,8.6,5.8c0.3,0.3,0.6,0.7,0.8,1.1
				c1.6,2.4,2.9,5.6,0.6,8.3c-1.2,1.4-2.9,2.3-4.5,3.1c-1.9,1.1-3.9,2.1-5.9,3c-4.4,1.9-9.1,3.4-13.6,5.1c-4.4,1.7-8.7,3.6-13.2,4.9
				c-1.2,0.3-2.3,0.6-3.5,0.9c-2.7,1.9-5.5,3.8-8.3,5.6c-3.9,2.5-7.9,4.7-12,6.8c-2,1-4,2-6.2,2.6c-1.3,0.4-3,0.7-3.8-0.4
				c-0.8-1.1-0.4-3-0.1-4.3c0-0.1,0.1-0.3,0.1-0.4c-1.8,1-4.1,1.5-6.1,2.1c-1,0.3-1.9,0.9-2.9,1.3c-0.4,0.5-0.7,1-1.1,1.5
				c-1.1,1.3-3,2.8-4.8,2.4c-1.6-0.4-2.4-2.1-2.9-3.4C160.7,54,160.5,52.3,160.6,50.6z M248.6,16.3c-0.7-0.9-1.5-1.7-2.3-2.4
				c-1.1-1.1-2.4-1.9-3.7-2.7c-1.5-0.8-3-1.4-4.6-2c0,0,0,0-0.1,0.1c-0.2,0.1-0.4,0.4-0.6,0.6c-0.2,0.2-0.5,0.4-0.7,0.7
				c-0.6,0.5-1.2,1-1.8,1.5c-1.1,1-2,2.2-2.9,3.3c-1,1.2-2.1,2.6-1.5,4.1c0.5,1.1,1.3,2.3,2.2,3.2c1,1,2.4,0.8,3.7,0.3
				c1.5-0.5,3-1.1,4.4-1.7c2.9-1.2,5.8-2.5,8.2-4.5C248.8,16.5,248.7,16.4,248.6,16.3z M164.3,58.3c0.8,0.3,1.8-0.3,2.5-0.7
				c0.5-0.3,0.9-0.7,1.3-1.2c1-0.7,1.5-1.7,2.2-2.6c0.5-0.6,0.9-1.2,1.4-1.9c0.1-0.1,0.1-0.2,0.2-0.2c0.2-0.3,0.5-0.6,0.7-1
				c0.1-0.1,0.1-0.2,0.2-0.2c0,0,0.1,0,0.1,0.1c-0.4,0.9-0.9,1.8-1.5,2.7c0.3-0.1,0.7-0.2,0.9-0.3c0,0,0,0,0,0
				c0.9-0.2,1.9-0.4,2.8-0.6c0.6-0.2,1.2-0.3,1.8-0.5c0.8-0.3,1.6-0.5,2.4-0.8c0,0,0.1,0,0.2,0c0,0,0,0,0,0c0.4-1.3,0.9-2.6,1.4-3.8
				c1.4-3.4,3-6.8,4.9-10c0.1-0.1,0.3,0,0.2,0.1c-1.9,3.8-3.8,7.6-5.1,11.6c-0.6,1.8-1.2,3.7-1.2,5.6c0,0.8,0.2,1.9,1.3,1.9
				c1.1,0,2.3-0.5,3.3-0.8c2.2-0.8,4.2-1.9,6.2-3c2.1-1.1,4.2-2.2,6.2-3.4c4.2-2.4,8.2-5.1,12.1-7.8c2.6-1.8,5.2-3.5,7.7-5.3
				c1.2-0.8,2.4-1.7,3.6-2.5c0.6-0.4,1.1-0.9,1.7-1.2c0.6-0.4,1.1-0.8,1.5-1.3c0,0,0.1,0,0.1,0c-0.5,0.7-1.2,1.1-1.8,1.7
				c-0.9,0.7-1.8,1.4-2.7,2.1c-1.9,1.4-3.8,2.9-5.7,4.2c-1,0.7-2,1.4-3,2.1c2-0.5,4.1-1,6-1.8c2.2-0.8,4.4-1.8,6.7-2.7
				c4.5-1.8,8.9-3.6,13.4-5.3c2.2-0.9,4.4-1.8,6.5-2.8c1.8-0.9,3.6-1.9,5.3-3c1.6-1.1,2.8-2.5,2.8-4.3c0-1.2-0.4-2.3-0.9-3.4
				c0,0,0,0,0,0c0,0,0-0.1,0-0.1c-0.1-0.2-0.2-0.4-0.4-0.6c-0.1-0.1-0.2-0.3-0.4-0.4c-2.2,2.6-5.9,3.9-9,5.2c-2.3,1-5.7,2.8-7.8,0.8
				c-1-0.9-1.7-2.3-2.3-3.5c-0.7-1.3,0-2.5,0.9-3.7c0.9-1.3,2-2.6,3.1-3.7c0.7-0.7,1.4-1.2,2.2-1.8c0.4-0.3,0.8-0.9,1.3-1.2
				c-3.5-1.2-7.3-1.8-11.2-1.7c-4.7,0.1-9,1.7-13.2,4c-4.1,2.2-7.9,4.9-11.6,7.7c-5.5,4.1-10.4,8.8-15.2,13.6
				c-2.2,2.2-4.4,4.4-6.6,6.7c-0.4,0.5-0.8,1.3-1.3,1.7c-0.2,0.2-0.2,0.7-0.4,0.8c0,0,0,0,0,0c-0.2,0.1-0.5,0.1-0.7,0.3
				c-0.3,0.2-0.7,0.2-1,0.2c-1.1,0.5-2.4,0.5-3.5,0.3c-3.3-0.5-5.7-2.8-8.9-3.5c-1.3-0.3-3-0.4-4.2,0.3c-1.6,0.9-1.5,2.9-1.3,4.3
				c0.3,1.9,1.2,3.6,2.2,5.3c0.1,0.1,0.2,0.3,0.2,0.4c0-0.3,0.1-0.5,0.1-0.8c0,0,0-0.1,0.1-0.1c0.3,1.1,0.4,2.2,0.5,3.2
				c0,0,0,0,0-0.1c0.1,0.9,0.2,1.8,0.5,2.8c0.2,0.9,0.7,1.8,1.2,2.7C163.3,57.6,163.7,58.1,164.3,58.3z"/>
			<g>
				<path class="st2" d="M160.6,50.6c-0.3-0.6-0.7-1.1-1-1.7c-0.9-1.6-1.6-3.2-2-5c-0.2-1.3-0.3-2.9,0.6-4c1.7-1.9,4.9-1.3,7-0.7
					c2.7,0.8,4.8,2.6,7.7,3c1.7,0.3,3.3-0.2,4.7-1.2c0.5-0.3,0.9-0.7,1.3-1.1c0.6-0.6,1.2-1.3,1.7-1.9c3-3.2,6-6.5,9.1-9.7
					c6.3-6.3,13.5-11.8,21.2-16.4c3.2-1.9,6.7-3.6,10.4-4.5c3.2-0.7,6.6-0.7,9.8-0.3c2.8,0.4,5.6,1.1,8.1,2.2c0,0,0,0,0.1,0
					c0.2,0.1,0.4,0.2,0.6,0.2c0.1,0,0.2,0.1,0.3,0.1c0,0,0,0-0.1,0c3.3,1.3,6.3,3.3,8.6,5.8c0.3,0.3,0.6,0.7,0.8,1.1
					c1.6,2.4,2.9,5.6,0.6,8.3c-1.2,1.4-2.9,2.3-4.5,3.1c-1.9,1.1-3.9,2.1-5.9,3c-4.4,1.9-9.1,3.4-13.6,5.1
					c-4.4,1.7-8.7,3.6-13.2,4.9c-1.2,0.3-2.3,0.6-3.5,0.9c-2.7,1.9-5.5,3.8-8.3,5.6c-3.9,2.5-7.9,4.7-12,6.8c-2,1-4,2-6.2,2.6
					c-1.3,0.4-3,0.7-3.8-0.4c-0.8-1.1-0.4-3-0.1-4.3c0-0.1,0.1-0.3,0.1-0.4c-1.8,1-4.1,1.5-6.1,2.1c-1,0.3-1.9,0.9-2.9,1.3
					c-0.4,0.5-0.7,1-1.1,1.5c-1.1,1.3-3,2.8-4.8,2.4c-1.6-0.4-2.4-2.1-2.9-3.4C160.7,54,160.5,52.3,160.6,50.6z M248.6,16.3
					c-0.7-0.9-1.5-1.7-2.3-2.4c-1.1-1.1-2.4-1.9-3.7-2.7c-1.5-0.8-3-1.4-4.6-2c0,0,0,0-0.1,0.1c-0.2,0.1-0.4,0.4-0.6,0.6
					c-0.2,0.2-0.5,0.4-0.7,0.7c-0.6,0.5-1.2,1-1.8,1.5c-1.1,1-2,2.2-2.9,3.3c-1,1.2-2.1,2.6-1.5,4.1c0.5,1.1,1.3,2.3,2.2,3.2
					c1,1,2.4,0.8,3.7,0.3c1.5-0.5,3-1.1,4.4-1.7c2.9-1.2,5.8-2.5,8.2-4.5C248.8,16.5,248.7,16.4,248.6,16.3z M164.3,58.3
					c0.8,0.3,1.8-0.3,2.5-0.7c0.5-0.3,0.9-0.7,1.3-1.2c1-0.7,1.5-1.7,2.2-2.6c0.5-0.6,0.9-1.2,1.4-1.9c0.1-0.1,0.1-0.2,0.2-0.2
					c0.2-0.3,0.5-0.6,0.7-1c0.1-0.1,0.1-0.2,0.2-0.2c0,0,0.1,0,0.1,0.1c-0.4,0.9-0.9,1.8-1.5,2.7c0.3-0.1,0.7-0.2,0.9-0.3
					c0,0,0,0,0,0c0.9-0.2,1.9-0.4,2.8-0.6c0.6-0.2,1.2-0.3,1.8-0.5c0.8-0.3,1.6-0.5,2.4-0.8c0,0,0.1,0,0.2,0c0,0,0,0,0,0
					c0.4-1.3,0.9-2.6,1.4-3.8c1.4-3.4,3-6.8,4.9-10c0.1-0.1,0.3,0,0.2,0.1c-1.9,3.8-3.8,7.6-5.1,11.6c-0.6,1.8-1.2,3.7-1.2,5.6
					c0,0.8,0.2,1.9,1.3,1.9c1.1,0,2.3-0.5,3.3-0.8c2.2-0.8,4.2-1.9,6.2-3c2.1-1.1,4.2-2.2,6.2-3.4c4.2-2.4,8.2-5.1,12.1-7.8
					c2.6-1.8,5.2-3.5,7.7-5.3c1.2-0.8,2.4-1.7,3.6-2.5c0.6-0.4,1.1-0.9,1.7-1.2c0.6-0.4,1.1-0.8,1.5-1.3c0,0,0.1,0,0.1,0
					c-0.5,0.7-1.2,1.1-1.8,1.7c-0.9,0.7-1.8,1.4-2.7,2.1c-1.9,1.4-3.8,2.9-5.7,4.2c-1,0.7-2,1.4-3,2.1c2-0.5,4.1-1,6-1.8
					c2.2-0.8,4.4-1.8,6.7-2.7c4.5-1.8,8.9-3.6,13.4-5.3c2.2-0.9,4.4-1.8,6.5-2.8c1.8-0.9,3.6-1.9,5.3-3c1.6-1.1,2.8-2.5,2.8-4.3
					c0-1.2-0.4-2.3-0.9-3.4c0,0,0,0,0,0c0,0,0-0.1,0-0.1c-0.1-0.2-0.2-0.4-0.4-0.6c-0.1-0.1-0.2-0.3-0.4-0.4c-2.2,2.6-5.9,3.9-9,5.2
					c-2.3,1-5.7,2.8-7.8,0.8c-1-0.9-1.7-2.3-2.3-3.5c-0.7-1.3,0-2.5,0.9-3.7c0.9-1.3,2-2.6,3.1-3.7c0.7-0.7,1.4-1.2,2.2-1.8
					c0.4-0.3,0.8-0.9,1.3-1.2c-3.5-1.2-7.3-1.8-11.2-1.7c-4.7,0.1-9,1.7-13.2,4c-4.1,2.2-7.9,4.9-11.6,7.7
					c-5.5,4.1-10.4,8.8-15.2,13.6c-2.2,2.2-4.4,4.4-6.6,6.7c-0.4,0.5-0.8,1.3-1.3,1.7c-0.2,0.2-0.2,0.7-0.4,0.8c0,0,0,0,0,0
					c-0.2,0.1-0.5,0.1-0.7,0.3c-0.3,0.2-0.7,0.2-1,0.2c-1.1,0.5-2.4,0.5-3.5,0.3c-3.3-0.5-5.7-2.8-8.9-3.5c-1.3-0.3-3-0.4-4.2,0.3
					c-1.6,0.9-1.5,2.9-1.3,4.3c0.3,1.9,1.2,3.6,2.2,5.3c0.1,0.1,0.2,0.3,0.2,0.4c0-0.3,0.1-0.5,0.1-0.8c0,0,0-0.1,0.1-0.1
					c0.3,1.1,0.4,2.2,0.5,3.2c0,0,0,0,0-0.1c0.1,0.9,0.2,1.8,0.5,2.8c0.2,0.9,0.7,1.8,1.2,2.7C163.3,57.6,163.7,58.1,164.3,58.3z"/>
				<g>
					<path class="st0" d="M193.7,51.5l1.2-0.6c-1.9,1.1-3.9,2.1-6,3.2c-2,1.1-4.2,2.1-6.4,2.7c2.5-0.7,4.9-1.8,7.2-3
						c2.3-1.2,4.7-2.5,6.9-3.7c4.5-2.6,8.5-5.4,11.6-7.7c0.4-0.2,2.6-1.6,4.7-3c2.1-1.4,4.2-2.8,4.2-2.9c1.6-1.2,3.3-2.4,4.9-3.6
						c-1.1,0.8-2.2,1.7-3.4,2.5c1.1-0.8,2.3-1.6,3.4-2.5c0.3-0.2,0.7-0.5,1-0.7c0.2-0.1,0.3-0.3,0.5-0.5l0.1-0.1l0-0.1l0,0
						c0.4,0.3-0.5-0.4-0.4-0.4l0,0l0,0c0,0,0,0,0,0c0,0,0,0,0,0c0,0,0,0,0,0l0,0c0.1,0.1-0.9-0.6-0.5-0.3l0,0l0,0l-0.1,0.1
						c-0.4,0.5-1,0.9-1.6,1.4c-1.2,0.9-2.4,1.9-3.7,2.9c-2.5,1.9-5.1,3.8-7.8,5.6l-2.3,1.6l2.8-0.7c1.8-0.4,3.6-0.9,5.4-1.5
						c1.8-0.7,3.5-1.4,5.3-2.1c3.5-1.4,7.1-2.8,10.7-4.2c1.3-0.5,3-1.2,4.9-1.9c1.9-0.7,4.1-1.6,6.3-2.7c1.1-0.6,2.2-1.1,3.4-1.8
						c1.1-0.7,2.3-1.3,3.3-2.2c1-0.9,1.9-2.3,2-3.8c0.1-1.5-0.4-2.8-1-3.9l-0.7-1.3l0.1,1.4c0,0.1,0,0.1-0.1,0.1l0.7-0.1
						c0-0.1,0-0.2-0.1-0.2l0-0.1l0-0.1c-0.1-0.2-0.2-0.4-0.3-0.6c-0.1-0.2-0.2-0.2-0.2-0.3c-0.1-0.1-0.1-0.2-0.2-0.3l-0.5-0.6
						l-0.6,0.6c-1.2,1.4-2.8,2.3-4.2,3c-1.4,0.7-2.8,1.2-3.9,1.7c-1.1,0.4-2.2,1-3.3,1.3c1.8-0.7,1.8-0.8,3.7-1.5
						c-1.2,0.5-2.3,1-3.4,1.5c-1.1,0.4-2.2,0.7-3.2,0.7c-0.5,0-0.9-0.2-1.3-0.4c-0.4-0.2-0.7-0.7-1.1-1.1c-0.3-0.4-0.6-0.9-0.9-1.3
						l-0.4-0.7c-0.1-0.3-0.3-0.5-0.3-0.6c0,0.1,0.1,0.2,0.1,0.4c0.1,0.1,0.1,0.3,0.2,0.4c0.2,0.3,0.4,0.8,0.8,1.5
						c-0.4-0.6-0.7-1.3-1.1-1.9c-0.2-0.4-0.4-0.9-0.2-1.5c0.2-0.6,0.7-1.3,1.2-2c1-1.4,2.1-2.7,2.9-3.5c-0.1,0.2,0.1,0,0.5-0.4
						c0.5-0.4,1.1-0.9,1.7-1.4c-0.2,0.2-0.3,0.3-0.5,0.4c0.2-0.2,0.5-0.4,0.8-0.7c0.2-0.2,0.3-0.4,0.6-0.5c0.3-0.2,0.7-0.4,1.1-0.6
						c-0.2-0.1-0.1-0.2-0.4-0.3l-0.8-0.2l-0.8-0.2l-0.6-0.2c-0.7-0.2-1.4-0.4-2-0.5c-1.4-0.3-2.8-0.5-4.2-0.6
						c-2.8-0.2-5.5-0.1-7.9,0.5c-0.7,0.2-1.2,0.3-1.6,0.4c-1.6,0.5-3.2,1.1-4.8,1.9c0.2-0.1-0.8,0.3-1.5,0.7c-0.7,0.4-1.2,0.6-0.1,0
						c-3.3,1.9-6.6,3.9-9.5,6.1c-5.3,3.7-10.3,8.1-15.2,12.8c-2.4,2.3-4.8,4.8-7.1,7.2l-1.8,1.8c-0.3,0.3-0.6,0.6-0.9,0.9l-0.7,1
						c-0.1,0.2-0.2,0.3-0.4,0.5c-0.2,0.2-0.2,0.5-0.3,0.6c0,0.2-0.2,0.2-0.3,0.2c-0.1,0-0.2,0.1-0.3,0.1c-0.1,0.1-0.2,0.1-0.3,0.2
						c-0.1,0.1-0.3,0.1-0.5,0.1c-0.1,0-0.2,0-0.4,0l-0.3,0.1c-0.4,0.1-0.8,0.2-1.2,0.3l0.3,0c-2.3,0.4-4.4-0.4-6.5-1.4
						c-2-1-4.3-2.3-7.2-2.2c-1,0.1-2.2,0.5-2.8,1.6c-0.5,1-0.4,2.3-0.2,3.3c0.4,2.1,1.4,3.7,1.8,4.4c0.2,0.3,0.3,0.6,0.5,0.8
						l0.1,0.2l0-0.2c0-0.1,0-0.3,0-0.4c0-0.1,0-0.1,0.1-0.1l0.2,0l0,0.1c0.3,1.2,0.4,2.2,0.5,3.3l0.1,0.8l-0.5-0.6l0-0.1l0.4-0.1
						c0.2,1.6,0.4,3.2,1.5,5c-0.2-0.6,0.2,0.5,0.9,1.1c0.2,0.1,0.3,0.2,0.5,0.3c0.2,0.1,0.3,0.1,0.4,0.2c0.2,0.1,0.1,0-0.4-0.2
						c-0.5-0.2-0.8-0.7-1.1-1.1c-0.2-0.4-0.4-0.7-0.6-1c-0.3-0.6-0.6-1.2-0.8-2.5l0,0.1c-0.1-0.6-0.2-1.2-0.2-1.8l-0.9,0.3l0.1,0.1
						l1,1.5l-0.2-1.8c-0.1-1.1-0.2-2.2-0.5-3.3l-0.1-0.5l-0.5,0.1c0,0,0,0,0,0.1l0,0.2l0,0.1c0,0,0,0,0-0.1l-0.2-0.3l-0.4-0.7
						c-0.1-0.3-0.3-0.6-0.4-0.8c-0.5-1.1-0.9-2.3-1-3.5c-0.1-1.2,0.1-2.4,0.9-2.9c0.9-0.6,2.2-0.6,3.3-0.4c2.4,0.3,4.5,1.9,7,2.9
						c1.2,0.5,2.6,0.9,4,0.9c0.7,0,1.4-0.1,2.1-0.3l0.3-0.1c0.1,0,0,0,0.1,0c0.1,0,0.3,0,0.5-0.1c0.1,0,0.2-0.1,0.4-0.1
						c0.1,0,0.1-0.1,0.2-0.1l0.1-0.1c0.1,0,0.2-0.1,0.3-0.1c0.2-0.1,0.4-0.1,0.6-0.3c0.2-0.2,0.2-0.4,0.3-0.6c0.1-0.3,0-0.1,0.3-0.4
						c0.4-0.5,0.6-0.9,0.9-1.3c0.1-0.1,0.1-0.2,0.2-0.3l0.3-0.3l0.5-0.6l1.1-1.1c1.5-1.5,3-3,4.5-4.5c3-3,6.2-6,9.3-8.8
						c3.4-3,7.2-5.9,10.9-8.5c3.8-2.6,7.6-4.9,11.1-6.3c1.7-0.7,3-1,4.5-1.3c2.2-0.5,4.7-0.6,7.3-0.3c1.3,0.1,2.6,0.3,3.9,0.6
						c0.6,0.1,1.3,0.3,1.9,0.5l0.5,0.1c0.1,0,0.3,0.1,0.1,0.1c-0.1,0.1-0.1,0.1-0.3,0.3c-0.2,0.2-0.5,0.5-0.8,0.7
						c-0.6,0.5-1.2,1-1.7,1.5c-1.1,1.1-2,2.3-2.9,3.4c0.1-0.1,0.2-0.2,0.2-0.3c-0.6,0.9-1.3,1.7-1.6,2.9c-0.1,0.6,0,1.2,0.2,1.7
						c0.2,0.5,0.4,0.9,0.7,1.3c0.5,0.8,1,1.7,1.8,2.4c0.4,0.4,0.9,0.7,1.5,0.9c0.6,0.2,1.2,0.2,1.7,0.2c0,0,0.7-0.1,1-0.2
						c0.1,0,0.7-0.1,1.5-0.4c0.9-0.3,2-0.8,3.2-1.3c1.3-0.5,2.8-1.1,4.3-1.9c1.5-0.8,3.1-1.8,4.3-3.2l-0.7,0
						c0.1,0.1,0.3,0.3,0.4,0.4l0.3,0.5l0-0.1c0,0,0,0,0,0l0,0.1c0,0.1,0.1,0.2,0.2,0.3l-0.2-0.2c0.6,1.1,0.9,2.2,0.9,3.2
						c0,1-0.5,1.9-1,2.5c-1.1,1.3-2.3,1.8-2.5,2c-0.4,0.2-0.7,0.5-1.1,0.7c-1.9,1.1-3.9,2.1-6,3c-2,0.9-4.1,1.6-6.2,2.4
						c-4.1,1.6-8,3.1-11.5,4.5c-1.5,0.7-3.2,1.4-4.5,1.9c-1.3,0.5-1.5,0.7-3,1.2c-2.2,0.6-3.9,1-4.6,1.2l0.4,1c0.4-0.3,0.5-0.4,0,0
						l-0.4-0.9c0.1,0,0.2,0,0.4-0.1l-0.4,0.1l0.4,0.8c2.7-1.9,5.3-3.8,7.7-5.6c1.1-0.8,2.2-1.7,3.3-2.6c0.9-0.8,1.5-1.1,2-1.5
						c0.1-0.2,0.3-0.3,0.4-0.5l0.1-0.1l0,0c0,0,0.1-0.2,0.1-0.4c-0.1-0.4-0.3-0.4-0.4-0.4c-0.1,0-0.2,0-0.4,0
						c-0.3,0.2-0.2,0.2-0.2,0.2l-0.1,0.1c-0.2,0.2-0.3,0.3-0.4,0.4c-0.3,0.2-0.5,0.4-0.7,0.5c-0.5,0.3-0.9,0.7-2.3,1.6
						c-0.7,0.4-6.6,4.7-7.3,5.2l0.4-0.3c-3.1,2.1-5.2,3.4-8.2,5.4c-2.1,1.4-4.3,2.8-6.5,4.1c-1.1,0.7-2.2,1.3-3.4,1.9
						c-1.1,0.6-2.3,1.2-3.4,1.9c-2.3,1.2-4.5,2.5-6.8,3.4c-1.2,0.4-2.3,0.9-3.4,0.9c-0.2,0-0.3,0-0.4-0.2c-0.1-0.1-0.2-0.3-0.2-0.5
						c-0.1-0.5-0.1-1.1,0-1.6c0,0-0.1,0.4-0.1,0.9c0,0.5,0.1,0.9,0.1,1c-0.2-0.5-0.2-1.2-0.1-1.8c0-0.7,0.2-1.3,0.3-2
						c0.3-1.3,0.8-2.6,1.3-3.9c1-2.6,2.1-5.1,3.4-7.6c0.5-0.9,1-2,1.2-2.4c0,0,0-0.1,0.1-0.1l0-0.1l0,0c0,0,0.1-0.2,0.1-0.4
						c0-0.3-0.2-0.5-0.3-0.6c-0.1-0.1-0.2-0.1-0.3-0.2c-0.2,0-0.4-0.1-0.7,0.1c-0.1,0.1-0.1,0.1-0.2,0.2l0,0l0,0l0,0.1
						c0,0.1-0.1,0.1-0.1,0.1c-0.1,0.2-0.1,0.3-0.2,0.4c-0.1,0.2-0.2,0.3-0.5,0.9l-0.1,0.1c-0.9,1.7-1.4,2.5-2.1,4.1
						c0,0.1-0.3,0.7-0.6,1.3c-0.1,0-0.8,1.8-0.8,1.7l0,0c-0.1,0.4-0.3,0.6-0.4,1.1c-0.1,0.2-0.3,0.8-0.6,1.7
						c-0.1,0.4-0.3,0.9-0.4,1.3c-0.1,0.2-0.1,0.5-0.2,0.7c0,0,0,0.1,0,0c-0.8,0.3-1.6,0.6-2.2,0.8c-0.6,0.2-1.1,0.3-1.2,0.4
						l-0.3,0.1c-1,0.2-1.4,0.4-0.8,0.2l-1.2,0.3l0.1,0l-0.3,0.1c-0.1,0-0.1,0-0.2,0c-0.1,0-0.1,0,0-0.1l-0.2,0.1
						c0-0.1,0.1-0.2,0.2-0.3c-0.1,0.1-0.2,0.3-0.3,0.4c0.1,0,0.2-0.1,0.3-0.1l0.2,0l0.6-0.1c0.8-0.1,1.6-0.3,2.4-0.5
						c-0.4,0.1-1,0.3-1.6,0.4c-0.5,0.1-1.1,0.2-1.5,0.3c-0.2,0-0.4,0.1-0.6,0.1c0.1-0.1,0.2-0.4,0.3-0.5l0.1-0.2l0.2-0.4l0.2-0.4
						l0.1-0.2l0,0c0,0,0,0.1,0.1-0.3c0-0.3-0.2-0.4-0.3-0.5c-0.1-0.1-0.2-0.1-0.2-0.1l-0.3-0.1l-0.2,0.2c-0.1,0.1-0.2,0.2-0.3,0.3
						c-0.2,0.4-0.3,0.6-0.9,1.3c-0.3,0.3-0.6,0.8-1,1.4c0.5-0.7,1-1.3,1.4-2c-0.1,0.1-1.2,1.6-1.6,2.2c-0.1,0.1-0.4,0.5-0.7,1
						c-0.3,0.5-0.7,1-1,1.3c0.1-0.2,0,0-0.2,0.2c-0.1,0-0.1,0.1-0.2,0.1l-0.2,0.1l-0.1,0.1c-0.1,0.1-0.3,0.3-0.4,0.3
						c-0.5,0.4-0.8,0.7-0.6,0.5c-0.1,0.1,0.4-0.3,0.9-0.7c0.1-0.1,0.2-0.2,0.3-0.3c0.1-0.1,0.2-0.1,0.2-0.2c0.1-0.1,0.1-0.1,0,0.1
						c0,0-0.1,0-0.1,0.1c-0.1,0-0.2,0.2-0.2,0.2c-0.1,0.1-0.3,0.3-0.4,0.4c-0.3,0.3-0.7,0.6-1,0.8c0,0,0.4-0.2,0,0
						c-0.6,0.4-1.4,0.7-1.7,0.6c0.1,0,0.3,0,0.5,0c-0.2,0,0,0,0.3-0.1c0.4-0.2,0.9-0.5,1.4-0.9c0.2-0.2,0.5-0.4,0.7-0.7
						c0.4-0.4,0.5-0.4,0.6-0.6c0.3-0.3,0.3-0.4,0.1-0.2c0.1-0.1-0.1,0.2-0.5,0.5c-0.1,0-0.2,0.2-0.2,0.2c0,0.1-0.1,0.1-0.1,0.2
						c-0.1,0.1-0.2,0.2-0.3,0.3c-0.2,0.2-0.5,0.4-0.8,0.6c-0.6,0.4-1.2,0.7-1.5,0.7c-0.2,0-0.3,0-0.3,0c-0.1,0-0.1,0,0,0
						c0.4,0.1-0.3,0,0.1,0.1c0.2,0,0.4,0,0.6-0.1c0.7-0.2,1.1-0.4,0.8-0.2c-0.7,0.3,0.3-0.1,1.1-0.8c0.2-0.2,0.4-0.4,0.5-0.5
						l0.1-0.1c0-0.1,0.1-0.1,0.2-0.2c0.1-0.1,0.1-0.1,0.2-0.2c0.2-0.2,0.3-0.3,0.1-0.1c0.1-0.1,0.2-0.2,0.3-0.3
						c-0.1,0.1-0.2,0.2-0.3,0.4c-0.1,0.1-0.2,0.1-0.2,0.2c0,0-0.2,0.1-0.2,0.2l-0.1,0.1c-0.3,0.4-0.7,0.7-0.9,0.8
						c0,0-0.6,0.5-1.1,0.7l-0.2,0.1c-0.3,0.1-0.6,0.2-0.7,0.1c-0.2,0-0.2,0-0.1,0c0.3,0.1,0.6,0,0.7-0.1c0.2,0,0.2-0.1,0.2-0.1
						c0,0-0.2,0.2-0.5,0.3c-0.3,0.1-0.5,0.1-0.6,0.1c0,0,0.2,0.2,1.1-0.1c-0.7,0.2-0.6,0.1-0.1,0c0.5-0.2,1.3-0.6,1.8-1.1
						c0.1,0,0.2-0.2,0.5-0.4c0.1-0.1,0.1-0.1,0.2-0.2c0.1-0.1,0.2-0.1,0.3-0.2c0.2-0.1,0.4-0.3,0.6-0.5c0.6-0.8,0.3-0.5,0.4-0.6
						c0.3-0.4,0.9-1.3,0.9-1.2c0.4-0.7,0.8-1,1.3-1.7c0.5-0.7,0,0,0.3-0.5c0.3-0.4,0.6-0.9,0.9-1.3l0,0l0,0c0,0,0.1,0,0.1,0.1
						c0,0.1,0,0.1,0,0.2l-0.1,0.2l-0.1,0.3c-0.1,0.2-0.2,0.4-0.3,0.6c-0.2,0.3-0.3,0.6-0.5,0.8c-0.1,0.1-0.2,0.2-0.3,0.4
						c0,0.1-0.1,0.1-0.1,0.2c0,0.1-0.1,0.2-0.1,0.1c0.1,0,0.1,0-0.1,0.1c0,0-0.1,0.1,0-0.1c0.5-0.9,0.5-0.7,0.4-0.6
						c-0.1,0.1-0.1,0.2,0.4-0.6c-0.2,0.3-0.1,0.1,0.1-0.3c0.1-0.2,0.2-0.4,0.4-0.7c0.1-0.1,0.1-0.2,0.2-0.3c0-0.1,0-0.1,0.1-0.2
						c0-0.1,0,0,0,0l0,0c-0.1,0.1-0.1,0.1-0.1,0.2c0,0,0.1-0.1,0.2-0.2l-0.1,0c-0.1,0.3-0.8,1.5-1.3,2.4l0.1-0.2
						c-0.1,0.1-0.1,0.2-0.2,0.3c0,0.1-0.1,0.1-0.1,0.2l-0.1,0.1c0,0,0,0.1,0,0c0.5-0.2,1.1-0.4,1.7-0.5c0.5-0.1,1-0.2,1.4-0.3
						c-0.2,0.1,0.2,0-0.5,0.2l1.2-0.3c0.2,0,0.3-0.1,0,0c0.6-0.2,1.2-0.3,1.6-0.4c0.1,0,1.2-0.4,2.4-0.8c0.1,0,0.1,0,0.2,0l0.1,0
						c0,0,0-0.1,0-0.1c0-0.1,0.1-0.2,0.1-0.4c0.1-0.2,0.2-0.5,0.2-0.7c0.2-0.4,0.3-0.9,0.4-1.2c0.3-0.7,0.4-1.1,0.4-1.2
						c0.3-0.9,0.5-1,0.8-1.9c0,0-0.1,0.2-0.2,0.6c-0.1,0.4-0.4,0.9-0.5,1.4c-0.2,0.6-0.4,1.2-0.6,1.9c-0.1,0.3-0.2,0.6-0.3,0.9
						c-0.1,0.3-0.1,0.8-0.5,0.7c-1.1,0.4-1.8,0.6-1.4,0.5c0.2-0.1,0.7-0.2,1.5-0.5c0.1,0,0.2,0,0.3,0c0-0.1,0.1-0.2,0.1-0.3
						c0.1-0.2,0.1-0.4,0.2-0.6c0.1-0.4,0.3-0.9,0.5-1.3c0.3-0.9,0.7-1.9,1-2.8c0.7-1.8,1.4-3.3,1.5-3.5c0.3-0.6,0.7-1.4,0.6-1.2
						c0.5-1-0.1,0.3,0.3-0.4c0,0,0,0.1,0.1-0.2l0.4-0.7c0.4-0.8,0.9-1.8,1.5-2.7l0.1-0.1c0,0,0,0,0,0c0,0,0,0,0,0c0,0,0,0,0.1,0
						c-0.1,0-0.1,0.2-0.2,0.3c-0.1,0.2-0.2,0.5-0.4,0.7c-0.2,0.5-0.4,0.9-0.6,1.4c0.2-0.5,0.4-1.1,0.9-2.2l0.1-0.2c0,0,0-0.1,0-0.1
						l0,0l0.1,0c0,0,0,0,0,0c0,0-0.1,0-0.1,0.1c0,0,0,0,0,0c0,0,0-0.1,0-0.1l0.1,0l0,0l0,0l0,0l0,0.1c-0.1,0.2-0.2,0.4-0.2,0.4
						c0.1-0.1,0.1-0.2,0.2-0.4l0.1-0.2l0,0l-0.1-0.1l0,0l0,0c0,0,0,0.1,0,0.1c0,0,0-0.1,0.1-0.1c0,0,0,0,0,0l-0.1-0.1l0,0l0,0
						l-0.1,0.2l-0.2,0.4c-0.2,0.5-0.5,1-0.7,1.5c-0.1,0.2-0.2,0.4-0.3,0.6c0,0,0,0,0,0c-0.2,0.3-0.2,0.3-0.1,0.2c0,0,0,0,0-0.1
						c-0.4,0.6-1.9,4.1-2.7,6c-0.2,0.6,0,0.1-0.3,0.8c-0.4,1-0.7,1.8-1,2.7c-0.3,0.9-0.6,1.8-0.8,2.9c-0.1,0.7-0.1,0.8,0.1-0.1
						c-0.1,0.6-0.2,1.1-0.2,1.7c0-0.8-0.1,0-0.1,0.8c0,0.8,0.4,1.7,0,0.7c0.1,0.3,0.2,0.8,0.7,1.1c0.3,0.2,0.6,0.2,0.9,0.2
						c0.3,0,0.5,0,0.8-0.1c0.1-0.1,0.3-0.1,1.4-0.4c1.6-0.5,1.2-0.4,2.5-0.9c0.3-0.1-0.1,0.1-0.1,0.1c1.9-0.9,1.7-0.7,3.5-1.6
						c1.1-0.6,3.3-1.8,3.3-1.9C193.8,51.3,193.8,51.3,193.7,51.5z"/>
				</g>
				<g>
					<path class="st0" d="M240,9.4l-0.2-0.1c0.6,0.3,1.2,0.6,1.8,0.9c-0.5-0.3-1.1-0.7-1.6-0.9c-0.3-0.1-0.6-0.3-0.9-0.4
						c-0.1-0.1-0.3-0.1-0.4-0.1c-0.2,0-0.4-0.1-0.6-0.2c-0.2,0.1-0.3,0.1-0.4,0.2c0,0-0.1-0.1-0.1-0.1c0,0-0.1,0-0.1,0
						c0,0-0.1,0.1-0.1,0.1c-0.1,0.1-0.1,0.2-0.2,0.3c-0.1,0-0.3,0.2-0.3,0.2c-0.1,0-0.3,0.2-0.4,0.2C236.2,9.8,236,10,236,10
						c-0.2,0.2-0.4,0.4-0.6,0.7c0.1-0.1,0.3-0.3,0.5-0.4c-0.2,0.2-0.3,0.3-0.5,0.4c-0.4,0.4-0.8,0.7-1.1,1c-0.4,0.4-0.7,0.8-1.1,1.1
						c-0.7,0.8-1.4,1.6-2.1,2.4c-0.4,0.5-1.3,1.3-1.5,2.8c-0.1,0.4,0,0.7,0.1,1.1c0,0.2,0.1,0.3,0.2,0.5c0.1,0.1,0.1,0.2,0.2,0.4
						c0.2,0.5,0.4,0.9,0.6,1.2c0.1,0.2,0.2,0.3,0.3,0.5c-0.2-0.3-0.2-0.3-0.3-0.5c0.5,0.6,0.9,1.2,1.4,1.7c-0.1-0.1-0.1-0.1-0.2-0.4
						l0.2,0.3c0.1,0.1,0.3,0.3,0.6,0.5c0.2,0.2,0.5,0.3,0.7,0.4c-0.1,0,0.2,0.1,0.5,0.2l-0.1-0.1c1,0.2,2.1-0.1,2.8-0.3
						c0.1,0,0.2-0.1,0.2-0.1l0.7-0.3c0,0.1,0.6-0.2,0.3,0c0.5-0.3,1-0.4,1.5-0.7c1.8-0.7,3.6-1.5,5.4-2.5l-0.1,0
						c0.6-0.3,1.1-0.7,1.8-1.1c0.5-0.4,1.2-0.9,1.3-1.1c0.5-0.4,0.7-0.6,1.1-1l0,0.4c0,0-0.1-0.1-0.1-0.1c0.1,0.2-0.5-0.5-0.3-0.2
						c0.1,0.2,0.2,0.3,0.3,0.4l0-0.6c-0.1,0.1-0.1,0.1-0.3,0.2l0,0c-1.4,1-2.9,1.8-4.6,2.6c-1,0.6-2.3,1-3.4,1.5
						c-1.2,0.5-2.6,1.1-3.6,1.5c-0.2,0.1-0.4,0.1-0.7,0.2c-0.9,0.3-2.2,0.6-3,0c0,0,0,0,0,0c-0.4-0.3-0.7-0.8-1-1.2
						c0,0-0.1-0.1-0.1-0.1c0-0.1-0.5-0.8-1-1.5c-0.2-0.4-0.4-0.7-0.4-1c0-0.3,0-0.5,0-0.6c0-0.1,0-0.1,0-0.2c0.4-1.1,1.5-2,2.2-2.9
						c0.1-0.2,0.3-0.5,0.4-0.6c0.2-0.1,0.1-0.2,0.3-0.4c0.5-0.3,0.7-0.6,0.4-0.5c0.3-0.4,0.7-0.7,1-1c0.1-0.1,0.3-0.3,0.4-0.4
						c0.1-0.1,0.2-0.2,0.3-0.2c0.3-0.3,0.3-0.2,0.6-0.5c0.1,0,0.3-0.2,0.5-0.4c0.2-0.2,0.4-0.5,0.5-0.5l-0.1,0.1
						c0.2-0.2,0.4-0.3,0.5-0.5c0.1-0.1,0.1-0.1,0.2-0.1c0,0,0,0,0,0l0,0c0.6,0.3,1.3,0.5,1.9,0.8c0.7,0.3,1.3,0.6,1.9,0.9
						c0,0-0.3-0.1-0.3-0.2c0.7,0.3,1.3,0.8,2,1.3c0.1,0.1,0.2,0.2,0.3,0.3c0.2,0.2,0.1,0.1,0.3,0.2l0,0.1c0.2,0.1,0.3,0.3,0.5,0.4
						c0,0,0.1,0,0.2,0.1c0,0,0.2,0.2,0.2,0.2l0,0c0,0,0.1,0.1,0.1,0.1c0.1,0,0.9,0.6,1,0.7l0,0c0.1,0.1,0.2,0.1,0.1,0.1l0.1,0.1l0,0
						l0.1,0.1c0,0,0,0.1,0,0.1c0.1,0.1,0.2,0.1,0.2,0.2c-0.2-0.2-0.4-0.5-0.5-0.8c0.1,0.1,0.2,0.3,0.3,0.4c0.1,0.1,0.3,0.4,0.4,0.6
						c0,0,0.1,0,0.2,0.1c0,0.1,0.1,0.1,0.1,0.2c-0.1-0.1-0.2-0.2-0.3-0.3c0,0.1,0.2,0.2,0.2,0.3c0,0,0.2,0.2,0.3,0.3
						c-0.1,0,0.1,0.1,0.1,0.2c0.1,0.1,0.1,0.1,0.1,0.1c0.1,0-0.3-0.3-0.1-0.2c0,0,0.1,0.2,0.2,0.3c0,0,0-0.1,0,0
						c0.1,0.1,0.2,0.2,0.2,0.2c0,0-0.1,0-0.1-0.1c0.1,0.1-0.7-0.5-0.6-0.3c0-0.1,0.7,0.5,0.7,0.4c-0.1-0.1,0.1,0,0-0.1l-0.1-0.1
						c-0.1-0.1-0.1-0.2,0-0.2c0.2,0.2-0.6-0.3-0.4-0.2l0-0.1c0.1,0,0.2,0.2,0.3,0.3c0,0,0.1,0.1,0.2,0.1l0,0
						c0.1,0.1,0.2,0.2,0.2,0.1c-0.4-0.4,0.5,0.1,0.1-0.3c0.1,0.2-0.1,0-0.3-0.2c0,0,0-0.1-0.1-0.3c-0.1-0.1-0.1,0-0.1-0.1
						c0-0.1-0.1-0.2-0.1-0.2c-0.1-0.1-0.1-0.2-0.2-0.2c-0.1-0.1,0,0-0.1,0c-0.1-0.1-0.3-0.3-0.4-0.4c0-0.1-0.1-0.2,0-0.2
						c0.2,0.2-0.1,0,0.1,0.2c0-0.1,0.2,0.2,0.3,0.2c0-0.1-0.2-0.2-0.3-0.3l0,0c-0.1-0.1-0.3-0.3-0.4-0.4c0,0,0-0.1,0.1,0l-0.1-0.1
						c0,0,0,0,0,0c-0.1,0-0.1-0.1-0.2-0.2c0,0-0.8-0.6-0.8-0.6c-0.1-0.1-0.1-0.1-0.2-0.2c0,0,0.3,0.2,0.5,0.4
						c0.2,0.2,0.5,0.4,0.4,0.3c0-0.1-1.2-0.9-1.3-1c-0.1-0.1-0.2-0.1-0.2-0.1c-0.1-0.1,0.1,0,0-0.1c0,0,0,0,0,0l-0.1-0.1
						c-0.2-0.1-0.5-0.4-0.8-0.5c0.1,0,0.2,0,0.4,0.1l0,0c0,0,0.2,0.1,0.2,0.1c-0.1-0.1-0.3-0.2-0.4-0.3l-0.1-0.1l0,0c0,0,0,0,0,0
						l0,0c0-0.1-0.6-0.3-0.8-0.5c-0.1,0,0,0-0.1,0c-0.3-0.2-0.4-0.3-0.7-0.5c-0.1,0-0.1,0,0,0.1l-0.2-0.1c0.2,0-0.4-0.3-0.1-0.3
						c-0.1-0.1-0.2-0.1-0.3-0.2c0,0-0.1,0-0.2,0c-0.2-0.1-0.1-0.1-0.3-0.2c0,0,0,0,0-0.1c-0.3-0.1-0.2-0.2-0.5-0.3
						c-0.2-0.1-0.5-0.2-0.5-0.2C240,9.5,240,9.4,240,9.4z"/>
				</g>
				<g>
					<path class="st0" d="M192.9,25.9l0.7-0.7c-1.2,1.1-2.4,2.2-3.6,3.4c-1.1,1.2-2.3,2.4-3.4,3.6c4.9-5.3,11.5-10.6,15.8-14.2
						c0.3-0.1,1.9-1.1,3.4-2.1c1.5-1,3.1-1.9,3.1-2c1.2-0.8,2.4-1.6,3.7-2.3c-0.9,0.5-1.7,1-2.6,1.6c0.9-0.5,1.7-1.1,2.6-1.6
						c3.7-2.2,8-4,12.6-4.2c4.6-0.2,9.4,0.6,13.8,2.4l-0.3-0.3c0.1,0.1,0.2,0.2,0.3,0.3l0.1,0l0,0l0,0l0.1,0l0.2,0.1l0.5,0.2
						l0.5-1.1l0,0l-0.6,1.1c0.4,0.2,0.7,0.3,1.1,0.5c1.3,0.6,3.1,1.6,5,3.1c0.5,0.4,0.9,0.8,1.4,1.2c0.2,0.2,0.5,0.4,0.7,0.7
						c0.1,0.1,0.3,0.3,0.3,0.3l0.3,0.4c0.8,1,1.5,2.1,1.9,3.3c0.4,1.2,0.5,2.5,0,3.5c-0.4,1-1.3,1.9-2.3,2.5
						c-0.9,0.7-1.9,1.2-2.8,1.7c-0.9,0.5-1.7,0.9-2.4,1.2c-0.8,0.4-1.5,0.8-2.3,1.1c1.3-0.6,1.3-0.6,2.6-1.2c-3.2,1.8-6.3,3-9.3,4.1
						c0.5-0.2,0.6-0.2,1.9-0.6l-1.5,0.6c-1.4,0.6-4.6,1.8-6.1,2.4c0.3-0.2-0.9,0.3-2,0.7l0.4-0.1c-4,1.5-8.6,3.5-12.2,4.7
						c-0.5,0.2-0.9,0.3-1.1,0.3c-1.2,0.3-2.4,0.6-3.5,0.9c0,0,0,0,0,0c-0.1,0-0.1,0-0.3,0.1c-0.1,0-0.2,0.1-0.3,0.1
						c-0.1,0-0.1,0.1-0.2,0.1c-0.1,0.1-0.3,0.2-0.4,0.2c-0.5,0.3-0.8,0.5-0.1,0c-2.2,1.6-4.6,3.1-6.7,4.6c-3.9,2.6-8.1,4.9-12.4,7.2
						c-2.1,1.2-4.3,2.2-6.6,2.9c-0.6,0.2-1.2,0.3-1.7,0.3c-0.6,0-1.1-0.2-1.4-0.5c-0.3-0.4-0.5-1-0.5-1.5c0-0.3,0-0.6,0-0.9l0.1-0.4
						l0-0.2l0.1-0.3l-0.1,0.3c0.1-0.7,0.3-1.4,0.4-2c-1.7,1-2.9,1.3-4.3,1.7c-0.7,0.2-1.4,0.4-2.1,0.7c-0.8,0.2-1.5,0.7-2.2,1
						c-0.2,0.1-0.3,0.2-0.5,0.2c-0.2,0-0.3,0.3-0.4,0.4c-0.2,0.3-0.5,0.6-0.7,1c-0.5,0.7-1.1,1.3-1.7,1.7c-0.6,0.5-1.3,0.8-1.9,1
						c-0.6,0.2-1.1,0.1-1.4,0.1c-0.9-0.2-1.5-0.8-1.9-1.3c-0.4-0.5-0.7-1.1-0.9-1.6c-0.5-1.1-0.9-2.2-1.1-3.9c0,0.4-0.1-0.4-0.1-1.1
						c0-0.7,0-1.3,0-0.5c-0.1,1.1,0,1.7,0,2.3c0.1,0.6,0.1,1.1,0.4,2l0-0.1c0.3,1,0.6,1.8,1.2,2.7c0.5,0.8,1.3,1.7,2.5,1.9
						c1.1,0.2,2.2-0.1,3.1-0.7c0.9-0.5,1.6-1.2,2.3-2l0.9-1.1c0.2-0.2,0-0.1,0.3-0.2l0.7-0.3c0.4-0.2,0.8-0.4,1.3-0.6
						c0.4-0.2,0.8-0.3,1.3-0.4c0.9-0.3,1.8-0.5,2.7-0.8l0.7-0.2l0.6-0.2c0.1-0.1,0.2-0.1,0.3-0.1c0,0,0,0.1,0,0.2l0,0.1l0,0.3
						c-0.1,0.6-0.2,1.3,0,2c0.1,0.4,0.2,0.9,0.5,1.3c0.3,0.4,0.7,0.8,1.2,0.9c0.9,0.3,1.8,0.2,2.6,0c1.6-0.4,3-1,4.5-1.6
						c1.4-0.7,2.8-1.4,4.2-2.1c1.4-0.7,2.8-1.5,4.1-2.2c2.9-1.6,5.9-3.4,8.6-5.4c1.4-0.9,2.7-1.9,4-2.8c0.6-0.4,1.3-0.9,1.9-1.3
						c0,0,0.2-0.1,0.4-0.1l0.5-0.1c0.4-0.1,0.7-0.2,1.1-0.3c1.3-0.3,2.3-0.6,3.4-0.9c5-1.6,11.1-4.4,16.6-6.3
						c-0.1,0-0.2,0.1-0.3,0.1c2.9-1.1,5.2-1.8,8-3c0,0,0.4-0.2,0.6-0.3c0.3-0.1,4.4-2,8.3-4.4c1-0.7,1.9-1.4,2.6-2.4
						c0.6-1,0.9-2.1,0.8-3.1c0-1-0.3-1.8-0.5-2.3c-0.2-0.6-0.4-0.9-0.5-1.1c-0.1-0.3-0.3-0.6-0.5-0.9c-0.3-0.5-0.6-0.9-0.9-1.4
						c-0.2-0.2-0.3-0.4-0.5-0.7c-0.2-0.2-0.4-0.4-0.6-0.6c-0.8-0.8-1.6-1.5-2.5-2.1c-1.7-1.3-3.6-2.4-5.5-3.2l-0.5,1l0.1,0.1l0.4-1
						L240,8.9l-0.2-0.1l-0.1-0.1l0,0l0,0l0,0l0,0l-0.1,0.4l0,0l0,0l0,0l0,0c0,0,0,0-0.1,0.1l0.2-0.5c-1.6-0.7-3.2-1.2-4.7-1.6
						c-1.2-0.3-2.6-0.5-3.6-0.6c-1-0.2-1.2-0.1-2.4-0.2c-3-0.3-4.8,0-3.3-0.1c-2.5,0.1-5,0.6-7.1,1.4c-1,0.3-1.9,0.7-2.9,1.2
						c-0.8,0.4-1.2,0.6-1.7,0.7c-2,1.1-1.4,0.7-3.5,1.9c-0.3,0.1-1.5,0.9-2.7,1.7c-1.2,0.8-2.5,1.7-2.7,1.9l0.3-0.2
						c-2.2,1.5-3.8,2.5-5.9,4.1c-2.9,2.2-5.9,4.7-8.6,7.4c-1.4,1.3-2.6,2.7-3.9,4c-1.3,1.3-2.5,2.6-3.6,3.9c0,0.1,1-1.1,1.1-1.1
						c-1.4,1.4-2.8,2.9-4.2,4.4c-1.4,1.5-2.7,3.1-4.4,3.7c-0.6,0.3-1.4,0.4-1.7,0.3c-0.6,0-0.7,0-0.9,0c-0.1,0-0.2,0-0.6-0.1
						l-0.1-0.1c-1.3-0.3-1.8-0.6-2.9-1.1c-0.1,0-0.5-0.2-0.9-0.4c0-0.1-1.3-0.6-1.2-0.6l0,0c-0.3-0.1-0.4-0.2-0.8-0.3
						c-0.3-0.1-1.6-0.6-3.1-0.8c-0.7-0.1-1.5-0.1-2-0.1c-0.6,0-1,0.1-1.2,0.2l-0.3,0c-0.8,0.2-1.1,0.5-0.7,0.3
						c-0.3,0.1-0.6,0.3-0.9,0.5l0.1-0.1c-0.3,0.2-0.6,0.4-0.8,0.7c-0.1,0.2-0.3,0.3-0.1,0.1c-0.4,0.5-0.6,1.2-0.7,1.7
						c0.1-0.8,0.6-1.7,1.4-2.3c0.8-0.6,1.7-0.8,2.5-0.9c-0.3,0-0.8,0.1-1.2,0.3c-0.5,0.2-0.9,0.4-1.2,0.7c-0.4,0.3-0.9,0.8-1.2,1.5
						c-0.3,0.7-0.3,1.5-0.3,2.2c0,0.3,0.1,0.5,0.2,1.2c0,0.3,0.2,0.7,0.3,1.3c-0.2-0.6-0.3-1.2-0.4-1.9c-0.1,0.1,0.3,1.6,0.4,2
						c0.1,0.2,0.5,1.4,0.8,2.1c-0.2-0.3,0.2,0.6,0.4,1c0.2,0.5,0.4,0.7,0.3,0.5c0.1,0.1-0.9-1.8-0.5-1.2c0.1,0.2,0.5,1.1,0.8,1.5
						c0,0-0.2-0.3,0,0c0.3,0.5,0.6,1.1,0.8,1.4c-0.1-0.1-0.2-0.3-0.3-0.5c0.2,0.3-0.4-0.5-0.9-1.4c-0.5-0.9-1-1.8-0.8-1.3
						c0-0.1,0.5,0.9,1,1.8c0.6,0.9,1.1,1.8,1,1.6c-0.2-0.4,0.2,0.3,0-0.2l-0.3-0.5c-0.3-0.6-0.4-0.9-0.3-0.7
						c0.3,0.5-0.2-0.2-0.6-0.9c-0.4-0.7-0.8-1.5-0.6-1l-0.2-0.4c0.2,0.4,0.6,1.3,0.9,1.7c0,0,0.3,0.5,0.5,0.9l0.1,0.1
						c0.2,0.4,0.6,1,0.4,0.7c-1.4-2.4,1.2,1.4-0.1-0.9c0.5,1-0.3-0.3-0.8-1.3c0-0.1-0.3-0.6-0.6-1.4c-0.3-0.7-0.2-0.4-0.3-0.5
						c-0.1-0.4-0.4-1.1-0.3-1c-0.2-0.5-0.3-0.9-0.4-1.5c-0.1-0.6,0,0-0.1-0.4c-0.2-0.9-0.2-2.2,0.1-2.9c0.1-0.3,0.6-1,0.3-0.4
						c-0.5,1.2,0.1-0.5-0.4,0.8c0.1-0.3,0,0,0,0.4c-0.1,0.4,0,0.9,0,1.1c0-0.4,0-1.4,0.3-2l-0.1,0.1c0.1-0.3,0.3-0.8,0.7-1.1
						c0.4-0.4,0.8-0.6,1.1-0.7c-0.1,0.1,0.1,0-0.3,0.2c0.3-0.1,0.5-0.2,0.8-0.3c0.1,0,0.2-0.1,0,0c0.4-0.1,0.8-0.2,1.2-0.2
						c0,0,0.3,0,0.8,0c0.5,0,1.1,0.1,1.6,0.2c1.2,0.2,2.3,0.6,2.2,0.6c0.6,0.2,0.8,0.3,1.4,0.6c0,0-0.1,0-0.2-0.1
						c-0.2-0.1-0.4-0.2-0.6-0.3c-0.5-0.2-1.3-0.5-2-0.6c-1.5-0.4-2.8-0.3-2.4-0.3c0.3,0,2.2,0.1,3.9,0.8c1.7,0.7,3.4,1.5,3.6,1.6
						c0.4,0.2,1,0.4,0.9,0.4c0.8,0.3-0.3,0,0.3,0.2c0,0,0,0,0.1,0c0.2,0.1,0.4,0.2,0.5,0.2c0.6,0.2,1.4,0.4,2.2,0.4
						c0.8,0,1.6-0.2,2.3-0.4c-0.4,0.2-0.8,0.4-1.7,0.5l-0.2,0c-0.1,0-0.9,0-0.9,0c0.9,0.1,1.6,0,2.5-0.3c0.2,0,0.3-0.1,0.5-0.1
						c0,0,0,0,0,0c0.3-0.1,0.2-0.1,0.2,0c0,0,0,0-0.1,0c0.3-0.1,1.1-0.4,1.8-1.1c0.4-0.3,0.8-0.6,1.1-1c0.3-0.4,0.6-0.7,0.9-1
						c0.3-0.3,0.1-0.1,0.4-0.5c1.1-1.1,1.8-1.9,3-3c0.3-0.4,0.3-0.4-0.1,0l0.8-0.9c-0.7,0.9,1.6-1.6,0.9-0.6
						c0.3-0.2,0.8-0.8,1.2-1.3c0-0.1,0.1-0.2,0.7-0.8c0.8-0.8,0.6-0.6,1.3-1.4c0.2-0.1-0.1,0.1,0,0.1c1-1.1,1-0.9,2-2
						c0.6-0.6,1.9-1.9,1.9-1.9C193,25.7,193,25.8,192.9,25.9z"/>
				</g>
			</g>
		</g>
		<g>
			<path class="st1" d="M204.8,30.5c0.9-0.3,1.9-0.6,2.9-0.9c0.4,0,0.7-0.1,1.1-0.2c0.2-0.1,0.3-0.2,0.5-0.3c1.1-0.3,2.3-0.7,3.5-1
				c2.4-0.6,4.9-1,7.3-0.7c1.4,0.2,3.6,0.8,3.8,2.3c0,0.1-0.1,0-0.1,0c-0.3-0.8-1.4-1.2-2.2-1.5c-0.9-0.3-1.9-0.4-2.9-0.4
				c-2.3,0-4.6,0.5-6.9,1c-2.5,0.6-4.9,1.4-7.4,2.2c-1,0.3-2,0.7-2.9,1c0.4-0.2,0.7-0.4,1-0.7C203.2,31,204,30.8,204.8,30.5z"/>
			<g>
				<g>
					<path class="st0" d="M215.2,28.2l0.2,0c-0.6,0.1-1.3,0.2-1.9,0.3c1.4-0.1,3.1-0.2,4.1-0.6c0.1,0.2,1.5,0.3,1.5,0.3
						c0.3,0,0.6,0,0.8,0c-0.2,0-0.4,0-0.6,0c0.2,0,0.4,0,0.6,0c0.9,0,1.8,0.3,2.6,0.7c0.4,0.2,0.6,0.5,0.7,0.9l0,0.1l0,0l0.5-0.1
						l0,0l0,0c0,0,0,0,0-0.1c0,0,0,0,0,0c0,0,0,0,0,0l0,0l0,0c0.2-0.1-0.5,0.2,0.5-0.2l0,0l0,0c-0.1-0.2-0.1-0.4-0.3-0.5
						c-0.2-0.3-0.5-0.5-0.7-0.7c-0.3-0.2-0.7-0.4-1.2-0.6c-0.4-0.2-1.1-0.4-1.6-0.5c-1.2-0.2-2.3-0.2-2.9-0.2c-0.2,0-0.4,0-0.5,0
						c0.3,0,0.3,0,0.6,0c-0.8,0.1-1.4,0.2-2.1,0.4c0.1,0,0.1,0,0.4,0l-0.3,0c-0.3,0.1-1,0.2-1.3,0.3c0.1-0.1-0.2,0-0.4,0l0.1,0
						c-0.9,0.1-1.8,0.4-2.6,0.6c-0.1,0-0.2,0-0.2,0l-0.7,0.2c0-0.1-0.6,0.1-0.3,0c-0.5,0.2-1.1,0.3-1.6,0.5
						c-1.8,0.6-3.7,1.2-5.5,1.9l0.1,0c-0.6,0.2-1.1,0.5-1.7,0.7l0.1,0.2c0.1,0,0.1-0.1,0.2-0.1c0.3-0.2,0.5-0.5,0.7-0.7
						c0.3-0.1,0.5-0.2,0.6-0.3c0.6-0.2,0.9-0.4,1.5-0.6c-0.2,0,0.6-0.3,0.3-0.2c-0.4,0.1-0.4,0.1-0.8,0.2l0,0
						c-0.3,0.1-0.6,0.2-0.8,0.2c-0.3,0.1-0.7,0.2-1,0.3l-0.2,0.2l-0.1,0.1c-0.1,0.1-0.1,0.1-0.2,0.2c-0.1,0.1-0.3,0.2-0.4,0.2
						l0.4,1.1c0.7-0.2,1.5-0.4,2.2-0.7c1.1-0.4,2.4-0.8,3.5-1.1c1.3-0.4,2.6-0.9,3.7-1.2c0.3-0.1,0.5-0.1,0.7-0.1
						c1-0.3,2.3-0.5,3.4-0.8c0,0,0,0-0.1,0c0.6-0.1,1.1-0.1,1.7-0.2c0,0,0.1,0,0.1,0c0.1,0,0.9-0.1,1.8-0.1c0.9-0.1,1.8,0,1.9,0.1
						c0.1,0,0.1,0,0.2,0c0.6,0.1,1.2,0.4,1.7,0.7c0.2,0.1,0.5,0.3,0.6,0.5c0.1,0.1,0.1,0.2,0.1,0.2c0,0,0,0,0,0.1l0,0l0,0
						c0,0.1,0.1,0.3,0.2,0.3c0.1,0.1,0.2,0.1,0.3,0.2c0.1,0,0.3,0.1,0.6-0.2c0.1-0.1,0.1-0.4,0.1-0.4c0-0.1,0,0,0-0.1l0-0.1
						c-0.1-0.3-0.3-0.6-0.5-0.8c-0.1-0.2-0.2-0.2-0.4-0.4c-0.4-0.6-0.9-0.7-0.6-0.5c-0.5-0.3-1-0.5-1.4-0.6c-0.2,0-0.4-0.1-0.6-0.1
						c-0.2,0-0.3-0.1-0.4-0.1c-0.5-0.1-0.3-0.1-0.8-0.1c-0.1-0.1-1.2,0-1.4,0l0.1,0c-0.6,0-0.9-0.1-1.5-0.1
						c-1.5,0.1-3.1,0.4-4.5,0.7c0,0.1,0.3-0.1,0.3,0c-0.8,0.2-1.6,0.3-2.4,0.5c-0.1,0-0.3,0-0.4,0c-0.3,0-0.1,0.1-0.3,0.1l0,0
						c-0.1,0.1-0.2,0.1-0.3,0.1c-0.1,0-0.2,0-0.4,0.1c0,0,0,0.1-0.1,0.1c-0.1,0-0.1,0.1-0.2,0.1c-0.1,0-0.2,0.1-0.2,0l0,0
						c0,0,0,0-0.1,0c0,0-0.2,0.1-0.4,0.2c-0.1,0-0.2,0.1-0.3,0.1c-0.2,0-0.3,0.1-0.3,0.1l-0.1,0c-0.1,0-0.2,0.1-0.1,0.1l-0.2,0.1
						l0,0l-0.2,0.1c0,0-0.1,0,0-0.1c-0.1,0.1-0.2,0.1-0.3,0.1c0.3-0.1,0.6-0.1,1-0.2c-0.2,0.1-0.3,0.1-0.5,0.1
						c-0.2,0-0.5,0.1-0.7,0.1c-0.1,0-0.1,0.1-0.2,0.1c-0.1,0-0.1,0-0.2,0c0.1-0.1,0.2-0.1,0.3-0.1c0,0-0.3,0.1-0.4,0.1
						c0,0-0.3,0.1-0.4,0.1c0-0.1-0.1,0-0.2,0c-0.1,0-0.2,0.1-0.1,0.1c0,0.1,0.4-0.1,0.3,0c0,0-0.2,0.1-0.3,0.1c0,0,0.1,0,0,0
						c-0.1,0-0.2,0.1-0.3,0.1c0,0,0.1,0,0.1,0c-0.1,0,0.7-0.4,0.5-0.4c0.1,0-0.8,0.4-0.7,0.4c0.1,0,0,0.1,0,0.1l0.1-0.1
						c0.1,0,0.2,0,0.2,0c-0.2,0.1,0.5-0.4,0.4-0.3l0.1,0c-0.1,0-0.3,0.1-0.4,0.1c0,0-0.1,0.1-0.2,0.1l0,0c-0.1,0-0.2,0.1-0.1,0.1
						c0.5-0.2-0.2,0.4,0.3,0.3c-0.2,0,0-0.1,0.3-0.2c0,0,0.1,0,0.3,0c0.1,0,0.1,0,0.1-0.1c0.1,0,0.2,0,0.2,0c0.1-0.1,0.2,0,0.3-0.1
						c0.1-0.1,0,0,0.1-0.1c0.2,0,0.4-0.1,0.6-0.2c0.1,0,0.2,0,0.1,0.1c-0.3,0.1,0.1-0.1-0.2,0c0.1,0-0.2,0.1-0.3,0.2
						c0.1,0,0.3-0.1,0.4-0.1l0,0c0.1-0.1,0.4-0.1,0.5-0.2c0,0,0,0-0.1,0.1l0.2-0.1c0,0,0,0,0,0c0.1,0,0.2-0.1,0.2-0.1
						c0,0,0.2,0,0.5-0.1c0.2-0.1,0.5-0.2,0.4-0.2c0.1,0,0.2,0,0.3-0.1c0,0-0.3,0.1-0.6,0.2c-0.3,0.1-0.6,0.1-0.5,0.1
						c0.1,0,0.5,0,0.8-0.2c0.4-0.1,0.6-0.5,0.7-0.4c0.1,0,0.2-0.1,0.2-0.1c0.2,0,0,0.1,0.1,0.1c0,0,0,0,0,0l0.1,0
						c0.2-0.1,0.6-0.2,0.9-0.3c-0.1,0.1-0.1,0.1-0.3,0.2l0,0c0,0-0.2,0.1-0.1,0.1c0.2,0,0.3-0.1,0.5-0.1l0.1,0l0,0c0.1,0,0.1,0,0,0
						l0,0c0.1,0.1,0.6-0.2,0.9-0.3c0.1,0,0,0,0.1-0.1c0.3-0.1,0.5-0.1,0.8-0.1c0.1-0.1,0.1-0.1,0-0.1l0.2-0.1
						c-0.2,0.1,0.5,0,0.2,0.1c0.1,0,0.2,0,0.3-0.1c0,0,0-0.1,0.2-0.1c0.2,0,0.2,0,0.4,0c0.1,0,0,0,0,0.1c0.3-0.1,0.3,0,0.6,0
						c0.2,0,0.5-0.1,0.5-0.2C215.2,28.1,215.2,28.1,215.2,28.2z"/>
				</g>
			</g>
		</g>
		<g>
			<path class="st1" d="M199.6,32.3c0.4,0.1,0.8,0,1.2,0c-1.3,0.4-2.6,0.9-3.9,1.3c-0.1,0-0.3-0.1-0.2-0.2
				C197.6,33,198.6,32.7,199.6,32.3z"/>
			<g>
				<g>
					<path class="st0" d="M199.8,32L199.8,32c0.1,0,0.2-0.1,0.3-0.1c-0.3-0.1-0.7-0.1-0.7,0.3c-0.1-0.2-0.4-0.2-0.4-0.2
						c0,0.1-0.1,0.1-0.1,0.1c0,0,0.1-0.1,0.1-0.1c0,0-0.1,0.1-0.1,0.1c-0.3,0.3-0.7,0.3-1.1,0.4c-0.2,0-0.8,0.2-1,0.2
						c0,0-0.1,0-0.1,0c0.1,0,0.1,0,0.1,0c-0.1,0-0.1,0.1-0.2,0.1l-0.1,0.1l0,0l0,0l0,0l0,0l0.2,0.5l0,0l0,0l0,0l0,0c0,0,0,0,0-0.1
						c0,0,0,0,0,0l0,0l0,0l0,0l0,0l0,0l-0.2-0.4l0,0l0,0l0,0l0,0l0,0h0h0l0.1,0.4l0,0l0,0l0,0c0,0,0,0,0,0c0-0.1,0-0.1,0-0.1
						c0,0.1-0.2,0.1-0.1,0.1c0,0,0,0,0,0c0,0,0,0,0,0.1c0,0.1,0.1,0.2,0.1,0.3l0,0l0,0l0,0c0.2,0,0.3-0.1,0.4-0.2c0,0,0,0,0.1,0
						l0.1-0.1c0,0.1,0.1,0,0.1,0.1c0.1-0.1,0.2-0.1,0.2-0.2c0.3-0.1,0.6-0.3,0.9-0.5l0,0c0.1-0.1,0.2-0.2,0.3-0.3
						c0.1-0.1,0.2-0.2,0.2-0.3c0.1-0.1,0.1-0.1,0.2-0.2c-0.1,0,0.1-0.1,0-0.1c-0.1-0.1-0.1,0-0.2,0l0,0c-0.3,0-0.7,0.1-1,0.2
						c-0.2,0.1-0.4,0.2-0.6,0.3c-0.2,0.1-0.5,0.2-0.6,0.4c0,0-0.1,0-0.1,0c-0.1,0-0.2,0.1-0.3,0.1c-0.1,0-0.1,0-0.2,0.1
						c0,0-0.1,0-0.1,0.1c0,0-0.1,0.1-0.1,0.2c-0.1,0.2,0,0.4,0,0.5c0.1,0.2,0.2,0.2,0.3,0.3c0,0,0,0,0,0c0.2,0.1,0.3,0.2,0.6,0.1
						c0.1,0,0.1,0,0.2,0c0,0,0,0,0,0c0,0.1,0.6-0.4,0.6-0.3c0,0,0,0,0,0c0.2,0,0.5,0,0.7,0c0-0.1,0.1-0.1,0.1-0.2c0,0,0,0,0.1-0.1
						c0.2,0.1,0.2,0,0.1,0c0.1-0.1,0.2-0.1,0.2-0.1c0,0,0.1,0,0.1-0.1c0,0,0.1,0,0.1,0c0.1,0,0.1,0,0.1,0c0,0,0.2-0.2,0.2-0.1l0,0
						c0.1,0,0.2,0.1,0.3,0c0.3,0,0.5-0.2,0.8-0.2c0-0.1,0,0-0.1,0c0.1,0,0.3,0,0.4,0l-0.3-1.2c0,0,0,0-0.1,0c0,0-0.1,0-0.1-0.1
						c0,0,0,0,0,0l0-0.1c0,0.1-0.1-0.1-0.1,0c0,0,0,0,0,0c0-0.1,0,0,0,0l0,0c0,0,0,0,0,0c0,0-0.1,0.2-0.2,0.2l0,0c0,0,0,0,0,0.1l0,0
						l0,0l0,0c0,0,0,0,0-0.1c0,0,0,0,0,0c0,0,0.1,0.1,0.1,0.1c0,0-0.1,0-0.1,0c0,0-0.1-0.1-0.1-0.1c0,0,0,0.1,0,0c0,0,0,0,0,0
						c0,0,0,0,0.1,0c0-0.1,0,0-0.1-0.1c0,0,0,0-0.1,0c0-0.1,0,0,0-0.1c0,0,0,0,0,0c0,0.1,0.1,0,0,0.1c0,0,0,0,0,0c0,0,0,0,0,0.1
						c0,0,0,0,0,0c0,0,0,0,0,0c0,0,0.1-0.2,0.1-0.2c0,0-0.2,0.2-0.1,0.2c0,0,0,0.1,0,0.1l0,0c0,0,0,0.1,0,0.1c0,0,0.1-0.2,0.1-0.2
						l0,0c0,0,0,0-0.1,0c0,0,0,0,0,0l0,0c0,0,0,0,0,0c0.1,0-0.1,0.3,0,0.3c0-0.1,0-0.1,0.1-0.1c0,0,0,0.1,0,0.1c0,0,0,0,0,0
						c0,0,0,0,0,0.1c0,0,0,0,0.1,0c0,0,0,0,0,0c0,0,0.1,0,0.1,0c0,0,0,0.1,0,0.1c-0.1,0,0-0.1,0-0.1c0,0.1,0,0-0.1,0.1
						c0,0,0.1,0,0.1,0l0,0c0,0,0.1,0,0.1,0c0,0,0,0,0,0.1l0,0c0,0,0,0,0,0c0,0,0,0,0,0c0,0,0.2-0.1,0.2-0.1c0,0,0,0,0.1,0
						c0,0-0.2,0.1-0.2,0.1c0,0,0.3-0.2,0.3-0.1c0,0,0,0,0,0c0,0,0,0.1,0,0.1c0,0,0,0,0,0l0,0c0-0.1,0.1,0,0.2-0.1c0,0,0,0.1,0,0.1
						l0,0c0,0,0,0,0,0.1c0,0,0.1,0,0.1,0l0,0l0,0c0,0,0,0,0,0l0,0c0,0,0,0,0.1,0l-0.1-0.5c0,0-0.1,0.1-0.1,0.1c0,0,0,0,0,0
						c-0.1,0-0.1,0-0.2,0c0,0,0,0.1,0,0.1l0,0c0-0.1-0.1-0.1-0.1-0.2c0,0,0,0-0.1,0c0,0,0,0.1,0,0.1c-0.1,0,0,0-0.1,0c0,0,0,0,0-0.1
						c0,0.1-0.1,0-0.1,0C199.9,32,199.9,32,199.8,32C199.8,32.1,199.8,32,199.8,32z"/>
				</g>
			</g>
		</g>
		<g>
			<path class="st1" d="M220.2,22.4c-0.5-1.3,0.3-2.9,1.8-3.4c1.5-0.6,3.1,0.1,3.6,1.4c0.5,1.3-0.3,2.9-1.8,3.4
				C222.3,24.4,220.7,23.7,220.2,22.4z M223.7,23.5c1.3-0.5,2-1.8,1.6-3c-0.4-1.2-1.8-1.7-3.1-1.2c-1.3,0.5-2,1.8-1.6,3
				C221,23.4,222.4,24,223.7,23.5z"/>
			<g>
				<path class="st2" d="M220.2,22.4c-0.5-1.3,0.3-2.9,1.8-3.4c1.5-0.6,3.1,0.1,3.6,1.4c0.5,1.3-0.3,2.9-1.8,3.4
					C222.3,24.4,220.7,23.7,220.2,22.4z M223.7,23.5c1.3-0.5,2-1.8,1.6-3c-0.4-1.2-1.8-1.7-3.1-1.2c-1.3,0.5-2,1.8-1.6,3
					C221,23.4,222.4,24,223.7,23.5z"/>
				<g>
					<path class="st0" d="M225.9,20.8L225.9,20.8c0.1,0.2,0,0.4,0,0.7c0.1-0.3,0.2-0.6,0.1-0.9c-0.1-0.3-0.2-0.6-0.5-0.7
						c0.2-0.2-0.1-0.7-0.2-0.6c-0.1-0.1-0.2-0.1-0.3-0.2c0.1,0,0.1,0.1,0.2,0.1c-0.1,0-0.1-0.1-0.2-0.1c-0.7-0.3-1.4-0.6-2.2-0.6
						c-0.2,0-0.6,0.1-1,0.2c-0.4,0.1-0.8,0.4-1,0.5c-0.1,0-0.1,0.1-0.2,0.1c0.1-0.1,0.1-0.1,0.2-0.1c-0.2,0.2-0.3,0.5-0.4,0.7
						c0.1,0,0.1,0,0.2-0.1l-0.1,0.1c0,0.1-0.1,0.4-0.1,0.5c0,0-0.1,0-0.1,0.1l0,0c-0.1,0.3-0.2,0.7-0.2,1c0,0,0,0.1,0,0.1l0.1,0.3
						c-0.1,0,0,0.2-0.1,0.1c0.1,0.2,0.1,0.4,0.3,0.6c0.3,0.6,1,1.1,1.6,1.2l0,0c0.2,0,0.4,0,0.7,0c0.2-0.1,0.5-0.1,0.5-0.3
						c0.2,0,0.3-0.1,0.4-0.2c-0.1,0,0.1-0.1,0-0.1c-0.1,0-0.1,0-0.2,0l0,0c-0.5,0-0.9-0.1-1.3-0.2c-0.3,0-0.5-0.3-0.7-0.4
						c-0.2-0.2-0.4-0.5-0.4-0.8c0-0.1,0-0.1,0.1-0.2c0-0.2,0.1-0.5,0.2-0.8c0,0,0,0,0,0c0.1-0.1,0.2-0.2,0.3-0.3c0,0,0,0,0,0
						c0,0,0.2-0.2,0.3-0.3c0.2-0.2,0.4-0.3,0.4-0.3c0,0,0,0,0,0c0.3-0.1,0.7,0,1,0c0.1,0,0.1-0.1,0.2-0.1c0,0,0.1,0,0.1,0
						c0.1,0.2,0.2,0.2,0.1,0.1c0.1,0,0.2,0.1,0.3,0.1c0,0,0.1,0,0.2,0c0,0,0.1,0,0,0.1c0.1,0,0.1,0.1,0.1,0.1c0,0.1,0.3,0.1,0.3,0.2
						l0,0c0.1,0.1,0,0.2,0.1,0.3c0.1,0.3,0.2,0.7,0.1,1c0.1,0,0-0.1,0.1-0.1c0,0.2-0.2,0.3-0.3,0.5c0,0-0.1,0-0.1,0c0,0,0,0,0,0.1
						l0,0c0,0.1-0.1,0-0.1,0.1c0,0,0,0,0,0c0,0,0,0-0.1,0l0,0c0,0,0,0,0,0c0,0-0.1,0.3-0.1,0.3l0,0c0,0,0,0.1,0,0.1l0,0l0,0l0,0
						c0,0,0,0,0,0c0,0,0,0.1-0.1,0.1c0.1,0,0.2,0,0.3,0c0,0-0.1,0-0.1,0.1c-0.1,0-0.1,0-0.2,0c0,0,0,0.1,0,0.1c0,0,0,0-0.1,0
						c0,0,0,0,0.1-0.1c0,0-0.1,0-0.1,0c0,0-0.1,0-0.1,0.1c0-0.1,0,0-0.1,0c0,0,0,0,0,0c0,0.1,0.1,0,0.1,0.1c0,0-0.1,0-0.1,0
						c0,0,0,0,0,0c0,0,0,0.1-0.1,0c0,0,0,0,0,0c0,0,0.1-0.3,0.1-0.2c0,0-0.1,0.3-0.1,0.2c0,0,0,0.1,0,0.1l0,0c0,0,0.1,0,0.1,0.1
						c-0.1,0,0.1-0.3,0-0.2l0,0c0,0-0.1,0.1-0.1,0c0,0,0,0,0,0.1l0,0c0,0-0.1,0,0,0.1c0.1-0.1,0,0.3,0.2,0.3c-0.1,0,0-0.1,0.1-0.1
						c0,0,0.1,0,0.1,0c0,0,0,0,0-0.1c0,0,0.1,0,0.1,0c0-0.1,0.1,0,0.1,0c0,0,0,0,0,0c0,0,0.1,0,0.2-0.1c0,0,0.1,0,0.1,0.1
						c-0.1,0,0-0.1-0.1,0c0.1,0-0.1,0.1,0,0.1c0,0,0.1,0,0.1-0.1l0,0c0,0,0.1-0.1,0.2-0.1c0,0,0,0,0,0.1l0.1,0c0,0,0,0,0,0
						c0,0,0,0,0.1,0c0,0,0.2-0.3,0.2-0.3c0,0,0.1,0,0.1-0.1c0,0-0.2,0.4-0.2,0.3c0.1,0,0.2-0.4,0.3-0.4c0,0,0-0.1,0-0.1
						c0,0,0,0,0.1,0c0,0,0,0,0,0l0.1,0c0-0.1,0.1-0.2,0.1-0.3c0,0,0,0.1,0,0.2l0,0c0,0,0,0.1,0,0.1c0,0,0.1-0.1,0.1-0.1l0,0l0,0
						c0,0,0,0,0,0l0,0c0.1,0,0.1-0.2,0.1-0.3c0,0,0,0,0,0c0.1-0.1,0.1-0.2,0.2-0.3c0,0,0,0-0.1,0l0-0.1c0.1,0.1,0.1-0.1,0.2,0
						c0,0,0-0.1,0-0.1c0,0-0.1,0-0.1-0.1c0-0.1,0-0.1,0.1-0.1c0,0,0,0,0.1,0c0-0.1,0.1-0.1,0.1-0.2C225.9,21,225.9,20.9,225.9,20.8
						C225.8,20.8,225.8,20.8,225.9,20.8z"/>
				</g>
				<g>
					<path class="st0" d="M221.9,19.6L221.9,19.6c-0.1,0.1-0.3,0.2-0.5,0.3c0.5-0.1,0.9-0.1,1.1-0.6c0.1,0.2,0.5,0.2,0.5,0.2
						c0.1,0,0.2-0.1,0.3-0.1c-0.1,0-0.1,0-0.2,0c0.1,0,0.1,0,0.2,0c0.6-0.1,1.2,0.2,1.5,0.7c0.1,0.1,0.2,0.4,0.3,0.7
						c0.1,0.3,0,0.6-0.1,0.7c0,0,0,0.1,0,0.1c0-0.1,0-0.1,0.1-0.1c0,0.2,0,0.4,0,0.6c0,0,0.1,0,0.1-0.1L225,22
						c0,0.1-0.1,0.3-0.1,0.4c0,0-0.1,0-0.1,0.1l0,0c-0.2,0.2-0.4,0.4-0.6,0.6c0,0-0.1,0-0.1,0c-0.1,0.1-0.1,0.1-0.2,0.2
						c0-0.1-0.2,0-0.1,0c-0.1,0.1-0.3,0.2-0.4,0.3c-0.6,0.2-1.2,0.2-1.8,0.1l0,0c-0.2,0-0.5,0-0.7-0.3c-0.2-0.1-0.5-0.3-0.6-0.3
						c-0.2-0.2-0.3-0.3-0.4-0.5c0,0.1-0.2-0.2-0.2-0.1c0,0.2,0.1,0.2,0.1,0.4l0,0c0.3,0.7,0.9,1.3,1.6,1.6c0.5,0.1,1.1,0.2,1.6,0.1
						c0.6-0.1,1.1-0.3,1.5-0.6c0.1-0.1,0.2-0.1,0.3-0.1c0.3-0.3,0.8-0.7,1-1.2l0,0c0.1-0.2,0.3-0.4,0.3-0.7c0,0,0,0,0-0.1
						c0,0,0.1-0.4,0.1-0.8c0-0.4-0.2-0.8-0.2-0.8c0,0,0-0.1,0-0.1c-0.1-0.5-0.4-1.1-0.8-1.4c-0.1,0-0.2-0.1-0.3-0.1
						c-0.1-0.1-0.1,0-0.2-0.1c-0.1-0.3-0.3-0.3-0.2-0.2c-0.2-0.1-0.4-0.1-0.6-0.2c-0.1,0-0.2,0-0.3,0c-0.1,0-0.1,0-0.1-0.1
						c-0.2,0-0.1,0-0.3-0.1c-0.1-0.1-0.5,0.1-0.5,0.1l0,0c-0.2,0-0.4-0.1-0.6,0c-0.6,0.1-1.2,0.5-1.6,0.9c0,0,0.1-0.1,0.1,0
						c-0.3,0.2-0.5,0.4-0.7,0.7c0,0-0.1,0.1-0.1,0.1c-0.1,0.1,0,0.1,0,0.1l-0.1,0c0,0.1-0.1,0.1-0.2,0.3c0,0,0,0.1,0,0.1
						c-0.1,0,0,0.1-0.1,0.1l0,0c0,0,0,0,0,0.1c0,0.1,0.1,0.5,0.1,0.6l0,0c0,0.1,0,0.1,0.1,0.1l0,0.1l0,0l0,0.1c0,0,0,0-0.1,0
						c0,0,0,0.1,0,0.1c0-0.1,0.1-0.3,0.2-0.4c0,0.1,0,0.1,0,0.2c0,0.1-0.1,0.2-0.1,0.3c0,0,0.1,0,0,0.1c0,0,0,0.1,0,0.1
						c0,0,0-0.1,0-0.2c-0.1,0,0,0.1,0,0.2c0,0,0,0.1,0.1,0.2c-0.1,0,0,0.1,0,0.1c0,0,0,0.1,0,0c0.1,0,0-0.2,0.1-0.1c0,0,0,0.1,0,0.1
						c0,0,0,0,0.1,0c0,0.1,0.1,0.1,0,0.1c0,0,0,0,0,0c0,0.1-0.3-0.3-0.3-0.2c0,0,0.3,0.3,0.3,0.3c0,0,0.1,0,0.1,0l0,0
						c0-0.1,0-0.1,0.1-0.1c0,0.1-0.3-0.2-0.2-0.1l0,0c0,0,0.1,0.1,0.1,0.2c0,0,0.1,0,0.1,0.1l0,0c0,0,0,0.1,0.1,0.1
						c-0.1-0.2,0.3,0,0.3-0.2c0,0.1-0.1,0-0.1-0.1c0,0,0-0.1,0-0.1c0-0.1,0,0,0,0c0,0,0-0.1,0-0.1c0,0,0-0.1,0-0.1c0,0,0,0,0,0
						c0-0.1,0-0.1,0-0.2c0,0,0.1-0.1,0.1,0c0,0.1-0.1,0-0.1,0.1c0.1,0,0,0.1,0.1,0.1c0,0,0-0.1,0-0.2l0,0c0,0,0-0.1,0-0.2
						c0,0,0,0,0.1,0l0-0.1c0,0,0,0,0,0c0,0,0-0.1,0-0.1c0,0-0.1-0.4,0-0.3c0,0,0.1,0,0-0.1c0,0,0,0.5,0,0.4c0,0,0-0.5,0-0.6
						c0,0,0-0.1,0-0.1c0-0.1,0,0,0.1,0c0,0,0,0,0,0l0.1,0c0-0.1,0.1-0.2,0.1-0.3c0,0,0,0.1,0,0.2l0,0c0,0,0,0.1,0,0.1
						c0,0,0.1-0.1,0.1-0.1l0,0l0,0c0,0,0,0,0,0l0,0c0.1,0,0.1-0.2,0.2-0.3c0,0,0,0,0-0.1c0.1-0.1,0.2-0.1,0.2-0.2c0,0,0-0.1-0.1-0.1
						l0.1,0c0,0.1,0.2,0,0.2,0.1c0,0,0.1,0,0.1-0.1c0,0,0-0.1,0-0.1c0.1,0,0.1,0,0.1,0c0,0,0,0,0,0.1c0.1-0.1,0.1,0,0.2,0
						c0,0,0.1-0.1,0.1-0.1C221.8,19.5,221.8,19.6,221.9,19.6z"/>
				</g>
			</g>
		</g>
		<g>
			<path class="st1" d="M216.4,26.6c-1.5,0.6-3.1-0.1-3.6-1.4c-0.5-1.3,0.3-2.9,1.8-3.4c1.5-0.6,3.1,0.1,3.6,1.4
				C218.7,24.5,217.9,26,216.4,26.6z M214.7,22c-1.3,0.5-2,1.8-1.6,3c0.4,1.2,1.8,1.7,3.1,1.2c1.3-0.5,2-1.8,1.6-3
				C217.4,22.1,216,21.6,214.7,22z"/>
			<g>
				<path class="st2" d="M216.4,26.6c-1.5,0.6-3.1-0.1-3.6-1.4c-0.5-1.3,0.3-2.9,1.8-3.4c1.5-0.6,3.1,0.1,3.6,1.4
					C218.7,24.5,217.9,26,216.4,26.6z M214.7,22c-1.3,0.5-2,1.8-1.6,3c0.4,1.2,1.8,1.7,3.1,1.2c1.3-0.5,2-1.8,1.6-3
					C217.4,22.1,216,21.6,214.7,22z"/>
				<g>
					<path class="st0" d="M212.5,24.7L212.5,24.7c-0.1-0.2,0-0.4,0-0.7c-0.1,0.3-0.2,0.6-0.1,0.9c0.1,0.3,0.2,0.6,0.5,0.7
						c-0.2,0.2,0.1,0.7,0.2,0.6c0.1,0.1,0.2,0.1,0.3,0.2c-0.1,0-0.1-0.1-0.2-0.1c0.1,0,0.2,0.1,0.2,0.1c0.7,0.3,1.4,0.6,2.2,0.6
						c0.2,0,0.6-0.1,1-0.2c0.4-0.1,0.8-0.4,1-0.5c0.1,0,0.1-0.1,0.2-0.1c-0.1,0.1-0.1,0.1-0.2,0.1c0.2-0.2,0.3-0.5,0.4-0.7
						c-0.1,0-0.1,0-0.2,0.1l0.1-0.1c0-0.1,0.1-0.4,0.1-0.5c0,0,0.1,0,0.1-0.1l0,0c0.1-0.3,0.2-0.7,0.2-1c0,0,0-0.1,0-0.1l-0.1-0.3
						c0.1,0,0-0.2,0.1-0.1c-0.1-0.2-0.1-0.4-0.3-0.6c-0.3-0.6-1-1.1-1.6-1.2l0,0c-0.2,0-0.4,0-0.7,0c-0.2,0.1-0.5,0.1-0.5,0.3
						c-0.2,0-0.3,0.1-0.4,0.2c0.1,0-0.1,0.1,0,0.1c0.1,0,0.1,0,0.2,0l0,0c0.5,0,0.9,0.1,1.3,0.2c0.3,0,0.5,0.3,0.7,0.5
						c0.2,0.2,0.4,0.5,0.4,0.8c0,0.1,0,0.1-0.1,0.2c0,0.2-0.1,0.5-0.2,0.8c0,0,0,0,0,0c-0.1,0.1-0.2,0.2-0.3,0.3c0,0,0,0,0,0
						c0,0-0.2,0.2-0.3,0.3c-0.2,0.2-0.4,0.3-0.4,0.3c0,0,0,0,0,0c-0.3,0.1-0.7,0-1,0c-0.1,0-0.1,0.1-0.2,0.1c0,0-0.1,0-0.1,0
						c-0.1-0.2-0.2-0.2-0.1-0.1c-0.1,0-0.2-0.1-0.3-0.1c0,0-0.1,0-0.2,0c0,0-0.1,0,0-0.1c-0.1,0-0.1-0.1-0.1-0.1
						c0-0.1-0.3-0.1-0.3-0.2l0,0c-0.1-0.1,0-0.2-0.1-0.3c-0.1-0.3-0.2-0.7-0.1-1c-0.1,0,0,0.1-0.1,0.1c0-0.2,0.2-0.3,0.3-0.5
						c0,0,0.1,0,0.1,0c0,0,0,0,0-0.1l0,0c0-0.1,0.1,0,0.1-0.1c0,0,0,0,0,0c0,0,0,0,0.1,0l0,0c0,0,0,0,0,0c0,0,0.1-0.3,0.1-0.3l0,0
						c0,0,0-0.1,0-0.1l0,0l0,0l0,0c0,0,0,0,0,0c0,0,0-0.1,0.1-0.1c-0.1,0-0.2,0-0.3,0c0,0,0.1,0,0.1-0.1c0.1,0,0.1,0,0.2,0
						c0,0,0-0.1,0-0.1c0,0,0,0,0.1,0c0,0,0,0-0.1,0.1c0,0,0.1,0,0.1,0c0,0,0.1,0,0.1-0.1c0,0.1,0,0,0.1,0c0,0,0,0,0,0
						c0-0.1-0.1,0-0.1-0.1c0,0,0.1,0,0.1,0c0,0,0,0,0,0c0,0,0-0.1,0.1,0c0,0,0,0,0,0c0,0-0.1,0.3-0.1,0.2c0,0,0.1-0.3,0.1-0.2
						c0,0,0-0.1,0-0.1l0,0c0,0-0.1,0-0.1-0.1c0.1,0-0.1,0.3,0,0.2l0,0c0,0,0.1-0.1,0.1,0c0,0,0,0,0-0.1l0,0c0,0,0.1,0,0-0.1
						c-0.1,0.1,0-0.3-0.2-0.3c0.1,0,0,0.1-0.1,0.1c0,0-0.1,0-0.1,0c0,0,0,0,0,0.1c0,0-0.1,0-0.1,0c0,0.1-0.1,0-0.1,0c0,0,0,0,0,0
						c0,0-0.1,0-0.2,0.1c0,0-0.1,0-0.1-0.1c0.1,0,0,0.1,0.1,0c-0.1,0,0.1-0.1,0-0.1c0,0-0.1,0-0.1,0.1l0,0c0,0-0.1,0.1-0.2,0.1
						c0,0,0,0,0-0.1l-0.1,0c0,0,0,0,0,0c0,0,0,0-0.1,0c0,0-0.2,0.3-0.2,0.3c0,0-0.1,0-0.1,0.1c0,0,0.2-0.4,0.2-0.3
						c-0.1,0-0.2,0.4-0.3,0.4c0,0,0,0.1,0,0.1c0,0,0,0-0.1,0c0,0,0,0,0,0l-0.1,0c0,0.1-0.1,0.2-0.1,0.3c0,0,0-0.1,0-0.2l0,0
						c0,0,0-0.1,0-0.1c0,0-0.1,0.1-0.1,0.1l0,0l0,0c0,0,0,0,0,0l0,0c-0.1,0-0.1,0.2-0.1,0.3c0,0,0,0,0,0c-0.1,0.1-0.1,0.2-0.2,0.3
						c0,0,0,0,0.1,0l0,0.1c-0.1-0.1-0.1,0.1-0.2,0c0,0,0,0.1,0,0.1c0,0,0.1,0,0.1,0.1c0,0.1,0,0.1-0.1,0.1c0,0,0,0-0.1,0
						c0,0.1-0.1,0.1-0.1,0.2C212.5,24.5,212.5,24.6,212.5,24.7C212.6,24.7,212.5,24.7,212.5,24.7z"/>
				</g>
				<g>
					<path class="st0" d="M213.4,25.3L213.4,25.3c0.1,0.1,0.2,0.3,0.3,0.4c-0.2-0.4-0.2-0.8-0.6-1c0.2-0.1,0.3-0.4,0.2-0.4
						c0-0.1-0.1-0.2-0.1-0.2c0,0.1,0,0.1,0,0.2c0-0.1,0-0.1,0-0.2c-0.1-0.6,0.4-1.1,1-1.4c0.1-0.1,0.4-0.2,0.7-0.3
						c0.3-0.1,0.6-0.1,0.8,0c0,0,0.1,0,0.1,0c-0.1,0-0.1,0-0.2,0c0.2-0.1,0.4-0.1,0.6-0.1c0,0,0-0.1-0.1-0.1l0.1,0
						c0.1-0.1,0.3,0,0.4,0c0,0,0,0.1,0.1,0.1l0,0c0.2,0.1,0.5,0.3,0.6,0.5c0,0,0,0.1,0,0.1l0.2,0.2c-0.1,0,0,0.2,0,0.1
						c0.1,0.1,0.2,0.3,0.3,0.4c0.2,0.5,0.1,1.2-0.1,1.8l0,0c-0.1,0.2-0.1,0.5-0.4,0.6c-0.1,0.2-0.3,0.4-0.3,0.6
						c-0.2,0.1-0.3,0.3-0.5,0.4c0.1,0-0.2,0.2-0.1,0.2c0.2,0,0.2-0.1,0.4-0.1l0,0c0.7-0.2,1.3-0.7,1.7-1.4c0.2-0.5,0.4-1,0.4-1.6
						c0-0.6-0.3-1.2-0.7-1.6c-0.1-0.1-0.1-0.2-0.1-0.3c-0.3-0.3-0.8-0.7-1.3-0.8l0,0c-0.3-0.1-0.4-0.2-0.7-0.2c0,0,0,0-0.1,0
						c0-0.1-0.4,0-0.8,0c-0.4,0.1-0.7,0.3-0.8,0.2c0,0-0.1,0-0.1,0c-0.5,0.1-1.1,0.3-1.4,0.7c0,0.1-0.1,0.2-0.1,0.3
						c-0.1,0,0,0.1-0.1,0.2c-0.3,0.1-0.3,0.3-0.2,0.2c-0.1,0.2-0.2,0.4-0.3,0.5c0,0.1,0,0.2-0.1,0.3c0,0.1,0,0.1-0.1,0.1
						c0,0.2-0.1,0.1-0.1,0.3c-0.1,0,0,0.5,0,0.6l0,0c0,0.2-0.1,0.4,0,0.6c0.1,0.7,0.6,1.3,1.1,1.6c0,0-0.1-0.1-0.1-0.1
						c0.3,0.2,0.5,0.5,0.9,0.6c0.1,0,0.1,0.1,0.1,0.1c0.1,0.1,0.1,0,0.2,0l0,0.1c0.1,0,0.2,0.1,0.3,0.1c0,0,0.1,0,0.1,0
						c0,0.1,0.1,0,0.1,0.1l0,0c0,0,0,0,0.1,0c0.1,0,0.5-0.2,0.5-0.2l0,0c0.1,0,0.1,0,0.1-0.1l0.1,0l0,0l0.1,0c0,0,0,0,0,0.1
						c0,0,0.1,0,0.1,0c-0.1,0-0.3-0.1-0.4-0.1c0,0,0.1,0,0.2,0c0.1,0,0.2,0,0.3,0.1c0,0,0-0.1,0.1-0.1c0,0,0.1,0,0.1,0
						c0,0-0.1,0-0.1,0c0,0.1,0.1,0,0.2,0c0,0,0.1,0,0.2-0.1c0,0.1,0.1,0,0.1,0c0,0,0.1,0,0,0c0-0.1-0.2,0-0.1-0.1c0,0,0.1,0,0.1,0
						c0,0,0,0,0,0c0,0,0.1-0.1,0.1,0c0,0,0,0,0,0c0.1,0-0.3,0.3-0.2,0.3c0,0,0.3-0.3,0.3-0.3c0,0,0-0.1,0-0.1l0,0
						c-0.1,0-0.1,0-0.1-0.1c0.1,0-0.2,0.3-0.1,0.2l0,0c0,0,0.1-0.1,0.2-0.1c0,0,0-0.1,0.1-0.1l0,0c0,0,0.1,0,0-0.1
						c-0.2,0.1,0-0.3-0.2-0.3c0.1,0,0,0.1-0.1,0.1c0,0-0.1,0-0.1,0c-0.1,0,0,0,0,0.1c0,0-0.1,0-0.1,0c0,0.1-0.1,0-0.1,0c0,0,0,0,0,0
						c-0.1,0-0.2,0-0.2,0c0,0-0.1-0.1-0.1-0.1c0.1,0,0,0.1,0.1,0.1c-0.1-0.1,0.1,0,0.1-0.1c0,0-0.1,0-0.2,0l0,0c0,0-0.1,0-0.2,0
						c0,0,0,0,0-0.1l-0.1,0c0,0,0,0,0,0c0,0-0.1,0-0.1,0c0,0-0.3,0.1-0.3,0.1c0,0-0.1,0-0.1,0c0,0,0.5-0.1,0.4-0.1
						c0,0-0.5,0.1-0.6,0c0,0-0.1,0-0.1,0c-0.1,0,0,0,0-0.1c0,0,0,0,0,0l0,0c-0.1,0-0.2-0.1-0.3-0.1c0,0,0.1-0.1,0.2-0.1l0,0
						c0,0,0.1,0,0.1,0c0,0-0.1,0-0.2,0l0,0l0,0c0,0,0,0,0,0l0,0c0-0.1-0.2,0-0.3-0.1c0,0,0,0,0,0c-0.1-0.1-0.1-0.2-0.2-0.2
						c0,0-0.1,0,0,0.1l-0.1-0.1c0.1,0-0.1-0.2,0.1-0.2c0,0,0-0.1-0.1-0.1c0,0-0.1,0-0.1,0c0-0.1,0-0.1,0-0.1c0,0,0,0,0.1,0
						c-0.1,0,0-0.1-0.1-0.2c0,0-0.1-0.1-0.1-0.1C213.3,25.3,213.4,25.3,213.4,25.3z"/>
				</g>
			</g>
		</g>
		<g>
			<path class="st1" d="M205.1,27.9c-0.5-1.3,0.3-2.9,1.8-3.4c1.5-0.6,3.1,0.1,3.6,1.4c0.4,1.2-0.2,2.5-1.3,3.1
				c-0.5,0.2-1.1,0.3-1.6,0.5C206.5,29.6,205.5,29,205.1,27.9z M210.2,26.1c-0.4-1.2-1.8-1.7-3.1-1.2c-1.3,0.5-2,1.8-1.6,3
				c0.4,1.2,1.8,1.7,3.1,1.2C209.9,28.6,210.6,27.2,210.2,26.1z"/>
			<g>
				<path class="st2" d="M205.1,27.9c-0.5-1.3,0.3-2.9,1.8-3.4c1.5-0.6,3.1,0.1,3.6,1.4c0.4,1.2-0.2,2.5-1.3,3.1
					c-0.5,0.2-1.1,0.3-1.6,0.5C206.5,29.6,205.5,29,205.1,27.9z M210.2,26.1c-0.4-1.2-1.8-1.7-3.1-1.2c-1.3,0.5-2,1.8-1.6,3
					c0.4,1.2,1.8,1.7,3.1,1.2C209.9,28.6,210.6,27.2,210.2,26.1z"/>
				<g>
					<path class="st0" d="M207.3,24.2L207.3,24.2c0.2-0.1,0.4-0.1,0.7,0c-0.5-0.2-1.3-0.1-1.5,0.4c-0.1-0.2-0.7,0-0.6,0.1
						c-0.1,0.1-0.1,0.2-0.2,0.3c0-0.1,0.1-0.1,0.1-0.2c-0.1,0.1-0.1,0.1-0.1,0.2c-0.4,0.6-0.8,1.3-0.9,2.1c0,0.2,0,0.7,0.2,1.1
						c0.2,0.4,0.5,0.8,0.7,1c0,0.1,0.1,0.1,0.2,0.2c-0.1-0.1-0.1-0.1-0.2-0.2c0.3,0.2,0.5,0.3,0.8,0.3c0,0,0-0.1-0.1-0.2l0.1,0.1
						c0.1,0,0.4,0.1,0.5,0.1c0,0,0.1,0.1,0.1,0.1l0,0c0.3,0.1,0.7,0.1,0.9,0.1c0,0,0.1,0,0.1,0c0.1,0,0.2,0,0.3-0.1
						c0,0.1,0.2,0,0.1,0.1c0.2-0.1,0.4-0.1,0.5-0.3c0.6-0.3,1.2-0.8,1.4-1.5l0,0c0.1-0.2,0-0.4,0.1-0.7c0-0.2-0.1-0.5-0.2-0.5
						c0-0.2-0.1-0.3-0.2-0.4c0,0.1-0.1-0.1-0.1,0c-0.1,0.1,0,0.1,0,0.2l0,0c0,0.4-0.1,0.8-0.4,1.2c-0.1,0.3-0.3,0.5-0.6,0.6
						c-0.2,0.2-0.6,0.4-0.9,0.5c-0.1,0-0.1,0-0.2,0c-0.3,0.1-0.6,0-0.9-0.1c0,0,0,0,0,0c-0.2,0-0.2-0.2-0.3-0.2c0,0,0,0,0,0
						c0,0-0.2-0.1-0.4-0.3c-0.2-0.1-0.3-0.3-0.3-0.4c0,0,0,0,0,0c-0.1-0.3,0.1-0.6,0.1-0.9c0-0.1,0-0.1-0.1-0.2c0.1,0,0-0.1,0-0.1
						c0.2-0.1,0.2-0.2,0.1-0.1c0-0.1,0.1-0.2,0.2-0.3c0,0,0-0.1,0.1-0.1c0,0,0.1,0,0.1,0c0.1-0.1,0.1,0,0.2-0.1
						c0.1,0,0.2-0.3,0.2-0.3l0,0c0.1-0.1,0.3,0,0.4-0.1c0.3-0.1,0.7-0.2,1.1-0.2c0-0.1-0.1,0-0.1-0.1c0.2,0,0.4,0.1,0.6,0.2
						c0,0,0.1,0.1,0.1,0.1c0,0,0,0,0.1,0l0,0.1c0.1,0,0.1,0.1,0.1,0.1c0,0,0,0,0,0c0,0.1,0.1,0,0,0.1l0,0c0,0,0,0,0,0
						c0,0,0.3,0,0.3,0l0,0c0,0,0.1,0,0.1,0l0,0l0,0l0,0c0,0,0,0,0,0c0,0,0.1,0,0.1,0c0-0.1,0-0.2,0-0.3c0,0,0,0.1,0.1,0.1
						c0,0.1,0,0.1,0,0.2c0,0,0.1,0,0.1,0c0,0,0,0,0,0.1c0,0,0,0-0.1-0.1c0,0,0,0.1,0,0.1c0,0,0,0.1,0.1,0.1c-0.1,0,0,0,0,0.1
						c0,0,0,0,0,0c0.1,0,0-0.1,0.1-0.1c0,0,0,0.1,0,0.1c0,0,0,0,0,0c0,0,0.1,0,0,0.1c0,0,0,0,0,0c0,0-0.3-0.1-0.2-0.1
						c0,0,0.2,0.1,0.2,0.1c0,0,0.1,0,0.1,0l0,0c0,0,0-0.1,0.1-0.1c0,0-0.3-0.1-0.2,0l0,0c0,0,0.1,0,0,0.1c0,0,0,0,0.1,0l0,0
						c0,0,0,0,0.1,0c-0.1-0.1,0.3,0,0.3-0.2c0,0.1-0.1,0-0.1-0.1c0,0,0-0.1,0-0.1c0,0,0,0-0.1,0c0,0,0-0.1,0-0.1c-0.1,0,0-0.1,0-0.1
						c0,0,0,0,0,0c0,0-0.1-0.1-0.1-0.1c0,0,0-0.1,0.1-0.1c0,0.1-0.1,0,0,0.1c0-0.1,0.1,0,0.1,0c0,0,0-0.1-0.1-0.1l0,0
						c0,0-0.1-0.1-0.1-0.1c0,0,0,0,0.1,0l0,0c0,0,0,0,0,0c0,0,0,0-0.1-0.1c0,0-0.3-0.1-0.3-0.1c0,0,0-0.1-0.1-0.1
						c0,0,0.4,0.2,0.3,0.1c0-0.1-0.5-0.2-0.5-0.2c0,0-0.1,0-0.1,0c0,0,0,0,0-0.1c0,0,0,0,0,0l0,0c-0.1,0-0.2-0.1-0.3-0.1
						c0,0,0.1-0.1,0.1-0.1l0,0c0,0,0.1,0,0.1,0c0,0-0.1-0.1-0.2,0l0,0l0,0c0,0,0,0,0,0l0,0c0-0.1-0.2,0-0.3-0.1c0,0,0,0,0,0
						c-0.1,0-0.2-0.1-0.3-0.1c0,0,0,0,0,0.1l-0.1,0c0.1-0.1-0.2-0.1-0.1-0.2c0,0-0.1,0-0.1,0c0,0,0,0.1-0.1,0.1c-0.1,0-0.1,0-0.1,0
						c0,0,0,0,0-0.1c-0.1,0-0.1-0.1-0.2,0C207.5,24.2,207.4,24.2,207.3,24.2C207.3,24.3,207.3,24.3,207.3,24.2z"/>
				</g>
				<g>
					<path class="st0" d="M206.8,25.2L206.8,25.2c-0.1,0.1-0.3,0.2-0.5,0.3c0.5-0.1,0.9-0.1,1.1-0.6c0.1,0.2,0.5,0.2,0.5,0.2
						c0.1,0,0.2-0.1,0.2-0.1c-0.1,0-0.1,0-0.2,0c0.1,0,0.1,0,0.2,0c0.6-0.1,1.2,0.2,1.5,0.7c0.1,0.1,0.2,0.4,0.3,0.7
						c0.1,0.3,0,0.5,0,0.7c0,0,0,0.1,0,0.1c0-0.1,0-0.1,0.1-0.1c0,0.2,0,0.4,0,0.6c0,0,0.1,0,0.1-0.1c0,0,0,0.1-0.1,0.1
						c0,0.1-0.1,0.3-0.1,0.4c0,0-0.1,0-0.1,0.1l0,0c-0.2,0.2-0.4,0.4-0.6,0.6c0,0-0.1,0-0.1,0c-0.1,0.1-0.1,0.1-0.1,0.1
						c0-0.1-0.2,0-0.1-0.1c-0.2,0.1-0.4,0.1-0.5,0.3c-0.2,0.1-0.3,0.1-0.5,0.2c-0.1,0-0.2,0.1-0.2,0.1c-0.1,0-0.1,0-0.1,0
						c-0.3,0-0.6,0-0.9-0.1l0,0c-0.2,0-0.5,0-0.7-0.2c-0.2-0.1-0.5-0.3-0.6-0.3c-0.2-0.2-0.3-0.3-0.4-0.5c0,0.1-0.2-0.2-0.2-0.1
						c0,0.2,0.1,0.2,0.1,0.4l0,0c0.3,0.7,0.9,1.3,1.6,1.6c0.3,0.1,0.5,0.1,0.8,0.1c0.1,0,0.3,0,0.5,0c0.1,0,0.3-0.1,0.4-0.1
						c0.2-0.1,0.4-0.2,0.7-0.3c0.1,0,0.2-0.1,0.3-0.1l0.2-0.1c0.1,0,0.2-0.1,0.2-0.1c0.1-0.1,0.2-0.1,0.3-0.1c0.3-0.3,0.8-0.7,1-1.1
						l0,0c0.1-0.2,0.3-0.4,0.3-0.7c0,0,0,0,0-0.1c0,0,0.1-0.4,0.1-0.8c0-0.4-0.2-0.8-0.2-0.8c0,0,0-0.1,0-0.1
						c-0.1-0.5-0.4-1.1-0.8-1.4c-0.1,0-0.2-0.1-0.3-0.1c-0.1-0.1-0.1,0-0.2-0.1c-0.1-0.3-0.3-0.3-0.2-0.2c-0.2-0.1-0.4-0.1-0.6-0.2
						c-0.1,0-0.2,0-0.3,0c-0.1,0-0.1,0-0.1-0.1c-0.2,0-0.1,0-0.3-0.1c-0.1-0.1-0.5,0.1-0.5,0.1l0,0c-0.2,0-0.4-0.1-0.6,0
						c-0.6,0.1-1.2,0.5-1.6,0.9c0,0,0.1-0.1,0.1,0c-0.3,0.2-0.5,0.4-0.7,0.7c0,0-0.1,0.1-0.1,0.1c-0.1,0.1,0,0.1,0,0.1l-0.1,0
						c0,0.1-0.1,0.1-0.2,0.3c0,0,0,0.1,0,0.1c-0.1,0,0,0.1-0.1,0.1l0,0c0,0,0,0,0,0.1c0,0.1,0.1,0.5,0.1,0.6l0,0
						c0,0.1,0,0.1,0.1,0.1l0,0.1l0,0l0,0.1c0,0,0,0-0.1,0c0,0,0,0.1,0,0.1c0-0.1,0.1-0.3,0.2-0.4c0,0.1,0,0.1,0,0.2
						c0,0.1-0.1,0.2-0.1,0.3c0,0,0.1,0,0,0.1c0,0,0,0.1,0,0.1c0,0,0-0.1,0-0.2c-0.1,0,0,0.1,0,0.2c0,0,0,0.1,0.1,0.2
						c-0.1,0,0,0.1,0,0.1c0,0,0,0.1,0,0c0.1,0,0-0.2,0.1-0.1c0,0,0,0.1,0,0.1c0,0,0,0,0.1,0c0,0.1,0.1,0.1,0,0.1c0,0,0,0,0,0
						c0,0.1-0.3-0.3-0.3-0.2c0,0,0.3,0.3,0.3,0.3c0,0,0.1,0,0.1,0l0,0c0-0.1,0-0.1,0.1-0.1c0,0.1-0.3-0.2-0.2-0.1l0,0
						c0,0,0.1,0.1,0.1,0.2c0,0,0.1,0,0.1,0.1l0,0c0,0,0,0.1,0.1,0.1c-0.1-0.2,0.3,0,0.3-0.2c0,0.1-0.1,0-0.1-0.1c0,0,0-0.1,0-0.1
						c0-0.1,0,0,0,0c0,0,0-0.1,0-0.1c0,0,0-0.1,0-0.1c0,0,0,0,0,0c0-0.1,0-0.1,0-0.2c0,0,0.1-0.1,0.1,0c0,0.1-0.1,0-0.1,0.1
						c0.1,0,0,0.1,0.1,0.1c0,0,0-0.1,0-0.1l0,0c0,0,0-0.1,0-0.2c0,0,0,0,0.1,0l0-0.1c0,0,0,0,0,0c0,0,0-0.1,0-0.1c0,0-0.1-0.4,0-0.3
						c0,0,0.1,0,0-0.1c0,0,0,0.5,0,0.4c0,0,0-0.5,0-0.6c0,0,0-0.1,0-0.1c0-0.1,0,0,0.1,0c0,0,0,0,0,0l0,0c0-0.1,0.1-0.2,0.1-0.3
						c0,0,0,0.1,0,0.2l0,0c0,0,0,0.1,0,0.1c0,0,0.1-0.1,0.1-0.1l0,0l0,0c0,0,0,0,0,0l0,0c0.1,0,0.1-0.2,0.2-0.3c0,0,0,0,0-0.1
						c0.1-0.1,0.2-0.1,0.2-0.2c0,0,0-0.1-0.1-0.1l0.1,0c0,0.1,0.2,0,0.2,0.1c0,0,0.1,0,0.1-0.1c0,0,0-0.1,0-0.1c0.1,0,0.1,0,0.1,0
						c0,0,0,0,0,0.1c0-0.1,0.1,0,0.2,0c0,0,0.1-0.1,0.1-0.1C206.8,25.1,206.8,25.1,206.8,25.2z"/>
				</g>
			</g>
		</g>
		<g>
			<path class="st1" d="M207.7,29.6c0.5-0.2,1.1-0.3,1.6-0.5c-0.2,0.1-0.3,0.2-0.5,0.3C208.4,29.5,208,29.6,207.7,29.6z"/>
			<g>
				<g>
					<path class="st0" d="M208.5,29.9L208.5,29.9c0,0-0.1,0-0.1,0c0.2,0.1,0.3,0.3,0.3-0.1c0.1,0.2,0.2,0.3,0.2,0.2c0,0,0-0.1,0-0.1
						c0,0,0,0,0,0.1c0,0,0,0,0-0.1c0.1-0.2,0.2-0.2,0.4-0.1c0,0,0.1,0,0.1,0l-0.5-1.2c-0.1,0-0.2,0.1-0.3,0.1l0,0c0,0,0,0,0,0
						c0,0.1,0,0.1,0,0.2c0,0,0,0,0.1,0.1l0,0c0,0.1,0,0.1,0,0.1c0,0,0,0,0,0l0,0c0,0-0.1,0-0.1,0.1c0,0,0,0,0,0l0,0
						c0-0.1-0.1,0,0-0.1c0,0.1-0.1,0-0.1,0.1c-0.1,0-0.2,0.1-0.3,0.2l0,0c0,0-0.1,0.2-0.1,0.1c0,0.1-0.1,0.1-0.1,0.3
						c0,0-0.1,0.1-0.1,0.1c0,0.1,0,0.1,0,0.1c0,0.1,0,0,0.1,0.1l0,0c0.1,0.1,0.3,0.1,0.4,0.1c0.1-0.1,0.2,0,0.3-0.1
						c0.1,0,0.2-0.1,0.3-0.2c0,0,0,0,0.1,0c0.1,0,0.2-0.1,0.3-0.2l0,0c0,0,0.1,0,0.2,0c0,0,0,0,0,0c0.1,0.1,0.1-0.3,0.2-0.3
						c0,0,0,0,0,0c0,0,0,0,0,0l2.7,0.1l-3.1-0.9c-0.1,0-0.2-0.1-0.3-0.1c0,0,0,0.1,0,0.1c0,0,0,0,0,0c-0.1-0.1-0.1-0.1-0.1,0
						c0,0-0.1,0-0.1,0c0,0,0,0,0,0.1c0,0,0,0,0,0c0,0,0,0-0.1,0c0-0.1-0.1,0.1-0.1,0.1l0,0c0,0-0.1-0.1-0.1-0.1
						c-0.1,0-0.2,0.1-0.3,0.1c0,0.1,0,0,0,0.1c-0.1,0-0.1-0.1-0.2,0c0,0,0,0,0-0.1c0,0,0,0,0,0l0-0.1c0,0,0-0.1-0.1,0c0,0,0,0,0,0
						c0-0.1,0,0,0,0l0,0c0,0,0,0,0,0c0,0,0,0.2,0,0.2l0,0c0,0,0,0,0,0.1l0,0l0,0l0,0c0,0,0,0,0-0.1c0,0,0,0,0,0c0,0,0.1,0.1,0.1,0.1
						c0,0,0,0,0,0c0,0-0.1-0.1-0.1-0.1c0,0,0,0.1,0,0c0,0,0,0,0,0c0,0,0,0,0,0c0-0.1,0,0,0,0c0,0,0,0,0,0c0-0.1,0,0,0-0.1
						c0,0,0,0,0,0c0,0.1,0,0,0,0.1c0,0,0,0,0,0c0,0,0,0,0,0.1c0,0,0,0,0,0c0,0,0,0,0,0c0,0,0-0.2,0-0.2c0,0,0,0.2,0,0.2
						c0,0,0,0.1,0,0.1l0,0c0,0,0,0.1,0,0.1c0,0,0-0.2,0-0.2l0,0c0,0,0,0,0,0c0,0,0,0,0,0.1l0,0c0,0,0,0,0,0c0,0,0.1,0.3,0.1,0.3
						c0-0.1,0-0.1,0-0.1c0,0,0,0.1,0,0.1c0,0,0,0,0,0c0,0,0,0,0,0.1c0,0,0,0,0,0c0,0,0,0,0,0c0,0,0,0,0,0c0,0,0,0.1,0,0.1
						c0,0,0-0.1,0-0.1c0,0.1,0,0,0,0.1c0,0,0,0,0,0l0,0c0,0,0,0,0,0c0,0,0,0,0,0.1l0,0c0,0,0,0,0,0c0,0,0,0,0,0c0,0,0-0.1,0-0.1
						c0,0,0,0,0,0c0,0-0.1,0.1,0,0.1c0,0,0.1-0.2,0.1-0.1c0,0,0,0,0,0c0,0,0,0.1,0,0.1l0,0l0,0c0,0,0,0,0-0.1c0,0,0,0.1,0,0.1l0,0
						c0,0,0,0,0,0c0,0,0,0,0,0l0,0l0,0c0,0,0,0,0,0l0,0c0,0.1,0-0.1,0.1,0c0,0,0,0,0,0c0,0,0.1,0,0.1,0.1c0,0,0-0.1,0-0.1l0,0
						c0,0.1,0.1,0.1,0.1,0.2c0,0,0,0,0,0c0,0,0-0.1,0-0.1c0,0,0,0,0,0c0,0,0,0,0,0.1C208.4,29.8,208.5,29.9,208.5,29.9
						C208.5,29.9,208.5,29.8,208.5,29.9C208.5,29.8,208.5,29.8,208.5,29.9z"/>
				</g>
			</g>
		</g>
		<g>
			<path class="st1" d="M201.1,32.2c-0.1,0-0.3,0-0.4,0.1c0.2-0.1,0.4-0.1,0.6-0.2C201.3,32.1,201.2,32.1,201.1,32.2z"/>
			<g>
				<g>
					<path class="st0" d="M200.8,31.7L200.8,31.7C200.8,31.7,200.8,31.7,200.8,31.7L200.8,31.7L200.8,31.7
						C200.8,31.5,200.9,31.4,200.8,31.7c0-0.1,0-0.2,0-0.2C200.8,31.5,200.8,31.6,200.8,31.7c0-0.1,0-0.1,0-0.1
						C200.8,31.6,200.8,31.6,200.8,31.7C200.8,31.8,200.9,31.7,200.8,31.7c0-0.1,0-0.2,0-0.2l0,0c0,0,0,0,0,0
						C200.9,31.5,200.9,31.6,200.8,31.7c0.1-0.1,0.1,0,0.1,0l0,0c0,0.1,0,0.1,0.1,0.1c0,0,0,0,0-0.1l0,0c0,0,0,0,0,0c0,0,0,0,0,0
						l0,0c0,0,0,0,0-0.1c0,0.1,0,0,0.1,0.1c0.1,0,0,0.1,0,0.2l0,0c0,0,0.1,0.2,0,0.1c0,0.1,0,0.1,0.1,0.2c0,0,0,0.1,0,0.1
						c0,0.1,0,0.1,0,0.1c0.1,0.1,0,0,0.1,0.1l0,0c0.1,0,0.3,0,0.3,0c0-0.1,0.1-0.1,0.1-0.1c0,0-0.2-0.1-0.2-0.1c0,0,0,0,0,0
						c-0.1,0-0.1,0-0.2,0l0,0c0,0,0,0-0.1,0c0,0,0,0,0,0c0,0-0.2-0.1-0.2-0.1l0,0c0,0-0.1,0.1-0.1,0.1c0,0,0,0,0,0c0,0,0,0,0,0
						c0,0,0,0,0,0c0,0,0,0-0.1,0l0,0c0,0,0,0,0,0c0,0,0,0,0,0c0,0-0.1,0,0,0l0,0c0,0,0,0.1,0,0.1c0.2,0.5,0.1,0.4,0.1,0.4
						c0,0,0,0,0,0c0-0.1,0,0,0-0.1c0,0,0.1,0.1,0.1,0.1c0,0,0,0,0,0.1c0,0,0,0,0,0l0,0.1c0,0,0,0.1,0,0c0,0,0,0,0,0c0,0.1,0,0,0,0
						l0,0c0,0,0,0,0,0c0,0,0-0.2,0-0.2l0,0c0,0,0,0,0-0.1l0,0l0,0l0,0c0,0,0,0,0,0.1c0,0,0,0,0,0c0,0-0.1-0.1-0.1-0.1c0,0,0,0,0,0
						c0,0,0,0.1,0.1,0.1c0,0,0-0.1,0,0c0,0,0,0,0,0c0,0,0,0,0,0c0,0.1,0,0,0,0c0,0,0,0,0,0c0,0.1,0,0,0,0.1c0,0,0,0,0,0
						c0-0.1,0,0,0-0.1c0,0,0,0,0,0c0,0,0,0,0,0c0,0,0,0,0,0c0,0,0,0,0,0c0,0,0,0.2,0,0.2c0,0,0-0.2,0-0.2c0,0,0-0.1,0-0.1l0,0
						c0,0,0-0.1,0-0.1c0,0,0,0.2,0,0.2l0,0c0,0,0,0,0,0c0,0,0,0,0-0.1l0,0c0,0,0,0,0,0c0,0-0.1-0.3-0.1-0.3c0,0.1,0,0.1,0,0.1
						c0,0,0-0.1,0-0.1c0,0,0,0,0,0c0,0,0,0,0-0.1c0,0,0,0,0,0c0,0,0,0,0,0c0,0,0,0,0,0c0,0,0-0.1,0-0.1c0,0,0,0.1,0,0.1
						c0-0.1,0,0,0-0.1c0,0,0,0,0,0l0,0c0,0,0,0,0,0c0,0,0,0,0-0.1l0,0l0,0c0,0,0,0,0,0c0,0,0,0.1,0,0.1c0,0,0,0,0,0c0,0,0-0.1,0-0.1
						c0,0,0,0.1,0,0.1c0,0,0,0,0,0c0,0,0-0.1,0-0.1l0,0l0,0c0,0,0,0,0,0c0,0,0-0.1,0-0.1l0,0c0,0,0,0,0,0c0,0,0,0,0,0l0,0l0,0
						c0,0,0,0,0,0l0,0c0-0.1,0,0.1,0,0c0,0,0,0,0,0c0,0,0-0.1,0-0.1c0,0,0,0.1,0,0.1l0,0c0-0.1,0-0.1,0-0.2c0,0,0,0,0,0
						c0,0,0,0.1,0,0.1c0,0,0,0,0-0.1C200.9,31.8,200.9,31.8,200.8,31.7C200.9,31.8,200.8,31.7,200.8,31.7
						C200.8,31.7,200.8,31.7,200.8,31.7C200.8,31.8,200.8,31.7,200.8,31.7z"/>
				</g>
			</g>
		</g>
		<g>
			<path class="st1" d="M202.6,28.9c-0.4-1.2-1.8-1.7-3.1-1.2c-1.3,0.5-2,1.8-1.6,3c0.4,1,1.5,1.5,2.7,1.3c-0.3,0.1-0.7,0.3-1,0.4
				c-0.9-0.1-1.7-0.7-2.1-1.5c-0.5-1.3,0.3-2.9,1.8-3.4c1.5-0.6,3.1,0.1,3.6,1.4c0.3,0.9,0,1.8-0.6,2.6c-0.3,0.1-0.7,0.2-1,0.4
				C202.4,31.1,203,29.9,202.6,28.9z"/>
			<g>
				<g>
					<path class="st0" d="M197.2,30l0,0.2c-0.1-0.5,0.1-1.1,0.3-1.5c-0.3,0.4-0.6,1.1-0.4,1.8c0.1,0.6,0.5,1.2,1,1.3
						c0,0.1,0.2,0.4,0.4,0.6c0.3,0.2,0.5,0.3,0.6,0.3c0.2,0,0.5,0,0.7,0c-0.2,0-0.3,0-0.5,0c0.2,0,0.3,0,0.5,0
						c0.3,0,0.6-0.1,0.9-0.1l-0.3-1.1c-0.2,0.1-0.5,0.2-0.7,0.3c-0.2,0.1-0.1,0.1-0.4,0c-0.4-0.1-0.8-0.4-1-0.7
						c-0.2-0.2-0.3-0.7-0.3-1.2c0.1-0.5,0.4-0.9,0.6-1.1c0.1-0.1,0.1-0.1,0.2-0.2c-0.1,0.1-0.1,0.1-0.2,0.2c0.2-0.3,0.5-0.5,0.7-0.7
						c-0.1,0-0.1,0-0.2,0c0.1,0,0.1,0,0.2-0.1c0.1-0.2,0.5-0.3,0.6-0.3c0,0,0.1,0,0.2,0l-0.1,0c0.5,0,1,0,1.4,0.2
						c0.1,0,0.1,0.1,0.1,0.1c0.1,0.1,0.2,0.1,0.3,0.2c-0.1,0,0.2,0.3,0,0.2c0.3,0.1,0.4,0.4,0.5,0.6c0.2,0.4,0.2,1,0,1.5
						c-0.1,0.2-0.3,0.5-0.4,0.7c-0.1,0.1-0.5,0.2-0.7,0.3l0,0c-0.1,0-0.2,0.1-0.3,0.1l0.2,0.3c0.3-0.2,0.5-0.5,0.8-0.8
						c0.2-0.3,0.4-0.9,0.3-1c0.1-0.4,0-0.6-0.1-0.9c0,0.1-0.2-0.3-0.2-0.1c0,0.2,0.1,0.2,0,0.4l0,0c0,0.7-0.5,1.4-1.2,1.7l0.5,1.1
						l0.5-0.2c0.1,0,0.2-0.1,0.3-0.1c0.1-0.1,0.3-0.1,0.4-0.2c0.1-0.1,0.2-0.3,0.3-0.4c0.1-0.1,0.1-0.2,0.2-0.3
						c0.2-0.4,0.4-0.9,0.5-1.4c0.1-1.1-0.6-2.2-1.4-2.6c-0.2-0.1-0.3-0.2-0.4-0.3c-0.7-0.3-1.8-0.4-2.6-0.1l0,0
						c-0.4,0.1-0.8,0.2-1.1,0.5c0,0,0,0.1-0.1,0.1c-0.1,0-0.6,0.4-0.9,1.1c-0.3,0.6-0.3,1.3-0.3,1.4c0,0.1,0,0.1,0,0.1
						c0,0.5,0.1,1,0.3,1.4c0.2,0.4,0.6,0.8,0.9,1c0.2,0.1,0.4,0.1,0.5,0.1c0.1,0.1,0.2,0,0.3,0.1c0.2,0.1,0.5,0.3,0.6,0.2
						c0.1-0.1,0.1-0.1,0-0.1c0.2-0.1,0.4-0.1,0.5-0.2c0.1-0.1,0.3-0.1,0.4-0.2l0.1-0.1l-0.2-0.9c-0.1,0-0.1,0-0.2,0.1
						c-0.1,0-0.1,0-0.2,0c-0.2,0-0.2,0-0.4-0.1c0,0-0.6-0.1-0.7-0.1l0,0c-0.2-0.1-0.3-0.3-0.4-0.5c-0.4-0.5-0.3-1.4,0.1-1.9
						c0,0-0.1,0.1-0.1,0.1c0.2-0.3,0.6-0.5,1-0.7c0.1,0,0.2,0,0.2,0c0.1,0,0.1-0.1,0.2-0.1l0,0.1c0.1-0.1,0.2,0,0.3,0c0,0,0,0,0.1,0
						c0,0.1,0.1,0,0.1,0l0,0c0,0,0,0,0.1,0c0,0,0.5-0.1,0.6-0.1l0,0c0.1,0,0.1,0,0.1,0l0.1,0l0,0l0.1,0c0,0,0,0,0,0.1
						c0.1,0,0.1,0,0.1,0.1c-0.1-0.1-0.2-0.2-0.3-0.3c0.1,0,0.2,0.1,0.2,0.1c0.1,0.1,0.2,0.2,0.3,0.3c0,0,0.1,0,0.1,0
						c0,0.1,0,0,0.1,0.1c-0.1,0-0.1-0.1-0.1-0.1c0,0,0.1,0.1,0.1,0.2c0,0,0.1,0.1,0.1,0.1c-0.1,0,0,0.1,0,0.1c0,0,0,0.1,0.1,0
						c0.1,0-0.1-0.2,0-0.2c0,0,0,0.1,0.1,0.1c0,0,0,0,0,0c0,0.1,0.1,0.1,0.1,0.1c0,0,0,0,0,0c0,0-0.4-0.2-0.3-0.2
						c0-0.1,0.3,0.3,0.3,0.2c0,0,0.1,0,0.1,0l-0.1,0c0-0.1,0-0.1,0.1-0.1c0,0.1-0.3-0.2-0.3-0.1l0,0c0,0,0.1,0.1,0.1,0.1
						c0,0,0.1,0,0.1,0.1l0,0c0,0,0.1,0.1,0.1,0.1c-0.1-0.3,0.4,0.1,0.3-0.2c0,0.1-0.1,0-0.1-0.1c0,0,0-0.1,0-0.2
						c-0.1-0.1-0.1,0-0.1,0c0,0-0.1-0.1,0-0.1c-0.1,0-0.1-0.1-0.1-0.1c-0.1,0,0,0-0.1,0c-0.1-0.1-0.2-0.2-0.3-0.2c0,0-0.1-0.1,0-0.2
						c0.1,0.1-0.1,0,0.1,0.1c0-0.1,0.1,0.1,0.2,0.1c0-0.1-0.1-0.1-0.2-0.2l0,0c-0.1,0-0.2-0.1-0.3-0.2c0,0,0-0.1,0.1,0l-0.1-0.1
						c0,0,0,0,0,0c-0.1,0-0.1,0-0.1-0.1c0-0.1-0.7,0-0.6,0c-0.1,0-0.1,0-0.2,0c0,0,0.2,0,0.4,0c0.2,0,0.4,0,0.3,0c0,0-0.3-0.1-0.5,0
						c-0.2,0-0.5,0.1-0.5,0c-0.1,0-0.1,0-0.1,0.1c-0.1,0,0-0.1-0.1-0.1c0,0,0,0,0,0l-0.1,0c-0.2,0.1-0.4,0.1-0.6,0.2
						c0,0,0.1-0.1,0.2-0.2l0,0c0,0,0.1-0.1,0.1-0.1c-0.1,0-0.2,0-0.3,0.1l-0.1,0l0,0c0,0,0,0,0,0l0,0c-0.1-0.1-0.4,0.2-0.6,0.3
						c0,0,0,0,0,0.1c-0.2,0.1-0.3,0.2-0.5,0.3c0,0.1,0,0.1,0.1,0.1c0,0-0.1,0.1-0.1,0.1c0-0.2-0.3,0.2-0.2,0c-0.1,0-0.1,0.1-0.1,0.2
						c0,0,0,0.1,0,0.2c-0.1,0.1-0.1,0.1-0.2,0.2c0,0,0,0-0.1,0c0,0.2-0.1,0.2-0.2,0.4c0,0.1,0,0.4,0,0.4C197.3,30,197.3,30,197.2,30
						z"/>
				</g>
			</g>
		</g>
		<g>
			<path class="st1" d="M200.6,31.9c0.1,0,0.3,0,0.4-0.1c0.1,0,0.2-0.1,0.3-0.2c0.3-0.1,0.7-0.2,1-0.4c-0.3,0.3-0.6,0.6-1,0.7
				c-0.2,0.1-0.4,0.1-0.6,0.2c-0.4,0.1-0.8,0.1-1.2,0C199.9,32.2,200.2,32,200.6,31.9z"/>
			<g>
				<g>
					<path class="st0" d="M202,32L202,32c0,0-0.1,0-0.2,0c0.2,0.1,0.5,0.2,0.5-0.2c0.1,0.2,0.3,0.2,0.3,0.2l0,0l-0.7-1.1
						c0,0,0,0.1,0,0.1c0,0,0-0.1,0-0.1c0,0,0,0.1,0,0.1c0,0.3-0.2,0.4-0.5,0.4c-0.1,0-0.2,0.1-0.3,0.1c0,0,0,0,0,0l-0.1,0
						c-0.1,0-0.1,0-0.2,0c0,0,0,0-0.1,0c0,0,0,0,0.1,0c-0.1,0.1-0.1,0.2-0.2,0.2c0,0,0,0.1,0.1,0.1l0,0c0,0.1,0,0.1-0.1,0.1
						c0,0,0,0-0.1-0.1l0,0c-0.1,0-0.2,0.1-0.3,0.1c0,0,0,0,0,0l-0.1,0c0-0.1-0.1-0.1,0-0.1c-0.1,0.1-0.1,0-0.2,0.1
						c-0.1,0-0.2,0-0.3,0l0.1,0.7c0.1-0.1,0.2-0.1,0.3-0.2l0,0c0.1-0.1,0.1-0.2,0.2-0.2c0-0.1,0.1-0.2,0.1-0.3
						c0.1,0,0.1-0.1,0.2-0.2c0-0.1,0.1-0.1,0-0.1c-0.1-0.1-0.1,0-0.1,0l0,0c-0.2,0-0.5,0-0.7,0.1c-0.1,0.1-0.2,0.1-0.3,0.1l-2.2,0.7
						l2.3,0.4c0.1,0,0.1,0,0.2,0c0.2,0,0.4,0,0.6-0.1c0,0,0.1,0,0.1,0.1c0.2,0,0.3,0,0.5-0.1c0,0,0,0,0,0c0.1,0,0.2,0,0.2,0
						c0,0,0,0,0,0c0,0.1,0.4-0.3,0.5-0.3c0,0,0,0,0,0c0.2,0,0.4,0,0.6-0.1c0-0.1,0-0.1,0-0.2c0,0,0,0,0-0.1c0.2,0.1,0.2,0,0.1,0
						c0-0.1,0.1-0.1,0.1-0.1c0,0,0-0.1,0-0.1c0,0,0,0,0.1,0c0-0.1,0,0,0.1-0.1c0,0,0,0,0,0l0.9-2.1l-1.4,1.3c0,0-0.1,0.1-0.1,0.1
						l0,0c-0.1,0-0.1-0.1-0.2-0.1c-0.2,0-0.4,0.1-0.5,0.2c0,0.1,0,0,0.1,0.1c-0.1,0-0.2,0-0.4,0c0,0-0.1,0-0.1,0c0,0,0,0,0,0l0,0
						c0,0.1-0.1,0-0.1,0c0,0,0,0,0,0c0-0.1,0,0,0,0l0,0c0,0,0,0,0,0c0,0,0,0.2,0,0.2l0,0c0,0,0,0,0,0.1l0,0l0,0l0,0c0,0,0,0,0-0.1
						c0,0,0,0,0,0c0,0,0.1,0.1,0.1,0.1c0,0,0,0,0,0c0,0-0.1-0.1-0.1-0.1c0,0,0,0.1,0,0c0,0,0,0,0,0c0,0,0,0,0,0c0-0.1,0,0-0.1,0
						c0,0,0,0-0.1,0c0-0.1,0,0,0-0.1c0,0,0,0,0,0c0,0.1,0.1,0,0.1,0.1c0,0,0,0-0.1,0c0,0,0,0,0,0.1c0,0,0,0-0.1,0c0,0,0,0,0,0
						c0,0,0.1-0.2,0.1-0.2c0,0-0.1,0.2-0.1,0.2c0,0,0,0.1,0,0.1l0,0c0,0,0,0.1,0,0.1c0,0,0.1-0.2,0-0.2l0,0c0,0,0,0-0.1,0
						c0,0,0,0,0,0.1l0,0c0,0,0,0,0,0.1c0.1,0,0,0.3,0.1,0.3c0-0.1,0-0.1,0-0.1c0,0,0,0.1,0,0.1c0,0,0,0,0,0c0,0,0,0,0,0.1
						c0,0,0,0,0,0c0,0,0,0,0,0c0,0,0.1,0,0.1,0c0,0,0,0.1,0,0.1c0,0,0-0.1,0-0.1c0,0.1,0,0,0,0.1c0,0,0,0,0.1,0l0,0c0,0,0,0,0.1,0
						c0,0,0,0,0,0.1l0,0c0,0,0,0,0,0c0,0,0,0,0,0c0,0,0.1-0.2,0.1-0.1c0,0,0,0,0,0c0,0-0.1,0.2-0.1,0.1c0,0,0.1-0.2,0.2-0.2
						c0,0,0,0,0,0c0,0,0,0.1,0,0.1l0,0l0,0c0-0.1,0.1,0,0.1-0.1c0,0,0,0.1,0,0.1l0,0c0,0,0,0,0,0.1c0,0,0,0,0,0l0,0l0,0c0,0,0,0,0,0
						l0,0c0,0.1,0-0.1,0.1,0c0,0,0,0,0,0c0,0,0.1,0,0.1,0c0,0,0-0.1,0-0.1l0,0c0,0.1,0.1,0.1,0.1,0.2c0,0,0,0,0,0c0,0,0-0.1,0-0.1
						c0,0,0,0,0.1,0c0,0,0,0,0,0.1C201.9,31.9,201.9,32,202,32C201.9,32,202,32,202,32C202,31.9,202,32,202,32z"/>
				</g>
			</g>
		</g>
		<g>
			<path class="st3" d="M201.3,31.7c-0.1,0.1-0.2,0.1-0.3,0.2c-0.1,0.1-0.3,0-0.4,0.1C200.8,31.8,201.1,31.7,201.3,31.7z"/>
			<g>
				<g>
					<path class="st0" d="M200.8,31.3L200.8,31.3C200.8,31.3,200.8,31.3,200.8,31.3C200.7,31.2,200.7,31,200.8,31.3
						c-0.1-0.1-0.1-0.2-0.1-0.2C200.7,31.2,200.7,31.2,200.8,31.3c-0.1-0.1-0.1-0.1-0.1-0.1C200.7,31.2,200.7,31.2,200.8,31.3
						c-0.1,0.1-0.2,0-0.3,0c0,0-0.1,0-0.1,0l0.4,1.3c0,0,0.1,0,0.1,0.1l0,0c0,0,0,0,0,0c0-0.1,0-0.1,0-0.2c0,0,0-0.1,0-0.1l0,0
						c0-0.1,0-0.1,0-0.1c0,0,0,0.1,0,0.1l0,0c0,0,0.1,0,0.1,0c0,0,0,0,0,0l0,0c0,0.1,0,0,0,0.1c0-0.1,0,0,0-0.1
						c0.1,0,0.1-0.1,0.1-0.2l0,0c0,0,0-0.2,0-0.1c0-0.1,0-0.1,0-0.3c0,0,0-0.1,0-0.1c0-0.1,0-0.1,0-0.1c0-0.1,0,0-0.1-0.1l0,0
						c-0.1-0.1-0.2-0.1-0.2-0.1c0,0.1-0.1,0-0.1,0.1C200.8,31.2,200.7,31.3,200.8,31.3c-0.1,0-0.1,0-0.1,0c0,0-0.1,0-0.1,0.1l0,0
						c0,0-0.1,0-0.1,0c0,0,0,0,0,0c0-0.1-0.1,0.2-0.1,0.2l0,0l0,0l0,0l0.2,0.8l0,0l0,0c0,0,0.1,0.2,0.1,0.2c0,0,0-0.1,0-0.1
						c0,0,0,0,0,0c0,0.2,0,0.1,0,0c0,0,0,0,0.1,0l0,0c0,0,0,0,0,0c0,0,0,0,0,0c0,0.1,0-0.1,0.1-0.1l0,0c0,0,0.1,0.1,0.1,0.1
						c0.1,0,0.2-0.1,0.2-0.1c0-0.1,0,0,0-0.1c0,0,0.1,0,0.1,0c0,0,0,0,0,0.1c0,0,0,0,0,0l0,0.1c0,0,0,0,0,0c0,0,0,0,0,0
						c0,0.1,0,0,0,0l0,0c0,0,0,0,0,0c0,0,0-0.2,0-0.2l0,0c0,0,0,0,0-0.1l0,0l0,0l0,0c0,0,0,0,0,0.1c0,0,0,0,0,0c0,0-0.1-0.1-0.1-0.1
						c0,0,0,0,0,0c0,0,0,0.1,0.1,0.1c0,0,0-0.1,0,0c0,0,0,0,0,0c0,0,0,0,0,0c0,0,0,0,0,0c0,0,0,0,0,0c0,0,0,0,0,0c0,0,0,0,0,0
						c0-0.1,0,0-0.1-0.1c0,0,0,0,0,0c0,0,0,0,0,0c0,0,0,0,0,0c0,0,0,0,0,0c0,0,0.1,0.2,0.1,0.2c0,0-0.1-0.2-0.1-0.2c0,0,0,0,0-0.1
						l0,0c0,0,0-0.1,0-0.1c0,0,0.1,0.2,0.1,0.2l0,0c0,0,0,0,0,0c0,0,0,0,0,0l0,0c0,0,0,0,0,0c0,0-0.1-0.3-0.2-0.3c0,0.1,0,0.1,0,0.1
						c0,0,0,0,0-0.1c0,0,0,0,0,0c0,0,0,0,0-0.1c0,0,0,0,0,0c0,0,0,0,0,0c0,0,0,0,0,0c0,0,0-0.1-0.1-0.1c0,0,0,0.1,0,0.1
						c0-0.1,0,0,0-0.1c0,0,0,0,0,0l0,0c0,0,0,0,0,0c0,0,0,0,0,0l0,0c0,0,0,0,0,0c0,0,0,0,0,0c0,0,0,0.1,0,0.1c0,0,0,0,0,0
						c0,0,0-0.1,0-0.1c0,0,0,0.2,0,0.1c0,0,0,0,0,0c0,0,0-0.1,0-0.1l0,0l0,0c0,0,0,0,0,0.1c0,0,0-0.1,0-0.1l0,0c0,0,0,0,0,0
						c0,0,0,0,0,0l0,0l0,0c0,0,0,0,0,0l0,0c0-0.1,0,0.1,0,0c0,0,0,0,0,0c0,0,0,0-0.1-0.1c0,0,0,0,0,0.1l0,0c0-0.1,0-0.1-0.1-0.2
						c0,0,0,0,0,0c0,0,0,0.1,0,0.1c0,0,0,0,0,0C200.9,31.4,200.9,31.4,200.8,31.3C200.9,31.4,200.8,31.3,200.8,31.3
						C200.8,31.3,200.8,31.4,200.8,31.3C200.8,31.4,200.8,31.4,200.8,31.3z"/>
				</g>
			</g>
		</g>
		<g>
			<path class="st1" d="M191.7,30.1c1.5-0.6,3.1,0.1,3.6,1.4c0.5,1.3-0.3,2.9-1.8,3.4c-1.5,0.6-3.1-0.1-3.6-1.4
				C189.4,32.2,190.2,30.7,191.7,30.1z M193.4,34.6c1.3-0.5,2-1.8,1.6-3c-0.4-1.2-1.8-1.7-3.1-1.2c-1.3,0.5-2,1.8-1.6,3
				C190.7,34.6,192.1,35.1,193.4,34.6z"/>
			<g>
				<path class="st2" d="M191.7,30.1c1.5-0.6,3.1,0.1,3.6,1.4c0.5,1.3-0.3,2.9-1.8,3.4c-1.5,0.6-3.1-0.1-3.6-1.4
					C189.4,32.2,190.2,30.7,191.7,30.1z M193.4,34.6c1.3-0.5,2-1.8,1.6-3c-0.4-1.2-1.8-1.7-3.1-1.2c-1.3,0.5-2,1.8-1.6,3
					C190.7,34.6,192.1,35.1,193.4,34.6z"/>
				<g>
					<path class="st0" d="M195.6,32L195.6,32c0.1,0.2,0,0.4,0,0.7c0.1-0.3,0.2-0.6,0.1-0.9c-0.1-0.3-0.2-0.6-0.5-0.7
						c0.2-0.2-0.1-0.7-0.2-0.6c-0.1-0.1-0.2-0.1-0.3-0.2c0.1,0,0.1,0.1,0.2,0.1c-0.1,0-0.1-0.1-0.2-0.1c-0.7-0.3-1.4-0.6-2.2-0.6
						c-0.2,0-0.6,0.1-1,0.2c-0.4,0.1-0.8,0.4-1,0.5c-0.1,0-0.1,0.1-0.2,0.1c0.1-0.1,0.1-0.1,0.2-0.1c-0.2,0.2-0.3,0.5-0.4,0.7
						c0.1,0,0.1,0,0.2-0.1l-0.1,0.1c0,0.1-0.1,0.4-0.1,0.5c0,0-0.1,0-0.1,0.1l0,0c-0.1,0.3-0.2,0.7-0.2,1c0,0,0,0.1,0,0.1l0.1,0.3
						c-0.1,0,0,0.2-0.1,0.1c0.1,0.2,0.1,0.4,0.3,0.6c0.3,0.6,1,1.1,1.6,1.2l0,0c0.2,0,0.4,0,0.7,0c0.2-0.1,0.5-0.1,0.5-0.3
						c0.2,0,0.3-0.1,0.4-0.2c-0.1,0,0.1-0.1,0-0.1c-0.1,0-0.1,0-0.2,0l0,0c-0.5,0-0.9-0.1-1.3-0.2c-0.3,0-0.5-0.3-0.7-0.4
						c-0.2-0.2-0.4-0.5-0.4-0.8c0-0.1,0-0.1,0.1-0.2c0-0.2,0.1-0.5,0.2-0.8c0,0,0,0,0,0c0.1-0.1,0.2-0.2,0.3-0.3c0,0,0,0,0,0
						c0,0,0.2-0.2,0.3-0.3c0.2-0.2,0.4-0.3,0.4-0.3c0,0,0,0,0,0c0.3-0.1,0.7,0,1,0c0.1,0,0.1-0.1,0.2-0.1c0,0,0.1,0,0.1,0
						c0.1,0.2,0.2,0.2,0.1,0.1c0.1,0,0.2,0.1,0.3,0.1c0,0,0.1,0,0.2,0c0,0,0.1,0,0,0.1c0.1,0,0.1,0.1,0.1,0.1c0,0.1,0.3,0.1,0.3,0.2
						l0,0c0.1,0.1,0,0.2,0.1,0.3c0.1,0.3,0.2,0.7,0.1,1c0.1,0,0-0.1,0.1-0.1c0,0.2-0.2,0.3-0.3,0.5c0,0-0.1,0-0.1,0c0,0,0,0,0,0.1
						l0,0c0,0.1-0.1,0-0.1,0.1c0,0,0,0,0,0c0,0,0,0-0.1,0l0,0c0,0,0,0,0,0c0,0-0.1,0.3-0.1,0.3l0,0c0,0,0,0.1,0,0.1l0,0l0,0l0,0
						c0,0,0,0,0,0c0,0,0,0.1-0.1,0.1c0.1,0,0.2,0,0.3,0c0,0-0.1,0-0.1,0.1c-0.1,0-0.1,0-0.2,0c0,0,0,0.1,0,0.1c0,0,0,0-0.1,0
						c0,0,0,0,0.1-0.1c0,0-0.1,0-0.1,0c0,0-0.1,0-0.1,0.1c0-0.1,0,0-0.1,0c0,0,0,0,0,0c0,0.1,0.1,0,0.1,0.1c0,0-0.1,0-0.1,0
						c0,0,0,0,0,0c0,0,0,0.1-0.1,0c0,0,0,0,0,0c0,0,0.1-0.3,0.1-0.2c0,0-0.1,0.3-0.1,0.2c0,0,0,0.1,0,0.1l0,0c0,0,0.1,0,0.1,0.1
						c-0.1,0,0.1-0.3,0-0.2l0,0c0,0-0.1,0.1-0.1,0c0,0,0,0,0,0.1l0,0c0,0-0.1,0,0,0.1c0.1-0.1,0,0.3,0.2,0.3c-0.1,0,0-0.1,0.1-0.1
						c0,0,0.1,0,0.1,0c0,0,0,0,0-0.1c0,0,0.1,0,0.1,0c0-0.1,0.1,0,0.1,0c0,0,0,0,0,0c0,0,0.1,0,0.2-0.1c0,0,0.1,0,0.1,0.1
						c-0.1,0,0-0.1-0.1,0c0.1,0-0.1,0.1,0,0.1c0,0,0.1,0,0.1-0.1l0,0c0,0,0.1-0.1,0.2-0.1c0,0,0,0,0,0.1l0.1,0c0,0,0,0,0,0
						c0,0,0,0,0.1,0c0,0,0.2-0.3,0.2-0.3c0,0,0.1,0,0.1-0.1c0,0-0.2,0.4-0.2,0.3c0.1,0,0.2-0.4,0.3-0.4c0,0,0-0.1,0-0.1
						c0,0,0,0,0.1,0c0,0,0,0,0,0l0.1,0c0-0.1,0.1-0.2,0.1-0.3c0,0,0,0.1,0,0.2l0,0c0,0,0,0.1,0,0.1c0,0,0.1-0.1,0.1-0.1l0,0l0,0
						c0,0,0,0,0,0l0,0c0.1,0,0.1-0.2,0.1-0.3c0,0,0,0,0,0c0.1-0.1,0.1-0.2,0.2-0.3c0,0,0,0-0.1,0l0-0.1c0.1,0.1,0.1-0.1,0.2,0
						c0,0,0-0.1,0-0.1c0,0-0.1,0-0.1-0.1c0-0.1,0-0.1,0.1-0.1c0,0,0,0,0.1,0c0-0.1,0.1-0.1,0.1-0.2C195.6,32.2,195.6,32.1,195.6,32
						C195.5,32,195.5,32,195.6,32z"/>
				</g>
				<g>
					<path class="st0" d="M194.7,31.4L194.7,31.4c-0.1-0.1-0.2-0.3-0.3-0.4c0.2,0.4,0.2,0.8,0.6,1c-0.2,0.1-0.3,0.4-0.2,0.4
						c0,0.1,0.1,0.2,0.1,0.2c0-0.1,0-0.1,0-0.2c0,0.1,0,0.1,0,0.2c0.1,0.6-0.4,1.1-1,1.4c-0.1,0.1-0.4,0.2-0.8,0.3
						c-0.3,0.1-0.6,0.1-0.8,0c0,0-0.1,0-0.1,0c0.1,0,0.1,0,0.2,0c-0.2,0.1-0.4,0.1-0.6,0.1c0,0,0,0.1,0.1,0.1l-0.1,0
						c-0.1,0.1-0.3,0-0.4,0c0,0,0-0.1-0.1-0.1l0,0c-0.2-0.1-0.5-0.3-0.6-0.5c0,0,0-0.1,0-0.1l-0.2-0.2c0.1,0,0-0.2,0-0.1
						c-0.1-0.1-0.2-0.3-0.3-0.4c-0.2-0.5-0.1-1.2,0.1-1.8l0,0c0.1-0.2,0.1-0.5,0.4-0.6c0.1-0.2,0.3-0.4,0.3-0.6
						c0.2-0.1,0.3-0.3,0.5-0.4c-0.1,0,0.2-0.2,0.1-0.2c-0.2,0-0.2,0.1-0.4,0.1l0,0c-0.7,0.2-1.3,0.7-1.7,1.4c-0.2,0.5-0.4,1-0.4,1.6
						c0,0.6,0.3,1.2,0.7,1.6c0.1,0.1,0.1,0.2,0.1,0.3c0.3,0.3,0.8,0.7,1.3,0.8l0,0c0.3,0.1,0.4,0.2,0.7,0.2c0,0,0,0,0.1,0
						c0,0.1,0.4,0,0.8,0c0.4-0.1,0.7-0.3,0.8-0.2c0,0,0.1,0,0.1,0c0.5-0.1,1.1-0.3,1.4-0.6c0-0.1,0.1-0.2,0.1-0.3
						c0.1,0,0-0.1,0.1-0.2c0.3-0.1,0.3-0.3,0.2-0.2c0.1-0.2,0.2-0.4,0.3-0.5c0-0.1,0-0.2,0.1-0.3c0-0.1,0-0.1,0.1-0.1
						c0-0.2,0.1-0.1,0.1-0.3c0.1,0,0-0.5,0-0.6l0,0c0-0.2,0.1-0.4,0-0.6c-0.1-0.7-0.6-1.3-1.1-1.6c0,0,0.1,0.1,0.1,0.1
						c-0.3-0.2-0.5-0.5-0.9-0.6c-0.1,0-0.1-0.1-0.1-0.1c-0.1-0.1-0.1,0-0.2,0l0-0.1c-0.1,0-0.2-0.1-0.3-0.1c0,0-0.1,0-0.1,0
						c0-0.1-0.1,0-0.1-0.1l0,0c0,0,0,0-0.1,0c-0.1,0-0.5,0.2-0.5,0.2l0,0c-0.1,0-0.1,0-0.1,0.1l-0.1,0l0,0c0,0-0.1,0-0.1,0
						c0,0,0,0,0-0.1c0,0-0.1,0-0.1,0c0.1,0,0.3,0.1,0.4,0.1c0,0-0.1,0-0.2,0c-0.1,0-0.2,0-0.3-0.1c0,0,0,0.1-0.1,0.1
						c0,0-0.1,0-0.1,0c0,0,0.1,0,0.1,0c0-0.1-0.1,0-0.2,0c0,0-0.1,0-0.2,0.1c0-0.1-0.1,0-0.1,0c0,0-0.1,0,0,0c0,0.1,0.2,0,0.1,0.1
						c0,0-0.1,0-0.1,0c0,0,0,0,0,0c0,0-0.1,0.1-0.1,0c0,0,0,0,0,0c-0.1,0,0.3-0.3,0.2-0.3c0,0-0.3,0.3-0.3,0.3c0,0,0,0.1,0,0.1l0,0
						c0.1,0,0.1,0,0.1,0.1c-0.1,0,0.2-0.3,0.1-0.2l0,0c0,0-0.1,0.1-0.2,0.1c0,0,0,0.1-0.1,0.1l0,0c0,0-0.1,0,0,0.1
						c0.2-0.1,0,0.3,0.2,0.3c-0.1,0,0-0.1,0.1-0.1c0,0,0.1,0,0.1,0c0.1,0,0,0,0-0.1c0,0,0.1,0,0.1,0c0-0.1,0.1,0,0.1,0c0,0,0,0,0,0
						c0.1,0,0.2,0,0.2,0c0,0,0.1,0.1,0.1,0.1c-0.1,0,0-0.1-0.1-0.1c0.1,0.1-0.1,0-0.1,0.1c0,0,0.1,0,0.2,0l0,0c0,0,0.1,0,0.2,0
						c0,0,0,0,0,0.1l0.1,0c0,0,0,0,0,0c0,0,0.1,0,0.1,0c0,0,0.3-0.1,0.3-0.1c0,0,0.1,0,0.1,0c0,0-0.5,0.1-0.4,0.1c0,0,0.5-0.1,0.6,0
						c0,0,0.1,0,0.1,0c0.1,0,0,0,0,0.1c0,0,0,0,0,0l0,0c0.1,0,0.2,0.1,0.3,0.1c0,0-0.1,0.1-0.2,0.1l0,0c0,0-0.1,0-0.1,0
						c0,0,0.1,0,0.2,0l0,0l0,0c0,0,0,0,0,0l0,0c0,0.1,0.2,0,0.3,0.1c0,0,0,0,0,0c0.1,0.1,0.1,0.2,0.2,0.2c0,0,0.1,0,0-0.1l0.1,0.1
						c-0.1,0,0.1,0.2-0.1,0.2c0,0,0,0.1,0.1,0.1c0,0,0.1,0,0.1,0c0,0.1,0,0.1,0,0.1c0,0,0,0-0.1,0c0.1,0,0,0.1,0.1,0.2
						c0,0,0.1,0.1,0.1,0.1C194.8,31.4,194.7,31.4,194.7,31.4z"/>
				</g>
			</g>
		</g>
	</g>
</g>
<g>
	<g>
		<g>
			<path class="st0" d="M23.6,32.2c0.3-0.1,0.6-0.2,0.9-0.3c-3,1.2-6.4,1.4-9.6,0.7c1.7,0.5,3.6,0.6,5.5,0.5
				c1.9-0.2,3.8-0.7,5.5-1.5c1.7-0.9,3.2-2,4.3-3.4c0.3-0.3,0.5-0.7,0.8-1c0.2-0.4,0.5-0.7,0.6-1c0.3-0.7,0.6-1.4,0.8-2.1
				c0.1-0.1,0.4-0.6,0.8-1.3c0.2-0.3,0.3-0.8,0.4-1.2c0.1-0.2,0.1-0.4,0.2-0.7l0.1-0.7c0-0.2,0.1-0.5,0.1-0.7c0-0.2,0-0.5,0-0.7
				c0-0.2,0-0.5,0-0.7c0-0.2-0.1-0.4-0.1-0.6c-0.1-0.8-0.4-1.3-0.5-1.3c-0.1-0.2-0.2-0.4-0.3-0.6L32.7,15c-0.3-0.4-0.6-0.6-1-0.9
				c-0.3-0.3-0.8-0.4-1.1-0.6c-0.4-0.2-0.8-0.3-1.2-0.4c1.1,0.3,2.2,0.8,3.1,1.7c-0.9-0.9-2-1.4-3.1-1.7c-2.6-0.5-5,0.1-7.2,1
				c-2.2,1-4.3,2.4-6,4.3c-0.9,0.9-1.5,2.1-2.1,3.2c-0.5,1.2-0.8,2.5-0.9,3.9c-0.2,2.7,0.8,5.3,2.1,7.6c0.2,0.3,0.4,0.7,0.6,1
				c0.3,0.3,0.5,0.7,0.8,1.1c0.3,0.4,0.7,0.8,1.1,1.2c0.4,0.4,0.9,0.8,1.4,1.2c2,1.4,4.5,2.5,7,3.2c5.1,1.4,10.4,1.4,13.3,1.2
				c0.8-0.1,1.7-0.1,2.5-0.3c-1.4,0.2-1.4,0.2-2.8,0.3c3.5-0.4,6.6-1.2,9.5-2.5c-0.5,0.1-0.7,0.2-1.9,0.5c0.5-0.2,1-0.3,1.5-0.5
				c0.6-0.3,1.7-0.9,2.8-1.5c1-0.6,2-1.5,2.5-2.1c-0.2,0.3,0.8-0.6,1.4-1.6l-0.3,0.4c1.3-1.8,1.9-4.3,1.4-6.5L56,27.3
				c0-0.1,0-0.3-0.1-0.4c-0.1-0.2-0.1-0.4-0.2-0.5c-0.4-0.6-0.9-1.1-1.5-1.3c-1.1-0.5-2.2-0.6-3.1-0.7c-0.5,0-0.9,0-1.2,0
				c-1.2,0.1-2.4,0.4-3.5,0.9c0.1-0.1-0.6,0.1-1.1,0.4c-0.5,0.2-0.9,0.4-0.1,0c-1.2,0.7-2.4,1.5-3.3,2.6c-0.5,0.5-0.9,1.2-1.1,1.8
				c-0.2,0.6-0.4,1.2-0.6,1.8c-0.8,2.1-1.4,4.3-1.3,6.7c0.1,2.4,1,4.9,2.8,6.5c1.7,1.7,4,2.7,6.2,3.3c2.2,0.7,4.5,1,6.7,1.2
				l-0.2-0.1c3.2,0.3,5.9,0.2,9.7,0.2c2.7-0.2,6.6-0.4,7.6-0.7c3.1-0.2,4.4-0.4,7.4-0.7c-0.8-0.1,3-0.4,1.4-0.4
				c-2,0-2.1,0.1-3.9,0.1l0.1,0c-4,0.2-8.1,0.3-12.1,0.3c-4,0-8.1-0.2-12-0.8c-2.6-0.4-5.3-1-7.6-2.3c-1.2-0.6-2.1-1.5-2.9-2.5
				c-0.7-1-1.2-2.2-1.3-3.4c-0.2-1.3,0-2.8,0.3-4.2c0.3-1.4,0.8-2.8,1.4-4.2c0.5-1.2,1.4-2.1,2.5-2.9c1.1-0.7,2.3-1.2,3.5-1.5
				c1.1-0.3,2-0.2,2.9-0.1c0.5,0,1.1,0.1,1.5,0.3c0.5,0.2,0.9,0.4,1,0.7c0,0.1,0.1,0.1,0.1,0.2c0,0.1,0.1,0.3,0.1,0.4
				c0.1,0.3,0.1,0.6,0.2,0.9c0,0.3,0,0.6,0.1,0.9c0,0.3,0,0.6-0.1,0.9c-0.3,2.4-2.1,4.5-4.3,5.8c0.1,0,0.2-0.1,0.2-0.1
				c-2.3,1.4-4.4,1.9-7,2.5c0,0-0.4,0.1-0.6,0.2c-0.1,0-1.2,0.2-2.7,0.4c-1.5,0.2-3.6,0.3-5.6,0.3c-4.1,0-8.2-1-8.7-1.3
				c-0.3-0.1-0.6-0.2-0.8-0.3c-1.4-0.5-2.7-1.1-3.8-1.9c-1.2-0.8-2.1-1.7-2.9-2.9c-0.8-1.1-1.4-2.3-1.9-3.5
				c-0.4-1.2-0.7-2.4-0.7-3.5c-0.1-0.5,0-1,0-1.5c0.1-0.5,0.1-1,0.2-1.4c0.4-0.7,0.3-1,0.8-1.8c0.8-1,1.5-1.7,1.9-2.1
				c0.4-0.4,0.4-0.5-0.2,0c1.4-1.6,3.3-2.7,5.1-3.4c0.4-0.2,0.8-0.3,1.2-0.5c0.4-0.1,0.8-0.2,1.3-0.3c0.7-0.2,1.2-0.1,1.5,0
				c0.9,0,1.2,0.1,1.5,0.2c0.2,0,0.3,0.1,0.5,0.2c0.2,0.1,0.5,0.2,0.8,0.4c0.1,0.1,0.3,0.3,0.6,0.5c0.1,0.2,0.3,0.3,0.4,0.5
				c0.1,0.2,0.3,0.4,0.3,0.7c0.4,1,0.3,2.4,0.2,2.6l0-0.3c0,0.6-0.2,1.1-0.3,1.6c-0.1,0.5-0.3,0.9-0.5,1.4l-0.3,0.7
				c-0.1,0.2-0.2,0.4-0.4,0.6c-0.3,0.4-0.5,0.9-0.8,1.3c-1.8,2.5-4.7,4.3-7.9,5c-1.6,0.4-3.2,0.3-4.7,0.2c-1.5-0.2-3-0.6-4.4-1.2
				c-0.1,0.1,1.2,0.5,1.2,0.6c-1.6-0.6-3.2-1.4-4.6-2.5c-1.4-1-2.6-2.3-3.6-3.7c-0.3-0.5-0.7-1.2-0.8-1.5c-0.5-1-0.4-0.5-0.7-1.3
				l0-0.1c-0.3-0.5-0.4-0.9-0.6-1.3c-0.1-0.4-0.3-0.8-0.4-1.3c-0.1,0-0.2-0.4-0.3-0.8c0.1,0,0-0.3-0.1-0.6c-0.1-0.3-0.1-0.6-0.1-0.6
				l0,0c0-0.2-0.1-0.4-0.1-0.7c-0.1-0.2-0.3-1.4-0.5-2.5c0-0.6-0.1-1.2-0.1-1.7c0-0.5,0-0.8,0-0.9l0-0.2c0.1-0.6,0-0.9,0-0.6
				c0-0.3,0.1-0.5,0.2-0.8l0,0.1l0.2-0.8C1.9,8.2,2,8,2,8.2C2,8,2.1,7.8,2.1,7.6c0.1-0.2,0.2-0.4,0.3-0.6C2.3,7.2,2.1,7.5,2,7.8
				c-0.1,0.3-0.2,0.7-0.3,1c-0.3,0.7-0.3,1.4-0.5,2c0-0.5,0.2-1.5,0.3-2.1C1.7,8.4,1.8,7.9,2,7.4c0.3-0.5,0.5-1.1,0.7-1.6
				c0.1-0.2,0.1-0.4,0.4-0.9c0.2-0.2,0.3-0.6,0.6-0.9C3.4,4.5,3.3,5,3,5.4c0.2,0,0.6-1.1,1-1.4c0-0.1,0.2-0.3,0.4-0.6
				C4.5,3.3,4.6,3.1,4.7,3C4.9,2.9,5,2.7,5.1,2.6C5,2.9,5.5,2.3,5.8,2.1c0.3-0.3,0.5-0.5,0.3-0.4c0-0.2-1.3,1.1-0.9,0.6
				c0.2-0.1,0.7-0.7,1.1-0.9c0-0.1-0.3,0.1-0.1-0.1c0.4-0.3,0.8-0.6,1.1-0.7C7.3,0.7,7.1,0.8,7,0.9c0.3-0.2-0.4,0.4-1.1,1
				c-0.6,0.7-1.1,1.3-0.8,1c0,0,0.1-0.1,0.3-0.4c0.2-0.2,0.5-0.6,0.8-0.9C7,1,7.7,0.4,7.5,0.5c-0.3,0.2,0.2-0.3-0.2,0L7,0.8
				C6.5,1.1,6.2,1.1,6.4,1c0.4-0.3-0.1,0.2-0.6,0.7C5.3,2.2,4.9,2.8,5.2,2.5L4.9,2.7c0.2-0.3,0.9-0.9,1.2-1.1c0,0,0.3-0.3,0.6-0.6
				L6.8,1c0.3-0.2,0.8-0.6,0.5-0.5c-1,0.7-0.7,0.3-0.5,0c0.3-0.4,0.5-0.8-0.5-0.1c0.9-0.4-0.2,0.3-1,0.9c-0.1,0-0.5,0.3-1.1,0.8
				C3.8,2.5,4.1,2.4,4,2.5C3.7,2.8,3.3,3.3,3.3,3.2C3.1,3.6,2.7,3.8,2.5,4.4c-0.2,0.5,0,0-0.1,0.3C1.9,5.4,1.5,6.5,1.3,7.1
				C1.1,7.3,0.8,8,0.8,7.4c0.4-1.2,0,0.5,0.4-0.7C0.9,7.2,1.6,5.6,1.6,5.3C1.4,5.7,1.1,6.5,0.9,7.1L0.9,7C0.8,7.3,0.7,7.8,0.6,8.2
				C0.5,8.7,0.4,9.2,0.3,9.5c0-0.2-0.1,0.1-0.1-0.3L0.1,10c0,0.1,0,0.2,0,0c0,0.4-0.1,0.8-0.1,1.1c0,0,0,1.2,0.1,2.3
				c0.2,1.1,0.3,2.2,0.3,2.1c0.1,0.6,0.1,0.8,0.2,1.3c0.1,0-0.4-1.4-0.5-2.8C0.1,13.4,0,12.7,0,12.3c0-0.4,0-0.7,0-0.5
				c0,0.1,0,0.6,0,1.3c0.1,0.7,0.2,1.6,0.3,2.4c0.3,1.7,1,3.3,1,3.5c0.1,0.4,0.4,0.9,0.4,0.8c0.3,0.7-0.2-0.2,0,0.4
				c0,0,0-0.1,0.1,0.1l0.1,0.5c0.6,1.1,1.3,2.7,2.2,3.6C3.8,24.3,3.5,24,3,23.3l0-0.1c-0.1-0.1-0.4-0.7-0.5-0.6
				c0.3,0.7,0.7,1.3,1.2,1.9c0.1,0.1,0.2,0.3,0.2,0.4c0,0,0,0,0,0c0.1,0.2,0.1,0.2,0,0.2c0,0,0,0,0,0c0,0.3,0.6,0.8,1.2,1.5
				c0.6,0.7,1.4,1.3,1.9,1.8c0.4,0.2,0,0,0.5,0.3c0.6,0.4,1,0.9,1.6,1.2c0.5,0.3,1.1,0.7,1.8,1c0.5,0.1,0.5,0.1,0-0.2l1.1,0.5
				c-0.5-0.1,0,0.1,0.4,0.4c0.5,0.2,1,0.4,0.4,0.3c0.3,0.1,1,0.3,1.6,0.5c0.1,0,0.2-0.1,1,0.1c1.1,0.3,0.9,0.2,1.8,0.3
				c0.2,0.1-0.1,0.1-0.1,0.1c1.5,0,1.3,0.2,2.7,0.1c0.4,0,1.1-0.2,1.6-0.3c0.5-0.1,1-0.2,1-0.3C23.6,32,23.7,32.1,23.6,32.2z"/>
		</g>
	</g>
</g>
</svg>
