<svg fill="#847C7C" xmlns="http://www.w3.org/2000/svg" viewBox="0 0 24 27">
	<path d="M13.8,20.4c-1,1-2.6,1-3.6,0c-0.2-0.2-0.5-0.2-0.7,0c-0.2,0.2-0.2,0.5,0,0.7c0.7,0.7,1.6,1,2.6,1
		s1.9-0.3,2.6-1c0.2-0.2,0.2-0.5,0-0.7C14.4,20.2,14,20.2,13.8,20.4z"/>
	<path d="M23.9,25.5c-1.2-1.3-1.3-4.7-1.1-8.2c0.5-0.5,0.9-1.2,0.9-2c0-0.7-0.3-1.3-0.7-1.8c0.2-3.6,0.3-6-0.9-8.2
		c-0.8-1.5-2.1-2.8-3.8-3.7c-2-1.1-4.3-1.7-6.7-1.6c-2.1,0.1-4,1-5.3,2.6C4.6,2.7,3,3.6,2.2,5C2.1,5.1,2,5.2,2,5.4
		C0.8,7.6,0.9,10,1.1,13.5c-0.4,0.5-0.7,1.1-0.7,1.8c0,0.8,0.3,1.5,0.9,2c0.1,3.5,0.1,6.9-1.1,8.2C0,25.6,0,25.8,0,25.9
		c0,0.2,0.2,0.3,0.3,0.4C1.7,26.8,3.1,27,4.3,27c1.3,0,2.4-0.2,3.2-0.4c1.5-0.4,2.6-1,3-1.2c0.5,0.1,1,0.1,1.5,0.1
		c0.5,0,1,0,1.5-0.1c0.4,0.2,1.4,0.8,3,1.2c1.2,0.3,2.2,0.4,3.2,0.4c1.6,0,3-0.3,3.9-0.7c0.2-0.1,0.3-0.2,0.3-0.4
		C24,25.8,24,25.6,23.9,25.5z M21.4,16.4v-2.5c0,0,0,0,0,0v-0.1c0.7,0.2,1.2,0.8,1.2,1.6c0,0.7-0.5,1.4-1.2,1.6
		C21.4,16.7,21.4,16.5,21.4,16.4z M2.9,5.8C3,5.7,3,5.6,3.1,5.5c0.7-1.2,2-1.9,3.4-1.9c0,0,0,0,0,0c0.2,0,0.3-0.1,0.4-0.2
		C8.1,2,9.8,1.1,11.6,1c2.1-0.1,4.3,0.4,6.1,1.5c1.6,0.9,2.7,2,3.4,3.3c0.9,1.8,1,3.7,0.8,7c-0.2-0.1-0.3-0.1-0.5-0.2v-0.5
		c0-0.3-0.2-0.5-0.5-0.5s-0.5,0.2-0.5,0.5v1.2C13.1,13.4,9.2,10,8.1,8.9C8,8.8,7.8,8.7,7.7,8.8c-0.2,0-0.3,0.1-0.4,0.3
		c-0.8,1.8-2.1,2.8-4.2,3c-0.3,0-0.5,0.2-0.5,0.5v0.1c-0.2,0-0.4,0.1-0.5,0.2C1.9,9.5,2,7.6,2.9,5.8z M2.6,16.9
		C2,16.7,1.4,16,1.4,15.3c0-0.7,0.5-1.4,1.2-1.6v2.6C2.6,16.5,2.6,16.7,2.6,16.9z M1.4,25.6c0.9-1.6,1.1-4.2,1-7.7
		c0.1,0,0.3,0.1,0.4,0.1c0.6,3.3,3,6,6.1,7C7.4,25.6,4.5,26.5,1.4,25.6z M12,24.5c-4.6,0-8.3-3.6-8.3-8.1l0-3.3
		c2-0.3,3.4-1.3,4.3-2.9c0.8,0.7,2,1.6,3.7,2.4c2.6,1.2,5.5,1.8,8.7,1.8v2C20.3,20.8,16.6,24.5,12,24.5z M16.8,25.6
		c-0.7-0.2-1.3-0.4-1.7-0.6c3.2-1.1,5.5-3.8,6.1-7c0.1,0,0.3-0.1,0.4-0.1c-0.1,3.5,0,6.1,1,7.7C20.8,26.1,18.8,26.1,16.8,25.6z"/>
	<path d="M5.7,14.8c-0.2,0.2-0.2,0.5,0,0.7c0.2,0.2,0.5,0.2,0.7,0c0.3-0.3,0.9-0.3,1.2,0c0.1,0.1,0.2,0.2,0.4,0.2
		c0.1,0,0.3-0.1,0.4-0.2c0.2-0.2,0.2-0.5,0-0.7C7.7,14.1,6.5,14.1,5.7,14.8z"/>
	<path d="M18.3,15.6c0.2-0.2,0.2-0.5,0-0.7c-0.7-0.7-2-0.7-2.7,0c-0.2,0.2-0.2,0.5,0,0.7c0.2,0.2,0.5,0.2,0.7,0
		c0.3-0.3,0.9-0.3,1.2,0c0.1,0.1,0.2,0.2,0.4,0.2S18.2,15.7,18.3,15.6z"/>
</svg>
