<?xml version="1.0" encoding="utf-8"?>
<!-- Generator: Adobe Illustrator 22.1.0, SVG Export Plug-In . SVG Version: 6.00 Build 0)  -->
<svg version="1.1" id="Слой_1" xmlns="http://www.w3.org/2000/svg" xmlns:xlink="http://www.w3.org/1999/xlink" x="0px" y="0px"
	 viewBox="0 0 22 24.2" style="enable-background:new 0 0 22 24.2;" xml:space="preserve">
<g>
	<path d="M12.6,14.1c0.2,0,0.4-0.1,0.4-0.3l0.8-1.8c0.1-0.1,0.1-0.3,0.2-0.3c0.1-0.1,0.3-0.1,0.5-0.1l1.4-0.1c0.2,0,0.4-0.1,0.5-0.4
		c0.1-0.2,0-0.4-0.1-0.6c-0.6-0.5-1.2-1-1.8-1.4c0.4-0.7,0.8-1.3,1.4-1.9C16,7,16.1,6.8,15.9,6.5s-0.4-0.3-0.6-0.2
		c-1.1,0.3-2.2,0.6-3.3,0.8c-0.4-0.2-1.5-0.6-2.2-0.6c-0.2,0-0.3,0.1-0.4,0.2C9.3,6.8,9.2,7,9.3,7.2c0.3,0.9,0.5,1.3,0.8,2
		c0,0,0,0.1,0,0.1C9.8,9.5,9.5,9.7,9.2,10c-0.4,0.3-0.7,0.7-1,0.8c-0.2,0.1-0.4,0.4-0.3,0.6c0.1,0.3,0.3,0.4,0.6,0.4
		c1-0.1,2-0.2,3-0.2c0,0.8,0.2,1.5,0.6,2.1C12.2,14,12.4,14.1,12.6,14.1C12.6,14.1,12.6,14.1,12.6,14.1z M12,10.6
		c-0.6,0-1.3,0-2,0.1c0.3-0.3,0.6-0.6,0.9-0.7c0.3-0.1,0.4-0.4,0.3-0.7C11.2,9,11.1,8.9,11,8.7c-0.2-0.4-0.3-0.7-0.4-1
		c0.5,0.1,1,0.3,1.2,0.4c0.1,0,0.2,0.1,0.3,0c0.6-0.1,1.2-0.2,1.9-0.4c-0.3,0.4-0.5,0.8-0.7,1.3c-0.1,0.2,0,0.5,0.2,0.7
		c0.3,0.2,0.7,0.4,1,0.7c-0.3,0-0.7,0-1.1,0.3c-0.3,0.2-0.4,0.5-0.5,0.7l-0.3,0.7c-0.1-0.3-0.1-0.6,0-0.9c0-0.2,0-0.3-0.1-0.4
		C12.4,10.7,12.2,10.6,12,10.6C12,10.6,12,10.6,12,10.6z M1,24.1l0.5-0.5c0.1-0.1,0.1-0.1,0.1-0.2c3.1-3.2,0.5-0.5,3.4-3.8
		c1.7-2,3.4-4,5.1-5.9l1.8-2.2c0.2-0.2,0.2-0.6-0.1-0.8c-0.2-0.2-0.6-0.2-0.8,0.1L9.2,13c-1.6,1.9-3.3,3.9-5,5.9
		c-3.1,3.5-0.7,1.1-4,4.4c-0.2,0.2-0.2,0.6,0,0.8c0.1,0.1,0.3,0.2,0.4,0.2C0.7,24.2,0.8,24.2,1,24.1z M12.9,3
		c0.3-0.1,0.4-0.4,0.3-0.7c-0.1-0.2-0.3-1.3-0.2-1.6C13,0.4,12.8,0.1,12.5,0c-0.3-0.1-0.6,0.1-0.6,0.4c-0.1,0.5,0.1,1.9,0.3,2.3
		C12.3,2.9,12.5,3,12.7,3C12.7,3,12.8,3,12.9,3z M17.3,3.5c0.2-0.3,0.9-1,1.2-1.3c0.2-0.2,0.2-0.5,0-0.8c-0.2-0.2-0.5-0.2-0.8,0
		c-0.3,0.3-1,1-1.3,1.3c-0.2,0.2-0.2,0.6,0.1,0.8c0.1,0.1,0.2,0.1,0.3,0.1C17.1,3.7,17.2,3.7,17.3,3.5z M21.1,6.6
		c0.3-0.1,0.4-0.5,0.3-0.7c-0.1-0.3-0.4-0.4-0.7-0.3c-0.3,0.1-1.6,0.1-1.8,0c-0.3-0.1-0.6,0.1-0.7,0.4c-0.1,0.3,0.1,0.6,0.3,0.7
		c0.2,0.1,0.6,0.1,1,0.1C20.1,6.8,20.8,6.8,21.1,6.6z M21.5,10.1c0.3,0,0.5-0.3,0.5-0.6C22,9.2,21.7,9,21.4,9c-0.4,0-1.6,0-1.9-0.1
		c-0.3-0.1-0.6,0.1-0.7,0.4C18.8,9.6,19,9.9,19.2,10c0.4,0.1,1.4,0.2,1.9,0.2C21.3,10.1,21.4,10.1,21.5,10.1z M20.5,13
		c0.1-0.3-0.1-0.6-0.4-0.6c-0.3-0.1-1.6-0.6-1.9-0.8c-0.3-0.2-0.6-0.1-0.7,0.2c-0.2,0.3-0.1,0.6,0.2,0.7c0.4,0.2,1.8,0.8,2.3,0.9
		c0,0,0.1,0,0.1,0C20.3,13.4,20.5,13.2,20.5,13z M17.5,17.8c0.3-0.1,0.5-0.3,0.4-0.6c-0.1-0.5-0.8-1.9-1.1-2.3
		c-0.2-0.2-0.5-0.3-0.8-0.1c-0.2,0.2-0.3,0.5-0.1,0.8c0.2,0.3,0.8,1.6,0.9,1.9c0.1,0.3,0.3,0.4,0.5,0.4
		C17.4,17.8,17.5,17.8,17.5,17.8z M9.2,3.3c0.1-0.2,0-0.5-0.3-0.6C8.7,2.5,8.4,1.8,8.4,1.6C8.4,1.3,8.3,1.1,8,1
		C7.7,0.9,7.4,1,7.3,1.3C7.2,1.7,7.5,2.4,7.7,2.9c0.3,0.7,0.6,0.8,0.8,0.8c0,0,0.1,0,0.1,0C8.9,3.7,9.1,3.6,9.2,3.3z M6.8,6
		c0.3,0,0.5-0.3,0.5-0.6c0-0.3-0.2-0.5-0.5-0.5C6.5,4.8,4.9,4.1,4.6,4C4.4,3.8,4.1,3.9,3.9,4.1C3.7,4.3,3.8,4.7,4,4.9
		C4.3,5.1,6.2,6,6.8,6C6.8,6,6.8,6,6.8,6z M5.5,8.8c0.3-0.1,0.4-0.5,0.2-0.7C5.6,7.8,5.3,7.7,5.1,7.9c-0.3,0.1-1.5,0-2,0
		C2.8,7.8,2.5,8,2.5,8.3c0,0.3,0.2,0.6,0.5,0.6C3,8.9,3.7,9,4.4,9C4.9,9,5.3,8.9,5.5,8.8z M4.6,12.9C5.2,12.6,6.1,12,6.3,12
		c0.3-0.1,0.4-0.4,0.3-0.7C6.6,11,6.3,10.9,6,11c-0.4,0.1-1.9,1-1.9,1c-0.3,0.2-0.3,0.5-0.2,0.7C4,12.9,4.1,13,4.3,13
		C4.4,13,4.5,13,4.6,12.9z M14.1,19c0.2-0.2,0.2-0.5,0.1-0.7c-0.1-0.3-0.3-1.7-0.2-2c0-0.3-0.2-0.6-0.5-0.6c-0.3,0-0.6,0.2-0.6,0.5
		c0,0.3,0,2.4,0.4,2.9c0.1,0.1,0.3,0.2,0.4,0.2C13.8,19.2,14,19.1,14.1,19z"/>
</g>
</svg>
