<svg fill="#9B806F" xmlns="http://www.w3.org/2000/svg" viewBox="-41 164.9 512 512">
<path d="M100.2,196.9c-15.5-20.6-36.4-32-58.8-32c-22.5,0-43.3,11.4-58.8,32c-14.7,19.6-22.8,45.5-22.8,72.9
	c0,27.4,8.1,53.3,22.8,72.9c8.6,11.5,18.9,20.1,30.2,25.4L-4.5,627.8c-0.8,12.7,3.6,25.2,12.3,34.5c8.7,9.3,20.9,14.6,33.6,14.6
	c12.7,0,24.9-5.3,33.6-14.6c8.7-9.3,13.2-21.8,12.3-34.5L70.1,368.2c11.3-5.4,21.6-14,30.2-25.4c14.7-19.6,22.8-45.5,22.8-72.9
	S115,216.5,100.2,196.9z M57.9,646.3c-4.3,4.6-10.1,7.1-16.4,7.1c-6.3,0-12.1-2.5-16.4-7.1c-4.3-4.6-6.4-10.6-6-16.9l17-254.9
	c1.8,0.2,3.7,0.3,5.5,0.3c1.8,0,3.7-0.1,5.5-0.3l17,254.9C64.3,635.7,62.2,641.7,57.9,646.3z M41.4,351.2c-4.2,0-8.3-0.6-12.3-1.8
	c-0.3-0.1-0.7-0.2-1-0.3c-25.7-8.4-44.9-40.8-44.9-79.3c0-44.9,26.1-81.4,58.1-81.4c32.1,0,58.1,36.5,58.1,81.4
	S73.5,351.2,41.4,351.2z"/>
<path d="M470.2,470.8V178.1l-0.1,0c0.3-2.6-0.2-5.3-1.7-7.7c-3.4-5.5-10.6-7.2-16.2-3.8
	c-47.9,29.6-76.5,80.9-76.5,137.2c0,0,0,0,0,0v153.8c0,13.5,10.8,24.5,24.2,24.9v159c0,19.4,15.8,35.1,35.1,35.1
	c19.4,0,35.1-15.8,35.1-35.1L470.2,470.8C470.2,470.8,470.2,470.8,470.2,470.8z M400.7,459.1c-0.8,0-1.4-0.6-1.4-1.4V303.9
	c0,0,0,0,0,0c0-40.6,17.4-78.2,47.5-104.1v259.4H400.7z M446.7,641.6c0,6.4-5.2,11.6-11.6,11.6c-6.4,0-11.6-5.2-11.6-11.6v-159h23.3
	L446.7,641.6L446.7,641.6z"/>
<path d="M291.8,164.9c-6.5,0-11.7,5.3-11.7,11.7V310h-29.9V176.6c0-6.5-5.3-11.7-11.7-11.7c-6.5,0-11.7,5.3-11.7,11.7
	V310h-29.9V176.6c0-6.5-5.3-11.7-11.7-11.7s-11.7,5.3-11.7,11.7v170c0,19.1,15.6,34.7,34.7,34.7h2.1L193.6,629
	c-0.8,12.4,3.6,24.6,12,33.7c8.5,9,20.4,14.2,32.8,14.2c12.4,0,24.3-5.2,32.8-14.2c8.5-9,12.8-21.3,12-33.7l-16.5-247.7h2.1
	c19.1,0,34.7-15.6,34.7-34.7v-170C303.5,170.1,298.3,164.9,291.8,164.9z M254,646.6c-4.1,4.4-9.7,6.8-15.7,6.8s-11.6-2.4-15.7-6.8
	c-4.1-4.4-6.1-10.1-5.7-16.1l16.6-249.2h9.6l16.6,249.2C260.2,636.5,258.1,642.2,254,646.6z M280.1,346.6c0,6.2-5,11.2-11.2,11.2
	h-46.6c0,0,0,0,0,0H208c-6.2,0-11.2-5-11.2-11.2v-13.1h83.3V346.6z"/>
</svg>
