<?xml version="1.0" encoding="utf-8"?>
<!-- Generator: Adobe Illustrator 19.0.1, SVG Export Plug-In . SVG Version: 6.00 Build 0)  -->
<svg version="1.1" id="Слой_1" xmlns="http://www.w3.org/2000/svg" xmlns:xlink="http://www.w3.org/1999/xlink" x="0px" y="0px"
	 viewBox="0 0 20 17" style="enable-background:new 0 0 20 17;" xml:space="preserve">
<style type="text/css">
	.st0{fill:#0D0F0F;}
</style>
<g>
	<g>
		<g>
			<path class="st0" d="M20,7.3l-2.3-7C17.6,0.1,17.4,0,17.2,0L0.3,5.4C0.1,5.5,0,5.7,0,5.9l1.1,3.3c0,0,0,0,0,0v7.4
				c0,0.2,0.2,0.4,0.4,0.4h17.8c0.2,0,0.4-0.2,0.4-0.4V9.3c0-0.2-0.2-0.4-0.4-0.4h-3.1l3.5-1.1C19.9,7.7,20,7.5,20,7.3z M18.9,9.6
				v6.6h-17V9.6h2.2v4.3c0,0.2,0.2,0.4,0.4,0.4c0.2,0,0.4-0.2,0.4-0.4V9.6h8.9H18.9z M13.7,8.9H1.8L0.9,6.1l2.1-0.7l0.8,2.4
				C3.8,7.9,3.9,8,4.1,8c0,0,0.1,0,0.1,0c0.2-0.1,0.3-0.3,0.2-0.5L3.7,5.2l13.4-4.3l2.1,6.3L13.7,8.9z"/>
			<path class="st0" d="M16.5,2.6c-0.1-0.2-0.3-0.3-0.5-0.2L5.8,5.6C5.6,5.6,5.5,5.9,5.5,6.1c0.1,0.2,0.2,0.3,0.4,0.3
				c0,0,0.1,0,0.1,0L16.2,3C16.4,3,16.5,2.8,16.5,2.6z"/>
			<path class="st0" d="M14.7,5.1l1.9-0.6C16.9,4.4,17,4.2,16.9,4c-0.1-0.2-0.3-0.3-0.5-0.2l-1.9,0.6c-0.2,0.1-0.3,0.3-0.3,0.5
				c0.1,0.2,0.2,0.3,0.4,0.3C14.7,5.1,14.7,5.1,14.7,5.1z"/>
			<path class="st0" d="M16.4,6.8c0.1,0.2,0.2,0.3,0.4,0.3c0,0,0.1,0,0.1,0l0.6-0.2c0.2-0.1,0.3-0.3,0.3-0.5
				c-0.1-0.2-0.3-0.3-0.5-0.2l-0.6,0.2C16.4,6.4,16.3,6.6,16.4,6.8z"/>
			<path class="st0" d="M15.3,6.8L14.7,7c-0.2,0.1-0.3,0.3-0.3,0.5c0.1,0.2,0.2,0.3,0.4,0.3c0,0,0.1,0,0.1,0l0.6-0.2
				c0.2-0.1,0.3-0.3,0.3-0.5C15.7,6.8,15.5,6.7,15.3,6.8z"/>
			<path class="st0" d="M9.8,5.8L6.2,7C6,7,5.9,7.3,6,7.5C6,7.6,6.2,7.7,6.4,7.7c0,0,0.1,0,0.1,0l3.6-1.1c0.2-0.1,0.3-0.3,0.3-0.5
				C10.2,5.9,10,5.8,9.8,5.8z"/>
			<path class="st0" d="M4.4,14.8c-0.2,0-0.4,0.2-0.4,0.4v0.2c0,0.2,0.2,0.4,0.4,0.4c0.2,0,0.4-0.2,0.4-0.4v-0.2
				C4.8,15,4.7,14.8,4.4,14.8z"/>
			<path class="st0" d="M6.3,11.1c0,0.2,0.2,0.4,0.4,0.4h10.7c0.2,0,0.4-0.2,0.4-0.4s-0.2-0.4-0.4-0.4H6.7
				C6.5,10.7,6.3,10.9,6.3,11.1z"/>
			<path class="st0" d="M17.4,12.2h-2c-0.2,0-0.4,0.2-0.4,0.4c0,0.2,0.2,0.4,0.4,0.4h2c0.2,0,0.4-0.2,0.4-0.4
				C17.8,12.3,17.6,12.2,17.4,12.2z"/>
			<path class="st0" d="M17.4,14.7h-0.6c-0.2,0-0.4,0.2-0.4,0.4s0.2,0.4,0.4,0.4h0.6c0.2,0,0.4-0.2,0.4-0.4S17.6,14.7,17.4,14.7z"/>
			<path class="st0" d="M15.3,14.7h-0.6c-0.2,0-0.4,0.2-0.4,0.4s0.2,0.4,0.4,0.4h0.6c0.2,0,0.4-0.2,0.4-0.4S15.6,14.7,15.3,14.7z"/>
			<path class="st0" d="M10.4,12.2H6.7c-0.2,0-0.4,0.2-0.4,0.4c0,0.2,0.2,0.4,0.4,0.4h3.7c0.2,0,0.4-0.2,0.4-0.4
				C10.8,12.3,10.7,12.2,10.4,12.2z"/>
		</g>
	</g>
</g>
</svg>
