<svg width="34" height="31" fill="#817878" xmlns="http://www.w3.org/2000/svg" xmlns:xlink="http://www.w3.org/1999/xlink" x="0px" y="0px"
	 viewBox="16 265.4 34 31.2" enable-background="new 16 265.4 34 31.2" xml:space="preserve">

<path d="M24.1,276.6c-0.3-0.2-0.8-0.1-1,0.3l0,0c-0.2,0.3-0.1,0.8,0.3,1c0.1,0.1,0.2,0.1,0.3,0.1
	c0.3,0,0.5-0.1,0.6-0.4l0,0C24.5,277.3,24.4,276.8,24.1,276.6z"/>
<path d="M46.7,278.9c-1.1-4.3-4.2-7.9-8.5-9.6c-0.7-2.3-2.9-3.8-5.3-3.8c-2.5,0-4.6,1.6-5.3,3.8
	c-2.5,1-4.7,2.7-6.3,5c-1,1.4-1.7,3-2.2,4.6c-1.8,0.1-3.3,1.7-3.3,3.5c0,1.9,1.4,3.4,3.3,3.5c1.6,6.1,7.1,10.6,13.7,10.6
	c6.6,0,12.1-4.5,13.7-10.6c1.8-0.1,3.3-1.7,3.3-3.5C50,280.6,48.6,279,46.7,278.9z M17.4,282.4c0-1,0.7-1.8,1.6-2
	c-0.1,0.4-0.1,0.8-0.1,1.3c0,0,0,0,0,0c0,0.1,0,0.2,0,0.2c0,0,0,0.1,0,0.1c0,0.1,0,0.1,0,0.2c0,0.1,0,0.2,0,0.3
	c0,0.1,0,0.2,0,0.3c0,0,0,0.1,0,0.1c0,0.1,0,0.2,0,0.2c0,0,0,0.1,0,0.1c0,0.1,0,0.2,0,0.3c0,0,0,0.1,0,0.1c0,0.1,0,0.1,0,0.2
	c0,0.1,0,0.1,0,0.2c0,0.1,0,0.1,0,0.2c0,0.1,0,0.2,0,0.2c0,0,0,0.1,0,0.1C18.1,284.2,17.4,283.4,17.4,282.4z M33,266.8
	c1.4,0,2.7,0.7,3.4,1.8c0,0,0,0,0,0c0,0,0,0,0,0c0,0,0,0,0,0c-2.2,0-4,1.8-4,4c0,0.9,0.3,1.7,0.8,2.4c0,0-0.1,0-0.1,0
	c-2.3,0-4.1-1.8-4.1-4.1C28.9,268.7,30.7,266.8,33,266.8z M45.7,282.8C45.7,282.8,45.7,282.8,45.7,282.8c0,0.1,0,0.2,0,0.3
	c0,0,0,0,0,0.1c0,0.1,0,0.2,0,0.3c0,0,0,0,0,0.1c0,0.1,0,0.2,0,0.3c0,0,0,0.1,0,0.1c0,0.1,0,0.2,0,0.3c0,0,0,0.1,0,0.1
	c0,0.1,0,0.1,0,0.2c0,0,0,0.1,0,0.1c0,0.1,0,0.1,0,0.2c0,0.1,0,0.1,0,0.2c0,0,0,0.1,0,0.1c-1.2,5.8-6.3,10.1-12.5,10.1
	c-6.1,0-11.3-4.4-12.5-10.2c0-0.1,0-0.1,0-0.2c0-0.1,0-0.1,0-0.2c0-0.1,0-0.1,0-0.2c0,0,0-0.1,0-0.1c0-0.1,0-0.2,0-0.3
	c0,0,0,0,0,0c0-0.1,0-0.2,0-0.3c0,0,0,0,0,0c0-0.4-0.1-0.9-0.1-1.3c0-0.1,0-0.2,0-0.3c0,0,0-0.1,0-0.1c0-0.1,0-0.1,0-0.2
	c0,0,0-0.1,0-0.1c0-0.1,0-0.1,0-0.2c0-0.1,0-0.2,0-0.3c0,0,0,0,0,0c0.4-4.4,3.2-8.3,7.2-10.2c0,0,0,0,0,0c0,0.5,0.1,1,0.2,1.5
	c-1.3,0.7-2.4,1.6-3.3,2.7c-0.3,0.3-0.2,0.7,0.1,1c0.1,0.1,0.3,0.2,0.5,0.2c0.2,0,0.4-0.1,0.5-0.3c0.8-0.9,1.7-1.7,2.8-2.3
	c1,1.6,2.7,2.8,4.8,2.8c0.6,0,1.2-0.1,1.8-0.3c0.3-0.1,0.4-0.3,0.5-0.6c0-0.3-0.1-0.5-0.3-0.7c-0.8-0.5-1.2-1.3-1.2-2.2
	c0-1.4,1.1-2.6,2.5-2.6c4.7,1.3,8.2,5.1,9.2,9.7c0,0.1,0,0.2,0,0.2c0,0,0,0.1,0,0.1c0,0.1,0,0.1,0,0.2c0,0,0,0.1,0,0.1
	c0,0.1,0,0.1,0,0.2c0,0,0,0.1,0,0.1c0,0.2,0,0.4,0.1,0.6c0,0,0,0,0,0.1c0,0.1,0,0.2,0,0.2c0,0,0,0.1,0,0.1c0,0.1,0,0.2,0,0.2
	c0,0,0,0.1,0,0.1c0,0.1,0,0.2,0,0.3C45.7,282.5,45.7,282.6,45.7,282.8z M47,284.5c0-0.1,0-0.1,0-0.2c0-0.1,0-0.1,0-0.2
	c0-0.1,0-0.1,0-0.2c0,0,0-0.1,0-0.1c0-0.1,0-0.1,0-0.2c0,0,0-0.1,0-0.1c0-0.1,0-0.2,0-0.3c0,0,0-0.1,0-0.1c0-0.1,0-0.2,0-0.2
	c0,0,0-0.1,0-0.1c0-0.1,0-0.2,0-0.3c0-0.1,0-0.2,0-0.3c0,0,0-0.1,0-0.1c0-0.1,0-0.1,0-0.2c0,0,0-0.1,0-0.1c0-0.1,0-0.1,0-0.2
	c0,0,0-0.1,0-0.1c0,0,0-0.1,0-0.1c0,0,0-0.1,0-0.1c0,0,0-0.1,0-0.1c0,0,0-0.1,0-0.1c0-0.1,0-0.1,0-0.2c0-0.1,0-0.1,0-0.2
	c0-0.1,0-0.1,0-0.2c0.9,0.2,1.6,1.1,1.6,2C48.6,283.4,47.9,284.2,47,284.5z"/>
<path d="M30.5,283.2c-0.3-1.2-1.5-2.1-2.7-2.1c-1.3,0-2.4,0.9-2.7,2.1c-0.1,0.4,0.1,0.8,0.5,0.9
	c0.4,0.1,0.8-0.1,0.9-0.5c0.2-0.6,0.7-1.1,1.4-1.1c0.6,0,1.2,0.4,1.4,1.1c0.1,0.3,0.4,0.5,0.7,0.5c0.1,0,0.1,0,0.2,0
	C30.4,284,30.6,283.6,30.5,283.2z"/>
<path d="M38.3,281.1c-1.3,0-2.4,0.9-2.7,2.1c-0.1,0.4,0.1,0.8,0.5,0.9c0.4,0.1,0.8-0.1,0.9-0.5
	c0.2-0.6,0.7-1.1,1.4-1.1c0.6,0,1.2,0.4,1.4,1.1c0.1,0.3,0.4,0.5,0.7,0.5c0.1,0,0.1,0,0.2,0c0.4-0.1,0.6-0.5,0.5-0.9
	C40.7,282,39.5,281.1,38.3,281.1z"/>
<path d="M35.2,288.2c-0.4-0.1-0.8,0.1-0.9,0.5c-0.2,0.6-0.7,1.1-1.4,1.1c-0.6,0-1.2-0.4-1.4-1.1
	c-0.1-0.4-0.5-0.6-0.9-0.5c-0.4,0.1-0.6,0.5-0.5,0.9c0.3,1.2,1.5,2.1,2.7,2.1c1.3,0,2.4-0.9,2.7-2.1
	C35.8,288.7,35.6,288.3,35.2,288.2z"/>
</svg>
