<?xml version="1.0" encoding="utf-8"?>
<!-- Generator: Adobe Illustrator 19.0.1, SVG Export Plug-In . SVG Version: 6.00 Build 0)  -->
<svg version="1.1" id="Графика" xmlns="http://www.w3.org/2000/svg" xmlns:xlink="http://www.w3.org/1999/xlink" x="0px"
	 y="0px" viewBox="0 0 81 143.3" style="enable-background:new 0 0 81 143.3;" xml:space="preserve">
<g>
	<g>
		<g>
			<path d="M34.6,137.8c-6.8-2.1-5.8-8.3-4.8-13.9c0.9-5.1,1.9-10,2-15.2c0.1-5.8-0.4-11.5,0-17.3c0.4-6.3,1.9-12.6,2.7-18.9
				C36,60.7,34.2,48.7,33.5,37c-0.5-7.9-0.6-15.8,0.1-23.7c0.2-2.6,0.4-6.4,2.1-8.5c1.8-2.3,3.4,7.7,3.5,8.3
				c0.9,8.9,0,17.9-0.7,26.8C38,45,37.4,50.6,38.3,55.6c0.8,4.1,3.2,6,7.2,6.5c5,0.7,10.3,0.2,15.3-0.1c3.4-0.2,5.3-1.7,6-5
				c0.8-3.6-0.1-7.9-0.5-11.5c-0.5-5.2-1.3-10.4-1.9-15.6c-1-8.7-2.1-18.4,2.8-26.1c3.3-5.2,4.5,4.3,4.6,6.1c0.2,3.3,0.2,6.7,0.2,10
				c0.1,9.6-0.8,19.1-1.7,28.6c-0.9,10.1-0.9,20,0.2,30.1c1.2,10.8-0.3,20.9-2.2,31.5c-0.7,4.2-1.3,8.3-1.6,12.5
				c-0.3,4.9,0.9,10.4-1.6,14.9c-2.6,4.7-10,3.8-14.4,3.5C45.4,140.6,39.9,139.4,34.6,137.8c-1.2-0.4-1.7,1.5-0.5,1.8
				c5,1.5,10.2,2.6,15.4,3.2c4.1,0.5,9.2,1.1,13.1-0.7c8.7-4,5.8-15.9,6.6-23.6c1.2-11.5,4.6-22.6,4-34.3c-0.3-5.7-1.3-11.3-1.5-17
				c-0.2-6.2,0.3-12.6,0.8-18.8c0.9-10.7,1.8-21.1,1.7-31.9c-0.1-4.3,1-13.8-3.5-16.3c-5.1-2.8-8.1,10.3-8.5,12.8
				c-1.5,11,1.5,22.8,2.6,33.7c0.3,2.7,0.5,5.3,0.5,8c0,1.9-0.3,4.1-2.5,5c-1.3,0.5-3.3,0.3-4.7,0.4c-2.9,0.1-5.8,0.1-8.6,0.1
				c-4.7-0.1-8.7-0.6-9.3-6.3c-1.1-10.5,1.3-21.1,1.4-31.6c0.1-5.5,0.6-14-2.9-18.8C36,0.3,33.4,4.6,32.7,7
				c-2,6.9-1.6,14.7-1.5,21.8c0.2,10.2,1.5,20.4,1.9,30.6c0.4,12.3-3.1,24-3.3,36.2c-0.1,5.8,0.4,11.5,0,17.3
				c-0.4,5.1-1.9,10.2-2.5,15.3c-0.6,5.5,1.4,9.7,6.9,11.4C35.3,140,35.8,138.2,34.6,137.8L34.6,137.8z"/>
		</g>
		<g>
			<path d="M40.1,77.7c2,0,3.9,0.6,5.5,1.7c1,0.7,1.9-0.9,1-1.6c-1.9-1.3-4.1-2-6.5-2C38.9,75.8,38.9,77.7,40.1,77.7L40.1,77.7z"/>
		</g>
		<g>
			<path d="M56.1,79.1c1.9-0.8,3.9-1.2,6-1.1c1.2,0.1,1.2-1.8,0-1.9c-2.4-0.1-4.8,0.3-7,1.3C54,78,54.9,79.6,56.1,79.1L56.1,79.1z"
				/>
		</g>
		<g>
			<path d="M47.1,96.5c2.9-1.3,7.3-5.2,6.3-8.9c-0.9-3.3-5.7-3.2-5.9,0.4c-0.3,4,3.7,7.2,7.2,8.3c3.6,1.1,7-0.9,5.2-4.7
				c-0.5-1.1-2.1-0.1-1.6,1c0.1,1.7-0.5,2.4-1.8,2.1c-1.2,0-2.3-0.5-3.2-1c-1.4-0.8-2.6-2.1-3.4-3.5c-1-1.7-0.5-2.1,1.7-1.3
				c-0.1,0.9-0.6,1.7-1.1,2.5c-1,1.7-2.6,2.8-4.3,3.5C45,95.4,46,97,47.1,96.5L47.1,96.5z"/>
		</g>
		<g>
			<path d="M65.1,140.1c3.2,1.8,7.2,2.3,10.6,0.7c3.6-1.7,5.1-4.5,5.3-8.4c0.2-3.3-0.5-6.6-3.8-7.8c-4.3-1.6-6.3,1.9-9.5,3.7
				c-1.1,0.6-0.1,2.2,1,1.6c1.5-0.9,2.6-2.2,4-3.2c0.9-0.7,2.9-0.5,4-0.3c2.3,0.4,2.3,3.4,2.4,5.1c0.4,7.4-7.1,10.2-13,6.9
				C65,137.9,64.1,139.5,65.1,140.1L65.1,140.1z"/>
		</g>
	</g>
	<g>
		<g>
			<path d="M2,130.8c0.8-13,0.1-26.3,0.1-39.3c0-3.3,0-6.7,0-10c0-3.4,0.1-6.9,2.3-9.7c3.1-4,3.7,0.5,3.8,2.8
				c0.1,3.7-0.2,7.4-0.7,11c-0.4,3.7-0.9,7,2.5,9.3c2.5,1.7,6.3,1.1,9.1,0.8c3.8-0.5,3.7-5.3,4-8.2c0.5-5.3,0.4-10.6,2.6-15.6
				c0.5-1.2,1.2-2.1,2.3-2.8c2.1-1.4,3,3.5,3.1,4.2c0.3,2.5,0.1,5.2,0.1,7.7C31.2,86,29.5,91,29,96c-0.5,5.1-0.4,10.2-0.3,15.3
				c0.1,4.8,0.1,9.7-0.1,14.5c-0.1,2.4-0.4,4.9-0.8,7.3c-0.9,5.2-5,5.5-9.3,5.7c-3.2,0.2-6.4-0.1-9.5-0.2c-2.2-0.1-4.6-0.4-6.3-1.9
				C1.3,135.5,1.9,132.3,2,130.8c0.1-1.2-1.8-1.2-1.9,0c-0.2,2.8-0.6,5.7,1.7,7.7c3,2.6,8.6,2.1,12.2,2.3c3.4,0.1,8.9,0.6,12-1.2
				c3.3-2,3.7-5.7,4.1-9.3c1.2-9.8,0.2-19.9,0.5-29.8c0.3-9.3,4.4-19.2,2.3-28.5c-0.3-1.6-1.8-5.6-4.1-5.2c-3.1,0.6-4.5,3.3-5.5,6.1
				c-1.5,4.1-1.7,8.8-1.9,13.1c-0.2,3.6,0.1,7.6-4.3,8c-3.9,0.4-7.9-0.4-7.9-5.3c0.1-6,3.2-14.1,0-19.8c-1.1-2-3.8-0.4-5,0.5
				c-3.3,2.4-3.8,7-3.9,10.7C-0.2,97,1.1,114,0.1,130.8C0.1,132,2,132,2,130.8z"/>
		</g>
		<g>
			<path d="M8.7,118.3c4.3,0.6,7.8-1.5,10.4-4.8c2.4-3.1,1.8-6.9-2.4-7.5c-4.1-0.5-4.7,4.9-3.9,7.6c1.3,4.3,6.9,5,10.7,5.3
				c1.2,0.1,1.2-1.8,0-1.9c-1.9-0.1-3.8-0.5-5.6-1.1c-1.4-0.4-2.3-1.1-3.1-2.3c-1.1-1.8-1.1-5.3,1.8-5.7c0.4,1.3,0.9,2.6,1.3,3.9
				c-0.3,0.5-0.7,0.9-1,1.3c-0.5,0.5-1,1-1.5,1.5c-1.9,1.7-4.3,2.1-6.7,1.8C7.5,116.2,7.5,118.1,8.7,118.3L8.7,118.3z"/>
		</g>
		<g>
			<path d="M11,105.1c2.4,0,2.4-3.8,0-3.8S8.5,105.1,11,105.1L11,105.1z"/>
		</g>
		<g>
			<path d="M21.9,105.1c2.4,0,2.4-3.8,0-3.8S19.5,105.1,21.9,105.1L21.9,105.1z"/>
		</g>
	</g>
</g>
</svg>
