<svg xmlns="http://www.w3.org/2000/svg" viewBox="0 0 13.5 13.35"><title>icon-en</title><path d="M12.69,1.29c-1-.88-5-1-7.26-.93-1.56.07-3.55.3-4.14,1C-.1,2.86-.1,11.26,1.3,12.69c.86.88,4.07,1,5.41,1H7c2.12,0,4.88-.28,5.69-.95s1-3.3,1.06-4.81c.05-1.91-.1-5.76-1-6.63M13,7.89c-.07,2.53-.46,4-.78,4.24s-2.41.75-5.21.77c-3,0-4.76-.36-5.13-.75-1-1-1.24-9,0-10.33.25-.28,1.46-.6,3.61-.7,2.94-.14,6.13.21,6.71.73s.89,2.94.8,6" transform="translate(-0.25 -0.33)" style="fill:#7f7d7c"/><path d="M5.92,4.39v1h-.4V4.88l-.13-.14H3.85V6.37H4.92L5,6.28V6h.4V7.09H5V6.82l-.09-.1H3.85V8.44H5.5l.13-.13V7.7H6v1.1H2.57V8.44h.57V4.74H2.57V4.39Z" transform="translate(-0.25 -0.33)" style="fill:#7f7d7c"/><path d="M9.85,4.39H11.4v.35h-.57V8.87h-.41L7.85,5.41l-.28-.48h0l.06.49v3h.57v.35H6.63V8.44h.57V4.74H6.63V4.39H7.89l2.2,3,.33.54h0l0-.54V4.74H9.85Z" transform="translate(-0.25 -0.33)" style="fill:#7f7d7c"/></svg>