<?xml version="1.0" encoding="utf-8"?>
<!-- Generator: Adobe Illustrator 22.1.0, SVG Export Plug-In . SVG Version: 6.00 Build 0)  -->
<svg version="1.1" id="Capa_1" xmlns="http://www.w3.org/2000/svg" xmlns:xlink="http://www.w3.org/1999/xlink" x="0px" y="0px"
	 viewBox="172.3 532.5 29.3 16.9" style="enable-background:new 172.3 532.5 29.3 16.9;" xml:space="preserve">
<g>
	<g>
		<g>
			<path d="M194.1,545.7L194.1,545.7c-0.2,0-0.3,0.1-0.3,0.3s0.1,0.3,0.3,0.3c0.2,0,0.3-0.1,0.3-0.3
				C194.4,545.8,194.2,545.7,194.1,545.7z"/>
			<path d="M194.1,546.4c-0.3,0-0.5-0.2-0.5-0.5s0.2-0.5,0.4-0.5h0c0.3,0,0.5,0.2,0.5,0.5S194.3,546.4,194.1,546.4z M194.1,545.8
				c-0.1,0-0.1,0.1-0.1,0.1c0,0.1,0.1,0.1,0.1,0.1c0.1,0,0.1-0.1,0.1-0.1C194.2,545.9,194.1,545.8,194.1,545.8L194.1,545.8z"/>
		</g>
	</g>
</g>
<g>
	<g>
		<g>
			<path d="M194.1,546.8L194.1,546.8c-0.2,0-0.3,0.1-0.3,0.3s0.1,0.3,0.3,0.3c0.2,0,0.3-0.1,0.3-0.3
				C194.4,547,194.3,546.8,194.1,546.8z"/>
			<path d="M194.1,547.6c-0.3,0-0.5-0.2-0.5-0.5s0.2-0.5,0.4-0.5h0c0.3,0,0.5,0.2,0.5,0.5S194.3,547.6,194.1,547.6z M194.1,547
				c-0.1,0-0.1,0.1-0.1,0.1c0,0.1,0.1,0.1,0.1,0.1c0.1,0,0.1-0.1,0.1-0.1C194.2,547.1,194.2,547,194.1,547L194.1,547z"/>
		</g>
	</g>
</g>
<g>
	<g>
		<g>
			<path d="M194,548.6h-6.8v-1.7c0-0.8,0.3-1.1,1.3-1.4c0.6-0.2,1.4-0.5,2.1-0.9c0.1-0.1,0.2-0.2,0.1-0.4c-0.1-0.1-0.2-0.2-0.4-0.1
				c-0.7,0.3-1.4,0.6-2,0.8c-1.1,0.4-1.7,0.9-1.7,2v2c0,0.2,0.1,0.3,0.3,0.3h7.1c0.2,0,0.3-0.1,0.3-0.3
				C194.3,548.7,194.2,548.6,194,548.6z"/>
			<path d="M194,549.4h-7.1c-0.3,0-0.5-0.2-0.5-0.5v-2c0-1.2,0.7-1.7,1.8-2.2c0.6-0.2,1.4-0.5,2-0.8c0.1-0.1,0.2-0.1,0.3,0
				c0.1,0,0.2,0.1,0.3,0.2c0.1,0.2,0,0.5-0.2,0.6c-0.7,0.3-1.5,0.6-2.1,0.9c-1,0.4-1.2,0.7-1.2,1.3v1.5h6.6c0.3,0,0.5,0.2,0.5,0.5
				S194.3,549.4,194,549.4z M190.5,544.2C190.5,544.2,190.5,544.2,190.5,544.2c-0.7,0.3-1.6,0.7-2.1,0.9c-1,0.4-1.6,0.8-1.6,1.9v2
				c0,0.1,0.1,0.1,0.1,0.1h7.1c0.1,0,0.1-0.1,0.1-0.1s-0.1-0.1-0.1-0.1h-7v-1.8c0-0.8,0.3-1.2,1.4-1.6c0.6-0.2,1.4-0.5,2.1-0.9
				c0.1,0,0.1-0.1,0.1-0.2C190.6,544.3,190.6,544.2,190.5,544.2C190.5,544.2,190.5,544.2,190.5,544.2z"/>
		</g>
	</g>
</g>
<g>
	<g>
		<g>
			<path d="M199.8,544.9c-0.6-0.2-1.4-0.5-2-0.8c-0.1-0.1-0.3,0-0.4,0.1c-0.1,0.1,0,0.3,0.1,0.4c0.7,0.3,1.5,0.6,2.1,0.9
				c1,0.4,1.3,0.7,1.3,1.4v1.7H194c-0.2,0-0.3,0.1-0.3,0.3c0,0.2,0.1,0.3,0.3,0.3h7.1c0.2,0,0.3-0.1,0.3-0.3v-2
				C201.4,545.8,200.8,545.3,199.8,544.9z"/>
			<path d="M201.2,549.4H194c-0.3,0-0.5-0.2-0.5-0.5s0.2-0.5,0.5-0.5h6.6v-1.5c0-0.6-0.2-0.9-1.2-1.3c-0.6-0.2-1.4-0.5-2.1-0.9
				c-0.1-0.1-0.2-0.1-0.2-0.3s0-0.2,0-0.3c0.1-0.1,0.1-0.2,0.3-0.2c0.1,0,0.2,0,0.3,0c0.7,0.3,1.5,0.6,2,0.8
				c1.1,0.4,1.8,0.9,1.8,2.2v2C201.6,549.2,201.4,549.4,201.2,549.4z M194,548.8c-0.1,0-0.1,0.1-0.1,0.1s0.1,0.1,0.1,0.1h7.1
				c0.1,0,0.1-0.1,0.1-0.1v-2c0-1.1-0.6-1.5-1.6-1.9c-0.6-0.2-1.4-0.5-2.1-0.9c0,0-0.1,0-0.1,0c0,0-0.1,0-0.1,0.1c0,0,0,0.1,0,0.1
				c0,0,0,0.1,0.1,0.1c0.7,0.3,1.5,0.6,2.1,0.9c1.1,0.4,1.4,0.8,1.4,1.6v1.8H194z"/>
		</g>
	</g>
</g>
<g>
	<g>
		<g>
			<path d="M198.2,538.6c-0.2,0-0.3,0.1-0.3,0.3c0,2.6-2.4,5.1-3.8,5.1s-3.8-2.5-3.8-5.1c0-0.2-0.1-0.3-0.3-0.3s-0.3,0.1-0.3,0.3
				c0,3,2.8,5.7,4.4,5.7c1.7,0,4.4-2.7,4.4-5.7C198.5,538.7,198.4,538.6,198.2,538.6z"/>
			<path d="M194.1,544.7c-1.7,0-4.6-2.7-4.6-5.9c0-0.3,0.2-0.5,0.5-0.5s0.5,0.2,0.5,0.5c0,2.5,2.3,4.9,3.7,4.9s3.7-2.4,3.7-4.9
				c0-0.3,0.2-0.5,0.5-0.5s0.5,0.2,0.5,0.5C198.7,542,195.8,544.7,194.1,544.7z M189.9,538.7c-0.1,0-0.1,0.1-0.1,0.1
				c0,2.9,2.7,5.5,4.3,5.5s4.3-2.6,4.3-5.5c0-0.1-0.1-0.1-0.1-0.1c-0.1,0-0.1,0.1-0.1,0.1c0,2.7-2.5,5.3-4,5.3s-4-2.5-4-5.3
				C190.1,538.8,190,538.7,189.9,538.7z"/>
		</g>
	</g>
</g>
<g>
	<g>
		<g>
			<path d="M198.2,538c-0.2,0-0.3,0.1-0.3,0.3v0.6c0,0.2,0.1,0.3,0.3,0.3c0.2,0,0.3-0.1,0.3-0.3v-0.6
				C198.5,538.1,198.4,538,198.2,538z"/>
			<path d="M198.2,539.3c-0.3,0-0.5-0.2-0.5-0.5v-0.6c0-0.3,0.2-0.5,0.5-0.5s0.5,0.2,0.5,0.5v0.6
				C198.7,539.1,198.5,539.3,198.2,539.3z M198.2,538.1c-0.1,0-0.1,0.1-0.1,0.1v0.6c0,0.1,0.1,0.1,0.1,0.1s0.1-0.1,0.1-0.1v-0.6
				C198.3,538.2,198.3,538.1,198.2,538.1z"/>
		</g>
	</g>
</g>
<g>
	<g>
		<g>
			<path d="M189.9,538c-0.2,0-0.3,0.1-0.3,0.3v0.6c0,0.2,0.1,0.3,0.3,0.3s0.3-0.1,0.3-0.3v-0.6C190.2,538.1,190.1,538,189.9,538z"/>
			<path d="M189.9,539.3c-0.3,0-0.5-0.2-0.5-0.5v-0.6c0-0.3,0.2-0.5,0.5-0.5s0.5,0.2,0.5,0.5v0.6
				C190.4,539.1,190.2,539.3,189.9,539.3z M189.9,538.1c-0.1,0-0.1,0.1-0.1,0.1v0.6c0,0.1,0.1,0.1,0.1,0.1s0.1-0.1,0.1-0.1v-0.6
				C190.1,538.2,190,538.1,189.9,538.1z"/>
		</g>
	</g>
</g>
<g>
	<g>
		<g>
			<path d="M194.3,544.6c-0.1-0.1-0.2-0.2-0.4-0.1l-1,0.5l-1.6-1.6c-0.1-0.1-0.3-0.1-0.4,0c-0.1,0.1-0.1,0.3,0,0.4l1.8,1.8
				c0.1,0.1,0.1,0.1,0.2,0.1c0,0,0.1,0,0.1,0l1.2-0.6C194.3,545,194.4,544.8,194.3,544.6z"/>
			<path d="M192.9,545.8c-0.1,0-0.2,0-0.3-0.1l-1.8-1.8c-0.1-0.1-0.1-0.2-0.1-0.3s0-0.2,0.1-0.3c0.2-0.2,0.5-0.2,0.6,0l1.5,1.5
				l0.9-0.4c0.2-0.1,0.5,0,0.6,0.2l0,0c0.1,0.2,0,0.5-0.2,0.6l-1.2,0.6C193,545.8,192.9,545.8,192.9,545.8z M191.1,543.4
				C191.1,543.4,191,543.5,191.1,543.4c-0.1,0.1-0.1,0.1-0.1,0.1s0,0.1,0,0.1l1.8,1.8c0,0,0.1,0.1,0.2,0l1.2-0.6
				c0.1,0,0.1-0.1,0.1-0.2c0-0.1-0.1-0.1-0.2-0.1l-1.1,0.5L191.1,543.4C191.2,543.5,191.1,543.4,191.1,543.4z"/>
		</g>
	</g>
</g>
<g>
	<g>
		<g>
			<path d="M197.2,543.4c-0.1-0.1-0.3-0.1-0.4,0l-1.6,1.6l-1-0.5c-0.1-0.1-0.3,0-0.4,0.1c-0.1,0.1,0,0.3,0.1,0.4l1.2,0.6
				c0,0,0.1,0,0.1,0c0.1,0,0.2,0,0.2-0.1l1.8-1.8C197.3,543.7,197.3,543.5,197.2,543.4z"/>
			<path d="M195.2,545.8c-0.1,0-0.1,0-0.2,0l-1.2-0.6c-0.2-0.1-0.3-0.4-0.2-0.6c0.1-0.2,0.4-0.3,0.6-0.2l0.9,0.4l1.5-1.5
				c0.2-0.2,0.5-0.2,0.6,0h0c0.2,0.2,0.2,0.5,0,0.6l-1.8,1.8C195.5,545.8,195.4,545.8,195.2,545.8z M194,544.6c-0.1,0-0.1,0-0.1,0.1
				c0,0.1,0,0.2,0.1,0.2l1.2,0.6c0,0,0.1,0,0.2,0l1.8-1.8c0.1-0.1,0.1-0.1,0-0.2l0,0c-0.1-0.1-0.1-0.1-0.2,0l-1.7,1.7L194,544.6
				C194.1,544.6,194.1,544.6,194,544.6z"/>
		</g>
	</g>
</g>
<g>
	<g>
		<g>
			<path d="M197.4,534c-0.8-0.9-2-1.3-3.6-1.3c-1.8,0-3.3,0.6-3.4,0.6c-0.1,0-0.2,0.1-0.2,0.2c0,0.1,0,0.2,0.1,0.3l0.3,0.3
				c-0.7,0.5-2.2,1.8-2.2,4.8c0,0.1,0.1,0.2,0.1,0.3c0,0,0.1,0,0.1,0c0.1,0,0.1,0,0.1,0c0,0,4.3-2.5,7.9-2.3l1.2,1.7
				c0.1,0.1,0.2,0.1,0.3,0.1c0.1,0,0.2-0.1,0.2-0.3C198.6,536.4,198.3,534.9,197.4,534z M197.2,536.3c-0.1-0.1-0.1-0.1-0.2-0.1
				c-3.1-0.2-6.7,1.5-7.9,2.2c0.2-3,2.1-3.9,2.2-4c0.1,0,0.2-0.1,0.2-0.2c0-0.1,0-0.2-0.1-0.3l-0.3-0.2c0.6-0.2,1.6-0.4,2.7-0.4
				c1.4,0,2.5,0.4,3.2,1.1c0.6,0.7,1,1.7,1,3L197.2,536.3z"/>
			<path d="M188.7,539.3c-0.1,0-0.2,0-0.2-0.1c-0.1-0.1-0.2-0.2-0.2-0.4c0-2.9,1.4-4.3,2.1-4.8l-0.2-0.2c-0.1-0.1-0.2-0.3-0.1-0.4
				c0-0.2,0.1-0.3,0.3-0.3c0,0,1.6-0.6,3.4-0.6c1.6,0,2.9,0.5,3.7,1.4c0.9,1,1.3,2.5,1.2,4.4c0,0.2-0.1,0.4-0.3,0.4
				c-0.2,0.1-0.4,0-0.5-0.2l-1.1-1.6c-0.1,0-0.2,0-0.2,0c-3.5,0-7.5,2.3-7.5,2.3C188.9,539.3,188.8,539.3,188.7,539.3z M193.8,532.8
				c-1.8,0-3.3,0.6-3.3,0.6c0,0-0.1,0.1-0.1,0.1c0,0,0,0.1,0,0.1l0.5,0.5l-0.2,0.1c-0.6,0.4-2.1,1.7-2.1,4.7c0,0,0,0.1,0.1,0.1
				c0,0,0.1,0,0.1,0c0,0,4.4-2.5,8-2.4l0.1,0l1.2,1.7c0,0,0.1,0.1,0.2,0.1c0.1,0,0.1-0.1,0.1-0.1c0.1-1.9-0.2-3.3-1.1-4.2l0,0
				C196.5,533.2,195.3,532.8,193.8,532.8z M188.9,538.6l0-0.3c0.2-3.1,2.2-4.1,2.3-4.1c0,0,0.1-0.1,0.1-0.1c0,0,0-0.1,0-0.1
				l-0.5-0.4l0.3-0.1c0.7-0.2,1.7-0.4,2.8-0.4c1.5,0,2.6,0.4,3.3,1.2c0.7,0.7,1,1.7,1,3.1l0,0.5l-1-1.5c0,0-0.1-0.1-0.1-0.1
				c-3.2-0.2-6.8,1.6-7.9,2.1L188.9,538.6z M191.4,533.7L191.4,533.7c0.2,0.2,0.2,0.3,0.2,0.5c0,0.2-0.1,0.3-0.3,0.3
				c-0.1,0-1.8,0.8-2.1,3.5c1.5-0.8,4.8-2.2,7.8-2c0.1,0,0.3,0.1,0.3,0.2h0l0.4,0.6c-0.1-1-0.4-1.8-0.9-2.3
				c-0.7-0.7-1.7-1.1-3.1-1.1C192.9,533.4,192,533.6,191.4,533.7z"/>
		</g>
	</g>
</g>
<g>
	<g>
		<g>
			<path d="M183.4,538.8c-0.2,0-0.3,0.1-0.3,0.3c0,2.5-2.4,4.8-3.8,4.8c-0.2,0-0.3,0.1-0.3,0.3s0.1,0.3,0.3,0.3
				c1.7,0,4.4-2.5,4.4-5.4C183.7,538.9,183.6,538.8,183.4,538.8z"/>
			<path d="M179.3,544.6c-0.3,0-0.5-0.2-0.5-0.5s0.2-0.5,0.5-0.5c1.4,0,3.7-2.2,3.7-4.6c0-0.3,0.2-0.5,0.5-0.5s0.5,0.2,0.5,0.5
				C183.8,542,181,544.6,179.3,544.6z M183.4,539c-0.1,0-0.1,0.1-0.1,0.1c0,2.5-2.5,4.9-4,4.9c-0.1,0-0.1,0.1-0.1,0.1
				s0.1,0.1,0.1,0.1c1.6,0,4.3-2.4,4.3-5.2C183.5,539,183.5,539,183.4,539z"/>
		</g>
	</g>
</g>
<g>
	<g>
		<g>
			<path d="M179.3,543.9c-1.4,0-3.8-2.3-3.8-4.8c0-0.2-0.1-0.3-0.3-0.3c-0.2,0-0.3,0.1-0.3,0.3c0,2.9,2.8,5.4,4.4,5.4
				c0.2,0,0.3-0.1,0.3-0.3C179.5,544,179.4,543.9,179.3,543.9z"/>
			<path d="M179.3,544.6c-1.7,0-4.6-2.6-4.6-5.5c0-0.3,0.2-0.5,0.5-0.5s0.5,0.2,0.5,0.5c0,2.4,2.3,4.6,3.7,4.6
				c0.3,0,0.5,0.2,0.5,0.5S179.5,544.6,179.3,544.6z M175.1,539c-0.1,0-0.1,0.1-0.1,0.1c0,2.8,2.7,5.2,4.3,5.2
				c0.1,0,0.1-0.1,0.1-0.1s-0.1-0.1-0.1-0.1c-1.5,0-4-2.4-4-4.9C175.2,539,175.2,539,175.1,539z"/>
		</g>
	</g>
</g>
<g>
	<g>
		<g>
			<path d="M184.4,544.8c-0.2-0.1-1.1-0.4-1.8-0.6c-0.4-0.1-0.7-0.3-0.9-0.3c-0.2-0.1-0.3,0-0.4,0.2c-0.1,0.2,0,0.3,0.2,0.4
				c0.1,0,0.5,0.2,0.9,0.3c0.7,0.2,1.6,0.5,1.8,0.6c1,0.4,1.3,0.7,1.3,1.5v2.1c0,0.2,0.1,0.3,0.3,0.3c0.2,0,0.3-0.1,0.3-0.3v-2.1
				C186.1,545.7,185.4,545.2,184.4,544.8z"/>
			<path d="M185.8,549.4c-0.3,0-0.5-0.2-0.5-0.5v-2.1c0-0.7-0.2-0.9-1.2-1.3c-0.1-0.1-1-0.4-1.8-0.6l-0.9-0.3
				c-0.1,0-0.2-0.1-0.3-0.2s-0.1-0.2,0-0.3c0-0.1,0.1-0.2,0.2-0.3c0.1-0.1,0.2-0.1,0.3,0l0.9,0.3c0.8,0.3,1.6,0.6,1.8,0.6
				c1.1,0.4,1.8,0.9,1.8,2.2v2.1c0,0.1,0,0.2-0.1,0.3C186,549.3,185.9,549.4,185.8,549.4z M181.6,544C181.6,544,181.6,544,181.6,544
				c-0.1,0-0.1,0.1-0.1,0.1c0,0,0,0.1,0,0.1c0,0,0,0.1,0.1,0.1l0.9,0.3c0.7,0.2,1.6,0.5,1.8,0.6c1.1,0.4,1.4,0.8,1.4,1.6v2.1
				c0,0.1,0.2,0.2,0.2,0.1c0,0,0-0.1,0-0.1v-2.1c0-1.1-0.6-1.5-1.6-1.9h0c-0.2-0.1-1.2-0.4-1.8-0.6L181.6,544
				C181.7,544,181.6,544,181.6,544z"/>
		</g>
	</g>
</g>
<g>
	<g>
		<g>
			<path d="M184.6,538c-0.2,0-0.3,0.1-0.3,0.3v5.5c0,0.2,0.1,0.3,0.3,0.3c0.2,0,0.3-0.1,0.3-0.3v-5.5
				C184.9,538.1,184.7,538,184.6,538z"/>
			<path d="M184.6,544.2c-0.3,0-0.5-0.2-0.5-0.5v-5.5c0-0.3,0.2-0.5,0.5-0.5s0.5,0.2,0.5,0.5v5.5C185,544,184.8,544.2,184.6,544.2z
				 M184.6,538.1c-0.1,0-0.1,0.1-0.1,0.1v5.5c0,0.1,0.1,0.1,0.1,0.1c0.1,0,0.1-0.1,0.1-0.1v-5.5
				C184.7,538.2,184.6,538.1,184.6,538.1z"/>
		</g>
	</g>
</g>
<g>
	<g>
		<g>
			<path d="M173.9,538c-0.2,0-0.3,0.1-0.3,0.3v5.5c0,0.2,0.1,0.3,0.3,0.3c0.2,0,0.3-0.1,0.3-0.3v-5.5
				C174.2,538.1,174.1,538,173.9,538z"/>
			<path d="M173.9,544.2c-0.3,0-0.5-0.2-0.5-0.5v-5.5c0-0.3,0.2-0.5,0.5-0.5s0.5,0.2,0.5,0.5v5.5C174.4,544,174.2,544.2,173.9,544.2
				z M173.9,538.1c-0.1,0-0.1,0.1-0.1,0.1v5.5c0,0.1,0.1,0.1,0.1,0.1s0.1-0.1,0.1-0.1v-5.5C174.1,538.2,174,538.1,173.9,538.1z"/>
		</g>
	</g>
</g>
<g>
	<g>
		<g>
			<path d="M179.2,532.6c-0.2,0-0.3,0.1-0.3,0.3c0,0.2,0.1,0.3,0.3,0.3c2.8,0,5,2.3,5,5c0,0.2,0.1,0.3,0.3,0.3
				c0.2,0,0.3-0.1,0.3-0.3C184.9,535.2,182.3,532.6,179.2,532.6z"/>
			<path d="M184.6,538.7c-0.3,0-0.5-0.2-0.5-0.5c0-2.7-2.2-4.9-4.9-4.9c-0.3,0-0.5-0.2-0.5-0.5s0.2-0.5,0.5-0.5
				c3.2,0,5.8,2.6,5.8,5.8C185,538.5,184.8,538.7,184.6,538.7z M179.2,532.8c-0.1,0-0.1,0.1-0.1,0.1s0.1,0.1,0.1,0.1
				c2.9,0,5.2,2.3,5.2,5.2c0,0.1,0.1,0.1,0.1,0.1s0.1-0.1,0.1-0.1C184.7,535.2,182.3,532.8,179.2,532.8z"/>
		</g>
	</g>
</g>
<g>
	<g>
		<g>
			<path d="M179.3,532.6c-3.1,0-5.6,2.5-5.6,5.6c0,0.2,0.1,0.3,0.3,0.3c0.2,0,0.3-0.1,0.3-0.3c0-2.8,2.3-5,5-5
				c0.2,0,0.3-0.1,0.3-0.3C179.5,532.8,179.4,532.6,179.3,532.6z"/>
			<path d="M173.9,538.7c-0.3,0-0.5-0.2-0.5-0.5c0-3.2,2.6-5.8,5.8-5.8c0.3,0,0.5,0.2,0.5,0.5s-0.2,0.5-0.5,0.5
				c-2.7,0-4.9,2.2-4.9,4.9C174.4,538.5,174.2,538.7,173.9,538.7z M179.3,532.8c-3,0-5.5,2.5-5.5,5.5c0,0.1,0.1,0.1,0.1,0.1
				s0.1-0.1,0.1-0.1c0-2.9,2.3-5.2,5.2-5.2c0.1,0,0.1-0.1,0.1-0.1S179.3,532.8,179.3,532.8z"/>
		</g>
	</g>
</g>
<g>
	<g>
		<g>
			<path d="M183.4,534.5c-0.1-0.1-0.3-0.2-0.4,0c0,0-4.3,3.4-8.6,4.1c-0.2,0-0.3,0.2-0.2,0.3c0,0.1,0.1,0.2,0.3,0.2c0,0,0,0,0,0
				c4.4-0.7,8.7-4.1,8.8-4.2C183.5,534.8,183.5,534.6,183.4,534.5z"/>
			<path d="M174.5,539.3c-0.2,0-0.4-0.2-0.4-0.4c0-0.2,0.1-0.5,0.4-0.5c4.2-0.7,8.4-4,8.5-4c0.1-0.1,0.2-0.1,0.3-0.1
				c0.1,0,0.2,0.1,0.3,0.2c0.1,0.1,0.1,0.2,0.1,0.3s-0.1,0.2-0.2,0.3C183.3,535.2,179,538.6,174.5,539.3
				C174.6,539.3,174.5,539.3,174.5,539.3z M183.2,534.6C183.2,534.6,183.2,534.6,183.2,534.6c-0.1,0.1-4.5,3.5-8.7,4.1
				c-0.1,0-0.1,0.1-0.1,0.2c0,0.1,0.1,0.1,0.1,0.1c4.4-0.7,8.6-4,8.8-4.2c0,0,0-0.1,0.1-0.1c0,0,0-0.1,0-0.1v0
				C183.3,534.6,183.3,534.6,183.2,534.6C183.2,534.6,183.2,534.6,183.2,534.6z"/>
		</g>
	</g>
</g>
<g>
	<g>
		<g>
			<path d="M184.6,538.6c-2.7-0.7-4-2.2-4-2.2c-0.1-0.1-0.3-0.1-0.4,0c-0.1,0.1-0.1,0.3,0,0.4c0.1,0.1,1.4,1.6,4.3,2.4
				c0,0,0.1,0,0.1,0c0.1,0,0.3-0.1,0.3-0.2C184.9,538.8,184.8,538.6,184.6,538.6z"/>
			<path d="M184.6,539.3c0,0-0.1,0-0.1,0c-2.9-0.8-4.3-2.4-4.4-2.4c-0.2-0.2-0.1-0.5,0-0.6c0.2-0.2,0.5-0.1,0.6,0
				c0.1,0.1,1.3,1.5,3.9,2.1c0.1,0,0.2,0.1,0.3,0.2c0.1,0.1,0.1,0.2,0,0.3C185,539.2,184.8,539.3,184.6,539.3z M180.4,536.4
				C180.4,536.4,180.4,536.4,180.4,536.4c-0.1,0.1-0.2,0.2-0.1,0.2c0.1,0.1,1.4,1.6,4.2,2.3c0.1,0,0.2,0,0.2-0.1c0,0,0-0.1,0-0.1
				s0-0.1-0.1-0.1h0c-2.7-0.7-4-2.2-4.1-2.2C180.5,536.4,180.5,536.4,180.4,536.4z"/>
		</g>
	</g>
</g>
<g>
	<g>
		<g>
			<path d="M183.4,538.2c-0.2,0-0.3,0.1-0.3,0.3v0.6c0,0.2,0.1,0.3,0.3,0.3s0.3-0.1,0.3-0.3v-0.6
				C183.7,538.3,183.6,538.2,183.4,538.2z"/>
			<path d="M183.4,539.5c-0.3,0-0.5-0.2-0.5-0.5v-0.6c0-0.3,0.2-0.5,0.5-0.5s0.5,0.2,0.5,0.5v0.6
				C183.8,539.3,183.6,539.5,183.4,539.5z M183.4,538.3c-0.1,0-0.1,0.1-0.1,0.1v0.6c0,0.1,0.1,0.1,0.1,0.1s0.1-0.1,0.1-0.1v-0.6
				C183.5,538.4,183.5,538.3,183.4,538.3z"/>
		</g>
	</g>
</g>
<g>
	<g>
		<g>
			<path d="M175.1,538.4c-0.2,0-0.3,0.1-0.3,0.3v0.4c0,0.2,0.1,0.3,0.3,0.3c0.2,0,0.3-0.1,0.3-0.3v-0.4
				C175.4,538.6,175.3,538.4,175.1,538.4z"/>
			<path d="M175.1,539.5c-0.3,0-0.5-0.2-0.5-0.5v-0.4c0-0.3,0.2-0.5,0.5-0.5s0.5,0.2,0.5,0.5v0.4
				C175.6,539.3,175.4,539.5,175.1,539.5z M175.1,538.6c-0.1,0-0.1,0.1-0.1,0.1v0.4c0,0.1,0.1,0.1,0.1,0.1s0.1-0.1,0.1-0.1v-0.4
				C175.2,538.7,175.2,538.6,175.1,538.6z"/>
		</g>
	</g>
</g>
<g>
	<g>
		<g>
			<path d="M177.2,544.1c-0.1-0.2-0.2-0.2-0.4-0.2c-0.2,0.1-0.8,0.3-1.3,0.6c-0.4,0.2-0.7,0.3-0.7,0.3l-0.1,0c-1,0.4-2.2,0.8-2.2,2
				v2.1c0,0.2,0.1,0.3,0.3,0.3s0.3-0.1,0.3-0.3v-2.1c0-0.7,0.7-1,1.8-1.4l0.1,0c0.1,0,0.4-0.2,0.8-0.3c0.5-0.2,1.1-0.5,1.3-0.6
				C177.2,544.4,177.3,544.2,177.2,544.1z"/>
			<path d="M172.7,549.4c-0.3,0-0.5-0.2-0.5-0.5v-2.1c0-1.3,1.3-1.8,2.3-2.1l0.1,0c0.1,0,0.3-0.1,0.5-0.2l0.2-0.1
				c0.6-0.3,1.1-0.5,1.4-0.6c0.1,0,0.2,0,0.3,0c0.1,0.1,0.2,0.1,0.2,0.3h0c0.1,0.2,0,0.5-0.3,0.6c-0.2,0.1-0.8,0.3-1.3,0.6l-0.2,0.1
				c-0.3,0.1-0.5,0.2-0.6,0.3l-0.1,0c-1,0.4-1.7,0.7-1.7,1.3v2.1C173.2,549.2,173,549.4,172.7,549.4z M176.9,544
				C176.9,544,176.9,544,176.9,544c-0.3,0.1-0.8,0.3-1.4,0.6l-0.2,0.1c-0.3,0.1-0.5,0.2-0.6,0.2l-0.1,0c-1,0.4-2.1,0.8-2.1,1.8v2.1
				c0,0.1,0.1,0.1,0.1,0.1s0.1-0.1,0.1-0.1v-2.1c0-0.8,0.8-1.2,1.9-1.6l0.1,0c0.1,0,0.3-0.1,0.6-0.3l0.2-0.1
				c0.6-0.3,1.1-0.5,1.3-0.6c0.1,0,0.1-0.1,0.1-0.2l0,0C177,544.1,177,544.1,176.9,544C177,544,176.9,544,176.9,544z"/>
		</g>
	</g>
</g>
<g>
	<g>
		<g>
			<path d="M182.4,544.6c-0.1-0.1-0.3-0.1-0.4,0c0,0-1.1,1.1-2.8,1.1c-1.6,0-2.7-1.1-2.8-1.1c-0.1-0.1-0.3-0.1-0.4,0
				c-0.1,0.1-0.1,0.3,0,0.4c0.1,0.1,1.3,1.3,3.2,1.3c1.9,0,3.1-1.2,3.2-1.3C182.5,544.9,182.5,544.7,182.4,544.6z"/>
			<path d="M179.2,546.4c-2,0-3.3-1.3-3.3-1.3c-0.1-0.1-0.1-0.2-0.1-0.3s0-0.2,0.1-0.3c0.2-0.2,0.5-0.2,0.6,0c0,0,1.1,1.1,2.6,1.1
				c1.6,0,2.6-1,2.6-1.1c0.2-0.2,0.5-0.2,0.6,0l0,0c0.2,0.2,0.2,0.5,0,0.6C182.5,545.1,181.2,546.4,179.2,546.4z M176.3,544.6
				c0,0-0.1,0-0.1,0c0,0,0,0.1,0,0.1c0,0,0,0.1,0,0.1c0,0,1.2,1.2,3.1,1.2c1.8,0,3-1.2,3.1-1.2c0.1-0.1,0.1-0.1,0-0.2l0,0
				c-0.1-0.1-0.1-0.1-0.2,0c0,0-1.2,1.1-2.9,1.1C177.5,545.8,176.4,544.7,176.3,544.6C176.4,544.6,176.3,544.6,176.3,544.6z"/>
		</g>
	</g>
</g>
<g>
	<g>
		<g>
			<path d="M185.8,548.6h-13c-0.2,0-0.3,0.1-0.3,0.3c0,0.2,0.1,0.3,0.3,0.3h13c0.2,0,0.3-0.1,0.3-0.3
				C186.1,548.7,185.9,548.6,185.8,548.6z"/>
			<path d="M185.8,549.4h-13c-0.3,0-0.5-0.2-0.5-0.5s0.2-0.5,0.5-0.5h13c0.3,0,0.5,0.2,0.5,0.5S186,549.4,185.8,549.4z M172.7,548.8
				c-0.1,0-0.1,0.1-0.1,0.1s0.1,0.1,0.1,0.1h13c0.1,0,0.1-0.1,0.1-0.1s-0.1-0.1-0.1-0.1H172.7z"/>
		</g>
	</g>
</g>
</svg>
