<?xml version="1.0" encoding="utf-8"?>
<!-- Generator: Adobe Illustrator 19.0.1, SVG Export Plug-In . SVG Version: 6.00 Build 0)  -->
<svg version="1.1" id="Слой_1" xmlns="http://www.w3.org/2000/svg" xmlns:xlink="http://www.w3.org/1999/xlink" x="0px" y="0px"
	 viewBox="0 0 206 83.1" style="enable-background:new 0 0 206 83.1;" xml:space="preserve">
<path d="M204.3,56.1c-0.2-4.6-0.1-7.4,0.6-17.9c-0.1-1.8,0.7-6.5,0.8-12.3c-0.2-3.7,0.3-6.8,0.3-10.5c0-4.9-0.5-10-4.4-13.2
	C197-1.6,51.5,0.5,45.4,0.9c-1,0.1-2,0.1-2.9,0.2C35.4,1.4,27.3,2,20.2,5.4c-7.4,3.5-7.8,10.2-7.2,16.4c0.1,0.8,0.2,1.8,0.4,2.9
	c0.8,4.9,2.1,13.1-2,14.4c-4,1.3-7.3,2-10,2.1c-0.6,0-1.1,0.4-1.3,0.8C0,42.3,0,42.6,0,42.7c0.1,0.2,0.2,0.4,0.7,0.5
	c1.7,0.3,3.4,0.8,5,1.3c0.7,0.2,1.3,0.4,2,0.6c0.6,0.2,1.1,0.3,1.6,0.4c3.5,0.9,6.2,1.6,6.4,5.8c0.1,2.2,0.2,4.4,0.3,6.5
	c0.2,4,0.3,8.2,0.8,12.3l0,0.2c0.4,3.9,1,8.7,4.7,11.1c2.1,1.4,5.2,1.2,7.7,1.1c0.5,0,1,0,1.5,0c4.5-0.1,9.1,0.2,13.6,0.5
	c2.3,0.1,140.4-1.3,142.7-1.2c0.5,0,1,0,1.5,0c8.4,0,13.8-3.3,15.2-9.3c0.8-3.4,0.6-7,0.4-10.5C204.3,60.2,204.2,58.1,204.3,56.1z
	 M19.7,69l-0.1-1c-0.4-3.8-0.6-7.7-0.7-11.5c-0.1-2.2-0.1-4.5-0.3-6.8c-0.2-3.7-3-4.6-5.4-5.3c-0.8-0.2-1.6-0.5-2.4-0.8
	c-1.4-0.4-2.7-0.9-4.1-1.3c0.8-0.2,1.7-0.4,2.5-0.6l1.1-0.3c4-1,5.1-1.7,6.2-6.1c1-3.7,0.4-7.7-0.1-11.6c-1-6.9-1.9-13.5,5.8-17.1
	c6.8-3.2,15.2-3.4,22.6-3.6l2-0.1c5.3-0.2,147.9-1.7,152,0.3c4.8,2.5,4.7,9.6,4.6,14.8c0,0.9-1.4,19.3-1.4,22.7
	c0,2.9-0.1,5.9-0.2,8.8c-0.1,3.6,2.4,25.5-3.8,28.3c-4.4,2-146.3,3.7-151.5,3.2c-1.2-0.1-2.4-0.2-3.5-0.3c-2.9-0.2-5.8-0.2-8.6-0.2
	c-2.5,0-5,0-7.5-0.2C20.9,80.2,20.2,74,19.7,69z"/>
</svg>
