<?xml version="1.0" encoding="utf-8"?>
<!-- Generator: Adobe Illustrator 21.0.0, SVG Export Plug-In . SVG Version: 6.00 Build 0)  -->
<svg version="1.1" id="Слой_1" xmlns="http://www.w3.org/2000/svg" xmlns:xlink="http://www.w3.org/1999/xlink" x="0px" y="0px"
	 viewBox="0 0 19 19" style="enable-background:new 0 0 19 19;" xml:space="preserve">
<style type="text/css">
	.st0{fill:#7F7D7D;}
</style>
<title>icon-cabinet</title>
<path class="st0" d="M9.3,0C4.5-0.1,0.4,3.6,0,8.4C0.1,10.8,0.8,13,2.2,15c1.5,2.4,4.1,4,6.9,4c6,0,9.9-3.3,9.9-8.5
	C19,3.5,15.7,0,9.3,0z M4.5,16.2C4.5,16.1,4.5,16.1,4.5,16.2c0-2,1.4-3.7,3.4-3.9c0.7-0.2,1.4-0.4,1.6-1c0.2-0.6-0.3-1-0.8-1.5
	C7.8,9,7.3,8,7.3,6.9c0.1-1,1.4-1.7,2.6-1.9c0.5,0,2.1-0.1,2.6,1.2c0.8,2.1,0.1,2.7-0.6,3.3c-0.6,0.3-1,1-1,1.7
	c0.1,0.6,0.7,0.8,1.4,1.1c1.8,0.3,3,2.1,2.7,3.9c0,0,0,0,0,0.1c0,0,0,0.1,0,0.1c-1.8,1.1-3.8,1.6-5.8,1.5
	C7.4,17.9,5.8,17.3,4.5,16.2z M6.5,6C6.4,5.9,6.3,5.7,6.3,5.6c0-0.4,0.3-0.7,0.7-0.8c0.2,0,0.4,0,0.5,0.1C7.1,5.2,6.7,5.5,6.5,6z
	 M13.1,5.3c-0.3-0.4-0.6-0.7-1-0.9c0-0.1,0.1-0.2,0.2-0.2c0.4,0,0.7,0.2,0.9,0.6C13.3,4.9,13.2,5.1,13.1,5.3z M16,15.5
	c0-2-1.5-3.8-3.4-4.2c-0.2-0.1-0.4-0.1-0.6-0.2c0-0.2,0.1-0.3,0.6-0.7c1.3-0.9,1.7-2.6,1-4.1c0.6-0.4,0.9-1.2,0.7-1.9
	c-0.3-0.8-1.1-1.3-2-1.3c-0.5,0.1-1,0.4-1.1,1C10.7,4,10.2,4,9.7,4.1C9.3,4.1,8.8,4.2,8.4,4.4C8,3.9,7.3,3.6,6.7,3.7
	C5.8,4,5.2,4.7,5.2,5.6c0,0.7,0.4,1.2,1,1.5c0.1,1.3,0.7,2.6,1.7,3.4c0.2,0.1,0.3,0.3,0.5,0.4c-0.2,0.1-0.5,0.2-0.7,0.3
	c-2.1,0.3-3.7,1.9-4.1,4C2,13.1,1.2,10.8,1,8.3C1.5,4.1,5.1,1,9.3,1.1c5.8,0,8.6,3.1,8.6,9.5C18,12.4,17.3,14.2,16,15.5z"/>
</svg>
