<?xml version="1.0" encoding="utf-8"?>
<!-- Generator: Adobe Illustrator 21.0.0, SVG Export Plug-In . SVG Version: 6.00 Build 0)  -->
<svg version="1.1" id="Графика" xmlns="http://www.w3.org/2000/svg" xmlns:xlink="http://www.w3.org/1999/xlink" x="0px"
	 y="0px" viewBox="0 0 102.6 70.7" style="enable-background:new 0 0 102.6 70.7;" xml:space="preserve">
<g>
	<g>
		<path d="M52.7,51.8c3.2,4.4,10.1,11,3.9,16.1c-3.6,3-10.7,0.4-14.5-1c-8.4-3.1-17.2-7.5-23.7-13.7C11.5,46.7,4,38.2,2,28.7
			c-0.5-2.6-0.7-6,1.1-8.2c4.2-5.3,12.1,0.2,16.2,2.8c0.9,0.5,1.7-0.8,0.9-1.3C15,18.7,4.4,12.5,0.8,21.3C-2,28.2,2.9,36.7,6.7,42.1
			c5.1,7.3,11.4,14.1,19,18.7c3.9,2.3,8,4.2,12.1,6.1c4.7,2.1,10.1,4.1,15.3,3.8c3.8-0.2,6.9-3,7.5-7c0.7-4.9-4.2-9.4-6.8-12.9
			C53.3,49.9,52.1,51,52.7,51.8L52.7,51.8z"/>
	</g>
	<g>
		<path d="M16.1,25.9c-2.9,7.9,5.4,16.5,10.8,21.2c6.8,5.9,15.3,9.7,24.3,10.5c0.3,0,0.7-0.2,0.8-0.5c1.9-7.8,4.3-15.5,7.6-22.8
			c1.4-3.1,3.1-6.1,5.1-9c0.9-1.3,1.8-2.5,2.8-3.6c0.4-0.4,1-1.3,1.4-1.5c1.5-0.8,1.8-0.1,2.6,0.7c4.8,4.7,9.7,9.4,14.9,13.8
			c1.9,1.7,4.3,4.3,6.7,5.3c2.9,1.1,6.6-2.2,9-3.4c0.5-0.3,0.6-1.3-0.1-1.4c-3.2-0.6-6.9-0.5-8.3-3.8c-0.8-1.9-1-4-1.9-5.9
			c-1.8-4-5.1-6.5-8.5-9.1c-4.5-3.4-9.3-6.6-14.2-9.4c-4.1-2.3-8.5-5.1-13-6.4c-7.5-2.1-14.5,2.7-20.3,6.9
			c-7.2,5.3-14,11.4-19.7,18.3c-0.6,0.8,0.7,1.6,1.3,0.9C22.9,20,29.4,14.2,36.2,9.1C39,7,41.8,5,44.9,3.5C50.4,0.9,55.1,1.4,60.4,4
			c8.9,4.4,17.5,9.8,25.2,16.1c2.1,1.7,3.8,3.6,4.9,6.1c1,2.3,1.2,4.7,2.1,7c1.3,3.2,6.1,3,9,3.6c0-0.5-0.1-1-0.1-1.4
			c-2.1,1.1-4.7,3.2-7.1,3c-2.2-0.2-4-2.2-5.7-3.6c-3.4-2.9-6.7-5.9-10-9c-1.5-1.4-3-2.9-4.5-4.3c-0.9-0.9-2-2.5-3.2-3
			c-2.3-1.1-4.1,1.7-5.3,3.3c-4.9,5.9-8.2,13.1-10.8,20.3c-0.8,2.2-1.5,4.3-2.1,6.5c-0.4,1.2-0.7,2.5-1.1,3.8
			c-0.2,0.8-0.5,3.5-1.3,3.9c-1.3,0.6-5.2-0.9-6.6-1.3c-2.2-0.7-4.4-1.5-6.5-2.6c-4.8-2.4-9.1-5.6-12.7-9.5
			c-3.8-4-9.1-10.4-6.9-16.2C17.9,25.5,16.4,25,16.1,25.9z"/>
	</g>
	<g>
		<path d="M41.3,5.4c1,0,2,0,3-0.2c-0.3-0.4-0.6-0.8-0.8-1.2c-0.7,1-1.4,2-2.2,2.8c-0.4,0.4-1.1,0.9-1.2,1.5
			c-0.2,1.4,2.1,3.6,2.9,4.5c0.3-0.4,0.7-0.8,1-1.2c-1.5-0.7-3-1.5-4.4-2.2c-0.4-0.2-1.1-0.1-1.2,0.4c-0.4,1.5-0.7,3.1-1.1,4.6
			c0.5,0,1-0.1,1.4-0.1c-0.7-1.4-1.3-2.7-1.3-4.2c0-0.4-0.3-0.9-0.7-0.8c-1.5,0.1-2.9,0.3-4.3,0.8c-0.9,0.3-0.6,1.9,0.3,1.5
			c1.3-0.5,2.5-0.7,3.8-0.8c-0.2-0.3-0.5-0.6-0.7-0.8c0,1.8,0.6,3.4,1.5,5c0.3,0.6,1.3,0.6,1.4-0.1c0.4-1.5,0.7-3.1,1.1-4.6
			c-0.4,0.1-0.8,0.3-1.2,0.4c1.5,0.7,3,1.5,4.4,2.2c0.8,0.4,1.6-0.5,1-1.2c-0.5-0.6-1.2-1.3-1.6-2c-0.5-1.1-0.4-1.5,0.3-2.3
			c0.7-0.8,1.4-1.7,2-2.6c0.4-0.6-0.2-1.3-0.8-1.2c-0.9,0.1-1.7,0.2-2.6,0.1C40.4,3.8,40.3,5.3,41.3,5.4L41.3,5.4z"/>
	</g>
	<g>
		<path d="M46.2,25c-1.3,0.5-2.4,1.2-3.5,1.9c0.4,0,0.7,0,1.1,0.1c-1-0.9-1.9-1.9-2.7-3c-0.6-0.8-1.6,0.1-1.3,0.9
			c0.2,0.5,0.4,1.1,0.5,1.7c0.4,0.9,0.2,1.3-0.6,1.4c-0.6,0.4-1.7,0.7-2.4,0.9c-0.8,0.3-0.4,1.4,0.3,1.5c1.4,0.1,2.8,0.2,4.2,0.3
			c-0.2-0.3-0.5-0.6-0.7-0.8c-0.1,1.2-0.3,2.3-0.4,3.5c-0.1,0.8,1,1,1.4,0.5c0.3-0.4,0.6-0.8,0.9-1.1c0.3-0.9,0.7-1.2,1.4-0.8
			c0.7,0.1,1.8,0.9,2.5,1.3c0.6,0.3,1.6-0.3,1.1-1c-0.6-0.9-1.3-1.7-1.8-2.6c-0.9-1.4,0.2-2.2,1.1-3.4c0.6-0.8-0.7-1.7-1.3-0.9
			c-0.6,0.9-2.4,2.4-2.2,3.6c0.1,0.5,0.6,0.9,0.9,1.2c0.8,0.9,1.4,1.8,2,2.8c0.4-0.3,0.8-0.7,1.1-1c-1-0.5-2.8-2-4-1.8
			c-1.2,0.2-2.2,2.1-2.9,2.9c0.5,0.2,1,0.3,1.4,0.5c0.1-1.2,0.3-2.3,0.4-3.5c0-0.4-0.3-0.8-0.7-0.8c-1.4-0.1-2.8-0.2-4.2-0.3
			c0.1,0.5,0.2,1,0.3,1.5c1.1-0.4,3.2-0.8,3.8-1.9c0.6-1.2-0.2-3.2-0.6-4.3c-0.4,0.3-0.9,0.6-1.3,0.9c0.8,1.1,1.7,2.1,2.7,3
			c0.3,0.3,0.7,0.3,1.1,0.1c1-0.7,2.1-1.3,3.2-1.7C47.8,26,47.1,24.6,46.2,25z"/>
	</g>
	<g>
		<path d="M62.9,16.2c-0.6,0.7-1.2,1.5-2,2.1c0.3-0.1,0.5-0.1,0.8-0.2c-0.9-0.3-1.9-1.1-2.8-1.6c-0.8-0.5-1.5,0.5-1,1.2
			c0.5,0.7,1.4,1.5,1.7,2.3c0-0.3,0-0.5,0-0.8c-0.5,0.6-1.5,1.2-2.2,1.7c-0.5,0.4-0.3,1.2,0.3,1.3c1.4,0.4,2.7,0.2,4.1-0.1
			c-0.3-0.3-0.6-0.5-1-0.8c0,1.2,0.3,2.1,1.1,3c0.3,0.4,1,0.4,1.2-0.1c0.5-0.9,0.8-1.9,1-2.9c-0.3,0.2-0.7,0.3-1,0.5
			c0.8,0.2,1.6,0.3,2.4,0.5c0.7,0.1,1.5-0.7,0.8-1.3c-0.6-0.6-1.4-1.2-1.9-1.8c-0.6-0.8-0.3-1.6-0.1-2.6c0.2-1-1.4-1.1-1.6-0.1
			c-0.1,0.9-0.6,2.1-0.1,3c0.5,1,1.8,1.8,2.6,2.6c0.3-0.4,0.6-0.8,0.8-1.3c-0.8-0.2-1.6-0.3-2.4-0.5c-0.4-0.1-0.9,0-1,0.5
			c-0.2,0.9-0.5,1.7-0.9,2.5c0.4,0,0.8-0.1,1.2-0.1c-0.5-0.6-0.7-1.1-0.7-1.9c0-0.5-0.4-0.9-1-0.8c-1.1,0.3-2.1,0.5-3.2,0.2
			c0.1,0.4,0.2,0.9,0.3,1.3c0.7-0.5,2.5-1.4,2.6-2.4c0.1-1-1.4-2.3-2-3.1c-0.3,0.4-0.7,0.8-1,1.2c0.9,0.5,2.5,2,3.6,1.8
			c1-0.2,2-1.9,2.6-2.6C64.9,16.3,63.6,15.4,62.9,16.2z"/>
	</g>
	<g>
		<path d="M50.3,43.8c-0.9,0.6-1.9,1.1-3,1.5c0.3,0.1,0.6,0.1,0.9,0.2c-0.9-1.1-1.8-2.2-2.7-3.2c-0.5-0.5-1.3-0.2-1.4,0.5
			c-0.1,1,0.2,1.7,0.3,2.6c0.1,0.6,0.2,0.9-0.3,1.4c-0.4,0.4-1.4,0.9-1.9,1.2c-0.6,0.4-0.5,1.5,0.3,1.5c0.6,0,2.2-0.4,2.8-0.1
			c1,0.5,0.8,2,0.8,3c0,0.8,0.9,1.1,1.4,0.5c0.5-0.6,0.8-1.4,1.2-1.9c0.7-0.7,1.1-0.2,1.8,0.2c0.6,0.3,1.4-0.1,1.2-0.8
			c-0.2-0.9-0.8-1.3-1.2-2.1c-1-1.5,0.2-2.1,0.7-3.4c0.3-1-1.2-1.5-1.5-0.5c-0.4,1.2-1.6,1.9-1.4,3.3c0.2,1.3,1.7,1.9,1.9,3.1
			c0.4-0.3,0.8-0.6,1.2-0.8c-0.9-0.5-2.1-1.6-3.1-1c-1,0.5-1.4,2.3-2.2,3.2c0.5,0.2,1,0.3,1.4,0.5c-0.1-1.1,0.2-3.5-0.7-4.3
			c-0.9-0.9-3.3-0.2-4.4-0.2c0.1,0.5,0.2,1,0.3,1.5c0.9-0.6,2.8-1.3,3.2-2.3c0.5-1.3-0.6-2.9-0.5-4.2c-0.5,0.2-0.9,0.3-1.4,0.5
			c0.9,1.1,1.8,2.2,2.7,3.2c0.2,0.3,0.6,0.3,0.9,0.2c1.1-0.4,2-0.9,3-1.5C51.9,44.7,51.2,43.3,50.3,43.8z"/>
	</g>
	<g>
		<path d="M23.2,23.4c-0.2,0.4-0.4,0.8-0.6,1.3c0.1,0.1,0,0.1-0.2,0c-0.5,0-1.3-0.6-1.7-0.9c-0.6-0.3-1.3,0.1-1.2,0.8
			c0.1,1,1.1,1.5,1.3,2.4c0.1-0.3,0.2-0.5,0.2-0.8c-0.7,0.7-1.5,1.1-2.1,2c-0.3,0.5,0,1.2,0.6,1.2c0.6,0,1.3,0,1.9-0.1
			c0.2,0,0.7-0.2,0.9-0.2c0.5,0.1,0.1-0.1,0.4,0.3c0.5,0.6,0.8,2,1.8,2.2c2.2,0.4,0.6-3.3,0.5-4.1c-0.3,0.3-0.7,0.6-1,0.9
			c1.1,0.4,2.2,0.6,3.2,0c0.5-0.3,0.6-1,0.1-1.4c-0.7-0.4-1.6-0.8-2.2-1.3c-0.6-0.6-0.5-1.3-0.5-2.1c0-1-1.6-1.1-1.6-0.1
			c0,0.9-0.1,2,0.4,2.8c0.6,0.9,2.1,1.5,3.1,2c0-0.5,0-0.9,0.1-1.4c-0.7,0.4-1.3,0.1-2-0.1c-0.6-0.2-1.1,0.3-1,0.9
			c0.1,0.4,0.6,2.3,0.8,2.3c0.3,0,0.5,0,0.8,0c-0.9-0.6-0.9-2.1-1.9-2.5c-0.4-0.2-0.6-0.1-1-0.1c-0.9,0.2-1.7,0.4-2.6,0.3
			c0.2,0.4,0.4,0.8,0.6,1.2c0.5-0.7,1.2-1.1,1.8-1.7c0.2-0.2,0.3-0.5,0.2-0.8c-0.2-0.9-1.2-1.5-1.3-2.4c-0.4,0.3-0.8,0.6-1.2,0.8
			c0.8,0.4,2.3,1.6,3.3,1.4c0.9-0.2,1.3-1.8,1.6-2.5C25.1,23,23.6,22.5,23.2,23.4z"/>
	</g>
	<g>
		<path d="M56.3,9.6c-0.5-0.7-1.4-1.3-2.3-0.9c-0.8,0.4-1.2,1.4-0.9,2.2c0.3,0.8,1.2,1.8,2.1,1.4c0.8-0.3,1.3-1.3,1.3-2.1
			c0-0.4-0.3-0.8-0.7-0.8c-0.4,0-0.9,0.3-0.8,0.7c0,0.3-0.1,0.4-0.2,0.7c-0.2,0.1-0.1,0.1,0.2,0c0,0-0.1-0.1-0.1-0.1
			c-0.1-0.1-0.1-0.2-0.2-0.3c0-0.1,0.1-0.3,0-0.2c0.2-0.1,0.5,0.4,0.6,0.5c0.2,0.3,0.8,0.3,1.1,0.1C56.6,10.4,56.6,9.9,56.3,9.6z"/>
	</g>
	<g>
		<path d="M54.8,34.1c-0.8-0.7-2.3-1-2.9,0.2c-0.5,1,0,2.5,1,3.1c0.9,0.6,2.3,0.4,2.9-0.5c0.4-0.6,0.3-1,0-1.6
			c-0.3-0.5-0.7-1-1.1-1.3c-0.8-0.6-1.7,0.7-0.9,1.3c0.4,0.3,0.7,0.8,0.9,1.2c0-0.2,0-0.4,0-0.6c-0.2,0.5-0.8,0.2-1.1-0.1
			c-0.2-0.2-0.4-1.1,0.1-0.7c0.3,0.3,0.8,0.4,1.1,0.1C55,34.9,55.1,34.3,54.8,34.1z"/>
	</g>
	<g>
		<path d="M33.4,35.4c-0.7-0.8-1.9-0.9-2.9-0.5c-1.1,0.6-1.2,1.9-0.5,2.8c0.6,0.8,1.8,1.1,2.6,0.6c0.8-0.5,1.3-1.7,0.9-2.6
			c-0.1-0.4-0.5-0.7-0.9-0.6c-0.4,0.1-0.7,0.5-0.6,0.9c0.2,0.5-0.2,1.3-0.7,0.8c-0.6-0.6,0.6-0.9,0.9-0.4
			C32.9,37.2,34,36.1,33.4,35.4z"/>
	</g>
	<g>
		<path d="M33,17.5c-0.8-0.5-1.9-0.7-2.5,0.1c-0.6,0.8-0.1,1.9,0.5,2.6c0.7,0.8,1.8,0.9,2.5,0c0.5-0.8,0.4-1.9-0.2-2.6
			c-0.7-0.8-1.8,0.3-1.2,1.1c0.1,0.2,0.2,0.3,0.2,0.5c0,0,0,0.2-0.1,0.1c0,0,0,0.1,0.1,0c0.2-0.1,0.1,0.1,0-0.1c0,0-0.1-0.1-0.1-0.2
			c-0.1-0.1-0.2-0.3-0.3-0.4c0,0-0.1-0.2-0.1-0.2c0,0-0.1,0.1-0.1,0.1c0,0,0.1,0,0.1,0c0.1,0,0.2,0.1,0.4,0.2
			C33,19.4,33.9,18,33,17.5z"/>
	</g>
</g>
</svg>
