<svg id="Режим_изоляции" data-name="Режим изоляции" xmlns="http://www.w3.org/2000/svg" viewBox="0 0 9.92 17.76">
    <defs>
        <style>.cls-1{fill:#868483;}</style>
    </defs>
    <title>icon-arr-right</title>
    <path class="cls-1"
          d="M8.17,5.39,4.13.81C2.65-.85-.11,1.24,1.37,2.92L4.45,6.4,6,8.15c.15.17.41.4.64.64-.35.33-.78.65-1,.87-.63.64-1.26,1.28-1.86,1.94a24.15,24.15,0,0,0-3,4.08C-.35,17.6,2.86,18.94,4,17a22.77,22.77,0,0,1,3.27-4.09c1-1,2.83-2.26,3.17-3.71S9.08,6.41,8.17,5.39"
          transform="translate(-0.54 -0.2)"/>
</svg>