<?xml version="1.0" encoding="utf-8"?>
<!-- Generator: Adobe Illustrator 22.1.0, SVG Export Plug-In . SVG Version: 6.00 Build 0)  -->
<svg version="1.1" id="Слой_1" xmlns="http://www.w3.org/2000/svg" xmlns:xlink="http://www.w3.org/1999/xlink" x="0px" y="0px"
	 viewBox="0 0 22 21" style="enable-background:new 0 0 22 21;" xml:space="preserve">
<g>
	<g>
		<g>
			<path d="M2.5,1.3C2.4,4.5,2,7.6,1.8,10.7c-0.2,2.7-0.7,5.7,0.1,8.2c0,0.2,0.2,0.2,0.4,0.2c2.2-1,3.7-1.8,6.3-1.2
				c0.7,0.2,1.8,1.4,2.6,0.9c0.4-0.2,0.3-1.7,0.4-2.1c0.2-2.3,0-4.7-0.1-7.1c-0.1-2.1-0.3-4.1-0.3-6.2c0-0.8,0.4-2.2-0.5-2.8
				c-2.1-1.2-6-0.7-8,0.4c-0.3,0.2,0,0.7,0.3,0.5C5,0.5,7.5,0.6,9.8,1c1.2,0.2,1,6.7,1,7.8c0.2,2.3,0.3,4.7,0.2,7.1
				c0,1.2,0.5,3-0.9,2.1c-0.6-0.4-1.3-0.6-2-0.7C7,16.9,5.8,17,4.6,17.4c-0.7,0.2-1.3,0.6-1.9,0.9c-0.8,0.5-0.6-2.8-0.6-3.2
				C2.3,10.5,3,6,3.1,1.4C3.1,1,2.5,1,2.5,1.3L2.5,1.3z"/>
		</g>
	</g>
	<g>
		<g>
			<path d="M11.1,1.4c1.3-0.6,8.2-1.5,8.3,0.8c0.1,2.7,0,5.3-0.1,8c0,0.8,0.1,7.7-0.7,7.6c-2.5-0.3-5-0.2-7.4,0.3
				c-0.4,0.1-0.2,0.7,0.1,0.6c2.7-0.7,5.3-0.5,8.1-0.2c0.1,0,0.3-0.1,0.3-0.3c0.1-2.9,0.2-5.9,0.3-8.9c0-2.3,0.6-5.4,0.1-7.7
				c-0.3-1.4-1.3-1.3-2.5-1.4c-2.2-0.1-4.7-0.4-6.7,0.5C10.4,1.1,10.7,1.6,11.1,1.4L11.1,1.4z"/>
		</g>
	</g>
	<g>
		<g>
			<path d="M19.9,2.8c2.1,0,1.4,3.6,1.4,5.1c0,2.4,0,4.9,0,7.3c0,0.9,0,1.8,0,2.7c0,2.1-1.9,2.3-3.6,2.3c-2.3,0.1-4.7,0-7.1,0
				c-2.1,0-4.2,0-6.3-0.1c-0.9,0-3.7,0.3-3.7-1.3c0-1.2,0-2.5,0-3.7c0-2.1,0-4.3,0-6.4c0-1.8-0.9-6.4,1.8-6.1c0.4,0,0.4-0.6,0-0.6
				C1.7,2,0.1,1.7,0.1,2.9c-0.1,3.2,0,6.4,0,9.5c0,1.5,0,3.1,0,4.6c0,0.8-0.3,2.4,0.1,3.2c0.1,0.2,0.4,0.2,0.6,0.3
				c1.8,0.1,3.6,0.2,5.4,0.3C9.5,21,12.8,21,16.1,21c1,0,5.1,0.4,5.7-0.7c0.4-0.6,0.1-1.7,0.1-2.3c0-1.8,0-3.6,0-5.5
				c0-3.3,0-6.7-0.1-10c0-0.1-0.1-0.3-0.3-0.3c-0.5,0-1.1,0-1.6,0C19.5,2.2,19.5,2.8,19.9,2.8L19.9,2.8z"/>
		</g>
	</g>
</g>
</svg>
