<svg xmlns="http://www.w3.org/2000/svg" viewBox="0 0 88.4 73.91"><title>icon-bird-down</title><path d="M1.44,9.87A54.13,54.13,0,0,0,11.5,12.42a77.94,77.94,0,0,0,10.4,1.74c7.43.49,14.9-.84,22.06-2.09,6.82-1.19,13.59-2.41,20.3-4a33.25,33.25,0,0,1,10.39-.73c5,.43,9.22,1.48,11.81,6.46,2.38,4.58,2.4,10.34,1,14.92-2.23,7.43-8.07,13.53-14.81,16.91-15.58,7.82-35.44-2-49.63-11.38A90.3,90.3,0,0,1,8.61,22.37C5.37,19.09,1.5,15.54.05,11.08A1,1,0,0,1,1.44,9.87ZM12.35,23A91.56,91.56,0,0,0,26.7,34c8.66,5.45,18.11,10.16,28,11.57S73.53,44.16,80,36.93a22.2,22.2,0,0,0,5.89-12.3c.47-4.72-1.1-10.86-6-13.44a15.65,15.65,0,0,0-8-1.47,47.72,47.72,0,0,0-10.58,1.65c-6.77,1.74-14,2.64-21,3.74-6.49,1-13.27,2-20,1.23C16.87,16,13.42,15.1,10,14.43a63.73,63.73,0,0,1-6.79-1.57C5.27,16.69,9.4,20.25,12.35,23Z" transform="translate(0 -0.85)"/><path d="M56.88,21.63c-3,2-7.67,1.66-11.07,1.3a28.42,28.42,0,0,1-11.33-3.34A24.92,24.92,0,0,1,22.65,1.75C22.45.39,20.17.64,20.37,2A27,27,0,0,0,34.14,21.86,32.45,32.45,0,0,0,47,25.18c3.71.25,8.16.28,11.36-1.84C59.54,22.52,58,20.87,56.88,21.63Z" transform="translate(0 -0.85)"/><path d="M73.33,24.45a1.86,1.86,0,1,0,0,3.72A1.86,1.86,0,1,0,73.33,24.45Z" transform="translate(0 -0.85)"/><path d="M75.54,44.23c2.83,2.57,5.46,5.34,8.28,7.92.7.64,2.34.28,2-.9-1.23-4.18-2.5-8.38-4.83-12.11-.72-1.15-2.83-.29-2.06.94a35,35,0,0,1,3.4,7.61c-1.57-1.54-3.14-3.08-4.76-4.57l0-.08-.2-.26a1.21,1.21,0,0,0-1.82.09l0,.07A1,1,0,0,0,75.54,44.23Z" transform="translate(0 -0.85)"/><path d="M56.23,73.61a82.62,82.62,0,0,1-9.68-29.18H44.2a85,85,0,0,0,10,30.28" transform="translate(0 -0.85)"/><path d="M63.76,73.75A49.48,49.48,0,0,1,56.1,46.89H53.79a51.19,51.19,0,0,0,7.94,27.87" transform="translate(0 -0.85)"/></svg>