<?xml version="1.0" encoding="utf-8"?>
<!-- Generator: Adobe Illustrator 21.0.0, SVG Export Plug-In . SVG Version: 6.00 Build 0)  -->
<svg version="1.1" id="Слой_1" xmlns="http://www.w3.org/2000/svg" xmlns:xlink="http://www.w3.org/1999/xlink" x="0px" y="0px"
	 viewBox="0 0 21 19" style="enable-background:new 0 0 21 19;" xml:space="preserve">
<title>icon-site-map</title>
<path d="M18.9,13.3c0-0.1-0.3-0.2-0.3-0.3c0-1.5-0.1-2.9-0.5-4.3c-0.1-0.2-0.3-0.3-0.5-0.2c-0.1,0-0.2,0.1-0.2,0.3
	c-1.1-0.2-2.3-0.1-3.4-0.1L11,8.5c0-0.7-0.1-1.4-0.2-2.1c0.9,0,1.7-0.1,2.5-0.2c1-0.2,0.9-1,0.9-1.8c0-1.2,0-2.4,0-3.6
	c0-0.7-0.9-0.9-1.3-0.5c-0.8-0.1-1.6-0.1-2.4,0c-0.6,0-1.1,0-1.7,0c-0.5,0-1,0-1.4,0.2C6.6,0.8,6.9,2,6.9,2.7c0,0.6,0,1.2,0.1,1.7
	c0,0.4,0,0.9,0.2,1.3c0.5,0.7,1.7,0.6,2.5,0.6c0.1,0,0.3,0,0.4,0c-0.1,0.7-0.1,1.4-0.1,2.1C7.8,8.4,5.5,8.3,3.2,8.1
	C2.6,8.1,2.4,8.6,2.6,9c0,0.5,0,1,0,1.4c0,0.9-0.1,1.8-0.1,2.7v0.1c-1,0.2-2.3,1-2.4,2.2c-0.3,1.4,0.3,3.5,2.5,3.5
	c1.3,0.3,2.6-0.8,2.8-2.1c0.1,0,0.5,0,0.5-0.2c0.4-1.5-0.6-2.9-2.1-3.4c0-0.1-0.2-0.1-0.2-0.2c0-0.9-0.2-1.9-0.3-2.8
	c0-0.2,0-0.5-0.1-0.8C5.5,9.6,7.7,9.7,10,9.7c0,1.1,0,2.3,0.1,3.4c-1.3,0-2.6,0.9-2.8,2.3c-0.2,1.5,0.5,3.4,2.5,3.5
	c1.3,0.3,2.6-0.8,2.8-2.1c0.1,0,0.5,0,0.5-0.2c0.4-1.4-0.4-2.6-1.6-3.2c0,0-0.2-0.1-0.2-0.2c0-1.2-0.2-2.4-0.3-3.5c1,0,2,0,3-0.1
	c1.1-0.1,2.3-0.1,3.4-0.3c0.1,1.2,0,2.5,0,3.7v0.2c-1.1,0.1-2.3,1-2.5,2.3c-0.2,1.5,0.4,3.4,2.5,3.5c1.3,0.3,2.6-0.8,2.8-2.1
	c0.1,0,0.6,0,0.6-0.2C21.3,15.1,20.3,13.7,18.9,13.3z M3.6,14.3c0.9,0.3,1.5,0.9,1.6,1.8c-0.2-0.1-0.5,0-0.6,0.2c0,0,0,0.1,0,0.2
	c0,1-1,1.4-2,1.1c-1-0.3-1.4-0.7-1.2-1.7C1.6,14.7,2.4,13.9,3.6,14.3z M9.4,5C9.1,4.9,8.8,4.9,8.5,4.9c0,0-0.1,0-0.1,0V4.7
	c0.1-0.6,0-1.3-0.1-1.9c0-0.3,0-0.5,0-0.8c0-0.1,0-0.3,0-0.4c0,0,0,0,0.1,0c0.3,0.1,0.8-0.1,1-0.1s0.6-0.1,0.8-0.1
	c0.8-0.1,1.7,0,2.5-0.1c0,0.6,0,1.2,0,1.9c0,0.4,0,0.7,0,1.1v0.6C12.4,5,11.9,5,11.4,5C10.7,5,10,5,9.4,5L9.4,5z M12.4,16.1
	c-0.2-0.1-0.5,0-0.6,0.2c0,0,0,0.1,0,0.2c0,1-1,1.4-2,1.1c-1-0.3-1.5-0.9-1.3-1.9c0.2-1.2,1.3-1.8,2.4-1.4
	C11.9,14.6,12.4,15.2,12.4,16.1L12.4,16.1z M19.5,16.5c0,1-1,1.4-2,1.1c-1-0.3-1.5-0.9-1.3-1.9c0.2-1.2,1.1-1.7,2.3-1.4
	c0.9,0.3,1.5,0.9,1.6,1.8c-0.2-0.1-0.5,0-0.6,0.2C19.5,16.4,19.5,16.4,19.5,16.5L19.5,16.5z"/>
</svg>
