<svg xmlns="http://www.w3.org/2000/svg" viewBox="0 0 463.11 450.57"><title>icon-search</title><path d="M57.07,429.66c-7.7,0-16.54-2.17-26.6-7.64l-3.89-2.11-.5-4.4c-2.48-21.82,29.77-56.31,65-90.33,2.18-2.1,3.95-3.81,5.17-5,23.72-23.71,50.76-46.4,87.65-73.59L191.4,241l4.82,8a56.29,56.29,0,0,0,9.72,12.05l3.83,3.58-1.37,4.65c.37.31.77.61,1.18.93.6.46,1.2.92,1.78,1.4l7.15,5.93-6.53,6.6c-12,12.12-23.22,25.68-34.07,38.78-8.95,10.81-18.2,22-28,32.52-12.11,13-24.82,25.79-37.79,38l-.13.12-24.38,22C80.76,422.85,70.72,429.66,57.07,429.66ZM43.52,409.5c13,5.67,23,3.79,31.85-5.79l.55-.55L100.52,381c12.67-11.92,25.09-24.42,36.93-37.13,9.46-10.16,18.55-21.15,27.34-31.77,9.29-11.23,18.85-22.77,29.08-33.67a15.69,15.69,0,0,1-2.6-8q-2.27-2.39-4.32-5c-32.62,24.38-57.11,45.15-78.69,66.72-1.27,1.27-3.11,3-5.38,5.24-8.75,8.45-25,24.18-38.38,39.89C49.73,394.68,45,404.45,43.52,409.5ZM208.26,269.77Z" transform="translate(-2.14 -2.11)"/><path d="M428.59,257.1C477.37,190.35,460.73,93,393.87,45,323.51-5.46,223.23-3.22,170.24,70.5c-37.31,51.91-30.54,124.71,9.2,171.48-16.61,12.23-60.7,49.66-110.19,92.5-17.94,13.89-26.62,22-45,44.28-3.78,5.56-7.17,10.3-9.63,17.33-1,.93-3.5,11.71-3.7,13.45C6.71,445.29,44.3,451,70.74,437.32c27.1-14,52.11-43,72.88-64.62,25.74-26.74,52.76-55.17,70.13-88.31C280.83,333.81,376.37,328.53,428.59,257.1ZM143.67,349.67q-18.06,19.4-37.39,37.59L81.62,409.49C69,423.15,53.28,424.75,34.53,414.56c-2.63-23.17,56.21-76.88,67.72-88.38,26.87-26.85,56.18-50.29,86.68-72.76a64.9,64.9,0,0,0,11.19,13.87,7.5,7.5,0,0,0,2.36,8.17c1.11,1,2.31,1.79,3.43,2.73C183.73,300.59,165.21,326.52,143.67,349.67Zm78.18-80.13c2.1-2.59,2.62-6.66-.43-9.19-53.47-44.18-81.56-111.15-43.59-175.07C217.6,18.31,301,9.67,365.59,43.71c73.67,38.8,105.78,133.5,51.29,203.51C367.62,310.52,282.65,316,221.85,269.54Z" transform="translate(-2.14 -2.11)"/><path d="M43.47,452.69c-10,0-19.29-2.49-26.5-7.49C5.76,437.43.63,424.41,2.53,408.54c0-.11,1.41-9.8,4.22-15.53,2.66-7.5,6.15-12.61,9.83-18l1.16-1.64c18.87-22.92,28.11-31.5,46.13-45.46,50.75-43.93,85.48-73.26,103.52-87.41a153.91,153.91,0,0,1-29.92-81.77c-2.21-33.8,7-66.9,25.87-93.19,26.31-36.61,65.9-58.92,111.48-62.82,42.39-3.62,87.6,9.28,124,35.4,34.06,24.44,57.5,62.88,64.32,105.47s-3,84.76-27.69,118.53h0C411,295.56,375.37,317.38,335.1,323.56s-83-3.55-118.47-26.82c-18.26,31.35-44,58.06-66.88,81.86-3,3.14-6.1,6.4-9.36,9.86C121,409,99,432.26,74.65,444.87A68.69,68.69,0,0,1,43.47,452.69ZM21.71,401.18c-.8,2.54-2.1,8-2.31,9.45-1.13,9.51,1.3,16.46,7.26,20.59,9.25,6.41,26.14,5.8,40.18-1.46q3.19-1.65,6.36-3.6C62.58,431,48.48,431.82,30.47,422l-3.89-2.11-.5-4.4c-2.14-18.83,21.61-47.12,50.8-76.39l-2.06,1.78-.36.29c-17.21,13.33-25.48,21-43.35,42.67l-.48.7c-3.35,4.91-6,8.79-7.93,14.33l-.7,2Zm65.88,14.38q-.78.83-1.62,1.65A276.64,276.64,0,0,0,111.47,394Zm-44.07-6c13,5.66,23,3.79,31.86-5.79l.55-.55L100.52,381c12.67-11.93,25.09-24.42,36.93-37.13h0c9.47-10.17,18.56-21.17,27.36-31.8,9.29-11.22,18.84-22.76,29.06-33.65a15.7,15.7,0,0,1-2.6-8q-2.27-2.39-4.32-5c-32.62,24.38-57.11,45.15-78.69,66.72-1.28,1.28-3.13,3.07-5.41,5.27-8.75,8.45-25,24.19-38.37,39.88C49.72,394.7,45,404.46,43.52,409.51ZM232,266.43C291,307.84,366.7,297.85,410.17,242c22.23-28.56,30.32-63.55,22.78-98.52-8.33-38.62-35-73.1-71.31-92.24-58.18-30.64-137.48-27.29-176.49,38.4C147,153.79,181.69,216.5,226.83,253.8A14.42,14.42,0,0,1,232,266.43Zm-23.6,2.89c.37.3.76.61,1.17.92l.48.37,4.19-5.17a212.83,212.83,0,0,1-19.11-18.22l1.09,1.8a56.5,56.5,0,0,0,9.73,12.06l3.83,3.58Zm-38-55.72a129.09,129.09,0,0,0,14.91,22.15A173.54,173.54,0,0,1,170.4,213.59Z" transform="translate(-2.14 -2.11)"/></svg>