<?xml version="1.0" encoding="utf-8"?>
<!-- Generator: Adobe Illustrator 21.0.0, SVG Export Plug-In . SVG Version: 6.00 Build 0)  -->
<svg version="1.1" id="Графика" xmlns="http://www.w3.org/2000/svg" xmlns:xlink="http://www.w3.org/1999/xlink" x="0px"
	 y="0px" viewBox="0 0 149.4 62.1" style="enable-background:new 0 0 149.4 62.1;" xml:space="preserve">
<style type="text/css">
	.st0{fill:#FFFFFF;}
</style>
<g>
	<g>
		<path d="M25.3,19.9C13.2,11.9-2,23,0.2,36.8C1.3,43.7,5.8,49.2,12.1,52c9.1,4.1,20.2,5.3,30,6.9c21.1,3.3,42.7,4.3,64,2
			c10.5-1.1,20.9-3,31.1-5.7c6.1-1.6,10.2-4.2,11.8-10.6c1.3-5.4,0.2-10.6-4.9-13.6c-6.2-3.6-13.1,0.3-17.5,4.9
			c-1.1,1.2,0.6,2.9,1.8,1.8c2.7-2.8,6.3-5.5,10.3-5.6c4.1,0,7.9,3.1,8.3,7.2c0.3,2.8-0.5,6.1-2,8.5c-2.3,3.7-6.3,4.4-10.3,5.4
			c-19.2,5-39.2,6.9-59.1,6.3c-19.2-0.5-39.3-2.8-57.8-8.1C8.5,48.7,0.5,41,2.8,30.5c2-9.3,13.4-13.7,21.2-8.5
			C25.4,22.9,26.6,20.7,25.3,19.9L25.3,19.9z"/>
	</g>
	<g>
		<path d="M35.4,56.5C40.9,43.7,46.9,31,54.5,19.3c1.8-2.8,3.7-5.5,5.7-8.2c1.8-2.4,6-9.7,9.1-7.2c4.2,3.4,0.8,11.2,4.1,15.1
			c2.1,2.5,5,0.8,6.9-1.1c2.1-2.1,3.3-4.9,4.7-7.4c1.1-2,3.6-5.5,6.3-2.8c1.1,1.1,1.6,3.9,2.1,5.4c5,14.9,7.8,30.4,8.7,46.1
			c0.1,1.6,2.6,1.6,2.5,0c-0.9-16.8-3.4-35.4-10.3-50.9c-1.3-2.9-3.5-6-7-4.4c-2.8,1.3-4.2,5.1-5.6,7.6c-0.9,1.6-2.7,5.8-4.7,6.1
			c-2.8,0.4-2.4-3.7-2.7-5.2c-0.5-3.4-1.5-11.3-6-12c-1.6-0.3-2.6,0.5-3.7,1.5c-2.7,2.5-4.9,5.9-7.2,8.9
			C47.3,24.2,40,39.6,33.2,55.2C32.6,56.7,34.7,57.9,35.4,56.5L35.4,56.5z"/>
	</g>
	<g>
		<path d="M90.6,47.1c3.8-0.1,7.6-0.3,11.4-0.7c1.6-0.1,1.6-2.6,0-2.5c-3.8,0.3-7.6,0.5-11.4,0.7C89,44.6,89,47.1,90.6,47.1
			L90.6,47.1z"/>
	</g>
	<g>
		<path d="M40.4,42.6c13.5,2.8,27.2,4.3,40.9,4.5c1.6,0,1.6-2.5,0-2.5c-13.6-0.3-27-1.7-40.3-4.5C39.5,39.9,38.8,42.3,40.4,42.6
			L40.4,42.6z"/>
	</g>
	<g>
		<path class="st0" d="M85.3,45.6c1.1-1.2,1.9-2.7,1.2-3.2c-1.1-0.9-2.9,0.9-3.5,1.6c-2.3,2.3-4.2,5.7-5.6,6.1
			c-1.3,0.4-1.6-0.3-1.4-1.2c0.2-1,0.9-1.7,1.6-2.5c1.6-1.8,3.2-3.6,4.8-5.4c2.1-2.3,4.7-4.9,7.7-4.5c0.6,0.1,1.2,0.3,1.8,0.2
			c0.6-0.1,1.1-0.4,1.6-0.7c8.5-6,9.4-19.2,18.2-24.7c0.2-0.2,0.5-0.3,0.8-0.3c0.4,0,1.3,0.4,1.5,0.7c0.9,1.7,0.4,3-0.3,4.9
			c-0.6,1.9-2.1,4.3-3.4,5.8c-4.5,4.9-7.9,7.5-13,13.1c-0.8,0.9-1.7,2.2-2,3.3c-0.3,1.1,0.3,2.2,0.4,3.4c0.2,1.8-1.1,3.4-2.3,4.8
			c-2.2,2.5-4.4,5-6.7,7.5c-0.4,0.4-0.9,0.9-1.5,1.1c-0.6,0.2-1.4-0.1-1.5-0.7c-0.1-0.3,0-0.7,0.2-1c1.5-3.4,8.6-9,7.7-9.9
			c-1.4-1.4-2.8,0.9-3.9,1.8"/>
		<g>
			<path d="M86.4,46.3c1.1-1.5,1.8-2.4,1.4-4.2c-0.1-0.4-0.5-0.8-0.9-0.9c-1.7-0.4-2.7,0.1-4,1.2c-1.3,1.1-2.3,2.6-3.4,3.9
				c-0.4,0.5-2.7,3.2-0.9,0.9c2.6-3.4,6.9-9.2,11.6-9.5c2.6-0.2,3.1,0.1,5.3-1.7c4.5-3.7,6.7-9.3,9.4-14.3c1-1.9,3.1-7,5.3-7.6
				c6.3-1.7-1,7.6-2.4,9c-4,4.1-10.7,8.5-13,13.8c-1.6,3.5-0.5,6.7-3.2,10.3c-1.1,1.5-2.6,2.9-3.9,4.4C87,52.3,84.9,55,86,52.8
				c1.3-2.4,7.6-5.9,7-9c-0.8-3.7-5,0-6,1c-1.1,1.1,0.6,2.9,1.8,1.8c0.4-0.4,2.1-2.3,0.9-1.5c-0.9,0.6-1.8,2-2.6,2.7
				c-1.4,1.5-3.5,3.3-4.1,5.3c-0.9,2.8,1.4,4.4,3.9,2.9c2.5-1.5,4.7-4.8,6.6-7c1.8-2.1,3.1-3.6,3.7-6.3c0.7-2.9,0.6-5.4,2.5-7.8
				c1-1.2,2.3-2.4,3.4-3.5c2.6-2.6,5.3-5,7.8-7.7c2.3-2.5,7.1-8.9,4.5-12.6c-2.3-3.3-5.8,0-7.6,2c-4.1,4.4-6,10.3-9.1,15.4
				c-0.8,1.4-1.7,2.7-2.8,3.9c-2,2.2-3.3,2.3-6.1,2.7c-2.9,0.4-4.7,1.6-6.8,3.6c-1.4,1.4-10.9,9.6-6.9,12.2c1.2,0.8,2.6-0.1,3.6-0.9
				c1.3-1,2.2-2.6,3.2-3.8c0.6-0.7,3.9-4.5,1.7-1.5C83.3,46.3,85.4,47.5,86.4,46.3L86.4,46.3z"/>
		</g>
	</g>
	<g>
		<path d="M81.4,47.1c3.1,0,6.1,0,9.2-0.1c1.6,0,1.6-2.5,0-2.5c-3.1,0.1-6.1,0.1-9.2,0.1C79.7,44.6,79.7,47.1,81.4,47.1L81.4,47.1z"
			/>
	</g>
</g>
</svg>
