<svg id="_3_части_копия_" data-name="3 части (копия)" xmlns="http://www.w3.org/2000/svg" viewBox="0 0 120.5 148.97"><defs><style>.cls-1{fill:#201600;}.cls-2{fill:#0c0d0e;}</style></defs><title>icon-rabbit-earphone</title><path class="cls-1" d="M49.85,57.1S46.92,49,42,36.45,36.41,25,33.3,24.91c-2.05,0-4.29,2.32-5.33,3.57a1.61,1.61,0,0,1-1.53.55,7.33,7.33,0,0,0-1.81-.16,14.57,14.57,0,0,0-7.49,2.39c-4.42,2.51-1.41,4.35-6.9,11.86S.83,55.63.83,55.63s-1.71,2-.21,3.56c1.33,1.35,7.15,2.87,14.77-.48,3-1.31,3.83-1.89,9.46-6.23.11-.09.24-.12.34,0,.28.3,1,1,2.67,2.77,2.92,3,8.12,10.46,8.12,10.46,5.84,8.12,11.08,18.5,16.14,28,4.85,9.07,8.26,18.8,11.44,28.6,1.64,5.05,4.78,13.09,6.51,18.12.85,2.48,1.55,7.31,4.26,8.49a1,1,0,0,0,1.13-.17,6.56,6.56,0,0,0,3.1-.18c4-1,9.08-3.29,12.92-4.76,5.56-2.13,14.28-3.07,17.71-8.46l.06,0c5.79,1.22,12.32-5.82,11.1-11.42a8,8,0,0,0-7.09-5.73c-2.93-.07-5.32,2-7.48,3.92-.8-2.85-4.05-9-5-11.83-3-9.08-5.69-16.84-8.34-25.41-2.87-9.3-3.28-19-4.57-28.61a181.73,181.73,0,0,0-5.13-26c-2.4-8.38-5.68-16.85-10.5-24.17-2-3-5.7-7.59-9.82-5.56-5.56,2.75-3.13,11.14-2.54,15.86,1.16,9.21,4,17.66,7,26.38,1,2.93,2,5.87,3,8.77.39,1,.77,2.1,1.09,3.18.6,2.06.85,3.16-1.65,3.51-2.86.39-5.48.25-8.28,1.14-2,.64-4,1.73-6.12,1.89s-4.15-1.67-5.06-3.89m-2,.74c.71,1.83,2.23,4.33,4.26,5.13,2.7,1.06,6.21-.72,8.74-1.58,2.95-1,5.6-.92,8.61-1.31,1.63-.21,3.68-.61,4.18-2.42.44-1.58-.51-3.86-1-5.32-.83-2.47-1.77-4.89-2.58-7.37C67.34,36.6,64,28.35,62.61,19.34c-.54-3.56-1-7.16-1.32-10.74s1.48-8.4,5.57-5.35a18.64,18.64,0,0,1,4.4,5.51,84.59,84.59,0,0,1,6.12,12.63,137.86,137.86,0,0,1,7.44,29.44c1.44,9.32,1.72,19,3.73,28.16,2.09,9.56,6.17,18.56,8.43,28.09,1.22,5.15,6,13.26,7.45,18.36.36,1.29.75,2.58,1.21,3.84.54,1.48,1.74,3.4,1.64,5l-.07.09c-2.6,4.19-10,5-14.33,6.56-2.56.93-5.08,2-7.63,2.94-2,.76-8.43,4.08-10.36,2a1.08,1.08,0,0,0-.67-.34c-.41-.94-.61-2.14-.86-2.84-.63-1.79-1.31-3.56-1.89-5.37-1.39-4.34-4.39-11.63-5.79-16a223.67,223.67,0,0,0-9.31-24.55C53.07,89.69,44.27,73.4,37.7,64.7c0,0-6.73-9.26-8.91-11.75-.55-.62-2.09-2.48-2.09-2.48a19.2,19.2,0,0,0,3.4-5.54c1.16-3.63-1.34-1.26-1.34-1.26a39.27,39.27,0,0,1-5.85,7.41,21.13,21.13,0,0,1-3,2.32c-4,2.5-6.06,3.55-8,4.19a14.23,14.23,0,0,1-7.06.89c-2.61-.18-1.36-2.32-1.36-2.32S8.52,50,10.71,46.94c2-2.86,3.68-5.06,4.22-6.53,1.92-5.19,2-7.8,6.55-8.44a24.56,24.56,0,0,1,5.84-.1,1.57,1.57,0,0,0,1.45-.65c.82-1.15,2.39-3.24,3.28-3.71C36.7,25.06,38.2,32.94,48,58.08Zm58.76,66c2.76-2.65,9.55-5.49,11.34,0,1.36,4.15-4.22,10.42-8.59,9-.33-2-1.47-3.91-2.05-5.69-.34-1-.67-2.07-1-3.12A1.22,1.22,0,0,0,106.72,124.07Z"/><path class="cls-1" d="M85.62,98.06c.65,1.92-.19,5.12-2.43,5.71-1.33.35-3.47-.62-4.57-1.3-2.28-1.4-3.19-3.94-4.1-6.33a20.9,20.9,0,0,0,.52-4c.1-1.54.41-4.09-.85-5.27s-3.17-.17-3.69,1.29a5.74,5.74,0,0,0-.24,1c-1.76-.63-4.07.34-3.66,2.65.46,2.58,3.65,5.13,5.88,6.23.82,2.08,2.35,4.72.81,6.75-1.77,2.34-4.89-.08-5.77-2-.57-1.25-2.7-.42-2.13.84,1.35,3,5.22,5.58,8.4,3.6a4.55,4.55,0,0,0,2.32-4,9.73,9.73,0,0,0,5.41,2.61c4.69.77,7.6-4.53,6.22-8.61C87.3,95.92,85.18,96.76,85.62,98.06Z"/><path class="cls-1" d="M74.44,38.4c.84,5.87,2.28,11.62,3.44,17.43.28,1.37,2.52,1.05,2.26-.28C79,49.74,77.53,44,76.69,38.12,76.49,36.73,74.24,37,74.44,38.4Z"/><path class="cls-1" d="M35.16,47.59c3.38,4.87,6.25,10.06,9.36,15.1.73,1.19-1.13,2.49-1.84,1.33-3.1-5-6-10.23-9.36-15.1C32.51,47.77,34.38,46.48,35.16,47.59Z"/><path class="cls-2" d="M57.78,77.36A1.93,1.93,0,0,0,57,80l1.83,3.59a1.92,1.92,0,1,0,3.41-1.74L60.4,78.28A1.93,1.93,0,0,0,57.78,77.36Z"/><path class="cls-2" d="M75.69,71.59a1.93,1.93,0,0,0-1.52,2.32l.72,4a1.92,1.92,0,1,0,3.77-.69l-.72-4A1.93,1.93,0,0,0,75.69,71.59Z"/><path class="cls-2" d="M98.82,69a2.85,2.85,0,0,0-2-1.22,6.13,6.13,0,0,1-4-3.83c-.24-.66-1-1.76-1.26-2.59a26.39,26.39,0,0,0-3-6.09C81.1,43.34,71.23,38.79,54.66,43.44l-.47.18C43,48,33.33,54.89,36.19,73.06c1.22,5,.91,4.45,2.69,8.61C41,86.53,41.7,88,41.7,88l.25.45A4.44,4.44,0,0,0,39.07,92s-.18,1.94,1.77,6.53a73.73,73.73,0,0,0,5.22,9.87c1.19,2,4.26,4.51,6.16,4.24s5.33-1.59,6.27-2.76,2.34-2.19-.85-7.9S52,89.71,51.18,88.27c-.47-.89-2.05-1.39-3.11-1.65-1.8-.45-2.54.92-3.56-.64a44.82,44.82,0,0,1-2.84-5.68C36.46,67.47,38,56.5,45.73,51.17a43.37,43.37,0,0,1,9.94-5,39.75,39.75,0,0,1,11.92-1.8c10.9.3,19.47,9.31,23.1,22.32.52,1.87-1.42,2.52-2.5,4.13-.62.93-.18,1.88.08,2.86.42,1.58,2.39,8.3,4,14.65s2.65,6.39,4.14,6.61a4,4,0,0,0,1.12-.08l-.07,0s1.71,4.13.81,7a15.07,15.07,0,0,1-.58,1.51,19.6,19.6,0,0,1-3.93,5.62l-.11.1a2.56,2.56,0,0,0-.74.72,19.67,19.67,0,0,1-2.55,1.92l-.43.27a6.18,6.18,0,0,1-4.43.88,3.58,3.58,0,1,0,2.7,4.71,5.71,5.71,0,0,1,2.23-3l1.22-.77a23.7,23.7,0,0,0,5.33-4.42,19.22,19.22,0,0,0,2.37-3.13l.21-.39a9.1,9.1,0,0,0,.65-1.33c.15-.33.32-.76.48-1.2,1.42-3.93-.35-8.88-.35-8.88l0,0-.1-.34a7.44,7.44,0,0,0,3.19-2,8.6,8.6,0,0,0,1.49-6.9A67.6,67.6,0,0,0,102,75.4C100.29,70.72,98.82,69,98.82,69ZM55.2,100.55c1.7,4.56,2,5.36,1,7s-3,2-4.32,2.18-3-1.68-4-2.92a53.48,53.48,0,0,1-4.09-7.35,24.28,24.28,0,0,1-2.1-5.6c-.13-1.28-.11-1.76,2.26-3.3,1.94-1.26,4.1-2,6.65,1.53A37.75,37.75,0,0,1,55.2,100.55ZM99.63,75.19c1.17,3.21,4.7,12.41,1.42,15.38a6.4,6.4,0,0,1-4.19,1.11c-1-.15-2.11-1.7-3.7-5.88a46.59,46.59,0,0,1-2.32-9.55c-.58-2.39.59-5.83,2.88-6.13,2.12-.28,3.24,0,4,.91A16.76,16.76,0,0,1,99.63,75.19Z"/><path class="cls-1" d="M73.79,105.15S75.74,108.89,78,108a2.93,2.93,0,0,0,1.76-4c-.61-.81-3.21-.85-3.15-1.44S73.79,105.15,73.79,105.15Z"/></svg>