<?xml version="1.0" encoding="utf-8"?>
<!-- Generator: Adobe Illustrator 21.0.0, SVG Export Plug-In . SVG Version: 6.00 Build 0)  -->
<svg version="1.1" id="Слой_1" xmlns="http://www.w3.org/2000/svg" xmlns:xlink="http://www.w3.org/1999/xlink" x="0px" y="0px"
	 viewBox="471.5 280.3 34 16" style="enable-background:new 471.5 280.3 34 16;" xml:space="preserve">
<style type="text/css">
	.st0{fill:#858381;}
	.st1{fill:#67AF26;}
</style>
<g>
	<g>
		<path class="st0" d="M484.1,288.8l-4.9,4.7c-0.1,0.1-0.2,0.2-0.4,0.2c-0.1,0-0.3-0.1-0.4-0.2c-0.2-0.2-0.2-0.5,0-0.7l4-3.9h-10.2
			c-0.3,0-0.5-0.2-0.5-0.5s0.2-0.5,0.5-0.5h10.2l-4-3.9c-0.2-0.2-0.2-0.5,0-0.7c0.2-0.2,0.5-0.2,0.7,0l4.9,4.8"/>
		<path class="st0" d="M478.8,293.9c0.2,0,0.4-0.1,0.5-0.2l4.9-4.7l-0.3-0.3l-4.9,4.7c-0.1,0.1-0.1,0.1-0.2,0.1s-0.1,0-0.2-0.1
			c-0.1-0.1-0.1-0.3,0-0.4l4.4-4.3h-10.8c-0.2,0-0.3-0.1-0.3-0.3s0.1-0.3,0.3-0.3H483l-4.4-4.2c-0.1-0.1-0.1-0.3,0-0.4
			c0.1-0.1,0.1-0.1,0.2-0.1c0.1,0,0.1,0,0.2,0.1l4.9,4.8l0.3-0.3l-4.9-4.8c-0.1-0.1-0.3-0.2-0.5-0.2s-0.4,0.1-0.5,0.2
			c-0.3,0.3-0.3,0.8,0,1.1l3.6,3.5h-9.7c-0.4,0-0.8,0.3-0.8,0.7s0.3,0.7,0.8,0.7h9.7l-3.6,3.5c-0.3,0.3-0.3,0.7,0,1
			C478.5,293.8,478.6,293.9,478.8,293.9z"/>
	</g>
	<g>
		<ellipse class="st0" cx="483.8" cy="288.4" rx="0.5" ry="0.5"/>
		<path class="st0" d="M483.1,288.4c0-0.4,0.3-0.7,0.7-0.7s0.7,0.3,0.7,0.7c0,0.4-0.3,0.7-0.7,0.7S483.1,288.8,483.1,288.4z
			 M483.5,288.4c0,0.1,0.1,0.3,0.3,0.3c0.1,0,0.3-0.1,0.3-0.3s-0.1-0.3-0.3-0.3C483.6,288.2,483.5,288.3,483.5,288.4z"/>
	</g>
	<g>
		<path class="st0" d="M483.8,280.5h4c0.3,0,0.5,0.2,0.5,0.5v14.5c0,0.3-0.2,0.5-0.5,0.5h-4c-0.3,0-0.5-0.2-0.5-0.5
			c0-0.3,0.2-0.5,0.5-0.5h3.5v-13.5h-3.5c-0.3,0-0.5-0.2-0.5-0.5S483.5,280.5,483.8,280.5z"/>
		<path class="st0" d="M483,295.6c0-0.4,0.3-0.7,0.8-0.7h3.2v-13.1h-3.2c-0.4,0-0.8-0.3-0.8-0.7s0.3-0.7,0.8-0.7h4
			c0.4,0,0.8,0.3,0.8,0.7v14.5c0,0.4-0.3,0.7-0.8,0.7h-4C483.3,296.3,483,296,483,295.6z M483.8,280.7c-0.2,0-0.3,0.1-0.3,0.3
			s0.1,0.3,0.3,0.3h3.7v13.9h-3.7c-0.2,0-0.3,0.1-0.3,0.3c0,0.2,0.1,0.3,0.3,0.3h4c0.2,0,0.3-0.1,0.3-0.3V281c0-0.2-0.1-0.3-0.3-0.3
			H483.8z"/>
	</g>
</g>
<g>
	<g>
		<path class="st1" d="M501.1,288.9l-4.9,4.7c-0.1,0.1-0.2,0.2-0.4,0.2c-0.1,0-0.3-0.1-0.4-0.2c-0.2-0.2-0.2-0.5,0-0.7l4-3.9h-10.2
			c-0.3,0-0.5-0.2-0.5-0.5s0.2-0.5,0.5-0.5h10.2l-4-3.9c-0.2-0.2-0.2-0.5,0-0.7c0.2-0.2,0.5-0.2,0.7,0l4.9,4.8"/>
		<path class="st1" d="M495.8,294c0.2,0,0.4-0.1,0.5-0.2l4.9-4.7l-0.3-0.3l-4.9,4.7c-0.1,0.1-0.1,0.1-0.2,0.1s-0.1,0-0.2-0.1
			c-0.1-0.1-0.1-0.3,0-0.4l4.4-4.3h-10.8c-0.2,0-0.3-0.1-0.3-0.3s0.1-0.3,0.3-0.3H500l-4.4-4.2c-0.1-0.1-0.1-0.3,0-0.4
			c0.1-0.1,0.1-0.1,0.2-0.1c0.1,0,0.1,0,0.2,0.1l4.9,4.8l0.3-0.3l-4.9-4.8c-0.1-0.1-0.3-0.2-0.5-0.2s-0.4,0.1-0.5,0.2
			c-0.3,0.3-0.3,0.8,0,1.1l3.6,3.5h-9.7c-0.4,0-0.8,0.3-0.8,0.7s0.3,0.7,0.8,0.7h9.7l-3.6,3.5c-0.3,0.3-0.3,0.7,0,1
			C495.5,294,495.6,294,495.8,294z"/>
	</g>
	<g>
		<ellipse class="st1" cx="500.8" cy="288.6" rx="0.5" ry="0.5"/>
		<path class="st1" d="M500.1,288.6c0-0.4,0.3-0.7,0.7-0.7s0.7,0.3,0.7,0.7c0,0.4-0.3,0.7-0.7,0.7S500.1,288.9,500.1,288.6z
			 M500.5,288.6c0,0.1,0.1,0.3,0.3,0.3c0.1,0,0.3-0.1,0.3-0.3s-0.1-0.3-0.3-0.3C500.6,288.3,500.5,288.4,500.5,288.6z"/>
	</g>
	<g>
		<path class="st1" d="M500.8,280.6h4c0.3,0,0.5,0.2,0.5,0.5v14.5c0,0.3-0.2,0.5-0.5,0.5h-4c-0.3,0-0.5-0.2-0.5-0.5s0.2-0.5,0.5-0.5
			h3.5v-13.5h-3.5c-0.3,0-0.5-0.2-0.5-0.5S500.5,280.6,500.8,280.6z"/>
		<path class="st1" d="M500,295.7c0-0.4,0.3-0.7,0.8-0.7h3.2v-13.1h-3.2c-0.4,0-0.8-0.3-0.8-0.7s0.3-0.7,0.8-0.7h4
			c0.4,0,0.8,0.3,0.8,0.7v14.5c0,0.4-0.3,0.7-0.8,0.7h-4C500.3,296.4,500,296.1,500,295.7z M500.8,280.9c-0.2,0-0.3,0.1-0.3,0.3
			s0.1,0.3,0.3,0.3h3.7v13.9h-3.7c-0.2,0-0.3,0.1-0.3,0.3c0,0.2,0.1,0.3,0.3,0.3h4c0.2,0,0.3-0.1,0.3-0.3v-14.5
			c0-0.2-0.1-0.3-0.3-0.3H500.8z"/>
	</g>
</g>
</svg>
