<svg id="Режим_изоляции" data-name="Режим изоляции" xmlns="http://www.w3.org/2000/svg" viewBox="0 0 350.95 197.76"><defs><style>.cls-1{fill:none;}</style></defs><title>icon-candy</title><path class="cls-1" d="M168.35,139.47c-6.1,2-12.1,4-18.5,4.6-15.3,1.5-30.6,3.3-45.9,4.7-9.3.8-18.7,1.3-28.1,1.4a175.81,175.81,0,0,0-28,2.7c-5.8,1-7.5,3.1-8.2,8.9-.8,6.7-1.7,13.4-2.4,20.1-.7,5.7,1.5,9.5,6.6,11.6a29.47,29.47,0,0,0,11,2.1c4.9.1,9.8-.1,14.6.7,10.4,1.6,20.9,1.8,30.4,2h13.5c16.3.1,32.1-3.2,47.8-7.1,5.9-1.5,9-5,9.5-11a21,21,0,0,1,1.4-6.6c4.5-10.2,2.4-20.6,1.4-31C173,139.77,171,138.67,168.35,139.47Z" transform="translate(-0.96 -1.54)"/><path class="cls-1" d="M67.85,143.37c7.4.5,17.8-1.1,28.3-1.3,18.4-.4,36.6-3.1,54.9-4.6,2.9-.2,5.8-1.4,8.7-2.3,1.8-.6,3.5-1.6,3.5-3.9,0-2.1-1.6-3.3-3.3-4.2-6-3.1-12.2-5.6-19.3-5.5-4.5,0-9-.5-13.5-.8-14.9-1.2-29.8-3.2-44.7.8-2.5.7-5.2.4-7.8.6-12.1.7-23.6,3.8-35.2,6.9a20.46,20.46,0,0,0-9.5,5.8c-3.4,3.6-2.4,8.2,2.4,9.6a12.81,12.81,0,0,0,5.5.6C46.75,143.57,55.85,144.17,67.85,143.37Z" transform="translate(-0.96 -1.54)"/><path class="cls-1" d="M309,32.17a2.75,2.75,0,0,0,1.9.4c2.2-1,4.3-2.1,6.4-3.1-2.3.1-4.7.2-7,.5C309.15,30.07,308.25,31.87,309,32.17Z" transform="translate(-0.96 -1.54)"/><path class="cls-1" d="M194.55,27.87a116.74,116.74,0,0,0-13.2,2c-7.6,1.8-15.2,3.8-22.7,6-2.6.8-3.6,3.8-2.6,6.5.9,2.4,2.8,3.5,5.3,2.8,10.4-2.8,20.9-5.6,31.3-8.5a13.49,13.49,0,0,0,4.8-2.7c.7-.6.9-1.9,1.2-2.6C198,28.87,196.55,27.67,194.55,27.87Z" transform="translate(-0.96 -1.54)"/><path class="cls-1" d="M228.75,181.67c-3.2-4.5-6.7-4.2-10.6-2.4-4.6,2.1-9.4,2.1-14.2,1.8-3.7-.3-7.4-.6-11.2-.6-.9,0-2.4.7-2.6,1.4s.3,2.1.9,2.9a26,26,0,0,0,18.9,10.6c5.2.5,10.4.1,15.6.1v.3c4.8-.3,9.7-.4,14.5-.9,5-.5,6.6-1.6,6.9-4.2.3-3.1-1.8-5-6.9-5.4C235.85,185.07,231.15,185.07,228.75,181.67Z" transform="translate(-0.96 -1.54)"/><path class="cls-1" d="M304.85,47.67a6.25,6.25,0,0,0-5.8,4.6c-.8,3,1.3,4.8,3.2,6.6a8.62,8.62,0,0,0,1.8,1.4c7,4.2,14.6,7.2,21.3,12.1,3,2.2,5.9.9,7.2-2.5,1.5-3.8,2.5-7.8,3.9-11.6,1.6-4.2,6.5-5.9,8.6-10C331.25,43.27,318,46.67,304.85,47.67Z" transform="translate(-0.96 -1.54)"/><path class="cls-1" d="M342,25.27c-8.1.3-16.2.8-23.8,4a28.05,28.05,0,0,1,2.9,0c1.8.3,3.8.4,5.3,1.3,2,1.1.9,3.3.9,5.1a3.37,3.37,0,0,0,2.4,3.4,16.82,16.82,0,0,0,8.9.8c3.3-.6,3.2-3.8,4.5-5.9a26.93,26.93,0,0,0,2-2.7C347,28,345.75,25.17,342,25.27Z" transform="translate(-0.96 -1.54)"/><path class="cls-1" d="M233.75,148.87a3,3,0,0,0-2.3,3.2,1.89,1.89,0,0,0,2,2c1.8-.1,2.2-1.5,2.1-3.1C235.55,149.87,235.15,148.87,233.75,148.87Z" transform="translate(-0.96 -1.54)"/><path class="cls-1" d="M192.75,153.67c.6-.8.5-1.5-.4-1.7a3.61,3.61,0,0,0-2.1.3,2.1,2.1,0,0,0-.4,1.8C190.85,154.87,191.85,154.47,192.75,153.67Z" transform="translate(-0.96 -1.54)"/><path class="cls-1" d="M242.15,126.47c-5.3-3.3-10.9-2.1-16.3-.7-3.2.8-6.2,2.5-9.7,2.6-11.8.4-20.1,6.7-26.9,15.7a39.4,39.4,0,0,0,10.8-1.8c3.3-1,6,1.8,5.4,5.1-.8,4.7-3.2,8.4-7.7,10.2-2.8,1.1-5.8,1.6-8.6,2.7-4.1,1.6-5,5.3-5.2,9.1-.1,3.4,3.1,3.8,5.3,4.9,4.2,2.1,8.7,1.8,13.2,1.5,6.8-.5,25.1-6.4,32.7-10.5-.1-.4-.1-.9-.3-1-1.8-1.3-3.7-2.6-5.6-3.7-9.1-5.6-8.9-11.9.4-17.5l8.7-5.1a12.7,12.7,0,0,0,5.4-6.9C244.65,129.17,244,127.57,242.15,126.47Z" transform="translate(-0.96 -1.54)"/><path d="M256.35,126.57c2.2-2.5,1.6-4.9-1.2-6.8a19.38,19.38,0,0,0-11.1-3.2c-15.2-.1-30.1,1.4-42.3,12-2.7,2.4-3.7,2.3-6.2,0a102.22,102.22,0,0,0-13.3-9.3,36.68,36.68,0,0,0-16.1-5.4,276.91,276.91,0,0,0-39.7-1.5,212.19,212.19,0,0,0-25.2,2c-10.8,1.7-20.7,6.1-30.5,11a10.68,10.68,0,0,0-4.1,3.5c-2.2,3.4-5.2,3.6-8.7,3-6.2-1-12.5-1.9-18.7-2.8-8.6-1.3-16.6.6-24.1,4.9-6.2,3.5-8.2,7.2-5.9,14.1,1.5,4.5,1.5,8.1-2.3,11.4a11.67,11.67,0,0,0-3.8,7.9c-.4,3.9,1.1,5.7,4.9,5.9,1.2,0,2.4-.3,3.6-.2,5.1.3,8,4.5,6.7,9.4-.4,1.4-1.2,2.8-1.6,4.2-1.8,7,3,12,9.9,10.1,11-3.1,21.8-6.9,31.5-13.2a102.59,102.59,0,0,1,10.3-5.6c4.2-2,5-2.1,7.8,1.4a12.94,12.94,0,0,0,8.3,4.8c2.1.3,4.1.9,6.2,1.1,10.5.7,21,1.5,31.5,2,19,.8,37.9.6,56.3-5.3,5.4-1.7,11.1-2.7,15.1-7.4,1.3-1.5,3.3-1.1,4.8.4.6.6,1.3,1.2,1.9,1.9,8,8.9,18.6,10.2,29.7,9.6,3.3-.2,6.6-.8,9.8-1.3,3.9-.6,7.7-1.2,11.6-1.9a5.86,5.86,0,0,0,3.8-2.3,8.74,8.74,0,0,0-2.2-11.9,61.43,61.43,0,0,0-6.2-3.4c2.2-3.7,4-7.3,8-9.4,3-1.5,2.7-4.7-.1-6.5-1.5-1-3.3-1.5-4.6-2.7-4.8-4.2-4.8-9.6-.3-13.9C252.15,130.87,254.45,128.87,256.35,126.57ZM15,165.57a2.49,2.49,0,0,1-2.4-.6,2.55,2.55,0,0,1,0-2.4,32.19,32.19,0,0,0,3.2-18.4c-.3-2.3,1.7-4,5.6-4.1,5,1.5,11.1,1.1,17,1.9,4.9.7,8.6,4.1,13.1,5.9,1.6.6,3.7,1.2,3.4,3.5-.2,1.9-1.9,3.1-3.6,3.7a137.87,137.87,0,0,1-15.2,5.5C29,162.67,22,164.07,15,165.57Zm54.8,5c-13.1,7.9-26.3,15.8-41,20.4a6.9,6.9,0,0,0-.8.3c-1.5.3-3,.5-4.1-.9a3.46,3.46,0,0,1-.5-3.4,12.2,12.2,0,0,1,.7-1.7,15.23,15.23,0,0,0,1.1-10.5c-.9-3.9-.3-4.5,3.5-5.8a20.14,20.14,0,0,1,3.5-1c9.8-2.1,18.7-6.7,27.8-10.5a19.24,19.24,0,0,0,3.1-1.8c4.5-2.7,4.5-4.7,0-7.9-4.8-3.4-9.7-6.8-15.8-11.1a28.62,28.62,0,0,1,11.6,2.4c3.8,1.7,7.5,3.9,11.2,5.9a10,10,0,0,1,5.5,9.6c0,1.5.2,3,.3,4.5C75.85,164.07,74,168,69.75,170.57Zm7.3-32.5c-3.8-1.2-4.6-4.9-1.9-7.7a15.81,15.81,0,0,1,7.6-4.6c9.3-2.5,18.6-5,28.2-5.5,2.1-.1,4.3.1,6.3-.4,11.9-3.2,23.9-1.6,35.8-.6,3.6.3,7.2.7,10.8.7,5.6-.1,10.6,1.9,15.4,4.4,1.3.7,2.6,1.6,2.6,3.4s-1.3,2.6-2.8,3.1a34.29,34.29,0,0,1-7,1.8c-14.7,1.2-29.2,3.4-44,3.7-8.4.2-16.8,1.4-22.7,1-9.7.6-16.9.2-24.1,1.4A10.89,10.89,0,0,1,77,138.07Zm111.8,23.3a15.66,15.66,0,0,0-1.1,5.3c-.4,4.9-2.9,7.7-7.6,8.8-12.6,3.1-25.2,5.8-38.3,5.7h-10.8c-7.6-.2-16-.3-24.4-1.6-3.8-.6-7.8-.4-11.7-.5a24.16,24.16,0,0,1-8.8-1.7c-4.1-1.7-5.8-4.8-5.3-9.3.6-5.4,1.3-10.7,2-16.1.6-4.7,2-6.3,6.6-7.1a140.48,140.48,0,0,1,22.4-2.2c7.5-.1,15-.5,22.5-1.1,12.3-1.1,24.6-2.5,36.8-3.7,5.1-.5,10-2.1,14.9-3.7,2.2-.7,3.7.2,3.9,2.4C190.75,144.87,192.45,153.17,188.85,161.37Zm60.3,13.8c-.2,2.1-1.5,3-5.5,3.4s-7.7.5-11.6.7V179c-4.2,0-8.4.3-12.5-.1a21.11,21.11,0,0,1-15.2-8.5,3.1,3.1,0,0,1-.7-2.4,2.45,2.45,0,0,1,2.1-1.1c3,.1,6,.3,8.9.5,3.9.3,7.7.2,11.4-1.4,3.2-1.4,5.9-1.7,8.5,1.9,1.9,2.7,5.7,2.7,9.1,3C247.65,171.17,249.35,172.67,249.15,175.17Zm-2.5-47.7a10.44,10.44,0,0,1-4.3,5.6c-2.3,1.4-4.7,2.7-7,4.1-7.5,4.5-7.6,9.6-.3,14,1.5.9,3,2,4.5,3,.2.1.2.6.3.8-6.1,3.3-20.8,8-26.2,8.4-3.6.2-7.2.5-10.6-1.2-1.8-.9-4.4-1.2-4.3-4,.1-3.1.8-6.1,4.2-7.3,2.2-.9,4.6-1.3,6.9-2.2,3.7-1.5,5.5-4.4,6.2-8.2a3.42,3.42,0,0,0-4.3-4.1,32.28,32.28,0,0,1-8.7,1.4c5.4-7.2,12.1-12.2,21.6-12.6,2.8-.1,5.2-1.4,7.8-2.1,4.3-1.1,8.8-2.1,13.1.5A3.24,3.24,0,0,1,246.65,127.47Zm-8.3,18.3a1.47,1.47,0,0,1-1.6-1.6,2.39,2.39,0,0,1,1.8-2.5c1.1,0,1.5.8,1.5,1.7C240.15,144.57,239.75,145.67,238.35,145.77Zm-34.7-1.4a2.39,2.39,0,0,1,1.7-.3c.8.2.8.7.3,1.4-.7.7-1.5,1-2.3.3A1.27,1.27,0,0,1,203.65,144.37Z" transform="translate(-0.96 -1.54)"/><path d="M23.78,199.3a9.41,9.41,0,0,1-6.73-2.62c-2.57-2.53-3.43-6.37-2.36-10.54a19.59,19.59,0,0,1,.91-2.41,16.3,16.3,0,0,0,.71-1.85,5.45,5.45,0,0,0-.67-4.66,5.29,5.29,0,0,0-4.11-2,9.27,9.27,0,0,0-1.71.08,16.36,16.36,0,0,1-1.77.12H7.94c-2.51-.13-4.3-.87-5.5-2.26s-1.67-3.37-1.41-6a13.75,13.75,0,0,1,4.52-9.29c2.7-2.35,3.14-4.73,1.68-9.12-2.54-7.62-.55-12.43,6.87-16.62,8.24-4.72,16.81-6.45,25.46-5.15l2,.28c5.51.8,11.21,1.62,16.77,2.52,3.54.61,5.19.08,6.58-2.06a12.87,12.87,0,0,1,4.93-4.25c9.55-4.78,19.93-9.44,31.12-11.2a214.52,214.52,0,0,1,25.45-2,277.24,277.24,0,0,1,40,1.51,39,39,0,0,1,17,5.72l1.14.72A95.33,95.33,0,0,1,197,127c1.2,1.11,1.57,1.22,1.66,1.23s.45-.09,1.73-1.23c12.88-11.19,28.62-12.64,43.73-12.54A21.49,21.49,0,0,1,256.34,118c2.54,1.72,3.26,3.6,3.43,4.88a6.35,6.35,0,0,1-1.8,5.06,56.88,56.88,0,0,1-4.56,4.72c-.68.65-1.37,1.31-2.06,2a6.59,6.59,0,0,0,.2,10.8,9.35,9.35,0,0,0,2.21,1.34,18.55,18.55,0,0,1,2.17,1.19,6.32,6.32,0,0,1,3.17,5.53,5.55,5.55,0,0,1-3.29,4.64c-2.75,1.45-4.32,3.83-6,6.63a38.9,38.9,0,0,1,4.42,2.51,10.86,10.86,0,0,1,2.72,14.9,7.92,7.92,0,0,1-5.11,3.14c-4.05.73-8,1.35-11.69,1.92l-1.65.26c-2.71.44-5.51.89-8.34,1.06-10.46.57-22.34-.22-31.41-10.3a16,16,0,0,0-1.16-1.18l-.66-.64c-.55-.55-1-.77-1.32-.72-.07,0-.19,0-.37.21-3.77,4.43-8.73,5.88-13.54,7.28-.85.25-1.69.49-2.53.76-18.89,6.06-38.57,6.17-57,5.4-7.92-.38-15.94-.93-23.7-1.47l-7.85-.54a33.49,33.49,0,0,1-3.81-.64c-.88-.18-1.71-.36-2.55-.48a15.18,15.18,0,0,1-9.64-5.55c-.4-.49-1.55-1.93-2-2s-2.14.68-3.19,1.18a100.86,100.86,0,0,0-10.07,5.47C48.71,192.23,37.14,196,27.23,198.81A13,13,0,0,1,23.78,199.3ZM11.13,170.92c.23,0,.46,0,.69,0a9.42,9.42,0,0,1,7.25,3.78A9.64,9.64,0,0,1,20.4,183a19.58,19.58,0,0,1-.9,2.39,16.3,16.3,0,0,0-.71,1.85c-.67,2.61-.22,5,1.24,6.39s3.59,1.75,6.05,1.07c9.6-2.7,20.78-6.36,30.91-12.93a105.09,105.09,0,0,1,10.53-5.73c4.94-2.35,6.9-2.38,10.39,2a10.81,10.81,0,0,0,7,4c.91.13,1.84.32,2.75.51a30.2,30.2,0,0,0,3.28.56l7.8.53c7.74.53,15.74,1.09,23.6,1.46,20.86.88,38.3.33,55.55-5.2.88-.28,1.75-.53,2.63-.79,4.39-1.28,8.55-2.49,11.5-6a4.74,4.74,0,0,1,3.44-1.69,6.11,6.11,0,0,1,4.48,2l.58.56a19.75,19.75,0,0,1,1.43,1.46c7.83,8.71,18.54,9.37,28,8.86,2.61-.16,5.31-.59,7.91-1l1.67-.27c3.66-.56,7.59-1.18,11.55-1.89a3.7,3.7,0,0,0,2.43-1.42,6.61,6.61,0,0,0-1.62-8.91,38.56,38.56,0,0,0-4.41-2.47l-1.61-.82-2-1,1.79-3c2-3.41,4.06-6.93,8.2-9.1.46-.23,1-.58,1-1.08s-.29-1.13-1.25-1.75a15.13,15.13,0,0,0-1.71-.93,12.8,12.8,0,0,1-3.18-2,10.77,10.77,0,0,1-.33-17c.68-.68,1.38-1.36,2.08-2a53.48,53.48,0,0,0,4.25-4.39l0-.05a2.55,2.55,0,0,0,.8-1.74,3.27,3.27,0,0,0-1.59-1.9,17.34,17.34,0,0,0-9.91-2.83c-14.27-.09-29.11,1.23-40.91,11.48-3.46,3.07-5.66,3.07-9,0a90.67,90.67,0,0,0-11.85-8.35l-1.14-.72A34.32,34.32,0,0,0,165.93,116a273,273,0,0,0-39.4-1.49,211,211,0,0,0-25,2c-10,1.58-19.2,5.46-29.88,10.8A8.54,8.54,0,0,0,68.42,130c-3,4.6-7.35,4.51-10.83,3.92-5.51-.89-11.19-1.71-16.68-2.51l-2-.29c-7.8-1.18-15.23.34-22.74,4.64-5.61,3.17-6.81,6-4.94,11.58,1.34,4,2.22,9.21-2.92,13.68a9.72,9.72,0,0,0-3.08,6.5,4.16,4.16,0,0,0,.41,2.79,3.75,3.75,0,0,0,2.43.78c.39,0,.81,0,1.26-.1A16.26,16.26,0,0,1,11.13,170.92Zm15.13,22.69a4.93,4.93,0,0,1-4.08-1.93,5.55,5.55,0,0,1-.85-5.39,14.38,14.38,0,0,1,.81-2,13.16,13.16,0,0,0,.92-9.1c-1.21-5.25.45-6.74,4.89-8.26a22,22,0,0,1,3.84-1.08c7.19-1.54,14.16-4.61,20.9-7.58,2.1-.93,4.27-1.88,6.43-2.78a17,17,0,0,0,2.7-1.58l.13-.08c2.19-1.31,2.34-1.95,2.34-2s-.11-.7-2.48-2.39c-2.59-1.83-5.21-3.67-8-5.65L46,138.4l-5.68-4,6.94.14a30.72,30.72,0,0,1,12.41,2.58c2.89,1.29,5.72,2.86,8.44,4.37l2.92,1.6a12,12,0,0,1,6.61,11.52c0,.86.08,1.78.17,2.76,0,.52.09,1,.13,1.55v.14c0,5.91-2.39,10.39-7.11,13.31h0c-12.94,7.8-26.31,15.87-41.46,20.61-.17.06-.36.11-.49.18l-.23.11-.29.07A10.53,10.53,0,0,1,26.26,193.61Zm37.95-36.16a21,21,0,0,1-3.38,2c-2.18.91-4.33,1.86-6.41,2.78-6.94,3.05-14.11,6.21-21.82,7.87a18.71,18.71,0,0,0-3.22.92A8,8,0,0,0,26.92,172a5.8,5.8,0,0,0,.3,2.25A17.44,17.44,0,0,1,26,186.22a10.06,10.06,0,0,0-.58,1.42,1.33,1.33,0,0,0,.14,1.4c.23.29.43.44,1.8.19.24-.1.49-.18.73-.26,14.73-4.61,27.88-12.54,40.6-20.21,3.4-2.11,5.07-5.26,5.08-9.62,0-.46-.07-.92-.11-1.38-.09-1-.19-2.09-.19-3.19a7.86,7.86,0,0,0-4.4-7.74l-2.94-1.62c-2.65-1.47-5.39-3-8.1-4.2-.65-.28-1.29-.54-1.93-.76l.17.12c2.83,2,5.46,3.82,8.06,5.66,2.17,1.54,4.37,3.46,4.27,6S66.19,156.25,64.21,157.45Zm78.32,25.84H131l-2.15-.05a176.1,176.1,0,0,1-22.57-1.57,54.31,54.31,0,0,0-8.18-.44c-1.09,0-2.17,0-3.25,0a26,26,0,0,1-9.58-1.87c-4.9-2-7.18-6-6.58-11.49.54-4.88,1.15-9.56,1.79-14.52l.21-1.62c.72-5.64,2.9-8,8.34-8.92a143.16,143.16,0,0,1,22.74-2.23c7-.09,14.32-.45,22.36-1.09,7.5-.67,15.15-1.47,22.54-2.24,4.75-.5,9.49-1,14.22-1.46s9.52-2,14.44-3.6a5.16,5.16,0,0,1,4.61.4,4.86,4.86,0,0,1,2.07,3.82c.11,1.18.25,2.38.38,3.58.81,7.25,1.65,14.74-1.65,22.27a13.45,13.45,0,0,0-.92,4.56c-.48,5.83-3.58,9.43-9.24,10.75C169.3,180.33,156.08,183.3,142.53,183.3Zm-.68-4.25c13.33.14,26.49-2.86,37.79-5.64,3.88-.91,5.67-3,6-6.91a17.49,17.49,0,0,1,1.27-6h0c2.85-6.48,2.11-13.09,1.32-20.09-.14-1.22-.27-2.44-.39-3.65a1.21,1.21,0,0,0-.19-.68,1.52,1.52,0,0,0-.95.1c-4.92,1.61-10,3.27-15.34,3.79-4.72.46-9.45,1-14.19,1.45-7.41.77-15.07,1.57-22.62,2.25-8.15.65-15.56,1-22.66,1.11A139,139,0,0,0,89.82,147c-3.64.63-4.37,1.42-4.86,5.28l-.21,1.63c-.64,4.94-1.25,9.6-1.78,14.44-.4,3.6.83,5.79,4,7.1A21.92,21.92,0,0,0,95,176.94c1,0,2.09,0,3.14,0a58.13,58.13,0,0,1,8.82.49A170.16,170.16,0,0,0,129,179l2.1.05Zm88.07,2.46v-.39l-1.62,0a76.1,76.1,0,0,1-9-.16,23.31,23.31,0,0,1-16.69-9.33,5.08,5.08,0,0,1-1.05-4.27,4,4,0,0,1,2.76-2.42,13.92,13.92,0,0,1-2.27-.9c-.31-.16-.66-.29-1-.43-1.61-.64-4.6-1.82-4.47-5.55.1-3.13.79-7.5,5.57-9.21.57-.23,1.14-.43,1.72-.61a3.58,3.58,0,0,1-2-.9l-.1-.1a2.9,2.9,0,0,1-.67-2.53,3,3,0,0,1,1.33-2.16,4.47,4.47,0,0,1,3.2-.6l.16,0a2.83,2.83,0,0,1,2.1,1.75,3.08,3.08,0,0,1-.58,3l-.23.27a5.19,5.19,0,0,1-.64.55c.88-.25,1.73-.51,2.56-.83,2.73-1.11,4.25-3.15,4.88-6.61a1.53,1.53,0,0,0-.43-1.46,1.12,1.12,0,0,0-1.15-.22,34.85,34.85,0,0,1-9.33,1.49H198.8l2.55-3.4c6.5-8.67,14.09-13.06,23.21-13.45a15.71,15.71,0,0,0,4.62-1.14c.87-.31,1.77-.63,2.72-.88,4-1,9.51-2.44,14.75.73l.26.19a5.36,5.36,0,0,1,1.74,6.25,12.58,12.58,0,0,1-5.18,6.69c-1.18.72-2.37,1.4-3.55,2.08s-2.32,1.33-3.46,2c-3,1.81-4.68,3.7-4.68,5.32s1.55,3.35,4.37,5c1.05.63,2.1,1.35,3.11,2l1.42,1a2.67,2.67,0,0,1,1.17,1.83l.83,1.66-1.81,1C235,160,222,164.27,215.44,165.29a20.87,20.87,0,0,0,9.77-1.28c3.25-1.42,7.45-2.41,11.07,2.61,1.14,1.62,3.73,1.82,6.47,2l1.09.09c2.92.22,5,1,6.2,2.49a5.48,5.48,0,0,1,1.23,4.1v0c-.39,4.06-3.79,5-7.4,5.31-3,.31-6,.44-8.9.58l-2.81.13Zm2.13-4.66h2.13v.2l.6,0c3-.13,5.76-.26,8.66-.56,3.45-.35,3.55-.92,3.6-1.47a1.19,1.19,0,0,0-.23-1c-.21-.25-1-.84-3.32-1l-1.08-.09c-3.26-.25-7.32-.57-9.6-3.81-1.62-2.24-2.89-2.5-5.91-1.18a25.54,25.54,0,0,1-12.41,1.57c-2.87-.2-5.69-.39-8.51-.49h0a19,19,0,0,0,13.77,7.74,71.45,71.45,0,0,0,8.46.14C229.49,176.87,230.77,176.84,232,176.84Zm-19.27-42.76a5.36,5.36,0,0,1,3.59,1.38,5.82,5.82,0,0,1,1.77,5.42c-.89,4.82-3.41,8.12-7.49,9.77a37.31,37.31,0,0,1-3.62,1.15,29.8,29.8,0,0,0-3.27,1l-.1,0c-1.9.67-2.68,2.17-2.78,5.36,0,.57,0,.74,1.78,1.45.46.18.92.37,1.34.58,2.73,1.37,5.78,1.19,9,1l.52,0c4.41-.33,15.87-3.87,22.6-6.84-.74-.51-1.46-1-2.17-1.41-4.27-2.58-6.44-5.5-6.43-8.7s2.27-6.27,6.73-9c1.16-.7,2.35-1.39,3.54-2.07s2.32-1.33,3.45-2a8.27,8.27,0,0,0,3.4-4.48l0,0a1.1,1.1,0,0,0-.36-1.42c-3.4-2-7-1.28-11.32-.17-.76.21-1.55.48-2.37.78a19.17,19.17,0,0,1-5.88,1.39c-6.36.27-11.73,2.76-16.61,7.78,1.06-.22,2.08-.48,3.07-.76A5.43,5.43,0,0,1,212.78,134.08Zm-8,12.09Zm-.8-1,.06.15a1.46,1.46,0,0,0,.83.81h0l.26-1.05-.62-.44Zm1.22,0L205,146a1.15,1.15,0,0,0,.34-.55.57.57,0,0,0,0-.15Zm0-.12.17.17a1.62,1.62,0,0,0-.13-.38Zm-1.27-.78a1.56,1.56,0,0,0,0,.87l.47-.53Zm.73.24.48.48.06-.23a1.9,1.9,0,0,0-.34-.45Zm-.43-.43.34.34.19-.21A.86.86,0,0,0,204.22,144ZM14.29,167.77a4.23,4.23,0,0,1-3.47-1.55,4.6,4.6,0,0,1-.11-4.73,30,30,0,0,0,2.92-17.05,5.08,5.08,0,0,1,1.17-4c1.33-1.55,3.57-2.41,6.48-2.48h.34l.33.1a43.73,43.73,0,0,0,9.74,1.25c2.26.13,4.6.26,6.93.58,3.47.5,6.28,2.11,9,3.67a37.09,37.09,0,0,0,4.6,2.37l.27.1c1.61.59,5,1.82,4.45,5.65-.25,2.4-2.08,4.4-5,5.43l-1.61.65a122.25,122.25,0,0,1-13.74,4.9c-6.32,1.9-12.8,3.26-19.06,4.58l-2.12.45A4.91,4.91,0,0,1,14.29,167.77Zm6.79-25.56c-2.13.11-2.87.77-3,1a.81.81,0,0,0-.19.71,34.54,34.54,0,0,1-3.39,19.6h0l2.15-.45c6.46-1.36,12.57-2.64,18.77-4.5a119.61,119.61,0,0,0,13.32-4.75l1.7-.68c.57-.2,2.16-.85,2.28-1.95,0-.35.07-.51-1.7-1.16l-.34-.12a40.77,40.77,0,0,1-5.18-2.64c-2.48-1.42-4.83-2.77-7.48-3.15-2.15-.29-4.41-.42-6.59-.55A48.54,48.54,0,0,1,21.09,142.2Zm217.09,5.7a3.45,3.45,0,0,1-2.34-.89,3.82,3.82,0,0,1-1.22-2.84A4.51,4.51,0,0,1,238,139.6l.25-.06h.26a3.56,3.56,0,0,1,3.63,3.73,4.47,4.47,0,0,1-1,3.3,3.81,3.81,0,0,1-2.69,1.31Zm0-4.25a.74.74,0,0,0,.35.14v0a.78.78,0,0,0-.34-.11ZM80.77,140.91a13.62,13.62,0,0,1-4.4-.83,6.78,6.78,0,0,1-4.75-4.68,6.9,6.9,0,0,1,2-6.51,17.89,17.89,0,0,1,8.63-5.19c9.2-2.47,18.76-5,28.59-5.56.67,0,1.34,0,2,0a16.9,16.9,0,0,0,3.89-.3c10.92-2.94,21.93-2,32.58-1l3.91.34,2.17.19c2.79.25,5.66.5,8.45.5,6.36-.12,11.85,2.28,16.38,4.64,1,.56,3.74,2,3.74,5.29,0,2.46-1.43,4.18-4.25,5.12l-1.5.47a26.56,26.56,0,0,1-6,1.43c-5.06.41-10.19,1-15.15,1.48-9.44,1-19.21,2-29,2.23-3.41.08-6.83.33-10.13.57a99.16,99.16,0,0,1-12.61.43c-3.56.22-6.72.3-9.77.38a101.1,101.1,0,0,0-14,1l-.17,0ZM133.2,120.1a59,59,0,0,0-15.4,1.82,20.23,20.23,0,0,1-4.93.44c-.61,0-1.22,0-1.82,0-9.37.49-18.71,3-27.75,5.43a13.71,13.71,0,0,0-6.61,4,2.79,2.79,0,0,0-1,2.52,2.64,2.64,0,0,0,2,1.69l.07,0a9,9,0,0,0,3.23.59,104.83,104.83,0,0,1,14.46-1c3.06-.08,6.22-.16,9.76-.38h.27a95.73,95.73,0,0,0,12.16-.42c3.35-.25,6.82-.5,10.35-.58,9.6-.2,19.27-1.22,28.63-2.21,5-.53,10.14-1.07,15.25-1.49a23.09,23.09,0,0,0,5-1.24l1.51-.48c1.29-.43,1.29-.77,1.29-1.07s-.11-.79-1.48-1.53c-4-2.1-8.89-4.29-14.35-4.15h0c-3,0-6-.26-8.86-.52l-2.15-.19-3.94-.34C143.75,120.58,138.47,120.1,133.2,120.1Z" transform="translate(-0.96 -1.54)"/><path d="M350.55,50c2.4-3.6,1.6-6.3-2.2-8.2-4.8-2.5-10.1-2.9-15.4-2.8a182.78,182.78,0,0,0-31.3,3.4c-2.4.5-4.6.2-5.8-2.3-4.4-9.8-13.5-13.5-22.4-17.6a61.85,61.85,0,0,0-38.4-4.7c-6.3,1.2-12.5,2.4-18.5,4.7s-11.5,1.8-16.6-2.5a55.45,55.45,0,0,0-13.3-8.4c-6.2-2.7-12.3-5.6-18.4-8.4-1.7-.8-3.3-1.8-5.1-1.6a6.47,6.47,0,0,0-6.4,4c-2.4,5.4-6.4,8.1-12.1,8.7a9.37,9.37,0,0,0-3.2,1.1c-2,.9-2.7,3.8-1.5,5.8s3,3.2,4.8,4.6c7.9,6.1,7.8,10.5-.2,16.7-2.1,1.6-4.3,3-6.3,4.8-2.9,2.5-3.3,4.9-.6,7.7,3.1,3.2,4.2,6.9,4.6,11.1a33.33,33.33,0,0,0,1,5.5c1.1,4.2,3.1,5.3,7.5,4.1,11.9-3.3,23.8-6.7,35.7-10.1l6.5-1.8c2.5-.6,4.5,0,5.6,2.4,5.1,11.1,14.8,15.7,25.9,17.5,10,1.6,20.1,2,30.3,2.6a51,51,0,0,0,14.6-.8c12.6-3,23.7-.2,33.9,7.3,1.2.9,2.3,1.9,3.6,2.7,4.5,2.8,9,5.4,13.4,8.2,4.8,3,8,1.6,11.7-2.7,1.8-2.1,1.9-4.8,2.5-7.3,1.6-6.6,3.6-13.1,9.6-17.3a13.62,13.62,0,0,0,2.4-2.4,7.8,7.8,0,0,0,1.9-8.3,37.53,37.53,0,0,0-1.9-4.1c-1.4-3-1.2-5.8,1.1-8.3A18.66,18.66,0,0,0,350.55,50Zm-159.1,4.9a15.21,15.21,0,0,1-4.8,2.7c-10.4,2.9-20.9,5.7-31.3,8.5-2.5.7-4.4-.3-5.3-2.8-1-2.8,0-5.8,2.6-6.5,7.5-2.2,15.1-4.2,22.7-6a116.74,116.74,0,0,1,13.2-2c2-.2,3.5,1,4.1,3.5C192.35,53,192.15,54.27,191.45,54.87Zm2.5-14.5c-12.5.3-24.1,4.9-36.3,6.8-1,.2-2.1-.4-3.3-.6,0-3.8,3-6.1,4.1-9.2,1.3-3.4-1.8-8.6,2.6-10,3.2-.9,7.2,1.1,10.8,1.9,5.2,1.2,10.4.3,15.5.4.9-3.1-1.2-3.5-2.8-3.9-6.1-1.9-12.2-3.5-18.3-5.4-3-.9-4.2-3-3.2-4.8,1.3-2.5,4.6-4.1,6.6-2.5,6.8,5.4,15.9,6.7,22.4,12.5,1.7,1.5,3.6,2.7,5.1,4.3C200.65,33.47,198.75,40.27,194,40.37Zm93.9,18.3c-1.7,7.8-6.9,13.2-14.1,16.3-6.3,2.8-13,3.3-22.4,2.6-6.9.3-16-2.1-25.3-3.5a45,45,0,0,1-8.7-2.4c-11.9-4.7-16.6-21.6-8.3-32.1a30.52,30.52,0,0,1,16.4-10.8c17.6-5.1,34.2-1.9,50.2,5.5A22.41,22.41,0,0,1,287.85,58.67Zm16.5-7.7c2.3-.2,4.7-.3,7-.5-2.1,1.1-4.2,2.2-6.4,3.1a2.75,2.75,0,0,1-1.9-.4C302.25,52.87,303.15,51.07,304.35,51Zm26,28.2c-1.4,3.8-2.4,7.8-3.9,11.6-1.3,3.4-4.2,4.7-7.2,2.5-6.7-4.9-14.3-7.9-21.3-12.1a22,22,0,0,1-1.8-1.4c-1.9-1.8-4-3.6-3.2-6.6a6.38,6.38,0,0,1,5.8-4.6c13.1-1,26.3-4.3,40,.5C336.85,73.27,331.85,75,330.35,79.17Zm8.7-26.8c-.6,1-1.4,1.8-2,2.7-1.4,2.1-1.2,5.4-4.5,5.9a18,18,0,0,1-8.9-.8,3.54,3.54,0,0,1-2.4-3.4c0-1.8,1.1-4-.9-5.1-1.5-.9-3.5-1-5.3-1.3a14,14,0,0,0-2.9,0c7.6-3.2,15.7-3.7,23.8-4C339.75,46.17,341,49,339,52.37Z" transform="translate(-0.96 -1.54)"/></svg>