<?xml version="1.0" encoding="utf-8"?>
<!-- Generator: Adobe Illustrator 21.0.0, SVG Export Plug-In . SVG Version: 6.00 Build 0)  -->
<svg version="1.1" id="Режим_изоляции"
	 xmlns="http://www.w3.org/2000/svg" xmlns:xlink="http://www.w3.org/1999/xlink" x="0px" y="0px" viewBox="0 0 14 21"
	 style="enable-background:new 0 0 14 21;" xml:space="preserve">
<style type="text/css">
	.st0{fill:#2a2a2a;}
</style>
<title>icon-mark</title>
<path class="st0" d="M12.3,11.9c1.5-2.6,2.4-5.8,0.9-8.6c-1.9-3.3-6.1-4.1-9.3-2.4c-4.1,2.1-4.5,6.5-3.3,10.4
	c0.1,0.2,0.2,0.3,0.3,0.4c1.4,2.7,3.5,5,4.4,7.9c0,0.1,0.1,0.3,0.3,0.3c-0.4,0-0.8,0-1.2-0.2c-0.3-0.1-0.7,0-0.8,0.3
	c-0.1,0.2,0,0.5,0.2,0.7c0.8,0.5,2,0.3,2.9,0.3c1.2,0,2.3-0.2,3.4-0.5c0.7-0.3,0.4-1.4-0.3-1.2C8.9,19.6,8,19.7,7,19.7l-0.7,0.1
	c0,0,0,0,0,0C8.6,17.3,10.7,14.8,12.3,11.9 M1.7,10.4c0-0.1-0.1-0.1-0.1-0.2C1.1,8.8,1,7.2,1.3,5.7c0.5-2,2.1-3.5,4-4.2
	c2.9-1.1,6.1,0.3,7.2,3.2c0.1,0.2,0.2,0.5,0.2,0.7c0.6,2.6-1.1,5.4-2.4,7.5c-1.2,1.9-2.6,3.6-4.2,5.3C5.1,15.4,3,13.1,1.7,10.4"/>
<path class="st0" d="M8.7,8.7c1.2-1,1.1-2.9,0.3-4.1C7.8,2.9,5.8,3.3,4.4,4.4C4.2,4.5,4.1,4.8,4.2,5C3.7,5.7,3.5,6.6,3.8,7.4
	C4.3,9.3,7.3,9.9,8.7,8.7 M7.9,5.2c0.5,0.6,0.7,1.8,0.2,2.4C7.4,8.5,5.5,8.1,5,7.2C4.2,6,6,4.8,7.1,4.8c0.1,0,0.2,0,0.3-0.1
	C7.6,4.8,7.8,5,7.9,5.2"/>
</svg>
