<?xml version="1.0" encoding="utf-8"?>
<!-- Generator: Adobe Illustrator 19.0.1, SVG Export Plug-In . SVG Version: 6.00 Build 0)  -->
<svg version="1.1" id="Слой_1" xmlns="http://www.w3.org/2000/svg" xmlns:xlink="http://www.w3.org/1999/xlink" x="0px" y="0px"
	 viewBox="388.3 216.3 183.6 143.3" style="enable-background:new 388.3 216.3 183.6 143.3;" xml:space="preserve">
<style type="text/css">
	.st0{fill:#604E42;}
</style>
<path class="st0" d="M527.8,264.5h-93.8c-6.4,0-11.5,5.2-11.5,11.5h52.5v83.5h11.5v-83.5H539C539,269.8,534,264.7,527.8,264.5z"/>
<path class="st0" d="M398.8,216.6c-1-0.1-1.9-0.1-2.9,0h-7.6v143h10.5v-43.9h38.9v44h10.5v-44.6v-1c-1.4-8-7.3-11.8-15.4-11.9h-22.5
	c-4.3-0.1-8.4,1.6-11.5,4.5v-32.5l0,0"/>
<path class="st0" d="M561.1,273.9v32.5c-3.1-2.9-7.2-4.5-11.5-4.5h-22.4c-8.2,0.1-14.1,4.1-15.4,12.2c0,0.3,0,0.7,0,1v44.5h10.5v-44
	h39v44h10.5v-85.2l0,0l-0.2-58H564c-1-0.1-1.9-0.1-2.9,0l0,0"/>
</svg>
