<svg id="Слой_1" data-name="Слой 1" xmlns="http://www.w3.org/2000/svg" viewBox="0 0 509.54 521.05"><defs><style>.cls-1{fill:#604e42;}</style></defs><title>icon-in-office</title><path class="cls-1" d="M119.17,9.58A11.51,11.51,0,0,0,108.93,21.1V211.17A28.42,28.42,0,0,1,80.35,240H19.42q-.54,0-1.08,0a11.53,11.53,0,0,0,1.06,23H53.93V464.6c0,28.47,23,51.84,51.41,51.84h299.8c28.36,0,51.41-23.37,51.41-51.84V263h34.51a11.52,11.52,0,0,0,.33-23H430.12a28.42,28.42,0,0,1-28.58-28.8V21.1A11.51,11.51,0,0,0,390,9.58H330a11.51,11.51,0,0,0-11.52,11.51q0,.28,0,.55c.09,1.78.18,3.49.18,5.22,0,45.83-29.71,80.64-63.45,80.64s-63.45-34.81-63.45-80.64c0-1.73.09-3.44.18-5.22a11.51,11.51,0,0,0-11-12H120.43a11.49,11.49,0,0,0-1.26,0Zm12.76,23h37.39c2.5,53.39,38.62,97.92,85.92,97.92S338.65,86,341.15,32.62h37.39V211.17c0,28.47,23.23,51.84,51.59,51.84h3.42V464.6c0,16.2-12.48,28.8-28.4,28.8H105.33c-15.92,0-28.4-12.6-28.4-28.8V263h3.42c28.36,0,51.59-23.37,51.59-51.84V32.62Zm59,282.23a11.51,11.51,0,0,0-10.42,11.52c0,24.71,7.82,47.25,21,64.08s32.31,28.08,53.74,28.08,40.54-11.25,53.74-28.08,21-39.36,21-64.08a11.51,11.51,0,0,0-11.5-11.52H192Q191.43,314.82,190.89,314.85Zm14.38,23H305.2c-2,14.9-6.52,28.55-14.2,38.34-9.69,12.35-22.25,19.26-35.77,19.26s-26.07-6.91-35.77-19.26c-7.68-9.79-12.2-23.44-14.2-38.34Z" transform="translate(-0.27 -2.47)"/><path class="cls-1" d="M405.14,523.53H105.33c-32.25,0-58.49-26.43-58.49-58.93V270.1H19.55A18.61,18.61,0,0,1,.29,252.35,18.63,18.63,0,0,1,18,232.89c.52,0,1,0,1.55,0H80.35a21.37,21.37,0,0,0,21.49-21.71V21.1A18.55,18.55,0,0,1,118.39,2.53l.39,0a18,18,0,0,1,1.82,0h59.86l.89,0A18.62,18.62,0,0,1,199,22v.17c-.08,1.65-.16,3.21-.16,4.71,0,20.23,6.21,39.07,17.5,53.05,10.67,13.22,24.47,20.5,38.86,20.5s28.2-7.28,38.86-20.5c11.29-14,17.5-32.83,17.5-53.05,0-1.52-.08-3.1-.17-4.77v-.15c0-.28,0-.57,0-.85A18.62,18.62,0,0,1,330,2.49h60a18.62,18.62,0,0,1,18.59,18.6V211.17a21.37,21.37,0,0,0,21.49,21.71h61.35A18.61,18.61,0,0,1,491,270.1H463.63V464.6C463.63,497.09,437.39,523.53,405.14,523.53ZM19.42,255.92H61V464.6c0,24.68,19.88,44.75,44.32,44.75H405.14c24.44,0,44.32-20.08,44.32-44.75V255.92h41.7a4.43,4.43,0,0,0,.12-8.87H430.12a35.4,35.4,0,0,1-35.67-35.89V21.1A4.43,4.43,0,0,0,390,16.66H330a4.43,4.43,0,0,0-4.42,4.43c0,.08,0,.16,0,.24.09,1.81.19,3.64.19,5.52,0,48.37-31.64,87.72-70.53,87.72S184.7,75.23,184.7,26.86c0-1.86.09-3.68.18-5.43v-.15a4.43,4.43,0,0,0-4.21-4.61H119.75A4.42,4.42,0,0,0,116,21.06V211.17a35.4,35.4,0,0,1-35.67,35.89H18.67a4.45,4.45,0,0,0-2.78,7.73,4.36,4.36,0,0,0,3.18,1.15ZM405.14,500.49H105.33c-19.9,0-35.49-15.76-35.49-35.89V255.92h10.5a44.68,44.68,0,0,0,44.5-44.75V25.53h51.23l.32,6.75c2.4,51.12,37,91.16,78.84,91.16s76.44-40,78.84-91.16l.32-6.75h51.23V211.17a44.68,44.68,0,0,0,44.5,44.75h10.5V464.6C440.62,484.72,425,500.49,405.14,500.49ZM84,270V464.6c0,12.17,9.36,21.71,21.31,21.71H405.14c12,0,21.31-9.54,21.31-21.71V270a58.89,58.89,0,0,1-55-58.81V39.7H347.74c-2.47,25.23-12.07,48.64-27.37,66.51-17.35,20.26-40.49,31.41-65.14,31.41s-47.78-11.16-65.14-31.41c-15.3-17.86-24.9-41.27-27.37-66.51H139V211.17A58.89,58.89,0,0,1,84,270ZM255.23,425.61c-22.34,0-44-11.22-59.32-30.79-14.54-18.53-22.54-42.84-22.54-68.45a18.5,18.5,0,0,1,16.85-18.58l.34,0c.51,0,1,0,1.55,0H318.5a18.62,18.62,0,0,1,18.59,18.61c0,25.62-8,49.93-22.54,68.45C299.2,414.39,277.58,425.61,255.23,425.61ZM191.38,321.92a4.41,4.41,0,0,0-3.83,4.42c0,22.49,6.93,43.69,19.52,59.73s30.2,25.37,48.17,25.37,35.52-9.25,48.17-25.37,19.52-37.25,19.52-59.7a4.43,4.43,0,0,0-4.42-4.43H191.38Zm63.85,80.65c-15.54,0-30.23-7.8-41.34-22C206,370.49,200.55,356,198.24,338.83l-1.08-8H313.3l-1.07,8c-2.31,17.22-7.72,31.66-15.65,41.77C285.46,394.77,270.78,402.57,255.23,402.57ZM213.66,345c2.33,11.1,6.21,20.29,11.38,26.88,8.49,10.83,18.93,16.55,30.19,16.55s21.7-5.72,30.19-16.55c5.17-6.59,9-15.78,11.38-26.88Z" transform="translate(-0.27 -2.47)"/></svg>