<svg id="Слой_1" data-name="Слой 1" xmlns="http://www.w3.org/2000/svg" viewBox="0 0 402.22 472.95"><defs><style>.cls-1{fill:#604e42;}</style></defs><title>icon-bottle</title><path class="cls-1" d="M176.4,213.79c-6.06-40.86-43.06-68.66-45.36-105.84C129,74.38,151.16,38.38,144,15.07c-5.38.23-29.67-3.1-36.72-2.16,1.83-4.66,13.77.81,15.12-4.32-3.8-1.24-12.69,2.61-13-2.16H81.36c-6.44,6.41-14.7.67-21.6,8.64V8.59c-4.63,2.57-12.07,2.33-15.12,6.48-3.83,19.09.59,58.17,15.12,82.08-2.12,6-5.76-3.14-8.64,2.16-.6,4.92.52,8.12,4.32,8.64C39.8,147.56,18.21,178.16,7.92,218.11V431.95c5.25,4.37,3.53,13.45,0,19.44v4.32c3.57,2.18,2.35,9.17,4.32,13,61.16,9.63,100.56-3,162,0,4.43-47.78,7.32-112.57,4.32-177.12C177.38,266.3,180.09,238.72,176.4,213.79ZM33.84,449.23c-2.19-20.65,7.83-34.37,4.32-41,20.42-5.51,75.56-4.91,114.48-6.48.8,14.54,1.55,28.75,6.48,43.2C123.12,453.72,79,446.71,33.84,449.23Zm125.28-71.28c-19.9,2.3-26.83-6.39-41-2.16-2.53-.34-1.83-3.94-2.16-6.48-4.13,6.46-6.19,1.57-13,4.32-6.51-12.15-38.24.28-62.64-4.32-2.35-35.32.61-46.87-2.16-75.59,44.59-2.16,66.81-6.48,118.8-4.32C161.48,315.1,158,348.78,159.12,377.95Zm0-108c-24.77,1.8-37.48-6.88-58.32-2.16-4.49-1.21-4.57-3.37-2.16-6.48-6.07,7.31-15.1-.26-19.44,6.48-2.25-7.19-.57-4.79-10.8-8.64a15.33,15.33,0,0,0-4.32,6.49c-3.2-.94.85-2.77,0-6.49-5.21,5.39-8.81-1-10.8,6.49-2.55-.65-5.43-11.44-8.64-4.32-4.61-4.75-.3-18.41-8.64-19.44.35-2.53,3.94-1.83,6.48-2.16-4.06-45.22,27-71.54,38.88-105.84,4.45-12.86.31-21.12,0-36.72,0-.47,3.35-14.3,2.16-23.76-1.26-10-5.1-19.91-6.48-30.24,15.43-4.68,32.67-3.63,41-6.48,0,24-8.41,51.37-6.48,75.6C116,167.88,175.15,193.6,159.12,269.95Z" transform="translate(-5.79 -4.3)"/><path class="cls-1" d="M60.32,474.48a305.87,305.87,0,0,1-48.41-3.72l-1.06-.17-.5-1a19.31,19.31,0,0,1-1.56-6.26c-.34-2.5-.7-5.08-2-5.86l-1-.62v-6.09l.29-.5c3.28-5.57,4.56-13.32.47-16.72l-.77-.64V217.84l.07-.26c6.28-24.35,16.53-44.89,27.38-66.64,6.6-13.23,13.42-26.89,19.38-41.67C50.35,108.08,48.24,105.33,49,99l0-.4.19-.35a5.08,5.08,0,0,1,3-2.69c1.8-.51,3.36.38,4.49,1l.38.21C43.48,73.24,38.47,35,42.55,14.65l.09-.46.28-.38c2.31-3.14,6.23-4.15,10-5.12a25.31,25.31,0,0,0,5.78-2L61.88,5v5.5C65,8.57,68.23,8.26,71.18,8c3.32-.31,6.19-.58,8.68-3.07l.62-.62h31l.11,2a.68.68,0,0,0,0,.24c.54.45,3.39.13,4.92,0,2.3-.26,4.69-.54,6.54.07l1.91.62-.51,1.94a4.72,4.72,0,0,1-1.22,2.19c2.53.21,5.12.45,7.61.68,5.68.53,11,1,13.07.94l1.64-.07.48,1.57c3.93,12.79-.49,28.93-5.17,46-4.26,15.58-8.67,31.7-7.7,47.35,1.14,18.41,11,34.48,21.54,51.49,10.21,16.56,20.77,33.69,23.8,54.17h0c2.32,15.69,2.14,32.51,2,48.77-.11,9.7-.22,19.73.22,29.19,3.52,75.78-1.2,143.68-4.33,177.42l-.19,2-2-.1c-25.64-1.25-47.49.23-68.63,1.67C90.42,473.48,75.76,474.48,60.32,474.48Zm-46.57-7.74c34.73,5.33,62.3,3.46,91.47,1.47,20.7-1.41,42.09-2.86,67.09-1.77,3.11-34.26,7.57-100.77,4.13-174.8C176,282,176.1,272,176.2,262.2c.18-16.1.36-32.75-1.91-48.1h0c-2.91-19.62-13.23-36.36-23.22-52.56-10.78-17.48-21-34-22.16-53.46-1-16.36,3.49-32.82,7.85-48.74s8.41-30.73,5.61-42.16c-2.72-.09-7.06-.49-11.93-.94-8.43-.78-18.92-1.75-22.89-1.23l-3.58.47,1.32-3.36a4.8,4.8,0,0,1,3.05-2.85,4.15,4.15,0,0,1-.49-.73H82.19c-3.41,3-7.23,3.34-10.62,3.67-3.82.36-7.12.67-10.21,4.24l-3.73,4.31v-9c-1.19.39-2.42.71-3.63,1-3,.78-5.88,1.51-7.38,3.19C42.8,36.06,47.95,73.61,61.57,96l.52.86-.33.95A5,5,0,0,1,59,101.2c-1.72.64-3.26-.24-4.38-.88a6.92,6.92,0,0,0-1.21-.6,1.74,1.74,0,0,0-.23.28c-.56,5.41,1.53,5.7,2.55,5.84l2.68.37-1,2.52C51.19,124.49,44,138.9,37,152.83c-10.71,21.46-20.83,41.74-27,65.54V431c5,5,3.85,14.07,0,20.94v2.71c2.12,2,2.56,5.24,3,8.14A25,25,0,0,0,13.74,466.74ZM57.32,97.33Zm52.75,354.31c-8.39,0-17-.21-25.74-.42-16.39-.4-33.33-.82-50.38.13l-2,.11-.21-2c-1.24-11.67,1.33-21.34,3.21-28.4,1.42-5.36,2.55-9.59,1.34-11.88L35,406.82l2.56-.69c15.19-4.1,48.7-4.86,81.11-5.6,12-.27,23.41-.53,33.84-1l2.09-.08.13,2.45c.8,14.51,1.55,28.21,6.35,42.27l.75,2.2-2.26.55C144.31,450.72,127.64,451.64,110.07,451.64Zm-53.22-5.12c9.32,0,18.54.23,27.58.45,25.89.64,50.4,1.23,71.94-3.6-4.16-13.24-5-26-5.75-39.45-9.89.37-20.56.62-31.82.87-30.67.7-62.33,1.42-77.94,4.92.58,3.37-.52,7.49-1.83,12.44-1.77,6.67-4,14.87-3.27,24.85C42.84,446.65,49.88,446.52,56.85,446.52Zm95.59-66.05a68,68,0,0,1-16-2.16c-6.14-1.39-11-2.49-17.72-.48l-.44.13-.45-.06c-2.36-.32-3.26-2-3.62-3.72a8.11,8.11,0,0,1-5,.74,10.55,10.55,0,0,0-5.45.69l-1.77.72-.9-1.68C98,368.88,86.43,370,73,371.26c-10.53,1-22.47,2.14-33.11.13l-1.62-.3-.11-1.64c-1.14-17.18-1-29-.94-39.39A306.35,306.35,0,0,0,36,293.92l-.21-2.22,2.23-.11c13.6-.66,25-1.51,36-2.34,25.07-1.87,46.72-3.49,82.94-2l1.71.07.3,1.68c2.93,16.61,2.56,36.71,2.21,56.15-.2,10.92-.4,22.21,0,32.7l.07,2-2,.23A60.22,60.22,0,0,1,152.45,380.47Zm-26.52-8a50.54,50.54,0,0,1,11.41,1.67c5.3,1.2,11.25,2.55,19.58,1.87-.3-10-.1-20.64.08-30.93.34-18.57.68-37.76-1.86-53.65-34.95-1.37-56.19.21-80.73,2-10.46.78-21.25,1.59-33.94,2.23a319.54,319.54,0,0,1,1,34.36c-.09,10-.2,21.28.82,37.4,9.67,1.5,20.6.46,30.3-.47,13.91-1.33,26-2.48,31.19,4.06a15.09,15.09,0,0,1,5.72-.41c2.12.17,2.83.23,4.58-2.51l3.14-4.91L118,369a21.83,21.83,0,0,1,.14,2.19,13.1,13.1,0,0,0,.19,2.28A29,29,0,0,1,125.93,372.49ZM78.52,272.76l-1.36-4.34c-.22-.7-.4-1.31-.56-1.85a9.89,9.89,0,0,0-.93-2.53A11,11,0,0,0,73,263c-1-.34-2.39-.77-4.12-1.4A15.37,15.37,0,0,0,66,266.44l-.73,1.78-1.84-.54a3.8,3.8,0,0,1-2.54-1.95,3.1,3.1,0,0,1-.06-2.26,12,12,0,0,1-3,.25c-1.66,0-1.92,0-2.57,2.46l-.54,2-2-.52c-1.68-.43-2.76-2.1-4-4a20.76,20.76,0,0,0-1.7-2.38,6.76,6.76,0,0,0-.48.9L45.29,265l-2.18-2.25c-2.41-2.49-2.84-6.4-3.25-10.19-.61-5.59-1.21-8.26-4.12-8.62l-2.14-.26.3-2.14c.49-3.56,4-3.79,6.3-3.86-1.95-29.35,10.56-50.8,22.66-71.56,6.44-11,12.53-21.49,16.5-33,2.77-8,2-14.14,1.06-21.89A131.2,131.2,0,0,1,79.23,97.2a7.18,7.18,0,0,1,.25-1.57c.71-3.54,2.89-14.31,1.93-22A119.87,119.87,0,0,0,78.23,58.8a131.81,131.81,0,0,1-3.3-15.36l-.24-1.79,1.73-.52c8.78-2.66,17.93-3.5,26-4.23,6.17-.56,11.5-1,15-2.23l2.81-1v3c0,10.81-1.71,22.45-3.36,33.71-2.05,14-4.18,28.5-3.12,41.72,1.76,22.14,12.35,39.36,23.56,57.58,16.52,26.86,33.6,54.63,23.92,100.7l-.33,1.57-1.6.12c-11.57.84-20.73-.58-28.82-1.84-9.8-1.52-18.27-2.84-29.19-.36l-.51.12-.51-.14c-1-.27-4.09-1.1-5-3.62a19.85,19.85,0,0,1-7.25.65c-3.62-.14-5.57-.11-7,2.06Zm35-8.52A112.24,112.24,0,0,1,131.1,266c7.85,1.22,15.95,2.48,26.25,1.91,8.61-43.48-7.82-70.18-23.71-96-11.48-18.67-22.33-36.31-24.17-59.47-1.09-13.7,1.07-28.43,3.15-42.68,1.55-10.59,3-20.65,3.28-30.3a112.56,112.56,0,0,1-13.11,1.66c-7.32.67-15.54,1.41-23.39,3.56.71,4.4,1.84,8.79,2.94,13.06a124.89,124.89,0,0,1,3.28,15.39c1,8.34-1.23,19.63-2,23.34-.07.37-.13.65-.16.81a126.63,126.63,0,0,0,1.14,13.48c1,8,1.83,14.86-1.26,23.8-4.11,11.89-10.59,23-16.85,33.73C54.46,189,42,210.4,44.59,239.52l.18,2-2,.27c-.62.08-1.26.11-1.89.13,2.38,2.5,2.83,6.65,3.22,10.19a33.27,33.27,0,0,0,.85,5.27,3.52,3.52,0,0,1,1.77-.64c2.54-.19,4.18,2.35,5.63,4.59l.28.43c1.43-2.13,3.34-2.34,5.33-2.33a5.2,5.2,0,0,0,4.61-1.8l2.73-2.82.8,3.52a11.62,11.62,0,0,1,1-.89l.94-.75,1.12.42c2.24.84,3.92,1.39,5.15,1.79,4,1.28,4.87,1.86,5.91,4.93,2.48-1.46,5.41-1.35,7.9-1.25,3.46.13,6.45.25,8.88-2.68l3.32,2.66c-1.2,1.55-1.13,2.12-1.13,2.12h0s.24.41,1.68.86A58.84,58.84,0,0,1,113.52,264.24Zm-66.17-3.32Z" transform="translate(-5.79 -4.3)"/><path class="cls-1" d="M352.48,447.39c-18.27-126.26,39.61-208.64,53.2-303-40.92-18.42-84.82-1.63-106.41-16.19-7.89-1.73-2.94,9.4-11.56,6.94,1.73-4.37,6.9-1.61,2.3-6.94-13.46,1.47-21.25,12.39-27.76,20.82,2.13,15,7.44,24.56,11.57,44,2.06,9.71,12.68,16.88,13.88,20.82-1.16-3.82-3.39,11.44-2.31,16.19,1.91,8.51,8.45,14.07,11.57,23.12,8.56,25,9.05,58.08,25.45,78.65,2,32-.58,77.27,2.31,106.41-7.46,8.16-31.6-2.28-39.33,13.88,2.23,10.1,3,21.72,16.19,20.82v2.3h4.63c28.94-6.45,66.65,2.63,83.28-11.56C389.31,442.08,371.84,445.33,352.48,447.39ZM297,162.87c30.77-8.69,51.13-1.72,85.59-4.63-1.88,25.71-17.47,37.19-20.82,55.52-3.36-1,.23-2,0-4.63-10.88,8.6-11.47,44.93-23.13,69.4C326.28,242.15,308.1,206,297,162.87Z" transform="translate(-5.79 -4.3)"/><path class="cls-1" d="M306.44,477.25h-7V475c-11.67-.41-13.77-10.82-15.47-19.29-.22-1.08-.44-2.17-.67-3.24l-.16-.71.32-.66c5.08-10.64,16.51-11,25.69-11.31,5.44-.18,10.61-.34,13.33-2.49-1.48-15.77-1.43-36.26-1.38-56.09,0-16.83.08-34.22-.8-48.69-10.73-13.82-14.67-32.76-18.48-51.09-2-9.86-4-19.17-6.9-27.66a50.12,50.12,0,0,0-5.54-10.55c-2.45-3.87-5-7.88-6.09-12.8-.71-3.14-.11-8.88.09-10.56a28,28,0,0,1,1.43-6.89c-.76-1-1.91-2.26-3-3.49-3.65-4-8.64-9.44-10.05-16.09a222.59,222.59,0,0,0-6.06-22.1c-2.25-7.11-4.37-13.83-5.53-22l-.13-.89,1.44-1.86c6.49-8.45,14.57-19,28.32-20.48l1.11-.12.73.85a20.54,20.54,0,0,1,1.35,1.71c1.08-1.73,3-3.22,6.75-2.39l.4.09.34.23c9.61,6.48,24.35,6.4,41.42,6.3,20-.11,42.57-.24,64.67,9.71l1.46.66-.23,1.58c-4.75,33-14.72,64-25.28,96.87-19.39,60.32-39.44,122.68-28.21,203.53l1.27-.14c12.24-1.35,23.81-2.63,30.5,3.31,3.68,3.26,5.49,8.28,5.55,15.33v1l-.75.64c-10.57,9-28.58,9.16-47.65,9.3-12.39.09-25.2.19-36.54,2.72ZM303.71,473H306c11.72-2.58,24.68-2.67,37.21-2.77,17.78-.13,34.61-.26,44.15-7.66-.19-5.24-1.53-8.9-4.1-11.18-5.28-4.69-15.93-3.51-27.21-2.26l-3.33.36-2,.22-.29-2c-12-82.82,8.38-146.19,28.09-207.47,10.33-32.13,20.09-62.5,24.88-94.58-20.8-8.92-42.36-8.8-61.44-8.69-17.57.1-32.78.18-43.46-6.79-1.68-.3-1.87.23-2.61,2.28-.83,2.27-2.37,6.5-8.7,4.7l-2.26-.64.87-2.18a6.86,6.86,0,0,1,3.52-3.72l-.13-.17c-11.28,1.75-18.18,10.74-24.29,18.69l-.34.44c1.13,7.41,3,13.47,5.25,20.43a226.15,226.15,0,0,1,6.16,22.49c1.17,5.52,5.53,10.28,9,14.1,2.36,2.57,4.22,4.61,4.8,6.54h0l-4.07,1.23a1.89,1.89,0,0,0,3.12.15c-.78,1.43-2.11,11.48-1.32,15,.94,4.2,3.17,7.73,5.54,11.46a53.46,53.46,0,0,1,6,11.44c3,8.75,5.05,18.63,7,28.18,3.76,18.08,7.64,36.77,18.06,49.84l.42.52,0,.67c.94,14.74.89,32.48.85,49.63,0,20.16-.1,41,1.46,56.71l.09.94-.64.7c-3.69,4-10.15,4.25-17,4.47-8.63.28-17.55.57-21.68,8.26.18.85.35,1.71.53,2.57,2.06,10.24,3.81,16.49,13.28,15.84l2.27-.15Zm34.55-188.83-1.68-5c-4.63-13.67-10-27.12-15.71-41.36-9.34-23.35-19-47.49-26-74.45l-.52-2,2-.57c19-5.37,34.39-4.85,50.68-4.3,10.77.36,21.91.74,35.31-.4l2.48-.21-.18,2.48c-1.11,15.22-7,25.77-12.14,35.07-3.78,6.79-7.34,13.21-8.71,20.68l-.43,2.34-2.28-.69a6.48,6.48,0,0,1-1.48-.62c-3.31,6.08-5.57,16.23-7.92,26.82-2.72,12.24-5.8,26.11-11.2,37.45ZM299.55,164.36c6.86,25.89,16.22,49.28,25.28,71.91,5,12.5,9.76,24.4,14,36.4,3.93-9.91,6.47-21.34,8.75-31.61,3.39-15.26,6.31-28.45,12.84-33.6l1-.81a98.66,98.66,0,0,1,7.38-15.26c4.89-8.8,9.94-17.89,11.39-30.84a298.27,298.27,0,0,1-33.29.21C330.88,160.23,317,159.76,299.55,164.36Z" transform="translate(-5.79 -4.3)"/></svg>