<?xml version="1.0" encoding="utf-8"?>
<!-- Generator: Adobe Illustrator 21.0.0, SVG Export Plug-In . SVG Version: 6.00 Build 0)  -->
<svg version="1.1" id="Слой_1" xmlns="http://www.w3.org/2000/svg" xmlns:xlink="http://www.w3.org/1999/xlink" x="0px" y="0px"
	 viewBox="0 0 14 14" style="enable-background:new 0 0 14 14;" xml:space="preserve">
<style type="text/css">
	.st0{fill:#7F7D7C;}
</style>
<title>icon-o</title>
<path class="st0" d="M12.9,1c-1-0.9-5.2-1.1-7.5-1c-1.6,0.1-3.7,0.3-4.3,1c-1.5,1.6-1.4,10.4,0,11.9c0.9,0.9,4.2,1,5.6,1H7
	c2.2,0,5-0.3,5.9-1c0.9-0.7,1.1-3.5,1.1-5.1C14,5.9,13.9,1.8,12.9,1 M13.2,7.9c-0.1,2.7-0.5,4.2-0.8,4.5C12,12.6,9.9,13.1,7,13.1
	c-3.1,0-4.9-0.4-5.3-0.8c-1-1.1-1.3-9.4,0-10.8c0.3-0.2,1.5-0.6,3.7-0.7c3-0.1,6.4,0.2,7,0.8C13,2.2,13.3,4.7,13.2,7.9"/>
<path class="st0" d="M7.2,3c-1,0-2.7,0.4-3.9,3C2.8,7,2.8,8.1,3.3,9c0.7,1.2,1.9,2,3.3,2.1c0.1,0,0.3,0,0.4,0c1.2,0,2.3-0.7,3-1.7
	c1-1.2,1.2-2.8,0.7-4.2C10,3.9,8.7,3,7.2,3 M8.8,8.5c-0.4,0.7-1.2,1-1.9,1C6,9.5,5.2,9,4.7,8.2c-0.3-0.5-0.3-1.1,0-1.6
	c0.6-1.4,1.5-2.1,2.5-2.1l0,0c0.9,0.1,1.7,0.6,2,1.5C9.5,6.9,9.4,7.9,8.8,8.5"/>
</svg>
