<svg id="Режим_изоляции" data-name="Режим изоляции" xmlns="http://www.w3.org/2000/svg" viewBox="0 0 495.96 506.26"><defs><style>.cls-1{fill:#604e42;}</style></defs><title>icon-uneven-circle</title><path class="cls-1" d="M268.42,19.15l3.65-8.5c18,0,23.1,4.85,38.18,10.3,24.93,9,20.45,12,32.33,18.79,12.39,7.12,21.26,12.39,30.35,20.66C384.12,70.55,392,75.21,400,84.26c24.2,27.08,22,25.38,41.56,58.71,7.39,12.63,11.11,17.12,17.64,33.38,12.05,30.08,28.41,95.14,25.68,125.59-3,33.26-33.7,75.54-53.45,99.78-9.17,11.26-12.81,17.63-25.27,25.7-6.92,4.48-53,28.26-55.16,37.33v2.07a2,2,0,0,1,.06.73c-30.82,10.77-8.54,8.9-51.64,16.94-63.35,11.81-145.46,7.45-195.57-32-9-7.11-4.66-1-20.3-14.92-3.63-3.22-5.59-3.72-8.91-6.91l-24.34-28.4c-7.17-8.1-20.27-30.76-25.63-43.1-7-16.08-9.49-40.06-12-58.46-4.83-35.94,9.51-110.53,23.86-144.2l11.77-23.45c9.51-13.7,10.34-22.77,28.23-40.37,53.73-52.82,58-55.79,131.2-74.68a147.56,147.56,0,0,1,30.69-4.64C258.7,12.15,255.36,16.5,268.42,19.15ZM386,455.13c-12.45-.67-16.66,4.1-26.58,7,15.82-16,46-19.39,74.13-51.32,6.61-7.51,8-11.92,21.07-26.45L484.13,335c20.68-44.49,2-110.09-13.1-153.09-8.88-25.27-6.72-20.93-20.9-42.2-16.7-25.08-2.54-16.71-30.74-46.6-6.51-6.89-10.48-15.23-23.12-24.41C383,59,375.73,50.24,361,40.62L322,16.37c-70.28-27-38.23-12.73-71.13-11.54C219.78,6,163.76,16.08,136.13,32.57L91.87,65.73C68.38,86,52.42,109.26,37.49,138,31.91,148.74,16,192.64,13,206.51c-4.8,22-8.82,63.18-8.57,86.76C4.81,330.7,16,361.4,33.58,390.89c13.9,23.32,36.77,49.18,60.21,64.62,7.51,4.93,9.63,7.77,18.36,13.32,32.39,20.64,90.48,32.13,128.22,30.12,29.11-1.55,84.7-4.83,107.32-19.22,7-4.42,12.28-8.56,19.59-12C376.54,463.3,382.94,463.45,386,455.13Z" transform="translate(-0.86 3.55)"/><path class="cls-1" d="M231.5,502.71c-37.22,0-89.8-10.85-121.26-30.9a112.79,112.79,0,0,1-10.5-7.55c-2.34-1.85-4.56-3.6-7.9-5.8-22.46-14.8-45.95-40-61.31-65.76C10.66,359.38,1.24,327.8.87,293.31c-.25-23.9,3.87-65.64,8.65-87.56,3.19-14.62,19.22-58.61,24.82-69.39,16.93-32.59,33.44-54.52,55.21-73.32l.19-.15,44.4-33.28.16-.1C163.55,12.08,221.08,2.36,250.74,1.29c10.07-.36,13.45-2,15.93-3.14,7.18-3.4,9.55-3.17,56.6,14.92l.31.12,39.33,24.42a179.87,179.87,0,0,1,20.57,16.06c4.52,3.93,9.19,8,14.87,12.12,9.09,6.6,13.88,12.77,18.12,18.21,1.84,2.36,3.57,4.6,5.5,6.63,17.55,18.6,19.26,23.09,21.62,29.3,1.46,3.85,3.12,8.2,9.49,17.77l3.29,4.93c9.74,14.55,9.89,14.85,15.92,32.14l2.07,5.92c24.73,70.37,29,121.32,13,155.76l-.17.33L457.45,386.5l-.23.25A182.22,182.22,0,0,0,443,404.43a103.51,103.51,0,0,1-6.81,8.76c-17.31,19.63-35.59,28.89-50.27,36.33l-4,2.05c1.33-.06,2.75,0,4.28,0l4.77.26-1.63,4.49c-2.78,7.67-8.26,9.73-14.06,11.91-2,.76-4.13,1.55-6.44,2.65a103.53,103.53,0,0,0-13.48,8.05c-1.82,1.22-3.7,2.48-5.73,3.77-23.94,15.23-81.41,18.29-109,19.77C237.66,502.64,234.63,502.71,231.5,502.71ZM32.71,382.29q1.88,3.38,3.91,6.78c14.62,24.53,37.82,49.45,59.11,63.47,3.6,2.37,6,4.3,8.4,6.16a106.72,106.72,0,0,0,9.91,7.13c32.48,20.69,90.76,31.46,126.13,29.57,24.91-1.33,83.24-4.44,105.61-18.67,2-1.25,3.8-2.48,5.59-3.68a108.93,108.93,0,0,1,14.38-8.56c2.57-1.22,4.91-2.1,7-2.88a36,36,0,0,0,5.93-2.61,39.09,39.09,0,0,0-9.53,3.22,71.64,71.64,0,0,1-8.75,3.33l-5.72,1.69a4.08,4.08,0,0,1-.22,1.46l-.56,1.62-1.62.56c-11.82,4.13-15.58,6.33-18.32,7.94-4.88,2.85-7.11,4.16-33.83,9.14-61.31,11.44-145.63,8.85-198.41-32.69a30.17,30.17,0,0,0-5.89-3.92c-2.45-1.25-4.76-2.43-14.56-11.14a35.16,35.16,0,0,0-4-3,34.59,34.59,0,0,1-5-4L72,433l-24.34-28.4C43.63,400,38,391.34,32.71,382.29Zm44.54,45.94a28.14,28.14,0,0,0,4,3.09,42.26,42.26,0,0,1,4.72,3.6C95.07,443,97.08,444.06,99,445.05a36.89,36.89,0,0,1,7.06,4.67C157,489.79,239,492.16,298.81,481c25.51-4.76,27.53-5.94,31.55-8.29,2.79-1.63,6.55-3.83,17.13-7.65v-.74l.1-.41c1.75-7.21,18.86-18.06,47.82-34.36,4.17-2.35,7.46-4.2,8.86-5.1,9.67-6.27,13.71-11.4,19.83-19.16,1.41-1.8,2.93-3.72,4.63-5.8,18.43-22.61,49.77-65.4,52.67-97.86,2.67-29.69-13.55-94.27-25.44-124a144,144,0,0,0-12.83-25.27c-1.35-2.22-2.88-4.74-4.58-7.64-2.36-4-4.41-7.56-6.22-10.69-13.1-22.57-13.89-23.92-34.92-47.45-4.66-5.22-9.29-9-14.66-13.3-3.58-2.9-7.65-6.18-12.19-10.31-8.72-7.92-17-12.92-29.74-20.21a48.85,48.85,0,0,1-8.93-6.54c-3.69-3.26-7.17-6.35-22.83-12-4-1.46-7.4-2.88-10.37-4.15-7.63-3.24-13.28-5.63-24.28-5.91l-3.86,9-2.82-.57a42.94,42.94,0,0,1-10.36-3.44c-3.83-1.75-6.6-3-18.63-2.27a144.37,144.37,0,0,0-30,4.53C136.81,40,133.18,42.07,79.1,95.22c-11.58,11.39-15.7,18.95-20.07,27a133.32,133.32,0,0,1-7.6,12.7L39.83,158c-14.3,33.66-28.26,107.31-23.56,142.24.26,2,.53,4,.8,6.11,2.17,16.71,4.87,37.52,10.89,51.41,5.21,12,18,34.26,25,42.16Zm360.46-28.62q-1.76,2.21-3.5,4.34c-1.67,2.05-3.16,3.94-4.55,5.71l-.92,1.16q1.05-1.14,2.11-2.33a98,98,0,0,0,6.37-8.21Zm18.67-25.15c-3.3,4.82-6.69,9.53-10.09,14.05,1.56-1.86,3.34-3.93,5.41-6.23ZM24.28,181.75c-3.62,10.5-6.66,20.18-7.83,25.51-4.69,21.51-8.74,62.48-8.49,86a173.1,173.1,0,0,0,8.76,53c-3.23-12.56-5.09-26.84-6.67-39-.27-2.08-.53-4.12-.8-6.09C5.44,272.82,13.51,219.79,24.28,181.75ZM272.2,7.11c13.93,0,20.69,2.87,29.25,6.5,3,1.28,6.16,2.61,10,4,16.94,6.1,20.91,9.62,25.12,13.35a41.67,41.67,0,0,0,7.77,5.7c12.72,7.31,21.75,12.72,31,21.11,4.4,4,8.2,7.07,11.88,10,5.6,4.53,10.44,8.44,15.49,14.09,21.51,24.07,22.59,25.92,35.76,48.62,1.81,3.12,3.85,6.63,6.21,10.66,1.67,2.84,3.12,5.23,4.52,7.53A149.93,149.93,0,0,1,462.53,175c12.44,31,28.72,96,25.92,127.22-1.12,12.57-6,26.34-12.89,40.14l5.43-9.09c15.1-32.68,10.75-81.83-13.3-150.26l-2.08-5.94c-5.79-16.6-5.79-16.6-15.12-30.53l-3.3-4.94c-6.82-10.23-8.7-15.2-10.22-19.18-2.15-5.65-3.57-9.38-20.15-27-2.16-2.28-4-4.65-5.94-7.15-4.14-5.32-8.41-10.82-16.69-16.83C388.26,67.21,383.47,63,378.83,59a171.48,171.48,0,0,0-19.73-15.44l-38.69-24c-45.49-17.48-46.6-17-50.71-15C266.85,5.91,262.53,8,251,8.37c-30,1.08-85.89,11.12-112.9,27.14L131,40.8C149,30,168.53,24.5,206.93,14.59A150.78,150.78,0,0,1,238.3,9.84c13.8-.84,17.6.89,22,2.9a36.52,36.52,0,0,0,6,2.28l3.4-7.91h2.46Zm-215.06,104a325.73,325.73,0,0,0-16.5,28.48c-1,1.9-2.34,4.94-3.9,8.74L45.48,131a124.43,124.43,0,0,0,7.34-12.26C54.17,116.3,55.54,113.79,57.14,111.15Zm37-42.66a193.85,193.85,0,0,0-30.83,33.76A121.18,121.18,0,0,1,74.14,90.17c13.77-13.53,24.39-23.84,33.73-32Z" transform="translate(-0.86 3.55)"/></svg>