<svg id="Слой_1" data-name="Слой 1" xmlns="http://www.w3.org/2000/svg" viewBox="0 0 422.74 385.98"><defs><style>.cls-1{fill:#817f7e;}</style></defs><title>icon-calendar-2</title><path class="cls-1" d="M305,103.91l-3.26-.35a41.11,41.11,0,0,0-5.6,0c-4.86.16-9.87.34-12.85-3h0c-13.21-15-13.49-49-4.44-66.35,6-11.46,15.11-15.24,27.17-11.25,10.51,3.48,15.56,12.74,15.91,29.13l.15,7.09-4-5.83-1.71-2.49c-7.46-10.95-11.4-16-19.33-10.9-9.48,6.08-12.84,21.42-7.19,32.83a37.09,37.09,0,0,0,4.46,6.48A43.06,43.06,0,0,1,299,86a54,54,0,0,1,3.66,10.32c.42,1.48.84,3,1.31,4.45Zm-18.52-6.26c1.65,1.87,5.65,1.74,9.52,1.6,1,0,2.05-.07,3.08-.07l-.48-1.69a50.12,50.12,0,0,0-3.33-9.5,39.2,39.2,0,0,0-4.3-6.17A40.84,40.84,0,0,1,286,74.58c-6.67-13.46-2.68-31,8.71-38.3,10.16-6.51,16.39-.3,22.32,8-1.87-12.23-7.44-15.76-12.37-17.39-10.06-3.33-17.07-.42-22.06,9.18-9.11,17.47-7.12,49.11,3.86,61.57Z" transform="translate(-5.63 -3.16)"/><path class="cls-1" d="M311.87,132.71l2.56-3.42c.86-1.15,2-2.47,3.28-4,3.39-4,8-9.47,11.16-15.83,3.5-7.14,4.38-13.28,2.6-18.24C329.85,86.71,326,83,320,80.31a37.15,37.15,0,0,0-6.19-2A36,36,0,0,1,306,75.65h0a26.32,26.32,0,0,1-6.72-5.74c-.71-.76-1.38-1.48-2-2l-3.52-3.3,117.12-9.16,4.81,76.71h-2.25l-97.27.57Zm-3.95-60.84a32.29,32.29,0,0,0,6.93,2.34,41,41,0,0,1,6.89,2.22c7.09,3.22,11.71,7.71,13.73,13.34,2.18,6.09,1.24,13.34-2.79,21.55-3.35,6.83-8.2,12.54-11.73,16.71l-.32.37,90.51-.53L406.87,60l-103.53,8.1a19,19,0,0,0,4.58,3.8Z" transform="translate(-5.63 -3.16)"/><path class="cls-1" d="M304.72,121.46a19.54,19.54,0,0,1-2.77-.2l-7.64-1.1,7.13-3c10-4.17,14.1-11.92,12.83-24.39l-.3-2.92,8.22,1.8.07,1.64c0,1.16.19,2.37.35,3.66.37,3,.75,6.2-.21,9C318.06,118.36,310.84,121.46,304.72,121.46Zm13.91-21.77a25.78,25.78,0,0,1-3.55,11.65,28.84,28.84,0,0,0,3.3-6.81A12.12,12.12,0,0,0,318.63,99.69Z" transform="translate(-5.63 -3.16)"/><path class="cls-1" d="M215.53,375.29c-21.1,0-42.3-1.33-62.94-2.62-10.12-.63-20.6-1.29-30.88-1.78-14-.67-28.19-1.48-41.92-2.27-14.4-.83-29.28-1.68-43.92-2.36-8.55-.39-9.83-6.17-11.31-12.86-8.78-39.68-6.56-80.45-4.42-119.88q.34-6.34.68-12.68c.68-13.28.76-26.49.84-40.48,0-6.42.08-13.07.18-19.83l0-2,394.49-17L413.13,358.1l-1.59.39c-1.73.43-3.53,1-5.43,1.52a68.43,68.43,0,0,1-13.76,3.05c-13.47,1.1-27.17,2.3-40.42,3.46-39.38,3.44-80.11,7-120.21,8.48Q223.65,375.3,215.53,375.29ZM26.07,162.59c-.08,6.06-.12,12-.15,17.79-.08,14-.16,27.29-.85,40.67q-.33,6.35-.68,12.69c-2.13,39.14-4.33,79.62,4.32,118.73,1.66,7.53,2.54,9.31,7.35,9.53,14.67.68,29.56,1.54,44,2.37,13.73.79,27.92,1.6,41.88,2.27,10.32.49,20.8,1.15,30.95,1.79,25.82,1.62,52.52,3.3,78.71,2.33,40-1.47,80.66-5,120-8.46,13.25-1.16,27-2.36,40.44-3.46a65.16,65.16,0,0,0,12.9-2.89c1.38-.41,2.71-.8,4-1.16L412,145.93Z" transform="translate(-5.63 -3.16)"/><path class="cls-1" d="M117.89,109.41a18.27,18.27,0,0,1-8.3-2.07c-8.67-4.41-14.49-15-14.82-26.86-.37-13.48,2.14-28.76,7.09-43,6.69-19.3,17.13-20.83,34-16.9,13.38,3.11,16.35,11.21,18,32.44l.44,5.67-4.05-4c-8.25-8.12-13.55-11.51-17.75-11.37-2.75.1-5.39,1.76-8.56,5.38-12.39,14.16-11.25,29,4.2,54.8l1,1.71-1.65,1.13A17,17,0,0,1,117.89,109.41Zm5.39-86.35c-9.1,0-13.52,4.59-17.4,15.8C101.1,52.64,98.66,67.38,99,80.36c.29,10.37,5.19,19.47,12.5,23.19a12.91,12.91,0,0,0,11.93.29c-15.35-26.29-16.05-42.65-2.66-57.94,3.95-4.51,7.64-6.68,11.6-6.83,4.69-.17,9.73,2.4,16.78,8.71-1.85-17.45-5.25-21-14.23-23.07A53,53,0,0,0,123.28,23.06Z" transform="translate(-5.63 -3.16)"/><path class="cls-1" d="M22.48,147.61l1-63.94,1.79-.26,59.59-8.74,2.39-.35,0,2.41c.34,17,8.61,27.64,17.38,38.88a138.39,138.39,0,0,1,10.56,14.87c2.2,3.74,11.21,6.28,15.06,4.24.94-.5,1.9-1,2.88-1.48,8-4.07,16.33-8.27,17.67-20.57,1-9-2.16-15.25-9.58-19.17A138.55,138.55,0,0,1,127.78,85c-2.43-1.67-4.94-3.4-7.8-5.28l-2.89-1.9,3-1.72c2.12-1.21,3.69-2.23,5-3,2.28-1.48,3.66-2.37,5.38-2.48,6.26-.42,12.63-.9,18.79-1.37,34.44-2.6,70-5.29,105.07,1.25,7,1.31,9.08,5.82,11.71,11.54l.27.59c5.81,12.6,12.52,24.53,19,36.08,2.53,4.5,4.92,8.75,7.24,13l1.63,3Zm5.15-60.26-.84,55.8,93.63-4.48c-3.84-1.18-7.33-3.34-8.91-6a135.18,135.18,0,0,0-10.25-14.41c-8.42-10.8-17.1-21.95-18.17-39ZM125.12,78c1.78,1.2,3.44,2.34,5.06,3.45a135.73,135.73,0,0,0,13,8.28c9,4.76,13,12.63,11.82,23.39-1.58,14.59-11.78,19.75-20,23.9l-2,1,154.12-7.37c-1.8-3.26-3.65-6.56-5.58-10C275,109.1,268.28,97.08,262.4,84.33l-.27-.59c-2.7-5.86-4-8.27-8.63-9.14-34.48-6.44-69.81-3.77-104-1.19-6.17.47-12.55.95-18.83,1.37a11.08,11.08,0,0,0-3.35,1.81C126.7,77,126,77.49,125.12,78Z" transform="translate(-5.63 -3.16)"/><path class="cls-1" d="M424.56,351.57c.41-41.58,2.24-83.22,1.51-124.74-1-56.07-3.44-112.08-6.12-168-1-20.21-2.5-20-18.78-17.31-22.23,3.66-44.54,6.45-66.42,9.55a20.18,20.18,0,0,1-1.48-3.49c-4-26-13.76-38.08-32-39.46-19.13-1.44-28.55,7.59-37.2,34-1.32,4-5.93,9-9.17,9.25-24.23,1.86-48.5,2.7-72.75,3.75-5.52.24-11,.09-16.24.12-7.19-38.09-15-51.21-35.39-49.82C103.3,7.25,91.54,31.32,86.27,61.31c-19.84,3-39.2,5.43-58.39,9.31-4.48.91-11.33,6.18-12,10.5-2.18,13.81-2.11,28.1-2.66,42.22C11.75,161.22,10,199.11,9.16,237c-1,40.57-4.6,81.57,5.59,121,2.51,9.7,6.95,19,17.08,19.8,26.76,2.24,53.49,5.08,80.29,6.48,31.72,1.65,63.49,2.88,95.25,2.73,30.28-.14,60.63-1.28,90.89-3.79,37.73-3.13,75.37-8.67,113.09-12C423.16,370.22,424.45,362.85,424.56,351.57ZM408.87,57.68c1.42,22.62,2.88,45.86,4.54,72.31l-97.27.57c3.1-4.15,10.24-11.19,14.64-20.17,7.41-15.09,3.55-25.9-9.91-32-4.48-2-9.55-2.34-13.92-4.61-3.33-1.74-6-5.35-8.23-7.46Zm-92.48,34.9,3.75.82c.15,4,1.42,8.5.26,11.83-3.23,9.26-8.87,15.25-18.13,13.92C312.38,114.94,317.83,106.79,316.39,92.58ZM280.73,35.1c6.22-11.93,15.07-13.37,24.62-10.21,8.94,3,14.1,10.61,14.46,27.16-7.72-11.19-13.09-20.93-23.93-14-10.24,6.57-14.2,22.94-8,35.56,2.45,4.93,6.68,8.5,9.23,13.37,2.25,4.31,3.27,9.59,4.82,14.44-5.82-.63-13.71,1.45-17.09-2.38C272.85,85.41,271.75,52.34,280.73,35.1ZM103.87,38.16c5.91-17,14-19.6,31.55-15.53,11.5,2.67,14.66,8.56,16.37,30.54-14.26-14-21.06-15.4-29.4-5.87-13,14.88-11.93,30.75,4,57.29-12.22,8.4-28.89-3.7-29.46-24.17C96.51,66.44,99.33,51.25,103.87,38.16ZM25.53,85.51l59.59-8.74C85.61,102,103,114,113.34,131.56c2.82,4.8,13.13,7.56,17.89,5,8.72-4.62,20-8.67,21.67-23.7,1.12-10.34-2.84-17.13-10.7-21.28-6.38-3.37-12.31-7.95-21.06-13.71,5.65-3.22,7.51-5.12,9.42-5.25,41.15-2.76,82.33-7.81,123.33-.15,6.12,1.14,7.66,4.91,10.44,10.93,8.09,17.53,17.91,33.83,26.31,49.22l-266,12.71C24.94,125.06,25.23,105.7,25.53,85.51ZM392.17,361c-53.5,4.38-107,10-160.53,11.93-36.6,1.34-73.23-2.38-109.83-4.12-28.63-1.36-57.22-3.3-85.85-4.64-6.48-.3-7.68-3.75-9.33-11.19-9.63-43.56-6-87.74-3.69-132,1-19.54.71-39.13,1-60.39l390.23-16.85c-1.07,71.2-2.11,141.2-3.18,212.73C405.25,357.86,398.75,360.41,392.17,361Z" transform="translate(-5.63 -3.16)"/><path class="cls-1" d="M202.22,389.15c-33.09,0-65.41-1.46-90.2-2.75-19-1-38.17-2.72-56.76-4.4-7.74-.7-15.74-1.42-23.6-2.08-13.73-1.15-17.66-16.38-19-21.39-8.61-33.29-7.42-68.07-6.27-101.72.22-6.51.45-13.25.61-19.85.68-29.15,1.87-58.78,3-87.43q.53-13.14,1-26.28c.12-3,.2-6,.29-9,.32-11,.66-22.45,2.39-33.46.88-5.59,8.91-11.28,13.69-12.25,14.06-2.84,27.87-4.84,42.5-7,4.81-.7,9.64-1.4,14.49-2.13C91.11,23.3,106.13,4.92,130.34,3.26c22.9-1.58,30.68,15.53,37.3,49.81h3.2c3.66,0,7.44,0,11.19-.13l12.84-.54c19.63-.82,39.92-1.67,59.84-3.2,2-.16,6.14-4.21,7.31-7.79,9.06-27.69,19.37-37,39.38-35.45,19.35,1.47,29.83,14.19,34,41.26a6.21,6.21,0,0,0,.48,1.14l.17.35q9-1.27,18.1-2.5c15.3-2.09,31.13-4.26,46.71-6.82,8.66-1.43,13.44-2.22,16.74.45s4,7.69,4.51,18.85c3,62.62,5.19,115.16,6.12,168.09.47,26.71-.13,53.91-.71,80.21-.32,14.62-.66,29.73-.8,44.59h0c-.11,11.2-1.32,20.57-15.14,21.78-18.15,1.59-36.59,3.73-54.43,5.8-19.21,2.23-39.08,4.54-58.66,6.16-28.68,2.38-59.32,3.66-91.05,3.8ZM133.35,7.41c-.88,0-1.78,0-2.72.1C108.32,9,94.49,26.75,88.36,61.68l-.26,1.5-1.51.23c-5.37.82-10.72,1.59-16,2.36C56,67.89,42.24,69.88,28.3,72.7c-3.73.76-9.82,5.49-10.33,8.75-1.69,10.73-2,22-2.34,32.92-.09,3-.18,6-.29,9q-.51,13.14-1,26.29c-1.14,28.63-2.33,58.24-3,87.36-.16,6.63-.39,13.37-.61,19.9-1.14,33.34-2.32,67.82,6.14,100.51,3.05,11.82,7.88,17.6,15.2,18.21,7.88.66,15.89,1.38,23.63,2.08,18.54,1.68,37.72,3.41,56.59,4.39,26,1.36,60.36,2.89,95.13,2.73,31.63-.14,62.15-1.42,90.72-3.79,19.51-1.62,39.35-3.92,58.52-6.15,17.87-2.08,36.35-4.22,54.55-5.81,9.56-.84,11.15-5.87,11.26-17.58h0c.15-14.88.48-30,.8-44.64.58-26.26,1.18-53.41.71-80-.93-52.88-3.12-105.39-6.12-168-.44-9.23-1-14.2-2.94-15.75s-6.42-.71-13.38.43c-15.63,2.57-31.49,4.74-46.82,6.84q-9.87,1.35-19.65,2.72l-1.61.23-.64-1.49c-.3-.7-.56-1.23-.77-1.67a8.07,8.07,0,0,1-.86-2.35c-3.85-25.09-12.85-36.35-30.09-37.66-17.8-1.35-26.62,6.87-35,32.53-1.53,4.67-6.68,10.37-11,10.71-20,1.54-40.33,2.39-60,3.21l-12.84.54c-3.85.17-7.68.15-11.39.13-1.67,0-3.31,0-4.93,0h-1.77l-.33-1.74C156.88,19,149.82,7.41,133.35,7.41Zm82.18,367.88c-21.11,0-42.3-1.33-62.94-2.62-10.12-.63-20.59-1.29-30.88-1.78-14-.67-28.19-1.48-41.93-2.27-14.4-.83-29.28-1.68-43.92-2.36-8.55-.4-9.83-6.17-11.31-12.86-8.78-39.68-6.56-80.45-4.42-119.88q.34-6.34.68-12.68c.68-13.28.76-26.5.84-40.5,0-6.42.08-13.06.18-19.82l0-2,394.49-17L413.13,358.1l-1.59.39c-1.73.43-3.53,1-5.43,1.52a68.42,68.42,0,0,1-13.76,3.05h0c-13.39,1.09-27,2.29-40.17,3.44-39.46,3.45-80.27,7-120.45,8.5Q223.65,375.3,215.53,375.29ZM26.07,162.59c-.08,6-.12,12-.15,17.77-.08,14-.16,27.31-.85,40.69q-.33,6.35-.68,12.69c-2.13,39.14-4.33,79.62,4.32,118.73,1.67,7.52,2.54,9.3,7.35,9.53,14.66.68,29.56,1.54,44,2.37,13.73.79,27.92,1.6,41.88,2.27,10.32.49,20.8,1.15,30.95,1.79,25.82,1.62,52.52,3.3,78.71,2.33,40.07-1.47,80.82-5,120.23-8.48,13.17-1.15,26.8-2.34,40.2-3.44h0a65.09,65.09,0,0,0,12.9-2.89c1.38-.41,2.71-.8,4-1.16L412,145.93Zm-3.6-15,0-2.26c.31-20.31.6-39.68.9-59.87l0-1.81,63.76-9.35,0,2.41c.34,17,8.61,27.64,17.38,38.88a138.38,138.38,0,0,1,10.56,14.87c2.2,3.74,11.2,6.28,15.06,4.24.94-.5,1.9-1,2.88-1.48,8-4.07,16.34-8.28,17.67-20.57,1-9-2.16-15.26-9.58-19.17A137.08,137.08,0,0,1,127.81,85c-2.44-1.68-5-3.41-7.85-5.31l-2.89-1.91,3-1.72c2.13-1.21,3.7-2.23,5-3.05,2.27-1.47,3.65-2.36,5.37-2.48,6.27-.42,12.65-.9,18.83-1.37,34.43-2.6,70-5.29,105,1.25,7,1.31,9.08,5.82,11.71,11.54l.27.59c5.82,12.61,12.53,24.56,19,36.1,2.52,4.49,4.9,8.73,7.23,13l1.62,3Zm5.16-60.26c-.28,18.79-.55,36.91-.84,55.8l93.64-4.48c-3.84-1.18-7.33-3.34-8.91-6a135.21,135.21,0,0,0-10.25-14.41c-8.42-10.8-17.1-21.95-18.18-39ZM125.12,78c1.79,1.21,3.47,2.36,5.1,3.48a134,134,0,0,0,13,8.25c9,4.76,13,12.63,11.82,23.39-1.58,14.58-11.78,19.75-20,23.9l-2,1,154.12-7.37c-1.8-3.25-3.64-6.54-5.57-10C275,109.11,268.28,97.1,262.39,84.33l-.27-.59c-2.7-5.86-4-8.27-8.63-9.14-34.47-6.44-69.78-3.77-103.94-1.19-6.18.47-12.57.95-18.86,1.37a11.06,11.06,0,0,0-3.34,1.8C126.71,77,126,77.48,125.12,78Zm186.75,54.7,2.56-3.42c.86-1.16,2-2.48,3.28-4,3.39-4,8-9.47,11.16-15.83,3.5-7.14,4.38-13.28,2.6-18.24C329.86,86.71,326,83,320,80.31a37.25,37.25,0,0,0-6.19-2A35.91,35.91,0,0,1,306,75.65a26.36,26.36,0,0,1-6.74-5.77c-.7-.75-1.36-1.47-2-2l-3.5-3.29,117.1-9.16,4.82,76.71h-2.25l-97.27.57Zm-8.52-64.64a18.93,18.93,0,0,0,4.58,3.81,32.23,32.23,0,0,0,6.93,2.34,41.07,41.07,0,0,1,6.89,2.22c7.09,3.22,11.71,7.71,13.73,13.35,2.18,6.09,1.24,13.34-2.79,21.55-3.35,6.83-8.2,12.54-11.73,16.7l-.32.37,90.5-.53L406.88,60Zm1.37,53.39a19.52,19.52,0,0,1-2.77-.2l-7.64-1.1,7.13-3c10-4.17,14.1-11.92,12.83-24.39l-.3-2.92,8.22,1.8.06,1.64c0,1.16.19,2.39.35,3.68.37,3,.75,6.19-.21,8.93C318.06,118.36,310.84,121.46,304.72,121.46ZM318.63,99.7a25.78,25.78,0,0,1-3.54,11.63,28.89,28.89,0,0,0,3.29-6.8A12.12,12.12,0,0,0,318.63,99.7Zm-200.74,9.7a18.26,18.26,0,0,1-8.29-2.06c-8.67-4.41-14.49-15-14.82-26.86-.37-13.48,2.14-28.75,7.09-43h0c6.69-19.3,17.13-20.83,34-16.9,13.38,3.11,16.35,11.21,18,32.44l.44,5.67-4.05-4c-8.25-8.12-13.58-11.54-17.74-11.37-2.75.1-5.39,1.76-8.57,5.38-12.39,14.16-11.25,29,4.2,54.79l1,1.71-1.65,1.13A17,17,0,0,1,117.89,109.4Zm-12-70.55C101.1,52.64,98.66,67.38,99,80.36c.29,10.37,5.19,19.48,12.5,23.19a12.9,12.9,0,0,0,11.92.29c-15.35-26.29-16.05-42.64-2.66-57.94,4-4.51,7.64-6.68,11.61-6.83,4.7-.17,9.73,2.4,16.77,8.71-1.85-17.45-5.25-21-14.23-23.07-17.54-4.07-23.79-1-29.06,14.15ZM305,103.91l-3.25-.35a41.27,41.27,0,0,0-5.59,0c-4.86.17-9.88.34-12.86-3-13.21-15-13.48-49-4.44-66.35h0c6-11.46,15.11-15.24,27.17-11.25,10.51,3.48,15.56,12.74,15.91,29.13l.15,7.09-4-5.84-1.69-2.48c-7.46-11-11.4-16-19.34-10.92-9.48,6.08-12.84,21.42-7.19,32.83a37.21,37.21,0,0,0,4.46,6.49A43.08,43.08,0,0,1,299,86a53.43,53.43,0,0,1,3.66,10.31c.41,1.48.84,3,1.31,4.45Zm-7.67-78.32c-6.27,0-11,3.44-14.71,10.5h0c-9.1,17.47-7.12,49.11,3.86,61.57,1.65,1.87,5.66,1.74,9.53,1.61,1,0,2-.07,3.07-.07l-.48-1.7A49.55,49.55,0,0,0,295.27,88a39.29,39.29,0,0,0-4.3-6.16A41,41,0,0,1,286,74.58c-6.67-13.46-2.68-31,8.71-38.3,10.16-6.52,16.39-.31,22.32,8-1.87-12.22-7.44-15.75-12.37-17.38A23.51,23.51,0,0,0,297.33,25.59Z" transform="translate(-5.63 -3.16)"/><path class="cls-1" d="M85.13,222.23a33.61,33.61,0,0,1,1.66-7.6c.59-1.15,1.24-1.91,1.82-2.91l2.06-2.67a24.91,24.91,0,0,0,2.77-3l1.76-1.79a7.86,7.86,0,0,1,2.65-2.09,7.51,7.51,0,0,1,3.31-1.43,12.39,12.39,0,0,1,4,.33,16.74,16.74,0,0,0,1.89.47,17.11,17.11,0,0,0,1.75.63,7.52,7.52,0,0,1,3.22,1.5c1,.78,1.83,1.2,2.72,2,1.73,1.56,5.62,5.48,6.44,7.6.4,1,.91,2.51,1.19,3.56a13.64,13.64,0,0,1,.07,8.06c-.55,1.75-.65,1.35-1.42,3.32a9.89,9.89,0,0,1-1.75,3c-3.21,3.75-7.31,6.42-12.36,6.49-1.55,0-2.72,0-4.29,0A8.24,8.24,0,0,1,98.5,237l-1.73-.64c-.88-.4-3.06-.72-3.63-1.11a9.52,9.52,0,0,0-1.34-1c-2.93-1.91-2.93-2.26-4.46-4.86A18.69,18.69,0,0,1,85.13,222.23Zm40.35-4.58a17.51,17.51,0,0,0-1-4.24l-1.9-3.56a30.67,30.67,0,0,0-3.54-4.59,33.57,33.57,0,0,0-8.06-5.4,18,18,0,0,0-2-.74c-1.89-.43-5.15-1.2-6.91-.56l-2.32.49a16.45,16.45,0,0,0-7.12,3.69A28.88,28.88,0,0,0,88,207.51,13.65,13.65,0,0,0,86.43,210a29.88,29.88,0,0,0-2.57,5.56l-.68,2a15.08,15.08,0,0,0-.73,4.57,31.06,31.06,0,0,0,1.1,5.8,23.93,23.93,0,0,0,4.84,7.28A19.49,19.49,0,0,0,93,238.69a25.13,25.13,0,0,0,3.92,1.42,20.21,20.21,0,0,0,4.71.7c1.79,0,3,.42,4.87.19a16.45,16.45,0,0,0,4.14-1.34l3.69-1.66a13.83,13.83,0,0,0,3.43-2c.48-.46.86-.87,1.3-1.36.28-.31.43-.39.66-.68,1.35-1.74.52-.66,1.41-1.41l1.06-1.6a24.16,24.16,0,0,0,2.44-4.21c1.93-4.05,1-3.89,1-6.73A9.51,9.51,0,0,0,125.48,217.64Z" transform="translate(-5.63 -3.16)"/><path class="cls-1" d="M105.4,244.62a19.66,19.66,0,0,1-2.18-.15,14.68,14.68,0,0,0-1.59-.11,16.17,16.17,0,0,1-4-.49c-.37-.08-.78-.18-1.29-.27a26.6,26.6,0,0,1-4.71-1.66,22.67,22.67,0,0,1-5.76-4.32,27.42,27.42,0,0,1-5.53-8.31,30.15,30.15,0,0,1-1.39-7.4,18.28,18.28,0,0,1,.93-5.56l.67-2a33.71,33.71,0,0,1,2.93-6.3l.09-.17a13.08,13.08,0,0,1,1.75-2.71l.94-1.11a27.63,27.63,0,0,1,4.07-4,20,20,0,0,1,8.61-4.47l.12,0,2.12-.45c2.45-.77,5.54-.18,8.5.5l.13,0a12.65,12.65,0,0,1,2,.68l.5.2a36.46,36.46,0,0,1,9.42,6.31,33.31,33.31,0,0,1,3.77,4.85l.31.49,2.1,4a22.87,22.87,0,0,1,1.2,5.15,11.92,11.92,0,0,1,.2,2.74,9.28,9.28,0,0,0,.08,1.4c.24,2.1.09,3.51-1.48,6.8a27.14,27.14,0,0,1-2.76,4.75l-1.26,1.91-.39.33c-.17.14-.34.28-.53.41l-.36.46a6.09,6.09,0,0,1-.74.79l-.08.07c-.49.55-.93,1-1.49,1.56a17.19,17.19,0,0,1-4.59,2.76L111.94,243l-.68.28a16.19,16.19,0,0,1-4.33,1.28A12.57,12.57,0,0,1,105.4,244.62Zm-2.55-10.5h1.49c.83,0,1.63,0,2.57,0,3.5,0,6.76-1.81,9.71-5.25a6.38,6.38,0,0,0,1.14-2,17.79,17.79,0,0,1,.9-2,5.23,5.23,0,0,0,.44-1.09,10.11,10.11,0,0,0-.12-6.08c-.25-.93-.73-2.3-1.07-3.18s-3.12-4.1-5.51-6.25a11.38,11.38,0,0,0-1.26-.94c-.38-.26-.78-.53-1.22-.86a4,4,0,0,0-1.81-.87,8.42,8.42,0,0,1-1.75-.58,2.63,2.63,0,0,0-.3-.12,3.62,3.62,0,0,0-.43-.09,8.19,8.19,0,0,1-1.67-.45,11.5,11.5,0,0,0-2.34-.15,4.28,4.28,0,0,0-1.81.87c-.53.35-.86.54-1.12.69l-.15.09s-.17.16-.74.77l-1.65,1.69a21.15,21.15,0,0,1-2.23,2.47l-.57.56-1.8,2.33c-.24.4-.49.77-.74,1.14a13.74,13.74,0,0,0-.83,1.33,40.1,40.1,0,0,0-1.3,5.83,15,15,0,0,0,1.73,5.6l.43.74c1,1.69,1,1.69,2.9,2.94a11.57,11.57,0,0,1,1.29.94l.82.21a15.55,15.55,0,0,1,2.24.67l1.64.61a5.1,5.1,0,0,0,2.62.4h.5ZM129,217.77h0Zm-25.17-13.42,0,0Z" transform="translate(-5.63 -3.16)"/><path class="cls-1" d="M182.41,219.36a35.16,35.16,0,0,1,1.74-7.95c.62-1.21,1.29-2,1.9-3l2.16-2.79a26.05,26.05,0,0,0,2.9-3.14l1.84-1.87a8.22,8.22,0,0,1,2.77-2.19,7.85,7.85,0,0,1,3.47-1.5,13,13,0,0,1,4.22.35,17.51,17.51,0,0,0,2,.49,17.9,17.9,0,0,0,1.83.66,7.87,7.87,0,0,1,3.37,1.57c1.09.82,1.91,1.26,2.85,2.1,1.81,1.63,5.88,5.73,6.74,8,.42,1.07,1,2.62,1.24,3.72a14.27,14.27,0,0,1,.08,8.43c-.58,1.83-.68,1.41-1.48,3.47a10.35,10.35,0,0,1-1.83,3.11c-3.36,3.92-7.65,6.72-12.93,6.78-1.63,0-2.84,0-4.48,0a8.61,8.61,0,0,1-4.36-.65l-1.81-.67c-.92-.41-3.2-.76-3.79-1.16a10,10,0,0,0-1.4-1.08c-3.07-2-3.07-2.37-4.66-5.08A19.55,19.55,0,0,1,182.41,219.36Zm42.21-4.8a18.32,18.32,0,0,0-1-4.44l-2-3.73a32.08,32.08,0,0,0-3.7-4.81,35.12,35.12,0,0,0-8.43-5.65,18.8,18.8,0,0,0-2.11-.78c-2-.45-5.39-1.26-7.22-.58l-2.42.51a17.21,17.21,0,0,0-7.45,3.86,30.21,30.21,0,0,0-4.88,5,14.28,14.28,0,0,0-1.6,2.58,31.26,31.26,0,0,0-2.69,5.81l-.71,2.08a15.78,15.78,0,0,0-.77,4.78,32.49,32.49,0,0,0,1.15,6.07,25,25,0,0,0,5.07,7.62,20.39,20.39,0,0,0,4.83,3.68,26.29,26.29,0,0,0,4.1,1.49,21.15,21.15,0,0,0,4.92.73c1.87,0,3.17.44,5.1.2a17.21,17.21,0,0,0,4.33-1.4l3.86-1.74a14.46,14.46,0,0,0,3.59-2.11c.5-.48.89-.91,1.36-1.43.29-.33.45-.41.69-.71,1.41-1.82.54-.69,1.47-1.47l1.11-1.67a25.27,25.27,0,0,0,2.56-4.4c2-4.24,1-4.07,1.1-7A10,10,0,0,0,224.62,214.56Z" transform="translate(-5.63 -3.16)"/><path class="cls-1" d="M203.62,242.62a20.37,20.37,0,0,1-2.26-.15,15.57,15.57,0,0,0-1.68-.12,16.53,16.53,0,0,1-4.19-.5c-.39-.09-.82-.19-1.36-.28a27.7,27.7,0,0,1-4.9-1.73,23.56,23.56,0,0,1-6-4.48,28.54,28.54,0,0,1-5.75-8.64,31.29,31.29,0,0,1-1.44-7.67,19,19,0,0,1,1-5.77l.71-2.05a35.09,35.09,0,0,1,3-6.56l.09-.18a13.54,13.54,0,0,1,1.81-2.81l1-1.16a28.8,28.8,0,0,1,4.25-4.21,20.76,20.76,0,0,1,8.94-4.64l.12,0,2.22-.47c2.52-.79,5.73-.18,8.82.52l.13,0a13,13,0,0,1,2,.7l.53.21a37.89,37.89,0,0,1,9.79,6.55,34.74,34.74,0,0,1,3.93,5.06l.31.49,2.18,4.17a23.71,23.71,0,0,1,1.25,5.36,12.29,12.29,0,0,1,.21,2.84,9.89,9.89,0,0,0,.09,1.48c.25,2.17.09,3.62-1.53,7a28.22,28.22,0,0,1-2.88,4.95l-1.31,2-.39.33c-.18.15-.36.3-.57.44l-.39.5a6.24,6.24,0,0,1-.75.8l-.1.09c-.5.57-1,1.06-1.54,1.62a17.73,17.73,0,0,1-4.75,2.86l-3.85,1.73-.71.29a16.83,16.83,0,0,1-4.49,1.33A13,13,0,0,1,203.62,242.62ZM200.94,232h1.57c.87,0,1.7,0,2.69,0,3.71,0,7.17-1.91,10.28-5.55a6.82,6.82,0,0,0,1.22-2.09,18.35,18.35,0,0,1,.94-2.08,5.56,5.56,0,0,0,.47-1.17,10.72,10.72,0,0,0-.12-6.45c-.26-1-.76-2.42-1.12-3.34s-3.29-4.34-5.8-6.6a12,12,0,0,0-1.34-1c-.39-.27-.81-.55-1.27-.89a4.38,4.38,0,0,0-2-.94,8.67,8.67,0,0,1-1.8-.6,2.9,2.9,0,0,0-.33-.14,4,4,0,0,0-.47-.1,8.43,8.43,0,0,1-1.73-.47,12.35,12.35,0,0,0-2.52-.16,4.59,4.59,0,0,0-2,.94c-.55.36-.89.56-1.17.72l-.16.09s-.19.18-.81.84l-1.73,1.77a21.81,21.81,0,0,1-2.32,2.57l-.6.6-1.9,2.46c-.25.42-.51.81-.78,1.19a14.45,14.45,0,0,0-.88,1.41,41.21,41.21,0,0,0-1.38,6.17,15.89,15.89,0,0,0,1.84,5.94l.45.77c1,1.8,1,1.8,3.09,3.13a11.64,11.64,0,0,1,1.35,1l.9.23a15.89,15.89,0,0,1,2.32.69l1.72.64a5.41,5.41,0,0,0,2.79.43h.52Zm-15-13v0Zm42.23-4.25h0Zm-26.11-14.2h0Z" transform="translate(-5.63 -3.16)"/><path class="cls-1" d="M285.41,215.36a35.16,35.16,0,0,1,1.74-7.95c.62-1.21,1.29-2,1.9-3l2.16-2.79a26.05,26.05,0,0,0,2.9-3.14l1.84-1.87a8.22,8.22,0,0,1,2.77-2.19,7.85,7.85,0,0,1,3.47-1.5,13,13,0,0,1,4.22.35,17.51,17.51,0,0,0,2,.49,17.9,17.9,0,0,0,1.83.66,7.87,7.87,0,0,1,3.37,1.57c1.09.82,1.91,1.26,2.85,2.1,1.81,1.63,5.88,5.73,6.74,8,.42,1.07,1,2.62,1.24,3.72a14.27,14.27,0,0,1,.08,8.43c-.58,1.83-.68,1.41-1.48,3.47a10.35,10.35,0,0,1-1.83,3.11c-3.36,3.92-7.65,6.72-12.93,6.78-1.63,0-2.84,0-4.48,0a8.61,8.61,0,0,1-4.36-.65l-1.81-.67c-.92-.41-3.2-.76-3.79-1.16a10,10,0,0,0-1.4-1.08c-3.07-2-3.07-2.37-4.66-5.08A19.55,19.55,0,0,1,285.41,215.36Zm42.21-4.8a18.32,18.32,0,0,0-1-4.44l-2-3.73a32.08,32.08,0,0,0-3.7-4.81,35.12,35.12,0,0,0-8.43-5.65,18.8,18.8,0,0,0-2.11-.78c-2-.45-5.39-1.26-7.22-.58l-2.42.51a17.21,17.21,0,0,0-7.45,3.86,30.21,30.21,0,0,0-4.88,5,14.28,14.28,0,0,0-1.6,2.58,31.26,31.26,0,0,0-2.69,5.81l-.71,2.08a15.78,15.78,0,0,0-.77,4.78,32.49,32.49,0,0,0,1.15,6.07,25,25,0,0,0,5.07,7.62,20.39,20.39,0,0,0,4.83,3.68,26.29,26.29,0,0,0,4.1,1.49,21.15,21.15,0,0,0,4.92.73c1.87,0,3.17.44,5.1.2a17.21,17.21,0,0,0,4.33-1.4l3.86-1.74a14.46,14.46,0,0,0,3.59-2.11c.5-.48.89-.91,1.36-1.43.29-.33.45-.41.69-.71,1.41-1.82.54-.69,1.47-1.47l1.11-1.67a25.27,25.27,0,0,0,2.56-4.4c2-4.24,1-4.07,1.1-7A10,10,0,0,0,327.62,210.56Z" transform="translate(-5.63 -3.16)"/><path class="cls-1" d="M306.62,238.62a20.5,20.5,0,0,1-2.27-.15,15.45,15.45,0,0,0-1.68-.12,16.52,16.52,0,0,1-4.19-.5c-.39-.09-.82-.19-1.36-.28a27.62,27.62,0,0,1-4.9-1.73,23.5,23.5,0,0,1-6-4.48,28.53,28.53,0,0,1-5.75-8.64,31.21,31.21,0,0,1-1.44-7.67,18.93,18.93,0,0,1,1-5.77l.71-2.06a35,35,0,0,1,3-6.56l.09-.18a13.52,13.52,0,0,1,1.81-2.8l1-1.16a28.77,28.77,0,0,1,4.24-4.21,20.74,20.74,0,0,1,8.94-4.64l.12,0,2.22-.47c2.53-.8,5.74-.18,8.82.53l.12,0a13,13,0,0,1,2,.7l.53.21a37.91,37.91,0,0,1,9.79,6.55,34.76,34.76,0,0,1,3.93,5.07l.3.48,2.18,4.17a23.71,23.71,0,0,1,1.25,5.35,12.25,12.25,0,0,1,.21,2.85,9.75,9.75,0,0,0,.09,1.48c.25,2.17.09,3.62-1.53,7a28.3,28.3,0,0,1-2.88,4.95l-1.31,2-.39.33a7.13,7.13,0,0,1-.57.44l-.39.5a6.24,6.24,0,0,1-.75.8l-.09.09c-.51.57-1,1.06-1.55,1.62a17.72,17.72,0,0,1-4.75,2.86l-3.85,1.73-.71.29a16.81,16.81,0,0,1-4.49,1.33A13,13,0,0,1,306.62,238.62ZM304,228h1.54c.87,0,1.69,0,2.67,0,3.71,0,7.17-1.91,10.29-5.55a6.85,6.85,0,0,0,1.22-2.09,18.31,18.31,0,0,1,.94-2.08,5.65,5.65,0,0,0,.47-1.17,10.72,10.72,0,0,0-.12-6.45c-.26-1-.76-2.42-1.12-3.34s-3.29-4.34-5.81-6.6a11.85,11.85,0,0,0-1.34-1c-.39-.27-.81-.55-1.26-.89a4.37,4.37,0,0,0-2-.94,8.68,8.68,0,0,1-1.8-.6,2.76,2.76,0,0,0-.33-.14,3.89,3.89,0,0,0-.47-.1,8.46,8.46,0,0,1-1.73-.47,12.26,12.26,0,0,0-2.52-.16,4.59,4.59,0,0,0-2,.94c-.55.36-.9.56-1.17.72l-.17.09s-.19.18-.81.84l-1.73,1.77a22,22,0,0,1-2.32,2.58l-.6.59-1.9,2.46c-.25.42-.51.8-.77,1.19a14.28,14.28,0,0,0-.88,1.41,41.11,41.11,0,0,0-1.38,6.17,15.86,15.86,0,0,0,1.84,5.94l.45.77c1,1.8,1,1.8,3.09,3.13a11.63,11.63,0,0,1,1.35,1l.9.23a15.93,15.93,0,0,1,2.32.69l1.72.64a5.42,5.42,0,0,0,2.79.43H304Zm-8.58-2.08ZM288.93,215h0v0Zm16.12-18.45h0Z" transform="translate(-5.63 -3.16)"/><path class="cls-1" d="M85.25,293.26A35.16,35.16,0,0,1,87,285.32c.62-1.21,1.29-2,1.9-3l2.16-2.79a26.05,26.05,0,0,0,2.9-3.14l1.84-1.87a8.22,8.22,0,0,1,2.77-2.19,7.85,7.85,0,0,1,3.47-1.5,13,13,0,0,1,4.22.35,17.51,17.51,0,0,0,2,.49,17.9,17.9,0,0,0,1.83.66,7.87,7.87,0,0,1,3.37,1.57c1.09.82,1.91,1.26,2.85,2.1,1.81,1.63,5.88,5.73,6.74,8,.42,1.07,1,2.62,1.24,3.72a14.27,14.27,0,0,1,.08,8.43c-.58,1.83-.68,1.41-1.48,3.47a10.35,10.35,0,0,1-1.83,3.11c-3.36,3.92-7.65,6.72-12.93,6.78-1.63,0-2.84,0-4.48,0a8.61,8.61,0,0,1-4.36-.65l-1.81-.67c-.92-.41-3.2-.76-3.79-1.16a10,10,0,0,0-1.4-1.08c-3.07-2-3.07-2.37-4.66-5.08A19.55,19.55,0,0,1,85.25,293.26Zm42.21-4.8a18.32,18.32,0,0,0-1-4.44l-2-3.73a32.08,32.08,0,0,0-3.7-4.81,35.12,35.12,0,0,0-8.43-5.65,18.8,18.8,0,0,0-2.11-.78c-2-.45-5.39-1.26-7.22-.58l-2.42.51a17.21,17.21,0,0,0-7.45,3.86,30.21,30.21,0,0,0-4.88,5,14.28,14.28,0,0,0-1.6,2.58,31.26,31.26,0,0,0-2.69,5.81l-.71,2.08a15.78,15.78,0,0,0-.77,4.78,32.49,32.49,0,0,0,1.15,6.07,25,25,0,0,0,5.07,7.62,20.39,20.39,0,0,0,4.83,3.68,26.29,26.29,0,0,0,4.1,1.49,21.15,21.15,0,0,0,4.92.73c1.87,0,3.17.44,5.1.2a17.21,17.21,0,0,0,4.33-1.4l3.86-1.74a14.46,14.46,0,0,0,3.59-2.11c.5-.48.89-.91,1.36-1.43.29-.33.45-.41.69-.71,1.41-1.82.54-.69,1.47-1.47l1.11-1.67a25.27,25.27,0,0,0,2.56-4.4c2-4.24,1-4.07,1.1-7A10,10,0,0,0,127.46,288.47Z" transform="translate(-5.63 -3.16)"/><path class="cls-1" d="M106.45,316.52a20.62,20.62,0,0,1-2.26-.15,15.58,15.58,0,0,0-1.68-.12,16.51,16.51,0,0,1-4.19-.5c-.39-.09-.82-.19-1.36-.28a27.75,27.75,0,0,1-4.89-1.73,23.56,23.56,0,0,1-6-4.48,28.55,28.55,0,0,1-5.75-8.64,31.2,31.2,0,0,1-1.44-7.67,19,19,0,0,1,1-5.77l.71-2.06a35.06,35.06,0,0,1,3-6.56l.09-.18a13.57,13.57,0,0,1,1.81-2.81l1-1.15a28.91,28.91,0,0,1,4.25-4.21,20.76,20.76,0,0,1,8.94-4.64l.12,0,2.22-.47c2.52-.8,5.73-.18,8.82.52l.13,0a13,13,0,0,1,2,.7l.53.21a37.9,37.9,0,0,1,9.79,6.55,34.7,34.7,0,0,1,3.93,5.07l.3.48,2.18,4.17a23.66,23.66,0,0,1,1.25,5.36,12.29,12.29,0,0,1,.21,2.85,9.89,9.89,0,0,0,.09,1.48c.25,2.17.09,3.62-1.53,7a28.25,28.25,0,0,1-2.88,4.95l-1.31,2-.39.33a7.08,7.08,0,0,1-.57.44l-.39.5a6.26,6.26,0,0,1-.75.8l-.09.09c-.51.57-1,1.07-1.54,1.62a17.7,17.7,0,0,1-4.75,2.86l-3.85,1.73-.71.29a16.8,16.8,0,0,1-4.49,1.33A13,13,0,0,1,106.45,316.52Zm-2.67-10.65h1.58c.87,0,1.69,0,2.68,0,3.71,0,7.17-1.91,10.28-5.55a6.84,6.84,0,0,0,1.22-2.09,18.38,18.38,0,0,1,.93-2.08,5.61,5.61,0,0,0,.47-1.17,10.73,10.73,0,0,0-.12-6.45c-.26-1-.76-2.42-1.12-3.34s-3.29-4.34-5.81-6.6a12,12,0,0,0-1.34-1c-.4-.27-.81-.55-1.27-.9a4.38,4.38,0,0,0-2-.93,8.67,8.67,0,0,1-1.8-.6,2.67,2.67,0,0,0-.33-.14,3.91,3.91,0,0,0-.47-.1,8.45,8.45,0,0,1-1.73-.46,12.65,12.65,0,0,0-2.51-.16,4.61,4.61,0,0,0-2,.94c-.54.36-.89.56-1.16.72l-.16.09s-.19.18-.81.84l-1.73,1.77a22,22,0,0,1-2.32,2.57l-.6.6-1.9,2.46c-.25.42-.51.8-.78,1.19a14.27,14.27,0,0,0-.88,1.41A41.17,41.17,0,0,0,88.79,293,15.89,15.89,0,0,0,90.63,299l.45.77c1,1.8,1,1.8,3.09,3.13a11.57,11.57,0,0,1,1.35,1l.9.23a16,16,0,0,1,2.32.69l1.72.64a5.47,5.47,0,0,0,2.79.43h.52Zm-15-13v0ZM131,288.61h0Zm-26.1-14.19,0,0Z" transform="translate(-5.63 -3.16)"/><path class="cls-1" d="M182.41,294.26a35.16,35.16,0,0,1,1.74-7.95c.62-1.21,1.29-2,1.9-3l2.16-2.79a26.05,26.05,0,0,0,2.9-3.14l1.84-1.87a8.22,8.22,0,0,1,2.77-2.19,7.85,7.85,0,0,1,3.47-1.5,13,13,0,0,1,4.22.35,17.51,17.51,0,0,0,2,.49,17.9,17.9,0,0,0,1.83.66,7.87,7.87,0,0,1,3.37,1.57c1.09.82,1.91,1.26,2.85,2.1,1.81,1.63,5.88,5.73,6.74,8,.42,1.07,1,2.62,1.24,3.72a14.27,14.27,0,0,1,.08,8.43c-.58,1.83-.68,1.41-1.48,3.47a10.35,10.35,0,0,1-1.83,3.11c-3.36,3.92-7.65,6.72-12.93,6.78-1.63,0-2.84,0-4.48,0a8.61,8.61,0,0,1-4.36-.65l-1.81-.67c-.92-.41-3.2-.76-3.79-1.16a10,10,0,0,0-1.4-1.08c-3.07-2-3.07-2.37-4.66-5.08A19.55,19.55,0,0,1,182.41,294.26Zm42.21-4.8a18.32,18.32,0,0,0-1-4.44l-2-3.73a32.08,32.08,0,0,0-3.7-4.81,35.12,35.12,0,0,0-8.43-5.65,18.8,18.8,0,0,0-2.11-.78c-2-.45-5.39-1.26-7.22-.58l-2.42.51a17.21,17.21,0,0,0-7.45,3.86,30.21,30.21,0,0,0-4.88,5,14.28,14.28,0,0,0-1.6,2.58,31.26,31.26,0,0,0-2.69,5.81l-.71,2.08a15.78,15.78,0,0,0-.77,4.78,32.49,32.49,0,0,0,1.15,6.07,25,25,0,0,0,5.07,7.62,20.39,20.39,0,0,0,4.83,3.68,26.29,26.29,0,0,0,4.1,1.49,21.15,21.15,0,0,0,4.92.73c1.87,0,3.17.44,5.1.2a17.21,17.21,0,0,0,4.33-1.4l3.86-1.74a14.46,14.46,0,0,0,3.59-2.11c.5-.48.89-.91,1.36-1.43.29-.33.45-.41.69-.71,1.41-1.82.54-.69,1.47-1.47l1.11-1.67a25.27,25.27,0,0,0,2.56-4.4c2-4.24,1-4.07,1.1-7A10,10,0,0,0,224.62,289.47Z" transform="translate(-5.63 -3.16)"/><path class="cls-1" d="M203.61,317.52a20.61,20.61,0,0,1-2.26-.15,15.58,15.58,0,0,0-1.68-.12,16.5,16.5,0,0,1-4.19-.5c-.39-.09-.82-.19-1.36-.28a27.75,27.75,0,0,1-4.89-1.73,23.56,23.56,0,0,1-6-4.48,28.54,28.54,0,0,1-5.75-8.64,31.29,31.29,0,0,1-1.44-7.67,19,19,0,0,1,1-5.77l.71-2.05a35,35,0,0,1,3-6.56l.09-.18a13.55,13.55,0,0,1,1.81-2.81l1-1.15a28.88,28.88,0,0,1,4.25-4.21,20.76,20.76,0,0,1,8.94-4.64l.12,0,2.22-.47c2.52-.79,5.73-.18,8.81.52l.14,0a13,13,0,0,1,2,.7l.53.21a37.89,37.89,0,0,1,9.79,6.56,34.71,34.71,0,0,1,3.93,5.07l.3.48,2.18,4.17a23.7,23.7,0,0,1,1.25,5.36,12.29,12.29,0,0,1,.21,2.84,9.89,9.89,0,0,0,.09,1.48c.25,2.17.09,3.62-1.53,7a28.23,28.23,0,0,1-2.88,4.95l-1.31,2-.39.33a7,7,0,0,1-.57.44l-.39.5a6.23,6.23,0,0,1-.75.8l-.09.09c-.5.57-1,1.06-1.54,1.62a17.7,17.7,0,0,1-4.75,2.86l-3.85,1.73-.71.29a16.83,16.83,0,0,1-4.49,1.33A13,13,0,0,1,203.61,317.52Zm-2.67-10.65h1.58c.87,0,1.7,0,2.68,0,3.71,0,7.17-1.91,10.28-5.55a6.83,6.83,0,0,0,1.22-2.09,18.42,18.42,0,0,1,.94-2.08,5.53,5.53,0,0,0,.47-1.17,10.72,10.72,0,0,0-.12-6.46c-.26-1-.76-2.42-1.12-3.34s-3.29-4.34-5.8-6.6a11.78,11.78,0,0,0-1.34-1c-.39-.27-.81-.55-1.27-.9a4.36,4.36,0,0,0-2-.94,8.66,8.66,0,0,1-1.8-.6,2.66,2.66,0,0,0-.33-.14,3.89,3.89,0,0,0-.47-.1,8.47,8.47,0,0,1-1.73-.46,12.67,12.67,0,0,0-2.51-.16,4.59,4.59,0,0,0-2,.94c-.55.36-.89.56-1.17.72l-.16.1s-.19.18-.81.84l-1.73,1.77a21.87,21.87,0,0,1-2.32,2.57l-.6.6-1.9,2.46c-.25.42-.51.81-.78,1.2a14.43,14.43,0,0,0-.88,1.41A41.21,41.21,0,0,0,186,294a15.89,15.89,0,0,0,1.84,5.94l.45.77c1,1.8,1,1.8,3.09,3.13a11.65,11.65,0,0,1,1.35,1l.9.23a15.92,15.92,0,0,1,2.32.69l1.72.64a5.48,5.48,0,0,0,2.79.43h.52Zm-8.53-2.08Zm-6.47-10.93v0Zm42.23-4.26h0Zm-26.11-14.19,0,0Z" transform="translate(-5.63 -3.16)"/><path class="cls-1" d="M285.41,290.26a35.16,35.16,0,0,1,1.74-7.95c.62-1.21,1.29-2,1.9-3l2.16-2.79a26.05,26.05,0,0,0,2.9-3.14l1.84-1.87a8.22,8.22,0,0,1,2.77-2.19,7.85,7.85,0,0,1,3.47-1.5,13,13,0,0,1,4.22.35,17.51,17.51,0,0,0,2,.49,17.9,17.9,0,0,0,1.83.66,7.87,7.87,0,0,1,3.37,1.57c1.09.82,1.91,1.26,2.85,2.1,1.81,1.63,5.88,5.73,6.74,8,.42,1.07,1,2.62,1.24,3.72a14.27,14.27,0,0,1,.08,8.43c-.58,1.83-.68,1.41-1.48,3.47a10.35,10.35,0,0,1-1.83,3.11c-3.36,3.92-7.65,6.72-12.93,6.78-1.63,0-2.84,0-4.48,0a8.61,8.61,0,0,1-4.36-.65l-1.81-.67c-.92-.41-3.2-.76-3.79-1.16a10,10,0,0,0-1.4-1.08c-3.07-2-3.07-2.37-4.66-5.08A19.55,19.55,0,0,1,285.41,290.26Zm42.21-4.8a18.32,18.32,0,0,0-1-4.44l-2-3.73a32.08,32.08,0,0,0-3.7-4.81,35.12,35.12,0,0,0-8.43-5.65,18.8,18.8,0,0,0-2.11-.78c-2-.45-5.39-1.26-7.22-.58l-2.42.51a17.21,17.21,0,0,0-7.45,3.86,30.21,30.21,0,0,0-4.88,5,14.28,14.28,0,0,0-1.6,2.58,31.26,31.26,0,0,0-2.69,5.81l-.71,2.08a15.78,15.78,0,0,0-.77,4.78,32.49,32.49,0,0,0,1.15,6.07,25,25,0,0,0,5.07,7.62,20.39,20.39,0,0,0,4.83,3.68,26.29,26.29,0,0,0,4.1,1.49,21.15,21.15,0,0,0,4.92.73c1.87,0,3.17.44,5.1.2a17.21,17.21,0,0,0,4.33-1.4l3.86-1.74a14.46,14.46,0,0,0,3.59-2.11c.5-.48.89-.91,1.36-1.43.29-.33.45-.41.69-.71,1.41-1.82.54-.69,1.47-1.47l1.11-1.67a25.27,25.27,0,0,0,2.56-4.4c2-4.24,1-4.07,1.1-7A10,10,0,0,0,327.62,285.47Z" transform="translate(-5.63 -3.16)"/><path class="cls-1" d="M306.61,313.52a20.42,20.42,0,0,1-2.27-.15,15.56,15.56,0,0,0-1.68-.12,16.48,16.48,0,0,1-4.19-.5c-.39-.09-.82-.19-1.36-.28a27.53,27.53,0,0,1-4.9-1.73,23.51,23.51,0,0,1-6-4.48,28.54,28.54,0,0,1-5.75-8.64,31.21,31.21,0,0,1-1.44-7.67,18.94,18.94,0,0,1,1-5.77l.71-2.06a35.15,35.15,0,0,1,3-6.56l.1-.18a13.52,13.52,0,0,1,1.81-2.81l1-1.16a28.8,28.8,0,0,1,4.24-4.21,20.75,20.75,0,0,1,8.94-4.64l.12,0,2.22-.47c2.53-.8,5.74-.18,8.82.53l.13,0a13,13,0,0,1,2,.7l.53.21a37.89,37.89,0,0,1,9.79,6.55,34.73,34.73,0,0,1,3.93,5.07l.3.48,2.18,4.17a23.68,23.68,0,0,1,1.25,5.35,12.26,12.26,0,0,1,.21,2.85,9.77,9.77,0,0,0,.09,1.49c.25,2.17.09,3.62-1.53,7a28.24,28.24,0,0,1-2.88,4.95l-1.31,2-.39.33a7.13,7.13,0,0,1-.57.44l-.39.5a6.28,6.28,0,0,1-.75.8l-.09.09c-.51.57-1,1.06-1.54,1.62a17.73,17.73,0,0,1-4.75,2.86l-3.85,1.73-.71.29a16.83,16.83,0,0,1-4.49,1.33A13.06,13.06,0,0,1,306.61,313.52Zm-2.67-10.65h1.56c.87,0,1.71,0,2.7,0,3.71,0,7.17-1.91,10.29-5.55a6.85,6.85,0,0,0,1.22-2.09,18.38,18.38,0,0,1,.93-2.08,5.61,5.61,0,0,0,.47-1.17,10.72,10.72,0,0,0-.12-6.45c-.26-1-.76-2.42-1.12-3.34s-3.29-4.34-5.81-6.6a11.91,11.91,0,0,0-1.34-1c-.39-.27-.81-.55-1.26-.89a4.38,4.38,0,0,0-2-.94,8.65,8.65,0,0,1-1.79-.6,2.65,2.65,0,0,0-.33-.14,3.89,3.89,0,0,0-.47-.1,8.43,8.43,0,0,1-1.73-.47,12.59,12.59,0,0,0-2.51-.16,4.59,4.59,0,0,0-2,.94c-.55.37-.9.56-1.17.72l-.16.09s-.19.18-.81.84l-1.73,1.77a22,22,0,0,1-2.32,2.58l-.6.6-1.9,2.46c-.25.42-.51.8-.77,1.19a14.29,14.29,0,0,0-.88,1.42A41.11,41.11,0,0,0,289,290a15.86,15.86,0,0,0,1.84,5.94l.45.77c1,1.8,1,1.8,3.09,3.13a11.74,11.74,0,0,1,1.35,1l.9.23a16,16,0,0,1,2.32.69l1.72.64a5.47,5.47,0,0,0,2.79.43h.52Zm-8.54-2.08Zm-6.47-10.94h0v0Zm42.23-4.25h0Zm-26.11-14.19h0Z" transform="translate(-5.63 -3.16)"/></svg>