<?xml version="1.0" encoding="utf-8"?>
<!-- Generator: Adobe Illustrator 19.0.1, SVG Export Plug-In . SVG Version: 6.00 Build 0)  -->
<svg version="1.1" id="Слой_1" xmlns="http://www.w3.org/2000/svg" xmlns:xlink="http://www.w3.org/1999/xlink" x="0px" y="0px"
	 viewBox="0 0 14.1 14.1" style="enable-background:new 0 0 14.1 14.1;" xml:space="preserve">
<style type="text/css">
	.st0{fill:#0D0F0F;}
</style>
<path class="st0" d="M14,8.6L13.4,7L14,5.4c0.1-0.2,0-0.4-0.1-0.5l-1.3-1.1l-0.3-1.7c0-0.2-0.2-0.3-0.4-0.4l-1.7-0.3L9.1,0.1
	C9,0,8.8-0.1,8.6,0L7,0.6L5.4,0C5.2-0.1,5,0,4.9,0.1L3.8,1.4L2.1,1.7c-0.2,0-0.3,0.2-0.4,0.4L1.4,3.8L0.1,4.9C0,5-0.1,5.2,0,5.4
	L0.6,7L0,8.6C-0.1,8.8,0,9,0.1,9.1l1.3,1.1l0.3,1.7c0,0.2,0.2,0.3,0.4,0.4l1.7,0.3l1.1,1.3C5,14,5.2,14.1,5.4,14L7,13.4L8.6,14
	c0.1,0,0.1,0,0.2,0s0.3-0.1,0.3-0.2l1.1-1.3l1.7-0.3c0.2,0,0.3-0.2,0.4-0.4l0.3-1.7L13.9,9C14,8.9,14.1,8.7,14,8.6z M12.5,7.1
	l0.6,1.5l-1.2,1c-0.1,0.1-0.1,0.2-0.2,0.3l-0.2,1.5L10,11.6c-0.1,0-0.2,0.1-0.3,0.2l-1,1.2l-1.5-0.6c-0.1,0-0.1,0-0.2,0
	s-0.1,0-0.2,0L5.3,13l-1-1.2c-0.1-0.1-0.2-0.1-0.3-0.2l-1.5-0.2L2.3,9.9c0-0.1-0.1-0.2-0.2-0.3l-1.2-1l0.6-1.5c0-0.1,0-0.2,0-0.3
	L0.9,5.3l1.2-1C2.2,4.2,2.2,4.1,2.3,4l0.2-1.5L4,2.3c0.1,0,0.2-0.1,0.3-0.2l1-1.2l1.5,0.6c0.1,0,0.2,0,0.3,0l1.5-0.6l1,1.2
	c0.1,0.1,0.2,0.1,0.3,0.2l1.5,0.2L11.6,4c0,0.1,0.1,0.2,0.2,0.3l1.2,1l-0.6,1.5C12.5,6.9,12.5,7,12.5,7.1z"/>
<path class="st0" d="M5.7,3.5C5,3.5,4.4,4.1,4.4,4.8c0,0.7,0.6,1.3,1.3,1.3C6.4,6.1,7,5.5,7,4.8C7,4,6.4,3.5,5.7,3.5z M5.7,5.2
	C5.5,5.2,5.3,5,5.3,4.8s0.2-0.4,0.4-0.4c0.2,0,0.4,0.2,0.4,0.4S6,5.2,5.7,5.2z"/>
<path class="st0" d="M8.3,7.8C7.6,7.8,7,8.4,7,9.1c0,0.7,0.6,1.3,1.3,1.3c0.7,0,1.3-0.6,1.3-1.3C9.7,8.4,9.1,7.8,8.3,7.8z M8.3,9.6
	c-0.2,0-0.4-0.2-0.4-0.4c0-0.2,0.2-0.4,0.4-0.4c0.2,0,0.4,0.2,0.4,0.4C8.8,9.4,8.6,9.6,8.3,9.6z"/>
<path class="st0" d="M9.5,3.5C9.3,3.4,9,3.4,8.9,3.6L4.5,9.7c-0.1,0.2-0.1,0.5,0.1,0.6c0.1,0.1,0.2,0.1,0.3,0.1s0.3-0.1,0.4-0.2
	l4.4-6.1C9.7,4,9.7,3.7,9.5,3.5z"/>
</svg>
