<svg id="Слой_1" data-name="Слой 1" xmlns="http://www.w3.org/2000/svg" viewBox="0 0 523.73 483.5">
    <title>icon-pencil</title>
    <path d="M479.9,12.6c6.7-6.1,14.1-7.9,22.2-5.2a61.11,61.11,0,0,1,6.3,3.2c10,6.5,15.5,12.1,16.4,16.7s-1.8,11.8-8.3,21.6c-6.3,9.8-11.9,16.7-16.7,20.7-6.5,5.2-6.5,10.8,0,17,5.2,4.4,7.8,7.7,7.8,9.8.2,2.3-1.7,6.3-5.8,12.1-5.2,7.9-12.3,16.5-21.3,25.9-5.2,5.4-13.1,13.3-23.6,23.9l-13.2,13.8c-2.7,2.3-5.7,1.8-8.9-1.4a199.33,199.33,0,0,1,32-36.3c3.3-3.1,10.1-11.2,20.4-24.5,3.8-4.8,4.4-9,1.7-12.7q-20.7-26.55-37.4-36.6c-4.2-2.5-8.2-1.7-11.8,2.3L338.5,180.8c-5.6,6.5-14.4,15.9-26.5,28.2-11.7,13.1-15.5,27.6-11.2,43.8,13.2-3.3,22.7-9.1,28.2-17.6L318.3,226a18,18,0,0,1-3.7-4,4.51,4.51,0,0,1,0-5.2c2.3-2.9,6.1-3.3,11.5-1.2,1.2.8,2.6,2.6,4.3,5.5,1.5,2.5,3.2,3.9,4.9,4.3q28.2-26.55,41.5-40.6,23.85-23.85,35.7-36,21.6-21.9,34.9-38c6-7.3,9.3-12,10.1-14.1a8.92,8.92,0,0,1,2.6-4.6c5-3.6,9.2-3.9,12.7-.9,4.4,3.5,4,7.5-1.2,12.1-8.1,6.9-18.5,17.4-31.4,31.4q-21.3,23.4-31.1,32.5-47.25,43.2-68.5,72.9c-6.3,8.8-11.1,14.6-14.4,17.3a27.83,27.83,0,0,1-21.3,7.2c-6,5.4-13.9,8-23.9,7.8L252.5,271c-2.7-1-4.2-1.5-4.6-1.7a4.56,4.56,0,0,1-2-4.6c.6-2.1,3-3.2,7.2-3.2h33.4c-.6-4-.2-10.2,1.2-18.4,1.1-7.9,1.2-13.9.3-18.1a10,10,0,0,1,1.4-7.8,66.58,66.58,0,0,1,5.5-5.5q17.25-15.3,42.3-44.4,30.3-35.7,40.6-46.4c4.2-5.8,7.7-10.3,10.4-13.5-6.7-2.7-14.6-4.2-23.6-4.6a227,227,0,0,0-23.3-.9q-58.2-2.55-170.8-6c-8.6-.4-13.6.2-15,1.7-1.3,1.2-2.6,6.1-3.7,15-2.7,20.9-4,46.3-4,76q0,25,.6,75.5a46.38,46.38,0,0,0,.9,10.7c1.2,8.3,1.2,13.2.3,15q-1.8,2.55-13.8,6a47.12,47.12,0,0,0,1.4-9.2,12.42,12.42,0,0,0-2.6-8.6,16.21,16.21,0,0,0-10.4,4c-1.9,1.5-4.9,3.9-8.9,7.2,1.7,1,5.6,1.3,11.5,1.2,4.4-.4,7.4,1.2,8.9,4.9-19.4,8.3-30.2,12.7-32.5,13.2q-21,7.8-34.3,31.1c-8.8,15.2-11.6,30.1-8.4,44.9,4.2-1.7,9.1-5.3,14.7-10.7,6.1-6.1,10.9-10.2,14.1-12.1,1,3.6-1,7.5-5.8,11.5L69.7,386.4c-5,5-5.7,10.2-2,15.6,4.4,6.3,7.8,9.7,10.1,10.1,2.3.2,6.2-2.4,11.8-7.8,6-6.1,10-9.9,12.1-11.2,2.3-1.3,7.1-3,14.4-4.9-1,1-6.7,6-17.3,15q-9.45,8.1-13.5,15.6c8.3,5.2,13.7,7.6,16.4,7.2,2.5,0,6.9-3.1,13.3-9.2a46.73,46.73,0,0,1,8.1-6c1.5-.8,5.5-2.2,11.8-4.3l-19,17.9c-4,3.6-3.5,6.7,1.7,9.2,7.1,3.8,13,5.4,17.6,4.6,4.8-.6,10.5-3.6,17-9.2,4.8-4.8,8.5-8.4,11.2-10.9q6.6-6.6,14.1-8.4c-1.3,4.4-5.6,9.4-12.7,15-6.7,5.4-10.6,10.6-11.5,15.6,14,5.4,25.4,2.9,34.3-7.5,1.9-2.5,7.2-7.1,15.8-13.8,1.7-1.3,3.2-1,4.3,1.2,1.3,1.3,1.2,2.7-.6,4-2.3,1.9-5.9,4.6-10.7,8.1a53.82,53.82,0,0,0-9.8,10.1c5,3.5,10.1,4.5,15.3,3.2,3.8-1.3,6-2.1,6.3-2.3a14,14,0,0,1,6.9,1.2,6.1,6.1,0,0,0,6.6-.3,39.49,39.49,0,0,1,4.6-5.2c10.4-10.4,19.6-17,27.6-19.9-1.3,3.6-4.9,7.8-10.7,12.4-6.1,5-10.2,9-12.1,12.1,11.3,2.7,20.5,1.2,27.7-4.6,4.6-4.4,8.3-7.8,10.9-10.1a48.55,48.55,0,0,1,13.2-8.4c-.6,3.8-3.3,7.6-8.1,11.2-5.2,4-8.3,7.3-9.2,9.8,9.2,3.8,18.3,2.8,27.4-3.2,9.8-8.3,17.5-13.7,23-16.4a13.54,13.54,0,0,1-4.9,9.8q-6,4.65-6.6,6.3c6.7,2.7,11.7,3.4,15,2,3.5-1.3,11.9-7.2,25.3-17.6,1.7,2.9,1.3,5.7-1.1,8.4-2.9,3.3-4.2,6-4,8.1,9.6.8,22.3,0,38-2.3,19.4-2.9,32.1-4.5,38-4.9,49.5-2.1,75-3.2,76.3-3.2-5.8,1.9-9.8,5.9-12.1,11.8-.2.4-1.2,5.7-2.9,15.8-1.2,7.1-5.3,12-12.4,14.7-10.6,3.6-19.1,5.8-25.6,6.3-11.1,1-27.7,2.5-49.8,4.6-19.2,1.5-35.9,2.3-50.1,2.3q-133.35,0-171.4-.9c-27.6-.2-58.2-5.7-91.6-16.4-9.4-2.9-17.8-11.2-25.1-25.1q-2.25-4.05,1.2-6.3c1.9-1.3,3.4-1.3,4.3,0,4.2,4.4,7.9,5.4,10.9,2.9,3.5-4,6.2-7.1,8.4-9.2q-15-13.5-15.3-13.8c-5.4-5.8-9-11.4-10.9-17-8.4,3.6-13,6.3-13.5,8.1-.8,1.5.9,5.4,4.9,11.5l6.3,9.8v2.3a13,13,0,0,1-10.9-1.2c-1.9-1-4.9-3.3-8.9-6.9-7.3-6.9-11.3-14.7-12.1-23.3-.2-6.3-1.8-17-4.9-32-2.7-13.4-3.8-24.1-3.5-32L9,163.4Q9.3,134.3,21.1,96q7.2-21.6,34.8-45.8c6.3-5.6,15.5-11.3,27.4-17.3q24.75-12.15,28.8-14.7c4.6-2.3,8.5-2.1,11.8.6a6,6,0,0,1,1.4,4.9,47.8,47.8,0,0,1-1.4,5.2,49.28,49.28,0,0,0-1.4,5.8,13.89,13.89,0,0,0,1.4,7.2c2.3.2,5.4-.9,9.2-3.2,4.2-1.9,7.4-3,9.5-3.2,5.2-.2,8.4.2,9.8,1.2,1.2,1,1.8,3.8,2,8.6l-.3,28.5c-.2,6.9,3.1,10.8,9.8,11.5l17.9,2c36.9-.2,64.4.5,82.7,2,16.3,1.2,36.3,2,59.9,2.6l59.9.9c6.3.4,11.2-.2,14.7-1.7,4.2-1.9,7.9-5.5,10.9-10.7A149.45,149.45,0,0,1,424,62.3c6.7-7.5,11.7-13.2,15-17.3,2.3-2.1,3.6-3.2,4-3.2,7.5-1.3,14.4-5.3,20.7-11.8C470.7,22,476.1,16.3,479.9,12.6Zm-1.1,51.9c4.2,4.2,8.1,5.5,11.5,3.7,2.9-1.5,6-4.6,9.2-9.2,3.5-5.8,6-10,7.8-12.7,4.6-7.3,3.4-14.5-3.7-21.6-4.8-5-10.6-5.4-17.3-1.2a116.36,116.36,0,0,0-28.8,25.3c6.5,4.2,10,6.4,10.4,6.6C469.7,56.3,473.4,59.3,478.8,64.5Zm1.4,126.4a7.49,7.49,0,0,1,3.8-.5c2.5.3,3.8,1.5,3.8,3.4,0,9-.3,14.6-.8,16.7q-9.15,28.2-10.9,66.1-.75,22.2-.3,67a204.92,204.92,0,0,0,2.5,27.7c2.2,13,3.4,22.1,3.5,27.5a119,119,0,0,1,.5,14.4,51.83,51.83,0,0,1-3.3,13.7,226.12,226.12,0,0,1-11.4-50.8c-1-11.7-1.5-28.2-1.5-49.4,0-38.4,1.1-66,3.3-82.6.3-3.7,2.1-12,5.3-25.2,2.7-10.4,3.8-18.8,3.3-25.4A3.9,3.9,0,0,1,480.2,190.9ZM338.5,449.5c-3.1,1.2-12.8,8.5-29.1,22.2,12.1,3.5,20.9,3.9,26.5,1.4,5.6-2.3,14.1-9.9,25.6-22.8C349.5,448.3,341.8,448,338.5,449.5Zm12.4,21.6c13.4,3.3,26,1.8,37.7-4.3,6-2.9,16-10.5,30.2-22.8-14.2-2.9-27.1-1.8-38.6,3.2C370.7,451.6,360.9,459.6,350.9,471.1Zm113.8-28.2a160.58,160.58,0,0,1-15,8.9,38.43,38.43,0,0,0-12.1,12.4c7.9-.2,14.4-2.3,19.6-6.3Q464.7,451.75,464.7,442.9Zm-36.6,20.7c5.4-6.5,14.3-14.7,26.8-24.5q-31.65,0-51.8,29.7a90.2,90.2,0,0,0,13.5.6A19.53,19.53,0,0,0,428.1,463.6ZM20.3,230.1l.9,20.7c10-11.5,15.6-18,17-19.3,3.1-4,5.5-7.1,7.2-9.2,3.3-3.5,7.5-5,12.7-4.6-5.6,6.5-12.9,15.1-21.9,25.6-2.1,2.7-5.5,6.5-10.1,11.5a25.59,25.59,0,0,0-5.5,15.6c3.5-1.5,6.7-4.4,9.8-8.6,4-5.2,6.7-8.3,8.1-9.2,3.5-3.6,6.2-6.3,8.3-8.1a12,12,0,0,1,11.8-3.2A140.08,140.08,0,0,1,43,259.2c-8.4,7.9-13.8,13.4-16.1,16.7-6.5,7.9-8.4,17.6-5.8,29.1q6.3-4.65,21.6-21.3c8.1-9.4,15.8-15.6,23.3-18.4.4,2.7-.1,4.7-1.4,6a21.8,21.8,0,0,1-4,3.5A372,372,0,0,0,25.2,312c-2.9,3.6-4.4,6.3-4.6,8.1-.2,1.5.6,5.4,2.3,11.5Q41,299.35,57.7,287.2L96,260.4a82.28,82.28,0,0,0,9.2-6.9,16.65,16.65,0,0,0,4-11.8c.8-20.7,0-36-2.3-45.8-2.1-10.2-2.3-25.7-.6-46.7,1.9-20.9,1.6-36.5-.9-46.7,1.9-4.8,2.8-11.3,2.6-19.6-.2-9.8.1-16.4.9-19.9a62.09,62.09,0,0,0,1.4-14.7q.3-9.75.6-14.7Q76.1,41.7,50.7,73.9c-18.6,23.6-28.1,51.3-28.5,82.9,1.9,0,4.9-2,8.9-6,3.6-3.5,7.6-4.6,11.8-3.5-2.7,2.9-6.5,7-11.5,12.4a65.5,65.5,0,0,0-9.2,12.1c-2.1,4-3.1,9.3-2.9,15.8,0,3.6.1,9.6.3,17.9,4.2-1.5,9.7-5.4,16.4-11.5,5.6-5.2,10.6-8.2,15-8.9-5.2,6.3-13.4,15.5-24.8,27.4C22.5,217.1,20.5,223,20.3,230.1ZM121.6,92.7c-2.3,4.4-2.8,13.4-1.4,27.1,9.2-6,15.4-11.4,18.4-16.4,4.8-6.5,6-14.1,3.7-22.8C131.1,84.2,124.1,88.3,121.6,92.7Zm16.8-21.3c5.2-5.6,6.9-12.4,5.2-20.4-12.3,7.3-19.6,12.8-21.9,16.4-2.1,3.5-1.9,9.2.6,17.3C132.8,76,138.2,71.6,138.4,71.4Zm1.4,44.9c-12.1,7.5-19.1,12.9-21,16.1-2.9,5.6-3,16.1-.3,31.7l7.8-13.5a17.86,17.86,0,0,1,10.9-7.8c1.7-.2,2.6-2.1,2.6-5.8V116.3Zm-21,55.9c-1.9,4-1.5,10.5,1.2,19.3q10.05-7.5,14.1-14.7c3.1-6,3.9-12.7,2.6-20.2C126.5,163.2,120.5,168.3,118.8,172.2Zm1.1,59c-.8,1.9-.4,7.5,1.2,16.7,8.6-4,13.5-7.3,14.7-9.8,1.5-2.1,1.8-8.3.9-18.4C127,223.9,121.5,227.8,119.9,231.2Zm2.3-10.9c5.8-5,9.5-9.1,11.2-12.4,3.1-5.4,3.4-11.3.9-17.9q-13.5,9.45-15.6,14.7C117.4,208.2,118.6,213.4,122.2,220.3ZM317.4,376.9q-100.95-9.15-151.6-10.7c-6.3-.5-11.1-1.3-14.3-2.4-4.8-1.1-6.2-3.3-4.4-6.7.8-2.6,2.4-4,4.8-4h9.9q90.6,9.45,171,9.5c4.8,0,7.7.3,8.7.8,2.6.5,3.6,2.9,2.8,7.1-1.3,7.4-5.3,9.9-11.9,7.5C330.3,377.3,325.3,376.9,317.4,376.9ZM134.9,252c-2.7-.8-5.8.6-9.2,4q-17.85,16.35-46.4,31.7a85,85,0,0,0-31.1,26.5C41.5,323,35,334.9,28.6,349.9c-2.3,5.8-2,10.8.9,15.3,9-6.7,14.1-10.8,15.3-12.1a38.19,38.19,0,0,0,10.7-17c2.1-7.3,3.4-11.5,3.7-12.7a18,18,0,0,1,4.9-5.2L86,300.9q28.5-19.05,42-28.8Q138.95,264,134.9,252ZM107,443.2c-4.6-1.9-10.8-4.7-18.7-8.4-2.1-.8-5.2.1-9.2,2.6-3.7,2.1-5.5,4.3-5.5,6.6a6.9,6.9,0,0,0,2.6,6.3,51.08,51.08,0,0,0,6.3,2.6c6.7,2.7,11.1,3.6,13.2,2.6C97.7,454.8,101.4,450.7,107,443.2Zm12.6,4q-6.3.9-14.4,13.2c10.4,5,18.2,7.1,23.6,6.3,5.6-1,10.5-5.3,14.7-13C131.6,448.8,123.7,446.6,119.6,447.2Zm42.4,8.7a27.54,27.54,0,0,0-20.4,13c10.4,3.6,18.6,4.8,24.8,3.5,8.4-1.3,15.4-6.8,20.7-16.4C172,455.7,163.7,455.7,162,455.9ZM205.8,472c4.2-1.9,9.7-6.2,16.4-13-8.8-3.6-15.7-4.6-20.7-2.9-5,1.9-10.6,7.5-16.7,16.7A26.07,26.07,0,0,0,205.8,472Zm42.9.8c6.5-2.3,13.7-8.7,21.6-19.3-12.1-1.2-21.6-.5-28.5,2-7.1,2.3-15.1,8.1-23.9,17.3C232.4,475,242.7,475,248.7,472.8ZM43.6,364c-8.8,3.1-14.2,7.8-16.1,14.1-1.7,6-.1,12.4,4.9,19.3,6.3-3.1,10.1-6,11.2-8.9C44.8,385.2,44.8,377,43.6,364ZM261.3,475.4c25.9,1.9,46.4-6.4,61.3-25.1C290.6,448.1,270.2,456.4,261.3,475.4Z"
          transform="translate(-4.12 -3.33)"/>
    <path d="M339.1,486.83c-88.49,0-146.18-.3-171.47-.9-27.67-.2-58.78-5.76-92.4-16.53-10.16-3.13-19.16-12-26.75-26.48-2.18-3.92-1.38-7.68,2.16-10,3.68-2.52,6.58-1.33,8,.54,4.12,4.26,6,3.26,6.75,2.68l.19-.21c2.34-2.68,4.34-5,6.09-6.81-12.87-11.59-13.08-11.79-13.2-11.92l-.07-.07A54.26,54.26,0,0,1,48,402c-7.33,3.31-8.92,4.83-9.25,5.25l0,.12c.07.57.6,2.76,4.62,8.89l6.76,10.52V432l-2,.63A15.92,15.92,0,0,1,35,431.18a55.3,55.3,0,0,1-9.42-7.27c-7.79-7.36-12.16-15.81-13-25.14v-.17c-.2-6.25-1.87-17.15-4.84-31.52C5,353.78,3.85,342.79,4.17,334.39l2-171c.2-19.73,4.32-42.67,12.23-68.21,5-14.92,17-30.75,35.64-47.09C60.3,42.5,69.46,36.7,82,30.37c16.36-8,26-12.93,28.57-14.57l.24-.14c7-3.52,12-1.43,14.86.94l.29.27A8.81,8.81,0,0,1,128.12,24l0,.17a49.68,49.68,0,0,1-1.48,5.56A47.32,47.32,0,0,0,125.32,35a10.58,10.58,0,0,0,.45,3.88,20.63,20.63,0,0,0,5.87-2.65l.3-.16c4.61-2.09,8-3.21,10.4-3.44h.16c6-.23,9.56.3,11.56,1.73l.17.13c1.92,1.6,2.77,4.59,3,10.66v.15l-.3,28.5c-.16,5.46,2.08,8.11,7.26,8.65l17.76,2c36.29-.19,64.14.48,82.78,2,15.17,1.12,34.16,1.94,59.74,2.59l60,.9c5.76.37,10.27-.13,13.4-1.48,3.64-1.65,6.88-4.86,9.56-9.51l.06-.1a151.26,151.26,0,0,1,14.37-18.46c7.69-8.61,12-13.59,14.92-17.2l.3-.32c3.23-2.95,4.3-3.81,5.58-3.93,6.71-1.2,13.08-4.87,18.94-10.9,8-9.13,13.28-14.56,16.31-17.51l.07-.06c7.54-6.86,15.95-8.81,25-5.79l.16.06a60.37,60.37,0,0,1,6.64,3.36l.16.09c10.8,7,16.57,13.08,17.64,18.53s-1.59,13-8.72,23.71c-6.37,9.9-12.18,17.08-17.25,21.31-2.49,2-3.77,3.92-3.85,5.75-.09,2,1.24,4.37,3.93,7,6,5.05,8.66,8.7,8.74,11.78s-1.74,7.39-6.32,13.86c-5.22,7.94-12.29,16.54-21.57,26.22-3.84,4-9.13,9.31-15.82,16.06l-7.81,7.88-13.38,14c-1.82,1.55-6.7,4.49-12.74-1.55L431.13,171l1.32-1.94a203,203,0,0,1,32.45-36.82c2.26-2.13,7.63-8.09,20-24.12,3.89-4.92,2.93-7.55,1.65-9.29C473.17,81.64,460.85,69.55,450,63c-2-1.19-4.77-2.08-8.23,1.77L340.65,182.65c-5.84,6.78-14.78,16.3-26.58,28.29-10.44,11.71-14.11,24.29-11.19,38.36,10.07-2.93,17.55-7.5,22.31-13.63l-8.74-7.52c-3-2.71-3.93-4-4.34-4.78a7.34,7.34,0,0,1,.11-8.11l.16-.22c2.16-2.72,6.47-5.3,14.75-2.08l.29.11.26.17c1.6,1.06,3.19,3,5.17,6.43a8.94,8.94,0,0,0,1.92,2.34c18-16.93,31.4-30.1,40-39.16,15.85-15.85,27.85-28,35.73-36,13.9-14.09,25.59-26.82,34.75-37.83,7.46-9.07,9.18-12.25,9.57-13.16A11.67,11.67,0,0,1,458.17,90l.27-.22c7.64-5.5,13-3.48,16.16-.79,2.62,2.1,4,4.49,4.05,7.12.08,3.1-1.61,6.13-5.18,9.29-7.67,6.54-17.86,16.73-31.19,31.2-13.58,14.92-24.39,26.21-31.25,32.65C379.9,197.74,357,222.12,342.9,241.75c-6.54,9.13-11.4,15-14.87,17.81a30.58,30.58,0,0,1-22.15,7.94c-6.41,5.34-14.78,7.94-24.94,7.74l-29-1.42-.41-.15-2.72-1c-1.22-.44-1.78-.64-2.16-.83l-.3-.18a7.32,7.32,0,0,1-3.25-7.23l.1-.51c.69-2.4,3-5.26,9.93-5.26h30.32a83.72,83.72,0,0,1,1.49-16c1-7.43,1.15-13.19.32-17a12.83,12.83,0,0,1,1.8-9.94l.16-.22a67.22,67.22,0,0,1,5.78-5.8c11.4-10.11,25.54-25,42.08-44.17,21-24.76,33.92-39.51,40.57-46.38,2.83-3.9,5.49-7.41,7.84-10.36a74.55,74.55,0,0,0-19-3.08h-.19a224.9,224.9,0,0,0-23-.88h-.12c-38.68-1.7-96.14-3.71-170.76-6-10.73-.5-12.72.72-12.91.86l-.08.09c-.08.12-1.43,2.09-2.81,13.26-2.64,20.44-4,45.89-4,75.65,0,16.63.2,42,.6,75.47,0,5.72.44,8.6.81,10l.06.31c1.68,11.63.82,15.09,0,16.67l-.22.37c-1.17,1.66-3.91,3.81-15.33,7.09l-3.72,1.07c-21.69,9.24-27,11.17-28.84,11.62-13.16,4.94-24.15,15-32.67,29.79-7.78,13.44-10.66,26.32-8.75,39.26a60.9,60.9,0,0,0,10.62-8.51c6.22-6.22,11.15-10.44,14.62-12.5L91,357.37l1,3.57c.91,3.26.49,8.4-6.64,14.37L71.66,388.45c-4,4-4.52,7.71-1.62,11.95,5.2,7.44,7.58,8.68,8.12,8.87.56-.06,2.95-.72,9.47-7C94.38,395.4,98,392,100.21,390.69l.1-.06c3.39-1.92,10.07-3.87,15.08-5.17l10.09-2.63-7.37,7.37c-1.3,1.3-8.16,7.25-17.47,15.16a60.8,60.8,0,0,0-11.47,12.49c8.82,5.29,11.48,5.44,12.12,5.35l.42,0c.42,0,2.94-.41,11.34-8.42l.11-.1a48.61,48.61,0,0,1,8.68-6.39c1.45-.77,4.65-1.95,12.17-4.45l12.2-4.07-28.36,26.72c-1.48,1.34-1.79,2.18-1.76,2.44s.67,1.15,2.74,2.14l.11.06c6.6,3.53,11.91,5,15.78,4.31l.13,0c4.32-.54,9.51-3.39,15.42-8.47,4.78-4.78,8.43-8.33,11.16-10.87a32.77,32.77,0,0,1,15.4-9.11l4.77-1.14-1.39,4.7c-1.46,5-5.93,10.33-13.66,16.42-5.08,4.1-8.37,8-9.8,11.59,11.68,3.77,21.07,1.31,28.64-7.5,2.08-2.7,7.26-7.23,16.26-14.25a5.53,5.53,0,0,1,4.71-1.25,5.69,5.69,0,0,1,3.66,3,5,5,0,0,1,1.37,3.8,5.65,5.65,0,0,1-2.56,4.1c-2.17,1.79-5.48,4.29-10.69,8.09a61.16,61.16,0,0,0-7.36,7.09,14.52,14.52,0,0,0,10.31,1.25c4.18-1.43,5.35-1.89,5.67-2l.47-.31.72-.06a16.92,16.92,0,0,1,8.28,1.42l.28.14a3.11,3.11,0,0,0,3.3,0,40.63,40.63,0,0,1,4.54-5.07c10.58-10.57,20.2-17.47,28.59-20.51l5.69-2.06-2.05,5.69c-1.5,4.14-5.4,8.74-11.6,13.66a90.84,90.84,0,0,0-8.77,8c8.38,1.18,15.2-.41,20.74-4.83,5.25-5,8.82-8.25,10.89-10.09a51.63,51.63,0,0,1,14-8.9l4.66-1.91-.79,5c-.73,4.61-3.82,9-9.2,13a43.09,43.09,0,0,0-6.64,6c7.22,2,14.27.72,21.44-4,9.64-8.16,17.53-13.76,23.45-16.67l4.33-2.13-.25,4.82A16.31,16.31,0,0,1,313,433.84l-.12.1c-1.5,1.17-2.61,2.09-3.44,2.81,4.93,1.52,7.58,1.24,9,.64l.12,0c3.07-1.14,11.33-6.92,24.55-17.18l2.55-2,1.63,2.79c2.3,3.93,1.8,8.09-1.43,11.72a19.32,19.32,0,0,0-2.6,3.6c8.84.37,20.28-.46,34.07-2.48,18.69-2.79,31.9-4.5,38.22-4.92l28.89-1.23,31.39-1.33a229,229,0,0,1-11-49.89c-1-11.81-1.52-28.51-1.52-49.72,0-38.35,1.12-66.25,3.32-82.9.31-3.7,1.92-11.36,5.36-25.56,2.65-10.22,3.71-18.22,3.23-24.52l0-.39.08-.38a6.6,6.6,0,0,1,3.63-4.54l.08,0a10,10,0,0,1,5.26-.79h.15c4.64.56,6.3,3.58,6.3,6.21,0,9.07-.29,14.91-.88,17.36l-.06.22c-6,18.36-9.58,40.35-10.77,65.36-.49,14.64-.59,37.14-.3,66.84a202.93,202.93,0,0,0,2.47,27.32c2.29,13.55,3.42,22.4,3.53,27.77a117.41,117.41,0,0,1,.49,14.74A51.48,51.48,0,0,1,482.31,426c6.09-.25,9.21-.37,9.69-.37h17.75l-16.87,5.53c-4.92,1.61-8.29,4.91-10.33,10.1-.2.74-1,4.7-2.76,15.28-1.38,8.14-6.15,13.82-14.19,16.88l-.1,0c-11.47,3.9-19.83,5.95-26.29,6.44-9.33.84-26.77,2.41-49.75,4.6C369.54,486.08,353.08,486.83,339.1,486.83ZM54.45,437.26a4.35,4.35,0,0,0-.65.38c-.8.52-1.29.84-.32,2.58,6.89,13.11,14.77,21.09,23.46,23.77,33.1,10.61,63.64,16.08,90.78,16.27,25.29.6,82.94.9,171.38.9,13.83,0,30.15-.75,49.88-2.29,22.95-2.18,40.39-3.75,49.77-4.6,5.92-.46,14.05-2.46,24.89-6.14,6.08-2.33,9.54-6.42,10.57-12.51,2.33-13.87,2.83-15.83,3.08-16.43a24.07,24.07,0,0,1,4.53-7.47l-1.59.07L479,435.22l-1.19-3.32-33.15,1.41-28.82,1.22c-6,.41-19.42,2.14-37.7,4.87-16.23,2.38-28.87,3.13-38.65,2.32l-2.36-.2-.23-2.36c-.28-3,1.25-6.33,4.69-10.24a7.72,7.72,0,0,0,.82-1.09c-11.63,8.9-18.45,13.51-21.85,14.8-4,1.67-9.61,1-17.11-2l-2.54-1,.94-2.57c.46-1.25,1.68-3,7.46-7.52q.51-.45.95-.92a178.48,178.48,0,0,0-15.41,11.87l-.27.2c-9.82,6.47-19.92,7.64-30,3.45l-2.5-1,.92-2.55a12.93,12.93,0,0,1,2-3.41q-1.86,1.74-4.14,3.92l-.18.16c-7.85,6.32-18,8.05-30.14,5.15l-3.8-.91,2-3.33c1.73-2.81,5-6.22,10.09-10.61A133.3,133.3,0,0,0,228.3,441l-.1.09a36.14,36.14,0,0,0-4.25,4.82l-.32.43-.46.28a8.86,8.86,0,0,1-9.33.42,11.32,11.32,0,0,0-4.93-1c-.79.33-2.42.93-6.1,2.19l-.23.07c-6.08,1.52-12,.3-17.61-3.63l-2.32-1.62,1.62-2.32q.82-1.18,1.81-2.38c-9.15,8.14-20.49,9.67-33.8,4.54l-2.18-.84.41-2.3a22.62,22.62,0,0,1,5.34-10.43L154.2,431l-.15.14c-6.78,5.84-13,9.15-18.43,9.86-5.2.88-11.51-.71-19.31-4.88-3.51-1.7-5.47-3.86-5.84-6.42s.83-5,3.53-7.41l7.69-7.24c-1.2.87-2.75,2.1-4.79,3.85-7.16,6.82-11.67,9.81-15,9.93-3.52.39-9-1.89-18.12-7.63l-2.25-1.41,1.26-2.34a47.44,47.44,0,0,1,6.5-9c-5.29,4.77-8.87,6.71-11.75,6.47l-.24,0c-2.16-.37-5.46-2-11.94-11.27C62.23,399,60.1,392,67.7,384.4l2.92-2.79a38.32,38.32,0,0,1-9.05,5.53l-3.12,1.26-.71-3.29c-3.33-15.39-.4-31.18,8.72-46.92,9.22-16.07,21.26-26.95,35.77-32.34l.38-.11c1.34-.29,7.49-2.59,28.8-11.67a6.27,6.27,0,0,0-4.34-.83h-.21c-7.1.12-10.86-.34-13-1.59l-3.49-2.05L113.5,287c4.07-3.35,7.11-5.79,8.95-7.24a18.94,18.94,0,0,1,12.16-4.61H136l.85,1.12a15.34,15.34,0,0,1,3.18,10.4,33.58,33.58,0,0,1-.53,5c5.52-1.83,7.18-3,7.63-3.39.21-.76.7-3.75-.63-13a49.26,49.26,0,0,1-1-11.25c-.4-33.43-.6-58.85-.6-75.5,0-30,1.35-55.7,4-76.36,1.51-12.18,3.12-15.3,4.51-16.64,1.53-1.58,4.84-3.09,17.13-2.52,74.57,2.28,132,4.3,170.73,6a231,231,0,0,1,23.46.91c9.37.42,17.59,2,24.44,4.8l3.63,1.46-2.53,3c-2.84,3.36-6.39,8-10.27,13.33l-.26.31c-6.52,6.71-19.38,21.41-40.47,46.26-16.72,19.42-31,34.45-42.58,44.69a70.25,70.25,0,0,0-5.08,5,7.23,7.23,0,0,0-.92,5.56c1,4.53.88,10.78-.27,19.06-1.69,9.92-1.59,15-1.2,17.59l.49,3.25H253.1c-2.59,0-4,.49-4.4,1a1.61,1.61,0,0,0,.6,1.49l1.42.52,2.36.86,28.06,1.38c9.21.18,16.37-2.13,21.87-7.08l.9-.81,1.21.09a24.9,24.9,0,0,0,19.21-6.5l.08-.07c3-2.48,7.71-8.12,13.89-16.76,14.31-20,37.49-44.63,68.89-73.34,6.73-6.31,17.43-17.5,30.92-32.32,13.5-14.65,23.85-25,31.66-31.65,2.1-1.86,3.26-3.6,3.23-4.86,0-.89-.68-1.85-2-2.86l-.08-.07c-1.63-1.4-4.13-2.54-9,.94a6.1,6.1,0,0,0-1.65,3.06l-.11.36c-.36.94-1.45,3.81-10.56,14.89-9.28,11.15-21.07,24-35.07,38.19-7.89,8.09-19.91,20.21-35.71,36-8.82,9.31-22.82,23-41.56,40.66l-1.11,1-1.48-.35c-1.76-.42-4.35-1.72-6.68-5.6a17.6,17.6,0,0,0-3.24-4.45c-5.52-2.06-7.21-.41-7.82.33a1.68,1.68,0,0,0,.07,2l.19.35a20.66,20.66,0,0,0,3,3.09l12.52,10.77-1.34,2.08c-5.81,9-15.86,15.3-29.89,18.81l-2.71.68-.72-2.7c-4.5-17-.53-32.59,11.83-46.42l.09-.1c11.74-11.93,20.61-21.37,26.37-28.06l101.2-117.9c4.57-5.08,10-6.09,15.4-2.89,11.42,6.89,24.26,19.44,38.19,37.29,2.46,3.37,4.11,8.85-1.71,16.2-10.13,13.08-17.1,21.44-20.68,24.81a198.34,198.34,0,0,0-30.12,33.7,2.35,2.35,0,0,0,3.14-.14l13.1-13.69,7.85-7.92c6.68-6.73,12-12,15.76-16,9-9.43,15.89-17.77,21-25.49,5.29-7.48,5.38-9.89,5.34-10.3V96.4c0-.07-.22-2.07-6.8-7.64l-.12-.11c-4-3.79-5.91-7.62-5.74-11.37.15-3.54,2.15-6.87,5.93-9.9,4.58-3.82,10-10.57,16.09-20C521.68,36,522.59,30.49,522,27.9c-.43-2.2-2.95-7-15.1-14.88a61.17,61.17,0,0,0-5.81-3c-7-2.31-13.32-.8-19.28,4.6-3,2.89-8.15,8.22-16,17.2l-.1.11c-6.67,6.88-14,11.1-21.87,12.55-.37.27-1.15.93-2.79,2.42-3,3.67-7.32,8.7-15,17.24a146.14,146.14,0,0,0-13.79,17.68c-3.29,5.67-7.37,9.65-12.16,11.81-4,1.72-9.36,2.36-16,2l-59.83-.9c-25.7-.65-44.78-1.48-60.07-2.61-18.53-1.52-46.26-2.19-82.48-2h-.17l-18.06-2c-8.18-.85-12.56-6-12.32-14.4l.3-28.37c-.2-4.65-.76-6.05-1-6.43-.51-.23-2.32-.79-7.79-.59-1.2.13-3.62.74-8.38,2.89-4.35,2.61-7.88,3.76-10.77,3.51L122,44.58l-.7-1.46a16.74,16.74,0,0,1-1.67-8.65l0-.24a52.64,52.64,0,0,1,1.48-6.14c.61-2,1.12-3.71,1.31-4.78a3.22,3.22,0,0,0-.55-2.46c-1.62-1.27-4.05-2.34-8.45-.18-3,1.83-12.43,6.67-28.93,14.77-12.09,6.1-20.85,11.62-26.77,16.87C39.85,68,28.42,83,23.79,96.9c-7.73,24.95-11.76,47.35-12,66.53l-2,171.1c-.3,8,.86,18.56,3.44,31.41,3.06,14.81,4.73,25.71,5,32.38.76,7.89,4.53,15.1,11.22,21.42,4.88,4.39,7.28,5.93,8.27,6.45l.12.07A10.16,10.16,0,0,0,44,427.7l-5.38-8.36c-5.57-8.49-6.16-11.87-5.15-14.09.82-2.34,3.82-4.85,15-9.65l2.82-1.21,1,2.9c1.76,5.2,5.11,10.41,10.24,15.92.34.32,3.34,3,15.17,13.68l2.27,2-2.21,2.11c-2,1.94-4.61,4.89-7.88,8.62l-.67.71C66.76,442.42,61.59,444.73,54.45,437.26Zm428,4.24,0,.07Zm.07-.18h0l0,.09Zm-275.88-.41,0,0Zm-1.59-19.62c-7.43,5.79-12.3,9.95-14.5,12.37,1.21-1.14,2.54-2.31,4-3.54l.15-.11c5.22-3.81,8.48-6.27,10.57-8l.12-.09,0,0-.21-.41ZM170,416.22a34,34,0,0,0-4.59,3.88l-.08.08c-1,.92-2.1,2-3.35,3.18l1-.86A63.86,63.86,0,0,0,170,416.22Zm35.83,6.13Zm-1-1.44Zm276.06-227c.42,6.82-.71,15.24-3.42,25.71-3.34,13.76-5,21.4-5.22,24.72v.14c-2.17,16.4-3.28,44.07-3.28,82.23,0,21.05.5,37.59,1.49,49.16a231,231,0,0,0,8.41,41.56,34.85,34.85,0,0,0,.64-4.43,116.13,116.13,0,0,0-.5-14v-.15c-.09-5.08-1.19-13.68-3.46-27.08A208.69,208.69,0,0,1,473,343.6c-.3-29.75-.2-52.34.3-67.1,1.21-25.5,4.91-47.94,11-66.76.23-1,.7-4.59.7-15.95a.65.65,0,0,0,0-.2,2.43,2.43,0,0,0-1.21-.38,5,5,0,0,0-2.23.2A2.17,2.17,0,0,0,480.87,193.9ZM103.15,395.54a59.26,59.26,0,0,0-6.93,6.15L97,401c2.64-2.24,4.92-4.18,6.87-5.86Zm24.88-108a11.47,11.47,0,0,1,6.13,1.6,20.51,20.51,0,0,0,.21-2.51v-.17a9.52,9.52,0,0,0-1.22-5.5,14,14,0,0,0-7.15,3.27c-1,.82-2.43,1.93-4.17,3.33,1.28.05,2.86.07,4.83,0C127.12,287.53,127.58,287.51,128,287.51Zm140.31,191q-3.56,0-7.25-.27l-4.11-.3,1.75-3.73c9.38-20,30.94-29,64.06-26.73l5.39.37-3.37,4.22C310.83,469.63,291.85,478.5,268.34,478.5Zm-2.44-5.7c20.79.56,37.82-6.14,50.76-20C291.19,452.07,274.53,458.63,265.91,472.79ZM327,477.55c-5.09,0-11.2-1-18.43-3.13l-5.1-1.48,4.07-3.42c16.13-13.55,26.16-21.17,29.82-22.64,2.46-1.1,7.73-2.19,24.57.62l5.07.84-3.42,3.84C351.7,465.56,343,473.25,337,475.72A24.24,24.24,0,0,1,327,477.55Zm-11.6-7.21c8.62,2,15.1,2,19.31.16,4.64-1.91,11.71-8,21.11-18.21-11-1.52-14.85-.83-16.19-.22l-.15.06C338.53,452.53,333.95,455,315.44,470.35Zm-121.12,7.12a29.12,29.12,0,0,1-10.54-2l-3.29-1.27,2-2.94c6.51-9.82,12.42-15.64,18.06-17.78l.09,0c5.68-1.93,13.1-1,22.69,3l3.91,1.6-3,3c-6.82,6.93-12.62,11.5-17.24,13.59h0A30.25,30.25,0,0,1,194.32,477.46Zm-5-6.23a23.26,23.26,0,0,0,15.3-1.81h0c2.35-1.06,6.32-3.55,12.41-9.32-6.17-2.06-11.06-2.51-14.58-1.33C199.73,459.82,195.34,462.88,189.32,471.23Zm47.16,6.06a129.46,129.46,0,0,1-19-1.69l-5.4-.82,3.77-3.94c9.12-9.53,17.55-15.6,25.07-18,7.25-2.63,17.26-3.35,29.65-2.12l5,.5-3,4c-8.28,11.11-15.77,17.74-22.91,20.27C246.34,476.68,242,477.29,236.49,477.29Zm-12.54-6.53c11,1.33,19,1.12,23.78-.63h0c5.1-1.81,10.83-6.58,17.07-14.21-9.13-.51-16.53.25-22.06,2.25C237.13,460,230.83,464.22,223.95,470.77Zm-62.82,5c-5.66,0-12.41-1.38-20.46-4.16l-3.4-1.18,1.94-3a30.4,30.4,0,0,1,22.4-14.28h.05c2.69-.31,17.12-.08,25.49.08l4.7.09-2.27,4.11c-5.72,10.36-13.35,16.35-22.67,17.82A28.58,28.58,0,0,1,161.13,475.74Zm-14.94-8.33c8.25,2.52,14.7,3.25,19.63,2.21l.15,0c6.27-1,11.66-4.62,16.08-10.86-12.65-.22-18.48-.16-19.7,0A24.46,24.46,0,0,0,146.19,467.42Zm218.34,8.23a59.65,59.65,0,0,1-14.31-1.79l-4.51-1.11,3-3.5C359,457.46,369.18,449.18,379,444.63c12.12-5.27,25.67-6.41,40.36-3.41l5.64,1.15-4.35,3.77q-2.17,1.88-4.21,3.62a59.42,59.42,0,0,1,38.46-13.49h8.21l-6.46,5.07c-12.11,9.5-21,17.6-26.37,24.08l-.11.13a22.48,22.48,0,0,1-13.1,6.66l-.27,0a91.36,91.36,0,0,1-14-.61l-4.74-.47,2.67-3.94a81.83,81.83,0,0,1,13.59-15.68C403.09,461,395,466.84,389.83,469.35A54.12,54.12,0,0,1,364.53,475.64Zm-8.21-6.33a49,49,0,0,0,31-5c5.11-2.47,13.31-8.52,25.05-18.48-11.25-1.41-21.66-.07-31,4C373.31,453.51,364.9,460.07,356.32,469.31Zm52-2.91a62.51,62.51,0,0,0,8,.18,16.7,16.7,0,0,0,9.71-4.86c4.51-5.41,11.24-11.82,20.06-19.13C431.3,444.83,418.66,452.81,408.31,466.4Zm-281.84,3.29c-5.73,0-13.12-2.22-22.5-6.73L101,461.55l1.78-2.71c5.92-9,11.27-13.71,16.36-14.45h0c4.61-.68,12.68,1.45,25.39,6.68l2.92,1.2L146,455.06c-4.59,8.42-10.21,13.28-16.69,14.43A19.2,19.2,0,0,1,126.47,469.69Zm-17-10.45c8.33,3.72,14.69,5.28,18.95,4.65,4-.71,7.67-3.67,11-8.8-12-4.74-17.17-5.41-19.37-5.09h0C117.95,450.3,114.51,452.2,109.44,459.24Zm323.14,7.92,2.58-4.4a41.3,41.3,0,0,1,13-13.32l.23-.14a159.75,159.75,0,0,0,14.72-8.73l4.46-3.11v5.43c0,6.76-2.87,12.55-8.54,17.19-5.73,4.41-12.88,6.73-21.33,6.94Zm18.59-12.93a39.17,39.17,0,0,0-7.57,6.54,27,27,0,0,0,11.88-5.12,17.38,17.38,0,0,0,5.28-6.85C458,450.46,454.81,452.27,451.16,454.23ZM93.53,458.74c-2.85,0-6.71-1-12.09-3.21a48.53,48.53,0,0,1-6.7-2.8l-.3-.21a9.69,9.69,0,0,1-3.68-8.63c.05-3.35,2.36-6.35,6.88-8.92,4.86-3,8.68-4,11.66-2.82l.19.08c8.3,3.89,14.2,6.54,18.58,8.35l3.37,1.39-2.18,2.92C102,454.63,99,457.29,96.78,458.12A7.91,7.91,0,0,1,93.53,458.74ZM77.81,448c1,.52,3.36,1.42,5.68,2.29,8.77,3.53,10.78,2.79,11,2.69l.28-.12c.44-.17,2.24-1.3,7.77-8.44-4-1.72-9-4-15.32-7-.92-.29-3.12.19-6.62,2.38l-.1.06c-2.58,1.46-4.06,3-4.06,4.13v.21A4.09,4.09,0,0,0,77.81,448Zm-46.3-47-1.4-1.94c-5.48-7.56-7.28-14.88-5.33-21.74,2.18-7.22,8.19-12.59,17.89-16l3.43-1.21.33,3.62c1.67,18.08.71,23.34-.16,25.73-1.36,3.59-5.37,6.91-12.61,10.47Zm9.6-32.94c-5.87,2.7-9.53,6.34-10.89,10.86s-.28,9.44,3.12,14.81c5.39-2.91,7.14-5,7.62-6.24C41.48,386,42.17,381.53,41.1,368.06Zm295.69,13.66a15.79,15.79,0,0,1-5.36-1.05c-.79-.26-3.89-.93-14-.93h-.26c-65.81-6-116.76-9.56-151.44-10.69h-.13c-6.55-.52-11.42-1.34-14.86-2.5-3.52-.83-5.7-2.28-6.69-4.42a6.83,6.83,0,0,1,.44-6.09c1.22-3.66,3.91-5.75,7.43-5.75l10.19,0c60.33,6.29,117.77,9.48,170.71,9.48,6.14,0,8.44.47,9.59.93,1.87.47,6.19,2.44,4.69,10.33-.81,4.62-2.67,7.82-5.52,9.46A9.38,9.38,0,0,1,336.79,381.72Zm-19.26-7.65c8.11,0,13.27.41,15.77,1.25s4.23,1,5.43.28c1.66-1,2.42-3.56,2.78-5.58.32-1.66.47-3.63-.54-3.83l-.38-.07-.35-.17s-1.34-.5-7.43-.5c-53.09,0-110.67-3.2-171.15-9.5H151.9c-.59,0-1.48,0-2.09,2l-.2.49c-.45.85-.44,1.26-.42,1.32s.39.71,2.94,1.29l.29.08c2.94,1,7.49,1.77,13.54,2.25C200.72,364.5,251.72,368.1,317.53,374.07ZM28.76,369.29l-1.64-2.55c-3.39-5.25-3.77-11.27-1.15-17.88,6.62-15.53,13.15-27.4,20-36.37A88,88,0,0,1,78,285.16c18.59-10,34-20.5,45.7-31.21,4.22-4.2,8.24-5.77,12-4.67l1.41.42.47,1.39c3.08,9.13.35,17.18-7.9,23.29-9,6.5-23.13,16.19-42,28.82L65.86,320.42a16,16,0,0,0-4,4.1c-.2.72-.54,1.88-1,3.6-.63,2.12-1.49,5-2.56,8.76a40.81,40.81,0,0,1-11.4,18.21c-2.09,2.21-10.67,8.69-15.63,12.38Zm104-114.6c-1.82.37-3.84,2.13-5,3.32l-.09.09c-12.06,11-27.86,21.85-47,32.11a82.53,82.53,0,0,0-30.15,25.67C44,324.39,37.53,336.2,31.21,351c-1.47,3.7-1.7,6.92-.68,9.88,7.73-5.81,11.4-8.86,12.19-9.72l.12-.12a35.33,35.33,0,0,0,9.94-15.75c1.07-3.74,1.94-6.67,2.57-8.79.56-1.9,1-3.28,1.1-3.8l.1-.4.21-.35a20.75,20.75,0,0,1,5.66-6l22-17.38c18.88-12.62,33-22.29,41.92-28.74C132.09,265.55,134.16,260.7,132.73,254.69ZM22,339l-1.84-6.6c-2.42-8.69-2.56-11.27-2.38-12.64.26-2.39,1.92-5.43,5.2-9.5a375.47,375.47,0,0,1,35.71-37.53l.21-.17c.74-.54,1.36-1,1.88-1.46-5,3.16-10.32,8-15.95,14.49C34.37,297,27.17,304,22.78,307.28l-3.49,2.58-1-4.23c-2.79-12.33-.67-22.91,6.31-31.44,2.33-3.3,7.4-8.57,16.42-17A166.06,166.06,0,0,0,53,244a10.24,10.24,0,0,0-4.26,2.55l-.1.09c-2,1.74-4.71,4.43-8.11,7.92l-.23.23L40,255c-.48.31-2.17,1.77-7.39,8.54-3.47,4.7-7.06,7.82-10.93,9.48l-4,1.69v-4.3a28.44,28.44,0,0,1,6.07-17.3l.18-.22c3.84-4.17,7.71-8.44,9.95-11.32l.09-.1q6.15-7.17,11.24-13.14L51,221.61a11.85,11.85,0,0,0-3.48,2.56c-1.63,2-3.95,5-6.86,8.77l-.54.64c-1.08,1-5.66,6.27-12.59,14.25L18.68,258l-1.21-27.9V230c.22-7.69,2.41-14.18,6.52-19.3l.16-.18c4.83-5,8.91-9.41,12.34-13.17-6.49,5.76-11.72,9.29-15.94,10.8l-3.69,1.32-.09-3.92c-.2-8.28-.3-14.33-.3-18-.21-6.85.87-12.64,3.23-17.12a67.9,67.9,0,0,1,9.62-12.69l6.49-7a12.47,12.47,0,0,0-2.72,2.05c-4.63,4.63-8.1,6.8-10.88,6.8H19.33l0-2.87c.41-32.16,10.2-60.63,29.11-84.62,17.19-21.87,38-35.76,61.78-41.31L114,30l-.23,3.79c-.2,3.26-.4,8.18-.6,14.62a64.34,64.34,0,0,1-1.48,15.3c-.73,3.2-1,9.66-.82,19.15.19,8.07-.64,14.74-2.48,19.85,2.38,10.48,2.64,26.2.77,46.77-1.66,20.56-1.48,36,.55,45.87,2.36,10,3.16,25.66,2.36,46.37a19.55,19.55,0,0,1-4.65,13.61l-.18.2c-1.4,1.4-4.36,3.63-9.6,7.23L59.33,289.52c-10.67,7.79-22.11,22.42-34,43.47Zm40.39-62a370,370,0,0,0-35,36.82c-3.46,4.3-3.9,6.13-4,6.59a14,14,0,0,0,.52,3.73C35,305.6,45.74,292.42,56,284.91l38.35-26.83a87.37,87.37,0,0,0,8.73-6.49,13.85,13.85,0,0,0,3.26-9.76v-.24c.78-20.26,0-35.41-2.23-45-2.19-10.62-2.4-26.16-.67-47.58,1.87-20.54,1.59-35.94-.83-45.8l-.21-.88.33-.84c1.78-4.5,2.59-10.72,2.4-18.49-.21-10.1.11-16.84,1-20.6a59.36,59.36,0,0,0,1.33-14.07q.2-6.58.4-11C86.87,43.07,68.41,56,52.93,75.65,35.7,97.51,26.37,123.29,25.16,152.32a40.17,40.17,0,0,0,3.94-3.53c4.27-4.15,9.29-5.61,14.52-4.24l4.59,1.2L45,149.23c-2.7,2.9-6.5,7-11.49,12.39a62.61,62.61,0,0,0-8.79,11.53c-1.87,3.57-2.74,8.41-2.56,14.36,0,3,.07,7.52.2,13.53a75.8,75.8,0,0,0,11.76-9.14c6.1-5.66,11.49-8.81,16.46-9.6l7.4-1.18-4.77,5.78c-4.14,5-11.81,13.84-24.85,27.46-3.25,4.09-5,9.38-5.2,15.71l.59,13.49c7.63-8.78,11-12.65,12.37-14l.1-.13c3-3.84,5.33-6.88,7-9l.14-.16c3.87-4.1,8.92-5.95,15-5.48l5.59.43-3.66,4.25Q55.68,224.86,49.6,232q-5.07,5.94-11.2,13.1c-1.91,2.44-4.85,5.79-10.11,11.52a24.83,24.83,0,0,0-4,7.93,32.58,32.58,0,0,0,3.86-4.43c5.21-6.77,7.31-8.81,8.55-9.7,3.39-3.48,6.09-6.18,8.24-8a14.74,14.74,0,0,1,14.38-3.84l4,1-2.36,3.38A142.14,142.14,0,0,1,45,261.2c-8.75,8.23-13.74,13.4-15.78,16.32l-.14.18c-5.05,6.14-7,13.37-6,22,4.18-3.75,10.06-9.75,17.56-17.91,8.55-9.93,16.55-16.21,24.4-19.14l3.28-1.23.51,3.47c.64,4.35-.75,6.91-2.09,8.3A24.11,24.11,0,0,1,62.39,277Zm56.55-25-.63-3.64c-2.25-12.91-1.78-16.49-1-18.29l0-.11c2-4.22,8-8.44,18.24-12.89l3.6-1.56.35,3.91c1.24,13.92,0,18.13-1.27,20.09-1.07,2.05-4,5.38-16,10.93Zm3.56-19.7c-.14.43-.57,2.59.78,11.37,8.12-4.09,9.67-6.22,10-6.82l.25-.42c.15-.21,1.32-2.21.69-12.49C125.42,228.18,123.11,231.12,122.5,232.33Zm-1.16-7.55-1.65-3.17c-4-7.75-5.24-13.61-3.64-17.9s6.95-9.26,16.63-16l3-2.09L137,189c2.78,7.34,2.42,14.15-1.06,20.26-1.89,3.64-5.77,8-11.84,13.19Zm11.38-30.16c-8.5,6.29-10.79,9.63-11.39,11.13s-.62,4.43,1.79,9.93c3.91-3.62,6.51-6.66,7.76-9.08l.06-.11A16.24,16.24,0,0,0,132.72,194.63Zm-14.25,1.55-1.18-3.85c-2.95-9.6-3.3-16.57-1.07-21.31q.2-.44.45-.9l-1-5.54c-2.83-16.33-2.64-27.28.58-33.49l.08-.14c2.19-3.68,9.37-9.27,21.94-17.06l4.33-2.68V137c0,6.46-2.63,8.25-4.92,8.59a15,15,0,0,0-9,6.53l-6.91,12a105.61,105.61,0,0,1,13.38-9.87l3.6-2.33.73,4.23c1.41,8.16.45,15.56-2.87,22l0,.09c-2.88,5.13-7.89,10.37-14.88,15.58Zm15.95-34.66c-7.45,5.1-11.82,9.06-13,11.81l0,.08c-.94,2-1.55,5.82.24,13.22,4.61-3.83,8-7.58,10-11.19A26.63,26.63,0,0,0,134.42,161.52Zm-13.14-27.74c-2.06,4.06-2.45,11.4-1.17,21.87L124,149a20.74,20.74,0,0,1,12.59-9,7.75,7.75,0,0,0,.41-3V121.44C125.47,128.85,122.19,132.31,121.28,133.78Zm-3.42-9.07-.47-4.63c-1.46-14.32-.9-23.7,1.71-28.7l0-.09a14.18,14.18,0,0,1,1.56-2.2l-1.1-3.57c-2.76-8.94-2.87-15.35-.32-19.59s10.11-9.8,22.88-17.38l3.4-2,.82,3.87c1.9,8.95-.08,16.66-5.9,22.92l-.07.07c-.17.17-.19.19-3.5,2.92l-8.2,6.77a77.75,77.75,0,0,1,12.73-5.18l2.84-.91.76,2.89c2.52,9.52,1.14,18-4.08,25.1-3.17,5.21-9.45,10.83-19.21,17.2Zm6.24-30.66c-1.26,2.44-2.44,8-1.49,20.7,6.83-4.8,11.29-9,13.57-12.82l.15-.23c3.73-5.05,5-10.77,3.89-17.42C128.85,88.33,125.23,92.08,124.09,94.06Zm17.29-38.4c-12.53,7.71-16.21,11.59-17.29,13.27-.9,1.51-1.59,4.62-.2,10.78l9.41-7.77,3.12-2.57A18.08,18.08,0,0,0,141.37,55.66ZM487.19,71.83c-2.83,0-6.34-1.29-10.37-5.31-5.57-5.37-8.91-8-10.18-8.59-.86-.43-7.75-4.87-10.67-6.75l-2.64-1.7,2-2.45a119.83,119.83,0,0,1,29.49-25.92c10-6.24,16.84-2.56,20.86,1.63,10.06,10.06,7.76,19.19,4.05,25.07-1.53,2.3-3.51,5.59-6.25,10.13l-1.62,2.67c-3.47,5-6.91,8.38-10.23,10.1A9.37,9.37,0,0,1,487.19,71.83ZM461.72,48.15c4.81,3.1,7.11,4.53,7.49,4.74,2.77,1.38,7.81,6,11.55,9.57l0,0c3.26,3.26,6,4.34,8.17,3.2,2.46-1.27,5.27-4.12,8.15-8.24L498.59,55c2.78-4.61,4.79-7.95,6.35-10.29,3.86-6.12,2.81-11.87-3.35-18-2.45-2.56-6.51-5.37-13.79-.8A115.92,115.92,0,0,0,461.72,48.15Z"
          transform="translate(-4.12 -3.33)"/>
</svg>