<?xml version="1.0" encoding="utf-8"?>
<!-- Generator: Adobe Illustrator 19.0.1, SVG Export Plug-In . SVG Version: 6.00 Build 0)  -->
<svg version="1.1" id="Графика" xmlns="http://www.w3.org/2000/svg" xmlns:xlink="http://www.w3.org/1999/xlink" x="0px"
	 y="0px" viewBox="0 0 24.8 33.6" style="enable-background:new 0 0 24.8 33.6;" xml:space="preserve">
<g>
	<g>
		<g>
			<path d="M6.4,5.5c0.3,5.4,0.6,10.8,1.2,16.1c0.3,2.6,0.5,5.2,0.9,7.7c0.1,1,0.2,2.1,0.5,3.1c0.1,0.5-0.1,0.2,0.1,0.3
				c0.1,0.1,0.4,0,0.5,0c0.4,0,0.9-0.1,1.3-0.2c3.9-0.8,7.7-3,10.9-5.3c0.7-0.5,1.4-1.1,2-1.8c0.3-0.4,0-0.4-0.3-0.9
				c-0.4-0.4-0.7-0.9-1.1-1.3c-1.6-1.9-3.3-3.7-4.9-5.5c-3.8-4.1-7.6-8-11.6-11.9C5.5,5.5,6,5,6.3,5.3c3.7,3.7,7.4,7.4,10.9,11.2
				c1.8,2,3.7,4,5.4,6.1c0.4,0.5,0.8,0.9,1.2,1.4c0.2,0.3,0.9,0.8,0.9,1.2c0.1,0.5-0.8,1.2-1.2,1.5c-3.1,2.9-7.3,5.1-11.3,6.3
				c-0.8,0.2-3.4,1.1-3.9,0.2c-0.2-0.4-0.2-1.2-0.3-1.7c-0.1-0.6-0.2-1.3-0.3-1.9c-0.2-1.4-0.4-2.8-0.5-4.2C6.5,18.8,6,12.2,5.7,5.6
				C5.7,5.1,6.4,5.1,6.4,5.5L6.4,5.5z"/>
		</g>
		<g>
			<path d="M8.1,28.3c2.7,1,5.5,1.6,8.2,2.4c0.4,0.1,0.3,0.8-0.1,0.7c-2.8-0.8-5.7-1.4-8.4-2.4C7.4,28.8,7.7,28.1,8.1,28.3L8.1,28.3
				z"/>
		</g>
		<g>
			<path d="M7.8,24.7c2.1,0.8,4.3,1.3,6.4,1.9c2,0.6,4.1,1.3,6.2,1.7c0.5,0.1,0.3,0.8-0.1,0.7c-2.1-0.5-4.1-1.1-6.1-1.7
				c-2.2-0.6-4.5-1.2-6.6-2C7,25.3,7.3,24.6,7.8,24.7L7.8,24.7z"/>
		</g>
		<g>
			<path d="M7.3,20.7c0.9,0.4,1.9,0.6,2.8,0.9c1.8,0.5,3.6,1,5.3,1.5c2.9,0.8,5.7,1.6,8.6,2.3c0.4,0.1,0.3,0.8-0.1,0.7
				c-3-0.7-5.9-1.6-8.9-2.4c-1.7-0.5-3.5-1-5.2-1.5c-1-0.3-2-0.5-2.9-0.9C6.6,21.2,6.9,20.5,7.3,20.7L7.3,20.7z"/>
		</g>
		<g>
			<path d="M7,16.8c4.7,1.5,9.5,2.8,14.2,4.2c0.4,0.1,0.2,0.8-0.3,0.7c-4.7-1.5-9.5-2.7-14.2-4.2C6.3,17.3,6.5,16.7,7,16.8L7,16.8z"
				/>
		</g>
		<g>
			<path d="M6.8,13.1c1.7,0.7,3.3,1.2,5,1.8c1.8,0.7,3.7,1.5,5.6,1.9c0.4,0.1,0.3,0.8-0.1,0.7c-1.9-0.5-3.7-1.3-5.6-1.9
				C10,15,8.2,14.4,6.5,13.7C6.1,13.6,6.3,12.9,6.8,13.1L6.8,13.1z"/>
		</g>
		<g>
			<path d="M6.4,9.4c2.1,0.9,4.3,1.7,6.5,2.5c0.4,0.2,0.1,0.8-0.3,0.7c-2.2-0.8-4.3-1.6-6.5-2.5C5.7,9.9,6,9.3,6.4,9.4L6.4,9.4z"/>
		</g>
	</g>
	<g>
		<path d="M6.4,6C5.2,6.7,3.9,7.2,2.6,7.6C1.8,7.8,0.8,8.1,0.2,7.3c-0.7-1,0.4-2,1.3-2.3c0.5-0.2,1.1-0.2,1.6-0.2
			C3.6,4.8,4,4.9,4.4,5c0.1,0,1,0.3,1.1,0.3c0,0.1-0.1,0.3-0.1,0.4c0,0-0.8-0.3-0.9-0.4C4.3,5.2,4.1,5.1,3.9,5
			C3.4,4.6,3,4.2,2.6,3.8C2.1,3.2,1.4,2.1,1.9,1.3C2.5,0.5,3.5,1,4,1.5C4.6,1.9,5,2.5,5.3,3c0.1,0.2,0.3,0.4,0.4,0.7
			c0.1,0.1,0.4,1,0.4,1C6,4.7,5.8,4.7,5.7,4.8c0,0-0.2-1-0.2-1.1c0-0.2,0-0.5,0-0.7c0.1-0.6,0.3-1.3,0.6-1.8
			c0.5-0.7,1.5-1.4,2.3-0.9C9.2,0.6,9.2,1.6,9,2.4c-0.2,0.5-0.4,1-0.7,1.5C8.1,4.1,7.9,4.4,7.6,4.7c-0.1,0.2-0.9,0.8-0.9,1
			C6.6,5.5,6.6,5.4,6.5,5.2c0,0,0.8-0.4,0.9-0.4C7.7,4.7,8,4.7,8.3,4.6c0.4,0,0.9,0,1.3,0.1c0.7,0.2,1.8,0.8,1.7,1.7
			c-0.1,0.7-0.9,1.1-1.6,1.2c-0.4,0-0.8-0.1-1.2-0.3C8.1,7.2,7.9,7.1,7.6,6.9C7.4,6.8,6.6,6.2,6.5,6.2C6.6,6.1,6.7,6,6.8,5.9
			C6.8,6,7.7,6.8,7.9,7c0.3,0.4,0.6,0.9,0.8,1.4c0.2,0.7,0.4,2-0.4,2.4c-0.8,0.4-1.5-0.3-2-0.9C6,9.4,5.9,8.9,5.8,8.4
			C5.7,8,5.7,7.6,5.7,7.2c0-0.1,0.1-0.7,0.1-0.7c0.2,0,0.3,0.1,0.5,0.1C6.2,6.7,6.1,7.4,6,7.5C5.9,7.8,5.8,8.1,5.6,8.4
			C5.3,9,4.9,9.5,4.5,9.9c-0.6,0.6-1.7,1.4-2.4,0.5C1.5,9.7,2,8.7,2.5,8.1c0.9-1.2,2.2-2,3.5-2.7C6.3,5.2,6.8,5.7,6.4,6
			C5.6,6.4,4.8,6.9,4.2,7.5C3.8,7.8,2.3,9,2.6,9.6C3.1,11,4.9,8.2,5.1,7.8C5.3,7.3,5.4,6.3,5.9,6C6,5.9,6.2,5.9,6.4,6.1
			c0.3,0.4,0.1,1.3,0.1,1.8c0,0.5,0.1,1.1,0.4,1.6c0.3,0.5,1.1,1.1,1.2,0c0.1-0.8-0.4-1.6-0.9-2.2C6.9,6.9,6.1,6.4,6.1,5.9
			c0-0.2,0.1-0.4,0.3-0.4c0.5-0.1,4,2.7,4.1,0.7c0-0.9-1.9-1-2.4-0.9C7.5,5.5,6.8,6.1,6.2,5.9C6,5.8,6,5.7,6,5.5
			C6.1,4.9,7,4.3,7.4,3.8c0.5-0.6,1.2-1.6,1-2.5C8.2,0.2,7,1,6.6,1.7C6.4,2.1,6.3,2.6,6.2,3c-0.1,0.7,0.3,1.6,0,2.2
			C6.2,5.4,5.9,5.4,5.8,5.3C5.3,5.1,5,3.9,4.7,3.4C4.4,3,4.1,2.5,3.7,2.2C3.3,1.8,2.4,1.4,2.6,2.4c0.2,0.8,1.1,1.5,1.7,2
			C4.7,4.6,5.8,4.9,6,5.4c0.1,0.1,0,0.3-0.1,0.4C5.5,6.1,4.6,5.8,4.1,5.7C3.4,5.5,0.3,5.3,1,6.8c0.2,0.4,0.2,0.4,0.6,0.3
			C1.8,7.1,2,7,2.2,6.9c0.4-0.1,0.8-0.3,1.2-0.4c0.9-0.3,1.7-0.7,2.5-1.1C6.3,5.2,6.8,5.7,6.4,6L6.4,6z"/>
	</g>
</g>
</svg>
