<svg id="Режим_изоляции" data-name="Режим изоляции" xmlns="http://www.w3.org/2000/svg" viewBox="0 0 22.78 20.35"><defs><style>.cls-1{fill:none;}.cls-2{fill:#a9cb58;}</style></defs><title>icon-a</title><polygon class="cls-1" points="10.16 4.59 7.97 11.57 12.43 11.57 10.22 4.59 10.16 4.59"/><path class="cls-2" d="M21.72,18.07c-1.07,0-1.51-.43-2.12-2.31L14.46,0H8.31L3.17,15.76c-.61,1.88-1,2.31-2.12,2.31H0v2.29H9.05V18.07h-.9c-.83,0-1.91-.09-1.91-.59a7,7,0,0,1,.46-2l.37-1.23h6.28L14,16.5a4.07,4.07,0,0,1,.15,1.11c0,.34-.77.46-1.69.46h-.92v2.29H22.78V18.07ZM8,11.57l2.18-7h.06l2.22,7Z"/></svg>