<?xml version="1.0" encoding="utf-8"?>
<!-- Generator: Adobe Illustrator 21.0.0, SVG Export Plug-In . SVG Version: 6.00 Build 0)  -->
<svg version="1.1" id="Слой_1" xmlns="http://www.w3.org/2000/svg" xmlns:xlink="http://www.w3.org/1999/xlink" x="0px" y="0px"
	 viewBox="0 0 124.5 68.8" style="enable-background:new 0 0 124.5 68.8;" xml:space="preserve">
<path d="M65,30.5c4.2,2.7,12.4,9.7,16.5,12.6c8.7,7.9,27.3,27.1,35.7,25.7c3.1-0.5,7.7-3.7,7.3-10.7c0-9-13.9-23-29.3-35
	c-7-6.7-20-15-27.5-21c-4-3.1-11.2-2.7-14.8,0.9c-10,9.8-19.8,19.7-30.6,28.7C14,38.6,3.2,44.7,0.2,55.7c-1.1,4.3,1.6,9.4,6,10.4
	c12.4,2.8,24.8-7.9,33.7-15.3c2.3-1.9,4.5-3.8,6.7-5.8"/>
</svg>
