<?xml version="1.0" encoding="utf-8"?>
<!-- Generator: Adobe Illustrator 22.1.0, SVG Export Plug-In . SVG Version: 6.00 Build 0)  -->
<svg version="1.1" id="Слой_1" xmlns="http://www.w3.org/2000/svg" xmlns:xlink="http://www.w3.org/1999/xlink" x="0px" y="0px"
	 viewBox="0 0 16 15.2" style="enable-background:new 0 0 16 15.2;" xml:space="preserve">
<style type="text/css">
	.st0{fill:#604E42;}
</style>
<path class="st0" d="M8,0.6c-1.6,0-2.9,2.1-2.9,4.2S6.4,8.5,8,8.5s2.9-1.7,2.9-3.7S9.6,0.6,8,0.6 M8,9C6.1,9,4.6,7.1,4.6,4.8
	S6.1,0.1,8,0.1s3.4,2.4,3.4,4.7S9.9,9,8,9"/>
<path class="st0" d="M8,9.1c-1.9,0-3.5-1.9-3.5-4.3c0-1.2,0.4-2.3,1-3.3C6.2,0.5,7.1,0,8,0s1.8,0.5,2.5,1.5c0.6,0.9,1,2.1,1,3.3
	C11.5,7.2,9.9,9.1,8,9.1z M8,0.1c-1.9,0-3.4,2.4-3.4,4.6c0,2.3,1.5,4.2,3.4,4.2s3.4-1.9,3.4-4.2C11.4,2.6,9.9,0.1,8,0.1z M8,8.6
	c-1.6,0-3-1.7-3-3.8c0-1,0.3-2.1,0.9-2.9C6.5,1,7.2,0.5,8,0.5S9.5,1,10.1,1.9C10.7,2.7,11,3.8,11,4.8C11,6.9,9.6,8.6,8,8.6z M8,0.7
	C7.3,0.7,6.6,1.1,6,2C5.5,2.8,5.2,3.8,5.2,4.8c0,2,1.3,3.6,2.8,3.6s2.8-1.6,2.8-3.6c0-1-0.3-2-0.8-2.8C9.4,1.1,8.7,0.7,8,0.7L8,0.7z
	"/>
<path class="st0" d="M5.9,5C5.7,5,5.6,4.9,5.6,4.8l0,0c0-1.7,1.1-3.2,2.4-3.2c0.1,0,0.3,0.1,0.3,0.3S8.1,2.1,8,2.1
	c-1,0-1.9,1.2-1.9,2.6C6.1,4.9,6,5,5.9,5"/>
<path class="st0" d="M5.9,5.1C5.7,5.1,5.5,5,5.5,4.8C5.5,3,6.7,1.5,8,1.5c0.2,0,0.3,0.1,0.3,0.3C8.4,2,8.2,2.2,8,2.2c0,0,0,0,0,0
	c-1,0-1.8,1.2-1.8,2.6C6.2,5,6.1,5.1,5.9,5.1z M8,1.7c-1.3,0-2.3,1.4-2.3,3.1C5.7,4.9,5.8,5,5.9,5C6,5,6.1,4.9,6.1,4.8
	C6.1,3.3,7,2.1,8,2.1c0.1,0,0.2-0.1,0.2-0.2C8.2,1.8,8.1,1.7,8,1.7L8,1.7z"/>
<path class="st0" d="M1.4,6.9c-0.1,0-0.3-0.1-0.3-0.3l0,0c0-1.7,1.1-3.2,2.4-3.2c0.1,0,0.3,0.1,0.3,0.3C3.8,3.9,3.7,4,3.5,4
	c-1,0-1.9,1.2-1.9,2.6C1.7,6.8,1.5,6.9,1.4,6.9C1.4,6.9,1.4,6.9,1.4,6.9"/>
<path class="st0" d="M1.4,7C1.2,7,1.1,6.8,1.1,6.6c0-1.8,1.1-3.2,2.5-3.2c0.2,0,0.3,0.1,0.3,0.3c0,0.2-0.1,0.3-0.3,0.3l0,0
	c-1,0-1.8,1.2-1.8,2.6C1.7,6.8,1.6,7,1.4,7C1.4,7,1.4,7,1.4,7z M3.5,3.5c-1.3,0-2.3,1.4-2.3,3.1c0,0.1,0.1,0.2,0.2,0.2
	c0.1,0,0.2-0.1,0.2-0.2c0-1.5,0.9-2.7,1.9-2.7c0.1,0,0.2-0.1,0.2-0.2C3.7,3.6,3.6,3.5,3.5,3.5z"/>
<path class="st0" d="M12.5,10.9c-1.4,0-2.6-1-3.2-2.6l0.5-0.2c0.5,1.3,1.5,2.2,2.7,2.2c1.6,0,2.9-1.7,2.9-3.7s-1.3-3.7-2.9-3.7
	c-0.5,0-1,0.2-1.4,0.5L10.8,3c0.5-0.4,1.1-0.6,1.7-0.6c1.9,0,3.4,1.9,3.4,4.2S14.4,10.9,12.5,10.9"/>
<path class="st0" d="M12.5,10.9c-1.4,0-2.7-1-3.2-2.6l0-0.1L9.9,8l0,0.1c0.5,1.3,1.5,2.2,2.6,2.2c1.6,0,2.8-1.6,2.8-3.6
	S14.1,3,12.5,3c-0.5,0-1,0.2-1.4,0.5l-0.1,0L10.7,3l0.1,0c0.5-0.4,1.2-0.6,1.8-0.6c1.9,0,3.5,1.9,3.5,4.3S14.4,10.9,12.5,10.9z
	 M9.4,8.3c0.5,1.5,1.7,2.4,3.1,2.4c1.9,0,3.4-1.9,3.4-4.2s-1.5-4.2-3.4-4.2c-0.6,0-1.1,0.2-1.6,0.5l0.2,0.3C11.5,3,12,2.9,12.5,2.9
	c1.6,0,3,1.7,3,3.8s-1.3,3.8-3,3.8c-1.2,0-2.2-0.9-2.7-2.2L9.4,8.3z"/>
<path class="st0" d="M3.5,10.9c-1.9,0-3.4-1.9-3.4-4.2s1.5-4.2,3.4-4.2c0.6,0,1.2,0.2,1.7,0.6L4.9,3.4C4.5,3.1,4,2.9,3.5,2.9
	c-1.6,0-2.9,1.7-2.9,3.7s1.3,3.7,2.9,3.7c1.1,0,2.2-0.9,2.7-2.2l0.5,0.2C6.1,9.9,4.9,10.9,3.5,10.9"/>
<path class="st0" d="M3.5,10.9C1.6,10.9,0,9,0,6.6s1.6-4.3,3.5-4.3c0.6,0,1.2,0.2,1.8,0.6l0.1,0L5,3.5l-0.1,0C4.5,3.2,4,3,3.5,3
	C1.9,3,0.7,4.6,0.7,6.6s1.3,3.6,2.8,3.6c1.1,0,2.1-0.8,2.6-2.2l0-0.1l0.6,0.2l0,0.1C6.2,9.9,4.9,10.9,3.5,10.9z M3.5,2.5
	c-1.9,0-3.4,1.9-3.4,4.2s1.5,4.2,3.4,4.2c1.3,0,2.5-1,3.1-2.4L6.2,8.2c-0.5,1.3-1.5,2.2-2.7,2.2c-1.6,0-3-1.7-3-3.8s1.3-3.8,3-3.8
	c0.5,0,1,0.2,1.4,0.5L5.1,3C4.6,2.7,4.1,2.5,3.5,2.5L3.5,2.5z"/>
<path class="st0" d="M3.1,11.4H4l-0.1-0.5H3.2L3.1,11.4z M4.3,11.9H2.7c-0.1,0-0.3-0.1-0.3-0.3c0,0,0,0,0-0.1l0.3-1.1
	c0-0.1,0.1-0.2,0.3-0.2H4c0.1,0,0.2,0.1,0.3,0.2l0.3,1.1C4.6,11.7,4.5,11.9,4.3,11.9C4.3,11.9,4.3,11.9,4.3,11.9L4.3,11.9z"/>
<path class="st0" d="M4.3,12H2.7c-0.1,0-0.2,0-0.3-0.1c-0.1-0.1-0.1-0.2-0.1-0.3l0.3-1.1c0-0.1,0.2-0.3,0.3-0.3H4
	c0.2,0,0.3,0.1,0.3,0.3l0.3,1.1C4.7,11.7,4.6,11.9,4.3,12C4.4,12,4.3,12,4.3,12L4.3,12z M3,10.4c-0.1,0-0.2,0.1-0.2,0.1l-0.3,1.1
	c0,0.1,0,0.2,0.1,0.2c0,0,0,0,0,0h1.6c0.1,0,0.2-0.1,0.2-0.2c0,0,0,0,0,0l-0.3-1.1c0-0.1-0.1-0.1-0.2-0.1L3,10.4z M4.1,11.5H3
	l0.2-0.7h0.8L4.1,11.5z M3.1,11.3h0.7l-0.1-0.4H3.2L3.1,11.3z"/>
<path class="st0" d="M7.5,9.5h0.9L8.3,9H7.7L7.5,9.5z M8.8,10.1H7.2c-0.1,0-0.3-0.1-0.3-0.3c0,0,0,0,0-0.1l0.3-1.1
	c0-0.1,0.1-0.2,0.3-0.2h1.1c0.1,0,0.2,0.1,0.3,0.2L9,9.7C9.1,9.9,9,10,8.8,10.1C8.8,10.1,8.8,10.1,8.8,10.1z"/>
<path class="st0" d="M8.8,10.1H7.2C7,10.1,6.9,10,6.9,9.8c0,0,0-0.1,0-0.1l0.3-1.1c0-0.1,0.2-0.3,0.3-0.3h1.1c0.2,0,0.3,0.1,0.3,0.3
	l0.3,1.1C9.2,9.9,9.1,10.1,8.8,10.1C8.8,10.1,8.8,10.1,8.8,10.1L8.8,10.1z M7.5,8.6c-0.1,0-0.2,0.1-0.2,0.1L7,9.8
	c0,0.1,0,0.2,0.1,0.2c0,0,0,0,0,0h1.6C8.9,10,9,9.9,9,9.8c0,0,0,0,0,0L8.7,8.7c0-0.1-0.1-0.1-0.2-0.1L7.5,8.6z M8.5,9.6H7.5l0.2-0.7
	h0.8L8.5,9.6z M7.6,9.5h0.7L8.3,9.1H7.7L7.6,9.5z"/>
<path class="st0" d="M12,11.4h0.9l-0.1-0.5h-0.6L12,11.4z M13.3,11.9h-1.6c-0.1,0-0.3-0.1-0.3-0.3c0,0,0,0,0-0.1l0.3-1.1
	c0-0.1,0.1-0.2,0.3-0.2H13c0.1,0,0.2,0.1,0.3,0.2l0.3,1.1C13.6,11.7,13.5,11.9,13.3,11.9C13.3,11.9,13.3,11.9,13.3,11.9L13.3,11.9z"
	/>
<path class="st0" d="M13.3,12h-1.6c-0.2,0-0.3-0.2-0.3-0.3c0,0,0-0.1,0-0.1l0.3-1.1c0-0.1,0.2-0.3,0.3-0.3H13c0.2,0,0.3,0.1,0.3,0.3
	l0.3,1.1C13.7,11.7,13.5,11.9,13.3,12C13.3,12,13.3,12,13.3,12L13.3,12z M12,10.4c-0.1,0-0.2,0.1-0.2,0.1l-0.3,1.1
	c0,0.1,0,0.2,0.1,0.2c0,0,0,0,0,0h1.6c0.1,0,0.2-0.1,0.2-0.2c0,0,0,0,0,0l-0.3-1.1c0-0.1-0.1-0.1-0.2-0.1L12,10.4z M13,11.5h-1.1
	l0.2-0.7h0.8L13,11.5z M12.1,11.3h0.7l-0.1-0.4h-0.5L12.1,11.3z"/>
<path class="st0" d="M4,15.1c-0.1,0-0.3-0.1-0.3-0.3c0-0.1,0.1-0.3,0.3-0.3c0.1,0,0.3-0.1,0.3-0.3V14c0-0.1-0.1-0.3-0.3-0.3
	c-0.4,0-0.8-0.4-0.8-0.8v-1.3c0-0.1,0.1-0.3,0.3-0.3c0.1,0,0.3,0.1,0.3,0.3l0,0V13c0,0.1,0.1,0.3,0.3,0.3c0.4,0,0.8,0.4,0.8,0.8v0.3
	C4.8,14.7,4.5,15.1,4,15.1"/>
<path class="st0" d="M4,15.2c-0.2,0-0.3-0.2-0.3-0.3c0-0.2,0.2-0.3,0.3-0.3c0.1,0,0.2-0.1,0.2-0.2V14c0-0.1-0.1-0.2-0.2-0.2
	c-0.5,0-0.9-0.4-0.9-0.9v-1.3c0-0.2,0.1-0.3,0.3-0.3c0.2,0,0.3,0.1,0.3,0.3c0,0,0,0,0,0V13c0,0.1,0.1,0.2,0.2,0.2
	c0.5,0,0.9,0.4,0.9,0.9v0.3C4.9,14.8,4.5,15.2,4,15.2z M3.5,11.5c-0.1,0-0.2,0.1-0.2,0.2V13c0,0.4,0.3,0.7,0.7,0.7
	c0.2,0,0.3,0.2,0.3,0.3v0.3c0,0.2-0.2,0.3-0.3,0.3c-0.1,0-0.2,0.1-0.2,0.2S3.9,15,4,15c0.4,0,0.7-0.3,0.7-0.7V14
	c0-0.4-0.3-0.7-0.7-0.7c-0.2,0-0.3-0.2-0.3-0.3v-1.3C3.7,11.5,3.6,11.5,3.5,11.5z"/>
<path class="st0" d="M8.5,13.2c-0.1,0-0.3-0.1-0.3-0.3c0-0.1,0.1-0.3,0.3-0.3c0.1,0,0.3-0.1,0.3-0.3v-0.3c0-0.1-0.1-0.3-0.3-0.3
	c-0.4,0-0.8-0.4-0.8-0.8V9.8c0-0.1,0.1-0.3,0.3-0.3c0.1,0,0.3,0.1,0.3,0.3v1.3c0,0.1,0.1,0.3,0.3,0.3c0.4,0,0.8,0.4,0.8,0.8v0.3
	C9.3,12.9,9,13.2,8.5,13.2"/>
<path class="st0" d="M8.5,13.3c-0.2,0-0.3-0.2-0.3-0.3c0-0.2,0.2-0.3,0.3-0.3c0,0,0,0,0,0c0.1,0,0.2-0.1,0.2-0.2v-0.3
	c0-0.1-0.1-0.2-0.2-0.2c-0.5,0-0.9-0.4-0.9-0.9V9.8c0-0.2,0.1-0.3,0.3-0.3c0.2,0,0.3,0.1,0.3,0.3c0,0,0,0,0,0v1.3
	c0,0.1,0.1,0.2,0.2,0.2c0.5,0,0.9,0.4,0.9,0.9v0.3C9.4,12.9,9,13.3,8.5,13.3z M8,9.6c-0.1,0-0.2,0.1-0.2,0.2v1.3
	c0,0.4,0.3,0.7,0.7,0.7c0.2,0,0.3,0.2,0.3,0.3v0.3c0,0.2-0.2,0.3-0.3,0.3c-0.1,0-0.2,0.1-0.2,0.2s0.1,0.2,0.2,0.2
	c0.4,0,0.7-0.3,0.7-0.7v-0.3c0-0.4-0.3-0.7-0.7-0.7c-0.2,0-0.3-0.2-0.3-0.3V9.8C8.2,9.7,8.1,9.6,8,9.6z"/>
<path class="st0" d="M13,15.1c-0.1,0-0.3-0.1-0.3-0.3c0-0.1,0.1-0.3,0.3-0.3c0.1,0,0.3-0.1,0.3-0.3V14c0-0.1-0.1-0.3-0.3-0.3
	c-0.4,0-0.8-0.4-0.8-0.8v-1.3c0-0.1,0.1-0.3,0.3-0.3c0.1,0,0.3,0.1,0.3,0.3V13c0,0.1,0.1,0.3,0.3,0.3c0.4,0,0.8,0.4,0.8,0.8v0.3
	C13.8,14.7,13.5,15.1,13,15.1"/>
<path class="st0" d="M13,15.2c-0.2,0-0.3-0.2-0.3-0.3c0-0.2,0.2-0.3,0.3-0.3c0,0,0,0,0,0c0.1,0,0.2-0.1,0.2-0.2V14
	c0-0.1-0.1-0.2-0.2-0.2c-0.5,0-0.9-0.4-0.9-0.9v-1.3c0-0.2,0.2-0.3,0.3-0.3s0.3,0.2,0.3,0.3c0,0,0,0,0,0V13c0,0.1,0.1,0.2,0.2,0.2
	c0.5,0,0.9,0.4,0.9,0.9v0.3C13.9,14.8,13.5,15.2,13,15.2z M12.5,11.5c-0.1,0-0.2,0.1-0.2,0.2V13c0,0.4,0.3,0.7,0.7,0.7
	c0.2,0,0.3,0.2,0.3,0.3v0.3c0,0.2-0.2,0.3-0.3,0.3c-0.1,0-0.2,0.1-0.2,0.2S12.9,15,13,15c0.4,0,0.7-0.3,0.7-0.7V14
	c0-0.4-0.3-0.7-0.7-0.7c-0.2,0-0.3-0.2-0.3-0.3v-1.3C12.7,11.5,12.6,11.5,12.5,11.5C12.5,11.5,12.5,11.5,12.5,11.5z"/>
</svg>
