<?xml version="1.0" encoding="utf-8"?>
<!-- Generator: Adobe Illustrator 21.0.0, SVG Export Plug-In . SVG Version: 6.00 Build 0)  -->
<svg version="1.1" id="Capa_1" xmlns="http://www.w3.org/2000/svg" xmlns:xlink="http://www.w3.org/1999/xlink" x="0px" y="0px"
	 viewBox="0 0 83 80" style="enable-background:new 0 0 83 80;" xml:space="preserve">
<style type="text/css">
	.st0{fill:#FFFFFF;}
</style>
<g>
	<g>
		<path class="st0" d="M78.3,46.5c-0.7,0.2-1.4,0.3-2.2,0.3c-1.8,0-3.5-0.6-4.9-1.6c-1.4,1-3.1,1.6-4.9,1.6c-1.8,0-3.5-0.6-4.9-1.6
			c-1.4,1-3.1,1.6-4.9,1.6s-3.5-0.6-4.9-1.6c-1.4,1-3.1,1.6-4.9,1.6c-1.8,0-3.5-0.6-4.9-1.6c-1.4,1-3.1,1.6-4.9,1.6
			s-3.5-0.6-4.9-1.6c-1.4,1-3.1,1.6-4.9,1.6c-1.8,0-3.5-0.6-4.9-1.6c-1.4,1-3.1,1.6-4.9,1.6c-1.8,0-3.5-0.6-4.9-1.6
			c-1.4,1-3.1,1.6-4.9,1.6c-0.8,0-1.5-0.1-2.2-0.3V54h73.6L78.3,46.5L78.3,46.5z"/>
		<path class="st0" d="M4.7,71.1c0,0.1,0,0.3,0,0.4h73.5c0-0.1,0-0.3,0-0.4V56.3H4.7V71.1z"/>
		<path class="st0" d="M4.7,44.1c0.7,0.3,1.4,0.4,2.2,0.4c2.1,0,3.9-1.1,4.9-2.6c1,1.6,2.8,2.6,4.9,2.6c2.1,0,3.9-1.1,4.9-2.6
			c1,1.6,2.8,2.6,4.9,2.6s3.9-1.1,4.9-2.6c1,1.6,2.8,2.6,4.9,2.6c2.1,0,3.9-1.1,4.9-2.6c1,1.6,2.8,2.6,4.9,2.6s3.9-1.1,4.9-2.6
			c1,1.6,2.8,2.6,4.9,2.6c2.1,0,3.9-1.1,4.9-2.6c1,1.6,2.8,2.6,4.9,2.6s3.9-1.1,4.9-2.6c1,1.6,2.8,2.6,4.9,2.6
			c0.8,0,1.5-0.1,2.2-0.4c2.1-0.8,3.6-2.8,3.6-5.1c0-0.2,0-0.5,0-0.7c0-0.1,0-0.2,0-0.4v-7.1c0-1-1.1-1.9-2.5-1.9H44.5v-1.2v-1.2
			v-4.8c0-1.3-1.1-2.4-2.4-2.4h-1.3c-1.3,0-2.4,1.1-2.4,2.4v4.8v1.2v1.2H3.6c-1.4,0-2.5,0.8-2.5,1.9v7.1c0,0.1,0,0.2,0,0.4
			c0,0.2,0,0.5,0,0.7C1.1,41.2,2.6,43.2,4.7,44.1z"/>
		<path class="st0" d="M80.6,73.9H2.4c-1.3,0-2.4,1.3-2.4,3V77c0,1.6,1.1,3,2.4,3h78.3c1.3,0,2.4-1.3,2.4-3v-0.2
			C83,75.2,81.9,73.9,80.6,73.9z"/>
		<path class="st0" d="M42,17.9c0.1,0,0.2,0,0.3,0c2.7-0.6,5.4-4.2,4.8-7.5c-0.5-3-2.7-4.3-4-6.5c-0.5-0.9-0.8-2.1-0.6-3.3
			c0.1-0.8,0-0.9-0.5-0.3c-1.3,1.5-2.9,3.4-3.6,5c-0.9,1.7-0.9,3-0.4,4.8c0.1,0.5,0.3,0.8,0.4,1.2c0.3,0.6,0,1.1-0.8,0.8
			c-0.4-0.1-0.7-0.3-1-0.6c-0.6-0.5-0.8-0.5-0.7,0.3C36.6,14.7,39.1,17.8,42,17.9z"/>
	</g>
</g>
</svg>
