<?xml version="1.0" encoding="utf-8"?>
<!-- Generator: Adobe Illustrator 19.0.1, SVG Export Plug-In . SVG Version: 6.00 Build 0)  -->
<svg version="1.1" id="Слой_1" xmlns="http://www.w3.org/2000/svg" xmlns:xlink="http://www.w3.org/1999/xlink" x="0px" y="0px"
	 viewBox="0 0 17 20" style="enable-background:new 0 0 17 20;" xml:space="preserve">
<style type="text/css">
	.st0{fill:#0D0F0F;}
</style>
<path class="st0" d="M14.9,6.1c-0.3,0-0.6,0.1-0.8,0.2c-0.3-0.8-1-1.3-1.9-1.3c-0.3,0-0.6,0.1-0.9,0.2c-0.3-0.7-1-1.1-1.8-1.1
	c-0.2,0-0.4,0-0.7,0.1V2c0-1.1-0.9-2-2-2s-2,0.9-2,2v8.1L3.3,8.4l0,0C2.9,8,2.4,7.8,1.9,7.8l0,0c-0.5,0-1,0.2-1.4,0.6
	c-0.7,0.7-0.7,1.7-0.1,2.7c0.8,1.4,1.6,2.7,2.4,3.8c0.5,0.8,1.1,1.6,1.4,2.3c0.3,0.6,1.2,2.4,1.2,2.4C5.5,19.8,5.8,20,6,20h8.7
	c0.3,0,0.6-0.2,0.7-0.5c0.2-0.5,1.6-4.9,1.6-6.7V8.1C16.9,7,16,6.1,14.9,6.1z M14.2,8.1c0-0.4,0.3-0.7,0.7-0.7s0.7,0.3,0.7,0.7v4.7
	c0,1.1-0.9,4.2-1.4,5.8H6.5c-0.3-0.6-0.8-1.7-1.1-2.1C5,15.8,4.5,15,3.9,14.2c-0.7-1.1-1.6-2.4-2.3-3.7c-0.2-0.3-0.4-0.8-0.1-1.1
	C1.6,9.3,1.8,9.2,2,9.2s0.3,0.1,0.5,0.2l2.6,3c0.2,0.2,0.5,0.3,0.8,0.2s0.4-0.4,0.4-0.6V2.1c0-0.4,0.3-0.7,0.7-0.7s0.7,0.3,0.7,0.7
	v6.4c0,0.4,0.3,0.7,0.7,0.7s0.7-0.3,0.7-0.7V6.3c0-0.4,0.3-0.7,0.7-0.7s0.7,0.3,0.7,0.7v3.1c0,0.4,0.3,0.7,0.7,0.7s0.7-0.3,0.7-0.7
	V7.2c0-0.4,0.3-0.7,0.7-0.7s0.7,0.3,0.7,0.7v3.1c0,0.4,0.3,0.7,0.7,0.7s0.7-0.3,0.7-0.7L14.2,8.1L14.2,8.1z"/>
</svg>
