<?xml version="1.0" encoding="utf-8"?>
<!-- Generator: Adobe Illustrator 22.1.0, SVG Export Plug-In . SVG Version: 6.00 Build 0)  -->
<svg version="1.1" id="Слой_1" xmlns="http://www.w3.org/2000/svg" xmlns:xlink="http://www.w3.org/1999/xlink" x="0px" y="0px"
	 viewBox="0 0 26 23.5" style="enable-background:new 0 0 26 23.5;" xml:space="preserve">
<path d="M14,2.5c-1-1.6-2.9-2.5-3-2.5c-0.2-0.1-0.4,0-0.5,0.1C9.9,1,9.5,1.8,9.2,2.8C3.7,3.6,0,6,0,8.8v8.5c0,3.5,5.7,6.2,13,6.2
	s13-2.7,13-6.2V8.8C26,5.5,20.8,2.8,14,2.5z M16.2,7.4C16.2,7.3,16.2,7.3,16.2,7.4c0.3-0.1,0.7-0.1,1-0.1c1.6,0.3,2.8,1.9,3.3,2.5
	c-0.6,0.5-2.3,1.6-3.9,1.3c-0.3,0-0.5-0.1-0.8-0.2c0.3-0.7,0.2-1.4-0.2-2C16,8.5,16.2,7.9,16.2,7.4z M10.6,6.5
	c0.8,0,1.4,0.6,1.4,1.4s-0.6,1.4-1.4,1.4S9.2,8.7,9.2,7.9v0C9.2,7.1,9.9,6.5,10.6,6.5C10.6,6.5,10.6,6.5,10.6,6.5L10.6,6.5z
	 M13.7,8.6c0.8,0,1.4,0.6,1.4,1.4s-0.6,1.4-1.4,1.4s-1.4-0.6-1.4-1.4v0C12.3,9.3,12.9,8.6,13.7,8.6C13.7,8.6,13.7,8.6,13.7,8.6
	L13.7,8.6z M15.1,8.2c-0.6-0.5-1.4-0.6-2.2-0.3c0-0.4-0.1-0.7-0.3-1.1c0.3-0.7,1.1-1.1,1.9-0.8c0.7,0.3,1.1,1.1,0.8,1.9
	C15.2,8,15.2,8.1,15.1,8.2L15.1,8.2z M11,1c0.7,0.4,2.4,1.5,2.8,3.1c0.1,0.3,0.1,0.7,0.1,1c-0.7,0-1.4,0.4-1.8,1
	c-0.5-0.4-1.2-0.6-1.8-0.4C10.1,5.5,10,5.2,10,5C9.6,3.4,10.5,1.7,11,1z M25.1,17.2c0,2.9-5.6,5.4-12.1,5.4S0.9,20.1,0.9,17.2v-0.6
	c1.9,2.3,6.5,4,12.1,4s10.3-1.6,12.1-4V17.2z M25.1,14.4c0,2.9-5.6,5.4-12.1,5.4S0.9,17.3,0.9,14.4v-0.6c1.9,2.3,6.5,4,12.1,4
	s10.3-1.6,12.1-4L25.1,14.4z M25.1,11.6c0,2.9-5.6,5.4-12.1,5.4S0.9,14.5,0.9,11.6V11C2.7,13.4,7.4,15,13,15s10.3-1.6,12.1-3.9V11.6
	z M13,14.1c-6.6,0-12.1-2.5-12.1-5.4c0-2.3,3.3-4.3,8.2-5.1C9,4.2,9,4.7,9.1,5.2C9.2,5.5,9.3,5.7,9.4,6C8.3,6.7,8,8.1,8.7,9.1
	c0.6,0.9,1.7,1.3,2.7,0.9c0,1.3,1,2.3,2.3,2.3c0.6,0,1.2-0.3,1.6-0.7c0.3,0.2,0.7,0.3,1.1,0.4c0.2,0,0.5,0.1,0.7,0.1
	c2.2,0,4.1-1.7,4.2-1.8c0.2-0.1,0.2-0.4,0.1-0.5c-0.1-0.1-1.6-2.8-4.1-3.3c-0.4-0.1-0.9-0.1-1.3,0c-0.3-0.6-0.8-1-1.4-1.3
	c0-0.4,0-0.9-0.1-1.3c0-0.1-0.1-0.3-0.1-0.4c5.9,0.3,10.7,2.7,10.7,5.3C25.1,11.7,19.6,14.1,13,14.1z"/>
</svg>
