<?xml version="1.0" encoding="utf-8"?>
<!-- Generator: Adobe Illustrator 22.1.0, SVG Export Plug-In . SVG Version: 6.00 Build 0)  -->
<svg version="1.1" id="Слой_1" xmlns="http://www.w3.org/2000/svg" xmlns:xlink="http://www.w3.org/1999/xlink" x="0px" y="0px"
	 viewBox="0 0 17 18.8" style="enable-background:new 0 0 17 18.8;" xml:space="preserve">
<path d="M6.7,17.7C6,18.4,5,18.8,4,18.8s-2-0.4-2.8-1.1C0.4,17,0,16,0,14.9c0-1.1,0.4-2,1.1-2.8l6.3-6.3C7.9,5.3,8.6,5,9.3,5
	c0,0,0,0,0,0c0.7,0,1.4,0.3,1.9,0.8C11.7,6.3,12,7,12,7.7s-0.3,1.4-0.8,1.9L7,13.9c-0.1,0.1-0.3,0.1-0.5,0c-0.1-0.1-0.1-0.3,0-0.5
	l4.2-4.3c0.4-0.4,0.6-0.9,0.6-1.4c0-0.5-0.2-1-0.6-1.4c-0.4-0.4-0.9-0.6-1.4-0.6c0,0,0,0,0,0c-0.5,0-1,0.2-1.4,0.6l-6.3,6.3
	c-0.6,0.6-1,1.4-1,2.3c0,0.9,0.3,1.7,1,2.3c0.6,0.6,1.4,1,2.3,0.9s1.7-0.3,2.3-1L15,8.4c0.9-0.9,1.3-2,1.3-3.2C16.3,4,15.9,2.8,15,2
	c-0.9-0.9-2-1.3-3.2-1.3c-1.2,0-2.3,0.5-3.2,1.3L1.9,8.8c-0.1,0.1-0.3,0.1-0.5,0c-0.1-0.1-0.1-0.3,0-0.5l6.7-6.8
	c1-1,2.3-1.5,3.7-1.5c1.4,0,2.7,0.5,3.7,1.5S17,3.8,17,5.2c0,1.4-0.5,2.7-1.5,3.7L6.7,17.7z"/>
</svg>
