<svg xmlns="http://www.w3.org/2000/svg" viewBox="0 0 12 13.36"><title>icon-phone</title><path d="M1.59,4.95h0c.53,0,.69-.42.71-1a10.34,10.34,0,0,1,.33-2.17c1-.38,5.64-.53,6.61-.08a10.88,10.88,0,0,1,.43,2c.06.54.28.93.83.87a.9.9,0,0,0,.74-1.09c-.18-1.72-.37-2.29-.59-2.57S9.64.09,7,0C2.54-.12,1.51.78,1.35,1c-.31.34-.57,1-.65,3A1,1,0,0,0,1.59,4.95Z" transform="translate(0.01 0)" style="fill:#7f7d7c"/><path d="M9.78,7A4.11,4.11,0,0,1,8.21,4.06a.78.78,0,0,0-.46-.68,5.65,5.65,0,0,0-3.68-.1.5.5,0,0,0-.26.45A4,4,0,0,1,2.17,7.05,5.82,5.82,0,0,0,0,11.66c0,1.61,5.21,1.69,6.25,1.69A19.08,19.08,0,0,0,10,13c.49-.1,2-.42,2-1.37A6.25,6.25,0,0,0,9.78,7Zm-.2,5.35c-3.43.63-8.55,0-8.8-.65a5,5,0,0,1,1.94-4A4.82,4.82,0,0,0,4.61,3.9a5.46,5.46,0,0,1,2.81.2A4.87,4.87,0,0,0,9.21,7.51a5.52,5.52,0,0,1,2,4.15C11.2,11.74,10.92,12.07,9.58,12.31Z" transform="translate(0.01 0)" style="fill:#7f7d7c"/><path d="M6.33,7c-.55-.1-1.6,0-2.54,1.43h0a1.72,1.72,0,0,0,0,1.61,2.92,2.92,0,0,0,1.92,1.71,1.92,1.92,0,0,0,.4,0,2.28,2.28,0,0,0,1.59-.7A2.27,2.27,0,0,0,8.34,9,2.74,2.74,0,0,0,6.33,7Zm.73,3.36a1.46,1.46,0,0,1-1.51.36,1.37,1.37,0,0,1-.86-1.65c.16-.42.22-1,1.32-1A1.36,1.36,0,0,1,7.38,9.45,1,1,0,0,1,7.06,10.35Z" transform="translate(0.01 0)" style="fill:#7f7d7c"/></svg>