<svg version="1.1" id="Слой_1" xmlns="http://www.w3.org/2000/svg" xmlns:xlink="http://www.w3.org/1999/xlink" x="0px" y="0px"
	 viewBox="0 0 18 2.6" enable-background="new 0 0 18 2.6" xml:space="preserve">
<g>
	<path d="M16,0.3c-2.6,0.3-4.4,0.4-6.5,0.3C6.9,0.5,4.4,0.7,1.9,0.3C0.7,0.2-0.6,1.6,1,1.8c3,0.4,6.1,0.5,9.2,0.5c2.3,0,5,0,6.9-0.7
		C18.3,1.2,17.9,0,16,0.3z"/>
	<path d="M10.9,2.5c-0.2,0-0.4,0-0.7,0C7,2.5,4,2.4,1,2C0.1,1.9,0,1.4,0,1.2C0.1,0.6,1,0,1.9,0.2c1.6,0.2,3.3,0.2,4.9,0.2
		c0.9,0,1.8,0,2.7,0c2.1,0.1,3.8,0,6.5-0.3c1.2-0.2,1.8,0.2,1.9,0.6c0.1,0.4-0.2,0.8-0.8,1.1l0,0C15.4,2.4,13.1,2.5,10.9,2.5z
		 M1.7,0.5C1,0.5,0.5,0.9,0.4,1.3c0,0.3,0.4,0.4,0.6,0.4c3,0.4,5.9,0.5,9.2,0.5c2.3,0,4.9,0,6.8-0.7c0.4-0.2,0.6-0.4,0.5-0.6
		C17.5,0.6,17,0.3,16,0.5l0,0c-2.7,0.3-4.4,0.4-6.5,0.3c-0.9,0-1.8,0-2.7,0c-1.6,0-3.3,0-5-0.2C1.8,0.5,1.7,0.5,1.7,0.5z"/>
</g>
</svg>
