<?xml version="1.0" encoding="utf-8"?>
<!-- Generator: Adobe Illustrator 21.0.0, SVG Export Plug-In . SVG Version: 6.00 Build 0)  -->
<svg version="1.1" id="Слой_1" xmlns="http://www.w3.org/2000/svg" xmlns:xlink="http://www.w3.org/1999/xlink" x="0px" y="0px"
	 viewBox="0 0 22 18" style="enable-background:new 0 0 22 18;" xml:space="preserve">
<style type="text/css">
	.st0{fill:#817F7E;}
</style>
<path class="st0" d="M11.7,12.5h5.9c0.2,0,0.4-0.1,0.4-0.4V8.8c0-0.2-0.1-0.4-0.4-0.4h-5.9c-0.2,0-0.4,0.1-0.4,0.4v3.3
	C11.4,12.3,11.5,12.5,11.7,12.5z M12.1,9.2h5.1v2.6h-5.1V9.2z"/>
<path class="st0" d="M1.8,7.7h2.9c0.2,0,0.4-0.1,0.4-0.4C5.1,7.1,5,7,4.8,7h-3C1.6,7,1.5,7.1,1.5,7.3C1.5,7.6,1.6,7.7,1.8,7.7z"/>
<path class="st0" d="M6.2,7.7h2.9c0.2,0,0.4-0.1,0.4-0.4C9.5,7.1,9.4,7,9.2,7h-3C6,7,5.9,7.1,5.9,7.3C5.9,7.6,6,7.7,6.2,7.7z"/>
<path class="st0" d="M1.8,9.2h4.8C6.8,9.2,7,9,7,8.8S6.8,8.4,6.6,8.4H1.8c-0.2,0-0.4,0.1-0.4,0.4S1.6,9.2,1.8,9.2z"/>
<path class="st0" d="M9.2,8.4H8.1c-0.2,0-0.4,0.1-0.4,0.4s0.1,0.4,0.4,0.4h1.1c0.2,0,0.4-0.1,0.4-0.4C9.6,8.5,9.4,8.4,9.2,8.4z"/>
<path class="st0" d="M21.7,3.9c-0.3-0.3-0.6-0.5-1-0.6l-0.9-0.1v-1V1.5c0-0.8-0.7-1.5-1.5-1.5H1.5C0.7,0,0,0.7,0,1.5v0.7v2.9v8.1
	c0,0.7,0.4,1.2,1.1,1.4c0,0.7,0.5,1.4,1.3,1.5L19.3,18h0.1c0.7,0,1.4-0.6,1.5-1.2L22,5C22,4.6,21.9,4.2,21.7,3.9z M0.7,2.6H19v1v1.2
	H0.7V2.6z M1.5,0.7h16.9c0.4,0,0.7,0.3,0.7,0.7v0.4H0.7V1.5C0.7,1.1,1.1,0.7,1.5,0.7z M0.7,13.2V5.5H19v7.7c0,0.4-0.3,0.7-0.7,0.7
	H1.5l0,0C1.1,14,0.7,13.6,0.7,13.2z M21.3,4.8l-1.1,11.8c0,0.4-0.4,0.7-0.8,0.7L2.5,15.4c-0.4,0-0.6-0.3-0.7-0.7h16.5
	c0.8,0,1.5-0.7,1.5-1.5V5.1V3.9L20.6,4c0.2,0,0.4,0.1,0.5,0.3C21.2,4.4,21.3,4.6,21.3,4.8z"/>
</svg>
