<?xml version="1.0" encoding="utf-8"?>
<!-- Generator: Adobe Illustrator 22.1.0, SVG Export Plug-In . SVG Version: 6.00 Build 0)  -->
<svg version="1.1" id="Слой_1" xmlns="http://www.w3.org/2000/svg" xmlns:xlink="http://www.w3.org/1999/xlink" x="0px" y="0px"
	 width="90px" height="80.5px" viewBox="0 0 90 80.5" style="enable-background:new 0 0 90 80.5;" xml:space="preserve">
<style type="text/css">
	.st0{fill:#010101;}
</style>
<path class="st0" d="M88.4,0.1C73.7,5.5,59.9,13,45.7,19.6c-15.2,7-30,14.7-45.1,21.9c-0.9,0.4-0.8,2.2,0.3,2.3
	c9.9,1.4,19.6,3.5,29.3,5.8c0.2,9.9-0.1,19.8,0.1,29.7c0,1.3,1.7,1.6,2.4,0.6c5.1-7.4,10.3-14.7,15.8-21.8
	c7.7,4.6,15.3,9.2,22.6,14.4c0.6,0.5,1.7,0,1.9-0.8c2.2-11.8,4.6-23.4,8-35c3.3-11.6,6.5-23.3,9.1-35.2C90.2,0.8,89.4-0.3,88.4,0.1z
	 M31.5,47.3c-8.6-2-17.3-3.9-26-5.3c13.4-6.5,26.6-13.3,40.2-19.6c12.2-5.6,24.1-12,36.5-17.1C64.9,18.8,47.9,32.8,31.5,47.3z
	 M32.7,48.8c15-13.3,30.6-26.1,46.3-38.6c-9.4,9.3-18.8,18.5-28.2,27.8c-2.9,2.8-5.8,5.7-8.7,8.5c-1.5,1.4-2.5,2.4-3.3,3.6
	c-0.3,0.2-0.6,0.6-0.6,1c-0.5,0.9-0.9,2-1.2,3.4c-1.5,6-2.6,12.1-4.3,18.1C32.7,64.6,32.9,56.7,32.7,48.8z M34.7,72.6
	c1.5-5.3,2.5-10.7,3.7-16c0.3-1.3,0.6-2.6,1.1-3.8c2.2,1.4,4.5,2.8,6.7,4.1C42.3,62,38.4,67.2,34.7,72.6z M78.4,36.1
	c-3.2,11-5.5,22-7.6,33.2c-9.7-6.7-20-12.6-30-18.8c0.1-0.1,0.1-0.2,0.2-0.3c1.2-1.4,2.7-2.6,4-3.9c2.9-2.9,5.9-5.8,8.8-8.6
	C64.7,26.9,75.6,16.2,86.5,5.4C84.1,15.7,81.4,25.9,78.4,36.1z"/>
<path class="st0" d="M30.9,34.6c-3,1.7-6.1,3.4-9.1,5c-1.1,0.6-0.1,2.2,1,1.6c3-1.7,6.1-3.4,9.1-5C33,35.7,32,34,30.9,34.6z"/>
<path class="st0" d="M31.4,38.7c-1.4,0.7-2.9,1.5-4.3,2.2c-1.1,0.6-0.1,2.2,1,1.6c1.4-0.7,2.9-1.5,4.3-2.2
	C33.4,39.8,32.5,38.1,31.4,38.7z"/>
</svg>
