<?xml version="1.0" encoding="utf-8"?>
<!-- Generator: Adobe Illustrator 22.1.0, SVG Export Plug-In . SVG Version: 6.00 Build 0)  -->
<svg version="1.1" id="Слой_1" xmlns="http://www.w3.org/2000/svg" xmlns:xlink="http://www.w3.org/1999/xlink" x="0px" y="0px"
	 viewBox="0 0 20 14" style="enable-background:new 0 0 20 14;" xml:space="preserve">
<style type="text/css">
	.st0{clip-path:url(#SVGID_2_);}
</style>
<g>
	<defs>
		<rect id="SVGID_1_" width="20" height="14"/>
	</defs>
	<clipPath id="SVGID_2_">
		<use xlink:href="#SVGID_1_"  style="overflow:visible;"/>
	</clipPath>
	<path class="st0" d="M0,3.1C0,2.5,0.5,2,1.1,2h3.5c0.2,0,0.5-0.1,0.7-0.2L7,0.2C7.1,0.1,7.4,0,7.6,0h4.7c0.2,0,0.5,0.1,0.7,0.2
		l1.7,1.5C14.9,1.9,15.2,2,15.4,2h3.5C19.5,2,20,2.5,20,3.1v9.7c0,0.6-0.5,1.1-1.1,1.1H1.1C0.5,14,0,13.5,0,12.9V3.1z M14.1,2.5
		L12.4,1c0,0-4.7,0-4.7,0c0,0-1.7,1.5-1.7,1.5C5.6,2.8,5.1,3,4.6,3H1.1C1.1,3,1,3.1,1,3.1v9.7C1,12.9,1.1,13,1.1,13h17.7
		c0.1,0,0.1-0.1,0.1-0.1V3.1C19,3.1,18.9,3,18.9,3h-3.5C14.9,3,14.4,2.8,14.1,2.5 M10,12c-2.5,0-4.5-2-4.5-4.5C5.5,5,7.5,3,10,3
		s4.5,2,4.5,4.5C14.5,10,12.5,12,10,12 M10,11c1.9,0,3.5-1.6,3.5-3.5S11.9,4,10,4S6.5,5.6,6.5,7.5S8.1,11,10,11 M16,4.1
		C16,4.1,16.1,4,16.1,4h1.2c0.1,0,0.1,0.1,0.1,0.1v1.2c0,0.1-0.1,0.1-0.1,0.1h-1.2c-0.1,0-0.1-0.1-0.1-0.1V4.1z"/>
</g>
</svg>
