<?xml version="1.0" encoding="utf-8"?>
<!-- Generator: Adobe Illustrator 19.0.1, SVG Export Plug-In . SVG Version: 6.00 Build 0)  -->
<svg version="1.1" id="Слой_1" xmlns="http://www.w3.org/2000/svg" xmlns:xlink="http://www.w3.org/1999/xlink" x="0px" y="0px"
	 viewBox="1307.1 1329.2 24 23.1" style="enable-background:new 1307.1 1329.2 24 23.1;" xml:space="preserve">
<style type="text/css">
	.st0{fill:#9ACC4F;stroke:#000000;stroke-miterlimit:10;}
</style>
<path class="st0" d="M1308.1,1337.9l3.7,0.1l6-0.8l9.6-0.1h1.7l1.3,1l-0.2,3l-0.8,4.6l-0.2,3l-1.6,2.4l-4.4,0.6h-4.3l-3.6,0.1
	l-2.5,0.1c0,0-1.8-0.6-1.9-0.6c-0.1,0-1.3-1.5-1.3-1.5l-0.7-2.3l-0.5-3.9l-0.7-2.8l-0.1-2L1308.1,1337.9z"/>
<path d="M1330.8,1337.5c-0.7-1.2-2-1.2-3.3-1.1c0-0.1,0.1-0.3,0.1-0.4c0.7-1.9,1.4-3.8,2.1-5.8c0.1-0.1,0.1-0.2,0.1-0.3c0,0,0,0,0,0
	c0.2-0.5-0.3-0.8-0.7-0.7c-3.3-0.8-4.6,4.9-5.1,7.3c-2.9,0.1-5.8,0-8.6,0.2c-1.2-1.7-2.4-3.7-2.5-5.9c0-0.3-0.2-0.6-0.6-0.6
	c-1.3,0-2.7-0.1-3.8,0.8c-0.3,0.2-0.2,0.6,0,0.8c-0.1,0.3,0,0.8,0.5,0.7c-0.4,0-0.3-0.1,0,0.3c0.2,0.4,0.5,0.8,0.7,1.2
	c0.6,1,1.1,1.9,1.7,2.9c0,0.1,0.1,0.2,0.1,0.2c-0.6,0.1-1.3,0.2-1.9,0.2c0-0.1-0.1-0.2-0.3-0.3c-2.2-1-2.4,1.1-2.1,2.7
	c0.2,0.9,0.5,1.8,0.7,2.7c0.4,1.5,0.5,3,0.8,4.5c0.2,1.3,0.6,2.7,1.3,3.7c0.7,1,1.8,1.2,2.9,1.3c1.6,0.2,3.3,0,4.9-0.2
	c1.4-0.1,2.8-0.1,4.2,0c2.1,0.1,6,0.4,7.1-1.9c1.2-2.5,0.6-5.8,1.2-8.5C1330.8,1340.4,1331.5,1338.6,1330.8,1337.5z M1328.5,1330.4
	c-0.5,1.5-1,2.9-1.6,4.4c-0.2,0.6-0.4,1.2-0.6,1.7c-0.4,0-0.7,0-1.1,0C1325.6,1334.6,1326.5,1330.5,1328.5,1330.4z M1311.6,1335.1
	c-0.3-0.5-1.1-2.6-2-3.3c0.6-0.4,1.5-0.3,2.2-0.3c0.2,1.9,1.3,3.8,2.3,5.4c-0.3,0-0.6,0.1-0.9,0.1c-0.2,0-0.4,0.1-0.6,0.1
	C1312.3,1336.4,1311.9,1335.7,1311.6,1335.1z M1329.5,1340.8c-0.3,1.1-0.5,2.1-0.5,3.2c-0.1,1.3-0.1,2.7-0.3,4
	c-0.2,1.5-0.8,2.2-2.3,2.6c-2.4,0.5-5,0-7.4,0.1c-2.1,0.1-6.7,1.3-8.1-0.7c-1.3-1.9-1.3-5-1.7-7.3c-0.1-0.7-0.4-1.4-0.6-2.1
	c-0.1-0.4-0.4-1.6-0.3-2.2c1.2,0.3,2.6,0.1,3.9-0.1c0.3,0.5,0.5,0.9,0.8,1.4c0.2,0.4,0.5,1,0.9,1.2c0.6,0.4,1.2-0.6,0.6-1
	c0.2,0.1-0.2-0.3-0.3-0.5c-0.2-0.4-0.5-0.8-0.7-1.2c0,0-0.1-0.1-0.1-0.1c0.5-0.1,1-0.2,1.4-0.2c3.7-0.3,7.4-0.3,11.1-0.3
	c-0.1,0.1-0.1,0.3-0.2,0.4c-0.1,0.4-0.5,1.5-0.6,1.6c-0.5,0.5,0.3,1.3,0.8,0.8c0.3-0.3,0.4-0.8,0.5-1.2c0.2-0.5,0.4-1.1,0.6-1.7
	c0.1,0,0.1,0,0.2,0c0.9,0,2.5-0.5,2.7,0.9C1330,1339.2,1329.7,1340.1,1329.5,1340.8z"/>
<g>
	<path d="M1313.6,1349.4c-0.3,0-0.5-0.2-0.5-0.5l-1.1-6.6c0-0.3,0.2-0.6,0.5-0.6c0.3-0.1,0.6,0.2,0.6,0.5l1.1,6.6
		C1314.2,1349.1,1314,1349.4,1313.6,1349.4C1313.7,1349.4,1313.6,1349.4,1313.6,1349.4z"/>
	<path d="M1316.4,1349.3c-0.3,0-0.5-0.2-0.5-0.5l-0.5-6.4c0-0.3,0.2-0.6,0.5-0.6c0.3,0,0.6,0.2,0.6,0.5l0.5,6.4
		C1316.9,1349,1316.7,1349.2,1316.4,1349.3C1316.4,1349.3,1316.4,1349.3,1316.4,1349.3z"/>
	<path d="M1324.5,1349.4c-0.3,0-0.5-0.3-0.5-0.6l1.1-6.6c0-0.3,0.3-0.5,0.6-0.5c0.3,0,0.5,0.3,0.5,0.6l-1.1,6.6
		C1325.1,1349.2,1324.9,1349.4,1324.5,1349.4C1324.6,1349.4,1324.5,1349.4,1324.5,1349.4z"/>
	<path d="M1321.8,1349.3c-0.3,0-0.5-0.3-0.5-0.6l0.5-6.4c0-0.3,0.3-0.5,0.6-0.5c0.3,0,0.5,0.3,0.5,0.6l-0.5,6.4
		C1322.4,1349.1,1322.1,1349.3,1321.8,1349.3C1321.8,1349.3,1321.8,1349.3,1321.8,1349.3z"/>
	<path d="M1319.1,1349.2c-0.3,0-0.5-0.2-0.5-0.6v-6.2c0-0.3,0.2-0.6,0.5-0.6s0.5,0.2,0.5,0.6v6.2
		C1319.7,1349,1319.4,1349.2,1319.1,1349.2z"/>
</g>
</svg>
