<svg xmlns="http://www.w3.org/2000/svg" viewBox="0 0 95.23 113.85" fill="#1f1407">
    <path d="M55.83,64.5a4.43,4.43,0,0,1-2.73,1.94c-.8.39-1.68.66-2.36,1-7.3,3.57-15,4.24-23,3.82-3.52-.18-7-1.09-9.54-4.13-.34-.48-1.23-.73-1.69-1.12C12.39,63,9.2,59,6.25,54.81c-1.18-1.66-1.53-3.92-2.71-5.58a19.43,19.43,0,0,1-2-3.58c-2.22-5.4-1.73-10.75-.47-16.28a15.6,15.6,0,0,1,.72-3A30.27,30.27,0,0,1,8.27,14.06c1.57-1.82,3.26-3.21,4.91-4.91,4.83-5,11-7.23,17.77-8,1.69-.13,3.31-.38,4.88-.42C38.46.7,40.64,2,43.16,2.54a21,21,0,0,1,9.1,4.27c2.2,1.84,5,3.25,6.4,6a4,4,0,0,0,.88,1c3.68,2.93,5.18,7,6.55,11.26,1.07,3.53,1.62,7.07,2.37,10.65.53,3-.39,6-.59,9C67.21,51.07,63,55.48,59.22,60c-1.57,1.82-1.72,2.11-.13,3.85A78,78,0,0,1,69.2,78.07l.42.59c.84,1.19,1.28,1.05,2.1-.06a13,13,0,0,0,2.41-4.92c.19-.49.17-1,.36-1.51s.45-1.39,1.38-1.33S77.7,71.15,78,72c.44,1.12.79,2.12,2.13,2.24a.51.51,0,0,1,.29.15c.33,1.73,1.26,3,1.59,4.77.32,1.2-.74,2.49-1.64,3.48a3.47,3.47,0,0,1-3.09.94,1.57,1.57,0,0,0-1.83.94,1.67,1.67,0,0,0,.38,2.05c3.61,3.33,5.45,7.93,9.06,11.27a8,8,0,0,1,1.4,2.22,16.76,16.76,0,0,0,3.24,4.31c2.25,2.16,3.63,5.11,5.4,7.61.76,1.07.13,1.69-.7,2.29-1.07.76-1.46,0-1.76-.72-1.15-1.87-2.26-3.94-3.52-5.72-2.53-3.57-5.45-6.68-7.86-10.33a10.56,10.56,0,0,1-1.87-3.14,5.32,5.32,0,0,0-1.52-2.14,13.35,13.35,0,0,1-2.9-3.84c-.86-1.71-1.59-1.73-2.88-.28-1,1.08-1.84,2.2-2.77,3.4a3.71,3.71,0,0,1-5.64.61c-.74-.54-1.13-1.34-2.38-1.35-1.05,0-1.4-1-1.23-2a3.81,3.81,0,0,0-.45-2.9c-.64-1.15.09-2.39,1.49-3.2a14,14,0,0,1,4.26-1.05c1.17-.11,2.88.28,3.37-.78s-.94-1.83-1.74-2.7a32.9,32.9,0,0,1-3.68-5.43C61.28,69.92,58.46,67.46,55.83,64.5ZM63.38,22a10.14,10.14,0,0,0-1.46-3.07,38.07,38.07,0,0,0-7-7.16C52.14,9.4,48.6,10,46.82,13a7.81,7.81,0,0,1-.89,1.52A.89.89,0,0,0,46.1,16c2.42,1.14,4,3.4,6,5C53.64,22.1,54.34,24.1,56,24.9A2.82,2.82,0,0,1,57.62,27,6.49,6.49,0,0,1,58,30.47a2.76,2.76,0,0,0,1.18,2.92A18,18,0,0,1,66.31,41a2.37,2.37,0,0,0,.46-.86A9.43,9.43,0,0,0,67,38.38c.29-4.13-.72-8.07-1.72-12a3.25,3.25,0,0,0-.82-1.92c-2.4-1.87-4.68-3.83-8-3.77a11,11,0,0,1-2.59-.13c-.41-.07-.58-.31-.71-.75s.31-.58.63-.62a11.1,11.1,0,0,1,6,.92C61,20.84,62,21.33,63.38,22ZM15.26,57.18c-.45-2.9.78-5.2,1.31-7.72a7.43,7.43,0,0,1,1.72-3.37c1.53-1.62,1.52-2.15.37-4a12.23,12.23,0,0,1-1.36-3.68c-.3-1.93-.87-2.24-2.77-2.14A15,15,0,0,0,3.74,40.69a2.18,2.18,0,0,0-.65,2.61C4,44.6,4.09,46,4.58,47.41a14.69,14.69,0,0,0,2.73,4.86C9.56,54.43,12.26,55.73,15.26,57.18ZM2.37,39.51c2.56-.92,4-3.39,6.81-3.76,2.58-.4,5.07-.91,7.59-.38.15-.29.19-.49.31-.58s.1-.61,0-.73a12,12,0,0,1,.5-7.86c.38-1-.28-1.41-.94-1.83A13.15,13.15,0,0,0,6.9,22.72a3.34,3.34,0,0,0-2.8,2.35A37.4,37.4,0,0,0,1.87,37.54,3.24,3.24,0,0,0,2.37,39.51ZM31.8,20.79c-.68.3-1,.15-1.22-.21a25.8,25.8,0,0,1-1.82-2.82c-.77-1.6-1.59-1.73-3.1-.84-2.31,1.28-3.67,3.14-5.1,5.4a3.21,3.21,0,0,0,.16,4,17.39,17.39,0,0,0,3.83,3.89c.74.54,1.39.45,1.65-.45.48-2.84,2.79-4.12,4.44-5.83,2.13-2,4.62-3.81,7.87-3.26,2.73.57,4.63-.78,6.53-2.13C42.16,15.23,34.11,14,29.48,16,29.73,17.61,30.82,19.16,31.8,20.79ZM33.89,54a19.38,19.38,0,0,1-13.61-7.86c-3.2,2.8-3.5,6.41-3.59,10.05a1.79,1.79,0,0,0,1.72,2.17A7,7,0,0,1,21.89,60a3,3,0,0,0,2.4.62,3.51,3.51,0,0,1,2,.35,15.43,15.43,0,0,0,9.18.1A11.1,11.1,0,0,1,33.89,54ZM6.42,21.28A14.26,14.26,0,0,1,16,22.5c2.13,1,2.3,1.23,3.32-1.11,1.21-2.83,3.39-4.55,5.73-6,.59-.42,1.61-.25,1.9-1.35a9.93,9.93,0,0,0-5.54-4.29c-3.18-1-6-.72-8.6,2-2,2.16-3.46,5-5.87,6.84C6.15,19.14,6.39,20.23,6.42,21.28ZM40.41,4C33.92,1.6,21,3.59,18.65,7.78c3.95.78,7.43,2.41,9.55,5.91.34.48.74.54,1.1.29,2.16-1,4.43-.82,6.7-.64C35.92,9.47,37.78,6.54,40.41,4ZM54.48,62.6c.85-1.32,2.62-1.85,3.42-3.5.27-.37.63-.62.7-1,.3-3.61.16-7.08-1.47-10.39-.39-.8-1-.9-1.54-.16-1.12,1.69-2.42,3.14-3.46,5a6.58,6.58,0,0,1-2.67,2.79,6.26,6.26,0,0,0-3.16,3.85,54,54,0,0,0-1.17,5.66c-.38,2.24.08,2.63,2.15,1.52A70.74,70.74,0,0,0,54.48,62.6ZM26,68.84c1.46,0,2.57.86,3.95.78,3.27-.18,6.59,0,9.73-.64,1.41-.28,3.22-.5,3.67-1.89.86-2.57,1.92-5.11,1.87-7.94-2.25.35-2.34.23-2.88,1-1.33,1.66-3.29,2.16-5.23,2.46a21.86,21.86,0,0,1-5.41.44,2,2,0,0,0-1.83.94A14.2,14.2,0,0,1,26,68.84Zm11.91-33.1c-2.31,1.28-3,1.26-4.54-.35-.46-.39-.76-1.07-1.44-.77-1,.35-2.05.38-2.8,1.09S27.39,37.5,28,38.33c1.64,2.06,3.12,4.4,6.27,4.31,2.75-.16,5-.83,6.37-3.62,1.26-2.5,1-4.84-.09-7.44a4.25,4.25,0,0,0-3-2.5c-1.3-.33-3,.85-3.58,2-.92,1.73,1.76,2,1.28,3.56-.07.41.59.83,1.12.82A1.25,1.25,0,0,1,37.93,35.74Zm20.51-1.32a6.29,6.29,0,0,0,0,1.58c-.3,2.35.34,4.76-1.18,6.91a3.11,3.11,0,0,0,.14,3.47,16.91,16.91,0,0,1,2.67,8.29c0,.53-.21,1.22.45,1.65a10.42,10.42,0,0,0,1.93-4.59,6.4,6.4,0,0,1,1.13-2.94c2.47-2.82,2.58-5.94.71-9.08C63,37.6,60.87,36.09,58.44,34.42ZM44.93,56.69c1-.56,2.51-1.25,2.48-2.3,0-1.58.27-3.4-.83-5s-1.59-1.73-3-.52a21.7,21.7,0,0,1-5.25,3.18c-.8.39-1.51.89-2.31,1.28a1.38,1.38,0,0,0-1,1.4,11.16,11.16,0,0,0,1,5,1.23,1.23,0,0,0,2.08.67C40.26,58.92,42.87,58.32,44.93,56.69Zm3.61-4c.76-.18,1.32-.4,1.76-.54.12-.08.27-.37.51-.54a24.32,24.32,0,0,0,4.69-9.76,3,3,0,0,0-1.68-3.63c-.78-.34-1.68-.6-2.45-.94-1.07-.5-1.74-.19-2.16,1a30.77,30.77,0,0,1-3,7.12,1.29,1.29,0,0,0,.13,1.69C48,48.63,48.39,50.48,48.53,52.7ZM30.35,52c-.16-2.75.66-5.11,1.16-7.43.22-.69.4-1.71-.21-1.81-1.95-.23-2.6-1.91-3.45-3.1-.59-.83-1.2-.94-1.95-.23a8.67,8.67,0,0,1-4.56,1.63c-.53,0-1.22-.21-1.41.28C21,47.18,25.16,50,30.35,52Zm6.82-38.25c2,0,3.71.94,5.59.32,1.45,1.29,2.15.26,2.56-.92,1-2.33,2.42-4.4,5.54-4.28a36.31,36.31,0,0,0-6.46-3.82,2.75,2.75,0,0,0-3.54.55,9.16,9.16,0,0,0-3.15,5.63A24.28,24.28,0,0,1,37.18,13.76ZM19.34,26.4c-.15.29-.39.46-.43.66-1.06,3.79-.47,7.66-.28,11.45,0,.53.23,1.09,1,1.1,1.69-.13,3.52.18,5-.71a2.1,2.1,0,0,0,1.26-2.5c-.45-2.9-.93-5.59-3.89-7.25C20.95,28.66,20.7,27.05,19.34,26.4ZM43.08,47.28A5.42,5.42,0,0,0,45,45a62,62,0,0,0,3.19-7.09c1.28-3.23.69-2.81-2-3.38a3,3,0,0,0-1.05,0c-1.69.13-2.29.55-2.48,2.3A6,6,0,0,1,41,40.34c-1.8,2-1.42,4-.63,6.17S41.38,48.66,43.08,47.28Zm-31.88,11c2.08,1.92,4.07,3.72,6.06,5.53a16.11,16.11,0,0,0,5.41,3.85c.49.19.86.46,1.34.12a11.25,11.25,0,0,0,4.06-3.6c.54-.74.09-1.13-.49-1.44a6.34,6.34,0,0,1-1.3-.33A78.23,78.23,0,0,1,12.2,57.91,2,2,0,0,0,11.2,58.26ZM38.67,43.08a8.47,8.47,0,0,1-4.39.61A1.58,1.58,0,0,0,32.5,45c-.31,1.83-1.15,3.67-.93,5.49s.64,2.41,2.48,2a16.94,16.94,0,0,0,5.67-2.59c.59-.42.87-.79.36-1.51A10,10,0,0,1,38.67,43.08Zm17.75-4.19c0-2.3.2-4.25,0-6.07-.27-3.92-1.68-4.89-5.68-4.73-1.58,0-1.85.42-1.48,1.94s1.11,3.32.91,5.07c-.1.61.39.8.79.87C53,36.11,54.6,37.32,56.43,38.88Zm-13.33-15a3,3,0,0,0-1.94-1.48c-3-.93-5.74-1.29-8.26,1.21-1.1,1-1.12,1.69-.35,3.29a1.75,1.75,0,0,0,2.54,1.06c.68-.3,1.6-.77,2.25-.35,2.42,1.14,3.68-.11,4.55-2.15C42,24.82,42.83,24.76,43.09,23.86Zm5.83,10a18,18,0,0,0-1.86-6.9,4.12,4.12,0,0,0-1.76-2c-.37-.27-.86-.46-1.13-.09-1.26,1.25-2.72,2.46-3,4.29-.24,1.42.69,2.73,1.17,4.17a.71.71,0,0,0,.86.46C45,32.86,46.73,33.78,48.92,33.84ZM42.54,21.57c2.27,1.43,4.24,2.71,5.35,4.78a1.3,1.3,0,0,0,1.27.53A8.71,8.71,0,0,0,51,26.67c1-.15,2.25.91,2.86-.24.46-.86-.74-1.8-1.33-2.63a25.8,25.8,0,0,0-2.06-2.65,5.55,5.55,0,0,0-1.86-1.36C46.34,18.87,44.68,20.05,42.54,21.57ZM63.31,86.89c-.06-2.1,2.21-1.92,3.06-3.24-1.69.13-3.07.21-4.44.29-.64.1-1.76.54-1.46,1.21.49,1.44.26,3.39,1.09,4.05,1,.9,2,2.13,3.43,2.57s2.1-.06,2.14-1.52a1.87,1.87,0,0,1,1.33-1.66c.59-.42,1.56-.57,2-1.43a1.82,1.82,0,0,0-2.66.28c-.48.34-.66.83-1,1.08s-1,.67-1.37.08.14-.81.5-1.07l3.21-2.28a.88.88,0,0,1-.22-.56C67,85,65.4,86.31,63.31,86.89ZM26.55,35.05a19.12,19.12,0,0,0,3.24-1.23c1-.35,2.25-.35,2.29-1.81s1.3-2.71-.24-4.12A3.15,3.15,0,0,1,31,26.51c-.35-1-.79-.87-1.42-.24C26.89,28.73,26.7,31.73,26.55,35.05Zm51.94,42.5c.2,1.29-1.17,1.37-1.52,2.15S75.39,81,75.3,82.14c.69.22,1-.15,1-.56.27-.37.34-.78,1-.67.34.48-.16,1.54,1,1.43s2-2.16,1.81-3.25c-.55-2.29-2.85-3.52-3.52-5.72,0-.32-.54-.51-.86-.46a.65.65,0,0,0-.54.74c-.21,1.22-.62,2.4-.86,3.83,1.12-.44,1.77-1.79,3.07-1.46-.6,1.68-2.57,2.18-2.67,4C76.16,79.57,76.76,77.89,78.49,77.56Zm-4.91,4.91a1.25,1.25,0,0,0-1.63-.28c-.59.42-.26.9,0,1.25s.71.75,1.3.33A.94.94,0,0,0,73.58,82.47Zm-3.09.94c-.12.08-.12.08-.32,0a9.43,9.43,0,0,1,.62,1.88,1.13,1.13,0,0,0,.91.78c.08.12.32,0,.44-.13.19-.49-.18-.76-.35-1A9,9,0,0,0,70.49,83.41Z"/>
</svg>