<?xml version="1.0" encoding="utf-8"?>
<!-- Generator: Adobe Illustrator 19.0.1, SVG Export Plug-In . SVG Version: 6.00 Build 0)  -->
<svg version="1.1" id="Слой_1" xmlns="http://www.w3.org/2000/svg" xmlns:xlink="http://www.w3.org/1999/xlink" x="0px" y="0px"
	 viewBox="467.3 295.5 23 32.8" style="enable-background:new 467.3 295.5 23 32.8;" xml:space="preserve">
<g>
	<path d="M485.2,305.1c-0.2-0.6-0.4-1.1-0.6-1.7c-0.1-0.2-0.2-0.5,0.1-0.7c0.2-0.2,0.5,0,0.8,0.1c0.1,0.1,0.2,0.1,0.3,0.2
		c1.1,0.9,2,2,2.8,3.2c0.5,0.7,0.8,1.5,0.7,2.4c0,0.2,0.1,0.5,0.4,0.5c0,0,0,0,0.1,0c0.3,0,0.6-0.1,0.6-0.4c0-0.4,0-0.7-0.1-1.1
		c-0.2-0.9-0.6-1.7-1.1-2.4c-0.7-0.9-1.5-1.8-2.3-2.6c-0.6-0.7-1.5-1.1-2.4-1.1c-0.4,0-0.7-0.2-0.9-0.6c-0.2-0.3-0.4-0.6-0.6-0.9
		c-0.2-0.2-0.3-0.4-0.5-0.6c-0.6-0.7-1.7-0.8-2.4-0.3c-0.9,0.5-0.9,0.5-1.7-0.2c-0.8-0.6-1.6-1.3-2.4-1.8c-0.9-0.6-1.9-1-3-1.3
		c-1-0.2-2-0.2-3,0c-1.2,0.2-2.1,1-2.4,2.1c-0.3,1.2,0,2.5,0.8,3.4c0.2,0.2,0.5,0.4,0.8,0.5c0.1,0,0.2,0,0.3-0.1
		c0.1-0.1,0.1-0.2,0.1-0.3c-0.1-0.3-0.2-0.5-0.4-0.7c-0.3-0.5-0.4-1-0.5-1.6c-0.1-0.8,0.3-1.6,1.1-2c0.8-0.4,1.6-0.6,2.5-0.5
		c0.9,0.1,1.7,0.3,2.5,0.7c1.2,0.6,2.4,1.4,3.3,2.4c0.5,0.4,0.8,1.1,0.6,1.7c-0.2,1,0.1,2,0.6,2.8c0.3,0.5,0.7,0.9,1.2,1.2
		c0.3,0.2,0.8,0.3,1.1,0c0.3-0.3,0.5-0.7,0.3-1.1c-0.3-0.8-0.6-1.6-1-2.3c-0.2-0.4-0.4-0.7-0.6-1c-0.2-0.3-0.1-0.7,0.1-0.9
		c0.3-0.3,0.7-0.4,1.1-0.2c0.3,0.2,0.6,0.4,0.8,0.7c0.6,0.9,1,1.9,1,2.9c0.1,1.4,0.5,2.8,1.1,4.1c0.1,0.3,0.3,0.6,0.6,0.8
		c0.2,0.2,0.5,0.3,0.8,0.1c0.2-0.1,0.3-0.4,0.3-0.6c0-0.3-0.1-0.6-0.2-0.9C485.6,306.2,485.4,305.6,485.2,305.1L485.2,305.1z"/>
	<path d="M477.1,325.5c-0.2-0.6-0.4-1.2-0.6-1.8c-0.1-0.4-0.5-0.7-0.9-0.6c-0.6,0-1.2,0.1-1.8,0.1c-0.5,0-1,0-1.4-0.1
		c-0.4-0.1-0.7-0.4-0.6-0.8c0-0.1,0.1-0.2,0.1-0.3c0.2-0.2,0.3-0.4,0.6-0.6c0.5-0.4,0.9-0.8,1.4-1.2s0.8-0.7,1.3-1.1
		c0.5-0.4,0.8-1.1,0.6-1.7c-0.2-1.4-0.4-2.8-0.6-4.2c0-0.3-0.1-0.6-0.1-0.8c0-0.3,0.2-0.6,0.6-0.6c0.1,0,0.2,0,0.3,0.1
		c0.2,0.2,0.4,0.3,0.6,0.5c0.8,0.8,1.7,1.6,2.5,2.5c0.1,0.1,0.2,0.2,0.3,0.3c0.5,0.7,1.3,0.8,2,0.4c1.2-0.5,2.4-1,3.6-1.4
		c0.3-0.1,0.5-0.2,0.8-0.2c0.2,0,0.4,0,0.6,0.1c0.2,0.2,0.2,0.4,0.1,0.6c-0.2,0.3-0.4,0.7-0.6,1c-0.4,0.7-1,1.4-1.4,2.1
		c-0.2,0.3-0.3,0.5-0.5,0.8c-0.2,0.3-0.2,0.8,0.1,1.1c0.4,0.5,0.8,0.9,1.2,1.3c0.5,0.5,0.9,1,1.3,1.6c0.5,0.7,0.3,1.2-0.4,1.6
		c-0.5,0.3-1,0.4-1.5,0.3c-0.7-0.1-1.3-0.3-2-0.4c-0.5-0.1-1-0.3-1.5-0.4c-0.7-0.2-0.9,0-1,0.7c-0.1,0.7-0.2,1.4-0.4,2
		c-0.1,0.4-0.2,0.8-0.3,1.2c-0.1,0.2-0.2,0.4-0.4,0.6c-0.3,0.3-0.7,0.2-1,0c0,0,0-0.1-0.1-0.1c-0.2-0.3-0.3-0.6-0.4-0.9
		C477.4,326.6,477.2,326.1,477.1,325.5L477.1,325.5z M478.5,325.5c0.2-0.5,0.3-0.7,0.4-0.9c0.1-0.3,0.1-0.7,0.2-1.1
		c0.1-0.6,0.6-1.1,1.2-1c0.1,0,0.1,0,0.2,0c0.6,0,1.2,0.1,1.8,0.2c0.7,0.1,1.4,0.3,2.1,0.4c0.3,0.1,0.5,0,0.6-0.3c0,0,0,0,0,0
		c-0.2-0.2-0.3-0.5-0.5-0.7c-0.6-0.7-1.2-1.3-1.8-2c-0.3-0.3-0.4-0.7-0.2-1.1c0.1-0.2,0.3-0.5,0.4-0.7c0.4-0.6,0.8-1.2,1.2-1.8
		c0.1-0.2,0.1-0.3,0.1-0.5c-0.5-0.2-0.8,0-1.1,0.1c-0.8,0.3-1.7,0.6-2.5,0.9c-0.5,0.2-1.2,0.1-1.5-0.4c-0.6-0.7-1.2-1.3-1.8-1.9
		c-0.2-0.2-0.3-0.4-0.7-0.1c0,0.2,0,0.4,0,0.7c0.1,0.9,0.2,1.8,0.3,2.6c0.1,0.6-0.1,1.3-0.7,1.7c-0.6,0.5-1.1,1-1.7,1.6
		c-0.2,0.2-0.4,0.5-0.6,0.7c0.2,0.1,0.4,0.1,0.7,0.1c0.5,0,1-0.1,1.4-0.1c1,0,1.2,0.2,1.4,1.1c0.1,0.5,0.3,1,0.5,1.5
		C478.1,324.8,478.3,325.2,478.5,325.5L478.5,325.5z"/>
	<path d="M488.8,320.4c0-0.4-0.1-0.7-0.1-1.1c0-0.1,0.2-0.3,0.3-0.3c0.1-0.1,0.2,0,0.3,0.1c0.1,0,0.1,0.1,0.2,0.2
		c0.4,0.6,0.6,1.4,0.6,2.1c0,0.1-0.1,0.4-0.2,0.4c-0.2,0-0.4-0.1-0.5-0.2C489.2,321.1,489,320.8,488.8,320.4z"/>
	<path d="M470.7,319.1c0,0,0,0.1,0,0.1c-0.1,0.8-0.4,1.5-1,2c-0.1,0.1-0.2,0.1-0.3,0c-0.1-0.1-0.3-0.3-0.2-0.4c0.1-0.8,0.4-1.5,1-2
		C470.3,318.8,470.6,318.9,470.7,319.1C470.7,319.1,470.7,319.1,470.7,319.1z"/>
	<path d="M468.1,319.8c-0.2,0.1-0.4-0.1-0.5-0.3c0,0,0,0,0-0.1c0-0.4,0.2-0.7,0.6-0.8c0.2-0.1,0.4,0,0.5,0.2c0,0,0,0,0,0
		C468.7,319.2,468.5,319.6,468.1,319.8z"/>
</g>
</svg>
