<?xml version="1.0" encoding="utf-8"?>
<!-- Generator: Adobe Illustrator 21.0.0, SVG Export Plug-In . SVG Version: 6.00 Build 0)  -->
<svg version="1.1" id="Capa_1" xmlns="http://www.w3.org/2000/svg" xmlns:xlink="http://www.w3.org/1999/xlink" x="0px" y="0px"
	 viewBox="0 0 17 17" style="enable-background:new 0 0 17 17;" xml:space="preserve">
<style type="text/css">
	.st0{fill:#817F7E;}
</style>
<g>
	<g id="Layer_2_16_">
		<g>
			<path class="st0" d="M10.2,15.5c-0.1,0-0.3,0.1-0.4,0.1c-0.4,0.1-0.6,0.4-0.5,0.8c0,0.2,0.1,0.3,0.3,0.4C9.7,17,9.9,17,10,17
				c0.2,0,0.3-0.1,0.5-0.1c0.4-0.1,0.6-0.5,0.5-0.8C11,15.7,10.6,15.4,10.2,15.5z"/>
			<path class="st0" d="M15.3,6.3c0,0.1,0.1,0.3,0.3,0.3c0.2,0.1,0.4,0.2,0.6,0.1c0.4-0.1,0.6-0.5,0.4-0.9c-0.1-0.2-0.1-0.3-0.2-0.5
				C16.3,5,15.9,4.9,15.5,5c-0.4,0.1-0.5,0.5-0.4,0.9C15.2,6,15.2,6.2,15.3,6.3z"/>
			<path class="st0" d="M12.4,14.6c-0.1,0.1-0.2,0.2-0.4,0.2c-0.3,0.2-0.4,0.6-0.3,0.9c0.1,0.1,0.1,0.2,0.2,0.2
				c0.2,0.1,0.5,0.2,0.7,0c0.1-0.1,0.3-0.2,0.4-0.3c0.3-0.2,0.4-0.6,0.2-1C13.2,14.4,12.8,14.3,12.4,14.6z"/>
			<path class="st0" d="M17,8.2c0-0.4-0.3-0.7-0.7-0.7c-0.4,0-0.7,0.3-0.7,0.7c0,0.1,0,0.3,0,0.4c0,0.2,0.1,0.5,0.3,0.6
				c0.1,0.1,0.2,0.1,0.4,0.1c0.4,0,0.7-0.3,0.7-0.7C17,8.6,17,8.4,17,8.2z"/>
			<path class="st0" d="M15.2,12.7c-0.3-0.2-0.7-0.2-1,0.1c-0.1,0.1-0.2,0.2-0.3,0.3c-0.2,0.3-0.2,0.7,0.1,1c0,0,0,0,0.1,0
				c0.3,0.2,0.7,0.2,0.9-0.1c0.1-0.1,0.2-0.3,0.3-0.4C15.5,13.4,15.5,13,15.2,12.7z"/>
			<path class="st0" d="M16.2,10.3c-0.4-0.1-0.7,0.1-0.9,0.5c0,0.1-0.1,0.3-0.1,0.4c-0.1,0.3,0,0.6,0.2,0.8c0,0,0.1,0.1,0.2,0.1
				c0.4,0.1,0.7,0,0.9-0.4c0.1-0.2,0.1-0.3,0.2-0.5C16.7,10.8,16.5,10.4,16.2,10.3z"/>
			<path class="st0" d="M7.2,15.6c-0.6-0.1-1.2-0.3-1.8-0.6c0,0,0,0,0,0c-0.1-0.1-0.3-0.1-0.4-0.2c0,0,0,0,0,0
				c-0.2-0.1-0.5-0.3-0.7-0.4c-3.2-2.3-4-6.8-1.7-10c0.5-0.7,1.1-1.3,1.8-1.8c0,0,0,0,0,0c2.3-1.6,5.5-1.7,8-0.1l-0.5,0.8
				c-0.1,0.2-0.1,0.4,0.2,0.4l2.3-0.2c0.3,0,0.4-0.3,0.3-0.5l-0.6-2.3c-0.1-0.3-0.2-0.3-0.4-0.1l-0.5,0.8c-1.8-1.2-4-1.7-6.2-1.3
				c-0.2,0-0.4,0.1-0.6,0.1c0,0,0,0,0,0c0,0,0,0,0,0C4.5,0.8,2.9,1.9,1.7,3.4c0,0,0,0,0,0c0,0.1-0.1,0.1-0.1,0.2
				C1.5,3.7,1.4,3.8,1.4,3.9c0,0,0,0,0,0c-1,1.5-1.4,3.2-1.3,5c0,0,0,0,0,0c0,0.2,0,0.3,0,0.5c0,0,0,0,0,0c0,0.2,0,0.3,0.1,0.5
				c0.3,1.8,1.1,3.4,2.4,4.6c0,0,0,0,0,0c0,0,0,0,0,0c0.3,0.3,0.7,0.6,1.1,0.9c1,0.7,2.2,1.2,3.4,1.4c0.4,0.1,0.7-0.2,0.8-0.6
				C7.9,16.1,7.6,15.7,7.2,15.6z"/>
			<path class="st0" d="M8.1,3C7.8,3,7.5,3.3,7.5,3.6v5.5l5,2.6c0.1,0,0.2,0.1,0.3,0.1c0.2,0,0.4-0.1,0.5-0.3c0.1-0.3,0-0.6-0.2-0.8
				L8.6,8.4V3.6C8.6,3.3,8.4,3,8.1,3z"/>
		</g>
	</g>
</g>
</svg>
