<?xml version="1.0" encoding="utf-8"?>
<!-- Generator: Adobe Illustrator 22.1.0, SVG Export Plug-In . SVG Version: 6.00 Build 0)  -->
<svg version="1.1" id="Слой_1" xmlns="http://www.w3.org/2000/svg" xmlns:xlink="http://www.w3.org/1999/xlink" x="0px" y="0px"
	 viewBox="0 0 23 21.4" style="enable-background:new 0 0 23 21.4;" xml:space="preserve">
<g>
	<path d="M22.8,8.3c-0.2-1.1-0.4-2.1-0.9-3.2c-0.4-0.8-0.9-1.6-1.7-2.2c-0.4-0.3-0.8-0.4-1.1-0.7C18.1,1.4,17,1,15.9,0.7
		c-1.3-0.4-2.7-0.7-4.1-0.6c-0.2,0-0.5-0.2-0.7-0.1c-0.7,0.3-1.5,0.2-2.2,0.5C7.7,0.9,6.5,1.3,5.5,2.1C5.3,2.2,5.1,2.4,4.8,2.5
		C3.8,3.2,2.9,3.9,2.3,5C1.4,6.3,0.6,7.8,0.2,9.4c-0.2,1-0.3,2-0.1,3c0.1,0.8,0.3,1.6,0.6,2.4c0.4,1.2,0.9,2.3,1.9,3.1
		c1.4,1.2,3.1,2,4.8,2.8c1.2,0.6,2.5,0.7,3.9,0.7c0.4,0,0.8,0,1.2,0c1-0.1,1.9-0.4,2.8-0.7c1.1-0.5,2.2-1,3.2-1.9
		c0.4-0.3,0.7-0.7,1.1-1c0.2-0.2,0.5-0.3,0.7-0.5c0.7-0.9,1.4-2,1.9-3c0.4-0.9,0.6-1.8,0.7-2.8C23.1,10.4,23,9.3,22.8,8.3z M21.9,11
		c-0.2,1.1-0.4,2.2-0.9,3.2c-0.6,1.1-1.3,2.1-2.2,3c-1.3,1.1-2.8,2.1-4.4,2.6c-0.9,0.3-1.7,0.6-2.8,0.6c-1,0.2-2.1,0-3.2-0.3
		c-0.7-0.2-1.3-0.5-1.9-0.8c-0.5-0.3-1-0.5-1.5-0.8c-1.3-0.7-2.3-1.5-2.9-2.8c-0.5-1.2-0.9-2.4-1-3.7C0.9,10.4,1.2,9,1.9,7.7
		c0.3-0.5,0.5-1,0.8-1.5C2.8,6,2.9,5.9,3,5.8h0c0.3-0.5,0.7-1,1-1.5C4.4,3.7,4.8,3.3,5.4,3c1.1-0.7,2.5-0.8,3.5-1.5
		c0.3-0.2,0.6-0.2,0.8-0.1h0c0.1,0,0.1,0,0.2,0c0.1,0,0.2,0,0.3,0.1c0,0,0.1,0,0.2-0.1c1.6-0.2,3.1-0.1,4.6,0.2
		C16,1.7,17,2,17.8,2.4c0.8,0.4,1.5,0.8,2.2,1.4c0.2,0.2,0.4,0.5,0.5,0.7c0.7,1.1,1.1,2.3,1.2,3.6c0,0.6,0.3,1.2,0.3,1.9
		C22,10.4,22,10.7,21.9,11z"/>
	<path d="M11.7,4.7c0,0.2,0,0.5,0,0.7c0.1,1.1,0.1,2.1,0.1,3.2c0,0.2,0,0.5,0,0.7c0,0.4,0.2,0.7,0.5,1.1c0.8,1,1.9,1.2,2.9,1.7
		c0.7,0.4,1.4,0.7,2,1.2c0.6,0.4,1.2,0.8,1.7,1.2c0.2,0.1,0.3,0.3,0.4,0.5c0.1,0.1,0.1,0.3,0,0.4c-0.1,0.1-0.3,0.3-0.5,0.1
		c-0.2-0.1-0.4-0.2-0.6-0.4c-1-0.8-2.2-1.5-3.4-2.1c-0.7-0.4-1.5-0.7-2.3-1.1c-0.2-0.1-0.3,0-0.4,0.1c-0.4,0.3-0.7,0.2-1.1,0
		c-0.2-0.2-0.5-0.3-0.6-0.7c-0.1-0.4-0.1-0.8,0.2-1.1c0.2-0.2,0.2-0.4,0.2-0.6c0-0.9,0-1.9,0-2.8c0-0.8-0.1-1.7-0.1-2.5
		c0-0.2-0.1-0.6,0.2-0.7c0.3-0.1,0.4,0.2,0.6,0.3C11.8,4,11.7,4.3,11.7,4.7z"/>
</g>
</svg>
