<svg fill="#817F7E" xmlns="http://www.w3.org/2000/svg" viewBox="0 0 25 25">
	<path class="st0" d="M3.3,3.2C3,3,2.6,3,2.3,3.2C2,3.5,2,3.8,2.3,4.1l1.6,1.5c0.1,0.1,0.3,0.2,0.5,0.2l0,0c0.2,0,0.4-0.1,0.5-0.2
		l5-4.5c0.3-0.2,0.3-0.6,0-0.9c-0.3-0.2-0.7-0.2-1,0L7.4,1.6C6.6,0.8,5.5,0.4,4.3,0.4C1.9,0.4,0,2.1,0,4.3s1.9,3.9,4.3,3.9
		c1.9,0,3.6-1.1,4.1-2.8C8.6,5.1,8.4,4.7,8,4.6C7.6,4.5,7.3,4.7,7.1,5.1C6.8,6.2,5.6,7,4.3,7C2.7,7,1.4,5.8,1.4,4.3
		s1.3-2.7,2.9-2.7c0.8,0,1.6,0.3,2.1,0.8l-2,1.8L3.3,3.2z"/>
	<path class="st0" d="M4.3,8.7C1.9,8.7,0,10.5,0,12.7s1.9,3.9,4.3,3.9s4.3-1.8,4.3-3.9S6.7,8.7,4.3,8.7z M4.3,15.4
		c-1.6,0-2.9-1.2-2.9-2.7S2.7,10,4.3,10s2.9,1.2,2.9,2.7S6,15.4,4.3,15.4z"/>
	<path class="st0" d="M8.7,21.1c0-2.2-1.9-3.9-4.3-3.9S0,18.9,0,21.1S1.9,25,4.3,25S8.7,23.2,8.7,21.1z M4.3,23.7
		c-1.6,0-2.9-1.2-2.9-2.7s1.3-2.7,2.9-2.7s2.9,1.2,2.9,2.7S6,23.7,4.3,23.7z"/>
	<path class="st0" d="M24.3,12H10.9c-0.4,0-0.7,0.3-0.7,0.6s0.3,0.6,0.7,0.6h13.4c0.4,0,0.7-0.3,0.7-0.6S24.7,12,24.3,12z"/>
	<path class="st0" d="M24.3,3.7H10.9c-0.4,0-0.7,0.3-0.7,0.6s0.3,0.6,0.7,0.6h13.4c0.4,0,0.7-0.3,0.7-0.6S24.7,3.7,24.3,3.7z"/>
	<path class="st0" d="M24.3,20.4H10.9c-0.4,0-0.7,0.3-0.7,0.6s0.3,0.6,0.7,0.6h13.4c0.4,0,0.7-0.3,0.7-0.6
		C25,20.7,24.7,20.4,24.3,20.4z"/>
</svg>
