<svg xmlns="http://www.w3.org/2000/svg" viewBox="0 0 13.97 13.81"><title>icon-o</title><path d="M13.39,1.09C12.39.17,8.25,0,5.88.13c-1.62.08-3.67.31-4.28,1C.15,2.71.16,11.41,1.6,12.89c.89.91,4.21,1,5.6,1h.29c2.19,0,5-.29,5.89-1s1.06-3.42,1.1-5c.05-2-.1-6-1.08-6.86m.29,6.83c-.07,2.62-.47,4.11-.81,4.39s-2.49.77-5.39.8c-3.09,0-4.92-.38-5.31-.77-1-1.07-1.28-9.26,0-10.69C2.44,1.36,3.7,1,5.92.92c3-.14,6.35.22,6.94.76s.92,3,.83,6.25" transform="translate(-0.51 -0.09)" style="fill:#7f7d7c"/><path d="M7.68,3c-1,0-2.69.38-3.93,3a3.22,3.22,0,0,0,.08,3A4.38,4.38,0,0,0,7.1,11.1a3,3,0,0,0,.43,0,3.82,3.82,0,0,0,3-1.66,4.13,4.13,0,0,0,.65-4.15A4,4,0,0,0,7.68,3M9.26,8.51a2.18,2.18,0,0,1-1.92,1,2.84,2.84,0,0,1-2.1-1.34,1.65,1.65,0,0,1,0-1.53c.64-1.36,1.51-2.11,2.47-2.11h0A2.39,2.39,0,0,1,9.73,6a2.6,2.6,0,0,1-.48,2.54" transform="translate(-0.51 -0.09)" style="fill:#7f7d7c"/></svg>