<?xml version="1.0" encoding="utf-8"?>
<!-- Generator: Adobe Illustrator 22.1.0, SVG Export Plug-In . SVG Version: 6.00 Build 0)  -->
<svg version="1.1" id="Слой_1" xmlns="http://www.w3.org/2000/svg" xmlns:xlink="http://www.w3.org/1999/xlink" x="0px" y="0px"
	 viewBox="1410.3 1126.2 14 15.3" style="enable-background:new 1410.3 1126.2 14 15.3;" xml:space="preserve">
<g>
	<g>
		<path d="M1415.3,1134.6c0,0.9,0,1.9,0,2.8c0,0.6,0.3,2.4,0,2.8c-0.4,0.6-2.6,0.4-3.2,0.3c-0.9-0.1-0.8,0-0.9-0.9
			c-0.1-0.5,0-1,0-1.5c0-1,0-2,0-3c0-0.9-0.2-1.9,0.1-2.8c0.4-1.1,1.7-1.8,2.9-1.4c1.2,0.4,1,2.4,1,3.5c0,0.5,0.8,0.5,0.8,0
			c0-1.4,0.3-3.9-1.6-4.3c-1.8-0.3-3.6,0.3-3.9,2.2c-0.3,1.3-0.1,2.7-0.1,4c0,1.3-0.3,3.1,0.1,4.3c0.2,0.5,0.4,0.6,0.9,0.7
			c1.3,0.2,3.1,0,4.4-0.2c0.2,0,0.3-0.2,0.3-0.4c0-2.1,0-4.2,0-6.2C1416.1,1134.1,1415.3,1134.1,1415.3,1134.6L1415.3,1134.6z"/>
	</g>
	<g>
		<path d="M1411,1135c1.4,0,2.8,0,4.2,0c0.5,0,0.5-0.8,0-0.8c-1.4,0-2.8,0-4.2,0C1410.5,1134.3,1410.5,1135,1411,1135L1411,1135z"/>
	</g>
	<g>
		<path d="M1411.1,1138.9c1.4,0,2.9,0,4.3,0c0.5,0,0.5-0.8,0-0.8c-1.4,0-2.9,0-4.3,0C1410.6,1138.2,1410.6,1138.9,1411.1,1138.9
			L1411.1,1138.9z"/>
	</g>
	<g>
		<path d="M1412.4,1127c0.4,0,0.9,0,1.3,0.1c0.1,0,0.3,0,0.3,0.1c0.1,0.1,0,0.5,0,0.6c0.1-0.1,0.1-0.2,0.2-0.2
			c-0.1,0.1-0.5,0.1-0.6,0.1c-0.2,0-0.5,0-0.7,0c-0.1,0-0.2,0-0.4,0c-0.1,0-0.1,0-0.1-0.1c-0.1-0.1,0-0.6,0-0.7c0-0.5-0.8-0.5-0.8,0
			c0,0.6-0.2,1.5,0.6,1.6c0.4,0.1,0.9,0,1.3,0c0.3,0,0.7,0,1-0.1c0.4-0.3,0.4-1.2,0.1-1.6c-0.2-0.2-0.5-0.2-0.7-0.3
			c-0.5,0-1-0.1-1.5-0.1C1411.9,1126.2,1411.9,1127,1412.4,1127L1412.4,1127z"/>
	</g>
	<g>
		<path d="M1412,1128.4c0.1,0.6,0.1,1.2,0,1.8c0,0.5,0.8,0.5,0.8,0c0-0.7,0-1.4-0.1-2C1412.7,1127.7,1411.9,1127.9,1412,1128.4
			L1412,1128.4z"/>
	</g>
	<g>
		<path d="M1413.9,1128.1c0,0.7,0,1.4,0,2.2c0,0.5,0.8,0.5,0.8,0c0-0.7,0-1.4,0-2.2C1414.7,1127.6,1413.9,1127.6,1413.9,1128.1
			L1413.9,1128.1z"/>
	</g>
	<g>
		<path d="M1418.5,1132c1.3,0,2.6,0,4,0c0.8,0,1,0.1,1,0.9c0,0.7,0,1.3-0.4,1.9c-0.5,1-2,1.5-3.1,1.3
			C1418.6,1135.8,1417.8,1133,1418.5,1132c0.2-0.5-0.4-0.9-0.7-0.4c-0.6,1.1-0.2,2.4,0.2,3.5c0.2,0.5,0.5,1.4,1,1.7
			c0.5,0.3,1.3,0.2,1.8,0.2c1.1,0,2.1-0.5,2.7-1.4c0.8-1,0.9-2.8,0.6-4c0-0.1-0.1-0.2-0.3-0.3c-0.8-0.2-1.6-0.1-2.4-0.1
			c-1,0-2,0-3,0C1418,1131.2,1418,1132,1418.5,1132L1418.5,1132z"/>
	</g>
	<g>
		<path d="M1423,1131.5c-0.8,0.8-1.7,0.8-2.7,1.1c-0.7,0.2-1.4,0.5-2,1c-0.4,0.3,0,1,0.4,0.7c1.5-1.1,3.5-0.9,4.8-2.2
			C1423.9,1131.7,1423.4,1131.2,1423,1131.5L1423,1131.5z"/>
	</g>
	<g>
		<path d="M1419.9,1141.4c0.8,0,1.5,0,2.3,0c0.5,0,0.5-0.8,0-0.8c-0.8,0-1.5,0-2.3,0C1419.4,1140.6,1419.4,1141.4,1419.9,1141.4
			L1419.9,1141.4z"/>
	</g>
	<g>
		<path d="M1420.7,1136.7c0,1.3,0,2.6,0,3.9c0,0.5,0.8,0.5,0.8,0c0-1.3,0-2.6,0-3.9C1421.4,1136.2,1420.7,1136.2,1420.7,1136.7
			L1420.7,1136.7z"/>
	</g>
</g>
</svg>
