<?xml version="1.0" encoding="utf-8"?>
<!-- Generator: Adobe Illustrator 22.1.0, SVG Export Plug-In . SVG Version: 6.00 Build 0)  -->
<svg version="1.1" id="Слой_1" xmlns="http://www.w3.org/2000/svg" xmlns:xlink="http://www.w3.org/1999/xlink" x="0px" y="0px"
	 viewBox="1406.3 1125.7 22 16.4" style="enable-background:new 1406.3 1125.7 22 16.4;" xml:space="preserve">
<g>
	<g>
		<path d="M1406.3,1126.2c0.2,5.1,0.3,10.2,0.2,15.3c0,0.7,1.1,0.7,1.1,0c0-5.1,0-10.2-0.2-15.3
			C1407.4,1125.5,1406.3,1125.5,1406.3,1126.2L1406.3,1126.2z"/>
	</g>
	<g>
		<path d="M1407.4,1134.7c0.8,0,1.7,0,2.5,0c0.9,0,2.1-0.3,2.3,0.6c0.2,0.8,0,1.9,0,2.7c0,1,0,2,0,3c0,0.7,1.1,0.7,1.1,0
			c0-1.5,0-2.9,0-4.4c0-0.7,0.3-2.1-0.2-2.8c-0.4-0.5-1.3-0.4-1.8-0.4c-1.4,0-2.7,0-4.1,0
			C1406.7,1133.6,1406.7,1134.7,1407.4,1134.7L1407.4,1134.7z"/>
	</g>
	<g>
		<path d="M1407.3,1138.7c1.8,0,3.5,0,5.3,0c0.7,0,0.7-1.1,0-1.1c-1.8,0-3.5,0-5.3,0C1406.6,1137.6,1406.6,1138.7,1407.3,1138.7
			L1407.3,1138.7z"/>
	</g>
	<g>
		<path d="M1427.1,1126.5c0.1,5,0.1,9.9,0,14.9c0,0.7,1.1,0.7,1.1,0c0.1-5,0.1-9.9,0-14.9
			C1428.2,1125.8,1427.1,1125.8,1427.1,1126.5L1427.1,1126.5z"/>
	</g>
	<g>
		<path d="M1427.5,1133.4c-2,0-4.1,0-6.1,0c-0.3,0-0.6,0.3-0.6,0.6c0.2,2.4,0.3,4.7,0.5,7.1c0,0.7,1.2,0.7,1.1,0
			c-0.1-2.4-0.3-4.7-0.5-7.1c-0.2,0.2-0.4,0.4-0.6,0.6c2,0,4.1,0,6.1,0C1428.2,1134.6,1428.2,1133.4,1427.5,1133.4L1427.5,1133.4z"
			/>
	</g>
	<g>
		<path d="M1421.8,1138.9c1.7,0,3.5,0,5.2,0c0.7,0,0.7-1.1,0-1.1c-1.7,0-3.5,0-5.2,0C1421.1,1137.8,1421.1,1138.9,1421.8,1138.9
			L1421.8,1138.9z"/>
	</g>
	<g>
		<path d="M1420.6,1130.1c-1.6,0.3-3.8,0.5-5.5,0c-0.6-0.2-1.1-0.6-1.7-0.7c-0.6-0.2-1.7-0.1-0.7-1c0.7-0.7,3.9-0.3,4.9-0.3
			c0.6,0,1.3-0.1,1.9,0c1.2,0.2,2.8,1,1.3,2c-0.6,0.4,0,1.4,0.6,1c1.9-1.3,2.9-2.4,0.2-3.8c-1.2-0.6-2.7-0.3-4-0.3
			c-1.7,0-3.5-0.1-5.2,0.4c-1.4,0.4-2.8,1.9-0.9,2.8c2.9,1.4,6.2,1.6,9.4,1.1C1421.7,1131.1,1421.4,1130,1420.6,1130.1
			L1420.6,1130.1z"/>
	</g>
	<g>
		<path d="M1416.7,1131.2c0,2.5,0,5.1,0,7.6c0,0.7,1.1,0.7,1.1,0c0-2.5,0-5.1,0-7.6C1417.8,1130.5,1416.7,1130.5,1416.7,1131.2
			L1416.7,1131.2z"/>
	</g>
	<g>
		<path d="M1415.7,1140c1,0,1.9,0,2.9,0c0.7,0,0.7-1.1,0-1.1c-1,0-1.9,0-2.9,0C1415,1138.8,1415,1140,1415.7,1140L1415.7,1140z"/>
	</g>
</g>
</svg>
