<?xml version="1.0" encoding="utf-8"?>
<!-- Generator: Adobe Illustrator 22.1.0, SVG Export Plug-In . SVG Version: 6.00 Build 0)  -->
<svg version="1.1" id="Графика" xmlns="http://www.w3.org/2000/svg" xmlns:xlink="http://www.w3.org/1999/xlink" x="0px"
	 y="0px" viewBox="0 0 129 105.7" style="enable-background:new 0 0 129 105.7;" xml:space="preserve">
<g>
	<g>
		<path d="M24.8,28.4c17.9,4.7,37.1,6.5,55.4,3.6c5.6-0.9,12.7-2.4,16.2-7.4c2.6-3.8,1.2-7.8-1.7-10.8C90.5,9.6,84.4,7,78.8,5.1
			c-9.2-3.1-19-4.4-28.7-4.7C38.7,0,27.2-0.8,16.1,2.3c-3.7,1-7.6,2.2-10.4,4.9c-2.5,2.5-3,6-0.7,8.7c2.4,2.8,5.5,5.3,8.6,7.4
			C17,25.6,20.9,27.2,24.8,28.4c0.6,0.2,0.8-0.7,0.2-0.9c-5.4-1.7-10.2-4.2-14.5-7.8c-1.9-1.6-3.9-3.1-5.3-5.1
			c-1.7-2.4-0.4-5.2,1.5-7c3.2-3.1,8.6-4.2,12.8-5.2c5.8-1.3,11.9-1.6,17.9-1.5C48.5,1,59.7,1.4,70.5,3.8c7.2,1.6,14.6,4,20.6,8.3
			c3.6,2.6,7.1,6.3,5,11c-2.5,5.7-10.9,7.2-16.3,8.1c-18.1,3-37.3,1-54.9-3.6C24.5,27.4,24.2,28.3,24.8,28.4z"/>
	</g>
	<g>
		<path d="M3.7,10.7C0.2,25.1-1.7,40.6,2.1,55.1c1.9,7.2,6.1,13.3,8.7,20.2c2.9,7.6,1.7,15.5,2.5,23.3c0,0.2,0.1,0.3,0.2,0.4
			c9.6,4.1,19.9,6.4,30.3,6.6c4.2,0.1,8.2-0.4,12.4-0.9c2.7-0.3,5.4-0.4,7.2-2.7c0.8-1.1,1-2.4,1.6-3.6c0.5-0.9,1.2-1.8,1.8-2.6
			c1.9-2.3,4-4.4,6.1-6.6c5.6-5.9,10.9-12.1,14.8-19.2c5.3-9.6,7.3-20.9,8.7-31.6c0.8-6.2,1.4-12.6,1.4-18.9c0-0.6-0.9-0.6-0.9,0
			c0,5.3-0.5,10.7-1,16c-1.2,10.4-2.9,21.6-7.4,31.1c-3.6,7.7-9.2,14.4-15,20.6c-2.2,2.3-4.4,4.6-6.5,6.9c-1.2,1.3-2.5,2.8-3.1,4.5
			c-0.6,1.8-1.4,3.5-3.2,4.2c-1.7,0.7-3.6,0.6-5.4,0.9c-4.2,0.6-8.3,0.9-12.5,0.8c-5.2-0.1-10.4-0.9-15.5-2.1
			c-2.7-0.6-5.3-1.4-7.9-2.3c-1.4-0.5-2.7-1-4.1-1.5c-1.7-0.7-1.2-2.8-1.2-4.3c0-5.4,0-10.9-1.3-16.2c-1.2-5-3.9-9.6-6.2-14.1
			c-4.9-9.9-6.1-21.1-5.4-32c0.5-7.2,1.8-14.2,3.5-21.2C4.8,10.3,3.9,10.1,3.7,10.7L3.7,10.7z"/>
	</g>
	<g>
		<path d="M97.2,31.7c6.6-6.3,18.1-9,26.1-3.8c3.7,2.4,4.5,7.8,4.7,11.8c0.3,5.7-1.6,10.9-4,16c-2.1,4.5-5.1,8.5-8.9,11.8
			c-3.9,3.4-9,5.4-13.9,6.9c-4.2,1.3-8.6,2.1-12.8,3.3c-4.6,1.3-8.8,3.5-12.4,6.7c-0.5,0.4,0.2,1.1,0.7,0.7
			c7.8-6.9,18.2-7.4,27.6-10.7c4.3-1.5,8.5-3.6,11.9-6.6c3.7-3.2,6.5-7.2,8.6-11.6c3.8-7.9,6.2-17.7,1.8-25.9
			c-1.9-3.5-5.8-5.1-9.5-5.8c-4.2-0.8-8.3-0.1-12.3,1.4c-3,1.2-5.9,2.8-8.3,5C96.1,31.4,96.8,32.1,97.2,31.7L97.2,31.7z"/>
	</g>
	<g>
		<path d="M96.3,40.4c1.6-2.7,4.4-4.8,7.1-6.4c3.4-2.1,7.3-2.8,11.2-2c2.2,0.4,4,1.4,5.1,3.4c1,1.8,1.1,4.2,1.3,6.1
			c0.2,3.6-0.3,7.2-1.5,10.7c-1.1,3.3-2.9,6.5-5.2,9.1c-2.5,2.7-6.2,4.7-9.6,6C99,69.4,92.8,68.7,87,70c-0.6,0.1-0.3,1,0.2,0.9
			c3.3-0.7,6.7-0.8,10.1-1.2c3.9-0.4,7.6-1.3,11.1-3.1c3.3-1.7,6.2-3.9,8.3-6.9c2.4-3.3,3.9-7.3,4.7-11.3c0.7-3.6,0.6-7.5-0.1-11.1
			c-0.9-4-3.8-5.8-7.7-6.4c-3.6-0.6-7.1,0.3-10.2,2.1c-3,1.7-6.1,4-7.9,7C95.2,40.5,96,40.9,96.3,40.4L96.3,40.4z"/>
	</g>
	<g>
		<path d="M18,55.8c-1.3-1.3-2.8-2.4-4.5-3.1c-1-0.4-3-1.2-3.7,0c-0.7,1.2,1,2.2,1.9,2.6c1.8,0.9,4.1,1,6.1,1.2
			c0.6,0.1,0.6-0.9,0-0.9c-1.2-0.1-2.3-0.3-3.5-0.5c-0.5-0.1-0.9-0.2-1.4-0.3c-0.4-0.1-0.8-0.3-1.2-0.5c-0.5-0.2-0.7-0.6-0.6-1.3
			c1.1-0.1,2.4,0.7,3.3,1.2c1.1,0.6,2.1,1.4,2.9,2.3C17.8,56.9,18.5,56.2,18,55.8L18,55.8z"/>
	</g>
	<g>
		<path d="M17.5,55.7c-2.1,1.2-4.1,2.4-6.1,3.8c-1.1,0.8-1.7,2.1-0.7,3.1c0.9,1,2.9-0.1,3.6-0.7c1.5-1.2,1.8-2.8,2.1-4.6
			c0.1-0.6-0.8-0.8-0.9-0.2c-0.1,1-0.3,2-0.7,2.9c-0.3,0.6-0.8,1-1.4,1.5c-0.3,0.3-2.2,1.3-2.3,0c-0.1-1.1,2.7-2.5,3.5-3
			c1.1-0.7,2.2-1.3,3.3-2C18.5,56.3,18,55.5,17.5,55.7L17.5,55.7z"/>
	</g>
	<g>
		<path d="M17.6,55.7c-2.5,0.4-5.1,0.3-7.6,0.2c-1.3-0.1-2.9-0.3-3.4,1.2c-0.4,1.2,1.1,1.3,1.8,1.4c1.7,0.1,3.4-1,4.9-1.6
			c0.6-0.2,0.3-1.1-0.2-0.9c-0.7,0.3-1.4,0.5-2.1,0.8c-0.5,0.2-1,0.4-1.5,0.6c-1.2,0.4-1.3,0.1-0.5-0.7c0.4,0,0.7,0,1.1,0
			c2.6,0.1,5.3,0.2,7.9-0.2C18.4,56.5,18.2,55.6,17.6,55.7L17.6,55.7z"/>
	</g>
	<g>
		<path d="M80.3,59.2c-0.4,2.8-0.5,5.7-0.2,8.5c0.1,0.7-1.2,2-1.5,2.7c-0.2,0.7-0.4,1.7,0,2.4c0.5,0.7,2,1.8,2.6,0.5
			c0.8-1.6,0.4-3.7-0.3-5.3c-0.2-0.6-1-0.1-0.8,0.5c0.3,0.8,0.5,1.5,0.6,2.3c0,0.2,0,0.4,0,0.5c0.1,0.8-0.3,0.9-1.4,0.2
			c-0.1-1.5,1.3-2,1.7-3.2c0.3-1-0.1-2.4-0.2-3.5c-0.1-1.8,0.1-3.7,0.4-5.5C81.3,58.8,80.4,58.6,80.3,59.2L80.3,59.2z"/>
	</g>
	<g>
		<path d="M80.6,58.9c-1.6,0.3-2.6,1.4-3.5,2.6c-0.5,0.7-1.8,2.6-0.9,3.6c1.7,1.8,4.7-4.6,5-5.6c-0.2,0.1-0.4,0.2-0.6,0.3
			c0.9,0.3,1.5,0.7,2.2,1.3c0.3,0.3,0.6,0.6,0.8,1c0.2,0.3,1.1,2.1-0.1,1c-1.2-1-1.8-2.7-2.4-4c-0.2-0.6-1-0.1-0.8,0.5
			c0.5,1.1,2.9,6.6,4.9,4.7c0.7-0.6-0.6-2.5-1-3c-0.8-1.2-2-1.9-3.3-2.4c-0.2-0.1-0.5,0.1-0.6,0.3c-0.5,1.6-1.5,3.2-2.6,4.5
			c-1.4,1.6-0.1-1.3,0.2-1.7c0.7-1,1.7-1.9,2.9-2.2C81.4,59.6,81.2,58.7,80.6,58.9L80.6,58.9z"/>
	</g>
	<g>
		<path d="M83.9,38.4C76.2,42.6,71.3,50,68.6,58.1c-0.8,2.3-1.3,4.7-1.8,7.1c-0.3,1.8-1.1,4.4-0.7,6.2c0.6,2.5,2.2,5.1,1.1,7.8
			c-0.5-0.1-1-0.2-1.5-0.2c-0.2-0.4-0.4-0.9-0.5-1.4c-0.2-0.8-0.1-1.7,0.1-2.5c0.3-1.3,0.9-2.4,1.7-3.5c0.4-0.5-0.5-0.9-0.8-0.5
			c-1.3,1.8-2.1,3.8-2,6.1c0.1,1.5,0.9,3.4,2.6,3.5c1.4,0.1,1.7-2.1,1.7-3c0.1-1.3-0.2-2.7-0.6-4c-0.2-0.6-0.5-1.2-0.7-1.8
			c-0.4-1-0.1-2.2,0.1-3.2c1.4-11.6,6.4-23.5,17.1-29.3C84.9,38.9,84.4,38.1,83.9,38.4L83.9,38.4z"/>
	</g>
	<g>
		<path d="M67.4,62.7c-1.8,0.6-3.3,1.2-4.6,2.7c-0.6,0.6-2.5,2.7-1.6,3.7c1,1,3-0.5,3.8-1.1c1.4-1.2,2.4-2.9,3-4.7
			c0.2-0.6-0.7-0.8-0.9-0.2c-0.7,2.1-2.5,5.2-5,5.3c-0.4,0,0.9-1.8,0.9-1.8c0.4-0.5,0.8-0.9,1.2-1.3c1-0.9,2.2-1.2,3.4-1.7
			C68.3,63.4,68,62.5,67.4,62.7L67.4,62.7z"/>
	</g>
	<g>
		<path d="M67.5,63.2c-0.5,3.4,0.8,6.5,4,7.9c0.4,0.2,0.8-0.1,0.7-0.5c-0.4-1.6-0.5-3-1.2-4.5c-0.6-1.3-1.7-2.3-2.8-3.2
			c-0.5-0.4-0.9,0.5-0.5,0.8c1.2,0.9,2,1.9,2.7,3.2c0.6,1.3,0.6,2.6,0.9,3.9c0.2-0.2,0.5-0.4,0.7-0.5c-2.9-1.3-4-3.9-3.6-6.9
			C68.5,62.8,67.6,62.6,67.5,63.2L67.5,63.2z"/>
	</g>
	<g>
		<path d="M68.9,56.6c-0.9,0.7-1.9,1.1-3,1.4c-1,0.3-2.1,0.2-3,0.7c-1.2,0.6-1.6,1.7-0.7,2.8c1.2,1.3,3.2,0.3,4.3-0.4
			c1.5-0.9,2.2-2.4,3-3.9c0.3-0.5-0.5-1-0.8-0.5c-1,1.9-2.5,4.8-5.3,4.4c0.1-0.6,0.2-1.2,0.2-1.8c0.3-0.1,0.6-0.2,0.9-0.2
			c0.6-0.1,1.2-0.2,1.9-0.4c1-0.3,2-0.8,2.8-1.4C69.9,57,69.4,56.2,68.9,56.6L68.9,56.6z"/>
	</g>
	<g>
		<path d="M69.3,56.9c-0.1,0.9,0.1,1.5,0.6,2.2c0.8,1.2,1.6,2.2,2.2,3.5c0.8,1.6-1.2,0.4-1.4,0.2c-0.5-0.4-0.7-1.1-0.9-1.6
			c-0.4-1.2,0.1-2.8,0.4-4C70.4,56.6,69.5,56.3,69.3,56.9c-0.8,2.7-1,6.5,2.3,7.4c1.3,0.4,1.9-0.5,1.5-1.7c-0.3-0.9-0.9-1.7-1.4-2.5
			c-0.5-0.8-1.7-1.9-1.6-3C70.3,56.6,69.4,56.3,69.3,56.9L69.3,56.9z"/>
	</g>
	<g>
		<path d="M72.4,50.6c0.6,1.8,1.3,3.5,1.8,5.3c-1,0.8-1.6,0.7-1.7-0.3c-0.2-0.7-0.2-1.5,0-2.2c0.2-1,0.6-1.9,0.9-2.8
			c0.2-0.6-0.7-0.8-0.9-0.2c-0.5,1.6-1.3,3.4-0.9,5c0.3,1.1,0.8,2.5,2.1,2.7c3.5,0.4,0.2-6.4-0.3-7.7C73.1,49.8,72.2,50.1,72.4,50.6
			L72.4,50.6z"/>
	</g>
	<g>
		<path d="M72.3,49.7c-2.1,0.2-4.2,0.6-6.2,1.5c-0.7,0.3-3,1.6-2.4,2.8c0.7,1.3,2.7,0.5,3.8,0.1c1.9-0.7,3.5-2.3,5.1-3.6
			c0.5-0.4-0.2-1.1-0.7-0.7c-1.9,1.6-3.7,3.2-6.1,3.8C64.3,54,65,53,65.7,52.5c0.7-0.5,1.4-0.8,2.2-1c1.4-0.5,2.9-0.6,4.4-0.8
			C72.9,50.5,72.9,49.6,72.3,49.7L72.3,49.7z"/>
	</g>
	<g>
		<path d="M77.4,43.1c-1.6,0.4-3.5-0.1-5,0.6c-0.9,0.4-2.3,1.5-1.6,2.7c0.6,1,2.1,0.8,3,0.4c1.5-0.7,2.7-1.9,4-2.9
			c0.5-0.3,0-1.2-0.5-0.8c-1.4,1-2.7,2.6-4.5,3.1c-0.2,0-0.3,0-0.5,0c-0.6-0.8-0.5-1.3,0.2-1.5c0.6-0.3,1.3-0.4,2-0.4
			c1.1-0.1,2.1,0,3.1-0.3C78.2,43.8,78,42.9,77.4,43.1L77.4,43.1z"/>
	</g>
	<g>
		<path d="M77.5,43.7c-0.1,1.1,0.1,2.2,0.4,3.3c0.1,0.6,0.3,1.3,0.3,1.9c0,0.5,0,0.9-0.1,1.4c-0.9,0.5-1.4,0.5-1.3-0.2
			c-0.1-2,0.6-4.4,1.5-6.2c0.3-0.5-0.5-1-0.8-0.5c-0.7,1.5-1.1,3-1.4,4.6c-0.2,1.2-0.5,2.9,0.5,3.9c1,1,2.2-0.6,2.5-1.4
			c0.7-2.2-0.7-4.6-0.6-6.9C78.5,43.1,77.5,43.1,77.5,43.7L77.5,43.7z"/>
	</g>
	<g>
		<path d="M83.7,38.6c-1.1,1.6-5,6.3-2.1,7.9c0.9,0.5,1.5-0.1,2-0.8c1.3-1.8,1.2-4.8,0.9-6.9c-0.1-0.6-1-0.6-0.9,0
			c0.2,1.5,0.2,2.9-0.1,4.3c-0.1,0.7-0.4,1.4-0.7,2c-0.6,1-1.1,0.3-1.3-0.6c-0.2-1.9,1.9-4.1,2.9-5.6C84.9,38.6,84.1,38.1,83.7,38.6
			L83.7,38.6z"/>
	</g>
	<g>
		<path d="M91.2,35c-1.3,1.4-2.4,2.9-3.1,4.7c-0.4,1-0.7,3.3,0.7,3.7c1.3,0.4,2.1-0.6,2.3-1.8c0.4-2,0.5-4.1,0.8-6.1
			c0.1-0.6-0.8-0.8-0.9-0.2c-0.3,1.8-0.6,3.6-0.8,5.4c0,0.1,0,0.3,0,0.4c0.1,1.3-0.5,1.2-1.5-0.1c0.1-0.8,0.5-1.4,0.8-2.1
			c0.6-1.1,1.5-2.1,2.3-3.1C92.3,35.2,91.6,34.5,91.2,35L91.2,35z"/>
	</g>
	<g>
		<path d="M69.9,42.3c-1.3,0.3-7.5,4.4-4.6,5.6c1.4,0.6,2.9-0.1,3.9-1.1c1-1.1,1.2-2.6,1.3-4c0-0.6-0.9-0.6-0.9,0
			c-0.1,2-0.9,4.4-3.3,4.4c-0.4,0.1-0.7-0.1-0.7-0.6c0.2-0.2,0.3-0.4,0.5-0.5c0.4-0.4,0.9-0.8,1.4-1.2c0.8-0.7,1.7-1.4,2.7-1.7
			C70.7,43.1,70.5,42.2,69.9,42.3L69.9,42.3z"/>
	</g>
	<g>
		<path d="M61.9,43.2c-1.5,0.5-2.8,1.3-3.8,2.6c-0.7,0.9-1.1,2.4,0,3.2c0.9,0.7,2.4-0.4,2.9-1.1c0.9-1.2,1.2-2.7,1.5-4.1
			c0.1-0.6-0.8-0.8-0.9-0.2c-0.2,1.6-0.6,3.6-2.1,4.5c-0.5,0.3-1.2,0.2-1.1-0.5c0.1-0.6,0.5-1.2,0.8-1.6c0.7-0.9,1.8-1.4,2.9-1.8
			C62.7,43.9,62.5,43,61.9,43.2L61.9,43.2z"/>
	</g>
	<g>
		<path d="M51.6,43.5c-1.2,0.5-2.3,1.1-3.3,2c-0.6,0.6-1.7,2.2-0.3,2.7c1,0.4,2.2-0.2,2.9-1c0.9-0.8,1.3-2.1,1.4-3.2
			c0.1-0.6-0.9-0.6-0.9,0c-0.2,1.5-1.1,3.3-2.8,3.4c-0.6,0,0.4-1.1,0.5-1.2c0.3-0.3,0.6-0.5,1-0.8c0.7-0.4,1.4-0.7,2.1-1
			C52.7,44.1,52.2,43.3,51.6,43.5L51.6,43.5z"/>
	</g>
	<g>
		<path d="M41.1,42.5c-1.5,0.3-3.1,0.6-4.5,1.4c-0.7,0.4-2.8,2.1-2.2,3.1c0.6,1,3.2-0.2,3.9-0.5c1.6-0.7,2.9-1.8,3.3-3.5
			c0.2-0.6-0.7-0.8-0.9-0.2c-0.3,1.2-1.1,2-2.1,2.6c-0.6,0.3-1.2,0.5-1.9,0.7c-0.2,0.1-1.5,0.5-1.2,0c1-1.9,3.8-2.4,5.8-2.7
			C41.9,43.2,41.7,42.3,41.1,42.5L41.1,42.5z"/>
	</g>
	<g>
		<path d="M33.9,40.9c-1.3-0.1-2.5,0.2-3.6,0.7c-0.8,0.4-2,1.3-1.8,2.4c0.2,1,2.4,0.4,3,0.3c1.3-0.4,2.3-1.4,2.8-2.6
			c0.2-0.5-0.6-1-0.8-0.5c-0.3,0.8-0.9,1.4-1.6,1.9c-0.4,0.2-0.8,0.4-1.2,0.5c0,0-1.4,0.2-1.1-0.2c1-1.2,2.8-1.6,4.3-1.4
			C34.5,41.9,34.5,41,33.9,40.9L33.9,40.9z"/>
	</g>
	<g>
		<path d="M25.1,38c-1.2-1.1-2.5-2.1-3.9-3c-1.1-0.7-2.3-0.9-2.7,0.5c-0.4,1.1,0.9,2.3,1.7,2.8c1.4,0.8,3.1,0.6,4.7,0.5
			c0.6-0.1,0.6-1,0-0.9c-1.8,0.2-4,0.4-5.2-1.2c-0.6-0.8,0.5-1.2,1.1-0.8c0.5,0.3,0.9,0.6,1.3,0.9c0.8,0.6,1.6,1.3,2.4,2
			C24.9,39,25.6,38.4,25.1,38L25.1,38z"/>
	</g>
	<g>
		<path d="M34.3,41c-1.4-1.3-3.3-1.6-3.6-3.9c-0.1-0.6,0.1-0.8,0.8-0.8c0.2,0.2,0.3,0.3,0.5,0.5c0.3,0.4,0.6,0.9,0.8,1.3
			c0.5,1,0.6,2.1,0.7,3.1c0,0.6,1,0.6,0.9,0c-0.1-1.5-0.4-2.9-1.1-4.2c-0.6-1.1-1.6-2.4-2.9-1.7c-1.2,0.7-0.5,2.7,0,3.6
			c0.7,1.3,2.2,1.7,3.3,2.6C34.1,42.1,34.7,41.4,34.3,41L34.3,41z"/>
	</g>
	<g>
		<path d="M41.5,42.4c-0.7-0.4-1.4-0.7-2.1-1.1c-1-0.5-1.5-1.4-1.8-2.4c-0.2-0.5,0-0.8,0.6-1.1c0.2,0.2,0.5,0.4,0.7,0.6
			c0.4,0.4,0.7,0.8,1,1.2c0.6,0.9,1,2.1,1.1,3.2c0.1,0.6,1,0.6,0.9,0c-0.1-1.5-0.6-2.9-1.6-4.2c-0.5-0.7-2-2.5-3-1.5
			c-1.1,1-0.4,2.7,0.2,3.7c0.9,1.3,2.4,1.6,3.6,2.4C41.5,43.6,41.9,42.8,41.5,42.4L41.5,42.4z"/>
	</g>
	<g>
		<path d="M52,43.5c-1.4-0.5-3.1-1.1-4-2.4c-0.3-0.4-0.2-0.8,0.4-1.1c0.2,0,0.5,0.1,0.7,0.2c0.4,0.2,0.8,0.7,1,1.2
			c0.5,0.8,0.9,1.8,1.3,2.7c0.2,0.6,1.1,0.3,0.9-0.2c-0.5-1.4-1.1-2.7-2-3.8c-0.7-0.8-2.4-1.5-3.1-0.4c-1.6,2.5,3,4.2,4.5,4.8
			C52.3,44.6,52.6,43.7,52,43.5L52,43.5z"/>
	</g>
	<g>
		<path d="M62.2,43.3c-1.4-0.8-3.8-0.6-4.4-2.3c-0.2-0.4,0-0.8,0.5-1c0.3,0,0.5,0.1,0.8,0.2c0.5,0.2,0.8,0.6,1.2,0.9
			c0.7,0.7,1.2,1.6,1.2,2.5c0,0.6,1,0.6,0.9,0c-0.1-1.4-0.7-2.5-1.7-3.4c-0.9-0.8-2.3-1.7-3.4-0.9c-1,0.7-0.4,2.2,0.2,2.9
			c1.1,1.2,2.9,1,4.2,1.8C62.3,44.4,62.8,43.6,62.2,43.3L62.2,43.3z"/>
	</g>
	<g>
		<path d="M70.1,42.3C69,42.1,68,41.7,67,41.2c-0.5-0.3-1-0.6-1.2-1.2c-0.3-1,0.8-1.1,1.4-0.8c0.7,0.3,1.2,1,1.5,1.6
			c0.3,0.6,0.8,1.3,0.8,2c0.1,0.6,1,0.6,0.9,0c-0.2-1.8-2.1-5.2-4.3-4.7c-1.4,0.4-1.6,1.8-0.8,2.9c0.9,1.3,3.1,1.9,4.6,2.2
			C70.5,43.3,70.7,42.4,70.1,42.3L70.1,42.3z"/>
	</g>
	<g>
		<path d="M84.4,38.4c-0.9-0.4-1.8-0.8-2.7-1.3c-0.3-0.1-1.5-0.9-0.9-1.3c0.4-0.3,1-0.2,1.3,0.1c0.9,0.9,0.7,2.6,1.8,3.3
			C84.4,39.5,84.9,38.7,84.4,38.4c-0.4-0.2-0.5-1-0.7-1.4c-0.2-0.4-0.4-0.9-0.6-1.3c-0.5-0.9-1.4-1.1-2.3-0.9
			c-1.2,0.2-1.4,1.4-0.8,2.3c0.3,0.5,0.9,0.8,1.4,1c0.8,0.4,1.7,0.8,2.5,1.2C84.4,39.5,84.9,38.7,84.4,38.4L84.4,38.4z"/>
	</g>
	<g>
		<path d="M91.7,34.8c-1.4-0.3-2.9,0.1-4.4-0.2c-0.1,0-0.2,0-0.3-0.1c-0.4-0.1-0.5-0.4-0.2-1c0.7-0.2,1.4-0.1,2,0.1
			c1.2,0.3,1.5,1.5,2.6,2c0.5,0.3,1-0.6,0.5-0.8c-0.7-0.3-0.9-1-1.5-1.4c-0.6-0.4-1.3-0.7-2-0.8c-0.7-0.1-3-0.1-2.9,1.2
			c0.2,2.8,4.4,1.6,6.1,1.9C92,35.9,92.2,35,91.7,34.8L91.7,34.8z"/>
	</g>
	<g>
		<path d="M24.4,38.6c10.3,4.4,21.6,6,32.7,5.8c12-0.2,24.1-2.9,34.6-8.7c0.5-0.3,0.1-1.1-0.5-0.8c-10.4,5.8-22.3,8.3-34.2,8.6
			c-10.9,0.3-22.2-1.4-32.2-5.7C24.3,37.6,23.9,38.4,24.4,38.6L24.4,38.6z"/>
	</g>
</g>
</svg>
