<svg id="Слой_1" data-name="Слой 1" xmlns="http://www.w3.org/2000/svg" viewBox="0 0 472.32 407.23"><defs><style>.cls-1{fill:#604e42;}</style></defs><title>icon-glasses</title><rect class="cls-1" x="278.62" y="64.42" width="63.94" height="34.56" transform="translate(33.2 243.55) rotate(-45)"/><rect class="cls-1" x="218.88" width="34.56" height="86.4"/><rect class="cls-1" x="137.77" y="50.1" width="34.56" height="63.94" transform="translate(-12.61 133.68) rotate(-45)"/><path class="cls-1" d="M97.34,375,70.85,364l10.94-25.34c5.18,1.15,9.79,1.15,15,1.15a80.47,80.47,0,0,0,30.53-6.34c20.16-8.06,35.71-23.62,44.35-43.78l46.08-108.86L68,118.08,21.89,226.94a80.25,80.25,0,0,0,28.22,97.92L39.17,350.21,13.25,339.84,0,371.52l84.1,35.71ZM53.57,240.77,86.4,163.58l86.4,36.29-32.26,77.18c-9.79,23.62-37.44,35.14-61.06,24.77a45.64,45.64,0,0,1-25.34-25.34A45.27,45.27,0,0,1,53.57,240.77Z"/><path class="cls-1" d="M450.43,289.15a80.37,80.37,0,0,0-.58-62.21L403.78,118.08,254,180.86,300.1,289.73c8.64,20.16,24.19,35.71,44.35,43.78A80.47,80.47,0,0,0,375,339.84a131.05,131.05,0,0,0,15-1.15L400.9,364,374.4,375l13.25,31.68,84.67-35.14-13.25-31.68-26.5,10.94-10.94-25.34A77.51,77.51,0,0,0,450.43,289.15ZM357.7,301.82a45.64,45.64,0,0,1-25.34-25.34L300.1,199.3,386.5,163l32.26,77.18c9.79,23.62-1.15,51.26-24.77,61.06A46.71,46.71,0,0,1,357.7,301.82Z"/></svg>