<svg fill="#817F7E" xmlns="http://www.w3.org/2000/svg" viewBox="0 0 11 12">
	<path d="M2.8,9.8c-0.5,0-0.9,0.4-0.9,0.9h1.8C3.7,10.2,3.3,9.8,2.8,9.8z M6.9,11.1c-0.3,0-0.5-0.2-0.5-0.4H5.5
		c0,0.7,0.6,1.3,1.4,1.3s1.4-0.6,1.4-1.3H7.3C7.3,10.9,7.1,11.1,6.9,11.1z M5.5,0C2.5,0,0,2.4,0,5.3v5.3C0,11.4,0.6,12,1.4,12
		s1.4-0.6,1.4-1.3H1.8c0,0.2-0.2,0.4-0.5,0.4s-0.5-0.2-0.5-0.4V5.3c0-2.5,2.1-4.4,4.6-4.4s4.6,2,4.6,4.4v5.3
		c0,0.2-0.2,0.4-0.5,0.4s-0.5-0.2-0.5-0.4H8.2c0,0.7,0.6,1.3,1.4,1.3s1.4-0.6,1.4-1.3V5.3C11,2.4,8.5,0,5.5,0z M4.1,11.1
		c-0.3,0-0.5-0.2-0.5-0.4H2.8c0,0.7,0.6,1.3,1.4,1.3s1.4-0.6,1.4-1.3H4.6C4.6,10.9,4.4,11.1,4.1,11.1z M5,5.8C5,5,4.4,4.4,3.7,4.4
		S2.3,5,2.3,5.8s0.6,1.3,1.4,1.3S5,6.5,5,5.8z M3.7,6.2C3.4,6.2,3.2,6,3.2,5.8c0-0.2,0.2-0.4,0.5-0.4s0.5,0.2,0.5,0.4
		C4.1,6,3.9,6.2,3.7,6.2z M8.7,5.8c0-0.7-0.6-1.3-1.4-1.3S6,5,6,5.8s0.6,1.3,1.4,1.3S8.7,6.5,8.7,5.8z M6.9,5.8
		c0-0.2,0.2-0.4,0.5-0.4c0.3,0,0.5,0.2,0.5,0.4c0,0.2-0.2,0.4-0.5,0.4S6.9,6,6.9,5.8z M8.2,9.8c-0.5,0-0.9,0.4-0.9,0.9h1.8
		C9.2,10.2,8.8,9.8,8.2,9.8z M5.5,9.8c-0.5,0-0.9,0.4-0.9,0.9h1.8C6.4,10.2,6,9.8,5.5,9.8z"/>
</svg>
