<svg xmlns="http://www.w3.org/2000/svg" viewBox="0 0 13.37 20.44"><title>icon-negative</title><path d="M12.58,7.51a2.45,2.45,0,0,0-1.44-.87,7.58,7.58,0,0,0,.22-5.22A1.62,1.62,0,0,0,10.19.36,1.44,1.44,0,0,0,9,.64C8.16,1.3,7.73,3,7.56,6.26H7.44c-.45,0-1,0-1.68.07,0-1.64-.37-5-1.52-6a1.19,1.19,0,0,0-1-.33A1.41,1.41,0,0,0,2.22.74c-.63,1.09-.4,3.4.58,5.93a3.69,3.69,0,0,0-2.14.84C.1,8.44-.52,17.89.72,19.23c.68.74,3.3,1.14,5.6,1.2H7c1.65,0,4.37-.17,5.48-1.19.72-.67.83-4.68.85-5.48,0-1.46,0-5-.78-6.26M9.48,1.26A.65.65,0,0,1,10,1.14c.24,0,.44.25.6.6a6.73,6.73,0,0,1-.29,4.72,15.14,15.14,0,0,0-2-.19c.15-2.88.52-4.53,1.13-5M2.91,1.13A.62.62,0,0,1,3.38.8a.39.39,0,0,1,.33.13C4.51,1.65,5,4.56,5,6.39c-.45,0-.91.09-1.36.15C2.69,4.23,2.4,2,2.91,1.13M12,18.67c-1.69,1.55-9.74,1-10.67,0s-.4-10,0-10.74C1.69,7.57,4.7,7,7.58,7c.64,0,1.28,0,1.87.09,1.89.19,2.35.62,2.46.8,1.06,1.69.7,10,.06,10.74" transform="translate(0 0)" fill="#7f7e7c"/><path d="M5.5,14.45c-.93.21-1.44.54-1.52,1a.4.4,0,0,0,.32.47h.07a.38.38,0,0,0,.38-.32,3.77,3.77,0,0,1,2.14-.54,3.06,3.06,0,0,1,2,.32.4.4,0,0,0,.65-.46c-.63-.89-3-.7-4-.48" transform="translate(0 0)" fill="#7f7e7c"/><path d="M10.8,10.32a6.19,6.19,0,0,1-2.61-.65.4.4,0,0,0-.79,0,.61.61,0,0,0,.17.46c.51.56,2.35.91,3.2.94h0a.4.4,0,0,0,0-.79" transform="translate(0 0)" fill="#7f7e7c"/><path d="M5.84,9.83a.4.4,0,0,0-.77-.12,8.33,8.33,0,0,1-2.53.74.4.4,0,0,0,0,.79h0s3.21-.44,3.21-1.4" transform="translate(0 0)" fill="#7f7e7c"/><path d="M4.21,11.75a.57.57,0,1,0,.57-.57.57.57,0,0,0-.57.57" transform="translate(0 0)" fill="#7f7e7c"/><path d="M9.07,11.31a.57.57,0,1,0,.57.57.57.57,0,0,0-.57-.57" transform="translate(0 0)" fill="#7f7e7c"/></svg>