<svg id="Слой_1" data-name="Слой 1" xmlns="http://www.w3.org/2000/svg" viewBox="0 0 567.64 480.06"><defs><style>.cls-1{fill:#604e42;}</style></defs><title>icon-umbrella</title><path class="cls-1" d="M550.63,378.48a267.9,267.9,0,0,0,17.74-110.42A271.12,271.12,0,0,0,493,94.22a110.3,110.3,0,0,0,19.3-37.67c1.38-5.41,1-10.25-3.74-11.52a11.52,11.52,0,0,0-9,1.84c-8.76,9.5-17.91,18.78-27.07,27.94l-2.65-2.3a137.15,137.15,0,0,0-14.11-10.77c-4.9-3.28-9.5-7-14.63-10A272.68,272.68,0,0,0,409.8,35.24a263.4,263.4,0,0,0-33-13.65c-5.76-2-11.52-3.28-17.28-4.9l-8.64-2.3c-3.05-.69-5.88-1.09-8.81-1.61L324.44,9.84l-17.8-1.56a139.39,139.39,0,0,0-17.86,0c-5.93.29-12.1-.06-17.86.75l-17.86,2.07c-5.76.58-11.52,2.25-17.28,3.34a295.72,295.72,0,0,0-34.56,9.62L185,30.86c-2.71,1.15-5.53,2.25-8.18,3.51l-7.89,4.2c-5.18,2.82-10.54,5.47-15.61,8.58L138.5,57a137.43,137.43,0,0,0-14.17,10.77l-6.85,5.76L114,76.37l-.86.69-.52.4-1,1a24.57,24.57,0,0,0,5.82,38.94,18.2,18.2,0,0,0,2.53,1.15l2.19.75a89.63,89.63,0,0,1,13.25,5.18,158.52,158.52,0,0,1,47.92,37.21,142.85,142.85,0,0,1,18,24.6,70.91,70.91,0,0,1,9.33,26v3.05a19.23,19.23,0,0,0,0,2.07,25,25,0,0,0,2.71,8.06A25.34,25.34,0,0,0,225.82,237a25.86,25.86,0,0,0,8.18,2h4.32a46.43,46.43,0,0,1,6.45.81,92.16,92.16,0,0,1,27.13,10.94,180.46,180.46,0,0,1,40.32,32.14,140.08,140.08,0,0,1,27.94,41,64.86,64.86,0,0,1,3.4,11l1.09,6.8a18.84,18.84,0,0,0,4.38,8.64,18.26,18.26,0,0,0,7.89,5,18,18,0,0,0,4.49.81H365a51.44,51.44,0,0,1,11.52.52,139.8,139.8,0,0,1,43.95,16c8.18,4.32,15.15,8.52,19.35,10.08s6.34.75,4.2-4.2a71.65,71.65,0,0,0-21.66-24.13,142.16,142.16,0,0,0-34.21-16.76,261.22,261.22,0,0,0,62.61-81.79l4.09-8.24L458.3,239a227.58,227.58,0,0,0,24.6-69.12,287.2,287.2,0,0,0,4.49-35.08A247.68,247.68,0,0,1,534.73,258,247.68,247.68,0,0,1,503,408.84l-6.68,11.52c-2.36,3.74-5.13,7.14-7.66,10.71l-4,4.67-.58.75c-.92-1.84-1.79-3.86-2.76-5.76a103.68,103.68,0,0,0-7.6-12.44A98.79,98.79,0,0,0,458,401c-10-8.7-17.74-12-21.54-10.08s-.35,9,5.76,19.64c3.05,5.3,6.68,11.58,10.25,18.6,1.79,3.51,3.51,7.2,5.07,11,.81,1.9,1.56,3.8,2.19,5.76.35,1,.69,2.25.92,2.94a21.29,21.29,0,0,0,.81,2.36,24,24,0,0,0,2.19,4.38,24.2,24.2,0,0,0,38.13,3.28l.92-1,.52-.69,1.09-1.38,4.38-5.41,8.7-10.94c2.88-3.57,5.18-7.66,7.78-11.52l7.6-11.52,6.45-12.44c2.07-4.2,4.44-8.24,6.22-12.56ZM434.39,82.65l-4.15.52c-6.11.86-12.15,2.19-18.2,3.28a180.64,180.64,0,0,0-17.91,4.38,176.2,176.2,0,0,0-65,32.54,322.56,322.56,0,0,0-67.39,42.57,216.12,216.12,0,0,0-24.42,25.75c-.35-1.09-.63-2.25-1-3.28a148.49,148.49,0,0,0-22.64-39.92,203.79,203.79,0,0,0-30.76-31.68,166.23,166.23,0,0,0-38-24h0l2.88-2.36a64.4,64.4,0,0,1,7.49-5.76l16.3-10.48a263.92,263.92,0,0,1,69.12-28.8l9.22-2.25a65.78,65.78,0,0,1,9.27-1.9l18.78-2.82,19-1.21c6.34-.52,12.61,0,19,0A58.81,58.81,0,0,1,321.61,36h.29l-6.57,1.27A245.78,245.78,0,0,1,434.39,82.65Zm22.87,19.93v8.76c-.23,4.49-.58,9-.92,13.54s-1,9-1.5,13.59-1.21,9-2,13.59c-2.88,18.09-6.16,36.23-9.91,54.6a350.38,350.38,0,0,1-46.89,76.09c-2.65,3.63-5.64,7.32-8.41,11.06s-5.93,7.14-8.81,10.83l-8.76,11c-1.38,1.79-2.94,3.46-4.49,5.13a128.85,128.85,0,0,0-17.28-36.58,196.42,196.42,0,0,0-28.8-33.75,187.2,187.2,0,0,0-35.6-26.73,128.91,128.91,0,0,0-25.69-11.52c7.72-6.51,15.44-13.31,22.75-20.51,5.64-4.49,11.17-9.1,16.65-13.82a103,103,0,0,1,8.47-6.74l8.64-6.39,5.36-4.26,5.76-3.92c4.2-2,8.29-4.09,12.33-6.34s8.29-3.92,12.38-6c8.12-4.26,16.47-7.89,24.83-11.81a353.32,353.32,0,0,1,51.84-18.84A135.53,135.53,0,0,0,457.26,102.58ZM19.5,362.81a41.3,41.3,0,0,1,7-7.43,23,23,0,0,1,7.08-4,9.22,9.22,0,0,1,10.54,2.53,12.73,12.73,0,0,1,2.13,10.94A28.8,28.8,0,0,1,44.61,371a46.72,46.72,0,0,1-2.76,6.39,55.12,55.12,0,0,0,.81,49.31q.65,1.31,1.38,2.58a50.8,50.8,0,0,0,69.3,19,36.87,36.87,0,0,0,3.4-3.46,30.87,30.87,0,0,0,3.05-3.63l6.85-8.81q7.37-9.27,15.15-18.2c10.37-11.52,21.2-23,32.26-34.56,22.12-22.69,45-45,66.3-68.08A13.08,13.08,0,0,1,250,309c5,1,5.13,6.16,3.34,11.92a149.76,149.76,0,0,1-32.49,53.34c-17.4,19.64-34.62,39.51-52.3,58.92L155.21,447.6l-6.62,7-3.4,3.57c-1.09,1.15-2.19,2.3-3.86,3.8A74,74,0,0,1,97,482.51a77.18,77.18,0,0,1-24.71.58,78,78,0,0,1-60.48-45.79,76.61,76.61,0,0,1-6-38.59A74.88,74.88,0,0,1,19.5,362.81Z" transform="translate(-3.21 -5.87)"/><path class="cls-1" d="M82.85,485.94A79.54,79.54,0,0,1,3.62,398.48a77.15,77.15,0,0,1,14.16-36.91h0a43.42,43.42,0,0,1,7.39-7.81,25,25,0,0,1,7.68-4.38,11.31,11.31,0,0,1,12.92,3.14l.08.1a14.76,14.76,0,0,1,2.52,12.66,31,31,0,0,1-1.78,6.51,48.48,48.48,0,0,1-2.86,6.6,53.22,53.22,0,0,0,.81,47.34c.43.87.88,1.7,1.34,2.51a48.68,48.68,0,0,0,66.2,18.28,34.87,34.87,0,0,0,3-3.11l.09-.1a28.72,28.72,0,0,0,2.84-3.38L125,431c4.92-6.19,10-12.34,15.22-18.29,9.34-10.37,19.9-21.7,32.33-34.64,7.26-7.45,14.72-15,21.92-22.25,14.77-14.91,30-30.33,44.35-45.8l.28-.25a15.11,15.11,0,0,1,11.25-2.95l.14,0a7.21,7.21,0,0,1,4.94,3.35c1.52,2.58,1.52,6.38,0,11.28a151,151,0,0,1-33,54.17c-5.21,5.88-10.45,11.84-15.69,17.8C194.81,407,182.49,421,170.14,434.57L156.77,449l-10,10.62c-1.1,1.16-2.24,2.36-4,3.92a76.31,76.31,0,0,1-45.47,21A79.3,79.3,0,0,1,82.85,485.94ZM21.22,364.07A72.88,72.88,0,0,0,7.85,398.92a74.62,74.62,0,0,0,5.88,37.51,75.4,75.4,0,0,0,82.85,44l.18,0a72.1,72.1,0,0,0,43.08-19.92c1.67-1.5,2.7-2.59,3.8-3.74l10-10.59L167,431.7c12.32-13.52,24.62-27.51,36.52-41q7.87-8.94,15.75-17.86a146.81,146.81,0,0,0,32.07-52.63c1.09-3.53,1.23-6.33.37-7.79a2.86,2.86,0,0,0-2.07-1.33,10.87,10.87,0,0,0-7.89,2c-14.32,15.47-29.57,30.87-44.32,45.76-7.2,7.27-14.65,14.79-21.89,22.22-12.38,12.9-22.92,24.19-32.2,34.5-5.12,5.88-10.2,12-15.06,18.1l-6.84,8.79a32.74,32.74,0,0,1-3.17,3.76,39.16,39.16,0,0,1-3.55,3.6l-.36.26a52.93,52.93,0,0,1-72.2-19.75c-.5-.88-1-1.79-1.43-2.69a57.5,57.5,0,0,1-.82-51.17,45.12,45.12,0,0,0,2.67-6.17,27,27,0,0,0,1.58-5.79l0-.22a10.54,10.54,0,0,0-1.74-9.06,7.07,7.07,0,0,0-8.07-1.9l-.11,0A20.82,20.82,0,0,0,27.89,357,39.24,39.24,0,0,0,21.22,364.07ZM484,468.78a26.45,26.45,0,0,1-22.19-12,26.19,26.19,0,0,1-2.4-4.79,20.9,20.9,0,0,1-.73-2.1c0-.09,0-.18-.1-.34s-.22-.69-.35-1.12-.37-1.23-.56-1.79c-.56-1.72-1.23-3.49-2.14-5.63-1.44-3.51-3.07-7.06-5-10.87-3.46-6.81-6.93-12.82-10-18.13l-.22-.38c-5.79-10-8.52-15.84-7.38-19.63a4.8,4.8,0,0,1,2.51-3c4.88-2.44,13.36,1.24,23.89,10.38A101.08,101.08,0,0,1,475.46,417a106.22,106.22,0,0,1,7.76,12.7c.48.93.93,1.88,1.37,2.81l2.38-2.8c.88-1.24,1.79-2.46,2.71-3.69,1.65-2.21,3.35-4.49,4.83-6.85l6.64-11.45a244,244,0,0,0,31.46-149.5,245.66,245.66,0,0,0-43.56-117.48A290.78,290.78,0,0,1,485,170.31a229.24,229.24,0,0,1-24.76,69.64l-3.47,8.55-4.09,8.24a261.86,261.86,0,0,1-60.39,80,144.29,144.29,0,0,1,31.27,15.81,74.22,74.22,0,0,1,22.34,24.88l.09.18c.49,1.14,2,4.63,0,6.72s-5.69.76-6.9.32a107.93,107.93,0,0,1-12-6.09c-2.41-1.33-4.9-2.7-7.56-4.1a137.48,137.48,0,0,0-43.34-15.8,49.35,49.35,0,0,0-11-.49h-3.82a20.13,20.13,0,0,1-5-.9,20.44,20.44,0,0,1-8.82-5.6,21,21,0,0,1-4.9-9.64l0-.1-1.09-6.74a62.94,62.94,0,0,0-3.28-10.59,137.45,137.45,0,0,0-27.48-40.27,178.38,178.38,0,0,0-39.88-31.8,89.94,89.94,0,0,0-26.53-10.71,44.36,44.36,0,0,0-6-.75h-4.41A27.93,27.93,0,0,1,225,239a27.56,27.56,0,0,1-13.5-12.49,27,27,0,0,1-2.93-8.73l0-.21a21.47,21.47,0,0,1,0-2.24v-2.84a68.44,68.44,0,0,0-9-25.1A141,141,0,0,0,181.8,163.1a155.73,155.73,0,0,0-47.31-36.74,87.72,87.72,0,0,0-12.9-5l-2.26-.77a20.59,20.59,0,0,1-2.87-1.3,26.69,26.69,0,0,1-6.29-42.31l1.18-1.15,1.36-1.08,3.44-2.81L123,66.16a139.85,139.85,0,0,1,14.36-10.92l14.8-9.85c3.67-2.25,7.43-4.25,11.08-6.17,1.57-.83,3.14-1.66,4.69-2.51l7.91-4.21c2-1,4-1.77,5.89-2.57l2.45-1,16.38-6.85a299,299,0,0,1,34.81-9.69c2-.38,4-.83,5.93-1.26A97.74,97.74,0,0,1,252.86,9l17.82-2.07a92.43,92.43,0,0,1,11.7-.62c2.08,0,4.23,0,6.29-.14a142,142,0,0,1,18.09,0l18,1.58,17.63,2.94,2.42.41c2.09.35,4.25.71,6.52,1.22l8.72,2.32c1.83.51,3.64,1,5.45,1.46,3.92,1,8,2.08,12,3.49a266.42,266.42,0,0,1,33.25,13.75A275.14,275.14,0,0,1,442.13,50a110.78,110.78,0,0,1,9.52,6.37c1.69,1.22,3.44,2.48,5.18,3.64a139.5,139.5,0,0,1,14.32,10.93l1.15,1c8.39-8.4,17.23-17.37,25.61-26.47l.34-.3A13.68,13.68,0,0,1,509,43l.1,0c3.1.82,7.9,3.75,5.26,14.1a111.93,111.93,0,0,1-18.55,37A273.3,273.3,0,0,1,570.49,268a268.3,268.3,0,0,1-17.88,111.3v0l-5.24,12.9c-1.22,2.94-2.69,5.75-4.11,8.47-.73,1.4-1.47,2.8-2.17,4.23l-6.58,12.67-7.6,11.52c-.84,1.25-1.64,2.51-2.44,3.78a85.8,85.8,0,0,1-5.45,7.91l-8.69,10.93-6.07,7.58-.92,1a26.63,26.63,0,0,1-7.73,5.79A26.34,26.34,0,0,1,484,468.78Zm-45.09-76.26a3.47,3.47,0,0,0-1.55.31.55.55,0,0,0-.34.39c-.82,2.73,4.46,11.88,7,16.29l.22.38c3.08,5.35,6.58,11.41,10.09,18.33,2,3.92,3.67,7.57,5.14,11.16.95,2.23,1.67,4.12,2.24,5.91.2.56.42,1.29.61,1.92.12.38.22.73.31,1s.13.41.17.56a17.19,17.19,0,0,0,.61,1.71,22,22,0,0,0,2,4,22.08,22.08,0,0,0,34.78,3l.83-.94,1.59-2L507,449l8.69-10.93a81,81,0,0,0,5.18-7.53c.82-1.29,1.64-2.58,2.49-3.85l7.53-11.41,6.4-12.34c.7-1.42,1.45-2.85,2.2-4.28,1.44-2.75,2.81-5.36,3.94-8.11l5.23-12.87a264.09,264.09,0,0,0,17.59-109.53A269,269,0,0,0,491.44,95.7l-1.28-1.33,1.14-1.46A107.67,107.67,0,0,0,510.23,56c1.95-7.63-1.1-8.57-2.19-8.86a9.42,9.42,0,0,0-7.15,1.39c-8.85,9.6-18.19,19-27,27.82l-1.4,1.4-4.15-3.6a135.36,135.36,0,0,0-13.89-10.61c-1.81-1.21-3.58-2.49-5.3-3.73A107.85,107.85,0,0,0,440,53.62a271.91,271.91,0,0,0-31-16.44,262.72,262.72,0,0,0-32.81-13.58c-3.88-1.36-7.85-2.39-11.68-3.39-1.83-.48-3.66-1-5.5-1.47l-8.61-2.3c-2.07-.47-4.08-.8-6.2-1.16l-2.44-.42L324.17,12,306.45,10.4a137.88,137.88,0,0,0-17.54,0c-2.18.11-4.37.13-6.49.15a89.41,89.41,0,0,0-11.21.58l-17.91,2.08a94.65,94.65,0,0,0-11.1,2c-2,.44-4,.9-6,1.28A294.65,294.65,0,0,0,202,26.06l-16.18,6.77-2.48,1c-1.87.77-3.8,1.57-5.6,2.43l-7.81,4.16c-1.55.84-3.13,1.68-4.72,2.52-3.58,1.9-7.29,3.86-10.78,6l-14.74,9.81a135.8,135.8,0,0,0-14,10.61l-6.88,5.78-4.8,3.89-.89.89a22.44,22.44,0,0,0,5.31,35.56,16.32,16.32,0,0,0,2.27,1l2.15.73a91.68,91.68,0,0,1,13.49,5.28A159.94,159.94,0,0,1,185,160.28a145.1,145.1,0,0,1,18.21,24.93A72.61,72.61,0,0,1,212.78,212l0,.31v3.17a17.25,17.25,0,0,0,0,1.74,22.81,22.81,0,0,0,2.46,7.27,23.3,23.3,0,0,0,11.41,10.58,23.66,23.66,0,0,0,7.42,1.79h4.36a48.78,48.78,0,0,1,6.75.84A94.19,94.19,0,0,1,273,248.9a182.49,182.49,0,0,1,40.77,32.5,141.66,141.66,0,0,1,28.33,41.54,67.26,67.26,0,0,1,3.54,11.42l0,.11,1.09,6.74a16.73,16.73,0,0,0,3.87,7.62,16.15,16.15,0,0,0,6.95,4.4,15.89,15.89,0,0,0,3.91.71h3.44a53.72,53.72,0,0,1,11.92.54,141.67,141.67,0,0,1,44.67,16.26c2.64,1.39,5.14,2.77,7.57,4.1a106.35,106.35,0,0,0,11.47,5.83,8.92,8.92,0,0,0,2.14.57,8.37,8.37,0,0,0-.59-1.85,69.93,69.93,0,0,0-21-23.33,140,140,0,0,0-33.67-16.49l-3.52-1.17,2.79-2.45a257.74,257.74,0,0,0,62.1-81.13l4.06-8.18,3.53-8.68a225,225,0,0,0,24.37-68.47,286.23,286.23,0,0,0,4.46-34.84l.38-5.79,3.45,4.67a249.88,249.88,0,0,1,47.75,124.26,248.15,248.15,0,0,1-32,152.07l-6.68,11.52c-1.62,2.56-3.37,4.92-5.06,7.19-.91,1.22-1.82,2.44-2.7,3.69l-.12.15-4.48,5.33-2.07,2.69-1.52-3c-.42-.85-.83-1.73-1.25-2.62s-1-2.11-1.5-3.12A101.92,101.92,0,0,0,472,419.51a96.79,96.79,0,0,0-15.44-16.9C447.89,395.09,442,392.51,438.91,392.51ZM364.63,325l-1-3.59a126.55,126.55,0,0,0-17-36,194.64,194.64,0,0,0-28.5-33.4,185.29,185.29,0,0,0-35.21-26.44,127,127,0,0,0-25.28-11.34L254,213l2.93-2.47c9.1-7.67,16.29-14.15,22.63-20.4l.17-.15c5.43-4.32,10.85-8.82,16.58-13.77a105.19,105.19,0,0,1,8.62-6.86l8.61-6.37,5.43-4.31,6-4.08c4.56-2.19,8.56-4.24,12.21-6.28,2.32-1.29,4.72-2.4,7-3.48,1.79-.83,3.64-1.68,5.4-2.6,5.89-3.09,12-5.89,17.89-8.6,2.33-1.07,4.67-2.15,7-3.24a356.62,356.62,0,0,1,52.17-19,133.79,133.79,0,0,0,29.62-10.79l3.08-1.56v12.32c-.22,4.32-.56,8.72-.88,13l0,.6c-.25,3.27-.65,6.54-1,9.7-.16,1.32-.32,2.64-.47,4-.56,4.88-1.31,9.66-2,13.7-2.9,18.19-6.24,36.59-9.92,54.68l0,.23-.1.22A352.81,352.81,0,0,1,397.78,284c-1.39,1.91-2.9,3.85-4.36,5.74-1.34,1.73-2.72,3.52-4,5.29-1.61,2.18-3.36,4.25-5,6.25-1.27,1.5-2.58,3.05-3.8,4.62l-8.77,11c-1.43,1.85-3,3.58-4.6,5.25ZM262.49,211.38A131.31,131.31,0,0,1,285,221.88a189.47,189.47,0,0,1,36,27A198.77,198.77,0,0,1,350.1,283a130.71,130.71,0,0,1,16.46,33.59c.65-.74,1.28-1.49,1.87-2.25l8.77-11c1.26-1.62,2.6-3.2,3.89-4.73,1.65-2,3.35-4,4.88-6,1.33-1.81,2.73-3.62,4.08-5.36s3-3.81,4.32-5.69l.06-.08A348.51,348.51,0,0,0,440.94,206c3.65-18,7-36.22,9.84-54.28.66-4,1.4-8.71,1.95-13.5.15-1.34.31-2.67.48-4,.38-3.12.77-6.34,1-9.51l0-.6c.33-4.41.65-8.58.87-12.83V106a137.8,137.8,0,0,1-27.4,9.61,352.25,352.25,0,0,0-51.45,18.7c-2.33,1.09-4.67,2.17-7,3.25-5.85,2.69-11.91,5.47-17.7,8.51-1.86,1-3.75,1.84-5.58,2.69-2.25,1-4.57,2.12-6.75,3.33-3.69,2.06-7.72,4.13-12.3,6.33l-5.56,3.78-5.29,4.21-8.7,6.44a101.21,101.21,0,0,0-8.32,6.62c-5.76,5-11.2,9.49-16.65,13.83C276.7,198.9,270.31,204.71,262.49,211.38Zm-26-15.27-1.2-3.79c-.12-.38-.23-.77-.35-1.15-.21-.72-.41-1.4-.64-2a146.22,146.22,0,0,0-22.32-39.36,202,202,0,0,0-30.45-31.36A164.15,164.15,0,0,0,144,94.78l-3.11-1.41,5.52-4.53A66.2,66.2,0,0,1,154,82.94l16.32-10.5A266,266,0,0,1,240.1,43.38l9.24-2.25a67.65,67.65,0,0,1,9.5-1.94l18.92-2.84,18.95-1.21A117.73,117.73,0,0,1,309.53,35c1.93.05,3.93.11,5.9.11l.63-.12c1.72-.43,3.47-.79,5.22-1.06l.62,0,.19,2a248.22,248.22,0,0,1,113.54,45L440,84.09l-9.5,1.19c-4,.57-8.14,1.37-12.12,2.14-2,.39-4,.77-6,1.13a181.78,181.78,0,0,0-17.7,4.33A173.09,173.09,0,0,0,330.42,125l-.19.15-.22.11a320.72,320.72,0,0,0-66.95,42.29A214.59,214.59,0,0,0,238.94,193ZM148.8,92.34a168.39,168.39,0,0,1,35.42,22.83,206.16,206.16,0,0,1,31.07,32,150.39,150.39,0,0,1,22.82,40.14,219,219,0,0,1,22.18-23A325,325,0,0,1,328,121.55a177.22,177.22,0,0,1,65.62-32.78,185.37,185.37,0,0,1,18.07-4.41c2-.36,3.94-.74,5.92-1.12,3.63-.7,7.38-1.43,11.13-2a244,244,0,0,0-113.6-41.81l-.52-.05c-1.75,0-3.49-.06-5.19-.11a112.88,112.88,0,0,0-12.4.11l-18.9,1.21-18.69,2.81a64.06,64.06,0,0,0-9,1.84l-9.29,2.27A261.65,261.65,0,0,0,172.6,76.06L156.36,86.51a62.44,62.44,0,0,0-7.22,5.56Z" transform="translate(-3.21 -5.87)"/></svg>