<svg xmlns="http://www.w3.org/2000/svg" viewBox="0 0 361.73 384.47"><title>icon-basket</title><path d="M303,178.22c7.71-8.26,14.08-18.46,15.71-29.53,1.6-10.84-1.64-21.15-9.37-29.82-6.33-7.1-22.1-15.13-35.51-15.73a110.12,110.12,0,0,0,1.45-12.31c.51-7,.74-10.26,9.17-23,8.87-13.36,17.88-24.13,27.55-32.95,3.91-3.56,8.57-6.3,13.5-9.2,5.29-3.11,10.76-6.32,15.58-10.77A8.26,8.26,0,0,0,341.56,3a8.94,8.94,0,0,0-12.76-.65c-4,3.7-8.81,6.55-13.89,9.56-5.49,3.26-11.16,6.62-16.15,11.3a199.63,199.63,0,0,0-29.36,35.33c-11.37,17.13-12,24-12.94,34.34-.3,3.28-.62,6.83-1.33,11.27a45,45,0,0,0-23.75-8.28,35,35,0,0,0-25.7,9.6c-9.66,9.07-14.33,23.11-13.14,39.54a74.18,74.18,0,0,0,1.59,10.75,9.87,9.87,0,0,0-1.91.47L8.06,226.64c-.58,0-.58.58-1.15.58s-.58.58-1.15.58-.58.58-1.15.58-.58.58-1.15.58l-.58.58c0,.58-.58.58-.58,1.15s-.58.58-.58,1.15-.58.58-.58,1.15,0,.58-.58,1.15c0,.58,0,.58-.58,1.15V372.95a11.55,11.55,0,0,0,11.52,11.52H350.21a11.55,11.55,0,0,0,11.52-11.52V230C361.38,227.58,323.32,196.88,303,178.22Zm-73.64-64.85h.25c9.15,0,19.23,6.1,24,14.59a8.52,8.52,0,0,0,7.42,4.37h.07a9.36,9.36,0,0,0,8-4.5,8.31,8.31,0,0,0,.73-6.82l.08-.34a3.22,3.22,0,0,1,1.6-.44c7.75-.66,22.91,7.82,25.72,11.73h0a19.74,19.74,0,0,1,3.61,16.29c-1.76,8.39-8,16.3-15,22.44a112.44,112.44,0,0,0-9,6.75c-.53.34-1.05.66-1.57,1-14.52,8.62-36.85,13-52-3-11.41-12-17.69-36-8.83-52.57C217.67,116.65,222.72,113.46,229.36,113.38Zm-28,66.51a12.47,12.47,0,0,0,2.19-1.15,54.94,54.94,0,0,0,3.45,4.83c10.55,13.1,25.85,19.86,42.3,19.86a68.2,68.2,0,0,0,32.51-8.67l36.5,31.59-242.82-.3ZM22.46,249.11H338.11v33.41h.58c-11.52,1.73-20.16,6.91-28.22,12.1-9.79,5.76-17.86,10.94-31.68,10.94-12.67,0-19-4.61-27.65-9.79-9.22-6.34-20.74-13.82-40.32-13.82s-31.68,7.49-41.47,13.82c-8.64,5.18-15,9.79-27.07,9.79s-19.58-4.61-28.8-10.37c-10.37-6.34-21.89-13.25-39.74-13.25-19.58,0-30.53,6.91-39.17,12.67-4.61,2.88-8.06,5.18-12.1,5.76Zm316.8,112.32H23.62V324c10.37-1.15,17.86-5.76,24.19-9.79C55.3,309.59,61.63,305,74.3,305c11.52,0,18.43,4.61,27.65,9.79,10.37,6.34,22.46,13.82,40.9,13.82s29.38-6.91,39.17-13.25c8.64-5.76,16.13-10.37,28.8-10.37s19.58,4.61,28.22,9.79c9.79,6.34,20.74,13.82,40.32,13.82,20.16,0,32.83-8.06,43.78-14.4,5.76-3.46,10.94-6.34,16.13-8.06Z"/></svg>