<?xml version="1.0" encoding="utf-8"?>
<!-- Generator: Adobe Illustrator 22.1.0, SVG Export Plug-In . SVG Version: 6.00 Build 0)  -->
<svg version="1.1" id="_x2018_лой_x5F_1" xmlns="http://www.w3.org/2000/svg" xmlns:xlink="http://www.w3.org/1999/xlink"
	 x="0px" y="0px" width="64px" height="70.6px" viewBox="0 0 64 70.6" style="enable-background:new 0 0 64 70.6;"
	 xml:space="preserve">
<style type="text/css">
	.st0{fill:#231F20;}
</style>
<g>
	<g>
		<path class="st0" d="M22.6,70.3c0.7-3.1,1.4-6.2,2.1-9.3c0,0,0,0,0,0c4.3-0.6,7.9-4,8.9-8.2c0.1-0.3-0.2-0.7-0.6-0.6
			c-2.8,0.9-5.6,2.7-7.4,5c0.8-3.2,1.6-6.5,2.4-9.7c0.1-0.1,0.2-0.1,0.2-0.3c0.3,0.1,0.6,0.2,1,0.1c1.7-0.3,3.3-1.5,4.7-2.5
			c1.3-1,2.5-2.1,3.6-3.4c0.3-0.3,0-0.9-0.4-0.8c-3.1,1.1-6,2.6-8.5,4.8c0.7-2.8,1.5-5.7,2.3-8.5c3.9-0.6,7.4-3,9.2-6.5
			c0.2-0.3-0.1-0.8-0.5-0.7c-3.1,1.1-5.8,2.8-8.1,5.1c0.6-2.3,1.3-4.6,2-6.9c3.8,0.3,6.3-2.9,8.3-5.8c0.3-0.4-0.2-0.7-0.5-0.7
			c-2.6,0.4-5,1.6-6.8,3.3c0.6-1.8,1.1-3.7,1.7-5.5c1.2,0.7,2.4,0,3.3-0.9c1.5-1.4,2.8-3,4.1-4.6c0.3-0.3-0.2-0.7-0.5-0.6
			c-2.4,0.5-4.5,1.7-6.1,3.5c0.2-0.6,0.4-1.1,0.5-1.7c2.6-3.9,3.4-8.8,2-13.3c-0.1-0.3-0.7-0.5-0.8-0.1c-1.9,4.1-3.9,8.6-2.4,13.2
			c0,0.1,0.1,0.2,0.2,0.3c-0.3,0.9-0.6,1.7-0.8,2.6c-1.1-2.7-3.5-4.6-6.4-5.2c-0.3-0.1-0.7,0.2-0.6,0.6c1.1,3,3.4,5.3,6.5,6.2
			c-0.7,2.2-1.3,4.3-2,6.5c-1.2-2.5-3.5-4.4-6.2-5c-0.3-0.1-0.7,0.2-0.6,0.6c0.9,3.1,3.2,5.4,6.2,6.5c-0.7,2.5-1.4,4.9-2.1,7.4
			c-1.1-2.5-3.7-3.9-6.6-3.5c-0.4,0.1-0.4,0.5-0.2,0.8c1.7,2.1,3.8,3.7,6.2,4.8c-0.7,2.6-1.4,5.2-2.1,7.8c-1.3-2.2-3.1-4-5.5-5
			c-0.4-0.2-0.9,0.2-0.6,0.6c1.4,2.6,3.3,4.8,5.6,6.5c-1,3.8-1.9,7.7-2.8,11.6c-1.6-2.9-3.9-5.2-6.8-6.9c-0.3-0.2-0.8,0-0.7,0.4
			c0.4,3.9,3.3,7.2,7.1,8.1c-0.7,3.2-1.4,6.5-2.1,9.7C21.8,70.6,22.5,70.8,22.6,70.3z M36.9,14c-0.9-3.8,0.4-7.5,2-10.9
			C39.6,6.9,38.9,10.7,36.9,14z M34.8,18c-2.2-0.8-3.9-2.4-4.9-4.5C32.1,14.2,33.9,15.9,34.8,18z M36.5,18.6c1.3-2,3.2-3.4,5.4-4.2
			c-0.6,0.8-1.3,1.5-2,2.2C39.2,17.4,37.7,19.3,36.5,18.6z M32.6,26.7c-2.3-0.9-4.1-2.7-5.1-4.9C29.8,22.6,31.7,24.3,32.6,26.7z
			 M33.7,27.1c0-0.1,0.1-0.3,0.1-0.4c1.7-2,3.9-3.4,6.5-4C38.6,24.9,36.6,27.1,33.7,27.1z M31.6,35.9c2-2.1,4.4-3.7,7.1-4.8
			C37,33.5,34.4,35.3,31.6,35.9z M29.8,36.1c-1.9-0.9-3.5-2.2-4.9-3.8C27.2,32.3,29.1,33.8,29.8,36.1z M28.9,46.3c2-1.7,4.2-3,6.5-4
			C33.5,44.1,30.4,46.7,28.9,46.3z M27.1,45.9c-1.6-1.3-2.9-2.8-4-4.5c1.4,0.8,2.6,1.9,3.4,3.3C26.7,45.1,26.9,45.5,27.1,45.9z
			 M23.5,59.2c-2.8-0.9-4.9-3.2-5.6-6C20.3,54.7,22.2,56.7,23.5,59.2z M25,60c0.1-0.2,0.1-0.5,0.2-0.7c0,0,0.1,0,0.1-0.1
			c2-2.6,4.3-4.6,7.3-5.9C31.4,56.8,28.5,59.3,25,60z"/>
	</g>
</g>
<g>
	<g>
		<path class="st0" d="M3.1,0.5C3,4.1,4.6,7.5,7.4,9.8c1.3,4.7,2.3,9.4,2.9,14.2c-0.1,0.3-0.2,0.7-0.2,1c-2.9-1.7-6.1-2.5-9.5-2.2
			c-0.5,0-0.8,0.7-0.3,1c3.2,1.8,6.7,2.7,10.3,2.7c0.4,3.7,0.5,7.4,0.5,11.1c-1.7-1.8-3.9-3-6.4-3.7c-0.5-0.1-0.9,0.4-0.5,0.8
			c1.7,1.9,3.8,3.4,6.3,4.3c0.2,0.1,0.3,0,0.4-0.1c0.1,0.1,0.1,0.2,0.2,0.2c-0.1,3.3-0.4,6.7-0.9,10c-0.1,0.2-0.1,0.3-0.2,0.5
			c-1.6-2.4-4-4.1-6.9-4.8c-0.5-0.1-0.8,0.4-0.5,0.8c1.8,2.6,4.3,4.5,7.2,5.8c-0.4,2.8-1,5.5-1.7,8.2c-1.7-2-4-3.4-6.6-3.9
			C1,55.6,0.6,56,0.8,56.4c1.4,2.7,3.7,4.8,6.7,5.8c0.1,0.3,0.5,0.5,0.7,0.3c0.1,0,0.2,0,0.3,0c3.2-1,5.3-4,5.1-7.4
			c0-0.5-0.5-0.7-0.9-0.4c-1.2,0.9-2.3,2-3.1,3.2c0.5-2,0.9-4.1,1.3-6.2c0.1,0,0.1,0,0.2,0c3.1-1.6,5.1-4.8,5.1-8.3
			c0-0.4-0.4-0.7-0.8-0.5c-1.5,0.9-2.8,2-3.8,3.4c0.2-2.3,0.4-4.5,0.5-6.8c3-1.5,5-4.5,5.2-7.9c0-0.4-0.5-0.7-0.8-0.5
			c-1.9,1.3-3.3,2.9-4.3,4.9c0-3.4-0.2-6.8-0.5-10.3c3-2.4,4.7-5.9,4.8-9.7c0-0.5-0.6-0.7-0.9-0.4c-2,1.7-3.5,3.7-4.4,6
			c-0.6-3.8-1.4-7.6-2.4-11.4c0.1-0.1,0.3-0.2,0.3-0.4C9.2,6,7.2,2.2,4,0.1C3.6-0.1,3.2,0.1,3.1,0.5z M7.7,61.3
			c-2.2-0.9-4-2.3-5.3-4.3c2.2,0.7,4,2,5.4,3.9C7.7,61,7.7,61.2,7.7,61.3z M12.5,56.3c-0.3,2.1-1.5,3.9-3.5,4.8
			C9.8,59.3,11,57.7,12.5,56.3z M4.4,46.3c1.8,0.8,3.3,2,4.5,3.6C7.2,49,5.7,47.7,4.4,46.3z M14.9,44.5c-0.4,2.5-1.8,4.6-3.9,6
			c0.1-0.4,0.1-0.7,0.2-1.1C11.9,47.4,13.2,45.8,14.9,44.5z M6.5,35.6c1.1,0.5,2.1,1.2,3,2C8.4,37,7.4,36.4,6.5,35.6z M16,32.9
			c-0.5,2.2-1.8,4.1-3.7,5.3C13.1,36.1,14.3,34.3,16,32.9z M8.1,25.2C6.3,25,4.6,24.5,3,23.9C4.8,24,6.5,24.5,8.1,25.2z M15.2,17.4
			c-0.4,2.7-1.7,5.2-3.7,7c0-0.1,0-0.3,0-0.4C12,21.6,13.3,19.3,15.2,17.4z M7.8,8.8C5.7,7,4.4,4.4,4.2,1.6C6.4,3.4,7.7,6,7.8,8.8z"
			/>
	</g>
</g>
<g>
	<g>
		<path class="st0" d="M63.3,34.9c-3.1,1-5.5,3.2-6.9,6.2c-0.1,0.2-0.1,0.3,0,0.5c-2.9,2.2-5.5,4.6-8,7.2c0.6-2.2,0.6-4.6-0.2-6.9
			c-0.1-0.4-0.7-0.5-1-0.1c-1.4,2.4-2.4,6.3-0.7,8.8c0,0.1,0.1,0.1,0.1,0.1c-1.7,1.9-3.3,4-4.7,6.1c0.1-2.6-0.4-5.2-1.6-7.5
			c-0.2-0.4-0.9-0.3-1,0.1c-1.2,3.6-1.1,7.4,0.3,10.9c0,0,0,0.1,0.1,0.1c-0.9,1.5-1.7,3-2.5,4.5c-1.3-1.9-3.6-3-6-2.6
			c-0.3,0.1-0.5,0.5-0.3,0.8c0.7,1.1,1.5,2.2,2.6,2.9c0.5,0.3,1.7,1.2,2.6,1.4c-0.3,0.6-0.5,1.2-0.7,1.7c-0.2,0.6,0.7,0.9,1,0.3
			c0.3-0.6,0.5-1.2,0.8-1.8c3.6,0.7,7.3,0.4,10.7-0.9c0.5-0.2,0.6-0.9,0-1.1c-2.6-0.5-5.2-0.6-7.8-0.1c-0.7,0.1-1.3,0.3-2,0.4
			c0,0-0.1,0-0.1,0c0,0,0,0,0,0c0.9-1.9,1.9-3.8,3-5.6c0,0,0,0,0,0c3.4,0.9,6.9,0.5,10-1.1c0.4-0.2,0.4-1-0.1-1
			c-3-0.4-6-0.2-8.9,0.7c1.6-2.5,3.4-4.9,5.3-7.1c0,0,0.1,0.1,0.1,0.1c3.3,1,6.8,0.5,9.8-1c0.4-0.2,0.3-0.9-0.1-1
			c-2.5-0.6-5-0.6-7.4,0c-0.2,0.1-0.5,0.1-0.7,0.1c2.8-3,5.9-5.8,9.3-8.2c0,0,0,0,0.1-0.1c2.8-0.9,5-3.2,5.9-6
			C64.1,35.2,63.7,34.8,63.3,34.9z M45,66.4c-2,0.5-4,0.6-6.1,0.4C40.9,66.4,42.9,66.2,45,66.4z M36.6,66c0,0.1-0.1,0.1-0.1,0.2
			c-0.4,0-0.8-0.1-1.4-0.4c-1.2-0.6-2.1-1.5-2.9-2.6C34.1,63.2,35.8,64.3,36.6,66z M48.3,59.1c-1.8,0.6-3.6,0.8-5.5,0.6
			C44.6,59.3,46.4,59.1,48.3,59.1z M40.6,58.7c-0.1,0.1-0.2,0.3-0.3,0.4c-0.9-2.6-1-5.4-0.4-8.1C40.9,53.5,41.1,56.1,40.6,58.7z
			 M54.8,50.6c-2,0.7-4.1,0.9-6.3,0.5c0.4-0.1,0.8-0.2,1.2-0.3C51.4,50.5,53.1,50.4,54.8,50.6z M47.1,49.3c0-0.1-0.1-0.1-0.1-0.2
			c-0.2-0.7-0.2-1.5-0.3-2.2c0-1.2,0.3-2.3,0.8-3.4C48,45.4,47.8,47.4,47.1,49.3z M57.9,40.7c1.1-1.8,2.6-3.2,4.5-4.2
			C61.4,38.4,59.8,39.8,57.9,40.7z"/>
	</g>
</g>
</svg>
