<?xml version="1.0" encoding="utf-8"?>
<!-- Generator: Adobe Illustrator 21.1.0, SVG Export Plug-In . SVG Version: 6.00 Build 0)  -->
<svg version="1.2" baseProfile="tiny" id="Слой_1"
	 xmlns="http://www.w3.org/2000/svg" xmlns:xlink="http://www.w3.org/1999/xlink" x="0px" y="0px" viewBox="0 0 1366 768"
	 overflow="scroll" xml:space="preserve">
<path d="M521.7,424.9c-7.9-7.9-13.3-15.6-16-25.2c-8.9-31.1,14.1-63.7,46.4-64.7c22.3-0.7,44.6-0.2,67-0.3c1.8,0,3.6,0,4.9,0
	c3.9-5.9,1.3-9.6-3-13c-1.7-1.3-3.5-2.8-4.5-4.7c-0.7-1.3-0.7-3.9,0.2-4.8c0.8-0.9,3.4-0.9,4.7-0.2c1.9,0.9,3.7,2.6,4.7,4.4
	c3.5,6,9,4.7,14.3,4.1c1-0.1,2-1.5,2.8-2.4c5-5.8,11.2-8.5,18.7-6.6c3.6,0.9,5.1-1.2,6.6-3.1c4.5-5.8,10.3-8.4,17.4-6.9
	c1.8,0.4,3.2,2.5,4.8,3.9c-1.6,1.2-3.3,3.5-4.7,3.3c-6.9-0.9-10.8,2.8-13.4,6.4c1.6,7,3,13,4.5,19.6c12.4,1.2,24.4,6.2,33.6,16.4
	c3.6,4,6.7,8.7,9.2,13.5c4.2,8,2.9,11.5-5,15.9c1.1,17-4.3,31.6-17.8,43.9c2.5,0.2,4.1,0.3,5.6,0.3c9.2,0,18.3-0.1,27.5,0.1
	c6.1,0.1,10.5,4.6,10.7,10.4c0.2,5.7-4,10.4-10,11c-2.5,0.3-5,0.2-7.5,0.2c-75,0-150,0-224.9,0c-1.2,0-2.3,0-3.5-0.2
	c-6-0.7-10.2-5.4-10-11.1c0.2-5.7,4.7-10.2,10.7-10.3C503.9,424.8,512,424.9,521.7,424.9z M556,424.9C556,424.9,556,424.8,556,424.9
	c3.8,0,7.7-0.5,11.5,0.1c8.5,1.2,14.7-2.8,20.3-8.4c12.4-12.3,16.3-30.6,9.9-46.5c-6.6-16.5-23.3-28-41.5-27.7
	c-18.1,0.3-32.2,8.2-40.4,24.6c-7.9,15.9-6,31.4,4.8,45.5c6.1,8,13.6,14.2,24.9,12.5C549,424.4,552.5,424.9,556,424.9z M584,342.1
	c14.1,11.9,14.8,12.9,21.8,28.1c0.6,1.2,2.6,2.3,4.1,2.3c7.2,0.2,14.3,0.1,21.5,0.1c7.9,0.1,10.4,2.6,10.7,10.4
	c0.1,1.5-0.1,3.5,0.7,4.3c1.7,1.7,4.1,3.7,6.2,3.6c1.7-0.1,3.4-2.8,4.9-4.6c0.5-0.6,0.1-1.9,0.2-2.9c0.6-6.6,5.2-10.9,11.5-10.7
	c6.1,0.2,10.3,4.5,10.6,11c0.1,2.7,0,5.4,0.5,7.9c0.7,3.2,3.2,5.2,6.3,4.1c2-0.7,3.9-3.1,5-5.2c0.8-1.6,0.2-3.9,0.2-5.9
	c0.1-9.6,2.5-12,12.2-12.1c4.7,0,9.5,0,15,0c-6.8-17-18.1-27.3-34.9-29.4c-13-1.7-26.2-1-39.4-1.1C622.4,342,603.8,342.1,584,342.1z
	 M590.6,424.4c1.5,0.3,1.9,0.5,2.4,0.5c29.2,0,58.3,0,87.5,0c1.1,0,2.3-0.2,3.4-0.6c15.4-6.3,26.4-27.5,22.8-43.9
	c-3.4,0-6.8,0-10.6,0c-0.2,4.2-0.2,8.2-0.7,12.1c-1,6.9-7,11.7-13.7,11.3c-6.8-0.3-12.2-5.6-12.7-12.5c-0.1-1.8,0.4-3.8-0.2-5.5
	c-0.7-2-2-5.2-3.4-5.4c-3.3-0.5-3.5,2.6-3.6,5.2c-0.3,5-2.3,9-6.8,11.5c-8.9,5.2-19.4-0.9-20.2-11.5c-0.1-1.9-1.4-5.3-2.3-5.4
	c-8.1-0.4-16.2-0.2-24.6-0.2C609.5,397.9,603.5,412.2,590.6,424.4z M612.9,439c20.6,0,41.3,0,61.9,0c17.8,0,35.6,0,53.5,0
	c2.5,0,5.3-0.4,4.7-3.5c-0.2-1.3-2.9-2.3-4.6-3.2c-0.5-0.3-1.3-0.1-2-0.1c-75.6,0-151.2,0-226.8,0c-1.5,0-3.2-0.2-4.4,0.4
	c-1.1,0.5-2.4,2.1-2.3,3.2c0.1,1.1,1.5,2.3,2.6,3c0.9,0.5,2.3,0.2,3.4,0.2C537,439,574.9,439,612.9,439z M652.9,334.6
	c0.7,0,1.7,0.1,2.7,0.1c2.8,0,5.7,0.4,8.5-0.1c1.5-0.3,3.5-1.8,4-3.2c1.7-4.5-1-9.8-5.6-11.9c-5.2-2.4-10.6-0.5-13.8,4.6
	C650.1,327.5,651.4,330.8,652.9,334.6z M644.2,334.5c0-4.3-2.1-6.4-5.7-6.3c-3.5,0.1-5.8,2.1-5.4,6.3
	C636.7,334.5,640.1,334.5,644.2,334.5z"/>
<path fill="#FFFFFF" d="M556,424.9c-3.5,0-7.1-0.4-10.5,0.1c-11.3,1.6-18.8-4.5-24.9-12.5c-10.8-14.1-12.7-29.6-4.8-45.5
	c8.2-16.4,22.2-24.4,40.4-24.6c18.2-0.3,34.8,11.2,41.5,27.7c6.4,15.9,2.5,34.2-9.9,46.5c-5.6,5.6-11.8,9.6-20.3,8.4
	C563.7,424.4,559.8,424.8,556,424.9C556,424.8,556,424.9,556,424.9z M564.4,408.6c1.6-7.5,4.1-14.9,4.7-22.5
	c0.7-8.8-7.3-14.8-16-13.1c-5.7,1.1-9.5,5.4-10.4,12.4c-0.6,4.1-2.4,6.7-6.7,6.3c-4.4-0.4-6.1-3.6-5-7.5c1.3-4.7,3.7-9.1,5.2-13.8
	c0.6-1.8-0.2-4.1-0.3-6.1c-1.9,0.6-4.3,0.6-5.5,1.8c-4.6,4.9-6.5,11.1-7.2,17.7c-0.8,8.2,4,14.5,11.6,15.3
	c8.4,0.9,14.1-3.6,15.1-12.1c0.5-4.1,2.2-6.7,6.5-6.7c3.7,0,5.8,3.3,5.4,8.1c-0.6,7.3-3.5,13.7-8,19.6c-1.5,1.9-2.8,5.7-1.9,7.2
	c1,1.7,4.8,2.9,7.1,2.7c13-1.3,22.5-8,27.5-20.2c4.9-12,2.5-23.3-5.9-33.1c-8.1-9.4-22.9-13.5-34.2-9.3c-1.6,0.6-2.5,3.1-3.8,4.8
	c1.9,0.8,3.7,1.7,5.7,2.3c0.7,0.2,1.6-0.3,2.4-0.5c10.8-2.2,19.5,1.4,25.9,10C586.8,385.3,579,406.6,564.4,408.6z"/>
<path fill="#FFFFFF" d="M584,342.1c19.7,0,38.3-0.1,56.9,0c13.1,0.1,26.4-0.6,39.4,1.1c16.8,2.2,28.1,12.5,34.9,29.4
	c-5.5,0-10.3,0-15,0c-9.7,0.1-12.1,2.5-12.2,12.1c0,2,0.6,4.3-0.2,5.9c-1,2.1-2.9,4.5-5,5.2c-3,1.1-5.6-0.9-6.3-4.1
	c-0.5-2.6-0.4-5.3-0.5-7.9c-0.3-6.5-4.4-10.8-10.6-11c-6.3-0.2-10.9,4.1-11.5,10.7c-0.1,1,0.3,2.3-0.2,2.9c-1.4,1.8-3.2,4.5-4.9,4.6
	c-2,0.1-4.4-1.9-6.2-3.6c-0.8-0.8-0.6-2.8-0.7-4.3c-0.3-7.8-2.9-10.3-10.7-10.4c-7.2-0.1-14.3,0.1-21.5-0.1c-1.4,0-3.5-1.2-4.1-2.3
	C598.8,355.1,598.1,354.1,584,342.1z"/>
<path fill="#FFFFFF" d="M590.6,424.4c12.9-12.2,18.8-26.4,17.3-44.3c8.4,0,16.5-0.2,24.6,0.2c0.9,0,2.1,3.5,2.3,5.4
	c0.8,10.5,11.3,16.6,20.2,11.5c4.4-2.6,6.5-6.6,6.8-11.5c0.1-2.6,0.3-5.7,3.6-5.2c1.4,0.2,2.7,3.4,3.4,5.4c0.6,1.6,0.1,3.6,0.2,5.5
	c0.5,6.9,6,12.1,12.7,12.5c6.7,0.3,12.7-4.5,13.7-11.3c0.6-3.9,0.5-7.9,0.7-12.1c3.8,0,7.2,0,10.6,0c3.6,16.4-7.4,37.5-22.8,43.9
	c-1,0.4-2.3,0.6-3.4,0.6c-29.2,0-58.3,0-87.5,0C592.5,424.8,592.1,424.7,590.6,424.4z"/>
<path fill="#FFFFFF" d="M612.9,439c-38,0-75.9,0-113.9,0c-1.2,0-2.5,0.3-3.4-0.2c-1.1-0.6-2.6-1.9-2.6-3c-0.1-1.1,1.2-2.7,2.3-3.2
	c1.2-0.6,2.9-0.4,4.4-0.4c75.6,0,151.2,0,226.8,0c0.7,0,1.5-0.2,2,0.1c1.7,1,4.4,1.9,4.6,3.2c0.6,3.1-2.2,3.5-4.7,3.5
	c-17.8,0-35.6,0-53.5,0C654.2,439,633.6,439,612.9,439z"/>
<path fill="#FFFFFF" d="M652.9,334.6c-1.5-3.8-2.8-7-4.2-10.5c3.1-5,8.6-6.9,13.8-4.6c4.7,2.1,7.4,7.4,5.6,11.9
	c-0.5,1.4-2.5,2.9-4,3.2c-2.7,0.5-5.6,0.1-8.5,0.1C654.6,334.7,653.6,334.6,652.9,334.6z"/>
<path fill="#FFFFFF" d="M644.2,334.5c-4.1,0-7.5,0-11.1,0c-0.4-4.3,1.9-6.3,5.4-6.3C642,328.1,644.1,330.2,644.2,334.5z"/>
<path d="M564.4,408.6c14.6-2,22.4-23.3,12.2-36.8c-6.5-8.5-15.2-12.1-25.9-10c-0.8,0.2-1.7,0.7-2.4,0.5c-1.9-0.6-3.8-1.5-5.7-2.3
	c1.2-1.6,2.2-4.2,3.8-4.8c11.3-4.2,26.1-0.1,34.2,9.3c8.4,9.8,10.8,21,5.9,33.1c-4.9,12.2-14.5,18.9-27.5,20.2
	c-2.4,0.2-6.1-0.9-7.1-2.7c-0.9-1.6,0.4-5.3,1.9-7.2c4.5-5.9,7.4-12.2,8-19.6c0.4-4.8-1.7-8-5.4-8.1c-4.3,0-6,2.6-6.5,6.7
	c-1,8.5-6.8,13-15.1,12.1c-7.6-0.8-12.4-7.1-11.6-15.3c0.6-6.6,2.6-12.8,7.2-17.7c1.1-1.2,3.6-1.2,5.5-1.8c0.1,2,0.9,4.3,0.3,6.1
	c-1.5,4.7-3.9,9.1-5.2,13.8c-1.1,3.9,0.6,7.1,5,7.5c4.3,0.4,6.2-2.1,6.7-6.3c1-7,4.7-11.3,10.4-12.4c8.7-1.7,16.7,4.2,16,13.1
	C568.5,393.7,566,401.2,564.4,408.6z"/>
</svg>
