<svg version="1.1" id="Слой_1" xmlns="http://www.w3.org/2000/svg" xmlns:xlink="http://www.w3.org/1999/xlink" x="0px" y="0px"
	 viewBox="0 0 44.2 61.3" enable-background="new 0 0 44.2 61.3" xml:space="preserve">
<g>
	<g>
		<g>
			<path d="M1.5,24.7C1,16.8,4.4,10.5,9.7,5.6c4.1-3.8,10.2-5.4,15.6-4.8c10.7,1,18,12.2,17.5,21c-0.4,5.8-1.3,8.8-3.6,14
				c-2.7,6.2-8.9,10.9-12.3,16.8c-0.9,1.5-1.8,3.4-2.3,5.2c-0.2,0.8-0.5,1.7-1.3,1.8c-1,0.2-1.6-0.6-2.1-1.4
				C16.1,48.8,6.4,39.6,2.4,29.2C1.7,27.3,1.5,25.7,1.5,24.7 M22.3,54.1c1.1-0.4,1.3-1.1,1.5-1.6c3.8-7.1,10.5-12.1,13.5-19.5
				c1.8-4.3,2.4-6.4,2.6-11.1c0.4-7.4-7.1-18.2-16.5-18.4C14.7,3.2,9.8,8.5,7,13C4.5,17.1,3.6,22.5,5,28c1.6,6.2,6.6,13,10.8,18
				C18.1,49.5,20.4,51.6,22.3,54.1"/>
		</g>
		<g>
			<path d="M23,60.4c-1.3,0-2-1.2-2.4-1.8c-2.1-3.9-5-7.7-8-11.7C8.5,41.4,4.1,35.7,1.8,29.5c-0.8-2.2-1-3.9-1-4.8
				c-0.5-7.4,2.3-14,8.4-19.6c4.1-3.7,10.1-5.6,16.2-5c11.1,1.1,18.7,12.4,18.1,21.8c-0.4,6.1-1.5,9.2-3.7,14.2
				c-1.6,3.6-4.2,6.6-6.8,9.6c-2,2.3-4.1,4.7-5.6,7.3c-0.6,1-1.7,3-2.2,5c-0.2,0.7-0.6,2.1-1.8,2.3C23.3,60.4,23.2,60.4,23,60.4z
				 M23.3,1.4c-5,0-9.7,1.7-13,4.7c-5.8,5.3-8.5,11.5-8,18.5l0,0c0,0.8,0.1,2.3,0.9,4.3c2.3,6,6.6,11.7,10.7,17.1
				c3,4,5.9,7.9,8.1,11.8c0.5,0.8,0.9,1.1,1.3,1c0.4-0.1,0.6-0.9,0.7-1.3c0.6-2.2,1.8-4.3,2.4-5.4c1.6-2.7,3.7-5.2,5.7-7.5
				c2.5-2.9,5.1-5.9,6.5-9.2c2.2-4.9,3.1-7.8,3.6-13.8c0.5-8.6-6.7-19.3-16.8-20.3C24.6,1.4,23.9,1.4,23.3,1.4z M22,54.9l-0.3-0.4
				c-0.7-1-1.6-1.9-2.4-2.9c-1.3-1.5-2.7-3.1-4.2-5.3C9.3,39.3,5.6,33.1,4.3,28.1c-1.4-5.4-0.6-11,2.1-15.5
				c4.1-6.7,9.9-10.1,17-9.9c4.1,0.1,8.2,2.1,11.5,5.7c3.7,3.9,5.9,9.2,5.7,13.5c-0.2,4.9-0.9,7.1-2.7,11.4
				c-1.7,4.2-4.6,7.7-7.3,11c-2.2,2.7-4.5,5.5-6.2,8.6c-0.1,0.1-0.1,0.2-0.1,0.3c-0.2,0.5-0.6,1.3-1.8,1.7L22,54.9z M23,4.1
				c-6.4,0-11.6,3.1-15.4,9.3c-2.5,4.1-3.3,9.4-2,14.4c1.3,4.8,4.8,10.8,10.6,17.7c1.4,2.1,2.8,3.7,4.1,5.2
				c0.8,0.9,1.5,1.7,2.1,2.5c0.3-0.2,0.4-0.4,0.5-0.7c0.1-0.1,0.1-0.2,0.2-0.4c1.7-3.2,4.1-6,6.3-8.8c2.8-3.4,5.5-6.7,7.1-10.6
				c1.7-4.2,2.4-6.2,2.6-10.9c0.2-3.9-1.9-8.8-5.3-12.5C30.8,6,27.1,4.2,23.4,4.1C23.3,4.1,23.1,4.1,23,4.1z"/>
		</g>
	</g>
	<g>
		<path d="M21.9,11.9c-5.9,0-9.6,5-9.6,8.6c0,1.6,0.6,4.3,2.2,6.8c1.3,1.9,3.5,4.1,7.1,4.1c6.2,0,10.2-3.4,10.2-8.7
			C31.9,15.6,28.5,11.9,21.9,11.9z M28.8,27.9c-0.3,0.3-1.6,1.1-1.6,1.1c-1.8,0.8-3.1,1.2-3.2,1.2c-0.7,0.1-1.5,0.2-2.3,0.2
			c-1.7,0-3.1-0.6-4.2-1.5c-0.9-0.6-1.6-1.3-2-2.2c-1.4-2.1-2-4.7-2-6.1c0-3.1,3.3-7.5,8.5-7.5c6,0,8.8,3.2,8.9,9.7
			C30.8,25.7,28.8,27.9,28.8,27.9z"/>
		<path d="M21.7,32.5c-4.1,0-6.6-2.5-8-4.6c-1.8-2.6-2.4-5.6-2.4-7.4c0-4.1,4-9.7,10.6-9.7c7.2,0,11,4.1,11,11.9
			C32.9,28.6,28.4,32.5,21.7,32.5z M21.9,14.1c-4.5,0-7.4,3.9-7.4,6.5c0,1.4,0.6,3.7,1.9,5.6l0.1,0.1c0.3,0.7,0.9,1.3,1.6,1.7
			c1.2,0.9,2.3,1.3,3.6,1.3c0.7,0,1.3-0.1,2.1-0.2c0.2,0,1.4-0.4,2.9-1.1c0.4-0.3,1.1-0.7,1.3-0.9l0.8,0.7L28,27.2
			c0,0,1.8-1.9,1.7-4.4C29.6,16.8,27.2,14.1,21.9,14.1z M28,27.1l0.8,0.7L28,27.1z"/>
	</g>
</g>
</svg>
