<svg id="Слой_1" data-name="Слой 1" xmlns="http://www.w3.org/2000/svg" viewBox="0 0 390.96 332.73"><defs><style>.cls-1{fill:#868483;}</style></defs><title>icon-house</title><path class="cls-1" d="M300.6,334.33c62.71,3.42,28.19-83.12,41-101.52-4.51-15-6.44-31.25-8.64-45.36,10.12-.73,34.53,37.61,58.33,15.13v-13c-61-63.55-126-123.08-187.92-185.76h-6.48V1.7h-4.32C123.82,65.87,64.25,126.36.37,193.94v6.48C19.4,226.83,40,189.72,56.53,181c-.5,47.68-1.11,113,4.32,149,45.93,6.54,77.61,2.52,125.28,4.32m118.79-23.76c-70.3,1.85-140.81,3.77-224.64,2.16-4.21-51.95-1.31-111-2.16-166.32C94.82,130,191.13,44.37,194.76,42.74c9.86,5.34,76,76.68,108,99.36C310.4,187.78,307.86,254.39,304.92,310.58Z" transform="translate(-0.37 -1.7)"/><path class="cls-1" d="M239.68,159.89a10.27,10.27,0,0,0-3-7.23c-2.07-2.07-4.42-2.69-7.23-3a198.86,198.86,0,0,0-20.6-1c-5.62,0-11.25.16-16.88.36-6.52.22-13,.52-19.54.78a11.66,11.66,0,0,0-15.46.61c-2.52.11-5,.18-7.55.3-5.9.26-10.84,4.73-10.84,10.84,0,5.72,4.94,11.12,10.84,10.85l2.09-.09c-1.68,13.09-3.28,26.18-4.61,39.29-.67,6.61-1.39,13.22-1.75,19.84-.21,3.73-.48,7.46-.46,11.19a55.24,55.24,0,0,0,.22,6,48.39,48.39,0,0,0,1.37,8,32.6,32.6,0,0,0,2.82,6.54,9.89,9.89,0,0,0,7.64,4.94c.1.1.17.23.27.34,1.84,1.84,4.95,3.45,7.66,3.17,22.67-2.41,45.47-4.35,67.83-8.94,3.88-.81,6.59-4.87,6.59-8.66a9.06,9.06,0,0,0-8.82-9c-.43-6.65-.75-13.32-1-20a7.69,7.69,0,0,0,1.81-12.27,7.1,7.1,0,0,0-2.39-1.59q-.88-20.55-1.62-41.09l2.4,0A10.32,10.32,0,0,0,239.68,159.89Zm-64.38,11.5L186,171q-.54,9-1.06,18c-.37,6.56-.53,13.12-.73,19.69v.1h-1.36c-4,0-8,.06-12,.1C172.17,196.33,173.7,183.86,175.31,171.39Zm-7.4,78.26c.07-2.63.21-5.26.31-7.89.14-3.57.4-7.13.61-10.7.09-1.6.26-3.2.39-4.8,5.14-.07,10.28-.1,15.42-.14,0,.16,0,.32,0,.48a174.1,174.1,0,0,0,2.78,21Q177.67,248.6,167.91,249.65Zm35.25-41c.21-6.57.39-13.13.76-19.69q.52-9.24,1.07-18.48,4.71-.11,9.41-.18.72,19.74,1.51,39.48c-4.25-.31-8.5-.56-12.75-.73C203.16,208.92,203.15,208.79,203.16,208.65Zm1.14,37.52c-.62-6.51-.92-13-1.07-19.57,0-.19,0-.37,0-.56H216.6c.09,2,.17,3.91.26,5.87q.31,6.77,1,13.48C213.34,245.58,208.82,245.85,204.29,246.17Z" transform="translate(-0.37 -1.7)"/></svg>