<?xml version="1.0" encoding="utf-8"?>
<!-- Generator: Adobe Illustrator 21.0.0, SVG Export Plug-In . SVG Version: 6.00 Build 0)  -->
<svg version="1.1" id="Слой_1" xmlns="http://www.w3.org/2000/svg" xmlns:xlink="http://www.w3.org/1999/xlink" x="0px" y="0px"
	 viewBox="0 0 20 19" style="enable-background:new 0 0 20 19;" xml:space="preserve">
<style type="text/css">
	.st0{fill:#838280;}
</style>
<title>icon-search</title>
<g>
	<path class="st0" d="M2.4,18c-0.3,0-0.7-0.1-1.1-0.3l-0.2-0.1l0-0.2c-0.1-0.9,1.3-2.4,2.8-3.8c0.1-0.1,0.2-0.2,0.2-0.2
		c1-1,2.2-2,3.8-3.1l0.3-0.2l0.2,0.3c0.1,0.2,0.3,0.4,0.4,0.5L9,11.1l-0.1,0.2c0,0,0,0,0.1,0c0,0,0.1,0,0.1,0.1l0.3,0.3l-0.3,0.3
		c-0.5,0.5-1,1.1-1.5,1.6c-0.4,0.5-0.8,0.9-1.2,1.4c-0.5,0.5-1.1,1.1-1.6,1.6l0,0l-1.1,0.9C3.4,17.7,3,18,2.4,18z M1.8,17.2
		c0.6,0.2,1,0.2,1.4-0.2l0,0L4.2,16c0.5-0.5,1.1-1,1.6-1.6C6.3,14,6.6,13.5,7,13.1c0.4-0.5,0.8-1,1.3-1.4c-0.1-0.1-0.1-0.2-0.1-0.3
		C8.1,11.2,8,11.2,8,11.1c-1.4,1-2.5,1.9-3.4,2.8C4.5,14,4.4,14,4.4,14.1c-0.4,0.4-1.1,1-1.7,1.7C2.1,16.6,1.9,17,1.8,17.2z"/>
	<path class="st0" d="M18.4,10.8c2.1-2.8,1.4-6.9-1.5-8.9c-3-2.1-7.4-2-9.7,1.1c-1.6,2.2-1.3,5.3,0.4,7.2C6.9,10.6,5,12.2,2.9,14
		c-0.8,0.6-1.1,0.9-1.9,1.9c-0.2,0.2-0.3,0.4-0.4,0.7c0,0-0.2,0.5-0.2,0.6c-0.2,1.5,1.4,1.7,2.6,1.2c1.2-0.6,2.3-1.8,3.1-2.7
		c1.1-1.1,2.3-2.3,3-3.7C12,14,16.2,13.8,18.4,10.8z M6.1,14.7c-0.5,0.5-1.1,1.1-1.6,1.6l-1.1,0.9c-0.5,0.6-1.2,0.6-2,0.2
		c-0.1-1,2.4-3.2,2.9-3.7c1.2-1.1,2.4-2.1,3.7-3.1c0.1,0.2,0.3,0.4,0.5,0.6c0,0.1,0,0.3,0.1,0.3c0,0,0.1,0.1,0.1,0.1
		C7.8,12.6,7,13.7,6.1,14.7z M9.5,11.3c0.1-0.1,0.1-0.3,0-0.4C7.2,9,5.9,6.2,7.6,3.5c1.7-2.8,5.3-3.2,8.1-1.8
		c3.2,1.6,4.6,5.6,2.2,8.6C15.8,13,12.1,13.2,9.5,11.3z"/>
	<path class="st0" d="M1.8,19c-0.4,0-0.8-0.1-1.1-0.3c-0.5-0.3-0.7-0.9-0.6-1.5c0,0,0.1-0.4,0.2-0.7c0.1-0.3,0.3-0.5,0.4-0.8
		l0.1-0.1c0.8-1,1.2-1.3,2-1.9c2.2-1.9,3.7-3.1,4.5-3.7C6.4,9,5.9,7.9,5.8,6.6C5.7,5.2,6.1,3.8,7,2.7C8.1,1.1,9.8,0.2,11.8,0
		c1.8-0.2,3.8,0.4,5.4,1.5c1.5,1,2.5,2.7,2.8,4.4s-0.1,3.6-1.2,5l0,0c-1.1,1.4-2.6,2.3-4.3,2.6c-1.7,0.3-3.6-0.1-5.1-1.1
		c-0.8,1.3-1.9,2.4-2.9,3.5C6.2,16,6.1,16.1,6,16.3c-0.8,0.9-1.8,1.8-2.8,2.4C2.7,18.9,2.3,19,1.8,19z M0.8,16.8
		c0,0.1-0.1,0.3-0.1,0.4c0,0.4,0.1,0.7,0.3,0.9c0.4,0.3,1.1,0.2,1.7-0.1c0.1,0,0.2-0.1,0.3-0.2c-0.5,0.2-1.1,0.2-1.8-0.2l-0.2-0.1
		l0-0.2c-0.1-0.8,0.9-2,2.2-3.2l-0.1,0.1l0,0c-0.7,0.6-1.1,0.9-1.9,1.8l0,0C1.1,16.3,1,16.5,0.8,16.8L0.8,16.8L0.8,16.8z M3.7,17.4
		C3.7,17.5,3.6,17.5,3.7,17.4c0.3-0.2,0.7-0.6,1-0.9L3.7,17.4z M1.8,17.2c0.6,0.2,1,0.2,1.4-0.2l0,0L4.2,16c0.5-0.5,1.1-1,1.6-1.6
		l0,0C6.3,14,6.6,13.5,7,13.1c0.4-0.5,0.8-1,1.3-1.4c-0.1-0.1-0.1-0.2-0.1-0.3C8.1,11.2,8,11.2,8,11.1c-1.4,1-2.5,1.9-3.4,2.8
		C4.5,14,4.4,14,4.3,14.1c-0.4,0.4-1.1,1-1.7,1.7C2.1,16.6,1.9,17,1.8,17.2L1.8,17.2z M9.9,11.1c2.5,1.7,5.8,1.3,7.7-1
		c1-1.2,1.3-2.7,1-4.2c-0.4-1.6-1.5-3.1-3.1-3.9C13,0.8,9.6,0.9,7.9,3.7C6.3,6.4,7.8,9,9.7,10.6C9.9,10.7,9.9,10.9,9.9,11.1z
		 M8.9,11.3C8.9,11.3,8.9,11.3,8.9,11.3L8.9,11.3l0.3-0.2c-0.3-0.2-0.6-0.5-0.8-0.8l0,0.1c0.1,0.2,0.3,0.4,0.4,0.5L9,11.1L8.9,11.3z
		 M7.3,8.9c0.2,0.3,0.4,0.6,0.6,0.9C7.7,9.6,7.5,9.2,7.3,8.9L7.3,8.9z"/>
</g>
</svg>
