
<svg xmlns="http://www.w3.org/2000/svg" viewBox="0 0 380 79">

	<path d="M345.5,8c0.8,0,1.4-0.4,1.4-1.2c0-0.7-0.4-1-1.3-1c-0.3,0-0.6,0-0.7,0V8H345.5z M343.3,5.4h2.4
		c0.8,0,2.2,0.1,2.2,1.4c0,0.9-0.6,1.5-1.5,1.7c0.7,1.1,1.3,1.7,1.7,2.1c0.3,0.3,0.6,0.4,1,0.5v0.4h-1.6c-0.9-1-1.4-1.7-2.1-2.8
		h-0.5c0,1,0,1.9,0,2c0.1,0.3,0.3,0.4,0.7,0.5v0.4h-2.2V11c0.2,0,0.4-0.1,0.4-0.3c0-0.3,0.1-1.1,0.1-2V7.3c0-0.6,0-1.2-0.1-1.4
		c-0.1-0.1-0.2-0.2-0.4-0.2V5.4z M345.8,13.4c2.7,0,4.7-2.2,4.7-4.9c0-2.7-2-4.9-4.7-4.9c-2.7,0-4.7,2.2-4.7,4.9
		C341.1,11.2,343.2,13.4,345.8,13.4 M345.8,3c3.1,0,5.5,2.5,5.5,5.5c0,2.9-2.4,5.5-5.5,5.5c-3.2,0-5.5-2.4-5.5-5.5
		C340.3,5.5,342.8,3,345.8,3"/>
	<g class="logo-text">
		<path d="M38.3,68.3l-0.5-4.1c0-0.3-0.1-0.7-0.1-0.8c0-0.4,0.2-0.7,0.5-1c0.3-0.3,0.7-0.3,1.3-0.3v-0.6h-3.6L32,69.2
			h-0.1l-3-7.8h-3.3V62c0.2,0,0.6,0,0.9,0.2c0.2,0.1,0.3,0.4,0.3,0.7c0,0.1-0.1,0.6-0.1,0.7l-1.1,6.5c-0.1,0.7-0.7,1-1.6,1v0.6h3.9
			v-0.6c-0.3,0-0.7,0-1-0.2c-0.2-0.2-0.3-0.4-0.3-0.6c0-0.2,0-0.4,0.1-0.7l1-6.2l3.4,8.5h0.6l4.2-8.4l0.6,5c0.1,0.4,0.1,0.9,0.1,1.1
			c0,0.3,0,0.6-0.3,1.1C36,71,35.6,71.1,35,71.1v0.6h5.3v-0.6c-0.3,0-0.7-0.1-1-0.3C38.8,70.5,38.5,70.1,38.3,68.3"/>
		<path d="M66.3,70.7c-0.6-0.5-0.6-2.4-0.6-3.1V66c0-2,0-2.9,0.5-3.5c0.4-0.4,0.8-0.5,1.2-0.5v-0.6h-3.3L57.7,70v-2.5
			V66c0-2.1,0-2.9,0.6-3.5c0.3-0.3,0.6-0.4,1.1-0.4v-0.6h-5.3V62c0.4,0,0.8,0.2,1.1,0.4c0.6,0.6,0.6,1.6,0.6,3.6v1.6
			c0,2-0.3,2.7-0.5,3c-0.3,0.4-0.7,0.5-1.2,0.5v0.6h3.5l6.2-8.4c0,0,0,0.8,0,2.6v1.6c0,0.3,0,2.3-0.5,3c-0.3,0.4-0.7,0.6-1.2,0.6
			v0.6h5.7l0-0.6C67.3,71.1,66.7,71,66.3,70.7"/>
		<path d="M17.7,61.8c1.5,0,2.5,1.1,2.5,2.3c0,0.3-0.2,0.5-0.5,0.5h-5C15,63.3,16.1,61.8,17.7,61.8 M22,65.4
			c0.2,0,0.5-0.4,0.5-0.6c0-0.2,0-0.4,0-0.5c-0.1-0.8-1.2-3.3-4.6-3.3c-2.6,0-5.5,2-5.5,5.8c0,2.7,1.8,5.3,5.6,5.3
			c1.9,0,3.6-0.9,4.4-1.6L22,69.7c-1,0.6-2,0.9-3.2,0.9c-2.5,0-4.2-1.6-4.2-4.5c0-0.3,0-0.6,0-0.6H22z"/>
		<path d="M47,61.8c1.5,0,2.5,1.1,2.5,2.3c0,0.3-0.2,0.5-0.5,0.5h-5C44.3,63.3,45.5,61.8,47,61.8 M51.3,65.4
			c0.2,0,0.5-0.4,0.5-0.6c0-0.2,0-0.4-0.1-0.5c-0.1-0.8-1.2-3.3-4.6-3.3c-2.6,0-5.5,2-5.5,5.8c0,2.7,1.8,5.3,5.6,5.3
			c1.9,0,3.6-0.9,4.4-1.6l-0.4-0.8c-1,0.6-2,0.9-3.2,0.9c-2.5,0-4.2-1.6-4.2-4.5c0-0.3,0-0.6,0-0.6H51.3z"/>
		<path d="M6.6,70.6c-2.6,0-4.3-1.6-4.3-4.5c0-2.9,1.9-4.2,3.8-4.2c1.2,0,2.2,0.5,2.2,1.2c0,0.1-0.3,0.2-0.5,0.4
			c-0.2,0.2-0.4,0.5-0.4,0.9c0,0.7,0.6,1.1,1.2,1.1c0.8,0,1.4-0.7,1.4-1.6c0-1.5-1.3-3-4-3C3.2,61,0,62.8,0,66.8
			c0,3.4,2.4,5.3,5.6,5.3c1.7,0,3.1-0.4,4.6-1.5l-0.3-0.8C8.8,70.4,7.6,70.6,6.6,70.6"/>
		<path d="M60.9,59.7c2.5,0,4.1-1.2,4.1-2.4c0-0.9-0.4-1.3-1.1-1.3c-0.6,0-1,0.3-1,0.9c0,0.4,0.2,0.6,0.2,1
			c0,0.5-0.8,1-2.2,1c-1.4,0-2.2-0.5-2.2-1c0-0.4,0.2-0.5,0.2-1c0-0.6-0.3-0.9-0.9-0.9c-0.8,0-1.2,0.5-1.2,1.3
			C56.8,58.6,58.4,59.7,60.9,59.7"/>
		<path d="M109.7,61.8c1.5,0,2.5,1.1,2.5,2.3c0,0.3-0.2,0.5-0.5,0.5h-5C107,63.3,108.2,61.8,109.7,61.8 M114,65.4
			c0.2,0,0.5-0.4,0.5-0.6c0-0.2,0-0.4-0.1-0.5c-0.1-0.8-1.2-3.3-4.6-3.3c-2.6,0-5.5,2-5.5,5.8c0,2.7,1.8,5.3,5.6,5.3
			c1.9,0,3.6-0.9,4.4-1.6l-0.4-0.8c-1,0.6-2,0.9-3.2,0.9c-2.5,0-4.2-1.6-4.2-4.5c0-0.3,0-0.6,0-0.6H114z"/>
		<path d="M305.9,61.8c1.5,0,2.5,1.1,2.5,2.3c0,0.3-0.2,0.5-0.5,0.5h-5C303.2,63.3,304.4,61.8,305.9,61.8 M310.2,65.4
			c0.2,0,0.6-0.4,0.6-0.6c0-0.2,0-0.4,0-0.5c-0.1-0.8-1.2-3.3-4.6-3.3c-2.6,0-5.5,2-5.5,5.8c0,2.7,1.8,5.3,5.6,5.3
			c1.9,0,3.6-0.9,4.4-1.6l-0.4-0.8c-1,0.6-2,0.9-3.2,0.9c-2.5,0-4.2-1.6-4.2-4.5c0-0.3,0-0.6,0-0.6H310.2z"/>
		<path d="M297.5,61.4h-9.3c-0.1-0.3-0.3-0.5-0.4-0.8h-0.7v4.2h0.7c0-1.6,1.1-2.5,2.3-2.5h1.1c0.4,0,0.6,0.2,0.6,0.5
			c0,0.5,0,1.4,0,2.1v2.3c0,2.3-0.2,2.8-0.4,3.3c-0.2,0.4-0.5,0.7-1.3,0.7v0.6h5.3v-0.6c-0.6,0-1-0.2-1.3-0.7
			c-0.4-0.7-0.4-2.4-0.4-3.3v-2.2c0-0.6,0-1.5,0.1-2.1c0-0.3,0.2-0.5,0.5-0.5h1.1c1.2,0,2.3,0.9,2.3,2.5h0.7v-4.2h-0.7
			C297.8,60.9,297.6,61.1,297.5,61.4"/>
		<path d="M283.9,70.7c-0.6-0.5-0.6-2.4-0.6-3.1V66c0-2,0.1-2.9,0.5-3.5c0.4-0.4,0.8-0.5,1.2-0.5v-0.6h-3.3l-6.4,8.6
			v-2.5V66c0-2.1,0-2.9,0.6-3.5c0.3-0.3,0.6-0.4,1.1-0.4v-0.6h-5.3V62c0.4,0,0.8,0.2,1.1,0.4c0.6,0.6,0.6,1.6,0.6,3.6v1.6
			c0,2-0.3,2.7-0.5,3c-0.3,0.4-0.7,0.5-1.2,0.5v0.6h3.5l6.2-8.4c0,0,0,0.8,0,2.6v1.6c0,0.3,0,2.3-0.5,3c-0.3,0.4-0.7,0.6-1.2,0.6
			v0.6h5.7l0-0.6C284.9,71.1,284.2,71,283.9,70.7"/>
		<path d="M262.2,62.7c0-0.3,0.2-0.5,0.6-0.5h2.3c0.4,0,0.5,0.1,0.5,0.5c0,0.6,0,1.9,0,2.9v2.5c0,1.1,0,1.9-0.1,2.4
			c-0.1,0.4-0.2,0.6-0.6,0.6h-4.9c-0.2,0-0.3-0.1-0.3-0.3c0-0.1,0.1-0.2,0.2-0.4c0.4-0.7,1-1.7,1.4-3.3
			C261.8,65.5,262,63.8,262.2,62.7 M259.5,62c0.2,0,0.8,0,1.2,0.3c0.3,0.2,0.4,0.5,0.4,1v0.3c-0.1,1.4-0.5,4.3-2.2,6.7
			c-0.4,0.5-0.9,0.8-1.7,0.8h-0.3v3.5h0.7c0-0.6,0.3-1.4,0.7-1.8c0.6-0.6,1.5-0.9,2.3-0.9h4.7c2.1,0,3.1,0.7,3.3,2.7h0.7V71h-0.1
			c-0.5,0-0.9-0.2-1.1-0.5c-0.2-0.4-0.3-0.9-0.3-2.4v-2.5c0-1.8,0.1-2.7,0.6-3.2c0.2-0.2,0.6-0.4,1-0.4v-0.6h-9.8V62z"/>
		<path d="M366.4,70.7c-0.6-0.5-0.6-2.4-0.6-3.1V66c0-2,0.1-2.9,0.5-3.5c0.4-0.4,0.8-0.5,1.1-0.5v-0.6h-3.3l-6.4,8.6
			v-2.5V66c0-2.1,0-2.9,0.6-3.5c0.3-0.3,0.6-0.4,1.1-0.4v-0.6h-5.3V62c0.4,0,0.8,0.2,1.1,0.4c0.6,0.6,0.6,1.6,0.6,3.6v1.6
			c0,2-0.3,2.7-0.5,3c-0.3,0.4-0.7,0.5-1.2,0.5v0.6h3.5l6.2-8.4c0,0,0,0.8,0,2.6v1.6c0,0.3,0,2.3-0.5,3c-0.3,0.4-0.7,0.6-1.2,0.6
			v0.6h5.7l0-0.6C367.4,71.1,366.7,71,366.4,70.7"/>
		<path d="M375.1,61.8c1.5,0,2.5,1.1,2.5,2.3c0,0.3-0.2,0.5-0.5,0.5h-5C372.5,63.3,373.6,61.8,375.1,61.8 M376.3,70.6
			c-2.5,0-4.2-1.6-4.2-4.5c0-0.3,0-0.6,0-0.6h7.4c0.2,0,0.5-0.4,0.5-0.6c0-0.2,0-0.4,0-0.5c-0.1-0.8-1.2-3.3-4.6-3.3
			c-2.6,0-5.5,2-5.5,5.8c0,2.7,1.8,5.3,5.6,5.3c1.9,0,3.6-0.9,4.4-1.6l-0.4-0.8C378.5,70.3,377.5,70.6,376.3,70.6"/>
		<path d="M350,69.6l-1-1.4c-0.7-0.9-1.4-1.6-3.1-2v-0.1c0.8-0.3,1.1-0.7,1.5-1.2l1.5-2.2c0.2-0.4,0.5-0.5,0.6-0.5
			c0.1,0,0.1,0.1,0.1,0.1c0,0.1-0.2,0.3-0.2,0.8c0,0.8,0.6,1.1,1.1,1.1c1,0,1.4-0.8,1.4-1.4c0-0.7-0.3-1.6-1.9-1.6
			c-0.9,0-1.5,0.5-2.1,1.4l-1.4,2.1c-0.4,0.6-1.1,1.2-2,1.2h-0.7v-1.1c0-1,0.2-2,0.8-2.4c0.2-0.1,0.4-0.2,0.9-0.2v-0.6h-5.3V62
			c0.4,0,0.8,0.1,1.1,0.5c0.5,0.6,0.5,1.6,0.5,3.3v2.1c0,1.3-0.1,2.5-0.6,2.9c-0.3,0.3-0.6,0.4-1,0.4v0.6h5.3v-0.6
			c-0.2,0-0.8-0.1-1.2-0.6c-0.3-0.4-0.4-1.6-0.4-2.7v-1.3h0.7c0.9,0,1.5,0.8,2.4,2.2l2,3h3.8v-0.7C351.2,71.1,350.6,70.5,350,69.6"
			/>
		<path d="M250.2,62c0.5,0,0.8,0.2,1.1,0.4c0.4,0.4,0.6,1.2,0.6,1.9c0,0,0,0.5,0,1V66h-6v-0.5c0-2.1,0.1-2.7,0.8-3.2
			c0.2-0.2,0.6-0.3,0.9-0.3v-0.6h-5.3V62c0.5,0,0.9,0.2,1.2,0.5c0.4,0.5,0.5,1.2,0.5,2.8v2.1c0,1.3-0.1,2.8-0.6,3.3
			c-0.3,0.3-0.7,0.4-1,0.4v0.6h5.3v-0.6c-0.3-0.1-0.6,0-1.1-0.4c-0.5-0.5-0.6-1.4-0.6-3.1v-0.8h6v1c0,1.2-0.2,2.4-0.5,2.8
			c-0.3,0.3-0.6,0.4-1.1,0.4v0.6h5.3v-0.6c-0.3,0-0.8-0.1-1.1-0.4c-0.6-0.6-0.6-1.9-0.6-3.3v-2c0-1.4,0-2.6,0.8-3.1
			c0.3-0.2,0.7-0.2,0.9-0.2v-0.6h-5.3V62z"/>
		<path d="M320.1,71.2c-1.6,0-3.5-1.4-3.5-3.5v-2c0-2.3,1.8-3.4,3.2-3.4c2.1,0,3.5,1.3,3.5,4.6
			C323.4,69.3,322.2,71.2,320.1,71.2 M320.8,61c-1.7,0-3.1,0.7-4.2,2v-1.9l-0.5-0.1l-3.3,0.6l-0.1,0.6c0.6,0.1,1.1,0.3,1.4,0.7
			c0.4,0.6,0.6,1.2,0.6,5.4v2.1c0,4,0,6.3-0.3,7.2c-0.2,0.6-0.6,0.9-1.4,0.9V79h5.6v-0.6c-0.9,0-1.5-0.4-1.8-1.1
			c-0.2-0.7-0.2-2.2-0.2-6.7c1,1,2.2,1.5,3.7,1.5c3,0,5.3-2.4,5.3-5.9C325.6,62.5,323.4,61,320.8,61"/>
		<path d="M334.5,70.6c-2.6,0-4.3-1.6-4.3-4.5c0-2.9,1.9-4.2,3.8-4.2c1.2,0,2.2,0.5,2.2,1.2c0,0.1-0.3,0.2-0.5,0.4
			c-0.2,0.2-0.4,0.5-0.4,0.9c0,0.7,0.6,1.1,1.2,1.1c0.8,0,1.4-0.7,1.4-1.6c0-1.5-1.3-3-4-3c-2.7,0-5.8,1.8-5.8,5.8
			c0,3.4,2.4,5.3,5.6,5.3c1.7,0,3.1-0.4,4.6-1.5l-0.3-0.8C336.7,70.4,335.5,70.6,334.5,70.6"/>
		<path d="M141,70.6c-1,0-1.7-0.7-1.7-1.7c0-1,0.5-1.7,1.6-2.3c0.9-0.4,2-0.6,3-0.6c0.2,0,0.2,0.1,0.2,0.2l0,0.8
			C144.2,68.5,142.8,70.6,141,70.6 M147.7,71.2c-0.6,0-0.9-0.2-1.1-0.7c-0.3-0.6-0.3-2.2-0.4-3.5l-0.1-2.7c-0.1-2-1.1-3.3-4.1-3.3
			c-2,0-4.1,0.9-4.1,2.6c0,0.8,0.5,1.2,1.2,1.2c0.8,0,1.3-0.5,1.3-1.1c0-0.5-0.2-0.6-0.5-0.9c-0.1-0.1-0.1-0.1-0.1-0.3
			c0-0.3,0.7-0.8,2-0.8c1.6,0,2.3,0.8,2.4,2.4l0,1.1c-3.8,0.3-7,1.4-7,4.2c0,1.6,1.1,2.7,3,2.7c1.5,0,3-0.8,4-2.4
			c0.1-0.1,0.1-0.2,0.2-0.2c0,0,0.1,0.1,0.1,0.3c0.1,0.4,0.2,1,0.4,1.4c0.4,0.6,1.1,0.9,2,0.9c0.6,0,1.1-0.1,1.6-0.3l-0.1-0.6
			C148.1,71.1,147.9,71.2,147.7,71.2"/>
		<path d="M133.2,69.6l-1-1.4c-0.6-0.9-1.4-1.6-3.1-2v-0.1c0.8-0.3,1.1-0.7,1.5-1.2l1.5-2.2c0.2-0.4,0.5-0.5,0.6-0.5
			c0.1,0,0.1,0.1,0.1,0.1c0,0.1-0.2,0.3-0.2,0.8c0,0.8,0.6,1.1,1.1,1.1c1,0,1.4-0.8,1.4-1.4c0-0.7-0.3-1.6-1.9-1.6
			c-0.9,0-1.5,0.5-2.1,1.4l-1.4,2.1c-0.4,0.6-1.1,1.2-2,1.2H127v-1.1c0-1,0.2-2,0.8-2.4c0.2-0.1,0.4-0.2,0.9-0.2v-0.6h-5.3V62
			c0.4,0,0.8,0.1,1.1,0.5c0.6,0.6,0.6,1.6,0.6,3.3v2.1c0,1.3-0.1,2.5-0.6,2.9c-0.3,0.3-0.6,0.4-1,0.4v0.6h5.3v-0.6
			c-0.2,0-0.8-0.1-1.2-0.6c-0.3-0.4-0.4-1.6-0.4-2.7v-1.3h0.7c0.9,0,1.5,0.8,2.4,2.2l2,3h3.8v-0.7C134.4,71.1,133.8,70.5,133.2,69.6
			"/>
		<path d="M96.7,62c0.3,0,0.8,0.1,1.1,0.5c0.4,0.4,0.6,1.2,0.6,2.9v2.7c0,0.8-0.1,1.9-0.4,2.4c-0.3,0.4-0.6,0.6-1.2,0.6
			v0.6h5.3v-0.6c-0.3,0-0.8-0.1-1.1-0.5c-0.4-0.5-0.5-1.1-0.5-2.6v-2.7c0-1.6,0.1-2.6,0.8-3.1c0.2-0.2,0.5-0.2,0.8-0.2v-0.6h-5.3V62
			z"/>
		<path d="M161.6,71.1c-1.1,0-2.5-0.5-2.5-2.2v-2.4v-2.4c0-1.1,1-2.1,2.3-2.1c1.8,0,3,1.5,3,4.3
			C164.4,69.2,163.2,71.1,161.6,71.1 M157.1,66.5c0,1.7,0,2.4,0,2.4c0,1.3-0.8,2.1-2.4,2.1c-1.6,0-2.9-1.5-2.9-4.5
			c0-2.9,1-4.6,3-4.6c0.9,0,2.3,0.5,2.3,2.1V66.5z M162,61c-0.9,0-2,0.4-2.8,1.2v-4c0-2.2,0.1-3.9,0.1-4l-0.6-0.2l-3.5,1.2l-0.1,0.6
			c0.6,0.2,1,0.3,1.4,0.8c0.6,0.7,0.7,1.9,0.7,5.7c-0.7-0.8-1.8-1.2-2.8-1.2c-2.8,0-4.8,2.1-4.8,5.6c0,3.3,1.9,5.4,4.6,5.4
			c1.1,0,2.1-0.4,3-1.3c0,5.2-0.1,5.9-0.3,6.5c-0.3,1.1-1.1,1.1-1.5,1.1V79h5.4v-0.6c-0.8,0-1.3-0.4-1.5-1.2c-0.3-1-0.2-4.4-0.3-6.5
			c0.7,0.8,2,1.3,2.9,1.3c3.5,0,4.7-3,4.7-5.7C166.7,62.9,164.7,61,162,61"/>
		<path d="M90.6,71h-0.9c-0.4,0-0.6-0.2-0.6-0.6v-3.6c0-0.5,0.3-0.7,0.6-0.8c0.3-0.1,0.9-0.2,1.4-0.2
			c1.5,0,2.3,0.6,2.3,2.3C93.5,69.8,92.6,71,90.6,71 M91.9,64.9c-0.9,0-1.7,0.1-2.7,0.4v-0.5c0-1.3,0-2.1,0.8-2.6
			c0.2-0.2,0.6-0.2,0.9-0.2v-0.6h-5.3V62c0.5,0,0.8,0.2,1.1,0.4c0.5,0.5,0.6,1.6,0.6,2.9v2.7c0,0.6,0,2.1-0.5,2.6
			c-0.3,0.3-0.5,0.5-1.2,0.5v0.6h5.2c3,0,5-1.3,5-3.7C95.8,65.4,93.5,64.9,91.9,64.9"/>
		<path d="M77.8,62c0.5,0,0.8,0.2,1.1,0.4c0.4,0.4,0.6,1.2,0.6,1.9c0,0,0,0.5,0,1V66h-6v-0.5c0-2.1,0.1-2.7,0.8-3.2
			c0.2-0.2,0.6-0.3,0.9-0.3v-0.6h-5.3V62c0.5,0,0.9,0.2,1.2,0.5c0.4,0.5,0.5,1.2,0.5,2.8v2.1c0,1.3-0.1,2.8-0.6,3.3
			c-0.3,0.3-0.7,0.4-1,0.4v0.6h5.3v-0.6c-0.3-0.1-0.7,0-1.1-0.4c-0.5-0.5-0.6-1.4-0.6-3.1v-0.8h6v1c0,1.2-0.2,2.4-0.5,2.8
			c-0.3,0.3-0.6,0.4-1.1,0.4v0.6h5.3v-0.6c-0.3,0-0.8-0.1-1.1-0.4c-0.6-0.6-0.6-1.9-0.6-3.3v-2c0-1.4,0-2.6,0.8-3.1
			c0.3-0.2,0.7-0.2,0.9-0.2v-0.6h-5.3V62z"/>
		<path d="M174.5,61.8c1.5,0,2.5,1.1,2.5,2.3c0,0.3-0.2,0.5-0.5,0.5h-5C171.8,63.3,172.9,61.8,174.5,61.8 M178.8,65.4
			c0.2,0,0.5-0.4,0.5-0.6c0-0.2,0-0.4,0-0.5c-0.1-0.8-1.2-3.3-4.6-3.3c-2.6,0-5.5,2-5.5,5.8c0,2.7,1.8,5.3,5.6,5.3
			c1.9,0,3.6-0.9,4.4-1.6l-0.4-0.8c-1,0.6-2,0.9-3.2,0.9c-2.5,0-4.2-1.6-4.2-4.5c0-0.3,0-0.6,0-0.6H178.8z"/>
		<path d="M224.5,69.6l-1-1.4c-0.7-0.9-1.4-1.6-3.1-2v-0.1c0.8-0.3,1.1-0.7,1.5-1.2l1.5-2.2c0.2-0.4,0.5-0.5,0.6-0.5
			c0.1,0,0.1,0.1,0.1,0.1c0,0.1-0.2,0.3-0.2,0.8c0,0.8,0.6,1.1,1.1,1.1c1,0,1.4-0.8,1.4-1.4c0-0.7-0.3-1.6-1.9-1.6
			c-0.9,0-1.5,0.5-2.1,1.4l-1.4,2.1c-0.4,0.6-1.1,1.2-2,1.2h-0.7v-1.1c0-1,0.2-2,0.8-2.4c0.2-0.1,0.4-0.2,0.9-0.2v-0.6h-5.3V62
			c0.4,0,0.8,0.1,1.1,0.5c0.5,0.6,0.5,1.6,0.5,3.3v2.1c0,1.3-0.1,2.5-0.6,2.9c-0.3,0.3-0.6,0.4-1,0.4v0.6h5.3v-0.6
			c-0.2,0-0.8-0.1-1.2-0.6c-0.3-0.4-0.4-1.6-0.4-2.7v-1.3h0.7c0.9,0,1.5,0.8,2.4,2.2l2,3h3.8v-0.7C225.8,71.1,225.1,70.5,224.5,69.6
			"/>
		<path d="M234.3,71.1c-1.8,0-3.7-1.3-3.7-4.7c0-3.1,1.5-4.5,3.3-4.5c2.1,0,3.6,1.5,3.6,4.7
			C237.6,69.2,236.4,71.1,234.3,71.1 M234.4,61c-3.3,0-6,2-6,5.8c0,3.7,2.7,5.3,5.5,5.3c3.2,0,6.1-2.1,6.1-5.9
			C239.9,62.7,237.4,61,234.4,61"/>
		<path d="M195.2,62.3c0.6,0,0.9,0.3,0.9,0.8c0,0.2-0.1,0.4-0.2,0.6c-0.2,0.1-0.4,0.2-0.6,0.2c-0.5,0-1-0.4-1.5-1.1
			C194.2,62.5,194.7,62.3,195.2,62.3 M204.1,58.2c-0.7,0-1.4,0.2-1.9,0.5c-0.5,0.3-0.8,0.8-0.8,1.4c0,0.3,0.1,0.5,0.3,0.7
			c0.2,0.2,0.4,0.3,0.7,0.3c0.5,0,0.8-0.3,0.8-1c0-0.2,0.1-0.5,0.2-0.7c0.2-0.2,0.4-0.3,0.6-0.3c0.8,0,1.2,0.5,1.2,1.4
			c0,0.7-0.3,1.2-1,1.6c-0.6,0.4-1.7,0.8-3.3,1.1c-1.4,0.3-2.4,0.8-3.2,1.5c-0.8,0.7-1.2,1.5-1.2,2.4c0,0.8,0.3,1.5,0.8,2
			c0.5,0.5,1.1,0.8,1.9,0.8c0.8,0,1.4-0.2,1.9-0.5c0.5-0.3,0.8-0.8,0.8-1.4c0-0.3-0.1-0.5-0.3-0.7c-0.2-0.2-0.4-0.3-0.7-0.3
			c-0.5,0-0.8,0.3-0.8,1c0,0.2-0.1,0.5-0.2,0.7c-0.2,0.2-0.4,0.4-0.6,0.4c-0.4,0-0.7-0.1-1-0.4c-0.3-0.3-0.4-0.6-0.4-1.1
			c0-0.7,0.3-1.3,0.9-1.7c0.6-0.5,1.3-0.7,2.3-0.7c1.7,0,2.5,1.1,2.5,3.2c0,1.5-0.6,2.7-2,3.7c-1.3,1-2.9,1.5-4.8,1.5
			c-1.8,0-3.2-0.5-4.4-1.5c-1.2-1-1.8-2.3-1.8-3.8c0-2.2,0.5-3.7,1.6-4.6c0.9,0.8,1.9,1.2,2.8,1.2c0.5,0,1-0.2,1.3-0.5
			c0.3-0.3,0.5-0.7,0.5-1.1c0-0.5-0.2-0.8-0.5-1.2c-0.3-0.3-0.7-0.5-1.3-0.5c-0.6,0-1.2,0.1-2,0.4c-0.2-0.4-0.3-1-0.3-1.8
			c0-1,0.3-1.9,0.9-2.6c0.6-0.7,1.3-1.1,2.3-1.1c1.2,0,1.8,0.6,1.8,1.7c0,0.2-0.1,0.4-0.3,0.6c-0.5,0.3-0.7,0.7-0.7,1
			c0,0.3,0.1,0.6,0.3,0.8c0.2,0.2,0.5,0.3,1,0.3c0.5,0,0.8-0.2,1.1-0.6c0.3-0.4,0.4-0.9,0.4-1.4c0-0.9-0.4-1.6-1.1-2.3
			c-0.7-0.7-1.6-1-2.7-1c-1.4,0-2.6,0.5-3.6,1.4c-1,0.9-1.5,1.9-1.5,3.1c0,0.6,0.1,1,0.2,1.4c0.1,0.4,0.3,0.7,0.6,1.1
			c-1.1,0.6-1.9,1.4-2.5,2.4c-0.6,1-0.9,2.1-0.9,3.4c0,1.8,0.8,3.3,2.3,4.4c1.6,1.2,3.6,1.8,6.1,1.8c2.3,0,4.2-0.6,5.7-1.9
			c1.6-1.3,2.4-2.7,2.4-4.4c0-1.8-0.6-3-1.8-3.6c2.5-0.7,3.7-2,3.7-3.8c0-0.7-0.3-1.3-0.8-1.8C205.6,58.4,204.9,58.2,204.1,58.2"/>
	</g>
	<path d="M260.6,24.8c-0.2,1.5-0.7,2.9-1.4,4.1c-1.5,2.6-4,4.5-7.9,4.5l-0.3,0c-3.3-0.1-5.9-1.5-7.7-4.2
		c-1.9-2.7-2.6-6.2-2.8-10.3c0-0.3,0-0.5,0-0.8c0-3.1,0.5-5.8,1.6-8.1c1-2.1,2.3-3.5,3.9-4.2c1.6-0.8,3.2-1,4.6-1
		c0.6,0,1.2,0.1,1.8,0.2c3.2,0.4,5.8,3.2,5.6,4.3c-0.1,0.3-0.5,0.7-1.2,0.4c-0.5-0.2-0.8-0.4-1.9-0.4c-1.2,0-4,0.9-3.8,4.5
		c0.2,3.1,2.5,5.2,5.8,5.4c0.3,0,0.7,0,1.2-0.1c4.3-0.4,6.7-3.7,6.7-7.5c-0.1-3-1.9-6.3-4.7-8.3c-3.2-2.3-6.3-3.4-11.4-3.5h-1.2l0,0
		c-4.9,0-9.6,1.6-13.1,4.7c-3.3,3.1-5.8,7.7-5.8,14.2v0.5c0.1,11.4,8.5,19,20,18.9h0.5c5.5,0,9.8-1.6,12.8-4.8
		c2.3-2.5,3.5-5.6,3.8-8.7H260.6z M175.9,15.7c1.7,0,3,0.9,3.8,2.7c0.5,1,0.7,2.1,0.7,3.3v0.5h-8.8
		C171.7,19.7,172.5,15.8,175.9,15.7 M184.6,29.1c-0.7,2.7-3,4.9-6.4,5c-2.7,0-5.4-1.7-6.1-4.4c-0.6-2.1-0.6-3.3-0.6-3.6h18.2v-1.3
		c0-3.4-0.7-5.3-1.4-6.8c-0.9-1.7-2.4-3.2-4.3-4.5c-1.9-1.4-4.6-2-7.9-2c-8.9-0.2-14.3,6.8-14.3,13.9c0,7.1,5.2,13,14.5,13
		c3.9-0.1,7.1-1.2,9.5-3.5c1.6-1.6,2.8-3.5,3.4-5.7H184.6z M323.8,22.2v-4.8c0-0.9-0.6-1.4-1.8-1.4H320V12h17.1V16h-2.9
		c-1.2,0-1.8,0.7-1.8,1.8v14c0,1.2,0.6,1.7,1.8,1.7h2.8v4.1h-17v-4.1h1.9c1.2,0,1.8-0.3,1.8-1.5v-5.8h-10.2V32
		c0,1.1,0.6,1.6,1.8,1.6h1.9v4.1h-17v-4.1h2.8c1.2,0,1.8-0.7,1.8-1.8V17.3c0-0.8-0.7-1.2-1.8-1.2h-2.9V12h17.1V16h-1.9
		c-1.2,0-1.8,0.4-1.8,2v4.2H323.8z M110.5,22.2v-4.8c0-0.9-0.6-1.4-1.8-1.4h-1.9V12h17.1V16H121c-1.2,0-1.8,0.7-1.8,1.8v14
		c0,1.2,0.6,1.7,1.8,1.7h2.8v4.1h-17v-4.1h1.9c1.1,0,1.8-0.3,1.8-1.5v-5.8h-10.2V32c0,1.1,0.6,1.6,1.8,1.6h1.9v4.1H87v-4.1h2.8
		c1.2,0,1.8-0.7,1.8-1.8V17.3c0-0.8-0.6-1.2-1.8-1.2H87V12h17.1V16h-1.9c-1.2,0-1.8,0.4-1.8,2v4.2H110.5z M279.4,24.6
		c0,6.5,1.2,9.3,4.5,9.3c3.3,0,4.5-2.8,4.5-9.3c0-6.5-1.2-9.3-4.5-9.3C280.6,15.3,279.4,18.1,279.4,24.6 M298.1,24.6
		c0,8.8-6,13.7-14.2,13.7c-8.2,0-14.2-4.9-14.2-13.7s6-13.7,14.2-13.7C292.1,10.9,298.1,15.8,298.1,24.6 M205.9,25.3
		c0,5.4,1.3,8.7,4.4,8.7c3.1,0,4.4-3.4,4.4-8.7c0-5.4-1.3-8.8-4.4-8.8C207.2,16.5,205.9,19.9,205.9,25.3 M205.5,16.2h0.1
		c1.6-3.4,4.5-4.8,8-4.8c8.3,0,10.8,7,10.8,13.7c0,6.7-2.5,13.7-10.8,13.7c-3.3,0-6.4-1.3-7.6-3.7l-0.1,0.1v8c0,1.5,0.4,2.4,2,2.4
		h2.3v4.1h-17.5v-4.1h2.1c1.6,0,2-0.8,2-2.4V18.6c0-1.5-0.4-2.4-2-2.4h-2.2v-4h11.7L205.5,16.2z M141.2,16.2c-3.1,0-4.3,3.4-4.3,8.8
		c0,5.4,1.3,8.7,4.3,8.7c3.1,0,4.4-3.4,4.4-8.7C145.6,19.7,144.3,16.2,141.2,16.2 M147.1,12h11.7v4h-2.1c-1.6,0-2,0.8-2,2.4v24.5
		c0,1.5,0.4,2.4,2,2.4h2.1v4.1h-17.5v-4.1h2.3c1.6,0,2-0.8,2-2.4v-8l-0.1-0.1c-1.2,2.4-4.2,3.7-7.5,3.7c-8.3,0-10.8-7-10.8-13.7
		c0-6.7,2.5-13.7,10.8-13.7c3.5,0,6.4,1.5,8,4.8h0.1L147.1,12z M57.1,22h8l-4-12.5H61L57.1,22z M68.7,1.3l9.2,28.1
		c1.1,3.3,1.9,4.1,3.8,4.1h1.9v4.1H63.5v-4.1h1.7c1.7,0,3-0.2,3-0.8c0-0.6-0.1-1.2-0.3-2l-1.2-4H55.5L54.9,29
		c-0.6,1.9-0.8,2.8-0.8,3.5c0,0.9,1.9,1,3.4,1h1.6v4.1H42.8v-4.1h1.9c1.9,0,2.7-0.8,3.8-4.1l9.2-28.1H68.7z"/>
</svg>
