<svg xmlns="http://www.w3.org/2000/svg" viewBox="0 0 10000 10000">
    <symbol id="symbol-paraplane" viewBox="0 0 90 80.5">
        <path  d="M88.4,0.1C73.7,5.5,59.9,13,45.7,19.6c-15.2,7-30,14.7-45.1,21.9c-0.9,0.4-0.8,2.2,0.3,2.3
	c9.9,1.4,19.6,3.5,29.3,5.8c0.2,9.9-0.1,19.8,0.1,29.7c0,1.3,1.7,1.6,2.4,0.6c5.1-7.4,10.3-14.7,15.8-21.8
	c7.7,4.6,15.3,9.2,22.6,14.4c0.6,0.5,1.7,0,1.9-0.8c2.2-11.8,4.6-23.4,8-35c3.3-11.6,6.5-23.3,9.1-35.2C90.2,0.8,89.4-0.3,88.4,0.1z
	 M31.5,47.3c-8.6-2-17.3-3.9-26-5.3c13.4-6.5,26.6-13.3,40.2-19.6c12.2-5.6,24.1-12,36.5-17.1C64.9,18.8,47.9,32.8,31.5,47.3z
	 M32.7,48.8c15-13.3,30.6-26.1,46.3-38.6c-9.4,9.3-18.8,18.5-28.2,27.8c-2.9,2.8-5.8,5.7-8.7,8.5c-1.5,1.4-2.5,2.4-3.3,3.6
	c-0.3,0.2-0.6,0.6-0.6,1c-0.5,0.9-0.9,2-1.2,3.4c-1.5,6-2.6,12.1-4.3,18.1C32.7,64.6,32.9,56.7,32.7,48.8z M34.7,72.6
	c1.5-5.3,2.5-10.7,3.7-16c0.3-1.3,0.6-2.6,1.1-3.8c2.2,1.4,4.5,2.8,6.7,4.1C42.3,62,38.4,67.2,34.7,72.6z M78.4,36.1
	c-3.2,11-5.5,22-7.6,33.2c-9.7-6.7-20-12.6-30-18.8c0.1-0.1,0.1-0.2,0.2-0.3c1.2-1.4,2.7-2.6,4-3.9c2.9-2.9,5.9-5.8,8.8-8.6
	C64.7,26.9,75.6,16.2,86.5,5.4C84.1,15.7,81.4,25.9,78.4,36.1z"/>
        <path d="M30.9,34.6c-3,1.7-6.1,3.4-9.1,5c-1.1,0.6-0.1,2.2,1,1.6c3-1.7,6.1-3.4,9.1-5C33,35.7,32,34,30.9,34.6z"/>
        <path d="M31.4,38.7c-1.4,0.7-2.9,1.5-4.3,2.2c-1.1,0.6-0.1,2.2,1,1.6c1.4-0.7,2.9-1.5,4.3-2.2
	C33.4,39.8,32.5,38.1,31.4,38.7z"/>
    </symbol>
    <symbol id="symbol-giraffe-on-plane" viewBox="0 0 104.4 92.6">
        <g>
            <g>
                <g>
                    <g>
                        <path d="M61,34.2c-0.1-5.9-2.9-11.9-1.3-17.6c0.8-3.2,1.5-5.3-0.9-8.1c-1.1-1.2-2.2-0.9-1.4-2.7c0.9-2.1,0.6-0.2,1.3,0.5
					c0.9,0.9,1.6,2.1,2.5,3c0.6,0.6,1.8,2.1,2.9,1.6c1.3-0.7,0.5-3.8,0.4-4.8C64.4,5.1,64,0.1,66,4.4C66.2,5,65.6,7,66,8.1
					c1.2,3.4,5.1,4.8,8.1,6.2c2,1,10.8,3.6,2.8,6.7c-2.8,1.1-8.2-0.5-10.9-1.1c-0.6-0.1-0.9,0.8-0.3,1c3.9,0.8,11.6,2.9,15,0
					c2-1.7,1.2-3.8-0.7-5.1c-2.8-1.9-6.5-2.4-9.2-4.4c-2.4-1.8-2.5-5.3-3.4-7.9c-0.1-0.4,0.2-0.9-0.1-1.2c-0.9-1.3-2.4-2.4-3.7-0.8
					c-1.4,1.7,1.6,11.4-2.9,5.9c-1-1.3-2.5-6-5-4.3c-3.3,2.2,2.3,5.9,3.1,7.2c2,3.5-1.2,7-1,10.5c0.2,4.5,2.1,8.8,2.2,13.5
					C60,34.8,61,34.8,61,34.2L61,34.2z"/>
                    </g>
                </g>
                <g>
                    <g>
                        <path d="M56.5,57.9c1.8-6.2,3.5-12.4,4.2-18.9c0.1-0.6-0.9-0.6-1,0c-0.7,6.3-2.4,12.5-4.2,18.6C55.3,58.3,56.3,58.5,56.5,57.9
					L56.5,57.9z"/>
                    </g>
                </g>
                <g>
                    <g>
                        <path d="M86.8,71.5c-4.1-0.2-8.9-0.2-11.7,3.2c-1.5,1.8-3.4,6.4-1,8.3c2.6,2.1,7.1-1.6,9-3c1.1-0.9,2.3-1.8,3.3-2.8
					c0.8-0.7,2.2-1.6,2.6-2.6c0.5-1.3-0.7-2.1-1.6-3c-0.5-0.4-1.2,0.3-0.7,0.7c2.4,2.4-1.7,4.8-3.5,6.3c-1.4,1.1-7.4,6.2-9,2.7
					C72.6,78,76.7,74,79.4,73c2.4-0.8,5-0.7,7.4-0.5C87.5,72.5,87.5,71.5,86.8,71.5L86.8,71.5z"/>
                    </g>
                </g>
                <g>
                    <g>
                        <path d="M84.4,66.1c2.8,0.5,5.7,1.5,8.2,2.9c0.7,0.4,1.3,0.9,1.7,1.7c0.8,1.6-0.1,3-1.5,3.9c-1.6,1.1-3.4,1.4-5.3,1.6
					c-0.6,0.1-0.6,1.1,0,1c2.9-0.3,9.3-1.9,8.1-6.1c-0.5-1.9-2-2.8-3.7-3.6c-2.3-1.1-4.7-2-7.2-2.4C84,65,83.7,65.9,84.4,66.1
					L84.4,66.1z"/>
                    </g>
                </g>
                <g>
                    <g>
                        <path d="M21.6,41.9c0-3.3-0.9-8.2,0.1-11.4c2.2-6.8,7.9-3.2,9.6,0c1.2,2.4,1.3,5.1,1.4,7.7c0.1,1.7,0.5,4.1,0.1,5.8
					c0,0.6,0,1.1,0,1.7c-1.2,1.4-2.4,1.6-3.5,0.6c-2.6-0.7-5.7-3.2-7.9-4.7c-0.5-0.4-1,0.5-0.5,0.9c2.9,2,6,3.9,9.1,5.4
					c1.1,0.5,2.4,1.5,3.5,0.5c1.2-1.1,0.4-6.1,0.3-7.5c-0.1-3.1,0-6.5-1.1-9.5c-1.3-3.5-5.1-7-9.1-5c-4.9,2.5-3,11.4-3,15.7
					C20.6,42.5,21.6,42.6,21.6,41.9z"/>
                    </g>
                </g>
                <g>
                    <g>
                        <path d="M40.7,66.4c-4.4-2.5-8.7-5.3-12.4-8.8c-1.5-1.4-2.9-2.8-4.2-4.4c-0.3-0.4-9-12.1-3.8-11.9c0.6,0,0.6-1,0-1
					C13.4,40,20.4,50,21.9,52c4.9,6.5,11.4,11.3,18.3,15.3C40.8,67.5,41.3,66.7,40.7,66.4L40.7,66.4z"/>
                    </g>
                </g>
                <g>
                    <g>
                        <path d="M73.1,80.4c-3-0.7-5.9-1.6-8.7-2.6c-0.6-0.2-0.9,0.8-0.3,1c2.9,1,5.8,1.9,8.7,2.6C73.4,81.5,73.7,80.5,73.1,80.4
					L73.1,80.4z"/>
                    </g>
                </g>
                <g>
                    <g>
                        <path d="M92.3,75.7c-0.8,2.9-2.1,5.1-5.2,5.9c-2.3,0.6-4.9,0.4-7.3,0.1c-0.6-0.1-0.9,0.9-0.3,1c2.9,0.4,6,0.7,8.8-0.4
					c2.9-1.1,4.1-3.5,4.8-6.3C93.4,75.4,92.4,75.1,92.3,75.7L92.3,75.7z"/>
                    </g>
                </g>
                <g>
                    <g>
                        <path d="M66.9,52.8c8.6,2.4,23,4.4,25.8,14.6c0.2,0.6,1.1,0.4,1-0.3c-2.9-10.6-17.6-12.9-26.5-15.3
					C66.6,51.6,66.3,52.6,66.9,52.8L66.9,52.8z"/>
                    </g>
                </g>
                <g>
                    <g>
                        <path d="M33.1,43.5c8.3,2.3,16.7,4.6,25,6.9c0.6,0.2,0.9-0.8,0.3-1c-8.3-2.3-16.7-4.6-25-6.9C32.7,42.3,32.5,43.3,33.1,43.5
					L33.1,43.5z"/>
                    </g>
                </g>
                <g>
                    <g>
                        <path d="M84.4,79.4c2.7,0.5,5.9-0.2,7.1-3c0.2-0.6-0.7-0.9-1-0.3c-0.9,2.2-3.8,2.7-5.9,2.3C84.1,78.3,83.8,79.2,84.4,79.4
					L84.4,79.4z"/>
                    </g>
                </g>
                <g>
                    <g>
                        <path d="M90.8,66.9c-0.4-2.6-2.6-3.5-5-2.7c-3.2,1-4.6,4.4-5,7.4c-0.1,0.6,0.9,0.9,1,0.3c0.3-2.3,1-4.8,3-6.1
					c1.9-1.3,4.6-1.2,5,1.4C89.9,67.8,90.9,67.5,90.8,66.9L90.8,66.9z"/>
                    </g>
                </g>
                <g>
                    <g>
                        <path d="M92.4,68.3c1.4-0.7,2.7-1.4,4-2.2c0.7-0.4,1.3-0.8,2-1.2c1.4-0.7,3.6-0.5,4,1.2c0.5,1.9,0.2,4.4-1.3,5.7
					c-1.6,1.4-3.5,0.6-5.4,0.8c-0.6,0.1-0.6,1.1,0,1c2.5-0.3,4.7,0.6,6.5-1.6c1.4-1.7,1.7-4.2,1.2-6.3C102,60,94.6,66,91.9,67.4
					C91.3,67.7,91.8,68.6,92.4,68.3L92.4,68.3z"/>
                    </g>
                </g>
                <g>
                    <g>
                        <path d="M93.4,60.3c0.7,0.5,1.3,1.1,1.8,1.8c0.3,0.5,1.2,0,0.9-0.5c-0.6-0.9-1.3-1.6-2.1-2.2C93.4,59,92.9,59.9,93.4,60.3
					L93.4,60.3z"/>
                    </g>
                </g>
                <g>
                    <g>
                        <path d="M96.3,58.7c0.8,0.4,1.4,1.1,1.6,1.9c0.2,0.6,1.1,0.4,1-0.3c-0.3-1.1-1-2-2.1-2.5C96.2,57.6,95.7,58.5,96.3,58.7
					L96.3,58.7z"/>
                    </g>
                </g>
                <g>
                    <g>
                        <path d="M78.5,87c0.7,1.4,1.7,2.6,3.1,3.4c0.5,0.3,1-0.5,0.5-0.9c-1.2-0.8-2.1-1.8-2.7-3.1C79.1,85.9,78.2,86.4,78.5,87L78.5,87
					z"/>
                    </g>
                </g>
                <g>
                    <g>
                        <path d="M82,85.4c0.6,1.3,1.5,2.3,2.7,3.1c0.5,0.3,1-0.5,0.5-0.9c-1-0.7-1.8-1.6-2.4-2.7C82.6,84.4,81.7,84.9,82,85.4L82,85.4z"
                        />
                    </g>
                </g>
                <g>
                    <g>
                        <path d="M58,49.8c-4.5,0.6-7,5.4-2.7,8.4c1.7,1.2,4.2,1.7,6.2,1.4c1.8-0.3,2.9-1.3,4.3-2.2c3.2-2,6.3-3,10.1-2.4
					c0.6,0.1,0.9-0.9,0.3-1c-2.9-0.5-5.8-0.2-8.5,1c-1.3,0.6-2.3,1.5-3.6,2.2c-1.8,1.4-3.9,1.8-6.2,1.1c-4.5-1.1-4.5-3.6-0.1-7.6
					C58.6,50.7,58.6,49.7,58,49.8L58,49.8z"/>
                    </g>
                </g>
                <g>
                    <g>
                        <path d="M64.6,39.3c0.5,5.4,1.5,10.7,2.2,16c0.1,0.6,1.1,0.6,1,0c-0.7-5.4-1.8-10.6-2.2-16C65.5,38.7,64.5,38.7,64.6,39.3
					L64.6,39.3z"/>
                    </g>
                </g>
                <g>
                    <g>
                        <path d="M74.8,21.8c-1.3,1.7-2.8,2.4-4.9,2.7c-0.6,0.1-1.1,0.1-1.7,0.3c-0.9,0.3-1.6,0.9-2.2,1.7c-1.7,2.3-1.6,5.8-1.7,8.5
					c0,0.6,1,0.6,1,0c0-1.9,0-3.9,0.5-5.7c0.7-2.5,1.9-3.3,4.4-3.8c2.3-0.4,3.9-1.3,5.3-3.2C76,21.8,75.2,21.3,74.8,21.8L74.8,21.8z
					"/>
                    </g>
                </g>
                <g>
                    <g>
                        <path d="M65.2,13c-0.9,0.5-1.7,1.7-1.2,2.7c0.6,1.1,2.1,1,2.9,0.4c0.9-0.6,1.3-1.8,0.6-2.7c-0.6-0.8-1.7-1-2.5-0.3
					c-0.5,0.4,0.2,1.1,0.7,0.7c0.3-0.3,0.8,0,1,0.2c0.3,0.5-0.1,1.1-0.5,1.3c-0.4,0.2-1.3,0.4-1.4-0.2c-0.1-0.5,0.5-1,0.8-1.3
					C66.2,13.6,65.7,12.7,65.2,13L65.2,13z"/>
                    </g>
                </g>
                <g>
                    <path class="st0" d="M71.5,11.2c-0.4-0.5-1.8-0.4-2.2,0.1c-0.4,0.5-0.3,1.2,0.1,1.7c0.4,0.4,1.1,0.6,1.7,0.4
				c0.2-0.1,0.4-0.2,0.6-0.3c0.4-0.4,0.3-1.2-0.1-1.6C71.4,11,71,10.8,70.4,11"/>
                    <g>
                        <path d="M71.9,10.8c-0.6-0.7-2.1-0.6-2.7,0c-0.9,0.8-0.5,2.4,0.5,2.9c1,0.5,2.7,0.2,2.9-1.1c0.2-1.3-1.1-2.3-2.3-2.1
					c-0.6,0.1-0.4,1.1,0.3,1c0.5-0.1,1.3,0.5,1,1.1c-0.3,0.6-1.2,0.5-1.6,0.1c-0.3-0.3-0.5-1,0-1.2c0.3-0.1,0.9-0.2,1.2,0.1
					C71.6,12,72.3,11.3,71.9,10.8L71.9,10.8z"/>
                    </g>
                </g>
                <g>
                    <g>
                        <path d="M59.8,32.5c-1.4-1.3-3-2.9-4.7-3.7c-2.2-1-4.4-0.4-6.7-1.5c-2.1-0.9-3.5-3.3-5.7-4c-1.4-0.4-5.3,0.4-5.7-0.9
					c-0.2-0.6-1.1-0.4-1,0.3c0.3,1,0.4,1.2,1.3,1.7c1,0.5,0.7,0.1,1.2,0.2c1-0.3,2.1-0.3,3.1,0c1.6-0.1,2.8,0.5,3.8,1.8
					c1.5,1.2,3.1,2.4,5,3c0.4,0.1,0.8-0.2,1.1-0.1c3.8,0.8,5,1.4,7.6,3.9C59.6,33.6,60.3,32.9,59.8,32.5L59.8,32.5z"/>
                    </g>
                </g>
                <g>
                    <g>
                        <path d="M33.8,23.8c0.2,1.3,1.3,2.2,2.4,2.9c0.5,0.4,1-0.5,0.5-0.9c-0.8-0.6-1.7-1.2-1.9-2.3C34.7,22.9,33.7,23.2,33.8,23.8
					L33.8,23.8z"/>
                    </g>
                </g>
                <g>
                    <g>
                        <path d="M32.6,27c1.1,1.5,1.9,2,3.7,2.5c1,0.3,2.6,0,3.7,0.2c1.8,0.4,2.6,1.2,4.2,2.1c1.8,1,2.9,1,4.9,1.2
					c4,0.4,6.3,1.4,9.6,3.6c0.5,0.4,1-0.5,0.5-0.9c-1.8-1.2-3.8-2.8-5.8-3.5c-1.6-0.6-2.6-0.2-4.3-0.3c-3.4-0.1-4.6-1.9-7.3-3.1
					c-2.6-1.1-6.5,0-8.3-2.4C33.1,26,32.2,26.5,32.6,27L32.6,27z"/>
                    </g>
                </g>
                <g>
                    <g>
                        <path d="M59,32.9c-0.2,1.5,1,2.2,2.3,2.5c1.2,0.3,3.2,0.9,4.2-0.2c0.4-0.5-0.3-1.2-0.7-0.7c-0.5,0.6-2,0.1-2.6,0
					c-0.7-0.1-2.3-0.3-2.2-1.3C60,32.5,59.1,32.2,59,32.9L59,32.9z"/>
                    </g>
                </g>
                <g>
                    <g>
                        <path d="M65.2,33.3c0.9,0.4,1.6,0.8,1.7,1.8c0,0.5,0,1,0,1.5c0,1.7-1.2,1.7-2.6,1.9c-1.5,0.3-4.7,0.7-4.8-1.5
					c-0.1-0.6,0.2-1.2,0.1-1.8c-0.1-1-0.4-1.6,0.2-2.6c0.3-0.6-0.5-1.1-0.9-0.5c-0.5,0.9-0.5,1.7-0.4,2.8c0.1,1-0.4,2.4,0,3.3
					c0.8,1.9,4.2,1.6,5.7,1.4c1.6-0.3,3.5-0.4,3.6-2.3c0.1-0.8,0.2-2.2,0-3c-0.3-0.9-1.4-1.4-2.2-1.7C65.1,32.2,64.6,33,65.2,33.3
					L65.2,33.3z"/>
                    </g>
                </g>
                <g>
                    <g>
                        <path d="M41,67.1c5.7-0.7,11.4-0.4,16.8,1.7c3.3,1.3,2.7,1,3.7,5.5c1.1,4.8,1.7,3.9-1.5,5.4c-2.7,1.2-5.5,2.3-8.2,3.3
					c-10.1,3.6-20.7,5.8-31.4,6.9c-2.4,0.2-4.8,0.4-7.2,0.6c-1.8,0.1-5.6,1-7.3,0.3c-1.4,0.3-1.8-0.5-1.2-2.4
					c-0.9-1.4-0.8-2.4,0.4-2.8c0.6-0.7,2-1.3,2.8-1.8c2.2-1.3,4.4-2.4,6.7-3.5c8.9-4.4,17.8-8.9,26.8-13.2c0.6-0.3,0.1-1.1-0.5-0.9
					c-7.5,3.6-14.9,7.3-22.3,11c-3,1.5-6,2.9-9,4.5c-2.3,1.2-6.5,3-8,5.3c-5,7.8,20.7,3.7,23.4,3.4c7.7-1,15.4-2.6,22.9-4.9
					c3.4-1.1,6.8-2.3,10.1-3.7c1.8-0.8,5.4-1.7,6.6-3.4c2.3-3.2-0.7-7.3-3.4-9.1c-5.6-3.6-13.7-3.9-20-3.1
					C40.4,66.1,40.4,67.1,41,67.1z"/>
                    </g>
                </g>
                <g>
                    <g>
                        <path d="M68.7,52.7c6.2-4.4,12.6-8.4,19.6-11.3c0.9-0.4,1.8-0.8,2.8-1c3-0.6,3.9,0.3,2.8,2.5c0,1.4-1.1,3.2-1.7,4.4
					c-1.9,3.8-4.4,7.2-7.1,10.5c-0.4,0.5,0.3,1.2,0.7,0.7c3.2-3.9,6.3-8.2,8.2-12.9c0.5-1.3,2.2-4.9,0.7-6.2
					c-2.1-1.8-7.8,1.6-9.7,2.5c-6,2.8-11.5,6.2-16.8,10.1C67.7,52.2,68.2,53.1,68.7,52.7L68.7,52.7z"/>
                    </g>
                </g>
                <g>
                    <g>
                        <path d="M23.3,48.9c0.6,0,0.6-1,0-1C22.7,47.9,22.7,48.9,23.3,48.9L23.3,48.9z"/>
                    </g>
                </g>
                <g>
                    <g>
                        <path d="M26.8,51.4c0.6,0,0.6-1,0-1C26.2,50.4,26.2,51.4,26.8,51.4L26.8,51.4z"/>
                    </g>
                </g>
                <g>
                    <g>
                        <path d="M30.6,54.2c0.6,0,0.6-1,0-1C30,53.2,30,54.2,30.6,54.2L30.6,54.2z"/>
                    </g>
                </g>
                <g>
                    <g>
                        <path d="M35.3,56.6c0.6,0,0.6-1,0-1C34.7,55.6,34.7,56.6,35.3,56.6L35.3,56.6z"/>
                    </g>
                </g>
                <g>
                    <g>
                        <path d="M41.4,59.2c0.6,0,0.6-1,0-1C40.8,58.2,40.8,59.2,41.4,59.2L41.4,59.2z"/>
                    </g>
                </g>
                <g>
                    <g>
                        <path d="M49.9,62.2c0.6,0,0.6-1,0-1C49.3,61.2,49.3,62.2,49.9,62.2L49.9,62.2z"/>
                    </g>
                </g>
                <g>
                    <g>
                        <path d="M60.6,65.1c0.6,0,0.6-1,0-1C60,64.1,60,65.1,60.6,65.1L60.6,65.1z"/>
                    </g>
                </g>
                <g>
                    <g>
                        <path d="M67.6,67.7c0.6,0,0.6-1,0-1C66.9,66.7,66.9,67.7,67.6,67.7L67.6,67.7z"/>
                    </g>
                </g>
                <g>
                    <g>
                        <path d="M74.9,69.5c0.6,0,0.6-1,0-1C74.2,68.5,74.2,69.5,74.9,69.5L74.9,69.5z"/>
                    </g>
                </g>
                <g>
                    <g>
                        <path d="M5.9,89.3c0,0,0.1,0,0.1,0c0.6,0,0.6-1,0-1c0,0-0.1,0-0.1,0C5.3,88.3,5.3,89.3,5.9,89.3L5.9,89.3z"/>
                    </g>
                </g>
                <g>
                    <g>
                        <path d="M12.8,89.3c0.6,0,0.6-1,0-1C12.1,88.3,12.1,89.3,12.8,89.3L12.8,89.3z"/>
                    </g>
                </g>
                <g>
                    <g>
                        <path d="M19.1,88.3c0.6,0,0.6-1,0-1C18.5,87.3,18.5,88.3,19.1,88.3L19.1,88.3z"/>
                    </g>
                </g>
                <g>
                    <g>
                        <path d="M26.4,87.5c0.6,0,0.6-1,0-1C25.8,86.5,25.8,87.5,26.4,87.5L26.4,87.5z"/>
                    </g>
                </g>
                <g>
                    <g>
                        <path d="M32.8,86.3c0.6,0,0.6-1,0-1C32.1,85.3,32.1,86.3,32.8,86.3L32.8,86.3z"/>
                    </g>
                </g>
                <g>
                    <g>
                        <path d="M40.2,84.7c0.6,0,0.6-1,0-1C39.6,83.7,39.6,84.7,40.2,84.7L40.2,84.7z"/>
                    </g>
                </g>
                <g>
                    <g>
                        <path d="M46.6,83.1c0.6,0,0.6-1,0-1C45.9,82.1,45.9,83.1,46.6,83.1L46.6,83.1z"/>
                    </g>
                </g>
                <g>
                    <g>
                        <path d="M53.6,80c0.6,0,0.6-1,0-1C53,79,53,80,53.6,80L53.6,80z"/>
                    </g>
                </g>
                <g>
                    <g>
                        <path d="M58.3,78.5c0.6,0,0.6-1,0-1C57.7,77.5,57.7,78.5,58.3,78.5L58.3,78.5z"/>
                    </g>
                </g>
                <g>
                    <g>
                        <path d="M61.6,76.2c0.6,0,0.6-1,0-1C60.9,75.2,60.9,76.2,61.6,76.2L61.6,76.2z"/>
                    </g>
                </g>
                <g>
                    <g>
                        <path d="M84.6,55.6c0.6,0,0.6-1,0-1C83.9,54.6,83.9,55.6,84.6,55.6L84.6,55.6z"/>
                    </g>
                </g>
                <g>
                    <g>
                        <path d="M87,53.1c0.6,0,0.6-1,0-1C86.3,52.1,86.3,53.1,87,53.1L87,53.1z"/>
                    </g>
                </g>
                <g>
                    <g>
                        <path d="M89.8,49.4c0.6,0,0.6-1,0-1C89.2,48.4,89.2,49.4,89.8,49.4L89.8,49.4z"/>
                    </g>
                </g>
                <g>
                    <g>
                        <path d="M91.6,45.7c0.6,0,0.6-1,0-1C91,44.7,91,45.7,91.6,45.7L91.6,45.7z"/>
                    </g>
                </g>
            </g>
            <g>
                <g>
                    <path d="M2.2,65.8c4.3,3.8,9,6.9,14.1,9.4c0.6,0.3,1.1-0.6,0.5-0.9c-5.1-2.5-9.7-5.6-13.9-9.3C2.5,64.7,1.7,65.4,2.2,65.8
				L2.2,65.8z"/>
                </g>
            </g>
            <g>
                <g>
                    <path d="M8.8,62.9c4.2,3.7,8.9,6.6,14.1,8.8c0.6,0.3,1.1-0.6,0.5-0.9c-5.1-2.2-9.7-5.1-13.9-8.7C9,61.8,8.3,62.5,8.8,62.9
				L8.8,62.9z"/>
                </g>
            </g>
        </g>

    </symbol>


</svg>