<svg xmlns="http://www.w3.org/2000/svg" viewBox="0 0 10000 10000">
    <symbol id="symbol-grass" viewBox="0 0 64 70.6">
        <g>
            <g>
                <path d="M22.6,70.3c0.7-3.1,1.4-6.2,2.1-9.3c0,0,0,0,0,0c4.3-0.6,7.9-4,8.9-8.2c0.1-0.3-0.2-0.7-0.6-0.6
			c-2.8,0.9-5.6,2.7-7.4,5c0.8-3.2,1.6-6.5,2.4-9.7c0.1-0.1,0.2-0.1,0.2-0.3c0.3,0.1,0.6,0.2,1,0.1c1.7-0.3,3.3-1.5,4.7-2.5
			c1.3-1,2.5-2.1,3.6-3.4c0.3-0.3,0-0.9-0.4-0.8c-3.1,1.1-6,2.6-8.5,4.8c0.7-2.8,1.5-5.7,2.3-8.5c3.9-0.6,7.4-3,9.2-6.5
			c0.2-0.3-0.1-0.8-0.5-0.7c-3.1,1.1-5.8,2.8-8.1,5.1c0.6-2.3,1.3-4.6,2-6.9c3.8,0.3,6.3-2.9,8.3-5.8c0.3-0.4-0.2-0.7-0.5-0.7
			c-2.6,0.4-5,1.6-6.8,3.3c0.6-1.8,1.1-3.7,1.7-5.5c1.2,0.7,2.4,0,3.3-0.9c1.5-1.4,2.8-3,4.1-4.6c0.3-0.3-0.2-0.7-0.5-0.6
			c-2.4,0.5-4.5,1.7-6.1,3.5c0.2-0.6,0.4-1.1,0.5-1.7c2.6-3.9,3.4-8.8,2-13.3c-0.1-0.3-0.7-0.5-0.8-0.1c-1.9,4.1-3.9,8.6-2.4,13.2
			c0,0.1,0.1,0.2,0.2,0.3c-0.3,0.9-0.6,1.7-0.8,2.6c-1.1-2.7-3.5-4.6-6.4-5.2c-0.3-0.1-0.7,0.2-0.6,0.6c1.1,3,3.4,5.3,6.5,6.2
			c-0.7,2.2-1.3,4.3-2,6.5c-1.2-2.5-3.5-4.4-6.2-5c-0.3-0.1-0.7,0.2-0.6,0.6c0.9,3.1,3.2,5.4,6.2,6.5c-0.7,2.5-1.4,4.9-2.1,7.4
			c-1.1-2.5-3.7-3.9-6.6-3.5c-0.4,0.1-0.4,0.5-0.2,0.8c1.7,2.1,3.8,3.7,6.2,4.8c-0.7,2.6-1.4,5.2-2.1,7.8c-1.3-2.2-3.1-4-5.5-5
			c-0.4-0.2-0.9,0.2-0.6,0.6c1.4,2.6,3.3,4.8,5.6,6.5c-1,3.8-1.9,7.7-2.8,11.6c-1.6-2.9-3.9-5.2-6.8-6.9c-0.3-0.2-0.8,0-0.7,0.4
			c0.4,3.9,3.3,7.2,7.1,8.1c-0.7,3.2-1.4,6.5-2.1,9.7C21.8,70.6,22.5,70.8,22.6,70.3z M36.9,14c-0.9-3.8,0.4-7.5,2-10.9
			C39.6,6.9,38.9,10.7,36.9,14z M34.8,18c-2.2-0.8-3.9-2.4-4.9-4.5C32.1,14.2,33.9,15.9,34.8,18z M36.5,18.6c1.3-2,3.2-3.4,5.4-4.2
			c-0.6,0.8-1.3,1.5-2,2.2C39.2,17.4,37.7,19.3,36.5,18.6z M32.6,26.7c-2.3-0.9-4.1-2.7-5.1-4.9C29.8,22.6,31.7,24.3,32.6,26.7z
			 M33.7,27.1c0-0.1,0.1-0.3,0.1-0.4c1.7-2,3.9-3.4,6.5-4C38.6,24.9,36.6,27.1,33.7,27.1z M31.6,35.9c2-2.1,4.4-3.7,7.1-4.8
			C37,33.5,34.4,35.3,31.6,35.9z M29.8,36.1c-1.9-0.9-3.5-2.2-4.9-3.8C27.2,32.3,29.1,33.8,29.8,36.1z M28.9,46.3c2-1.7,4.2-3,6.5-4
			C33.5,44.1,30.4,46.7,28.9,46.3z M27.1,45.9c-1.6-1.3-2.9-2.8-4-4.5c1.4,0.8,2.6,1.9,3.4,3.3C26.7,45.1,26.9,45.5,27.1,45.9z
			 M23.5,59.2c-2.8-0.9-4.9-3.2-5.6-6C20.3,54.7,22.2,56.7,23.5,59.2z M25,60c0.1-0.2,0.1-0.5,0.2-0.7c0,0,0.1,0,0.1-0.1
			c2-2.6,4.3-4.6,7.3-5.9C31.4,56.8,28.5,59.3,25,60z"/>
            </g>
        </g>
        <g>
            <g>
                <path d="M3.1,0.5C3,4.1,4.6,7.5,7.4,9.8c1.3,4.7,2.3,9.4,2.9,14.2c-0.1,0.3-0.2,0.7-0.2,1c-2.9-1.7-6.1-2.5-9.5-2.2
			c-0.5,0-0.8,0.7-0.3,1c3.2,1.8,6.7,2.7,10.3,2.7c0.4,3.7,0.5,7.4,0.5,11.1c-1.7-1.8-3.9-3-6.4-3.7c-0.5-0.1-0.9,0.4-0.5,0.8
			c1.7,1.9,3.8,3.4,6.3,4.3c0.2,0.1,0.3,0,0.4-0.1c0.1,0.1,0.1,0.2,0.2,0.2c-0.1,3.3-0.4,6.7-0.9,10c-0.1,0.2-0.1,0.3-0.2,0.5
			c-1.6-2.4-4-4.1-6.9-4.8c-0.5-0.1-0.8,0.4-0.5,0.8c1.8,2.6,4.3,4.5,7.2,5.8c-0.4,2.8-1,5.5-1.7,8.2c-1.7-2-4-3.4-6.6-3.9
			C1,55.6,0.6,56,0.8,56.4c1.4,2.7,3.7,4.8,6.7,5.8c0.1,0.3,0.5,0.5,0.7,0.3c0.1,0,0.2,0,0.3,0c3.2-1,5.3-4,5.1-7.4
			c0-0.5-0.5-0.7-0.9-0.4c-1.2,0.9-2.3,2-3.1,3.2c0.5-2,0.9-4.1,1.3-6.2c0.1,0,0.1,0,0.2,0c3.1-1.6,5.1-4.8,5.1-8.3
			c0-0.4-0.4-0.7-0.8-0.5c-1.5,0.9-2.8,2-3.8,3.4c0.2-2.3,0.4-4.5,0.5-6.8c3-1.5,5-4.5,5.2-7.9c0-0.4-0.5-0.7-0.8-0.5
			c-1.9,1.3-3.3,2.9-4.3,4.9c0-3.4-0.2-6.8-0.5-10.3c3-2.4,4.7-5.9,4.8-9.7c0-0.5-0.6-0.7-0.9-0.4c-2,1.7-3.5,3.7-4.4,6
			c-0.6-3.8-1.4-7.6-2.4-11.4c0.1-0.1,0.3-0.2,0.3-0.4C9.2,6,7.2,2.2,4,0.1C3.6-0.1,3.2,0.1,3.1,0.5z M7.7,61.3
			c-2.2-0.9-4-2.3-5.3-4.3c2.2,0.7,4,2,5.4,3.9C7.7,61,7.7,61.2,7.7,61.3z M12.5,56.3c-0.3,2.1-1.5,3.9-3.5,4.8
			C9.8,59.3,11,57.7,12.5,56.3z M4.4,46.3c1.8,0.8,3.3,2,4.5,3.6C7.2,49,5.7,47.7,4.4,46.3z M14.9,44.5c-0.4,2.5-1.8,4.6-3.9,6
			c0.1-0.4,0.1-0.7,0.2-1.1C11.9,47.4,13.2,45.8,14.9,44.5z M6.5,35.6c1.1,0.5,2.1,1.2,3,2C8.4,37,7.4,36.4,6.5,35.6z M16,32.9
			c-0.5,2.2-1.8,4.1-3.7,5.3C13.1,36.1,14.3,34.3,16,32.9z M8.1,25.2C6.3,25,4.6,24.5,3,23.9C4.8,24,6.5,24.5,8.1,25.2z M15.2,17.4
			c-0.4,2.7-1.7,5.2-3.7,7c0-0.1,0-0.3,0-0.4C12,21.6,13.3,19.3,15.2,17.4z M7.8,8.8C5.7,7,4.4,4.4,4.2,1.6C6.4,3.4,7.7,6,7.8,8.8z"
                />
            </g>
        </g>
        <g>
            <g>
                <path d="M63.3,34.9c-3.1,1-5.5,3.2-6.9,6.2c-0.1,0.2-0.1,0.3,0,0.5c-2.9,2.2-5.5,4.6-8,7.2c0.6-2.2,0.6-4.6-0.2-6.9
			c-0.1-0.4-0.7-0.5-1-0.1c-1.4,2.4-2.4,6.3-0.7,8.8c0,0.1,0.1,0.1,0.1,0.1c-1.7,1.9-3.3,4-4.7,6.1c0.1-2.6-0.4-5.2-1.6-7.5
			c-0.2-0.4-0.9-0.3-1,0.1c-1.2,3.6-1.1,7.4,0.3,10.9c0,0,0,0.1,0.1,0.1c-0.9,1.5-1.7,3-2.5,4.5c-1.3-1.9-3.6-3-6-2.6
			c-0.3,0.1-0.5,0.5-0.3,0.8c0.7,1.1,1.5,2.2,2.6,2.9c0.5,0.3,1.7,1.2,2.6,1.4c-0.3,0.6-0.5,1.2-0.7,1.7c-0.2,0.6,0.7,0.9,1,0.3
			c0.3-0.6,0.5-1.2,0.8-1.8c3.6,0.7,7.3,0.4,10.7-0.9c0.5-0.2,0.6-0.9,0-1.1c-2.6-0.5-5.2-0.6-7.8-0.1c-0.7,0.1-1.3,0.3-2,0.4
			c0,0-0.1,0-0.1,0c0,0,0,0,0,0c0.9-1.9,1.9-3.8,3-5.6c0,0,0,0,0,0c3.4,0.9,6.9,0.5,10-1.1c0.4-0.2,0.4-1-0.1-1
			c-3-0.4-6-0.2-8.9,0.7c1.6-2.5,3.4-4.9,5.3-7.1c0,0,0.1,0.1,0.1,0.1c3.3,1,6.8,0.5,9.8-1c0.4-0.2,0.3-0.9-0.1-1
			c-2.5-0.6-5-0.6-7.4,0c-0.2,0.1-0.5,0.1-0.7,0.1c2.8-3,5.9-5.8,9.3-8.2c0,0,0,0,0.1-0.1c2.8-0.9,5-3.2,5.9-6
			C64.1,35.2,63.7,34.8,63.3,34.9z M45,66.4c-2,0.5-4,0.6-6.1,0.4C40.9,66.4,42.9,66.2,45,66.4z M36.6,66c0,0.1-0.1,0.1-0.1,0.2
			c-0.4,0-0.8-0.1-1.4-0.4c-1.2-0.6-2.1-1.5-2.9-2.6C34.1,63.2,35.8,64.3,36.6,66z M48.3,59.1c-1.8,0.6-3.6,0.8-5.5,0.6
			C44.6,59.3,46.4,59.1,48.3,59.1z M40.6,58.7c-0.1,0.1-0.2,0.3-0.3,0.4c-0.9-2.6-1-5.4-0.4-8.1C40.9,53.5,41.1,56.1,40.6,58.7z
			 M54.8,50.6c-2,0.7-4.1,0.9-6.3,0.5c0.4-0.1,0.8-0.2,1.2-0.3C51.4,50.5,53.1,50.4,54.8,50.6z M47.1,49.3c0-0.1-0.1-0.1-0.1-0.2
			c-0.2-0.7-0.2-1.5-0.3-2.2c0-1.2,0.3-2.3,0.8-3.4C48,45.4,47.8,47.4,47.1,49.3z M57.9,40.7c1.1-1.8,2.6-3.2,4.5-4.2
			C61.4,38.4,59.8,39.8,57.9,40.7z"/>
            </g>
        </g>
    </symbol>

    <symbol id="symbol-celebration-star-3" viewBox="0 0 37.38 38.87">
        <path d="M27.56.72C23.37,2.38,19.63,5,15.76,7.23S5.3,5.45,1.53,3.94c-.57-.23-.9.49-.71.92,1.42,3.22,2.79,6.45,4.47,9.54C7.12,17.76,1.95,23.86.15,26.57a.63.63,0,0,0,.71.92c4-1.31,8.16-2.22,12-3.88,1.06-.46,8.2,9,9.29,10.08a.63.63,0,0,0,1.07-.44c.27-3.25.43-6.5.66-9.75.21-3,10.69-3.36,13.09-4a.63.63,0,0,0,0-1.21c-3-1.28-6.1-2.49-9.09-3.87-2.67-1.23-.14-10.36.27-12.64C28.31,1,27.11.65,27,1.44l-1.62,9.18c-.14.77-.42,2.46.14,3.18C27.9,17,33.15,18,36.66,19.49V18.29a44.18,44.18,0,0,1-9.77,1.49c-.73,0-3-.28-3.55.61C21.46,23.61,22.29,29.6,22,33.25l1.07-.44a49,49,0,0,1-8.41-10.71.64.64,0,0,0-.86-.22C9.49,23.72,5,24.82.52,26.28l.71.92c2.38-3.59,5.09-7.34,5.92-11.63.18-1-1.19-2.56-1.58-3.29-1.4-2.58-2.48-5.36-3.66-8l-.71.92c2.52,1,5.05,2,7.59,3C10,8.58,12.23,10,13.58,9.57,18.7,7.9,22.86,3.92,27.9,1.92c.74-.29.42-1.5-.33-1.21Z"
              transform="translate(-0.06 -0.67)"/>
        <path d="M7.29,39.34a30.31,30.31,0,0,0,5.2-8.21c.31-.73-.76-1.37-1.08-.63a29.3,29.3,0,0,1-5,8c-.53.6.35,1.49.88.88Z"
              transform="translate(-0.06 -0.67)"/>
    </symbol>
    <symbol id="symbol-cake-ice" viewBox="0 0 132.4 148">
        <g>
            <g>
                <g>
                    <path d="M9.7,90.6c0.2,1,1.9,1,1.7,0c-0.9-4.6,3.1-10.4,5.7-14c3.9-5.2,9.3-8.9,15.5-10.7c0.1,0.3,0.2,0.6,0.3,1
				c2.8,7.8,9.6,14.2,15.8,19.3c3.5,2.9,7.3,5.4,11.6,6.9c4.1,1.5,8.4,2.1,12.7,2.3c2.2,0.1,4.7,0.4,6.6-0.5
				c2.2,10.2-5.6,22-14,27.2c-0.9,0.6,0.1,1.9,0.9,1.4c9.2-5.7,17.3-18.4,14.6-29.5c0.2-0.2,0.4-0.4,0.5-0.6c1.3-1.7,2.2-3.9,3-5.9
				c1.3-3.7,1.9-8.6-2.2-10.1c0.6-1.1,0.9-2.4,1-3.4c0.4-4.6-3.4-8.9-7.3-10.7c-1-0.5-1.7,0.9-0.7,1.4c4.3,2,8.5,7.7,5.2,12.4
				c-1.5,2.2-5,1.5-7.4,1.2c-3.3-0.4-6.6-1.2-9.7-2.5c-5.5-2.3-9.8-6.1-13.9-10.4c-1.8-2-3.7-4.4-3.7-7.2c0-3.3,3.2-5.3,6.2-5.3
				c1.1,0,0.9-1.6-0.1-1.6c-3.2,0-5.6,1.5-6.8,3.8c-3.4-0.5-7.1,0.2-9.8,2.5c-1.9,1.7-3.1,4.3-3.1,6.8c-6.7,1.8-12.5,5.8-16.7,11.3
				C12.8,79.5,8.7,85.6,9.7,90.6z M44.6,56.5c-0.4,1.6-0.3,3.4,0.6,5.2c1,2.2,2.7,4.1,4.4,5.8c2.2,2.2,4.3,4.4,6.9,6.1
				c5.2,3.7,11.3,5.6,17.6,6.2c2.1,0.2,4.9,0.6,6.8-0.7c0.2-0.1,0.3-0.3,0.5-0.4c4.7,1.3,1.9,7.9,0.5,10.9c-1.1,2.2-2.1,4.1-4.8,4.3
				c-3.2,0.3-6.7-0.2-9.9-0.7c-7.4-1.2-13.7-4.8-19.2-9.8c-5.1-4.6-9.8-9.4-12.9-15.6C31.6,61.1,38.1,55.8,44.6,56.5z"/>
                </g>
                <g>
                    <path d="M74.3,100.3c0.7,1.9,0.5,4,0.1,5.9c-0.3,1-1.9,0.6-1.6-0.4c0.4-1.7,0.6-3.5,0-5.1
				C72.4,99.7,74,99.4,74.3,100.3z"/>
                </g>
                <g>
                    <path d="M65.8,107.2c0.5,1.1,0.7,2.3,1.6,3.1c0.8,0.7-0.3,1.8-1.1,1.1c-1.1-1-1.4-2.5-2-3.8
				C63.7,106.6,65.4,106.3,65.8,107.2z"/>
                </g>
                <g>
                    <path d="M64.5,100.6c1.8-0.1,3.4,0.5,4.9,1.4c1,0.5,0.2,1.9-0.7,1.4c-1.3-0.7-2.6-1.2-4.1-1.1
				C63.6,102.2,63.4,100.6,64.5,100.6z"/>
                </g>
                <g>
                    <path d="M29.8,73.1c0.1,1.6,0.5,3,0.3,4.6c-0.2,1-1.8,0.6-1.6-0.4c0.2-1.4-0.3-2.8-0.3-4.1
				C28.1,72.1,29.7,72.1,29.8,73.1z"/>
                </g>
                <g>
                    <path d="M22.6,77.7c0.8-0.6,2,0.5,1.2,1.1c-1.1,0.9-2.1,2-2.7,3.3c-0.5,0.9-2,0.1-1.5-0.8
				C20.3,79.9,21.4,78.7,22.6,77.7z"/>
                </g>
                <g>
                    <path d="M24.9,85.7c1.9-0.1,3.6-1.2,5.5-1.2c1,0,1.2,1.6,0.1,1.6c-1.9,0-3.6,1.1-5.5,1.2
				C23.9,87.4,23.8,85.8,24.9,85.7z"/>
                </g>
                <g>
                    <path d="M41,62.5c0.2,1.6,0.4,3.2,0.4,4.8c0,1.1-1.7,1-1.7,0c0-1.6-0.2-3.2-0.4-4.8C39.2,61.5,40.9,61.5,41,62.5z"/>
                </g>
                <g>
                    <path d="M38.5,49.2c1.8,0.7,3.8,0.6,5.7,1.1c1,0.3,0.7,1.8-0.3,1.5c-2-0.6-4.1-0.5-6.1-1.3
				C36.8,50.2,37.5,48.8,38.5,49.2z"/>
                </g>
                <g>
                    <path d="M43.4,44.8c1.8-0.5,3.4-1.3,5.2-1.5c1-0.1,1.2,1.5,0.1,1.6c-1.7,0.2-3.2,1-4.8,1.5
				C42.9,46.7,42.3,45.1,43.4,44.8z"/>
                </g>
                <g>
                    <path d="M73.1,1.1c0.7,1.2,0.7,2.9,0.9,4.2c0.1,1.3,0.3,2.7,0.3,4.1c0.3,4.3-0.3,8.5-1.1,12.7
				c-1,5.2-1.9,10.8-3.6,15.9c-2.5-1.6-5.9-2.2-8.7-2c-4.1,0.3-6.7,3.4-8,7.1c-1.2,3.4-2,7.2-1,10.7c0.9,3.2,3,6,5.7,8.1
				c5.6,4.3,13.4,5.3,19.6,1.5c5.5-3.4,10.1-11.1,7.8-17.6c-2-5.8-8.4-8.3-14.1-6.9c0,0,0,0,0,0c0.4-1.4,0.8-2.7,1.2-4.1
				c1.1-4.5,2.1-9.1,2.9-13.7c0.7-4.2,1.1-8.5,0.8-12.8c0-0.3,0-0.7-0.1-1.1c0,0,0,0,0,0C82,13.6,89.1,20.4,98.2,22
				c7.9,1.3,16.9-1.2,23.7-5.2c0.6-0.3,0.3-1.1-0.3-1.3c-3-0.9-5.2-3.1-7.7-4.9c-1.9-1.4-4-2.3-6.2-3.2c-3.9-1.5-7.7-3.5-11.8-4.6
				C89,1,81.5,1.1,75.6,5.4c-0.1-1.8-0.4-3.7-1.2-5.1C73.9-0.4,72.6,0.2,73.1,1.1z M69.3,39.4c-1,2.7-2.2,5.3-3.8,7.6
				c-0.5,0.7,0.8,1.5,1.3,0.7c1.5-2.2,2.7-4.6,3.6-7.1c0.1,0,0.2,0,0.3,0c6-1.9,13.2,1.4,13.5,8.3c0.3,5.9-4.3,12-9.5,14.3
				C69,65.7,62.1,64.1,57.6,60c-5.1-4.6-5.3-11-2.8-17.1c1.3-3.3,3.7-5.5,7.3-5.5C64.5,37.4,67.2,37.9,69.3,39.4z M118.9,15.8
				c-6.9,0.3-13.4-2.1-19.8-4.4c-7-2.5-14.1-4.2-21.4-5.6c5.9-3.6,13.3-3.1,19.9-1c4,1.3,8,3.1,11.9,4.8
				C113,11.1,115.6,14,118.9,15.8z M77.7,7.2c7.4,1.5,14.7,3.2,21.8,5.8c5.9,2.1,11.9,4.3,18.2,4.3c-6.1,2.9-13.4,4.5-19.9,3.2
				C89.8,18.9,83.4,12.9,77.7,7.2z"/>
                </g>
            </g>
            <g>
                <path d="M87.7,75.4c0,0.1-0.1,0.2-0.1,0.3c-0.1,0.3,0.1,0.8,0.5,1.1c0.1,0.1,0.1,0.1,0.2,0.2c0.6,0.4,1,1.6,1.4,2.1
			c0.5,0.7,1.1,1.4,1.8,2c0.9,0.9,1.7,1.5,2.8,1.9c1.6,0.5,4.1,0.7,5.1-1c2.2-4-4.4-4.7-7.7-5.5c3.3-0.6,6.5-1.4,9.6-2.5
			c1.8,1.8,3.9,3.8,6.3,4.6c1.8,0.6,4.4,0.2,4.9-2c0.4-1.9-1.9-2.6-3.4-3c-1.2-0.3-2.5-0.5-3.7-0.6c-0.3,0-0.8-0.1-1.3-0.1
			c3.2-1.3,6.2-2.9,9.2-4.7c1.3,1.5,2.5,3.1,4.2,4c1.4,0.7,3.7,1.1,5-0.1c1.3-1.1,0.3-2.7-0.9-3.5c-1.8-1.3-4.1-1.1-6.1-1.8
			c1.8-1.2,3.5-2.5,5.1-3.8c0.2,0,0.3,0,0.5-0.1c3.2-1.7,7.6-2.5,10.2-5.2c1.3-1.3,1.5-3.2-0.3-4.1c-4.9-2.4-9.7,4.1-11.7,7.7
			c-0.1,0.2-0.1,0.4-0.1,0.6c-1.4,1.1-2.8,2.2-4.2,3.2c0.2-1,0.2-2.1,0.3-3.1c0.1-1.4,0.2-3.9-1.2-4.7c-1.7-1-3,1.1-3.1,2.5
			c-0.2,2.4,0.9,4.5,1.2,6.8c0,0.1,0,0.2,0.1,0.2c-2.5,1.5-5.1,2.9-7.8,4.1c0.8-1.6,1.1-3.5,1.3-5.3c0.1-1.2,0.3-3.5-1-4.2
			c-1.7-0.8-3.2,1.8-3.6,3.1c-0.8,2.5-0.3,5.2-0.8,7.8c0,0.1,0,0.1,0,0.2c-2.7,0.9-5.6,1.7-8.5,2.3c1-1,1.7-2.2,2.2-3.6
			c0.3-1,1.1-3.2,0.1-4.1c-1.2-1.2-3,0.7-3.7,1.6C88.9,70.6,88.5,73.1,87.7,75.4z M113.5,64.4c-0.2-0.8-0.5-1.6-0.6-2.4
			c-0.1-0.7-0.3-1.6-0.1-2.4c0.1-0.2,0.3-0.8,0.6-0.9c0,0,0,0.1,0.1,0.2c0.6,1,0.3,3.1,0.2,4.2C113.6,63.5,113.5,63.9,113.5,64.4z
			 M121.6,60.8c1.7-2.7,4.2-5.9,7.3-6c1.5-0.1,2.3,0.5,1.2,1.8c-0.8,0.9-2,1.4-3,1.9C125.3,59.3,123.5,60,121.6,60.8z M115.5,68.4
			c0.7,0.2,1.5,0.4,2.3,0.5c0.5,0.1,1.1,0.2,1.6,0.4c0.6,0.2,1.1,0.4,1.5,0.8c-0.2,1-0.6,1.4-1.3,1.2
			C118.1,71.4,116.7,69.8,115.5,68.4z M104.3,74.6c2,0.3,4.4,0,6,1c0.8,0.5,0.6,1.1-0.4,1.5c-1,0.5-2.3-0.3-3.2-0.8
			C105.8,75.9,105,75.2,104.3,74.6z M102.2,71.4c0.1-1,0.1-2.1,0.1-3.1c0.1-1.3,0.2-4.4,1.7-5.1c0.2-0.1,0.1-0.3,0.2,0.3
			c0.1,0.3,0,0.6,0.1,0.9c0,0.6-0.1,1.1-0.1,1.7C103.9,68,103.4,69.9,102.2,71.4z M90.7,77.8c2.5,0.6,7.5,1.2,7.3,3
			c-0.3,2.1-4,0.5-4.9-0.3C92.2,79.7,91.4,78.8,90.7,77.8z M91.5,70.1c0.3-0.4,0.6-0.8,1-1.1c0.2-0.1,0.4-0.2,0.5-0.2
			c0,1-0.9,2.8-1.2,3.4c-0.6,1-1.4,1.8-2.2,2.5c0.2-0.8,0.5-1.5,0.7-2.2C90.7,71.6,91.1,70.8,91.5,70.1z"/>
            </g>
            <g>
                <path d="M12.9,43.7c0.9,1.3,2.7,2.3,4.4,2.4c0.1,0.5,0.1,1.1,0.2,1.6c0.2,1.8,0.8,3.5,1.3,5.2
			c-1.7-1.5-3.6-2.4-4.9-1.1c-1.7,1.7,0.1,4.3,1.5,5.4c1.9,1.6,4.5,2.7,7,2.9c0.7,0,0.9-0.6,0.7-1.1c1.9-2.2,6.6-8,3.8-10
			c-2.8-1.9-4.8,3.5-5.5,6.8c-0.8-2.4-1.9-4.7-2.2-7.2c-0.1-0.6-0.2-1.2-0.2-1.8c2.1-0.9,7.3-4.1,5-5.9c-1.1-1-2.9-0.1-3.9,0.7
			c-0.5,0.4-1,1-1.5,1.5c0-1.1,0.2-2.1,0.6-3.1c0.1,0,0.2-0.1,0.3-0.2c1.3-1.2,2.4-2.8,3.2-4.4c0.6-1.1,1.7-3.2,0.6-4.3
			c-1.3-1.4-3.3-0.1-4.2,1.2c-1.2,1.7-2,4.4-1.6,6.5c0,0.2,0.1,0.3,0.2,0.4c-0.5,1.1-0.6,2.3-0.7,3.5c-0.2-0.3-0.5-0.7-0.7-1
			c-0.7-0.8-1.8-2.1-3-1.7C11.8,40.4,12.2,42.7,12.9,43.7z M20.2,36.2c-0.3,0.5-0.7,1-1.1,1.5c0-1.2,0.4-2.5,0.9-3.6
			c0.3-0.6,0.7-1.5,1.4-1.9c0.8-0.4,0.6-0.1,0.6,0.4C22.1,33.7,20.8,35.3,20.2,36.2z M25,51.1c0.4-0.6,0.8-1.2,1-0.5
			c0.4,1.1-1.6,3.6-2.2,4.4c-0.3,0.4-0.6,0.8-0.9,1.3c0.2-1.1,0.6-2.2,1-3.1C24.2,52.5,24.5,51.7,25,51.1z M18.4,54.8
			c0.5,0.5,1.3,1.3,1.7,2.1c0.1,0.4,0.2,0.7,0.3,1.1c-1-0.3-2-0.8-2.8-1.3c-0.6-0.3-4-2.9-2.5-3.9C15.9,52.3,17.9,54.3,18.4,54.8z
			 M19.6,44.6c0.3-0.5,0.6-0.9,1-1.3c0.3-0.4,0.7-0.7,1.1-1c0.2-0.1,0.4-0.2,0.6-0.3c0.1,0,0.2,0,0.3,0c-0.1,0.1-0.2,0.3-0.3,0.4
			c-0.3,0.4-0.7,0.7-1,1C20.7,43.9,20.2,44.3,19.6,44.6z M14,41.5c0,0,0.1,0.1,0.1,0.1c0.6,0.7,1.2,1.4,1.8,2.1
			c0.1,0.1,0.2,0.3,0.3,0.4c-0.8-0.3-1.6-0.8-2-1.5C13.9,42.4,13.9,42,14,41.5z"/>
            </g>
            <g>
                <path d="M5,132.9L5,132.9c-0.4-3.2-1-6.5-1.5-9.7c-0.3-1.6-0.5-3.2-0.8-4.9c-0.9-5.8-1.1-8.6-1.5-13.7
			c-0.1-1.3-0.2-2.7-0.3-4.3C0.7,98.6-0.1,88.9,0,85c0,0,0,0,0,0l0,0c0,0,0,0,0,0c0-0.4,0.4-0.7,0.8-0.7c0.3,0,0.5,0.2,0.6,0.4
			c0.4,0.3,2.1,1.2,2.7,1.5c0.3,0.2,0.6,0.3,0.7,0.4l0.3,0.2c8.4,4.9,16.4,9.6,24.2,14.1c9.6,5.6,19.5,11.4,30.3,17.7
			c0.9,0.5,9.6,5.9,12,7.5c0.2,0.1,0.3,0.4,0.3,0.6c0,0.2-0.1,0.5-0.3,0.6c-2.9,2.3-5.9,4.1-9.1,6c-1.7,1-3.5,2.1-5.3,3.3
			c-4.4,2.9-9.3,5.2-14.5,6.8c-0.5,0.1-1.7,0.8-2.9,1.5c-4,2.3-6.7,3.7-8,3l-20.2-10.9c-0.1-0.1-0.6-0.3-1-0.5
			c-1.7-0.8-2.9-1.3-3.7-1.8C5.4,133.9,5.1,133.4,5,132.9z M5.7,132.9L5.7,132.9L5.7,132.9z M6.5,132.8
			C6.5,132.8,6.5,132.8,6.5,132.8C6.5,132.8,6.5,132.8,6.5,132.8z M32.6,146.4c0.8,0.3,4.8-2,6.6-3c1.4-0.8,2.6-1.5,3.2-1.7
			c5.1-1.6,9.8-3.8,14.1-6.6c1.8-1.2,3.6-2.3,5.4-3.3c2.8-1.7,5.5-3.3,8.1-5.2c-3.1-2-10.2-6.4-11-6.9
			c-10.8-6.2-20.7-12.1-30.3-17.7C20.8,97.5,12.8,92.8,4.4,88l-0.3-0.2c-0.1-0.1-0.3-0.2-0.6-0.3c-0.8-0.4-1.5-0.8-2-1
			c0,4.5,0.7,12.5,0.9,13.8c0,0,0,0,0,0.1c0.1,1.6,0.2,3.1,0.3,4.3c0.3,5,0.5,7.8,1.4,13.5c0.3,1.6,0.5,3.2,0.8,4.8
			c0.5,3.1,1.1,6.4,1.5,9.6c0.6,0.6,3.7,1.9,4.7,2.4c0.6,0.3,1,0.4,1.1,0.5L32.6,146.4z M6.4,132.6L6.4,132.6L6.4,132.6z M1.5,85
			L1.5,85L1.5,85z"/>
            </g>
        </g>
    </symbol>


</svg>