<?xml version="1.0" encoding="utf-8"?>
<!-- Generator: Adobe Illustrator 19.0.1, SVG Export Plug-In . SVG Version: 6.00 Build 0)  -->
<svg version="1.1" fill="#fff" xmlns="http://www.w3.org/2000/svg" xmlns:xlink="http://www.w3.org/1999/xlink" x="0px"
	 y="0px" viewBox="0 0 93 102" style="enable-background:new 0 0 93 102;" xml:space="preserve">
<g>
	<g>
		<path d="M31.7,72.2c2.4-2.9,3.3-6,1.8-9.6c-1.3-3.1-4-7.1-7.9-5.9c-0.8,0.3-0.5,1.6,0.4,1.3c3.3-1.1,5.8,3.3,6.6,5.9
			c0.9,2.9,0,5-1.8,7.3C30.1,71.9,31.1,72.9,31.7,72.2L31.7,72.2z"/>
	</g>
	<g>
		<path d="M25.9,57.6c-0.2-4-2.4-8.5-6.7-9.4c-2.6-0.5-5.4,0.5-7.8,1.4c-2.6,1-5.2,2.2-7.4,3.9c-3.9,3-4.7,8.3-3.6,12.9
			c1.2,4.8,4.3,9,8.4,11.7c0.7,0.5,1.4-0.7,0.7-1.2c-3.5-2.4-6.2-5.9-7.5-9.9c-1.3-4-1.1-9.1,2.2-12c1.6-1.4,3.7-2.5,5.7-3.4
			c2.2-1,4.8-2.1,7.3-2.3c4.5-0.2,7,4.1,7.2,8.1C24.6,58.4,26,58.5,25.9,57.6L25.9,57.6z"/>
	</g>
	<g>
		<path d="M36.9,76c-4.3-5.4-11.7-8.6-18.5-6.7c-6.9,2-11.1,7.7-11,14.9c0.1,7.1,3.8,14,10.6,16.8c6.6,2.7,13.9,0.2,18.6-5
			c5-5.6,6.9-15,0.1-20c-0.7-0.5-1.4,0.7-0.7,1.2c5.8,4.4,4.1,12.6-0.1,17.5c-4,4.7-10.3,7.4-16.3,5.5c-6.3-1.9-10.1-7.8-10.8-14.3
			c-0.3-3.3,0.1-6.8,2-9.7c1.7-2.5,4.2-4.2,7-5.2c6.6-2.4,13.9,0.7,18.1,6C36.5,77.6,37.5,76.6,36.9,76z"/>
	</g>
	<g>
		<path d="M24.4,81.2c0.3,4.4,4.1,7.3,8.4,6.5c0.9-0.2,0.5-1.5-0.4-1.3c-3.4,0.6-6.4-1.8-6.7-5.2C25.7,80.4,24.3,80.4,24.4,81.2
			L24.4,81.2z"/>
	</g>
	<g>
		<path d="M26.1,57.5c9.6-16.7,21.1-32.2,34.3-46.2c0.6-0.6-0.4-1.6-1-1C46.2,24.4,34.5,40,24.9,56.8C24.4,57.5,25.6,58.2,26.1,57.5
			L26.1,57.5z"/>
	</g>
	<g>
		<path d="M59.3,10.4c-5.2,10-7.9,20.9-10.4,31.8c-2.2,9.6-5.1,19-9.9,27.7c-2.7,4.9-6.1,9.4-10.1,13.3c-0.6,0.6,0.3,1.6,1,1
			c6.9-7,11.7-15.3,15.2-24.4c3.6-9.5,5.4-19.5,8-29.3c1.8-6.7,4.1-13.2,7.3-19.4C60.9,10.3,59.7,9.6,59.3,10.4L59.3,10.4z"/>
	</g>
	<g>
		<path d="M58.6,9.7c0.4,1,0.9,1.6,1.9,2.1c0.5,0.2,1.2-0.2,1-0.8c-0.3-0.9-0.7-1.7-1.1-2.5C60,8.7,59.7,9,59.3,9.3
			c0.5,0.4,1,0.8,1.4,1.3c0.5,0.4,1.4,0,1.1-0.7c-0.3-1-0.7-1.9-1.2-2.8c-0.3,0.3-0.6,0.6-0.9,0.9c0.6,0.4,1.1,0.8,1.7,1.2
			c0.5,0.3,1.2-0.2,1-0.8c-0.3-0.7-0.5-1.4-0.8-2.2c-0.4,0.2-0.8,0.4-1.1,0.7c0.5,0.6,1,1,1.6,1.4c0.6,0.3,1.3-0.3,0.9-0.9
			c-0.4-0.6-0.6-1.2-0.6-2c-0.4,0.2-0.8,0.3-1.2,0.5c0.6,0.5,1.2,1,1.9,1.4c0.5,0.3,1.2-0.2,1-0.8c-0.3-0.8-0.6-1.5-0.8-2.3
			C63,4.5,62.6,4.7,62.2,5c0.5,0.5,1,1,1.5,1.5c0.5,0.5,1.3,0,1.1-0.7c-0.2-0.9-0.5-1.7-0.7-2.6c-0.4,0.2-0.8,0.4-1.1,0.7
			c0.6,0.5,1.1,1.1,1.7,1.6c0.5,0.4,1.4,0,1.1-0.7c-0.3-0.8-0.6-1.5-0.9-2.3c-0.3,0.3-0.7,0.5-1,0.8c0.6,0.4,1.2,0.9,1.7,1.3
			c0.4,0.4,1.2,0.1,1.2-0.5c0-0.8-0.7-1.8-0.4-2.6c-0.4,0.1-0.8,0.1-1.2,0.2c0.5,0.7,1,1.4,1.6,2.1C67,4.3,68,4.3,67.9,3.5
			c0-0.9-0.1-1.9-0.2-2.8C67.3,0.8,67,1,66.6,1.2C67,1.6,67.2,2,67.5,2.6c0.4,0.8,1.6,0.1,1.2-0.7c-0.3-0.6-0.7-1.2-1.1-1.7
			c-0.4-0.4-1.2-0.1-1.2,0.5c0.1,0.9,0.2,1.9,0.2,2.8c0.4-0.1,0.8-0.2,1.3-0.3c-0.5-0.7-1-1.4-1.6-2.1c-0.3-0.5-1.1-0.4-1.2,0.2
			c-0.3,1.1,0.4,1.9,0.4,2.9c0.4-0.2,0.8-0.3,1.2-0.5c-0.6-0.6-1.3-1.1-2-1.6c-0.5-0.3-1.2,0.2-1,0.8c0.3,0.8,0.6,1.5,0.9,2.3
			c0.4-0.2,0.8-0.4,1.1-0.7c-0.6-0.5-1.1-1.1-1.7-1.6c-0.5-0.5-1.3,0-1.1,0.7c0.2,0.9,0.5,1.7,0.7,2.6c0.4-0.2,0.8-0.4,1.1-0.7
			c-0.5-0.5-1-1-1.5-1.5c-0.5-0.5-1.3,0-1.1,0.7c0.2,0.8,0.5,1.6,0.8,2.3c0.3-0.3,0.7-0.5,1-0.8c-0.6-0.4-1.1-0.8-1.6-1.2
			c-0.4-0.4-1.2-0.1-1.2,0.5c0.1,1,0.3,1.8,0.8,2.7c0.3-0.3,0.6-0.6,0.9-0.9c-0.6-0.3-0.9-0.7-1.4-1.2c-0.4-0.5-1.4,0-1.1,0.7
			c0.3,0.7,0.5,1.4,0.8,2.2c0.3-0.3,0.7-0.5,1-0.8c-0.6-0.4-1.1-0.8-1.7-1.2c-0.6-0.4-1.2,0.4-0.9,0.9c0.4,0.8,0.7,1.6,1,2.4
			c0.4-0.2,0.8-0.4,1.1-0.7c-0.5-0.4-1-0.8-1.4-1.3c-0.6-0.5-1.4,0.1-1.1,0.8c0.4,0.7,0.7,1.4,0.9,2.2c0.3-0.3,0.7-0.5,1-0.8
			c-0.6-0.2-1-0.6-1.3-1.3C59.6,8.5,58.2,8.8,58.6,9.7L58.6,9.7z"/>
	</g>
	<g>
		<path d="M59.2,11.9c3.3,6.8,8.5,12.4,14.6,16.9c5.3,4,11.8,7.6,18.4,8.8c0.9,0.2,1.2-1.2,0.4-1.3c-6.3-1.1-12.5-4.6-17.6-8.3
			c-6-4.4-11.3-9.9-14.5-16.7C60,10.4,58.8,11.1,59.2,11.9L59.2,11.9z"/>
	</g>
	<g>
		<path d="M59.1,11.7c0.7,4.4,2.3,8.8,4.3,12.8c1.8,3.6,4.5,6.3,7.8,8.5c2.5,1.7,5.3,3.5,8.3,4.4c4.2,1.2,8.8,1.3,13,0.2
			c0.3-0.1,0.6-0.5,0.5-0.8c-1.4-3.4-4-6-6.8-8.3c-3.3-2.6-6.9-4.9-10.6-6.9c-5.5-3-11.3-5.1-15.3-10.3c-0.5-0.7-1.7,0-1.2,0.7
			c3.8,5.1,9.4,7.8,15,10.4c3.2,1.5,6.2,3.6,9.1,5.6c3.3,2.4,6.8,5.3,8.4,9.2c0.2-0.3,0.3-0.6,0.5-0.8c-4.1,1.1-8.7,1-12.8-0.3
			c-2.6-0.9-5.2-2.6-7.5-4.1c-3.3-2.2-5.8-4.9-7.6-8.5c-1.8-3.8-3.2-7.9-3.9-12C60.3,10.5,58.9,10.9,59.1,11.7L59.1,11.7z"/>
	</g>
	<g>
		<path d="M70.1,25.6c-0.2,2.3-0.2,4.6,0.7,6.8c0.3,0.8,1.6,0.5,1.3-0.4c-0.8-2.1-0.8-4.2-0.6-6.4C71.5,24.7,70.2,24.7,70.1,25.6
			L70.1,25.6z"/>
	</g>
	<g>
		<path d="M71.4,26.7c-0.1,2.3,0.1,4.6,0.7,6.8c0.2,0.9,1.5,0.5,1.3-0.4c-0.5-2.1-0.8-4.3-0.7-6.5C72.8,25.8,71.5,25.8,71.4,26.7
			L71.4,26.7z"/>
	</g>
	<g>
		<path d="M73.1,28.1c0,2.2,0.3,4.4,0.9,6.6c0.2,0.8,1.6,0.5,1.3-0.4c-0.6-2-0.9-4.1-0.9-6.2C74.4,27.2,73.1,27.2,73.1,28.1
			L73.1,28.1z"/>
	</g>
	<g>
		<path d="M76.1,30c2.2-0.7,4.4-1.6,6.6-2.7c0.8-0.4,0.1-1.6-0.7-1.2c-2,1-4.1,1.8-6.2,2.5C74.9,28.9,75.3,30.3,76.1,30L76.1,30z"/>
	</g>
	<g>
		<path d="M78.6,31.5c2-0.9,3.9-1.9,5.8-3c0.7-0.5,0.1-1.7-0.7-1.2c-1.9,1.2-3.8,2.2-5.8,3C77.1,30.7,77.8,31.9,78.6,31.5L78.6,31.5
			z"/>
	</g>
</g>
</svg>
