<?xml version="1.0" encoding="utf-8"?>
<!-- Generator: Adobe Illustrator 19.0.1, SVG Export Plug-In . SVG Version: 6.00 Build 0)  -->
<svg version="1.1" fill="#fff" xmlns="http://www.w3.org/2000/svg" xmlns:xlink="http://www.w3.org/1999/xlink" x="0px"
	 y="0px" viewBox="0 0 128 107.9" style="enable-background:new 0 0 128 107.9;" xml:space="preserve">
<style type="text/css">
	.st0{fill:none;}
</style>
		<path d="M26.9,27.6c15.2,6.8,31.6,11.2,48.3,12.3c5.5,0.4,11.3,0.5,16.6-1c4.2-1.2,8.5-4,8.6-8.9c0.1-3.3-2.4-6.3-4.5-8.4
			c-4-4.1-9.1-7.1-14.2-9.6c-7.4-3.6-15.4-6-23.4-7.7c-9.7-2-19.7-4.4-29.6-4.3c-4.3,0-8.9,0.4-13,1.7c-3.1,1-6.6,3.1-7.1,6.6
			c-0.2,1.9,0.6,3.6,1.7,5.1c1.4,2,3.2,4,4.8,5.8C18.3,22.7,22.5,25.4,26.9,27.6c0.7,0.3,1.3-0.7,0.6-1c-3.8-1.9-7.5-4.2-10.6-7.2
			c-1.3-1.3-2.5-2.8-3.7-4.2c-1.4-1.6-3.2-3.5-3.5-5.8c-0.6-3.9,4-6.1,7-6.9c3.6-1,7.5-1.3,11.2-1.4C37.5,1,46.8,3.2,56.1,5
			c7.7,1.5,15.3,3.7,22.5,6.8c5.1,2.3,10.2,5,14.5,8.7c2.5,2.1,5.3,4.9,6,8.2c0.9,4.4-3.3,7.6-7,8.7c-4.9,1.6-10.3,1.5-15.4,1.2
			c-17-0.9-33.8-5.3-49.3-12.2C26.8,26.3,26.2,27.3,26.9,27.6z"/>
		<path d="M9,6.6C4.4,17.5,0.7,29.1,0.1,41c-0.3,5.5,0.1,11.1,1.5,16.5c1.5,5.8,4,11.3,4.5,17.3c0.6,6.8-1.4,13.3-1.8,20.1
			c0,0.2,0.1,0.4,0.3,0.5c10.4,6.5,22.2,10.9,34.5,12.1c2.5,0.2,4.9,0.2,7.4,0.3c1.7,0.1,3.5,0.3,5.1-0.4c1.8-0.8,2.6-2.4,3.5-4
			c0.5-0.9,1.3-1.7,2.1-2.4c2.7-2.4,5.6-4.5,8.5-6.7c3.8-2.9,7.4-5.9,10.8-9.2c3.7-3.7,7.1-7.7,9.8-12.2c3.1-5.3,5.4-11.3,7.4-17.1
			c2.8-8.2,5.2-16.6,6.6-25.2c0.1-0.7-1-1.1-1.1-0.3c-2,12-5.6,24.1-10.5,35.3C85.4,73,81,79.2,75.2,84.8c-4.5,4.4-9.6,8.2-14.6,12
			c-1.7,1.3-3.4,2.6-4.9,4c-1.5,1.4-2.1,3.6-3.6,4.9c-2.2,1.8-5.9,0.9-8.4,0.9c-3.6-0.1-7.1-0.5-10.6-1.1c-9-1.7-17.7-5-25.6-9.7
			c-1.1-0.6-1.8-0.8-1.8-2.1c0-1.2,0.3-2.4,0.5-3.5c0.4-2.2,0.7-4.5,0.9-6.7c0.5-4.7,0.5-9.3-0.6-13.9c-1.2-5-3.2-9.7-4.2-14.7
			c-1-5-1.2-10.1-0.8-15.2C2.2,28.4,5.6,17.5,10,7.2C10.3,6.5,9.3,5.9,9,6.6L9,6.6z"/>
		<path d="M97.7,42.4c5.6-3.9,13.7-5.3,20.2-3.1c3.4,1.2,6.8,3.2,8,6.7c1.1,3.2,1,6.8,0.5,10.1c-0.6,4-2.2,7.5-4.3,10.9
			c-2.1,3.4-4.4,6.6-7.4,9.3c-3.2,2.7-6.5,5-10.4,6.4c-3.7,1.3-7.7,2-11.6,2.4c-3.9,0.5-7.9,0.5-11.8,1.1c-4.5,0.6-8.7,2-12.6,4.5
			c-0.6,0.4,0,1.4,0.6,1c7.9-5,16.8-4.4,25.7-5.6c4-0.5,8.1-1.4,11.8-2.9c3.7-1.6,6.9-4,9.9-6.7c3-2.8,5.4-6.3,7.4-9.8
			c2-3.4,3.4-7,3.9-11c0.4-3.4,0.5-7.1-0.8-10.3c-1.2-3-3.8-5-6.7-6.3c-7.2-3.3-16.6-2.1-23.1,2.4C96.5,41.8,97.1,42.9,97.7,42.4
			L97.7,42.4z"/>
		<path d="M95.5,50.9c3.1-3.7,9.1-6.4,13.9-6.4c3,0,6.8,0.9,8.7,3.3c1.8,2.2,1.5,5.6,1.2,8.3c-0.6,5.7-3.1,11.1-6.9,15.4
			c-3.9,4.3-9.8,6.8-15.5,7.3c-5.1,0.4-10.2-0.8-15.3-0.5c-0.8,0-0.8,1.2,0,1.2c5.4-0.3,10.8,1.1,16.3,0.4C104,79,110,76.3,114,71.5
			c3.8-4.6,6.1-10.3,6.6-16.2c0.2-2.7,0.3-5.9-1.5-8.1c-1.8-2.2-4.9-3.3-7.6-3.7c-3.2-0.5-6.3,0.2-9.2,1.5c-2.8,1.2-5.7,2.8-7.6,5.1
			C94.2,50.6,95,51.5,95.5,50.9L95.5,50.9z"/>
	<path class="st0" d="M15.6,53.7c-1.3-1.9-3.3-3.7-5.5-4.4c-0.3-0.1-0.6-0.2-0.9-0.2c-0.3,0-0.6,0.2-0.7,0.5
		c-0.1,0.2,0.1,0.5,0.2,0.7c0.7,1.2,2.1,1.7,3.4,2.2C13.2,53,14.5,53.4,15.6,53.7"/>
	<path class="st0" d="M15.6,53.7c-2,0.7-4.3,1.6-6.2,2.6c-0.5,0.2-1,0.5-1.3,0.9c-0.3,0.4-0.4,1.1,0,1.5c0.4,0.4,1.1,0.4,1.7,0.3
		c0.7-0.1,1.1-0.4,1.7-0.7c1.4-0.7,1.8-2.4,2.3-3.8"/>
	<path class="st0" d="M15.6,53.7c-3.1,0.1-6.4-0.8-8.7-1.2c-0.5-0.1-1.1-0.2-1.5,0c-0.5,0.2-0.7,0.9-0.3,1.3
		c0.1,0.1,0.3,0.2,0.5,0.2c0.8,0.2,1.5,0.4,2.3,0.1c0.7-0.2,2.5-0.6,3.2-0.8"/>
		<path d="M76.5,66.7c-0.8,2.6-1,5.1-1.5,7.8c-0.4,1.9-2.9,3-2.3,5.3c0.4,1.2,1.8,2,2.8,0.9c1.1-1.3,0.9-3.8,0.5-5.3
			c-0.2-0.7-1.3-0.4-1.1,0.3c0.2,0.7,0.3,1.4,0.2,2.1c0,0.4-0.1,0.8-0.2,1.2c-0.1,0.8-0.5,0.6-1-0.7c0.1-1.2,1.7-1.7,2.1-2.7
			c0.5-1.1,0.3-2.9,0.5-4.1c0.3-1.6,0.7-3.1,1.1-4.6C77.9,66.3,76.8,66,76.5,66.7L76.5,66.7z"/>
		<path d="M77.1,66.3c-1.7,0.1-3.2,1.1-4.3,2.4c-0.6,0.7-1.9,2.2-1.1,3.2c1.5,2.1,5.4-3.7,5.9-4.8c-0.3,0.1-0.5,0.1-0.8,0.2
			c0.8,0.4,1.4,1,2,1.7c0.2,0.3,1.3,2.3,0.9,2.3c-0.5,0-1.3-2-1.4-2.3c-0.3-0.8-0.5-1.6-0.7-2.3c-0.2-0.7-1.3-0.4-1.1,0.3
			c0.3,1.1,2.1,7.4,4.2,5.6c0.8-0.7,0.1-2.2-0.2-3c-0.6-1.4-1.7-2.5-3.1-3.3c-0.3-0.1-0.7-0.1-0.8,0.2c-0.4,0.8-0.9,1.5-1.5,2.2
			c-0.4,0.5-1.1,1.6-1.8,1.8c-1.1,0.4,0.2-1,0.6-1.4c0.9-0.9,1.9-1.6,3.1-1.7C77.9,67.4,77.9,66.2,77.1,66.3L77.1,66.3z"/>

		<path d="M83.6,46.7c-8.5,3-14.8,9.8-18.7,17.8c-1,2-1.9,4.1-2.6,6.3c-0.6,1.8-1.7,4.1-1.5,6.1c0.1,1.2,0.5,2.2,0.6,3.4
			c0,0.6-0.1,5.3-1.9,3.7c-0.8-0.7-0.3-2.8,0-3.7c0.5-1.3,1.3-2.5,2.3-3.5c0.5-0.5-0.3-1.4-0.8-0.8c-1.5,1.5-2.8,3.4-3,5.6
			c-0.1,1.4,0.2,3.9,2,4.1c1.8,0.2,2.3-2.1,2.5-3.4c0.2-1.4,0.1-2.8-0.2-4.2c-0.3-1.6-0.1-2.7,0.3-4.3c3.3-11.1,10-22,21.4-26
			C84.6,47.6,84.3,46.4,83.6,46.7L83.6,46.7z"/>

		<path d="M63.4,68c-2,0.3-3.5,0.7-5.1,2c-0.7,0.6-2.8,2.2-2,3.4c0.7,1.1,2.8,0.3,3.7-0.2c1.8-1,3.2-2.6,4.1-4.3
			c0.4-0.7-0.6-1.3-1-0.6c-0.6,1.1-1.4,2.1-2.4,3c-0.5,0.4-1.1,0.8-1.7,1.1c-0.4,0.2-0.8,0.3-1.3,0.3c-0.3-0.1-0.3-0.3,0-0.5
			c0.3-0.9,1.9-1.8,2.7-2.2c1.1-0.6,2.2-0.7,3.3-0.9C64.4,69,64.1,67.9,63.4,68L63.4,68z"/>
		<path d="M63.3,68.6c-1,3.4-0.2,6.6,2.8,8.6c0.4,0.2,0.9-0.1,0.9-0.5c-0.1-1.6,0.1-3.1-0.5-4.7c-0.5-1.4-1.3-2.6-2.3-3.7
			c-0.5-0.5-1.4,0.3-0.8,0.8c1,1,1.7,2.2,2.1,3.6c0.4,1.3,0.2,2.6,0.3,3.9c0.3-0.2,0.6-0.3,0.9-0.5c-2.6-1.7-3.2-4.4-2.3-7.2
			C64.7,68.2,63.5,67.9,63.3,68.6L63.3,68.6z"/>
		<path d="M65.8,62.2c-1.3,0.6-2.6,0.8-4,0.9c-0.8,0-1.8,0-2.6,0.4c-1.2,0.6-1.5,1.9-0.5,2.9c1.2,1.2,2.9,0.7,4.3,0.1
			c1.7-0.7,2.5-2.1,3.6-3.5c0.5-0.6-0.6-1.2-1-0.6c-0.7,0.9-1.3,2-2.2,2.6c-0.5,0.3-1.1,0.6-1.7,0.7c-0.3,0.1-0.6,0.2-0.9,0.2
			c-0.9,0.1-1.1-0.4-0.7-1.5c0.6-0.5,2.7-0.1,3.4-0.2c1-0.1,2-0.5,3-0.9C67.1,62.9,66.5,61.9,65.8,62.2L65.8,62.2z"/>

		<path d="M66.1,62.7c-0.3,1.1,0.1,1.8,0.5,2.8c0.3,0.7,0.7,1.4,1,2.2c0.2,0.4,0.7,1.3,0.2,1.5c-1.1,0.4-1.6-1.8-1.6-2.5
			c0-1.2,0.5-2.5,1-3.6c0.3-0.7-0.7-1.3-1-0.6C65,65,64,68.7,66.9,70.3c0.9,0.5,2.1,0.6,2.3-0.7c0.1-0.9-0.4-2-0.7-2.7
			c-0.4-1.1-1.6-2.7-1.3-3.9C67.4,62.3,66.3,62,66.1,62.7L66.1,62.7z"/>

		<path d="M70.2,57.1c0.2,0.9,0.3,1.9,0.5,2.8c0.1,0.6,0.7,2.3,0.4,2.8c-0.4,0.1-0.7,0.2-1.1,0.2c-0.2-0.3-0.3-0.7-0.3-1
			c-0.1-0.6,0-1.1,0.1-1.7c0.3-1,0.9-2,1.4-3c0.4-0.7-0.7-1.3-1-0.6c-0.8,1.6-1.9,3.2-1.8,5.1c0.1,1.2,0.7,2.8,2.1,3
			c3.2,0.5,1-6.7,0.8-8C71.2,56.1,70,56.4,70.2,57.1L70.2,57.1z"/>
		<path d="M70.3,55.9c-2.2-0.1-4.4-0.2-6.5,0.5c-1,0.4-3.1,1.2-2.6,2.6c0.4,1.3,2.4,0.9,3.4,0.8c2.2-0.4,4.1-1.6,6-2.8
			c0.6-0.4,0.1-1.4-0.6-1c-1,0.6-1.9,1.2-2.9,1.7c-0.7,0.4-3.7,1.8-4.3,0.8c-0.4-0.8,2.8-1.3,3.5-1.4c1.3-0.2,2.7-0.1,4,0
			C71,57.1,71,56,70.3,55.9L70.3,55.9z"/>
		<path d="M76.5,50.2c-1.9,0.1-3.9-0.7-5.7,0c-1,0.4-2,1.5-1.3,2.6c1.5,2.6,5.8-0.7,7.4-1.5c0.7-0.3,0.1-1.4-0.6-1
			c-0.7,0.4-1.4,0.8-2.1,1.2c-0.6,0.4-1.9,1.2-2.6,1.1c-0.3,0.1-0.5-0.1-0.6-0.4c-0.5-0.5-0.3-0.8,0.5-0.8c0.5-0.2,1-0.2,1.6-0.1
			c1.2,0.1,2.3,0.3,3.4,0.3C77.2,51.4,77.2,50.2,76.5,50.2L76.5,50.2z"/>
		<path d="M76.3,51c-0.3,1.3-0.2,2.5-0.1,3.8c0,0.8,0.1,1.6-0.2,2.4c0,0.8-0.4,1-1.2,0.6c0-0.2,0-0.5,0.1-0.7c0.3-2,1.3-4,2.5-5.6
			c0.4-0.6-0.6-1.2-1-0.6c-1,1.4-1.7,2.9-2.2,4.5c-0.3,1-1,2.9-0.1,3.8c1,1,2.3,0.1,2.8-1c1-2.1,0-4.6,0.5-6.9
			C77.6,50.5,76.5,50.2,76.3,51L76.3,51z"/>
		<path d="M83.3,46.9c-1.3,1.4-2.8,2.6-3.6,4.4c-0.5,1.1-0.7,2.7,0.5,3.4c1,0.6,1.9-0.2,2.4-1c1.3-1.8,1.6-4.2,1.7-6.3
			c0-0.8-1.2-0.8-1.2,0c0,1.4-0.3,2.9-0.8,4.2c-0.2,0.6-1.2,3-1.8,1.7c-0.5-1,0.8-2.5,1.4-3.3c0.7-0.8,1.5-1.5,2.2-2.3
			C84.6,47.1,83.8,46.3,83.3,46.9L83.3,46.9z"/>
		<path d="M91.1,44.6c-1.5,1.2-3.1,2.7-4,4.5c-0.5,1.2-0.9,3.1,0.6,3.7c1.5,0.6,2.3-1,2.7-2.2c0.5-1.8,1.1-3.6,1.7-5.4
			c0.2-0.7-0.9-1-1.1-0.3c-0.3,0.9-0.6,1.8-0.9,2.7c-0.3,0.9-0.4,2.1-0.8,2.9c-0.1,0.6-0.5,0.6-1.3-0.1c0.1-0.4,0.3-0.7,0.4-1.1
			c0.3-0.6,0.7-1.1,1.1-1.5c0.7-0.9,1.6-1.6,2.5-2.3C92.6,44.9,91.7,44.1,91.1,44.6L91.1,44.6z"/>
		<path d="M69.2,48.3c-1.4,0.1-8.5,3.2-5.4,5.1c1.2,0.7,2.8,0.3,3.9-0.4c1.2-0.9,1.8-2.4,2.1-3.9c0.2-0.7-1-1.1-1.1-0.3
			c-0.4,1.7-1.2,3.7-3.2,3.8c-0.2,0-0.5,0-0.7-0.1c-0.5-0.4-0.4-0.7,0.2-0.9c0.4-0.3,0.8-0.5,1.2-0.8c1-0.6,2-1.3,3.1-1.4
			C69.9,49.4,70,48.2,69.2,48.3L69.2,48.3z"/>
		<path d="M61,48c-1.6,0.3-3.2,0.9-4.2,2.1c-0.7,0.9-1.5,2.6-0.1,3.3c1.1,0.5,2.4-0.2,3.2-1.1c0.9-1,1.5-2.4,1.9-3.7
			c0.2-0.7-0.9-1-1.1-0.3c-0.4,1.4-1.1,3.4-2.6,3.9c-0.1,0.1-0.4,0.2-0.6,0.1c-0.7-0.2-0.2-0.9-0.1-1.2c0.3-0.4,0.6-0.8,1-1.1
			c0.9-0.6,1.9-0.9,2.9-1.1C62.1,49,61.8,47.8,61,48L61,48z"/>
		<path d="M51,46.6c-1.3,0.3-2.7,0.7-3.8,1.6c-0.7,0.6-1.8,1.8-0.6,2.6c0.9,0.6,2.4,0.1,3.2-0.5c1-0.7,1.6-1.8,2-3
			c0.2-0.7-0.9-1-1.1-0.3c-0.2,0.7-0.5,1.4-1,1.9c-0.3,0.4-1.4,1.2-2,1c-0.7-0.3,1.1-1.3,1.4-1.4c0.7-0.3,1.5-0.5,2.3-0.7
			C52.1,47.5,51.7,46.4,51,46.6L51,46.6z"/>
		<path d="M40.8,43.8c-1.6,0-3.4,0.1-4.9,0.7c-0.8,0.3-3,1.7-2.6,2.9c0.4,1.2,3.3,0.4,4.2,0.2c1.6-0.4,3.1-1.3,3.8-2.9
			c0.3-0.7-0.7-1.3-1-0.6c-0.5,1.2-1.4,1.9-2.6,2.2c-0.5,0.2-3,0.8-3.3,0.4c0.1,0.2,0.1,0.4,0.2,0.6c0.6-2.3,4.5-2.3,6.3-2.3
			C41.6,45,41.6,43.8,40.8,43.8L40.8,43.8z"/>
		<path d="M34.1,41.2c-1.3-0.3-2.7-0.3-3.9,0.2c-0.7,0.3-2.5,1.1-2.1,2.2c0.4,1,2.4,0.9,3.2,0.7c1.3-0.3,2.4-1.1,3.1-2.2
			c0.4-0.6-0.6-1.2-1-0.6c-0.8,1.3-3,2.4-4.5,1.4c0.1,0.2,0.2,0.3,0.3,0.5c0-0.6,1.6-1.1,2.1-1.2c0.8-0.2,1.6-0.1,2.4,0.1
			C34.5,42.5,34.8,41.4,34.1,41.2L34.1,41.2z"/>
		<path d="M25.8,36.9c-0.8-1-5.2-6.7-6.4-3.3c-0.4,1.2,0.5,2.6,1.5,3.2c1.3,0.9,2.9,1,4.5,1.1c0.8,0,0.8-1.1,0-1.2
			c-1,0-2.1-0.1-3-0.5c-0.6-0.2-1.9-1-1.8-1.7c0.2-1.5,2.1,0.6,2.4,1c0.7,0.7,1.4,1.5,2,2.2C25.5,38.3,26.3,37.4,25.8,36.9
			L25.8,36.9z"/>
		<path d="M34.3,41.4c-1.1-1.3-2.9-2-2.9-3.9c-0.1-0.6,0.2-0.8,0.9-0.6c0.1,0.1,0.1,0.2,0.2,0.3c0.4,0.4,0.5,1.1,0.6,1.6
			c0.2,1,0.2,2,0.1,2.9c-0.1,0.8,1.1,0.8,1.2,0c0.1-1.6,0-3.3-0.7-4.8c-0.5-1-1.5-2.3-2.7-1.5c-1.1,0.8-0.9,2.6-0.4,3.6
			c0.6,1.3,1.9,2,2.8,3.1C34,42.8,34.8,41.9,34.3,41.4L34.3,41.4z"/>
		<path d="M41.3,44c-0.5-0.5-1.1-0.8-1.7-1.2c-0.8-0.5-1.9-1.8-1.6-2.8c0.5-1.7,1.7,1,1.9,1.6c0.3,1,0.4,1.9,0.4,2.9
			c-0.1,0.8,1.1,0.8,1.2,0c0.1-1.7-0.3-3.4-1.2-4.9c-0.6-0.9-1.6-2.3-2.8-1.4c-1,0.8-0.7,2.5-0.3,3.5c0.7,1.6,2.1,2,3.3,3.1
			C41,45.3,41.8,44.5,41.3,44L41.3,44z"/>
		<path d="M51.5,46.6c-0.6-0.3-1.2-0.7-1.7-1.1c-0.6-0.4-1.6-1.1-1.7-1.8c-0.2-0.3-0.1-0.4,0.3-0.5c0.2-0.3,0.4-0.4,0.5-0.2
			c0.2,0.1,0.4,0.3,0.5,0.5c0.3,0.4,0.4,0.8,0.6,1.2c0.3,0.8,0.5,1.7,0.7,2.6c0.1,0.7,1.3,0.4,1.1-0.3c-0.3-1.4-0.6-3.1-1.5-4.2
			c-0.7-0.9-2.1-1.6-3.1-0.6c-0.9,0.9-0.2,2.3,0.5,3.2c0.9,1,2.1,1.7,3.3,2.4C51.5,48,52.1,47,51.5,46.6L51.5,46.6z"/>

		<path d="M61.6,48.1c-1.1-0.9-3.8-1.3-4-2.9c-0.1-0.7,0.7-0.8,1.2-0.4c0.4,0.3,0.7,0.7,1,1.1c0.6,0.8,0.9,1.7,0.8,2.7
			c-0.1,0.8,1.1,0.8,1.2,0c0.1-1.4-0.5-2.8-1.4-3.8c-0.8-0.9-2.1-2-3.3-1.2c-1,0.7-0.8,2.2-0.2,3c1,1.3,2.6,1.4,3.8,2.4
			C61.3,49.4,62.2,48.6,61.6,48.1L61.6,48.1z"/>
		<path d="M69.4,48.3c-1-0.4-2.1-1-3-1.7c-0.4-0.3-0.9-0.8-0.8-1.3c0.2-1.1,1.3-0.3,1.7,0.1c0.8,0.8,1.4,2.4,1.3,3.5
			c0,0.8,1.1,0.8,1.2,0c0.1-2-1.5-5.7-3.9-5.3c-1.4,0.2-1.8,1.8-1.1,2.9c0.8,1.5,2.8,2.3,4.3,2.9C69.7,49.7,70.1,48.6,69.4,48.3
			L69.4,48.3z"/>
		<path d="M84,46.8c-0.9-0.6-2-1.2-2.8-1.9c-0.3-0.3-0.8-0.9-0.1-1c0.3-0.1,0.7,0.1,0.9,0.3c0.7,1,0.2,2.7,1.2,3.5
			c0.6,0.5,1.4-0.3,0.8-0.8c-0.4-0.3-0.4-1-0.5-1.5c-0.1-0.5-0.2-1-0.4-1.5c-0.4-0.9-1.3-1.4-2.3-1.2c-1.1,0.2-1.6,1.2-1.1,2.2
			c0.3,0.6,0.8,1,1.3,1.4c0.7,0.5,1.5,1,2.3,1.5C84,48.2,84.6,47.2,84,46.8L84,46.8z"/>
		<path d="M91.7,44.4c-1.4-0.5-3-0.3-4.3-0.9c-0.1-0.1-0.3-0.1-0.4-0.2c-0.4-0.7,0.3-0.6,0.6-0.6c0.5,0,1.1,0.2,1.6,0.5
			c0.9,0.5,1.2,1.7,2.1,2.3c0.6,0.4,1.2-0.6,0.6-1c-0.7-0.5-0.9-1.4-1.6-2c-0.5-0.4-1.2-0.7-1.9-0.9c-1-0.2-2.9-0.3-2.9,1.2
			c0.1,2.5,4.3,2.1,5.9,2.7C92.1,45.8,92.4,44.7,91.7,44.4L91.7,44.4z"/>
		<path d="M25,37.7C39.9,47.1,59.1,50.9,76.5,49c5.2-0.6,10.3-1.7,15.2-3.5c0.7-0.3,0.4-1.4-0.3-1.1c-17,6.2-36.6,4.7-53.3-1.6
			c-4.4-1.6-8.6-3.7-12.5-6.1C24.9,36.3,24.4,37.3,25,37.7L25,37.7z"/>
</svg>
