<?xml version="1.0" encoding="utf-8"?>
<!-- Generator: Adobe Illustrator 19.0.1, SVG Export Plug-In . SVG Version: 6.00 Build 0)  -->
<svg version="1.1" fill="#ffffff" xmlns="http://www.w3.org/2000/svg" xmlns:xlink="http://www.w3.org/1999/xlink" x="0px"
	 y="0px" viewBox="0 0 174 142.6" style="enable-background:new 0 0 174 142.6;" xml:space="preserve">

	<path d="M134.5,1.5c-0.6-0.8-1.4-1.3-2.3-1.4c-2.1-0.3-4.7,1-5.2,3.4c-0.1,0.5-0.2,0.9-0.3,1.4c-2.8-0.2-5.4,0.2-7.8,1.2
		c-8.8,3.5-15.3,16.9-13.4,27.3c-1.5-0.1-2.9-0.2-4.4-0.2c-0.1,0-0.3,0-0.4,0.1c0,0-0.1,0.1-0.2,0.2c-0.6-1-1.6-1.7-2.9-1.9
		c-5.6-1-16.9,5.8-25.8,15.5c0,0-0.1,0.1-0.1,0.1c0.5-1.6,0.6-3.4,0.8-4.7c0.6-5.3-0.6-13.6-6.6-15.3c-2.4-0.7-5.1,0.7-6,3
		c-0.9,2.4,0.1,5,0.4,7.5c-2.2-0.7-4.7-0.4-6.8,0.5c-1.9,0.9-4.1,2.7-3.9,5c0.4,4.3,6.9,6.3,10.3,7.2c2.6,0.7,6.1,1.3,8.8,0.3
		c-6.5,8.7-11.8,21-10.1,27.9c0.6,2.5,2,4.2,4.2,5.1c-0.1,0.5-0.1,0.8-0.1,0.8c0,0.1,0,0.2,0,0.2c2,7.1,5.7,14.3,10.7,21.1
		c-3.7,1.6-8.2,0.3-11.8-0.8c-0.6-0.2-1.2-0.4-1.8-0.5c-1.9-0.5-3.8-1.1-5.7-1.7c-4.4-1.4-9-2.9-13.8-3.2c-6.7-0.4-14,1.3-21.1,5
		c-0.5,0.3-0.9,0.5-1.3,0.7c-2.2,1.1-3.2,1.7-8.6,5.4c-1.2,0.8-3,2.3-4.8,3.7c-1.8,1.4-3.5,2.7-4.5,3.4C0,117.9,0,118.1,0,118.4
		c0.1,0.2,0.3,0.4,0.5,0.4c0,0,6.8,0.4,8.9,0.5c-0.1,0.9-0.3,1.8-0.4,2.6c-0.4,2.5-0.8,5-1.1,7.5c0,0.3,0.1,0.5,0.4,0.6
		c0.3,0.1,0.6,0,0.7-0.3c3.6-5.9,11-16,20.1-17.9c9.6-2,17.3,3.7,24.8,9.2c1.1,0.8,2.2,1.6,3.2,2.3c1.5,1.1,3,2.3,4.4,3.5
		c2.9,2.4,5.9,4.8,9.4,6.3c8.2,3.5,16.6,1.6,23.1-5.2c0.6-0.7,1.3-1.4,1.9-2.2c5.5,2.9,11.7,5.5,17.1,7.7c2.3,1,4.5,1.9,6.4,2.7
		c-1.4,0.8-2.8,1.6-4.3,2.2c-0.1,0-0.1,0-0.2,0c-0.9-0.1-1.9,0-2.8,0.1c-0.9,0.1-2.3,0.2-2.8,1.1c-0.6,1.1,0.6,2,1.6,2.1
		c1.5,0.1,2.8-0.7,4.3-1c0.5-0.1,0.8-0.6,0.7-1c1.4-0.6,2.7-1.3,4-2.1c-0.4,1.5-0.5,3.1,0.1,4.5c0.2,0.4,0.8,0.4,1.1,0.2
		c1.2-0.9,1.8-2.5,1.8-4.1c1.6,1.4,2.1,2.9,2.2,3c0.1,0.2,0.2,0.3,0.4,0.4c0.4,0.1,10,2.4,24.9-13.1c0.5-0.5,1-1.1,1.5-1.7
		c15.3-17,16.1-26.1,16.1-26.4c0-0.3-0.1-0.5-0.4-0.6c0,0-3.3-1.3-4.6-5.3c-0.7-2.2-1.4-4.7-2.2-7.3c-1.2-4-2.4-8.4-3.9-12.8
		c0.9,1.2,2,2.3,3.1,3.1c4.1,3.1,7.9,2.8,11.4-0.9c0,0,0,0,0,0c3-3.2,3.2-8.2,2.1-11.6c-0.8-2.6-2.7-4.5-5-4.9
		c-2-0.4-3.9,0.4-5.5,2.1c-1.2,1.4-1.5,3.2-0.8,4.7c0.7,1.4,2,2.2,3.3,2.4c0,0.1,0,0.3,0,0.4l0,0.3c0,0.1,0,0.3,0,0.3
		c0,0,0,0.1,0,0.1c-0.3-0.1-0.5-0.2-0.9-0.4c-3.5-1.7-6.9-5.1-6.8-9c0.1-3.8,1.1-9.7,2.9-17.4c1.4-5.9,1.4-15.3-13.8-29.2
		c-3.7-3.4-8-6.2-12.2-7.9c0.2-0.6,0.3-1.1,0.5-1.7C135.4,3.8,135.2,2.4,134.5,1.5z M59.8,48.6c-2-0.5-3.9-1.3-5.6-2.3
		c-1.9-1.1-4.1-3.1-2.2-5.3c2.1-2.4,6.3-2.8,8.9-1.4c0.8,0.4,1.5-0.7,1-1.2c-0.1-2-0.8-4-0.9-6c-0.1-3.6,3.5-4.9,6.1-2.8
		c2.3,1.9,3.4,4.9,3.8,7.8c0.2,1.7,0.2,3.4,0,5.1c-0.2,1.5-0.4,3.7-1.1,5.1C68.3,50.9,62.5,49.4,59.8,48.6z M59.9,78.3
		c-1.8-7.4,5.2-22.2,12.8-30.4c8.5-9.3,19.5-16,24.7-15.1c1,0.2,1.8,0.7,2.2,1.5c-2.7,2.3-10,8.9-20.2,21.4c-8,9.8-12,17.1-14,21.5
		c-1.1,2.4-1.7,4.2-2.1,5.4C61.5,81.7,60.4,80.3,59.9,78.3z M71.5,132.1c-3.4-1.4-6.3-3.8-9.1-6.2c-1.5-1.2-3-2.4-4.5-3.5
		c-1.1-0.8-2.2-1.6-3.2-2.3c-7.7-5.6-15.6-11.5-25.7-9.4c-4.7,1-11.9,4.6-19.5,16.2c0.2-1.6,0.5-3.2,0.8-4.8
		c0.2-1.1,0.4-2.2,0.5-3.3c0-0.1,0-0.2,0-0.3c-0.1-0.4-0.1-0.4-2-0.5l-6.5-0.4c0.9-0.7,2-1.5,3.2-2.4c1.8-1.4,3.6-2.8,4.8-3.6
		c5.2-3.7,6.2-4.2,8.4-5.3c0.4-0.2,0.8-0.4,1.3-0.7c6.9-3.6,13.9-5.3,20.4-4.9c4.6,0.3,9.1,1.7,13.5,3.1c1.9,0.6,3.8,1.2,5.7,1.7
		c0.6,0.2,1.1,0.3,1.8,0.5c3.7,1.1,8.7,2.6,12.9,0.6c3,3.9,6.4,7.7,10.2,11.4c2.7,2.6,6.4,5,10.4,7.2
		C88.7,133.2,80,135.7,71.5,132.1z M121.1,139.8c0-0.4,0.1-0.9,0.2-1.3C121.3,139,121.2,139.4,121.1,139.8z M159.6,87.6
		c0.8,2.6,1.5,5.1,2.2,7.3c1.2,3.7,3.9,5.4,4.9,5.9c-0.3,1.9-2.5,10.6-15.7,25.3c-7.9,8.8-14.4,12.2-18.4,13.6
		c-3.5,1.2-5.8,1-6.6,0.9c-0.3-0.7-1.3-2.5-3.3-3.9c0-0.1,0-0.2-0.1-0.2c0-0.1-0.1-0.1-0.1-0.2c1.7-1.1,3.3-2.2,4.8-3.4
		c-0.5,2.4-1.1,5.8,0.9,5.7c2.3-0.1,2.1-6.2,1.6-7.6c0,0,0,0,0-0.1c1.8-1.5,3.6-3,5.3-4.6c-0.2,1.3-0.1,2.7,0.3,3.9
		c0.2,0.5,0.7,0.7,1.1,0.4c2.2-1.5,1.2-4.8,1.6-7.1c0,0,0,0,0,0c0,0,0,0,0.1-0.1c1.1-1.1,2.3-2.2,3.5-3.3c-0.4,1.5-0.5,3.1,0.1,4.4
		c0.2,0.5,0.7,0.7,1.1,0.4c1.9-1.2,2.6-5.5,1.3-7.3c1.1-1.1,2.2-2.1,3.3-3.2c-0.1,1,0,2,0.5,2.8c0.3,0.4,0.9,0.5,1.2,0.1
		c1.4-1.4,1.8-4.3,1.4-6.2c0.5-0.5,1-1.1,1.4-1.6c0,0.7,0.2,1.4,0.5,2c0.2,0.4,0.7,0.4,1.1,0.2c1.5-0.8,1.2-3.4,1-4.8
		c0-0.2-0.1-0.3-0.2-0.4c0.7-0.9,1.3-1.7,1.9-2.6c0.1,0.7,0.2,1.3,0.4,1.9c0.2,0.6,0.8,0.7,1.3,0.3c1.5-1.3,0.8-3.8,0.7-5.5
		c0-0.1,0-0.2-0.1-0.3c0-0.3-0.2-0.5-0.5-0.6c-0.2-0.1-0.5-0.2-0.7-0.1c-0.1,0-0.2,0-0.3,0c-0.1,0-0.2,0.1-0.3,0.1
		c-1.1-0.2-2.2,0.2-3.2,0.6c-0.5,0.2-0.8,0.7-0.5,1.2c0.6,1.1,1.7,0.9,2.7,0.4c-0.7,1.1-1.5,2.2-2.2,3.2c-1.6-0.5-4-0.7-5.1,0.6
		c-0.4,0.5-0.3,1.1,0.3,1.3c1,0.3,2.1,0.3,3.1,0.2c-0.7,0.9-1.4,1.7-2.1,2.5c0,0-0.1,0-0.1,0c-1.9-0.4-4-0.6-5.9,0.2
		c-0.4,0.2-0.7,0.6-0.6,1c0.6,2,2.7,1.4,4.4,1.1c-1.4,1.5-2.9,3-4.4,4.5c0,0,0,0-0.1,0c-2.4-0.1-4.9-1.6-7.2-0.2
		c-0.4,0.2-0.5,0.7-0.3,1.1c0.8,1.5,2.8,1.9,4.7,1.9c-0.9,0.9-1.9,1.8-2.8,2.7c-0.3,0.3-0.5,0.5-0.8,0.7c-1.5-0.8-6.5-1.9-6.9,0.2
		c-0.3,1.7,2.3,2,4.5,2c-1.8,1.6-3.6,3.2-5.4,4.8c-1.3-1.6-3.6-2.2-5.6-2.2c-0.4,0-0.9,0.6-0.8,1c0.7,1.8,2.3,2.6,4.1,3
		c-1.6,1.2-3.3,2.4-5,3.5c-1.1-1-4.1-3.8-5.5-2.2c-0.3,0.3-0.4,0.6-0.5,0.9c-0.8-0.3-1.6-0.7-2.4-1c-5.2-2.2-11.6-4.8-17.3-7.9
		c0,0,0,0,0,0c-0.1,0-0.1-0.1-0.2-0.1c-4.2-2.2-7.9-4.7-10.7-7.3c-10.7-10.2-18-21.5-21.3-32.8c0.2-1.1,2.1-10.7,16.3-28.1
		c11.9-14.6,19.8-21.1,20.9-22c14.3-0.1,29.4,6.6,42.4,19.1C151.9,61.3,156.2,75.9,159.6,87.6z M125.2,129.1
		c0.6,0.1,1.2,0.4,1.7,0.7C126.4,129.7,125.7,129.5,125.2,129.1z M137.9,117.2c1.1-0.2,2.3,0.2,3.5,0.4
		C140.1,117.7,138.8,117.7,137.9,117.2z M143.3,119.9c0,0.7-0.1,1.6-0.4,2.4C143,121.5,143.1,120.7,143.3,119.9z M144.5,52.5
		c-9.4-9-19.8-15-30.3-17.7c-2.8-4.3-3-9.3-0.5-13.9c2.4-4.5,6.9-7.5,11.2-7.6c3.6,0,7.8,1.6,12.5,4.9c4.5,3.2,8.4,7.6,11.3,12.7
		c2.7,5,4.3,10.5,4.6,15.8c0.1,2.8-0.1,5.5-0.4,8.3c-0.2,2.3-0.5,4.6-0.5,7c0,0.6,0,1.3,0.1,1.9C150.2,59.4,147.6,55.5,144.5,52.5z
		 M134,4.8c-0.1,0.6-0.3,1.1-0.5,1.7l-0.1,0.4c-0.1,0.3,0.1,0.6,0.3,0.7c4.1,1.6,8.5,4.4,12.3,7.9c7.1,6.5,16.2,16.5,13.4,28.1
		c-1.8,7.9-2.8,13.6-2.9,17.6c-0.1,4.4,3.6,8.2,7.4,10.1c0.5,0.2,0.8,0.3,1.3,0.5c0.1,0,0.3,0.1,0.5,0.1c0.2,0,0.5-0.1,0.6-0.3
		c0,0,0-0.1,0.1-0.1l0.1-0.2c0-0.2,0.1-0.3,0.1-0.5c0,0,0,0,0-0.1c0-0.2,0-0.4,0-0.5l0-0.3c0-0.3,0-0.6,0-0.9c0-0.1,0-0.2,0-0.2
		c-0.1-0.3-0.3-0.5-0.6-0.5c-1.1,0.1-2.3-0.6-2.8-1.7c-0.5-1.1-0.3-2.4,0.6-3.4c1.3-1.5,2.8-2.1,4.4-1.8c1.8,0.4,3.4,1.9,4.1,4.1
		c1,3,0.8,7.6-1.8,10.4c0,0,0,0,0,0c-3.1,3.2-6.3,3.4-9.8,0.7c-4-3-7.1-9.5-7.1-14.8c0-2.3,0.2-4.6,0.5-6.8c0.3-2.7,0.6-5.6,0.4-8.4
		c-0.3-5.5-1.9-11.1-4.8-16.3c-2.9-5.3-6.9-9.9-11.6-13.1c-4.9-3.4-9.3-5.1-13.2-5.1c-4.7,0-9.6,3.3-12.2,8.2
		c-2.5,4.6-2.5,9.6-0.1,14c-2-0.4-3.9-0.8-5.9-1c-1.9-9.8,4.3-22.9,12.6-26.3c2.4-1,5-1.3,7.8-1.1c0.3,0,0.5-0.2,0.6-0.4
		c0.2-0.6,0.4-1.3,0.5-1.9c0.3-1.7,2.3-2.7,3.8-2.4c0.7,0.1,1.2,0.4,1.5,1C134,2.9,134.2,3.9,134,4.8z"/>
	<path d="M74.6,39.6c0,0.1,0.1,0.3,0.2,0.3c0,0.2,0.2,0.3,0.3,0.4c0.2,0.6,1.3,0.6,1.5-0.2c0.1-0.3,0.2-0.5,0.3-0.8
		c0.1-0.1,0.1-0.2,0.2-0.2c1.9-1.2,3.8-2.4,5.4-3.8c1-0.9,3.2-3.1,2.4-4.7c-0.7-1.5-2.8-0.3-3.7,0.4c-0.9,0.7-1.6,1.6-2.3,2.5
		c0.1-0.3,0.1-0.6,0.2-0.8c0.4-2.5,0.4-5,0.2-7.4c-0.1-0.6-0.1-1.2-0.2-1.8c0.2-0.1,0.3-0.3,0.4-0.6c1.4-2.2,3.2-4.1,4-6.6
		c0.4-1.3,0.7-4.6-1.5-4.5c-1.7,0.1-2.5,2.9-2.9,4.2c-0.3,1-0.6,2.2-0.9,3.3c-0.8-2.9-1.9-5.7-3.4-8.3c0-0.1,0-0.2-0.1-0.3
		c-0.9-1.7-0.6-3.8-1.3-5.7c-0.7-1.9-2.7-3.2-4.8-3c-1.8,0.2-2.2,1.9-1.6,3.4c1,2.4,3.4,4.2,5.5,5.4c0.1,0.1,0.2,0.1,0.4,0.1
		c0,0.1,0,0.2,0.1,0.4c1.3,2.1,2.4,4.3,3.1,6.7c-1.9-2.1-4.6-4.1-6.3-2.5c-1.4,1.3,0.1,3.3,1,4.4c0.7,0.8,1.5,1.5,2.4,2
		c1.3,0.7,2.8,0.9,4.2,1.5c0.1,0.8,0.2,1.5,0.3,2.3c0.2,2.4,0.2,5-0.3,7.4c0.1-2.5-0.5-4.8-2.3-5.7c-0.4-0.2-0.9,0-1.1,0.4
		c-1.5,3.3-0.9,8.1,0.4,11.5C74.6,39.2,74.6,39.3,74.6,39.6z M80.1,18.5c0.2-1,0.7-4.4,1.7-4.9c0.6-0.3,0.6,1,0.5,1.6
		c-0.2,1-0.7,2-1.3,2.8c-0.4,0.7-0.8,1.3-1.2,1.9C79.8,19.4,80,18.9,80.1,18.5z M69.3,5.9c-0.5-0.7-1.7-2.2-0.1-2.4
		c0.9-0.1,2,0.7,2.4,1.4c0.8,1.1,0.9,2.6,1.1,4C71.4,8.1,70.2,7.1,69.3,5.9z M73.3,19.7c-0.6-0.5-2.8-2.4-2.1-3.1
		c1-1,4.4,2.9,5.6,4.6C75.5,20.8,74.3,20.5,73.3,19.7z M81.5,32.7c0.4-0.5,2.6-2,1.5-0.2c-0.9,1.5-2.3,2.6-3.9,3.7
		c0.1-0.2,0.2-0.4,0.4-0.6C80.1,34.5,80.7,33.5,81.5,32.7z M75.2,29.2c0.9,1.2,0.7,3.6,0.6,4.8c-0.1,0.9-0.1,1.8-0.3,2.7
		C74.8,34.4,74.5,31.5,75.2,29.2z"/>
			<path d="M85.7,101c1.7,1.3,3.4,2.6,5.1,3.9c0.8,0.6,1.8-0.5,1.1-1.1c-1.7-1.3-3.4-2.6-5.1-3.9C86,99.3,84.9,100.4,85.7,101
				L85.7,101z"/>
			<path d="M98.1,87.7c1.7,1.2,3.1,2.6,4.4,4.2c0.6,0.8,1.7-0.3,1.1-1.1c-1.4-1.7-3-3.2-4.7-4.5C98.1,85.8,97.3,87.2,98.1,87.7
				L98.1,87.7z"/>
			<path d="M88.1,101.8c4.5-3.8,8.6-8,12.2-12.6c0.6-0.8-0.5-1.8-1.1-1.1c-3.6,4.6-7.7,8.8-12.2,12.6
				C86.3,101.3,87.4,102.4,88.1,101.8L88.1,101.8z"/>
			<path d="M93,97.5c5.7,4.3,10.8,10.4,17.3,13.4c0.9,0.4,1.7-0.9,0.8-1.3c-3.6-1.7-6.4-4.4-9.3-7c-2.6-2.3-5.3-4.4-8-6.5
				C93,95.6,92.2,96.9,93,97.5L93,97.5z"/>
			<path d="M94.7,95.1c5.2,5,11.1,9.1,17.7,12.2c0.9,0.4,1.7-0.9,0.8-1.3c-6.5-3-12.3-7-17.4-11.9C95,93.3,94,94.4,94.7,95.1
				L94.7,95.1z"/>
			<path d="M109.7,112.7c2.2-2.2,3.8-4.8,4.9-7.6c0.4-0.9-1.1-1.3-1.5-0.4c-1.1,2.6-2.5,4.9-4.5,6.9
				C108,112.3,109.1,113.4,109.7,112.7L109.7,112.7z"/>
			<path d="M106.9,88.9c2.4-3,5.1-5.8,7.8-8.5c0.7-0.7-0.4-1.8-1.1-1.1c-2.8,2.7-5.4,5.5-7.8,8.5C105.3,88.6,106.3,89.7,106.9,88.9
				L106.9,88.9z"/>
			<path d="M107.6,87.5c4,2.5,7.7,5.3,11.2,8.4c0.7,0.7,1.8-0.4,1.1-1.1c-3.6-3.2-7.4-6.1-11.5-8.7
				C107.5,85.6,106.7,86.9,107.6,87.5L107.6,87.5z"/>
			<path d="M109,85.6c3.8,2.8,7.5,5.7,11.1,8.7c0.7,0.6,1.8-0.4,1.1-1.1c-3.7-3.1-7.5-6.1-11.4-9C109,83.8,108.2,85.1,109,85.6
				L109,85.6z"/>
			<path d="M118.8,97.4c3.2-2.5,5.8-5.6,7.7-9.1c0.5-0.9-0.8-1.6-1.3-0.8c-1.9,3.4-4.4,6.4-7.5,8.8C116.9,96.9,118,98,118.8,97.4
				L118.8,97.4z"/>
			<path d="M123.9,86.7c0.7,0.4,1.3,0.9,2,1.3c0.8,0.5,1.6-0.8,0.8-1.3c-0.7-0.4-1.3-0.9-2-1.3C123.9,84.9,123.1,86.2,123.9,86.7
				L123.9,86.7z"/>
			<path d="M116,89.8c0.9-0.9,1.8-1.9,2.6-2.9c0.6-0.8-0.5-1.8-1.1-1.1c-0.8,1-1.7,2-2.6,2.9C114.2,89.4,115.3,90.5,116,89.8
				L116,89.8z"/>
			<path d="M113,79.6c1,0.8,2,1.6,3,2.4c0.8,0.6,1.8-0.5,1.1-1.1c-1-0.8-2-1.6-3-2.4C113.3,78,112.2,79,113,79.6L113,79.6z"/>

			<path d="M119.3,74.4c-0.4,0.9-1.1-2.1-1.1-2.2c0.1-1.6,0.9-3,2.3-3.7c3.3-1.9,5.1,0.7,7.1,2.6c2.1,2,5.5,4.7,8.5,5
				c3.8,0.4,6.3-4.8,2.1-6.3c-0.9-0.3-1.3,1.1-0.4,1.5c2,0.7,0.9,2.3,0,2.9c-1,0.6-1.9,0.4-2.9,0c-1.4-0.6-2.8-1.6-4-2.4
				c-2.1-1.5-3.8-4.2-6.3-5.1c-3.9-1.4-8.1,1.8-8,5.8c0,1.9,1.8,5.3,4.1,3.3c2.2-2-1.4-5.3-2.8-2.2C117.7,74.5,119,75.3,119.3,74.4
				L119.3,74.4z"/>
			<path d="M129.6,71.2c-3.9,1.4-8,7.6-3.7,11c2,1.6,5.3,1,7.3-0.3c2.2-1.5,3.3-3.9,3.3-6.5c0-1-1.5-1-1.5,0c0,1.9-0.7,3.6-2.1,4.8
				c-1.4,1.1-4,2.1-5.7,1c-3.7-2.4,0.2-7.6,3-8.5C130.9,72.3,130.5,70.8,129.6,71.2L129.6,71.2z"/>

			<path d="M124.9,78.4c2.3,1.6,4.7,2.8,7.4,3.5c0.9,0.2,1.4-1.2,0.4-1.5c-2.6-0.7-4.8-1.9-7-3.4C124.8,76.6,124,77.9,124.9,78.4
				L124.9,78.4z"/>

</svg>
