<?xml version="1.0" encoding="utf-8"?>
<!-- Generator: Adobe Illustrator 19.0.1, SVG Export Plug-In . SVG Version: 6.00 Build 0)  -->
<svg version="1.1" fill="#fff" xmlns="http://www.w3.org/2000/svg" xmlns:xlink="http://www.w3.org/1999/xlink" x="0px"
	 y="0px" viewBox="0 0 128 98" style="enable-background:new 0 0 128 98;" xml:space="preserve">
<g>
	<g>
		<g>
			<path d="M40.5,89.8c31.1-12.9,60.4-29.7,87.2-50.1c0.6-0.5,0.3-1.6-0.6-1.3C107.3,43.7,87.6,49.1,68,55.2
				c-4.7,1.5-9.4,3-14.1,4.5c-2.5,0.8-5,1.7-7.5,2.6c-1.4,0.5-3.5,0.9-4.6,2c-0.8,0.7-1.1,1.6-1.3,2.6c-0.5,2.4-0.6,5-0.8,7.5
				c-0.6,5.2-1.1,10.3-1.7,15.5c-0.1,0.9,1.4,0.9,1.5,0c0.5-4.6,1-9.2,1.5-13.8c0.2-2.2,0.5-4.4,0.7-6.6c0.2-1.9,0.6-3.7,2.3-4.7
				c1-0.6,2.3-0.8,3.3-1.2c8.8-3.1,17.6-5.9,26.5-8.6c17.8-5.4,35.7-10.3,53.6-15.1c-0.2-0.4-0.4-0.9-0.6-1.3
				c-26.6,20.3-55.8,37.2-86.8,50C39.2,88.8,39.6,90.2,40.5,89.8L40.5,89.8z"/>
		</g>
		<g>
			<path d="M42.9,62.8c-7.3-3.2-14.2-7.2-20.7-12c-0.1,0.5-0.2,0.9-0.4,1.4c34.6-3.9,69.2-7.7,103.7-11.6c-0.2-0.4-0.3-0.8-0.5-1.2
				c-21.1,19-43,37.1-65.5,54.3c0.4,0.1,0.7,0.3,1.1,0.4c-1.6-4-3.8-7.5-6.6-10.8c-0.6-0.7-1.6,0.3-1,1c2.6,3.1,4.7,6.5,6.2,10.2
				c0.2,0.4,0.7,0.8,1.1,0.4c22.7-17.3,44.6-35.5,65.8-54.5c0.4-0.4,0.1-1.3-0.5-1.2C91,43,56.5,46.8,21.9,50.7
				c-0.7,0.1-1,0.9-0.4,1.4c6.4,4.8,13.3,8.8,20.7,12C43.1,64.4,43.8,63.2,42.9,62.8L42.9,62.8z"/>
		</g>
		<g>
			<path d="M94.1,42.6c2.6-10.8-1.1-21.4-5.5-31.3c-1.8-4-3.7-8.8-8-10.6c-2.1-0.9-7.5-1.4-8.2,1.8c-0.3,1.6,1.8,3.5,2.7,4.6
				c1.9,2.5,3.8,5,5.7,7.5c0.7,0.9,1.4,1.7,2,2.7c0.4,0.6,1,1.8,1,2.5c-0.3,2.9-2.5,2.4-4,2.2c-3.2-0.5-6.3-1.5-9.1-2.9
				c-3.8-1.9-8-5.6-12.5-4.8c-3.4,0.6-3.7,3.7-1.4,5.9c3.6,3.4,9.8,3.4,12.7,7.6c3.4,4.9-1,11.7-0.6,17.1c0.1,0.9,1.5,0.9,1.5,0
				c-0.5-6.8,5.1-15-1.9-20.1c-2.9-2.1-6.6-2.8-9.6-4.8c-0.4-0.3-0.7-0.5-1.1-0.8c0.4-1.2,0.9-2.3,1.3-3.5c0.4-0.2,2.1,0.3,2.6,0.4
				c1.2,0.3,2.2,0.9,3.3,1.4c2.1,1.1,4.2,2.5,6.4,3.5c3,1.4,7.8,3.4,11.2,2.6c2.6-0.6,3.2-3.3,2.4-5.5c-0.7-1.9-2.3-3.5-3.4-5.1
				c-1.7-2.2-3.4-4.4-5-6.6c-0.3-0.4-0.7-0.9-1-1.3c-0.9-1.1-1.2-1-0.4-2.3c0.9-1.6,2.6-1.4,4.3-0.9c2.7,0.8,4.6,3.2,5.9,5.6
				c5.6,10.1,10.4,23.3,7.6,34.9C92.5,43.1,93.9,43.5,94.1,42.6L94.1,42.6z"/>
		</g>
		<g>
			<path d="M79.2,30c0.9,0,0.9-1.5,0-1.5C78.3,28.5,78.3,30,79.2,30L79.2,30z"/>
		</g>
		<g>
			<path d="M86.6,29.1c0.9,0,0.9-1.5,0-1.5C85.6,27.6,85.6,29.1,86.6,29.1L86.6,29.1z"/>
		</g>
		<g>
			<path d="M78.9,38.9c2.7-0.2,5.4-1.4,7.1-3.6c2.1-2.7-1.3-3.8-3.7-4c-2.5-0.2-2,2.5-1.2,4c1.3,2.4,3.8,4.1,6.5,4.4
				c0.9,0.1,1.3-1.3,0.4-1.4c-1.6-0.2-3-0.8-4.2-1.9c-0.7-0.7-2.9-3.2-1.2-3.6c0.5-0.1,2.5,0.5,2.5,1.2c0,0.4-1.1,1.2-1.3,1.4
				c-1.4,1.2-3.1,1.8-4.9,2C78,37.5,77.9,39,78.9,38.9L78.9,38.9z"/>
		</g>
	</g>
	<g>
		<path d="M21.6,64.1c-6.6,3.1-12.7,6.8-18.5,11.2c-0.7,0.6,0,1.8,0.7,1.3c5.7-4.4,11.9-8.1,18.5-11.2C23.2,65,22.5,63.7,21.6,64.1
			L21.6,64.1z"/>
	</g>
	<g>
		<path d="M30,72C19.1,76.4,9.1,82.5,0.2,90.2c-0.7,0.6,0.3,1.7,1,1c8.7-7.5,18.4-13.5,29.1-17.8C31.2,73,30.8,71.6,30,72L30,72z"/>
	</g>
	<g>
		<path d="M28.8,86.5c-6.9,1.9-13.2,5.4-18.4,10.3c-0.7,0.6,0.3,1.7,1,1c5.1-4.7,11.1-8,17.8-9.9C30.1,87.7,29.7,86.3,28.8,86.5
			L28.8,86.5z"/>
	</g>
</g>
</svg>
