<?xml version="1.0" encoding="utf-8"?>
<!-- Generator: Adobe Illustrator 19.0.1, SVG Export Plug-In . SVG Version: 6.00 Build 0)  -->
<svg version="1.1" id="Режим_изоляции"
	 xmlns="http://www.w3.org/2000/svg" xmlns:xlink="http://www.w3.org/1999/xlink" x="0px" y="0px" viewBox="0 0 73 132.3"
	 style="enable-background:new 0 0 73 132.3;" xml:space="preserve">
<style type="text/css">
	.st0{fill:#FFFFFF;}
</style>
<g>
	<g>
		<path class="st0" d="M34.9,111.3c1,2.5,2,4.9,2.9,7.4c-2.6-0.2-5.2,0.1-7.3,1.7c-2.1,1.6-3.4,4.7-2.3,7.3c2.1,4.7,10.4,6.3,14,2.5
			c0.1,0.1,0.3,0.1,0.5,0.1c5.2,1.8,10.9-1.1,15.9-2.5c3.6-1,7.3-1.7,10.7-3.1c1-0.4,1.8-0.9,2.3-1.5c0.3,0,0.7-0.1,0.9-0.5
			c1.3-2.3-0.7-6.1-1.4-8.4c-1.4-4.6-3.2-9-4.7-13.5c-2.9-8.8-4.3-17.9-5.6-27.1c-1.4-9.5-2.8-18.9-4.8-28.3
			c-1.9-9.1-3.5-18.3-5.8-27.4c-1.1-4.4-4.4-20.9-11.8-17.6c-2.5,1.1-3.1,4-3.4,6.5c-0.4,4,0.2,8.2,0.8,12.1c0.6,3.5,1.3,7,2.2,10.5
			c1.3,5.5,2.2,11.3,4,16.7c0.7,2,2.2,4.2-0.4,5.6C40,52.7,38,53,36.2,53.6c-2.5,0.8-4.3,2.3-6.6,3.5c-2,1.1-2.4,0.1-3-1.7
			c-0.3-0.9-0.6-1.9-0.9-2.9c-0.8-2.7-1.6-5.3-2.4-8c-2.4-7.9-4.8-15.5-8.8-22.8c-2.1-3.7-4.7-11.1-10.2-10.1
			c-4.1,0.7-4.3,6-4.2,9.2C0.4,28.7,2.5,36.6,5.2,44c2.7,7.4,6.2,14.6,10,21.5c4.1,7.6,9,14.9,11.8,23.1
			C29.6,96.2,31.9,103.8,34.9,111.3z M43.2,128.4c-0.9-1.1-1.1-3.2-1.5-4.5c-0.6-1.9-1.3-3.8-2-5.6c-1.5-4.1-3.1-8.1-4.7-12.1
			c-3.1-7.8-4.9-16.1-8.3-23.8c-3.4-7.7-8.3-14.9-12.2-22.4c-4.2-8.1-7.8-16.4-10.1-25.3c-1.1-4.1-1.9-8.2-2.2-12.4
			C2,20.3,1.8,18,2.5,16c1.3-4.4,5.2-1.8,6.9,0.9c1.6,2.8,3.2,5.6,4.7,8.5c3.8,7.3,5.7,15,8.2,22.7c0.7,2.2,1.3,4.5,2,6.7
			c0.4,1.3,0.9,3.5,2.1,4.4c1.3,1,3,0.3,4.3-0.5c2.4-1.3,4.3-2.8,6.9-3.6c2.3-0.7,5.8-1.3,7.2-3.5c1.1-1.6,0.3-3.4-0.3-5.1
			c-2-5.4-2.8-11.2-4.2-16.9c-0.7-3.1-1.4-6.1-2-9.3C37.7,17.9,34.4,1.3,40.4,2c2.1,0.2,3.4,3.3,4.1,4.9c0.9,1.9,1.6,3.9,2.2,6
			c1.9,6.2,3.2,12.5,4.5,18.8c1.6,7.8,3.3,15.5,4.7,23.3c1.4,7.7,2.3,15.6,3.5,23.4c1.2,7.8,2.6,15.5,5,23c1.3,3.9,2.8,7.7,4,11.6
			c0.5,1.6,1,3.3,1.5,4.9c0.2,0.6,0.7,1.6,0.9,2.5c-0.2,0.1-0.3,0.3-0.3,0.6c-0.3,2.5-5.6,3.2-7.4,3.7c-2.4,0.6-4.7,1.2-7.1,1.9
			C52.1,127.6,47.4,130.1,43.2,128.4C43.2,128.4,43.2,128.4,43.2,128.4z M38.5,120.6c0.3,0.9,0.6,1.8,0.9,2.8
			c0.5,1.6,0.7,3.6,1.5,5.2c-2.4,3.3-9.8,1.7-11-2c-1.6-4.9,4.8-6.4,8.2-6C38.3,120.7,38.4,120.7,38.5,120.6z"/>
	</g>
	<g>
		<path class="st0" d="M38.8,94.5c0.5,1.7,2.8,3.6,4.8,2.9c1.1-0.4,2.2-2.3,2.6-3.4c0.9-2.2,0.2-4.5-0.4-6.8
			c-0.9-0.8-1.8-1.8-2.5-2.6c-0.9-1.1-2.5-2.7-2.2-4.3c0.3-1.6,2.2-1.8,3.4-1c0.2,0.2,0.5,0.4,0.7,0.6c0.9-1.4,3.1-1.9,4.1,0
			c1,2.1,0.1,5.6-1,7.6c0.5,1.9,0.8,4.7,3,5.3c2.5,0.8,3.5-2.6,3.1-4.5c-0.2-1.2,1.7-1.7,2-0.5c0.6,2.9-0.8,6.8-4.2,7
			c-1.8,0.1-3-0.6-3.8-1.7c-0.3,1.7-1,3.2-2.5,4.8c-3,3-7.9,0.7-9-3C36.4,93.9,38.4,93.3,38.8,94.5z"/>
	</g>
	<g>
		<path class="st0" d="M45.1,68.8c0.7-2.2,2.4-3.7,4.7-4.1c2.3-0.3,4,1.1,5.3,2.8c0.8,1-1,1.9-1.8,1c-0.9-1.1-1.9-2.1-3.4-1.9
			c-1.5,0.2-2.5,1.2-2.9,2.6C46.7,70.4,44.7,70,45.1,68.8z"/>
	</g>
	<g>
		<path class="st0" d="M36.4,73.8c1.1,0.7,0,2.3-1.1,1.7c-2.4-1.4-4.4,1.5-3.7,3.7c0.4,1.2-1.6,1.7-2,0.5
			C28.4,75.8,32.6,71.5,36.4,73.8z"/>
	</g>
	<g>
		<path class="st0" d="M47.8,43.9c-0.6-6.4-2.8-12.7-2.4-19.2c0.1-1.2,2.1-1.3,2,0c-0.3,6.5,1.9,12.8,2.4,19.2
			C49.9,45.1,47.9,45.2,47.8,43.9z"/>
	</g>
	<g>
		<path class="st0" d="M16,45.2c2.5,4.7,4.5,9.6,6.7,14.4c0.5,1.1-1.3,2.1-1.8,1c-2.2-4.8-4.2-9.7-6.7-14.4
			C13.6,45.1,15.4,44.2,16,45.2z"/>
	</g>
</g>
</svg>
