<?xml version="1.0" encoding="utf-8"?>
<!-- Generator: Adobe Illustrator 19.0.1, SVG Export Plug-In . SVG Version: 6.00 Build 0)  -->
<svg version="1.1" id="Слой_1" xmlns="http://www.w3.org/2000/svg" xmlns:xlink="http://www.w3.org/1999/xlink" x="0px" y="0px"
	 viewBox="0 0 76.5 60.9" style="enable-background:new 0 0 76.5 60.9;" xml:space="preserve">
<style type="text/css">
	.st0{fill:#C0C3C7;}
</style>
<g>
	<path sketch:type="MSShapeGroup" class="st0" d="M4.3,0.4C4.7,0.8,5,1.4,4.9,2L3.7,20.2c-0.1,1-0.9,1.8-2,1.7c-1-0.1-1.8-0.9-1.7-2
		L1.3,1.7c0.1-1,0.9-1.8,2-1.7C3.6,0,4,0.2,4.3,0.4"/>
	<path sketch:type="MSShapeGroup" class="st0" d="M21.7,8.3c0.6,0.5,0.8,1.4,0.5,2.1c-0.4,0.9-1.5,1.3-2.4,0.9L2.4,3.5
		C1.4,3.1,1,2,1.4,1.1c0.4-0.9,1.5-1.3,2.4-0.9L21.3,8C21.5,8.1,21.6,8.2,21.7,8.3"/>
	<path sketch:type="MSShapeGroup" class="st0" d="M75.9,57.5c0.3,0.3,0.5,0.7,0.6,1.1c0.1,1-0.6,1.9-1.5,2.1c-0.1,0-3,0.4-7.8-0.1
		c-1-0.1-1.7-1-1.6-2c0.1-1,1-1.7,2-1.6c4.3,0.5,6.8,0.2,6.8,0.2C75,57,75.5,57.2,75.9,57.5L75.9,57.5z M5,1.8
		c0.2,0.1,0.3,0.3,0.4,0.5c1.1,2.2,2.3,4.3,3.4,6.4c0.5,0.9,0.2,2-0.7,2.5s-2,0.2-2.5-0.7C4.5,8.4,3.3,6.2,2.1,4
		C1.7,3.1,2,2,2.9,1.5C3.6,1.2,4.4,1.3,5,1.8L5,1.8z M61.4,56c0.5,0.4,0.8,1.2,0.6,1.9c-0.3,1-1.3,1.6-2.2,1.3
		c-2.4-0.6-4.8-1.5-7.1-2.4c-0.9-0.4-1.4-1.5-1-2.4c0.4-0.9,1.4-1.4,2.4-1c2.2,0.9,4.5,1.7,6.7,2.3C61,55.7,61.2,55.8,61.4,56
		L61.4,56z M12.2,14.5c0.1,0.1,0.3,0.3,0.4,0.4c1.3,2.1,2.6,4.1,4,6c0.6,0.8,0.4,2-0.5,2.5c-0.8,0.6-2,0.4-2.5-0.5
		c-1.4-2-2.8-4.1-4.1-6.2c-0.5-0.9-0.3-2,0.6-2.5C10.7,13.9,11.6,14,12.2,14.5L12.2,14.5z M20.6,26.5c0.1,0.1,0.2,0.2,0.2,0.3
		c1.5,1.9,3.1,3.8,4.6,5.5c0.7,0.8,0.6,1.9-0.1,2.6c-0.8,0.7-1.9,0.6-2.6-0.1c-1.6-1.8-3.2-3.7-4.8-5.7c-0.6-0.8-0.5-1.9,0.3-2.6
		C18.9,25.9,19.9,25.9,20.6,26.5L20.6,26.5z M47.9,50.5c0.6,0.6,0.8,1.5,0.4,2.3c-0.5,0.9-1.6,1.2-2.5,0.7c-2.1-1.2-4.3-2.5-6.4-3.9
		c-0.9-0.6-1-1.7-0.5-2.5c0.6-0.8,1.7-1,2.5-0.5c2,1.4,4,2.6,6.1,3.7C47.7,50.3,47.8,50.4,47.9,50.5L47.9,50.5z M30.3,37.4
		C30.4,37.4,30.4,37.4,30.3,37.4c1.8,1.8,3.6,3.4,5.4,4.9c0.7,0.6,0.9,1.8,0.2,2.6c-0.6,0.8-1.8,0.9-2.6,0.2c-1.9-1.5-3.7-3.2-5.6-5
		c-0.7-0.7-0.7-1.9,0-2.6C28.5,36.8,29.6,36.7,30.3,37.4L30.3,37.4z"/>
</g>
</svg>
