<?xml version="1.0" standalone="no"?>
<!DOCTYPE svg PUBLIC "-//W3C//DTD SVG 20010904//EN"
 "http://www.w3.org/TR/2001/REC-SVG-20010904/DTD/svg10.dtd">
<svg version="1.0" xmlns="http://www.w3.org/2000/svg"
 width="260.000000pt" height="260.000000pt" viewBox="0 0 260.000000 260.000000"
 preserveAspectRatio="xMidYMid meet">
<metadata>
Created by potrace 1.11, written by Peter Selinger 2001-2013
</metadata>
<g transform="translate(0.000000,260.000000) scale(0.100000,-0.100000)"
fill="#000000" stroke="none">
<path d="M1067 2083 c-4 -8 -68 -201 -72 -218 -1 -5 -5 -17 -8 -25 -3 -8 -56
-175 -117 -370 -220 -699 -226 -716 -272 -755 -25 -21 -40 -25 -94 -25 l-64 0
0 -90 0 -90 339 0 c262 0 340 3 343 12 2 7 4 47 4 88 l-1 75 -85 5 c-47 3 -96
12 -109 19 -27 15 -26 23 16 174 l28 97 236 0 236 0 28 -97 c16 -54 30 -114
32 -135 3 -33 0 -37 -29 -47 -17 -6 -62 -11 -99 -11 l-69 0 0 -90 0 -90 425 0
425 0 0 90 0 90 -64 0 c-91 0 -128 35 -170 162 -31 92 -208 653 -210 663 -1 5
-31 98 -65 205 -35 107 -75 233 -90 280 l-27 85 -232 3 c-127 1 -233 -1 -235
-5z m161 -403 c6 -19 31 -100 56 -180 24 -80 56 -182 69 -227 l25 -81 -164 -1
c-127 -1 -164 1 -164 11 0 26 155 526 161 520 4 -4 11 -23 17 -42z"/>
</g>
</svg>
