<?xml version="1.0" encoding="utf-8"?>
<svg xmlns="http://www.w3.org/2000/svg" xmlns:xlink="http://www.w3.org/1999/xlink">
    <symbol viewBox="0 0 32 32" id="check">
        <path d="M26.664 6.27a.829.829 0 0 0-1.177 0L13.088 18.611a.826.826 0 0 1-1.178 0l-5.433-5.532a.825.825 0 0 0-1.177 0l-2.401 2.158a.83.83 0 0 0-.246.583c0 .215.087.44.247.603l5.478 5.749c.324.328.855.861 1.178 1.186l2.355 2.374a.834.834 0 0 0 1.178 0L29.019 9.83a.846.846 0 0 0 0-1.188l-2.356-2.373z"/>
    </symbol>
    <symbol viewBox="0 0 94 13" id="rating">
        <path d="M7 10.5l-4.11 2.16.78-4.58L.34 4.84l4.6-.67L7 0l2.06 4.17 4.6.67-3.33 3.24.78 4.58L7 10.5zm20 0l-4.11 2.16.78-4.58-3.33-3.24 4.6-.67L27 0l2.06 4.17 4.6.67-3.33 3.24.78 4.58L27 10.5zm20 0l-4.11 2.16.78-4.58-3.33-3.24 4.6-.67L47 0l2.061 4.17 4.6.67-3.33 3.24.779 4.58L47 10.5zm20 0l-4.109 2.16.779-4.58-3.33-3.24 4.6-.67L67 0l2.061 4.17 4.6.67-3.33 3.24.779 4.58L67 10.5zm24.771 3.073L87 11.064l-4.771 2.509.904-5.318-3.868-3.764 5.343-.778L87-1.128l2.393 4.841 5.343.778-3.868 3.764.903 5.318zM87 9.936l3.447 1.812-.654-3.842 2.792-2.717-3.856-.562L87 1.128l-1.729 3.499-3.856.562 2.792 2.717-.654 3.842L87 9.936z"/>
        <path d="M87 10.5l-4.109 2.16.779-4.58-3.33-3.24 4.6-.67L87 0v10.5z"/>
    </symbol>
</svg>