<?xml version="1.0" encoding="utf-8"?>
<svg xmlns="http://www.w3.org/2000/svg" xmlns:xlink="http://www.w3.org/1999/xlink">
    <symbol viewBox="0 0 32 32" id="check">
        <path d="M26.664 6.27a.829.829 0 0 0-1.177 0L13.088 18.611a.826.826 0 0 1-1.178 0l-5.433-5.532a.825.825 0 0 0-1.177 0l-2.401 2.158a.83.83 0 0 0-.246.583c0 .215.087.44.247.603l5.478 5.749c.324.328.855.861 1.178 1.186l2.355 2.374a.834.834 0 0 0 1.178 0L29.019 9.83a.846.846 0 0 0 0-1.188l-2.356-2.373z"/>
    </symbol>
    <symbol viewBox="0 0 94 13" id="rating">
        <path d="M7 10.5l-4.11 2.16.78-4.58L.34 4.84l4.6-.67L7 0l2.06 4.17 4.6.67-3.33 3.24.78 4.58L7 10.5zm20 0l-4.11 2.16.78-4.58-3.33-3.24 4.6-.67L27 0l2.06 4.17 4.6.67-3.33 3.24.78 4.58L27 10.5zm20 0l-4.11 2.16.78-4.58-3.33-3.24 4.6-.67L47 0l2.061 4.17 4.6.67-3.33 3.24.779 4.58L47 10.5zm20 0l-4.109 2.16.779-4.58-3.33-3.24 4.6-.67L67 0l2.061 4.17 4.6.67-3.33 3.24.779 4.58L67 10.5zm24.771 3.073L87 11.064l-4.771 2.509.904-5.318-3.868-3.764 5.343-.778L87-1.128l2.393 4.841 5.343.778-3.868 3.764.903 5.318zM87 9.936l3.447 1.812-.654-3.842 2.792-2.717-3.856-.562L87 1.128l-1.729 3.499-3.856.562 2.792 2.717-.654 3.842L87 9.936z"/>
        <path d="M87 10.5l-4.109 2.16.779-4.58-3.33-3.24 4.6-.67L87 0v10.5z"/>
    </symbol>

    <symbol viewBox="0 0 223.5 106.7" id="symbol-decoration-triangle-1">
        <g>
            <path d="M114,37.6c-1.6,0-3.2,0.5-4.4,1.5c0-1.6-0.3-3.1-1-4.5c-0.4-0.9-1.8-0.2-1.3,0.7c0.7,1.4,0.9,3.1,0.9,4.7
		c-1.5-0.4-3.3-0.9-4.7-0.4c-0.9,0.3-0.6,1.8,0.3,1.5c1.2-0.4,2.8,0,4.2,0.4c0,0.1,0.1,0.2,0.1,0.2c-0.1,1.8-0.2,3.5,0.1,5.2
		c0.2,1,1.7,0.6,1.5-0.3c-0.3-1.5-0.3-3.1-0.2-4.6c1.4,0.4,2.7,0.9,4,1.7c0.8,0.5,1.7-0.8,0.8-1.3c-1.3-0.8-2.7-1.3-4.2-1.8
		c1-1,2.3-1.5,3.7-1.4C114.9,39.1,115,37.6,114,37.6z"/>
            <path d="M78.8,82.8c-1.2-1.1-2.8-1.2-3.9,0c-1.1,1.1-1,2.9-0.1,4c1,1.2,3,1.5,3.8,0c0,0,0-0.1,0-0.1
		C79.8,85.6,80.1,84,78.8,82.8z"/>
            <path d="M84.1,90.5c-1.6-1.5-3.9-1.7-5.4-0.1c-1.1,1.2-1.9,4-0.5,5.3c0.5,0.5,1.7,1.3,2.5,1.4c1.1,0.1,2.5-0.7,3.4-1.3
		c0.3-0.2,0.4-0.4,0.3-0.7C85.4,93.8,85.3,91.6,84.1,90.5z"/>
            <path d="M176.6,18.1c-1.5-1.8-4.1-1.9-6-0.5c-2.3,1.7-2.4,4.6-1.9,7.2c0.2,1,1.7,0.6,1.5-0.3c-0.3-1.4-0.6-6.7,2.5-6.2
		c1.2,1,2.3,2.1,3.5,3.1c0.1,1,0.2,2.1,0.2,3.1c-0.1,3.4-1.5,6.2-5,7.2c-4.5,1.2-9.7-0.7-12.6-4.5c0.2-0.5,0.4-1.1,0.6-1.6
		c0.1-0.2,0-0.3,0-0.4c3.1-6.1,5.5-13.8,3.7-20.6c-0.5-1.8-1.3-4.2-3.4-4.6c-2.6-0.5-4,2.2-4.5,4.3c-0.6,2.4-1,5.3-1.2,8.3
		c-0.6-1.1-1.3-2.1-2.1-3.1c-1.2-1.6-4.3-5.7-6.7-4.5c-2.8,1.3-0.3,5.7,0.6,7.5c1,2,2.2,3.8,3.6,5.5c2.1,2.4,4.8,4.2,6,7.2
		c0.1,0.3,0.4,0.5,0.7,0.4c0.2,0.4,0.4,0.8,0.6,1.2c-0.3,0.4-0.6,0.9-0.9,1.3c-2.8,4.1-9.7,10.6-14.8,6.6c-0.7-0.5-1.3-1.2-1.6-2
		c1.2-0.5,2.5-1,3.8-1.6c1.9-0.8,4.6-2.4,4.3-4.8c-0.6-5.1-7.7-2.1-9.2,0.7c-0.9,1.5-1.1,3.1-0.8,4.7c-2.6,1.4-4.7,3.5-6.1,6.2
		c-0.5,0.9,0.8,1.7,1.3,0.8c1.4-2.7,3.2-4.2,5.4-5.3c1.1,2.3,3.3,4,6,4.1c4.5,0.2,8.6-2.9,11.6-6.6c-1.5,3.3-3.2,6.6-5.4,9.5
		c-2,2.6-4.2,4.7-6.6,6.6c-0.2,0-0.3,0.1-0.4,0.3c-2.4,1.8-5.1,3.4-7.8,5c-1.3,0.7-2.5,1.5-3.7,2.4c-0.5-0.2-0.9,0.2-1,0.7
		c-3.4,2.4-6.7,4.9-10.4,6.9c-5.4,3-11.2,5.2-17.2,6.7c-11.8,3-24.4,3.5-36.4,0.7c-5.8-1.3-11.3-3.5-16.6-6.3
		c-2.6-1.4-5.1-2.9-7.5-4.6c-2.6-1.8-5.9-3.7-7.7-6.5c1.3,0.4,2.9,0.4,3.9,0.6c3.2,0.5,6.7,1.6,10,1.4c3.3-0.2,5.7-2.5,6-5.5
		c1.6-0.9,2.8-2.4,4.1-3.6c1.3-1.3,2.7-2.5,4.1-3.7c0.5-0.4,1.1-0.9,1.6-1.3c0.7-0.6,1.4-1.1,2.1-1.6c1.7-1.6,3.6-1.3,5.8,1.1
		c-0.1,1,1.4,1.1,1.5,0.1c0.2-2.8-2.2-4.5-4.9-4c-4.8,0.9-9.3,6.5-12.7,9.7c-0.6,0.5-1,1-1.7,1.5c0,0-0.1,0.1-0.2,0.1
		c-0.1-0.3-0.1-0.5-0.2-0.8c-0.9-2.8-5.3-4.7-6.6-1.2c-1.2,3.1,2.3,5.1,4.9,4.6c0.1,0,0.2-0.1,0.3-0.1c-0.1,0.3-0.1,0.5-0.1,0.5
		c-0.7,1.3-2.8,2.6-4.2,2.7c-3.1,0.4-6.8-0.9-9.9-1.4c-1.7-0.3-2.8-1-3.5-1.9c0.3-0.3,0.5-0.7,0.8-1.1c2.8-4.1,5.5-8.5,6.3-13.5
		c0.5-3.2,0-7.9-4.3-7.5c-4.1,0.4-5.3,5.2-5.5,8.5c-0.2,3.1,0,6.2,0,9.2c0,0.1,0,0.3,0,0.5c-0.4-6.1-2.7-12.4-8.4-12.1
		c-3.3,0.1-5,3.3-4.5,6.3c0.7,4.1,4.9,8.5,8.4,10.6c1.1,0.7,2,1.1,2.8,1.2c-0.1,0.5-0.2,1-0.3,1.4c-1.5,5-6.9,11.8-12.8,11.3
		c-1.1-0.1-1.9-0.4-2.6-1c0.4-0.2,0.7-0.4,1-0.7c2.7-2,4.8-6,2.3-9c-1.8-2.2-5.3-2.4-6.8,0.2c-1.4,2.5-0.5,6.5,1,8.9
		c-1.8,0.7-3.7,1.2-5.1,1.8C3.5,66.6,0.7,70,0,74.8c-0.1,1,1.4,1,1.5,0.1c0.6-4.1,3-6.9,6.6-8.6c1.9-0.9,4-1.4,5.9-2.2
		c5.8,6.3,15.7-3.8,17.8-9.1c0.4-0.9,0.6-2.1,0.8-3.4c0.1,0,0.2,0,0.3-0.1c1.1,2.5,3.2,4.6,5.6,6.4c0,0,0,0,0,0.1
		c-0.2,5.6,0,11.1,0.3,16.6c-0.1,0.2,0,0.4,0,0.6c0.2,2.7,0.4,5.4,0.6,8.2c0.3,4.1,0.6,8.3,1,12.4c0.1,1.2-0.1,3,1.5,3.1
		c2,0.2,4.1-3.3,5.3-4.5c1.3-1.4,2.3-2.9,3.3-4.4c0.5,0.1,1.2-0.4,0.9-1.1c0-0.1-0.1-0.2-0.1-0.3c0.4-0.6,0.7-1.3,1.1-1.9
		c0.8-1.3,1.6-2.6,2.3-4c0.2-0.1,0.4-0.3,0.4-0.6c0.7-1.2,1.4-2.3,2-3.5c0.3-0.1,0.5-0.4,0.4-0.8c0.2-0.3,0.3-0.6,0.5-0.9
		c1.4-2.4,3.3-4.3,4.1-6.9c0.1,0,0.2,0.1,0.3,0.1c2,0.6,4,1.1,6.1,1.5c1.8,7.7,3.6,15.4,5.4,23.1c0.6,2.4,2.6,12.5,6.4,12
		c1.5-0.2,2.9-3,3.6-4.1c1.7-2.7,2.7-5.7,3.6-8.8c0.9-3.1,2.1-6.1,3.1-9.2c1.3-3.8,1.8-8,2.7-11.9c0-0.1,0-0.2,0-0.3
		c2.5-0.3,5.1-0.8,7.5-1.3c0.3-0.1,0.6-0.1,0.9-0.2c0.5,1.6,1.1,3.1,1.9,4.6c0,0.2,0.1,0.3,0.2,0.4c4.5,8.9,12.9,16.3,22.8,18
		c1.5,0.2,4.5,0.8,5.5-0.7c1.1-1.8-1.2-5.6-1.9-7.4c-2-5.8-4.1-11.5-5.4-17.5c0.1-0.3,0-0.6-0.2-0.8c-0.4-1.8-0.7-3.6-0.9-5.5
		c2.7-1.7,5.4-3.6,8-5.5c6.2,3.8,13.4,5.5,19.8,9c3.8,2.1,7.5,4.2,11.3,6.4c1.2,0.7,3.8,2.8,5.3,1.4c1.2-1.1,0.6-4.2,0.4-5.6
		c-0.5-3.9-1.7-7.8-2.9-11.5c-2.4-7.6-5.6-14.9-10.2-21.5c1-1.9,1.9-3.9,2.6-5.9c3.4,3.9,9,5.8,14,4.2c2.9-1,4.9-3,5.5-6.1
		C178.2,24.4,178.4,20.3,176.6,18.1z M154.7,21.1c-3-3.7-7.6-6.5-8.5-11.5c-0.7-1-0.5-2,0.6-2.9c0.9,0.7,1.7,1.4,2.5,2.2
		c1.2,1.2,2.2,2.5,3.1,4c0.7,1.1,1.2,2.2,1.7,3.4C154.2,17.8,154.4,19.5,154.7,21.1z M138.9,30.3c0-1,2-5.8,4-5.1
		c0.7,1.1,1.4,2.2,2.1,3.2c-1,0.8-2.1,1.4-3.3,1.7c-0.9,0.3-1.7,0.5-2.6,0.8c-0.1,0-0.2,0.1-0.2,0.1
		C138.9,30.8,138.9,30.6,138.9,30.3z M52.9,47.7c0.5-0.7,0.6-0.4,0.6,0.3C52.8,48.4,52.3,48.6,52.9,47.7z M34.4,42.6
		c0-3.2-0.5-6.9,0.5-10c0.1-0.3,0.3-0.6,0.4-0.9c0.8-2.6,2.8-2.1,6,1.4c0.1,0.6-0.2,1.7-0.3,2.2c-0.3,1.3-0.6,2.6-1.1,3.8
		c-1.2,2.9-2.8,5.5-4.5,8c-0.2,0.3-0.4,0.6-0.6,0.9C34.4,46.4,34.5,44.5,34.4,42.6z M13.2,58.7C13,58,12.9,57,13.1,56.3
		c-0.1-1.1,0.5-1.6,2-1.5c2.5-1.7,3.5-0.4,3.2,3.7c-0.5,1.8-1.9,3-3.6,3.9C13.8,61.3,13.4,60,13.2,58.7z M31.5,50.1
		c-0.1,0-0.3,0-0.4-0.1c-1.5-0.3-3.2-1.8-4.3-2.8c-1-0.9-1.9-1.9-2.7-2.9c-1.1-1.4-3.8-5-2.5-6.9c0.9-0.3,1.8-0.6,2.6-0.9
		c1.6-1.4,3-1.2,4,0.3c0.5,0.6,0.9,1.3,1.3,2c0.6,1.2,1,2.6,1.3,3.9C31.4,45.2,31.7,47.6,31.5,50.1z M40.6,77.7c0-0.1,0-0.1,0-0.2
		c0,0,0.1,0,0.1,0c0.1,0.6,0.1,1.3,0,2C40.6,78.9,40.6,78.3,40.6,77.7z M46.6,92.9c0-0.3-0.2-0.6-0.5-0.7c0,0,0-0.1,0.1-0.1
		c0.1-0.1,0.1-0.2,0.1-0.3c0.2,0.3,0.3,0.6,0.4,0.8c0,0,0.1,0.1,0.1,0.1C46.8,92.7,46.7,92.8,46.6,92.9z M49,89.9
		c-0.3,0.5-0.7,1-1.1,1.5c-0.5-0.8-1.1-1.9-2.1-1.8c-0.4,0.1-1.8,1-2.2,0.8c0.1,0.1-0.2-0.6-0.2-0.7c-0.2-0.4-0.4-0.9-0.6-1.4
		c-0.1-0.2-0.4-0.4-0.6-0.4c-0.3,0-0.6,0.1-0.8,0.1c0-0.4,0-0.8,0-1c0-0.4-0.1-0.7-0.1-1.1c0.9-0.2,1.8-0.6,2.7-0.7
		c0.4,0.9,0.4,2.2,1.5,2.6c1.2,0.4,2.6-0.7,3.7-1.1c0.3,0.5,0.5,1.1,0.7,1.8C49.5,89.1,49.3,89.5,49,89.9z M54.7,80.4
		c-0.3-1.2-0.8-2.4-1.6-2.8c-1.8-0.8-4.2,1.9-5.8,0.8c-1.4-1.1-0.7-3.8-2.2-4.7c-1.1-0.7-3.2-0.1-4.7,0.4c0-0.8-0.1-1.5-0.1-2.3
		c0.1,0,0.1-0.1,0.2-0.1c1.1-1,4.2-2.1,5.5-1.3c1.4,0.8,1.5,3.2,1.8,4.7c0.1,0.4,0.5,0.6,0.9,0.6c1.6-0.2,3.6-0.8,5.2-0.7
		c1.8,0.1,2,1.3,2.3,2.8C55.6,78.6,55.2,79.5,54.7,80.4z M58.1,74.3c-0.1-1.9-0.3-4.3-1.5-5.7c-1-1.1-2.2-0.9-3.5-0.8
		c-2.3,0.2-3.5-0.6-5-2.3c-0.4-0.5-0.8-1-1.3-1.4c-1.9-1.2-4.8-0.1-6.8,0.4c0-1.9,0-3.7,0-5.6c1.7,1.2,3.5,2.2,5.1,3.2
		c4.9,3.1,10.2,5.6,15.7,7.4C60.2,71.5,59.2,72.9,58.1,74.3z M90.2,80c-0.2-0.6-0.7-1.2-1.6-1.6c-2.3-1.2-5.5-0.8-6.9,1.6
		c-1.2,2.2-0.3,4.9,1.9,6c1.9,0.9,3.8,0.3,5.1-1.1c0.1,0,0.1-0.1,0.2-0.1c-0.3,1-0.7,2.1-1,3.1c-0.9,2.6-1.5,5.2-2.4,7.8
		c-0.7,2.2-1.7,5.9-3.7,7.5c-0.4,1.1-1,1.2-1.8,0.6c1.5-0.6,2.1-2.5,1.5-4c-0.7-1.7-3.5-2-4.6-0.5c-0.2-0.6-0.3-1.2-0.5-1.8
		c-0.8-2.6-1.3-5.3-1.9-7.9C73,83.7,71.6,77.9,70.2,72c0.7,0.1,1.5,0.2,2.2,0.3c-0.7,0.7-1.1,1.7-1.1,2.7c-0.1,1.8,1.3,3.2,2.9,3.7
		c3.4,1.3,6.6-2.9,4.8-5.8c2.7,0.1,5.4,0.1,8.1,0c-0.5,1-0.1,2.3,0.8,3.1c0.5,0.5,1.1,1,1.8,1.1c0.4,0,0.9,0,1.2-0.2
		C90.7,78,90.4,79,90.2,80z M91.7,73.3c-0.1-0.1-0.1-0.2-0.2-0.3c-0.3-0.2-0.6-0.2-0.9,0c-0.1-0.1-0.3-0.2-0.4-0.2c0,0,0,0-0.1-0.1
		c0.6-0.1,1.2-0.1,1.8-0.2C91.8,72.9,91.7,73.1,91.7,73.3z M105.6,76c6.5-0.8,12.5-3.1,18-6.6c0.4,1.6,0.8,3.1,1.2,4.7
		c0,0-0.1,0-0.1,0.1c-5,3.6-10.7,5.4-16.9,5.4C107,78.4,106.3,77.3,105.6,76z M117.3,88.5c-1.8-1.1-3.4-2.4-5-3.8
		c5.1-0.9,10-1.9,14.6-4.4c0.4,1.3,0.9,2.6,1.3,3.9c-0.1,0-0.1,0-0.2,0.1C124.7,86.5,121.2,87.9,117.3,88.5z M129.9,88.7
		c0.5,1.3,1.3,3,1.1,3.3c-0.8,1.2-4.5,0.3-5.2,0.1c-0.9-0.2-1.8-0.5-2.6-0.8C125.4,90.6,127.7,89.7,129.9,88.7z M133.3,55.6
		c1.3-0.9,2.7-1.8,4.1-2.6c2-1.2,3.9-2.3,5.8-3.6c-0.2,3.3-0.9,6.5-2.1,9.6C138.4,58,135.8,57,133.3,55.6z M149.2,62.5
		c-0.5-0.2-0.9-0.5-1.4-0.7c-0.9-0.4-1.8-0.8-2.7-1.2c1.8-4.3,1.9-9.7,2.1-14.2c0-0.1,0-0.1,0-0.2c1.5-1.3,2.8-2.8,4.1-4.4
		c0.2-0.2,0.3-0.4,0.5-0.7C151.5,48.3,150.7,55.4,149.2,62.5z M166,62.4c0.4,1.5,0.8,2.9,1,4.4c0.4,2.1,1.5,5-1.9,4.5
		c-0.9-0.1-1.9-0.9-2.9-1.6c1-4.6,1.6-9.2,1.9-13.9C164.8,58.1,165.4,60.3,166,62.4z M157.4,40.3c1.3,2.2,2.4,4.6,3.5,6.9
		c-1,6.7-2,13.3-3.2,19.9c-0.5-0.3-1-0.6-1.5-0.8c-0.6-0.3-1.2-0.7-1.9-1.1C156.2,57.1,157.2,48.8,157.4,40.3z M156.6,22.4
		c0.3-0.1,0.5-0.4,0.5-0.8c-0.3-1.8-0.7-3.5-1.3-5.2c-0.1-2.4,0-4.9,0.3-7.1c0.1-1.3,0.1-3.9,0.8-5c3.6-5.6,4.8,0.2,5.1,1.9
		c0.5,3,0.2,6.1-0.5,9c-0.8,3.5-2,6.9-3.8,10.1C157.3,24.4,156.9,23.4,156.6,22.4z"/>
            <path d="M192.9,84.5c0.2-0.3-0.1-0.7-0.4-0.6c-1.3,0.4-5.7,2.6-6.9,1.5c-0.5-0.5-0.8-1.9-1.2-2.5
		c-0.5-0.9-1-1.7-1.6-2.4c-0.2-0.3-0.7,0-0.7,0.3c-0.4,2.5-0.8,4.9-1.2,7.4c-1.8,0.4-8,1.5-5.6,3.5c1.7,1.4,4.9,0.1,5.5,2.8
		c0.2,0.9-0.3,2.3-0.4,3.2c-0.1,0.9-0.1,1.7,0.1,2.6c0.1,0.3,0.5,0.4,0.7,0.2c0.9-0.8,1.7-1.7,2.5-2.6c0.8-0.9,1.8-3.2,3.1-3.1
		c0.9,0,2.6,1.1,3.6,1.4c1,0.3,1.9,0.7,2.9,0.4c0.2-0.1,0.4-0.4,0.3-0.6c-1-1.6-2.5-3.1-3.4-4.8C189,89.1,191.8,86.3,192.9,84.5z
		 M188.4,90.2c0.1,0.7,1,1.3,1.3,1.8c1,1.2,1.9,2.5,2.7,3.8c-1.4,0-3.4-1-4.5-1.5c-0.5-0.2-1.5-1.1-2.2-0.8
		c-0.7,0.3-1.2,1.5-1.6,2.2c-0.9,1.3-2,2.5-3.1,3.6c-0.1-1.6,0.5-3.2,0.5-4.9c0-0.7,0-1.4-0.5-1.9c-1-1-3-0.5-4.1-1.2
		c-1,0-1.1-0.3-0.3-1.1c0.5-0.2,1.1-0.3,1.6-0.5c1.1-0.3,2.1-0.6,3.2-0.9c0.3-0.1,0.4-0.4,0.3-0.6l1-6.4c0.7,1.1,1.4,2.2,1.9,3.4
		c0.3,0.7,0.4,1.3,1.1,1.6c0.6,0.3,1.1,0,1.7-0.2c1.4-0.5,2.8-1.1,4.2-1.6c-0.7,1.1-1.4,2.1-2.1,3.2
		C189.2,88.7,188.3,89.5,188.4,90.2z"/>
            <path d="M185.8,90.5c-0.4-1-1.6-1.2-2.5-0.7c-0.8,0.5-1.3,1.8-0.6,2.6c0.4,0.4,1,0.4,1.5,0.2c0.1,0,0.1,0,0.2,0
		C185.4,92.3,186.2,91.4,185.8,90.5z M183.3,91.7c-0.3-0.4,0.2-1.1,0.6-1.3c0.4-0.2,0.9-0.2,1.1,0.3c0.1,0.1,0.1,0.3,0,0.4
		c-0.1,0-0.3,0-0.4,0.2C184.5,91.6,183.6,92.2,183.3,91.7z"/>
            <path d="M214.4,30.6c-0.3-0.9-1.7-0.2-1.3,0.7c0.4,1.2,0.8,2.4,1,3.6c0.2,1,1.7,0.6,1.5-0.3
		C215.3,33.2,214.9,31.9,214.4,30.6z"/>
            <path d="M220.7,32.3c-0.6,0.9-1.4,1.8-2.2,2.5c-0.7,0.7,0.3,1.8,1,1.1c0.9-0.9,1.7-1.8,2.4-2.8
		C222.5,32.3,221.2,31.5,220.7,32.3z"/>
            <path d="M213.7,38.6c-0.8,0.4-1.7,0.7-2.6,1c-0.6,0.2-1.4,0.2-1.7,0.8c-0.1,0.3,0.1,0.7,0.3,0.9c0,0,0,0,0,0
		c0.3,0.2,0.7,0.2,0.9-0.1c1.2-0.3,2.4-0.7,3.5-1.2c0.1,0,0.2-0.1,0.2-0.1c0,0,0,0,0,0c0,0,0,0,0,0c0,0,0.1,0,0.1-0.1
		c0,0,0,0,0.1-0.1C215.2,39.3,214.4,38.3,213.7,38.6z"/>
            <path d="M215.2,41.7c-0.3,1.2-0.5,2.4-0.8,3.6c-0.2,0.9,1.2,1.4,1.4,0.5c0.3-1.2,0.5-2.4,0.8-3.6
		C216.9,41.2,215.4,40.8,215.2,41.7z"/>
            <path d="M223.1,41.2c-1.1-0.5-2.2-1-3.4-1.4c-0.9-0.3-1.4,1.1-0.5,1.4c1.1,0.4,2.3,0.9,3.4,1.4
		C223.5,43.1,223.9,41.6,223.1,41.2z"/>
            <path d="M60,24.3c-1,0.4-2,0.7-3,1c-0.4-1.2-0.8-2.4-1.6-3.4c-0.3-0.4-0.9-0.1-1,0.4c-0.2,1.3-0.3,2.6-0.5,3.9
		c-1.1,0.3-2.2,0.6-3.2,1c-0.2,0.1-0.3,0.3-0.3,0.5c-0.4,0.2-0.6,0.8-0.1,1c1.1,0.6,2.2,1.1,3.3,1.6c-0.1,0.9-0.1,1.7-0.2,2.6
		c0,0.5,0.6,0.8,1,0.5c0.7-0.6,1.3-1.3,1.9-1.9c0.8,0.3,1.5,0.5,2.3,0.8c0,0,0,0,0,0.1c0.3,0.7,1.4,0.1,1-0.5
		c-0.5-0.9-0.9-1.9-1.3-2.8c0.9-1.2,1.6-2.4,2.4-3.7C61,24.6,60.5,24.1,60,24.3z M55.4,24c0.2,0.5,0.4,1,0.6,1.5
		c-0.3,0.1-0.5,0.1-0.8,0.2C55.2,25.2,55.3,24.6,55.4,24z M56.3,26.6c0.1,0.3,0.2,0.5,0.3,0.8c0.2,0.4,0.3,0.8,0.5,1.2
		c-0.3,0.4-0.7,0.9-1.1,1.3c-0.4-0.1-0.8-0.3-1.1-0.4c0.1-0.8,0.1-1.7,0.2-2.5C55.5,26.9,55.9,26.8,56.3,26.6z M51.7,28
		c0.7-0.3,1.4-0.5,2.2-0.7c-0.1,0.6-0.1,1.1-0.2,1.7C53,28.7,52.3,28.4,51.7,28z M54.7,31.3c0-0.2,0-0.4,0.1-0.6
		c0.1,0.1,0.3,0.1,0.4,0.2C55,31,54.8,31.2,54.7,31.3z M57.1,30.4c0.1-0.2,0.3-0.4,0.4-0.5c0.1,0.3,0.3,0.5,0.4,0.8
		C57.7,30.5,57.4,30.4,57.1,30.4z M57.8,27.5c-0.2-0.4-0.3-0.8-0.4-1.2c0.5-0.1,1-0.3,1.5-0.5C58.6,26.4,58.2,27,57.8,27.5z"/>
        </g>
    </symbol>

    <symbol viewBox="0 0 219.2 99.7" id="symbol-decoration-triangle-2">
        <g>
            <path d="M154.1,41.3c-1.5-0.7-3.1-0.9-4.6-0.5c0.6-1.4,1-2.9,1-4.5c0-1-1.5-0.9-1.5,0.1c0.1,1.6-0.5,3.2-1.2,4.7
		c-1.2-1-2.6-2.2-4.1-2.3c-1-0.1-1.3,1.4-0.3,1.5c1.2,0.1,2.6,1.2,3.6,2.1c0,0.1,0,0.2,0,0.3c-0.8,1.6-1.6,3.1-2,4.8
		c-0.2,0.9,1.3,1.3,1.5,0.3c0.4-1.5,1-2.9,1.7-4.3c1.1,0.9,2.1,2,2.9,3.2c0.6,0.8,1.8,0,1.3-0.8c-0.9-1.3-1.9-2.3-3.1-3.3
		c1.3-0.5,2.7-0.4,4,0.2C154.2,43.1,154.9,41.7,154.1,41.3z"/>
            <path d="M103.2,67.8c-0.6-1.5-2-2.3-3.6-1.7c-1.5,0.5-2.1,2.2-1.7,3.6c0.4,1.5,2.1,2.6,3.5,1.6c0,0,0.1-0.1,0.1-0.1
		C103,70.7,103.9,69.4,103.2,67.8z"/>
            <path d="M104.8,76.9c-0.8-2-2.8-3.2-4.9-2.3c-1.6,0.7-3.3,2.9-2.7,4.6c0.3,0.7,1,1.9,1.7,2.3c1,0.6,2.6,0.4,3.6,0.3
		c0.3-0.1,0.5-0.3,0.6-0.5C104.7,80.6,105.5,78.5,104.8,76.9z"/>
            <path d="M219.1,49.6c-0.6-2.3-3-3.4-5.2-3c-2.8,0.6-4.1,3.2-4.7,5.7c-0.2,1,1.3,1.3,1.5,0.3c0.3-1.4,2.2-6.4,4.9-4.6
		c0.6,1.4,1.3,2.9,1.9,4.3c-0.3,1-0.7,1.9-1.1,2.9c-1.5,3-4,5-7.6,4.5c-4.6-0.8-8.6-4.7-9.6-9.3c0.4-0.4,0.8-0.8,1.2-1.2
		c0.1-0.1,0.2-0.2,0.2-0.4c5.4-4.2,10.7-10.3,12-17.1c0.3-1.8,0.6-4.4-1.2-5.6c-2.2-1.5-4.5,0.3-5.9,2c-1.6,2-3.2,4.4-4.5,7.1
		c-0.1-1.3-0.3-2.5-0.6-3.7c-0.5-1.9-1.6-7-4.2-6.9c-3.1,0-2.7,5.1-2.6,7.1c0.1,2.2,0.4,4.4,1,6.5c0.9,3.1,2.6,5.8,2.4,9.1
		c0,0.4,0.2,0.6,0.5,0.7c0,0.5,0,0.9,0.1,1.4c-0.4,0.3-0.9,0.6-1.3,0.9c-4.3,2.6-13.2,5.6-16.3-0.2c-0.4-0.8-0.6-1.6-0.7-2.5
		c1.3,0,2.6,0.1,4.1,0.2c2,0.1,5.2-0.2,6-2.6c1.6-4.9-6.1-5.1-8.7-3.2c-1.4,1-2.3,2.4-2.7,3.9c-3,0.1-5.7,1.2-8.1,3.1
		c-0.8,0.6,0,1.9,0.8,1.3c2.4-1.9,4.7-2.5,7.1-2.6c0,2.5,1.3,5,3.8,6.3c4,2.1,9,0.9,13.3-1.2c-2.7,2.4-5.7,4.6-8.9,6.4
		c-2.9,1.6-5.8,2.6-8.8,3.2c-0.2,0-0.3,0-0.5,0.1c-3,0.6-6,1-9.2,1.3c-1.5,0.2-2.9,0.4-4.3,0.6c-0.4-0.3-0.9-0.2-1.1,0.2
		c-4.1,0.7-8.2,1.7-12.3,2c-6.2,0.4-12.4,0.1-18.5-1c-12-2.2-23.7-7-33.4-14.5C93,47.3,88.9,43,85.3,38.3c-1.8-2.4-3.4-4.8-4.9-7.3
		c-1.6-2.7-3.8-5.8-4.3-9.1c1,0.9,2.5,1.6,3.3,2.2c2.7,1.8,5.4,4.3,8.5,5.5c3.1,1.2,6.2,0.1,7.7-2.5c1.8-0.2,3.6-1,5.2-1.6
		c1.7-0.6,3.5-1.2,5.3-1.6c0.7-0.2,1.3-0.4,2-0.5c0.9-0.2,1.7-0.4,2.6-0.6c2.2-0.8,3.8,0.3,4.8,3.4c-0.5,0.9,0.9,1.6,1.3,0.7
		c1.3-2.4-0.2-5-2.8-5.7c-4.7-1.2-11.2,2-15.5,3.5c-0.7,0.3-1.4,0.5-2.1,0.6c0,0-0.1,0-0.2,0c0.1-0.3,0.1-0.5,0.2-0.8
		c0.4-2.9-2.8-6.5-5.5-3.8c-2.3,2.3,0,5.6,2.6,6.2c0.1,0,0.2,0,0.3,0c-0.2,0.2-0.3,0.4-0.3,0.4c-1.2,0.9-3.6,1.2-4.9,0.8
		c-3-1-5.8-3.6-8.4-5.4c-1.4-1-2.1-2.1-2.4-3.2c0.4-0.2,0.8-0.4,1.2-0.7c4.3-2.6,8.5-5.5,11.4-9.7c1.8-2.7,3.3-7.2-0.8-8.6
		c-3.9-1.4-6.9,2.5-8.5,5.5c-1.4,2.7-2.6,5.6-3.8,8.4c-0.1,0.1-0.1,0.3-0.2,0.4c2.2-5.7,2.7-12.4-2.6-14.6c-3-1.2-5.9,0.9-6.7,3.9
		c-1.1,4,1,9.8,3.2,13.1c0.7,1.1,1.4,1.8,2.1,2.3c-0.3,0.4-0.6,0.8-0.9,1.2c-3.4,4-11.2,7.8-16.4,5c-0.9-0.5-1.5-1.2-1.9-2
		c0.4,0,0.8-0.1,1.2-0.2c3.3-0.7,6.8-3.5,5.8-7.2c-0.7-2.8-3.8-4.4-6.3-2.6c-2.3,1.6-3.2,5.7-2.8,8.6c-1.9-0.1-3.8-0.4-5.3-0.5
		c-4.9-0.2-8.9,1.7-11.5,5.8c-0.5,0.8,0.8,1.5,1.3,0.7c2.2-3.5,5.6-5.1,9.6-5.1c2.1,0,4.2,0.4,6.2,0.5c2.7,8.1,15.9,3.1,20-0.9
		c0.7-0.7,1.4-1.6,2.2-2.7c0.1,0,0.2,0,0.3,0c0,2.7,1,5.5,2.4,8.1c0,0,0,0,0,0.1c-2.5,5-4.6,10.1-6.6,15.3c-0.1,0.1-0.2,0.3-0.2,0.6
		c-1,2.5-1.9,5.1-2.9,7.7c-1.4,3.9-2.9,7.8-4.3,11.7c-0.4,1.1-1.3,2.7,0.1,3.5c1.7,1,5.1-1.3,6.7-1.9c1.8-0.7,3.3-1.7,4.8-2.7
		c0.4,0.3,1.3,0.1,1.3-0.6c0-0.1,0-0.2,0-0.3c0.6-0.4,1.2-0.8,1.8-1.3c1.3-0.9,2.5-1.7,3.8-2.6c0.3,0,0.5-0.1,0.6-0.4
		c1.1-0.8,2.2-1.6,3.3-2.4c0.3,0,0.6-0.1,0.7-0.5c0.3-0.2,0.5-0.4,0.8-0.6c2.3-1.6,4.8-2.5,6.6-4.6c0.1,0.1,0.1,0.1,0.2,0.2
		c1.6,1.4,3.2,2.6,4.9,3.9c-1.6,7.7-3.1,15.5-4.7,23.2c-0.5,2.4-2.8,12.5,0.8,13.5c1.5,0.4,3.9-1.6,5-2.3c2.7-1.7,4.8-4.1,6.9-6.5
		c2.1-2.5,4.5-4.7,6.6-7c2.7-3,5-6.5,7.4-9.7c0.1-0.1,0.1-0.2,0.1-0.3c2.4,0.8,4.9,1.4,7.4,2c0.3,0.1,0.6,0.1,0.9,0.2
		c-0.2,1.6-0.2,3.3-0.2,4.9c0,0.2,0,0.3,0,0.5c0.4,10,4.9,20.2,13.3,25.9c1.2,0.8,3.7,2.6,5.3,1.6c1.8-1.2,1.2-5.6,1.4-7.5
		c0.6-6.1,1.1-12.2,2.3-18.1c0.2-0.2,0.3-0.5,0.2-0.8c0.4-1.8,0.9-3.6,1.4-5.4c3.2-0.4,6.4-1.1,9.6-1.6c4.1,6.1,9.9,10.5,14.3,16.5
		c2.5,3.5,5.1,7,7.6,10.5c0.8,1.1,2.3,4.2,4.2,3.5c1.6-0.5,2.3-3.5,2.7-4.9c1.2-3.7,1.7-7.8,2.2-11.7c1-7.9,1.1-15.9-0.3-23.8
		c1.7-1.3,3.3-2.8,4.9-4.3c1.5,4.9,5.8,9,11,9.6c3.1,0.3,5.7-0.7,7.5-3.2C217.9,56,219.8,52.3,219.1,49.6z M197.9,43.2
		c-1.2-4.6-4.2-9.1-2.9-14c-0.2-1.3,0.4-2.1,1.8-2.4c0.5,1,1,2,1.3,3c0.6,1.6,1,3.2,1.2,4.9c0.2,1.3,0.2,2.5,0.1,3.8
		C198.8,40,198.3,41.6,197.9,43.2z M179.7,45c0.5-0.9,4.3-4.5,5.8-2.9c0.2,1.3,0.4,2.6,0.6,3.8c-1.2,0.3-2.5,0.4-3.7,0.2
		c-0.9-0.1-1.8-0.2-2.7-0.3c-0.1,0-0.2,0-0.3,0C179.5,45.5,179.6,45.2,179.7,45z M94.3,25.1c0.8-0.4,0.7-0.1,0.4,0.5
		C93.9,25.6,93.3,25.6,94.3,25.1z M79.6,12.7c1.3-2.9,2.4-6.5,4.6-8.9c0.3-0.2,0.5-0.4,0.8-0.7c1.8-2,3.4-0.7,4.9,3.8
		c-0.1,0.6-0.9,1.4-1.2,1.9c-0.8,1.1-1.6,2.1-2.6,3c-2.2,2.1-4.8,3.8-7.4,5.4c-0.3,0.2-0.6,0.4-0.9,0.6
		C77.9,16.2,78.8,14.5,79.6,12.7z M53.5,18.6c0.2-0.7,0.4-1.7,0.9-2.3c0.4-1.1,1.2-1.2,2.4-0.6c3-0.5,3.4,1.1,1.3,4.7
		c-1.2,1.5-3,2-4.9,2C53.1,21.2,53.2,19.8,53.5,18.6z M73.8,18.3c-0.1-0.1-0.3-0.1-0.4-0.2c-1.3-0.9-2.2-3-2.7-4.3
		c-0.5-1.2-0.9-2.5-1.2-3.8c-0.4-1.7-1.4-6.1,0.6-7.3C71,2.8,71.9,2.9,72.9,3c2.1-0.6,3.2,0.1,3.5,2c0.2,0.7,0.3,1.6,0.3,2.4
		c0,1.4-0.2,2.8-0.5,4.1C75.8,13.8,75,16.2,73.8,18.3z M70.6,47.2c0-0.1,0-0.1,0.1-0.2c0,0,0.1,0,0.1,0.1c-0.2,0.6-0.5,1.2-0.8,1.8
		C70.2,48.3,70.4,47.7,70.6,47.2z M69.8,63.5c0.1-0.3,0-0.6-0.2-0.8c0,0,0.1,0,0.1-0.1c0.1-0.1,0.2-0.2,0.2-0.2c0,0.3,0,0.7,0.1,0.9
		c0,0,0,0.1,0,0.1C70,63.5,69.9,63.5,69.8,63.5z M73.2,61.8c-0.5,0.3-1.1,0.6-1.7,0.9c-0.1-1-0.2-2.2-1.1-2.5
		c-0.4-0.1-2.1,0.1-2.3-0.2c0.1,0.1,0.1-0.6,0.1-0.8c0-0.5,0-1,0-1.5c0-0.2-0.2-0.5-0.4-0.6c-0.3-0.1-0.6-0.2-0.8-0.2
		c0.2-0.4,0.3-0.7,0.4-0.9c0.1-0.3,0.2-0.7,0.4-1c0.9,0.1,1.9,0.2,2.8,0.5c-0.1,1-0.5,2.2,0.3,3c0.9,0.9,2.6,0.4,3.8,0.6
		c0.1,0.5,0,1.3-0.1,1.9C74,61.3,73.6,61.6,73.2,61.8z M82.3,55.5c0.2-1.2,0.3-2.5-0.3-3.2c-1.3-1.5-4.6,0-5.6-1.7
		c-0.9-1.6,0.9-3.8,0-5.2c-0.8-1.1-2.9-1.4-4.5-1.7c0.3-0.7,0.5-1.4,0.8-2.2c0.1,0,0.1,0,0.2,0c1.4-0.4,4.7-0.1,5.5,1.1
		c1,1.3,0,3.5-0.3,5c-0.1,0.4,0.2,0.8,0.6,0.9c1.6,0.5,3.6,0.8,5,1.6c1.6,0.9,1.2,2,0.9,3.5C83.9,54.3,83.1,54.9,82.3,55.5z
		 M87.9,51.4c0.7-1.8,1.5-4,1-5.8c-0.4-1.4-1.6-1.7-2.9-2.2c-2.1-0.8-2.9-2-3.5-4.2c-0.2-0.6-0.3-1.3-0.6-1.8
		c-1.3-1.9-4.4-2.1-6.4-2.4c0.8-1.7,1.5-3.4,2.4-5.1c1.1,1.8,2.3,3.5,3.3,5c3.2,4.9,6.9,9.4,11.2,13.3
		C91.1,49.7,89.5,50.5,87.9,51.4z M114.7,70c0-0.7-0.2-1.4-0.8-2.1c-1.6-2.1-4.7-3-7-1.4c-2,1.4-2.3,4.4-0.8,6.2
		c1.3,1.6,3.3,1.9,5.1,1.1c0.1,0,0.2,0,0.2,0c-0.7,0.8-1.5,1.6-2.2,2.4c-1.9,1.9-3.6,4.1-5.4,6.1c-1.6,1.7-4.1,4.7-6.5,5.3
		c-0.8,0.8-1.4,0.7-1.9-0.2c1.6,0.1,3-1.4,3-3c0-1.9-2.3-3.2-4-2.4c0.1-0.6,0.2-1.3,0.3-1.8c0.4-2.7,1-5.4,1.5-8
		c1.2-5.9,2.4-11.8,3.6-17.7c0.6,0.4,1.3,0.8,1.9,1.2c-0.9,0.4-1.7,1.1-2.2,2c-0.8,1.6-0.1,3.4,1,4.6c2.6,2.6,7.2,0.1,6.8-3.3
		c2.4,1.3,4.9,2.4,7.4,3.4c-0.9,0.7-1,2-0.6,3.1c0.2,0.7,0.6,1.4,1.2,1.8c0.4,0.2,0.8,0.3,1.2,0.4C116,68.3,115.4,69.1,114.7,70z
		 M118.9,64.5c0-0.1,0-0.3-0.1-0.4c-0.2-0.3-0.5-0.4-0.8-0.4c-0.1-0.2-0.2-0.3-0.3-0.4c0,0,0,0,0-0.1c0.6,0.2,1.1,0.4,1.7,0.6
		C119.2,64.1,119,64.3,118.9,64.5z M130.4,72.8c6.2,1.9,12.7,2.4,19.1,1.4c-0.3,1.6-0.6,3.2-0.8,4.8c0,0-0.1,0-0.1,0
		c-6.1,1.2-12,0.5-17.6-2.1C130.7,75.5,130.5,74.1,130.4,72.8z M135.8,89c-1.1-1.7-2.1-3.6-2.9-5.5c5,1.3,9.9,2.4,15.1,2.1
		c-0.1,1.4-0.3,2.7-0.4,4.1c-0.1,0-0.1,0-0.2,0C143.5,90.2,139.6,90,135.8,89z M147.2,94.4c0,1.4-0.1,3.3-0.4,3.5
		c-1.3,0.8-4.2-1.6-4.8-2.1c-0.7-0.6-1.4-1.2-2.1-1.8C142.4,94.2,144.8,94.4,147.2,94.4z M164.1,65.6c1.6-0.3,3.2-0.5,4.8-0.6
		c2.3-0.2,4.6-0.5,6.7-0.9c-1.5,3-3.5,5.6-5.9,7.9C167.7,70,165.7,68,164.1,65.6z M175.7,78.6c-0.3-0.4-0.7-0.8-1-1.3
		c-0.6-0.8-1.3-1.5-1.9-2.2c3.4-3.2,5.7-8,7.8-12.1c0-0.1,0-0.1,0.1-0.2c1.9-0.6,3.7-1.3,5.5-2.3c0.2-0.1,0.5-0.3,0.7-0.4
		C183.7,66.6,180,72.7,175.7,78.6z M191,85.5c-0.3,1.5-0.5,3-0.9,4.4c-0.6,2.1-0.7,5.2-3.7,3.3c-0.7-0.5-1.4-1.6-2-2.6
		c2.8-3.8,5.3-7.7,7.5-11.8C191.7,81,191.3,83.3,191,85.5z M192.3,61.8c0.2,2.6,0.3,5.2,0.3,7.7c-3.7,5.7-7.4,11.3-11.2,16.8
		c-0.3-0.5-0.7-0.9-1-1.4c-0.4-0.6-0.8-1.2-1.2-1.7C184.3,76.6,188.7,69.4,192.3,61.8z M199.1,45.2c0.3,0,0.6-0.2,0.8-0.6
		c0.5-1.7,0.8-3.5,1-5.3c0.9-2.3,2.1-4.4,3.2-6.3c0.6-1.1,1.7-3.5,2.8-4.2c5.6-3.6,4.3,2.2,3.9,3.9c-0.7,2.9-2.4,5.6-4.2,8
		c-2.2,2.8-4.7,5.5-7.6,7.6C198.9,47.2,199,46.2,199.1,45.2z"/>
            <path d="M34.6,76.7c0.3-0.2,0.2-0.7-0.1-0.8c-1.4-0.2-6.3,0-6.9-1.5c-0.3-0.7,0-2-0.1-2.8c-0.1-1-0.3-1.9-0.5-2.9
		c-0.1-0.4-0.6-0.3-0.8-0.1c-1.4,2.1-2.8,4.1-4.1,6.2c-1.8-0.4-7.9-1.9-6.6,0.8c0.9,2,4.4,2.1,3.9,4.8c-0.2,0.9-1.3,2-1.8,2.8
		c-0.5,0.8-0.8,1.5-1,2.5c-0.1,0.3,0.2,0.6,0.5,0.5c1.1-0.4,2.3-0.8,3.3-1.4c1.1-0.5,3-2.1,4.2-1.5c0.8,0.4,1.9,2.1,2.7,2.8
		c0.8,0.7,1.5,1.4,2.5,1.6c0.3,0,0.5-0.2,0.5-0.4c-0.2-1.9-1-3.9-1.1-5.8C29.1,79.2,32.8,77.8,34.6,76.7z M28.1,80
		c-0.2,0.6,0.3,1.6,0.5,2.2c0.4,1.5,0.7,3,0.9,4.5c-1.3-0.6-2.6-2.3-3.5-3.2c-0.4-0.4-0.9-1.6-1.7-1.6c-0.8,0-1.7,0.9-2.4,1.3
		c-1.4,0.8-2.8,1.4-4.3,2c0.6-1.6,1.7-2.7,2.4-4.2c0.3-0.6,0.6-1.3,0.3-1.9c-0.5-1.3-2.5-1.7-3.2-2.8c-0.9-0.4-0.9-0.8,0.2-1.1
		c0.5,0.1,1.1,0.2,1.6,0.2c1.1,0.2,2.2,0.3,3.3,0.5c0.3,0,0.5-0.2,0.5-0.4l3.6-5.4c0.2,1.3,0.3,2.6,0.3,3.9c0,0.7-0.2,1.4,0.3,2
		c0.4,0.5,1,0.5,1.6,0.5c1.5,0.1,3,0.1,4.5,0.3c-1.1,0.7-2.1,1.4-3.2,2C29.4,79,28.3,79.4,28.1,80z"/>
            <path d="M25.6,79.2c0.1-1.1-1-1.8-1.9-1.6c-0.9,0.1-1.9,1.1-1.6,2.1c0.2,0.6,0.7,0.8,1.3,0.9c0,0,0.1,0.1,0.2,0.1
		C24.5,80.7,25.6,80.2,25.6,79.2z M22.9,79.3c0-0.5,0.6-0.9,1-0.9c0.4,0,0.9,0.3,0.9,0.7c0,0.1-0.1,0.3-0.1,0.4
		c-0.1-0.1-0.3-0.1-0.4,0C23.9,79.7,22.9,79.9,22.9,79.3z"/>
            <path class="st0" d="M8.8,20.5c0.1-1-1.4-0.9-1.5,0.1C7.2,21.8,7,23,6.8,24.3c-0.2,1,1.3,1.3,1.5,0.3C8.6,23.2,8.7,21.9,8.8,20.5z"
            />
            <path d="M13.8,24.6c-1,0.6-2,1-3.1,1.4c-0.9,0.3-0.5,1.7,0.5,1.4c1.2-0.4,2.3-0.9,3.4-1.6
		C15.5,25.3,14.7,24.1,13.8,24.6z"/>
            <path d="M4.8,27.4c-0.9,0-1.9,0-2.8-0.2c-0.7-0.1-1.3-0.4-1.9,0.1C-0.1,27.5,0,28,0.1,28.2c0,0,0,0,0,0.1
		c0.2,0.4,0.5,0.4,0.8,0.3C2.2,28.8,3.4,29,4.6,29c0.1,0,0.2,0,0.3,0c0,0,0,0,0,0c0,0,0,0,0,0c0,0,0.1,0,0.1,0c0,0,0.1,0,0.1,0
		C6,28.7,5.7,27.4,4.8,27.4z"/>
            <path d="M4.9,30.9c-0.7,1-1.5,2-2.2,3c-0.6,0.8,0.5,1.8,1.1,1c0.7-1,1.5-2,2.2-3C6.6,31.1,5.5,30.1,4.9,30.9z"/>
            <path d="M12.3,33.7c-0.8-0.9-1.6-1.8-2.5-2.7c-0.7-0.7-1.7,0.4-1,1.1c0.9,0.8,1.7,1.7,2.5,2.7
		C11.9,35.6,12.9,34.4,12.3,33.7z"/>
            <path d="M110.4,6.7c-1,0-2.1-0.2-3.1-0.3c0.1-1.3,0.3-2.5,0-3.7c-0.1-0.5-0.8-0.5-1.1-0.1c-0.7,1.1-1.4,2.2-2,3.3
		c-1.1-0.2-2.2-0.3-3.4-0.4c-0.3,0-0.4,0.1-0.5,0.3c-0.4,0-0.9,0.4-0.5,0.9c0.7,1,1.5,1.9,2.3,2.8c-0.4,0.8-0.8,1.5-1.2,2.3
		c-0.2,0.5,0.2,1,0.7,0.8c0.9-0.3,1.7-0.6,2.6-1c0.6,0.6,1.2,1.1,1.8,1.7c0,0,0,0,0,0.1c0,0.7,1.2,0.7,1.2-0.1c0-1,0-2.1,0-3.1
		c1.3-0.7,2.5-1.5,3.7-2.3C111.3,7.4,111,6.7,110.4,6.7z M106.4,4.6c0,0.5-0.1,1.1-0.1,1.6c-0.3,0-0.5-0.1-0.8-0.1
		C105.8,5.5,106.1,5,106.4,4.6z M106.1,7.3c0,0.3-0.1,0.5-0.1,0.8c0,0.4,0,0.9-0.1,1.3c-0.5,0.3-1,0.5-1.5,0.7
		c-0.3-0.3-0.6-0.6-0.8-0.9c0.4-0.7,0.8-1.5,1.2-2.2C105.3,7.2,105.7,7.2,106.1,7.3z M101.3,6.6c0.8,0.1,1.5,0.1,2.3,0.3
		c-0.3,0.5-0.6,1-0.8,1.5C102.3,7.8,101.8,7.2,101.3,6.6z M102.7,10.9c0.1-0.2,0.2-0.4,0.3-0.6c0.1,0.1,0.2,0.2,0.3,0.3
		C103.1,10.7,102.9,10.8,102.7,10.9z M105.3,11c0.2-0.1,0.4-0.2,0.6-0.3c0,0.3,0,0.6,0,0.9C105.7,11.4,105.5,11.2,105.3,11z
		 M107.2,8.7c0-0.4,0-0.8,0.1-1.2c0.5,0.1,1,0.2,1.6,0.2C108.3,8.1,107.7,8.4,107.2,8.7z"/>
        </g>
    </symbol>

    <symbol id="symbol-cake-6" viewBox="0 0 40 35">
        <path d="M39.5,18.1c0-0.1,0-0.2,0-0.4v-3.8c0.4-0.9,0.6-1.9,0.3-2.8l-0.1-0.5c-0.6-2.4-0.8-3.3-3.5-4.8c-0.5-0.8-2.2-3.2-5.1-3.7
		c0,0-0.1,0-0.1,0h-1.6c-0.2-0.1-0.4-0.2-1-0.4c-0.4-0.1-0.8-0.3-0.9-0.4c-0.4-0.4-0.9-0.5-1.2-0.6l-2.8-0.7c-0.7-0.2-1.4-0.1-2,0.3
		c-0.1,0.1-0.3,0.2-0.4,0.4c-0.9-0.2-2.6-0.3-3.4-0.3c-0.5,0-1.9,0.4-2.4,0.6c-0.5-0.4-1-0.5-1.6-0.5c-0.9,0-1.6,0.5-1.8,0.7
		C8.8,1.3,7.4,3,6.8,3.7l0,0.1C6.7,3.9,6.7,4,6.6,4c-0.8,0-2.6,0.3-4,2.1C1.4,7.8,1.3,9.3,1.3,10c-0.6,0.7-2,2.5-0.9,4.5
		c0.4,0.8,0.9,1.6,1.8,2.1c-0.1,0.8-0.1,1.9-0.1,2.8c-0.5,0.8-1.2,2.2-0.9,3.5c0.1,0.5,0.4,0.9,0.9,1.3v2.3c0,0,0.2,2.2,3.1,2.4
		c2.2,0.2,9.6-1.3,11.8-1.8c-0.1,0.4-0.1,0.7-0.1,1l-0.1,5.4c0,0.8,0.6,1.4,1.4,1.5c0.2,0,0.4,0,0.8,0c4.1,0,19.2-0.8,20-11.8
		c0.7-0.7,1-1.4,1.1-2C40.1,19.8,39.7,18.6,39.5,18.1z M29.1,2.8c0.1,0,0.2,0.1,0.3,0.1h1.7c2.8,0.5,4.4,2.9,4.6,3.4
		c0,0,0.1,0.1,0.1,0.1c2.4,1.2,2.6,2,3.2,4.3l0.1,0.5c0.2,0.6,0.1,1.2-0.1,1.9c-0.5,0.8-1.2,1.2-2,1.7c-0.4,0.3-0.9,0.5-1.3,0.8
		c-1-1-2.8-2-5.3-2c0,0,0-0.1,0-0.1c0-0.1,0-0.2,0-0.3c0.6,0.1,1.5,0.3,2.1,0.3c0.2,0,0.3,0,0.4,0c2-0.4,2.3-2,2.2-2.9l-0.2-3
		c0-0.8-0.4-1.4-0.9-1.9c-0.8-0.6-1.8-0.8-2.7-0.5c-0.9,0.3-4,1.5-5.1,4.3l-1.3-0.4C24.7,9,24.3,8.9,23.8,9c0-0.1,0-0.2,0-0.4
		c2-0.4,4.3-3.3,4.5-5c0-0.4,0-0.8-0.1-1.2C28.6,2.6,29,2.8,29.1,2.8z M22,13.6c-0.1-0.5-0.1-1.1-0.1-1.6c0-0.9,0.5-1.6,1.2-2
		c0.3-0.2,0.7-0.3,1-0.3c0.2,0,0.4,0,0.7,0.1l3.2,1c0.1,0,2,0.6,1.6,2.6c0,0.2-0.1,0.3-0.1,0.5v0c-0.5,1.3-1.9,2.8-3.3,3.6
		c0,0-0.1,0-0.1,0c-0.7,0.4-1.3,0.7-1.8,0.7c-0.1,0-0.2,0-0.3,0c-0.9-0.3-1.8-2.4-2.1-4.5l0,0C22,13.6,22,13.6,22,13.6z M27.1,9.8
		c1.1-2.5,3.8-3.6,4.6-3.8c0.7-0.2,1.5-0.1,2,0.4c0.4,0.3,0.6,0.8,0.7,1.3l0.2,3c0,0.1,0.1,1.8-1.6,2.1c-0.4,0.1-1.7-0.1-2.4-0.3
		c-0.2-1.4-1.4-2.1-2.2-2.4L27.1,9.8z M30.2,14.5c2.7,0,4.3,1.2,4.9,1.7l0,0c-1.3,1.7-4.3,2.9-5.7,3.3c0-0.1-0.1-0.3-0.2-0.5
		c-0.4-0.6-1.1-1.1-1.9-1.3C28.6,16.9,29.7,15.7,30.2,14.5z M29.3,20.4c1.3-0.4,4.8-1.6,6.5-3.7c0.1,0,0.1-0.1,0.2-0.1
		c0,0,0.1-0.1,0.1-0.1c0,0,0.1,0,0.2-0.1c0.4-0.3,0.8-0.5,1.2-0.8c0.4-0.3,0.9-0.5,1.4-0.9v3.1c0,0.1,0,0.2,0,0.2
		c-5.8,7.4-18,8.4-21,8.3l-0.1-4.1c0.4,0.1,0.9,0.1,1.5,0h0c0.2,0,0.4,0,0.7,0c0.6,0,1.4,0,2.3,0.2c0.4,0.1,0.8,0.1,1.2,0.1
		C25.8,22.5,28.4,21.2,29.3,20.4z M21.1,3c0-0.1,0-0.2,0-0.3c0-0.7,0.3-1.3,0.9-1.7c0.4-0.3,0.9-0.3,1.4-0.2l2.8,0.7
		c0.1,0,0.5,0.1,0.8,0.4c0,0,0,0.1,0.1,0.1c0.3,0.3,0.6,0.8,0.5,1.5c-0.2,1.4-2.2,4-3.8,4.3c0-0.9-0.2-1.8-0.4-2.3
		c-0.3-0.6-0.7-1.1-1.2-1.4c0,0,0.1-0.1,0.1-0.2c0-0.2,0-0.4-0.1-0.5h0c-0.1,0-0.3,0.1-0.3,0.4c0,0,0,0.1,0,0.1
		c-0.2-0.1-0.5-0.1-0.8-0.2C21.1,3.6,21.1,3.2,21.1,3z M20.7,4.6c0.9,0,1.6,0.4,2,1.3c0.2,0.4,0.3,1.5,0.3,2.4l0,0l0,0
		c0,0.3,0,0.6,0,0.9c-0.1,0-0.2,0.1-0.3,0.1c-0.9,0.5-1.5,1.5-1.6,2.7c0,0.4,0,0.8,0,1.3c-2.5-0.3-4.8-2.6-5.7-4.2
		c-0.4-0.8-0.5-1.6-0.1-2.4c0.3-0.5,0.7-0.9,1.3-1.1l3.3-1C19.9,4.7,20.3,4.6,20.7,4.6L20.7,4.6z M17.8,1.2c0.7,0,2,0,2.8,0.2
		c-0.2,0.4-0.3,0.8-0.3,1.3c0,0,0,0.1,0,0.3c0,0.3,0,0.6,0,0.8c-0.4,0-0.7,0.1-0.7,0.1l-2.4,0.8c-0.3-0.9-0.8-2.2-1.3-3
		C16.7,1.5,17.5,1.2,17.8,1.2z M12.4,1.9c0,0,0.6-0.6,1.4-0.6c0.4,0,0.8,0.2,1.2,0.5c0.5,0.4,1.2,1.9,1.5,3.2h-0.1
		c-0.8,0.3-1.4,0.8-1.8,1.5c-0.3,0.6-0.4,1.2-0.3,1.9c-0.4,0-1.1,0-1.6-0.3c-0.2-0.5-0.5-1-0.9-1.4c-0.4-0.4-1-0.6-1.5-0.6
		c-0.2,0-0.4,0-0.6,0.1C9.5,5.8,9.5,5.3,9.5,5.2c0-0.5,0.2-1,0.6-1.3L12.4,1.9z M12.5,10.9c0,0.8-0.2,1.3-0.4,1.5
		c-0.1,0.1-0.3,0.2-0.8,0.2c-1.1,0-2.8-0.6-3.7-1.2C7.1,11,6.8,10.4,6.8,9.9c0-0.3,0.1-0.6,0.3-0.8c0,0,0,0,0,0
		c0-0.1,0.1-0.1,0.2-0.2l1.9-1.6c0,0,0.5-0.4,1.1-0.4c0.4,0,0.7,0.1,1,0.4c0.3,0.3,0.5,0.7,0.8,1.2l0,0C12.4,9.2,12.5,10,12.5,10.9z
		 M7.4,4.2L7.4,4.2C7.9,3.5,8.9,2.3,11.1,2L9.6,3.3C9.1,3.8,8.8,4.4,8.8,5.2v0C8.5,5,8,4.7,7.4,4.2C7.4,4.3,7.4,4.2,7.4,4.2z
		 M3.2,6.6C4.4,5,6,4.8,6.7,4.7C7.7,5.5,8.4,6,9,6.2c0,0.1,0.1,0.2,0.1,0.3C8.9,6.6,8.8,6.7,8.7,6.7L6.9,8.3c0,0-0.1,0.1-0.2,0.2
		C4.7,8.2,3,9,2.1,9.5C2.1,8.8,2.3,7.7,3.2,6.6z M1.1,14.1c-0.8-1.6,0.3-3.1,0.9-3.7c0,0,0.1,0,0.2-0.1c0.7-0.4,2.3-1.2,4.1-1.2
		C6.2,9.4,6.1,9.6,6.1,9.9c0,0.8,0.4,1.6,1.1,2.1c1.1,0.8,2.9,1.4,4.2,1.4c0.6,0,1-0.1,1.3-0.4c0.5-0.4,0.6-1.4,0.6-2
		c0-0.6-0.1-1.3-0.3-2c0.4,0.1,0.8,0.1,1.1,0.1c0.2,0,0.4,0,0.4,0c0.1,0.2,0.1,0.3,0.2,0.5c0.8,1.4,2.3,2.9,4,3.8h-0.6
		c-0.1,0-0.1,0-0.2,0c-2,0.6-7.7,1.3-7.8,1.3c-0.1,0-0.2,0-0.3,0.1c-0.3,0.2-2.4,0.5-4.5,0.7c-0.1,0-0.5,0.1-1,0.1
		c-0.6,0.1-1.6,0.2-2,0.3C1.8,15.4,1.5,14.9,1.1,14.1z M2.6,23.6c-0.4-0.3-0.6-0.6-0.7-1c-0.2-0.8,0.2-1.7,0.5-2.4
		c0.7,1,2.1,1.7,2.8,1.6c0.4,0,4.2-0.7,7.6-1.2c1.6-0.3,3-0.5,3.9-0.6c0,0.4,0,0.8,0,1.1c0,0.2,0.1,0.4,0.2,0.5v0.2
		c-1.2,0.6-2.8,0.6-3.6,0.6c-0.8,0-1.6,0-2.4,0.3c-1.1,0.4-2.5,0.5-3.6,0.5c-0.6,0-1.1,0-1.5,0.1c0,0-0.1,0-0.1,0
		C5.7,23.6,4.7,24.1,2.6,23.6z M5.2,28c-2.1-0.2-2.4-1.6-2.4-1.7v-1.9c1.9,0.4,3,0,3.2-0.2c0.4,0,0.8-0.1,1.4-0.1
		c1.2-0.1,2.6-0.1,3.8-0.6c0.7-0.2,1.4-0.2,2.1-0.2c0.8,0,2.3,0,3.6-0.5l0.1,3.5C14.7,26.7,7.3,28.2,5.2,28z M16.8,19.3
		c-0.8,0.1-2.4,0.4-4.2,0.7c-3.2,0.5-7.2,1.1-7.6,1.2c-0.4,0-2-0.7-2.3-1.8c-0.1-1,0-2.2,0.1-2.9c0.4,0,0.9-0.1,1.5-0.2
		c0.5,0,0.9-0.1,1-0.1c0,0,4.1-0.3,4.9-0.8c0,0,0,0,0,0c0,0,5.8-0.8,7.9-1.3h1.2c0,0,0,0,0,0v0l-1.5,2.7
		C17.8,17,17.1,18.1,16.8,19.3z M17.5,19.8C17.5,19.7,17.5,19.7,17.5,19.8c0.3-1.3,1-2.6,1-2.6l1.5-2.7c0.1-0.2,0.1-0.4,0-0.7
		c0.4,0.1,0.8,0.2,1.2,0.2c0.4,2.2,1.3,4.6,2.6,4.9c0.1,0,0.3,0,0.5,0c0.6,0,1.3-0.3,2.1-0.7c1,0.2,1.8,0.7,2.1,1.2
		c0.1,0.1,0.1,0.3,0.1,0.4c-0.8,0.6-3.1,1.9-5.3,1.9c-0.4,0-0.7,0-1-0.1c-1-0.2-1.8-0.2-2.4-0.2c-0.2,0-0.5,0-0.7,0h0
		c-0.2,0-0.4,0-0.5,0c-0.7,0-1,0-1.1-0.2l0,0c-0.1-0.1-0.1-0.1-0.1-0.3C17.4,20.6,17.4,20.2,17.5,19.8z M18.1,34.1
		c-0.4,0-0.7-0.3-0.7-0.7l0-4.4c0.8,0.4,2.6,0.8,6.8-0.2l0,0l0,0c0,0,4.6,0.2,8-2.3l0,0c0.5-0.1,3.1-0.7,4.6-2.9l0,0
		c0.2-0.1,0.4-0.1,0.7-0.1c0.2,0,0.4,0,0.6,0C36.9,34.4,20.1,34.2,18.1,34.1z M39.2,21c0,0.5-0.4,1-0.9,1.6
		c-0.3,0.2-0.6,0.2-0.9,0.2c-0.3,0-0.7,0-1,0.2l-0.1,0c0,0-0.1,0-0.1,0.1l0,0.1c-1.3,2-3.7,2.5-4.1,2.6h0l-0.1,0c0,0-0.1,0-0.1,0
		l0,0c-3.1,2.3-7.4,2.1-7.5,2.1h0c0,0-0.1,0-0.1,0h0c-4.9,1.1-6.2,0.3-6.4,0.1c-0.1,0-0.1-0.1-0.1-0.2c0-0.3,0.1-0.7,0.2-1.1h0
		c3,0.1,15.1-0.9,21.2-8C39.1,19.5,39.3,20.3,39.2,21z"/>
        <ellipse transform="matrix(0.9632 -0.2688 0.2688 0.9632 -1.4032 4.8162)" cx="16.9" cy="7.5" rx="0.3" ry="0.5"/>
        <ellipse transform="matrix(0.9632 -0.2688 0.2688 0.9632 -1.9556 5.1003)" cx="17.6" cy="9.7" rx="0.3" ry="0.5"/>
        <ellipse transform="matrix(0.9632 -0.2688 0.2688 0.9632 -1.1534 5.3515)" cx="19" cy="6.9" rx="0.3" ry="0.5"/>
        <ellipse transform="matrix(0.9632 -0.2688 0.2688 0.9632 -2.3063 5.6528)" cx="19.5" cy="11.2" rx="0.3" ry="0.5"/>
        <ellipse transform="matrix(0.9632 -0.2688 0.2688 0.9632 -1.7086 5.6355)" cx="19.7" cy="9.1" rx="0.3" ry="0.5"/>
        <ellipse transform="matrix(0.9632 -0.2688 0.2688 0.9632 -1.4972 6.1785)" cx="21.8" cy="8.6" rx="0.3" ry="0.5"/>
        <ellipse transform="matrix(0.9632 -0.2688 0.2688 0.9632 -0.9425 5.887)" cx="21" cy="6.4" rx="0.3" ry="0.5"/>
        <ellipse transform="matrix(0.3219 -0.9468 0.9468 0.3219 1.9144 35.6518)" cx="25.8" cy="16.5" rx="0.5" ry="0.3"/>
        <ellipse transform="matrix(0.3219 -0.9468 0.9468 0.3219 6.9465 35.3)" cx="28.1" cy="12.8" rx="0.5" ry="0.3"/>
        <ellipse transform="matrix(0.3219 -0.9468 0.9468 0.3219 4.4656 36.2249)" cx="27.5" cy="15" rx="0.5" ry="0.3"/>
        <ellipse transform="matrix(0.3219 -0.9468 0.9468 0.3219 6.2987 32.9211)" cx="26.1" cy="12.1" rx="0.5" ry="0.3"/>
        <ellipse transform="matrix(0.3219 -0.9468 0.9468 0.3219 3.8172 33.8485)" cx="25.5" cy="14.3" rx="0.5" ry="0.3"/>
        <ellipse transform="matrix(0.3219 -0.9468 0.9468 0.3219 1.2435 33.5901)" cx="24.1" cy="15.9" rx="0.5" ry="0.3"/>
        <ellipse transform="matrix(0.3219 -0.9468 0.9468 0.3219 5.4776 30.4692)" cx="24" cy="11.4" rx="0.5" ry="0.3"/>
        <ellipse transform="matrix(0.3219 -0.9468 0.9468 0.3219 3.0111 31.4461)" cx="23.5" cy="13.6" rx="0.5" ry="0.3"/>
        <ellipse transform="matrix(0.9994 -3.399368e-02 3.399368e-02 0.9994 -0.3634 1.1168)" cx="32.7" cy="11.2" rx="0.4" ry="0.3"/>
        <ellipse transform="matrix(0.9994 -3.398214e-02 3.398214e-02 0.9994 -0.3008 1.116)" cx="32.7" cy="9.4" rx="0.4" ry="0.3"/>
        <ellipse transform="matrix(0.9994 -3.399372e-02 3.399372e-02 0.9994 -0.2345 1.1113)" cx="32.6" cy="7.5" rx="0.4" ry="0.3"/>
        <ellipse transform="matrix(0.9994 -3.399467e-02 3.399467e-02 0.9994 -0.2873 0.9858)" cx="28.8" cy="8.9" rx="0.4" ry="0.3"/>
        <ellipse transform="matrix(0.9994 -3.399467e-02 3.399467e-02 0.9994 -0.243 1.043)" cx="30.6" cy="7.7" rx="0.4" ry="0.3"/>
        <ellipse transform="matrix(0.9994 -3.398214e-02 3.398214e-02 0.9994 -0.3089 1.048)" cx="30.7" cy="9.6" rx="0.4" ry="0.3"/>
        <ellipse transform="matrix(0.9994 -3.399372e-02 3.399372e-02 0.9994 -0.365 1.0464)" cx="30.6" cy="11.3" rx="0.4" ry="0.3"/>
        <path d="M24.5,5.8C24.4,5.8,24.4,5.8,24.5,5.8c-0.2,0-0.3,0.1-0.4,0.4c0,0.2,0,0.4,0.1,0.5h0c0.1,0,0.3-0.1,0.3-0.4
		S24.6,5.9,24.5,5.8z"/>
        <path d="M25.9,3.5C25.9,3.5,26,3.5,25.9,3.5c0.2,0,0.3-0.1,0.4-0.4c0-0.2,0-0.4-0.1-0.5h0c-0.1,0-0.3,0.1-0.3,0.4
		C25.8,3.2,25.8,3.5,25.9,3.5z"/>
        <path d="M25.5,5.4C25.6,5.4,25.6,5.4,25.5,5.4c0.2,0,0.3-0.1,0.4-0.4c0-0.2,0-0.4-0.1-0.5h0c-0.1,0-0.3,0.1-0.3,0.4
		C25.4,5.1,25.4,5.3,25.5,5.4z"/>
        <path d="M24.3,3C24.3,3,24.3,3,24.3,3c0.2,0,0.3-0.1,0.4-0.4c0-0.2,0-0.4-0.1-0.5h0c-0.1,0-0.3,0.1-0.3,0.4C24,2.7,24.1,2.9,24.3,3
		z"/>
        <path d="M23.9,4.8C23.9,4.8,23.9,4.8,23.9,4.8c0.2,0,0.3-0.1,0.4-0.4s0-0.4-0.1-0.5h0c-0.1,0-0.3,0.1-0.3,0.4
		C23.7,4.6,23.7,4.8,23.9,4.8z"/>
        <path d="M22.5,2.5L22.5,2.5c0.2,0,0.3-0.1,0.4-0.4c0-0.2,0-0.4-0.1-0.5h0c-0.1,0-0.3,0.1-0.3,0.4C22.3,2.3,22.3,2.5,22.5,2.5z"/>
        <ellipse transform="matrix(0.7747 -0.6323 0.6323 0.7747 -2.7258 8.2528)" cx="10.2" cy="8" rx="0.2" ry="0.4"/>
        <ellipse transform="matrix(0.7747 -0.6323 0.6323 0.7747 -4.5404 7.1548)" cx="7.8" cy="9.9" rx="0.2" ry="0.4"/>
        <ellipse transform="matrix(0.7747 -0.6323 0.6323 0.7747 -5.0181 8.1482)" cx="8.9" cy="11.1" rx="0.2" ry="0.4"/>
        <ellipse transform="matrix(0.7747 -0.6323 0.6323 0.7747 -3.6007 7.6961)" cx="9" cy="8.9" rx="0.2" ry="0.4"/>
        <ellipse transform="matrix(0.7747 -0.6323 0.6323 0.7747 -4.0987 8.6723)" cx="10.1" cy="10.1" rx="0.2" ry="0.4"/>
        <ellipse transform="matrix(0.7748 -0.6323 0.6323 0.7748 -4.9703 9.3319)" cx="10.6" cy="11.6" rx="0.2" ry="0.4"/>
        <ellipse transform="matrix(0.7747 -0.6323 0.6323 0.7747 -4.2022 9.7583)" cx="11.6" cy="10.8" rx="0.2" ry="0.4"/>
        <ellipse transform="matrix(0.7747 -0.6323 0.6323 0.7747 -3.2346 9.256)" cx="11.4" cy="9.2" rx="0.2" ry="0.4"/>
        <path d="M15.5,4.7c0,0,0.1,0,0.1,0c0.1-0.1,0.1-0.3-0.1-0.5c-0.1-0.1-0.3-0.2-0.4-0.2c0,0-0.1,0-0.1,0C14.9,4,15,4.2,15.1,4.4
		C15.3,4.6,15.5,4.7,15.5,4.7z"/>
        <path d="M14.1,3.2c0,0,0.1,0,0.1,0c0.1-0.1,0.1-0.3-0.1-0.5c-0.1-0.1-0.3-0.2-0.4-0.2c0,0-0.1,0-0.1,0c-0.1,0.1-0.1,0.3,0.1,0.5
		C13.9,3.2,14,3.2,14.1,3.2z"/>
        <path d="M14.1,5.8c0,0,0.1,0,0.1,0c0.1-0.1,0.1-0.3-0.1-0.5C14,5.1,13.9,5,13.8,5c0,0-0.1,0-0.1,0c-0.1,0.1-0.1,0.3,0.1,0.5
		C13.9,5.8,14,5.8,14.1,5.8z"/>
        <path d="M12.7,4.4c0,0,0.1,0,0.1,0c0.1-0.1,0.1-0.3-0.1-0.5c-0.1-0.1-0.3-0.2-0.4-0.2c0,0-0.1,0-0.1,0c-0.1,0.1-0.1,0.3,0.1,0.5
		C12.4,4.4,12.6,4.4,12.7,4.4z"/>
        <path d="M11.3,5.7c0,0,0.1,0,0.1,0c0.1-0.1,0.1-0.3-0.1-0.5c-0.1-0.1-0.3-0.2-0.4-0.2c0,0-0.1,0-0.1,0c-0.1,0.1-0.1,0.3,0.1,0.5
		C11,5.7,11.2,5.7,11.3,5.7z"/>
        <path d="M12.7,7.1c0,0,0.1,0,0.1,0c0.1-0.1,0.1-0.3-0.1-0.5c-0.1-0.1-0.3-0.2-0.4-0.2c0,0-0.1,0-0.1,0c-0.1,0.1-0.1,0.3,0.1,0.5
		C12.4,7,12.6,7.1,12.7,7.1z"/>
    </symbol>


    <symbol id="symbol-cake-6" viewBox="0 0 40 35">

    </symbol>

</svg>