<svg xmlns="http://www.w3.org/2000/svg" viewBox="0 0 85.52 109.63"><path d="M12.34,34a4.08,4.08,0,0,0,2.49-.18,3,3,0,0,0,1-.65,2.89,2.89,0,0,0,.61-2.87c-.72-2.73-8.18-5.38-9-5.68L6,24.14l3.07,6.27C9.24,30.81,10.42,33.53,12.34,34Zm2.91-3.39a1.68,1.68,0,0,1-.3,1.71,2.55,2.55,0,0,1-2.32.5c-1.15-.28-2.15-2.18-2.44-2.88v0L8.41,26.3C11.3,27.44,14.89,29.26,15.25,30.61Z" transform="translate(0 -0.45)" fill="#201600"/><path d="M47.15,20.34a2.52,2.52,0,0,0,1-.19,3.23,3.23,0,0,0,1.5-1.37c1.45-2.42-1.85-9.62-2.23-10.43L46.77,7l-2.35,6.57c-.17.4-1.3,3.14-.29,4.85A3.75,3.75,0,0,0,47.15,20.34ZM45.54,14l1.37-3.81c1.2,2.87,2.4,6.71,1.68,7.91a1.68,1.68,0,0,1-1.43,1,2.55,2.55,0,0,1-2-1.32C44.57,16.79,45.24,14.75,45.54,14Z" transform="translate(0 -0.45)" fill="#201600"/><path d="M76.05,18.48l-4.86-.6-1.44-5.94a.61.61,0,0,0-1.16-.08l-2.22,5.56-5.49-.9a.61.61,0,0,0-.56,1L64.19,22,61.88,27a.61.61,0,0,0,.83.8L67,25.52l.67,23.18a23.62,23.62,0,0,0-5.9.66L57.23,33.73a.58.58,0,0,0-.07-.15h0c-.11-.17-1.13-1.67-4.77-1.94a20.64,20.64,0,0,0-4.59.25l-.54-10L46,22l.55,10.12a59.7,59.7,0,0,0-11.2,3.59L27.17,15.53l5,1.5a.61.61,0,0,0,.68-.92L29.11,10.6l2.68-6a.61.61,0,0,0-.13-.69.62.62,0,0,0-.69-.1l-5.4,2.71L20.65.67a.61.61,0,0,0-.7-.17h0a.61.61,0,0,0-.37.63l.81,7.46-6.1,1.92a.62.62,0,0,0-.43.57.61.61,0,0,0,.41.58l6.39,2.16.73,6.84a.61.61,0,0,0,1.12.27l3.41-5.27,8.37,20.52-1.83.8a76.68,76.68,0,0,0-10.23,5.41l-4.78-6.81-1,.7,4.77,6.8c-2.91,2.05-4.49,3.91-4.71,5.55A2.22,2.22,0,0,0,17,50.52l8,13.22a17.78,17.78,0,0,0-3.16,3.07l-10-8.3,5.06-2.05h0a.61.61,0,0,0-.1-1.16L11,54l-.34-5.34a.61.61,0,0,0-1.11-.31L6.67,52.6.82,50.47a.61.61,0,0,0-.72.9L3.63,57,.29,60.39a.61.61,0,0,0,.59,1L6,60.05,8.67,65.6a.61.61,0,0,0,.63.34l.16,0a.61.61,0,0,0,.36-.45L11,59.37,21.13,67.8c-2.69,4.17-1.36,7.55-1.28,7.74l0,0h0l.08.13,11.36,19c-.71,0-1.42,0-2.14-.05-2.29-.1-4.57-.28-6.86-.47a7,7,0,0,0,2.3-1.35c.68-.63,1.57-1.78,1-2.74-1.63-2.62-6,2.72-7,3.72a.86.86,0,0,0-.13.17,13.71,13.71,0,0,1-2.6-.41c-.94-.26-1.67,1.16-.66,1.44a16.55,16.55,0,0,0,3.28.5,7.63,7.63,0,0,0,1.43,3.87c.67.81,1.82,1.74,2.86,1,1.77-1.32-.65-3.27-1.53-4.67,1.67.1,3.33.26,5,.38,1.29,2.2,2.94,6.7,6.17,6.34a.86.86,0,0,0,.72-.68c.45-2.69-1.64-4-3.48-5.5.84,0,1.69,0,2.53,0l5,8.43c.28.46,7.15,11.11,31,1.2,9.44-3.92,13.62-9.33,15.46-13.19a16,16,0,0,0,1.75-7.62.59.59,0,0,0,0-.12c-.06-.21-6.09-21.06-8-32-.05-.35-.1-.57-.11-.61l0,0A2.77,2.77,0,0,0,76,50.78a15.64,15.64,0,0,0-7.11-2L68.2,25.61l3.17,3.26A.61.61,0,0,0,72,29h0a.61.61,0,0,0,.37-.58l-.17-5.8,4.09-3.06a.61.61,0,0,0-.29-1.09ZM21.83,13.31a.61.61,0,0,0-.41-.51l-5-1.69,4.8-1.51A.61.61,0,0,0,21.65,9L21,3l3.93,4.7a.61.61,0,0,0,.74.15L30,5.69l-2.12,4.73a.61.61,0,0,0,.05.59l3,4.37L26.1,13.94a.61.61,0,0,0-.69.25l-3,4.63ZM9,63.4,6.92,59.08a.61.61,0,0,0-.7-.33l-3.52.92,2.14-2.18a.61.61,0,0,0,.08-.75L2.07,52.22,6.69,53.9a.61.61,0,0,0,.71-.23l2.2-3.19.25,4a.61.61,0,0,0,.47.56l4.34,1-4.33,1.76a.61.61,0,0,0-.37.45ZM24.06,91.14c.24.4-1.41,1.25-2.17,1.59C22.89,91.78,23.91,90.9,24.06,91.14Zm-3,7a3.84,3.84,0,0,1-.41-.73,7.86,7.86,0,0,1,.78,1.11l0,.09A3.83,3.83,0,0,1,21,98.15Zm10.53,2.59A6.16,6.16,0,0,1,29.9,99a9.37,9.37,0,0,1-1-1.51C30.12,98.43,31.37,99.41,31.57,100.74ZM17.9,49.68h0a1,1,0,0,1-.21-.89c.1-.73.8-2.28,4.21-4.7l.65.93,1-.7-.64-.91a74.25,74.25,0,0,1,10-5.3l1.79-.79,3,7.27,1.13-.46-3-7.28a58.64,58.64,0,0,1,10.81-3.49l.24,4.38,1.22-.07-.25-4.53c5.86-.93,7.79.61,8.17,1,0,1-.86,7-18.15,13.24C21,53.43,18,49.83,18,49.81A.59.59,0,0,0,17.9,49.68Zm20.4-1.16c13-4.68,17.14-9.4,18.41-12.19L63.5,59.76l0,.07s1.53,4.23-11,10.29a32.38,32.38,0,0,1-14.84,3.35,23.49,23.49,0,0,1-5.9-.83L19.2,51.75C21.78,52.46,27.2,52.5,38.31,48.51Zm46,36.7c0,.89.27,12.59-16.47,19.53-22.84,9.48-29.47-.61-29.53-.7l-4.67-7.81c1.59,0,3.18-.1,4.77-.23v0c.57,2.08,8.15,6,7.66,2.33-.17-1.24-1.88-2.26-3.31-2.86A98.8,98.8,0,0,0,53.4,93.34a.76.76,0,0,0,.38.38c.6.29,1.13,1.07,1.67,1.49A15.93,15.93,0,0,0,58,96.82a4.36,4.36,0,0,0,3.6.59.82.82,0,0,0,.52-.82c-.26-2.87-3.71-3-5.85-4a53.18,53.18,0,0,0,5.78-2,24.61,24.61,0,0,0,2.91-1.42c.6-.35,1.15-.83,1.76-1.18l-.57,4.93a.61.61,0,0,0,1.1.42l3.91-5.51L78,90.34a.61.61,0,0,0,.65-1L74,84.55,79.88,79a.61.61,0,0,0,.09-.78.6.6,0,0,0-.75-.22l-7.29,3.24L69.4,74.57a.61.61,0,0,0-1.18.17l-.56,8-6.72.26a.61.61,0,0,0-.21,1.17l5.37,2.26c-1.37.64-2.59,1.73-4,2.35a51,51,0,0,1-6.35,2.29l-.47.13c.67-1.37,1.77-3.57.79-4.81-1.17-1.49-2.88,0-3.17,1.32a7.31,7.31,0,0,0,.29,4.06,95.52,95.52,0,0,1-11,2.2l-.87.11c1.12-1.74,2.51-4.41.27-5.17-2.66-.91-3.16,3.68-3,5.22l0,.26c-2,.18-3.93.26-5.9.28L22.77,78.08c3.62,1.92,11.41,3.64,27.45-.39a69.49,69.49,0,0,0,9.62-3.14C66.24,71.9,72.39,68,75.53,62.15a16.94,16.94,0,0,0,1.64-4.37C79.58,68.82,84,84.09,84.29,85.22ZM43.16,97.59c.31.19.59.43.88.63a1.09,1.09,0,0,1,.26.25,4.65,4.65,0,0,1-1.81-.81,12.76,12.76,0,0,1-1.73-1.14,2.27,2.27,0,0,1,.42.09A10,10,0,0,1,43.16,97.59Zm-3-4.25c0-.24,0-.44,0-.52,0-.62.72-2.91.85-1.37A3,3,0,0,1,40.19,93.34Zm14.17-3.89a4,4,0,0,1,.12-1.13c.29-1.12.13.46-.05,1ZM57,94.36c1.33.44,2.66.9,3.21,1.74A5.61,5.61,0,0,1,57,94.36ZM71.36,82.63a.59.59,0,0,0,.48,0l4.59-2-3.73,3.5a.61.61,0,0,0,0,.87l3.18,3.3-4.72-1.79a.61.61,0,0,0-.71.22l-2.81,4,.48-4.16a.61.61,0,0,0-.37-.63l-4-1.68L68.26,84a.61.61,0,0,0,.58-.57l.4-5.82L71,82.28A.61.61,0,0,0,71.36,82.63Zm3.85-30.91c.7.43.91.75.92.83l.09.48a14.24,14.24,0,0,1-1.81,8.63C69.85,70,58.58,74.33,49.93,76.51c-23.59,5.92-28.6-.89-29-1.45v0c-.14-.37-1-3.06,1.12-6.45l3.43,2.85.78-.94-3.51-2.92a16.35,16.35,0,0,1,2.86-2.8l5.24,8.69a.61.61,0,0,0,.32.26c.37.13,8.83,3,19.9-1.63q1-.4,2-.89C66.27,64.83,65,60.11,64.66,59.38L62.1,50.53a22,22,0,0,1,5.6-.61l.43,14.74,1.22,0L68.91,50A15.17,15.17,0,0,1,75.21,51.72ZM71.27,21.84a.61.61,0,0,0-.24.5l.13,4.56-2.87-3a.61.61,0,0,0-.67-.14l-.05,0-3.82,2,1.71-3.66a.61.61,0,0,0-.09-.65l-3-3.55,4.33.71a.61.61,0,0,0,.66-.37L69,14.08l1.09,4.49a.61.61,0,0,0,.52.46l3.78.47Z" transform="translate(0 -0.45)" fill="#201600"/></svg>