<svg xmlns="http://www.w3.org/2000/svg" viewBox="0 0 142.68 180.24"><title>cake-brownie</title><path d="M142.31,89.07a53.61,53.61,0,0,0-8.26-29.67c-6-9.47-17.54-18.4-16.51-30.6q1.85-2.54,3.93-4.9l.09-.1a1,1,0,0,0,.47-.52l0,0a1.11,1.11,0,0,0,0-1.55,1.07,1.07,0,0,0-1.7-.72l-.18.14c-5.74-.38-10.74,2.53-15.42,5.51A56.15,56.15,0,0,1,88,34.08a13.58,13.58,0,0,0-5.26-7.64,12.31,12.31,0,0,0,6.55-6.15c.42-.86-.39-2.06-1.39-1.66a24.8,24.8,0,0,1-18.4.09l7.6-15.09a1.19,1.19,0,0,0-.79-1.69L71.73.4a1.18,1.18,0,0,0-1.39.9,109,109,0,0,1-7.58,19,26.33,26.33,0,0,1-14.48-4.45c-1-.67-2.1.73-1.54,1.66a17.71,17.71,0,0,0,4,4.63c-5.13,1.42-8.51,5.94-10.12,11.08a1.26,1.26,0,0,0-.37,0c-11.71,2.82-25.05,7.57-28.57,20.51C8.42,65.85,18.25,76.29,26.34,83.9v0q-12,26.83-25.45,52.94a1.23,1.23,0,0,0-.11.33A1.28,1.28,0,0,0,.65,139a155.49,155.49,0,0,0,53.68,40.79,1.16,1.16,0,0,0,1.49-.44,1.24,1.24,0,0,0,.39-.24q22-19.81,42.06-41.72a11.41,11.41,0,0,0,10.08.07,1,1,0,0,0,.49-.45A53.41,53.41,0,0,0,142.31,89.07ZM103.7,55.84C101.15,68.77,100.5,82.43,93,93.76c-6.12,9.31-17,13.85-27.79,14.67a48.23,48.23,0,0,1-16.33-1.66c-5.42-1.48-11.63-5.79-10.54-12a23.75,23.75,0,0,0,7.34-1.5c5.23-1.9,10.05-5.19,14.8-8C65.82,82.08,71,78.75,76,75.09A98.09,98.09,0,0,0,99.16,50.76c4.71-6.94,9.08-14.3,14.65-20.57A73.12,73.12,0,0,0,103.7,55.84Zm-.62-25.42c2.88-1.71,5.71-3.7,8.72-5.13-3.27,2.71-6,6.44-8.34,9.54C98.71,41,93.23,48,85.3,49.69a25,25,0,0,0,3.15-12.63c0-.23,0-.46-.06-.69A52.9,52.9,0,0,0,103.09,30.42ZM62.56,22.65a1.14,1.14,0,0,0,1.71-.19,1.11,1.11,0,0,0,.46-.87A112.27,112.27,0,0,0,72.24,3l2.15.72-7.56,15a1.18,1.18,0,0,0,.49,1.58,27.2,27.2,0,0,0,18,1.58A9.86,9.86,0,0,1,72.17,23a1.17,1.17,0,0,0-1.6,1.71,45.8,45.8,0,0,1,5.25,7.69,21,21,0,0,1-7-7.82,1.18,1.18,0,0,0-2,.08v0a1.19,1.19,0,0,0-1.5-1.18A15.57,15.57,0,0,1,53,20.88,28.68,28.68,0,0,0,62.56,22.65Zm2.95,4a13.68,13.68,0,0,1-1.74,1.8C64.36,27.86,64.95,27.26,65.5,26.64ZM53.55,24h.08a18.26,18.26,0,0,0,9.11,2.12,30,30,0,0,1-7.93,5.74c-1.09.55-.43,2.21.68,2.16a16.06,16.06,0,0,0,12.33-6.59A23,23,0,0,0,78,36.29c.83.37,2.12-.37,1.66-1.39a49.79,49.79,0,0,0-4.49-8,12.43,12.43,0,0,0,4.46.31,1.12,1.12,0,0,0,.45.38c4.21,2,6.08,6.47,6.1,11,0,4.13-1.78,8.09-3.81,11.68a1.16,1.16,0,0,0-.47.82l-.69,1.16A56.5,56.5,0,0,1,72.73,63,40.57,40.57,0,0,1,67,67.73c-.85.58-1.74,1.1-2.64,1.61q-.68.38-1.37.72c-1.47.75-2-.5-2.74-1.35l-9.9-11.5c-3.16-3.67-6.31-7.32-7.76-12C40.17,37.34,43.94,24.62,53.55,24ZM13.83,55C16,42.89,29.56,38.31,40,35.72a22.8,22.8,0,0,0-.22,7.77,18.36,18.36,0,0,0,.83,3.27c-5.9,3.4-9.11,10-11.33,16.14a46.5,46.5,0,0,0-2.54,18.17C19.53,74.18,12,65.71,13.83,55ZM31.1,64.92c1.79-6,5-12.6,10.45-16A39.14,39.14,0,0,0,47.1,57c4.29,5.09,8.52,10.39,13.12,15.2,1.5,1.57,4-.14,5.37-.9a39.68,39.68,0,0,0,6.57-4.62A55.06,55.06,0,0,0,83.26,53.31l.62-1c7.21-.84,12.9-5.63,17.48-11,3-3.58,5.7-7.47,8.81-11A27.76,27.76,0,0,1,114,26.63c-4.9,5.06-8.9,11-12.79,16.87C95.26,52.5,89.21,61,81,68.07S63.52,80.82,54.2,86.26c-4.69,2.74-9.45,5.65-15,6.13a10.77,10.77,0,0,1-1.09,0,1.36,1.36,0,0,0-1-.06c-4-.39-8.45-2.71-8.55-6.86a1,1,0,0,0,.85-1.15A47,47,0,0,1,31.1,64.92ZM104.73,136a1.2,1.2,0,0,0-.41.22,9.11,9.11,0,0,1-4.72-.8,1.18,1.18,0,0,0-2-.76Q77.81,156.4,56,176.14c-.25-1.72-.51-3.44-.81-5.15-.26-1.47-2.6-1.38-2.34.11.34,1.92.64,3.85.9,5.78a153.65,153.65,0,0,1-25.61-15.37q1.65-3.4,3.47-6.71c.73-1.32-1.35-2.41-2.08-1.09q-1.73,3.14-3.3,6.36A154,154,0,0,1,2.92,138L3,138q3.18-6.15,6.27-12.34a1.25,1.25,0,0,0,.36,0l7.4-.12c1.51,0,1.4-2.36-.11-2.34l-6.51.1Q19,106,26.91,88.36a10.62,10.62,0,0,0,4.46,4.8A12,12,0,0,0,36,94.67c-.62,4.36,1.78,8.73,5.4,11.21,4.95,3.39,11.23,4.44,17.11,4.89,10.82.83,22-2,30.47-9,10.77-8.91,13.42-23.66,15.5-36.69,1.2-7.48,2.45-14.93,5.2-22a60,60,0,0,1,2.9-6.36,75.8,75.8,0,0,0-.16,9.25A46.16,46.16,0,0,0,115,60.43c1.78,4.94,3.77,9.56,4.4,14.84,1.12,9.38-1.25,19-4.91,27.54-3.8,8.93-10.37,19-21.32,18.69-1.51,0-1.39,2.29.11,2.34,9.28.3,16.16-6.56,20.44-14.1a64.36,64.36,0,0,0,8.2-27.25,42.85,42.85,0,0,0-1.31-13.38c-1.31-5.09-3.88-9.74-5-14.9s-1-10.47-.86-15.6a29.7,29.7,0,0,1,.64-5.27c1.3,8.1,7.25,15,12.34,21.4A53.39,53.39,0,0,1,139.89,85C141.4,107.81,126.35,129,104.73,136Z" transform="translate(0)"/><path d="M38.75,171.89A156.6,156.6,0,0,1,.38,139.2,1.63,1.63,0,0,1,.45,137a1.54,1.54,0,0,1,.12-.32C9.48,119.48,18,101.74,25.93,84c-9.45-8.91-17.7-18.75-14.56-30.32,3.56-13.11,17.28-18,28.83-20.76l.2,0C42.17,27.4,45.66,23.48,50,22a18,18,0,0,1-3.62-4.3,1.61,1.61,0,0,1,.32-2,1.3,1.3,0,0,1,1.71-.17A25.89,25.89,0,0,0,62.53,20,109.17,109.17,0,0,0,70,1.2a1.77,1.77,0,0,1,.85-1,1.25,1.25,0,0,1,1-.09L76.4,1.61a1.71,1.71,0,0,1,1.06.95,1.47,1.47,0,0,1-.07,1.24L70,18.53a24.5,24.5,0,0,0,17.77-.23,1.35,1.35,0,0,1,1.54.36,1.64,1.64,0,0,1,.3,1.79,12.78,12.78,0,0,1-6.15,6.08,13.93,13.93,0,0,1,4.79,7.13,55.56,55.56,0,0,0,16.35-7.35c4.92-3.13,9.8-5.9,15.5-5.57l.08-.06a1.33,1.33,0,0,1,1.27-.22,1.61,1.61,0,0,1,1,1.06,1.45,1.45,0,0,1,0,2,1.21,1.21,0,0,1-.54.6l0,.05c-1.33,1.51-2.63,3.13-3.85,4.8-.67,8.55,5,15.5,10.42,22.23a85.56,85.56,0,0,1,6,8.06,54.11,54.11,0,0,1,8.31,29.87,53.44,53.44,0,0,1-33.58,48.19,1.4,1.4,0,0,1-.59.48,11.7,11.7,0,0,1-10.15,0C85.08,152.31,71,166.29,56.45,179.35a1.6,1.6,0,0,1-.4.26,1.51,1.51,0,0,1-1.87.47A154.46,154.46,0,0,1,38.75,171.89ZM48,16.13a.63.63,0,0,0-.8.11A.91.91,0,0,0,47,17.33a17.32,17.32,0,0,0,4,4.54l.54.43-.66.18c-4.51,1.25-8.11,5.21-9.88,10.84l-.08.26-.28,0a.91.91,0,0,0-.27,0C28.3,36.5,15.5,41.17,12.05,53.86,9,65.14,17.22,74.84,26.58,83.64l.14.13-.06.31c-7.94,17.82-16.51,35.64-25.46,53a.87.87,0,0,0-.08.24l0,.11-.08.08a.93.93,0,0,0-.1,1.28,155.92,155.92,0,0,0,53.56,40.7.81.81,0,0,0,1-.31l.06-.09.1,0a.88.88,0,0,0,.28-.17c14.59-13.11,28.73-27.14,42-41.7l.18-.2.24.12a11,11,0,0,0,9.77.06.67.67,0,0,0,.33-.29l.06-.12.12,0A52.73,52.73,0,0,0,142,89.06h0a53.4,53.4,0,0,0-8.2-29.48,85.1,85.1,0,0,0-6-8c-5.56-6.86-11.31-14-10.57-22.83v-.1l.06-.08c1.25-1.72,2.58-3.37,4-4.93l.2-.18a.62.62,0,0,0,.3-.34l0-.06,0,0a.77.77,0,0,0,0-1.11l-.08-.15a.92.92,0,0,0-.53-.65.63.63,0,0,0-.61.12l-.28.21h-.13c-5.55-.37-10.36,2.37-15.21,5.46a56,56,0,0,1-16.89,7.52l-.34.08-.09-.33a13.17,13.17,0,0,0-5.12-7.44L82,26.36l.62-.24a12,12,0,0,0,6.36-6,.93.93,0,0,0-.18-1A.65.65,0,0,0,88,19,25.19,25.19,0,0,1,69.34,19L69,18.91,76.76,3.47a.76.76,0,0,0,0-.65,1,1,0,0,0-.63-.54L71.61.74a.56.56,0,0,0-.45,0,1.07,1.07,0,0,0-.49.62,109.82,109.82,0,0,1-7.61,19.07l-.1.19h-.22a26.57,26.57,0,0,1-14.68-4.51ZM39.83,169.81q-6.16-3.73-11.93-8l-.24-.18.13-.26c1.11-2.29,2.28-4.55,3.48-6.73a.69.69,0,0,0,0-.73,1,1,0,0,0-.81-.44.74.74,0,0,0-.65.42c-1.12,2-2.23,4.18-3.29,6.35l-.19.39-.34-.26A154.6,154.6,0,0,1,2.65,138.27l-.17-.19.13-.22c2.15-4.15,4.26-8.3,6.31-12.39l.13-.26.28.08a.9.9,0,0,0,.26,0l7.4-.12a.7.7,0,0,0,.55-.24.83.83,0,0,0,.18-.55.81.81,0,0,0-.83-.85l-7.09.11.26-.52c5.73-11.53,11.29-23.29,16.53-34.95l.33-.73.32.73a10.3,10.3,0,0,0,4.31,4.64,11.69,11.69,0,0,0,4.52,1.46l.36,0-.05.36a11.57,11.57,0,0,0,5.25,10.87c5.13,3.52,11.74,4.43,16.93,4.83,11.29.87,22.3-2.39,30.21-8.92,11-9.08,13.53-24.92,15.38-36.48,1.34-8.33,2.57-15.25,5.22-22.1a60.53,60.53,0,0,1,2.92-6.4l.83-1.58L113,36.72a75.77,75.77,0,0,0-.16,9.2,45.7,45.7,0,0,0,2.56,14.39c.3.84.61,1.66.92,2.49a53.35,53.35,0,0,1,3.5,12.43c1,8.35-.66,17.68-4.94,27.73-5.46,12.83-12.75,19.19-21.65,18.9a.65.65,0,0,0-.71.68.88.88,0,0,0,.84,1c10.44.34,17.09-8.58,20.12-13.92a64.34,64.34,0,0,0,8.15-27.1,42.39,42.39,0,0,0-1.3-13.27,61.7,61.7,0,0,0-2.35-6.86,54,54,0,0,1-2.64-8.05c-1.14-5.26-1-10.86-.87-15.69a30,30,0,0,1,.65-5.33l.4-1.82.3,1.84c1.21,7.51,6.58,14.17,11.32,20.06l.95,1.18A53.74,53.74,0,0,1,140.24,85c1.5,22.67-13.39,44.26-35.41,51.35h0a.84.84,0,0,0-.29.16l-.08.07h-.11a9.49,9.49,0,0,1-4.9-.83l-.19-.09,0-.21a.94.94,0,0,0-.63-.77.69.69,0,0,0-.78.22c-13.1,14.41-27.1,28.38-41.64,41.52l-.49.45-.09-.66c-.28-2-.54-3.6-.81-5.14a.89.89,0,0,0-.59-.7.94.94,0,0,0-.89.1.58.58,0,0,0-.17.58c.32,1.79.61,3.68.9,5.79l.09.65-.59-.28A154.65,154.65,0,0,1,39.83,169.81Zm-11.27-8.4a153.6,153.6,0,0,0,24.72,14.87c-.26-1.84-.53-3.52-.81-5.11a1.27,1.27,0,0,1,.41-1.25,1.63,1.63,0,0,1,1.58-.22,1.59,1.59,0,0,1,1,1.24c.24,1.37.47,2.82.72,4.5,14.34-13,28.16-26.8,41.09-41a1.41,1.41,0,0,1,1.53-.42,1.67,1.67,0,0,1,1.07,1.17,8.77,8.77,0,0,0,4.26.71,1.57,1.57,0,0,1,.43-.22h0c21.71-7,36.4-28.28,34.92-50.62A53,53,0,0,0,127.48,55l-.95-1.18c-4.41-5.48-9.37-11.64-11.09-18.58a31.08,31.08,0,0,0-.31,3.42C115,43.4,114.87,49,116,54.13a53.59,53.59,0,0,0,2.61,7.95A62.33,62.33,0,0,1,121,69a43.11,43.11,0,0,1,1.32,13.5,65,65,0,0,1-8.24,27.41c-3.11,5.48-10,14.63-20.76,14.28a1.58,1.58,0,0,1-1.53-1.68,1.34,1.34,0,0,1,1.44-1.37c8.58.28,15.64-5.93,21-18.47,4.23-9.93,5.87-19.14,4.88-27.36A52.8,52.8,0,0,0,115.6,63c-.31-.83-.62-1.65-.92-2.49a46.39,46.39,0,0,1-2.6-14.61c-.07-2.3-.12-4.91,0-7.52-.77,1.57-1.47,3.16-2.09,4.75-2.62,6.78-3.85,13.66-5.18,22C103,76.8,100.42,92.78,89.22,102c-8,6.65-19.25,10-30.72,9.09-5.28-.4-12-1.34-17.28-4.95A12.35,12.35,0,0,1,35.63,95a12.26,12.26,0,0,1-4.44-1.5,11.32,11.32,0,0,1-4.27-4.27C21.85,100.46,16.48,111.81,11,123l5.93-.09a1.52,1.52,0,0,1,1.55,1.54,1.54,1.54,0,0,1-.34,1,1.39,1.39,0,0,1-1.09.49L9.6,126H9.43c-2,4-4,8-6.09,12a154,154,0,0,0,22.74,21.54c1-2,2.05-4.06,3.12-6a1.45,1.45,0,0,1,1.26-.78,1.66,1.66,0,0,1,1.43.78,1.4,1.4,0,0,1,0,1.43C30.75,157.06,29.63,159.22,28.56,161.41ZM43.79,105C40,102.67,37.26,99.1,38,94.72l.05-.29h.29a23.45,23.45,0,0,0,7.23-1.48,67.61,67.61,0,0,0,11.91-6.28c.95-.58,1.89-1.16,2.83-1.72,5.94-3.55,11-6.87,15.44-10.15A97.52,97.52,0,0,0,98.87,50.56c1.15-1.7,2.28-3.42,3.42-5.15a133.06,133.06,0,0,1,11.26-15.46l.56.43A72.93,72.93,0,0,0,104,55.91h0c-.56,2.83-1,5.75-1.5,8.58C100.9,74.59,99.2,85,93.34,94c-5.59,8.5-15.81,13.9-28.06,14.83a48.39,48.39,0,0,1-16.45-1.68A20,20,0,0,1,43.79,105Zm-5.11-9.84c-.78,5.61,4.76,9.78,10.33,11.31a47.67,47.67,0,0,0,16.21,1.65c12-.91,22.06-6.2,27.53-14.51,5.77-8.78,7.47-19.16,9.1-29.2.46-2.83.94-5.76,1.5-8.6h0a75.22,75.22,0,0,1,7.83-21.87c-3,3.81-5.68,7.91-8.3,11.9-1.14,1.73-2.27,3.45-3.42,5.15A98.23,98.23,0,0,1,76.2,75.37C71.73,78.66,66.66,82,60.7,85.55c-.94.56-1.88,1.14-2.82,1.72a68.15,68.15,0,0,1-12,6.34A24.41,24.41,0,0,1,38.68,95.12Zm-7-4.11a6.59,6.59,0,0,1-3.52-5.49v-.3l.3-.05a.63.63,0,0,0,.56-.76,47.45,47.45,0,0,1,1.7-19.58h0c1.63-5.4,4.79-12.59,10.6-16.16l.33-.21.17.35a39.23,39.23,0,0,0,5.51,8q1.55,1.84,3.1,3.7c3.21,3.85,6.52,7.84,10,11.48,1.14,1.19,3,.12,4.42-.67l.53-.3a38.54,38.54,0,0,0,6.51-4.58A54.37,54.37,0,0,0,83,53.12l.61-1,.09-.15.17,0c6-.7,11.62-4.26,17.25-10.89,1.39-1.64,2.73-3.37,4-5.05,1.53-2,3.11-4,4.8-6a28,28,0,0,1,3.84-3.69l.47.53c-4.89,5-8.82,10.84-12.75,16.82C95,53.6,89,61.58,81.28,68.34,73.17,75.41,63.93,81,54.38,86.56l-.67.39c-4.48,2.62-9.11,5.33-14.46,5.79a11.14,11.14,0,0,1-1.13,0l-.15,0a1,1,0,0,0-.75,0l-.15,0A13,13,0,0,1,31.72,91Zm-2.8-5.24c.27,3.73,4.36,5.84,8.15,6.24a1.71,1.71,0,0,1,1.14.06c.34,0,.67,0,1,0,5.19-.45,9.75-3.12,14.17-5.7L54,86c9.52-5.55,18.72-11.11,26.79-18.14,7.7-6.71,13.58-14.65,20.05-24.5,1.12-1.71,2.24-3.4,3.39-5.07-.86,1.1-1.73,2.2-2.64,3.26-5.7,6.71-11.43,10.35-17.53,11.11l-.53.88A55.08,55.08,0,0,1,72.38,67a39.25,39.25,0,0,1-6.63,4.66l-.51.29c-1.5.85-3.76,2.14-5.28.54-3.5-3.66-6.82-7.66-10-11.52q-1.55-1.86-3.09-3.7a41,41,0,0,1-5.43-7.79C36,53,33,59.84,31.44,65a46.74,46.74,0,0,0-1.68,19.29A1.31,1.31,0,0,1,28.92,85.77ZM27.17,82l-.65-.62c-7.86-7.49-14.89-15.87-13-26.36h0c2.12-12.1,15.25-16.83,26.46-19.6l.54-.13-.11.55a22.41,22.41,0,0,0-.21,7.65A17.87,17.87,0,0,0,41,46.65l.1.28-.25.15c-6.09,3.51-9.17,10.37-11.18,16a46.4,46.4,0,0,0-2.52,18ZM39.58,36.2C28.7,38.93,16.2,43.59,14.18,55.1,12.44,65,18.92,73,26.38,80.21A46.93,46.93,0,0,1,29,62.79c2-5.62,5.11-12.51,11.24-16.18a18.37,18.37,0,0,1-.75-3.06A23,23,0,0,1,39.58,36.2ZM61.32,70.42a4,4,0,0,1-1-1c-.11-.15-.22-.3-.34-.43l-9.9-11.5c-3.16-3.67-6.37-7.4-7.83-12.16a20.3,20.3,0,0,1,2.6-16.44,11.24,11.24,0,0,1,8.69-5.17l.11,0,.16,0a17.91,17.91,0,0,0,8.93,2.08l.89,0L63,26.4a30.54,30.54,0,0,1-8,5.81.65.65,0,0,0-.33.8.88.88,0,0,0,.84.7,15.72,15.72,0,0,0,12.06-6.44l.31-.42.28.44a22.76,22.76,0,0,0,10,8.69,1,1,0,0,0,1.07-.23.57.57,0,0,0,.13-.69,49.72,49.72,0,0,0-4.46-7.94l-.54-.78.91.23a12,12,0,0,0,4.34.3l.21,0,.12.17a.79.79,0,0,0,.31.26c3.92,1.89,6.28,6.11,6.3,11.28,0,4.45-2,8.67-3.86,11.86l0,.07-.06,0a.8.8,0,0,0-.32.57l0,.14-.69,1.16A56.91,56.91,0,0,1,73,63.27,40.61,40.61,0,0,1,67.18,68c-.82.56-1.66,1.06-2.66,1.63-.46.26-.92.5-1.39.73A1.74,1.74,0,0,1,61.32,70.42Zm-7.75-46a10.56,10.56,0,0,0-8.15,4.86,19.54,19.54,0,0,0-2.5,15.83c1.41,4.61,4.58,8.29,7.64,11.84L60.5,68.49c.13.15.25.3.37.46.63.82,1,1.27,1.94.8.46-.23.91-.47,1.36-.72,1-.56,1.81-1,2.61-1.6a39.88,39.88,0,0,0,5.7-4.67A56.19,56.19,0,0,0,80.88,52l.65-1.09a1.53,1.53,0,0,1,.54-.94c1.76-3.1,3.75-7.19,3.73-11.44,0-4.89-2.23-8.87-5.9-10.65a1.49,1.49,0,0,1-.44-.32,12.7,12.7,0,0,1-3.52-.15,50.44,50.44,0,0,1,4,7.31,1.29,1.29,0,0,1-.27,1.48,1.73,1.73,0,0,1-1.86.38,23.45,23.45,0,0,1-10-8.53A16.43,16.43,0,0,1,55.5,34.42a1.59,1.59,0,0,1-1.55-1.23,1.35,1.35,0,0,1,.7-1.61,29.9,29.9,0,0,0,7.22-5.07A18.62,18.62,0,0,1,53.57,24.4ZM84.65,50.2l.34-.66C87.29,45,88.31,41,88.1,37.08c0-.22,0-.45-.05-.67l0-.31.3-.07a52.7,52.7,0,0,0,14.59-5.92h0c.93-.55,1.85-1.13,2.77-1.71a59.1,59.1,0,0,1,6-3.44l2.54-1.21L112,25.56A51.15,51.15,0,0,0,104.56,34L103.74,35c-4.53,5.9-10.18,13.24-18.37,15Zm4.13-13.55q0,.2,0,.4A24.56,24.56,0,0,1,86,49.17c7.55-2,12.9-8.93,17.22-14.56l.81-1.06a68,68,0,0,1,5.58-6.69c-1.19.68-2.37,1.42-3.52,2.14-.93.58-1.85,1.16-2.79,1.72A53.44,53.44,0,0,1,88.78,36.65ZM64,28.7l-.48-.52c.64-.62,1.21-1.2,1.72-1.78l.54.46A14,14,0,0,1,64,28.7ZM53.86,21.88q-.55-.33-1.07-.71l-2.13-1.53,2.46.91a28.32,28.32,0,0,0,9.45,1.74h.12l.1.08a.92.92,0,0,0,.7.21.7.7,0,0,0,.49-.32l.1-.1a.76.76,0,0,0,.31-.6l0-.14A112.37,112.37,0,0,0,71.9,2.93L72,2.58l2.88,1L67.14,18.93a.9.9,0,0,0,0,.69.69.69,0,0,0,.36.41A27,27,0,0,0,85.2,21.59l1.21-.31-.87.9A10.24,10.24,0,0,1,72,23.31a.82.82,0,0,0-1.15,0,.84.84,0,0,0,0,1.16,46.24,46.24,0,0,1,5.29,7.75l.69,1.27-1.2-.8a21.32,21.32,0,0,1-7.07-8,.66.66,0,0,0-.6-.35.94.94,0,0,0-.81.44l-.74,1.31.06-1.48a.79.79,0,0,0-.28-.64.9.9,0,0,0-.79-.18A15.87,15.87,0,0,1,53.86,21.88ZM62.44,23a29.3,29.3,0,0,1-6.55-.86,15.06,15.06,0,0,0,9.36,1,1.61,1.61,0,0,1,1.4.33A1.52,1.52,0,0,1,67,24,1.66,1.66,0,0,1,68,23.7a1.35,1.35,0,0,1,1.22.73,20.74,20.74,0,0,0,5.52,6.74A45.45,45.45,0,0,0,70.3,25a1.53,1.53,0,0,1,2.08-2.23A9.51,9.51,0,0,0,84,22.58a27.78,27.78,0,0,1-16.87-1.91,1.38,1.38,0,0,1-.74-.82,1.63,1.63,0,0,1-.08-.77q-.63,1.31-1.29,2.59a1.45,1.45,0,0,1-.55,1,1.39,1.39,0,0,1-.93.58A1.63,1.63,0,0,1,62.44,23Zm10-19.51a113.58,113.58,0,0,1-5,13.16L73.89,4Z" transform="translate(0)"/><path d="M32.08,105.62A29.64,29.64,0,0,1,30.27,96a1.17,1.17,0,0,0-2.34.11,31.62,31.62,0,0,0,1.91,10.2C30.36,107.73,32.6,107,32.08,105.62Z" transform="translate(0)"/><path d="M30.14,107.23a1.5,1.5,0,0,1-.63-.79,32,32,0,0,1-1.93-10.31,1.49,1.49,0,0,1,1.53-1.55A1.43,1.43,0,0,1,30.63,96a29.46,29.46,0,0,0,1.78,9.49,1.39,1.39,0,0,1-.88,1.85A1.64,1.64,0,0,1,30.14,107.23ZM29.6,95.4a.88.88,0,0,0-.47-.12.8.8,0,0,0-.84.83,31.29,31.29,0,0,0,1.89,10.08.83.83,0,0,0,1.11.48.7.7,0,0,0,.46-.94h0A30.18,30.18,0,0,1,29.92,96,.69.69,0,0,0,29.6,95.4Z" transform="translate(0)"/><path d="M39,110.63q-4,1-8,1.57c-1.48.22-1.39,2.57.11,2.34q4.35-.65,8.63-1.68C41.18,112.51,40.47,110.27,39,110.63Z" transform="translate(0)"/><path d="M30.2,114.73a1.25,1.25,0,0,1-.33-.29,1.64,1.64,0,0,1-.19-1.6,1.55,1.55,0,0,1,1.24-1c2.64-.4,5.34-.92,8-1.56a1.51,1.51,0,0,1,1.48.43,1.65,1.65,0,0,1,.41,1.57,1.33,1.33,0,0,1-1,.93c-2.81.68-5.73,1.24-8.66,1.68A1.38,1.38,0,0,1,30.2,114.73Zm9.52-3.67a.8.8,0,0,0-.62-.08c-2.69.65-5.41,1.18-8.07,1.58a.85.85,0,0,0-.69.55,1,1,0,0,0,.09.9.6.6,0,0,0,.6.2c2.91-.44,5.81-1,8.6-1.67a.64.64,0,0,0,.51-.44,1,1,0,0,0-.24-.88A.85.85,0,0,0,39.72,111.05Z" transform="translate(0)"/><path d="M25,120.64a59.28,59.28,0,0,0-1.38-9.37c-.34-1.48-2.57-.76-2.24.7a55.49,55.49,0,0,1,1.28,8.78A1.17,1.17,0,0,0,25,120.64Z" transform="translate(0)"/><path d="M23,122a1.43,1.43,0,0,1-.69-1.18A55.39,55.39,0,0,0,21,112a1.57,1.57,0,0,1,1.23-1.9,1.35,1.35,0,0,1,1.69,1,59.93,59.93,0,0,1,1.39,9.43h0a1.44,1.44,0,0,1-1.4,1.56A1.66,1.66,0,0,1,23,122Zm0-11.06a.77.77,0,0,0-.55-.06.88.88,0,0,0-.7,1.06A56.16,56.16,0,0,1,23,120.73a.79.79,0,0,0,.9.75.73.73,0,0,0,.74-.81h0a59.2,59.2,0,0,0-1.38-9.32A.67.67,0,0,0,23,110.9Z" transform="translate(0)"/><path d="M33,130.45a33.77,33.77,0,0,1,3-9.06c.67-1.35-1.41-2.44-2.08-1.09a36.11,36.11,0,0,0-3.18,9.65C30.45,131.43,32.74,131.94,33,130.45Z" transform="translate(0)"/><path d="M31.07,131.45a1.47,1.47,0,0,1-.71-1.57,36.63,36.63,0,0,1,3.21-9.74,1.4,1.4,0,0,1,1.17-.82,1.65,1.65,0,0,1,1.46.73,1.46,1.46,0,0,1,.08,1.49,33.24,33.24,0,0,0-2.93,9h0a1.41,1.41,0,0,1-1.7,1.16A1.71,1.71,0,0,1,31.07,131.45Zm4.25-11.28a.92.92,0,0,0-.53-.14.69.69,0,0,0-.58.42A35.92,35.92,0,0,0,31.06,130a.81.81,0,0,0,.71,1,.71.71,0,0,0,.88-.59h0a33.93,33.93,0,0,1,3-9.15.74.74,0,0,0,0-.78A.94.94,0,0,0,35.32,120.17Z" transform="translate(0)"/><path d="M18.12,138.54a18,18,0,0,0-2.34-8.47c-.74-1.32-2.72-.07-2,1.24a15.52,15.52,0,0,1,2,7.33A1.17,1.17,0,0,0,18.12,138.54Z" transform="translate(0)"/><path d="M16.09,139.86a1.4,1.4,0,0,1-.67-1.21,15.16,15.16,0,0,0-1.94-7.17,1.54,1.54,0,0,1,.63-2.13,1.39,1.39,0,0,1,2,.54,18.28,18.28,0,0,1,2.38,8.63h0a1.46,1.46,0,0,1-.7,1.31,1.66,1.66,0,0,1-1.63,0Zm-.89-9.91a.76.76,0,0,0-.74,0,.83.83,0,0,0-.36,1.16,15.87,15.87,0,0,1,2,7.5.69.69,0,0,0,.35.63,1,1,0,0,0,.92,0,.74.74,0,0,0,.36-.69,17.59,17.59,0,0,0-2.29-8.3A.78.78,0,0,0,15.2,129.95Z" transform="translate(0)"/><path d="M11.1,133.46,6.19,137.9c-1.12,1,.6,2.6,1.71,1.6l4.91-4.44C13.94,134,12.21,132.46,11.1,133.46Z" transform="translate(0)"/><path d="M6.24,139.92a1.71,1.71,0,0,1-.38-.32,1.34,1.34,0,0,1,.09-2l4.91-4.44a1.6,1.6,0,0,1,2.28.15,1.34,1.34,0,0,1-.09,2l-4.91,4.44A1.56,1.56,0,0,1,6.24,139.92Zm5.09-6.2-4.91,4.44a.64.64,0,0,0,0,1,.89.89,0,0,0,1.28.1l4.91-4.44a.64.64,0,0,0,0-1,.89.89,0,0,0-1.28-.1Z" transform="translate(0)"/><path d="M57.06,121.9a68.5,68.5,0,0,0-9.77,2.65c-1.42.5-.73,2.74.7,2.24a68.47,68.47,0,0,1,9.77-2.65C59.24,123.85,58.53,121.61,57.06,121.9Z" transform="translate(0)"/><path d="M46.9,127a1.55,1.55,0,0,1-.64-.81,1.52,1.52,0,0,1,.92-2A69.11,69.11,0,0,1,57,121.55l.07.35-.07-.35a1.63,1.63,0,0,1,1.91,1.33,1.3,1.3,0,0,1-1.08,1.6,68.41,68.41,0,0,0-9.72,2.64A1.39,1.39,0,0,1,46.9,127Zm10.85-4.68a.85.85,0,0,0-.62-.1,68.41,68.41,0,0,0-9.72,2.64.81.81,0,0,0-.49,1.09.71.71,0,0,0,1,.48,69.25,69.25,0,0,1,9.82-2.67.6.6,0,0,0,.51-.77A1.05,1.05,0,0,0,57.75,122.35Z" transform="translate(0)"/><path d="M46.6,139.86a15.18,15.18,0,0,0-2.85-3.09l-4-4.05c-1.06-1.08-2.65.64-1.6,1.71l3,3a34.33,34.33,0,0,1,3,3,.9.9,0,0,0,.62,1.15l.14.05a1.21,1.21,0,0,0,1.4-.24l.12-.13A1.2,1.2,0,0,0,46.6,139.86Z" transform="translate(0)"/><path d="M44.4,141.8a1.22,1.22,0,0,1-.59-1.26A16.14,16.14,0,0,0,42,138.74c-.39-.35-.76-.69-1.08-1l-3-3a1.48,1.48,0,0,1-.39-1.46,1.66,1.66,0,0,1,1.15-1.16,1.36,1.36,0,0,1,1.35.41l4,4.05c.25.26.54.52.83.79a9.4,9.4,0,0,1,2.08,2.39,1.54,1.54,0,0,1-.19,1.83l-.06.07a1.55,1.55,0,0,1-1.84.39l0-.38-.12.33A1.58,1.58,0,0,1,44.4,141.8Zm-5.06-9a.61.61,0,0,0-.49-.07,1,1,0,0,0-.64.66.76.76,0,0,0,.21.77l3,3c.31.32.67.64,1.05,1a15.42,15.42,0,0,1,2,2l.1.14,0,.17a.55.55,0,0,0,.4.72l.14.05c.66.24.93,0,1-.15l.06-.07a.9.9,0,0,0,.14-1.08h0a8.91,8.91,0,0,0-1.93-2.19c-.3-.27-.59-.54-.85-.81l-4-4.05A.91.91,0,0,0,39.34,132.83Z" transform="translate(0)"/><path d="M29,135.21q-2.64-3.13-5-6.46c-.88-1.22-2.87,0-2,1.24q2.57,3.57,5.42,6.93C28.34,138.07,29.93,136.34,29,135.21Z" transform="translate(0)"/><path d="M27.48,137.48a1.55,1.55,0,0,1-.38-.33c-1.93-2.29-3.76-4.63-5.43-7a1.37,1.37,0,0,1,.34-2,1.56,1.56,0,0,1,2.22.33c1.62,2.26,3.31,4.42,5,6.44a1.57,1.57,0,0,1,.28,1.58,1.64,1.64,0,0,1-1.19,1.08A1.21,1.21,0,0,1,27.48,137.48Zm-4.08-8.77a.91.91,0,0,0-1,.08.67.67,0,0,0-.18,1c1.66,2.31,3.48,4.63,5.4,6.91a.59.59,0,0,0,.56.25.94.94,0,0,0,.65-.62.87.87,0,0,0-.16-.88h0c-1.71-2-3.41-4.21-5-6.48A.88.88,0,0,0,23.39,128.71Z" transform="translate(0)"/><path d="M34.84,143.61,25,146.94a1.17,1.17,0,0,0,.7,2.24l9.89-3.34A1.17,1.17,0,0,0,34.84,143.61Z" transform="translate(0)"/><path d="M24.55,149.41l-.2-.15a1.66,1.66,0,0,1-.51-1.55,1.45,1.45,0,0,1,1-1.1l9.89-3.34a1.4,1.4,0,0,1,1.41.26,1.66,1.66,0,0,1,.51,1.55,1.45,1.45,0,0,1-1,1.1l-9.89,3.34A1.42,1.42,0,0,1,24.55,149.41ZM35,143.94l-9.89,3.34a.74.74,0,0,0-.53.57,1,1,0,0,0,.29.88.7.7,0,0,0,.72.12l9.89-3.34a.74.74,0,0,0,.53-.57,1,1,0,0,0-.29-.88.69.69,0,0,0-.72-.12Z" transform="translate(0)"/><path d="M19.33,149.41l2-7.75c.38-1.46-1.91-2-2.29-.5l-2,7.75C16.66,150.37,19,150.87,19.33,149.41Z" transform="translate(0)"/><path d="M17.33,150.4a1.37,1.37,0,0,1-.63-1.58l2-7.75A1.53,1.53,0,0,1,20.64,140a1.41,1.41,0,0,1,1.06,1.76l-2,7.75a1.53,1.53,0,0,1-1.92,1.09A1.62,1.62,0,0,1,17.33,150.4Zm3.38-9.63a1,1,0,0,0-.25-.11.82.82,0,0,0-1.05.58l-2,7.75a.71.71,0,0,0,.55.9.82.82,0,0,0,1.05-.58l2-7.75A.65.65,0,0,0,20.71,140.78Z" transform="translate(0)"/><path d="M40.67,159.76l-2-8.75c-.34-1.48-2.57-.76-2.24.7l2,8.75C38.77,161.93,41,161.22,40.67,159.76Z" transform="translate(0)"/><path d="M38.7,161.43a1.36,1.36,0,0,1-.61-.9l-2-8.75a1.58,1.58,0,0,1,1.24-1.9,1.35,1.35,0,0,1,1.69,1l2,8.75a1.52,1.52,0,0,1-.45,1.49,1.65,1.65,0,0,1-1.57.39A1.31,1.31,0,0,1,38.7,161.43ZM38,150.64a.77.77,0,0,0-.55-.07.88.88,0,0,0-.71,1.06l2,8.75a.63.63,0,0,0,.42.51,1,1,0,0,0,.88-.24.81.81,0,0,0,.24-.81l-2-8.75A.67.67,0,0,0,38,150.64Z" transform="translate(0)"/><path d="M54.95,144.63q-5,2.25-9.87,4.94c-1.32.74-.07,2.72,1.24,2q4.56-2.55,9.32-4.69C57,146.25,56.33,144,54.95,144.63Z" transform="translate(0)"/><path d="M45,151.85a1.65,1.65,0,0,1-.8-1.4,1.35,1.35,0,0,1,.74-1.19c3.14-1.76,6.47-3.43,9.9-5a1.29,1.29,0,0,1,1.32.1,1.63,1.63,0,0,1,.61,1.49,1.57,1.57,0,0,1-.94,1.3c-3.08,1.38-6.21,3-9.29,4.68a1.48,1.48,0,0,1-1.52,0Zm10.7-6.9a.6.6,0,0,0-.58,0h0c-3.41,1.52-6.72,3.18-9.84,4.93a.66.66,0,0,0-.38.58,1,1,0,0,0,.47.79.77.77,0,0,0,.81,0c3.1-1.74,6.25-3.32,9.35-4.71a.87.87,0,0,0,.53-.73,1,1,0,0,0-.32-.84Z" transform="translate(0)"/><path d="M50.18,160.4a39.53,39.53,0,0,0-6.69,6.11c-1,1.14.72,2.74,1.71,1.6a36.83,36.83,0,0,1,6.22-5.72C52.64,161.5,51.4,159.52,50.18,160.4Z" transform="translate(0)"/><path d="M43.64,168.63a1.68,1.68,0,0,1-.72-.88,1.47,1.47,0,0,1,.3-1.47A40.07,40.07,0,0,1,50,160.11a1.33,1.33,0,0,1,1.37-.18,1.65,1.65,0,0,1,.93,1.33,1.51,1.51,0,0,1-.64,1.4,36.73,36.73,0,0,0-6.16,5.67,1.38,1.38,0,0,1-1.33.49A1.54,1.54,0,0,1,43.64,168.63Zm7.49-8-.08,0a.64.64,0,0,0-.66.1h0a39.33,39.33,0,0,0-6.63,6.05.76.76,0,0,0-.17.78,1,1,0,0,0,.69.62.67.67,0,0,0,.66-.26,37.44,37.44,0,0,1,6.28-5.78.79.79,0,0,0,.35-.76A1,1,0,0,0,51.13,160.63Z" transform="translate(0)"/><path d="M62.6,163a20.57,20.57,0,0,1-1.07-8.22c.11-1.5-2.24-1.38-2.34.11a22.22,22.22,0,0,0,1.17,8.81C60.85,165.11,63.09,164.41,62.6,163Z" transform="translate(0)"/><path d="M60.66,164.6a1.47,1.47,0,0,1-.63-.8,22.55,22.55,0,0,1-1.19-9,1.57,1.57,0,0,1,.9-1.33,1.66,1.66,0,0,1,1.61.06,1.28,1.28,0,0,1,.54,1.21,20.34,20.34,0,0,0,1,8.08h0a1.42,1.42,0,0,1-.93,1.86A1.62,1.62,0,0,1,60.66,164.6Zm.26-10.45a1,1,0,0,0-.87,0,.87.87,0,0,0-.5.74,21.84,21.84,0,0,0,1.15,8.67.8.8,0,0,0,1.07.49.72.72,0,0,0,.49-1h0a21,21,0,0,1-1.09-8.36.59.59,0,0,0-.23-.57Z" transform="translate(0)"/><path d="M74.79,148.4a17.46,17.46,0,0,0-4.21-4c-1.25-.84-2.33,1.24-1.09,2.08a14,14,0,0,1,3.31,3.14C73.72,150.84,75.71,149.6,74.79,148.4Z" transform="translate(0)"/><path d="M73,150.27a1.62,1.62,0,0,1-.45-.41,13.59,13.59,0,0,0-3.23-3.06,1.56,1.56,0,0,1-.7-1.43,1.64,1.64,0,0,1,.86-1.36,1.29,1.29,0,0,1,1.33.13,17.79,17.79,0,0,1,4.3,4h0a1.31,1.31,0,0,1,.21,1.34,1.65,1.65,0,0,1-1.31.95A1.53,1.53,0,0,1,73,150.27Zm-2.64-5.57a.57.57,0,0,0-.58-.05,1,1,0,0,0-.46.77.86.86,0,0,0,.39.8,14.32,14.32,0,0,1,3.4,3.22.83.83,0,0,0,.79.34,1,1,0,0,0,.75-.52.61.61,0,0,0-.12-.64h0a17.09,17.09,0,0,0-4.13-3.89Z" transform="translate(0)"/><path d="M88.94,136.78q-5.58.61-11.09,1.71c-1.48.29-.77,2.53.7,2.24q5.22-1,10.5-1.61C90.55,139,90.45,136.62,88.94,136.78Z" transform="translate(0)"/><path d="M77.5,140.89a1.73,1.73,0,0,1-.78-1.13,1.31,1.31,0,0,1,1.07-1.61c3.72-.74,7.46-1.31,11.12-1.72h0a1.34,1.34,0,0,1,1.28.53,1.65,1.65,0,0,1,.15,1.62,1.5,1.5,0,0,1-1.25.9c-3.55.39-7.07.93-10.47,1.6A1.55,1.55,0,0,1,77.5,140.89Zm11.95-3.67a.72.72,0,0,0-.46-.08h0c-3.64.4-7.36,1-11.06,1.71a.6.6,0,0,0-.51.78.92.92,0,0,0,1.08.77c3.42-.68,7-1.22,10.53-1.61a.79.79,0,0,0,.67-.48,1,1,0,0,0-.07-.91A.59.59,0,0,0,89.45,137.22Z" transform="translate(0)"/><path d="M62.88,139.63l-2.5-5.82c-.59-1.38-2.83-.69-2.24.7l2.5,5.82C61.24,141.71,63.48,141,62.88,139.63Z" transform="translate(0)"/><path d="M60.95,141.2a1.56,1.56,0,0,1-.63-.73l-2.5-5.82a1.3,1.3,0,0,1,.12-1.34,1.64,1.64,0,0,1,1.5-.6,1.55,1.55,0,0,1,1.27,1l2.5,5.82a1.31,1.31,0,0,1-.72,1.8A1.71,1.71,0,0,1,60.95,141.2Zm-1.23-7.65a.9.9,0,0,0-.36-.12,1,1,0,0,0-.85.32.6.6,0,0,0,0,.63l2.5,5.82a.92.92,0,0,0,1.23.45.61.61,0,0,0,.35-.87L60.06,134A.86.86,0,0,0,59.71,133.55Z" transform="translate(0)"/></svg>