<svg xmlns="http://www.w3.org/2000/svg" viewBox="0 0 544.33 437.75"><title>cake-bear</title><path d="M299.62,159.7c-5.3,0-9.61,3.4-9.61,7.58s4.31,7.59,9.61,7.59,9.6-3.4,9.6-7.59S304.92,159.7,299.62,159.7Z" transform="translate(-4.35 -1.92)" fill="#231300"/><path d="M299.62,175.58c-5.69,0-10.32-3.72-10.32-8.3s4.63-8.29,10.32-8.29,10.31,3.72,10.31,8.29S305.3,175.58,299.62,175.58Zm0-15.17c-4.91,0-8.9,3.08-8.9,6.87s4,6.88,8.9,6.88,8.89-3.09,8.89-6.88S304.52,160.41,299.62,160.41Z" transform="translate(-4.35 -1.92)" fill="#231300"/><path d="M326.53,149.6c-4.69,0-8.49,3-8.49,6.69s3.8,6.7,8.49,6.7,8.49-3,8.49-6.7S331.22,149.6,326.53,149.6Z" transform="translate(-4.35 -1.92)" fill="#231300"/><path d="M326.53,163.71c-5.07,0-9.2-3.33-9.2-7.41s4.13-7.4,9.2-7.4,9.2,3.32,9.2,7.4S331.6,163.71,326.53,163.71Zm0-13.4c-4.29,0-7.78,2.68-7.78,6s3.49,6,7.78,6,7.78-2.69,7.78-6S330.82,150.31,326.53,150.31Z" transform="translate(-4.35 -1.92)" fill="#231300"/><path d="M436.86,238.49,439.2,242c7,10.32,8.33,14.73,8.88,16.8a2.9,2.9,0,0,1,.68.16,149.9,149.9,0,0,1,16.54,6.55l.16.08,12.7,6.5-15.91,7.51c4.61,8.12,5,8.46,6.85,9.91a63.58,63.58,0,0,1,6.8,6.28l5.83,6.06-8.4-.37c-6.62-.3-11.84-2.66-16.95-5-3.85-1.74-7.6-3.44-11.57-3.93l-.32.29a20.72,20.72,0,0,0-3.29,3.64h0L439,299.77l-.14.17c-.94,1.2-1.36,1.79-1.57,2.07a3.61,3.61,0,0,1-.65.79,3.24,3.24,0,0,1-1.06.71,8.79,8.79,0,0,0-1.52,1l-4.54,3.18-.71-5.51a49.6,49.6,0,0,1-.18-10.91,53.62,53.62,0,0,1,1.38-8.11,38.21,38.21,0,0,0-3.82-1.06c-4.12-1-8.26-2-12-6l-2.19-2.36,2.27-2.29a17.43,17.43,0,0,1,9.19-5c2.78-.71,4.77-1.23,6.31-12.7.22-1.66.31-3,.39-4,.28-3.85.33-4.58,3.76-8.18ZM425.2,272.9a15.6,15.6,0,0,0-2.83.93,27.16,27.16,0,0,0,5.44,1.72,28.74,28.74,0,0,1,7.93,2.79l2.34,1.34-.79,2.57a47.32,47.32,0,0,0-1.91,9.61c0,.48-.08,1-.12,1.44l.56-.86a25.68,25.68,0,0,1,4.18-4.61c.44-.39.92-.83,1.31-1.2l1-1,1.43.07c5.77.28,10.51,2.43,15.37,4.63l2.43,1.08c-1.37-1.87-3.21-5-7-11.69l-1.76-3.14L463,271.79l-.41-.21a147.35,147.35,0,0,0-15.85-6.28,8.7,8.7,0,0,1-3.46-1.62,4.92,4.92,0,0,1-1.58-2.94c-.35-1.29-1-3.85-4.77-10-.07,1-.17,2.15-.39,3.8C434.35,270.52,430.51,271.52,425.2,272.9Zm22.51-14.22.07,0C447.61,258.58,447.48,258.46,447.71,258.68Z" transform="translate(-4.35 -1.92)" fill="#231300"/><path d="M429,308.92l-.87-6.67a50.48,50.48,0,0,1-.19-11.06,54.72,54.72,0,0,1,1.24-7.58c-1-.32-2-.57-3.07-.82l-.13,0c-4.14-1-8.43-2-12.28-6.19l-2.65-2.86,2.75-2.77a18.22,18.22,0,0,1,9.52-5.22c2.5-.64,4.31-1.11,5.79-12.1.19-1.45.28-2.64.36-3.59l0-.36c.29-4.06.46-4.94,3.95-8.61l3.49-3.68,2.83,4.2c6.77,10,8.31,14.61,8.86,16.58l.34.1a150.61,150.61,0,0,1,16.61,6.58l.19.09,14,7.16-16.52,7.8c4.18,7.35,4.62,7.69,6.29,9a63.93,63.93,0,0,1,6.87,6.35l7.06,7.34-10.17-.45c-6.78-.31-12.08-2.71-17.21-5-3.79-1.71-7.33-3.31-11-3.83l-.08.07a20,20,0,0,0-3.2,3.54l-2.32,3.51c-.84,1.07-1.26,1.65-1.48,2l-.06.09a4.16,4.16,0,0,1-.74.9,3.94,3.94,0,0,1-1.24.83,9.8,9.8,0,0,0-1.42.89Zm-2.55-27.51a38.21,38.21,0,0,1,3.82,1.06l.61.22-.16.63a52.72,52.72,0,0,0-1.36,8,49,49,0,0,0,.18,10.75l.56,4.35,3.58-2.51a9.38,9.38,0,0,1,1.66-1,2.53,2.53,0,0,0,.84-.57,2.94,2.94,0,0,0,.54-.67l.08-.11c.23-.32.65-.91,1.52-2l.14-.18,2.13-3.26a21.56,21.56,0,0,1,3.41-3.78l.57-.5.32,0c4,.49,7.77,2.18,11.71,4,5.07,2.3,10.25,4.65,16.75,4.94L480,301l-4.6-4.78a62.63,62.63,0,0,0-6.72-6.21c-1.92-1.53-2.37-1.89-7-10.12l-.38-.66,15.3-7.22L465,266.1c-7.18-3.22-11.61-4.88-14.32-5.81l1.83,1.59-5.27-2.68h0c-.55-.52-.34-.92-.16-1.11l.07-.07c-.66-2.13-2.41-6.6-8.52-15.66l-1.84-2.73-2.27,2.4c-3.25,3.42-3.29,4-3.56,7.74l0,.36c-.08,1-.17,2.18-.37,3.67-1.53,11.39-3.5,12.43-6.84,13.29a16.78,16.78,0,0,0-8.87,4.85L413,273.73l1.73,1.86c3.56,3.83,7.45,4.78,11.57,5.78l0,.72ZM434.34,296l.2-2.73c0-.5.07-1,.12-1.46A48,48,0,0,1,436.6,282l.63-2L435.38,279a27.59,27.59,0,0,0-7.64-2.69l-.1,0a27.85,27.85,0,0,1-5.58-1.77l-1.36-.65,1.37-.63a16.35,16.35,0,0,1,3-1h0c5.23-1.36,8.68-2.26,10.76-17.72.23-1.71.33-2.91.39-3.76l.16-2.2,1.15,1.88c3.79,6.19,4.5,8.86,4.85,10.14a4.25,4.25,0,0,0,1.37,2.61,8,8,0,0,0,3.16,1.46,147.18,147.18,0,0,1,16,6.32l1.75.87-10.75,5.08,1.39,2.48c3.68,6.52,5.56,9.75,6.93,11.62l1.56,2.12-2.41-1.05-1.47-.65-1-.43c-4.93-2.23-9.51-4.3-15.12-4.57l-1.13-.05-.83.78c-.4.37-.88.82-1.33,1.21a25,25,0,0,0-4.09,4.5Zm-10-22.11c1.18.41,2.42.7,3.64,1l.11,0a29.09,29.09,0,0,1,8,2.84l2.83,1.62-1,3.11a46.79,46.79,0,0,0-1.76,8.33,24.68,24.68,0,0,1,3.33-3.49c.44-.39.92-.82,1.3-1.19l1.27-1.2,1.73.08c5.88.28,10.58,2.41,15.55,4.66l.25.11c-1.28-2-3-5-5.64-9.69l-2.13-3.81,9.43-4.46A141.13,141.13,0,0,0,446.46,266a9.27,9.27,0,0,1-3.71-1.77,5.61,5.61,0,0,1-1.79-3.28c-.29-1.1-.86-3.22-3.58-7.91-.05.49-.12,1-.2,1.65-2.21,16.41-6.44,17.51-11.8,18.91h0Z" transform="translate(-4.35 -1.92)" fill="#231300"/><path d="M223.47,416.18A227.22,227.22,0,0,1,79.63,368.47C39.66,337.14,11.45,292.11,6,238.53q-.74-7.24-.91-14.76c0-.41,0-.89,0-1.42C4.26,169.45,22.21,115.62,58.83,74.59S150.67,5.38,224.36,3.76l1.92,0,20-.32-18.8,6.83c-55.64,20.22-89.61,63.29-105.93,112.69A247.42,247.42,0,0,0,123.68,280c9.24,25.42,22.83,47.27,40,62.43A22.69,22.69,0,0,1,164.78,330a17.88,17.88,0,0,1,8.64-9.78,14.86,14.86,0,0,1,13.1.12,179.58,179.58,0,0,1,3.5-24.33c2.23-9.8,5.71-18.93,11.46-26.62,1.5-2,3.26-4.82,5.16-7.82A121.65,121.65,0,0,1,216.07,248a61,61,0,0,1-25.4-16.09A49.68,49.68,0,0,1,178,204.4c-11.12.41-19.86-1.49-26.48-6.3-7.33-5.33-11.8-14-13.71-26.73-5.25-34.87,13.66-45.76,32-48.52,11.28-1.69,22.27-.15,26.73.53l5.46-5.47c-6.21-17.2-1.38-31.13,8.13-40.29A43.28,43.28,0,0,1,232.82,66.4c8.46-1.41,17.19-.3,24.4,3.73,10,5.59,17,16.63,16.21,34.12a110.14,110.14,0,0,1,20.64,5.5c10.66,3.81,21.13,8.74,26.8,12.27,8.16,5.07,9.71,11.76,11.49,19.4,1.54,6.67,3.29,14.2,11,21.59a23,23,0,0,1,11.51,3.35,12.74,12.74,0,0,1,5.13,6.36,12.17,12.17,0,0,1,0,7.94,17.7,17.7,0,0,1-4,6.51,10.19,10.19,0,0,1,.39,1.58,13.29,13.29,0,0,1-.06,4.34c-1.91,10.75-4.48,17.65-8.79,23.13s-10.1,9.22-18.59,13.77l-4,2.09c-3.12,7.44-10.7,12.29-19.22,15.46A95,95,0,0,1,289,251.87c4.6,4.92,8.76,12,12.3,20.48,5.37,12.75,9.47,28.78,11.66,44.93v.09c.91,8.31,5.68,17.86,9.57,25.62,3.23,6.46,5.91,11.82,5.77,15.45,6.08-1.42,11-2.67,16-4.3a156.21,156.21,0,0,0,20.84-8.77l8.1-4-3.53,8.31c-6.28,14.79-16.38,25.78-27.24,33.89-15.52,11.58-32.64,17.26-42.24,19.7,3.74,6.52,7.33,13.19,4.48,21.51a19.57,19.57,0,0,1-9.94,11.6,27.17,27.17,0,0,1-13.19,2.52,50.29,50.29,0,0,1-14.33-2.81C255.36,432,243.82,424,238.47,415.34,233.5,415.79,228.48,416.08,223.47,416.18Zm58.3,16a20.71,20.71,0,0,0,10-1.82,13,13,0,0,0,6.58-7.78c2-5.75-1.2-11.24-4.31-16.65-.7-1.21-1.39-2.42-1.87-3.29h0c-1.2-2.22-.5-3.72,1.42-4.76h0a4.57,4.57,0,0,1,2.25-.48h0c8.17-1.84,26.33-7.11,42.64-19.27a78.36,78.36,0,0,0,20.78-22.64,134.57,134.57,0,0,1-12.84,5c-6.37,2.09-12.7,3.58-21.28,5.53l-5.62,1.28,1.67-5.53a8.26,8.26,0,0,0,.23-1.19c.08-.63.15-1.44.2-2.43.09-1.9-2.23-6.57-5.06-12.2-4.14-8.27-9.23-18.43-10.25-27.91-2.11-15.52-6.06-30.89-11.2-43.12-4.58-10.91-10-19.15-15.74-22.42l-8.89-5.07,10.17-1.2c6.09-.71,15-2.13,22.76-5,7.32-2.73,13.72-6.74,15.69-12.61l.43-1.28,6.28-3.28c7.67-4.11,12.87-7.44,16.45-12s5.75-10.55,7.45-20.15l0-.07a7.14,7.14,0,0,0,.1-1.27L339,192.29l10.16-8a12.94,12.94,0,0,0,4.48-5.76,5.58,5.58,0,0,0,.07-3.62,6.11,6.11,0,0,0-2.49-3c-2.05-1.36-5.13-2.23-9.22-2.29l-1.28,0-.93-.83c-10.07-9.05-12.14-18-14-25.91-1.43-6.17-2.68-11.59-8.48-15.18-5.31-3.31-15.28-8-25.52-11.64-8.05-2.88-16.17-5.1-22.15-5.47l-3.48-.22.33-3.46c1.59-16.3-4.11-26.24-12.56-31-5.83-3.26-13-4.12-20-3a36.53,36.53,0,0,0-19.18,9.42c-8.05,7.75-11.91,19.86-5.75,35l.84,2.06-10.94,11-1.64-.21-1.19-.17c-3.71-.58-14.42-2.23-25.3-.6-15.17,2.29-30.78,11.42-26.35,40.86,1.64,10.85,5.22,18.07,11,22.28s14.23,5.68,25.31,4.85l3.35-.24.24,3.36a43.46,43.46,0,0,0,11.28,26.76c6.9,7.53,16.57,12.93,28,15.86l8.61,2.22-7.9,4c-3,1.54-7.81,9.11-11.93,15.68-2,3.21-3.92,6.21-5.46,8.28-5.11,6.87-8.26,15.14-10.3,24.09-2.1,9.14-3.05,19.07-3.79,29l-.5,6.59-5-4.29c-4.1-3.48-8-3.92-10.92-2.49a11.18,11.18,0,0,0-5.29,6.14,16.12,16.12,0,0,0-.44,10.08,19.8,19.8,0,0,0,6.62,9.92,85.71,85.71,0,0,0,13.27,6.68c1.28.38,2.63.71,4.06,1h0a3.92,3.92,0,0,1,1.87,1,3.47,3.47,0,0,1,1,2.8l-.43,4.55-4-1.32c-1.62-.53-3.21-1.11-4.79-1.74a42.52,42.52,0,0,1-14.9-7.51c-24.83-15.43-44-42.72-56-75.71-8.73-24-13.66-51.08-14.23-78.8a248.91,248.91,0,0,1,12-82.66c15.13-45.8,45-86.39,92.48-109.47C144.41,16.5,96.45,42.52,63.83,79.06,28.38,118.78,11,170.95,11.8,222.26h0c0,.41,0,.88,0,1.38q.16,7.17.88,14.23c5.24,51.63,32.47,95.05,71.07,125.3a220.5,220.5,0,0,0,139.58,46.3q8.28-.19,16.65-1l2.29-.23,1,2.07c3.92,7.83,14.76,15.58,26.1,19.47A43.3,43.3,0,0,0,281.78,432.23Zm14-34.76h0s-.28.07-.12,0Z" transform="translate(-4.35 -1.92)" fill="#231300"/><path d="M282.89,439.67l-1.34,0A50.54,50.54,0,0,1,267,436.79c-12.22-4.19-23.5-12.29-28.9-20.71-4.93.44-9.85.71-14.62.81h0A226.49,226.49,0,0,1,79.2,369C36.7,335.72,10.46,289.41,5.32,238.6c-.49-4.77-.8-9.76-.91-14.81,0-.22,0-.46,0-.72v-.7a223.33,223.33,0,0,1,12.87-78.59A209.24,209.24,0,0,1,58.3,74.12c40.16-45,97.58-69.56,166-71.07l26.15-.43L227.72,10.9c-64.27,23.35-92.84,73.93-105.5,112.25a242.93,242.93,0,0,0-11.67,80.18c.54,26.64,5.3,53.06,13.78,76.4C133.51,305,146.76,326,162.7,340.56a23.13,23.13,0,0,1,1.42-10.77,18.51,18.51,0,0,1,9-10.16,15.37,15.37,0,0,1,12.79-.29,178.37,178.37,0,0,1,3.43-23.44c2.51-11,6.3-19.82,11.59-26.89,1.4-1.87,3.06-4.5,4.81-7.27l.42-.67a133.58,133.58,0,0,1,8.72-12.73,60.92,60.92,0,0,1-24.72-15.94,50.12,50.12,0,0,1-12.8-27.26c-11.25.33-19.86-1.78-26.29-6.46-7.49-5.45-12.06-14.34-14-27.19-5.41-35.89,14.74-46.64,32.6-49.33,11.47-1.72,22.52-.14,26.58.48l4.89-4.9c-7.42-21.09,2.09-34.49,8.46-40.61A43.91,43.91,0,0,1,232.7,65.7c9-1.49,17.8-.14,24.86,3.81,11.27,6.29,17.15,18.4,16.6,34.13a112.94,112.94,0,0,1,20.15,5.44c10,3.58,20.82,8.53,26.93,12.33,8.41,5.22,10,12,11.8,19.84,1.5,6.5,3.21,13.87,10.66,21.06a23.39,23.39,0,0,1,11.6,3.45,13.51,13.51,0,0,1,5.4,6.71,12.92,12.92,0,0,1,0,8.4,18.12,18.12,0,0,1-3.92,6.47,11.21,11.21,0,0,1,.29,1.28,14.07,14.07,0,0,1-.06,4.6c-1.95,10.93-4.62,17.94-8.93,23.43s-10.23,9.35-18.82,14l-3.78,2c-2.87,6.61-9.44,11.86-19.52,15.61a93,93,0,0,1-15.6,4.15c4.19,4.79,8.08,11.42,11.57,19.74,5.32,12.64,9.48,28.66,11.71,45.11v.11c.9,8.23,5.67,17.74,9.5,25.38l.06.11c3.06,6.12,5.52,11.06,5.77,14.76,5.58-1.31,10.33-2.52,15.1-4.08a155.81,155.81,0,0,0,20.75-8.73l9.81-4.81L370.36,350c-5.64,13.28-14.88,24.78-27.47,34.18-15.43,11.51-32.33,17.15-41.59,19.58,3.28,5.74,7,12.79,4.08,21.28a20.27,20.27,0,0,1-10.3,12A27,27,0,0,1,282.89,439.67Zm-44-25.07.23.37c5.14,8.29,16.29,16.33,28.39,20.49a49.85,49.85,0,0,0,14.13,2.77,26.38,26.38,0,0,0,12.85-2.45,18.9,18.9,0,0,0,9.59-11.2c2.83-8.28-1-15-4.43-20.92l-.46-.81.9-.23c8.92-2.27,26.25-7.83,42-19.58,12.39-9.25,21.48-20.55,27-33.6l2.78-6.55L365.45,346a157.1,157.1,0,0,1-20.93,8.8c-5.06,1.65-10.09,2.92-16.07,4.31l-.9.21,0-.93c.13-3.43-2.54-8.79-5.64-15l-.05-.11c-3.88-7.74-8.71-17.38-9.64-25.86-2.22-16.4-6.34-32.29-11.62-44.82-3.66-8.73-7.76-15.55-12.17-20.27l-.9-1,1.29-.22a93.61,93.61,0,0,0,16.61-4.31c9.82-3.65,16.15-8.72,18.81-15.07l.1-.24,4.22-2.2c8.41-4.51,14.12-8.18,18.36-13.58s6.75-12.12,8.65-22.82a12.58,12.58,0,0,0,.05-4.11,9.43,9.43,0,0,0-.36-1.46l-.14-.4.29-.31a16.93,16.93,0,0,0,3.89-6.25,11.51,11.51,0,0,0,0-7.48,12.1,12.1,0,0,0-4.85-6,22.51,22.51,0,0,0-11.16-3.24h-.26l-.19-.18c-7.92-7.54-9.69-15.19-11.25-21.94-1.75-7.54-3.26-14-11.17-19-6-3.75-16.75-8.66-26.66-12.2a108.91,108.91,0,0,0-20.5-5.46l-.64-.09,0-.65c.71-15.48-4.91-27.37-15.85-33.47-6.78-3.79-15.29-5.09-23.94-3.65a42.48,42.48,0,0,0-22.35,11c-6.16,5.93-15.39,19-8,39.53l.15.42-6,6-.35-.05c-3.69-.56-14.91-2.27-26.51-.53-25,3.77-35.61,19.83-31.41,47.72,1.87,12.46,6.26,21,13.42,26.26,6.28,4.57,14.8,6.59,26,6.17l.65,0,.08.64a48.79,48.79,0,0,0,12.53,27.12c6.45,7,14.89,12.38,25.11,15.9l1,.34-.68.79a120.39,120.39,0,0,0-9.26,13.36l-.42.67c-1.77,2.8-3.45,5.45-4.88,7.37-5.16,6.91-8.87,15.53-11.34,26.36a181.34,181.34,0,0,0-3.49,24.23l-.09,1-.92-.43a14.13,14.13,0,0,0-12.49-.12,17.1,17.1,0,0,0-8.29,9.4,21.9,21.9,0,0,0-1.06,12l.38,2-1.54-1.36c-16.77-14.8-30.68-36.49-40.21-62.72-8.53-23.49-13.33-50.07-13.87-76.86a244.36,244.36,0,0,1,11.74-80.66C133.63,84.08,162.44,33.11,227.24,9.56l14.83-5.39-17.7.29C156.31,6,99.25,30.38,59.36,75.06,24.46,114.15,4.94,167.83,5.8,222.35v.71c0,.25,0,.48,0,.7.12,5,.42,10,.91,14.7,5.11,50.42,31.15,96.39,73.34,129.45,40,31.35,92.27,48.69,143.39,47.57h0c4.87-.1,9.9-.38,15-.84Zm44,18.36-1.07,0h0a43.63,43.63,0,0,1-12.55-2.51c-12-4.11-22.64-12.08-26.51-19.82l-.82-1.64-1.81.18c-5.56.56-11.18.91-16.7,1a219.8,219.8,0,0,1-140-46.45C42.3,331.57,17,286.9,12,237.95c-.48-4.79-.78-9.6-.88-14.28v-.19c0-.44,0-.84,0-1.21a216.64,216.64,0,0,1,12.46-76.19A202.61,202.61,0,0,1,63.3,78.59c35.4-39.65,85.29-63.15,144.29-68l3.77-.31L208,12c-43.72,21.24-75.57,59-92.12,109.06a249.59,249.59,0,0,0-12,82.42C104.4,230.87,109.31,258,118,282c12.5,34.43,31.75,60.49,55.67,75.35a42.16,42.16,0,0,0,14.72,7.43c1.62.65,3.17,1.21,4.81,1.75l3.15,1,.34-3.66a2.77,2.77,0,0,0-.81-2.24,3.21,3.21,0,0,0-1.51-.84c-1.49-.31-2.83-.65-4.11-1a86.34,86.34,0,0,1-13.44-6.76l-.08-.06a20.66,20.66,0,0,1-6.85-10.27,16.89,16.89,0,0,1,.46-10.52,11.82,11.82,0,0,1,5.64-6.52c3.55-1.71,7.7-.79,11.69,2.59l4,3.38.39-5.2c.72-9.6,1.67-19.77,3.81-29.07,2.29-10,5.7-18,10.42-24.35,1.52-2,3.41-5,5.4-8.2,4.23-6.74,9-14.33,12.24-16l6.24-3.18-6.8-1.76c-11.63-3-21.42-8.56-28.3-16.07a43.94,43.94,0,0,1-11.46-27.19l-.19-2.66-2.65.19c-11.54.86-20-.77-25.78-5s-9.63-11.76-11.29-22.75c-4.58-30.38,12.13-39.43,26.94-41.67,11-1.66,21.92,0,25.51.6l1.16.17,1.29.16L209,119.36l-.66-1.63C202.75,104,204.9,91,214.25,82a37.2,37.2,0,0,1,19.56-9.61c7.49-1.24,14.76-.16,20.48,3,9.79,5.46,14.37,16.7,12.92,31.64l-.26,2.73,2.75.17c6.93.43,16,3.23,22.35,5.51,9.64,3.45,20,8.15,25.65,11.7,6,3.75,7.38,9.52,8.79,15.63,1.81,7.81,3.86,16.64,13.76,25.54l.73.65,1,0c4,.06,7.3.89,9.59,2.41a6.84,6.84,0,0,1,2.76,3.31,6.32,6.32,0,0,1-.06,4.08,13.69,13.69,0,0,1-4.71,6.1l-8,6.3,8.94-1.42v.83a7.71,7.71,0,0,1-.12,1.4l0,.11c-1.74,9.77-4,15.88-7.58,20.41-3.69,4.7-8.91,8-16.67,12.19l-6,3.15-.34,1c-1.79,5.34-7.21,9.73-16.11,13.05A99.82,99.82,0,0,1,280.68,247l-8,.95,7,4c5.57,3.18,11.12,11,16,22.76,5.11,12.17,9.11,27.55,11.25,43.3,1,9.34,6.08,19.48,10.15,27.62,3.28,6.55,5.27,10.62,5.17,12.63,0,1-.11,1.8-.2,2.49a8.48,8.48,0,0,1-.26,1.31l-1.31,4.35,4.43-1c8.35-1.89,14.75-3.4,21.21-5.51a133.92,133.92,0,0,0,12.78-5l2-.9-1.13,1.91a79.06,79.06,0,0,1-21,22.84C322.42,391,304.15,396.26,296.5,398h0l-.48.11-.07,0-.87.2v-.16a3.1,3.1,0,0,0-1,.24l-.23.13c-1.62.88-2,1.93-1.29,3.48l.17.3c.47.87,1.16,2.07,1.86,3.28,3.17,5.5,6.44,11.18,4.37,17.23a13.71,13.71,0,0,1-6.93,8.18A20.51,20.51,0,0,1,282.83,433Zm-1-1.43a19.91,19.91,0,0,0,9.63-1.75,12.34,12.34,0,0,0,6.23-7.37c1.86-5.44-1.24-10.83-4.25-16-.51-.88-1-1.75-1.43-2.49h0l-.46-.83c-1.16-2.15-.83-3.95.95-5.24l0,0,.79-.44a5.14,5.14,0,0,1,2.51-.57h0l.66-.17v0c7.68-1.8,25.54-7,41.6-19a78.42,78.42,0,0,0,19.42-20.52c-3.86,1.65-7.35,3-10.84,4.1-6.52,2.13-13,3.64-21.34,5.55l-6.81,1.55,2-6.7a8.05,8.05,0,0,0,.21-1.08c.08-.64.15-1.44.19-2.36.08-1.74-2.38-6.65-5-11.85-4.16-8.32-9.29-18.58-10.32-28.15-2.12-15.61-6.08-30.86-11.15-42.92-4.8-11.42-10.14-19.06-15.43-22.08L268.21,247l12.31-1.45a98.41,98.41,0,0,0,22.6-5c8.48-3.17,13.62-7.26,15.27-12.18l.52-1.55,6.53-3.42c7.59-4.07,12.68-7.31,16.22-11.81,3.43-4.35,5.62-10.28,7.31-19.83l0-.1c0-.08,0-.17,0-.27l-12.64,2,12.31-9.67a12.29,12.29,0,0,0,4.25-5.43,4.84,4.84,0,0,0,.07-3.16,5.44,5.44,0,0,0-2.21-2.61c-2.07-1.37-5.12-2.12-8.83-2.17l-1.54,0-1.13-1c-10.23-9.2-12.33-18.26-14.19-26.26-1.41-6.09-2.62-11.32-8.17-14.76s-15.83-8.15-25.38-11.57c-6.29-2.25-15.2-5-22-5.43l-4.21-.27.4-4.19c1.4-14.35-2.93-25.1-12.2-30.27-5.45-3-12.39-4.07-19.56-2.88A35.78,35.78,0,0,0,215.23,83c-5.24,5-12.92,16.19-5.58,34.23l1,2.5-11.52,11.53-2-.25-1.21-.18c-3.54-.55-14.3-2.22-25.08-.6-20.62,3.12-29.28,16.59-25.75,40.06,1.6,10.59,5.1,17.73,10.72,21.81s13.64,5.55,24.84,4.72l4.06-.29.29,4.07a42.55,42.55,0,0,0,11.09,26.33c6.7,7.31,16.24,12.72,27.61,15.66l10.42,2.69-9.57,4.88c-2.89,1.47-7.75,9.21-11.66,15.42-2,3.23-3.94,6.24-5.49,8.33-4.6,6.18-7.93,14-10.18,23.82-2.11,9.21-3.06,19.31-3.77,28.86l-.6,8-6.1-5.19c-3.53-3-7.14-3.85-10.15-2.39a10.42,10.42,0,0,0-4.94,5.76,15.47,15.47,0,0,0-.41,9.63,19.23,19.23,0,0,0,6.36,9.53,85,85,0,0,0,13.12,6.6c1.18.35,2.49.67,3.94,1a4.65,4.65,0,0,1,2.23,1.24,4.19,4.19,0,0,1,1.21,3.36l-.51,5.44-4.84-1.6c-1.66-.54-3.25-1.12-4.83-1.76a43.2,43.2,0,0,1-15.08-7.62c-24.12-15-43.57-41.28-56.18-76-8.77-24.12-13.71-51.45-14.27-79a251,251,0,0,1,12.06-82.89C130.73,71.4,161.64,34.06,204,12.37,147,17.83,98.76,41,64.36,79.53,30.58,117.38,11.68,169.4,12.51,222.24c0,.38,0,.77,0,1.2v.19c.1,4.65.39,9.42.87,14.17,4.93,48.57,30.07,92.89,70.8,124.82C123,393,173.75,409.9,223.33,408.77c5.49-.13,11.07-.47,16.59-1l2.78-.28L244,410c3.72,7.43,14,15.12,25.7,19.12a42.25,42.25,0,0,0,12.15,2.44Z" transform="translate(-4.35 -1.92)" fill="#231300"/><path d="M304.76,231.36a3.36,3.36,0,1,0,1.36-6.59,38.25,38.25,0,0,0-7.05-.5c-3.17,0-6.61-.09-9.18-1a3.36,3.36,0,1,0-2.29,6.31c3.62,1.31,7.66,1.37,11.39,1.42A33.4,33.4,0,0,1,304.76,231.36Z" transform="translate(-4.35 -1.92)" fill="#231300"/><path d="M305.43,232.13a4.06,4.06,0,0,1-.81-.08h0a31.67,31.67,0,0,0-5.44-.36H299c-3.69,0-7.87-.1-11.62-1.46a4.07,4.07,0,1,1,2.78-7.65c2.45.89,5.88.94,8.91,1h.21a37.67,37.67,0,0,1,7,.51,4.07,4.07,0,0,1-.83,8.06Zm-.53-1.47a2.66,2.66,0,0,0,1.07-5.2,36.79,36.79,0,0,0-6.74-.48h-.17c-3.18,0-6.74-.1-9.41-1.07a2.65,2.65,0,1,0-1.81,5c3.53,1.28,7.58,1.33,11.16,1.38h.2A32.47,32.47,0,0,1,304.9,230.66Z" transform="translate(-4.35 -1.92)" fill="#231300"/><path d="M347.58,163.5c-9.45-1.59-15.62,1.73-18.92,6.74a17.65,17.65,0,0,0-2.27,13.52,14.34,14.34,0,0,0,8.51,10.45c5,1.95,11.78.92,19.7-5.75l-4.31-5.13c-5.7,4.79-10.06,5.75-13,4.62a7.76,7.76,0,0,1-4.38-5.71,10.86,10.86,0,0,1,1.32-8.32c1.94-2.95,5.86-4.86,12.2-3.79Z" transform="translate(-4.35 -1.92)" fill="#231300"/><path d="M339.74,195.82a14,14,0,0,1-5.09-.94c-4.46-1.72-7.73-5.71-8.95-10.95a18.43,18.43,0,0,1,2.37-14.08c2.29-3.48,7.88-9,19.63-7l.7.12-1.34,8-.7-.12c-5.35-.9-9.42.33-11.49,3.48a10.16,10.16,0,0,0-1.23,7.77c.6,2.57,2,4.48,3.94,5.21,3.05,1.18,7.4-.42,12.26-4.5l.54-.46,5.22,6.21-.54.46C348.88,194.22,343.73,195.82,339.74,195.82Zm3.3-32c-6,0-10.85,2.35-13.78,6.82a17,17,0,0,0-2.17,13c1.11,4.77,4.06,8.39,8.08,9.95,3.77,1.46,10,1.72,18.44-5.18l-3.4-4c-6.45,5.23-10.69,5.23-13.14,4.29s-4.1-3.17-4.81-6.21a11.61,11.61,0,0,1,1.42-8.87c1.34-2,4.7-5.25,12.21-4.21l.87-5.24A26.1,26.1,0,0,0,343,163.82Z" transform="translate(-4.35 -1.92)" fill="#231300"/><path d="M188.53,150.23a3.36,3.36,0,1,0,2.56-6.21c-13.26-5.45-23.29-2.86-29.59,3a24,24,0,0,0-7.38,15.61,21.16,21.16,0,0,0,5.09,16c5,5.55,13.7,8.35,26.1,4.69a3.36,3.36,0,0,0-1.89-6.45c-9.5,2.8-15.81,1-19.25-2.76a14.57,14.57,0,0,1-3.35-10.94A17.3,17.3,0,0,1,166.07,152C170.62,147.72,178.18,146,188.53,150.23Z" transform="translate(-4.35 -1.92)" fill="#231300"/><path d="M174.82,185.69c-6.64,0-12.19-2.22-16.14-6.56a21.92,21.92,0,0,1-5.27-16.52A24.8,24.8,0,0,1,161,146.53c4.34-4.06,14.06-9.86,30.35-3.17a4.07,4.07,0,1,1-3.1,7.52c-9-3.68-16.67-3.11-21.71,1.6a16.62,16.62,0,0,0-5,10.75,13.89,13.89,0,0,0,3.17,10.41c3.71,4.08,10.29,5,18.52,2.56a4.06,4.06,0,0,1,5.05,2.76,4.08,4.08,0,0,1-2.76,5A37.93,37.93,0,0,1,174.82,185.69Zm2.49-43.95A21.83,21.83,0,0,0,162,147.57a23.36,23.36,0,0,0-7.16,15.15,20.5,20.5,0,0,0,4.91,15.46c5.53,6.09,14.55,7.69,25.38,4.49a2.66,2.66,0,0,0,1.8-3.29,2.64,2.64,0,0,0-3.29-1.8c-8.78,2.58-15.88,1.53-20-3a15.31,15.31,0,0,1-3.54-11.48,18.06,18.06,0,0,1,5.48-11.67c3.17-3,10.4-7.14,23.22-1.88h0a2.65,2.65,0,1,0,2-4.9A35.79,35.79,0,0,0,177.3,141.75Z" transform="translate(-4.35 -1.92)" fill="#231300"/><path d="M270.09,103.91c-9.87-.41-22.76-.63-35.11,1-12.71,1.64-24.84,5.22-32.69,12.45l4.55,5c6.69-6.16,17.51-9.26,29-10.75,11.84-1.53,24.38-1.31,34-.91Z" transform="translate(-4.35 -1.92)" fill="#231300"/><path d="M206.8,123.29l-5.51-6,.52-.48c7-6.46,18.15-10.71,33.08-12.63,12.81-1.66,26.24-1.35,35.23-1l.71,0-.32,8.13-.71,0c-8.71-.36-21.71-.67-33.87.9-13.23,1.71-22.85,5.27-28.61,10.57Zm-3.5-5.91,3.59,3.91c6-5.24,15.72-8.76,28.86-10.46,11.95-1.55,24.65-1.3,33.41-.94l.21-5.3c-8.93-.36-21.92-.61-34.29,1C220.81,107.42,210.12,111.39,203.29,117.38Z" transform="translate(-4.35 -1.92)" fill="#231300"/><path d="M243.14,410a24.27,24.27,0,0,1-3.44-11,93.62,93.62,0,0,1,.12-15.82l.26-3.92-3.92.33a60,60,0,0,1-8.61.17c-8.51-.47-16.5-3-22.6-9s-10.59-15.71-11.87-30.4a119.56,119.56,0,0,1-.17-16.77l-6.7-.37a124.22,124.22,0,0,0,.16,17.72c1.43,16.45,6.59,27.5,13.89,34.64s16.89,10.33,26.92,10.9c1.89.1,3.78.12,5.68.06a85,85,0,0,0,.14,13.13,30.84,30.84,0,0,0,4.5,14Z" transform="translate(-4.35 -1.92)" fill="#231300"/><path d="M237.3,414.59l-.39-.59a31.59,31.59,0,0,1-4.62-14.31,82.55,82.55,0,0,1-.18-12.48c-1.74,0-3.38,0-5-.08-11.28-.63-20.49-4.37-27.38-11.1-8-7.84-12.76-19.65-14.1-35.09a125.69,125.69,0,0,1-.16-17.82l0-.71,8.12.45,0,.71a119.52,119.52,0,0,0,.17,16.67c1.17,13.48,5.09,23.55,11.65,30,5.46,5.32,12.91,8.28,22.15,8.8a59,59,0,0,0,8.51-.17l4.74-.4-.32,4.74a94.88,94.88,0,0,0-.12,15.69,23.61,23.61,0,0,0,3.33,10.71l.39.6Zm-3.69-28.84,0,.77a83.46,83.46,0,0,0,.14,13,30.8,30.8,0,0,0,4,13.08l4.45-2.88A25.71,25.71,0,0,1,239,399a96,96,0,0,1,.11-15.94l.21-3.09-3.09.26a60.34,60.34,0,0,1-8.71.17c-9.59-.53-17.35-3.63-23.06-9.2-6.81-6.64-10.87-17-12.08-30.85a119.79,119.79,0,0,1-.21-16.17l-5.29-.29a123.07,123.07,0,0,0,.2,16.91c1.31,15.09,5.91,26.6,13.68,34.2,6.64,6.48,15.54,10.08,26.47,10.7,1.79.1,3.62.12,5.62.06Z" transform="translate(-4.35 -1.92)" fill="#231300"/><path d="M328.11,358.57a3.36,3.36,0,1,0-6.7.45c.18,2.64-2.1,5.18-5.53,7.14a28.31,28.31,0,0,1-9.11,3.16,28.91,28.91,0,0,1-10.1,0c-5.28-1-9.8-3.8-11.44-9.1-4.91-15.84-11.64-14.87-18.82-13.82-3.7.53-7.58,1.09-11.08-4.16A3.37,3.37,0,1,0,249.7,346c5.85,8.78,11.9,7.9,17.64,7.07,4.26-.62,8.25-1.2,11.45,9.14,2.51,8.1,9.05,12.33,16.62,13.74a35.74,35.74,0,0,0,12.48,0,35.08,35.08,0,0,0,11.32-4C324.83,368.8,328.5,364.1,328.11,358.57Z" transform="translate(-4.35 -1.92)" fill="#231300"/><path d="M301.46,377.22a34,34,0,0,1-6.17-.55c-8.74-1.64-14.83-6.69-17.17-14.23-3-9.76-6.57-9.25-10.67-8.64-5.73.83-12.23,1.77-18.33-7.38a4.08,4.08,0,0,1,6.79-4.53c3.25,4.88,6.71,4.38,10.38,3.86,7.15-1,14.52-2.12,19.62,14.31,1.39,4.51,5.26,7.57,10.89,8.61a28.2,28.2,0,0,0,9.85,0,27.45,27.45,0,0,0,8.88-3.07c3.44-2,5.33-4.32,5.17-6.48a4.08,4.08,0,0,1,3.79-4.34,4.07,4.07,0,0,1,4.33,3.79c.39,5.46-2.9,10.47-9.25,14.09a35.61,35.61,0,0,1-11.55,4A38.29,38.29,0,0,1,301.46,377.22ZM270.32,352.1c3.32,0,6.56,1.58,9.14,9.93,2.79,9,10.28,12.17,16.08,13.26a35,35,0,0,0,12.22,0,34.2,34.2,0,0,0,11.09-3.87c5.85-3.34,8.89-7.87,8.54-12.77h0a2.61,2.61,0,0,0-.89-1.82,2.65,2.65,0,0,0-4.4,2.17c.19,2.76-1.9,5.53-5.89,7.8a28.86,28.86,0,0,1-9.34,3.24,29.56,29.56,0,0,1-10.35,0c-6.17-1.15-10.43-4.55-12-9.59-4.73-15.27-10.9-14.37-18-13.33-3.77.54-8,1.15-11.77-4.47a2.66,2.66,0,1,0-4.43,3c5.6,8.4,11.37,7.57,16.94,6.76A21.56,21.56,0,0,1,270.32,352.1Z" transform="translate(-4.35 -1.92)" fill="#231300"/><path d="M280.28,367.34a3.36,3.36,0,0,0,6.53-1.6c-1.29-5.24-2.87-9.85-6-13.33-3.26-3.67-7.9-5.85-15.1-5.82a3.35,3.35,0,0,0,0,6.7c5,0,8.06,1.31,10.06,3.56C278,359.29,279.22,363,280.28,367.34Z" transform="translate(-4.35 -1.92)" fill="#231300"/><path d="M283.55,370.61a4.09,4.09,0,0,1-4-3.1h0c-.94-3.83-2.11-7.72-4.29-10.18-2-2.26-5-3.32-9.39-3.32h-.16a4.07,4.07,0,0,1-2.87-6.93,4.25,4.25,0,0,1,3-1.19c6.79,0,11.85,2,15.47,6.06,3.35,3.78,4.92,8.79,6.11,13.63a4,4,0,0,1-.46,3.06,4.06,4.06,0,0,1-3.49,2ZM281,367.17a2.66,2.66,0,0,0,4.86.73,2.61,2.61,0,0,0,.3-2c-1.15-4.67-2.65-9.48-5.8-13-3.37-3.8-8-5.58-14.4-5.58a2.82,2.82,0,0,0-2,.78,2.64,2.64,0,0,0,1.87,4.51h.15c4.77,0,8.19,1.24,10.46,3.8S280,363.16,281,367.17Z" transform="translate(-4.35 -1.92)" fill="#231300"/><path d="M298.86,401.07c-1.06-1.31-2.25-3.14-3.08-4.4-.07-.12-.14-.22-.63-1-4.71-7-5.55-12.95-6.49-19.56a102.69,102.69,0,0,0-1.85-10.4l-6.53,1.58a97,97,0,0,1,1.73,9.75c1,7.42,2,14.09,7.56,22.37.16.23.18.29.59.91.88,1.34,2.14,3.27,3.47,4.92Z" transform="translate(-4.35 -1.92)" fill="#231300"/><path d="M293.51,406.27l-.44-.55c-1.35-1.68-2.65-3.66-3.51-5l-.37-.58-.21-.32c-5.67-8.43-6.64-15.35-7.68-22.68l0-.22a94.45,94.45,0,0,0-1.68-9.46l-.17-.69,7.91-1.91.17.69a102.79,102.79,0,0,1,1.87,10.47c.94,6.65,1.75,12.39,6.37,19.26.51.76.58.87.65,1l.23.35c.78,1.18,1.85,2.81,2.79,4l.45.55Zm-12.38-38.42c.73,3.13,1.14,6.06,1.54,8.9l0,.22c1.06,7.47,2,13.92,7.44,22.08l.24.36.36.56c.75,1.14,1.84,2.81,3,4.3l4.14-3.32c-.86-1.13-1.75-2.49-2.43-3.52l-.25-.37c-.08-.14-.15-.24-.63-1-4.81-7.15-5.68-13.32-6.6-19.86-.46-3.28-.9-6.29-1.68-9.64Z" transform="translate(-4.35 -1.92)" fill="#231300"/><path d="M219.36,241.9a3.37,3.37,0,1,0-2.4,6.29,83.39,83.39,0,0,0,17.28,4.44,150.41,150.41,0,0,0,17,1.49,3.35,3.35,0,0,0,.25-6.7A145.41,145.41,0,0,1,235.25,246,76.27,76.27,0,0,1,219.36,241.9Z" transform="translate(-4.35 -1.92)" fill="#231300"/><path d="M251.4,254.82h-.18a149.8,149.8,0,0,1-17.08-1.49,83.47,83.47,0,0,1-17.43-4.47,4.06,4.06,0,0,1-2.35-5.26,4.08,4.08,0,0,1,5.26-2.36h0a75,75,0,0,0,15.74,4,143,143,0,0,0,16.18,1.43,4.06,4.06,0,0,1-.13,8.12Zm-33.23-12.43a2.65,2.65,0,0,0-1,5.14,82.09,82.09,0,0,0,17.14,4.4,148.49,148.49,0,0,0,16.92,1.48,2.64,2.64,0,0,0,2.74-2.54,2.6,2.6,0,0,0-.69-1.89,2.63,2.63,0,0,0-1.85-.85,144.44,144.44,0,0,1-16.34-1.45,76.4,76.4,0,0,1-16-4.1A2.68,2.68,0,0,0,218.17,242.39Z" transform="translate(-4.35 -1.92)" fill="#231300"/><path d="M502.08,100.51l2.34,3.47c7,10.32,8.32,14.75,8.88,16.81a2.32,2.32,0,0,1,.68.15,149.9,149.9,0,0,1,16.54,6.55l.16.08,12.7,6.5-15.91,7.51c4.61,8.12,5,8.46,6.85,9.92a62,62,0,0,1,6.79,6.27l5.83,6.06-8.4-.37c-6.61-.3-11.84-2.66-16.95-5-3.84-1.74-7.6-3.44-11.55-3.93l-.32.29a20.27,20.27,0,0,0-3.29,3.64h0l-2.17,3.32-.14.17c-1,1.2-1.36,1.79-1.57,2.07a4.42,4.42,0,0,1-.65.79,3.49,3.49,0,0,1-1.06.71,9.21,9.21,0,0,0-1.52,1l-4.55,3.18-.7-5.51a49.6,49.6,0,0,1-.18-10.91,52.22,52.22,0,0,1,1.38-8.11,37.59,37.59,0,0,0-3.84-1.06c-4.12-1-8.25-2-12-6l-2.2-2.36,2.28-2.29a17.43,17.43,0,0,1,9.19-5c2.76-.71,4.77-1.23,6.3-12.7.23-1.66.32-3,.39-4,.29-3.85.33-4.58,3.76-8.18Zm-11.66,34.41a15.32,15.32,0,0,0-2.83.93,27.29,27.29,0,0,0,5.43,1.72,29.06,29.06,0,0,1,7.94,2.79l2.33,1.34-.78,2.57a47.32,47.32,0,0,0-1.92,9.61c0,.48-.08,1-.1,1.44l.55-.85a26.25,26.25,0,0,1,4.19-4.62l1.31-1.2,1-1,1.44.07c5.76.28,10.51,2.43,15.36,4.63l2.44,1.08a136.1,136.1,0,0,1-7-11.69l-1.76-3.14,10.11-4.78-.41-.21a147.09,147.09,0,0,0-15.86-6.28,8.72,8.72,0,0,1-3.44-1.62,4.87,4.87,0,0,1-1.59-2.94c-.33-1.28-1-3.85-4.76-10-.07,1-.17,2.15-.4,3.8C499.56,132.55,495.74,133.54,490.43,134.92Zm22.51-14.22.07,0C512.82,120.6,512.69,120.49,512.94,120.71Z" transform="translate(-4.35 -1.92)" fill="#231300"/><path d="M494.23,170.94l-.85-6.67a50.46,50.46,0,0,1-.19-11.06,53,53,0,0,1,1.25-7.58c-1-.33-2.11-.58-3.16-.83-4.15-1-8.44-2-12.32-6.21l-2.66-2.86,2.76-2.78a18.22,18.22,0,0,1,9.51-5.22c2.5-.65,4.31-1.11,5.78-12.1.23-1.67.32-3,.39-3.94.31-4.09.47-5,3.95-8.62l3.5-3.68,2.83,4.2c6.72,10,8.29,14.59,8.86,16.58l.34.1a150.25,150.25,0,0,1,16.61,6.58l.19.09,14,7.16-16.52,7.8c4.19,7.36,4.58,7.68,6.3,9.05a63.26,63.26,0,0,1,6.85,6.33l7.06,7.34-10.17-.45c-6.78-.31-12.08-2.71-17.21-5-3.75-1.7-7.29-3.31-11-3.83l-.08.07a19.59,19.59,0,0,0-3.2,3.54l-2.32,3.51c-.82,1-1.23,1.6-1.45,1.91l-.09.13a5.13,5.13,0,0,1-.73.89,4.21,4.21,0,0,1-1.24.84,8.9,8.9,0,0,0-1.42.9Zm-16-35.19,1.74,1.86c3.59,3.87,7.49,4.8,11.62,5.8a38.26,38.26,0,0,1,3.91,1.08l.61.22-.16.63a51.6,51.6,0,0,0-1.36,8,49,49,0,0,0,.18,10.76l.55,4.35,3.59-2.51a9.89,9.89,0,0,1,1.62-1,2.8,2.8,0,0,0,.89-.6,3.48,3.48,0,0,0,.5-.62l.13-.19c.23-.32.65-.92,1.5-2l.14-.17,2.13-3.26a21,21,0,0,1,3.39-3.76l.59-.53.32,0c4.07.5,8,2.27,11.76,4,5,2.27,10.18,4.62,16.68,4.91l6.63.29-4.6-4.78a61,61,0,0,0-6.68-6.18c-2-1.61-2.53-2.16-7.06-10.15l-.38-.66,15.3-7.22-11.57-5.92c-6.94-3.12-11.31-4.76-14-5.71l2.29,1.86-5.56-2.78h-.14l-.08-.11-.23-.16h0c-.57-.52-.32-.94-.18-1.1l.08-.09c-.67-2.16-2.45-6.66-8.51-15.65L502,101.64l-2.28,2.4c-3.24,3.4-3.28,4-3.56,7.71-.07,1-.16,2.35-.4,4.06-1.52,11.38-3.49,12.42-6.83,13.28a16.78,16.78,0,0,0-8.87,4.85Zm21.38,22.15.13-2.62c0-.5.06-1,.11-1.47a47.94,47.94,0,0,1,2-9.75l.62-2L500.6,141a28.62,28.62,0,0,0-7.75-2.71,27.85,27.85,0,0,1-5.57-1.77l-1.36-.65,1.37-.63a15.9,15.9,0,0,1,3-1h0c5.22-1.36,8.67-2.26,10.75-17.72.23-1.65.33-2.83.4-3.76l.16-2.2,1.15,1.88c3.81,6.23,4.51,8.88,4.84,10.16a4.19,4.19,0,0,0,1.38,2.59,7.93,7.93,0,0,0,3.13,1.46,147.25,147.25,0,0,1,16,6.32l1.75.87-10.75,5.08,1.39,2.48c3.49,6.19,5.52,9.69,6.93,11.62l1.56,2.12-2.41-1.05-1.56-.69-.88-.39c-4.88-2.21-9.48-4.3-15.1-4.57l-1.14-.05-2.14,2a25.66,25.66,0,0,0-4.11,4.52Zm-10.08-22c1.17.4,2.4.7,3.6,1a29.84,29.84,0,0,1,8.16,2.87l2.82,1.62-.95,3.11a47,47,0,0,0-1.78,8.34,25.18,25.18,0,0,1,3.27-3.44l2.63-2.45L509,147c5.89.28,10.84,2.53,15.61,4.69l.19.08c-1.34-2.12-3.11-5.21-5.64-9.7l-2.13-3.81,9.43-4.46A141,141,0,0,0,511.7,128a9.33,9.33,0,0,1-3.71-1.77,5.57,5.57,0,0,1-1.8-3.28c-.28-1.08-.83-3.19-3.57-7.92-.05.5-.12,1-.21,1.66-2.21,16.41-6.44,17.51-11.8,18.9h0Z" transform="translate(-4.35 -1.92)" fill="#231300"/><path d="M353.78,3l2.34,3.47c7,10.31,8.32,14.73,8.88,16.8a2.8,2.8,0,0,1,.68.15A149.9,149.9,0,0,1,382.22,30l.16.08,12.7,6.5-15.91,7.52c4.61,8.12,5,8.46,6.85,9.91a61.34,61.34,0,0,1,6.79,6.28l5.84,6.06-8.4-.38c-6.62-.29-11.85-2.66-17-5-3.84-1.75-7.6-3.46-11.55-3.94l-.32.3A19.71,19.71,0,0,0,358.12,61h0L356,64.32l-.14.18c-1,1.19-1.36,1.79-1.57,2.07a4.33,4.33,0,0,1-.65.78,3.18,3.18,0,0,1-1.06.71A10,10,0,0,0,351,69l-4.55,3.18-.7-5.52a49.6,49.6,0,0,1-.18-10.91A52.69,52.69,0,0,1,347,47.68c-1.23-.43-2.53-.74-3.84-1.06-4.12-1-8.25-2-12-6L329,38.26,331.24,36a17.48,17.48,0,0,1,9.19-5c2.76-.73,4.77-1.23,6.3-12.71.23-1.66.32-3,.39-4,.29-3.86.33-4.58,3.76-8.19Zm-11.66,34.4a16.23,16.23,0,0,0-2.83.93,26.59,26.59,0,0,0,5.43,1.73,28.31,28.31,0,0,1,7.94,2.79L355,44.23l-.78,2.57a47,47,0,0,0-1.92,9.61c0,.47-.08,1-.1,1.44l.55-.86a25.68,25.68,0,0,1,4.19-4.61l1.31-1.21,1-1,1.43.07c5.77.29,10.51,2.43,15.36,4.63L378.5,56c-1.37-1.87-3.23-5-7-11.7l-1.76-3.14,10.11-4.77-.41-.22a147.09,147.09,0,0,0-15.86-6.28,8.41,8.41,0,0,1-3.44-1.62,4.81,4.81,0,0,1-1.59-2.94c-.33-1.28-1-3.84-4.76-10-.07.94-.17,2.15-.4,3.8C351.26,35.08,347.43,36.07,342.12,37.44Zm22.51-14.22.07,0C364.51,23.12,364.39,23,364.63,23.22Z" transform="translate(-4.35 -1.92)" fill="#231300"/><path d="M345.92,73.47l-.85-6.68a50.46,50.46,0,0,1-.19-11.06,53.42,53.42,0,0,1,1.24-7.58c-.91-.28-1.86-.52-2.84-.76l-.32-.08c-4.15-1-8.44-2-12.32-6.21L328,38.24l2.76-2.78a18.26,18.26,0,0,1,9.51-5.21c2.51-.66,4.31-1.13,5.78-12.11.23-1.68.32-3,.39-3.93.3-4.09.47-5,3.95-8.63l3.5-3.67,2.83,4.2c6.72,10,8.29,14.58,8.86,16.57l.34.1a150.48,150.48,0,0,1,16.61,6.58l.19.09,14,7.16-16.52,7.81c4.19,7.37,4.59,7.68,6.3,9a62.64,62.64,0,0,1,6.86,6.34l7.07,7.34-10.17-.46c-6.73-.29-12-2.68-17.15-5-3.63-1.66-7.32-3.34-11.09-3.87l-.08.07a19,19,0,0,0-3.21,3.53l-2.3,3.5c-.81,1-1.2,1.56-1.44,1.9l-.12.17a4.89,4.89,0,0,1-.73.88,3.74,3.74,0,0,1-1.17.81,9.34,9.34,0,0,0-1.49.94Zm-16-35.2,1.74,1.86c3.59,3.87,7.49,4.8,11.62,5.8l.32.08c1.19.29,2.42.6,3.58,1l.61.21-.16.63a52.13,52.13,0,0,0-1.36,8,49,49,0,0,0,.18,10.76L347,71l3.59-2.51a10.3,10.3,0,0,1,1.63-1,2.53,2.53,0,0,0,.86-.58,3.66,3.66,0,0,0,.56-.68l.12-.17c.23-.33.66-.93,1.48-1.95l.12-.16,2.14-3.28a20.52,20.52,0,0,1,3.42-3.77l.55-.52.33,0c4.1.5,8,2.28,11.76,4,5.07,2.29,10.24,4.62,16.69,4.9l6.62.3-4.61-4.78a60.45,60.45,0,0,0-6.68-6.19c-2-1.59-2.52-2.14-7.06-10.14l-.38-.66,15.3-7.23L381.9,30.64c-6.92-3.11-11.29-4.76-14-5.71l1.9,1.54-5.61-2.71h0l-.09-.08h0a.69.69,0,0,1-.12-1l.09-.1c-.67-2.16-2.45-6.66-8.52-15.65l-1.85-2.74L351.4,6.56c-3.24,3.41-3.28,4-3.56,7.72-.07,1-.16,2.33-.4,4-1.52,11.37-3.48,12.42-6.81,13.29a16.85,16.85,0,0,0-8.88,4.84Zm21.38,22.19.13-2.66c0-.33,0-.67.07-1l0-.46a47.8,47.8,0,0,1,2-9.77l.62-2-1.84-1.06a27.68,27.68,0,0,0-7.75-2.71A27.23,27.23,0,0,1,339,39l-1.35-.66,1.36-.63a16.68,16.68,0,0,1,2.91-1h0c5.23-1.35,8.68-2.24,10.75-17.71.23-1.63.33-2.82.4-3.76l.16-2.2L354.4,15c3.82,6.24,4.51,8.88,4.84,10.14a4.13,4.13,0,0,0,1.38,2.59,7.79,7.79,0,0,0,3.19,1.48,147.31,147.31,0,0,1,15.94,6.31l1.71.9-10.71,5.05,1.39,2.48c3.58,6.36,5.53,9.72,6.93,11.63l1.56,2.12-2.41-1.05-2.45-1.1c-4.86-2.2-9.45-4.29-15.1-4.57l-1.12-.05-.83.78-1,.9-.35.32a25.1,25.1,0,0,0-4.11,4.51ZM341.24,38.41c1.17.4,2.4.7,3.59,1A29.35,29.35,0,0,1,353,42.27l2.82,1.62L354.87,47a46.66,46.66,0,0,0-1.78,8.33,24.76,24.76,0,0,1,3.32-3.47l.38-.34,1-.88,1.27-1.2,1.73.08c5.92.3,10.85,2.53,15.62,4.69l.18.08c-1.31-2.08-3.05-5.12-5.63-9.7l-2.14-3.81,9.44-4.45a141.66,141.66,0,0,0-14.81-5.81,9,9,0,0,1-3.72-1.78,5.5,5.5,0,0,1-1.8-3.28c-.28-1.07-.83-3.17-3.57-7.9-.06.5-.12,1.05-.21,1.66-2.19,16.41-6.43,17.51-11.8,18.89h0Z" transform="translate(-4.35 -1.92)" fill="#231300"/></svg>