<svg xmlns="http://www.w3.org/2000/svg" viewBox="0 0 81.64 137.14"><path d="M75.54,109c-.1-.9-1.62-.9-1.52,0,.3,2.66-2.79,4.82-4.83,6,3.16-9.18,6.93-19.88,9.44-26.15.19-.42.28-.69.29-.73s0,0,0-.06a3.28,3.28,0,0,0-.39-2.3c-1.6-3.39-6.47-8-13.46-10.34l.31-1.1a21.33,21.33,0,0,0,6.12-5c.61-.73-.53-1.7-1.11-1a20.67,20.67,0,0,1-4.44,4l4.33-15.42a.69.69,0,0,0,0-.19h0c0-.24-.09-2.4-3.59-4.93a21.21,21.21,0,0,0-2.64-1.61L70,34.74,72.14,39a.72.72,0,0,0,.53.39h.18a.72.72,0,0,0,.63-.51l1.95-6.61,5.74-1.95A.72.72,0,0,0,81.23,29L76,26.55l.56-7.23a.72.72,0,0,0-1.27-.52l-4.55,5.46-5.86-3a.72.72,0,0,0-1,.91l2.69,6.52-4.43,4.73a.72.72,0,0,0,.65,1.2L69,33.52,62.8,49.47a63,63,0,0,0-15.74-4.31L51.4,19.67l4.11,4.65a.72.72,0,0,0,1.26-.5l-.32-7.9,6.44-4.35a.72.72,0,0,0-.34-1.31l-7.15-.65-1.27-9a.72.72,0,0,0-.6-.61h0a.72.72,0,0,0-.76.4l-3.86,8L41.56,6.55a.72.72,0,0,0-.73,1.15l5.08,6.18-3.55,7.35a.72.72,0,0,0,1,1L50.05,19,45.63,44.94l-2.35-.34a90.93,90.93,0,0,0-13.7-1l-.94-16.74,5.88,2.73a.72.72,0,0,0,.92-1L31.9,22.54l4.36-4.61a.72.72,0,0,0-.63-1.2l-6.06.89-2.88-6.8a.72.72,0,0,0-1.36.1l-2,7.61-5.66-.14a.72.72,0,0,0-.4,1.33L22.6,23.1l-2.69,6.77a.72.72,0,0,0,1,.87l6.24-3.91.95,16.86c-4.21.25-7,1.12-8.22,2.64a2.63,2.63,0,0,0-.64,2.24L19.14,59a20.33,20.33,0,0,1-2.6-6.25c-.2-.88-1.65-.55-1.44.38a21.29,21.29,0,0,0,4,8.36L19,66.9C7.81,68,6.5,75.26,6.45,75.56c0,0,0,0,0,.05h0s0,.09,0,.18l-.53,30.61a10.19,10.19,0,0,1-4.41-5.19c-.28-.86-1.75-.51-1.46.38.92,2.82,3.24,4.87,5.84,6.35l-.26,15.08a.72.72,0,0,0,.24.55c.43.39,10.87,9.66,30.41,12.87,16.71,2.74,26.47-3.81,26.88-4.09a.72.72,0,0,0,.27-.37c0-.14,2.25-6.75,5.09-15a15.07,15.07,0,0,0,1.52-.79C72.44,114.76,75.9,112.19,75.54,109ZM67.91,29.3a.72.72,0,0,0,.14-.76L65.93,23.4l4.63,2.4a.72.72,0,0,0,.88-.18l3.48-4.17-.43,5.48a.72.72,0,0,0,.41.71L79,29.56l-4.4,1.49a.72.72,0,0,0-.46.48l-1.53,5.2-2.16-4.4a.72.72,0,0,0-.77-.39l-5.06.87ZM47.4,14.09a.72.72,0,0,0-.09-.77l-4-4.83L49.12,10A.72.72,0,0,0,50,9.59L53,3.17l1,7.2a.71.71,0,0,0,.65.62l5.7.52L55.3,15a.72.72,0,0,0-.32.62l.26,6.28L51.31,17.4a.72.72,0,0,0-.84-.17L44.54,20ZM23.88,22.2l-3.65-2.32,3.63.09a.72.72,0,0,0,.71-.53l1.62-6.13,2.28,5.38a.72.72,0,0,0,.77.43l4.55-.67-3.3,3.49a.72.72,0,0,0-.1.86l2.66,4.57L28,25a.72.72,0,0,0-.68,0l-5.27,3.3,2.1-5.29A.72.72,0,0,0,23.88,22.2ZM64.17,73.33a16.65,16.65,0,0,1-8.26,2,11,11,0,0,1-5.28-1.42,3.13,3.13,0,0,0,.32-.48,3.35,3.35,0,0,0-.74-4,2.15,2.15,0,0,0-2.9.64,2.52,2.52,0,0,0,.33,3.15,7.23,7.23,0,0,0,.64.73,9.08,9.08,0,0,1-1.47.57,17.94,17.94,0,0,1-14.41-1.91,7.24,7.24,0,0,1-3.55-4.84,3.64,3.64,0,0,0,1-.21c1.9-.71,3-4.64.06-4.3A2.8,2.8,0,0,0,27.32,66a8.84,8.84,0,0,1-.83-.33,16.79,16.79,0,0,1-5.94-4.76l.13-9.76c2.15,2.33,7.58,5.77,21.28,8.71,16.07,3.45,23.17,1.26,26.19-.76Zm-14.47-1a1.92,1.92,0,0,1-.3.68l-.2-.19c-.51-.54-.91-1-.54-1.67C49.28,69.92,49.87,71.52,49.7,72.29Zm-21-6a1.67,1.67,0,0,1,.23-.81c.35-.52,1.39-.86,1,0A1.26,1.26,0,0,1,28.74,66.29Zm-8.06-18h0a1.24,1.24,0,0,1,.39-1.1c.58-.66,2.27-1.75,7.15-2l.23,4,1.44-.08-.23-4A87.77,87.77,0,0,1,43.1,46l2.3.33L44.21,53.3l1.42.24,1.19-7c7.3,1.2,12.2,2.73,15.46,4.24l-1.42,3.69,1.34.52,1.38-3.56c4.41,2.34,5.17,4.48,5.29,5-.63,1-5.27,6.54-26.59,2-20.8-4.46-21.55-10-21.55-10A.7.7,0,0,0,20.68,48.31Zm.7,15.57c1.43,1.28,3.73,3.2,6,3.72A8.61,8.61,0,0,0,28,69.89C29.59,73.33,33.41,75,36.89,76a18.65,18.65,0,0,0,11-.34,8.81,8.81,0,0,0,1.54-.73c2.64,1.78,6.34,2.12,9.32,1.69a19.21,19.21,0,0,0,4.86-1.4L60.43,86.64c-1.23.37-6.61,1.56-21.25,0C25.68,85.23,21.11,81,20.29,80.13L20.52,63C20.8,63.33,21.08,63.61,21.38,63.88ZM19,68.35l-.16,12a.72.72,0,0,0,.14.43c.15.21,3.55,4.68,16.08,6.73q1.84.3,4,.53c17.57,1.85,22.11-.15,22.3-.23a.72.72,0,0,0,.39-.46l3-10.58C72,79.26,76,84,77.15,86.24a2.57,2.57,0,0,1,.41,1.4l-.22.55a16.9,16.9,0,0,1-7.21,7.55c-9.81,5.55-23.89,2.87-34-.36C8.59,86.55,7.88,76.51,7.87,75.77h0C8,75.2,9.46,69.37,19,68.35ZM7.8,79.94c2.44,4.21,9.21,10.81,27.92,16.8a82.37,82.37,0,0,0,11.66,2.87c8.1,1.33,16.77,1.21,23.56-2.68a20.11,20.11,0,0,0,4.31-3.29c-2.43,6.53-5.39,15-7.89,22.26a7.81,7.81,0,0,1-4,.51,26.13,26.13,0,0,1-6.71-1.79c.44-1.93,0-3.82-2.3-4.5a.8.8,0,0,0-.86.33c-1.46,2.07-.45,3.64,1.4,4.79a7.83,7.83,0,0,1-2.35,3c-2.53,1.61-5.82,1.6-8.65,1s-6.15-1.83-8.08-4.3l-.24-.33a4.44,4.44,0,0,0,1.36-3.27c-.07-1-1.07-2.39-2.22-2.29s-1.38,1.41-1.44,2.34a6.21,6.21,0,0,0,.48,2.9,12,12,0,0,1-4.35,2.42c-3,.93-7,1.09-9.89-.3A6,6,0,0,1,16,111a5.42,5.42,0,0,0,1.86-.43c2.23-1,1.69-5.53-.88-4.23a4.44,4.44,0,0,0-2.3,3.14h0a21.05,21.05,0,0,1-7.28-2.2Zm47.55,33.89a1.83,1.83,0,0,1-.84-2.11A1.9,1.9,0,0,1,55.35,113.84Zm-20.1-1.74a4.11,4.11,0,0,1-.39.83,5.1,5.1,0,0,1-.08-.73c0-.25-.11-1.07.06-1.3C35.36,110.2,35.42,111.59,35.25,112.1Zm-19-2.58a4.92,4.92,0,0,1,.35-.74c.1-.16.83-1.34,1.1-1.26.56.17-.15,1.48-.34,1.64A1.93,1.93,0,0,1,16.27,109.52Zm45.87,21.79c-1.44.89-10.75,6.18-25.63,3.73a70,70,0,0,1-22.08-7.44,46.43,46.43,0,0,1-7.36-4.86l.24-14c.82.39,1.64.73,2.44,1a19.93,19.93,0,0,0,4.74,1.21,7.43,7.43,0,0,0,1.5,4.54c3,3.67,9,3.82,13.24,2.72a15.47,15.47,0,0,0,5.26-2.62,12.3,12.3,0,0,0,5.43,3.9c4.29,1.72,10,2.53,14-.44a7.88,7.88,0,0,0,2.31-3.1A27.21,27.21,0,0,0,63,117.78a9.74,9.74,0,0,0,3.81-.2C64.4,124.53,62.54,130.11,62.13,131.31Z" fill="#020608"/></svg>