<svg version="1.1" id="_x33__части__x28_копия_x29_"
	 xmlns="http://www.w3.org/2000/svg" xmlns:xlink="http://www.w3.org/1999/xlink" x="0px" y="0px" viewBox="0 0 232.5 89.4"
	 style="enable-background:new 0 0 232.5 89.4;" xml:space="preserve">
<g>
	<path d="M70,64.9l-1.5,0.8l-4.8-9.3l1.5-0.8l2.1,4l1.7-0.9l-2.1-4l1.5-0.8l4.8,9.3l-1.5,0.8l-2.1-4L67.9,61L70,64.9z"/>
	<path d="M79.3,60.5l-1.5,0.7l-1-1.6l-1.8,0.8l0.5,1.9l-1.4,0.6l-2.8-10.2l2.2-1L79.3,60.5z M74.5,59l1.4-0.7L73,53.8L74.5,59z"/>
	<path d="M81.7,57.8c0.7-0.3,0.9-0.4,0.6-1.4l-2.5-7.5l4.4-1.6l3.6,9.8l-1.6,0.6l-3.1-8.4l-1.4,0.5l2,6c0.6,1.8,0.2,2.8-1.3,3.3
		l-0.2,0.1L81.7,57.8z"/>
	<path d="M90.7,51.5l-1.2,0.4l1.3,4.3l-1.6,0.5l-3-10.1l1.6-0.5l1.3,4.3l1.2-0.4l-0.6-1.9c-0.5-1.6,0.1-2.8,1.6-3.2
		c1.6-0.5,2.7,0.2,3.2,1.8L96,52c0.5,1.6-0.1,2.8-1.6,3.2c-1.6,0.5-2.7-0.2-3.2-1.8L90.7,51.5z M92.9,53.1c0.2,0.7,0.6,0.9,1.1,0.7
		c0.5-0.2,0.7-0.5,0.5-1.2l-1.6-5.4c-0.2-0.7-0.6-0.9-1.1-0.7c-0.5,0.2-0.7,0.5-0.5,1.2L92.9,53.1z"/>
	<path d="M98.1,54.1l-2.5-10.2l4.5-1.1l0.4,1.5L97.5,45l0.6,2.6l0.9-0.2c1.6-0.4,2.6,0.3,3,1.9l0.3,1.1c0.4,1.6-0.2,2.7-1.8,3.1
		L98.1,54.1z M100.3,52.1c0.5-0.1,0.8-0.4,0.6-1.2l-0.3-1.3c-0.2-0.7-0.5-0.9-1.1-0.8l-0.9,0.2l0.8,3.2L100.3,52.1z"/>
	<path d="M102.8,44.9c-0.3-1.7,0.4-2.8,2-3c1.6-0.3,2.6,0.5,2.9,2.1l1,5.4c0.3,1.7-0.4,2.8-2,3c-1.6,0.3-2.6-0.5-2.9-2.1L102.8,44.9
		z M105.4,50c0.1,0.7,0.5,1,1,0.9c0.5-0.1,0.8-0.4,0.7-1.2l-1-5.6c-0.1-0.7-0.5-1-1-0.9s-0.8,0.4-0.7,1.2L105.4,50z"/>
	<path d="M112.1,51.4l-1.7,0.2l-1.4-10.4l1.5-0.2l0.9,6.6l0.3-2.4l0.8-4.5l1.8-0.2l1.4,10.4l-1.5,0.2l-1-7.3l-0.3,2.6L112.1,51.4z
		 M112.1,38.4c0,0.6-0.2,0.7-0.7,0.8c-0.4,0.1-0.7,0-0.8-0.6l-1,0.1c0.2,1,0.8,1.6,1.9,1.4c1.2-0.2,1.7-0.9,1.5-1.9L112.1,38.4z"/>
	<path d="M124.2,42.2l0,0.4c0.1,1.1-0.2,1.8-0.9,2.2c0.9,0.3,1.3,1.1,1.4,2.2l0,0.9c0.1,1.6-0.7,2.5-2.4,2.6l-2.6,0.2L119.1,40
		l2.5-0.1C123.3,39.8,124.1,40.6,124.2,42.2z M120.8,41.4l0.2,2.8l0.6,0c0.6,0,1-0.3,0.9-1.2l0-0.6c0-0.7-0.3-1.1-0.9-1L120.8,41.4z
		 M121.1,45.7l0.2,3.2l0.9-0.1c0.6,0,0.8-0.3,0.8-1.1l-0.1-0.9c-0.1-1-0.4-1.3-1.1-1.2L121.1,45.7z"/>
	<path d="M128.2,46l-0.5,1l0,3.2l-1.7,0l-0.1-10.5l1.7,0l0,4.6l2.1-4.6l1.6,0l-2.3,4.7l2.3,5.8l-1.7,0L128.2,46z"/>
	<path d="M136.3,47.7c-0.5,1.9-1.2,2.8-3.4,2.5l0.1-1.5c0.8,0.1,1.3,0,1.5-0.8l0-0.1l-1.9-8.2l1.6,0.1l0.7,3.6l0.4,2.5l0.5-2.4
		l0.9-3.6l1.7,0.1L136.3,47.7z"/>
	<path d="M144,47l-0.1,1.4c-0.2,1.7-1.1,2.6-2.7,2.4c-1.6-0.1-2.4-1.2-2.2-2.9l0.5-5.4c0.2-1.7,1.1-2.6,2.7-2.4
		c1.6,0.1,2.4,1.2,2.2,2.9l-0.1,1l-1.6-0.1l0.1-1.1c0.1-0.7-0.2-1.1-0.8-1.1c-0.5,0-0.9,0.2-0.9,1l-0.5,5.6c-0.1,0.7,0.2,1,0.8,1.1
		c0.5,0,0.9-0.2,0.9-0.9l0.1-1.5L144,47z"/>
	<path d="M144.9,51.1l0.2-1.6l1.6,0.2l-0.2,1.4l-0.9,1.6l-0.7-0.1l0.6-1.4L144.9,51.1z"/>
	<path d="M152.5,41.6l1.6,0.3l-1.7,8.8l1.8,0.4l1.7-8.8l1.6,0.3l-1.7,8.9l0.7,0.1l-0.5,2.8l-1.6-0.3l0.3-1.4l-4.2-0.8L152.5,41.6z"
		/>
	<path d="M164.2,46.6l-0.1,0.4c-0.3,1-0.7,1.6-1.5,1.8c0.8,0.5,0.9,1.4,0.7,2.5l-0.2,0.8c-0.4,1.6-1.4,2.2-3,1.8l-2.5-0.6l2.5-10.2
		l2.4,0.6C164.1,44.1,164.6,45,164.2,46.6z M160.2,49.1l-0.8,3.1l0.9,0.2c0.5,0.1,0.9,0,1.1-0.8l0.2-0.9c0.2-0.9,0-1.3-0.7-1.5
		L160.2,49.1z M161.2,44.9l-0.7,2.7l0.6,0.2c0.6,0.1,1,0,1.2-0.8l0.1-0.6c0.2-0.7,0-1.1-0.6-1.3L161.2,44.9z"/>
	<path d="M166.9,49.5l2.2,0.6l-0.4,1.4l-2.2-0.6l-0.9,2.9l2.7,0.8l-0.4,1.4l-4.3-1.3l3-10.1l4.3,1.3l-0.4,1.4l-2.7-0.8L166.9,49.5z"
		/>
	<path d="M172.1,46.4l4.8,1.7l-0.5,1.4l-1.6-0.6l-3,8.5l-1.6-0.5l3-8.5l-1.6-0.6L172.1,46.4z"/>
	<path d="M178.5,60l-1.6-0.7l4.1-9.7l1.4,0.6l-2.6,6.1l1.5-1.9l2.9-3.5l1.7,0.7l-4.1,9.7l-1.4-0.6l2.9-6.8l-1.6,2.1L178.5,60z"/>
	<path d="M188.5,63.4l-0.5-0.3c-1.5-0.8-1.8-2-1-3.4l1.3-2.5c0.8-1.5,1.9-1.9,3.4-1.1l0.5,0.3l0.6-1.1l1.4,0.8l-0.6,1.1l0.5,0.3
		c1.5,0.8,1.8,2,1,3.4l-1.3,2.5c-0.8,1.5-1.9,1.9-3.4,1.2l-0.5-0.3l-0.6,1l-1.4-0.8L188.5,63.4z M191.6,57.5l-0.5-0.3
		c-0.5-0.2-0.9-0.1-1.2,0.5l-1.4,2.7c-0.3,0.7-0.2,1.1,0.2,1.3l0.5,0.3L191.6,57.5z M193,58.3l-2.4,4.6l0.5,0.3
		c0.5,0.2,0.9,0.1,1.2-0.5l1.4-2.7c0.3-0.7,0.2-1.1-0.2-1.3L193,58.3z"/>
	<path d="M197.3,60.4c0.9-1.4,2.1-1.8,3.5-1c1.4,0.8,1.6,2.1,0.8,3.6l-2.8,4.7c-0.9,1.4-2.1,1.8-3.5,1c-1.4-0.8-1.6-2.1-0.8-3.6
		L197.3,60.4z M195.8,66c-0.4,0.6-0.3,1.1,0.2,1.3c0.4,0.3,0.9,0.2,1.3-0.4l2.9-4.9c0.4-0.6,0.3-1.1-0.2-1.3
		c-0.4-0.3-0.9-0.2-1.3,0.4L195.8,66z"/>
	<path d="M207,66.7l-0.8,1.1c-0.9,1.4-2.1,1.7-3.5,0.8l-0.6-0.4l-2.2,3.3l-1.4-0.9l5.9-8.7l2,1.4C207.8,64.1,207.9,65.3,207,66.7z
		 M204.9,64l-2,3l0.6,0.4c0.4,0.3,0.8,0.3,1.2-0.4l0.9-1.3c0.4-0.6,0.3-1-0.1-1.3L204.9,64z"/>
	<path d="M208,73.5l5.4-5.3l1.8,1.4l-6.3,8.4l-1.2-0.9l4.5-6l-5.4,5.3l-1.2-0.9l3.5-6.7l-4.5,5.9l-1.1-0.9l6.3-8.4l1.8,1.4L208,73.5
		z"/>
	<path d="M214.6,79.2c-1.5,1.2-2.6,1.5-4.3-0.1l1-1.1c0.6,0.6,1.1,0.8,1.7,0.3l0.1-0.1l3.5-7.7l1.2,1.1l-1.6,3.3l-1.2,2.2l1.9-1.6
		l2.9-2.3l1.3,1.1L214.6,79.2z"/>
</g>
<g>
	<path d="M24.9,81.6L6.9,65l-3.7,4.1l-0.6-0.5l8-8.7l0.6,0.5l-3.7,4.1l18,16.5L24.9,81.6z"/>
	<path d="M18.7,60.7c-0.6-0.7-1.1-1.3-1.4-2c-0.4-0.7-0.6-1.4-0.6-2.1s0-1.4,0.3-2.1c0.3-0.7,0.8-1.4,1.5-2c0.7-0.6,1.4-1.1,2.2-1.3
		s1.5-0.2,2.2-0.1c0.7,0.1,1.4,0.4,2.1,0.9c0.7,0.4,1.3,1,1.9,1.7l8.5,9.6c0.6,0.7,1.1,1.4,1.4,2.1c0.4,0.7,0.6,1.4,0.6,2.1
		s-0.1,1.4-0.3,2.1c-0.3,0.7-0.8,1.4-1.5,2c-0.7,0.6-1.4,1.1-2.2,1.3c-0.7,0.2-1.4,0.2-2.1,0.1c-0.7-0.1-1.4-0.4-2-0.9
		c-0.7-0.4-1.3-1-1.9-1.7L18.7,60.7z M27.8,69.7c0.5,0.6,1.1,1.1,1.6,1.5c0.6,0.4,1.2,0.7,1.8,0.8c0.6,0.1,1.2,0.1,1.9,0
		c0.6-0.2,1.3-0.5,1.9-1.1c0.6-0.6,1.1-1.1,1.3-1.8s0.3-1.2,0.3-1.8c-0.1-0.6-0.3-1.2-0.6-1.9s-0.7-1.2-1.3-1.8L26.1,54
		c-0.5-0.6-1.1-1.1-1.6-1.5c-0.6-0.4-1.2-0.7-1.8-0.8c-0.6-0.1-1.2-0.1-1.9,0s-1.3,0.5-1.9,1.1c-0.6,0.6-1.1,1.1-1.3,1.7
		c-0.2,0.6-0.3,1.2-0.2,1.8c0.1,0.6,0.3,1.2,0.6,1.8c0.3,0.6,0.8,1.2,1.3,1.8L27.8,69.7z"/>
	<path d="M30.9,42.5c0.8-0.6,1.5-0.9,2.2-1.1c0.7-0.2,1.4-0.1,2.1,0.1c0.6,0.2,1.3,0.5,1.8,1c0.6,0.5,1.1,1.1,1.7,1.8l1.5,2
		c1.2,1.6,1.7,3.1,1.5,4.4s-1.1,2.6-2.7,3.8l-2.9,2.1l6.3,8.6l-0.6,0.5L26.9,45.4L30.9,42.5z M38.6,53.9c1.4-1,2.2-2.1,2.4-3.2
		c0.2-1.1-0.3-2.4-1.4-3.8l-1.5-2.1c-0.5-0.6-0.9-1.1-1.4-1.6c-0.5-0.4-1-0.7-1.6-0.9c-0.6-0.2-1.1-0.2-1.8-0.1
		c-0.6,0.1-1.3,0.4-1.9,0.9L28,45.6L35.7,56L38.6,53.9z"/>
	<path d="M57.2,55.3L44.7,34.3L40,37.1l-0.4-0.7l10.2-6l0.4,0.7l-4.7,2.8l12.4,21.1L57.2,55.3z"/>
	<path d="M65.2,37.9l0.9,12.5l-0.9,0.4L54.7,27.9l0.7-0.3l9.9,21.5l-0.7-10l-1.1-15.3l1-0.5L75,46.3l-0.7,0.3l-10-21.8L65.2,37.9z"
		/>
	<path d="M76.4,32.4l-0.9,3.3l3.1,9.1l-0.7,0.3l-8.2-23.8l0.7-0.3l4.6,13.5l4.2-16.5l0.8-0.3l-3.5,13.8L89,41.3l-0.8,0.3L76.4,32.4z
		"/>
	<path d="M94.4,27.8l-1.4,12.4L92,40.5l-6.1-24.5l0.7-0.2l5.7,23l1.1-9.9l1.8-15.2l1-0.3l6.1,24.5l-0.7,0.2l-5.8-23.3L94.4,27.8z"/>
	<path d="M111.3,24.3l1.1,12.2l-0.8,0.1l-2.3-25.1l0.8-0.1l1.1,12.2l9.1-0.8l-1.1-12.2l0.8-0.1l2.3,25.1l-0.8,0.1l-1.1-12.2
		L111.3,24.3z"/>
	<path d="M127.6,29.5l-1.6,5.9l-0.7,0l6.5-25.1l1.1,0l5.8,25.3l-0.8,0l-1.4-6L127.6,29.5z M127.7,28.8l8.7,0.1l-4.1-17.7L127.7,28.8
		z"/>
	<path d="M157.3,12.4c0.9,0.2,1.7,0.5,2.3,0.9c0.6,0.4,1.1,1,1.4,1.6c0.3,0.6,0.5,1.3,0.6,2.1c0.1,0.8,0,1.6-0.1,2.5l-0.1,0.6
		c-0.2,1.2-0.7,2.2-1.5,3.1c-0.8,0.8-1.8,1.3-3,1.4c1.2,0.5,2,1.2,2.4,2.3c0.4,1,0.6,2.1,0.4,3.3l-0.3,1.9c-0.1,0.9-0.4,1.7-0.7,2.4
		c-0.3,0.7-0.7,1.3-1.2,1.8c-0.5,0.5-1.1,0.9-1.8,1.1c-0.7,0.2-1.6,0.2-2.5,0.1c-0.9-0.2-1.7-0.5-2.3-0.9c-0.6-0.4-1.1-1-1.4-1.6
		c-0.3-0.6-0.5-1.4-0.6-2.1s0-1.6,0.1-2.5l0.3-1.8l0.8,0.1l-0.3,1.8c-0.1,0.8-0.2,1.5-0.1,2.2c0,0.7,0.2,1.3,0.4,1.9
		c0.3,0.6,0.6,1,1.1,1.4c0.5,0.4,1.2,0.7,2,0.8c0.8,0.1,1.6,0.1,2.2-0.1c0.6-0.2,1.1-0.5,1.6-1c0.4-0.5,0.8-1,1-1.6
		c0.3-0.6,0.5-1.4,0.6-2.1l0.3-1.9c0.2-1.3,0-2.5-0.6-3.5c-0.6-1-1.6-1.6-2.9-1.8l-1.6-0.3l0.1-0.7l1.6,0.3c0.6,0.1,1.2,0.1,1.8-0.1
		c0.6-0.2,1.1-0.4,1.5-0.8c0.5-0.4,0.8-0.8,1.1-1.3c0.3-0.5,0.5-1.1,0.6-1.7l0.1-0.7c0.1-0.8,0.2-1.5,0.1-2.2c0-0.7-0.2-1.3-0.5-1.9
		c-0.3-0.6-0.6-1-1.2-1.4s-1.2-0.7-2-0.8c-0.8-0.1-1.6-0.1-2.2,0.1c-0.6,0.2-1.1,0.5-1.6,1c-0.4,0.4-0.8,1-1,1.6
		c-0.3,0.6-0.5,1.4-0.6,2.1l-0.2,1.1l-0.7-0.1l0.2-1.1c0.1-0.9,0.4-1.6,0.7-2.4c0.3-0.7,0.7-1.3,1.2-1.8c0.5-0.5,1.1-0.9,1.8-1.1
		C155.5,12.3,156.4,12.3,157.3,12.4z"/>
	<path d="M164.9,33.8l-3,5.3l-0.7-0.2l12.7-22.7l1.1,0.3l-0.8,26l-0.8-0.2l0.2-6.1L164.9,33.8z M165.3,33.1l8.4,2.3l0.5-18.2
		L165.3,33.1z"/>
	<path d="M184.1,32.9l-2.8,2l-3.6,9l-0.7-0.3l9.4-23.4l0.7,0.3l-5.3,13.2l14-9.7l0.8,0.3l-11.7,8.1l2.9,15.5l-0.8-0.3L184.1,32.9z"
		/>
	<path d="M195.2,44.9l-4.1,4.5l-0.6-0.3l17.3-19.4l1,0.5l-6.4,25.2l-0.7-0.4l1.5-5.9L195.2,44.9z M195.7,44.3l7.6,4.1l4.5-17.6
		L195.7,44.3z"/>
	<path d="M223.4,39c0.8,0.5,1.4,1.1,1.7,1.8c0.4,0.7,0.6,1.3,0.6,2c0,0.7-0.1,1.4-0.4,2.2c-0.3,0.7-0.7,1.5-1.2,2.2l-0.4,0.5
		c-0.7,1-1.6,1.7-2.6,2.1s-2.2,0.4-3.3,0.1c0.9,0.9,1.3,1.9,1.3,3.1c0,1.1-0.4,2.2-1,3.2l-1.1,1.6c-0.5,0.7-1,1.4-1.6,1.9
		c-0.6,0.5-1.2,0.9-1.9,1.2c-0.7,0.2-1.4,0.3-2.1,0.2c-0.7-0.1-1.5-0.4-2.3-1s-1.4-1.1-1.7-1.8c-0.4-0.7-0.6-1.3-0.6-2.1
		c0-0.7,0.1-1.4,0.4-2.2c0.3-0.7,0.7-1.5,1.2-2.2l1-1.5l0.7,0.4l-1.1,1.5c-0.4,0.6-0.8,1.3-1,1.9c-0.3,0.7-0.4,1.3-0.4,1.9
		c0,0.6,0.2,1.2,0.5,1.8c0.3,0.6,0.8,1.1,1.5,1.6s1.4,0.7,2,0.8c0.6,0.1,1.3,0,1.8-0.2c0.6-0.2,1.1-0.6,1.6-1.1c0.5-0.5,1-1,1.4-1.7
		l1.1-1.6c0.8-1.1,1.1-2.3,0.9-3.4c-0.2-1.2-0.8-2.1-1.9-2.9l-1.3-0.9l0.4-0.6l1.4,0.9c0.5,0.3,1.1,0.6,1.7,0.6
		c0.6,0.1,1.2,0,1.7-0.1c0.6-0.1,1.1-0.4,1.6-0.7c0.5-0.4,0.9-0.8,1.3-1.3l0.4-0.6c0.4-0.7,0.8-1.3,1.1-2c0.3-0.7,0.4-1.3,0.4-1.9
		c0-0.6-0.2-1.2-0.5-1.8s-0.8-1.1-1.5-1.6c-0.7-0.5-1.4-0.7-2-0.8c-0.6-0.1-1.3,0-1.8,0.2c-0.6,0.2-1.1,0.6-1.6,1
		c-0.5,0.5-1,1-1.4,1.7l-0.6,0.9l-0.6-0.4l0.6-0.9c0.5-0.7,1-1.3,1.6-1.9c0.6-0.5,1.2-0.9,1.9-1.2c0.7-0.2,1.4-0.3,2.1-0.2
		C221.9,38.2,222.6,38.5,223.4,39z"/>
</g>
</svg>
