<?xml version="1.0" encoding="utf-8"?>
<!-- Generator: Adobe Illustrator 22.1.0, SVG Export Plug-In . SVG Version: 6.00 Build 0)  -->
<svg version="1.1" id="Слой_1" xmlns="http://www.w3.org/2000/svg" xmlns:xlink="http://www.w3.org/1999/xlink" x="0px" y="0px"
	 viewBox="0 0 232.5 89.4" style="enable-background:new 0 0 232.5 89.4;" xml:space="preserve">
<style type="text/css">
	.st0{fill:#231300;}
</style>
<g>
	<path class="st0" d="M74.5,54.7l1.5,3.7L74.7,59l-3.4-8.6l1.4-0.5l1.5,3.7l1.5-0.6l-1.5-3.7l1.4-0.6l3.4,8.6l-1.4,0.6l-1.5-3.7
		L74.5,54.7z"/>
	<path class="st0" d="M80.2,47l4.4,8.3l-1.4,0.5l-0.8-1.5l-1.7,0.6l0.3,1.7L79.7,57l-1.6-9.3L80.2,47z M79.6,48.9l0.9,4.7l1.3-0.5
		L79.6,48.9z"/>
	<path class="st0" d="M87.3,54.5L87,53.2c0.3-0.1,0.6-0.2,0.6-0.3c0.1-0.1,0.1-0.4,0-0.8L86,45.2l4-1l2.3,9l-1.4,0.4l-2-7.7
		l-1.2,0.3l1.3,5.5c0.2,0.8,0.2,1.5-0.1,1.9s-0.7,0.7-1.4,0.9L87.3,54.5z"/>
	<path class="st0" d="M95.7,50.2l-0.3-1.7l-1.1,0.2l0.8,3.9l-1.4,0.3l-1.8-9.1l1.4-0.3l0.8,3.9l1.1-0.2l-0.3-1.7
		c-0.1-0.7-0.1-1.3,0.2-1.8c0.3-0.5,0.8-0.8,1.5-0.9c0.7-0.1,1.3,0,1.7,0.3c0.5,0.3,0.7,0.9,0.9,1.6l0.9,4.7
		c0.1,0.7,0.1,1.3-0.2,1.8S99,51.9,98.3,52s-1.3,0-1.7-0.3S95.8,50.9,95.7,50.2z M96.2,45.1l1,4.9c0.1,0.6,0.4,0.8,0.9,0.8
		c0.5-0.1,0.7-0.4,0.6-1l-1-4.9c-0.1-0.6-0.4-0.8-0.9-0.8C96.3,44.1,96.1,44.5,96.2,45.1z"/>
	<path class="st0" d="M103.9,51l-2.3,0.3l-1.3-9.2l4-0.6l0.2,1.3l-2.6,0.4l0.3,2.3l0.8-0.1c0.7-0.1,1.3,0,1.7,0.3
		c0.4,0.3,0.7,0.9,0.8,1.6l0.1,1c0.1,0.7,0,1.3-0.3,1.8C105.2,50.7,104.7,50.9,103.9,51z M102.9,49.9l0.8-0.1c0.5-0.1,0.7-0.4,0.6-1
		l-0.2-1.2c-0.1-0.6-0.4-0.8-0.9-0.8l-0.8,0.1L102.9,49.9z"/>
	<path class="st0" d="M107,48.4l-0.4-4.8c-0.1-0.7,0.1-1.3,0.4-1.8c0.3-0.4,0.9-0.7,1.6-0.7c0.7-0.1,1.3,0.1,1.7,0.5
		c0.4,0.4,0.6,0.9,0.7,1.7l0.4,4.8c0.1,0.7-0.1,1.3-0.4,1.8c-0.3,0.4-0.9,0.7-1.6,0.7s-1.3-0.1-1.7-0.5S107.1,49.2,107,48.4z
		 M108.1,43.4l0.4,5c0,0.6,0.3,0.9,0.8,0.8s0.7-0.4,0.7-1l-0.4-5c-0.1-0.6-0.3-0.9-0.8-0.8S108,42.8,108.1,43.4z"/>
	<path class="st0" d="M112.8,50.2l-0.3-9.3h1.3l0.2,5.9l0.5-2.1l1.1-3.9l1.6-0.1l0.3,9.3h-1.3l-0.2-6.5l-0.5,2.3l-1.1,4.3
		L112.8,50.2z M115.2,39.3c-0.1,0.1-0.3,0.1-0.5,0.1s-0.4,0-0.5-0.1s-0.2-0.2-0.2-0.5h-0.9c0,0.5,0.2,0.8,0.4,1.1
		c0.3,0.2,0.6,0.4,1.1,0.3c0.5,0,0.9-0.2,1.1-0.4c0.3-0.3,0.4-0.6,0.4-1.1h-0.9C115.4,39,115.3,39.2,115.2,39.3z"/>
	<path class="st0" d="M123.6,40.9c0.8,0,1.3,0.2,1.6,0.6c0.3,0.4,0.5,0.9,0.5,1.6v0.3c0,1-0.4,1.6-1,1.8c0.7,0.3,1,1,1,2V48
		c0,0.7-0.2,1.3-0.6,1.6c-0.4,0.4-0.9,0.5-1.7,0.5l-2.3-0.1l0.4-9.3L123.6,40.9z M123.3,46h-0.6l-0.1,2.8h0.8c0.3,0,0.4-0.1,0.6-0.2
		c0.1-0.1,0.2-0.4,0.2-0.7v-0.8c0-0.4,0-0.7-0.2-0.9C123.8,46.1,123.6,46,123.3,46z M123.5,42.2h-0.7l-0.1,2.4h0.6
		c0.3,0,0.5-0.1,0.7-0.2c0.2-0.1,0.2-0.4,0.2-0.7v-0.5C124.2,42.6,124,42.2,123.5,42.2z"/>
	<path class="st0" d="M129.9,50.6l-1.1-3.8l-0.5,0.8l-0.3,2.8l-1.5-0.1l0.8-9.2l1.5,0.1l-0.4,4l2.3-3.9l1.5,0.1l-2.4,3.9l1.6,5.3
		L129.9,50.6z"/>
	<path class="st0" d="M138.3,42.4l-2.5,6.6c-0.3,0.9-0.7,1.5-1.1,1.8c-0.5,0.3-1.2,0.4-2.1,0.2l0.2-1.3c0.4,0.1,0.7,0.1,0.9,0
		s0.4-0.3,0.5-0.6V49l-1-7.4l1.4,0.2l0.3,3.2l0.1,2.2l0.6-2.1l1.1-3.1L138.3,42.4z"/>
	<path class="st0" d="M141.3,48.8l1.4,0.3l-0.2,1.2c-0.1,0.7-0.4,1.3-0.9,1.6c-0.4,0.3-1,0.4-1.7,0.3c-0.7-0.1-1.2-0.4-1.5-0.9
		s-0.4-1.1-0.2-1.8l0.9-4.7c0.1-0.7,0.4-1.3,0.9-1.6c0.4-0.3,1-0.4,1.7-0.3c0.7,0.1,1.2,0.4,1.5,0.9s0.4,1.1,0.2,1.8l-0.2,0.9
		l-1.4-0.3l0.2-1c0.1-0.6-0.1-0.9-0.6-1s-0.8,0.2-0.9,0.8l-0.9,4.9c-0.1,0.6,0.1,0.9,0.6,1s0.8-0.2,0.9-0.7L141.3,48.8z"/>
	<path class="st0" d="M143.6,52.9l-0.5-0.1l0.3-1.4l1.4,0.3l-0.3,1.2l-1,1.3l-0.6-0.1L143.6,52.9z"/>
	<path class="st0" d="M148,54l2.6-8.9l1.4,0.4l-2.3,7.6l1.6,0.5l2.3-7.6l1.4,0.4l-2.3,7.6l0.6,0.2l-0.7,2.4l-1.4-0.4l0.4-1.2L148,54
		z"/>
	<path class="st0" d="M159.2,47.8c0.7,0.3,1.2,0.6,1.4,1s0.2,1-0.1,1.7l-0.1,0.3c-0.3,0.9-0.8,1.4-1.5,1.4c0.6,0.5,0.7,1.3,0.4,2.2
		l-0.3,0.7c-0.2,0.7-0.6,1.1-1.1,1.4s-1.1,0.2-1.7,0l-2.2-0.8l3.1-8.7L159.2,47.8z M157.4,52.5l-0.6-0.2l-1,2.7l0.8,0.3
		c0.2,0.1,0.4,0.1,0.6,0c0.2-0.1,0.3-0.3,0.4-0.6l0.3-0.8c0.1-0.4,0.2-0.7,0.1-0.9C157.9,52.8,157.7,52.7,157.4,52.5z M158.7,49
		l-0.7-0.2l-0.8,2.3l0.5,0.2c0.3,0.1,0.5,0.1,0.7,0s0.3-0.3,0.5-0.6l0.2-0.5C159.3,49.6,159.2,49.2,158.7,49z"/>
	<path class="st0" d="M163.6,50.9l-1,2.4l1.9,0.8l-0.5,1.2l-1.9-0.8l-1,2.5l2.3,1l-0.5,1.2l-3.7-1.5l3.5-8.6l3.7,1.5l-0.5,1.2
		L163.6,50.9z"/>
	<path class="st0" d="M166.9,52.2l0.6-1.2l4.1,1.9l-0.6,1.2l-1.4-0.6l-3.3,7.2l-1.3-0.6l3.3-7.2L166.9,52.2z"/>
	<path class="st0" d="M175,60.4l-3.1,3.1l-1.3-0.7l4.5-8.1l1.1,0.6l-2.8,5.1l1.4-1.5l2.9-2.8l1.4,0.8l-4.5,8.1l-1.1-0.6l3.1-5.7
		L175,60.4z"/>
	<path class="st0" d="M179.8,68.3l0.6-0.9l-0.5-0.3c-1.2-0.8-1.4-1.8-0.5-3.1l1.4-2.1c0.8-1.3,1.9-1.5,3.1-0.7l0.5,0.3l0.6-0.9
		l1.2,0.8l-0.6,0.9l0.5,0.3c1.2,0.8,1.4,1.8,0.5,3.1l-1.4,2.1c-0.8,1.3-1.9,1.5-3.1,0.7l-0.5-0.3l-0.6,0.9L179.8,68.3z M181.1,66.3
		l2.5-3.8l-0.5-0.3c-0.4-0.3-0.8-0.1-1.1,0.4l-1.5,2.3c-0.3,0.5-0.3,0.9,0.1,1.2L181.1,66.3z M185.3,63.6l-0.5-0.3l-2.5,3.8l0.5,0.3
		c0.4,0.3,0.8,0.1,1.1-0.4l1.5-2.3C185.7,64.3,185.7,63.9,185.3,63.6z"/>
	<path class="st0" d="M185.5,69.4l2.9-3.9c0.4-0.6,0.9-0.9,1.5-1c0.5-0.1,1.1,0.1,1.7,0.5c0.6,0.4,0.9,0.9,0.9,1.5
		c0.1,0.6-0.1,1.1-0.6,1.7l-2.9,3.9c-0.4,0.6-0.9,0.9-1.5,1c-0.5,0.1-1.1-0.1-1.7-0.5c-0.6-0.4-0.9-0.9-0.9-1.5
		C184.8,70.6,185,70,185.5,69.4z M189.6,66.4l-3,4c-0.4,0.5-0.3,0.9,0.1,1.2c0.4,0.3,0.8,0.2,1.2-0.3l3-4c0.4-0.5,0.3-0.9-0.1-1.2
		C190.3,65.8,190,65.9,189.6,66.4z"/>
	<path class="st0" d="M196.2,68.8c1.1,0.9,1.2,2,0.2,3.2l-0.8,0.9c-1,1.2-2,1.3-3.1,0.4l-0.5-0.4l-2.2,2.7l-1.1-0.9l5.9-7.1
		L196.2,68.8z M195.3,69.8l-0.5-0.4l-2,2.4l0.5,0.4c0.2,0.2,0.4,0.2,0.5,0.2c0.2,0,0.4-0.2,0.6-0.4l0.9-1.1c0.2-0.2,0.3-0.5,0.3-0.6
		C195.6,70.1,195.5,70,195.3,69.8z"/>
	<path class="st0" d="M200.4,72.5l-3.7,5.6l5.2-4.2l1.5,1.4l-6.3,6.8l-1-0.9l4.5-4.9l-5.3,4.2l-1-0.9L198,74l-4.5,4.8l-0.9-0.9
		l6.3-6.8L200.4,72.5z"/>
	<path class="st0" d="M208,80l-6.1,3.7c-0.8,0.5-1.4,0.7-2,0.7c-0.5,0-1.1-0.4-1.8-1.2l0.9-0.9c0.3,0.3,0.5,0.5,0.7,0.6
		s0.5,0,0.7-0.2h0.1l3.8-6.4l1,1l-1.7,2.8l-1.3,1.8l1.8-1.3l2.7-1.7L208,80z"/>
</g>
<g>
	<g>
		<path class="st0" d="M133.6,35.2l3.4-23.3l-5.2-0.8l0.1-0.7l11.3,1.6l-0.1,0.5l-5.2-0.8l-3.4,23.3H133.6z"/>
		<path class="st0" d="M146.9,18.7c0.1-0.9,0.4-1.5,0.9-2.3c0.3-0.7,0.8-1.2,1.3-1.6c0.5-0.4,1.2-0.8,1.8-1c0.7-0.1,1.5-0.1,2.4,0.1
			c0.9,0.2,1.6,0.5,2.2,1s1,1.1,1.2,1.6c0.2,0.7,0.4,1.4,0.4,2.1c0,0.8-0.1,1.5-0.2,2.4L154,33.1c-0.1,0.9-0.4,1.5-0.9,2.3
			c-0.3,0.7-0.8,1.2-1.3,1.6c-0.5,0.4-1.2,0.8-1.8,0.9c-0.7,0.1-1.5,0.1-2.4-0.1c-0.9-0.2-1.6-0.5-2.2-1c-0.5-0.4-1-1.1-1.2-1.6
			c-0.2-0.7-0.4-1.4-0.4-2.1c0-0.8,0.1-1.5,0.2-2.4L146.9,18.7z M144.6,30.9c-0.2,0.8-0.3,1.4-0.3,2.1s0.1,1.3,0.3,1.8
			c0.2,0.5,0.7,1.1,1.1,1.4c0.4,0.3,1.1,0.8,2,0.9c0.8,0.2,1.5,0.2,2.1,0.1c0.7-0.1,1.2-0.4,1.5-0.8c0.4-0.3,0.9-0.9,1.1-1.5
			c0.3-0.5,0.5-1.2,0.8-2l2.9-12.1c0.2-0.8,0.3-1.4,0.3-2.1c0-0.7-0.1-1.3-0.3-1.8c-0.2-0.5-0.7-1.1-1.1-1.4c-0.5-0.4-1.2-0.8-2-0.9
			c-0.8-0.2-1.5-0.2-2.1-0.1c-0.7,0.1-1.2,0.4-1.5,0.8c-0.4,0.3-0.9,0.9-1.1,1.5c-0.3,0.5-0.5,1.3-0.8,2L144.6,30.9z"/>
		<path class="st0" d="M168,18.5c0.9,0.2,1.5,0.8,2.1,1.2s0.9,1,1.1,1.6c0.2,0.7,0.3,1.3,0.2,2.1c0,0.8-0.2,1.5-0.5,2.3l-0.8,2.4
			c-0.7,1.8-1.5,3-2.6,3.7c-1.2,0.5-2.7,0.5-4.5-0.1l-3.4-1.2l-3.4,9.8l-0.8-0.2l7.9-23L168,18.5z M163.1,30.8
			c1.6,0.5,2.8,0.7,3.8,0.1c1-0.4,1.7-1.5,2.3-3.3l0.8-2.4c0.2-0.7,0.3-1.3,0.4-2.1c0.1-0.7,0-1.3-0.1-1.7c-0.1-0.4-0.4-1-1-1.4
			s-1.1-0.8-1.8-1l-3.6-1.3l-4.1,11.8L163.1,30.8z"/>
		<path class="st0" d="M172.1,46.3L182,25l-4.8-2.3l0.2-0.7l10.3,4.8l-0.2,0.7l-4.8-2.3l-9.9,21.3L172.1,46.3z"/>
		<path class="st0" d="M191,40.3c1.7,1,2.6,2.2,2.9,3.4c0.2,1.3-0.1,2.7-1.1,4.5l-1.3,2.2c-0.4,0.8-1,1.4-1.4,1.8
			c-0.5,0.5-1.1,0.9-1.7,1.1s-1.2,0.3-2,0.2c-0.7-0.1-1.5-0.4-2.3-0.9l-4-2.4l12.5-20.9l0.7,0.4l-5.3,8.8L191,40.3z M184.7,52
			c0.8,0.4,1.3,0.7,2,0.8c0.5,0.1,1.1,0,1.6-0.2c0.5-0.2,1.1-0.7,1.4-1c0.4-0.5,0.9-1,1.2-1.6l1.3-2.2c0.9-1.5,1.2-2.7,1-3.8
			c-0.2-1.1-1.1-2.1-2.6-2.9l-2.8-2.1l-6.5,10.7L184.7,52z M203.7,36l-12.6,20.8l-0.7-0.4l12.6-20.8L203.7,36z"/>
	</g>
</g>
</svg>
