
<svg fill="#231300" 	 xmlns="http://www.w3.org/2000/svg" xmlns:xlink="http://www.w3.org/1999/xlink" x="0px" y="0px" viewBox="0 0 232.5 89.4"
	 style="enable-background:new 0 0 232.5 89.4;" xml:space="preserve">
<style type="text/css">
	.st0{fill:#231300;}
</style>
<g>
	<path d="M74.5,54.7l1.5,3.7L74.7,59l-3.4-8.6l1.4-0.5l1.5,3.7l1.5-0.6l-1.5-3.7l1.4-0.6l3.4,8.6l-1.4,0.6l-1.5-3.7
		L74.5,54.7z"/>
	<path d="M80.2,47l4.4,8.3l-1.4,0.5l-0.8-1.5l-1.7,0.6l0.3,1.7L79.7,57l-1.6-9.3L80.2,47z M79.6,48.9l0.9,4.7l1.3-0.5
		L79.6,48.9z"/>
	<path d="M87.3,54.5L87,53.2c0.3-0.1,0.6-0.2,0.6-0.3c0.1-0.1,0.1-0.4,0-0.8L86,45.2l4-1l2.3,9l-1.4,0.4l-2-7.7
		l-1.2,0.3l1.3,5.5c0.2,0.8,0.2,1.5-0.1,1.9s-0.7,0.7-1.4,0.9L87.3,54.5z"/>
	<path d="M95.7,50.2l-0.3-1.7l-1.1,0.2l0.8,3.9l-1.4,0.3l-1.8-9.1l1.4-0.3l0.8,3.9l1.1-0.2l-0.3-1.7
		c-0.1-0.7-0.1-1.3,0.2-1.8c0.3-0.5,0.8-0.8,1.5-0.9c0.7-0.1,1.3,0,1.7,0.3c0.5,0.3,0.7,0.9,0.9,1.6l0.9,4.7
		c0.1,0.7,0.1,1.3-0.2,1.8S99,51.9,98.3,52s-1.3,0-1.7-0.3S95.8,50.9,95.7,50.2z M96.2,45.1l1,4.9c0.1,0.6,0.4,0.8,0.9,0.8
		c0.5-0.1,0.7-0.4,0.6-1l-1-4.9c-0.1-0.6-0.4-0.8-0.9-0.8C96.3,44.1,96.1,44.5,96.2,45.1z"/>
	<path d="M103.9,51l-2.3,0.3l-1.3-9.2l4-0.6l0.2,1.3l-2.6,0.4l0.3,2.3l0.8-0.1c0.7-0.1,1.3,0,1.7,0.3
		c0.4,0.3,0.7,0.9,0.8,1.6l0.1,1c0.1,0.7,0,1.3-0.3,1.8C105.2,50.7,104.7,50.9,103.9,51z M102.9,49.9l0.8-0.1c0.5-0.1,0.7-0.4,0.6-1
		l-0.2-1.2c-0.1-0.6-0.4-0.8-0.9-0.8l-0.8,0.1L102.9,49.9z"/>
	<path d="M107,48.4l-0.4-4.8c-0.1-0.7,0.1-1.3,0.4-1.8c0.3-0.4,0.9-0.7,1.6-0.7c0.7-0.1,1.3,0.1,1.7,0.5
		c0.4,0.4,0.6,0.9,0.7,1.7l0.4,4.8c0.1,0.7-0.1,1.3-0.4,1.8c-0.3,0.4-0.9,0.7-1.6,0.7s-1.3-0.1-1.7-0.5
		C107.3,49.7,107.1,49.2,107,48.4z M108.1,43.4l0.4,5c0,0.6,0.3,0.9,0.8,0.8s0.7-0.4,0.7-1l-0.4-5c-0.1-0.6-0.3-0.9-0.8-0.8
		S108,42.8,108.1,43.4z"/>
	<path d="M112.8,50.2l-0.3-9.3l1.3,0l0.2,5.9l0.5-2.1l1.1-3.9l1.6-0.1l0.3,9.3l-1.3,0l-0.2-6.5l-0.5,2.3l-1.1,4.3
		L112.8,50.2z M115.2,39.3c-0.1,0.1-0.3,0.1-0.5,0.1c-0.2,0-0.4,0-0.5-0.1c-0.1-0.1-0.2-0.2-0.2-0.5l-0.9,0c0,0.5,0.2,0.8,0.4,1.1
		c0.3,0.2,0.6,0.4,1.1,0.3c0.5,0,0.9-0.2,1.1-0.4c0.3-0.3,0.4-0.6,0.4-1.1l-0.9,0C115.4,39,115.3,39.2,115.2,39.3z"/>
	<path d="M123.6,40.9c0.8,0,1.3,0.2,1.6,0.6c0.3,0.4,0.5,0.9,0.5,1.6l0,0.3c0,1-0.4,1.6-1,1.8c0.7,0.3,1,1,1,2l0,0.8
		c0,0.7-0.2,1.3-0.6,1.6c-0.4,0.4-0.9,0.5-1.7,0.5l-2.3-0.1l0.4-9.3L123.6,40.9z M123.3,46l-0.6,0l-0.1,2.8l0.8,0
		c0.3,0,0.4-0.1,0.6-0.2c0.1-0.1,0.2-0.4,0.2-0.7l0-0.8c0-0.4,0-0.7-0.2-0.9C123.8,46.1,123.6,46,123.3,46z M123.5,42.2l-0.7,0
		l-0.1,2.4l0.6,0c0.3,0,0.5-0.1,0.7-0.2c0.2-0.1,0.2-0.4,0.2-0.7l0-0.5C124.2,42.6,124,42.2,123.5,42.2z"/>
	<path d="M129.9,50.6l-1.1-3.8l-0.5,0.8l-0.3,2.8l-1.5-0.1l0.8-9.2l1.5,0.1l-0.4,4l2.3-3.9l1.5,0.1l-2.4,3.9l1.6,5.3
		L129.9,50.6z"/>
	<path d="M138.3,42.4l-2.5,6.6c-0.3,0.9-0.7,1.5-1.1,1.8c-0.5,0.3-1.2,0.4-2.1,0.2l0.2-1.3c0.4,0.1,0.7,0.1,0.9,0
		c0.2-0.1,0.4-0.3,0.5-0.6l0-0.1l-1-7.4l1.4,0.2l0.3,3.2l0.1,2.2l0.6-2.1l1.1-3.1L138.3,42.4z"/>
	<path d="M141.3,48.8l1.4,0.3l-0.2,1.2c-0.1,0.7-0.4,1.3-0.9,1.6c-0.4,0.3-1,0.4-1.7,0.3c-0.7-0.1-1.2-0.4-1.5-0.9
		c-0.3-0.5-0.4-1.1-0.2-1.8l0.9-4.7c0.1-0.7,0.4-1.3,0.9-1.6c0.4-0.3,1-0.4,1.7-0.3c0.7,0.1,1.2,0.4,1.5,0.9
		c0.3,0.5,0.4,1.1,0.2,1.8l-0.2,0.9l-1.4-0.3l0.2-1c0.1-0.6-0.1-0.9-0.6-1c-0.5-0.1-0.8,0.2-0.9,0.8l-0.9,4.9
		c-0.1,0.6,0.1,0.9,0.6,1c0.5,0.1,0.8-0.2,0.9-0.7L141.3,48.8z"/>
	<path d="M143.6,52.9l-0.5-0.1l0.3-1.4l1.4,0.3l-0.3,1.2l-1,1.3l-0.6-0.1L143.6,52.9z"/>
	<path d="M148,54l2.6-8.9l1.4,0.4l-2.3,7.6l1.6,0.5l2.3-7.6l1.4,0.4l-2.3,7.6l0.6,0.2l-0.7,2.4l-1.4-0.4l0.4-1.2L148,54
		z"/>
	<path d="M159.2,47.8c0.7,0.3,1.2,0.6,1.4,1c0.2,0.4,0.2,1-0.1,1.7l-0.1,0.3c-0.3,0.9-0.8,1.4-1.5,1.4
		c0.6,0.5,0.7,1.3,0.4,2.2l-0.3,0.7c-0.2,0.7-0.6,1.1-1.1,1.4s-1.1,0.2-1.7,0l-2.2-0.8l3.1-8.7L159.2,47.8z M157.4,52.5l-0.6-0.2
		l-1,2.7l0.8,0.3c0.2,0.1,0.4,0.1,0.6,0c0.2-0.1,0.3-0.3,0.4-0.6l0.3-0.8c0.1-0.4,0.2-0.7,0.1-0.9C157.9,52.8,157.7,52.7,157.4,52.5
		z M158.7,49l-0.7-0.2l-0.8,2.3l0.5,0.2c0.3,0.1,0.5,0.1,0.7,0c0.2-0.1,0.3-0.3,0.5-0.6l0.2-0.5C159.3,49.6,159.2,49.2,158.7,49z"/>
	<path d="M163.6,50.9l-1,2.4l1.9,0.8l-0.5,1.2l-1.9-0.8l-1,2.5l2.3,1l-0.5,1.2l-3.7-1.5l3.5-8.6l3.7,1.5l-0.5,1.2
		L163.6,50.9z"/>
	<path d="M166.9,52.2l0.6-1.2l4.1,1.9l-0.6,1.2l-1.4-0.6l-3.3,7.2l-1.3-0.6l3.3-7.2L166.9,52.2z"/>
	<path class="st0" d="M175,60.4l-3.1,3.1l-1.3-0.7l4.5-8.1l1.1,0.6l-2.8,5.1l1.4-1.5l2.9-2.8l1.4,0.8l-4.5,8.1l-1.1-0.6l3.1-5.7
		L175,60.4z"/>
	<path d="M179.8,68.3l0.6-0.9l-0.5-0.3c-1.2-0.8-1.4-1.8-0.5-3.1l1.4-2.1c0.8-1.3,1.9-1.5,3.1-0.7l0.5,0.3l0.6-0.9
		l1.2,0.8l-0.6,0.9l0.5,0.3c1.2,0.8,1.4,1.8,0.5,3.1l-1.4,2.1c-0.8,1.3-1.9,1.5-3.1,0.7l-0.5-0.3l-0.6,0.9L179.8,68.3z M181.1,66.3
		l2.5-3.8l-0.5-0.3c-0.4-0.3-0.8-0.1-1.1,0.4l-1.5,2.3c-0.3,0.5-0.3,0.9,0.1,1.2L181.1,66.3z M185.3,63.6l-0.5-0.3l-2.5,3.8l0.5,0.3
		c0.4,0.3,0.8,0.1,1.1-0.4l1.5-2.3C185.7,64.3,185.7,63.9,185.3,63.6z"/>
	<path d="M185.5,69.4l2.9-3.9c0.4-0.6,0.9-0.9,1.5-1c0.5-0.1,1.1,0.1,1.7,0.5c0.6,0.4,0.9,0.9,0.9,1.5
		c0.1,0.6-0.1,1.1-0.6,1.7l-2.9,3.9c-0.4,0.6-0.9,0.9-1.5,1c-0.5,0.1-1.1-0.1-1.7-0.5c-0.6-0.4-0.9-0.9-0.9-1.5
		C184.8,70.6,185,70,185.5,69.4z M189.6,66.4l-3,4c-0.4,0.5-0.3,0.9,0.1,1.2c0.4,0.3,0.8,0.2,1.2-0.3l3-4c0.4-0.5,0.3-0.9-0.1-1.2
		C190.3,65.8,190,65.9,189.6,66.4z"/>
	<path d="M196.2,68.8c1.1,0.9,1.2,2,0.2,3.2l-0.8,0.9c-1,1.2-2,1.3-3.1,0.4l-0.5-0.4l-2.2,2.7l-1.1-0.9l5.9-7.1
		L196.2,68.8z M195.3,69.8l-0.5-0.4l-2,2.4l0.5,0.4c0.2,0.2,0.4,0.2,0.5,0.2c0.2,0,0.4-0.2,0.6-0.4l0.9-1.1c0.2-0.2,0.3-0.5,0.3-0.6
		C195.6,70.1,195.5,70,195.3,69.8z"/>
	<path d="M200.4,72.5l-3.7,5.6l5.2-4.2l1.5,1.4l-6.3,6.8l-1-0.9l4.5-4.9l-5.3,4.2l-1-0.9l3.7-5.6l-4.5,4.8l-0.9-0.9
		l6.3-6.8L200.4,72.5z"/>
	<path d="M208,80l-6.1,3.7c-0.8,0.5-1.4,0.7-2,0.7c-0.5,0-1.1-0.4-1.8-1.2l0.9-0.9c0.3,0.3,0.5,0.5,0.7,0.6
		c0.2,0.1,0.5,0,0.7-0.2l0.1,0l3.8-6.4l1,1l-1.7,2.8l-1.3,1.8l1.8-1.3l2.7-1.7L208,80z"/>
</g>
<g>
	<path d="M19.8,84.8l-17-13.4l-3,3.8l-0.5-0.4l6.5-8.2L6.2,67l-3,3.8l17,13.4L19.8,84.8z"/>
	<path d="M12.8,66.7c-0.6-0.5-1-1.1-1.4-1.7c-0.4-0.6-0.6-1.2-0.7-1.8c-0.1-0.6-0.1-1.3,0.1-1.9
		c0.2-0.6,0.6-1.3,1.2-1.9s1.2-1,1.8-1.3c0.6-0.2,1.3-0.3,1.9-0.2c0.6,0.1,1.3,0.3,1.9,0.6c0.6,0.3,1.2,0.8,1.8,1.3l8.2,7.9
		c0.6,0.5,1,1.1,1.4,1.7c0.4,0.6,0.6,1.2,0.7,1.8c0.1,0.6,0.1,1.3-0.2,1.9c-0.2,0.6-0.6,1.3-1.2,1.9c-0.6,0.6-1.2,1-1.8,1.3
		c-0.6,0.2-1.3,0.3-1.9,0.2c-0.6-0.1-1.3-0.3-1.9-0.6c-0.6-0.3-1.2-0.8-1.8-1.3L12.8,66.7z M21.5,74.1c0.5,0.5,1,0.9,1.5,1.2
		c0.5,0.3,1.1,0.5,1.6,0.6c0.5,0.1,1.1,0,1.6-0.2c0.5-0.2,1.1-0.5,1.6-1.1c0.5-0.5,0.9-1.1,1-1.6c0.2-0.6,0.2-1.1,0.1-1.6
		c-0.1-0.5-0.3-1.1-0.7-1.6c-0.3-0.5-0.7-1-1.2-1.5l-8.2-7.9c-0.5-0.5-1-0.9-1.5-1.2c-0.5-0.3-1.1-0.5-1.6-0.6
		c-0.5-0.1-1.1,0-1.6,0.2c-0.6,0.2-1.1,0.6-1.6,1.1c-0.5,0.5-0.9,1.1-1,1.6c-0.2,0.6-0.2,1.1-0.1,1.6c0.1,0.5,0.3,1.1,0.7,1.6
		c0.3,0.5,0.8,1,1.2,1.5L21.5,74.1z"/>
	<path d="M22.4,49.8c0.6-0.6,1.3-0.9,1.9-1.1c0.6-0.2,1.2-0.2,1.8-0.1c0.6,0.1,1.2,0.4,1.7,0.8c0.6,0.4,1.1,0.9,1.6,1.5
		l1.5,1.7c1.2,1.4,1.7,2.6,1.7,3.8c-0.1,1.2-0.8,2.4-2.1,3.5L28,62l6.2,7.2l-0.5,0.5L19,52.7L22.4,49.8z M29.9,59.4
		c1.2-1,1.8-2,1.9-3c0.1-1-0.4-2.1-1.5-3.3l-1.5-1.7c-0.4-0.5-0.9-0.9-1.4-1.3c-0.5-0.4-1-0.6-1.5-0.7c-0.5-0.1-1-0.1-1.6,0.1
		s-1.1,0.5-1.6,1L20,52.7l7.5,8.7L29.9,59.4z"/>
	<path d="M46.4,59.3L34,41.6l-4,2.8l-0.4-0.5l8.6-6l0.4,0.5l-4,2.8L47,58.9L46.4,59.3z"/>
	<path d="M50.4,41.5c1.6-0.9,2.9-1.1,4.1-0.8c1.1,0.4,2.1,1.3,3,2.9l1.1,2c0.4,0.7,0.7,1.4,0.8,2
		c0.2,0.7,0.2,1.3,0.1,1.9c-0.1,0.6-0.3,1.1-0.7,1.7c-0.4,0.5-1,1-1.7,1.4l-3.8,2.1L42.5,35.1l0.6-0.3l4.6,8.3L50.4,41.5z M56.8,52
		c0.7-0.4,1.1-0.8,1.5-1.2c0.3-0.4,0.5-0.9,0.6-1.4c0.1-0.5,0-1.1-0.1-1.6c-0.2-0.6-0.4-1.1-0.7-1.7l-1.1-2
		c-0.8-1.4-1.6-2.2-2.6-2.5c-1-0.3-2.1-0.1-3.5,0.7L48,43.6l5.5,10.1L56.8,52z M52.9,29.4L63.6,49L63,49.3L52.3,29.7L52.9,29.4z"/>
	<path d="M83.9,44.4l-1-3l-11.2,3.9l1,3l-0.7,0.2L70.8,45l1.5-0.5c0.3-0.6,0.4-1.3,0.3-1.9c-0.1-0.7-0.2-1.4-0.5-2.1
		l-5-17.1l7.1-2.5l7.1,20.4l1.9-0.7l1.3,3.6L83.9,44.4z M72.8,40.2c0.2,0.7,0.4,1.4,0.5,2c0.1,0.6,0,1.3-0.2,1.9l7.7-2.7l-6.9-19.8
		l-5.8,2L72.8,40.2z"/>
	<path d="M85.5,18.5l2.9,16c0.1,0.7,0.2,1.3,0.3,1.9c0.1,0.6,0.1,1.2,0,1.8c-0.1,0.5-0.4,1-0.7,1.4
		c-0.4,0.4-0.9,0.7-1.7,0.9l-0.2,0L85.8,40c0.7-0.2,1.2-0.4,1.5-0.8c0.3-0.4,0.5-0.8,0.6-1.3s0.1-1,0-1.6c-0.1-0.6-0.2-1.1-0.3-1.7
		l-3-16.7l7.6-1.7l4.8,21.8l-0.7,0.2l-4.7-21.1L85.5,18.5z"/>
	<path d="M104.8,26.8c-0.7,0.1-1.4,0.2-1.9,0.4c-0.6,0.2-1.1,0.5-1.5,0.8c-0.4,0.4-0.7,0.8-0.9,1.4
		c-0.2,0.6-0.2,1.2-0.1,2.1l0.4,3.5c0.1,0.5,0.1,1,0.1,1.4c0,0.5-0.1,0.9-0.3,1.3l-0.8,0.1c0.2-0.4,0.3-0.8,0.3-1.3c0-0.5,0-1,0-1.4
		l-0.4-3.5c-0.1-1.2,0-2.3,0.5-3.1c0.5-0.8,1.3-1.4,2.5-1.7c-1.3-0.1-2.2-0.5-2.8-1.2c-0.6-0.7-1-1.7-1.2-3.1l-0.2-2
		c-0.2-1.5,0-2.8,0.6-3.7c0.6-1,1.7-1.6,3.4-1.7l4.4-0.5l2.5,22.2l-0.7,0.1l-1.1-10.2L104.8,26.8z M102.6,15.6
		c-1.4,0.2-2.4,0.7-2.9,1.5c-0.5,0.8-0.7,1.9-0.5,3.3l0.2,2c0.1,0.9,0.3,1.6,0.6,2.1c0.3,0.5,0.6,0.9,1.1,1.2c0.4,0.3,1,0.4,1.6,0.5
		s1.3,0,2.1-0.1l2.7-0.3l-1.2-10.6L102.6,15.6z"/>
	<path d="M119,14.6l-0.6,21.6l-0.7,0l0.6-22.3l9.5,0.3l-0.6,22.3l-0.7,0l0.6-21.6L119,14.6z"/>
	<path d="M137.1,15.1c0.8,0.1,1.5,0.3,2.1,0.7c0.6,0.3,1,0.8,1.3,1.3c0.3,0.5,0.5,1.1,0.6,1.8c0.1,0.7,0.1,1.4,0,2.2
		l-0.3,2.2c-0.2,1.8-0.8,3-1.7,3.8c-0.9,0.7-2.3,1-4,0.8l-3.2-0.4l-1.2,9.4l-0.7-0.1l2.7-22.2L137.1,15.1z M135.1,27.2
		c1.6,0.2,2.7,0,3.5-0.6c0.8-0.6,1.3-1.7,1.5-3.3l0.3-2.3c0.1-0.7,0.1-1.3,0-1.9c-0.1-0.6-0.2-1.1-0.5-1.6c-0.3-0.4-0.6-0.8-1.1-1.1
		c-0.5-0.3-1.1-0.5-1.8-0.6l-3.7-0.5L132,26.8L135.1,27.2z"/>
	<path d="M144.6,33.5l-2.5,4.8l-0.6-0.1l10.3-20.6l1,0.2l0.3,23l-0.7-0.2l-0.1-5.4L144.6,33.5z M144.9,33l7.5,1.7
		l-0.3-16.1L144.9,33z"/>
	<path d="M167.4,22c0.8,0.3,1.4,0.7,1.9,1.1c0.5,0.5,0.8,1,1,1.6c0.2,0.6,0.2,1.3,0.2,2c-0.1,0.7-0.2,1.4-0.5,2.2
		l-0.2,0.5c-0.4,1-0.9,1.8-1.8,2.4c-0.8,0.6-1.8,0.9-2.8,0.8c0.9,0.6,1.5,1.4,1.8,2.3c0.2,1,0.2,1.9-0.2,3l-0.6,1.6
		c-0.3,0.7-0.6,1.4-1,2c-0.4,0.6-0.8,1.1-1.3,1.4c-0.5,0.4-1.1,0.6-1.8,0.7s-1.4,0-2.2-0.3c-0.8-0.3-1.4-0.7-1.9-1.1
		c-0.5-0.5-0.8-1-1-1.6c-0.2-0.6-0.2-1.3-0.2-2c0.1-0.7,0.2-1.4,0.5-2.2L158,35l0.7,0.2l-0.5,1.6c-0.2,0.6-0.4,1.3-0.4,1.9
		c-0.1,0.6,0,1.2,0.1,1.7c0.1,0.5,0.4,1,0.8,1.4c0.4,0.4,0.9,0.7,1.6,1c0.7,0.2,1.3,0.3,1.9,0.2s1.1-0.3,1.5-0.6
		c0.4-0.3,0.8-0.8,1.2-1.3c0.3-0.5,0.6-1.1,0.8-1.8l0.6-1.6c0.4-1.1,0.4-2.2,0-3.1c-0.4-1-1.2-1.6-2.3-2l-1.4-0.5l0.2-0.6l1.4,0.5
		c0.5,0.2,1,0.2,1.6,0.2c0.5-0.1,1-0.2,1.4-0.5c0.4-0.3,0.8-0.6,1.2-1c0.3-0.4,0.6-0.9,0.8-1.4l0.2-0.6c0.2-0.7,0.4-1.3,0.4-1.9
		c0.1-0.6,0-1.2-0.1-1.7c-0.1-0.5-0.4-1-0.8-1.4c-0.4-0.4-0.9-0.7-1.6-1s-1.3-0.3-1.9-0.2c-0.6,0.1-1.1,0.3-1.5,0.6
		c-0.4,0.3-0.8,0.7-1.2,1.3c-0.3,0.5-0.6,1.1-0.8,1.8l-0.3,0.9l-0.6-0.2l0.3-0.9c0.3-0.7,0.6-1.4,1-2c0.4-0.6,0.8-1.1,1.3-1.4
		c0.5-0.4,1.1-0.6,1.8-0.7C165.9,21.6,166.6,21.7,167.4,22z"/>
	<path d="M176.9,53.9l1.3-2.8L167.6,46l-1.3,2.8l-0.6-0.3l1.6-3.4l1.4,0.7c0.7-0.2,1.2-0.6,1.6-1.2
		c0.4-0.5,0.8-1.1,1.1-1.8l8.5-15.7l6.8,3.3l-9.3,19.5l1.8,0.9l-1.6,3.4L176.9,53.9z M172,43.2c-0.4,0.7-0.7,1.2-1.1,1.8
		c-0.4,0.5-0.9,0.9-1.5,1.2l7.4,3.5l9-18.9l-5.6-2.7L172,43.2z"/>
	<path d="M187.5,44l-5.7,9.2l-0.6-0.4l11.8-19l0.6,0.4l-5.7,9.2l6.8,4.3l5.7-9.2l0.6,0.4l-11.8,19l-0.6-0.4l5.7-9.2
		L187.5,44z"/>
	<path d="M201.8,53.9l-9.6,6l-0.7-0.5l13.6-17.7l0.5,0.4l-12.8,16.7l19-11.9l0.8,0.6l-13.6,17.7l-0.5-0.4l12.9-16.9
		L201.8,53.9z"/>
	<path d="M210.6,60.5l-3,0.7l-5.9,6.2l-0.5-0.5l15.3-16.3l0.5,0.5l-8.6,9.2l14.7-3.5l0.6,0.5l-12.3,2.9l-2.6,13.7
		l-0.6-0.5L210.6,60.5z"/>
	<path d="M215.9,74l-4.8,2.4l-0.4-0.5l20.5-10.4l0.6,0.8L218.3,85l-0.5-0.5L221,80L215.9,74z M216.4,73.7l5,5.8
		l9.4-13.1L216.4,73.7z"/>
</g>
</svg>
