<svg xmlns="http://www.w3.org/2000/svg" viewBox="0 0 90.11 61.94"><title>cafe-plane</title><path d="M31.71,41.06c-2.3,4.53-4.38,9.2-6.82,13.66C29.42,50.73,34,46.8,38.71,43q-2.61-2.57-5.18-5.16A24.88,24.88,0,0,0,31.71,41.06Z" transform="translate(0 -0.9)" style="fill:none"/><path d="M45.52,11.84c-13.54,2.72-27,6-40.43,9C12.68,24,20,27.6,27.39,31.26c17.93-9.53,36.27-18.53,54.74-27C69.84,6.24,57.73,9.38,45.52,11.84ZM20.33,22.29l9.31-2.58a.88.88,0,0,1,.51,1.69L20.84,24A.88.88,0,0,1,20.33,22.29Zm9.38,2.89-4.35,1.09c-1.1.28-1.61-1.41-.51-1.69l4.35-1.09C30.3,23.21,30.81,24.9,29.71,25.18Z" transform="translate(0 -0.9)" style="fill:none"/><path d="M30.83,38.92a13.94,13.94,0,0,1,1.85-2.83,1.32,1.32,0,0,1,.77-.78,24.47,24.47,0,0,1,3.75-2.53l9.69-5.83Q62.59,17.47,78.27,8C61.38,15.82,44.62,24.1,28.2,32.83c-1.56,7.2-3.4,14.34-5.1,21.51C25.89,49.32,28.19,44,30.83,38.92Z" transform="translate(0 -0.9)" style="fill:none"/><path d="M39.79,33.27c-1.44.87-3,1.64-4.4,2.64l-.26.22c7.69,7.77,15.75,15.24,23,23.41,4.35-9.65,8.79-19,14-28.27,4.83-8.55,9.53-17.17,13.9-26Q67.83,16.36,49.57,27.38Z" transform="translate(0 -0.9)" style="fill:none"/><path d="M88.92.91C74.49,2.66,60.42,6.47,46.19,9.32,31,12.36,16,16.11.82,19.41A1.19,1.19,0,0,0,.6,21.57c8.6,3.38,16.88,7.38,25.14,11.5-2,9-4.35,17.83-6.33,26.8a1.19,1.19,0,0,0,2,1.09c6.22-5.54,12.47-11.08,19-16.29,5.92,5.81,11.85,11.62,17.3,17.85a1.18,1.18,0,0,0,1.84-.28C64.09,52,68.73,42.14,74.23,32.41S85.11,12.77,90,2.65C90.35,1.91,89.87.79,88.92.91ZM27.39,31.26C20,27.59,12.68,24,5.09,20.86c13.48-3,26.89-6.3,40.43-9,12.2-2.45,24.31-5.6,36.61-7.59C63.66,12.73,45.33,21.74,27.39,31.26Zm.8,1.57C44.62,24.1,61.38,15.82,78.27,8q-15.69,9.5-31.39,19l-9.69,5.83a24.36,24.36,0,0,0-3.75,2.53,1.33,1.33,0,0,0-.77.78,13.94,13.94,0,0,0-1.85,2.83C28.19,44,25.89,49.32,23.1,54.33,24.8,47.17,26.64,40,28.2,32.83Zm-3.31,21.9c2.45-4.46,4.52-9.13,6.82-13.66a24.91,24.91,0,0,1,1.81-3.21q2.57,2.6,5.18,5.16C34,46.8,29.42,50.73,24.88,54.73ZM72.17,31.27c-5.22,9.24-9.66,18.62-14,28.27-7.28-8.16-15.34-15.64-23-23.41l.26-.22c1.35-1,3-1.78,4.4-2.64l9.78-5.89q18.27-11,36.51-22.08C81.71,14.1,77,22.72,72.17,31.27Z" transform="translate(0 -0.9)"/><path d="M29.64,19.71l-9.31,2.58A.88.88,0,0,0,20.84,24l9.31-2.58A.88.88,0,0,0,29.64,19.71Z" transform="translate(0 -0.9)"/><path d="M29.2,23.49l-4.35,1.09c-1.1.28-.59,2,.51,1.69l4.35-1.09C30.81,24.9,30.3,23.21,29.2,23.49Z" transform="translate(0 -0.9)"/></svg>