<svg id="_3_части_копия_" data-name="3 части (копия)" xmlns="http://www.w3.org/2000/svg" viewBox="0 0 61.9 73.53"><title>cafe-auto</title><path d="M19.52,31c-2.16,2.74-9.58,10.36-7.12,14.29,3.85,6.14,11.77,9.82,17.84,13.31l11.31,6.51c2.7,1.56,6.22,4.62,9.42,5a4.23,4.23,0,0,0,4.61-2c2.57-3.47,4.28-8,6.3-11.86a.63.63,0,0,0-.22-.86A348.5,348.5,0,0,1,20.32,31.49c-.67-.45-1.3.63-.63,1.08Q31.13,40.25,43.12,47c4.26,2.41,8.59,4.7,13,6.92,2.49,1.27,4.69,1.64,3.06,4.72l-3.31,6.25c-1.42,2.69-2.15,5.44-7.2,2.78-2.19-1.16-4.31-2.48-6.46-3.72L29.25,56.55A85,85,0,0,1,16.39,48c-5.85-5,.72-11.93,4-16.12.49-.63-.39-1.52-.88-.88Z" transform="translate(-0.04 -1.09)" style="fill:#201600"/><path d="M22.38,34.07a98.85,98.85,0,0,1,9.93-7.54c4-2.64,8.42,1.29,12,3.37A124.19,124.19,0,0,1,54.91,37c3.18,2.34,5.05,4.89,4.34,9.09l-.61,3.59a6.14,6.14,0,0,0,.1,4.1c.24-.77-1-1.1-1.21-.33l-.07.22a.63.63,0,0,0,.29.71l.25.14a.63.63,0,0,0,.86-.22c1-1.71,1-4.15,1.3-6.07s1.28-4.49.81-6.38c-1.15-4.54-7.83-7.73-11.41-10.13-4.11-2.76-9.71-7.24-14.72-7.9-1.73-.23-4.82,2.72-6.13,3.64a87.67,87.67,0,0,0-7.2,5.71c-.61.53.28,1.41.88.88Z" transform="translate(-0.04 -1.09)" style="fill:#201600"/><path d="M20.13,37.86c-2,1.23-3.81,3.15-2.72,5.66a4.16,4.16,0,0,0,5.8,1.94,4.2,4.2,0,0,0,1.53-5.78c-.61-1.1-3.94-3.24-4.14-.8-.07.8,1.18.8,1.25,0,0,.08,1.23.75,1.45,1a2.94,2.94,0,0,1,.81,2,3,3,0,0,1-2.63,2.94,2.83,2.83,0,0,1-3-2.05c-.55-1.77,1-2.93,2.32-3.74.68-.43.06-1.51-.63-1.08Z" transform="translate(-0.04 -1.09)" style="fill:#201600"/><path d="M52,57c-2.05-.59-4.81-1-6.25,1s-.17,4,1.77,4.91,4.47.47,5.64-1.26a3.88,3.88,0,0,0-.58-5.18c-.62-.51-1.51.37-.88.88a2.6,2.6,0,0,1,.78,2.94c-.46,1.56-2.37,2-3.75,1.7-1.66-.3-3.12-2-1.77-3.5,1.18-1.3,3.26-.75,4.7-.34A.63.63,0,0,0,52,57Z" transform="translate(-0.04 -1.09)" style="fill:#201600"/><path d="M12.1,44.86l-3.69,6.5a.62.62,0,0,0,.1.76,31.53,31.53,0,0,0,3.56,2.58,7,7,0,0,0,3.17,1.41,1.92,1.92,0,0,0,1.66-1.18c.9-1.48,1.66-3.06,2.48-4.59.38-.71-.7-1.34-1.08-.63-.52,1-2.25,5.56-3.74,4.92a21.79,21.79,0,0,1-5.17-3.4l.1.76,3.69-6.5a.63.63,0,0,0-1.08-.63Z" transform="translate(-0.04 -1.09)" style="fill:#201600"/><path d="M43.48,65.7l-1.73,3.1c-.32.57-.92,1.39-.76,2.11.36,1.65,2.26,2.18,3.6,2.85,1,.52,2.77,1.46,3.78.29A20.48,20.48,0,0,0,51.23,69c.33-.73-.75-1.37-1.08-.63-.9,2-2,5.75-4.92,4.32-.75-.37-3.45-1.2-2.74-2.63.63-1.26,1.39-2.48,2.08-3.72a.63.63,0,0,0-1.08-.63Z" transform="translate(-0.04 -1.09)" style="fill:#201600"/><path d="M2.16,7.32c-.87,2.44-2.63,5.93-.92,8.28S8.45,18.44,10.88,19l7.33,1.54c1.1.23,4.21,1.43,5.44.92,3.21-1.34,2.74-5.43,3.27-8.53.05-.3-.08-.72-.44-.77A182.12,182.12,0,0,1,3,7.18a.63.63,0,0,0-.33,1.21q6.22,1.74,12.54,3.07c2.41.51,4.83.92,7.26,1.32,3.29.54,2.92,1.47,2.42,4.37-.83,4.78-10.4,1.3-13.71.6A41.24,41.24,0,0,1,3,15.33c-2.42-1.05-.2-6.14.34-7.67.27-.76-.94-1.09-1.21-.33Z" transform="translate(-0.04 -1.09)" style="fill:#201600"/><path d="M4.59,8.56A52.27,52.27,0,0,1,8.68,2.77c.81-1,5.38.52,6.44.77,1.86.44,3.68,1,5.49,1.62a2.77,2.77,0,0,1,2.78,2.48l.22,1.51a3.25,3.25,0,0,0,1.46,3,.63.63,0,0,0-1.25,0v.12a.62.62,0,0,0,.46.6l.14,0a.63.63,0,0,0,.77-.44,12.59,12.59,0,0,0-.85-6.23c-1.15-2.15-4-2.49-6.13-3.16C15.68,2.3,11.29.52,8.61,1.26c-2,.55-4.15,5.12-5.1,6.67-.42.69.66,1.32,1.08.63Z" transform="translate(-0.04 -1.09)" style="fill:#201600"/><path d="M3.64,10.31c-.86,1-1.48,2.4-.44,3.57a2.39,2.39,0,1,0,3.37-3.39c-.75-.7-2.87-1-2.64.54.12.8,1.32.46,1.21-.33l0-.13L5.05,11c-.05.08.41.19.44.21a1.17,1.17,0,0,1,.56.62,1.21,1.21,0,0,1-.56,1.43A1.1,1.1,0,0,1,4,12.81c-.32-.58.19-1.19.54-1.61.51-.61-.37-1.5-.88-.88Z" transform="translate(-0.04 -1.09)" style="fill:#201600"/><path d="M22,14.4c-1.36,0-2.65.39-3.17,1.78s.88,2.25,2,2.39a2.65,2.65,0,0,0,2.77-1.86,2.25,2.25,0,0,0-1.4-2.65c-.75-.29-1.08.92-.33,1.21a1,1,0,0,1,.53,1.11c-.11.63-.81.92-1.37.95s-1.24-.37-.9-1,1.27-.64,1.87-.66c.8,0,.81-1.28,0-1.25Z" transform="translate(-0.04 -1.09)" style="fill:#201600"/><path d="M.81,15,.06,18.72a.64.64,0,0,0,.44.77c1.07.43,2.76,1.16,3.93.84a1.24,1.24,0,0,0,.83-1c.2-.85.31-1.72.47-2.58s-1.06-1.12-1.21-.33A15.83,15.83,0,0,1,4,19.13a7.71,7.71,0,0,1-3.17-.85l.44.77L2,15.37c.16-.79-1-1.12-1.21-.33Z" transform="translate(-0.04 -1.09)" style="fill:#201600"/><path d="M19,20.1l-.35,1.8a2,2,0,0,0,0,1.32c.43.79,1.34.81,2.13.92s1.76.36,2.3-.38a7.08,7.08,0,0,0,.75-3.27c.08-.8-1.17-.79-1.25,0a17.33,17.33,0,0,1-.32,1.94c0,.19,0,.57-.31.6a3.62,3.62,0,0,1-.83-.09c-.2,0-1.37,0-1.31-.4.1-.7.28-1.4.41-2.1s-1-1.12-1.21-.33Z" transform="translate(-0.04 -1.09)" style="fill:#201600"/></svg>