<svg xmlns="http://www.w3.org/2000/svg" viewBox="0 0 254.43 167.13"><title>cafe-line</title><path d="M130.76,157.52a14.33,14.33,0,0,1-2.11-1.42c-7.32-6.3-11.37-17.29-7.1-25.95" transform="translate(-3.03 -5.23)" fill="none" stroke="#201600" stroke-miterlimit="10" stroke-width="2"/><path d="M189.82,172.35H189v-2h.81c1.74,0,3.46,0,5.12-.13l.11,2C193.36,172.31,191.6,172.35,189.82,172.35Zm-3.86-.07c-2-.07-4-.2-6-.37l.17-2c2,.17,4,.3,5.94.37Zm12.11-.28-.18-2c2-.18,4-.43,5.87-.75l.33,2C202.18,171.56,200.15,171.81,198.08,172Zm-21.17-.38c-2-.22-4-.48-6-.79l.3-2c2,.31,4,.57,5.91.78Zm30.18-1-.42-2a58.31,58.31,0,0,0,5.69-1.52l.62,1.9A60,60,0,0,1,207.09,170.66Zm-39.16-.33c-2-.34-4-.73-5.93-1.15l.42-2c2,.42,3.92.8,5.85,1.14Zm-8.88-1.81c-2-.46-3.94-1-5.85-1.48l.53-1.93c1.89.52,3.84,1,5.78,1.47Zm56.8-.45-.72-1.86a45.31,45.31,0,0,0,5.32-2.47l1,1.75A47.21,47.21,0,0,1,215.86,168.06Zm-65.56-1.85c-2-.58-3.91-1.19-5.77-1.81l.64-1.89c1.83.62,3.75,1.22,5.69,1.79Zm73.76-2.29L223,162.24q.59-.38,1.16-.78c1.2-.84,2.41-1.75,3.58-2.71L229,160.3c-1.21,1-2.46,1.93-3.7,2.8Q224.67,163.52,224.06,163.92Zm-82.38-.52c-2-.73-3.91-1.47-5.64-2.21l.79-1.84c1.7.72,3.56,1.45,5.54,2.17Zm-8.42-3.46c-1.14-.54-2.15-1.07-3-1.56l1-1.73c.81.47,1.77,1,2.86,1.49Zm98-1.63-1.34-1.49c1.44-1.29,2.85-2.69,4.21-4.15l1.47,1.36C234.23,155.54,232.77,157,231.29,158.31Zm6.35-6.55-1.52-1.3c1.26-1.48,2.49-3,3.65-4.66L241.4,147C240.2,148.63,238.94,150.24,237.64,151.76Zm5.48-7.28-1.67-1.11c1.08-1.63,2.12-3.33,3.09-5.05l1.74,1C245.3,141.07,244.24,142.82,243.13,144.48Zm4.61-7.85-1.78-.92c.9-1.74,1.75-3.54,2.52-5.36l1.84.79C249.52,133,248.65,134.85,247.74,136.63Zm3.73-8.31-1.87-.72c.71-1.83,1.36-3.72,1.94-5.6l1.91.59C252.86,124.52,252.19,126.44,251.46,128.32Zm2.83-8.65-1.93-.52c.51-1.9,1-3.84,1.36-5.77l2,.39C255.29,115.75,254.82,117.74,254.3,119.68Zm1.93-8.89-2-.32c.32-1.94.58-3.92.77-5.88l2,.19C256.82,106.78,256.55,108.8,256.23,110.79Zm1-9-2-.13c.13-2,.19-4,.19-5.93h2C257.45,97.71,257.39,99.75,257.26,101.75ZM152.91,94.61a40,40,0,0,1-4.61-.27l.23-2a38,38,0,0,0,5.83.23l.08,2Q153.68,94.61,152.91,94.61Zm4.6-.28-.25-2A32.23,32.23,0,0,0,163,91.12l.6,1.91A34.32,34.32,0,0,1,157.52,94.33Zm-12.26-.46a41.32,41.32,0,0,1-5.13-1.34l-.79-.27.67-1.89.76.26a39.53,39.53,0,0,0,4.88,1.28Zm110.15-1.14c-.06-2-.19-4-.37-5.93l2-.19c.19,2,.32,4,.38,6.05Zm-89-.77-.79-1.84a27.89,27.89,0,0,0,3.67-1.9q.71-.44,1.4-.91L171.87,89q-.73.5-1.48,1A30,30,0,0,1,166.46,92Zm-30-.82A50.92,50.92,0,0,1,131,88.39l1-1.73a49.19,49.19,0,0,0,5.25,2.64Zm37.85-4-1.26-1.55a47.73,47.73,0,0,0,4.3-4l1.44,1.38A49.5,49.5,0,0,1,174.33,87.11Zm-45.92-.32c-1.65-1.08-3.31-2.29-4.93-3.59l1.25-1.56c1.57,1.26,3.17,2.43,4.77,3.47Zm126.29-2.94c-.24-1.95-.55-3.92-.91-5.87l2-.37c.37,2,.68,4,.93,6Zm-133.55-2.6c-1.23-1.08-2.46-2.23-3.67-3.44l.12,1-1.52.17q-2.24.24-4.48.44l-.17-2q2.22-.19,4.43-.43l1-.12,1.29-1.26q1.17,1.19,2.36,2.32l-.21-1.5c2.1-.3,4-.62,5.85-1l.4,2c-1.77.36-3.6.68-5.59,1q.74.69,1.48,1.34Zm59.71-.54-1.5-1.32c1.14-1.29,2.35-2.75,3.81-4.57l1.56,1.25C183.26,77.91,182,79.39,180.87,80.71Zm-85.42-.57H93.54l0-2h2.1q1.93,0,3.86,0l0,2C98.2,80.12,96.82,80.13,95.45,80.13Zm-4.92-.07c-2-.05-4-.14-6-.26l.12-2c2,.12,4,.2,6,.26ZM102.59,80l-.07-2c2-.07,4-.18,6-.31l.14,2C106.6,79.82,104.58,79.93,102.59,80Zm-21.1-.4c-2-.15-4-.33-6-.55l.21-2c2,.21,4,.39,5.94.54Zm-9-.89c-2-.24-4-.52-6-.83l.31-2c2,.31,4,.58,5.91.82Zm-8.95-1.32c-2-.34-4-.72-5.93-1.12l.4-2c1.93.39,3.9.77,5.87,1.11Zm66-.62-.47-1.94c2-.49,3.89-1,5.67-1.66l.66,1.89C133.57,75.69,131.6,76.27,129.55,76.77ZM54.66,75.64c-2-.44-3.94-.91-5.87-1.4l.5-1.94c1.91.49,3.86,1,5.81,1.38Zm198.55-.57a24.59,24.59,0,0,0-1.94-5.42l1.79-.88a26.62,26.62,0,0,1,2.1,5.86Zm-138.54-.23c-1.42-1.57-2.74-3.14-3.9-4.68L112.37,69c1.13,1.49,2.4,3,3.78,4.54ZM138.26,74l-.76-1.85a44.88,44.88,0,0,0,5.27-2.57l1,1.73A47.05,47.05,0,0,1,138.26,74Zm48.35-.28L185,72.46l.47-.59c1.09-1.39,2.17-2.77,3.27-4.13L190.32,69c-1.09,1.35-2.17,2.72-3.25,4.1ZM45.88,73.47c-1.83-.5-3.68-1-5.5-1.59l-.3-.09.6-1.91L41,70c1.8.55,3.63,1.08,5.44,1.57Zm-8.67-2.6c-2-.67-3.91-1.36-5.7-2.05L32.24,67c1.75.69,3.63,1.37,5.6,2Zm109.17-1.22L145.24,68a34.08,34.08,0,0,0,4.51-3.69l1.39,1.43A36.07,36.07,0,0,1,146.37,69.65Zm-37.37-2a44.6,44.6,0,0,1-3.08-5.3l1.8-.88a42.75,42.75,0,0,0,2.94,5.06Zm-80.3,0c-1.93-.83-3.78-1.7-5.5-2.6l.93-1.77c1.67.87,3.47,1.72,5.36,2.53Zm221.16-.53a29.73,29.73,0,0,0-3.56-4.57l1.45-1.37a31.73,31.73,0,0,1,3.8,4.88Zm-57.63-.42-1.52-1.3c1.47-1.71,2.82-3.17,4.14-4.46l1.4,1.43C195,63.63,193.65,65,192.22,66.71ZM20.54,63.6a52.91,52.91,0,0,1-5.1-3.37l1.2-1.6a50.85,50.85,0,0,0,4.91,3.24Zm132.72-.1-1.52-1.3a30.89,30.89,0,0,0,3.37-4.73l1.73,1A32.89,32.89,0,0,1,153.26,63.5Zm90.95-3a31.62,31.62,0,0,0-4.7-3.4l1-1.72a33.65,33.65,0,0,1,5,3.62Zm-45.8-.14-1.3-1.52a34.17,34.17,0,0,1,5-3.58l1,1.73A32.12,32.12,0,0,0,198.41,60.41Zm-93.73-.85a30.27,30.27,0,0,1-1.65-6l2-.33a28.27,28.27,0,0,0,1.54,5.57ZM13,58.3a34.2,34.2,0,0,1-4.28-4.44l1.57-1.24a32.25,32.25,0,0,0,4,4.18Zm223.89-2.52a33.15,33.15,0,0,0-5.45-2l.53-1.93A35.1,35.1,0,0,1,237.79,54Zm-31.23-.06-.81-1.83a27.62,27.62,0,0,1,2.85-1.08c1-.32,2-.6,3-.85l.49,1.94c-.95.24-1.92.52-2.88.82A26,26,0,0,0,205.7,55.72Zm-47.45,0-1.83-.81a24.53,24.53,0,0,0,1.72-5.49l2,.36A26.5,26.5,0,0,1,158.25,55.7Zm55.85-2.44-.37-2a45.31,45.31,0,0,1,6.09-.74l.1,2A43.3,43.3,0,0,0,214.1,53.26Zm14.54-.16a36.66,36.66,0,0,0-5.8-.59l0-2a38.81,38.81,0,0,1,6.12.62ZM7,51.32a24.84,24.84,0,0,1-2.64-5.64l1.9-.61a22.84,22.84,0,0,0,2.43,5.19Zm95.74-.83q0-.39,0-.78v-.39a25.26,25.26,0,0,1,.52-5l2,.4a23.25,23.25,0,0,0-.48,4.64v.36q0,.36,0,.72Zm57.77-3.84-2-.1q0-.55,0-1.11t0-1.07a20.64,20.64,0,0,0-.49-3.5l2-.44a22.64,22.64,0,0,1,.53,3.84q0,.59,0,1.17C160.51,45.85,160.49,46.25,160.47,46.66Zm-156.91-4q-.07-.36-.12-.73A37.3,37.3,0,0,1,3,36.5H5a35.23,35.23,0,0,0,.4,5.12q.05.34.11.67Zm102.33-.75-1.9-.63a29,29,0,0,1,2.57-5.65l1.72,1A27,27,0,0,0,105.89,41.89Zm51.28-3.77a23.61,23.61,0,0,0-2.65-5.1l1.65-1.13A25.58,25.58,0,0,1,159,37.43Zm-47.29-3.9L108.28,33a31.57,31.57,0,0,1,4.14-4.6l1.35,1.48A29.52,29.52,0,0,0,109.89,34.22ZM5.15,33.6l-2-.18a30,30,0,0,1,1.19-6.07l1.91.59A28,28,0,0,0,5.15,33.6Zm147.61-2.85a25,25,0,0,0-4.25-3.88l1.17-1.62a27,27,0,0,1,4.59,4.19ZM116,28.07l-1.2-1.6c.65-.49,1.34-1,2-1.39a31.54,31.54,0,0,1,3.29-1.79L121,25.1a29.49,29.49,0,0,0-3.08,1.68C117.25,27.18,116.61,27.62,116,28.07Zm30.08-2.75a23.47,23.47,0,0,0-2.54-1.22,24.9,24.9,0,0,0-2.78-.94l.53-1.93a27,27,0,0,1,3,1,25.52,25.52,0,0,1,2.76,1.32ZM7.26,25.22l-1.84-.79A28.67,28.67,0,0,1,8.49,19l1.62,1.17A26.65,26.65,0,0,0,7.26,25.22ZM123.65,24,123,22.11a32.19,32.19,0,0,1,6-1.52l.3,2A30.13,30.13,0,0,0,123.65,24Zm14.28-1.43a27.43,27.43,0,0,0-4.25-.33c-.48,0-1,0-1.53,0l-.11-2c.54,0,1,0,1.63,0a29.42,29.42,0,0,1,4.56.35ZM11.93,18l-1.49-1.33A32.42,32.42,0,0,1,15,12.43L16.19,14A30.46,30.46,0,0,0,11.93,18Zm6.66-5.59-1.07-1.69A36.66,36.66,0,0,1,23,7.84l.77,1.85A34.73,34.73,0,0,0,18.58,12.36ZM26.5,8.68l-.61-1.91a33.15,33.15,0,0,1,6-1.34l.24,2A31.16,31.16,0,0,0,26.5,8.68Zm14-.51a13.65,13.65,0,0,0-5.4-.94l-.07-2a15.74,15.74,0,0,1,6.27,1.12Z" transform="translate(-3.03 -5.23)" fill="#201600"/><path d="M113.56,140.07a78.61,78.61,0,0,0,8.11-8.85l-2-.25,6.21,8.94c.91,1.31,3.08.07,2.16-1.26l-6.21-8.94a1.26,1.26,0,0,0-2-.25,78.61,78.61,0,0,1-8.11,8.85c-1.18,1.1.59,2.87,1.77,1.77Z" transform="translate(-3.03 -5.23)" fill="#201600"/></svg>