<svg xmlns="http://www.w3.org/2000/svg" viewBox="0 0 84.54 88.65"><title>cafe-bird</title><path d="M1.33,78.8C6,81,11.64,80.35,16.63,80a90.75,90.75,0,0,0,20-3.45c17.8-5.21,40-15.07,44.86-34.9,2.09-8.57,1.34-18.47-3.09-26.22C75.68,10.7,71,6.23,65.57,4.76c-5.89-1.6-9.79,1.33-13.71,5.38A39,39,0,0,0,45,19.87c-3.55,7.14-7.41,14.05-11.35,21-4.13,7.28-8.41,14.91-14.14,21.08a86.27,86.27,0,0,1-8.88,7.81c-3,2.46-5.83,5-9.28,6.88A1.23,1.23,0,0,0,1.33,78.8ZM5,77.43a69.52,69.52,0,0,0,6.15-4.76c3-2.52,6.19-4.9,9-7.67,5.42-5.34,9.52-12.06,13.35-18.58,4.11-7,8.57-14.07,12-21.4a57,57,0,0,1,6.25-10.62c1.88-2.43,4-4.67,6.91-5.88,5.61-2.31,11.72,1.09,15.21,5.17s5.17,9.52,5.75,14.77c1.24,11.3-2.76,21.32-11.05,29S49.73,69.81,39.09,73.2a92.31,92.31,0,0,1-19.23,4.09C15.48,77.71,9.62,78.58,5,77.43Z" transform="translate(-0.68 -1)"/><path d="M55.25,89.65a87.73,87.73,0,0,1-3.3-14.19c-.93-5.33-2-11-1.93-16.4,0-1.63,2.72-1.62,2.71,0,0,5.57,1,11.54,2.06,17a82.38,82.38,0,0,0,3.32,13.57Z" transform="translate(-0.68 -1)"/><path d="M47.88,89.65c-.35-1.06-.67-2.12-1-3.12-2.17-6.82-3.29-13.9-5-20.83-.4-1.62,2.23-2.22,2.62-.66,1.4,5.68,2.4,11.46,3.91,17.11.52,1.94,1.12,4.87,2.08,7.5Z" transform="translate(-0.68 -1)"/><path d="M5.65,57.78c3.18,2.75,8.71,3.08,12.72,3.17a33.43,33.43,0,0,0,13.71-2.2A29.31,29.31,0,0,0,48.57,39.69c.43-1.55,3.06-.93,2.61.68a31.75,31.75,0,0,1-19,21.07,38.17,38.17,0,0,1-15.45,2c-4.37-.26-9.56-.9-13-3.85C2.41,58.41,4.43,56.72,5.65,57.78Z" transform="translate(-0.68 -1)"/><path d="M60.76,20.27a2.19,2.19,0,1,1,0,4.37A2.19,2.19,0,1,1,60.76,20.27Z" transform="translate(-0.68 -1)"/><path d="M72.46,9.86C76,7.09,79.34,4.07,82.87,1.29c.87-.69,2.78-.13,2.26,1.23-1.81,4.8-3.67,9.61-6.73,13.78-.95,1.29-3.34.09-2.34-1.28A41.13,41.13,0,0,0,80.73,6.4c-2,1.67-4,3.34-6,4.94l-.06.09-.26.29a1.42,1.42,0,0,1-2.13-.26l0-.08A1.21,1.21,0,0,1,72.46,9.86Z" /></svg>