<svg id="_3_части_копия_" data-name="3 части (копия)" xmlns="http://www.w3.org/2000/svg" viewBox="0 0 28.39 72.01"><title>cafr-rabbit</title><path d="M23,46.16c.37-4.87,2-9.48,3.12-14.19a91.12,91.12,0,0,0,2.37-13.06A44.08,44.08,0,0,0,28,5.7c-.37-1.77-1.27-4.59-3.56-4.4-3.1.26-3.51,4.62-4.09,6.93a64.23,64.23,0,0,0-1.57,13.6c-.06,1.55-.16,3.1-.2,4.65,0,.56,0,1.12-.08,1.68-.1,1.07-.18,1.63-1.41,1.33a23.24,23.24,0,0,0-4.07-1,18.67,18.67,0,0,1-3.2-.24c-1.56-.38-1.06-1.79-1-3,.22-3.19-.12-6.42-.19-9.61,0-2-.12-4-.3-6A25.61,25.61,0,0,0,7.06,3.06C6.58,1.79,5.8.29,4.31,0-.17-.7.37,8.67.39,11.23c0,5.22.51,10.42.74,15.63.24,5.37.79,10.68,1.4,16a89.12,89.12,0,0,1,.76,15.45c-.16,2.66-.51,5.3-.63,8C2.6,67.61,2,70,3.09,71a.52.52,0,0,0,.56.13,3.29,3.29,0,0,0,1.48.48,56.47,56.47,0,0,0,6.23.15c2.92,0,6.4.82,9-.92a.52.52,0,0,0,.24-.09c2.48,1.59,6.78-.49,7.24-3.32a3.57,3.57,0,0,0-2.26-3.64,5.83,5.83,0,0,0-4.21.12c.15-1.48.34-3,.52-4.41C22.41,55.07,22.63,50.64,23,46.16ZM19.74,70c-2,1.48-4.91.83-7.22.77-1.37,0-2.73,0-4.1,0-1.07,0-4,.36-4.53-1a.54.54,0,0,0-.25-.28c0-.51.11-1.11.12-1.48,0-1,0-1.9.11-2.85.15-2.28.42-4.55.56-6.83a79.82,79.82,0,0,0-.51-13.16C3.46,40.79,2.85,36.42,2.53,32s-.47-8.85-.72-13.27A107.44,107.44,0,0,1,1.58,7.93a25.45,25.45,0,0,1,.36-3.55c.18-1,.45-2.83,1.54-3.24,3.14-1.2,3.69,8.28,3.8,9.76.13,1.76.17,3.53.22,5.29a85,85,0,0,1,.12,9.71c-.09,1-.27,2,.54,2.79,1.07,1,3,.81,4.37.87a20.41,20.41,0,0,1,4.26,1c.8.2,1.83.39,2.4-.36a5.32,5.32,0,0,0,.51-2.67c.07-1.31.07-2.61.15-3.91.27-4.53.22-9,1.23-13.46.4-1.76.85-3.52,1.35-5.26S24.65,1.22,26,3.4a9.35,9.35,0,0,1,1,3.38,42.42,42.42,0,0,1,.54,7,69.13,69.13,0,0,1-1.93,15.1c-1,4.61-2.68,9.16-3.43,13.82s-.55,9.37-1.14,14c-.31,2.41-.58,4.82-.85,7.23-.12,1.1-.25,2.21-.28,3.32A7.29,7.29,0,0,1,19.79,70Zm1.67-4.91c1.77-.73,5.46-.81,5.3,2.07-.13,2.19-3.88,4.09-5.67,2.64a19.9,19.9,0,0,0,.08-3c0-.54.07-1.09.12-1.64A.61.61,0,0,0,21.41,65.07Z" transform="translate(-0.36)" style="fill:#201600"/><path d="M17.41,51c0,1-1,2.36-2.18,2.22a3.71,3.71,0,0,1-1.89-1.44,5.81,5.81,0,0,1-.75-3.71,10.48,10.48,0,0,0,1-1.77c.33-.7.94-1.83.57-2.62a1.17,1.17,0,0,0-2-.07,2.88,2.88,0,0,0-.29.42,1.28,1.28,0,0,0-2.19.57c-.26,1.29.76,3.06,1.6,4,0,1.12.23,2.63-.86,3.3-1.26.77-2.27-.94-2.32-2,0-.69-1.18-.69-1.15,0,.09,1.63,1.41,3.56,3.26,3.22A2.28,2.28,0,0,0,12,51.68a4.88,4.88,0,0,0,2,2.21c2,1.22,4.38-.72,4.48-2.88C18.59,50.33,17.44,50.33,17.41,51Z" transform="translate(-0.36)" style="fill:#201600"/><path d="M10.34,38a3.14,3.14,0,0,0-3.1-1.54,3.26,3.26,0,0,0-2.5,2.27c-.29.64.83.9,1.1.28s.73-1.39,1.56-1.49a1.94,1.94,0,0,1,2,1C9.71,39.1,10.72,38.59,10.34,38Z" transform="translate(-0.36)" style="fill:#201600"/><path d="M15.79,39.44c-.52.52.32,1.24.81.75,1.08-1.08,2.59.21,2.53,1.49,0,.69,1.11.69,1.15,0C20.38,39.41,17.51,37.71,15.79,39.44Z" transform="translate(-0.36)" style="fill:#201600"/><path d="M5.39,24.91C4.79,21.34,5.1,17.64,4,14.16c-.21-.65-1.32-.39-1.1.28,1.1,3.47.79,7.19,1.39,10.76C4.4,25.86,5.51,25.6,5.39,24.91Z" transform="translate(-0.36)" style="fill:#201600"/><path d="M22.81,21.13C22.12,24,21.74,27,21.22,29.89c-.12.69,1,1,1.1.28.52-2.92.91-5.87,1.59-8.76C24.08,20.72,23,20.46,22.81,21.13Z" transform="translate(-0.36)" style="fill:#201600"/></svg>