<svg xmlns="http://www.w3.org/2000/svg" xmlns:xlink="http://www.w3.org/1999/xlink" width="177.122" height="117.523">
  <path d="M72.971 54.403c-2.475.647-1.54 4.243.94 3.595 2.475-.647 1.539-4.243-.94-3.595" clip-path="url(#b)"/>
  <path d="M101.021 54.056c-4.122-.842-8.275-1.653-12.501-1.432-.734-2.84-2.027-5.589-3.981-7.773-3.738-4.178-8.114-5.145-13.039-4.328-3.483.578-6.323 1.982-9.376 3.57-6.115 3.182-12.873 6.758-19.189 9.602-3.618 1.628-7.323 3.296-11.131 4.705-6.128-4.225-9.945-11.279-10.468-18.632-.097-1.365-2.392-1.289-2.291.126.533 7.503 4.315 14.754 10.298 19.371-2.377.79-4.793 1.464-7.259 1.925-3.433.642-6.986.721-10.505.893-3.47.168-6.856.521-10.37.025-.85-.12-1.537.744-1.044 1.522 2.509 3.953 7.138 6.434 11.092 8.809 5.371 3.226 11.042 5.911 16.928 7.949 8.075 2.796 17.559 5.343 26.666 5.737-4.38 6.685-7.364 14.358-9.124 22.473-.951.584-2.427.411-3.205 1.636-.596.938-1.318 1.799-1.988 2.693l-1.13 1.518c.976 1.18 1.804 1.388 2.709.105.666-.948 1.381-1.865 2.419-2.694-.073 1.23-.056 2.47-.24 3.68-.241 1.589.634 1.892 2.12 1.987l.343-4.69c1.383.973 1.387 3.541 4.203 3.181l-3.453-5.964-.053-.05.209.074c1.804-8.71 5.068-16.906 9.971-23.899a48.588 48.588 0 0 0 3.757-.167c2.361 8.498 6.765 16.6 13.069 22.817-.399.893-1.182 1.745-.901 2.94.254 1.082.365 2.201.535 3.304l.295 1.869c1.526.127 2.254-.319 1.97-1.864-.213-1.138-.368-2.29-.235-3.611.828.911 1.727 1.767 2.463 2.743.967 1.284 1.795.869 2.902-.126l-3.112-3.524c1.662-.31 3.501 1.483 5.211-.781a6282.1 6282.1 0 0 1-6.641-1.692c-6.348-5.969-10.842-13.958-13.235-22.347 5.719-.818 11.019-2.842 15.38-6.634 4.257-3.702 7.653-8.755 9.222-14.317.053.039.109.075.173.105 3.588 1.705 5.724 1.47 9.605 2.144 1.102.19 1.247-1.326.604-1.885-2.315-2.008-4.743-3.879-7.081-5.86 3.081-1.042 6.203-1.958 9.269-3.048.889-.316 1.349-1.938.139-2.185m-17.03 14.788c-4.443 8.597-12.279 12.563-22.276 13.672-9.973 1.104-20.347-.666-30.091-3.798-5.745-1.847-11.271-3.588-16.584-6.547-3.548-1.978-8.434-4.402-11.411-7.6 2.332.12 4.615-.025 6.966-.161 3.518-.201 7.066-.235 10.537-.726 3.649-.516 7.192-1.533 10.642-2.768 3.639 2.163 7.928 3.398 12.093 3.987 3.682.522 8.114.87 11.466-1.011 1.287-.722-.104-2.473-1.306-1.798-3.118 1.749-7.773 1.092-11.131.485-2.891-.521-5.822-1.337-8.481-2.653 1.954-.764 3.88-1.574 5.772-2.389 6.467-2.787 13.258-5.458 19.388-8.823 3.109-1.707 6.363-3.236 9.841-4.226 2.594-.739 5.267-1.222 8.079-.552 5.389 1.285 8.43 6.842 9.151 11.532.718 4.674-.592 9.385-2.655 13.376m5.121-5.902a.968.968 0 0 0-.342-.092c.208-1.036.35-2.087.422-3.146.014.009.025.019.04.028.06.224.165.432.366.55l.258.153c.024.014.05.022.075.035 1.505 1.3 3.055 2.547 4.598 3.801-2.463-.514-3.118-.237-5.417-1.329m.853-5.417c-.03.003-.06.001-.092.006l-.327.053a.866.866 0 0 0-.311.123 22.27 22.27 0 0 0-.249-2.836c2.441-.068 4.853.187 7.251.592-2.096.67-4.196 1.329-6.272 2.062M177.088 31.408c-.258-3.449-3.392-12.556-3.452-12.644-.158-.572-.352-.765-.78-1.448-.891-1.448-1.671-3.008-2.45-4.456l-.335-.669c-1.447-1.559-2.673-3.23-4.122-4.678-1.002-1.114-2.339-2.006-3.787-2.451-1.56-.446-3.008-1.226-4.567-1.783-1.56-.557-3.23-1.114-4.79-1.448-2.45-.445-4.79-.668-7.129-.891-2.674-.223-5.348-.223-8.021-.891-.223-.112-.334 0-.557 0-1.895.111-3.788.78-5.793.557-.223-.112-.557 0-.78.111-2.005.557-4.01 1.114-6.015 1.783-3.454 1.225-6.907 2.45-9.692 4.79-2.339 2.005-4.122 4.233-5.235 7.018-.558 1.337-1.003 2.896-1.337 4.344-.335 1.226-.557 2.674-.557 4.011.111 3.119.445 6.238.668 9.357.111 2.228.78 4.345 1.782 6.462.892 1.782 1.497 3.253 2.611 4.924.223.445 2.055 1.638 2.5 1.75 1.56.557 1.685 1.124 3.021 2.126-.112.557-.335 1.114-.557 1.671-.446.891-1.003 1.783-1.337 2.674-.558 1.782-1.783 3.23-2.897 4.567-1.448 1.671-3.007 3.342-5.347 4.01-.558.112-1.002.557-1.448.78-.891.446-1.003.892-.78 1.561.446 1.002.78 1.113 1.895 1.113.668-.111 1.448 0 2.117 0 .668 0 1.336.111 1.893 0 2.451-.334 4.79-.669 7.13-1.113a13.829 13.829 0 0 0 1.895-.78c1.002-.446 2.005-.891 2.896-1.448 2.339-1.226 4.345-2.896 5.681-5.125.446-.779.893-1.559 1.338-2.339.223-.334.334-.668.891-.557.198.033.401.061.601.092l-.471-.059.709.097.085.011c1.679.25 3.058.643 4.718.827.045.005.438.123.483.129l.87.161h5.479c3.256.193 12.861-1.161 16.085-2.579s9.767-4.351 12.861-8.413c3.091-4.062 4.285-7.705 4.027-11.154m-2.896 4.957c-.446 2.451-1.894 4.345-3.676 5.904-1.894 1.56-4.233 2.562-6.35 3.788-2.563 1.448-5.458 2.339-8.243 3.23-2.117.669-4.456 1.003-6.685 1.449-1.114.222-2.34.445-3.454.445-1.559.111-3.118 0-4.679 0-1.225-.111-2.45-.111-3.676-.111-1.002 0-2.005 0-3.008-.112-1.226-.111-2.563-.445-3.676-1.225-.892-.557-1.448-.446-1.782.334-.224.446-.224.891-.446 1.337-1.002 2.117-2.005 4.01-4.01 5.347-1.448.891-2.674 1.894-4.122 2.785-.668.446-1.56.668-2.339.891-1.561.334-3.008.557-4.568.891h-1.002c.445-.557.668-1.002 1.225-1.114 1.226-1.336 2.451-2.562 3.565-4.01.78-1.114 1.337-2.339 2.005-3.453.334-.557.78-1.226 1.003-1.894a19.118 19.118 0 0 0 1.002-3.342c.224-1.225-.557-2.117-1.559-2.674-1.003-.557-2.117-1.114-3.12-1.671-.668-.334-.744-.871-1.412-1.317-.769-.591-.951-1.263-1.063-1.375-1.56-3.564-2.983-5.885-3.317-9.562-.223-2.339-.446-4.678-.446-7.018 0-1.559.334-3.008.558-4.456.111-1.002.445-2.005.669-3.007.334-1.56 1.336-2.786 2.227-4.122 1.672-2.228 3.9-3.676 6.239-5.013.891-.446 1.894-.78 2.896-1.114 1.114-.446 2.229-.891 3.231-1.337 2.005-1.003 4.122-1.337 6.35-1.671 1.448-.223 2.785-.334 4.233-.557h.891c2.896.334 5.793.78 8.689 1.114 1.226.223 2.562.111 3.788.223 2.673.111 5.124 1.337 7.686 2.339 1.114.446 2.117 1.003 3.231 1.337 1.559.446 2.562 1.56 3.676 2.451 1.671 1.337 3.008 3.119 4.01 5.013.78 1.448 1.783 2.785 2.563 4.233.557.78.778 1.782 1.113 2.673 1.002 2.785 1.894 5.57 2.116 8.467.114 2.005.001 4.01-.333 5.904" clip-path="url(#b)"/>
  <path d="M129.867 26.334c-4.245-.295-4.683 5.892-.431 6.188 4.246.294 4.683-5.893.431-6.188M142.923 25.987l-.998-.069c-1.637-.114-3.503 1.092-3.541 2.863-.038 1.777 1.345 3.202 3.111 3.324l.997.069c1.637.114 3.504-1.092 3.542-2.862.038-1.778-1.345-3.202-3.111-3.325M154.945 26.07c-4.245-.295-4.682 5.892-.43 6.187 4.246.295 4.682-5.892.43-6.187" clip-path="url(#b)"/>
</svg>
