<?xml version="1.0" encoding="utf-8"?>
<svg xmlns="http://www.w3.org/2000/svg" xmlns:xlink="http://www.w3.org/1999/xlink">
	
	<symbol viewBox="0 0 909 446" id="candy1">
	  <path d="M52.661 4.198c5.63-5.4 13.96-3.99 21.04-4.13 57.12.65 113.4 26.23 151.41 68.88 18.65 20.5 32.93 44.81 42.56 70.76 17.05-34.63 43.75-64.47 76.47-84.98 36.47-23.27 80.42-34.61 123.601-31.9 54.399 2.98 107.1 28.59 143.159 69.41 12.931 14.61 24.311 30.79 32.431 48.57 11.84-34.65 33.38-65.9 61.149-89.75 26.5-23.18 59.13-39.21 93.57-46.48 16.94-3.91 34.42-5.13 51.77-4.11 6.851.36 13.07 5.99 13.971 12.82.689 6 4.189 11.1 6.33 16.63 25.35 60.05 36.91 125.34 38.16 190.33.909 63.689-7.95 127.89-29.521 187.97-1.06 3.24-2.79 6.39-5.61 8.42-4.85 3.181-10.239 6.07-16.22 5.84-16.689 1.851-33.47.2-50.05-1.89-58.9-9.31-112.9-45.6-143.95-96.5-3.77-5.87-7-12.04-10.27-18.19-11.42 31.851-30.45 61.021-55.311 84-26.24 24.431-58.89 41.91-93.77 50.2-14.011 3.62-28.53 4.3-42.88 5.431-24.67.21-49.581-2.801-72.9-11.08-15.95-5.341-31.08-12.931-45.21-22.011-9.83-5.88-18.62-13.27-27.21-20.79-10.04-8.689-18.97-18.619-26.84-29.31-13.07-17.02-23.34-36.19-30.46-56.42-14.5 29.84-36.37 55.96-62.87 75.89-32.01 23.851-70.96 38.73-110.93 40.71-9.91 1.09-19.87.87-29.77-.16-2.92 1.841-6.19 3.391-9.73 3.24-6.57.141-12.68-4.46-14.72-10.64-14.52-39.771-23.19-81.54-27.38-123.63-5.86-61.09-2.2-123.19 11.84-182.97 7.5-31.68 18.25-62.61 32.29-92 1.401-4.27 2.091-9.16 5.851-12.16m21.93 26.77c-6.4 12.46-11.93 25.39-16.31 38.7-21.19 59.27-29.08 122.82-27 185.57 1.69 46.119 9.05 92.17 23.32 136.1 6.03.31 12.05 1.23 18.1.97 11.08-.8 22.22-1.33 33.14-3.489 26.44-5.41 51.62-16.921 72.98-33.431 28.09-21.76 49.59-51.899 60.83-85.63-23.75 9.82-49.19 15.38-74.86 16.54-6.99.29-14.14 1.48-21.06.04-7.23-1.94-12.25-9.68-11.01-17.07.9-6.92 7.01-12.81 14.02-13.16 14.37-.199 28.74-1.43 42.94-3.649 19.43-3.71 38.28-10.351 55.85-19.43.13-10.53 1.1-21.041 2.56-31.46-3.21-1.48-5.91-3.78-8.21-6.44-25.02-24.98-56.9-42.89-91.13-51.67-5.2-1.03-10.08-4.3-12.12-9.31-3.31-7.18 0-16.5 7.13-19.92 4.63-2.59 10.14-1.72 14.95-.15 29.14 7.95 57.08 21.18 80.8 39.96-15.14-47.08-50.94-87.22-96.22-107.24-21.46-10.011-45.08-15.091-68.7-15.831m702.04 12.21c-29.54 11.3-55.63 30.96-75.37 55.6-11.1 13.87-19.85 29.5-26.6 45.91 24.75-18.07 53.18-31.01 82.979-38.12 4.561-1.24 9.69-.42 13.48 2.49 4.96 3.58 7.38 10.3 5.779 16.22-1.38 5.8-6.399 10.38-12.229 11.45-36.37 8.56-70.22 27.5-96.43 54.15-1.65 1.75-3.57 3.23-5.591 4.54-.59 7.16 1.32 14.2 1.73 21.33 13.75 6.82 28.36 11.84 43.28 15.39 14.77 3.61 30.02 4.42 45.149 5.29 4.311.26 8.61-.68 12.92-.27 6.721.75 12.41 6.47 13.261 13.16 1.27 7.71-4.301 15.75-11.971 17.25-11.72 1.76-23.56.21-35.29-.54-22.529-1.57-44.59-7.341-65.55-15.591 4.36 18.131 10.73 35.95 20.59 51.851 8.88 15.21 19.55 29.59 32.86 41.24 24.7 23.439 56.51 39.229 90.01 45.189 13.9 1.78 27.99 3.49 42.01 2.13 7.5-21.33 12.96-43.34 17.11-65.56 12.04-66.26 11.58-134.85-1.64-200.9-6.62-32.35-16.33-64.17-30.311-94.13-20.496.781-41.077 4.191-60.176 11.921m-419.56 40.05c41.04 4.09 81.66 13.43 119.98 28.76 59.52 23.33 114.15 60.85 153.88 111.3-.14-10.64 1.26-21.58-1.92-31.93-11.14-46.49-41.25-88.48-82.66-112.65-19.04-11.69-40.45-19.43-62.49-22.99-43.71-7.23-90.07 2.63-126.79 27.51m-64.65 76.15c19.87 1.07 39.69 3.27 59.26 6.9 67.88 12.21 133.4 40.36 186.87 84.28 26.97 22.25 50.55 48.71 69.06 78.4 10.181-17.01 17.881-35.58 22.04-54.98-4.42-3.31-6.55-8.55-9.63-12.949-30-45.371-73.2-81.081-121.51-105.57-14.28-7.07-29.01-13.22-43.87-18.96-42-15.11-86.47-23.15-131.07-24.35-13.07 13.769-22.92 30.209-31.15 47.229m-10.41 30.59c-3.47 13.48-5.07 27.4-5.53 41.29-.26 4.08 1.51 8.01.95 12.09-.72 5.13.12 10.29.68 15.4 1.79 9.91 3.73 19.82 6.55 29.5 6.62 20.84 16.72 40.64 30.35 57.78 10 13.55 22.76 24.76 36.08 34.949 14.41 9.96 29.87 18.601 46.54 24.15 19.88 7.09 41.12 9.58 62.14 9.479 12.33-1.079 24.83-1.51 36.87-4.659 34.851-8.29 66.94-27.49 90.91-54.091-11.68-20.939-26.28-40.189-42.86-57.479-23.79-24.94-52.08-45.29-82.319-61.66-35.55-19-74.14-32.12-113.72-39.59-22.061-3.579-44.271-6.669-66.641-7.159" clip-path="url(#b)"/>
	</symbol>

	<symbol viewBox="0 0 48 48" id="candy2">
	  <path d="M47.161 9l-8.2-8.2c-.5-.5-1.3-.8-2-.8-1.2 0-2.4.8-2.7 2l-2.5 7.6c-.7-.1-1.4-.2-2.1-.2-4.5 0-9.6 2.4-13.7 6.5-5 4.9-7.3 11.1-6.4 15.8l-7.6 2.5c-1 .3-1.7 1.1-1.9 2.1-.2 1 .1 2 .8 2.7l8.1 8.2c.5.5 1.3.8 2 .8 1.2 0 2.4-.8 2.7-2l2.5-7.6c.7.1 1.4.199 2.1.199 4.5 0 9.6-2.399 13.7-6.5 3.2-3.199 5.399-7 6.2-10.8.399-1.8.399-3.5.1-5l7.6-2.5c1-.3 1.7-1.1 1.9-2.1.4-.999.099-1.999-.6-2.699m-17.6 2.4c2.101 0 3.9.7 5.2 1.9.8.8 1.3 1.8 1.6 3-5.699-2-11.3-2.3-16.7-1 3.1-2.5 6.699-3.9 9.9-3.9m-17.7 34c-.1.399-.5.6-.8.6-.2 0-.4 0-.6-.3l-8.2-8.2c-.4-.3-.3-.6-.3-.8 0-.101.2-.5.6-.601l7.5-2.5s0 .101.1.101c.4.899.9 1.8 1.7 2.5.7.7 1.5 1.2 2.3 1.6.1 0 .1.101.2.101l-2.5 7.499zm6.5-8.8c-2.1 0-3.9-.699-5.2-1.899-.7-.7-1.2-1.5-1.5-2.4 5.4-1.5 10.8-1.399 16.6.4-3.1 2.499-6.7 3.899-9.9 3.899m12.3-5.9c-.2.2-.4.3-.601.5-6.399-2.2-12.8-2.5-18.8-.8-.1-1.5.1-3.2.7-5 7.2-3 14.6-3 22.6 0-.899 1.9-2.299 3.7-3.899 5.3m5.699-9.8c-.199.9-.5 1.8-.8 2.7-7.7-3-15.2-3.2-22.3-.7.8-1.5 1.8-2.9 3-4.3 6.6-2.8 13.3-2.8 20.5-.1-.199.7-.199 1.6-.4 2.4m9.601-9.6c0 .1-.2.5-.601.6l-7.5 2.5c0-.1-.1-.1-.1-.2-.1-.3-1.8-3.3-4-4-.1 0-.1-.1-.2-.1l2.5-7.5c.101-.4.5-.6.8-.6.2 0 .4 0 .601.3l8.2 8.2c.4.2.3.6.3.8" clip-path="url(#b)"/>
	</symbol>

	<symbol viewBox="0 0 117 117" id="bird">
	  <path d="M72.971 54.403c-2.475.647-1.54 4.243.94 3.595 2.475-.647 1.539-4.243-.94-3.595" clip-path="url(#b)"/>
	  <path d="M101.021 54.056c-4.122-.842-8.275-1.653-12.501-1.432-.734-2.84-2.027-5.589-3.981-7.773-3.738-4.178-8.114-5.145-13.039-4.328-3.483.578-6.323 1.982-9.376 3.57-6.115 3.182-12.873 6.758-19.189 9.602-3.618 1.628-7.323 3.296-11.131 4.705-6.128-4.225-9.945-11.279-10.468-18.632-.097-1.365-2.392-1.289-2.291.126.533 7.503 4.315 14.754 10.298 19.371-2.377.79-4.793 1.464-7.259 1.925-3.433.642-6.986.721-10.505.893-3.47.168-6.856.521-10.37.025-.85-.12-1.537.744-1.044 1.522 2.509 3.953 7.138 6.434 11.092 8.809 5.371 3.226 11.042 5.911 16.928 7.949 8.075 2.796 17.559 5.343 26.666 5.737-4.38 6.685-7.364 14.358-9.124 22.473-.951.584-2.427.411-3.205 1.636-.596.938-1.318 1.799-1.988 2.693l-1.13 1.518c.976 1.18 1.804 1.388 2.709.105.666-.948 1.381-1.865 2.419-2.694-.073 1.23-.056 2.47-.24 3.68-.241 1.589.634 1.892 2.12 1.987l.343-4.69c1.383.973 1.387 3.541 4.203 3.181l-3.453-5.964-.053-.05.209.074c1.804-8.71 5.068-16.906 9.971-23.899a48.588 48.588 0 0 0 3.757-.167c2.361 8.498 6.765 16.6 13.069 22.817-.399.893-1.182 1.745-.901 2.94.254 1.082.365 2.201.535 3.304l.295 1.869c1.526.127 2.254-.319 1.97-1.864-.213-1.138-.368-2.29-.235-3.611.828.911 1.727 1.767 2.463 2.743.967 1.284 1.795.869 2.902-.126l-3.112-3.524c1.662-.31 3.501 1.483 5.211-.781a6282.1 6282.1 0 0 1-6.641-1.692c-6.348-5.969-10.842-13.958-13.235-22.347 5.719-.818 11.019-2.842 15.38-6.634 4.257-3.702 7.653-8.755 9.222-14.317.053.039.109.075.173.105 3.588 1.705 5.724 1.47 9.605 2.144 1.102.19 1.247-1.326.604-1.885-2.315-2.008-4.743-3.879-7.081-5.86 3.081-1.042 6.203-1.958 9.269-3.048.889-.316 1.349-1.938.139-2.185m-17.03 14.788c-4.443 8.597-12.279 12.563-22.276 13.672-9.973 1.104-20.347-.666-30.091-3.798-5.745-1.847-11.271-3.588-16.584-6.547-3.548-1.978-8.434-4.402-11.411-7.6 2.332.12 4.615-.025 6.966-.161 3.518-.201 7.066-.235 10.537-.726 3.649-.516 7.192-1.533 10.642-2.768 3.639 2.163 7.928 3.398 12.093 3.987 3.682.522 8.114.87 11.466-1.011 1.287-.722-.104-2.473-1.306-1.798-3.118 1.749-7.773 1.092-11.131.485-2.891-.521-5.822-1.337-8.481-2.653 1.954-.764 3.88-1.574 5.772-2.389 6.467-2.787 13.258-5.458 19.388-8.823 3.109-1.707 6.363-3.236 9.841-4.226 2.594-.739 5.267-1.222 8.079-.552 5.389 1.285 8.43 6.842 9.151 11.532.718 4.674-.592 9.385-2.655 13.376m5.121-5.902a.968.968 0 0 0-.342-.092c.208-1.036.35-2.087.422-3.146.014.009.025.019.04.028.06.224.165.432.366.55l.258.153c.024.014.05.022.075.035 1.505 1.3 3.055 2.547 4.598 3.801-2.463-.514-3.118-.237-5.417-1.329m.853-5.417c-.03.003-.06.001-.092.006l-.327.053a.866.866 0 0 0-.311.123 22.27 22.27 0 0 0-.249-2.836c2.441-.068 4.853.187 7.251.592-2.096.67-4.196 1.329-6.272 2.062M177.088 31.408c-.258-3.449-3.392-12.556-3.452-12.644-.158-.572-.352-.765-.78-1.448-.891-1.448-1.671-3.008-2.45-4.456l-.335-.669c-1.447-1.559-2.673-3.23-4.122-4.678-1.002-1.114-2.339-2.006-3.787-2.451-1.56-.446-3.008-1.226-4.567-1.783-1.56-.557-3.23-1.114-4.79-1.448-2.45-.445-4.79-.668-7.129-.891-2.674-.223-5.348-.223-8.021-.891-.223-.112-.334 0-.557 0-1.895.111-3.788.78-5.793.557-.223-.112-.557 0-.78.111-2.005.557-4.01 1.114-6.015 1.783-3.454 1.225-6.907 2.45-9.692 4.79-2.339 2.005-4.122 4.233-5.235 7.018-.558 1.337-1.003 2.896-1.337 4.344-.335 1.226-.557 2.674-.557 4.011.111 3.119.445 6.238.668 9.357.111 2.228.78 4.345 1.782 6.462.892 1.782 1.497 3.253 2.611 4.924.223.445 2.055 1.638 2.5 1.75 1.56.557 1.685 1.124 3.021 2.126-.112.557-.335 1.114-.557 1.671-.446.891-1.003 1.783-1.337 2.674-.558 1.782-1.783 3.23-2.897 4.567-1.448 1.671-3.007 3.342-5.347 4.01-.558.112-1.002.557-1.448.78-.891.446-1.003.892-.78 1.561.446 1.002.78 1.113 1.895 1.113.668-.111 1.448 0 2.117 0 .668 0 1.336.111 1.893 0 2.451-.334 4.79-.669 7.13-1.113a13.829 13.829 0 0 0 1.895-.78c1.002-.446 2.005-.891 2.896-1.448 2.339-1.226 4.345-2.896 5.681-5.125.446-.779.893-1.559 1.338-2.339.223-.334.334-.668.891-.557.198.033.401.061.601.092l-.471-.059.709.097.085.011c1.679.25 3.058.643 4.718.827.045.005.438.123.483.129l.87.161h5.479c3.256.193 12.861-1.161 16.085-2.579s9.767-4.351 12.861-8.413c3.091-4.062 4.285-7.705 4.027-11.154m-2.896 4.957c-.446 2.451-1.894 4.345-3.676 5.904-1.894 1.56-4.233 2.562-6.35 3.788-2.563 1.448-5.458 2.339-8.243 3.23-2.117.669-4.456 1.003-6.685 1.449-1.114.222-2.34.445-3.454.445-1.559.111-3.118 0-4.679 0-1.225-.111-2.45-.111-3.676-.111-1.002 0-2.005 0-3.008-.112-1.226-.111-2.563-.445-3.676-1.225-.892-.557-1.448-.446-1.782.334-.224.446-.224.891-.446 1.337-1.002 2.117-2.005 4.01-4.01 5.347-1.448.891-2.674 1.894-4.122 2.785-.668.446-1.56.668-2.339.891-1.561.334-3.008.557-4.568.891h-1.002c.445-.557.668-1.002 1.225-1.114 1.226-1.336 2.451-2.562 3.565-4.01.78-1.114 1.337-2.339 2.005-3.453.334-.557.78-1.226 1.003-1.894a19.118 19.118 0 0 0 1.002-3.342c.224-1.225-.557-2.117-1.559-2.674-1.003-.557-2.117-1.114-3.12-1.671-.668-.334-.744-.871-1.412-1.317-.769-.591-.951-1.263-1.063-1.375-1.56-3.564-2.983-5.885-3.317-9.562-.223-2.339-.446-4.678-.446-7.018 0-1.559.334-3.008.558-4.456.111-1.002.445-2.005.669-3.007.334-1.56 1.336-2.786 2.227-4.122 1.672-2.228 3.9-3.676 6.239-5.013.891-.446 1.894-.78 2.896-1.114 1.114-.446 2.229-.891 3.231-1.337 2.005-1.003 4.122-1.337 6.35-1.671 1.448-.223 2.785-.334 4.233-.557h.891c2.896.334 5.793.78 8.689 1.114 1.226.223 2.562.111 3.788.223 2.673.111 5.124 1.337 7.686 2.339 1.114.446 2.117 1.003 3.231 1.337 1.559.446 2.562 1.56 3.676 2.451 1.671 1.337 3.008 3.119 4.01 5.013.78 1.448 1.783 2.785 2.563 4.233.557.78.778 1.782 1.113 2.673 1.002 2.785 1.894 5.57 2.116 8.467.114 2.005.001 4.01-.333 5.904" clip-path="url(#b)"/>
	  <path d="M129.867 26.334c-4.245-.295-4.683 5.892-.431 6.188 4.246.294 4.683-5.893.431-6.188M142.923 25.987l-.998-.069c-1.637-.114-3.503 1.092-3.541 2.863-.038 1.777 1.345 3.202 3.111 3.324l.997.069c1.637.114 3.504-1.092 3.542-2.862.038-1.778-1.345-3.202-3.111-3.325M154.945 26.07c-4.245-.295-4.682 5.892-.43 6.187 4.246.295 4.682-5.892.43-6.187" clip-path="url(#b)"/>	
	</symbol>

	<symbol viewBox="0 0 217 167" id="hare">
	  <path d="M68.792 153.447c52.868-22.008 102.701-50.783 148.144-85.634 1.053-.807.515-2.686-.963-2.284-33.577 9.126-67.164 18.254-100.369 28.666a1209.523 1209.523 0 0 0-23.894 7.755 1048.379 1048.379 0 0 0-12.794 4.396c-2.417.85-5.871 1.601-7.839 3.422-1.355 1.254-1.876 2.75-2.227 4.524-.825 4.16-.957 8.552-1.415 12.772l-2.872 26.461c-.173 1.597 2.328 1.585 2.5 0l2.564-23.626 1.23-11.34c.348-3.209.951-6.267 3.964-8.047 1.677-.989 3.839-1.434 5.671-2.074 14.897-5.213 29.915-10.073 45.006-14.692 30.194-9.24 60.67-17.526 91.139-25.807-.322-.761-.642-1.523-.963-2.284-45.255 34.706-94.894 63.462-147.546 85.381-1.463.61-.82 3.03.664 2.411" clip-path="url(#b)"/>
	  <path d="M72.963 107.232a182.276 182.276 0 0 1-35.13-20.505l-.631 2.33c58.746-6.576 117.493-13.153 176.24-19.728l-.884-2.135a1813.452 1813.452 0 0 1-111.349 92.714l1.837.747c-2.777-6.784-6.458-12.895-11.175-18.507-1.036-1.232-2.797.543-1.767 1.769a65.239 65.239 0 0 1 10.531 17.403c.266.65 1.123 1.293 1.836.746a1821.474 1821.474 0 0 0 111.854-93.104c.756-.682.201-2.255-.884-2.133-58.747 6.575-117.494 13.152-176.24 19.728-1.267.142-1.657 1.565-.631 2.329a182.379 182.379 0 0 0 35.13 20.505c1.46.646 2.734-1.508 1.263-2.159" clip-path="url(#b)"/>
	  <path d="M159.953 72.714c4.418-18.446-1.91-36.625-9.302-53.411-3.013-6.841-6.307-14.944-13.657-18.131-3.521-1.526-12.738-2.439-13.88 3.025-.587 2.809 3.03 5.917 4.508 7.865l9.723 12.814c1.116 1.471 2.403 2.93 3.349 4.527.604 1.022 1.773 3.055 1.653 4.288-.489 5.007-4.194 4.178-6.861 3.762-5.378-.837-10.626-2.589-15.479-5.036-6.445-3.25-13.526-9.516-21.317-8.22-5.83.97-6.3 6.359-2.442 10.059 6.105 5.855 16.641 5.812 21.599 13.023 5.701 8.292-1.663 19.942-.977 29.123.119 1.594 2.62 1.607 2.5 0-.869-11.628 8.692-25.559-3.267-34.324-4.946-3.626-11.229-4.784-16.289-8.221l-1.8-1.37 2.17-5.92c.718-.421 3.648.461 4.372.663 1.959.546 3.818 1.493 5.604 2.446 3.648 1.946 7.063 4.264 10.839 5.977 5.145 2.335 13.28 5.83 19.075 4.522 4.393-.99 5.521-5.606 4.128-9.442-1.151-3.172-3.84-5.986-5.843-8.626L129.78 10.8l-1.717-2.262c-1.457-1.921-2.063-1.679-.679-3.991 1.603-2.676 4.421-2.436 7.29-1.587 4.621 1.369 7.749 5.45 9.983 9.49 9.578 17.317 17.633 39.768 12.884 59.599-.373 1.564 2.037 2.231 2.412.665" clip-path="url(#b)"/>
	  <path d="M134.604 51.19c1.607 0 1.61-2.5 0-2.5-1.608 0-1.611 2.5 0 2.5M147.1 49.628c1.607 0 1.61-2.5 0-2.5-1.609 0-1.612 2.5 0 2.5M134.05 66.489c4.669-.377 9.152-2.433 12.06-6.205 3.534-4.588-2.232-6.542-6.282-6.826-4.295-.301-3.39 4.224-1.999 6.827 2.213 4.139 6.375 6.935 10.992 7.577 1.573.218 2.252-2.19.664-2.411-2.67-.371-5.124-1.39-7.093-3.278-1.165-1.117-4.966-5.398-1.969-6.104.905-.213 4.175.915 4.172 2.09-.002.644-1.815 2.092-2.251 2.467-2.348 2.013-5.233 3.116-8.294 3.363-1.594.128-1.607 2.629 0 2.5M36.768 109.457a169.277 169.277 0 0 0-31.36 19.047c-1.26.966-.016 3.138 1.261 2.159a169.372 169.372 0 0 1 31.361-19.047c1.456-.681.188-2.837-1.262-2.159M50.907 122.905C32.435 130.442 15.46 140.872.408 153.968c-1.216 1.058.559 2.82 1.768 1.768a177.054 177.054 0 0 1 49.396-30.419c1.47-.6.826-3.019-.665-2.412M48.963 147.746c-11.785 3.252-22.388 9.187-31.337 17.515-1.181 1.099.59 2.863 1.768 1.769 8.647-8.049 18.846-13.73 30.234-16.872 1.55-.429.892-2.841-.665-2.412" clip-path="url(#b)"/>
	</symbol>

	<symbol viewBox="0 0 205 55" id="heart">
	  <path d="M6.311 35.625c-.718 2.786-1.94 3.121-3.666 1.003l.14-2.736c.978-3.323 4.324-4.61 7.443-4.764 4.163-.204 8.722 1.393 12.637 2.637 7.45 2.366 14.593 5.574 21.577 9.066 11.813 5.908 23.942 13.98 37.669 13.83 4.048-.045 8.671-.521 10.575-4.72 1.364-3.006.104-6.775-2.579-8.654-6.624-4.638-11.267 6.667-3.817 6.794 1.609.027 1.61-2.473 0-2.5 3.632-1.846 4.75-1.14 3.354 2.119.396 2.215-.48 3.553-2.63 4.014-1.725.614-4.747.494-6.658.411-3.714-.161-7.371-.997-10.893-2.151-6.91-2.266-13.252-5.897-19.684-9.226-11.149-5.767-23.528-12.171-36.118-13.874-4.307-.582-9.13-.106-11.895 3.643-1.793 2.429-2.726 6.65-.303 9.05 3.381 3.348 8.793-1.06 7.007-5.202-.636-1.474-2.789-.203-2.159 1.26" clip-path="url(#b)"/>
	  <path d="M51.714 41.684c-6.239-.377-11.262-1.652-16.647 2.252-1.749 1.27-7.033 5.866-4.794 8.51 1.125 1.33 4.246 1.076 5.746 1.173 2.547.16 5.186.236 7.695-.309 5.413-1.174 7.669-5.021 9.205-10.043.472-1.542-1.94-2.201-2.41-.665-1.259 4.114-2.936 7.344-7.46 8.298-1.865.394-8.996 1.166-9.953-.55-1.217-2.182 5.614-5.841 7.222-6.364 3.677-1.196 7.637-.028 11.396.198 1.606.099 1.602-2.401 0-2.5" clip-path="url(#b)"/>
	  <path d="M52.598 42.05c-6.811-6.225-7.704-15.822-1.824-23.041h-1.769c7.544 6.551 3.137 15.607 1.504 23.593-.321 1.57 2.088 2.242 2.41.665 1.83-8.945 6.19-18.787-2.145-26.025-.47-.408-1.319-.552-1.769 0-6.702 8.23-6.065 19.366 1.825 26.577 1.186 1.084 2.958-.68 1.768-1.769M124.407 46.355c2.347-.608 3.509-3.076 2.306-5.321-1.545-2.882-6.446-3.074-8.989-1.756-2.794 1.449-3.771 4.741-3.058 7.698 1.074 4.457 5.38 6.537 9.559 7.235 12.595 2.104 26.086-3.215 36.92-9.133 6.255-3.417 12.176-7.39 18.114-11.319 2.928-1.938 5.845-3.905 9.077-5.304 1.931-.835 3.793-1.456 5.899-1.647a9.307 9.307 0 0 1 4.473.242c5.768 3.189 5.444 4.941-.97 5.256.071-1.609-2.429-1.604-2.5 0-.331 7.486 10.286 6.581 10.199-.492-.121-9.744-13.337-7.922-18.962-5.277-11.275 5.299-20.786 13.875-32.136 19.214-6.766 3.182-14.034 5.518-21.515 6.143-3.128.261-6.572.373-9.635-.421-2.105-.545-6.11-2.352-6.114-5.161l2.423-5.076c2.168-.801 3.583.102 4.243 2.709-1.554.403-.896 2.815.666 2.41" clip-path="url(#b)"/>
	  <path d="M158.99 46.181c7.166-5.896 10.412-14.813 9.025-23.944-.11-.728-.937-.954-1.537-.873-10.485 1.419-10.798 16.462-9.578 24.265.248 1.585 2.657.912 2.411-.664-1.029-6.583-1.128-19.977 7.831-21.19l-1.537-.873c1.259 8.292-1.947 16.215-8.383 21.511-1.243 1.023.535 2.784 1.768 1.768" clip-path="url(#b)"/>
	  <path d="M158.438 46.502c7.925-2.098 16.082-.685 21.82 5.457v-1.768c-6.659 5.176-16.569-.618-21.269-5.778-1.086-1.192-2.85.58-1.768 1.769 5.812 6.382 16.987 11.854 24.804 5.777.546-.425.415-1.324 0-1.768-6.319-6.764-15.509-8.415-24.253-6.1-1.552.412-.893 2.825.666 2.411M103.955 18.359c6.15-12.23-13.601-21.334-21.989-12.951-11.158 11.151 11.57 26.758 19.994 30.383.553.236 1.054.206 1.517-.196 7.986-6.961 23.038-17.569 19.566-30.271-2.964-10.843-17.385-2.756-20.856 3.396-.792 1.403 1.368 2.664 2.159 1.262 1.951-3.458 6.774-7.875 11.253-7.33 7.263.883 5.626 8.576 3.274 13.275-1.794 3.584-4.554 6.589-7.44 9.321-1.889 1.787-5.849 6.617-8.363 7.393-2.81.867-6.385-2.33-8.6-3.936-3.804-2.757-7.676-6.273-10.287-10.22-12.741-19.254 24.967-16.01 17.614-1.389-.722 1.435 1.434 2.701 2.158 1.263" clip-path="url(#b)"/>
	</symbol>


	<symbol viewBox="0 0 30 30" id="phone-call">
	  <path d="M23.895 29.733c-1.237 0-2.731-.31-4.373-.929-3.603-1.359-7.521-4.043-11.035-7.557C4.973 17.733 2.289 13.814.93 10.21-.307 6.935-.31 4.247.92 3.017c.178-.178.359-.368.545-.563C2.588 1.274 3.887-.067 5.538.006c1.16.048 2.283.768 3.435 2.198 3.396 4.225 1.865 5.731.093 7.477l-.314.31c-.29.29-.839 1.632 4.26 6.73 1.666 1.665 3.084 2.883 4.217 3.62.715.464 1.991 1.164 2.514.641l.315-.318c1.744-1.77 3.25-3.296 7.474.099 1.431 1.15 2.15 2.273 2.198 3.434.069 1.682-1.271 2.954-2.453 4.076-.194.185-.384.364-.56.54-.614.613-1.59.92-2.822.92zM5.419 1.002c-1.194 0-2.274 1.136-3.229 2.14-.193.202-.38.399-.563.582-.916.915-.822 3.323.238 6.134 1.31 3.473 3.913 7.267 7.329 10.683s7.209 6.018 10.681 7.328c2.811 1.061 5.219 1.153 6.135.236.183-.182.378-.368.578-.558 1.028-.977 2.193-2.083 2.143-3.311-.035-.843-.649-1.75-1.826-2.695-3.52-2.828-4.503-1.828-6.135-.176l-.32.323c-.777.781-2.044.61-3.766-.51-1.19-.774-2.664-2.037-4.379-3.751-4.231-4.231-5.585-6.819-4.26-8.145l.319-.316c1.658-1.632 2.658-2.617-.171-6.137C7.247 1.654 6.34 1.04 5.497 1.004a2.083 2.083 0 0 0-.078-.002zM24.07 12.29a.5.5 0 0 1-.463-.687 4.198 4.198 0 0 0-.924-4.552 4.23 4.23 0 0 0-4.703-.858.5.5 0 0 1-.412-.91 5.223 5.223 0 0 1 5.822 1.062 5.194 5.194 0 0 1 1.143 5.634.502.502 0 0 1-.463.311z"/>
	  <path d="M28.534 14.102a.5.5 0 0 1-.463-.687 9.007 9.007 0 0 0-1.981-9.771 9.066 9.066 0 0 0-10.095-1.841.503.503 0 0 1-.662-.25.502.502 0 0 1 .25-.663C19.36-.816 23.866.005 26.797 2.936a10.001 10.001 0 0 1 2.2 10.854.5.5 0 0 1-.463.312z"/>
	</symbol>


</svg>