<svg xmlns="http://www.w3.org/2000/svg" viewBox="0 0 20.57 36.24"><title>celebration-star-2</title><path d="M5.57,13.57a.82.82,0,0,0-.14-.88L.7,7.35,7.36,8.8a.83.83,0,0,0,.93-.48L11.53.88,13,9a.83.83,0,0,0,.77.68l6.52.35-5.66,4.14a.82.82,0,0,0-.34.73l.56,7.14-4.66-4.9a.82.82,0,0,0-1-.16L2.56,20.44Z" transform="translate(-0.2 -0.38)" style="fill:none;stroke:#201600;stroke-linecap:round;stroke-linejoin:round"/><path d="M6.16,25.44,4.82,36c-.1.8,1.15.79,1.25,0L7.41,25.44c.1-.8-1.15-.79-1.25,0Z" transform="translate(-0.2 -0.38)" style="fill:#201600"/></svg>