<svg xmlns="http://www.w3.org/2000/svg" viewBox="0 0 37.38 38.87"><title>celebration-star-3</title><path d="M27.56.72C23.37,2.38,19.63,5,15.76,7.23S5.3,5.45,1.53,3.94c-.57-.23-.9.49-.71.92,1.42,3.22,2.79,6.45,4.47,9.54C7.12,17.76,1.95,23.86.15,26.57a.63.63,0,0,0,.71.92c4-1.31,8.16-2.22,12-3.88,1.06-.46,8.2,9,9.29,10.08a.63.63,0,0,0,1.07-.44c.27-3.25.43-6.5.66-9.75.21-3,10.69-3.36,13.09-4a.63.63,0,0,0,0-1.21c-3-1.28-6.1-2.49-9.09-3.87-2.67-1.23-.14-10.36.27-12.64C28.31,1,27.11.65,27,1.44l-1.62,9.18c-.14.77-.42,2.46.14,3.18C27.9,17,33.15,18,36.66,19.49V18.29a44.18,44.18,0,0,1-9.77,1.49c-.73,0-3-.28-3.55.61C21.46,23.61,22.29,29.6,22,33.25l1.07-.44a49,49,0,0,1-8.41-10.71.64.64,0,0,0-.86-.22C9.49,23.72,5,24.82.52,26.28l.71.92c2.38-3.59,5.09-7.34,5.92-11.63.18-1-1.19-2.56-1.58-3.29-1.4-2.58-2.48-5.36-3.66-8l-.71.92c2.52,1,5.05,2,7.59,3C10,8.58,12.23,10,13.58,9.57,18.7,7.9,22.86,3.92,27.9,1.92c.74-.29.42-1.5-.33-1.21Z" transform="translate(-0.06 -0.67)" style="fill:#201600"/><path d="M7.29,39.34a30.31,30.31,0,0,0,5.2-8.21c.31-.73-.76-1.37-1.08-.63a29.3,29.3,0,0,1-5,8c-.53.6.35,1.49.88.88Z" transform="translate(-0.06 -0.67)" style="fill:#201600"/></svg>