<svg xmlns="http://www.w3.org/2000/svg" viewBox="0 0 684.92 387.54"><title>celebration-paw-bear</title><path d="M597.54,277.67l33.06-4.8a8.64,8.64,0,0,0-2.48-17.1L607,258.83a183.31,183.31,0,0,0,6.47-19.56c10.41-8.5,18.36-21.87,23.13-37.12l1.14-.17,34.2-5a8.64,8.64,0,1,0-2.48-17.1L641,184.06a125.61,125.61,0,0,0-.08-36.66A138.78,138.78,0,0,0,629.67,110l29.64-4.3a8.64,8.64,0,0,0-2.48-17.1l-34.2,5-1.71.25c-9.31-12-20.09-22.11-31.83-26.81-.08-.57-.17-1.14-.74-1.06a146.68,146.68,0,0,0-12.42-17.4l22.23-3.23a8.86,8.86,0,0,0,7.31-9.79,8.86,8.86,0,0,0-9.79-7.31l-34.2,5-.57.08c-18.53-15.35-38.83-22.88-58.78-20L16,83.86A8.64,8.64,0,1,0,18.49,101L504.61,30.4c20.52-3,42.05,9,60.51,32l-3.42.5-65.55,9.52a8.64,8.64,0,1,0,2.48,17.1L564.19,80c24.51-3.56,50.07,24.16,57.81,61.45L486.33,161.11a8.64,8.64,0,0,0,2.48,17.1L625,158.43c2.61,38-14,71.88-38,75.35l-65.55,9.52A8.64,8.64,0,0,0,524,260.4L589,251l3.42-.5C581.9,278.19,564,295.34,543.5,298.32L57.38,368.88A8.64,8.64,0,0,0,59.86,386L546,315.42C566.5,312.44,584.31,298.8,597.54,277.67Z" transform="translate(-1.53 -5.61)"/><path d="M58.75,393.14A16,16,0,0,1,49.27,390a15.73,15.73,0,0,1,7.1-28.1L542.48,291.3c15.14-2.2,28.68-13.65,38.24-32L525,267.41a15.73,15.73,0,0,1-4.52-31.13l65.55-9.51c18.13-2.63,32-29.37,32.14-60.19L489.83,185.22a15.73,15.73,0,1,1-4.52-31.13l127.95-18.57c-3.94-13.89-10.57-26.24-19.06-35.31-9.26-9.9-19.55-14.61-29-13.23l-65.55,9.52a15.73,15.73,0,0,1-4.52-31.13l55.93-8.12c-14.93-15-30.76-22-45.44-19.83L19.51,108A15.73,15.73,0,0,1,15,76.85L501.11,6.29c20.49-3,41.81,3.78,61.84,19.54l31.71-4.6a15.94,15.94,0,0,1,17.82,13.3,15.94,15.94,0,0,1-13.3,17.82l-10.29,1.49c1.67,2.36,3.2,4.67,4.63,7a7.56,7.56,0,0,1,.68.69c10.09,4.64,20.07,12.94,29.73,24.73l31.89-4.63a15.73,15.73,0,0,1,4.52,31.13l-20.59,3a140.14,140.14,0,0,1,8.19,30.65A135.76,135.76,0,0,1,649,175.73l19.44-2.82A15.73,15.73,0,0,1,673,204l-31,4.5C636.82,222.88,629,235,619.71,243.28c-.66,2.27-1.34,4.56-2.05,6.84l9.44-1.37a15.73,15.73,0,1,1,4.52,31.13l-29.87,4.34c-14.55,21.93-33.42,35.12-54.75,38.21L60.88,393A14.8,14.8,0,0,1,58.75,393.14ZM603.33,241.72,599.05,253c-11.35,29.88-31.23,49-54.54,52.34L58.4,375.89a1.56,1.56,0,0,0,.45,3.08L545,308.41c18-2.61,34.07-14.54,46.57-34.5l1.74-2.78,36.31-5.27a1.55,1.55,0,0,0-.45-3.08l-33.48,4.86,4.83-11.55a176.54,176.54,0,0,0,6.2-18.79l.62-2.12,1.71-1.41c8.91-7.27,16.32-19.26,20.85-33.74l1.33-4.25L671,190a1.82,1.82,0,0,0,1.31-1.76,1.82,1.82,0,0,0-1.76-1.31l-37.93,5.5L634,183a119.13,119.13,0,0,0-.08-34.6,130.34,130.34,0,0,0-10.7-35.48l-3.85-8.57,38.94-5.65A1.82,1.82,0,0,0,659.6,97a1.82,1.82,0,0,0-1.76-1.31l-40,5.81-2.53-3.27c-9.68-12.51-19.39-20.78-28.86-24.57l-.36-.15-1.39.2-.6-1-1.43-.57-.39-2.48a138,138,0,0,0-11.83-16.56l-7.91-9.7,34.62-5a1.82,1.82,0,0,0,1.31-1.76,1.83,1.83,0,0,0-1.76-1.31l-37.89,5.5-2.42-2c-17.57-14.56-36-20.93-53.24-18.43L17,90.88a1.82,1.82,0,0,0-1.31,1.76A1.82,1.82,0,0,0,17.48,94L503.59,23.39c22.67-3.29,46.48,9,67.05,34.53l7.79,9.67-81.26,11.8a1.47,1.47,0,0,0-.65,2.71,1.63,1.63,0,0,0,1.1.36l65.55-9.52c28.21-4.09,57.12,25.34,65.77,67l1.53,7.37L487.35,168.12a1.82,1.82,0,0,0-1.31,1.76,1.84,1.84,0,0,0,1.76,1.31l143.8-20.87.52,7.63c2.91,42.45-16.42,78.85-44,82.85l-65.55,9.51a1.82,1.82,0,0,0-1.31,1.76,1.84,1.84,0,0,0,1.76,1.31Z" transform="translate(-1.53 -5.61)"/></svg>