<svg xmlns="http://www.w3.org/2000/svg" viewBox="0 0 39.08 26.11"><title>celebration-star-1</title><path d="M.53,11c1.76,1.92,3.3,4,4.88,6C6.54,18.51,3.49,24.43,2.9,26a.63.63,0,0,0,.92.71c2-1.45,4.06-2.85,6.21-4.12,3.23-1.91,7.42,2.66,9.95,4.12a.63.63,0,0,0,.86-.86c-1.45-2.72-2-6.52-4-8.95-1.3-1.6,6-8.42,7.28-9.92.32-.36.15-1.14-.44-1.07a57.86,57.86,0,0,0-6.57,1.2C13.41,8,14,4,13.25,1.13A.63.63,0,0,0,12.1,1L8.83,7.14c-1.21,2.28-5.71,2.51-7.91,3-.79.18-.45,1.38.33,1.21,2.57-.57,5.36-.82,7.65-2.19C10.79,8,12.17,3.52,13.18,1.61L12,1.47c.63,2.47,1,5,1.63,7.46a.62.62,0,0,0,.77.44A38.43,38.43,0,0,1,23.7,7.16l-.44-1.07c-2.72,3.08-5.59,6.16-8.16,9.34a.63.63,0,0,0-.16.61c1.42,3.47,3,7.1,4.82,10.43l.86-.86c-2.27-1.31-5.75-5.16-8.49-5.16-3,0-6.67,3.54-8.92,5.16l.92.71c.69-1.81,3.65-7.27,2.8-9.06-1.25-2.63-3.53-5-5.49-7.14C.87,9.53,0,10.42.53,11Z" transform="translate(-0.36 -0.68)" style="fill:#201600"/><path d="M26.47,18.27a63.11,63.11,0,0,1,12.23,3.26c.76.29,1.08-.92.33-1.21A63.11,63.11,0,0,0,26.8,17.06c-.79-.13-1.13,1.08-.33,1.21Z" transform="translate(-0.36 -0.68)" style="fill:#201600"/></svg>