<svg xmlns="http://www.w3.org/2000/svg" viewBox="0 0 558.35 489.16"><title>celebration-bear</title><path d="M270.18,61.49q14.74-4.76,29.72-8.81c15.55-4.19,69.86-1.72,81,1.33l5,1.37-.59-8.14a33.28,33.28,0,1,1,51.22,25.54l-6.87,4.42,6.47,5A165.5,165.5,0,0,1,499.41,234l-1,8.11,8-1.77a33.27,33.27,0,1,1-17.89,54.36l-5.37-6.15-2.52,4.5c-8.73,15.57-7.85,19.19-21.86,31.36-19.67,17.08-35.85,33.2-60.55,43.5L133,478.52l4.44,10.63L402.6,378.55a176,176,0,0,0,82.81-70.86,44.8,44.8,0,1,0,26.18-79.62,177,177,0,0,0-62.74-150.4,44.8,44.8,0,1,0-75-37.42c-64.1-15-125.09,14.88-183.58,39.18C126.73,105.85,64.7,135.92,0,159.5l4.45,10.66c1.49,3.56,179.47-75.93,195.88-82.68C223.3,78,246.54,69.12,270.18,61.49Z" fill="#231300"/><path d="M419.56,274.11l15.55-6.49a6.61,6.61,0,0,0,3.55-8.63l-24.33-58.33c-.87-2.09-4.88-3.24-9.16-3.4,0-.05,0-.1,0-.16l-2.88-6.91L398.43,181l-2.86-6.85c0-.07-.09-.11-.12-.18,2.9-3.15,4.91-6.82,4-8.91l-24.33-58.33a6.61,6.61,0,0,0-8.63-3.55L351,109.69A30.47,30.47,0,0,0,334.6,149.5L342,167.22a29,29,0,0,0,37.92,15.6l7.23-3,2.74,6.57,2.56,6.13,2.74,6.57-7.23,3A29,29,0,0,0,372.35,240l7.39,17.72A30.48,30.48,0,0,0,419.56,274.11ZM348.31,134.4a5.21,5.21,0,1,1,6-8.51l30.31,21.49a5.21,5.21,0,1,1-6,8.51ZM372,169.87l-20.74-14.7a3.57,3.57,0,1,1,4.13-5.82L376.09,164a3.57,3.57,0,1,1-4.13,5.82Zm15.2,55.27a5.21,5.21,0,1,1,6-8.51l30.31,21.49a5.21,5.21,0,1,1-6,8.51Zm1.68,19.24a3.57,3.57,0,0,1,5.36-4.29l20.74,14.7a3.57,3.57,0,1,1-4.13,5.82l-20.74-14.7A3.53,3.53,0,0,1,388.84,244.38Z" fill="#231300"/><path d="M334.51,273.06l-4.44-10.63a19,19,0,0,1-14.66-35.15l7.65-3.19,2.35,5.63a19,19,0,0,0,24.75,10.18l.9-.38a18.67,18.67,0,0,0,3.77-2.17,19,19,0,0,0,7.28-19.67,18.68,18.68,0,0,0-.88-2.91l-9.14-21.9a18.68,18.68,0,0,0-1.45-2.67,19,19,0,0,0-19.1-8.66,18.75,18.75,0,0,0-4.19,1.16l-.9.38a19,19,0,0,0-10.18,24.75l2.35,5.63L311,216.65a19,19,0,0,1-14.66-35.15l-4.44-10.63a30.5,30.5,0,0,0,5,57.92,30.5,30.5,0,0,0,37.68,44.28Z" fill="#231300"/><path d="M198.34,142.68a4,4,0,1,0-3.12-7.47l-28.54,11.9a4,4,0,1,0,3.12,7.47Z" fill="#231300"/><path d="M229.47,217.3a4,4,0,0,0-3.12-7.47l-28.54,11.9a4,4,0,1,0,3.12,7.47Z" fill="#231300"/><path d="M260.6,291.92a4.05,4.05,0,0,0-3.12-7.48l-28.54,11.9a4.05,4.05,0,1,0,3.12,7.48Z" fill="#231300"/><path d="M291.73,366.55a4.05,4.05,0,0,0-3.12-7.48L260.07,371a4.05,4.05,0,1,0,3.12,7.48Z" fill="#231300"/><path d="M140.49,201.84,112,213.75a4,4,0,1,0,3.12,7.47l28.54-11.91a4,4,0,1,0-3.12-7.47Z" fill="#231300"/><path d="M171.62,276.46l-28.54,11.91a4.05,4.05,0,0,0,3.12,7.48l28.54-11.91a4.05,4.05,0,0,0-3.12-7.48Z" fill="#231300"/><path d="M202.75,351.08,174.21,363a4.05,4.05,0,0,0,3.12,7.48l28.54-11.91a4.05,4.05,0,0,0-3.12-7.48Z" fill="#231300"/><path d="M74.36,190a4.05,4.05,0,0,0-5.3-2.18L40.53,199.74a4,4,0,1,0,3.12,7.47L72.19,195.3A4.05,4.05,0,0,0,74.36,190Z" fill="#231300"/><path d="M105.49,264.63a4.05,4.05,0,0,0-5.3-2.18L71.66,274.36a4,4,0,1,0,3.12,7.47l28.54-11.91A4.06,4.06,0,0,0,105.49,264.63Z" fill="#231300"/><path d="M136.62,339.25a4.05,4.05,0,0,0-5.3-2.18L102.78,349a4.05,4.05,0,0,0,3.12,7.48l28.54-11.91A4.06,4.06,0,0,0,136.62,339.25Z" fill="#231300"/><path d="M167.75,413.87a4.05,4.05,0,0,0-5.3-2.18L133.91,423.6a4.05,4.05,0,0,0,3.12,7.48l28.54-11.91A4.06,4.06,0,0,0,167.75,413.87Z" fill="#231300"/></svg>