<?xml version="1.0" encoding="utf-8"?>
<!-- Generator: Adobe Illustrator 19.0.1, SVG Export Plug-In . SVG Version: 6.00 Build 0)  -->
<svg version="1.1" id="Слой_1" xmlns="http://www.w3.org/2000/svg" xmlns:xlink="http://www.w3.org/1999/xlink" x="0px" y="0px"
	 viewBox="0 0 128.2 106.6" style="enable-background:new 0 0 128.2 106.6;" xml:space="preserve">
<style type="text/css">
	.st0{fill:#000002;}
</style>
<g>
	<path class="st0" d="M127.6,19.2c-1.5-5.9-6.9-8.8-12.2-11.1c-7.1-3.1-14.7-4.8-22.3-6C85.4,0.9,77.7,0.2,69.9,0
		C62.2-0.1,54.4,0.6,47.1,3c-3.2,1-6.5,2.4-9.1,4.5c-4.2,3.5-4.1,9.7-4.6,14.7c-3.6-4.5-8.6-7.5-14.3-8.7c-3.2-0.6-6.7-0.7-9.8,0.3
		c-3.2,1.1-5.1,4-6.5,6.9c-6.4,12.9-1.7,28.7,10.2,36.4c2.7,1.8,5.7,3,8.5,4.5c2.8,1.4,5.5,3,8.1,4.8c3.7,2.5,7.2,5.4,10.3,8.7
		c4.3,4.4,8.4,8.9,11.6,14.2c1,1.7,1.9,3.6,2.3,5.6c0.4,2.1,1.1,3.6,2.9,4.9c2,1.4,4.3,2.2,6.7,2.8c4.4,1.2,8.9,2.2,13.5,3
		c4.5,0.8,9,1.2,13.6,0.9c2.3-0.1,4.6-0.4,6.8-0.9c1.6-0.3,3.4-0.6,4.9-1.3c2.5-1,1.8-3,2.4-5.1c0.5-1.9,1.2-3.7,1.9-5.5
		c1.5-3.5,3.5-6.9,5.4-10.2c3.6-6.4,6.7-13.1,9-20.1c2.7-8.1,4.5-16.5,5.7-25c0.9-6.3,2.5-12.7,1.1-19.1
		C127.6,19.4,127.6,19.3,127.6,19.2z M41.6,6.6c3.5-1.8,7.4-3,11.2-3.8c7.8-1.7,15.8-1.7,23.7-1.2c7.9,0.5,15.9,1.4,23.6,3.1
		c7.4,1.6,15.2,3.9,21.5,8.1c2.4,1.7,4.7,4.1,4.8,7.1c-1.1,3-3.7,5-6.4,6.5c-3.4,1.8-7.2,3.1-10.9,4c-7.7,2-15.9,2.3-23.8,1.8
		c-8.6-0.6-17-2.2-25.4-4c-7.3-1.6-16.2-2.5-21.5-8.4c-1.1-1.2-1.9-2.7-2.4-4.2C34.9,11.6,38.3,8.3,41.6,6.6z M34.8,59
		c0.5,2,1.1,3.9,1.8,5.9C31.8,61,25.9,59,20.4,56.1c-6.1-3.2-11.9-8.1-12.4-15.4c-0.3-3.8,0.8-7.5,1.8-11.1c0.9-3.1,2.2-6.5,5.7-7.3
		c3.4-0.8,7.4,1.5,10.1,3.4c2.8,1.9,5.2,4.5,6.9,7.4C32.3,41.8,32.7,50.5,34.8,59z M28.2,63.8c-6.4-4.1-14-6.3-19.4-11.9
		C3.6,46.6,1,39.3,1.3,32c0.2-4,1.3-7.9,3.1-11.4c0.8-1.5,1.8-3,3.1-4.1c1.6-1.5,3.8-1.9,5.9-2c7.7-0.5,15.4,3.5,19.8,9.7
		c-0.2,2.2-0.4,4.5-0.5,6.7C29.3,26,24,21.9,18.2,21c-7.5-1.2-9.5,7.3-10.8,12.9c-0.8,3.7-1,7.5,0.2,11.1c1,3,3,5.6,5.3,7.7
		c5.3,4.7,12.2,6.8,18.3,10.2c2.1,1.2,4.1,2.5,5.9,4.2c0.1,0.1,0.3,0.2,0.4,0.2c1,2.3,2.1,4.6,3.3,6.8C37,70.1,32.8,66.7,28.2,63.8z
		 M119.3,64c-2.4,7-5.6,13.6-9.2,20.1c-1.8,3.2-3.4,6.4-4.7,9.8c-0.7,1.7-1.3,3.4-1.8,5.2c-0.3,1-0.3,2.2-0.9,3.1
		c-0.7,1.2-2.6,1.4-3.9,1.7c-1.7,0.4-3.3,0.7-5,1c-3.4,0.5-6.8,0.5-10.2,0.3c-1.8-0.1-3.6-0.6-5.4-0.6c-4.2-0.6-8.4-1.6-12.6-2.7
		c-3.3-0.9-9.1-1.6-10.2-5.6c-0.8-2.8-1.4-5.3-2.9-7.9c-1.5-2.6-3.4-4.9-5.3-7.2c-0.3-0.3-0.5-0.7-0.8-1c-4.6-6-8-12.8-10.1-20.1
		c-3.2-11.5-3.1-23.6-2-35.4c0.2-0.2,0.3-0.5,0.1-0.8c0,0,0,0,0-0.1c0.2-2.1,0.4-4.3,0.7-6.4c2.1,4.7,7.1,7.7,12,9.3
		c3.8,1.2,7.9,2,11.8,2.8c4.1,0.9,8.3,1.8,12.5,2.5c15.5,2.7,31.8,3.2,46.5-3.1c3.5-1.5,7.1-3.6,9-7C126,36.1,123.9,50.4,119.3,64z"
		/>
	<path class="st0" d="M119.7,41.4c-0.9,0.4-1.7,1.1-2.5,1.6c-0.9,0.7-1.8,1.3-2.7,2c-2.6,0.6-5.2,1-7.9,1.3c2.2-1.3,4.1-3.2,3.9-6
		c0-0.4-0.3-0.6-0.7-0.7c-1.7-0.1-2.8,1.5-3.8,2.7c-1.1,1.3-2.1,2.8-2.9,4.3c-1.8,0.1-3.7,0.2-5.5,0.1c2.2-1.2,4.4-3.2,4-5.5
		c-0.3-1.4-2.4-0.1-2.9,0.3c-1.8,1.4-3.2,3.4-4.6,5.1c-3.1-0.1-6.2-0.5-9.2-0.9c0.9-0.4,1.8-0.9,2.7-1.4c1-0.6,2.6-1.6,2-3
		c-1-2.5-6.4,2.5-7.9,3.8c-2.4-0.4-4.7-0.9-7.1-1.5c-0.4-0.1-0.9-0.2-1.3-0.3c0.8-0.2,1.6-0.5,2.5-0.9c1.5-0.7,3.2-1.8,3.5-3.5
		c0.1-0.3,0-0.6-0.3-0.7c-1.5-0.7-3.1,0.3-4.4,0.9c-1.6,0.9-3.1,2.1-4.4,3.4c-2.5-0.7-5-1.5-7.5-2.3c1.2-0.3,2.3-0.6,3.4-1.1
		c1.2-0.6,3.1-1.7,2.4-3.2c-0.1-0.2-0.4-0.3-0.6-0.3c-3.1-0.1-5.6,1.6-8,3.4c-0.1,0.1-0.2,0.2-0.2,0.2c-1.5-0.6-3.1-1.1-4.6-1.7
		c-2.2-0.9-4.5-1.8-6.7-2.9c0.7-0.2,1.3-0.4,2-0.8c1.1-0.5,2.3-1.3,2.1-2.7c-0.2-1.2-2.1-0.7-2.9-0.6c-1.5,0.4-2.9,1.3-4.2,2.3
		c-1.3-0.8-2.5-1.7-3.5-2.7c0.9-0.2,1.9-0.3,2.8-0.6c0.9-0.2,1.9-0.6,1.6-1.7c-0.3-1.1-2-1.1-2.8-1.2c-1.3-0.2-3.4-0.2-4.6,0.4
		c-0.1,0-0.2,0.1-0.3,0.2c-0.1,0.1-0.2,0.3-0.3,0.4c0,0.1-0.1,0.2-0.1,0.3c0,0.1,0,0.1,0,0.2c-0.1,0.8,0,1.7,0,2.4l-0.1,5.6
		c0,0.8,0.1,2.4,1.2,2.6c1,0.2,1.6-0.3,1.8-1.3c0.5-2.2,0.1-4.6-0.6-6.8c1.2,1.2,2.6,2.2,4,3.1c0,0.1,0,0.3,0.1,0.4
		c0,0.1,0,0.1,0.1,0.2c-0.6,2.6-1.8,10.4,1.3,9.6c1.5-0.4,1.4-3.1,1.3-4.2c-0.1-1.6-0.4-3.3-1-4.8c0,0,0,0,0.1,0
		c1.8,1.5,3.5,3.1,5,4.9c-0.2,2.2-1.1,4.1-1.7,6.2c-0.3,1-1.3,4.2,0.3,4.7c1.5,0.4,2.4-1.5,2.6-2.7c0.4-2.1,0.2-4.4,0.1-6.5
		c1.7,2.3,3.1,4.7,4.2,7.3c-0.9,2.1-2.2,3.9-3.4,5.8c-0.5,0.9-1.8,3.3-0.3,3.9c1.7,0.7,2.6-1.1,3.2-2.4c0.7-1.6,1.2-3.2,1.4-4.9
		c0,0,0.1,0.1,0.1,0.1c0.1,0.3,0.2,0.7,0.3,1c0.6,1.9,1,3.8,1.3,5.7c-1.5,2.3-3.8,4-5.3,6.4c-0.2,0.3-0.1,0.6,0.1,0.8
		c0.1,0.1,0.1,0.2,0.2,0.3c0.1,0.2,0.4,0.3,0.6,0.3c2.7-0.3,4-2.3,4.8-4.6c0.2,1.6,0.3,3.1,0.3,4.7c-1.6,1-3.2,2-4.7,3.2
		c-0.7,0.6-2.2,2.5-1,3.2c1.2,0.7,2.7-0.4,3.7-1.1c0.8-0.6,1.5-1.5,2.1-2.4c0,2.2,0,4.5-0.1,6.7c-0.1,0.1-0.2,0.3-0.2,0.6
		c-1,1.7-4.2,8.3-0.6,8.8c3.5,0.5,2.6-5.5,2.1-8.2c0-0.1,0-0.1,0-0.2c0-2.3,0.1-4.5,0.1-6.8c0.9,1.6,2,3,3.5,4.1
		c0.2,0.1,0.5,0.1,0.7,0c1.6-1,0.5-2.7-0.4-3.8c-0.6-0.8-1.2-1.5-2-2.1c-0.5-0.5-1.1-1.1-1.8-1.6c0-0.2,0-0.4-0.2-0.6
		c0-1.1-0.1-2.3-0.2-3.4c1.4,1.4,3.2,2.4,4.9,2.4c0.4,0,0.7-0.4,0.6-0.8c-0.7-3.1-4-3.8-5.9-5.9c0-0.2-0.1-0.4-0.2-0.5
		c-0.2-1.3-0.5-2.5-0.8-3.8c0.4,0.3,0.8,0.6,1.2,0.9c1.1,0.8,3.1,2.2,4.5,1.3c1.5-0.9-0.6-3.1-1.3-3.7c-1.7-1.4-3.9-2.4-5.9-3.5
		c0-0.1-0.1-0.1-0.1-0.2c0-0.1,0-0.1-0.1-0.2c-0.3-0.7-0.6-1.5-1-2.2c1.2,0.6,2.5,0.9,3.4-0.2c0.2-0.2,0.3-0.5,0.1-0.8
		c-0.7-1.3-1.7-2.4-2.9-3.2c-1.3-0.9-3.2-0.8-4.3-2.1c-0.1-0.1-0.3-0.2-0.4-0.2c-0.1-0.1-0.2-0.3-0.3-0.4c0-0.2-0.2-0.3-0.3-0.4
		c-0.6-0.7-1.2-1.3-1.8-2c0.8,0.4,1.6,0.7,2.5,1c2.3,1,4.7,1.8,7.1,2.7c0.5,1.4,1.1,2.7,2,3.9c0.6,0.8,2.1,3.1,3.3,2.8
		c2.5-0.5,0.6-3.3-1.3-5.4c1.9,0.6,3.9,1.2,5.8,1.7c0.1,1.2,0.3,2.5,0.8,3.6c0.4,1,1.4,2.9,2.8,2.5c2.8-0.7,0.6-3.6-0.9-5.4
		c0.3,0.1,0.7,0.2,1,0.3c2.6,0.6,5.2,1.2,7.8,1.7c0.5,2.4,2,4.4,4.2,5.6c0.3,0.2,0.6,0.1,0.8-0.1c1.5-1.3-0.1-3.5-1.7-5
		c3.1,0.4,6.2,0.7,9.3,0.9c0.5,0.6,0.7,1.4,1,2c0.4,0.7,1,1.3,1.6,1.9c1.2,1.1,2.7,1.6,4.3,1.8c0.4,0,0.6-0.3,0.7-0.7
		c0.1-1.7-0.9-2.8-2.2-3.8c-0.5-0.4-1.1-0.8-1.7-1.1c1.6,0,3.3,0,4.9-0.1c0.5,1.1,1.9,2.3,2.5,2.6c1,0.7,4.3,2.2,4.7,0.1
		c0.2-1-0.9-1.6-1.6-2.1c-0.5-0.3-1-0.6-1.5-0.9c2.5-0.3,5-0.7,7.4-1.2c0.1,0.1,0.2,0.1,0.3,0.1c1.8,0,3.5-0.3,5.1-1.1
		c1.3-0.6,2.8-1.5,2.7-3C122.5,41,120.6,41,119.7,41.4z M39.7,37.2c-0.3-0.8,0-2.1,0-2.9l0-2c0.2,1.1,0.4,2.1,0.4,3.2
		C40.2,35.8,40,38.2,39.7,37.2z M40.2,28.2c0.5-0.1,1.1-0.2,1.6-0.2c1-0.1,2.1,0,3.1,0.2c0.3,0,0.2,0.1-0.3,0.1
		c-0.5,0.1-0.9,0.2-1.4,0.3c-0.7,0.2-1.5,0.3-2.2,0.4C40.7,28.8,40.4,28.5,40.2,28.2z M46,42.2c-0.4,0.4-0.5,0.3-0.4-0.3
		c0-0.3,0-0.6,0-1c0-0.8,0-1.6,0-2.4c0-0.5,0-1,0.1-1.5c0.1,0.2,0.1,0.5,0.1,0.7C46.1,39.3,46.4,40.8,46,42.2z M50.6,31.8
		c1.7-0.4-0.6,0.9-1,1.1c-0.8,0.4-1.8,0.6-2.7,0.7C48,32.9,49.2,32.2,50.6,31.8z M55.8,54.3c-0.2,0.7-0.5,1.4-0.8,2
		c-0.1,0.3-0.3,0.6-0.5,0.8c-0.1,0-0.3-0.1-0.4-0.1c0.1-0.3,0.2-0.7,0.4-1c0.4-1,1.1-1.9,1.7-2.8C56,53.7,55.9,54,55.8,54.3z
		 M55.9,64.4c0.8-1.1,1.8-2.1,2.8-3.2C58.2,62.7,57.4,64,55.9,64.4z M55.8,71.3c-0.1,0,0.7-1.1,0.9-1.2c0.5-0.5,1.1-0.8,1.7-1.2
		c0.4-0.2,0.7-0.5,1.1-0.7C58.4,69.6,57.3,70.8,55.8,71.3z M65.4,72.4c-1-0.9-1.8-2-2.5-3.2C64,70.3,65.2,71.6,65.4,72.4z
		 M65.3,63.4c-1.6-0.4-3.3-1.9-4.1-3.4c0,0,0,0,0,0C62.7,61,64.5,61.8,65.3,63.4z M60.8,79.9c0.1,1,0.4,3.3-0.8,3.8
		c-1.1,0.4-0.2-3.1-0.1-3.4c0.2-0.7,0.5-1.4,0.8-2.1C60.7,78.8,60.8,79.3,60.8,79.9z M61.9,52.3c0.7,0.4,1.3,0.8,1.9,1.2
		c0.4,0.3,1.6,1.8,0.3,1.3c-1.3-0.6-2.5-1.4-3.6-2.4c-0.5-0.4-0.9-1-1.2-1.6c0,0,0,0,0-0.1C60.1,51.3,61,51.8,61.9,52.3z M56,42.6
		c1.5,0.5,2.6,1.5,3.4,2.8c-0.9,0.3-2.4-0.8-3.1-1.1c-0.4-0.7-0.8-1.3-1.2-2C55.3,42.4,55.7,42.5,56,42.6z M51.7,45.7
		c0,0.8-0.1,1.6-0.2,2.4c-0.1,0.5-0.3,1-0.8,1.4c-0.1,0.1,0-1.4,0-1.3c0.2-1.2,0.6-2.4,1-3.5C51.7,45,51.7,45.3,51.7,45.7z
		 M67.4,36.9c-0.6,0.6-2.9,1.5-3.2,1.6c-0.6,0.2-1.3,0.4-2,0.5C63.8,38,65.5,37.1,67.4,36.9z M65,44.9c0.2,0.3,0.3,0.5,0.4,0.9
		c-0.3,0.1-0.6,0-0.7-0.3c-1.1-1.1-1.9-2.4-2.6-3.8c0.5,0.5,1,1.1,1.5,1.6C64.1,43.9,64.6,44.4,65,44.9z M73.4,47.5
		c0.2,0.2,0.8,1.9-0.3,1c-0.8-0.7-1.2-1.9-1.4-3.1c0.2,0.3,0.5,0.6,0.7,0.9C72.7,46.6,73,47.1,73.4,47.5z M72.5,42.3
		c0.5-0.5,1.1-0.9,1.7-1.3c0.7-0.5,2.5-1.7,3.6-1.7c-0.5,1-1.7,1.6-2.7,2.1C74.3,41.8,73.4,42.1,72.5,42.3z M85.9,50.6
		c-1.2-0.8-2.1-1.9-2.6-3.3C84.3,48.3,85.8,49.8,85.9,50.6z M85,44.2c0.8-0.6,2.1-2.1,3.3-2.1c-0.3,0.7-2.2,1.5-2.6,1.8
		C85.4,44,85.2,44.2,85,44.2C84.9,44.3,85,44.3,85,44.2z M100.2,42.1c0.2-0.1-0.8,1.5-0.8,1.6c-0.4,0.5-1,0.9-1.5,1.3
		c-0.5,0.3-1,0.6-1.5,0.9C97.4,44.5,98.7,43,100.2,42.1z M98.2,49.8c0.9,0.6,1.9,1.3,2.2,2.4c-1.2-0.3-2.3-0.9-3.2-1.8
		c-0.6-0.6-0.9-1.3-1.2-2c0.3,0.2,0.6,0.4,0.6,0.4C97.2,49.1,97.7,49.4,98.2,49.8z M106.2,44.2c0.6-0.8,1.7-2.6,2.9-3.1
		c-0.2,2.2-2,3.5-3.9,4.5C105.6,45.1,105.9,44.6,106.2,44.2z M107,49.2c0.4,0.2,0.7,0.5,1.1,0.7c1,0.7-0.3,0.3-0.5,0.3
		c-0.9-0.2-1.7-0.8-2.4-1.4c-0.3-0.2-0.5-0.5-0.8-0.8C105.3,48.3,106.2,48.7,107,49.2z M119.9,43.9c-0.6,0.4-1.2,0.6-1.9,0.8
		c-0.5,0.2-1,0.3-1.5,0.4c1.2-1,2.5-2,3.9-2.6c0.1,0.2,0.3,0.5,0.4,0.7C120.5,43.5,120.2,43.7,119.9,43.9z"/>
	<path class="st0" d="M116.4,62.5c-1.4-1-3-1.5-4.8-1.6c-1.6-0.4-3.2-0.8-4.7-1.4c0.9,0,1.8,0.1,2.7-0.2c1.2-0.3,2.9-1,2.6-2.5
		c-0.3-1.3-2.4-1.2-3.4-1.1c-2,0.3-4,1.2-5.7,2.2c-0.6,0-0.8,1-0.2,1.3c0.4,0.7,0.8,1.3,1.3,1.8c0.2,0.6,0.3,1.3,0.4,1.8
		c0.3,1.2,0.7,2.3,1.3,3.4c0.7,1.2,2.5,3.4,3.9,2.1c1.2-1-1.1-3.9-1.7-4.7c-0.9-1.1-1.9-2.2-2.8-3.3c0,0,0,0,0,0
		c1.8,0.6,3.6,1.2,5.4,1.6c0.1,0.1,0.2,0.2,0.4,0.2c0.1,0,0.2,0,0.3,0c0.1,0,0.1,0,0.2,0c0.7,1.7,3.6,2.8,4.9,1.3
		C116.9,63.2,116.8,62.7,116.4,62.5z M108.8,57.1c0.4-0.1,0.7-0.1,1.1-0.1c0.5-0.1,0.7,0,0.8,0.4c-1.2,0.7-2.4,0.9-3.8,0.8
		c-0.4,0-0.8,0-1.2,0c0.4-0.2,0.9-0.4,1.3-0.5C107.6,57.4,108.2,57.3,108.8,57.1z M108.8,67.4c-0.1-0.3-0.7-0.5-0.9-0.8
		c-0.4-0.4-0.7-0.9-1-1.4c-0.3-0.6-0.6-1.3-0.8-2C107.3,64.5,108.3,65.8,108.8,67.4z"/>
	<path class="st0" d="M49.5,57.2c-0.8-2.2-1.8-4.2-3.2-6.1c0-0.3-0.2-0.6-0.5-0.7c-0.3-0.2-0.7-0.1-0.9,0.1
		c-0.1,0.1-0.2,0.2-0.2,0.3c-1.5,0.8-3,1.6-4.4,2.5c-0.9,0.6-1.2,1.7-0.3,2.4c0.9,0.8,2.5,0.1,3.3-0.5c0.5-0.4,1-0.9,1.3-1.5
		c-0.3,2.6-0.8,5.2-1.6,7.7c-0.3,0.1-0.5,0.3-0.5,0.6c-1.5,1.5-1.7,6,1,6.3c1.4,0.2,2-1,2.1-2.2c0.1-1.3-0.6-2.8-1.4-3.9
		c0.7-2.1,1.2-4.3,1.5-6.5c0.8,1.8,2,3.3,3.5,2.1C49.4,57.8,49.6,57.5,49.5,57.2z M43,53.7c-0.2,0.3-0.5,0.5-0.8,0.7l-0.5,0.3
		c-0.6,0.3-0.8,0.2-0.5-0.4c0.7-0.5,1.5-0.9,2.3-1.3C43.4,53.1,43.2,53.4,43,53.7z M44.2,66.6c-0.2,1-1.1,0.1-1.3-0.4
		c-0.1-0.4-0.1-0.8-0.1-1.2c0-0.6,0.1-1.2,0.4-1.7c0,0,0,0,0,0C43.8,64.3,44.4,65.4,44.2,66.6z M46.1,53.2c0.7,1.1,1.3,2.3,1.8,3.6
		C47.3,56.4,46.6,54.6,46.1,53.2z"/>
</g>
</svg>
