<?xml version="1.0" encoding="utf-8"?>
<!-- Generator: Adobe Illustrator 19.0.1, SVG Export Plug-In . SVG Version: 6.00 Build 0)  -->
<svg version="1.1" id="Слой_1" xmlns="http://www.w3.org/2000/svg" xmlns:xlink="http://www.w3.org/1999/xlink" x="0px" y="0px"
	 viewBox="0 0 110.7 53.1" style="enable-background:new 0 0 110.7 53.1;" xml:space="preserve">
<style type="text/css">
	.st0{fill:#201600;}
</style>
<g>
	<path class="st0" d="M10,32.4l-1.6,5.4l4.4,15l-1.2,0.4L0,13.9l1.2-0.4l6.6,22.1l8-26.4l1.3-0.4l-6.7,22.1l19.3,16.8l-1.3,0.4
		L10,32.4z"/>
	<path class="st0" d="M36.1,36.4l-0.6,9.9l-1.2,0.2l2.4-42l1.8-0.3l17.3,38.5l-1.3,0.2l-4.1-9.1L36.1,36.4z M36.1,35.2L50,32.7
		L37.8,5.8L36.1,35.2z"/>
	<path class="st0" d="M76.3,4.8c3.4-0.2,5.8,0.6,7.4,2.4c1.5,1.8,2.4,4.2,2.6,7.4l0.6,11.1c0.2,3.2-0.4,5.8-1.8,7.7
		c-1.3,1.9-3.7,2.9-7.1,3.1l-3.7,0.2l0.2,4.4l-1.2,0.1l-0.2-4.4L69.5,37c-1.7,0.1-3.2-0.1-4.4-0.5c-1.2-0.4-2.2-1-3-1.9
		c-0.8-0.9-1.4-1.9-1.8-3.2c-0.4-1.3-0.6-2.7-0.7-4.3L59,16.1c-0.1-1.6,0-3,0.3-4.3c0.3-1.3,0.7-2.4,1.4-3.4
		c0.7-0.9,1.6-1.7,2.8-2.2c1.2-0.5,2.6-0.8,4.3-0.9l3.7-0.2l-0.3-4.7l1.2-0.1L72.7,5L76.3,4.8z M67.8,6.4c-1.5,0.1-2.7,0.4-3.7,0.8
		c-1,0.5-1.8,1.1-2.4,1.9c-0.6,0.8-1,1.8-1.2,3c-0.2,1.1-0.3,2.4-0.2,3.8l0.6,11.3c0.1,1.4,0.3,2.7,0.6,3.8c0.3,1.1,0.8,2,1.5,2.8
		s1.6,1.3,2.6,1.7c1.1,0.4,2.3,0.5,3.8,0.4l3.7-0.2L71.5,6.2L67.8,6.4z M78,35.4c3-0.2,5-1.1,6.1-2.8c1.1-1.7,1.6-3.9,1.5-6.8
		L85,14.6c-0.2-2.8-0.9-5-2.2-6.6c-1.3-1.5-3.4-2.2-6.4-2.1l-3.7,0.2l1.6,29.4L78,35.4z"/>
	<path class="st0" d="M107.2,20.3l-0.1,1.2l-12-0.7L94,39.7l14.3,0.9l-0.1,1.2l-15.6-1L95.1,0l15.6,1l-0.1,1.2L96.3,1.3l-1.1,18.3
		L107.2,20.3z"/>
</g>
</svg>
