<?xml version="1.0" encoding="utf-8"?>
<!-- Generator: Adobe Illustrator 19.0.1, SVG Export Plug-In . SVG Version: 6.00 Build 0)  -->
<svg version="1.1" id="Слой_1" xmlns="http://www.w3.org/2000/svg" xmlns:xlink="http://www.w3.org/1999/xlink" x="0px" y="0px"
	 viewBox="0 0 72.8 115.6" style="enable-background:new 0 0 72.8 115.6;" xml:space="preserve">
<style type="text/css">
	.st0{fill:#000002;}
</style>
<g>
	<path class="st0" d="M11.5,69c-0.8,2.7,3.2,5.4,5.4,6.1c3.3,1.1,6.9,0.5,10.3,1c0.1,0,0.2,0,0.3,0c0,0.1,0.1,0.2,0.1,0.3
		c1.9,3.8,4,7.5,6.3,11c-1.9-0.7-3.8-1.7-5.9-1.8c-1.7-0.1-4.9,0.3-5.7,2.1c-1,2.2,2,3.6,3.6,4c1.6,0.4,3.3,0.4,4.9,0.2
		c1.8-0.2,3.4-1.2,5.2-1.5c2.2,3,4.6,5.8,7.3,8.4c-0.7-0.1-1.3-0.2-1.9-0.3C39,98,33.8,96.8,32,99.2c-2.2,2.9,2.5,5,4.7,5.3
		c3.8,0.5,8-0.3,11.6-1.5c0.2,0.1,0.4,0.3,0.6,0.4c0.1,0.1,0.2,0.1,0.2,0.2c2.4,1.8,5,3.4,7.6,5c-1.2-0.1-2.3,0-3.5,0.2
		c-1.5,0.2-4.5,0.7-4.2,2.9c0.4,2.8,4.5,2.9,6.6,2.5c2.5-0.5,4.9-1.6,7.5-2.1c0.1,0,0.2,0,0.3,0c0.1,0.1,0.2,0.1,0.4,0.2
		c0.1,0.1,0.3,0.2,0.5,0.2c2.3,1.1,4.7,2.1,7.1,3c1.2,0.5,2.3-1.4,1-1.9c-2.2-0.9-4.4-1.8-6.6-2.8c0.2-4,0.8-8.3-0.7-12.1
		c-0.7-1.6-2-3.9-4.1-3c-4.3,1.9-1.1,8.9,0.8,13.1c-3.6-1.9-7.1-4-10.4-6.3c1.5-1.5,1.8-4.3,2-6.1c0.2-2.1,0.6-6.1-1.1-7.8
		c-2.1-2.1-3.9,1.2-4.3,3c-0.5,2.5-0.6,5.5-0.2,8.2c-0.4-0.4-0.9-0.7-1.3-1.1c-2.7-2.4-5.2-5-7.4-7.9c2.2-1.4,3.1-4.7,3.9-7
		c0.6-1.7,1.8-4.9,0.5-6.6c-1.7-2.3-4.5,0.7-5.1,2.3c-0.6,1.6-0.8,3.3-1.1,5c-0.2,0.9-0.1,2.5-0.3,3.6c-3.1-4.3-5.7-8.9-8-13.7
		c2.6-2.3,5.6-4.2,7.6-7.1c1.3-1.8,2.8-5.4,0.5-7.2c-2.1-1.7-4.6,1.4-5.6,2.9c-1.9,2.6-2,6.2-3.8,8.8c-2.3-4.8-4.5-9.8-6.7-14.7
		c2.5-1,4.9-2.7,6.5-4.6c1.1-1.3,2.7-4.7,0.4-5.8c-1.9-0.9-4,1.7-5.1,2.9c-1.2,1.3-2.2,2.7-3.3,4.1c-1.3-3-2.5-6.1-3.7-9.1
		c-0.5-1.4-1.1-2.9-1.5-4.3c3-1.5,9-5.2,7-8.3c-1.5-2.1-4.1-1-5.4,0.6c-1.1,1.4-1.7,3.1-2.5,4.7c-1.3-4.3-2.2-8.7-2.9-13.1
		c1.8-1,3.7-1.9,5.2-3.3c1.2-1.1,2.4-3.3,0.8-4.7c-2.1-1.7-4.9,1.6-6.6,4.1c-0.3-2.2-0.5-4.4-0.6-6.7c0,0,0.1-0.1,0.1-0.1
		c2-2.9,2.6-6.4,2.2-9.9c-0.2-2-1.1-4.2-3.5-3.4C3.4,1.6,5.2,9.8,7,12.9c0.1,0.1,0.1,0.2,0.2,0.3c0.1,2.3,0.3,4.5,0.6,6.7
		c-0.2-0.1-0.3-0.3-0.5-0.4c-0.9-0.8-1.9-1.6-3-2.1c-1.8-1-4.1-0.8-4.4,1.7c-0.5,4.4,5.2,5,8.2,5.9c0.1,0,0.2,0,0.3,0
		c0.6,3.6,1.3,7.3,2.3,10.8c-3.1-2.8-7.3-5.4-9.4-2.6c-3.8,5.2,8,7.7,11.2,8.6c0.4,1.2,0.8,2.4,1.3,3.5c1.1,2.8,2.2,5.5,3.3,8.3
		c-2-1-4.1-1.7-6.6-1.8c-2-0.1-5.2,0.3-4.9,3c0.3,2.6,3.8,3.3,5.8,3.7c1.1,0.2,2.3,0.4,3.4,0.3c0.9-0.1,3.2-1.2,3.9-0.8
		c0.1,0.1,0.2,0.1,0.3,0.1c1.9,4.5,4,9.1,6.1,13.5C20.7,69.2,12.7,65,11.5,69z M17.4,56.1c-0.7,0.2-1.3,0.4-1.9,0.5
		c-1.7,0.3-3.6-0.1-5.2-0.6c-0.6-0.2-3.1-0.9-2.1-2.1c0.6-0.6,2.8-0.1,3.5-0.1C13.8,54.2,15.6,55,17.4,56.1z M11.2,39.2
		c-3.5-1.1-9.9-3.2-8-5c1.1-1,4.2,1.7,5,2.3C9.3,37.4,10.3,38.2,11.2,39.2z M7.2,22.5c-1.9-0.4-4.2-0.9-4.9-2.5
		c-0.3-0.6-0.4-1.6,0.4-1.2c0.8,0.3,1.4,0.8,2.1,1.3c0.8,0.6,1.6,1.2,2.2,2C7.1,22.3,7.2,22.4,7.2,22.5z M12.1,21.2
		c0.3-0.4,0.6-0.7,0.8-1.1c0.5-0.6,0.9-1.1,1.5-1.6c0.2-0.2,0.5-0.4,0.7-0.5c0,0,0.1,0,0.1-0.1C15.5,19,13.8,20.2,12.1,21.2z
		 M8.5,11.1C7.5,8.9,6.4,4.4,8,2.7C9.6,1,9.6,4.4,9.7,5.4C9.7,7.4,9.4,9.3,8.5,11.1z M15.9,37c0.1-0.3,0.3-0.6,0.4-0.9
		c0.2-0.4,2.5-4.5,3.2-2.9c0.4,1-2.4,2.9-3,3.3C16.4,36.6,16.2,36.8,15.9,37z M21.6,54.6c1.6-2,3.2-3.9,5-5.7
		c0.1-0.1,0.2-0.2,0.3-0.2c-0.1,0.2,0.1,0.5-0.1,0.9c-0.3,1.1-1.2,2-2,2.7C23.9,53.2,22.8,54,21.6,54.6z M30.8,70.3
		c0.4-1.1,0.7-2.2,1.1-3.3c0.3-0.9,2.4-5.7,3.8-5c2.4,1.1-2.3,6-3.2,6.8C31.9,69.4,31.4,69.8,30.8,70.3z M39.1,87.8
		c0.1-1,0.1-2.1,0.3-2.9c0.1-0.7,1.2-7,2.2-6.4c0.7,0.4-0.6,4.1-0.8,4.9C40.4,84.5,39.9,86.4,39.1,87.8z M61,98.8
		c1-2.9,2.4,2.7,2.5,3.6c0.2,1.8,0.2,3.6,0.1,5.4c-0.4-1-0.8-1.9-1.2-2.9C61.8,103.4,60.4,100.4,61,98.8z M59,111.1
		c-0.1,0-0.2,0.1-0.3,0.1c-1,0.3-2.1,0.7-3.1,1c-0.6,0.1-4.5,0.7-4.4-0.7c0.1-0.6,3.5-0.8,4.3-0.8C56.7,110.6,57.9,110.8,59,111.1z
		 M50.1,100.6c-0.4-1.9-0.5-4-0.4-5.9c0-1.2,0.1-2.5,0.5-3.6c0.1-0.3,0.4-0.6,0.4-0.8c0.1,0.2,0.1,0.4,0.2,0.4
		c0.3,2,0.5,3.8,0.3,5.8C51,97.4,50.8,99.4,50.1,100.6z M45.9,101.6c-2,0.5-4.1,0.9-6.2,1c-1.4,0.1-3,0.1-4.3-0.4
		c-1-0.4-2.3-1.2-1.2-2c1.8-1.1,5.9,0.1,7.8,0.5C43,100.9,44.5,101.1,45.9,101.6z M32.8,89.2c-1.1,0.4-2.2,0.7-3.5,0.7
		c-1.2,0-2.4,0-3.5-0.4c-1.2-0.4-1.9-1.2-0.4-1.6C28.1,87.2,30.4,88.3,32.8,89.2z M13.7,69.6c0.7-0.7,5,1.1,5.9,1.5
		c1.8,0.8,3.5,1.9,5.2,2.8c-1.6,0-3.3,0-4.9-0.2c-1.4-0.2-2.8-0.5-3.9-1.2C15.5,72.1,13.3,70.1,13.7,69.6z"/>
</g>
</svg>
