<?xml version="1.0" encoding="utf-8"?>
<!-- Generator: Adobe Illustrator 19.0.1, SVG Export Plug-In . SVG Version: 6.00 Build 0)  -->
<svg version="1.1" id="Слой_1" xmlns="http://www.w3.org/2000/svg" xmlns:xlink="http://www.w3.org/1999/xlink" x="0px" y="0px"
	 viewBox="0 0 92.2 58.9" style="enable-background:new 0 0 92.2 58.9;" xml:space="preserve">
<style type="text/css">
	.st0{fill:#201600;}
</style>
<g>
	<path class="st0" d="M88.1,25.5c2.5-1.5,4.9-3.5,3.9-6.4c-0.1-0.4-0.5-0.7-0.9-0.8c-3.5-0.1-6.4,3.9-7.3,6.9
		c-2.6,0.1-5.6,1.1-8.2,0.4c1-3.2,1.4-6.6,1-9.9c-0.8-6-5.6-10.2-11.7-10.2c-6.2,0-12.5,3.6-16.4,8.3c-1.5-3.4-3.1-6.7-5.8-9.2
		c-3.8-3.5-10-5.9-15.1-4.1c-4.6,1.5-6.9,6-7.6,10.5c-0.9,5.4-0.5,11.2,0.5,16.7c-3.5,0.3-7,0.5-10.5,0.7c-0.9-1.5-3.5-2.8-4.4-3.3
		c-1.3-0.7-4.1-2-5.1,0c-1.2,2.2,3.4,4.3,6.5,5.4c-2.2,1.3-4.2,3.5-4.3,5.8c0,0.5,0.5,1,1,1c4-0.1,5.4-3.9,7.2-6.8
		c0.1-0.1,0.1-0.2,0.1-0.2c3.3-0.2,6.6-0.4,9.9-0.7c0.2,1.2,0.5,2.5,0.8,3.7c1.9,8.7,5.1,17,8.6,25.1c0.3,0.6,1.1,0.6,1.6,0.3
		c6.4-4.5,13.9-7,20.9-10.2c7-3.1,13.4-7.3,18.2-13.4c1.8-2.3,3.3-4.9,4.3-7.6c2.9,0.8,6-0.2,8.9-0.3c1.6,1.7,7,5.6,8.1,1.8
		C92.5,26.9,90.3,25.9,88.1,25.5z M2.5,26.2c-0.1-0.1-0.3-0.2-0.4-0.4c0.1,0,0.2,0,0.3,0.1c0.6,0.2,1.2,0.4,1.9,0.7
		c0.5,0.2,2.2,1.2,3.1,2C5.7,27.9,4.2,27,2.5,26.2z M4.8,35.1c0.5-0.9,1.4-1.8,2.3-2.5C6.5,33.6,5.7,34.6,4.8,35.1z M71.3,30.4
		c-8.7,15.3-26.6,17.2-40.1,26.1c-3.2-7.5-6-15.2-7.8-23.2c-1-4.3-1.7-8.6-1.9-13c-0.2-3.8-0.3-8.1,0.9-11.7c2.5-7.3,9.8-8,15.9-4.6
		c6.4,3.5,8,10.8,11,16.9c0.5,1.1,2.3,0.4,1.8-0.8c-0.6-1.3-1.2-2.7-1.8-4.1c0.1-0.1,0.1-0.1,0.2-0.2C53.5,10.4,62.2,5.4,69,8.3
		C77.5,12,74.9,24.1,71.3,30.4z M90.1,20.4c-0.1,1.7-2.1,3-3.9,4C87.1,22.7,88.5,20.8,90.1,20.4z M87,27.2c1.4,0.1,3.1,0.5,3,1.1
		C90,29.1,88.4,28.2,87,27.2z"/>
</g>
</svg>
