<?xml version="1.0" encoding="utf-8"?>
<!-- Generator: Adobe Illustrator 19.0.1, SVG Export Plug-In . SVG Version: 6.00 Build 0)  -->
<svg version="1.1" id="Слой_1" xmlns="http://www.w3.org/2000/svg" xmlns:xlink="http://www.w3.org/1999/xlink" x="0px" y="0px"
	 viewBox="0 0 71.1 53.6" style="enable-background:new 0 0 71.1 53.6;" xml:space="preserve">
<style type="text/css">
	.st0{fill:#201600;}
</style>
<g>
	<g>
		<g>
			<path class="st0" d="M58.3,1.9c3.2,5.4,6.7,10.4,10.7,15.2c0.2-0.7,0.4-1.4,0.6-2.1c-5.1,2.1-10.2,4.2-15.3,6.3
				c-1.5,0.6-0.8,3,0.7,2.4c5.1-2.1,10.2-4.2,15.3-6.3c0.9-0.4,1.2-1.3,0.6-2.1C67,10.7,63.6,5.8,60.5,0.6
				C59.7-0.8,57.5,0.5,58.3,1.9L58.3,1.9z"/>
		</g>
	</g>
	<g>
		<path class="st0" d="M2,53.6l-2-0.2c0.1-0.6,0.1-1.1,0.2-1.7l2,0.2C2.1,52.5,2,53.1,2,53.6z M2.6,49.1l-2-0.3c0.3-2,0.7-4.1,1.2-6
			l1.9,0.5C3.2,45.1,2.9,47.1,2.6,49.1z M4.5,40.4l-1.9-0.6c0.6-2,1.3-3.9,2.1-5.7l1.8,0.8C5.7,36.6,5,38.5,4.5,40.4z M7.7,32.2
			l-1.8-0.9c0.9-1.9,2-3.6,3.1-5.3l1.7,1.1C9.6,28.7,8.6,30.4,7.7,32.2z M12.3,24.8l-1.6-1.2c1.3-1.6,2.7-3.2,4.1-4.5l1.4,1.5
			C14.9,21.8,13.6,23.2,12.3,24.8z M18.5,18.5L17.2,17c1.6-1.3,3.3-2.5,5.1-3.5l1,1.7C21.6,16.2,20,17.3,18.5,18.5z M25.9,13.9
			L25,12.1c1.8-0.9,3.8-1.6,5.7-2.2l0.6,1.9C29.4,12.3,27.6,13,25.9,13.9z M57.1,12.7c-1.7-0.7-3.5-1.3-5.5-1.8l0.4-2
			c2.1,0.5,4.1,1.1,5.9,1.9L57.1,12.7z M34.1,11L33.7,9c2-0.5,4-0.8,6.1-0.9l0.2,2C38,10.3,36,10.6,34.1,11z M48.7,10.3
			c-1.8-0.2-3.6-0.4-5.4-0.4l-0.4,0l0-2l0.4,0c1.9,0,3.9,0.1,5.7,0.4L48.7,10.3z"/>
	</g>
</g>
</svg>
