<?xml version="1.0" encoding="utf-8"?>
<!-- Generator: Adobe Illustrator 19.0.1, SVG Export Plug-In . SVG Version: 6.00 Build 0)  -->
<svg version="1.1" id="Слой_1" xmlns="http://www.w3.org/2000/svg" xmlns:xlink="http://www.w3.org/1999/xlink" x="0px" y="0px"
	 viewBox="0 0 225.7 301.3" style="enable-background:new 0 0 225.7 301.3;" xml:space="preserve">
<style type="text/css">
	.st0{fill:#201600;}
	.st1{fill:#000002;}
</style>
<g>
	<g>
		<path class="st0" d="M58.1,92.5l-2.2-1.4l8.7-14.3l2.2,1.4l-3.7,6.1l2.6,1.5l3.7-6.1l2.3,1.4l-8.7,14.3L60.7,94l3.7-6.1l-2.5-1.5
			L58.1,92.5z"/>
		<path class="st0" d="M71.9,101.5l-2.2-1.5l1.3-2.8l-2.7-1.8l-2.1,2.3l-2-1.4L75.9,84l3.2,2.2L71.9,101.5z M69.9,93.7l2.1,1.4
			l3.7-7.7L69.9,93.7z"/>
		<path class="st0" d="M77.4,102.6c0.9,0.7,1.3,0.8,2.3-0.3l8.2-9.6l5.8,4.6l-10.4,13.1l-2.1-1.7l8.9-11.2L88.4,96l-6.5,7.7
			c-2,2.3-3.6,2.6-5.6,1l-0.3-0.3L77.4,102.6z"/>
		<path class="st0" d="M93.4,109.6l-1.5-1.3l-4.8,5.3l-1.9-1.8l11.2-12.4l1.9,1.8l-4.8,5.3l1.5,1.3l2.1-2.3c1.8-2,3.9-2.2,5.8-0.4
			c1.9,1.7,1.9,3.8,0.1,5.8l-5.8,6.5c-1.8,2-3.9,2.2-5.8,0.4c-1.9-1.7-1.9-3.8-0.1-5.8L93.4,109.6z M93.2,113.8
			c-0.8,0.9-0.7,1.6-0.1,2.1c0.6,0.6,1.3,0.6,2.1-0.3l6.1-6.7c0.8-0.9,0.7-1.6,0.1-2.1c-0.6-0.6-1.3-0.6-2.1,0.3L93.2,113.8z"/>
		<path class="st0" d="M96.1,121.7l12.1-11.6l5.1,5.3l-1.7,1.7l-3.3-3.4l-3.1,3l1.1,1.1c1.8,1.9,1.7,3.9-0.2,5.7l-1.3,1.2
			c-1.9,1.9-3.9,1.9-5.7,0L96.1,121.7z M100.7,123.1c0.6,0.6,1.2,0.7,2.1-0.1l1.5-1.5c0.9-0.8,0.8-1.5,0.2-2.1l-1.1-1.1l-3.8,3.7
			L100.7,123.1z"/>
		<path class="st0" d="M112.5,120.5c2-1.8,4.1-1.7,5.8,0.2c1.7,1.9,1.5,4-0.5,5.8l-6.5,5.8c-2,1.8-4.1,1.7-5.8-0.2
			c-1.7-1.9-1.5-4,0.5-5.8L112.5,120.5z M107.7,128.4c-0.9,0.8-0.9,1.5-0.3,2.1c0.6,0.6,1.2,0.7,2.1-0.1l6.7-6
			c0.9-0.8,0.9-1.5,0.3-2.1c-0.6-0.6-1.2-0.7-2.1,0.1L107.7,128.4z"/>
		<path class="st0" d="M111.4,138.6l-1.7-2.1l13-10.5l1.5,1.8l-8.3,6.6l3.5-1.6l6.7-2.6l1.8,2.3l-13,10.5l-1.5-1.8l9.2-7.4l-3.9,1.7
			L111.4,138.6z M129,127.9c-0.7,0.5-1.2,0.3-1.6-0.2c-0.4-0.5-0.5-1,0.2-1.6l-1-1.3c-1.2,1.1-1.5,2.4-0.3,3.8
			c1.2,1.5,2.6,1.5,3.8,0.5L129,127.9z"/>
		<path class="st0" d="M133.9,147.4l-0.5,0.3c-1.4,1-2.6,1.2-3.7,0.5c0.3,1.5-0.4,2.6-1.8,3.7l-1.1,0.8c-2.1,1.5-4,1.1-5.5-1
			l-2.3-3.4l13.8-9.5l2.3,3.3C136.4,144.3,136,145.9,133.9,147.4z M132.1,142.3l-3.6,2.5l0.6,0.8c0.6,0.8,1.3,1.1,2.4,0.3l0.8-0.5
			c1-0.7,1.2-1.3,0.7-2.1L132.1,142.3z M126.5,146.1l-4.2,2.9l0.9,1.2c0.5,0.7,1.1,0.9,2.1,0.2l1.2-0.8c1.3-0.9,1.4-1.6,0.7-2.6
			L126.5,146.1z"/>
		<path class="st0" d="M132,156l-1.7,0.1l-4.4,2.7l-1.4-2.2l14.2-8.8l1.4,2.2l-6.2,3.8l8-0.9l1.4,2.2L135,156l-6,8l-1.4-2.3L132,156
			z"/>
		<path class="st0" d="M136.4,168.4c-2.9,0.9-4.7,0.7-6.3-2.6l2-1.1c0.6,1.2,1.1,1.8,2.3,1.4l0.1,0l9.6-9.4l1.3,2.3l-4.3,4l-3,2.6
			l3.7-1.3l5.6-1.7l1.3,2.4L136.4,168.4z"/>
		<path class="st0" d="M143.6,178.4l-2,1c-2.4,1.2-4.4,0.6-5.5-1.7c-1.1-2.3-0.3-4.2,2.1-5.4l7.8-3.8c2.4-1.2,4.4-0.6,5.5,1.7
			c1.1,2.3,0.3,4.2-2.1,5.4l-1.5,0.7l-1.1-2.2l1.6-0.8c1.1-0.5,1.3-1.2,0.9-1.9c-0.4-0.7-1-1-2.1-0.5l-8.1,4
			c-1.1,0.5-1.2,1.2-0.9,1.9c0.4,0.8,1,1,2.1,0.5l2.1-1L143.6,178.4z"/>
		<path class="st0" d="M138.8,183l2.3-1l1,2.3l-2.1,0.9l-2.9,0l-0.4-1l2.5-0.3L138.8,183z"/>
		<path class="st0" d="M156.4,181.3l1,2.4L144,189l1.1,2.8l13.3-5.3l1,2.5l-13.4,5.3l0.4,1.1l-4.3,1.7l-0.9-2.4l2.1-0.8l-2.5-6.4
			L156.4,181.3z"/>
		<path class="st0" d="M159.6,201.3l-0.6,0.2c-1.6,0.5-2.8,0.4-3.7-0.5c-0.1,1.5-1.1,2.4-2.8,3l-1.3,0.4c-2.4,0.8-4.2,0-5-2.5
			l-1.3-3.9l15.8-5.3l1.3,3.8C162.9,198.9,162.1,200.4,159.6,201.3z M152.9,198l-4.9,1.6l0.5,1.4c0.3,0.8,0.8,1.2,2,0.8l1.4-0.5
			c1.5-0.5,1.8-1.1,1.4-2.3L152.9,198z M159.3,195.8l-4.2,1.4l0.3,1c0.3,0.9,0.9,1.4,2.2,0.9l0.9-0.3c1.1-0.4,1.5-0.9,1.2-1.8
			L159.3,195.8z"/>
		<path class="st0" d="M158.1,207.4l1,3.5l-2.3,0.7l-1-3.5l-4.7,1.3l1.2,4.4l-2.3,0.7l-2-6.9l16.1-4.6l2,6.9l-2.3,0.7l-1.2-4.4
			L158.1,207.4z"/>
		<path class="st0" d="M166.6,211.8l1.9,7.9l-2.3,0.5l-0.6-2.7l-13.9,3.3l-0.6-2.6l13.9-3.3l-0.6-2.7L166.6,211.8z"/>
		<path class="st0" d="M153.8,231.9l-0.4-2.7l16.5-2.7l0.4,2.3l-10.4,1.7l3.8,0.3l7.2,1l0.5,2.9l-16.5,2.7l-0.4-2.3l11.6-1.9
			l-4.2-0.4L153.8,231.9z"/>
		<path class="st0" d="M157.8,248.3l-0.1-1c-0.2-2.6,1.1-4,3.8-4.2l4.5-0.4c2.7-0.2,4.2,1,4.4,3.6l0.1,1l2-0.2l0.2,2.6l-2,0.2l0.1,1
			c0.2,2.6-1.1,4-3.8,4.2l-4.5,0.4c-2.7,0.2-4.2-1-4.4-3.6l-0.1-1l-1.9,0.2l-0.2-2.6L157.8,248.3z M168.3,247.4l-0.1-1
			c-0.1-0.8-0.6-1.3-1.7-1.2l-4.9,0.4c-1.2,0.1-1.6,0.6-1.6,1.4l0.1,1L168.3,247.4z M168.5,250l-8.2,0.7l0.1,1
			c0.1,0.8,0.6,1.3,1.8,1.2l4.9-0.4c1.2-0.1,1.6-0.6,1.5-1.4L168.5,250z"/>
		<path class="st0" d="M169.3,257.5c2.7-0.1,4.2,1.3,4.3,3.9c0.1,2.6-1.4,4-4.1,4.1l-8.7,0.2c-2.7,0.1-4.2-1.3-4.3-3.9
			c-0.1-2.6,1.4-4,4.1-4.1L169.3,257.5z M160.5,260.3c-1.2,0-1.6,0.6-1.6,1.4c0,0.8,0.5,1.3,1.7,1.3l9-0.2c1.2,0,1.6-0.6,1.6-1.4
			c0-0.8-0.5-1.3-1.7-1.3L160.5,260.3z"/>
		<path class="st0" d="M169.1,276l-2.2-0.1c-2.7-0.1-4.1-1.4-4-4l0-1.2l-6.3-0.2l0.1-2.6l16.7,0.4l-0.1,3.9
			C173.3,274.8,171.8,276,169.1,276z M171,270.8l-5.7-0.1l0,1.2c0,0.8,0.4,1.3,1.5,1.3l2.5,0.1c1.2,0,1.6-0.4,1.6-1.3L171,270.8z"/>
		<path class="st0" d="M160.9,283.2l11.7,2.7l-0.3,3.6l-16.7-1.4l0.2-2.5l11.9,1l-11.8-2.8l0.2-2.5l11.9-1l-11.8-1l0.2-2.3l16.7,1.4
			l-0.3,3.6L160.9,283.2z"/>
		<path class="st0" d="M158.7,296.8c-2.9-1-4.2-2.3-3.5-5.8l2.3,0.3c-0.3,1.3-0.1,2.1,1,2.5l0.1,0L172,292l-0.4,2.6l-5.8,0.6l-4,0.3
			l3.8,1.2l5.5,2l-0.4,2.7L158.7,296.8z"/>
	</g>
	<g>
		<path class="st0" d="M1.4,41.1L8.6,2.8L0,1.2L0.2,0l18.5,3.5l-0.2,1.2L9.9,3L2.6,41.3L1.4,41.1z"/>
		<path class="st0" d="M24.4,15.1c0.4-1.4,0.9-2.6,1.6-3.7c0.6-1.1,1.4-2,2.3-2.7c0.9-0.7,2-1.1,3.1-1.3c1.2-0.2,2.5-0.1,4,0.3
			c1.5,0.4,2.6,1.1,3.5,1.9c0.9,0.8,1.5,1.8,1.9,2.8c0.4,1.1,0.6,2.2,0.5,3.5c0,1.3-0.3,2.6-0.7,3.9L35,39.5
			c-0.4,1.4-0.9,2.6-1.6,3.7c-0.7,1.1-1.4,2-2.4,2.6c-0.9,0.7-2,1.1-3.2,1.3c-1.2,0.2-2.5,0.1-4-0.3c-1.5-0.4-2.6-1.1-3.5-1.9
			c-0.9-0.8-1.5-1.8-1.9-2.8c-0.4-1.1-0.6-2.2-0.5-3.5c0.1-1.3,0.3-2.6,0.7-3.9L24.4,15.1z M19.8,35c-0.3,1.2-0.6,2.3-0.6,3.4
			s0.1,2.1,0.4,3.1c0.3,0.9,0.9,1.8,1.6,2.5c0.7,0.7,1.8,1.3,3,1.6s2.4,0.5,3.5,0.3c1-0.2,1.9-0.6,2.7-1.2c0.8-0.6,1.4-1.4,2-2.4
			c0.6-1,1-2,1.4-3.2l5.8-19.7c0.3-1.2,0.5-2.3,0.6-3.4c0.1-1.1-0.1-2.1-0.4-3.1c-0.3-0.9-0.9-1.8-1.6-2.5c-0.8-0.7-1.8-1.3-3.1-1.7
			c-1.3-0.4-2.4-0.5-3.4-0.3c-1,0.2-1.9,0.6-2.7,1.2c-0.8,0.6-1.4,1.4-2,2.4c-0.5,1-1,2-1.3,3.2L19.8,35z"/>
		<path class="st0" d="M59.3,16.3c1.4,0.6,2.5,1.3,3.3,2.1c0.8,0.8,1.4,1.8,1.6,2.8c0.3,1,0.3,2.2,0.2,3.4c-0.2,1.2-0.5,2.5-1.1,3.8
			l-1.5,3.7c-1.2,3-2.8,4.9-4.7,5.8c-1.9,0.9-4.4,0.7-7.4-0.5l-5.3-2.1l-6.4,15.8l-1.2-0.5l15-37.2L59.3,16.3z M50.2,36.3
			c2.6,1.1,4.7,1.2,6.4,0.5c1.6-0.7,3-2.4,4.1-5.1l1.5-3.8c0.5-1.1,0.8-2.2,0.9-3.3c0.2-1,0.1-2-0.1-2.9c-0.2-0.9-0.7-1.7-1.4-2.4
			C61,18.6,60,18,58.8,17.5L52.6,15l-7.7,19.2L50.2,36.3z"/>
		<path class="st0" d="M63.9,62.6L82,28.1l-7.8-4.1l0.6-1.1l16.7,8.7l-0.6,1.1l-7.8-4.1L65,63.2L63.9,62.6z"/>
		<path class="st0" d="M94.3,58.9L78.2,70.6l-1.3-0.9L99,36.3l1,0.7L79.3,68.4L92.1,59l19.8-14.3l1.4,0.9L91.2,79.2l-1-0.7l21-31.8
			L94.3,58.9z"/>
		<path class="st0" d="M111.2,69.4l-5.3,1.6l-9.7,11.9l-1-0.8L120.6,51l1,0.8l-14.3,17.5l25.9-8.1l1.1,0.9L112.6,69l-2.9,24.9
			l-1.1-0.9L111.2,69.4z"/>
		<path class="st0" d="M132.4,89.9l-18,8.5l-1.1-1.1l28-28.7l0.9,0.8l-26.3,27l14.4-6.8l22.1-10.3l1.2,1.2l-28,28.7l-0.9-0.8
			l26.6-27.3L132.4,89.9z"/>
		<path class="st0" d="M151.5,109.8l-15.6,11.7l-0.8-1l32-24.1l0.8,1l-15.6,11.7l8.7,11.6l15.6-11.7l0.8,1l-32,24.1l-0.8-1
			l15.6-11.7L151.5,109.8z"/>
		<path class="st0" d="M158.1,136.2l-9.3,2.8l-0.6-1l39.5-12.3l0.9,1.5l-29.4,29.1l-0.6-1.1l6.9-6.9L158.1,136.2z M159.2,135.8
			l7.1,11.9l20.5-20.4L159.2,135.8z"/>
		<path class="st0" d="M206.1,162.1c0.6,1.4,0.8,2.7,0.7,3.9c-0.1,1.2-0.4,2.3-1,3.2c-0.6,0.9-1.4,1.8-2.4,2.5
			c-1,0.7-2.2,1.4-3.5,1.9l-1,0.4c-1.8,0.7-3.6,0.9-5.4,0.5c-1.8-0.4-3.3-1.3-4.5-2.8c0.3,2,0,3.7-1,5.2c-1,1.5-2.4,2.6-4.2,3.3
			l-2.9,1.2c-1.3,0.5-2.6,0.9-3.8,1.1c-1.2,0.2-2.4,0.1-3.5-0.1c-1.1-0.3-2.1-0.8-3-1.6c-0.9-0.8-1.6-1.9-2.2-3.3
			c-0.6-1.4-0.8-2.7-0.7-3.9c0.1-1.2,0.4-2.3,1-3.2c0.6-1,1.4-1.8,2.4-2.6c1-0.7,2.2-1.4,3.5-1.9l2.7-1.1l0.5,1.2l-2.8,1.1
			c-1.1,0.5-2.2,1-3.1,1.7c-0.9,0.6-1.6,1.4-2.2,2.2c-0.5,0.8-0.8,1.7-1,2.7c-0.1,1,0.1,2.1,0.6,3.4c0.5,1.2,1.2,2.2,1.9,2.9
			c0.8,0.7,1.7,1.1,2.6,1.3c1,0.2,2,0.2,3.1,0c1.1-0.2,2.2-0.5,3.3-1l2.9-1.2c2-0.8,3.4-2.1,4.2-3.7c0.8-1.7,0.8-3.5,0-5.5l-1-2.4
			l1.1-0.4l1,2.4c0.4,0.9,0.9,1.7,1.6,2.3c0.7,0.6,1.5,1.1,2.4,1.4c0.9,0.3,1.8,0.4,2.8,0.4c1,0,1.9-0.2,2.8-0.6l1.1-0.5
			c1.2-0.5,2.2-1,3.1-1.7c0.9-0.6,1.6-1.4,2.2-2.2s0.8-1.7,0.9-2.8c0.1-1-0.1-2.2-0.6-3.4c-0.5-1.2-1.2-2.2-1.9-2.9
			c-0.8-0.7-1.7-1.1-2.6-1.3c-1-0.2-2-0.2-3.1,0c-1.1,0.2-2.2,0.5-3.3,1l-1.6,0.6l-0.4-1.1l1.6-0.7c1.3-0.5,2.5-0.9,3.8-1.1
			c1.2-0.2,2.4-0.1,3.5,0.1c1.1,0.3,2.1,0.8,3,1.6C204.8,159.5,205.5,160.6,206.1,162.1z"/>
		<path class="st0" d="M183.6,190.3l-9.7,0.4l-0.3-1.1l41.3-1.9l0.5,1.7l-35.8,20.7l-0.4-1.2l8.4-4.9L183.6,190.3z M184.8,190.2
			l3.8,13.3l25-14.5L184.8,190.2z"/>
		<path class="st0" d="M200.9,215.6l-5-2.2l-15.1,2.6l-0.2-1.2l39.5-6.9l0.2,1.2L198,213l24.9,10.8l0.2,1.4l-20.8-9l-18.5,16.9
			l-0.2-1.4L200.9,215.6z"/>
		<path class="st0" d="M194,240.5l-9.6-1.7l-0.1-1.1l40.7,7.1l0.1,1.8L185.7,259l-0.1-1.3l9.3-3L194,240.5z M195.2,240.7l0.9,13.8
			l27.6-8.8L195.2,240.7z"/>
		<path class="st0" d="M225.7,273.8c-0.1,1.5-0.4,2.8-1,3.9c-0.6,1-1.3,1.9-2.3,2.5c-0.9,0.6-2,1-3.3,1.3c-1.2,0.3-2.6,0.4-4,0.3
			l-1,0c-1.9-0.1-3.7-0.7-5.1-1.8c-1.5-1.1-2.4-2.6-2.9-4.4c-0.5,1.9-1.6,3.3-3.1,4.3c-1.5,0.9-3.2,1.3-5.2,1.3l-3.1-0.1
			c-1.4-0.1-2.7-0.3-3.9-0.6c-1.2-0.4-2.3-0.9-3.1-1.6c-0.9-0.7-1.6-1.6-2.1-2.7c-0.5-1.1-0.7-2.4-0.6-3.9c0.1-1.5,0.4-2.8,1-3.9
			c0.6-1,1.3-1.9,2.3-2.5c0.9-0.6,2-1.1,3.3-1.3c1.2-0.3,2.6-0.4,4-0.3l2.9,0.1l-0.1,1.3l-3-0.1c-1.2-0.1-2.4,0-3.5,0.2
			c-1.1,0.2-2.1,0.6-2.9,1.1c-0.8,0.5-1.5,1.2-2,2.1c-0.5,0.9-0.8,2-0.9,3.3c-0.1,1.3,0.1,2.5,0.6,3.4c0.4,0.9,1.1,1.7,1.9,2.3
			c0.8,0.6,1.7,1,2.8,1.3c1.1,0.3,2.2,0.5,3.5,0.5l3.1,0.1c2.1,0.1,3.9-0.5,5.4-1.6c1.4-1.2,2.2-2.8,2.3-5l0.1-2.6l1.1,0l-0.1,2.6
			c0,1,0.1,1.9,0.5,2.8c0.4,0.9,0.9,1.6,1.6,2.2c0.7,0.6,1.4,1.1,2.3,1.5c0.9,0.4,1.9,0.6,2.8,0.6l1.2,0c1.3,0.1,2.4,0,3.5-0.2
			c1.1-0.2,2.1-0.6,2.9-1.1c0.8-0.5,1.5-1.2,2-2.1c0.5-0.9,0.8-2,0.9-3.4c0.1-1.3-0.1-2.5-0.6-3.4c-0.4-0.9-1.1-1.7-1.8-2.3
			s-1.7-1-2.8-1.3c-1.1-0.3-2.2-0.5-3.5-0.5l-1.7-0.1l0-1.1l1.7,0.1c1.4,0.1,2.7,0.3,3.9,0.6c1.2,0.4,2.3,0.9,3.1,1.6
			c0.9,0.7,1.6,1.6,2.1,2.7C225.5,271,225.7,272.3,225.7,273.8z"/>
	</g>
</g>
<path class="st1" d="M107.4,11.6c-3.6,1.9-2,9.2-1.2,12.2c0.7,2.7,1.2,5.7,2.6,8.2c0.6,1.2,1.5,2.4,2.7,3.2c1.7,1.1,3.1,0.6,5,0.6
	c1.1,0,2.1,0,3.2,0c2.4-0.1,4.9-0.2,7.3-0.5c2.6-0.3,8.9-1.3,7.7-5.3c-0.8-2.7-4.6-2.4-6.7-2.2c-1.7,0.2-3.3,0.6-5,1
	c0.9-1,1.8-2,2.6-3c1.7-2.2,4.1-6.3,1.5-8.9c-2.7-2.7-7.2,0.9-9,3c-1.5,1.7-2.7,3.7-3.6,5.8c0.2-3.1,0.1-6.2-0.9-9.2
	C112.8,14.4,110.3,10.1,107.4,11.6z M131.9,30.4c1.2,1.9-8.7,2.7-9.6,2.7c-1.5,0-2.9,0-4.4,0c1.4-0.5,2.9-1,4.3-1.5
	C123.6,31.2,130.9,28.8,131.9,30.4z M119.9,21.4c0.9-1,3.5-3.4,5-2.9c3.2,1-2.1,7-3.1,8c-1.7,1.8-3.6,3.5-5.8,4.7
	c-0.5,0.2-1,0.4-1.5,0.6c0.8-2.1,1.5-4.2,2.6-6.2C117.9,24.1,118.8,22.6,119.9,21.4z M111.5,32.1c-1.2-1.8-1.7-4.7-2.3-6.4
	c-0.7-2.1-3.4-10.5-0.4-11.1C113.3,13.8,112.1,26.7,111.5,32.1z"/>
</svg>
