<?xml version="1.0" encoding="utf-8"?>
<!-- Generator: Adobe Illustrator 19.0.1, SVG Export Plug-In . SVG Version: 6.00 Build 0)  -->
<svg version="1.1" id="Слой_1" xmlns="http://www.w3.org/2000/svg" xmlns:xlink="http://www.w3.org/1999/xlink" x="0px" y="0px"
	 viewBox="0 0 314.3 68.5" style="enable-background:new 0 0 314.3 68.5;" xml:space="preserve">
<style type="text/css">
	.st0{fill:#201600;}
</style>
<g>
	<path class="st0" d="M3.3,1.3L3.2,38.5l-1.2,0L2.1,0.1l16.3,0l-0.1,38.3l-1.2,0l0.1-37.2L3.3,1.3z"/>
	<path class="st0" d="M31.7,0.2c1.5,0,2.7,0.2,3.7,0.7c1,0.5,1.8,1.1,2.5,1.9c0.6,0.8,1.1,1.8,1.3,2.9c0.3,1.1,0.4,2.4,0.4,3.7
		l0,3.8c0,3.1-0.7,5.3-2.1,6.8c-1.4,1.5-3.6,2.2-6.7,2.2l-5.5,0l0,16.3l-1.2,0l0.1-38.3L31.7,0.2z M30.8,21.1c2.7,0,4.6-0.6,5.8-1.8
		c1.2-1.2,1.8-3.2,1.8-5.9l0-3.9c0-1.2-0.1-2.2-0.3-3.2c-0.2-1-0.6-1.8-1.1-2.5c-0.5-0.7-1.2-1.3-2.1-1.7C34,1.5,33,1.3,31.7,1.3
		l-6.4,0l0,19.8L30.8,21.1z"/>
	<path class="st0" d="M48.3,29.5l-2.3,9l-1.1,0l9.3-38.4l1.7,0l9.4,38.4l-1.2,0l-2.2-9L48.3,29.5z M48.5,28.4l13.2,0L55.1,1.6
		L48.5,28.4z"/>
	<path class="st0" d="M79,0c1.5,0,2.7,0.3,3.7,0.8c1,0.5,1.8,1.2,2.5,2.1c0.6,0.9,1.1,1.9,1.4,3.1C86.8,7.1,87,8.4,87,9.7l0,1
		c0,1.9-0.5,3.5-1.5,5c-1,1.4-2.4,2.4-4.1,2.9c1.9,0.4,3.3,1.4,4.2,2.8s1.4,3,1.4,4.9l0,3c0,1.4-0.2,2.6-0.4,3.8
		c-0.3,1.2-0.8,2.2-1.4,3.1c-0.6,0.9-1.4,1.6-2.5,2.1c-1,0.5-2.3,0.8-3.7,0.8c-1.5,0-2.7-0.3-3.7-0.8c-1-0.5-1.9-1.2-2.5-2.1
		c-0.6-0.9-1.1-1.9-1.4-3.1c-0.3-1.2-0.4-2.4-0.4-3.8l0-2.8l1.2,0l0,2.8c0,1.2,0.1,2.3,0.3,3.3c0.2,1,0.6,1.9,1.1,2.7
		c0.5,0.8,1.2,1.4,2.1,1.8c0.9,0.5,1.9,0.7,3.2,0.7c1.3,0,2.4-0.2,3.2-0.7c0.9-0.5,1.6-1.1,2.1-1.9c0.5-0.8,0.9-1.7,1.2-2.7
		c0.2-1,0.4-2.1,0.4-3.3l0-3c0-2-0.6-3.7-1.8-5.1c-1.2-1.3-2.8-2-4.8-2l-2.5,0l0-1.1l2.5,0c0.9,0,1.8-0.2,2.6-0.6
		c0.8-0.4,1.5-0.9,2.1-1.6c0.6-0.7,1-1.4,1.4-2.3c0.3-0.9,0.5-1.8,0.5-2.7l0-1.1c0-1.2-0.1-2.3-0.4-3.4c-0.2-1-0.6-1.9-1.1-2.7
		S83,2.2,82.2,1.8c-0.9-0.5-2-0.7-3.2-0.7c-1.3,0-2.4,0.2-3.2,0.7c-0.9,0.5-1.6,1.1-2.1,1.8c-0.5,0.8-0.9,1.7-1.2,2.7
		c-0.2,1-0.4,2.1-0.4,3.3l0,1.6l-1.1,0l0-1.6c0-1.3,0.1-2.6,0.4-3.7c0.3-1.2,0.8-2.2,1.4-3.1c0.6-0.9,1.4-1.6,2.5-2.1
		C76.3,0.3,77.5,0,79,0z"/>
	<path class="st0" d="M113.9,44l0-5.4l-20.3,0l0,5.4l-1.2,0l0-6.5l2.7,0c0.8-0.8,1.4-1.8,1.6-3c0.2-1.1,0.4-2.3,0.4-3.6l1.6-30.6
		l13,0l-0.1,37.2l3.4,0l0,6.5L113.9,44z M98.4,31c-0.1,1.3-0.2,2.5-0.4,3.6c-0.2,1.1-0.7,2.1-1.5,3l14,0l0.1-36l-10.6,0L98.4,31z"/>
	<path class="st0" d="M122,20.1l0,18.6l-1.2,0l0.1-38.3l1.2,0l0,18.6l13.9,0l0-18.6l1.2,0l-0.1,38.3l-1.2,0l0-18.6L122,20.1z"/>
	<path class="st0" d="M151,20.9l-6.7,17.8l-1.5,0l0.1-38.3l1.1,0l-0.1,36l5.3-14.2l8.3-21.8l1.6,0l-0.1,38.3l-1.1,0L158,2.3
		L151,20.9z"/>
	<path class="st0" d="M180,19.4c-1.5,2.9-3.9,4.3-7.3,4.3c-1.4,0-2.6-0.3-3.6-0.8c-1-0.5-1.8-1.2-2.4-2.1c-0.6-0.9-1.1-1.9-1.4-3
		c-0.3-1.2-0.4-2.4-0.4-3.6l0-13.6l1.2,0l0,13.6c0,1.1,0.1,2.2,0.3,3.2c0.2,1,0.6,1.9,1.2,2.7s1.2,1.4,2.1,1.9
		c0.9,0.5,1.9,0.7,3.1,0.7c1.9,0,3.4-0.5,4.5-1.4c1.2-0.9,2-2.2,2.6-4l0-16.8l1.2,0l-0.1,38.3l-1.2,0L180,19.4z"/>
	<path class="st0" d="M190.1,29.8l-2.3,9l-1.1,0l9.3-38.4l1.7,0l9.4,38.4l-1.2,0l-2.2-9L190.1,29.8z M190.3,28.7l13.2,0l-6.6-26.8
		L190.3,28.7z"/>
	<path class="st0" d="M215.4,38.9l0.1-37.2l-8.4,0l0-1.1l18,0l0,1.1l-8.4,0l-0.1,37.2L215.4,38.9z"/>
	<path class="st0" d="M235.8,16.8c3.1,0,5.4,0.7,6.8,2.2c1.4,1.5,2.1,3.7,2.1,6.8l0,3.8c0,1.4-0.1,2.6-0.4,3.7
		c-0.3,1.1-0.7,2.1-1.3,2.9c-0.6,0.8-1.4,1.5-2.5,1.9c-1,0.5-2.3,0.7-3.8,0.7l-7.5,0l0.1-38.3l1.2,0l0,16.3L235.8,16.8z M236.7,37.8
		c1.3,0,2.4-0.2,3.2-0.6c0.9-0.4,1.6-1,2.1-1.7c0.5-0.7,0.9-1.6,1.1-2.5c0.2-1,0.3-2.1,0.3-3.2l0-3.9c0-2.7-0.6-4.7-1.8-5.9
		c-1.2-1.2-3.2-1.8-5.9-1.8l-5.4,0l0,19.8L236.7,37.8z"/>
	<path class="st0" d="M0,49.9l7.8,0l0,2.3l-2.6,0l0,13.7l-2.5,0l0-13.7l-2.6,0L0,49.9z"/>
	<path class="st0" d="M9.2,53.7c0-2.6,1.4-4,3.8-4s3.8,1.5,3.8,4l0,8.3c0,2.6-1.4,4-3.8,4c-2.5,0-3.8-1.5-3.8-4L9.2,53.7z
		 M11.7,62.2c0,1.1,0.5,1.6,1.3,1.6c0.8,0,1.3-0.4,1.3-1.6l0-8.6c0-1.1-0.5-1.6-1.3-1.6c-0.8,0-1.3,0.4-1.3,1.6L11.7,62.2z"/>
	<path class="st0" d="M26.5,53.9l0,2.1c0,2.6-1.2,3.9-3.7,3.9l-1.2,0l0,6l-2.5,0l0-16l3.7,0C25.2,49.9,26.5,51.3,26.5,53.9z
		 M21.5,52.2l0,5.4l1.2,0c0.8,0,1.2-0.4,1.2-1.5l0-2.4c0-1.1-0.4-1.5-1.2-1.5L21.5,52.2z"/>
	<path class="st0" d="M27.5,49.9l7.8,0l0,2.3l-2.6,0l0,13.7l-2.5,0l0-13.7l-2.6,0L27.5,49.9z"/>
	<path class="st0" d="M44.1,56.4l3-6.5l2.5,0l-3.1,6.5l3.1,9.5l-2.6,0l-2.3-7.1L44.1,60l0,5.9l-2.5,0l0-5.9L41,58.8l-2.3,7.1l-2.6,0
		l3.1-9.4l-3.1-6.6l2.5,0l3,6.5l0-6.5l2.5,0L44.1,56.4z"/>
	<path class="st0" d="M53.7,56.7l3.4,0l0,2.3l-3.4,0l0,4.7l4.3,0l0,2.3l-6.8,0l0-16l6.8,0l0,2.3l-4.3,0L53.7,56.7z"/>
	<path class="st0" d="M67.5,60l0,2.1c0,2.6-1.3,4-3.7,4c-2.5,0-3.7-1.5-3.7-4l0-8.3c0-2.6,1.3-4,3.7-4c2.5,0,3.7,1.5,3.7,4l0,1.6
		l-2.4,0l0-1.7c0-1.1-0.5-1.6-1.3-1.6c-0.8,0-1.3,0.4-1.3,1.6l0,8.6c0,1.1,0.5,1.6,1.3,1.6c0.8,0,1.3-0.4,1.3-1.5l0-2.3L67.5,60z"/>
	<path class="st0" d="M68.9,50l7.8,0l0,2.3l-2.6,0L74,66l-2.5,0l0-13.7l-2.6,0L68.9,50z"/>
	<path class="st0" d="M85.8,53.7l0,0.6c0,1.6-0.5,2.7-1.6,3.2c1.3,0.5,1.9,1.7,1.9,3.4l0,1.3c0,2.5-1.3,3.8-3.8,3.8l-3.9,0l0-16
		l3.8,0C84.7,50,85.8,51.2,85.8,53.7z M80.8,58.8l0,4.9l1.4,0c0.8,0,1.3-0.4,1.3-1.6l0-1.4c0-1.5-0.5-1.9-1.6-1.9L80.8,58.8z
		 M80.8,52.3l0,4.2l1,0c0.9,0,1.5-0.4,1.5-1.7l0-0.9c0-1.1-0.4-1.6-1.3-1.6L80.8,52.3z"/>
	<path class="st0" d="M87.9,53.9c0-2.6,1.4-4,3.8-4c2.5,0,3.8,1.5,3.8,4l0,8.3c0,2.6-1.4,4-3.8,4s-3.8-1.5-3.8-4L87.9,53.9z
		 M90.4,62.3c0,1.1,0.5,1.6,1.3,1.6c0.8,0,1.3-0.4,1.3-1.6l0-8.6c0-1.1-0.5-1.6-1.3-1.6c-0.8,0-1.3,0.4-1.3,1.6L90.4,62.3z"/>
	<path class="st0" d="M97.7,66l0-2.4l2.4,0l0,2.2L99,68.3l-1,0l0.7-2.3L97.7,66z"/>
	<path class="st0" d="M111.5,54c0-1.4-0.5-1.8-1.3-1.8c-0.8,0-1.3,0.4-1.3,1.6l0,1.3l-2.3,0l0-1.2c0-2.6,1.2-4,3.7-4
		c2.5,0,3.7,1.5,3.7,4l0,0.4c0,1.7-0.6,2.8-1.8,3.3c1.3,0.5,1.8,1.7,1.8,3.4l0,1.3c0,2.6-1.3,4-3.7,4c-2.5,0-3.7-1.5-3.7-4l0-1.8
		l2.4,0l0,1.9c0,1.1,0.5,1.6,1.3,1.6c0.8,0,1.3-0.4,1.3-1.8l0-1.3c0-1.5-0.5-2-1.6-2l-0.6,0l0-2.3l0.8,0c0.9,0,1.5-0.4,1.5-1.7
		L111.5,54z"/>
	<path class="st0" d="M121.8,62c-0.6,2.9-1.6,4.3-5.1,4.1l0-2.2c1.3,0.1,2-0.1,2.2-1.3l0-0.1l-3.4-12.3l2.5,0l1.4,5.5l0.8,3.7
		l0.6-3.7l1.2-5.5l2.6,0L121.8,62z"/>
	<path class="st0" d="M126.1,66.1l0-16l7,0l0,2.3l-4.5,0l0,4.1l1.5,0c2.5,0,3.8,1.4,3.8,4l0,1.7c0,2.6-1.3,3.9-3.8,3.9L126.1,66.1z
		 M130.1,63.8c0.8,0,1.3-0.4,1.3-1.5l0-2c0-1.1-0.5-1.5-1.3-1.5l-1.5,0l0,5L130.1,63.8z"/>
	<path class="st0" d="M138.7,56.9l3.4,0l0,2.3l-3.4,0l0,4.7l4.3,0l0,2.3l-6.8,0l0-16l6.8,0l0,2.3l-4.3,0L138.7,56.9z"/>
	<path class="st0" d="M144.4,63.8c1.1,0,1.5-0.2,1.6-1.6l0.4-12.1l7.1,0l0,16l-2.6,0l0-13.7l-2.2,0l-0.3,9.7
		c-0.1,2.9-1.1,4.1-3.7,4.1h-0.4L144.4,63.8z"/>
	<path class="st0" d="M158.5,56.9l3.4,0l0,2.3l-3.4,0l0,4.7l4.3,0l0,2.3l-6.8,0l0-16l6.8,0l0,2.3l-4.3,0L158.5,56.9z"/>
	<path class="st0" d="M167.5,66.2l-2.6,0l0-16l2.2,0l0,10.1l0.9-3.5l2.1-6.6l2.8,0l0,16l-2.3,0l0-11.2l-1,3.9L167.5,66.2z
		 M170.1,46.6c-0.1,0.8-0.5,1-1.1,1c-0.7,0-1-0.2-1.1-1.1l-1.6,0c0,1.6,0.9,2.5,2.6,2.5c1.8,0,2.7-1,2.7-2.5L170.1,46.6z"/>
	<path class="st0" d="M181.9,66.2l-2.6,0l0-16l2.2,0l0,10.1l0.9-3.5l2.1-6.6l2.8,0l0,16l-2.3,0l0-11.2l-1,3.9L181.9,66.2z"/>
	<path class="st0" d="M199.1,61.6l1.7-11.3l3.5,0l0,16l-2.4,0l0-11.5l-1.8,11.4l-2.4,0L196,54.9l0,11.3l-2.2,0l0-16l3.5,0
		L199.1,61.6z"/>
	<path class="st0" d="M209.2,66.2l-2.5,0l0-16l2.5,0l0,6.8l2.9,0l0-6.8l2.6,0l0,16l-2.6,0l0-6.8l-2.9,0L209.2,66.2z"/>
	<path class="st0" d="M216.8,54.1c0-2.6,1.4-4,3.8-4c2.5,0,3.8,1.5,3.8,4l0,8.3c0,2.6-1.4,4-3.8,4c-2.5,0-3.8-1.5-3.8-4L216.8,54.1z
		 M219.3,62.6c0,1.1,0.5,1.6,1.3,1.6c0.8,0,1.3-0.4,1.3-1.6l0-8.6c0-1.1-0.5-1.6-1.3-1.6c-0.8,0-1.3,0.4-1.3,1.6L219.3,62.6z"/>
	<path class="st0" d="M226.6,66.3l0-16l6.6,0l0,2.3l-4.1,0l0,13.7L226.6,66.3z"/>
	<path class="st0" d="M235.3,54.1c0-2.6,1.4-4,3.8-4s3.8,1.5,3.8,4l0,8.3c0,2.6-1.4,4-3.8,4s-3.8-1.5-3.8-4L235.3,54.1z M237.8,62.6
		c0,1.1,0.5,1.6,1.3,1.6c0.8,0,1.3-0.4,1.3-1.6l0-8.6c0-1.1-0.5-1.6-1.3-1.6c-0.8,0-1.3,0.4-1.3,1.6L237.8,62.6z"/>
	<path class="st0" d="M247.6,57.1l3.4,0l0,2.3l-3.4,0l0,4.7l4.3,0l0,2.3l-6.8,0l0-16l6.8,0l0,2.3l-4.3,0L247.6,57.1z"/>
	<path class="st0" d="M265.4,68.5l0-2.1l-5.4,0l0,2.1l-2.4,0l0-4.4l1,0c0.4-0.5,0.6-1.1,0.6-2.1l0.6-11.7l7,0l0,13.7l1.1,0l0,4.4
		L265.4,68.5z M261.7,62c-0.1,1.2-0.3,1.7-0.7,2.1l3.3,0l0-11.5l-2.1,0L261.7,62z"/>
	<path class="st0" d="M277.4,54.3l0,2.1c0,2.6-1.2,3.9-3.7,3.9l-1.2,0l0,6l-2.5,0l0-16l3.7,0C276.1,50.4,277.4,51.8,277.4,54.3z
		 M272.4,52.7l0,5.4l1.2,0c0.8,0,1.2-0.4,1.2-1.5l0-2.4c0-1.1-0.4-1.5-1.2-1.5L272.4,52.7z"/>
	<path class="st0" d="M284.6,62.3c-0.6,2.9-1.6,4.3-5.1,4.1l0-2.2c1.3,0.1,2-0.1,2.2-1.3l0-0.1l-3.4-12.3l2.5,0l1.4,5.5l0.8,3.7
		l0.6-3.7l1.2-5.5l2.6,0L284.6,62.3z"/>
	<path class="st0" d="M289,66.4l0-16l6.6,0l0,2.3l-4.1,0l0,13.7L289,66.4z"/>
	<path class="st0" d="M297.7,54.3c0-2.6,1.4-4,3.8-4c2.5,0,3.8,1.5,3.8,4l0,8.3c0,2.6-1.4,4-3.8,4c-2.5,0-3.8-1.5-3.8-4L297.7,54.3z
		 M300.2,62.7c0,1.1,0.5,1.6,1.3,1.6c0.8,0,1.3-0.4,1.3-1.6l0-8.6c0-1.1-0.5-1.6-1.3-1.6c-0.8,0-1.3,0.4-1.3,1.6L300.2,62.7z"/>
	<path class="st0" d="M310,57.2l3.4,0l0,2.3l-3.4,0l0,4.7l4.3,0l0,2.3l-6.8,0l0-16l6.8,0l0,2.3l-4.3,0L310,57.2z"/>
</g>
</svg>
