<?xml version="1.0" encoding="utf-8"?>
<!-- Generator: Adobe Illustrator 19.0.1, SVG Export Plug-In . SVG Version: 6.00 Build 0)  -->
<svg version="1.1" id="Слой_1" xmlns="http://www.w3.org/2000/svg" xmlns:xlink="http://www.w3.org/1999/xlink" x="0px" y="0px"
	 viewBox="0 0 169.3 133.6" style="enable-background:new 0 0 169.3 133.6;" xml:space="preserve">
<style type="text/css">
	.st0{fill:#000002;}
</style>
<g>
	<g>
		<g>
			<path class="st0" d="M96.3,131.4c-21.6,4.4-29.6,0.6-29.9,0.4c-0.2-0.1-0.3-0.4-0.3-0.6c0,0,0.6-3.4-2.2-6.5
				c-1.5-1.6-3.2-3.5-5-5.4c-8.2-8.7-18.4-19.5-21-30.6c-4-17.3-2.2-33.5,5.2-45.7c0.1-0.1,0.2-0.2,0.3-0.2c0.1,0,9.4-3.8,29.1-6.8
				c12.1-1.8,20.1-1.6,24.8-1.2c5.1,0.5,7.3,1.5,7.4,1.5c0.1,0,0.1,0.1,0.2,0.1c8,8.4,14,20.3,17.2,34.4c2,8.7,0.3,21.3-1.1,31.4
				c-0.4,2.8-0.8,5.5-1,7.7c-0.4,3.6,1.5,6,1.6,6c0.1,0.1,0.2,0.3,0.1,0.5c-0.1,0.4-2.9,9.5-23.1,14.3
				C97.7,131.1,97,131.3,96.3,131.4z M118.7,110c0.2-2.2,0.6-4.9,1-7.7c1.3-9.5,3.1-22.5,1.1-31c-3.2-13.9-9.1-25.6-16.9-33.8
				c-1-0.4-10-3.5-31.4-0.3c-18,2.7-27.3,6.1-28.6,6.6c-7.1,11.9-8.9,27.7-4.9,44.7c2.5,10.8,12.6,21.5,20.7,30.1
				c1.8,1.9,3.5,3.8,5,5.4c2.5,2.8,2.6,5.8,2.5,7c1.7,0.7,10,3.2,28.8-0.7c11.2-2.3,17.3-6,20.3-8.7c2.7-2.3,3.7-4.3,4-5
				C119.8,115.8,118.4,113.4,118.7,110z"/>
		</g>
		<g>
			<path class="st0" d="M103.3,37c0.2-0.1,0.4-0.2,0.4-0.4c0.5-2.4-0.2-4.6-2.1-6.4C96,24.6,79.9,23.3,69,25.6
				c-12.4,2.6-23.6,8.7-25.6,13.8c-0.5,1.5-0.4,2.9,0.6,4c0.2,0.2,0.6,0.3,0.8,0.1c0.3-0.2,0.3-0.6,0.1-0.8
				c-0.7-0.9-0.8-1.8-0.4-2.9c1.8-4.7,12.8-10.6,24.7-13.1c10.6-2.2,26.3-0.9,31.6,4.3c1.6,1.5,2.2,3.3,1.8,5.4
				c-0.1,0.3,0.1,0.6,0.5,0.7C103.2,37.1,103.2,37.1,103.3,37z"/>
		</g>
		<g>
			<path class="st0" d="M125.5,83.9c8.8-2,14.5-8.1,15.6-16.7c0.5-3.7-0.1-7.4-0.7-10.9c-0.3-1.8-0.6-3.6-0.7-5.4
				c-0.1-1.3-0.2-2.6-0.4-3.8c-0.9-8.9-1.8-18.1,4.5-25.1c6.1-6.7,18.1-7.9,24.8-8c0.3,0,0.5-0.2,0.6-0.5c0.1-0.3-0.1-0.5-0.3-0.6
				c-2.2-1-4.5-1.9-6.8-2.7c-0.8-0.3-1.6-0.6-2.4-0.9c0.9-1.9,3.9-7.7,3.9-7.7c0.1-0.2,0.1-0.5-0.1-0.7c-0.2-0.2-0.4-0.2-0.7-0.1
				c-1.1,0.5-3,1.3-5,2.1c-2,0.8-4.2,1.7-5.4,2.2c-5.7,2.6-6.7,3.2-8.7,4.5c-0.4,0.2-0.8,0.5-1.2,0.8c-6.6,4.1-11.6,9.3-14.5,15.1
				c-2.1,4.1-3.1,8.6-4.1,13c-0.4,1.8-0.8,3.7-1.4,5.6c-0.1,0.5-0.3,1.1-0.4,1.8c-0.9,3.7-2.1,8.4-5.7,10.6
				c-0.3,0.2-0.4,0.5-0.2,0.8c0.2,0.3,0.5,0.4,0.8,0.2c4.1-2.4,5.3-7.6,6.2-11.3c0.2-0.6,0.3-1.2,0.4-1.7c0.5-1.9,0.9-3.8,1.4-5.6
				c1-4.3,2-8.8,4-12.8c2.8-5.6,7.7-10.7,14.1-14.6c0.5-0.3,0.9-0.5,1.2-0.8c2-1.3,2.9-1.8,8.6-4.4c1.3-0.6,3.4-1.4,5.4-2.2
				c1.3-0.5,2.6-1,3.6-1.4L159.2,8c-0.8,1.6-0.8,1.6-0.6,1.9c0.1,0.1,0.1,0.1,0.2,0.2c1,0.4,2,0.8,3,1.2c1.4,0.6,2.9,1.1,4.4,1.7
				c-13.4,0.7-19.9,4.8-23.1,8.3c-6.7,7.4-5.8,16.9-4.8,26c0.1,1.3,0.3,2.6,0.4,3.8c0.2,1.8,0.4,3.7,0.7,5.5
				c0.5,3.5,1.1,7.1,0.7,10.6c-1.2,9-7.8,15.1-17.8,16.2c-0.3,0-0.5,0.3-0.5,0.6c0,0.3,0.3,0.5,0.6,0.5
				C123.4,84.4,124.5,84.2,125.5,83.9z"/>
		</g>
		<g>
			<path class="st0" d="M44.9,123C45,123,45,123,44.9,123c4.8-1.1,6.9-4.2,6.4-9.1c-0.6-5.2-4.6-11.2-9.4-14.1c-1.9-1.2-4-2.1-6-3
				c-2.4-1.1-4.9-2.2-7.1-3.7c-4.3-2.8-8.1-6.8-10.9-11.6c-2.9-4.9-4.7-10.3-5.1-15.6c-0.4-5.5,0.3-9.8,2.1-12.8
				c2.1-3.5,6.9-5.8,11.8-5.6c5.1,0.2,9.2,2.9,11.4,7.4c0.1,0.3,0.5,0.4,0.8,0.3c0.3-0.1,0.4-0.5,0.3-0.8c-2.4-4.9-6.9-7.8-12.4-8.1
				c-5.3-0.2-10.5,2.3-12.8,6.1c-1.9,3.2-2.7,7.7-2.2,13.5c0.4,5.5,2.3,11.1,5.2,16.1c2.9,4.9,6.8,9,11.2,12
				c2.3,1.5,4.8,2.7,7.2,3.8c2,0.9,4,1.9,5.9,3c4.4,2.6,8.3,8.4,8.8,13.2c0.5,4.3-1.3,6.8-5.4,7.8c0,0,0,0,0,0
				c-3.6,0.9-7.5-1.2-9.6-3.6c-1.5-1.7-2-3.7-1.4-5.4c0.5-1.4,1.8-2.4,3.6-2.8c1.3-0.3,2.4,0.2,3.1,1.2c0.7,1,0.7,2.3,0.1,3.2
				c-0.2,0.2-0.1,0.6,0.1,0.8c0.1,0.1,0.1,0.1,0.2,0.1c0.3,0.2,0.5,0.3,0.7,0.4l0.2,0.1c0.1,0.1,0.3,0.2,0.5,0.2c0,0,0,0,0.1,0
				c0.2,0.1,0.3,0.1,0.5,0.1l0.2,0.1c0,0,0.1,0,0.2,0c0.2,0,0.5-0.1,0.6-0.4c0.1-0.2,0.1-0.3,0.2-0.5c0.1-0.5,0.2-0.8,0.2-1.3
				c0.3-4.1-1-9.1-4.7-11.2c-3.4-1.8-8.6-3.9-16.1-6.2c-11-3.4-14.9-15.9-16.8-25c-1-4.9-1.2-9.9-0.5-14.1c0-0.3-0.1-0.6-0.4-0.6
				L5,57.1c-0.6-0.1-1.1-0.3-1.7-0.5c-0.9-0.3-1.6-0.9-2-1.7c-0.3-0.6-0.3-1.2,0-1.8c0.6-1.4,2.3-2.5,3.9-2c0.6,0.2,1.2,0.4,1.9,0.5
				c0.3,0.1,0.5-0.1,0.7-0.3c1.2-2.4,2.8-4.4,4.7-5.9c6.9-5.4,21.3-4,28.4,2.6c0.2,0.2,0.6,0.2,0.8,0c0.2-0.2,0.2-0.6,0-0.8
				c-7.6-7.1-22.4-8.5-29.9-2.7c-2,1.5-3.6,3.5-4.9,5.9c-0.4-0.1-0.9-0.2-1.3-0.4c-2.2-0.8-4.6,0.8-5.4,2.7
				c-0.4,0.9-0.3,1.8,0.1,2.6c0.5,1,1.4,1.9,2.6,2.3C3.5,58,4,58.1,4.6,58.2c-0.6,4.3-0.4,9.2,0.6,14c4.2,19.5,12,24.1,17.6,25.8
				c7.3,2.3,12.6,4.3,15.9,6.1c3.3,1.8,4.5,6.3,4.2,10.1c0,0.4-0.1,0.6-0.1,0.9c0,0-0.1,0-0.1,0c-0.1,0-0.2-0.1-0.3-0.1l-0.2-0.1
				c-0.1-0.1-0.2-0.1-0.4-0.2c0.6-1.2,0.5-2.7-0.3-3.9c-0.9-1.4-2.5-2-4.3-1.7c-2.2,0.5-3.8,1.7-4.5,3.5c-0.7,2.1-0.1,4.6,1.6,6.6
				C36.5,121.7,40.8,124,44.9,123z"/>
		</g>
	</g>
	<g>
		<path class="st0" d="M64.8,23.9c2.2,0.9,5.8,2.8,8.1,1.4c2.5-1.6,3.9-5.2,4.6-7.9c0.9-3.3,2.5-9.7-0.9-12.1
			c-1.8-1.3-4.4-0.4-6,0.8c-1.8,1.3-3.2,3.2-3.8,5.4c-1.9-1.5-3.6-3.6-6.1-4c-2.4-0.4-4.9,1.1-5.5,3.5
			C53.8,16.7,60.1,21.8,64.8,23.9z M56.8,13.2c-0.5-3.3,2.3-5.6,5.3-3.7c1.7,1,3,2.6,4.6,3.7c0.2,0.7,1.5,0.6,1.5-0.2
			c0.1-2.9,2.5-6.2,5.5-6.8c2.8-0.5,3.3,2.3,3.3,4.4c0,2-0.3,3.9-0.8,5.8c-0.7,2.6-2.3,8.2-5.8,7.8c-1.5-0.1-3.4-1-4.8-1.6
			c-1.5-0.6-3-1.5-4.3-2.5C59.2,18.4,57.2,16.1,56.8,13.2z"/>
	</g>
	<g>
		<path class="st0" d="M37.6,20.3c2.5,0.5,5,0,7.5-0.1c0.2,0.1,0.5,0.1,0.7,0c0.4,0.4,0.9,0.7,1.4,1.1c1.9,1.4,4,2.6,6.3,3.5
			c0.3,0.1,0.5,0.2,0.8,0.3C53.1,25,52,25.1,51,25.6c-1,0.4-3,1.6-2.1,2.9c0.9,1.4,3.8,0.7,5.1,0.3c2-0.6,4-1.6,5.9-2.6
			c0.1,0,0.2,0,0.3-0.1c0.3,0.1,0.5,0.1,0.8,0.2c0.8,0.2,1.3-0.7,0.9-1.2c0-0.2,0-0.3-0.2-0.4c0-0.1-0.1-0.2-0.2-0.3
			c-0.2-0.1-0.3-0.2-0.4-0.3c-2.1-2.8-5.8-5.6-9.3-6c-0.4,0-0.8,0.3-0.8,0.7c-0.2,2,1.5,3.5,3.6,4.7c-2.3-0.8-4.4-2-6.3-3.4
			c-0.6-0.4-1.2-0.9-1.7-1.4c0.1-1.4,0.7-2.8,0.8-4.2c0.1-1-0.2-2-0.5-2.9c-0.4-1.3-1.3-3.5-3.1-3c-2.2,0.6-1.8,3.8-1,6.5
			c-1.6-1.8-2.9-3.8-4-5.9c-0.1-0.1-0.1-0.2-0.2-0.3c0.1-0.1,0.1-0.2,0.1-0.3c0-2.4-0.3-5.3-1.8-7.3C35.7,0,34.1-0.6,33,0.9
			c-1.2,1.6-1,3.9,0.2,5.5c1.2,1.5,3.1,2.3,4.1,3.9c0.1,0.1,0.2,0.2,0.2,0.2c1.4,2.5,3.2,4.9,5.2,6.9c-1.1-0.4-2.2-0.7-3.2-0.9
			c-1.3-0.3-4-1.1-4.9,0.3C33.5,18.6,36.3,20,37.6,20.3z M36.8,7.6C35.7,6.8,34.5,6,34,4.7c-0.3-0.7-0.4-2,0.1-2.7
			c0.9-1.2,1.6,0.5,1.9,1.3C36.5,4.7,36.8,6.2,36.8,7.6z M56.2,22.5c-1.1-0.6-3.1-1.5-3.7-2.9c2.2,0.6,4.5,2.2,6.1,3.9
			C57.8,23.3,57,22.9,56.2,22.5z M55.6,26.4c0.2,0,0.5,0,0.7,0c-1.6,0.8-3.3,1.4-5,1.5c-2,0,0.4-1,0.9-1.2
			C53.4,26.4,54.5,26.4,55.6,26.4z M45.5,13.4c0.2,1.2-0.2,2.4-0.5,3.6c-0.8-1.8-2.4-6.6-1.1-7C44.9,9.9,45.4,12.7,45.5,13.4z
			 M36.2,17.5c1-0.6,4,0.7,4.9,1c0.4,0.1,0.9,0.3,1.3,0.4C41.8,19,41,19,40.3,19c-1,0-2,0-3-0.3C36.7,18.5,35.6,17.8,36.2,17.5z"/>
	</g>
	<g>
		<path class="st0" d="M70.6,124.1c0.1,0.1,0.1,0.2,0.2,0.2c1.4,0.9,3.1,2.7,4.9,2.1c0.5-0.2,0.8-0.7,0.4-1.2
			c-0.4-0.5-0.9-0.9-1.4-1.3c1-0.1,2.1-0.2,3.1-0.3c0,0.1,0.1,0.2,0.3,0.3c1.1,0.8,3.1,2.4,4.5,1.5c0.3-0.2,0.6-0.6,0.3-1
			c-0.4-0.5-0.9-1-1.4-1.4c0.7-0.1,1.4-0.3,2.1-0.4c1.4,1.3,4,2.3,5.9,1.9c0.5-0.1,0.7-0.6,0.5-1.1c-0.4-0.8-1.1-1.4-2-1.8
			c1.4-0.4,2.9-0.7,4.3-1.1c0.9,2,4.8,3.4,6.7,2.5c0.5-0.2,0.5-0.8,0.2-1.1c-0.9-1.1-2.3-1.8-3.7-2.2c1.5-0.4,3-0.9,4.4-1.3
			c0,0,0.1,0,0.1,0c0,0,0,0,0,0c2.1,0.7,4.3,3.2,6.7,2.1c0.5-0.2,0.5-0.8,0.2-1.1c-0.7-0.9-1.9-1.7-3.1-2.1c2.2-0.7,4.3-1.4,6.5-2.2
			c0,0,0,0,0,0.1c0.9,1.1,5.9,4.3,7.1,2.4c1.1-1.6-2-2.9-4.3-3.6c1.8-0.7,3.5-1.5,5.2-2.4c0,0.1,0.1,0.1,0.1,0.2
			c1.3,1.5,3.8,2.5,5.8,1.7c0.3-0.1,0.6-0.7,0.3-1c-0.9-1.1-2.2-1.8-3.7-2.3c1.3-0.7,2.5-1.5,3.7-2.4c0.3,0.2,0.9,0.2,1.2-0.1
			c0.9-1.1,2.3-1.8,2.9-3.1c0.4-0.8,0.2-2.3-1-2.3c-1,0-1.8,1.1-2.3,1.8c-0.5,0.7-1.1,1.5-1.4,2.3c0,0.1,0,0.1-0.1,0.2
			c-1.4,1-2.9,1.9-4.4,2.8c0.5-1.9,1.3-5.2-1.1-4.7c-2,0.4-1.1,4.3-0.8,5.7c-1.7,0.9-3.5,1.7-5.3,2.4c0.6-1.7,0.7-3.4-0.5-4.9
			c-0.3-0.4-1-0.2-1.2,0.1c-1,1.7-1.6,3.9-0.9,5.8c-2.2,0.8-4.4,1.5-6.6,2.2c1.1-1.8,2.1-4.2,0.6-4.7c-1.9-0.7-3.5,4-3.6,5.6
			c-0.3,0.1-0.7,0.2-1,0.3c-1.2,0.3-2.4,0.7-3.6,1c1-1.6,1.6-3.4,0.7-4.8c-0.2-0.3-0.7-0.5-1.1-0.3c-2.4,1.2-2.3,4-3.4,6.1
			c0,0,0,0,0,0.1c-2,0.5-3.9,1-5.9,1.5c1.1-1.3,2.6-2.7,1.2-4.2c-0.3-0.3-0.8-0.2-1.1,0c-1.6,1.1-2.5,3-3.1,4.8c0,0,0,0.1,0,0.1
			c-1,0.2-2.1,0.4-3.1,0.5c0.6-0.8,1.1-1.7,1.4-2.7c0.2-0.6-0.3-1-0.9-0.9c-1.7,0.2-2.7,2.3-3,3.9c-1.3,0.1-2.5,0.2-3.8,0.3
			c0.9-0.6,1.6-1.4,1-2.5c-0.3-0.4-0.8-0.4-1.2-0.2c-0.8,0.6-1.7,1.4-2.1,2.4c-0.1,0.1-0.2,0.1-0.2,0.2c-0.1,0.1-0.2,0.2-0.2,0.3
			c-0.2,0.1-0.3,0.4-0.3,0.6C70.2,123.6,70.3,123.9,70.6,124.1z M120.9,111.7c0.4,0.1,0.8,0.3,1.2,0.5
			C121.7,112.1,121.3,111.9,120.9,111.7z M110.9,112.2c0-0.6,0.1-1.2,0.3-1.8C111.2,111,111.1,111.6,110.9,112.2z M94.6,120.9
			c0.8,0.2,1.5,0.5,2.2,0.9C96,121.6,95.2,121.3,94.6,120.9z M93.7,118.1c0.3-1.1,0.7-2.3,1.3-3.1C95,116,94.3,117.2,93.7,118.1z"/>
	</g>
</g>
</svg>
