<?xml version="1.0" encoding="utf-8"?>
<!-- Generator: Adobe Illustrator 19.0.1, SVG Export Plug-In . SVG Version: 6.00 Build 0)  -->
<svg version="1.1" id="Слой_1" xmlns="http://www.w3.org/2000/svg" xmlns:xlink="http://www.w3.org/1999/xlink" x="0px" y="0px"
	 viewBox="0 0 24.7 26.3" style="enable-background:new 0 0 24.7 26.3;" xml:space="preserve">
<style type="text/css">
	.st0{fill:#9AC359;}
	.st1{fill:#FFFFFF;}
</style>
<path class="st0" d="M22.9,26.3l-21-0.1c-1,0-1.8-0.8-1.8-1.8L0.1,1.8c0-1,0.8-1.8,1.8-1.8l21,0.1c1,0,1.8,0.8,1.8,1.8l-0.1,22.6
	C24.7,25.5,23.9,26.3,22.9,26.3"/>
<path class="st1" d="M15.7,10.1c-1.4-1.3-2.8-2.5-4.1-3.8C10,5,7.7,7.2,9.3,8.5c1.1,1,2.1,1.9,3.2,2.9c0.5,0.5,1.1,1,1.6,1.4
	c0.2,0.1,0.4,0.3,0.6,0.5c-0.3,0.3-0.6,0.7-0.8,0.9c-0.5,0.6-1,1.3-1.5,1.9c-0.9,1.3-1.7,2.6-2.3,4c-0.8,1.9,2.2,2.8,3,0.9
	c0.6-1.5,1.6-2.8,2.6-4c0.8-1,2.3-2.3,2.5-3.7C18.3,11.9,16.6,11,15.7,10.1"/>
</svg>
