<?xml version="1.0" encoding="utf-8"?>
<!-- Generator: Adobe Illustrator 19.0.1, SVG Export Plug-In . SVG Version: 6.00 Build 0)  -->
<svg version="1.1" id="Слой_1" xmlns="http://www.w3.org/2000/svg" xmlns:xlink="http://www.w3.org/1999/xlink" x="0px" y="0px"
	 viewBox="0 0 73.7 57.3" style="enable-background:new 0 0 73.7 57.3;" xml:space="preserve">
<style type="text/css">
	.st0{fill:#000002;}
</style>
<g>
	<g>
		<path class="st0" d="M52.6,35.8c1-2.8-5.6-2.9-9-2.8c0.4-0.4,0.9-0.8,1.3-1.2c4.1-3.7,8-7.7,11.2-12.3c0.5-0.8-0.6-1.5-1.2-0.8
			c-3.1,4.5-7,8.3-10.9,12c-0.2,0.2-0.4,0.3-0.5,0.5c0.3-1.2,0.3-2.4,0.2-3.5c-0.1-1.1-0.9-4.3-2.6-3c-1.2,0.9-1.2,3.4-1.3,4.7
			c-0.1,1.5-0.2,3.4,0.4,4.8c-2.6,2.3-5.4,4.5-8.1,6.6c0.6-1.2,1.1-2.5,1-4c0-1.2-0.4-3.4-2.1-2.8c-2.9,0.9-1.8,7-1.9,9.1
			c0,0,0,0,0,0c-3.9,2.8-8,5.5-12.4,7.4c-0.1,0-0.1,0-0.2,0.1c1.9-2.6,4.9-7.1,2.5-8.2c-3.2-1.5-4.2,6.1-4.7,8.8
			c-0.1,0.2-0.2,0.3-0.3,0.4c0,0,0,0,0,0C9.6,53.1,5,54,0.5,55.1c-0.9,0.2-0.6,1.6,0.3,1.4c4.7-1.1,9.4-2.1,13.9-3.7
			c1.8,1.3,3.3,3,5.4,3.9c1.1,0.5,3.9,1.2,4.7-0.5c0.6-1.3-1.1-2.4-1.9-2.9c-1.6-1-3.4-1.4-5.2-1.8c4.4-2,8.7-4.8,12.7-7.7
			c1,0.6,1.8,1.5,2.9,2.1c1,0.5,2,1.1,3,1.4c1.1,0.4,3.3,0.5,3.2-1.4c-0.1-1.5-2.2-2.1-3.4-2.5c-1.2-0.4-2.5-0.8-3.8-1
			c3.2-2.5,6.4-5.1,9.5-7.8c1.9,1,3.9,2,6.1,2.4C49,37.4,52,37.6,52.6,35.8z M30.7,36.3c0.7-1.9,0.9,0.3,0.9,1.1
			c0,1.3-0.6,2.5-1.2,3.6C30.3,39.4,30.2,37.8,30.7,36.3z M21.3,54.1c0.4,0.2,0.8,0.4,1.2,0.7c0.5,0.3,1.1,0.6,0.6,1
			c-1.2,0.9-3.8-1.1-4.6-1.7c-0.5-0.4-0.9-0.8-1.4-1.1C18.6,53.1,20,53.5,21.3,54.1z M18.1,43.9c0.8,0.1-0.6,2.4-1.9,4.5
			C16.7,46.1,17.4,43.7,18.1,43.9z M33.9,44.3c1,0.3,3.2,0.6,3.8,1.5c0.6,0.8-0.6,0.4-1.1,0.2c-0.8-0.3-1.5-0.6-2.3-1
			c-0.5-0.3-0.9-0.6-1.4-0.9C33.3,44.2,33.6,44.3,33.9,44.3z M41.2,33.1c-0.2-0.8-0.1-1.8-0.1-2.5c0-1.3,0.1-2.6,0.4-3.8
			c0.1-0.2,0.1-0.5,0.2-0.7c0-0.1,0.1-0.1,0.1-0.2c0,0.1,0,0.1,0.1,0.2c0.3,0.6,0.4,1.6,0.4,2.3C42.4,30,42.1,31.9,41.2,33.1z
			 M46.5,35.3c-0.8-0.3-1.5-0.6-2.3-0.9c1.2,0,2.4-0.1,3.6,0.1c0.5,0.1,3.4,0.5,3.3,1C51,36.5,46.9,35.5,46.5,35.3z"/>
	</g>
	<g>
		<path class="st0" d="M45.2,19.5c0-0.1-0.1-0.1-0.1-0.2c-0.1-0.3,0.1-0.6,0.4-0.8l9.2-4.6L50.4,2.3c-0.1-0.3,0-0.6,0.3-0.8
			c0.3-0.2,0.6-0.1,0.9,0.1l7.7,7.7l8.1-9.1c0.2-0.3,0.6-0.3,0.9-0.1c0.3,0.2,0.4,0.5,0.3,0.9l-4.7,11.4l9.5,3.8
			c0.3,0.1,0.5,0.4,0.4,0.8c-0.1,0.3-0.3,0.6-0.6,0.6l-11,0.7l-2,10.1c-0.1,0.3-0.3,0.5-0.6,0.6c-0.3,0-0.6-0.2-0.7-0.5l-2.8-8.9
			l-10.1,0.3C45.6,19.8,45.3,19.6,45.2,19.5z M52.8,4.8l3.4,9.1c0.1,0.3,0,0.7-0.3,0.9l-6.9,3.5l7.5-0.2c0.3,0,0.6,0.2,0.7,0.5
			l2.2,6.8l1.6-8c0.1-0.3,0.3-0.5,0.6-0.6l8.5-0.5l-7.3-2.9c-0.2-0.1-0.3-0.2-0.4-0.4c-0.1-0.2-0.1-0.4,0-0.5l3.4-8.3l-5.9,6.6
			c-0.1,0.1-0.3,0.2-0.5,0.2c-0.2,0-0.4-0.1-0.5-0.2L52.8,4.8z"/>
	</g>
</g>
</svg>
