<?xml version="1.0" encoding="utf-8"?>
<!-- Generator: Adobe Illustrator 19.0.1, SVG Export Plug-In . SVG Version: 6.00 Build 0)  -->
<svg version="1.1" id="Слой_1" xmlns="http://www.w3.org/2000/svg" xmlns:xlink="http://www.w3.org/1999/xlink" x="0px" y="0px"
	 viewBox="0 0 49.7 53.9" style="enable-background:new 0 0 49.7 53.9;" xml:space="preserve">
<style type="text/css">
	.st0{fill:#201600;}
	.st1{fill:none;stroke:#201600;stroke-width:2;stroke-miterlimit:10;stroke-dasharray:6,3;}
</style>
<g>
	<g>
		<path class="st0" d="M38.9,2.2c2.7,3,5.5,5.8,8.6,8.4c0.1-0.7,0.2-1.3,0.3-2c-3,2-6.1,4-9.1,5.9c-1.3,0.9-0.1,3,1.3,2.2
			c3-2,6.1-4,9.1-5.9c0.6-0.4,0.9-1.4,0.3-2c-3.1-2.6-5.9-5.4-8.6-8.4C39.6-0.8,37.9,1,38.9,2.2L38.9,2.2z"/>
	</g>
</g>
<path class="st1" d="M37.8,8.5c-12.4-3.3-44.7,13.7-35,45"/>
</svg>
