<?xml version="1.0" encoding="utf-8"?>
<!-- Generator: Adobe Illustrator 19.0.1, SVG Export Plug-In . SVG Version: 6.00 Build 0)  -->
<svg version="1.1" id="Слой_1" xmlns="http://www.w3.org/2000/svg" xmlns:xlink="http://www.w3.org/1999/xlink" x="0px" y="0px"
	 viewBox="0 0 103 25.4" style="enable-background:new 0 0 103 25.4;" xml:space="preserve">
<style type="text/css">
	.st0{fill:#201600;}
</style>
<g>
	<path class="st0" d="M0.8,0.8l0,24.4l-0.8,0L0,0l9.4,0l0,0.8L0.8,0.8z"/>
	<path class="st0" d="M17.9,0.8l-0.8,18.4c0,0.7-0.1,1.5-0.2,2.2c-0.1,0.7-0.2,1.4-0.5,1.9c-0.3,0.6-0.6,1-1.2,1.4
		c-0.5,0.4-1.2,0.5-2.1,0.6l-0.3,0l0-0.8c0.8,0,1.4-0.2,1.9-0.5s0.8-0.7,1-1.2s0.4-1.1,0.4-1.7c0-0.6,0.1-1.3,0.1-1.9L17.1,0l8.7,0
		l0,25.2l-0.8,0l0-24.4L17.9,0.8z"/>
	<path class="st0" d="M31.7,19.3l-1.5,5.9l-0.7,0L35.7,0l1.1,0l6.2,25.2l-0.8,0l-1.5-5.9L31.7,19.3z M31.9,18.6l8.7,0L36.2,1
		L31.9,18.6z"/>
	<path class="st0" d="M51.7,0.1c1.8,0,3.1,0.5,3.8,1.4c0.7,0.9,1.1,2.2,1.1,3.9l0,1.6c0,1.4-0.3,2.5-0.7,3.4
		c-0.5,0.8-1.4,1.3-2.9,1.6c1.5,0.2,2.5,0.8,3.2,1.8c0.6,1,0.9,2.2,0.9,3.6l0,2.2c0,1.8-0.4,3.2-1.3,4.2c-0.8,1-2.2,1.6-4.1,1.6
		l-5.1,0l0-25.2L51.7,0.1z M51.7,24.5c1.7,0,2.8-0.4,3.5-1.3c0.7-0.9,1-2.1,1-3.7l0-2.3c0-1.8-0.4-3.1-1.3-3.9
		c-0.9-0.7-2.2-1.1-3.9-1.1l-3.6,0l0,12.3L51.7,24.5z M50.7,11.5c0.9,0,1.6-0.1,2.3-0.2c0.6-0.1,1.2-0.3,1.6-0.7
		c0.4-0.3,0.7-0.8,0.9-1.4c0.2-0.6,0.3-1.3,0.3-2.2l0-1.7c0-1.5-0.3-2.6-0.8-3.4c-0.6-0.8-1.6-1.1-3.2-1.1l-4.2,0l0,10.7L50.7,11.5z
		"/>
	<path class="st0" d="M61.5,13.1l0,12.2l-0.8,0l0-25.2l0.8,0l0,12.2l9.1,0l0-12.2l0.8,0l0,25.2l-0.8,0l0-12.2L61.5,13.1z"/>
	<path class="st0" d="M77.3,19.4l-1.5,5.9l-0.7,0l6.1-25.2l1.1,0l6.2,25.2l-0.8,0l-1.5-5.9L77.3,19.4z M77.4,18.7l8.7,0L81.8,1.1
		L77.4,18.7z"/>
	<path class="st0" d="M99.1,13.8c-0.8,0-1.6,0.1-2.2,0.2s-1.3,0.4-1.7,0.7c-0.5,0.3-0.9,0.8-1.1,1.4c-0.3,0.6-0.4,1.4-0.4,2.3l0,4
		c0,0.6,0,1.1-0.1,1.6c-0.1,0.5-0.2,1-0.5,1.4l-0.9,0c0.3-0.4,0.5-0.9,0.6-1.4c0.1-0.6,0.1-1.1,0.1-1.5l0-4c0-1.4,0.3-2.5,0.9-3.4
		c0.6-0.9,1.6-1.4,3.1-1.6c-1.4-0.3-2.4-0.8-3-1.7c-0.6-0.9-1-2.1-0.9-3.6l0-2.3c0-1.7,0.4-3.1,1.2-4.1s2.1-1.5,4-1.5l5,0l0,25.2
		l-0.8,0l0-11.6L99.1,13.8z M98.1,0.9c-1.6,0-2.8,0.4-3.4,1.3s-1,2.1-1,3.6l0,2.3c0,1,0.1,1.8,0.4,2.4c0.3,0.6,0.6,1.1,1.1,1.5
		c0.5,0.4,1,0.6,1.7,0.7s1.5,0.2,2.3,0.2l3.1,0l0-12.1L98.1,0.9z"/>
</g>
</svg>
