<?xml version="1.0" encoding="utf-8"?>
<!-- Generator: Adobe Illustrator 21.0.0, SVG Export Plug-In . SVG Version: 6.00 Build 0)  -->
<svg version="1.1" id="_x33__части__x28_копия_x29_"
	 xmlns="http://www.w3.org/2000/svg" xmlns:xlink="http://www.w3.org/1999/xlink" x="0px" y="0px" viewBox="0 0 225.5 76"
	 style="enable-background:new 0 0 225.5 76;" xml:space="preserve">
<style type="text/css">
	.st0{fill:#9AC359;}
	.st1{fill:#FFFFFF;}
	.st2{fill:#0E0F0F;}
</style>
<g>
	<path d="M121.9,38.6l-2,2.9l0,9.7l-0.8,0l0-25.5l0.8,0l0,14.4l9.8-14.4l0.9,0l-8.2,12l8.8,13.4l-0.9,0L121.9,38.6z"/>
	<path d="M137.2,45.2l-1.5,6l-0.8,0l6.4-25.5l1.2,0l6.5,25.5l-0.8,0l-1.5-6L137.2,45.2z M137.3,44.5l9.1,0l-4.6-17.8L137.3,44.5z"/>
	<path d="M164.2,28.7c2.2,0,3.7,0.6,4.7,1.7c0.9,1.2,1.4,2.7,1.4,4.7l0,6.9c0,2-0.5,3.6-1.4,4.7c-0.9,1.1-2.5,1.7-4.7,1.7l-2.4,0
		l0,2.7l-0.8,0l0-2.7l-2.4,0c-1.1,0-2-0.1-2.8-0.4c-0.8-0.3-1.4-0.7-1.9-1.3c-0.5-0.6-0.8-1.2-1-2c-0.2-0.8-0.3-1.7-0.3-2.7l0-6.9
		c0-1,0.1-1.9,0.3-2.7c0.2-0.8,0.6-1.5,1-2c0.5-0.6,1.1-1,1.9-1.3c0.8-0.3,1.7-0.4,2.8-0.4l2.4,0l0-2.9l0.8,0l0,2.9L164.2,28.7z
		 M158.7,29.4c-1,0-1.8,0.1-2.4,0.4c-0.7,0.3-1.2,0.6-1.6,1.1c-0.4,0.5-0.7,1.1-0.9,1.8c-0.2,0.7-0.3,1.5-0.3,2.4l0,7
		c0,0.9,0.1,1.7,0.3,2.4c0.2,0.7,0.5,1.3,0.9,1.8c0.4,0.5,1,0.9,1.6,1.1c0.7,0.3,1.5,0.4,2.4,0.4l2.4,0l0-18.4L158.7,29.4z
		 M164.2,47.8c1.9,0,3.3-0.5,4-1.5c0.8-1,1.2-2.4,1.2-4.2l0-7c0-1.8-0.4-3.2-1.2-4.2c-0.8-1-2.1-1.5-4.1-1.5l-2.4,0l0,18.4
		L164.2,47.8z"/>
	<path d="M182.6,38l0,0.7l-7.7,0l0,11.8l9.2,0l0,0.8l-10,0l0-25.5l10,0l0,0.8l-9.2,0l0,11.4L182.6,38z"/>
</g>
<path class="st0" d="M223.2,56.7L197,56.6c-1.2,0-2.2-1-2.2-2.3l0.1-28c0-1.2,1-2.2,2.3-2.2l26.1,0.1c1.2,0,2.2,1,2.2,2.3l-0.1,28
	C225.4,55.7,224.4,56.7,223.2,56.7"/>
<path class="st1" d="M214.3,36.6c-1.7-1.6-3.4-3.1-5.1-4.7c-1.9-1.7-4.7,1-2.9,2.7c1.3,1.2,2.6,2.4,3.9,3.6c0.7,0.6,1.3,1.2,2,1.8
	c0.2,0.2,0.5,0.4,0.8,0.6c-0.4,0.4-0.8,0.8-1,1.1c-0.6,0.8-1.3,1.6-1.9,2.4c-1.1,1.6-2.1,3.2-2.9,5c-1,2.3,2.8,3.4,3.8,1.1
	c0.8-1.8,2-3.5,3.2-5c1-1.3,2.9-2.9,3.1-4.6C217.5,38.9,215.4,37.6,214.3,36.6"/>
<g>
	<path class="st2" d="M87.3,4c-1.6-2.7-4.6-3.3-7.6-3.7C75.8-0.2,71.8,0,67.9,0.5C64,1,60.1,1.8,56.2,2.8c-3.8,1-7.5,2.5-10.8,4.7
		c-1.4,1-2.9,2.1-3.8,3.5c-1.6,2.3-0.6,5.4-0.1,7.9c-2.4-1.7-5.3-2.5-8.2-2.2c-1.6,0.1-3.4,0.6-4.7,1.6c-1.4,1-1.9,2.7-2.2,4.3
		c-1.3,7.2,3.2,14.3,10.2,16.4c1.6,0.5,3.2,0.7,4.8,1c1.6,0.3,3.1,0.7,4.7,1.2c2.2,0.7,4.3,1.7,6.3,2.8c2.7,1.5,5.4,3.2,7.7,5.3
		c0.8,0.7,1.4,1.5,1.9,2.4c0.5,1,1,1.6,2.1,2c1.2,0.4,2.4,0.5,3.7,0.4c2.3-0.1,4.7-0.2,7-0.4c2.3-0.3,4.6-0.7,6.8-1.5
		c1.1-0.4,2.2-0.8,3.2-1.4c0.7-0.4,1.6-0.8,2.2-1.3c1.1-0.9,0.5-1.7,0.4-2.9c0-1,0-2,0.2-3c0.2-2,0.7-3.9,1.2-5.8
		c0.9-3.7,1.4-7.4,1.6-11.1c0.2-4.4-0.1-8.7-0.8-13.1c-0.5-3.2-0.6-6.6-2.2-9.5C87.3,4.1,87.3,4,87.3,4z M43.3,10
		c1.4-1.4,3.2-2.5,4.9-3.5c3.6-1.9,7.5-3.1,11.5-3.9c4-0.9,8-1.6,12-1.9c3.8-0.3,8-0.3,11.7,0.9c1.4,0.5,2.9,1.3,3.4,2.8
		c-0.1,1.6-1.1,3-2.2,4.1c-1.4,1.4-3.1,2.5-4.8,3.5c-3.5,2.1-7.4,3.4-11.4,4.3c-4.3,0.9-8.7,1.3-13,1.6c-3.8,0.3-8.3,1.1-11.8-1.1
		c-0.7-0.4-1.3-1-1.8-1.7C40.7,13.5,41.9,11.4,43.3,10z M47.4,36.8c0.5,0.9,1.1,1.8,1.7,2.6c-2.9-1.2-6.1-1.4-9.2-2
		c-3.5-0.7-7-2.3-8.3-5.8C31,29.8,31,27.8,31,25.9c0-1.6,0.2-3.5,1.7-4.4c1.5-0.9,3.9-0.3,5.4,0.2c1.7,0.5,3.2,1.5,4.5,2.7
		C43.7,28.7,45.2,32.9,47.4,36.8z M44.8,40c-3.7-1.1-7.8-1.1-11.2-3.1c-3.3-1.9-5.6-5.1-6.5-8.7c-0.5-2-0.5-4-0.1-6
		c0.2-0.9,0.5-1.7,0.9-2.5c0.6-0.9,1.6-1.5,2.6-1.8c3.7-1.3,8.1-0.5,11.1,2c0.2,1.1,0.5,2.2,0.7,3.4c-2.4-1.9-5.5-3.1-8.5-2.8
		c-3.9,0.5-3.6,5-3.5,7.9c0.1,1.9,0.6,3.8,1.7,5.4c0.9,1.3,2.3,2.3,3.7,3c3.3,1.6,6.9,1.6,10.4,2.4c1.2,0.3,2.4,0.7,3.5,1.2
		c0.1,0,0.2,0,0.2,0c0.8,1,1.7,2,2.6,2.9C50.1,41.9,47.5,40.8,44.8,40z M89.6,27.2c-0.2,3.8-0.8,7.5-1.7,11.2
		c-0.4,1.8-0.7,3.6-0.9,5.5c-0.1,0.9-0.1,1.9-0.2,2.8c0,0.5,0.1,1.1,0,1.6c-0.2,0.7-1.1,1-1.6,1.4c-0.8,0.4-1.5,0.8-2.3,1.2
		c-1.6,0.7-3.3,1.2-5,1.6c-0.9,0.2-1.9,0.2-2.7,0.5c-2.2,0.3-4.4,0.4-6.6,0.5c-1.8,0.1-4.7,0.5-5.8-1.3c-0.8-1.3-1.4-2.4-2.5-3.4
		c-1.1-1-2.4-1.9-3.6-2.8c-0.2-0.1-0.3-0.2-0.5-0.4c-3.1-2.3-5.8-5.1-7.8-8.4c-3.2-5.2-4.9-11.1-6-17.1c0.1-0.1,0.1-0.3-0.1-0.4
		c0,0,0,0,0,0c-0.2-1.1-0.4-2.2-0.6-3.2c1.7,2,4.6,2.8,7.2,2.8c2.1,0.1,4.1-0.2,6.2-0.3c2.2-0.1,4.3-0.3,6.5-0.6
		c8-0.9,16.1-3,22.4-8.2c1.5-1.2,3-2.8,3.4-4.7C88.9,12.5,89.9,19.8,89.6,27.2z"/>
	<path class="st2" d="M86.5,16c-0.4,0.3-0.7,0.8-1,1.2c-0.4,0.4-0.7,0.9-1.1,1.3c-1.2,0.7-2.4,1.2-3.7,1.7c0.9-1,1.6-2.2,1-3.5
		c-0.1-0.2-0.2-0.3-0.4-0.2c-0.9,0.2-1.2,1.1-1.5,1.8c-0.4,0.8-0.6,1.7-0.8,2.5c-0.9,0.3-1.8,0.6-2.7,0.9c0.9-0.9,1.7-2.2,1.2-3.3
		c-0.3-0.6-1.2,0.3-1.4,0.6c-0.7,0.9-1.1,2.1-1.5,3.2c-1.5,0.4-3.1,0.7-4.7,0.9c0.4-0.3,0.8-0.7,1.1-1.1c0.4-0.4,1-1.2,0.6-1.7
		c-0.8-1.1-2.8,2.1-3.3,3c-1.2,0.1-2.4,0.2-3.7,0.3c-0.2,0-0.5,0-0.7,0c0.4-0.2,0.7-0.5,1.1-0.8c0.6-0.6,1.3-1.3,1.2-2.2
		c0-0.1-0.1-0.3-0.3-0.3c-0.8-0.1-1.5,0.6-2,1.1c-0.7,0.7-1.2,1.4-1.7,2.3c-1.3,0-2.7,0-4-0.1c0.5-0.3,1.1-0.6,1.5-1
		c0.5-0.4,1.3-1.3,0.7-1.9c-0.1-0.1-0.2-0.1-0.3-0.1c-1.5,0.4-2.5,1.6-3.4,2.8c0,0-0.1,0.1-0.1,0.2c-0.8-0.1-1.7-0.1-2.5-0.2
		c-1.2-0.1-2.5-0.2-3.7-0.5c0.3-0.2,0.6-0.4,0.9-0.7c0.5-0.4,0.9-1,0.6-1.6c-0.3-0.6-1.2-0.1-1.5,0.1c-0.7,0.4-1.3,1.1-1.7,1.7
		c-0.7-0.2-1.4-0.5-2.1-0.8c0.4-0.2,0.9-0.4,1.3-0.7c0.4-0.2,0.8-0.6,0.5-1.1c-0.3-0.5-1.1-0.3-1.5-0.2c-0.7,0.1-1.7,0.4-2.2,0.9
		c0,0-0.1,0.1-0.1,0.1c-0.1,0.1-0.1,0.2-0.1,0.2c0,0,0,0.1,0,0.1c0,0,0,0.1,0,0.1c0,0.4,0.3,0.9,0.3,1.2l0.7,2.8
		c0.1,0.4,0.4,1.2,0.9,1.1c0.5-0.1,0.7-0.4,0.7-0.9c-0.1-1.2-0.6-2.3-1.3-3.3c0.8,0.4,1.6,0.7,2.4,1c0,0.1,0,0.1,0.1,0.2
		c0,0,0,0,0.1,0.1c0.1,1.4,0.6,5.4,2,4.5c0.7-0.4,0.2-1.7,0-2.2c-0.3-0.8-0.7-1.5-1.2-2.2c0,0,0,0,0,0c1.1,0.5,2.2,1,3.2,1.7
		c0.2,1.1,0,2.2,0,3.3c0,0.5,0,2.3,0.8,2.2c0.8,0,1-1.1,0.9-1.7c-0.1-1.1-0.5-2.2-0.9-3.2c1.1,0.9,2.2,1.9,3.1,3
		c-0.1,1.2-0.5,2.2-0.9,3.4c-0.1,0.5-0.4,1.9,0.4,2c0.9,0.1,1.1-0.9,1.2-1.6c0.1-0.9,0.1-1.7,0-2.6c0,0,0,0,0.1,0
		c0.1,0.1,0.2,0.3,0.3,0.4c0.5,0.8,1,1.7,1.5,2.6c-0.4,1.4-1.3,2.5-1.7,3.9c0,0.1,0,0.3,0.2,0.4c0,0,0.1,0.1,0.1,0.1
		c0.1,0.1,0.2,0.1,0.3,0.1c1.3-0.5,1.7-1.7,1.7-2.9c0.3,0.7,0.6,1.5,0.8,2.3c-0.7,0.7-1.3,1.4-1.9,2.2c-0.3,0.4-0.7,1.5,0,1.7
		c0.7,0.2,1.3-0.6,1.6-1.1c0.3-0.4,0.5-0.9,0.7-1.5c0.3,1.1,0.6,2.2,0.9,3.3c-0.1,0.1-0.1,0.2,0,0.3c-0.2,1-0.9,4.7,1,4.4
		c1.8-0.3,0.5-3.1-0.2-4.3c0,0,0-0.1,0-0.1c-0.3-1.1-0.6-2.2-0.9-3.3c0.7,0.6,1.4,1.2,2.3,1.5c0.1,0,0.3,0,0.3-0.1
		c0.6-0.7-0.2-1.4-0.7-1.8c-0.4-0.3-0.8-0.5-1.3-0.8c-0.3-0.2-0.7-0.4-1.1-0.5c0-0.1-0.1-0.2-0.2-0.3c-0.2-0.5-0.4-1.1-0.6-1.6
		c0.9,0.5,1.9,0.7,2.7,0.5c0.2-0.1,0.3-0.3,0.2-0.5c-0.8-1.4-2.5-1.3-3.7-2c0-0.1-0.1-0.2-0.2-0.2c-0.3-0.6-0.6-1.2-0.9-1.7
		c0.2,0.1,0.5,0.2,0.7,0.3c0.6,0.2,1.8,0.6,2.4,0c0.6-0.7-0.7-1.4-1.2-1.6c-1.1-0.5-2.3-0.6-3.4-0.9c0,0,0-0.1-0.1-0.1
		c0,0,0,0-0.1-0.1c-0.3-0.3-0.5-0.6-0.8-0.9c0.7,0.1,1.4,0.1,1.6-0.6c0.1-0.1,0.1-0.3-0.1-0.4c-0.5-0.6-1.1-0.9-1.9-1.2
		c-0.8-0.2-1.7,0-2.4-0.4c-0.1-0.1-0.2-0.1-0.2,0c-0.1,0-0.1-0.1-0.2-0.1c0-0.1-0.1-0.1-0.2-0.1c-0.4-0.3-0.8-0.5-1.2-0.7
		c0.5,0.1,0.9,0.1,1.4,0.2c1.3,0.1,2.6,0.2,3.9,0.3c0.4,0.6,0.9,1.2,1.5,1.7c0.4,0.3,1.5,1.2,2,0.9c1.1-0.6-0.2-1.7-1.4-2.5
		c1,0,2.1,0,3.1,0c0.2,0.6,0.5,1.2,0.9,1.7c0.3,0.4,1.1,1.2,1.7,0.8c1.3-0.7-0.2-1.9-1.2-2.5c0.2,0,0.3,0,0.5,0
		c1.4-0.1,2.7-0.1,4.1-0.3c0.6,1.1,1.6,1.9,2.9,2.2c0.2,0,0.3,0,0.4-0.2c0.6-0.9-0.6-1.7-1.6-2.2c1.6-0.2,3.2-0.5,4.7-0.9
		c0.3,0.2,0.5,0.6,0.8,0.8c0.3,0.3,0.7,0.5,1,0.7c0.7,0.4,1.6,0.4,2.3,0.3c0.2,0,0.3-0.3,0.2-0.4c-0.2-0.9-0.8-1.3-1.6-1.6
		c-0.3-0.1-0.6-0.2-1-0.3c0.8-0.2,1.6-0.5,2.4-0.8c0.4,0.5,1.3,0.8,1.6,0.9c0.6,0.2,2.4,0.5,2.3-0.6c-0.1-0.5-0.7-0.7-1.1-0.8
		c-0.3-0.1-0.6-0.2-0.9-0.2c1.2-0.5,2.3-1,3.5-1.6c0.1,0,0.1,0,0.2,0c0.9-0.2,1.7-0.7,2.3-1.2c0.5-0.5,1.2-1.1,0.9-1.9
		C87.9,15.4,87,15.7,86.5,16z M46.7,25.3c-0.3-0.4-0.3-1-0.4-1.4l-0.3-1c0.3,0.5,0.5,1,0.7,1.5C46.7,24.6,47,25.8,46.7,25.3z
		 M45.7,20.9c0.2-0.1,0.5-0.2,0.8-0.3c0.5-0.2,1-0.3,1.5-0.3c0.1,0,0.1,0-0.1,0.1c-0.2,0.1-0.4,0.2-0.7,0.4c-0.3,0.2-0.7,0.3-1,0.5
		C46,21.1,45.8,21,45.7,20.9z M50.5,26.9c-0.1,0.3-0.2,0.2-0.2-0.1c0-0.2-0.1-0.3-0.1-0.5c-0.1-0.4-0.2-0.8-0.3-1.2
		c-0.1-0.3-0.1-0.5-0.2-0.8c0.1,0.1,0.1,0.2,0.2,0.3C50.1,25.5,50.5,26.1,50.5,26.9z M51.3,21.2c0.8-0.5-0.2,0.5-0.3,0.7
		c-0.4,0.3-0.8,0.6-1.2,0.7C50.2,22,50.7,21.5,51.3,21.2z M57,31.5c0,0.4-0.1,0.8-0.1,1.1c0,0.2-0.1,0.3-0.1,0.5c-0.1,0-0.2,0-0.2,0
		c0-0.2,0-0.4,0-0.5c0.1-0.5,0.3-1.1,0.5-1.6C57,31.1,57,31.3,57,31.5z M58.5,36.4c0.2-0.7,0.6-1.3,0.9-1.9
		C59.4,35.2,59.2,36,58.5,36.4z M59.4,39.8c0,0,0.2-0.6,0.2-0.7c0.2-0.3,0.4-0.6,0.6-0.8c0.1-0.2,0.3-0.3,0.4-0.5
		C60.5,38.6,60.1,39.3,59.4,39.8z M64.3,39c-0.6-0.3-1.2-0.7-1.7-1.2C63.3,38.1,64.1,38.6,64.3,39z M63,34.5c-0.9,0-1.9-0.5-2.5-1.1
		c0,0,0,0,0,0C61.4,33.8,62.4,33.9,63,34.5z M63.1,43.3c0.2,0.5,0.7,1.6,0.1,2c-0.5,0.4-0.5-1.5-0.5-1.6c0-0.4,0-0.7,0.1-1.1
		C62.9,42.8,63,43,63.1,43.3z M59.8,29.6c0.4,0.1,0.7,0.2,1.1,0.3c0.2,0.1,1,0.7,0.3,0.6c-0.7-0.1-1.4-0.3-2.1-0.7
		c-0.3-0.2-0.6-0.4-0.8-0.6c0,0,0,0,0,0C58.7,29.4,59.2,29.5,59.8,29.6z M55.5,25.7c0.8,0,1.5,0.4,2.1,0.9c-0.4,0.3-1.3,0-1.7-0.1
		c-0.3-0.3-0.6-0.5-0.9-0.8C55.1,25.7,55.3,25.7,55.5,25.7z M53.8,27.8c0.1,0.4,0.2,0.8,0.2,1.2c0,0.3,0,0.5-0.2,0.8
		c0,0-0.2-0.7-0.2-0.6c-0.1-0.6-0.1-1.3,0-1.9C53.7,27.5,53.7,27.6,53.8,27.8z M60.3,21.3c-0.2,0.4-1.2,1.2-1.3,1.2
		c-0.3,0.2-0.6,0.4-0.9,0.5C58.7,22.3,59.3,21.6,60.3,21.3z M60.2,25.5c0.1,0.1,0.2,0.2,0.3,0.4c-0.1,0.1-0.3,0.1-0.4,0
		c-0.7-0.4-1.3-0.9-1.8-1.5c0.3,0.2,0.7,0.4,1,0.6C59.6,25.2,59.9,25.3,60.2,25.5z M64.7,25.6c0.1,0.1,0.6,0.8,0,0.5
		c-0.5-0.2-0.9-0.8-1.1-1.3c0.2,0.1,0.3,0.2,0.5,0.3C64.2,25.3,64.5,25.4,64.7,25.6z M63.5,23.2c0.2-0.3,0.4-0.6,0.6-0.9
		c0.3-0.4,1-1.2,1.5-1.4c-0.1,0.6-0.6,1-1,1.4C64.4,22.7,64,23,63.5,23.2z M71.3,25.4c-0.7-0.2-1.3-0.7-1.7-1.2
		C70.2,24.5,71.1,25,71.3,25.4z M69.9,22.4c0.3-0.4,0.8-1.3,1.3-1.5c-0.1,0.4-0.8,1.1-1,1.2C70.1,22.2,70,22.3,69.9,22.4
		C69.9,22.4,69.9,22.4,69.9,22.4z M77.1,19.2c0.1-0.1-0.2,0.9-0.2,0.9c-0.1,0.3-0.4,0.6-0.6,0.9c-0.2,0.2-0.4,0.4-0.6,0.7
		C76.1,20.7,76.5,19.8,77.1,19.2z M77.2,23.2c0.6,0.2,1.1,0.4,1.4,0.9c-0.6,0-1.2-0.1-1.8-0.4c-0.4-0.2-0.6-0.5-0.9-0.8
		c0.2,0,0.3,0.1,0.4,0.1C76.6,23,76.9,23.1,77.2,23.2z M80.3,19.3c0.2-0.5,0.5-1.5,1-1.9c0.2,1.1-0.5,2-1.3,2.7
		C80.2,19.8,80.3,19.6,80.3,19.3z M81.4,21.6c0.2,0.1,0.4,0.1,0.6,0.2c0.6,0.2-0.1,0.2-0.2,0.2c-0.5,0-0.9-0.1-1.4-0.3
		c-0.2-0.1-0.3-0.2-0.5-0.3C80.5,21.4,81,21.5,81.4,21.6z M87,17.2c-0.2,0.3-0.5,0.5-0.8,0.7c-0.2,0.2-0.4,0.3-0.7,0.4
		c0.5-0.7,1-1.3,1.6-1.8c0.1,0.1,0.2,0.2,0.3,0.3C87.3,16.9,87.1,17.1,87,17.2z"/>
	<path class="st2" d="M88,26.8c-0.8-0.3-1.7-0.3-2.6-0.1c-0.8,0-1.7,0-2.5,0c0.5-0.1,0.9-0.2,1.3-0.5c0.5-0.3,1.3-0.9,0.9-1.6
		c-0.3-0.6-1.4-0.3-1.8-0.1c-0.9,0.4-1.8,1.2-2.5,1.9c-0.3,0.1-0.2,0.6,0.1,0.7c0.3,0.3,0.6,0.5,0.9,0.7c0.2,0.3,0.3,0.6,0.5,0.8
		c0.3,0.5,0.7,1,1.1,1.5c0.5,0.5,1.7,1.3,2.2,0.5c0.4-0.7-1.1-1.8-1.5-2.1c-0.6-0.4-1.3-0.8-1.9-1.2c0,0,0,0,0,0
		c1,0.1,1.9,0.1,2.9,0c0.1,0,0.1,0,0.2,0c0.1,0,0.1,0,0.2,0c0,0,0.1,0,0.1,0c0.6,0.8,2.1,0.8,2.6-0.1C88.3,27.1,88.2,26.9,88,26.8z
		 M83.5,25.3c0.2-0.1,0.3-0.2,0.5-0.2c0.2-0.1,0.4-0.1,0.4,0.1c-0.5,0.5-1,0.8-1.7,0.9c-0.2,0-0.4,0.1-0.6,0.2
		c0.2-0.1,0.4-0.3,0.6-0.4C82.9,25.6,83.2,25.5,83.5,25.3z M84.9,30.3c-0.1-0.1-0.4-0.2-0.5-0.2c-0.3-0.1-0.5-0.4-0.7-0.6
		c-0.3-0.3-0.5-0.6-0.7-0.9C83.7,29.1,84.4,29.6,84.9,30.3z"/>
	<path class="st2" d="M54.4,33.8c-0.7-1-1.5-1.8-2.4-2.6c0-0.2-0.2-0.3-0.3-0.3c-0.2,0-0.3,0-0.4,0.2c0,0.1-0.1,0.1-0.1,0.2
		c-0.6,0.6-1.3,1.2-1.8,1.9c-0.4,0.4-0.4,1,0.2,1.2c0.6,0.2,1.2-0.3,1.6-0.7c0.2-0.3,0.3-0.6,0.4-0.9c0.2,1.3,0.3,2.7,0.3,4
		c-0.1,0.1-0.2,0.2-0.2,0.4c-0.5,0.9,0,3.2,1.4,2.9c0.7-0.1,0.8-0.8,0.7-1.4c-0.1-0.7-0.7-1.3-1.2-1.7c0-1.1,0-2.3-0.2-3.4
		c0.7,0.8,1.5,1.3,2,0.5C54.4,34.1,54.4,33.9,54.4,33.8z M50.7,33c-0.1,0.2-0.2,0.3-0.3,0.4l-0.2,0.2c-0.3,0.2-0.3,0.2-0.3-0.1
		c0.3-0.3,0.6-0.7,0.9-1C50.8,32.6,50.7,32.8,50.7,33z M53.1,39.1c0.1,0.5-0.5,0.2-0.7,0c-0.1-0.2-0.2-0.4-0.2-0.6
		c-0.1-0.3-0.1-0.6,0-0.9c0,0,0,0,0,0C52.6,38.1,53,38.6,53.1,39.1z M52.1,32.3c0.5,0.5,1,1,1.4,1.5C53.1,33.7,52.6,32.9,52.1,32.3z
		"/>
</g>
<g>
	<path class="st2" d="M26.8,68.1c0.6,1.6,3.4,1.3,4.7,0.9c1.9-0.7,3.3-2.2,5.1-3.3c0,0,0.1-0.1,0.1-0.1c0.1,0,0.1,0.1,0.2,0.1
		c2.2,1.1,4.5,2,6.9,2.8c-1.2,0.4-2.4,0.6-3.4,1.3c-0.8,0.6-2.1,1.9-1.9,3c0.3,1.4,2.2,0.9,3.1,0.5c0.9-0.4,1.7-1,2.3-1.7
		c0.8-0.8,1.2-1.8,1.8-2.6c2.1,0.6,4.2,1,6.4,1.2c-0.4,0.2-0.7,0.4-1,0.5c-1.2,0.7-4.1,2-4,3.8c0,2.1,3,1.4,4.1,0.7
		c1.9-1.2,3.5-3,4.8-4.9c0.1,0,0.3,0,0.4,0c0.1,0,0.1,0,0.2,0c1.8,0,3.5-0.2,5.3-0.5c-0.6,0.4-1.1,0.9-1.5,1.4
		c-0.6,0.7-1.8,2-0.9,2.9c1.2,1.2,3.1-0.3,3.9-1.2c1-1.1,1.7-2.5,2.7-3.7c0,0,0.1-0.1,0.1-0.1c0.1,0,0.2,0,0.2,0
		c0.1,0,0.2,0,0.3-0.1c1.5-0.3,2.9-0.7,4.4-1.2c0.7-0.2,0.6-1.5-0.2-1.2c-1.3,0.4-2.7,0.8-4,1.1c-1.4-1.9-2.6-4.1-4.7-5.3
		c-0.9-0.5-2.3-1-2.9,0.1c-1.3,2.4,2.7,4.5,5.1,5.7c-2.3,0.4-4.7,0.7-7.1,0.8c0.1-1.2-0.7-2.7-1.3-3.6c-0.7-1.1-1.9-3-3.3-3.2
		c-1.7-0.2-1.4,2-0.9,2.9c0.7,1.3,1.7,2.7,2.9,3.8c-0.3,0-0.7,0-1,0c-2.1-0.1-4.2-0.5-6.2-0.9c0.5-1.5-0.2-3.3-0.7-4.6
		c-0.4-1-0.9-2.9-2.1-3.2c-1.6-0.4-1.8,1.9-1.5,2.9c0.3,0.9,0.8,1.8,1.3,2.7c0.2,0.5,0.9,1.2,1.2,1.8c-3-0.9-5.8-2.1-8.6-3.4
		c0.4-2,1-3.9,1-6c-0.1-1.3-0.7-3.5-2.3-3.5c-1.6,0-1.6,2.3-1.6,3.3c0.1,1.9,1.3,3.6,1.4,5.4c-2.8-1.4-5.6-2.8-8.4-4.3
		c0.8-1.3,1.3-3,1.3-4.5c0-1-0.5-3.1-1.9-2.8c-1.2,0.3-1.2,2.2-1.3,3.2c-0.1,1-0.1,2.1,0,3.1c-1.7-0.9-3.3-1.9-5-2.9
		c-0.8-0.5-1.5-0.9-2.3-1.4c0.8-1.8,2.3-5.7,0.2-6.3c-1.4-0.5-2.2,1-2.3,2.2c0,1.1,0.3,2,0.6,3.1c-2.1-1.5-4.1-3.2-6.1-5
		c0.5-1.1,1-2.2,1.2-3.4c0.1-0.9-0.1-2.4-1.3-2.4c-1.6,0-1.7,2.5-1.6,4.2c-0.9-0.9-1.8-1.9-2.7-2.8c0,0,0-0.1,0-0.1
		c-0.1-2.1-1.1-3.9-2.6-5.3c-0.8-0.8-2-1.5-2.9-0.3c-1.7,2.4,2.1,5.5,4,6.3c0.1,0,0.1,0,0.2,0c0.9,1,1.8,1.9,2.7,2.9
		c-0.1,0-0.2,0-0.4,0c-0.7-0.1-1.4,0-2.1,0.1c-1.2,0.2-2.2,1.1-1.4,2.3c1.3,2.2,4.2,0.4,5.9-0.2c0.1,0,0.1-0.1,0.2-0.1
		c1.6,1.5,3.2,2.8,5,4.1c-2.4-0.2-5.3,0.2-5.2,2.2c0.2,3.8,6.5,0.7,8.3-0.1c0.6,0.4,1.2,0.8,1.9,1.2c1.5,0.9,3,1.8,4.5,2.6
		c-1.3,0.3-2.5,0.7-3.7,1.6c-0.9,0.7-2.3,2-1.2,3.2c1,1.1,2.9,0.2,4-0.4c0.6-0.3,1.2-0.7,1.7-1.1c0.4-0.4,1-1.7,1.5-1.8
		c0.1,0,0.1,0,0.2-0.1c2.5,1.4,5.1,2.7,7.7,4C31.1,64.8,25.9,65.8,26.8,68.1z M24.8,60c-0.2,0.3-0.5,0.7-0.7,0.9
		c-0.7,0.7-1.7,1.3-2.6,1.6c-0.4,0.1-1.8,0.7-1.7-0.2c0-0.5,1.2-1.1,1.6-1.3C22.5,60.4,23.6,60.1,24.8,60z M15.9,54.5
		c-2,0.8-5.7,2.1-5.5,0.6c0.1-0.9,2.6-0.8,3.2-0.8C14.3,54.3,15.1,54.4,15.9,54.5z M8.1,48.3c-1,0.5-2.3,1.1-3.2,0.6
		c-0.3-0.2-0.8-0.6-0.3-0.7C5.1,48.1,5.6,48,6.1,48c0.6,0,1.2,0,1.7,0.2C7.9,48.2,8,48.2,8.1,48.3z M9.8,45.9c0-0.3,0-0.5,0-0.8
		c0-0.4,0-0.9,0.1-1.3c0-0.2,0.1-0.3,0.1-0.5c0,0,0,0,0-0.1C10.6,43.7,10.2,44.8,9.8,45.9z M4.5,42.5c-1.3-0.6-3.4-2.3-3.3-3.6
		c0.1-1.4,1.3,0.2,1.7,0.6C3.7,40.4,4.3,41.4,4.5,42.5z M17.2,51.8c0-0.2-0.1-0.4-0.1-0.6c-0.1-0.3-0.5-3,0.4-2.5
		c0.6,0.3-0.1,2.2-0.2,2.6C17.3,51.4,17.3,51.6,17.2,51.8z M26.2,57.8c0-1.5,0.1-2.9,0.3-4.4c0,0,0-0.1,0.1-0.2
		c0,0.1,0.2,0.2,0.3,0.4c0.3,0.6,0.2,1.3,0.1,2C26.8,56.3,26.5,57.1,26.2,57.8z M36.1,61.7c-0.2-0.6-0.5-1.3-0.7-1.9
		c-0.2-0.5-0.9-3.5-0.1-3.7c1.5-0.3,1.1,3.6,1,4.3C36.3,60.9,36.2,61.3,36.1,61.7z M46.2,66.7c-0.3-0.5-0.7-1-0.9-1.5
		c-0.2-0.4-2-3.6-1.3-3.8c0.4-0.1,1.2,2.1,1.4,2.6C45.7,64.8,46.1,65.8,46.2,66.7z M60.2,63.9c-0.6-1.7,2.1,0.4,2.4,0.7
		c0.7,0.7,1.4,1.6,2,2.4c-0.5-0.3-1.1-0.6-1.6-0.9C62.3,65.7,60.6,64.9,60.2,63.9z M63.8,70.3c0,0-0.1,0.1-0.1,0.1
		c-0.4,0.5-0.7,1.1-1.1,1.6c-0.2,0.3-1.8,2-2.2,1.3c-0.2-0.3,1.3-1.6,1.7-1.9C62.5,70.9,63.1,70.6,63.8,70.3z M55.9,68.6
		c-0.9-0.7-1.7-1.7-2.3-2.6c-0.4-0.6-0.9-1.2-1.1-1.9c0-0.2,0-0.4-0.1-0.5c0.1,0.1,0.2,0.1,0.2,0.1c0.9,0.8,1.6,1.6,2.2,2.6
		C55.1,66.9,55.8,67.9,55.9,68.6z M54.3,70.6c-0.7,1-1.6,1.9-2.5,2.7c-0.6,0.5-1.3,1.1-2.1,1.4c-0.6,0.2-1.5,0.3-1.2-0.5
		c0.4-1.1,2.8-2.1,3.8-2.6C52.7,71.4,53.5,70.9,54.3,70.6z M43.9,69.7c-0.4,0.6-0.8,1.1-1.3,1.6c-0.5,0.4-1.1,0.8-1.8,1.1
		c-0.7,0.2-1.3,0.1-0.8-0.6C40.9,70.4,42.4,70.1,43.9,69.7z M28,67.6c0.1-0.6,2.7-1.3,3.2-1.4c1.1-0.3,2.3-0.4,3.4-0.6
		c-0.8,0.6-1.5,1.2-2.3,1.7c-0.7,0.4-1.4,0.8-2.3,0.8C29.7,68,28,67.9,28,67.6z"/>
</g>
</svg>
