<?xml version="1.0" encoding="utf-8"?>
<!-- Generator: Adobe Illustrator 21.0.0, SVG Export Plug-In . SVG Version: 6.00 Build 0)  -->
<svg version="1.1" id="_x33__части__x28_копия_x29_"
	 xmlns="http://www.w3.org/2000/svg" xmlns:xlink="http://www.w3.org/1999/xlink" x="0px" y="0px" viewBox="0 0 350.8 183.4"
	 style="enable-background:new 0 0 350.8 183.4;" xml:space="preserve">
<style type="text/css">
	.st0{fill:#9AC359;}
	.st1{fill:#FFFFFF;}
	.st2{fill:#0E0F0F;}
</style>
<g>
	<path d="M74.1,79.4l0-24.4l-5.5,0l0-0.8l11.8,0l0,0.8l-5.5,0l0,24.4L74.1,79.4z"/>
	<path d="M84,60.4c0-0.9,0.1-1.7,0.3-2.5c0.2-0.8,0.5-1.4,0.9-2c0.4-0.6,1-1,1.7-1.4c0.7-0.3,1.5-0.5,2.4-0.5c1,0,1.8,0.2,2.5,0.5
		c0.7,0.3,1.2,0.8,1.7,1.4c0.4,0.6,0.7,1.2,1,2c0.2,0.8,0.3,1.6,0.3,2.5l0,12.8c0,0.9-0.1,1.7-0.3,2.5c-0.2,0.8-0.5,1.4-1,2
		c-0.4,0.6-1,1-1.7,1.4c-0.7,0.3-1.5,0.5-2.5,0.5c-1,0-1.8-0.2-2.4-0.5c-0.7-0.3-1.2-0.8-1.7-1.4c-0.4-0.6-0.7-1.2-0.9-2
		c-0.2-0.8-0.3-1.6-0.3-2.5L84,60.4z M84.8,73.2c0,0.8,0.1,1.5,0.2,2.2c0.2,0.7,0.4,1.3,0.8,1.8c0.4,0.5,0.8,0.9,1.4,1.2
		c0.6,0.3,1.3,0.5,2.1,0.5c0.8,0,1.6-0.1,2.1-0.4c0.6-0.3,1.1-0.7,1.4-1.2c0.4-0.5,0.6-1.1,0.8-1.8c0.2-0.7,0.3-1.4,0.3-2.2l0-12.9
		c0-0.8-0.1-1.5-0.2-2.2s-0.4-1.3-0.8-1.8s-0.8-0.9-1.4-1.2c-0.6-0.3-1.3-0.5-2.1-0.5c-0.8,0-1.5,0.1-2.1,0.4
		c-0.6,0.3-1,0.7-1.4,1.2s-0.6,1.1-0.8,1.8c-0.2,0.7-0.2,1.4-0.2,2.2L84.8,73.2z"/>
	<path d="M103.4,54.2c1,0,1.8,0.2,2.4,0.5c0.7,0.3,1.2,0.7,1.6,1.3c0.4,0.5,0.7,1.2,0.9,1.9c0.2,0.7,0.3,1.6,0.3,2.4l0,2.5
		c0,2-0.5,3.5-1.4,4.5c-0.9,1-2.4,1.4-4.4,1.4l-3.6,0l0,10.7l-0.8,0l0-25.2L103.4,54.2z M102.8,68c1.8,0,3.1-0.4,3.8-1.2
		c0.8-0.8,1.2-2.1,1.2-3.9l0-2.6c0-0.8-0.1-1.5-0.2-2.1c-0.1-0.6-0.4-1.2-0.7-1.7c-0.3-0.5-0.8-0.8-1.4-1.1
		c-0.6-0.3-1.3-0.4-2.1-0.4l-4.2,0l0,13L102.8,68z"/>
	<path d="M117.5,79.4l0-24.4l-5.5,0l0-0.8l11.8,0l0,0.8l-5.5,0l0,24.4L117.5,79.4z"/>
	<path d="M132.7,67.7l-4.4,11.7l-1,0l0-25.2l0.8,0l0,23.7l3.5-9.4l5.4-14.3l1.1,0l0,25.2l-0.8,0l0-24L132.7,67.7z"/>
	<path d="M144.5,66.9l-1.9,2.9l0,9.6l-0.8,0l0-25.2l0.8,0l0,14.2l9.4-14.2l0.9,0L145,66.2l8.4,13.3l-0.9,0L144.5,66.9z"/>
	<path d="M162.4,67.7L158,79.5l-1,0l0-25.2l0.8,0l0,23.7l3.5-9.4l5.4-14.3l1.1,0l0,25.2l-0.8,0l0-24L162.4,67.7z"/>
	<path d="M178.7,67.3l0,12.2l-0.8,0l0-25.2l0.8,0l0,12.2l9.1,0l0-12.2l0.8,0l0,25.2l-0.8,0l0-12.2L178.7,67.3z"/>
	<path d="M194.4,73.6l-1.5,5.9l-0.7,0l6.1-25.2l1.1,0l6.2,25.2l-0.8,0l-1.5-5.9L194.4,73.6z M194.5,72.9l8.7,0l-4.4-17.6L194.5,72.9
		z"/>
	<path d="M220.9,54.2c1,0,1.8,0.2,2.4,0.5c0.7,0.3,1.2,0.8,1.6,1.4c0.4,0.6,0.7,1.2,0.9,2c0.2,0.8,0.3,1.6,0.3,2.5l0,0.6
		c0,1.2-0.3,2.3-1,3.3c-0.6,0.9-1.5,1.6-2.7,1.9c1.2,0.3,2.1,0.9,2.8,1.8c0.6,0.9,0.9,2,0.9,3.2l0,1.9c0,0.9-0.1,1.7-0.3,2.5
		c-0.2,0.8-0.5,1.4-0.9,2c-0.4,0.6-1,1-1.6,1.4c-0.7,0.3-1.5,0.5-2.4,0.5c-1,0-1.8-0.2-2.4-0.5c-0.7-0.3-1.2-0.8-1.6-1.4
		c-0.4-0.6-0.7-1.2-0.9-2c-0.2-0.8-0.3-1.6-0.3-2.5l0-1.8l0.8,0l0,1.9c0,0.8,0.1,1.5,0.2,2.2c0.2,0.7,0.4,1.3,0.8,1.8
		c0.3,0.5,0.8,0.9,1.4,1.2c0.6,0.3,1.3,0.5,2.1,0.5c0.8,0,1.5-0.1,2.1-0.4c0.6-0.3,1-0.7,1.4-1.2c0.3-0.5,0.6-1.1,0.8-1.8
		c0.2-0.7,0.2-1.4,0.2-2.2l0-1.9c0-1.3-0.4-2.5-1.2-3.3c-0.8-0.9-1.8-1.3-3.2-1.3l-1.6,0l0-0.7l1.7,0c0.6,0,1.2-0.1,1.7-0.4
		c0.5-0.3,1-0.6,1.4-1c0.4-0.4,0.7-0.9,0.9-1.5c0.2-0.6,0.3-1.2,0.3-1.8l0-0.8c0-0.8-0.1-1.5-0.2-2.2c-0.2-0.7-0.4-1.3-0.8-1.8
		c-0.3-0.5-0.8-0.9-1.4-1.2c-0.6-0.3-1.3-0.5-2.1-0.5c-0.8,0-1.5,0.1-2.1,0.4c-0.6,0.3-1,0.7-1.4,1.2c-0.3,0.5-0.6,1.1-0.8,1.8
		c-0.2,0.7-0.2,1.4-0.2,2.2l0,1.1l-0.7,0l0-1.1c0-0.9,0.1-1.7,0.3-2.4c0.2-0.8,0.5-1.4,0.9-2c0.4-0.6,0.9-1,1.6-1.4
		C219.1,54.3,219.9,54.2,220.9,54.2z"/>
	<path d="M231.9,73.6l-1.5,5.9l-0.7,0l6.1-25.2l1.1,0l6.2,25.2l-0.8,0l-1.5-5.9L231.9,73.6z M232,72.9l8.7,0l-4.4-17.6L232,72.9z"/>
	<path d="M249.4,67.1l-1.9,2.9l0,9.6l-0.8,0l0-25.2l0.8,0l0,14.2l9.4-14.2l0.9,0l-7.8,11.9l8.4,13.3l-0.9,0L249.4,67.1z"/>
	<path d="M264.1,73.7l-1.5,5.9l-0.7,0l6.1-25.2l1.1,0l6.2,25.2l-0.8,0l-1.5-5.9L264.1,73.7z M264.2,72.9l8.7,0l-4.4-17.6L264.2,72.9
		z"/>
	<path d="M284.2,54.2c1,0,1.8,0.2,2.4,0.5c0.7,0.3,1.2,0.8,1.6,1.4c0.4,0.6,0.7,1.2,0.9,2c0.2,0.8,0.3,1.6,0.3,2.5l0,0.6
		c0,1.2-0.3,2.3-1,3.3c-0.6,0.9-1.5,1.6-2.7,1.9c1.2,0.3,2.1,0.9,2.8,1.8c0.6,0.9,0.9,2,0.9,3.2l0,1.9c0,0.9-0.1,1.7-0.3,2.5
		c-0.2,0.8-0.5,1.4-0.9,2c-0.4,0.6-1,1-1.6,1.4c-0.7,0.3-1.5,0.5-2.4,0.5c-1,0-1.8-0.2-2.4-0.5c-0.7-0.3-1.2-0.8-1.6-1.4
		c-0.4-0.6-0.7-1.2-0.9-2c-0.2-0.8-0.3-1.6-0.3-2.5l0-1.8l0.8,0l0,1.9c0,0.8,0.1,1.5,0.2,2.2c0.2,0.7,0.4,1.3,0.8,1.8
		c0.3,0.5,0.8,0.9,1.4,1.2c0.6,0.3,1.3,0.5,2.1,0.5c0.8,0,1.5-0.1,2.1-0.4c0.6-0.3,1-0.7,1.4-1.2c0.3-0.5,0.6-1.1,0.8-1.8
		c0.2-0.7,0.2-1.4,0.2-2.2l0-1.9c0-1.3-0.4-2.5-1.2-3.3c-0.8-0.9-1.8-1.3-3.2-1.3l-1.6,0l0-0.7l1.7,0c0.6,0,1.2-0.1,1.7-0.4
		c0.5-0.3,1-0.6,1.4-1c0.4-0.4,0.7-0.9,0.9-1.5c0.2-0.6,0.3-1.2,0.3-1.8l0-0.8c0-0.8-0.1-1.5-0.2-2.2c-0.2-0.7-0.4-1.3-0.8-1.8
		c-0.3-0.5-0.8-0.9-1.4-1.2c-0.6-0.3-1.3-0.5-2.1-0.5c-0.8,0-1.5,0.1-2.1,0.4c-0.6,0.3-1,0.7-1.4,1.2c-0.3,0.5-0.6,1.1-0.8,1.8
		c-0.2,0.7-0.2,1.4-0.2,2.2l0,1.1l-0.7,0l0-1.1c0-0.9,0.1-1.7,0.3-2.4c0.2-0.8,0.5-1.4,0.9-2c0.4-0.6,0.9-1,1.6-1.4
		C282.4,54.4,283.2,54.2,284.2,54.2z"/>
	<path d="M91.6,92.9l0,4.5l-1.6,0l0-10.5l1.6,0l0,4.5l1.9,0l0-4.5l1.7,0l0,10.5l-1.7,0l0-4.5L91.6,92.9z"/>
	<path d="M101.1,86.9l1.7,10.5l-1.7,0l-0.3-1.9l-2,0l-0.3,1.9l-1.5,0l1.7-10.5L101.1,86.9z M99.8,88.8L99,94.1l1.6,0L99.8,88.8z"/>
	<path d="M107.7,97.4l0-1.5c0.4,0,0.7-0.1,0.8-0.2c0.1-0.1,0.2-0.4,0.2-0.9l0.3-7.9l4.7,0l0,10.5l-1.7,0l0-9l-1.4,0l-0.2,6.3
		c0,1-0.2,1.6-0.6,2.1s-1,0.6-1.8,0.6H107.7z"/>
	<path d="M118.9,94.9l0-2l-1.2,0l0,4.5l-1.6,0l0-10.5l1.6,0l0,4.5l1.2,0l0-2c0-0.8,0.2-1.5,0.6-1.9c0.4-0.5,1.1-0.7,1.9-0.7
		s1.4,0.2,1.9,0.7c0.4,0.5,0.6,1.1,0.6,2l0,5.5c0,0.8-0.2,1.5-0.6,1.9c-0.4,0.5-1.1,0.7-1.9,0.7s-1.4-0.2-1.9-0.7
		C119.1,96.4,118.9,95.8,118.9,94.9z M120.5,89.4l0,5.7c0,0.7,0.3,1,0.9,1c0.6,0,0.9-0.3,0.9-1l0-5.7c0-0.7-0.3-1-0.9-1
		C120.8,88.3,120.5,88.7,120.5,89.4z"/>
	<path d="M128.7,97.4l-2.6,0l0-10.5l4.6,0l0,1.5l-3,0l0,2.7l1,0c0.8,0,1.4,0.2,1.9,0.7s0.6,1.1,0.6,1.9l0,1.1c0,0.8-0.2,1.5-0.6,1.9
		S129.6,97.4,128.7,97.4z M127.8,95.9l1,0c0.6,0,0.8-0.3,0.8-1l0-1.3c0-0.7-0.3-1-0.8-1l-1,0L127.8,95.9z"/>
	<path d="M133.3,94.9l0-5.5c0-0.8,0.2-1.5,0.6-1.9c0.4-0.5,1.1-0.7,1.9-0.7c0.8,0,1.4,0.2,1.9,0.7c0.4,0.5,0.6,1.1,0.6,2l0,5.5
		c0,0.8-0.2,1.5-0.6,1.9c-0.4,0.5-1.1,0.7-1.9,0.7c-0.8,0-1.4-0.2-1.9-0.7S133.3,95.8,133.3,94.9z M135,89.4l0,5.7
		c0,0.7,0.3,1,0.9,1c0.6,0,0.9-0.3,0.9-1l0-5.7c0-0.7-0.3-1-0.9-1C135.3,88.3,135,88.7,135,89.4z"/>
	<path d="M140.5,97.5l0-10.5l1.5,0l0,6.6l0.6-2.3L144,87l1.8,0l0,10.5l-1.5,0l0-7.4l-0.7,2.6l-1.4,4.8L140.5,97.5z M143.7,85.2
		c-0.1,0.1-0.3,0.1-0.5,0.1c-0.2,0-0.4,0-0.5-0.1c-0.1-0.1-0.2-0.3-0.2-0.5l-1,0c0,0.5,0.2,0.9,0.5,1.2c0.3,0.3,0.7,0.4,1.3,0.4
		c0.6,0,1-0.1,1.3-0.4c0.3-0.3,0.5-0.7,0.5-1.2l-1,0C143.9,84.9,143.8,85.1,143.7,85.2z"/>
	<path d="M154,87c0.9,0,1.5,0.2,1.9,0.6c0.4,0.4,0.6,1,0.6,1.8l0,0.4c0,1.1-0.4,1.8-1.1,2.1c0.8,0.3,1.2,1.1,1.2,2.3l0,0.9
		c0,0.8-0.2,1.4-0.6,1.9c-0.4,0.4-1,0.6-1.9,0.6l-2.6,0l0-10.5L154,87z M153.9,92.8l-0.7,0l0,3.2l0.9,0c0.3,0,0.5-0.1,0.6-0.2
		c0.1-0.2,0.2-0.4,0.2-0.8l0-0.9c0-0.5-0.1-0.8-0.2-1C154.6,92.8,154.3,92.8,153.9,92.8z M154,88.5l-0.8,0l0,2.8l0.6,0
		c0.3,0,0.6-0.1,0.7-0.3c0.2-0.2,0.2-0.5,0.2-0.9l0-0.6C154.8,88.8,154.6,88.5,154,88.5z"/>
	<path d="M162.5,97.5l-1.6-4.2l-0.5,1l0,3.2l-1.6,0l0-10.5l1.6,0l0,4.6l2.2-4.6l1.6,0l-2.3,4.7l2.3,5.8L162.5,97.5z"/>
	<path d="M171.5,87l-1.8,7.8c-0.2,1-0.5,1.7-1,2.2c-0.5,0.4-1.2,0.6-2.3,0.5l0-1.5c0.4,0,0.8,0,1-0.1c0.2-0.1,0.4-0.4,0.4-0.7l0-0.1
		l-2.3-8.1l1.6,0l0.9,3.6l0.5,2.5l0.4-2.4l0.8-3.6L171.5,87z"/>
	<path d="M176.6,93.6l1.6,0l0,1.4c0,0.9-0.2,1.5-0.6,2s-1,0.7-1.8,0.7c-0.8,0-1.4-0.2-1.8-0.7c-0.4-0.5-0.6-1.1-0.6-2l0-5.5
		c0-0.9,0.2-1.5,0.6-2c0.4-0.5,1-0.7,1.8-0.7c0.8,0,1.4,0.2,1.8,0.7s0.6,1.1,0.6,2l0,1l-1.6,0l0-1.1c0-0.7-0.3-1-0.9-1
		c-0.6,0-0.9,0.3-0.9,1l0,5.7c0,0.7,0.3,1,0.9,1c0.6,0,0.9-0.3,0.9-1L176.6,93.6z"/>
	<path d="M180.9,97.5l-0.6,0l0-1.6l1.6,0l0,1.4l-0.7,1.7l-0.7,0L180.9,97.5z"/>
	<path d="M187.6,97.5l0-10.5l1.6,0l0,9l1.9,0l0-9l1.7,0l0,9l0.7,0l0,2.9l-1.6,0l0-1.4L187.6,97.5z"/>
	<path d="M198.1,87c0.9,0,1.5,0.2,1.9,0.6c0.4,0.4,0.6,1,0.6,1.8l0,0.4c0,1.1-0.4,1.8-1.1,2.1c0.8,0.3,1.2,1.1,1.2,2.3l0,0.9
		c0,0.8-0.2,1.4-0.6,1.9c-0.4,0.4-1,0.6-1.9,0.6l-2.6,0l0-10.5L198.1,87z M198,92.8l-0.7,0l0,3.2l0.9,0c0.3,0,0.5-0.1,0.6-0.2
		c0.1-0.2,0.2-0.4,0.2-0.8l0-0.9c0-0.5-0.1-0.8-0.2-1C198.6,92.9,198.3,92.8,198,92.8z M198,88.5l-0.8,0l0,2.8l0.6,0
		c0.3,0,0.6-0.1,0.7-0.3c0.2-0.2,0.2-0.5,0.2-0.9l0-0.6C198.9,88.9,198.6,88.5,198,88.5z"/>
	<path d="M204.4,88.5l0,2.9l2.3,0l0,1.5l-2.3,0l0,3.1l2.9,0l0,1.5l-4.5,0l0-10.5l4.5,0l0,1.5L204.4,88.5z"/>
	<path d="M209,88.5l0-1.5l5.1,0l0,1.5l-1.7,0l0,9l-1.6,0l0-9L209,88.5z"/>
	<path d="M222.4,92.7l-1.4,4.8l-1.7,0l0-10.5l1.5,0l0,6.6l0.6-2.3l1.4-4.3l1.8,0l0,10.5l-1.5,0l0-7.4L222.4,92.7z"/>
	<path d="M233.3,97.6l0-1.2l-0.6,0c-1.6,0-2.5-0.9-2.5-2.6l0-2.9c0-1.7,0.8-2.6,2.5-2.6l0.6,0l0-1.3l1.6,0l0,1.3l0.6,0
		c1.6,0,2.5,0.9,2.5,2.6l0,2.9c0,1.7-0.8,2.6-2.5,2.6l-0.6,0l0,1.2L233.3,97.6z M233.3,94.9l0-5.2l-0.6,0c-0.5,0-0.8,0.3-0.8,1
		l0,3.1c0,0.7,0.3,1.1,0.8,1.1L233.3,94.9z M235.5,89.8l-0.6,0l0,5.2l0.6,0c0.5,0,0.8-0.3,0.8-1l0-3.1
		C236.3,90.1,236.1,89.8,235.5,89.8z"/>
	<path d="M240.1,95.1l0-5.5c0-0.8,0.2-1.5,0.6-1.9c0.4-0.5,1.1-0.7,1.9-0.7c0.8,0,1.4,0.2,1.9,0.7c0.4,0.5,0.6,1.1,0.6,2l0,5.5
		c0,0.8-0.2,1.5-0.6,1.9c-0.4,0.5-1.1,0.7-1.9,0.7c-0.8,0-1.4-0.2-1.9-0.7S240.1,95.9,240.1,95.1z M241.7,89.5l0,5.7
		c0,0.7,0.3,1,0.9,1c0.6,0,0.9-0.3,0.9-1l0-5.7c0-0.7-0.3-1-0.9-1C242,88.5,241.7,88.8,241.7,89.5z"/>
	<path d="M249.7,87.1c1.6,0,2.5,0.9,2.5,2.6l0,1.4c0,1.7-0.8,2.6-2.5,2.6l-0.8,0l0,3.9l-1.6,0l0-10.5L249.7,87.1z M249.7,88.6
		l-0.8,0l0,3.6l0.8,0c0.3,0,0.5-0.1,0.6-0.2c0.1-0.1,0.2-0.4,0.2-0.8l0-1.6c0-0.4-0.1-0.6-0.2-0.8C250.2,88.7,250,88.6,249.7,88.6z"
		/>
	<path d="M256.3,87.1l1.2,7.5l1.1-7.5l2.3,0l0,10.5l-1.6,0l0-7.5l-1.1,7.5l-1.6,0l-1.2-7.4l0,7.4l-1.4,0l0-10.5L256.3,87.1z"/>
	<path d="M268.7,87.1l-1.8,7.8c-0.2,1-0.5,1.7-1,2.2c-0.5,0.4-1.2,0.6-2.3,0.5l0-1.5c0.4,0,0.8,0,1-0.1c0.2-0.1,0.4-0.4,0.4-0.7
		l0-0.1l-2.3-8.1l1.6,0l0.9,3.6l0.5,2.5l0.4-2.4l0.8-3.6L268.7,87.1z"/>
</g>
<path class="st0" d="M192.7,140.2l-26-0.1c-1.2,0-2.2-1-2.2-2.2l0.1-27.9c0-1.2,1-2.2,2.2-2.2l26,0.1c1.2,0,2.2,1,2.2,2.2l-0.1,27.9
	C194.9,139.2,193.9,140.2,192.7,140.2"/>
<path class="st1" d="M183.8,120.2c-1.7-1.5-3.4-3.1-5.1-4.6c-1.9-1.7-4.7,1-2.8,2.7c1.3,1.2,2.6,2.4,3.9,3.5
	c0.6,0.6,1.3,1.2,1.9,1.8c0.2,0.2,0.5,0.4,0.8,0.6c-0.4,0.4-0.8,0.8-1,1.1c-0.6,0.8-1.3,1.6-1.8,2.4c-1.1,1.6-2.1,3.2-2.9,5
	c-1,2.3,2.7,3.4,3.8,1.1c0.8-1.8,2-3.4,3.2-5c1-1.3,2.9-2.9,3.1-4.6C187,122.4,184.9,121.2,183.8,120.2"/>
<g>
	<path d="M59.5,17.2c1.7-1,3.3-2.3,2.6-4.1c-0.1-0.3-0.3-0.5-0.6-0.5c-2.4-0.1-4.3,2.5-4.9,4.5c-1.8,0.1-3.8,0.7-5.6,0.2
		c0.6-2.1,0.9-4.3,0.6-6.5c-0.6-4-3.8-6.7-8-6.8c-4.2-0.1-8.4,2.2-11,5.3c-1-2.2-2.1-4.4-4-6.1C26,0.9,21.8-0.7,18.3,0.3
		c-3.1,1-4.6,3.9-5.1,6.8c-0.5,3.5-0.2,7.3,0.4,10.9c-2.4,0.2-4.7,0.3-7.1,0.4c-0.6-1-2.4-1.9-3-2.2c-0.9-0.5-2.8-1.3-3.5-0.1
		c-0.8,1.4,2.4,2.8,4.5,3.6c-1.5,0.9-2.8,2.3-2.9,3.8c0,0.3,0.3,0.7,0.7,0.7c2.7,0,3.6-2.5,4.8-4.4c0-0.1,0.1-0.1,0.1-0.2
		c2.2-0.1,4.5-0.2,6.7-0.4c0.2,0.8,0.3,1.6,0.5,2.4c1.4,5.7,3.6,11.2,6,16.5c0.2,0.4,0.7,0.4,1.1,0.2c4.3-2.9,9.3-4.5,14.1-6.5
		c4.7-2,9-4.7,12.2-8.7c1.2-1.5,2.2-3.2,2.9-5c1.9,0.5,4.1-0.1,6-0.2c1.1,1.2,4.8,3.7,5.5,1.2C62.6,18.1,61.1,17.4,59.5,17.2z
		 M1.7,17c-0.1,0-0.2-0.2-0.3-0.3c0,0,0.1,0,0.2,0.1C2,16.9,2.5,17,2.9,17.3c0.3,0.2,1.5,0.8,2.1,1.3C3.9,18.1,2.8,17.5,1.7,17z
		 M3.3,22.8c0.3-0.6,0.9-1.2,1.6-1.6C4.4,21.9,3.9,22.5,3.3,22.8z M48.3,20.2c-5.7,10-17.9,11.1-26.9,16.8c-2.2-5-4.2-10-5.5-15.2
		c-0.7-2.8-1.2-5.7-1.4-8.5C14.3,10.8,14.2,8,15,5.6c1.6-4.7,6.5-5.2,10.7-2.9c4.3,2.4,5.5,7.2,7.5,11.2c0.4,0.7,1.6,0.2,1.2-0.5
		c-0.4-0.9-0.9-1.8-1.3-2.7c0,0,0.1-0.1,0.1-0.1c2.7-3.5,8.6-6.7,13.2-4.8C52.3,8.2,50.6,16.2,48.3,20.2z M60.9,13.8
		c0,1.1-1.4,2-2.6,2.6C58.9,15.3,59.8,14.1,60.9,13.8z M58.8,18.3c1,0.1,2.1,0.3,2.1,0.7C60.9,19.5,59.8,18.9,58.8,18.3z"/>
</g>
<path class="st2" d="M122.1,38.2c-1,2.2,2.3,5,3.7,6.1c1.3,1,2.6,2.2,4.1,2.9c0.7,0.4,1.6,0.6,2.4,0.5c1.2-0.1,1.7-0.8,2.5-1.5
	c0.5-0.4,1-0.8,1.5-1.1c1.1-0.9,2.2-1.8,3.2-2.8c1.1-1.1,3.7-3.7,1.7-5.2c-1.3-1-3,0.5-3.9,1.4c-0.7,0.7-1.4,1.4-2,2.2
	c0.1-0.8,0.1-1.6,0.1-2.3c0-1.6-0.3-4.4-2.4-4.7c-2.2-0.3-3.1,3-3.2,4.6c-0.1,1.3,0.1,2.7,0.4,4c-1-1.5-2.2-2.9-3.7-4
	C125.6,37.5,122.9,36.4,122.1,38.2z M140.1,38.3c1.2,0.5-3.1,4.3-3.6,4.6c-0.7,0.5-1.4,1-2,1.6c0.5-0.7,1-1.5,1.5-2.2
	C136.6,41.6,139.1,37.9,140.1,38.3z M131.4,38.3c0.1-0.8,0.4-2.8,1.3-3.1c1.9-0.6,1.5,4,1.4,4.8c-0.2,1.4-0.5,2.9-1.1,4.2
	c-0.2,0.3-0.3,0.5-0.5,0.8c-0.4-1.3-0.8-2.5-1-3.8C131.4,40.3,131.3,39.3,131.4,38.3z M131.2,46.3c-1.2-0.4-2.4-1.6-3.3-2.2
	c-1.1-0.7-5.3-3.7-4.1-5C125.6,37.1,129.6,43.5,131.2,46.3z"/>
<g>
	<g>
		<path class="st2" d="M280,150.3c0.1,0.6,1.1,0.6,1,0c-0.5-2.7,1.9-6,3.4-8c2.3-2.9,5.4-5,9-6c0,0.2,0.1,0.4,0.1,0.6
			c1.5,4.5,5.4,8.2,8.9,11.2c2,1.7,4.2,3.1,6.6,4.1c2.3,0.9,4.8,1.3,7.3,1.5c1.2,0.1,2.7,0.3,3.8-0.2c1.2,5.9-3.4,12.6-8.3,15.5
			c-0.5,0.3,0,1.1,0.5,0.8c5.4-3.2,10.1-10.4,8.6-16.8c0.1-0.1,0.2-0.2,0.3-0.3c0.8-1,1.3-2.2,1.8-3.4c0.8-2.1,1.2-4.9-1.2-5.8
			c0.3-0.6,0.6-1.4,0.6-2c0.3-2.6-1.9-5.1-4.1-6.2c-0.6-0.3-1,0.5-0.4,0.8c2.4,1.2,4.8,4.5,2.9,7.1c-0.9,1.3-2.9,0.8-4.2,0.6
			c-1.9-0.3-3.8-0.7-5.6-1.5c-3.1-1.4-5.6-3.6-7.9-6.1c-1-1.1-2.1-2.6-2.1-4.2c0-1.9,1.9-3,3.6-3c0.6,0,0.5-0.9,0-0.9
			c-1.8,0-3.2,0.8-4,2.1c-2-0.3-4.1,0-5.6,1.4c-1.1,1-1.8,2.4-1.8,3.9c-3.8,1-7.3,3.2-9.7,6.4C281.9,143.9,279.5,147.4,280,150.3z
			 M300.3,130.9c-0.2,0.9-0.2,2,0.3,3c0.6,1.3,1.5,2.4,2.5,3.4c1.2,1.3,2.5,2.5,3.9,3.6c3,2.2,6.5,3.3,10.1,3.7
			c1.2,0.1,2.8,0.4,3.9-0.3c0.1-0.1,0.2-0.1,0.3-0.2c2.7,0.8,1,4.6,0.2,6.3c-0.6,1.2-1.3,2.4-2.8,2.5c-1.8,0.1-3.9-0.2-5.7-0.5
			c-4.2-0.7-7.8-2.9-11-5.8c-2.9-2.7-5.5-5.5-7.3-9.1C292.8,133.5,296.6,130.5,300.3,130.9z"/>
	</g>
	<g>
		<path class="st2" d="M317.1,156.4c0.4,1.1,0.3,2.3,0,3.4c-0.2,0.6-1.1,0.3-0.9-0.2c0.3-1,0.4-2,0-2.9
			C315.9,156,316.9,155.8,317.1,156.4z"/>
	</g>
	<g>
		<path class="st2" d="M312.1,160.3c0.3,0.6,0.4,1.3,0.9,1.8c0.5,0.4-0.2,1.1-0.7,0.6c-0.6-0.6-0.8-1.4-1.1-2.2
			C310.9,159.9,311.9,159.8,312.1,160.3z"/>
	</g>
	<g>
		<path class="st2" d="M311.4,156.5c1,0,1.9,0.3,2.8,0.8c0.5,0.3,0.1,1.1-0.4,0.8c-0.8-0.4-1.5-0.7-2.3-0.7
			C310.9,157.4,310.8,156.5,311.4,156.5z"/>
	</g>
	<g>
		<path class="st2" d="M291.7,140.4c0,0.9,0.3,1.7,0.1,2.6c-0.1,0.6-1,0.3-0.9-0.2c0.1-0.8-0.1-1.6-0.2-2.4
			C290.7,139.8,291.7,139.8,291.7,140.4z"/>
	</g>
	<g>
		<path class="st2" d="M287.5,142.9c0.5-0.4,1.2,0.3,0.7,0.7c-0.7,0.5-1.2,1.1-1.6,1.9c-0.3,0.5-1.1,0-0.8-0.5
			C286.2,144.2,286.8,143.5,287.5,142.9z"/>
	</g>
	<g>
		<path class="st2" d="M288.8,147.6c1.1-0.1,2.1-0.7,3.2-0.7c0.6,0,0.7,0.9,0,0.9c-1.1,0-2.1,0.6-3.2,0.7
			C288.2,148.5,288.1,147.6,288.8,147.6z"/>
	</g>
	<g>
		<path class="st2" d="M298.2,134.4c0.1,0.9,0.2,1.8,0.2,2.7c0,0.6-1,0.6-1,0c0-0.9-0.1-1.8-0.2-2.7
			C297.2,133.8,298.2,133.8,298.2,134.4z"/>
	</g>
	<g>
		<path class="st2" d="M296.9,126.7c1,0.4,2.2,0.4,3.3,0.7c0.6,0.2,0.4,1.1-0.2,0.9c-1.2-0.3-2.4-0.3-3.5-0.8
			C295.9,127.2,296.4,126.5,296.9,126.7z"/>
	</g>
	<g>
		<path class="st2" d="M299.7,124.2c1-0.3,1.9-0.7,3-0.8c0.6-0.1,0.7,0.9,0,0.9c-1,0.1-1.8,0.6-2.8,0.8
			C299.5,125.3,299.1,124.4,299.7,124.2z"/>
	</g>
	<g>
		<path class="st2" d="M317.2,99.3c0.4,0.7,0.4,1.7,0.5,2.4c0.1,0.8,0.1,1.6,0.2,2.3c0.1,2.5-0.2,4.9-0.7,7.3
			c-0.6,3-1.2,6.2-2.2,9.1c-1.4-1-3.4-1.3-5-1.2c-2.4,0.1-3.9,1.9-4.7,4c-0.7,1.9-1.2,4.1-0.7,6.2c0.5,1.9,1.7,3.5,3.2,4.7
			c3.2,2.5,7.7,3.2,11.2,1c3.2-1.9,5.9-6.3,4.7-10c-1.1-3.4-4.8-4.8-8.1-4.1c0,0,0,0,0,0c0.3-0.8,0.5-1.6,0.7-2.4
			c0.7-2.6,1.3-5.2,1.8-7.9c0.5-2.4,0.7-4.9,0.6-7.3c0-0.2,0-0.4,0-0.6c0,0,0,0,0,0c3.5,3.7,7.6,7.7,12.8,8.7
			c4.5,0.8,9.7-0.5,13.6-2.8c0.3-0.2,0.2-0.6-0.1-0.8c-1.7-0.5-3-1.8-4.4-2.9c-1.1-0.8-2.3-1.4-3.6-1.9c-2.3-0.9-4.4-2.1-6.7-2.7
			c-4-1.1-8.3-1.1-11.7,1.3c-0.1-1-0.2-2.1-0.7-2.9C317.7,98.5,316.9,98.9,317.2,99.3z M314.7,121.3c-0.6,1.5-1.3,3-2.2,4.3
			c-0.3,0.4,0.5,0.8,0.8,0.4c0.9-1.3,1.6-2.6,2.1-4.1c0.1,0,0.1,0,0.2,0c3.5-1,7.6,0.9,7.7,4.9c0.1,3.4-2.6,6.8-5.6,8.2
			c-3.3,1.4-7.2,0.4-9.8-2c-2.9-2.7-3-6.4-1.5-9.9c0.8-1.9,2.2-3.1,4.3-3.1C311.9,120.1,313.5,120.5,314.7,121.3z M343.4,108.2
			c-4,0.1-7.7-1.3-11.3-2.7c-4-1.5-8.1-2.5-12.3-3.4c3.4-2,7.7-1.7,11.4-0.4c2.3,0.8,4.6,1.9,6.8,2.9
			C340,105.5,341.5,107.2,343.4,108.2z M319.8,102.9c4.2,0.9,8.4,2,12.5,3.5c3.4,1.3,6.8,2.6,10.5,2.6c-3.5,1.6-7.8,2.5-11.5,1.7
			C326.6,109.7,323,106.2,319.8,102.9z"/>
	</g>
</g>
<g>
	<path class="st2" d="M324.9,142.2c0,0.1,0,0.1,0,0.2c-0.1,0.2,0,0.5,0.3,0.6c0,0,0.1,0.1,0.1,0.1c0.3,0.2,0.6,0.9,0.8,1.2
		c0.3,0.4,0.6,0.8,1,1.2c0.5,0.5,1,0.9,1.6,1.1c0.9,0.3,2.4,0.4,2.9-0.5c1.3-2.3-2.5-2.7-4.4-3.2c1.9-0.3,3.7-0.8,5.5-1.4
		c1,1.1,2.2,2.2,3.6,2.7c1,0.4,2.5,0.2,2.8-1.1c0.3-1.1-1.1-1.5-1.9-1.7c-0.7-0.2-1.4-0.3-2.1-0.4c-0.2,0-0.5,0-0.7-0.1
		c1.8-0.7,3.6-1.6,5.3-2.6c0.7,0.9,1.4,1.8,2.4,2.4c0.8,0.4,2.1,0.6,2.8,0c0.7-0.6,0.2-1.6-0.5-2c-1-0.8-2.4-0.7-3.5-1.1
		c1-0.7,2-1.4,3-2.2c0.1,0,0.2,0,0.3,0c1.9-0.9,4.4-1.4,5.9-2.9c0.7-0.8,0.9-1.8-0.1-2.4c-2.8-1.4-5.6,2.3-6.8,4.3
		c-0.1,0.1-0.1,0.2,0,0.3c-0.8,0.6-1.6,1.2-2.5,1.8c0.1-0.6,0.1-1.2,0.2-1.8c0-0.8,0.1-2.2-0.7-2.7c-0.9-0.6-1.7,0.6-1.8,1.4
		c-0.2,1.4,0.5,2.6,0.6,3.9c0,0,0,0.1,0,0.1c-1.5,0.9-3,1.6-4.5,2.3c0.5-0.9,0.7-2,0.8-3c0.1-0.7,0.2-2-0.6-2.4
		c-1-0.5-1.8,1-2.1,1.7c-0.5,1.5-0.2,3-0.6,4.5c0,0,0,0.1,0,0.1c-1.6,0.5-3.2,0.9-4.9,1.2c0.6-0.6,1-1.2,1.3-2.1
		c0.2-0.6,0.7-1.8,0.1-2.4c-0.7-0.7-1.7,0.4-2.2,0.9C325.7,139.4,325.5,140.9,324.9,142.2z M339.9,136.1c-0.1-0.5-0.2-0.9-0.3-1.4
		c-0.1-0.4-0.2-0.9,0-1.4c0-0.1,0.2-0.5,0.3-0.5c0,0,0,0,0.1,0.1c0.4,0.6,0.1,1.8,0.1,2.4C339.9,135.5,339.9,135.8,339.9,136.1z
		 M344.6,134.1c1-1.5,2.5-3.3,4.2-3.4c0.8,0,1.3,0.3,0.7,1c-0.4,0.5-1.1,0.8-1.7,1.1C346.7,133.2,345.6,133.6,344.6,134.1z
		 M341,138.4c0.4,0.1,0.8,0.2,1.3,0.3c0.3,0.1,0.6,0.1,0.9,0.2c0.3,0.1,0.6,0.2,0.9,0.4c-0.1,0.6-0.3,0.8-0.7,0.7
		C342.5,140.1,341.7,139.2,341,138.4z M334.5,141.9c1.1,0.2,2.5,0,3.4,0.7c0.4,0.3,0.3,0.6-0.2,0.9c-0.6,0.3-1.3-0.2-1.8-0.5
		C335.4,142.6,334.9,142.2,334.5,141.9z M333.3,140c0.1-0.6,0.1-1.2,0.1-1.8c0.1-0.8,0.1-2.6,1-2.9c0.1,0,0-0.1,0.1,0.2
		c0,0.2,0,0.3,0,0.5c0,0.3,0,0.7-0.1,1C334.3,138,334.1,139.2,333.3,140z M326.7,143.6c1.4,0.4,4.3,0.7,4.1,1.8
		c-0.2,1.2-2.3,0.3-2.8-0.2C327.5,144.7,327.1,144.2,326.7,143.6z M327.2,139.2c0.2-0.2,0.4-0.5,0.6-0.7c0.1,0,0.2-0.1,0.3-0.1
		c0,0.6-0.5,1.6-0.7,1.9c-0.3,0.6-0.8,1-1.3,1.4c0.1-0.4,0.3-0.9,0.4-1.3C326.7,140,326.9,139.6,327.2,139.2z"/>
</g>
<g>
	<path class="st2" d="M282.2,123.3c0.5,0.8,1.5,1.4,2.5,1.4c0,0.3,0.1,0.6,0.1,0.9c0.1,1.1,0.4,2,0.7,3c-1-0.9-2.1-1.4-2.8-0.7
		c-1,1,0,2.5,0.8,3.1c1.1,0.9,2.6,1.6,4,1.7c0.4,0,0.5-0.3,0.4-0.6c1.1-1.2,3.9-4.6,2.3-5.7c-1.6-1.1-2.8,2-3.2,3.8
		c-0.5-1.4-1.1-2.7-1.2-4.2c0-0.3-0.1-0.7-0.1-1c1.2-0.5,4.2-2.3,3-3.4c-0.6-0.6-1.7-0.1-2.2,0.3c-0.3,0.2-0.6,0.5-0.9,0.9
		c0-0.6,0.1-1.2,0.3-1.8c0.1,0,0.1,0,0.2-0.1c0.8-0.7,1.4-1.6,1.9-2.5c0.4-0.7,1-1.8,0.4-2.5c-0.8-0.8-1.9-0.1-2.4,0.6
		c-0.7,1-1.2,2.5-1,3.7c0,0.1,0.1,0.2,0.1,0.2c-0.3,0.6-0.4,1.3-0.4,2c-0.1-0.2-0.3-0.4-0.4-0.6c-0.4-0.5-1-1.2-1.7-1
		C281.7,121.4,281.8,122.7,282.2,123.3z M286.5,119.1c-0.2,0.3-0.4,0.6-0.6,0.8c0-0.7,0.3-1.4,0.5-2.1c0.2-0.4,0.4-0.9,0.8-1.1
		c0.5-0.2,0.4-0.1,0.4,0.2C287.6,117.7,286.8,118.6,286.5,119.1z M289.1,127.7c0.2-0.3,0.5-0.7,0.6-0.3c0.2,0.6-1,2.1-1.3,2.5
		c-0.2,0.2-0.3,0.5-0.5,0.7c0.1-0.6,0.4-1.3,0.6-1.8C288.7,128.5,288.8,128,289.1,127.7z M285.3,129.8c0.3,0.3,0.7,0.8,1,1.2
		c0.1,0.2,0.1,0.4,0.1,0.6c-0.6-0.2-1.1-0.5-1.6-0.8c-0.3-0.2-2.3-1.7-1.4-2.2C283.9,128.3,285,129.5,285.3,129.8z M286.1,123.9
		c0.2-0.3,0.4-0.5,0.6-0.8c0.2-0.2,0.4-0.4,0.7-0.6c0.1-0.1,0.2-0.1,0.4-0.2c0.1,0,0.1,0,0.2,0c-0.1,0.1-0.1,0.1-0.2,0.2
		c-0.2,0.2-0.4,0.4-0.6,0.6C286.7,123.5,286.4,123.7,286.1,123.9z M282.9,122.1C282.9,122.1,282.9,122.1,282.9,122.1
		c0.4,0.5,0.8,0.9,1.1,1.3c0.1,0.1,0.1,0.2,0.2,0.3c-0.5-0.2-0.9-0.5-1.2-0.9C282.8,122.6,282.8,122.3,282.9,122.1z"/>
</g>
<g>
	<path class="st2" d="M276.9,174.6L276.9,174.6c-0.2-1.9-0.5-3.8-0.8-5.6c-0.1-0.9-0.3-1.9-0.4-2.8c-0.5-3.3-0.6-4.9-0.7-7.9
		c0-0.7-0.1-1.5-0.1-2.5c-0.1-1.1-0.5-6.6-0.4-8.9c0,0,0,0,0,0l0,0c0,0,0,0,0,0c0-0.2,0.2-0.4,0.5-0.4c0.2,0,0.3,0.1,0.4,0.2
		c0.2,0.2,1.2,0.7,1.6,0.9c0.2,0.1,0.3,0.2,0.4,0.2l0.2,0.1c4.8,2.9,9.4,5.6,13.8,8.3c5.5,3.3,11.1,6.7,17.3,10.4
		c0.5,0.3,5.5,3.5,6.8,4.4c0.1,0.1,0.2,0.2,0.2,0.3c0,0.1-0.1,0.3-0.2,0.4c-1.7,1.3-3.4,2.3-5.3,3.4c-1,0.6-2.1,1.2-3.1,1.8
		c-2.6,1.6-5.4,2.9-8.4,3.8c-0.3,0.1-1,0.5-1.7,0.9c-2.3,1.3-3.9,2.1-4.6,1.6l-11.5-6.4c-0.1,0-0.3-0.2-0.6-0.3
		c-1-0.4-1.6-0.8-2.1-1C277.2,175.1,277,174.8,276.9,174.6z M277.4,174.5L277.4,174.5L277.4,174.5z M277.8,174.5
		C277.8,174.5,277.8,174.5,277.8,174.5C277.8,174.5,277.8,174.5,277.8,174.5z M292.7,182.6c0.5,0.2,2.8-1.1,3.8-1.6
		c0.8-0.5,1.5-0.8,1.9-0.9c3-0.9,5.6-2.1,8.2-3.7c1-0.7,2.1-1.3,3.1-1.9c1.6-0.9,3.2-1.8,4.7-2.9c-1.8-1.2-5.8-3.8-6.3-4
		c-6.2-3.7-11.8-7.1-17.3-10.4c-4.4-2.7-9-5.4-13.8-8.3l-0.2-0.1c-0.1,0-0.2-0.1-0.4-0.2c-0.5-0.3-0.8-0.4-1.1-0.6
		c0,2.6,0.3,7.2,0.4,7.9c0,0,0,0,0,0c0.1,0.9,0.1,1.8,0.1,2.5c0.2,2.9,0.2,4.5,0.7,7.8c0.1,0.9,0.3,1.9,0.4,2.8
		c0.3,1.8,0.6,3.7,0.8,5.5c0.3,0.3,2.1,1.2,2.7,1.4c0.4,0.2,0.5,0.3,0.6,0.3L292.7,182.6z M277.8,174.3L277.8,174.3L277.8,174.3z
		 M275.3,147L275.3,147L275.3,147z"/>
</g>
</svg>
