<?xml version="1.0" encoding="utf-8"?>
<!-- Generator: Adobe Illustrator 21.0.0, SVG Export Plug-In . SVG Version: 6.00 Build 0)  -->
<svg version="1.1" id="_x33__части__x28_копия_x29_"
	 xmlns="http://www.w3.org/2000/svg" xmlns:xlink="http://www.w3.org/1999/xlink" x="0px" y="0px" viewBox="0 0 210.1 53.7"
	 style="enable-background:new 0 0 210.1 53.7;" xml:space="preserve">
<style type="text/css">
	.st0{fill:#0E0F0F;}
	.st1{fill:#9AC359;}
	.st2{fill:#FFFFFF;}
</style>
<g>
	<path d="M0.8,2.6l0,24.4l-0.8,0L0,1.9l9.4,0l0,0.8L0.8,2.6z"/>
	<path d="M17.8,2.6L17.1,21c0,0.7-0.1,1.5-0.2,2.2c-0.1,0.7-0.2,1.4-0.5,1.9c-0.3,0.6-0.6,1-1.2,1.4s-1.2,0.6-2.1,0.6l-0.3,0l0-0.8
		c0.8,0,1.4-0.2,1.9-0.5c0.4-0.3,0.8-0.7,1-1.2c0.2-0.5,0.3-1.1,0.4-1.7c0-0.6,0.1-1.3,0.1-1.9l0.8-19.1l8.7,0l0,25.2l-0.8,0l0-24.4
		L17.8,2.6z"/>
	<path d="M31.6,21.2l-1.5,5.9l-0.7,0l6.1-25.2l1.1,0l6.2,25.2l-0.8,0l-1.5-5.9L31.6,21.2z M31.7,20.4l8.7,0L36,2.8L31.7,20.4z"/>
	<path d="M51.5,1.9c1.8,0,3.1,0.5,3.8,1.4s1.1,2.2,1.1,3.9l0,1.6c0,1.4-0.2,2.5-0.7,3.4c-0.5,0.8-1.4,1.3-2.9,1.6
		c1.5,0.2,2.5,0.8,3.2,1.8c0.6,1,0.9,2.2,0.9,3.6l0,2.2c0,1.8-0.4,3.2-1.2,4.2c-0.8,1-2.2,1.6-4.1,1.6l-5.1,0l0-25.2L51.5,1.9z
		 M51.5,26.4c1.7,0,2.8-0.4,3.5-1.3s1-2.1,1-3.7l0-2.3c0-1.8-0.4-3.1-1.3-3.9c-0.9-0.7-2.2-1.1-3.9-1.1l-3.6,0l0,12.3L51.5,26.4z
		 M50.5,13.4c0.9,0,1.6-0.1,2.3-0.2c0.6-0.1,1.2-0.3,1.6-0.7c0.4-0.3,0.7-0.8,0.9-1.4c0.2-0.6,0.3-1.3,0.3-2.2l0-1.7
		c0-1.5-0.3-2.6-0.8-3.4c-0.6-0.8-1.6-1.1-3.2-1.1l-4.2,0l0,10.7L50.5,13.4z"/>
	<path d="M61.2,14.9l0,12.2l-0.8,0l0-25.2l0.8,0l0,12.2l9.1,0l0-12.2l0.8,0l0,25.2l-0.8,0l0-12.2L61.2,14.9z"/>
	<path d="M76.9,21.2l-1.5,5.9l-0.7,0l6.1-25.2l1.1,0l6.2,25.2l-0.8,0l-1.5-5.9L76.9,21.2z M77.1,20.5l8.7,0L81.4,2.9L77.1,20.5z"/>
	<path d="M98.7,15.6c-0.8,0-1.6,0.1-2.2,0.2c-0.7,0.1-1.3,0.4-1.7,0.7c-0.5,0.3-0.9,0.8-1.1,1.4c-0.3,0.6-0.4,1.4-0.4,2.3l0,4
		c0,0.6,0,1.1-0.1,1.6c-0.1,0.5-0.2,1-0.5,1.4l-0.9,0c0.3-0.4,0.5-0.9,0.6-1.4c0.1-0.6,0.1-1.1,0.1-1.5l0-4c0-1.4,0.3-2.5,0.9-3.4
		c0.6-0.9,1.6-1.4,3.1-1.6c-1.4-0.3-2.4-0.8-3-1.7c-0.6-0.9-1-2.1-0.9-3.6l0-2.3c0-1.7,0.4-3.1,1.2-4.1c0.8-1,2.1-1.5,4-1.5l5,0
		l0,25.2l-0.8,0l0-11.6L98.7,15.6z M97.6,2.7c-1.6,0-2.8,0.4-3.4,1.3c-0.7,0.9-1,2.1-1,3.6l0,2.3c0,1,0.1,1.8,0.4,2.4
		c0.3,0.6,0.6,1.1,1.1,1.5c0.5,0.4,1,0.6,1.7,0.7c0.7,0.1,1.5,0.2,2.3,0.2l3.1,0l0-12.1L97.6,2.7z"/>
</g>
<g>
	<g>
		<path class="st0" d="M191.2,36c1-2.4-4.8-2.7-7.8-2.7c0.4-0.3,0.8-0.7,1.2-1c3.6-3.1,7.2-6.4,10.1-10.3c0.5-0.6-0.5-1.3-1-0.7
			c-2.8,3.8-6.3,7-9.9,10.1c-0.2,0.1-0.3,0.3-0.5,0.4c0.3-1,0.3-2.1,0.3-3c-0.1-0.9-0.6-3.8-2.2-2.7c-1.1,0.7-1.2,2.9-1.3,4
			c-0.1,1.3-0.3,3,0.2,4.2c-2.4,1.9-4.8,3.8-7.3,5.5c0.6-1.1,1-2.2,1-3.5c0-1.1-0.2-2.9-1.7-2.5c-2.5,0.7-1.8,6-2,7.8c0,0,0,0,0,0
			c-3.5,2.3-7.2,4.5-11,6c-0.1,0-0.1,0-0.2,0.1c1.8-2.2,4.5-6,2.5-7.1c-2.8-1.4-3.9,5.2-4.4,7.5c-0.1,0.2-0.2,0.3-0.2,0.3
			c0,0,0,0,0,0c-3.9,1.2-7.9,1.9-11.8,2.7c-0.8,0.2-0.6,1.4,0.2,1.2c4.1-0.8,8.2-1.5,12.2-2.8c1.5,1.2,2.8,2.7,4.5,3.6
			c0.9,0.5,3.3,1.2,4.1-0.3c0.6-1.1-0.9-2.1-1.6-2.6c-1.3-0.9-2.9-1.4-4.5-1.7c3.9-1.6,7.7-3.9,11.3-6.3c0.8,0.6,1.5,1.4,2.4,1.9
			c0.8,0.5,1.7,1,2.6,1.3c0.9,0.3,2.8,0.5,2.8-1.1c0-1.3-1.9-1.9-2.8-2.3c-1-0.4-2.2-0.8-3.3-1c2.9-2,5.7-4.2,8.5-6.4
			c1.7,0.9,3.4,1.9,5.3,2.3C188,37.2,190.6,37.5,191.2,36z M172.2,35.7c0.6-1.6,0.8,0.3,0.7,1c-0.1,1.2-0.6,2.1-1.2,3.1
			C171.7,38.4,171.7,37,172.2,35.7z M163.4,50.9c0.4,0.2,0.7,0.4,1,0.7c0.4,0.3,1,0.6,0.5,0.9c-1.1,0.8-3.2-1-3.9-1.6
			c-0.4-0.3-0.8-0.7-1.2-1C161,50,162.3,50.3,163.4,50.9z M160.9,41.9c0.6,0.2-0.6,2.1-1.8,3.8C159.6,43.8,160.3,41.7,160.9,41.9z
			 M174.6,42.8c0.9,0.3,2.7,0.6,3.3,1.4c0.5,0.7-0.5,0.3-0.9,0.2c-0.7-0.3-1.3-0.6-1.9-1c-0.4-0.2-0.8-0.5-1.1-0.8
			C174.1,42.7,174.4,42.7,174.6,42.8z M181.3,33.3c-0.1-0.7,0-1.6,0-2.1c0.1-1.1,0.2-2.3,0.5-3.3c0.1-0.2,0.1-0.4,0.2-0.6
			c0-0.1,0.1-0.1,0.1-0.1c0,0,0,0.1,0,0.2c0.3,0.5,0.3,1.4,0.3,2C182.4,30.6,182.2,32.3,181.3,33.3z M185.9,35.4
			c-0.7-0.3-1.3-0.6-2-0.9c1.1,0,2.1,0,3.1,0.2c0.4,0.1,2.9,0.6,2.8,1C189.7,36.6,186.3,35.5,185.9,35.4z"/>
	</g>
	<g>
		<path class="st0" d="M185.2,21.5c0-0.1-0.1-0.1-0.1-0.2c-0.1-0.3,0.1-0.6,0.3-0.7l8.1-3.7l-3.3-10.1c-0.1-0.3,0-0.6,0.3-0.7
			c0.2-0.1,0.6-0.1,0.7,0.1l6.5,6.9l7.3-7.6c0.2-0.2,0.5-0.2,0.8-0.1c0.2,0.2,0.3,0.5,0.2,0.7l-4.5,9.8l8.1,3.6
			c0.3,0.1,0.4,0.4,0.3,0.7c-0.1,0.3-0.3,0.5-0.6,0.5l-9.6,0.3l-2,8.7c-0.1,0.3-0.3,0.5-0.6,0.5c-0.3,0-0.5-0.2-0.6-0.4l-2.2-7.8
			l-8.8-0.1C185.5,21.8,185.4,21.7,185.2,21.5z M192.3,9.1l2.7,8c0.1,0.3,0,0.6-0.3,0.7l-6.1,2.8l6.5,0.1c0.3,0,0.5,0.2,0.6,0.4
			l1.7,6l1.6-6.9c0.1-0.3,0.3-0.5,0.6-0.5l7.4-0.2l-6.2-2.7c-0.1-0.1-0.3-0.2-0.3-0.3c-0.1-0.2-0.1-0.3,0-0.5l3.2-7.1l-5.3,5.5
			c-0.1,0.1-0.3,0.2-0.4,0.2c-0.2,0-0.3-0.1-0.4-0.2L192.3,9.1z"/>
	</g>
</g>
<path class="st1" d="M142.3,32.3l-25.8-0.1c-1.2,0-2.2-1-2.2-2.2l0.1-27.7c0-1.2,1-2.2,2.2-2.2l25.8,0.1c1.2,0,2.2,1,2.2,2.2
	l-0.1,27.7C144.5,31.3,143.5,32.3,142.3,32.3"/>
<path class="st2" d="M133.5,12.4c-1.7-1.5-3.4-3.1-5.1-4.6c-1.8-1.7-4.7,1-2.8,2.7c1.3,1.2,2.6,2.3,3.9,3.5c0.6,0.6,1.3,1.2,1.9,1.8
	c0.2,0.2,0.5,0.4,0.8,0.6c-0.4,0.4-0.8,0.8-1,1.1c-0.6,0.8-1.2,1.6-1.8,2.4c-1.1,1.6-2.1,3.2-2.8,4.9c-1,2.3,2.7,3.4,3.7,1.1
	c0.8-1.8,2-3.4,3.1-5c1-1.3,2.9-2.9,3.1-4.5C136.7,14.6,134.7,13.4,133.5,12.4"/>
</svg>
