<svg id="_3_части_копия_" data-name="3 части (копия)" xmlns="http://www.w3.org/2000/svg" viewBox="0 0 304.38 158.48"><defs><style>.cls-1{fill:#201600;}.cls-2{fill:#020608;}.cls-3{fill:#9ac359;}.cls-4{fill:#fff;}</style></defs><title>mobile-holiday</title><path class="cls-1" d="M107.67,72.5l0,24.44h-.79l0-25.2h10.69l0,25.2h-.79l0-24.44Z"/><path class="cls-1" d="M126.25,71.77a6,6,0,0,1,2.45.45,4.07,4.07,0,0,1,1.62,1.26,5.17,5.17,0,0,1,.88,1.93,10.41,10.41,0,0,1,.27,2.45v2.52a6.24,6.24,0,0,1-1.39,4.46,5.89,5.89,0,0,1-4.41,1.44h-3.6V97h-.79l0-25.2Zm-.59,13.75a5.17,5.17,0,0,0,3.84-1.2,5.47,5.47,0,0,0,1.17-3.9V77.82a9.8,9.8,0,0,0-.21-2.12,4.35,4.35,0,0,0-.74-1.68,3.55,3.55,0,0,0-1.37-1.1,5,5,0,0,0-2.11-.4h-4.18v13Z"/><path class="cls-1" d="M137.1,91,135.62,97h-.72L141,71.75h1.12L148.33,97h-.79L146.06,91Zm.15-.72h8.68l-4.37-17.65Z"/><path class="cls-1" d="M157.21,71.62a5.43,5.43,0,0,1,2.45.51,4.31,4.31,0,0,1,1.62,1.37,6,6,0,0,1,.9,2,10.24,10.24,0,0,1,.29,2.48v.65a5.63,5.63,0,0,1-1,3.26,4.78,4.78,0,0,1-2.7,1.92,4.34,4.34,0,0,1,2.75,1.82,5.71,5.71,0,0,1,.91,3.22v1.94a10.24,10.24,0,0,1-.29,2.48,6,6,0,0,1-.9,2,4.31,4.31,0,0,1-1.62,1.37,6.19,6.19,0,0,1-4.9,0,4.45,4.45,0,0,1-1.64-1.37,5.74,5.74,0,0,1-.92-2,10.18,10.18,0,0,1-.29-2.48V89h.79v1.87a9.76,9.76,0,0,0,.23,2.18,5.1,5.1,0,0,0,.75,1.78A3.79,3.79,0,0,0,155,96a4.44,4.44,0,0,0,2.11.45,4.55,4.55,0,0,0,2.12-.45,3.7,3.7,0,0,0,1.39-1.22,5.3,5.3,0,0,0,.76-1.8,9.72,9.72,0,0,0,.24-2.18V88.87a4.82,4.82,0,0,0-1.17-3.33,4.05,4.05,0,0,0-3.18-1.32h-1.62V83.5h1.66a3.81,3.81,0,0,0,1.73-.39,4.51,4.51,0,0,0,1.37-1,4.78,4.78,0,0,0,.9-1.51,5.09,5.09,0,0,0,.33-1.8V78a9.94,9.94,0,0,0-.23-2.21,5.11,5.11,0,0,0-.75-1.78,3.77,3.77,0,0,0-1.38-1.21,5.24,5.24,0,0,0-4.25,0,3.76,3.76,0,0,0-1.39,1.2,5.09,5.09,0,0,0-.76,1.78,9.75,9.75,0,0,0-.24,2.18V79h-.72V78a10,10,0,0,1,.29-2.45,5.93,5.93,0,0,1,.9-2,4.31,4.31,0,0,1,1.62-1.37A5.43,5.43,0,0,1,157.21,71.62Z"/><path class="cls-1" d="M180.15,100.56V97l-13.36,0v3.53H166V96.26h1.8a3.69,3.69,0,0,0,1-1.94,17.9,17.9,0,0,0,.29-2.38l1.07-20.12h8.53l0,24.44h2.23v4.28ZM169.93,92a21.86,21.86,0,0,1-.25,2.34,3.75,3.75,0,0,1-1,1.94h9.22l0-23.69h-7Z"/><path class="cls-1" d="M185.38,84.79V97h-.79l0-25.2h.79V84.07h9.11V71.84h.79l0,25.2h-.79V84.8Z"/><path class="cls-1" d="M204.35,85.32l-4.41,11.73h-1l0-25.2h.76l0,23.69,3.5-9.36,5.42-14.32h1.08l0,25.2h-.76l0-24Z"/><path class="cls-1" d="M223.33,84.3a5,5,0,0,1-4.83,2.84,4.88,4.88,0,0,1-2.34-.52,4.54,4.54,0,0,1-1.58-1.39,5.94,5.94,0,0,1-.9-2,9.66,9.66,0,0,1-.29-2.39v-9h.79V80.8a9.33,9.33,0,0,0,.23,2.12,5.09,5.09,0,0,0,.77,1.78,4,4,0,0,0,1.38,1.24,4.23,4.23,0,0,0,2.07.47,4.64,4.64,0,0,0,3-.9,5.43,5.43,0,0,0,1.71-2.63v-11h.79l0,25.2h-.79Z"/><path class="cls-1" d="M229.91,91.15l-1.48,5.94h-.72l6.11-25.23h1.12l6.2,25.24h-.79l-1.47-5.94Zm.15-.72h8.68l-4.37-17.64Z"/><path class="cls-1" d="M250.1,97.11l0-24.44h-5.51V71.9h11.81v.76h-5.51l0,24.44Z"/><path class="cls-1" d="M264.33,82.62a6,6,0,0,1,4.44,1.45,6.24,6.24,0,0,1,1.38,4.47V91a10.38,10.38,0,0,1-.27,2.45,5.16,5.16,0,0,1-.88,1.92,4.06,4.06,0,0,1-1.62,1.26,6.08,6.08,0,0,1-2.48.45H260l0-25.2h.79V82.61Zm.56,13.75A5.09,5.09,0,0,0,267,96a3.52,3.52,0,0,0,1.39-1.1,4.35,4.35,0,0,0,.74-1.67,9.78,9.78,0,0,0,.22-2.12V88.49a5.41,5.41,0,0,0-1.18-3.91,5.24,5.24,0,0,0-3.85-1.21h-3.56v13Z"/><path class="cls-1" d="M72.23,105.9v-1.5h5.1v1.5H75.6v9H73.94v-9Z"/><path class="cls-1" d="M79,112.39v-5.46a2.75,2.75,0,0,1,.65-1.95,2.85,2.85,0,0,1,3.72,0,2.75,2.75,0,0,1,.64,2v5.46a2.75,2.75,0,0,1-.65,1.95,2.85,2.85,0,0,1-3.72,0A2.75,2.75,0,0,1,79,112.39Zm1.66-5.56v5.67q0,1,.85,1t.86-1v-5.67q0-1-.85-1T80.69,106.83Z"/><path class="cls-1" d="M88.67,104.42q2.46,0,2.46,2.6v1.36q0,2.59-2.46,2.59h-.78v3.94H86.23v-10.5Zm0,1.5h-.78v3.56h.78a.78.78,0,0,0,.61-.22,1.14,1.14,0,0,0,.2-.76v-1.57a1.14,1.14,0,0,0-.2-.77A.78.78,0,0,0,88.67,105.92Z"/><path class="cls-1" d="M92.54,105.93v-1.5h5.1v1.5H95.91v9H94.25v-9Z"/><path class="cls-1" d="M104.24,104.44v4.25l2-4.24h1.65l-2,4.26,2,6.24h-1.7l-1.5-4.65-.41.79v3.85h-1.63v-3.85l-.4-.81-1.51,4.66H99l2-6.19-2-4.31h1.65l1.95,4.25v-4.25Z"/><path class="cls-1" d="M111.32,105.95v2.92h2.27v1.5h-2.27v3.08h2.85V115h-4.5v-10.5h4.5V106Z"/><path class="cls-1" d="M119.53,111h1.56v1.4a2.78,2.78,0,0,1-.63,2,2.79,2.79,0,0,1-3.66,0,2.78,2.78,0,0,1-.63-2V107a2.78,2.78,0,0,1,.63-2,2.79,2.79,0,0,1,3.66,0,2.78,2.78,0,0,1,.63,2v1h-1.56v-1.12q0-1-.85-1t-.86,1v5.67q0,1,.85,1t.86-1Z"/><path class="cls-1" d="M122.75,106v-1.5h5.1V106h-1.73v9h-1.65v-9Z"/><path class="cls-1" d="M132.18,104.47a2.11,2.11,0,0,1,2.44,2.42v.38a2.09,2.09,0,0,1-1.07,2.11,2.13,2.13,0,0,1,1.23,2.25v.85a2.24,2.24,0,0,1-2.51,2.49h-2.59v-10.5Zm-.11,5.77h-.73v3.23h.94a.83.83,0,0,0,.65-.23,1.2,1.2,0,0,0,.21-.8v-.92a1.52,1.52,0,0,0-.25-1A1,1,0,0,0,132.07,110.25Zm.06-4.27h-.79v2.77H132a1,1,0,0,0,.74-.25,1.21,1.21,0,0,0,.25-.85v-.58Q133,106,132.14,106Z"/><path class="cls-1" d="M136.76,112.46V107a2.75,2.75,0,0,1,.65-1.95,2.85,2.85,0,0,1,3.72,0,2.75,2.75,0,0,1,.64,2v5.46a2.75,2.75,0,0,1-.65,1.95,2.85,2.85,0,0,1-3.72,0A2.75,2.75,0,0,1,136.76,112.46Zm1.66-5.56v5.67q0,1,.85,1t.86-1V106.9q0-1-.85-1T138.42,106.9Z"/><path class="cls-1" d="M144.59,115H144V113.4h1.59v1.42l-.72,1.66h-.68Z"/><path class="cls-1" d="M154.52,107.66v-.58a1.51,1.51,0,0,0-.22-.94.78.78,0,0,0-.64-.26q-.87,0-.87,1v.85h-1.52V107a2.77,2.77,0,0,1,.62-1.94,2.8,2.8,0,0,1,3.65,0,2.78,2.78,0,0,1,.63,2v.27a2.08,2.08,0,0,1-1.16,2.16,2.15,2.15,0,0,1,1.15,2.21v.83a2.78,2.78,0,0,1-.63,2,2.79,2.79,0,0,1-3.66,0,2.78,2.78,0,0,1-.63-2v-1.15h1.56v1.26q0,1,.85,1a.78.78,0,0,0,.64-.26,1.47,1.47,0,0,0,.22-.92v-.83a1.62,1.62,0,0,0-.25-1,1,1,0,0,0-.82-.31H153v-1.5h.5a1,1,0,0,0,.74-.25A1.21,1.21,0,0,0,154.52,107.66Z"/><path class="cls-1" d="M163.83,104.51l-1.78,7.83a4,4,0,0,1-1,2.16,3.12,3.12,0,0,1-2.33.52v-1.47a2,2,0,0,0,1-.13.92.92,0,0,0,.44-.72l0-.09-2.27-8.1h1.63l.9,3.59.51,2.46.39-2.44.75-3.6Z"/><path class="cls-1" d="M168.26,115h-2.61v-10.5h4.62V106h-3v2.69h1a2.44,2.44,0,0,1,1.86.67,2.7,2.7,0,0,1,.63,1.93v1.13a2.71,2.71,0,0,1-.63,1.93A2.44,2.44,0,0,1,168.26,115Zm-1-1.5h1q.84,0,.84-1v-1.33q0-1-.84-1h-1Z"/><path class="cls-1" d="M174.65,106v2.92h2.27v1.5h-2.27v3.08h2.85V115H173v-10.5h4.5V106Z"/><path class="cls-1" d="M179.17,115v-1.5a1.23,1.23,0,0,0,.8-.19,1.34,1.34,0,0,0,.22-.89l.28-7.93h4.67V115h-1.68v-9H182l-.19,6.34a3.2,3.2,0,0,1-.6,2.05,2.32,2.32,0,0,1-1.8.61Z"/><path class="cls-1" d="M189.17,106V109h2.27v1.5h-2.27v3.08H192V115h-4.5v-10.5H192V106Z"/><path class="cls-1" d="M194.15,115v-10.5h1.47v6.65l.6-2.31,1.35-4.33h1.81v10.5H197.9v-7.4l-.68,2.58L195.85,115Zm3.19-12.3a.83.83,0,0,1-.54.15.76.76,0,0,1-.51-.14.78.78,0,0,1-.19-.55h-1a1.78,1.78,0,0,0,.46,1.23,1.7,1.7,0,0,0,1.27.44,1.78,1.78,0,0,0,1.31-.44,1.63,1.63,0,0,0,.45-1.22h-1A.76.76,0,0,1,197.35,102.75Z"/><path class="cls-1" d="M208.24,110.25l-1.39,4.81h-1.69v-10.5h1.47v6.65l.6-2.31,1.35-4.33h1.81v10.5h-1.48v-7.4Z"/><path class="cls-1" d="M218.43,104.57l1.21,7.46,1.13-7.45h2.29v10.5H221.5v-7.53l-1.15,7.53H218.8l-1.22-7.43v7.42h-1.44v-10.5Z"/><path class="cls-1" d="M227,110.58v4.5h-1.65v-10.5H227v4.5h1.88v-4.5h1.68v10.5h-1.68v-4.5Z"/><path class="cls-1" d="M232.78,112.57v-5.46a2.75,2.75,0,0,1,.65-1.95,2.85,2.85,0,0,1,3.72,0,2.75,2.75,0,0,1,.64,2v5.46a2.75,2.75,0,0,1-.65,1.95,2.85,2.85,0,0,1-3.72,0A2.75,2.75,0,0,1,232.78,112.57Zm1.66-5.56v5.67q0,1,.85,1t.86-1V107q0-1-.85-1T234.44,107Z"/><path class="cls-1" d="M241.64,115.1H240V104.6h4.35v1.5h-2.7Z"/><path class="cls-1" d="M246.44,112.58v-5.46a2.75,2.75,0,0,1,.65-1.95,2.85,2.85,0,0,1,3.72,0,2.75,2.75,0,0,1,.64,2v5.46a2.75,2.75,0,0,1-.65,1.95,2.85,2.85,0,0,1-3.72,0A2.75,2.75,0,0,1,246.44,112.58ZM248.1,107v5.67q0,1,.85,1t.86-1V107q0-1-.85-1T248.1,107Z"/><path class="cls-1" d="M255.3,106.11V109h2.27v1.5H255.3v3.08h2.85v1.5h-4.5v-10.5h4.5v1.5Z"/><path class="cls-1" d="M270.14,116.54H268.5v-1.41H265v1.41h-1.6v-2.88H264a2.35,2.35,0,0,0,.41-1.36l.38-7.66h4.62v9h.72Zm-3.78-10.41-.31,6.13a2.08,2.08,0,0,1-.47,1.39h2.16v-7.53Z"/><path class="cls-1" d="M274.62,104.64q2.46,0,2.46,2.6v1.36q0,2.59-2.46,2.59h-.78v3.94h-1.65v-10.5Zm0,1.5h-.78v3.56h.78a.78.78,0,0,0,.61-.22,1.14,1.14,0,0,0,.2-.76v-1.57a1.14,1.14,0,0,0-.2-.77A.78.78,0,0,0,274.62,106.14Z"/><path class="cls-1" d="M284.4,104.65l-1.78,7.83a4,4,0,0,1-1,2.16,3.12,3.12,0,0,1-2.33.52v-1.47a2,2,0,0,0,1-.13.92.92,0,0,0,.44-.72l0-.09-2.27-8.1h1.63l.9,3.59.51,2.46.39-2.44.75-3.6Z"/><path class="cls-1" d="M287.87,115.15h-1.65v-10.5h4.35v1.5h-2.7Z"/><path class="cls-1" d="M292.67,112.64v-5.46a2.75,2.75,0,0,1,.65-1.95,2.85,2.85,0,0,1,3.72,0,2.75,2.75,0,0,1,.64,2v5.46a2.75,2.75,0,0,1-.65,1.95,2.85,2.85,0,0,1-3.72,0A2.75,2.75,0,0,1,292.67,112.64Zm1.66-5.56v5.67q0,1,.85,1t.86-1v-5.67q0-1-.85-1T294.33,107.07Z"/><path class="cls-1" d="M301.53,106.17v2.92h2.27v1.5h-2.27v3.08h2.85v1.5h-4.5v-10.5h4.5v1.5Z"/><path class="cls-2" d="M62.8,81C51.15,85.89,46.25,84.63,46,84.57a.32.32,0,0,1-.24-.3,4.81,4.81,0,0,0-1.95-3.4c-1-.76-2.17-1.59-3.41-2.46-5.58-4-12.53-8.88-15.23-14.81C21,54.34,20.22,45,23,37.37a.33.33,0,0,1,.13-.16S28,34,38.67,30.12a56.72,56.72,0,0,1,13.77-3.43,15.15,15.15,0,0,1,4.32,0l.12.05C62.31,30.6,67,36.62,70.44,44.17c2.11,4.64,2.55,11.91,2.9,17.75.1,1.64.19,3.18.31,4.43a5,5,0,0,0,1.56,3.21.32.32,0,0,1,.12.27c0,.24-.54,5.68-11.38,10.62ZM73,66.42c-.12-1.26-.22-2.81-.31-4.45-.33-5.48-.78-13-2.85-17.52-3.38-7.42-8-13.33-13.28-17.1-.61-.11-6-.85-17.66,3.39-9.81,3.56-14.61,6.5-15.32,7-2.67,7.48-1.87,16.58,2.25,25.64,2.62,5.76,9.49,10.63,15,14.55,1.24.88,2.41,1.71,3.42,2.47A5.5,5.5,0,0,1,46.44,84c1.05.18,6,.65,16.1-3.63,6-2.56,9-5.3,10.45-7.15a8,8,0,0,0,1.65-3.26A5.71,5.71,0,0,1,73,66.42Z"/><path class="cls-2" d="M56.13,27.18a.33.33,0,0,0,.2-.3,3.82,3.82,0,0,0-1.89-3.37c-3.83-2.49-13-1.42-18.86,1.09-6.68,2.87-12.29,7.54-12.79,10.65a2.26,2.26,0,0,0,.76,2.19.33.33,0,0,0,.47,0,.33.33,0,0,0,0-.46,1.61,1.61,0,0,1-.55-1.59c.46-2.85,6-7.4,12.4-10.14,5.68-2.44,14.68-3.44,18.23-1.14a3.2,3.2,0,0,1,1.59,2.82.33.33,0,0,0,.33.33A.33.33,0,0,0,56.13,27.18Z"/><path class="cls-2" d="M73.88,51c4.69-2.13,7.24-6.18,6.89-11.12a22.23,22.23,0,0,0-1.6-6.06c-.35-1-.72-2-1-3-.2-.7-.42-1.42-.64-2.11-1.51-4.9-3.06-10-.28-14.63,2.66-4.45,9.3-6.46,13-7.27a.33.33,0,0,0,.26-.32.32.32,0,0,0-.25-.32c-1.35-.31-2.76-.55-4.11-.78l-1.45-.25L86.06.41a.32.32,0,0,0-.13-.36.33.33,0,0,0-.38,0C85,.46,84,1.1,83,1.78s-2.15,1.4-2.8,1.87a31,31,0,0,0-4.4,3.49l-.6.57a22.13,22.13,0,0,0-6.44,10.11,32.31,32.31,0,0,0-.83,7.77c0,1.08-.06,2.2-.13,3.28,0,.32,0,.67-.05,1-.1,2.21-.22,5-2,6.59a.33.33,0,0,0,0,.46.33.33,0,0,0,.47,0c2-1.82,2.14-4.84,2.23-7,0-.36,0-.7.05-1,.08-1.1.1-2.23.13-3.31A31.82,31.82,0,0,1,69.37,18a21.46,21.46,0,0,1,6.25-9.8l.61-.58a30.52,30.52,0,0,1,4.32-3.42c.64-.46,1.73-1.17,2.77-1.85l1.85-1.22-1,3.45c-.28,1-.28,1-.12,1.14a.33.33,0,0,0,.15.07l1.81.32c.87.15,1.76.3,2.64.47-7.44,1.88-10.64,4.94-12,7.24-2.94,4.91-1.34,10.12.21,15.16.21.69.43,1.41.63,2.1.29,1,.66,2,1,3a21.75,21.75,0,0,1,1.56,5.88c.36,5.2-2.7,9.35-8.19,11.12a.33.33,0,1,0,.2.62A16.27,16.27,0,0,0,73.88,51Z"/><path class="cls-2" d="M33,82h0c2.55-1.17,3.4-3.12,2.54-5.81a11.93,11.93,0,0,0-6.85-6.83,37.22,37.22,0,0,0-3.73-1,30.34,30.34,0,0,1-4.39-1.28,20.44,20.44,0,0,1-7.41-5.28,20.92,20.92,0,0,1-4.62-8.2c-.86-3-1-5.51-.28-7.41a7.57,7.57,0,0,1,6-4.46,7.37,7.37,0,0,1,7.24,2.88.33.33,0,0,0,.46.06.33.33,0,0,0,.07-.46,8,8,0,0,0-7.87-3.13A8.26,8.26,0,0,0,7.69,46c-.72,2-.63,4.65.26,7.8a21.57,21.57,0,0,0,4.76,8.46,21.1,21.1,0,0,0,7.65,5.45A30.84,30.84,0,0,0,24.84,69a36.75,36.75,0,0,1,3.66,1,11.39,11.39,0,0,1,6.45,6.42c.76,2.35,0,4-2.18,5h0A6,6,0,0,1,27,80.51a3.22,3.22,0,0,1-1.41-2.89,2.52,2.52,0,0,1,1.71-2,1.66,1.66,0,0,1,2.27,2.08.32.32,0,0,0,.14.42l.12.06.45.17.14,0,.28.08h0l.29,0h.21a.35.35,0,0,0,.27-.26,1.92,1.92,0,0,0,0-.28,4,4,0,0,0,0-.76c-.27-2.33-1.59-5-3.92-5.73a54.25,54.25,0,0,0-9.73-1.66c-6.57-.68-10.13-7.25-12.24-12.12a22.63,22.63,0,0,1-1.9-7.86.33.33,0,0,0-.31-.31H3.17a9,9,0,0,1-1-.07A1.94,1.94,0,0,1,.9,48.73a1.24,1.24,0,0,1-.22-1,1.91,1.91,0,0,1,2-1.56c.37.05.73.07,1.11.09A.34.34,0,0,0,4.1,46a9.37,9.37,0,0,1,2-3.87c3.3-3.79,11.49-4.65,16.23-1.71a.34.34,0,0,0,.46-.1.32.32,0,0,0-.1-.45C17.6,36.75,9.14,37.66,5.59,41.74a10,10,0,0,0-2.06,3.88c-.26,0-.52,0-.78-.07A2.58,2.58,0,0,0,0,47.64a1.89,1.89,0,0,0,.33,1.48,2.61,2.61,0,0,0,1.73,1,9.06,9.06,0,0,0,1,.07A23.53,23.53,0,0,0,5,58c4.53,10.5,9.46,12.17,12.77,12.51a54.5,54.5,0,0,1,9.6,1.63c2.05.64,3.22,3.06,3.47,5.18a3.3,3.3,0,0,1,0,.55h-.05l-.19,0-.14-.05-.22-.08A2.32,2.32,0,0,0,27,75a3.2,3.2,0,0,0-2.11,2.49A3.86,3.86,0,0,0,26.59,81,6.7,6.7,0,0,0,33,82Z"/><path class="cls-2" d="M33,24.12c1.32.29,3.56.93,4.69-.11s1.58-3.38,1.72-5c.16-1.94.29-5.72-1.87-6.7-1.18-.53-2.51.26-3.31,1.11a5.42,5.42,0,0,0-1.51,3.44c-1.24-.64-2.41-1.62-3.86-1.59a2.77,2.77,0,0,0-2.68,2.58C26,21.35,30.16,23.49,33,24.12ZM27.3,19c-.64-1.78.66-3.39,2.56-2.7,1.06.39,2,1.11,3,1.55a.46.46,0,0,0,.83-.3A4.32,4.32,0,0,1,36,13.16c1.51-.6,2.11.94,2.37,2.12a12.27,12.27,0,0,1,.2,3.36c-.1,1.54-.34,4.86-2.36,5.06a10.9,10.9,0,0,1-2.85-.37,11.41,11.41,0,0,1-2.67-.91A6.47,6.47,0,0,1,27.3,19Z"/><path class="cls-2" d="M17.35,25.15a17.21,17.21,0,0,0,4.2-.91.39.39,0,0,0,.37-.09l.88.44a15.53,15.53,0,0,0,3.92,1.25l.47.06a5.72,5.72,0,0,0-1.73.72c-.52.34-1.5,1.23-.86,1.87s2.19,0,2.87-.4a21.23,21.23,0,0,0,3-2.13l.16-.07h.46c.45,0,.63-.56.36-.76a1.55,1.55,0,0,0-.29-.39.82.82,0,0,0-.27-.11C29.4,23.31,27,22.12,25,22.32a.46.46,0,0,0-.38.49c.13,1.12,1.25,1.81,2.57,2.24a14,14,0,0,1-3.92-1.21c-.38-.18-.76-.37-1.13-.57-.1-.82.07-1.63-.05-2.46a4.83,4.83,0,0,0-.59-1.6c-.38-.7-1.13-1.85-2.09-1.34-1.14.6-.6,2.34.16,3.74a16.18,16.18,0,0,1-2.91-2.84.38.38,0,0,0-.17-.12.38.38,0,0,0,0-.2,6.87,6.87,0,0,0-1.82-3.88c-.66-.59-1.62-.72-2.06.21a2.63,2.63,0,0,0,.71,3c.82.7,2,.92,2.72,1.73a.4.4,0,0,0,.16.11,17.48,17.48,0,0,0,3.71,3.3c-.64-.09-1.29-.12-1.89-.15s-2.38-.17-2.73.73C14.82,24.66,16.57,25.14,17.35,25.15Zm-1.86-7a4.76,4.76,0,0,1-1.92-1.31,1.81,1.81,0,0,1-.26-1.52c.36-.77.95.1,1.22.5A7.12,7.12,0,0,1,15.48,18.14Zm12.58,6.18a4.75,4.75,0,0,1-2.41-1.19,8.12,8.12,0,0,1,3.87,1.53A14.68,14.68,0,0,1,28.07,24.32Zm.09,2.23.39-.08a6.81,6.81,0,0,1-2.62,1.38c-1.11.24.09-.61.4-.76A8.13,8.13,0,0,1,28.16,26.55ZM21,20.42a6,6,0,0,1,.15,2.1c-.65-.92-2.1-3.46-1.38-3.78C20.26,18.53,20.89,20,21,20.42Zm-4.77,3.31c.47-.43,2.33-.06,2.89,0l.78.1c-.4.12-.8.23-1.21.31a4.83,4.83,0,0,1-1.71.14C16.66,24.23,16,24,16.26,23.73Z"/><path class="cls-2" d="M47.54,79.72a.45.45,0,0,0,.15.1c.88.36,2,1.16,3,.62a.42.42,0,0,0,.1-.72,4.43,4.43,0,0,0-.93-.55q.87-.23,1.73-.51a.43.43,0,0,0,.18.15c.69.32,2,1,2.71.33a.42.42,0,0,0,.08-.59,2.67,2.67,0,0,0-1-.61l1.12-.45a4.14,4.14,0,0,0,3.5.4.43.43,0,0,0,.18-.65A2.25,2.25,0,0,0,57,76.45c.77-.36,1.53-.74,2.29-1.12a3.5,3.5,0,0,0,4,.63.41.41,0,0,0,0-.66,4.16,4.16,0,0,0-2.31-.85l2.35-1.21,0,0h0c1.25.18,2.78,1.33,4,.44a.41.41,0,0,0,0-.66,4.38,4.38,0,0,0-2-.85c1.15-.62,2.29-1.27,3.4-2l0,0c.62.54,3.78,1.75,4.27.56.42-1-1.45-1.38-2.81-1.53q1.36-.9,2.63-1.91l.08.08a3.17,3.17,0,0,0,3.44.3.41.41,0,0,0,.08-.59,4.11,4.11,0,0,0-2.32-.85q.94-.83,1.82-1.74a.53.53,0,0,0,.65-.21A9.3,9.3,0,0,0,78,62.25c.13-.52-.13-1.32-.8-1.2s-.89.83-1.1,1.28a8,8,0,0,0-.55,1.45.43.43,0,0,0,0,.11A27.55,27.55,0,0,1,73.38,66c.07-1.1.13-3.06-1.16-2.49-1.06.46-.14,2.56.17,3.3q-1.31,1-2.72,2A2.83,2.83,0,0,0,68.86,66a.47.47,0,0,0-.68.22,3.9,3.9,0,0,0,.13,3.33c-1.14.69-2.3,1.35-3.47,2,.41-1.14.71-2.57-.21-2.71-1.17-.19-1.51,2.62-1.38,3.55l-.54.28-1.89,1a2.74,2.74,0,0,0-.12-2.8.46.46,0,0,0-.62,0c-1.19,1-.84,2.49-1.22,3.79v0c-1,.52-2.08,1-3.14,1.5.48-.88,1.13-1.82.21-2.52a.48.48,0,0,0-.62.12,5.26,5.26,0,0,0-1.19,3,.45.45,0,0,0,0,.06c-.56.23-1.13.45-1.7.66a4.55,4.55,0,0,0,.48-1.67c0-.35-.3-.51-.61-.4C51.36,75.75,51,77,51,78c-.69.22-1.39.41-2.09.58.43-.45.75-1,.28-1.5a.47.47,0,0,0-.7,0,3.42,3.42,0,0,0-.9,1.57l-.12.12a.32.32,0,0,0-.08.17.41.41,0,0,0-.1.38A.37.37,0,0,0,47.54,79.72Zm26.89-12.6a4.19,4.19,0,0,1,.71.15A2.79,2.79,0,0,1,74.43,67.11Zm-5.6,1.4a3,3,0,0,1,0-1A2.9,2.9,0,0,1,68.82,68.51Zm-8.16,6.74A4.94,4.94,0,0,1,62,75.5,4.11,4.11,0,0,1,60.66,75.26Zm-.81-1.45a5,5,0,0,1,.4-1.89A3.73,3.73,0,0,1,59.85,73.8Z"/><path class="cls-3" d="M201.26,158.48l-26.44-.13a2.28,2.28,0,0,1-2.27-2.28l.09-28.35a2.28,2.28,0,0,1,2.28-2.27l26.44.13a2.28,2.28,0,0,1,2.27,2.28l-.09,28.35a2.28,2.28,0,0,1-2.28,2.27"/><path class="cls-4" d="M192.26,138.15l-5.19-4.71c-1.89-1.71-4.78,1-2.88,2.75l4,3.59,2,1.8c.2.18.51.41.81.64-.36.42-.81.84-1,1.12-.64.81-1.27,1.62-1.88,2.45a27.73,27.73,0,0,0-2.91,5c-1,2.34,2.79,3.46,3.81,1.15a26.13,26.13,0,0,1,3.22-5.08c1-1.31,2.95-2.93,3.15-4.63s-1.88-3.05-3-4.11"/></svg>