<?xml version="1.0" encoding="utf-8"?>
<!-- Generator: Adobe Illustrator 22.1.0, SVG Export Plug-In . SVG Version: 6.00 Build 0)  -->
<svg version="1.1" id="Layer_1" xmlns="http://www.w3.org/2000/svg" xmlns:xlink="http://www.w3.org/1999/xlink" x="0px" y="0px"
	 viewBox="0 0 374.1 100.9" style="enable-background:new 0 0 374.1 100.9;" xml:space="preserve">
<style type="text/css">
	.st0{fill:#F9DD39;}
	.st1{fill:#F4D743;}
</style>
<g>
	<g>
		<g>
			<path class="st0" d="M254.6,97.9c-0.7-0.5-2.8,0.1-3.4,0.9c-0.3,0.4-0.6,0.9-0.6,1.2c0,0.7,2.9,0.4,3.1-0.3
				c0.1-0.2,0.3-0.4,0.5-0.5C254.8,99.2,255.1,98.2,254.6,97.9z"/>
			<path class="st0" d="M269.9,97.7c-0.2-0.6-0.1-0.8,0.4-0.6c0.4,0.1,0.6,0,0.6-0.3c0-0.9-1.9-0.4-2.2,0.5
				c-0.2,0.7-0.4,0.8-0.9,0.5c-0.5-0.3-2.9-0.1-4.3,0.4c-0.3,0.1-0.9,0.3-1.3,0.3c-1.2,0.1-0.7,0.9,0.5,0.9c2.1,0,5.9-0.4,6.6-0.7
				C269.9,98.6,270,98.3,269.9,97.7z"/>
			<path class="st0" d="M273.4,98.2c0.2,0.1,0.6,0.1,0.8-0.1c0.2-0.1,0-0.2-0.4-0.2C273.4,98,273.2,98.1,273.4,98.2z"/>
			<path class="st0" d="M276.2,98.2c0.5,0,0.8-0.3,0.7-0.7c0-0.7-1.3-0.8-1.7-0.3C274.9,97.7,275.4,98.2,276.2,98.2z"/>
			<path class="st0" d="M320.9,13.7c0.3,0.4,0.5,0.4,0.7-0.1c0.5-0.7,0.1-1.2-0.6-0.7C320.7,13.1,320.7,13.3,320.9,13.7z"/>
			<path class="st0" d="M302,94.4c0.2,0.6,1.5,0.9,1.5,0.3c0-0.4-0.8-0.9-1.3-0.9C302,93.8,301.9,94.1,302,94.4z"/>
			<path class="st0" d="M289.4,9.5c0,0.4,0.2,0.5,0.5,0.4c0.3-0.2,0.5-0.3,0.6-0.3c0.1,0,0.1-0.3,0.1-0.6c0-0.4-0.2-0.5-0.6-0.3
				C289.7,8.7,289.4,9.1,289.4,9.5z"/>
			<path class="st0" d="M249.4,99c-0.3-0.4-0.5-0.3-0.8,0.4c-0.5,1.1-0.5,1.5,0,1.5C249.3,100.8,249.8,99.5,249.4,99z"/>
			<path class="st0" d="M192.8,6.3c0.2,0.3,0.5,0.6,0.7,0.6c0.2,0,0.3-0.3,0.3-0.7c0-0.4-0.3-0.6-0.7-0.6
				C192.5,5.7,192.5,5.8,192.8,6.3z"/>
			<path class="st1" d="M256.7,92.9c0.1,1.8-0.2,2.6-1.1,3.2c-0.5,0.3-0.3,0.5,1,0.7c1.2,0.2,1.8,0.2,2.1-0.3
				c0.6-0.7,0.6-1.8-0.1-1.7c-0.3,0-0.5,0.2-0.5,0.5c0,0.3-0.1,0.4-0.3,0.2c-0.4-0.3-0.4-2.8,0.1-3.3c0.2-0.3,0.4-0.9,0.4-1.4l0-0.9
				l0.7,0.8c1,1.1,2.7,1.6,2.4,0.7c-0.3-1.1,0.4-1.3,1.4-0.4l0.9,0.8l1.2-1.8c0.7-1.1,1.4,2.4,1.8,2.5c0.7,0.1,1-2,0.5-1.1
				c-0.5,0.9-0.1,0.8,0.8-0.1c0.7-0.7,0.8-0.7,1.3-0.1c0.7,0.8,1.1,0.8,0.9,0c-0.2-0.6,0.5,0.9,0.8,0.9c0.6,0,1.3,1,1.2,1.7
				c-0.1,0.7,0-3.5,0.8-3.8c1.2-0.5,1.4,3.6,1.3,2.6c0-0.5,0.2-0.9,0.4-0.9c0.6,0,1.2,0.8,1.2,1.7c0,0.9,2.2-3,5.6-3.2l2.3-0.2
				l0,1.3c0.1,1.6,0.5,1.6,0.9-0.1c0.2-0.7,0.5-1.3,0.8-1.4c0.3,0,0.5,4,0.5,3.8c0-0.2,0.2-0.4,0.5-0.5c0.3,0,0.5,0.3,0.5,0.6
				c0,0.7,0.4-3.4,0.8-4c0.1-0.2,0.9,3.9,1.7,3.8c1.4-0.1,1.5-0.2,1.5-1.3c0.1-1.8,1-2.3,2.5-1.3c1.4,0.9,2.8,0.6,3.1-0.5
				c0.1-0.5,0.3-0.5,1.1,0c0.9,0.6,1.9,0.4,1.9-0.4c0-0.4,1-0.6,1.4-0.2c0.1,0.1,0.1,0.6-0.1,0.9c-0.3,0.6-0.2,0.6,0.6,0.4
				c0.5-0.2,1.5-0.5,2.2-0.7c0.7-0.2,1.4-0.6,1.5-0.8c0.1-0.2,0.4-0.4,0.6-0.4c0.5,0,0.7,1.9,0.2,2.4c-0.2,0.2-0.2,0.4,0.1,0.7
				c0.3,0.2,0.7,0.1,1-0.3c1.6-1.6,3.1-1.2,2.9,0.7c-0.1,0.8,0,1,0.3,1c0.3,0,0.5-0.4,0.4-0.9c0-0.7,0.2-0.9,1-0.8c0.9,0,1-0.1,1-1
				c0-0.7,0.2-1.1,0.6-1.3c0.4-0.1,0.5,0,0.4,0.3c-0.4,0.9,1.2,0.4,1.8-0.5c0.6-1.1,1.1-1.2,1.2-0.1c0,1.3,0.4,2.2,0.9,2.2
				c0.3,0,0.4-0.6,0.4-2c0-1.1,0-2,0.2-2.2c0.3-0.3,1.7,0.9,1.5,1.3c-0.1,0.2,0,0.6,0.2,0.9c0.2,0.5,0.4,0.5,0.7,0
				c0.2-0.3,0.6-0.6,0.9-0.6c0.3,0,0.8-0.5,1.2-1c0.5-0.9,0.7-0.9,1.3-0.5c0.5,0.4,0.6,0.4,0.6,0c0-0.4,0.1-0.4,0.4,0
				c0.6,0.7,2,0.6,1.7-0.2c-0.2-0.7,0.2-0.9,0.6-0.2c0.1,0.2,0.6,0.6,1,0.8c0.4,0.2,0.7,0.5,0.6,0.8c-0.1,0.2,0.1,0.6,0.3,0.9
				c0.7,0.7,2.5-0.7,2.9-2.2c0.2-1,0.4,3.1,1.3,3.2c0.6,0.1,1.3-0.1,1.7-0.4c0.5-0.3,0.9-0.4,1.5-0.1c0.7,0.4,0.8,0.3,1.1-0.4
				c0.4-1.1,2-1.3,2.8-0.4c0.4,0.5,0.7,0.5,1.2,0.1c0.8-0.7,1.7-0.2,1.6,0.8c-0.1,1,0.7,1.7,1.9,1.5c0.9-0.2,2.3-2.5,2.2-3.7
				c0-0.9,1-1.7,1.7-1.4c0.4,0.2,0.6-0.1,0.7-0.7c0.2-1.1,1.7-1.9,3.8-2.1c0.8-0.1,2-0.5,2.6-1c0.7-0.5,3.3-1.4,6.2-2.2
				c4.6-1.2,5.1-1.2,6.2-0.7c1.1,0.5,1.2,0.5,2-0.2c0.5-0.4,0.9-1.1,1.1-1.4c0.1-0.3,0.5-0.6,0.8-0.6c0.3,0,0.9-0.7,1.3-1.5
				c0.8-1.5,0.9-3,0.4-2.9c-0.2,0-0.3-0.5-0.4-1.2c0-0.8-0.4-1.6-1-2.3c-0.5-0.6-1-1.4-1-1.7c0-0.3-0.2-0.7-0.5-0.8
				c-0.3-0.1-0.5-0.7-0.5-1.3c0-1-0.1-1-0.6-0.6c-0.4,0.4-0.7,0.3-1-0.1c-0.2-0.3-0.7-0.5-1-0.3c-0.5,0.3-1.5-0.2-2.6-1.3
				c-0.3-0.3-0.7-0.4-0.8-0.3c-0.6,0.5-3.3-0.6-3.8-1.6c-0.3-0.5-2-0.3-1.7-1.7c0.2-0.9,2.2-5,1.6-5.9c-0.5-0.9,2.9-4.7,3.2-5.5
				c0.2-0.6,2.5-4,3.5-3.6c0.6,0.3,1.1,0.1,2-0.6c0.6-0.5,1.4-0.9,1.7-1c0.9-0.1,1.9-2.2,1.6-3.5c-0.1-0.6-0.1-1.3,0.1-1.6
				c0.5-1-1.5-4.5-2.6-4.4c-0.4,0-0.7-1-0.8-2.2c0-0.9,0-0.9-0.6-0.1c-0.6,0.8-0.6,0.8-1.8-0.5c-0.6-0.7-1.6-1.4-2.1-1.5
				c-1-0.2-3.2-3-3.3-4.1c0-0.4-0.4-0.7-0.8-0.9c-0.4-0.1-1-0.6-1.3-1c-0.3-0.4-0.7-0.8-0.9-0.8c-0.2,0-0.9-0.7-1.6-1.6
				c-1.1-1.4-1.3-1.6-1.8-1.1c-0.9,0.8-2.2,0-2.2-1.3c0-0.8-0.4-1.2-2.6-2.6c-1.5-0.9-2.9-2-3.2-2.5c-0.3-0.5-1.2-1.4-2-1.9
				c-0.8-0.5-1.7-1.2-2-1.6c-0.2-0.4-0.6-0.6-0.9-0.6c-0.3,0-0.2,0.3,0.3,0.9c0.4,0.5,0.6,1.2,0.5,1.5c-0.1,0.4-0.1,0.9-0.1,1.1
				c0,0.3-0.5-0.2-1.2-1.1c-1-1.3-1.1-1.6-0.8-2.2c0.6-1.1-0.2-1.8-1.1-1.1c-0.5,0.4-0.8,0.4-1.1,0.1c-0.3-0.3-0.5-0.3-0.7,0.1
				c-0.5,0.7-0.7,0.7-1.3-0.1c-0.5-0.6-0.6-0.6-1.3,0.2c-0.6,0.6-0.7,1-0.6,1.8c0.1,0.6,0.1,1-0.1,1c-0.2,0-0.3-0.3-0.3-0.6
				c0-0.6-0.9-0.8-2.3-0.6c-0.3,0.1-0.6-0.3-0.8-0.8c-0.2-0.7-0.4-0.8-1-0.6c-0.4,0.1-1.1,0.1-1.4-0.2c-0.5-0.3-0.7-0.3-0.8,0.1
				c-0.2,0.9-0.6,0.6-0.5-0.3c0.1-0.8,0-0.9-0.6-0.5c-0.4,0.2-0.9,0.4-1.1,0.4c-0.2,0-1-0.1-1.8-0.2c-1.2-0.1-1.5,0-2,0.8
				c-0.7,1.2-1.4,1.2-2.4-0.1c-0.9-1.2-1.3-1.3-1.3-0.4c0,1-0.5,0.8-1.1-0.4c-0.6-1.1-2.3-1.4-2.9-0.4c-0.2,0.4-0.5,0.3-0.9-0.4
				c-0.8-1.2-2.1-1-3.2,0.4c-0.9,1.1-1.9,1.6-1.9,0.8c0-0.2-0.3-0.3-0.6-0.1c-0.8,0.3-0.8,1-0.1,1c0.4,0,0.4,0.1,0.2,0.5
				c-0.3,0.4-0.6,0.4-1.5-0.1c-0.6-0.4-1.1-0.8-1.2-1c0-0.2-0.3-0.5-0.7-0.7c-0.4-0.2-0.7-0.7-0.7-1c0-0.4-0.4-0.7-1-0.7
				c-0.6,0-1.4-0.5-1.9-1.1c-0.9-1-1.1-1.1-2.7-0.8c-1,0.2-2,0.6-2.3,0.8c-0.3,0.3-0.8,0.6-1.1,0.8c-0.3,0.2-0.5,0.5-0.3,0.9
				c0.1,0.3,0,0.8-0.1,0.9c-0.2,0.2-0.4,0-0.5-0.4c-0.1-0.4-0.4-0.7-0.6-0.6c-0.3,0-0.4-0.4-0.4-1c0-0.9-0.1-1-1.9-1.1
				c-1-0.1-2.1-0.2-2.4-0.4c-0.3-0.2-0.7,0.2-1.1,1.3c-0.4,0.9-0.9,1.6-1.3,1.6C284.9,8,285,7.2,286,6.6c0.6-0.4,0.7-0.6,0.4-1
				c-0.3-0.4-0.6-0.3-1.5,0.4c-1.1,0.9-1.1,0.9-1.5,0.1c-0.3-0.5-0.7-0.7-1.2-0.5c-0.5,0.2-1,0-1.7-0.7c-1.2-1.2-1.9-1.2-2.7-0.2
				c-0.3,0.5-1.1,0.8-2.3,0.9c-1.5,0.1-1.9,0-2.4-0.9c-0.3-0.5-0.6-1.4-0.7-2c-0.1-1.5-1-1.7-1.7-0.2c-0.5,0.9-1,1.3-1.9,1.6
				c-0.7,0.2-1.3,0.5-1.3,0.7c0,0.2-0.2,0.5-0.5,0.7c-0.4,0.2-0.8,0-1.3-0.8L265,3.6l-0.4,1.1c-0.4,1.3-0.8,1.7-1.4,1.5
				c-0.3-0.1-0.4-0.6-0.3-1.5c0.2-1.5-0.4-2-1.4-1.1c-0.5,0.4-0.6,0.8-0.4,1.7c0.2,1,0.2,1.1-0.4,0.8c-1.3-0.7-1.7-0.6-1.9,0.1
				c-0.2,0.8-0.9,1-1.1,0.2c-0.1-0.4-0.3-0.3-0.8,0.4c-0.7,0.9-0.7,0.9-0.9,0c-0.4-1.8-2.4-1.3-2.3,0.5c0,1.2-0.8,1.1-1-0.1
				c-0.1-0.7-0.3-0.9-0.8-0.9c-0.3,0.1-0.7-0.1-0.8-0.3c-0.3-0.7-1.8,1-1.8,2c0,1.2-0.2,1-1.5-0.6c-0.9-1.2-1.3-1.4-2-1.2
				c-0.6,0.2-1,0.1-1.3-0.3C244,4.9,241.9,5,241.4,6c-0.4,0.6-0.4,0.6-0.7-0.2c-0.3-1-0.9-1.2-0.9-0.2c0,0.4-0.3,0.7-1,0.7
				c-1,0.1-1,0-0.5-0.8c0.6-1.1,0.4-1.2-1.8-1.5l-1.7-0.2l0.7,1l0.7,1l-0.8,0.6c-0.7,0.5-0.9,0.5-2-0.1c-0.7-0.4-1.3-0.9-1.3-1.2
				c0-1.2-0.9-1.5-2.3-0.7c-1.2,0.7-1.4,0.7-2.2-0.1c-0.9-0.8-1.6-1-1.6-0.4c0,0.2-0.1,0.6-0.3,1c-0.2,0.5-0.4,0.5-1-0.4
				c-0.4-0.6-1-1.8-1.4-2.8c-0.6-1.7-1.2-2.2-1.7-1.5c-0.1,0.2,0,0.6,0.2,1.1c0.3,0.5,0.3,1.2,0.1,2c-0.4,1.8-0.9,1.8-1.3,0.1
				c-0.4-2.2-0.8-2.3-1.8-0.4c-0.7,1.2-1.1,1.6-1.5,1.5c-1-0.3-1.8,0.6-1.5,1.8c0.3,1.2-0.2,1.8-1,1.1c-0.6-0.5-0.7-1.7-0.1-2.9
				c0.2-0.4,0.2-0.7-0.1-1.1c-0.3-0.4-0.6-0.2-1.1,0.6c-0.6,0.9-0.9,1-1.4,0.6c-0.5-0.4-0.7-0.3-1,0.5l-0.4,1l-1-0.9
				c-1-0.9-1.3-0.9-3.2,0.5c-1.1,0.8-2.5,0.9-2.8,0.2c-0.1-0.2-0.6-0.2-1.1,0.2c-0.5,0.3-1,0.6-1.2,0.6c-0.2,0-0.4,0.3-0.6,0.6
				c-0.5,0.9-3.5,1.1-4.1,0.3c-0.5-0.6-0.5-0.7,0.3-1.3c0.4-0.3,0.8-0.8,0.8-1c0-0.7-2-1.5-2.6-1c-0.6,0.5-0.9,0.2-0.7-0.7
				c0.1-0.3,0.4-0.6,0.7-0.7c0.3,0,0.6-0.3,0.6-0.7c0-1.2-0.9-1.1-1.9,0.1c-0.9,1.2-2,1.8-1.3,0.7c0.6-0.8,0.4-1.2-0.5-1.2
				c-0.5,0-0.8,0.3-0.8,0.7c0,0.3-0.3,0.7-0.6,0.9c-0.4,0.2-0.6,0.6-0.5,1.3c0.1,0.8-0.1,1.1-0.6,1.2c-0.7,0.2-1-0.4-0.4-1
				c0.6-0.6,0-1-1.3-0.9c-0.7,0-1.4,0.4-1.6,0.7c-0.5,0.9-2.4,1.4-2.9,0.8c-0.3-0.4-0.2-0.5,0.3-0.8c0.7-0.3,1.2-2.3,0.7-2.9
				c-0.2-0.2-0.6-0.1-1.1,0.3c-0.4,0.4-0.7,0.8-0.6,0.9c0.1,0.1,0.1,0.7,0,1.2c-0.2,1.2-1.5,1.1-1.7-0.1c-0.2-1.2-0.7-1.5-2.1-1.4
				c-1.1,0.1-1.2,0.1-1,1.3c0.2,1,0.1,1.3-0.6,1.7c-1,0.7-3.8-0.2-3.6-1.2c0.1-0.4-0.1-0.6-0.7-0.5c-0.8,0.1-0.8,0.1-0.3,0.6
				c0.6,0.6,0.8,2.2,0.3,2.7c-0.2,0.2-0.6-0.1-1-0.7c-0.5-0.8-0.7-0.9-1-0.4c-0.2,0.3-0.7,0.6-1.1,0.6c-0.6,0-0.7-0.1-0.6-0.7
				c0.1-0.4,0.2-1.2,0.3-1.7c0.2-1,0.1-1-3.3-0.7c-2.9,0.2-3.5,0.4-3.6,1c-0.1,0.8-3.1,3.2-4.5,3.6c-0.6,0.2-1.2,0.1-1.5-0.3
				c-0.6-0.6-0.6-0.7-0.1-1.2c0.3-0.3,0.5-1,0.6-1.5c0.1-0.7-0.2-0.9-1.4-1.1c-0.8-0.1-2.2-0.4-3.2-0.6c-1-0.2-2-0.3-2.3-0.1
				c-0.7,0.4-0.5,1.2,0.2,1.1c0.4,0,0.6,0.2,0.6,0.7c-0.1,0.9-2.3,1.7-3,1.1c-0.3-0.3-0.7-0.2-1.2,0.2c-0.5,0.4-0.9,0.7-1,0.8
				c-0.1,0.1-0.4,0-0.6-0.2c-0.6-0.4-0.2-2.5,0.5-2.9c0.7-0.4,0.7-1,0-1.3c-0.3-0.1-3.4-0.1-6.8,0c-3.4,0.1-6.4,0.1-6.5,0
				c-0.6-0.4-5.6,0.2-6.2,0.7c-0.5,0.5-0.7,0.4-1.3-0.2c-0.6-0.7-1.3-0.7-5.9-0.6c-15.8,0.6-20.1,0.7-20.6,0.6
				c-0.3-0.1-1.6,0.1-2.8,0.4c-1.3,0.3-2.7,0.4-3.4,0.2c-0.7-0.2-2.2-0.3-3.3-0.3c-1.1,0-2.3-0.1-2.7-0.2c-0.4-0.2-1.8,0-3.3,0.3
				c-1.4,0.3-2.8,0.4-3.1,0.2c-0.5-0.3-11-0.4-13.1-0.1c-3.3,0.5-11.8,0.8-14.3,0.7C49.3,4.7,41.7,5,41.2,5.4
				C41,5.6,37.9,6,34.4,6.3c-4.8,0.4-6.8,0.8-7.6,1.3c-0.6,0.4-2,0.9-3.2,1.2c-2,0.4-3.5,1-4.9,1.9c-0.3,0.2-1,0.5-1.4,0.6
				c-0.5,0.1-1,0.8-1.4,2.1c-0.9,2.4-0.6,4,1,5.9c0.9,1,1.4,2.1,1.9,4.2c0.4,1.5,0.6,3.2,0.5,3.8c-0.2,1.3,1.1,11.3,1.6,11.8
				c0.3,0.4,0.1,12-0.5,12.8c-0.4,0.6-4.3,9.3-5.3,8.9c-0.9-0.3-4.2,2.1-5.4,4.2c-0.5,0.8-1.1,1.4-1.5,1.3c-0.3-0.1-0.8,0.2-1.1,0.5
				c-0.3,0.3-0.8,0.8-1.1,1.1c-0.7,0.6-1,2.2-0.5,3C5.7,71.1,6,72.5,6.1,74l0.3,2.7l-1.7,2.2c-1,1.2-2,2.7-2.2,3.4
				c-0.3,0.7-0.6,1.4-0.8,1.5c-0.2,0.2-0.4,0.8-0.5,1.5c-0.1,0.7-0.4,1.7-0.7,2.3l0,0c-0.7,1.4-0.7,2.8,0,3.5c0.3,0.3,2,0.7,3.9,0.8
				c1.9,0.2,4.2,0.5,5.1,0.7c1,0.2,3.1,0.6,4.7,0.8c1.7,0.3,3.3,0.8,3.7,1.1c0.4,0.3,1,0.5,1.4,0.5c0.4-0.1,1.2,0.2,1.9,0.5
				c1,0.5,2.9,0.8,7.2,0.9c0.6,0,1.5,0.1,1.9,0.3c0.9,0.3,1.4-0.4,0.9-1.2c-0.5-0.8-0.8-2.4-0.5-2.7c0.5-0.5,1.5,0.5,1.7,1.8
				c0.1,0.7,0.6,1.6,1,1.9c1.2,1,4.3,1.7,7.2,1.7c5.2,0,8.6,0.1,8.8,0.3c0.6,0.5,19.6,0,40.8-1c11.4-0.6,15.2-0.6,16.8,0
				c0.9,0.3,6.4-3.1,9.3-2.9c0.6,0.1,2.2,0.2,3.5,0.3c1.3,0.1,2.6,0.3,2.8,0.4c0.3,0.1,1.2,0.3,2.1,0.4c0.9,0.1,2.6,0.2,3.9,0.4
				c4.1,0.5,7.6,0.8,10.4,0.9c1.5,0,3.4,0.2,4.3,0.4c0.9,0.2,2.7,0.3,4,0.3c1.3,0,3.5,0.2,4.7,0.4c1.3,0.2,2.5,0.4,2.8,0.3
				c0.3-0.1,1.3,0,2.4,0.2c1,0.2,3.5,0.2,5.4,0.2c2.4-0.1,3.7-4.2,3.9-3.8c0.2,0.4,0.5,0.4,0.9,0.1c0.3-0.3,1.3-0.5,2.1-0.6
				c0.9-0.1,1.7-0.3,1.8-0.6c0.1-0.3,0.4-0.2,0.8,0.3c0.6,0.7,0.7,0.7,1.6-0.1c1-0.8,1-0.8,1.6,0.2c0.5,0.8,1.1,1.1,3,1.3
				c1.3,0.2,2.9,0.4,3.5,0.5c0.6,0.1,1.6,0.2,2.2,0.3c0.6,0.1,1.6,0.2,2.3,0.3c0.8,0.1,1.4,0,1.9-0.6c0.9-1,1-1,2.1,0.4
				c0.9,1.2,1.3,1.4,2.5,1.2c0.5-0.1,0.5-0.2-0.3-1.3c-0.7-0.9-0.8-1.2-0.4-1.3c0.3,0,0.6,0.2,0.7,0.4c0.4,0.8,1.1,0.4,0.9-0.4
				c-0.2-0.6-0.1-0.6,0.7,0.2c0.6,0.6,1.3,0.9,2.3,0.8c0.8-0.1,1.3,0.1,1.2,0.4c-0.1,0.2-1.1,0.5-2.3,0.6c-1.4,0.1-2,0.3-1.7,0.6
				c0.6,0.7,3,1,13.9,1.6c2.7,0.1,7.5-0.2,12.4-0.9c2-0.3,3.9-0.5,4.2-0.5c2.3,0,8.3-0.6,9.3-0.9c0.7-0.2,1.1-0.5,1-0.8
				c-0.1-0.2,0.2-0.1,0.7,0.3c0.8,0.6,1.6,0.7,4.9,0.6c2.2-0.1,4.9-0.1,6,0c1.1,0.1,2.8,0.1,3.8,0.1c0.9,0,2,0.1,2.3,0.2
				c0.3,0.2,0.6,0.1,0.7-0.2c0.1-0.2-0.1-0.6-0.5-0.7c-0.9-0.3-0.8-1.1,0.4-2.8c1.2-1.7,1.3-1.7,1.4-0.8c0,1.1,1.1,0.5,1.2-0.7
				c0-0.7,0.2-1,0.6-0.9C256.5,91.2,256.7,91.7,256.7,92.9z M288.7,6.4c1-0.6,1.4-0.7,1.4-0.2c0,0.2-0.4,0.5-1,0.7
				C287.9,7.4,287.6,7.1,288.7,6.4z M167.7,4.4c0.2-0.4,0.7,0,0.8,0.5c0,0.2-0.2,0.4-0.5,0.4C167.5,5.4,167.4,4.9,167.7,4.4z
				 M164.1,5c0.4-0.4,1.3,0.6,1.1,1.1c-0.1,0.2-0.3,0.4-0.6,0.4C164.1,6.5,163.7,5.4,164.1,5z M138.9,4.5c0-0.4,0.3-0.7,0.6-0.7
				c0.7-0.1,0.9,0.6,0.2,1c-0.3,0.2-0.5,0.3-0.6,0.3C139,5.2,138.9,4.9,138.9,4.5z M255,8.5c0-0.4,0.1-0.6,0.3-0.4
				c0.2,0.1,0.3,0.4,0.3,0.7c0,0.2-0.1,0.4-0.3,0.4C255.2,9.1,255,8.8,255,8.5z M325.8,10c0-0.2,0-0.4,0.1-0.4
				c0.1,0,0.2,0.2,0.4,0.4c0.1,0.2,0.1,0.4-0.1,0.4C326,10.5,325.8,10.3,325.8,10z M321.3,11.7c0.3-0.4,0.5-0.4,0.7-0.1
				c0.1,0.2,0,0.6-0.3,0.7C321,12.7,320.8,12.4,321.3,11.7z M340.4,44.2c-0.2-0.3,0.1-0.8,0.6-0.8c0.2,0,0.2,0.2,0,0.5
				C340.8,44.2,340.5,44.4,340.4,44.2z M30,94.1c0.2,0.1,0.3,0.4,0.3,0.7c0,0.2-0.1,0.4-0.3,0.4c-0.2,0-0.3-0.3-0.3-0.7
				C29.7,94.1,29.8,94,30,94.1z M162.1,91.9c0.2-0.1,0.4-0.1,0.5,0.2c0.1,0.2,0,0.4-0.3,0.5C161.7,92.5,161.6,92.3,162.1,91.9z
				 M166.8,92.2c0-0.5,0.8-1.4,1-1.1c0.4,0.5,0.3,0.9-0.4,1.2C167.1,92.4,166.8,92.4,166.8,92.2z M245.5,90.5c0,0.3-0.1,0.5-0.3,0.5
				c-0.2,0-0.3-0.1-0.3-0.2c0-0.1,0.1-0.3,0.3-0.5C245.3,90.1,245.5,90.2,245.5,90.5z M273.3,92c0,0.3-0.1,0.5-0.3,0.5
				c-0.2,0-0.3-0.1-0.3-0.2c0-0.1,0.1-0.3,0.3-0.5C273.2,91.6,273.3,91.7,273.3,92z M205.6,91.6c0-0.4,0.2-0.6,0.5-0.6
				c0.8,0.2,0.9,1.2,0.2,1.2C205.9,92.3,205.6,92,205.6,91.6z M203.6,92.4c-0.2,0-0.5-0.2-0.7-0.4c-0.1-0.2,0.1-0.4,0.4-0.5
				c0.4,0,0.7,0.2,0.7,0.4C204,92.2,203.8,92.4,203.6,92.4z M212.1,89.9c0.5-0.4,0.8,0.1,0.4,0.7l0,0c-0.2,0.3-0.4,0.3-0.5,0.1
				C211.9,90.4,212,90.1,212.1,89.9z M295.4,90.5c-0.7,0.9-0.9,0.3-0.2-0.6c0.3-0.5,0.6-0.6,0.6-0.4
				C295.9,89.7,295.7,90.2,295.4,90.5z M302.8,89.4c0,0.4-0.1,0.6-0.4,0.5c-0.6-0.2-0.7-1.2-0.2-1.2C302.5,88.7,302.8,89,302.8,89.4
				z M217.5,90.2c0,0.2-0.2,0.4-0.5,0.5c-0.3,0-0.5-0.2-0.5-0.4c0-0.2,0.2-0.4,0.5-0.5C217.2,89.8,217.5,90,217.5,90.2z M214.9,89.7
				c0,0.4-0.1,0.6-0.3,0.4c-0.2-0.1-0.3,3.8-0.3,3.6c0-0.2,0.1-0.4,0.3-0.4C214.8,93.3,214.9,89.4,214.9,89.7z M208.3,91.6
				c0,0.2-0.2,0.3-0.5,0.2c-0.3-0.1-0.5-0.3-0.5-0.4c0-0.1,0.2-0.2,0.5-0.2C208,91.2,208.3,91.3,208.3,91.6z M188.8,93.2
				c-0.3-0.1-0.3-0.2,0-0.5c0.4-0.4,0.9-0.1,0.6,0.4C189.3,93.3,189,93.3,188.8,93.2z M190.7,93.2c0-0.2,0.1-0.4,0.3-0.5
				c0.2,0,0.4,0.2,0.5,0.4c0.1,0.2,0,0.4-0.3,0.5C191,93.6,190.7,93.4,190.7,93.2z M181.5,92.8c-0.7-0.6-0.9-1.2-0.4-1.8
				c0.5-0.6,2-0.2,2,0.6C183.1,92.6,182.2,93.3,181.5,92.8z M195.5,90c0.4,0,0.6,0.1,0.4,0.2c-0.2,0.1-0.6,0.2-0.8,0.1
				C194.9,90.1,195,90,195.5,90z M193.4,93.1c0-0.2,0.1-0.4,0.3-0.5c0.2,0,0.3,0.2,0.3,0.4c0,0.2-0.1,0.4-0.3,0.5
				C193.5,93.5,193.4,93.4,193.4,93.1z M199.8,93.9c-0.1-0.4-0.4-0.6-0.6-0.4c-0.2,0.1-0.7,0.1-1-0.1c-0.4-0.3-0.7-0.2-1,0.2
				c-0.2,0.3-0.8,0.7-1.3,0.9c-0.8,0.3-1.2-0.2-0.6-0.8c0.2-0.2,0.3-0.6,0.3-1.1c0-0.4,0.3-0.9,0.6-1.1c0.4-0.2,0.6-0.5,0.4-0.7
				c-0.1-0.2,0.1-0.6,0.4-0.7c0.3-0.2,0.6,3.5,0.6,3.1c0-0.5,0.1-0.8,0.3-0.9c0.4,0,0.4-4.4,0.1-2.7c-0.2,1.3-0.2,1.4,1.3,2.3
				c0.8,0.5,1.6,1,1.6,1.1c0.1,0.1-0.1,0.4-0.4,0.9C200.1,94.5,200,94.5,199.8,93.9z M236.6,90.4c0.5-0.8,0.6-0.7,0.4,0.1
				c-0.1,0.7,0,0.9,0.5,0.9c0.3,0,0.7-0.3,0.8-0.7c0.1-0.4,0.3-0.7,0.5-0.7c0.2,0,0.3,0.3,0.3,0.6c0,0.4-0.1,0.7-0.3,0.7
				c-0.2,0-0.2,0.4-0.1,0.8c0.1,0.5,0,1-0.3,1.2c-0.3,0.2-0.5,0.8-0.5,1.4c0,0.8-0.1,0.9-0.5,0.3c-0.3-0.3-0.8-0.6-1.2-0.6
				c-0.4,0-0.9-0.1-1.2-0.2c-0.7-0.3-0.7-1,0.1-1.4c0.3-0.1,0.7-0.6,0.8-1C236,91.6,236.3,90.9,236.6,90.4z M240.4,94.3
				c-0.6,0-0.5-0.6,0.3-1.9c0.7-1.1,1.7-1.3,1.7-0.4C242.4,92.5,240.9,94.3,240.4,94.3z M246.5,93.3c0,0.4-0.2,0.6-0.5,0.5
				c-0.6-0.1-0.9-0.8-0.6-1.3C245.7,92.1,246.5,92.6,246.5,93.3z M233.4,92.3c0.6-0.4,0.9,0,0.7,0.9c-0.1,0.4-0.4,0.6-0.6,0.4
				C232.9,93.3,232.8,92.7,233.4,92.3z M203.1,95.7L203.1,95.7c-0.3-0.1-0.5-0.4-0.5-0.6c0-0.5,0.6-0.5,1.2-0.1
				C204.3,95.4,203.8,96,203.1,95.7z M204.4,95.9c0.2-0.4,0.5-0.5,1.1-0.3c0.5,0.2,0.8,0.4,0.6,0.7
				C205.7,96.9,204.2,96.6,204.4,95.9z M220.7,96.1c-0.2-0.3-0.7-0.3-0.9-0.2c-0.5,0.3-0.7-0.4-0.2-0.9c0.5-0.5,1.6,0.1,1.6,0.8
				C221.2,96.4,221.1,96.5,220.7,96.1z M223.9,96.5c-1.2-0.6-0.3-1.6,1.2-1.5l0.9,0.1l-0.8,0.8C224.8,96.3,224.2,96.6,223.9,96.5z
				 M229.4,96.5c-0.2-0.1-0.4-0.5-0.4-0.9c0-0.5,0.3-0.7,1.4-0.8c0.8-0.1,1.4,0,1.4,0.2C231.8,95.5,229.9,96.7,229.4,96.5z
				 M240.2,95.6c0.1,0.2,0,0.4-0.3,0.5c-0.3,0-0.5-0.2-0.5-0.4c0-0.2,0.1-0.4,0.3-0.5C239.8,95.2,240,95.4,240.2,95.6z M244.8,94.4
				c-0.1-0.2-0.1-0.4,0.1-0.4c0.2,0,0.3,0.2,0.3,0.4c0,0.2,0,0.4-0.1,0.4C245.1,94.9,244.9,94.7,244.8,94.4z M251,93.3
				c-0.5,0.6-1,1.2-1.1,1.2c-0.5,0.1-0.6-0.8-0.1-1.3c0.5-0.6,0.6-1.8,0.1-1.7c-0.2,0-0.3-0.3-0.3-0.6c0-1.1,1.5-0.9,1.9,0.3
				C251.8,92,251.8,92.3,251,93.3z"/>
		</g>
	</g>
</g>
</svg>
