<?xml version="1.0" encoding="utf-8"?>
<!-- Generator: Adobe Illustrator 22.1.0, SVG Export Plug-In . SVG Version: 6.00 Build 0)  -->
<svg version="1.1" id="Layer_1" xmlns="http://www.w3.org/2000/svg" xmlns:xlink="http://www.w3.org/1999/xlink" x="0px" y="0px"
	 viewBox="0 0 525.1 257.4" style="enable-background:new 0 0 525.1 257.4;" xml:space="preserve">
<style type="text/css">
	.st0{fill:#9A237C;}
	.st1{fill:#F8DC38;}
	.st2{display:none;fill:#FFFFFF;}
	.st3{fill:#FFFFFF;}
	.st4{display:none;fill:#F8DC38;}
</style>
<path class="st0" d="M414.9,1.5c-15.1,0.8-67,10.3-128,10.6c-64.3,0.3-128.4,1.4-192,3.4c-25.9,0.8-62.7-12-81,6.9
	c-30,31,5.4,87.4,3,101c-5,28-38,135,5,134c41.1-1,391.8-4.4,433.5-5.8c64.7-2.2,53.1-0.6,55.7-15.7c2.2-12.8,2-178.7,11.4-188
	c6.3-6.3-1-11.2-3-18.1C514.7,14.6,482.5,0,425.4,0"/>
<g>
	<g>
		<g>
			<path class="st1" d="M105.3,250l6.1,0.1c-19.7,0-40.4-0.2-60.8-0.4c44.4,1.9,96.8,3.5,131.1-0.5c3.7,2.1,46.8,3.1,47.7,2.6
				c8.9-0.4,18-0.7,27.2-1c-6.3,0.2-12.6,0.4-18.8,0.5c6.2-0.2,12.5-0.3,18.8-0.5c57.9-1.6,120.7-0.9,185.8-0.1
				c7.1,0.1,16.6,0.1,27.7,0.2c13,0.1,27.8,0.2,43.4,0.3c0.6-11.9,1.2-24.2,1.9-36.4c0.5-10.1,1.1-20,1.6-29.5
				c1-18.9,1.9-35.7,2.6-46.9c0.3-5.4,0.6-10.7,0.9-16.1c-0.6,9-0.6,9-1.2,17.9c0.5-22.6,0.8-43,1.4-62.8c-0.5,3.5-0.8,4.1-1.6,12.3
				l0.7-10.1c-0.5-9.2,0.5-30.4,0.6-40.4c0.4,2.2,0.8-5.7,1.2-12.6l-0.4,2.7c0.3-6.6,0.6-13.4,1-20.4c-23.6-0.3-48.8-0.5-69-0.8
				c-3.3,0-5.7-0.3-7.2-0.4l-22.5,0c1.7-0.6-18.7-0.8-7.9-1c-16.9,0.5-34-0.2-50.1,0.3c-57.5-0.7-118.6-1.1-178.1-0.9l1.5,0.3
				c-20.8,0.1-39.2,1.1-64.4,0.3c-18.1,0.6-43.8,0.7-51,1.8C52.3,8.8,44,9.3,23.6,9.3c5.3,0.7-19.9,0.5-9.8,1.1
				c13.5,1.1,14.3,0.3,25.8,1.2l-0.3-0.2c53.7,1.7,107.4,3,161.8,4c36.3,0,75.7,0.9,113.5,1.3c40.6,0.3,84.6,0.5,119.5,0.5
				c8.3-0.1,14.3,0.5,21.4,0.9c9.3,0.1,19.3,0.2,29.7,0.3c8.6,0.1,17.6,0.2,26.6,0.3c-0.3,6.1-0.5,12.2-0.8,18.2
				c-0.3,7.9-0.6,15.7-0.9,23.3c0-0.7,0.1-1.3,0.1-1.8c-0.8,19.2-2.1,33.6-2.8,52.3c0.2-0.1,0.1,2.8,0.1,4.2c-1,3.2-3.2,110.5-4,117
				c0,1.7-0.1,3.5-0.1,5.3c-0.1,1-0.1,2-0.2,3c-17.6-0.4-35.3-0.8-52.4-1.1c-18.4-0.4-36.1-0.7-52.2-0.7c-7.4,0.4-15.7,0.7-21.9,1.2
				c-6-0.4-7.2,0.3-14.4,0.2c-18.4-1.7-29.2-1-19.7-0.4c-15.1,0.2-30.3,0.1-43.8,0.1c-6.2,0.1-12.4,0.3-18.7,0.4
				c-5.3,0.1-8.3-0.1-11-0.5c-13.7,0.2-9.6-0.2-24-0.4c-3.5-0.6-35.9,0.9-40,0.8l2.3-0.1c-16.6-0.1-27.6-1.3-43.8-1.3
				c-45-0.4-94.2,0-135.9-0.2c-0.4,0.6,9.2-0.1,9.7,0.7c-3.9,0-7.8-0.1-11.8-0.1l-2.9,0l-1.1,0l-0.5,0l-1.8-0.1l0.1-2l0-0.5l0-1.6
				l0.1-3.2c0.1-4.2,0.1-8.4,0.2-12.7c0.1-8.4,0.3-16.9,0.3-25.4c0.2-4.5,0.5-10,0.7-12c0.2-7.9-0.3-4.7-0.2-10.5l0.6-0.8
				c-0.5-8.5,0.6-12.4,0.4-20.4c-0.2-0.4-0.3-3.3-0.2-6.2c0.6-0.1,0-8.7,0.5-8.3l0-0.1c0-1.7,0-2.9,0.1-5c-0.2-3.2-1.8-33.7-2.1-37
				l0.1-1.5c0-4.6-0.5-6.5-0.6-3.8l0-5.6l0,0.6l0-5.6c0.1-1,0.3-2.2,0.6-0.6c-0.2-3.2-0.3-6.7-0.2-9.9c-0.4,8.8-0.9,19.7-1.5,29
				c-0.2-3.8,0.1-10.6,0-14.7c0.4-4.9,0.7-15,1-22.8c0-1.7-0.7-2.9-0.4-6.8c0.5-1.9,0-4.4,0.3-7.7c0.2,3.7,0.1,7.4,0.1,11.2
				c0.5-0.6,0.4-9.2,0.5-12.2c-0.2-1.4,0-8.7-0.1-13.3c0.5,2,0.3-3.7,0.6-6.4c0.1-3.1-0.1-5.1-0.3-3.8c-0.6-1-0.3,12.3-0.9,8
				c0.3-1.1,0.2-7.2,0.2-10.5c-0.3,0-0.2,2.2-0.5,0.1c0.1-3.6-0.3-7.5,0-9.6c0.1,0.7,0,2.2,0,3.2c0-4.7,2,25.6,1.8,19.5
				c-0.3,1.6-1.8-26.9-1.8-23.8c-0.2,2.9-0.6-2.1-0.7,0.9l0.4,3.3c-0.1,4.1-0.7,5.7-0.9,4.3c0-6.8,2.1,19.4,1.8,13.5L19.1,31
				c-0.2-2.5-0.4-9.1-0.1-11.6c-0.3,0-0.4-3.3-0.5-6.1l0.1-1c-0.2-2.9-0.1-6.8-0.5-5c0,16.7-3.1-11-3.3,5.2c0.7-6.8,0.7,2.3,0.8,9.4
				c-0.2,0.7-0.6,3.9-0.7,9c0.1,4.4,0.2,2.6,0.4,3.5c-0.2,2.5-0.3,7.2-0.6,6.6c0.4,3.5-0.3,5.5-0.1,9.7c0.2,3.7,0.2-0.2,0.4,2.4
				c-0.1,5.5-0.1,13.2-0.2,17.6c-0.3,1.7-0.9,6.8-1.4,3.1c0.1-8.3,0.8,3.2,0.7-5.5c-0.8,3.7-0.2-7.7-0.8-9.2
				c-0.3,2.8-0.3,8.4-0.3,13L13,71c0.1,4.1,0.3,12.4-0.1,16.8c-0.3-1.1-0.5,0.9-0.5-2.1l0,5.7c0.1,0.7,0.2,1.5,0.2-0.2
				c0.2,2.7,0.1,5.4-0.1,7.4c-0.3,0.6,1.2,30.2,1,29.3c0,4.1-0.4,5.1-0.1,9.1c0.1,0.1,0-2.3-0.1-5.9c-0.1-3.6-0.2-8.3-0.3-12.9
				c-0.3-9.2-0.5-17.7-0.5-15c-0.3,3.5,1.4,46.4,0.9,48.9c0,3,0.1,6.7,0.4,6c-0.1,5.1-0.5-1.5-0.8,2.1c0,0.1,0.1-0.3,0.1,0.9
				l-0.4,3.5c0.4,8-0.1,19.6,0.5,28c-0.3-2.4-0.9-5.2-1.1-10.5l0.2-0.9c-0.1-0.8-0.2-5.2-0.5-5.1c-0.2,5.1-0.1,9.5,0.1,14.8
				c-0.1,1-0.2,2.1-0.2,2.9c0,0,0.1-0.1,0.1-0.1c-0.2,1.8-0.2,1.6-0.3,0.9c0-0.1,0-0.2-0.1-0.4c-0.8,3.2,0.5,20,0.1,29.3
				c0.1,2.7,0.1,0.3,0.3,3.7c-0.1,3.2-0.2,6-0.3,8.8c-0.1,3.6-0.2,7.2-0.3,11c3.3,0.1,7.2,0.1,11.5,0.2c3.2-0.4,3.4-0.5-0.4-0.9
				l7.5,0.1c-6.8,1,14,0.9,6.5,1.9c2.2,0.2,6.7,0.3,10.9,0.1c0.4-0.2,1.1-0.6,6.4-0.6c7.4,0.3,5.6,0.2,11.7,0.5
				c1.4,0.3-0.8,0.4-0.5,0.7c9.4-0.4,8.2,0.7,17.1,0.6c5.6-0.1,16.5-0.1,16.8-0.7C106.1,249.1,106.1,249.5,105.3,250z"/>
		</g>
	</g>
</g>
<path class="st2" d="M245.6,94c-1.8-1.3-4-1.8-6.3-1.8c3.4-2.5,6.8-5.9,2.6-7.6c-2.4-1-4.8,0.8-6.6,2c-3,2-5.7,4.1-8.2,6.6
	c-0.1,0-0.3,0.1-0.4,0.1c-0.2-0.3-0.5-0.5-1-0.5c-28.2-0.2-56.5,0.3-84.7,0.5c-27.6,0.2-55.5-0.5-83.1,1c0-0.2,0-0.3-0.2-0.5
	c-2.3-2.8-9.2-9-13.6-6.7c-1.7,0.8-2.2,2.6-1.8,4.2c0.4,1.3,1.3,2.3,2.5,3c-2.2,1-3.9,2.5-5.1,4.5c-0.3,0.5-0.3,1.2,0.2,1.5
	c2.1,1.6,4.4,1.6,7,1c3.7-0.9,7.7-2.2,11.2-3.8c0.7-0.3,0.7-0.9,0.5-1.4c27.4,1,55.1,0,82.5-0.2c28.2-0.2,56.5-0.2,84.7-0.7
	c0.1,0,0.3,0,0.4-0.1c0.1,0.2,0.3,0.3,0.5,0.3c4.7,3.9,14.3,9.9,20.1,4.2C248.5,97.7,247.6,95.4,245.6,94z M55.7,95.8
	c-2,0.5-3.9,1.2-5.9,1.9c-1.9,0.6-4.9,2-7,1.3c1.4-1.7,3.3-2.8,5.8-3.3c1.1-0.2,1.5-1.9,0.3-2.3c-1-0.4-2.9-0.9-3.4-1.8
	c0-2.4,0.8-3.1,2.6-2c0.5,0.2,0.9,0.4,1.4,0.6c2.4,1.1,4.4,2.6,6.3,4.3C55.3,94.8,55.3,95.5,55.7,95.8z M239,99.1
	c-4.1-0.5-7.2-2.9-10.2-5.2c2.6-2.1,5.3-4.1,8.2-5.8c0.4-0.3,1.5-1.1,2-1.2c0.6,0.3,1.2,0.6,1.8,0.8c-0.3,0.3-0.6,0.6-1,0.9
	c-1,1.7-4.3,3.4-6.1,4.4c-1.1,0.7-0.5,2.5,1,2.1c2.2-0.6,4.5-0.9,6.8-0.3c0.6,0.2,1.2,0.4,1.8,0.6c0.2,1,0.4,1.9,0.6,2.9
	C243.5,99.4,239.9,99.2,239,99.1z"/>
<path class="st3" d="M33.1,220.5c0.8-0.4,2.6-3.4,2.6-4.1c0-0.3,0.1-0.8,0.4-1.1c0.3-0.5,1-0.6,3.1-0.6c3.1,0,5.6-0.6,5.8-1.3
	c0.2-0.7-0.3-1.4-2.5-3.9c-1.1-1.2-2.4-2.7-2.9-3.3l-0.9-1.1l1.1-1.4c1-1.4,2.3-3.9,2.8-5.8c0.3-0.9-0.2-1.6-0.9-1.3
	c-0.2,0.1-2,0.4-4,0.7c-3.4,0.5-3.8,0.5-4.4-0.1c-0.4-0.4-1.5-1.3-2.4-2.1c-1.5-1.2-1.7-1.4-2.3-1.1c-0.4,0.2-0.7,0.5-0.8,0.8
	c-0.2,1-0.7,2.2-1,3c-0.2,0.5-0.2,1.7,0.1,3.2c0.2,1,0.3,1.9,0.4,2.5c0,0.2,0,0.4,0,0.5c-0.3,0.9-3.2,3.1-4.9,3.6
	c-2.6,0.7-3,2.3-0.8,3.2c0.7,0.3,2.3,1.1,3.5,1.7c2,1.1,2.4,1.4,3,2.4c0.4,0.7,0.9,1.3,1.2,1.5c0.3,0.2,1.1,1.2,1.9,2.3
	C32.4,220.7,32.4,220.8,33.1,220.5z M30.3,212.8c-0.2-0.9-0.3-1-1.2-1c-1.3,0-4.4-1.8-4.6-2.6c-0.2-0.6,0-0.7,2-2
	c2.6-1.7,2.8-2.1,2.1-4.9c-0.3-1.1-0.5-2.4-0.5-3c0-1.3,0.3-1.8,1.3-2.1c0.8-0.2,0.8-0.2,1.7,1.2c1,1.7,0.9,1.6,5.6,1l2.7-0.4l0,0.9
	c0,0.8-0.2,1.2-1.2,2.5c-1.4,1.7-2,3.6-1.3,4.4c0.2,0.2,1.3,1.3,2.3,2.4c1.1,1.1,2,2.1,2,2.3c0.1,0.7-0.9,0.9-3.5,0.7
	c-3.2-0.2-3.5-0.1-4.1,2.8c-0.4,1.7-0.9,2.3-1.5,1.9C31.9,216.7,30.7,214.2,30.3,212.8z"/>
<path class="st3" d="M496.3,45.4l0.7-1.3c0.1,0,0.3-0.1,0.7-0.1l4.2,0.2c2.6,0.1,5.4,0.1,6.1-0.1c0.7-0.2,1.8-0.3,2.3-0.3
	c1,0.1,2-0.3,3.6-1.4c0.9-0.5,1-0.8,1.1-1.6c0.1-0.9-0.1-1.1-1-2.2c-1.3-1.5-3.6-2.5-5.2-2.4c-2.8,0.2-6.9,1.6-9.3,3.3
	c-1,0.7-1.8,1-2.4,1c-1.5,0-3.9-1.5-6.5-4.2c-1.3-1.3-2.8-2.7-3.4-3.1c-1.4-1-2.8-2.7-3.2-4c-0.2-0.6-0.6-1.8-1-2.7
	c-0.7-1.7-1.1-5.9-0.8-7.3c0.1-0.5,0.5-1.1,0.9-1.4c0.9-0.7,3.9-1.3,5.2-0.9c1.2,0.3,2.4,1.5,2.4,2.5c0,0.6-0.1,0.7-1.1,1.1
	c-1,0.4-1.1,0.6-1.2,1.1c-0.1,0.8,0.5,1.1,1.8,0.8c1.9-0.4,2.9-1.8,2.8-4.2c-0.1-1.6-0.2-1.9-2.1-2.8c-1.1-0.6-2-0.8-4-0.7
	c-1.4,0-2.9,0.2-3.3,0.4l0,0c-1.2,0.6-1.4,0.8-2.4,2.2c-0.7,1.1-0.8,1.6-0.9,4.4c0,3.4,0.4,5.3,2.1,9c0.7,1.5,1.2,2.3,2,3.1
	c6.1,5.8,8.2,7.5,9,7.8c1.8,0.6,1.8,0.8-0.1,5.9c-0.8,2.1-0.1,7.2,1.2,9.7c0.4,0.7,1,1.8,1.2,2.4c0.4,0.7,0.7,1.1,1.1,1.3
	c0.3,0.1,1.4,0.6,2.4,1c1.1,0.5,2.8,0.8,4.3,0.9c2.1,0.1,2.8,0,4.4-0.7c3.1-1.3,5.3-3.5,5.7-5.6c0,0,0-0.1,0-0.1
	c0.1-0.5,0.1-0.9,0.1-1.4c-0.2-1.4-0.8-2.2-2-2.7c-0.9-0.4-2.8-0.3-3.8,0.1c-1,0.5-2,2.1-1.8,3.1c0.3,1.3,1.2,1.6,2.1,0.9
	c0.2-0.1,0.4-0.3,0.5-0.6c0.1-0.1,0.1-0.2,0.2-0.3c0.6-1.1,1.2-1.3,1.8-0.6c0.4,0.4,0.4,0.9,0.3,1.7c-0.3,1.4-2.2,3.1-4.1,3.7
	c-1.5,0.5-5.7,0.1-6.6-0.5c-0.3-0.2-1-0.5-1.5-0.7c-0.7-0.2-1.1-0.5-1.5-1.1C494.9,54.1,494.5,48.8,496.3,45.4z M500.5,41.7
	c0-0.5,0.6-1,1.4-1.1c0.4-0.1,1-0.3,1.5-0.6c1.2-0.7,4.4-1.3,5.8-1.1c1.2,0.2,2.7,1.1,2.9,1.7c0.3,0.8-1.2,1.3-5.5,1.8
	C504.6,42.5,500.6,42.1,500.5,41.7z"/>
<path class="st3" d="M508.5,232.7c3.1-2.7,6.4-6.6,7.8-9.2c1.9-3.7,3.4-7,4-9.2c0.4-1.3,1.1-2.9,1.5-3.5c0.4-0.6,0.7-1.2,0.6-1.3
	c-0.3-0.3,0.7-4,1.6-5.8c0.2-0.4,0.4-1.1,0.6-1.8c0.1-0.3,0.2-0.6,0.2-0.8c0.1-0.5,0.2-0.9,0.2-1.3c0-0.5,0.1-0.9,0.1-1.3
	c0.1-0.4,0.1-0.9-0.1-1.2c-0.2-1.2-0.7-2.1-1.6-2.8c-1-0.9-4.2-2.4-4.7-2.2c-0.2,0.1-0.4,0.7-0.6,1.4c-0.2,1.4-2.3,5.8-3,6.4
	c-0.9,0.7-1.6,2.7-1.2,3.5c0.5,1.1,0.5,1.5-0.6,4.2c-0.6,1.4-1.3,3.4-1.6,4.5c-0.3,1.1-0.8,2.2-1,2.3c-0.2,0.2-0.6,1-0.9,1.8
	c-0.3,0.8-0.8,1.6-1.1,1.9c-0.3,0.3-1.1,1.5-1.7,2.8c-2,4.1-4.3,7.1-7.2,9.4c-2.5,2-4.1,2.6-6.4,2.4c-1.7-0.1-2.1-0.3-2.8-1.2
	c-1.2-1.5-1.4-2.5-0.8-4.5c0.7-2.4,0.9-3.7,0.5-4.5c0-0.1,0-0.2-0.1-0.2c-0.1-0.1-0.2-0.2-0.3-0.2c-0.3-0.3-0.8-0.6-1.5-0.9
	c-1.7-0.8-2.2-0.7-3.7,0.2c-1.1,0.7-1.3,1-1.6,2.1c-0.2,0.7-0.5,1.6-0.8,2c-0.6,0.8-1.3,5.2-1.2,6.7c0.1,0.6,0.6,1.9,1.2,2.9
	c0.7,1.1,1.2,1.8,1.6,2.4c0.1,0.1,0.2,0.3,0.4,0.5c0.7,0.7,1.4,1.2,2.6,1.9c2.5,1.4,3.6,1.7,7,2.2c1.9,0.3,2.6,0.2,3.2-0.3
	c0.4-0.3,1.4-0.8,2.1-1c1.1-0.3,1.6-0.7,3.7-2.8C504.4,236.4,506.9,234.1,508.5,232.7z M518.4,200.9c-1-0.3-1.1-1-0.2-1.7
	c0.3-0.2,0.9-1.1,1.3-1.9c1-1.8,1.5-2.1,2.4-0.9c0.6,0.7,0.7,1.2,0.5,2.5c-0.1,0.8-0.3,1.5-0.4,1.7c0,0-0.1,0.1-0.1,0.1
	C521.5,201,518.9,201.1,518.4,200.9z M517.6,208.8c-2.2,0.6-2.6,0-1.6-2.4c0.9-2.3,1.5-2.8,3.3-3c1.9-0.2,2.3,0.3,1.6,1.9
	c-0.3,0.7-0.6,1.5-0.5,1.7C520.4,207.7,519.3,208.4,517.6,208.8z M485.2,230.3c-0.2,0.1-0.4,0.2-0.5,0.3c-1.7,0.9-1.7-1.3,0.1-4.9
	c1.6-3.1,3.3-3.4,2.9-0.4c-0.3,2.1-1.1,3.8-2.2,4.8C485.4,230.1,485.3,230.2,485.2,230.3z M504.4,233.3l-2.8,2.4l-0.6-0.6
	c-0.3-0.3-0.6-1-0.6-1.5c-0.1-0.8,0.1-1.1,1.5-2.1c0.9-0.7,1.8-1.5,2-1.8c0.5-0.7,2.7-1,3.2-0.4
	C507.8,230.2,507.3,230.8,504.4,233.3z M511.7,218c-0.2-0.2,0.2-1.3,0.8-2.5c0.9-1.8,1.3-2.4,2.4-3.1c1.5-1,3.3-1.4,3.5-0.7
	c0.1,0.4-0.7,3.2-1.5,4.7c-0.2,0.5-0.4,1-0.4,1.3c0.1,0.7-0.3,0.8-2.3,0.6c-1-0.1-2-0.1-2.1,0C512.1,218.3,511.9,218.2,511.7,218z
	 M510.1,221.6c1.1-0.8,1.5-1,2.6-0.9c2.1,0.2,2.2,0.8,0.2,3.9c-2.1,3.4-2.8,3.9-3.9,3l0,0c-0.4-0.3-1-0.7-1.2-0.9
	c-0.3-0.1-0.5-0.4-0.5-0.7C507.2,225.2,508.9,222.6,510.1,221.6z M488.2,237.8c-0.8-0.2-3.7-3.7-3.6-4.2c0.1-0.2,0.7-0.7,1.4-1.1
	c1.2-0.7,1.4-0.7,2.4,0c1,0.8,1.1,0.8,0.9,2.8C489.2,237.8,489.1,238,488.2,237.8z M493.5,239.5c-1-0.2-1.9-0.5-2-0.6
	c-0.3-0.3,0.3-3.4,0.8-3.7c0.2-0.1,0.8-0.2,1.4-0.3c0.6,0,1.7-0.1,2.4-0.2c1.6-0.2,2.8,0.6,3.3,1.9c0.3,0.8,0.2,1-0.7,1.7
	C497.1,239.6,495.6,239.9,493.5,239.5z"/>
<path class="st3" d="M25.2,16.8C25.2,16.8,25.2,16.8,25.2,16.8c-0.1,0.2-0.1,0.4-0.1,0.5c0,0,0,0,0,0c0,0,0,0,0,0.1
	c0,0.3,0.1,0.7,0.3,1c0.7,1.3,2.2,1.7,3.9,1c2.7-1,3.3-2.9,2.2-6.2c-0.6-1.7-0.8-2.2-1.9-3c-1.1-0.9-1.5-1.1-2.8-1.3
	c-3.2-0.5-6.1,1-7.8,4.2c-0.6,1.2-1,2.1-1.2,3l-0.2,0.4l0.1,0.3c-0.1,0.7,0,1.3,0.1,2c0.5,2.5,1.9,6.3,3,8.3c0.6,1.1,1,2,0.8,2.2
	c-0.1,0.2-1.1,0.4-2.1,0.4c-2.8,0.1-4.4,0.6-6.4,1.7c-2.6,1.5-4.3,3.2-5.8,5.7c-1.6,2.8-1.7,3.7-0.8,6.5c1,2.7,2.4,4.1,4.8,4.8
	c0.9,0.2,1.9,0.3,2.4,0.3c1.3-0.3,2.8-1.5,3.3-2.8c0.4-1.1,0.4-1.2-0.4-2.5c-1.4-2.3-3.2-1.9-2.1,0.5c0.2,0.3,0.3,0.6,0.4,0.8
	c0.1,0.3,0.1,0.5,0,0.7c-0.1,0.2-0.3,0.3-0.6,0.6c-0.5,0.4-1,0.5-2,0.3c-1.8-0.2-2.9-1.2-3.7-3.4c-0.6-1.8-0.5-2.3,0.9-5.2
	c1-2.2,5.5-4.9,8.4-5.3c5.7-0.7,5.7-0.7,6.5,0.5c0.3,0.4,1.1,1.4,1.9,2.3c5.2,5.5,6.6,6.5,9.6,7.3c2.9,0.8,4.8,0.8,5.7-0.1
	c1.1-1,1.2-2,0.4-3.7c-1.2-2.5-2.5-3.8-4.7-5c-1.1-0.6-2.6-1.5-3.3-1.8c-1-0.6-2.1-0.9-5.1-1.5c-2.1-0.5-4-1-4.2-1.1
	c-0.7-0.6-3.1-5.2-3.5-6.5c-0.2-0.7-0.6-2.1-0.8-3c-0.6-2-0.3-3.6,1.1-6c1.2-2,2.3-2.5,4.8-2.1c1.7,0.3,2,0.4,2.8,1.2
	c0.6,0.5,1.1,1.3,1.2,2c0.2,1,0.2,1.1-0.3,1.7c-0.3,0.3-0.9,0.7-1.3,0.8c-0.6,0.2-0.7,0.2-1.1-0.5c-0.2-0.3-0.4-0.5-0.6-0.7
	c-0.1-0.1-0.1-0.1-0.2-0.1c0,0,0,0-0.1,0C26.1,15.6,25.4,16,25.2,16.8z M34.9,34.8c0.4,0.3,1.3,0.9,2,1.2c0.9,0.4,1.8,1.1,2.5,2
	c1.3,1.5,1.4,2.4,0.4,2.7c-1,0.2-4.3-0.5-5.4-1.2c-3.1-2-7.3-5.9-7.3-6.9C27.1,32,33.7,33.8,34.9,34.8z"/>
<path class="st4" d="M262.9,227.5c1.4-1.7,2-3.9,2-6c2.8,3.3,6.6,6.5,8.5,2.5c1.1-2.3-0.9-4.6-2.2-6.4c-2.2-2.9-4.6-5.5-7.3-7.9
	c0-0.1-0.1-0.3-0.1-0.4c0.3-0.2,0.6-0.5,0.6-1c0.2-27.1-0.3-54.2-0.5-81.3c-0.2-26.5,0.5-53.3-1.1-79.8c0.2,0,0.4,0,0.6-0.2
	c3.1-2.2,10-8.8,7.5-13.1c-0.9-1.6-3-2.1-4.7-1.7c-1.5,0.3-2.5,1.3-3.3,2.4c-1.1-2.1-2.8-3.8-5-4.9c-0.5-0.3-1.3-0.2-1.7,0.2
	c-1.8,2-1.8,4.2-1.1,6.7c1,3.6,2.5,7.4,4.2,10.7c0.3,0.6,1,0.7,1.5,0.4c-1.2,26.3,0,52.9,0.2,79.2c0.2,27.1,0.2,54.2,0.8,81.3
	c0,0.1,0,0.3,0.1,0.4c-0.2,0.1-0.3,0.3-0.4,0.5c-4.3,4.5-11,13.7-4.7,19.3C258.8,230.2,261.4,229.4,262.9,227.5z M261,45.1
	c-0.6-1.9-1.4-3.8-2.1-5.6c-0.7-1.8-2.2-4.7-1.5-6.8c1.9,1.4,3.1,3.2,3.6,5.6c0.2,1.1,2.1,1.4,2.6,0.3c0.4-1,1-2.7,2-3.3
	c2.7,0,3.5,0.8,2.2,2.5c-0.2,0.5-0.4,0.9-0.7,1.3c-1.3,2.3-2.9,4.2-4.8,6C262,44.7,261.3,44.7,261,45.1z M257.2,221.1
	c0.5-3.9,3.2-6.9,5.8-9.8c2.3,2.5,4.6,5.1,6.5,7.8c0.3,0.4,1.2,1.4,1.3,1.9c-0.3,0.6-0.6,1.1-0.9,1.7c-0.3-0.3-0.6-0.6-1-0.9
	c-1.9-1-3.8-4.2-5-5.8c-0.8-1.1-2.8-0.5-2.3,1c0.7,2.1,1,4.3,0.4,6.5c-0.2,0.6-0.5,1.2-0.7,1.8c-1.1,0.2-2.2,0.4-3.2,0.6
	C256.9,225.4,257.1,222,257.2,221.1z"/>
</svg>
