<?xml version="1.0" encoding="utf-8"?>
<!-- Generator: Adobe Illustrator 19.0.1, SVG Export Plug-In . SVG Version: 6.00 Build 0)  -->
<svg version="1.1" id="Режим_изоляции"
	 xmlns="http://www.w3.org/2000/svg" xmlns:xlink="http://www.w3.org/1999/xlink" x="0px" y="0px" viewBox="0 0 605 513"
	 style="enable-background:new 0 0 605 513;" xml:space="preserve">
<path d="M594,98.8c-11.4-26.4-31.5-42.4-59.5-47.6c-39-7.2-99.9,6.7-114.5,51.6C411.9,76.4,399.3,44,375,23
	C354.6,5.4,323.3-2.6,286.9,0.7c-32.9,3-65.6,14.9-87.4,31.9c-26.1,20.5-40.5,52.2-42.7,94.3c-36-27.4-90.8-23.7-125.3,8.6
	c-41.4,38.8-36.1,97.3-17.3,139.2c19.7,43.8,60.5,91.2,116.2,92.8c10.6,0.3,21.5-1.6,31.6-5.4c-1.5,4.7-1.2,9.7,0.9,13.7
	c2,3.8,5.3,6.4,9.7,7.5c6.9,1.7,11.5-1.8,14.2-5.5c0.4,8.7,4.8,17.3,12.7,24.9c5.5,5.2,12.1,9,18.5,12.7c3.4,1.9,6.9,3.9,10.1,6.1
	c12.3,8.1,20,19.3,21.1,30.6c0.9,9.5-2.8,18.8-10.9,26.8c-1.6,1.5-1.1,3.5,0,4.6c1.2,1.2,3.2,1.7,4.8,0.2
	c13.5-12.5,17.5-30.7,10.2-46.2c-5.3-11.3-17.9-19-30.1-26.5c-18.9-11.6-36.7-22.6-29.2-45.6c0.2-0.6,0.1-1.2-0.2-1.7
	c7.1,1.9,15.9,2.4,21.6-1.2c3.3-2.1,5.2-5.4,5.7-9.7c1.7-14.5-15.3-18.5-21.8-19.4c7.9-11.5,11.8-24.8,11.4-38.4c0,0,0,0,0.1,0.1
	c20.3,16.6,47.8,26,77.4,26.3c-8,6.7-14.4,17.6-11.3,27.5c2.1,6.7,10,8.4,16.3,6.6c3.9-1.1,7.3-3.5,10.1-6.1
	c-9.1,13.1-9.7,30.3-1.8,51.1c2.4,6.2,5.4,12.2,8.4,18c3.4,6.7,7,13.7,9.4,21c8.9,26.4-0.4,46.1-17.2,67.6c-1.4,1.8-0.7,4.1,0.7,5.2
	c0.5,0.4,1.2,0.7,1.9,0.7c0.8,0,1.6-0.3,2.2-1.2c14.1-17.9,27.4-37.6,21.8-63.8c-2.4-11.1-7.6-22-12.7-32.5
	c-10.8-22.3-20.9-43.4-6.3-66.7c3.2,4.1,8,6.9,13.3,7.8c5.6,0.9,11.1-0.5,15.6-3.8c5.1-3.8,8.1-9.7,8.4-16.1c0.3-6.1-2-11.9-6.1-16
	c15.9-3,30.7-10.1,44.2-21.1c8,10.8,17.9,19.6,29.4,26.3c-4.6-1.9-10.1-1.4-15.7,1.4c-7.5,3.7-13.5,11-14.5,17.6
	c-0.8,5.3,1,11.8,6.8,13.5c2.1,0.6,4.5,0.6,7.3,0c-6.8,8.2-14.1,20.5-12.5,34.9c0.6,5.5,2.1,10.7,3.6,15.6c2,6.7,4,13.6,3.7,21.3
	c-0.4,12.4-6,19.5-11.9,27c-2.9,3.7-5.9,7.4-8.4,12c-1,1.9-0.1,3.5,1.1,4.3c1.4,0.8,3.4,0.7,4.5-1c2.9-4.4,5.7-8,8.4-11.5
	c8-10.4,14.4-18.6,13.2-36.4c-0.4-5.8-1.9-11.2-3.4-16.5c-0.8-2.9-1.7-5.9-2.3-9c-3.9-18.3,3.5-31.4,16.1-45.3
	c0.2,4.2,2.3,8.3,6,11.3c4.8,3.9,11.3,5.3,17,3.8c12.2-3.3,20.5-17.3,18.1-30.2c22.5,3.2,46.1-0.8,66.7-11.2
	c26.2-13.3,47.2-34.5,62.3-63.1c13.1-24.9,21.3-54.7,23.7-86.4C605.9,156.3,605.4,125,594,98.8z M416.2,326.8
	c8.6,4.7,17.9,8.2,27.7,10.4c2.3,10.8-0.3,18.5-7.7,23c-4.9,3-11.1,3-15.6,0c-3.7-2.5-5.3-6.6-4.5-11.2c1.1-1.5,0.6-3.4-0.3-4.5
	c-0.8-0.9-2.3-1.5-4-0.5c-4.6,2.9-9.7,6.1-15.3,7.3c-2.2,0.4-3.8,0.1-4.7-1.1c-1.3-1.7-1.1-4.9,0.4-7.9c1.8-3.6,5.2-7,9.5-9.2
	c2.9-1.5,5.7-2,8.8-2.5c1.6-0.3,3.3-0.5,4.9-1c0.7-0.2,1.1-0.7,1.2-1.5C416.7,327.6,416.5,327.1,416.2,326.8z M310.2,334.6
	c-1.1-0.7-2.6-0.9-3.8,0.4c-0.7,0.8-1.3,1.6-2,2.4c-2.4,3-5,6-8.1,8.3c-2.9,2.1-7,4.3-9.9,2.8c-3.7-1.9-2.3-8.1-1.9-9.3
	c1.9-7.5,6.7-13.6,14.3-18.2c2.1-0.1,4.4-0.3,7.1-0.6c0,0,0,0,0,0c0.1,0.1,0.2,0.1,0.4,0.2c8.4,1.5,16.8,1.9,24.9,1.3
	c0.1,0.2,0.3,0.4,0.5,0.5c5,3.5,8.1,9.2,8,14.4c-0.1,3.1-1.2,7.4-6.5,10.7c-3.7,2.3-7.6,2.9-11.5,1.7c-4.5-1.4-8.5-5.3-10.7-10.3
	c0.1-0.1,0.1-0.2,0.2-0.3C312.2,337.2,311.4,335.4,310.2,334.6z M307.3,313.3c-0.1,0-0.3,0-0.4,0c-0.6,0-1,0.2-1.4,0.4
	c-35.2-0.5-74.8-5.4-102-37.4c-23.1-27.2-30.9-64-35-93c-4.8-33.8-8-77.1,10.2-112.8c18.9-37,58.3-51.4,88.1-56.9
	C299.7,7.5,347,3.4,377.6,37.1c20.6,22.7,35.1,57.5,44.4,106.3c6.1,31.9,8.5,78.4-14.5,118.4C386.2,298.8,347.8,318.6,307.3,313.3z
	 M432.2,215.6c5.1-30.5,2-64.6-9.5-104.2c18.1-40.7,65.6-62.7,113.1-52.3c25.6,5.6,43.5,21.5,53.2,47.3c7.4,19.7,9.9,45.6,7.2,74.9
	c-5.3,58.2-29.6,104.9-68.5,131.5c-23.5,16-52.7,22.3-80.1,17.3c-0.6-0.4-1.4-0.5-2.1-0.4c-22.5-4.7-41.5-16.7-54.9-34.7
	c0,0-0.1-0.1-0.1-0.1C412,275,427.1,246.2,432.2,215.6z M164.2,206.4c7.4,36,20.1,62.6,38.8,81.4c1.9,21.2-5.5,40.3-21,53.8
	c-18,15.7-44.9,21.8-70.3,15.9h0c-38.9-9-73.7-43.5-93.2-92.3c-18.9-47.4-12.7-93,16.5-122C52.5,125.8,74.3,117,97.7,117
	c19,0,39,5.8,58.9,17.4C156.2,155.8,158.7,180.1,164.2,206.4z M169.9,358.7c9.6-4.8,18.2-11.5,24.9-19.4l0.1,0
	c5.3,0.7,15.2,2,18.8,7.1c1.3,1.8,1.6,3.9,1.1,6.3c-0.5,2.3-1.6,4.1-3.5,5.2c-5.3,3.4-14.9,1.2-20.1,0.1l-0.1,0c-0.1,0-0.2,0-0.3,0
	c-0.9-0.6-2.1-0.7-3.1-0.3c-0.9,0.4-1.6,1.1-1.8,2.1c-0.2,0.8-0.4,1.8-0.6,2.8c-1.2,6-2.6,13.5-9,14.2c-4.5,0.5-8.3-3.5-9-7.5
	C166.7,365.9,167.5,362.7,169.9,358.7z"/>
</svg>
