<svg xmlns="http://www.w3.org/2000/svg" xmlns:xlink="http://www.w3.org/1999/xlink" width="242.948" height="251.907">
  <defs>
    <path id="a" d="M0 0h242.948v251.907H0z"/>
  </defs>
  <clipPath id="b">
    <use overflow="visible" xlink:href="#a"/>
  </clipPath>
  <path fill="#090C10" d="M135.984 250.193c.35-63.482 3.805-126.814 6.204-190.234.705-18.603 2.123-37.467 1.401-56.09-.046-1.194.043-2.942-1.151-3.642-2.446-1.433-5.629 4.31-6.676 5.658-8.604 11.081-16.948 22.463-24.758 34.119l2.001-.814c-5.525-1.987-11.962-2.217-17.752-2.743-6.696-.608-13.444-1.038-20.164-.674-10.405.563-20.804 1.959-31.117 3.417l2.001.814c-2.766-4.235-6.483-8.042-9.754-11.877-4.804-5.631-9.641-11.315-14.956-16.474-1.73-1.68-6.412-5.286-6.512-.346-.144 7.192.247 14.423.447 21.611 1.4 50.383 2.004 101.335-2.96 151.553-2.098 21.215-4.794 42.387-7.734 63.501-.311 2.233 3.103 3.197 3.417.941 4.783-34.347 8.952-68.727 10.337-103.394 1.308-32.743 1.74-65.525.9-98.286-.158-6.151-.365-12.3-.53-18.451-.106-3.943-.204-7.887-.279-11.831a354.936 354.936 0 0 1-.058-4.254c-.003-.464-.001-.927.004-1.391.01-1.044-2.661.308-1.408 1.18 5.481 3.815 9.959 10.208 14.292 15.199 3.93 4.529 8.445 9.07 11.734 14.107.48.735 1.167.932 2.001.814 9.66-1.366 19.374-2.555 29.109-3.225 6.142-.422 12.269-.076 18.401.376 6.405.473 13.538.654 19.639 2.849.773.278 1.581-.189 2-.814 4.954-7.394 10.212-14.588 15.479-21.76 4.114-5.606 8.056-12.024 13.059-16.897-2.348 2.287-2.932-1.849-2.648-.619.09.392-.045-.453.012.065.046.427.063.858.082 1.287.069 1.545.066 3.094.064 4.641-.002 4.996-.128 9.992-.255 14.987-.818 32.097-2.276 64.181-3.669 96.257-1.887 43.472-3.507 86.917-3.746 130.439-.012 2.287 3.531 2.286 3.543.001" clip-path="url(#b)"/>
  <path fill="#090C10" d="M112.206 80.035c-.433-5.019-2.313-10.847-8.34-10.837-4.497.008-8.474 6.884-8.18 10.823.169 2.264 3.713 2.28 3.543 0-.18-2.414 2.046-6.336 4.446-7.228 1.609-.597 3.141 1.083 3.854 2.245.876 1.425.995 3.386 1.134 4.997.194 2.258 3.739 2.278 3.543 0m-49.285-.237c-1.129-2.786-1.533-5.609-3.65-7.951-1.86-2.059-4.174-3.191-6.975-3.094-6.782.233-6.418 7.724-6.485 12.522-.032 2.286 3.512 2.283 3.544 0 .042-3.029-.922-7.754 2.72-8.919 4.754-1.522 6.256 5.488 7.429 8.384.847 2.09 4.276 1.177 3.417-.942m28.835-40.777l-.264 7.749c-.078 2.287 3.465 2.279 3.543 0l.264-7.749c.078-2.285-3.465-2.278-3.543 0M79.51 38.012c.469 4.496.602 8.99.398 13.506-.103 2.285 3.441 2.275 3.543 0 .204-4.516.071-9.01-.398-13.506-.234-2.249-3.78-2.272-3.543 0m-11.089-.242c.077 5.335.057 10.669-.059 16.004-.049 2.286 3.494 2.281 3.544 0 .115-5.335.135-10.669.058-16.004-.032-2.283-3.576-2.286-3.543 0M58.33 39.974c.612 2.909.878 5.823.838 8.795-.03 2.286 3.513 2.283 3.544 0a44.373 44.373 0 0 0-.965-9.737c-.471-2.235-3.886-1.287-3.417.942m24.143 70.196c3.968-2.319 11.791-6.213 12.684-11.413.891-5.193-6.36-5.915-10.069-6.155-3.791-.246-7.796-.345-11.58.004-1.29.119-2.874 1.094-2.877 2.553-.01 5.21 6.182 11.41 9.695 14.734 1.658 1.569 4.168-.932 2.506-2.506a41.16 41.16 0 0 1-6.738-8.228 37.674 37.674 0 0 1-1.339-2.438c-.903-.835-.549-1.057 1.06-.666 2.062-.031 4.122-.035 6.184-.012 2.641.031 11.774-.229 8.197 4.214-2.387 2.966-6.275 4.962-9.511 6.853-1.971 1.152-.189 4.215 1.788 3.06m21.419 4.521c.595 9.323-10.094 7.92-15.321 4.586-3.016-1.925-5.626-2.275-9.095-1.709-4.068.663-7.832 3.417-11.652 4.824-6.645 2.448-13.337-2.316-11.013-9.497.705-2.18-2.716-3.107-3.417-.942-1.535 4.744-.047 9.535 3.784 12.697 4.794 3.956 11.466 1.446 16.345-.856 5.228-2.466 9.281-3.997 14.628-.585 3.059 1.952 6.636 2.664 10.204 2.344 5.487-.491 9.419-5.558 9.08-10.862-.144-2.268-3.689-2.282-3.543 0m-16.013 16.351c-4.838 1.755-9.87 1.748-14.62-.315-2.074-.9-3.88 2.151-1.789 3.06 5.617 2.439 11.564 2.771 17.351.673 2.131-.774 1.212-4.199-.942-3.418m14.573 21.771c.251 9.171.358 18.345.609 27.515l2.666-1.528-29.195-12.872v3.06a236.27 236.27 0 0 1 28.586-14.644c2.094-.899.287-3.951-1.789-3.061a236.047 236.047 0 0 0-28.585 14.645c-1.038.624-1.268 2.501 0 3.06l29.194 12.871c1.16.513 2.706-.063 2.666-1.53-.25-9.17-.358-18.344-.609-27.515-.062-2.282-3.605-2.288-3.543-.001" clip-path="url(#b)"/>
  <path fill="#090C10" d="M76.283 165.307c-9.58-5.013-19.277-9.8-28.625-15.243-1.234-.719-2.559.224-2.665 1.53A303.766 303.766 0 0 0 44 178.947c.009 1.046 1.148 2.156 2.243 1.708l29.617-12.11c2.085-.854 1.174-4.282-.942-3.417-9.872 4.038-19.745 8.075-29.617 12.111l2.243 1.708c-.08-9.136.25-18.247.992-27.354l-2.666 1.529c9.348 5.443 19.044 10.23 28.625 15.244 2.022 1.059 3.813-1.999 1.788-3.059m67.675-74.094l-26.24 3.333c-2.234.283-2.262 3.83 0 3.543l26.24-3.333c2.235-.284 2.264-3.83 0-3.543m9.005 9.053a1007.37 1007.37 0 0 1-23.255-.409c-2.286-.067-2.279 3.477 0 3.543 7.751.226 15.502.363 23.255.409 2.286.014 2.284-3.529 0-3.543m-9.024 13.022a164.939 164.939 0 0 1-21.059-6.593c-2.134-.827-3.048 2.6-.941 3.417a164.925 164.925 0 0 0 21.058 6.593c2.222.535 3.163-2.882.942-3.417M36.726 88.925a288.62 288.62 0 0 0-25.551-6.57c-2.229-.467-3.178 2.949-.942 3.416a288.974 288.974 0 0 1 25.551 6.571c2.191.671 3.12-2.75.942-3.417m-11.76 5.528a247.477 247.477 0 0 0-23.253-.691c-2.283.039-2.286 3.583 0 3.543 7.765-.134 15.51.096 23.253.691 2.281.176 2.263-3.369 0-3.543m11.75 5.747l-30.745 7.271c-2.223.526-1.28 3.943.942 3.417l30.745-7.271c2.223-.526 1.28-3.943-.942-3.417" clip-path="url(#b)"/>
  <path fill="#040404" d="M172.808 136.563c-2.378 5.31-34.87 15.37-34.705 13.533" clip-path="url(#b)"/>
  <path fill="none" stroke="#090C10" stroke-miterlimit="10" stroke-width=".992" d="M172.808 136.563c-2.378 5.31-34.87 15.37-34.705 13.533" clip-path="url(#b)"/>
  <path fill="#040404" d="M138.67 129.101c-1.378.866.106 2.874 1.532 2.071 1.927-1.086 3.846-2.644 5.32-3.383 5.023-2.526 32.107-13.208 29.027-16.447" clip-path="url(#b)"/>
  <path fill="none" stroke="#090C10" stroke-miterlimit="10" stroke-width=".992" d="M138.67 129.101c-1.378.866.106 2.874 1.532 2.071 1.927-1.086 3.846-2.644 5.32-3.383 5.023-2.526 32.107-13.208 29.027-16.447" clip-path="url(#b)"/>
  <path fill="#010101" d="M182.881 62.049c-.299-.75-1.019-2.059-.356-2.23 2.922-.756 4.231-3.59 6.658-4.813 3.96-1.996 6.603-.414 8.376 4.171.411 1.063-.353 3.122 1.707 3.253 1.6.102 1.623-1.576 2.304-2.493 3.08-4.155 5.893-4.977 8.18-2.448a4.533 4.533 0 0 1 .892 3.871 1.703 1.703 0 0 0 1.443 2.134c1.286.247 1.735-.373 1.83-1.561.148-1.864 1.875-2.679 2.869-3.956a4.02 4.02 0 0 1 4.901-1.046c2.119.859 2.201 2.824 2.341 4.834.063.897-1.718 2.032.123 2.666 1.259.433 1.689-.832 2.027-1.631.862-2.04 2.287-3.199 4.474-2.882 2.219.322 3.09 1.818 3.225 4.092.141 2.359 1.844 1.975 3.649 1.789 6.073-.625 4.61-.645 5.425 5.25-1.225 11.653-8.443 65.423-7.596 72.327.303 2.458-2.261 4.929-3.75 4.723-3.432-.321-2.916.09-6.242-.809-14.637-4.671-29.77-5.873-44.948-6.914-7.936-.544-7.502-.618-7.409-8.264.135-11.23 1.864-22.293 2.951-33.409 1.151-11.771 3.443-23.429 5.209-35.141.175-1.155.661-1.773 1.879-1.649-1.155 9.404-2.104 18.839-3.513 28.204-1.939 12.883-2.575 25.875-3.603 38.83-.606 7.661-.341 7.811 7.37 8.318 15.165.999 30.258 2.332 44.866 6.938 2.749.867 4.314.337 4.523-3.318.637-11.168 1.11-22.41 2.865-33.43 2.011-12.626 2.066-25.346 3.761-38.172-3.831.722-7.201-.015-10.59-.22-1.34-.081-2.15.235-2.149 1.729.001 1.055.174 2.225 1.51 1.649 1.062-.458 1.757-.762 2.26.458.48 1.165-.541 1.928-1.183 2.396-.777.566-1.673 1.526-2.953.869-1.501-.77-2.563-2.077-2.213-3.615 1.008-4.431-1.333-5.309-4.918-5.079-1.284.082-3.05-1.08-3.749.437-.783 1.7 1.105 2.143 2.244 2.826.932.396 1.45 1.4 1.231 2.388a2.322 2.322 0 0 1-2.038 1.753 2.29 2.29 0 0 1-2.716-1.359 6.156 6.156 0 0 1-.879-2.731c-.032-4.309-2.893-4.443-6.038-4.303a15.503 15.503 0 0 0-2.065-.127c-1.053.2-2.797-1.173-3.021.759a1.985 1.985 0 0 0 2.552 1.942 1.408 1.408 0 0 1 1.779 1.256c.235 1.005-.675 1.39-1.386 1.785-2.564 1.423-4.451.315-5.661-3.223-.397-1.158.301-2.892-1.845-3.186-2.177-.298-4.299-1.056-6.476-1.241-.691-.059-2.007-2.135-2.396.239-.238 1.443-.064 2.62 1.999 2.81 1.966.182 2.116.928.896 2.321-.674.77-1.477 1.412-2.521.99a5.395 5.395 0 0 1-2.947-3.785c-.604-1.966.025-4.659-3.158-4.972m11.903-.945c-.506-2.405-1.738-3.617-4.039-3.374-.827.087-2.858 1.465-2.473 2.178 1.17 2.175 4.305 1.232 6.512 1.196m25.427-1.24c-1.975.944-3.271 1.933-3.456 3.917 4.701.565 4.701.565 3.456-3.917" clip-path="url(#b)"/>
  <path d="M196.805 87.859c-.401.129-1.275.295-2.34.15-2.393-.325-3.73-2.159-3.4-4.585.332-2.442 2.246-4.002 4.835-3.65.853.115 1.577.431 1.942.697l-.477 1.054c-.32-.227-.835-.497-1.621-.604-1.82-.247-2.988.979-3.21 2.618-.249 1.836.777 3.128 2.351 3.342a4.161 4.161 0 0 0 1.821-.138l.099 1.116zm5.841-6.902c.586-.021 1.631.038 2.548.163 1.344.183 3.509.71 3.271 2.464-.133.982-.972 1.504-1.9 1.578l-.004.032c1.141.322 1.906 1.077 1.751 2.225-.282 2.081-2.94 1.987-4.497 1.775a31.661 31.661 0 0 1-2.232-.402l1.063-7.835zm.44 7.088c.405.088.697.145 1.141.205.982.133 2.455.116 2.612-1.048.155-1.147-.975-1.551-2.335-1.736l-1.049-.142-.369 2.721zm.512-3.653l1.082.146c1.066.145 2.206-.018 2.335-.968.106-.786-.529-1.257-1.973-1.452-.491-.067-.79-.075-1.123-.086l-.321 2.36zm12.056 4.374c-.094.688-.151 1.365-.143 1.917l-1.295-.176.02-1.015-.049-.007c-.526.563-1.455 1.004-2.586.851-1.605-.218-2.271-1.46-2.116-2.607.261-1.917 2.107-2.735 5.171-2.303l.021-.164c.087-.639.068-1.859-1.557-2.063-.754-.103-1.553.006-2.161.307l-.196-1.012c.711-.32 1.717-.468 2.717-.332 2.426.329 2.79 2.064 2.576 3.639l-.402 2.965zm-1.101-2.336c-1.568-.246-3.394-.21-3.603 1.331-.129.95.437 1.461 1.157 1.559 1.049.143 1.811-.422 2.131-1.063.071-.157.11-.319.128-.45l.187-1.377zm8.861 5.042c-.402.13-1.275.295-2.342.15-2.393-.325-3.729-2.159-3.398-4.584.331-2.443 2.244-4.003 4.834-3.651.852.116 1.577.432 1.942.697l-.478 1.055c-.32-.228-.834-.497-1.621-.604-1.818-.247-2.986.98-3.209 2.619-.25 1.836.777 3.127 2.351 3.341a4.18 4.18 0 0 0 1.821-.137l.1 1.114zM189.618 99.113l1.77.24.884 4.192c.133.618.329 1.631.425 2.277l.033.005c.263-.582.874-1.768 1.319-2.592l1.732-3.287 1.786.243-.52 8.008-1.377-.187.334-3.811c.085-.873.155-1.883.253-2.854l-.049-.006c-.311.691-.625 1.283-1.234 2.452l-2.067 3.792-1.032-.141-.875-4.121a39.585 39.585 0 0 1-.447-2.731l-.066-.01c-.159.931-.334 1.975-.501 2.838l-.724 3.724-1.327-.181 1.683-7.85zm10.896 1.479l1.085 4.922c.125.551.237 1.2.304 1.693l.033.005c.211-.455.458-1.04.732-1.587l2.206-4.441 1.523.207-2.931 5.361c-1.403 2.58-2.294 3.861-3.396 4.597-.804.509-1.524.661-1.896.678l-.197-1.245a3.842 3.842 0 0 0 1.357-.534c.436-.258.986-.751 1.431-1.441.086-.139.151-.247.162-.328.011-.082-.007-.202-.063-.393l-1.926-7.706 1.576.212zm6.84 3.566a57.55 57.55 0 0 0 .287-2.599l1.278.174-.104 1.371.033.005c.704-.89 1.73-1.317 3.025-1.142 1.934.263 3.156 2.081 2.831 4.474-.387 2.852-2.332 4.023-4.2 3.771-1.049-.143-1.904-.727-2.273-1.578l-.032-.004-.585 4.311-1.428-.194 1.168-8.589zm1.14 2.309a2.293 2.293 0 0 0-.015.599c.126 1.035.9 1.841 1.935 1.981 1.523.207 2.577-.918 2.824-2.737.214-1.573-.437-3.048-1.962-3.255-.982-.133-2.011.429-2.419 1.474a2.393 2.393 0 0 0-.177.562l-.186 1.376zm11.474-.196l-.143 1.049-4.049-.55.143-1.049 4.049.55zM186.948 118.774l1.771.24.883 4.192c.133.619.33 1.631.425 2.277l.033.005c.262-.582.874-1.768 1.319-2.592l1.732-3.287 1.786.243-.52 8.008-1.377-.187.334-3.811c.085-.874.155-1.882.254-2.854l-.05-.007c-.311.692-.625 1.284-1.234 2.453l-2.067 3.792-1.032-.14-.875-4.125a39.585 39.585 0 0 1-.447-2.731l-.066-.01c-.159.931-.335 1.975-.501 2.838l-.724 3.724-1.328-.181 1.684-7.847zm10.896 1.479l1.084 4.922c.127.551.238 1.2.305 1.693l.033.005c.212-.456.458-1.039.732-1.587l2.206-4.44 1.523.207-2.931 5.36c-1.402 2.581-2.294 3.862-3.395 4.597-.805.509-1.526.661-1.896.678l-.198-1.246a3.8 3.8 0 0 0 1.357-.533c.436-.258.987-.751 1.432-1.441.085-.139.15-.247.161-.328.011-.082-.007-.202-.063-.393l-1.926-7.706 1.576.212zm6.841 3.566c.138-1.016.217-1.84.287-2.598l1.278.173-.104 1.372.033.004c.705-.89 1.731-1.317 3.026-1.142 1.934.263 3.155 2.081 2.831 4.474-.388 2.852-2.333 4.024-4.201 3.771-1.049-.143-1.904-.727-2.273-1.578l-.032-.004-.585 4.311-1.427-.194 1.167-8.589zm1.139 2.309a2.25 2.25 0 0 0-.015.599c.126 1.035.9 1.842 1.935 1.981 1.523.207 2.578-.918 2.824-2.737.214-1.573-.436-3.047-1.961-3.255-.984-.133-2.012.429-2.42 1.475-.074.174-.152.38-.176.561l-.187 1.376z"/>
</svg>
