<?xml version="1.0" encoding="utf-8"?>
<!-- Generator: Adobe Illustrator 19.0.1, SVG Export Plug-In . SVG Version: 6.00 Build 0)  -->
<svg version="1.1" id="Objects" xmlns="http://www.w3.org/2000/svg" xmlns:xlink="http://www.w3.org/1999/xlink" x="0px" y="0px"
	 viewBox="0 0 512 573.2" style="enable-background:new 0 0 512 573.2;" xml:space="preserve">
<style type="text/css">
	.st0{fill:#49341A;}
</style>
<g>
	<path class="st0" d="M0.3,418c-1.7-22.1,4-48.6,4-75.4c0-16.4,1.2-32.8,0.7-49.1c-0.5-16.2,4.6-30.5,11-44.9
		c2.4-5.4,7-7.5,11.7-9.6c16.3-7.2,32.9-14,49.1-21.4c12.9-5.9,25.2-12.8,38.1-18.6c8.3-3.7,13.2-9.3,14.1-18.3
		c0.1-0.7,0.3-1.5,0.5-2.2c7.3-25.8,19.8-35.6,46.3-36.6c22.3-0.9,23.6-2.1,23.7-23.6c0-12.1-2.9-23.5-8.7-34.2
		c-14.8-27.2-32.9-51.4-60.2-67.3c-2.5-1.5-5-3.3-7.1-5.3c-2.3-2.2-3-5.5-1.4-8.1c1.5-2.6,4.5-4,7.7-2.9c8.5,2.9,16.6,7.2,23.1,13.2
		c16.3,15.3,31.9,31.3,44.2,50.1c10.9,16.6,16,35.1,16.6,54.8c0.1,4.5,0.2,8.9,0.4,13.4c0.2,3.1,1.4,5.9,4.6,7
		c10,3.2,19.8,5.6,29.7-1.3c22.7-16,48.4-26.2,73.3-37.8c23-10.7,45.4-22.3,67.3-35C412,51.2,436,39.3,459.7,26.9
		c6.3-3.3,8.6-2,13.5,2.8c15.7,15.4,20.8,34.8,24.3,55.8c6.1,36.7,9.6,73.7,13.9,110.7c1.9,16.8-0.5,31.6-10.8,46.2
		c-16.7,23.7-32.1,48.3-49.5,71.6c-17.3,23.2-32.7,47.8-48.2,72.3c-25.9,41-53.5,80.5-86.3,116.4c-11,12-20.1,25.8-30.2,38.7
		c-3.2,4.1-6.3,8.3-9.8,12.1c-2.6,2.9-6.7,5.1-9.9,2.4c-6.6-5.8-11.6-2.9-17.8,0.8c-16.3,9.5-34.6,13.3-53.2,15.2
		c-8.9,0.9-17.9,0-26.8,0.8c-35.7,3.4-67.3-9.5-98.3-24.6c-11.4-5.6-21.4-13.5-30.2-22.7c-6.2-6.4-12.3-12.9-18.8-19.1
		C6.8,492,0.5,474.3,0.3,454.1C0.3,443.7,0.3,433.2,0.3,418z M420.5,125c-1.8,1.6-3.6,3.1-5.4,4.7c-1,3.1-2,6.1-3,9.2
		c-1.7,1.7-3.5,3.4-5.2,5c-5.5,1.3-8.7,5.7-11.8,9.7c-26.6,25.6-47.1,50.8-68.3,75.8c-27.8,32.8-47.8,67.1-74.7,100.8
		c-2.8,3.5-5.4,7.1-7.8,10.8c-0.7,1.1-1.1,3.5-0.5,4.1c1.4,1.3,3.6,2.7,5.4,2.7c8.3-0.1,13.5-5.4,18.1-11.5
		c7.1-9.5,13.7-19.5,21.6-28.4c41.6-46.8,77.1-98.1,111.2-150.4c2.8-4.4,5.9-8.6,6.4-14c1.7-1.6,3.4-3.3,5.2-4.9c1-3.1,2-6.1,3-9.2
		c1.8-1.6,3.6-3.2,5.4-4.7C420.1,124.6,420.5,125,420.5,125z M434.1,108.1l0-0.8l-0.1,1.3c-1.8,0.8-3.7,1.6-5.5,2.4l0.1,0.8l0.1-1.3
		C430.4,109.7,432.2,108.9,434.1,108.1z M443.6,94.6l-1.2-0.3l0.8,0.2c0.4-0.6,0.8-1.1,1-1.7c0.2-0.4,0-0.9-0.1-1.4
		C444,92.5,443.8,93.6,443.6,94.6z M429.7,188.6l-0.2-0.8l0.4,1.3c-3.7-3.5-8.9-5.6-9.6-11.6c-0.3-2.6,3.7-7,5.3-5.6
		c12.3,11.3,16.1-0.2,21.2-7.7c5.5-8,10.5-16.2,15.8-24.3c5-7.6,9.2-15,4.5-24.8c-2-4.2,2.5-7.9,7.8-8.2c3.3-0.2,6,5.4,10.2,0.5
		c-1.1-9.2-2.1-18.7-3.4-28.3c-0.4-2.9-5.2-4.3-7.1-2.2c-2,2.2-4,4.4-5.7,6.9c-18.5,26.9-37.1,53.8-55.3,80.9
		C379,216.1,344.2,267,303,313.1c-7.4,8.3-13.5,17.7-20.2,26.6c-4.5,5.9-2,8.9,4.1,11.1c2.2,0.8,2.9,3.4,2.3,5.7
		c-0.8,3.4-3.4,4.5-6.6,4.6c-0.7,0-1.5-0.2-2.2-0.5c-5.2-2.9-9.6-2.7-13.8,2.1c-4.2,4.7-7.5,9.1-5.3,15.9c1.4,4.2,1.8,8.7,2.9,13.1
		c1.1,4.3,5.6,5.3,8.4,1.7c12.7-16.5,25.2-33.1,37.7-49.7c3.3-4.4,0.6-8.3-1.3-12.3c-1.7-3.9,0-9.4,3.7-8.2
		c12.9,4.2,16.8-5.1,22.6-12.7c5-6.4,5.2-11.7-0.9-17.4c-1-1-0.7-4.3,0.1-6c0.9-2.1,4.2-3.2,5.6-1.7c8,8.6,12.6,3.3,17.2-3.5
		c2.5-3.7,5.3-7.2,8.1-10.6c4.3-5.1,5.1-9.6,0.8-15.8c-3.7-5.3,1.1-11.5,6.6-8.8c7,3.5,11,2.1,15.1-3.4c2.2-3,4.3-6.1,6.8-8.8
		c5.8-6.3,8-12.2,0.5-19c-1.7-1.5-0.7-4.2,1.1-5.9c1.7-1.7,4.4-2.6,5.9-1c7.2,7.3,11.8,2.5,16.1-3.2
		C422.5,199.9,426,194.2,429.7,188.6z M74,325.7c-15.7-7.3-29.5-17.3-40.2-31.1c-1.8-2.3-3.5-4.8-5.6-6.9c-0.9-0.9-2.8-1.5-4-1.2
		c-1.1,0.3-2.6,1.9-2.7,3c-1,8.1-2.2,16.2-2.5,24.4c-0.9,21.6,0.1,43.3-2.6,64.6c-3.2,24.6-0.8,49-0.8,73.5
		c0.1,18,7.7,32.6,19.7,45.8c22.1,24.4,48.5,41.5,80.1,50.4c39,11.1,78,10.8,116.4-2.2c22.1-7.5,23.5-11.3,20.9-34.7
		c-2.2-20-3.7-40-5.3-58.1c2-15.2,2.5-28.7,1.3-42c-1-11.1-3-22.1-5-33c-0.8-4.3-2.8-10-7.2-10.5c-11.2-1.3-21-8.6-31.7-8.8
		c-21.1-0.5-41.2-6.3-61.9-8.4 M199.6,341.7c17,1,30.7-4.7,40.7-18.8c4.3-6,9.2-11.7,13.9-17.4c17.8-22,29.2-44.1,47.3-65.8
		c14.3-17.1,23.7-33.2,37.6-50.6c15.8-19.7,42.8-40.2,57.7-60.6c11.9-16.2,23.3-32.7,35-49c5.1-7.1,12.5-12.8,13.6-22.4
		c-10.6-4-17.5,4.7-26.2,7.6c-2.8,0.9-5,3.1-7.7,4.5c-25,13.1-49.9,26.4-75.2,39c-17.9,8.9-36.5,16.7-54.6,25.2
		c-8.7,4.1-17.1,9-24.1,16c-3.8,3.8-6,7.6-5.3,13.7c2.7,23.2-4.4,43.9-17.5,62.9c-15.8,22.9-37.4,32.8-65.2,29.5
		c-15.5-1.8-26.1-9.9-32.9-23.4c-2-4-3.1-8.4-4.8-12.4c-3.8-8.9-5.8-9.5-15.4-5.4c-21.1,9.2-42.3,18.3-63.4,27.5
		c-3.4,1.5-6.8,3-10,4.8c-10.9,6.1-12.6,10.3-6.8,21.7c6.4,12.7,15,23.9,26.5,32.6c21.1,15.9,45.3,26.1,70.4,32.2
		C154.9,338.2,177.5,338.9,199.6,341.7z M270.9,530.9c4.6,0.1,5.8-2.8,7.6-5c10.4-12.6,20.2-25.8,31.3-37.7
		c37.6-40.7,66.8-87.3,96-134c3.2-5.1,3.7-9.1-1.4-13.4c-3.2-2.7-3-6.6,0-9.8c2.2-2.4,5.2-3.3,8-1.2c4.5,3.5,8,3,11.1-1.8
		c3.6-5.7,7.1-11.4,10.8-16.9c3.9-5.9,6-11.2,1.3-18.3c-2.8-4.3,1.2-10.3,5.8-8.9c9.2,2.7,14.1-1.6,18.3-8.2
		c4.4-6.9,8.6-13.9,12.7-21c1.9-3.3,1.5-6.7,0.6-10.6c-2.2-8.8-1.9-9.5,6.6-11.9c4.7-1.3,7.9-3.3,10.6-7.1
		c5.6-7.8,7.2-16.2,4.9-25.3c-0.5-2.1-1.3-4.8-3.9-4.7c-1.9,0.1-4.4,1.4-5.3,3c-14.1,23.7-30.1,46-47.6,67.3
		c-24.1,29.3-47.3,59.2-71,88.8c-25.2,31.3-49.7,63-71.3,97c-5.2,8.1-9.5,16.4-19.7,20.1c-5.3,1.9-9.5,7.5-9.2,14.2
		C267.9,500.6,267.4,516,270.9,530.9z M487.1,136.4c-8.3,5.3-12.3,12.4-17,19.1c-14.7,21.5-28.4,43.8-44.8,63.9
		c-34.2,42.1-66.7,85.6-99.6,128.7c-18.1,23.6-34.3,48.7-56.7,68.8c-2,1.8-3.1,5.1-3.4,7.9c-0.9,7.4-1.3,14.8-1.5,22.2
		c0,1.9,1.1,4.3,2.5,5.5c1.9,1.8,4.4,0.4,6-1.1c9.2-8.6,18.2-17.3,25.6-27.8c14-20.1,28.8-39.8,43.8-59.2
		c21.4-27.6,43.3-54.9,65-82.3c26.8-33.8,53.7-67.6,74.4-105.7c1.4-2.6,3.5-4.8,5.4-7.1C495.7,158.5,492.4,147.9,487.1,136.4z
		 M183.6,171.7c0.7-15.3-0.3-16.5-10.8-16.4c-14.8,0.1-24.1,6.5-28.1,20.4c-5.2,18.1-1.7,35.5,7.3,51.6c4.5,8,12.1,12.7,21.6,14.1
		c21,3.3,39.9-7.2,50.1-28.8c3.8-8,6.3-16.7,9.7-24.9c2.8-6.8,1.4-13.1-1.8-19.3c-6.5-12.4-18.2-13.5-26.5-2.6
		c-3.6,4.7-5.1,10.7-10,14.6c-3.5,2.7-10.1,1-10.9-3.3C183.7,174.3,183.6,171.3,183.6,171.7z"/>
</g>
<path class="st0" d="M34.2,462.3"/>
</svg>
