<?xml version="1.0" encoding="utf-8"?>
<svg xmlns="http://www.w3.org/2000/svg" xmlns:xlink="http://www.w3.org/1999/xlink">

<symbol viewBox="0 0 2835 2593" id="danger">
  <path d="M2771.938 1939.927L1785.25 217.404C1718.359 83.615 1567.849.003 1417.328.003c-150.513 0-284.3 83.621-367.922 217.401L62.717 1939.927c-83.622 133.789-83.622 301.023 0 434.813 66.889 133.788 217.4 217.4 367.921 217.4h1973.379c167.233 0 301.022-83.621 367.922-217.4 83.621-133.79 83.621-301.024-.001-434.813z" clip-path="url(#b)"/>
  <path fill="#FFF" d="M1253.588 2034.041c0-95.412 69.382-164.321 166.516-164.321 97.133 0 160.963 68.909 160.963 164.321 0 92.763-63.83 164.324-166.514 164.324-94.359 0-160.965-71.561-160.965-164.324zm69.383-376.351l-38.854-1274.823h266.425l-38.855 1274.823h-188.716z"/>
</symbol>


<symbol viewBox="0 0 568 568" id="smile">
  <path d="M409.858 209.297c0 18.056-14.627 32.692-32.684 32.692-18.047 0-32.683-14.636-32.683-32.692s14.636-32.683 32.683-32.683c18.057 0 32.684 14.627 32.684 32.683M221.939 209.297c0 18.056-14.636 32.692-32.683 32.692s-32.683-14.636-32.683-32.692 14.636-32.683 32.683-32.683 32.683 14.627 32.683 32.683M308.63 451.466h-45.388c-57.483 0-104.253-46.205-104.253-103.014 0-7.443 6.034-13.468 13.468-13.468s13.468 6.024 13.468 13.468c0 42.659 33.958 76.078 77.317 76.078h45.388c43.359 0 77.317-32.863 77.317-74.821 0-7.443 6.034-13.468 13.468-13.468 7.443 0 13.468 6.024 13.468 13.468.001 57.06-45.792 101.757-104.253 101.757"/>
  <path d="M283.642 567.419C127.239 567.419 0 440.144 0 283.705 0 127.275 127.239 0 283.642 0c156.395 0 283.634 127.275 283.634 283.705-.001 156.438-127.24 283.714-283.634 283.714m0-540.473c-141.552 0-256.705 115.181-256.705 256.759 0 141.588 115.154 256.768 256.705 256.768 141.543 0 256.696-115.181 256.696-256.768 0-141.579-115.153-256.759-256.696-256.759"/>
</symbol>


<symbol viewBox="0 0 909 446" id="candy1">
  <path d="M52.661 4.198c5.63-5.4 13.96-3.99 21.04-4.13 57.12.65 113.4 26.23 151.41 68.88 18.65 20.5 32.93 44.81 42.56 70.76 17.05-34.63 43.75-64.47 76.47-84.98 36.47-23.27 80.42-34.61 123.601-31.9 54.399 2.98 107.1 28.59 143.159 69.41 12.931 14.61 24.311 30.79 32.431 48.57 11.84-34.65 33.38-65.9 61.149-89.75 26.5-23.18 59.13-39.21 93.57-46.48 16.94-3.91 34.42-5.13 51.77-4.11 6.851.36 13.07 5.99 13.971 12.82.689 6 4.189 11.1 6.33 16.63 25.35 60.05 36.91 125.34 38.16 190.33.909 63.689-7.95 127.89-29.521 187.97-1.06 3.24-2.79 6.39-5.61 8.42-4.85 3.181-10.239 6.07-16.22 5.84-16.689 1.851-33.47.2-50.05-1.89-58.9-9.31-112.9-45.6-143.95-96.5-3.77-5.87-7-12.04-10.27-18.19-11.42 31.851-30.45 61.021-55.311 84-26.24 24.431-58.89 41.91-93.77 50.2-14.011 3.62-28.53 4.3-42.88 5.431-24.67.21-49.581-2.801-72.9-11.08-15.95-5.341-31.08-12.931-45.21-22.011-9.83-5.88-18.62-13.27-27.21-20.79-10.04-8.689-18.97-18.619-26.84-29.31-13.07-17.02-23.34-36.19-30.46-56.42-14.5 29.84-36.37 55.96-62.87 75.89-32.01 23.851-70.96 38.73-110.93 40.71-9.91 1.09-19.87.87-29.77-.16-2.92 1.841-6.19 3.391-9.73 3.24-6.57.141-12.68-4.46-14.72-10.64-14.52-39.771-23.19-81.54-27.38-123.63-5.86-61.09-2.2-123.19 11.84-182.97 7.5-31.68 18.25-62.61 32.29-92 1.401-4.27 2.091-9.16 5.851-12.16m21.93 26.77c-6.4 12.46-11.93 25.39-16.31 38.7-21.19 59.27-29.08 122.82-27 185.57 1.69 46.119 9.05 92.17 23.32 136.1 6.03.31 12.05 1.23 18.1.97 11.08-.8 22.22-1.33 33.14-3.489 26.44-5.41 51.62-16.921 72.98-33.431 28.09-21.76 49.59-51.899 60.83-85.63-23.75 9.82-49.19 15.38-74.86 16.54-6.99.29-14.14 1.48-21.06.04-7.23-1.94-12.25-9.68-11.01-17.07.9-6.92 7.01-12.81 14.02-13.16 14.37-.199 28.74-1.43 42.94-3.649 19.43-3.71 38.28-10.351 55.85-19.43.13-10.53 1.1-21.041 2.56-31.46-3.21-1.48-5.91-3.78-8.21-6.44-25.02-24.98-56.9-42.89-91.13-51.67-5.2-1.03-10.08-4.3-12.12-9.31-3.31-7.18 0-16.5 7.13-19.92 4.63-2.59 10.14-1.72 14.95-.15 29.14 7.95 57.08 21.18 80.8 39.96-15.14-47.08-50.94-87.22-96.22-107.24-21.46-10.011-45.08-15.091-68.7-15.831m702.04 12.21c-29.54 11.3-55.63 30.96-75.37 55.6-11.1 13.87-19.85 29.5-26.6 45.91 24.75-18.07 53.18-31.01 82.979-38.12 4.561-1.24 9.69-.42 13.48 2.49 4.96 3.58 7.38 10.3 5.779 16.22-1.38 5.8-6.399 10.38-12.229 11.45-36.37 8.56-70.22 27.5-96.43 54.15-1.65 1.75-3.57 3.23-5.591 4.54-.59 7.16 1.32 14.2 1.73 21.33 13.75 6.82 28.36 11.84 43.28 15.39 14.77 3.61 30.02 4.42 45.149 5.29 4.311.26 8.61-.68 12.92-.27 6.721.75 12.41 6.47 13.261 13.16 1.27 7.71-4.301 15.75-11.971 17.25-11.72 1.76-23.56.21-35.29-.54-22.529-1.57-44.59-7.341-65.55-15.591 4.36 18.131 10.73 35.95 20.59 51.851 8.88 15.21 19.55 29.59 32.86 41.24 24.7 23.439 56.51 39.229 90.01 45.189 13.9 1.78 27.99 3.49 42.01 2.13 7.5-21.33 12.96-43.34 17.11-65.56 12.04-66.26 11.58-134.85-1.64-200.9-6.62-32.35-16.33-64.17-30.311-94.13-20.496.781-41.077 4.191-60.176 11.921m-419.56 40.05c41.04 4.09 81.66 13.43 119.98 28.76 59.52 23.33 114.15 60.85 153.88 111.3-.14-10.64 1.26-21.58-1.92-31.93-11.14-46.49-41.25-88.48-82.66-112.65-19.04-11.69-40.45-19.43-62.49-22.99-43.71-7.23-90.07 2.63-126.79 27.51m-64.65 76.15c19.87 1.07 39.69 3.27 59.26 6.9 67.88 12.21 133.4 40.36 186.87 84.28 26.97 22.25 50.55 48.71 69.06 78.4 10.181-17.01 17.881-35.58 22.04-54.98-4.42-3.31-6.55-8.55-9.63-12.949-30-45.371-73.2-81.081-121.51-105.57-14.28-7.07-29.01-13.22-43.87-18.96-42-15.11-86.47-23.15-131.07-24.35-13.07 13.769-22.92 30.209-31.15 47.229m-10.41 30.59c-3.47 13.48-5.07 27.4-5.53 41.29-.26 4.08 1.51 8.01.95 12.09-.72 5.13.12 10.29.68 15.4 1.79 9.91 3.73 19.82 6.55 29.5 6.62 20.84 16.72 40.64 30.35 57.78 10 13.55 22.76 24.76 36.08 34.949 14.41 9.96 29.87 18.601 46.54 24.15 19.88 7.09 41.12 9.58 62.14 9.479 12.33-1.079 24.83-1.51 36.87-4.659 34.851-8.29 66.94-27.49 90.91-54.091-11.68-20.939-26.28-40.189-42.86-57.479-23.79-24.94-52.08-45.29-82.319-61.66-35.55-19-74.14-32.12-113.72-39.59-22.061-3.579-44.271-6.669-66.641-7.159" clip-path="url(#b)"/>
</symbol>


<symbol viewBox="0 0 48 48" id="candy2">
  <path d="M47.161 9l-8.2-8.2c-.5-.5-1.3-.8-2-.8-1.2 0-2.4.8-2.7 2l-2.5 7.6c-.7-.1-1.4-.2-2.1-.2-4.5 0-9.6 2.4-13.7 6.5-5 4.9-7.3 11.1-6.4 15.8l-7.6 2.5c-1 .3-1.7 1.1-1.9 2.1-.2 1 .1 2 .8 2.7l8.1 8.2c.5.5 1.3.8 2 .8 1.2 0 2.4-.8 2.7-2l2.5-7.6c.7.1 1.4.199 2.1.199 4.5 0 9.6-2.399 13.7-6.5 3.2-3.199 5.399-7 6.2-10.8.399-1.8.399-3.5.1-5l7.6-2.5c1-.3 1.7-1.1 1.9-2.1.4-.999.099-1.999-.6-2.699m-17.6 2.4c2.101 0 3.9.7 5.2 1.9.8.8 1.3 1.8 1.6 3-5.699-2-11.3-2.3-16.7-1 3.1-2.5 6.699-3.9 9.9-3.9m-17.7 34c-.1.399-.5.6-.8.6-.2 0-.4 0-.6-.3l-8.2-8.2c-.4-.3-.3-.6-.3-.8 0-.101.2-.5.6-.601l7.5-2.5s0 .101.1.101c.4.899.9 1.8 1.7 2.5.7.7 1.5 1.2 2.3 1.6.1 0 .1.101.2.101l-2.5 7.499zm6.5-8.8c-2.1 0-3.9-.699-5.2-1.899-.7-.7-1.2-1.5-1.5-2.4 5.4-1.5 10.8-1.399 16.6.4-3.1 2.499-6.7 3.899-9.9 3.899m12.3-5.9c-.2.2-.4.3-.601.5-6.399-2.2-12.8-2.5-18.8-.8-.1-1.5.1-3.2.7-5 7.2-3 14.6-3 22.6 0-.899 1.9-2.299 3.7-3.899 5.3m5.699-9.8c-.199.9-.5 1.8-.8 2.7-7.7-3-15.2-3.2-22.3-.7.8-1.5 1.8-2.9 3-4.3 6.6-2.8 13.3-2.8 20.5-.1-.199.7-.199 1.6-.4 2.4m9.601-9.6c0 .1-.2.5-.601.6l-7.5 2.5c0-.1-.1-.1-.1-.2-.1-.3-1.8-3.3-4-4-.1 0-.1-.1-.2-.1l2.5-7.5c.101-.4.5-.6.8-.6.2 0 .4 0 .601.3l8.2 8.2c.4.2.3.6.3.8" clip-path="url(#b)"/>
</symbol>

<symbol viewBox="0 0 12 18.4" id="edit">
  <path d="M0 17.7h10.2v.7H0z"/>
  <path d="M1.1 16.4H.9c-.1-.1-.2-.2-.2-.3l.3-4v-.2L8.2.3l.3-.3c.2 0 .4 0 .5.1l2.7 1.7c.1 0 .2.2.3.3 0 .2 0 .3-.1.5L4.8 14.2l-.1.1-3.4 2c-.1 0-.1.1-.2.1m.6-4.2l-.2 3.2 2.8-1.6 7-11.5L8.7.7l-7 11.5z" clip-path="url(#b)"/>
  <path d="M10.5 4.6h-.2l-3.1-2c-.2-.1-.3-.3-.2-.5.1-.1.3-.2.5-.1l3.2 2c.2.1.2.3.1.5-.1 0-.2.1-.3.1M4.5 14.4h-.2l-3.2-1.9c-.1-.2-.1-.4 0-.6s.3-.2.5-.1l3.2 1.9c.2.1.2.3.1.5-.2.1-.3.2-.4.2" clip-path="url(#b)"/>
</symbol>


<symbol viewBox="0 0 23 21.4" id="clock">
        <path d="M22.8,8.3c-0.2-1.1-0.4-2.1-0.9-3.2c-0.4-0.8-0.9-1.6-1.7-2.2c-0.4-0.3-0.8-0.4-1.1-0.7C18.1,1.4,17,1,15.9,0.7
		c-1.3-0.4-2.7-0.7-4.1-0.6c-0.2,0-0.5-0.2-0.7-0.1c-0.7,0.3-1.5,0.2-2.2,0.5C7.7,0.9,6.5,1.3,5.5,2.1C5.3,2.2,5.1,2.4,4.8,2.5
		C3.8,3.2,2.9,3.9,2.3,5C1.4,6.3,0.6,7.8,0.2,9.4c-0.2,1-0.3,2-0.1,3c0.1,0.8,0.3,1.6,0.6,2.4c0.4,1.2,0.9,2.3,1.9,3.1
		c1.4,1.2,3.1,2,4.8,2.8c1.2,0.6,2.5,0.7,3.9,0.7c0.4,0,0.8,0,1.2,0c1-0.1,1.9-0.4,2.8-0.7c1.1-0.5,2.2-1,3.2-1.9
		c0.4-0.3,0.7-0.7,1.1-1c0.2-0.2,0.5-0.3,0.7-0.5c0.7-0.9,1.4-2,1.9-3c0.4-0.9,0.6-1.8,0.7-2.8C23.1,10.4,23,9.3,22.8,8.3z M21.9,11
		c-0.2,1.1-0.4,2.2-0.9,3.2c-0.6,1.1-1.3,2.1-2.2,3c-1.3,1.1-2.8,2.1-4.4,2.6c-0.9,0.3-1.7,0.6-2.8,0.6c-1,0.2-2.1,0-3.2-0.3
		c-0.7-0.2-1.3-0.5-1.9-0.8c-0.5-0.3-1-0.5-1.5-0.8c-1.3-0.7-2.3-1.5-2.9-2.8c-0.5-1.2-0.9-2.4-1-3.7C0.9,10.4,1.2,9,1.9,7.7
		c0.3-0.5,0.5-1,0.8-1.5C2.8,6,2.9,5.9,3,5.8h0c0.3-0.5,0.7-1,1-1.5C4.4,3.7,4.8,3.3,5.4,3c1.1-0.7,2.5-0.8,3.5-1.5
		c0.3-0.2,0.6-0.2,0.8-0.1h0c0.1,0,0.1,0,0.2,0c0.1,0,0.2,0,0.3,0.1c0,0,0.1,0,0.2-0.1c1.6-0.2,3.1-0.1,4.6,0.2
		C16,1.7,17,2,17.8,2.4c0.8,0.4,1.5,0.8,2.2,1.4c0.2,0.2,0.4,0.5,0.5,0.7c0.7,1.1,1.1,2.3,1.2,3.6c0,0.6,0.3,1.2,0.3,1.9
		C22,10.4,22,10.7,21.9,11z"></path>
        <path d="M11.7,4.7c0,0.2,0,0.5,0,0.7c0.1,1.1,0.1,2.1,0.1,3.2c0,0.2,0,0.5,0,0.7c0,0.4,0.2,0.7,0.5,1.1c0.8,1,1.9,1.2,2.9,1.7
		c0.7,0.4,1.4,0.7,2,1.2c0.6,0.4,1.2,0.8,1.7,1.2c0.2,0.1,0.3,0.3,0.4,0.5c0.1,0.1,0.1,0.3,0,0.4c-0.1,0.1-0.3,0.3-0.5,0.1
		c-0.2-0.1-0.4-0.2-0.6-0.4c-1-0.8-2.2-1.5-3.4-2.1c-0.7-0.4-1.5-0.7-2.3-1.1c-0.2-0.1-0.3,0-0.4,0.1c-0.4,0.3-0.7,0.2-1.1,0
		c-0.2-0.2-0.5-0.3-0.6-0.7c-0.1-0.4-0.1-0.8,0.2-1.1c0.2-0.2,0.2-0.4,0.2-0.6c0-0.9,0-1.9,0-2.8c0-0.8-0.1-1.7-0.1-2.5
		c0-0.2-0.1-0.6,0.2-0.7c0.3-0.1,0.4,0.2,0.6,0.3C11.8,4,11.7,4.3,11.7,4.7z"></path>
</symbol>

</svg>
