<?xml version="1.0" encoding="utf-8"?>
<svg xmlns="http://www.w3.org/2000/svg" xmlns:xlink="http://www.w3.org/1999/xlink">

<symbol viewBox="0 0 2835 2593" id="danger">
  <path d="M2771.938 1939.927L1785.25 217.404C1718.359 83.615 1567.849.003 1417.328.003c-150.513 0-284.3 83.621-367.922 217.401L62.717 1939.927c-83.622 133.789-83.622 301.023 0 434.813 66.889 133.788 217.4 217.4 367.921 217.4h1973.379c167.233 0 301.022-83.621 367.922-217.4 83.621-133.79 83.621-301.024-.001-434.813z" clip-path="url(#b)"/>
  <path fill="#FFF" d="M1253.588 2034.041c0-95.412 69.382-164.321 166.516-164.321 97.133 0 160.963 68.909 160.963 164.321 0 92.763-63.83 164.324-166.514 164.324-94.359 0-160.965-71.561-160.965-164.324zm69.383-376.351l-38.854-1274.823h266.425l-38.855 1274.823h-188.716z"/>
</symbol>


<symbol viewBox="0 0 568 568" id="smile">
  <path d="M409.858 209.297c0 18.056-14.627 32.692-32.684 32.692-18.047 0-32.683-14.636-32.683-32.692s14.636-32.683 32.683-32.683c18.057 0 32.684 14.627 32.684 32.683M221.939 209.297c0 18.056-14.636 32.692-32.683 32.692s-32.683-14.636-32.683-32.692 14.636-32.683 32.683-32.683 32.683 14.627 32.683 32.683M308.63 451.466h-45.388c-57.483 0-104.253-46.205-104.253-103.014 0-7.443 6.034-13.468 13.468-13.468s13.468 6.024 13.468 13.468c0 42.659 33.958 76.078 77.317 76.078h45.388c43.359 0 77.317-32.863 77.317-74.821 0-7.443 6.034-13.468 13.468-13.468 7.443 0 13.468 6.024 13.468 13.468.001 57.06-45.792 101.757-104.253 101.757"/>
  <path d="M283.642 567.419C127.239 567.419 0 440.144 0 283.705 0 127.275 127.239 0 283.642 0c156.395 0 283.634 127.275 283.634 283.705-.001 156.438-127.24 283.714-283.634 283.714m0-540.473c-141.552 0-256.705 115.181-256.705 256.759 0 141.588 115.154 256.768 256.705 256.768 141.543 0 256.696-115.181 256.696-256.768 0-141.579-115.153-256.759-256.696-256.759"/>
</symbol>


</svg>
