<svg fill="#847C7C" xmlns="http://www.w3.org/2000/svg" viewBox="0 0 24 27">
	<circle cx="6.7" cy="16.7" r="1"/>
	<circle cx="17.3" cy="16.7" r="1"/>
	<path d="M6.7,13.6c-0.5,0-1,0.2-1.4,0.6c-0.2,0.2-0.2,0.5,0,0.7c0.2,0.2,0.5,0.2,0.7,0c0.2-0.2,0.4-0.3,0.7-0.3
		s0.5,0.1,0.7,0.3c0.1,0.1,0.2,0.1,0.4,0.1c0.1,0,0.3,0,0.4-0.1c0.2-0.2,0.2-0.5,0-0.7C7.7,13.8,7.3,13.6,6.7,13.6z"/>
	<path d="M15.9,14.2c-0.2,0.2-0.2,0.5,0,0.7c0.2,0.2,0.5,0.2,0.7,0c0.4-0.4,1-0.4,1.3,0c0.1,0.1,0.2,0.1,0.4,0.1
		s0.3,0,0.4-0.1c0.2-0.2,0.2-0.5,0-0.7C17.9,13.4,16.6,13.4,15.9,14.2z"/>
	<path d="M13,20.7c-0.3,0.3-0.6,0.4-1,0.4c-0.4,0-0.7-0.1-1-0.4c-0.2-0.2-0.5-0.2-0.7,0c-0.2,0.2-0.2,0.5,0,0.7
		c0.5,0.5,1.1,0.7,1.7,0.7c0.6,0,1.2-0.3,1.7-0.7c0.2-0.2,0.2-0.5,0-0.7C13.5,20.5,13.2,20.5,13,20.7z"/>
	<path d="M24,16.2c0-1.4-1-2.5-2.3-2.8V4.9c0-1.1-0.5-2.1-1.5-2.7c-0.9-0.6-1.9-0.7-2.9-0.4l-3.2-1.1
		c-2.5-0.8-5-0.9-7.5-0.2c-3.2,0.9-5,2.7-5.3,5.4C1.1,6.2,0.9,6.5,0.8,6.9L0.5,7.7c-0.1,0.4,0,0.8,0.4,1C1.2,8.9,1.7,8.9,2,8.6
		c0.1-0.1,0.2-0.2,0.3-0.3v5.1C1,13.6,0,14.8,0,16.2c0,1.4,1.1,2.6,2.5,2.8c0.3,1.9,1.3,3.7,2.7,5.1C7,26,9.4,27,12,27c0,0,0,0,0,0
		c2.6,0,5-1,6.8-2.8c1.4-1.4,2.4-3.2,2.7-5.2C22.9,18.8,24,17.6,24,16.2z M19.7,3c0.6,0.4,1,1.1,1,1.9v6.7c-1.6-0.2-2.8-1.6-2.8-3.3
		l0-5.6C18.5,2.5,19.1,2.6,19.7,3z M1.6,7.5l0.1-0.3C2,6.5,2.6,5.9,3.3,5.5c0.7-0.3,1.6-0.3,2.3,0C7.2,6.3,9,5.9,10.2,4.6l0.1-0.1
		c0.2-0.2,0.2-0.5,0-0.7c-0.2-0.2-0.5-0.2-0.7,0L9.4,4C8.6,4.9,7.2,5.2,6.1,4.7c-1-0.5-2.1-0.5-3.2,0c-0.1,0-0.2,0.1-0.3,0.1
		c0.6-1.6,2-2.7,4.3-3.3c2.2-0.6,4.6-0.5,6.9,0.2l3,1l0,2.6c-1.3,1.8-3.3,3.1-5.6,3.5C9,9.3,6.7,8.8,4.7,7.5
		C3.8,6.9,2.6,6.9,1.6,7.5z M1,16.2c0-0.8,0.5-1.5,1.3-1.7v2.8c0,0.2,0,0.5,0,0.7C1.6,17.7,1,17,1,16.2z M18.1,23.4
		C16.5,25.1,14.3,26,12,26c0,0,0,0,0,0c-2.3,0-4.5-0.9-6.1-2.6c-1.6-1.7-2.5-3.9-2.5-6.2V8.1c0.3,0,0.6,0.1,0.8,0.3
		c2.2,1.4,4.8,1.9,7.3,1.5c2.1-0.4,3.9-1.4,5.4-2.9v1.4c0,2.2,1.7,4,3.8,4.3v4.7C20.7,19.6,19.8,21.8,18.1,23.4z M21.7,17.9
		c0-0.2,0-0.4,0-0.6v-2.9c0.7,0.2,1.3,0.9,1.3,1.7C23,17,22.4,17.7,21.7,17.9z"/>
</svg>
