<svg version="1" xmlns="http://www.w3.org/2000/svg" xmlns:xlink="http://www.w3.org/1999/xlink" width="55.017" height="53.011"><defs><path id="a" d="M0 0h55.017v53.011H0z"/></defs><clipPath id="b"><use xlink:href="#a" overflow="visible"/></clipPath><path clip-path="url(#b)" d="M51.688 22.011H40.789a1 1 0 1 0 0 2h9.102l2.899 27H2.268l3.403-27h9.118a1 1 0 1 0 0-2H3.907L0 53.011h55.017l-3.329-31z"/><path clip-path="url(#b)" d="M26.654 37.966c-.147.087-.304.164-.445.255-.22.142-.435.291-.646.445a1 1 0 1 0 1.184 1.612 10.836 10.836 0 0 1 1.562-.96.993.993 0 0 0 .463-1.269c.008-.008.018-.014.024-.022 1.81-1.916 7.905-9.096 10.429-21.058.513-2.426.627-4.754.343-6.919C38.707 3.476 34.622 0 27.754 0c-6.866 0-10.951 3.476-11.813 10.051-.284 2.166-.169 4.494.343 6.919 2.499 11.846 8.499 18.998 10.37 20.996m-8.73-27.654c.733-5.592 3.949-8.311 9.831-8.311 5.883 0 9.098 2.719 9.83 8.311.255 1.94.148 4.043-.316 6.247C35 27.312 29.59 34.135 27.755 36.206c-1.837-2.072-7.246-8.898-9.514-19.646-.465-2.205-.571-4.307-.317-6.248"/><path clip-path="url(#b)" d="M27.755 18.923c4.051 0 7.346-3.295 7.346-7.346s-3.295-7.346-7.346-7.346-7.346 3.295-7.346 7.346 3.295 7.346 7.346 7.346m0-12.691a5.352 5.352 0 0 1 5.346 5.346 5.351 5.351 0 0 1-5.346 5.346 5.352 5.352 0 0 1-5.346-5.346 5.352 5.352 0 0 1 5.346-5.346M31.428 36.168a1 1 0 1 0 .418 1.957 23.271 23.271 0 0 1 1.887-.313.996.996 0 0 0 .868-1.115.99.99 0 0 0-1.114-.868c-.724.088-1.417.202-2.059.339M36.599 36.575a1 1 0 0 0 .998.956l.044-.001 2.001-.083a.998.998 0 0 0 .953-1.044c-.024-.553-.539-.983-1.044-.953l-1.996.083a.997.997 0 0 0-.956 1.042M22.433 41.175c-.514.388-1.045.761-1.58 1.107a1 1 0 0 0 1.09 1.678 29.36 29.36 0 0 0 1.695-1.188 1 1 0 0 0-1.205-1.597M44.72 34.582c-.338.236-.776.408-1.346.525a1 1 0 0 0 .405 1.96c.842-.174 1.525-.452 2.096-.853l.134-.099a1 1 0 0 0-1.207-1.594l-.082.061zM8.86 42.4a1 1 0 0 0-.704-1.226.996.996 0 0 0-1.226.704 6.688 6.688 0 0 0-.233 1.758c.001.196.01.392.029.587a1 1 0 1 0 1.991-.205 3.996 3.996 0 0 1-.013-.638 4.66 4.66 0 0 1 .156-.98M44.698 26.808a5.887 5.887 0 0 0-2.387.181 1 1 0 1 0 .544 1.924 3.9 3.9 0 0 1 1.574-.122.996.996 0 0 0 1.125-.857.999.999 0 0 0-.856-1.126M46.688 31.762a1 1 0 0 0 1.909.59c.1-.317.16-.641.184-.963a3.991 3.991 0 0 0-.247-1.642 1 1 0 0 0-1.875.694c.086.232.13.468.13.696l-.003.117a2.252 2.252 0 0 1-.098.508M17.481 44.163c-.586.274-1.183.529-1.774.759a.999.999 0 0 0 .361 1.933c.12 0 .242-.021.36-.066a30.45 30.45 0 0 0 1.903-.813 1 1 0 0 0 .48-1.33.995.995 0 0 0-1.33-.483M10.201 40a1 1 0 0 0 .478-.122c.288-.157.595-.255.911-.289.135-.017.273-.017.406.002a.99.99 0 0 0 1.122-.86 1 1 0 0 0-.86-1.122 3.693 3.693 0 0 0-.891-.008 4.445 4.445 0 0 0-1.646.521 1 1 0 1 0 .48 1.878M9.993 47.84c.216.056.436.098.654.124.256.031.512.047.769.047.313 0 .627-.022.94-.062a.999.999 0 1 0-.25-1.984 4.949 4.949 0 0 1-1.216.015 3.335 3.335 0 0 1-.394-.075 1 1 0 0 0-.503 1.935"/></svg>