<?xml version="1.0" encoding="utf-8"?>
<svg xmlns="http://www.w3.org/2000/svg" xmlns:xlink="http://www.w3.org/1999/xlink">

<symbol viewBox="0 0 567 567" id="smile1">
  <path d="M409.858 209.297c0 18.056-14.627 32.692-32.684 32.692-18.047 0-32.683-14.636-32.683-32.692s14.636-32.683 32.683-32.683c18.057 0 32.684 14.627 32.684 32.683M221.939 209.297c0 18.056-14.636 32.692-32.683 32.692s-32.683-14.636-32.683-32.692 14.636-32.683 32.683-32.683 32.683 14.627 32.683 32.683M308.63 327.983h-45.388c-57.483 0-104.253 46.205-104.253 103.014 0 7.443 6.034 13.469 13.468 13.469s13.468-6.025 13.468-13.469c0-42.658 33.958-76.077 77.317-76.077h45.388c43.359 0 77.317 32.862 77.317 74.82 0 7.443 6.034 13.469 13.468 13.469 7.443 0 13.468-6.025 13.468-13.469.001-57.059-45.792-101.757-104.253-101.757" clip-path="url(#b)"/>
  <path d="M283.642 567.419C127.239 567.419 0 440.144 0 283.705 0 127.275 127.239 0 283.642 0c156.395 0 283.634 127.275 283.634 283.705-.001 156.438-127.24 283.714-283.634 283.714m0-540.473c-141.552 0-256.705 115.181-256.705 256.759 0 141.588 115.154 256.768 256.705 256.768 141.543 0 256.696-115.181 256.696-256.768 0-141.579-115.153-256.759-256.696-256.759" clip-path="url(#b)"/>
</symbol>

<symbol viewBox="0 0 567 567" id="smile2">
  <path d="M409.858 209.297c0 18.056-14.627 32.692-32.684 32.692-18.047 0-32.683-14.636-32.683-32.692s14.636-32.683 32.683-32.683c18.057 0 32.684 14.627 32.684 32.683M221.939 209.297c0 18.056-14.636 32.692-32.683 32.692s-32.683-14.636-32.683-32.692 14.636-32.683 32.683-32.683 32.683 14.627 32.683 32.683" clip-path="url(#b)"/>
  <path d="M283.642 567.419C127.239 567.419 0 440.144 0 283.705 0 127.275 127.239 0 283.642 0c156.395 0 283.634 127.275 283.634 283.705-.001 156.438-127.24 283.714-283.634 283.714m0-540.473c-141.552 0-256.705 115.181-256.705 256.759 0 141.588 115.154 256.768 256.705 256.768 141.543 0 256.696-115.181 256.696-256.768 0-141.579-115.153-256.759-256.696-256.759" clip-path="url(#b)"/>
  <path d="M402.109 366.363H165.746c-6.523 0-11.818 5.295-11.818 11.817 0 6.524 5.295 11.818 11.818 11.818H402.11c6.524 0 11.818-5.294 11.818-11.818 0-6.522-5.294-11.817-11.819-11.817" clip-path="url(#b)"/>
  <path fill="none" stroke="#000" stroke-miterlimit="10" stroke-width="4.252" d="M402.109 366.363H165.746c-6.523 0-11.818 5.295-11.818 11.817 0 6.524 5.295 11.818 11.818 11.818H402.11c6.524 0 11.818-5.294 11.818-11.818 0-6.522-5.294-11.817-11.819-11.817z" clip-path="url(#b)"/>
</symbol>

<symbol viewBox="0 0 567 567" id="smile3">
  <path d="M409.858 209.297c0 18.056-14.627 32.692-32.684 32.692-18.047 0-32.683-14.636-32.683-32.692s14.636-32.683 32.683-32.683c18.057 0 32.684 14.627 32.684 32.683M221.939 209.297c0 18.056-14.636 32.692-32.683 32.692s-32.683-14.636-32.683-32.692 14.636-32.683 32.683-32.683 32.683 14.627 32.683 32.683M308.63 451.466h-45.388c-57.483 0-104.253-46.205-104.253-103.014 0-7.443 6.034-13.468 13.468-13.468s13.468 6.024 13.468 13.468c0 42.659 33.958 76.078 77.317 76.078h45.388c43.359 0 77.317-32.863 77.317-74.821 0-7.443 6.034-13.468 13.468-13.468 7.443 0 13.468 6.024 13.468 13.468.001 57.06-45.792 101.757-104.253 101.757" clip-path="url(#b)"/>
  <path d="M283.642 567.419C127.239 567.419 0 440.144 0 283.705 0 127.275 127.239 0 283.642 0c156.395 0 283.634 127.275 283.634 283.705-.001 156.438-127.24 283.714-283.634 283.714m0-540.473c-141.552 0-256.705 115.181-256.705 256.759 0 141.588 115.154 256.768 256.705 256.768 141.543 0 256.696-115.181 256.696-256.768 0-141.579-115.153-256.759-256.696-256.759" clip-path="url(#b)"/>
</symbol>

<symbol viewBox="0 0 567 567" id="smile4">
  <path d="M283.642 567.419C127.239 567.419 0 440.144 0 283.705 0 127.275 127.239 0 283.642 0c156.395 0 283.634 127.275 283.634 283.705-.001 156.438-127.24 283.714-283.634 283.714m0-540.473c-141.552 0-256.705 115.181-256.705 256.759 0 141.588 115.154 256.768 256.705 256.768 141.543 0 256.696-115.181 256.696-256.768 0-141.579-115.153-256.759-256.696-256.759" clip-path="url(#b)"/>
  <path d="M394.645 366.517a9.15 9.15 0 0 0-12.937-.272c-1.62 1.553-6.373 6.009-8.879 7.952-48.911 37.923-146.79 33.888-187.018-7.708a9.147 9.147 0 0 0-12.937-.216c-3.632 3.512-3.729 9.304-.216 12.937 22.546 23.313 60.11 37.613 103.062 39.237 2.742.104 5.47.155 8.186.155 39.227 0 75.368-10.742 100.136-29.945 3.715-2.88 9.664-8.566 10.33-9.204a9.149 9.149 0 0 0 .273-12.936" clip-path="url(#b)"/>
  <path fill="none" stroke="#000" stroke-miterlimit="10" stroke-width="7.087" d="M394.645 366.517a9.15 9.15 0 0 0-12.937-.272c-1.62 1.553-6.373 6.009-8.879 7.952-48.911 37.923-146.79 33.888-187.018-7.708a9.147 9.147 0 0 0-12.937-.216c-3.632 3.512-3.729 9.304-.216 12.937 22.546 23.313 60.11 37.613 103.062 39.237 2.742.104 5.47.155 8.186.155 39.227 0 75.368-10.742 100.136-29.945 3.715-2.88 9.664-8.566 10.33-9.204a9.149 9.149 0 0 0 .273-12.936z" clip-path="url(#b)"/>
  <path d="M482.639 201.504a38.39 38.39 0 0 0-25.003-18.919c-35.859-8.276-88.817-15.479-137.459-2.796-12.203 3.182-24.496 4.796-36.539 4.796s-24.336-1.614-36.539-4.796c-48.643-12.685-101.599-5.479-137.459 2.797a38.387 38.387 0 0 0-25.004 18.919 38.324 38.324 0 0 0-2.523 31.196l18.514 52.289c5.477 15.465 20.194 25.44 36.568 24.891l84.352-2.971c18.081-.638 33.211-13.467 36.792-31.201l4.261-21.098c2.014-9.973 10.861-17.212 21.038-17.212h.004c10.171 0 19.017 7.236 21.031 17.207l4.262 21.103c3.581 17.732 18.71 30.563 36.792 31.201l84.352 2.971c.451.015.898.022 1.348.022 15.848-.001 29.894-9.874 35.222-24.913l18.516-52.289a38.335 38.335 0 0 0-2.526-31.197m-12.93 25.724l-18.516 52.288c-3.075 8.687-11.318 14.31-20.54 13.98l-84.351-2.971A22.466 22.466 0 0 1 325 272.461l-4.262-21.103c-3.554-17.589-19.154-30.354-37.097-30.354h-.007c-17.946 0-33.552 12.768-37.104 30.36l-4.261 21.098a22.468 22.468 0 0 1-21.302 18.063l-84.352 2.971c-9.21.317-17.463-5.293-20.539-13.98l-18.514-52.288c-2.111-5.961-1.599-12.297 1.442-17.839a21.986 21.986 0 0 1 14.32-10.832c29.483-6.805 54.65-9.263 75.637-9.263 22.951 0 40.902 2.943 53.997 6.356 13.554 3.534 27.24 5.327 40.677 5.327 13.438 0 27.122-1.793 40.676-5.327 45.422-11.845 95.566-4.955 129.636 2.907a21.986 21.986 0 0 1 14.319 10.832c3.041 5.542 3.552 11.877 1.443 17.839" clip-path="url(#b)"/>
  <path fill="none" stroke="#000" stroke-miterlimit="10" stroke-width="7.087" d="M482.639 201.504a38.39 38.39 0 0 0-25.003-18.919c-35.859-8.276-88.817-15.479-137.459-2.796-12.203 3.182-24.496 4.796-36.539 4.796s-24.336-1.614-36.539-4.796c-48.643-12.685-101.599-5.479-137.459 2.797a38.387 38.387 0 0 0-25.004 18.919 38.324 38.324 0 0 0-2.523 31.196l18.514 52.289c5.477 15.465 20.194 25.44 36.568 24.891l84.352-2.971c18.081-.638 33.211-13.467 36.792-31.201l4.261-21.098c2.014-9.973 10.861-17.212 21.038-17.212h.004c10.171 0 19.017 7.236 21.031 17.207l4.262 21.103c3.581 17.732 18.71 30.563 36.792 31.201l84.352 2.971c.451.015.898.022 1.348.022 15.848-.001 29.894-9.874 35.222-24.913l18.516-52.289a38.335 38.335 0 0 0-2.526-31.197zm-12.93 25.724l-18.516 52.288c-3.075 8.687-11.318 14.31-20.54 13.98l-84.351-2.971A22.466 22.466 0 0 1 325 272.461l-4.262-21.103c-3.554-17.589-19.154-30.354-37.097-30.354h-.007c-17.946 0-33.552 12.768-37.104 30.36l-4.261 21.098a22.468 22.468 0 0 1-21.302 18.063l-84.352 2.971c-9.21.317-17.463-5.293-20.539-13.98l-18.514-52.288c-2.111-5.961-1.599-12.297 1.442-17.839a21.986 21.986 0 0 1 14.32-10.832c29.483-6.805 54.65-9.263 75.637-9.263 22.951 0 40.902 2.943 53.997 6.356 13.554 3.534 27.24 5.327 40.677 5.327 13.438 0 27.122-1.793 40.676-5.327 45.422-11.845 95.566-4.955 129.636 2.907a21.986 21.986 0 0 1 14.319 10.832c3.041 5.542 3.552 11.877 1.443 17.839z" clip-path="url(#b)"/>
</symbol>

<symbol viewBox="0 0 567 567" id="smile5">
  <path d="M283.642 567.419C127.239 567.419 0 440.144 0 283.705 0 127.275 127.239 0 283.642 0c156.395 0 283.634 127.275 283.634 283.705-.001 156.438-127.24 283.714-283.634 283.714m0-540.473c-141.552 0-256.705 115.181-256.705 256.759 0 141.588 115.154 256.768 256.705 256.768 141.543 0 256.696-115.181 256.696-256.768 0-141.579-115.153-256.759-256.696-256.759" clip-path="url(#b)"/>
  <path d="M227.55 200.396c-24.953-24.955-65.556-24.953-90.509 0-5.951 5.95-5.951 15.599 0 21.55 5.952 5.95 15.601 5.95 21.551 0 13.072-13.071 34.34-13.07 47.41 0a15.189 15.189 0 0 0 10.774 4.464c3.899 0 7.8-1.488 10.774-4.464 5.95-5.951 5.95-15.599 0-21.55M428.812 200.396c-24.953-24.953-65.556-24.955-90.509 0-5.951 5.95-5.951 15.599 0 21.55 5.952 5.95 15.601 5.95 21.551 0 13.07-13.071 34.338-13.072 47.41 0a15.188 15.188 0 0 0 10.773 4.464c3.899 0 7.801-1.488 10.774-4.464 5.952-5.951 5.952-15.599.001-21.55M418.039 292.176H147.816c-8.416 0-15.238 6.822-15.238 15.237 0 82.902 67.447 150.35 150.349 150.35s150.349-67.447 150.349-150.35c0-8.416-6.821-15.237-15.237-15.237m-135.111 135.11c-60.938 0-111.402-45.703-118.909-104.635h237.819c-7.508 58.932-57.973 104.635-118.91 104.635" clip-path="url(#b)"/>
</symbol>

</svg>
