<?xml version="1.0" encoding="utf-8"?>
<svg xmlns="http://www.w3.org/2000/svg" xmlns:xlink="http://www.w3.org/1999/xlink">

	<symbol viewBox="0 0 55 53" id="place">
		<path clip-path="url(#b)" d="M51.688 22.011H40.789a1 1 0 1 0 0 2h9.102l2.899 27H2.268l3.403-27h9.118a1 1 0 1 0 0-2H3.907L0 53.011h55.017l-3.329-31z"/>
		<path clip-path="url(#b)" d="M26.654 37.966c-.147.087-.304.164-.445.255-.22.142-.435.291-.646.445a1 1 0 1 0 1.184 1.612 10.836 10.836 0 0 1 1.562-.96.993.993 0 0 0 .463-1.269c.008-.008.018-.014.024-.022 1.81-1.916 7.905-9.096 10.429-21.058.513-2.426.627-4.754.343-6.919C38.707 3.476 34.622 0 27.754 0c-6.866 0-10.951 3.476-11.813 10.051-.284 2.166-.169 4.494.343 6.919 2.499 11.846 8.499 18.998 10.37 20.996m-8.73-27.654c.733-5.592 3.949-8.311 9.831-8.311 5.883 0 9.098 2.719 9.83 8.311.255 1.94.148 4.043-.316 6.247C35 27.312 29.59 34.135 27.755 36.206c-1.837-2.072-7.246-8.898-9.514-19.646-.465-2.205-.571-4.307-.317-6.248"/>
		<path clip-path="url(#b)" d="M27.755 18.923c4.051 0 7.346-3.295 7.346-7.346s-3.295-7.346-7.346-7.346-7.346 3.295-7.346 7.346 3.295 7.346 7.346 7.346m0-12.691a5.352 5.352 0 0 1 5.346 5.346 5.351 5.351 0 0 1-5.346 5.346 5.352 5.352 0 0 1-5.346-5.346 5.352 5.352 0 0 1 5.346-5.346M31.428 36.168a1 1 0 1 0 .418 1.957 23.271 23.271 0 0 1 1.887-.313.996.996 0 0 0 .868-1.115.99.99 0 0 0-1.114-.868c-.724.088-1.417.202-2.059.339M36.599 36.575a1 1 0 0 0 .998.956l.044-.001 2.001-.083a.998.998 0 0 0 .953-1.044c-.024-.553-.539-.983-1.044-.953l-1.996.083a.997.997 0 0 0-.956 1.042M22.433 41.175c-.514.388-1.045.761-1.58 1.107a1 1 0 0 0 1.09 1.678 29.36 29.36 0 0 0 1.695-1.188 1 1 0 0 0-1.205-1.597M44.72 34.582c-.338.236-.776.408-1.346.525a1 1 0 0 0 .405 1.96c.842-.174 1.525-.452 2.096-.853l.134-.099a1 1 0 0 0-1.207-1.594l-.082.061zM8.86 42.4a1 1 0 0 0-.704-1.226.996.996 0 0 0-1.226.704 6.688 6.688 0 0 0-.233 1.758c.001.196.01.392.029.587a1 1 0 1 0 1.991-.205 3.996 3.996 0 0 1-.013-.638 4.66 4.66 0 0 1 .156-.98M44.698 26.808a5.887 5.887 0 0 0-2.387.181 1 1 0 1 0 .544 1.924 3.9 3.9 0 0 1 1.574-.122.996.996 0 0 0 1.125-.857.999.999 0 0 0-.856-1.126M46.688 31.762a1 1 0 0 0 1.909.59c.1-.317.16-.641.184-.963a3.991 3.991 0 0 0-.247-1.642 1 1 0 0 0-1.875.694c.086.232.13.468.13.696l-.003.117a2.252 2.252 0 0 1-.098.508M17.481 44.163c-.586.274-1.183.529-1.774.759a.999.999 0 0 0 .361 1.933c.12 0 .242-.021.36-.066a30.45 30.45 0 0 0 1.903-.813 1 1 0 0 0 .48-1.33.995.995 0 0 0-1.33-.483M10.201 40a1 1 0 0 0 .478-.122c.288-.157.595-.255.911-.289.135-.017.273-.017.406.002a.99.99 0 0 0 1.122-.86 1 1 0 0 0-.86-1.122 3.693 3.693 0 0 0-.891-.008 4.445 4.445 0 0 0-1.646.521 1 1 0 1 0 .48 1.878M9.993 47.84c.216.056.436.098.654.124.256.031.512.047.769.047.313 0 .627-.022.94-.062a.999.999 0 1 0-.25-1.984 4.949 4.949 0 0 1-1.216.015 3.335 3.335 0 0 1-.394-.075 1 1 0 0 0-.503 1.935"/>
	</symbol>

	<symbol viewBox="0 0 392 512" id="details">
		<path d="M366.933 0h-307.2c-14.138 0-25.6 11.461-25.6 25.6v34.133h-25.6C3.82 59.733 0 63.553 0 68.266s3.82 8.533 8.533 8.533h25.6v76.8h-25.6A8.533 8.533 0 0 0 0 162.132a8.533 8.533 0 0 0 8.533 8.533h25.6v76.8h-25.6c-4.713 0-8.533 3.82-8.533 8.533s3.82 8.533 8.533 8.533h25.6v76.8h-25.6c-4.713 0-8.533 3.82-8.533 8.533s3.82 8.533 8.533 8.533h25.6v76.8h-25.6a8.533 8.533 0 1 0 0 17.065h25.6V486.4c0 14.138 11.462 25.6 25.6 25.6h307.2c14.139 0 25.601-11.461 25.601-25.6V25.6C392.533 11.461 381.071 0 366.933 0m8.533 486.4a8.531 8.531 0 0 1-8.533 8.532h-307.2A8.532 8.532 0 0 1 51.2 486.4V25.6a8.533 8.533 0 0 1 8.533-8.533h307.2a8.532 8.532 0 0 1 8.533 8.533v460.8z" clip-path="url(#b)"/>
		<path d="M82.858 62.242a8.699 8.699 0 0 0-2.816-1.801 8.532 8.532 0 0 0-9.301 1.801 9.813 9.813 0 0 0-1.792 2.807 8.54 8.54 0 0 0-.683 3.217 8.983 8.983 0 0 0 2.475 6.059l1.28 1.016c.475.326.992.587 1.536.776a6.034 6.034 0 0 0 1.536.512c.564.095 1.135.152 1.707.171a8.67 8.67 0 0 0 3.243-.683 10.24 10.24 0 0 0 2.816-1.792 8.988 8.988 0 0 0 2.475-6.059 7.17 7.17 0 0 0-.683-3.251 9.827 9.827 0 0 0-1.793-2.773M82.858 156.1a8.833 8.833 0 0 0-2.816-1.801 8.532 8.532 0 0 0-9.301 1.801 9.813 9.813 0 0 0-1.792 2.807 8.542 8.542 0 0 0-.683 3.226 8.983 8.983 0 0 0 2.475 6.059l1.28 1.015c.475.326.992.587 1.536.777a6.034 6.034 0 0 0 1.536.512c.564.095 1.135.152 1.707.171a8.67 8.67 0 0 0 3.243-.683 10.24 10.24 0 0 0 2.816-1.792 8.988 8.988 0 0 0 2.475-6.059 7.17 7.17 0 0 0-.683-3.251 9.858 9.858 0 0 0-1.793-2.782M82.858 249.958a8.833 8.833 0 0 0-2.816-1.801 8.532 8.532 0 0 0-9.301 1.801 9.813 9.813 0 0 0-1.792 2.807 8.544 8.544 0 0 0-.683 3.234 8.979 8.979 0 0 0 2.475 6.059l1.28 1.017c.475.326.992.587 1.536.776a6.076 6.076 0 0 0 1.536.513c.564.099 1.134.155 1.707.171a8.672 8.672 0 0 0 3.243-.684 10.045 10.045 0 0 0 2.816-1.792A8.977 8.977 0 0 0 85.334 256a7.196 7.196 0 0 0-.683-3.251 9.859 9.859 0 0 0-1.793-2.791M82.858 343.817a8.812 8.812 0 0 0-2.816-1.792 8.534 8.534 0 0 0-9.301 1.792 9.852 9.852 0 0 0-1.792 2.815 8.544 8.544 0 0 0-.683 3.234 8.979 8.979 0 0 0 2.475 6.059l1.28 1.024c.476.323.992.581 1.536.768a5.45 5.45 0 0 0 1.536.513c.564.099 1.134.155 1.707.171a8.514 8.514 0 0 0 3.243-.684 9.857 9.857 0 0 0 2.816-1.792 8.977 8.977 0 0 0 2.475-6.059 7.152 7.152 0 0 0-.683-3.243 9.89 9.89 0 0 0-1.793-2.806M82.858 437.675a8.812 8.812 0 0 0-2.816-1.792 8.534 8.534 0 0 0-9.301 1.792 9.857 9.857 0 0 0-1.792 2.816 8.547 8.547 0 0 0-.683 3.243 8.979 8.979 0 0 0 2.475 6.059l1.28 1.024c.476.322.992.581 1.536.768a5.417 5.417 0 0 0 1.536.512c.564.1 1.134.156 1.707.171a8.494 8.494 0 0 0 3.243-.683 9.857 9.857 0 0 0 2.816-1.792 8.977 8.977 0 0 0 2.475-6.059 7.152 7.152 0 0 0-.683-3.243 9.882 9.882 0 0 0-1.793-2.816M204.799 204.8h17.067c23.552-.028 42.638-19.114 42.667-42.667V128c-.028-23.552-19.114-42.638-42.667-42.667h-17.067c-23.552.028-42.638 19.114-42.667 42.667v34.133c.029 23.553 19.115 42.639 42.667 42.667m-25.6-76.8c0-14.138 11.461-25.6 25.6-25.6h17.067c14.138 0 25.6 11.461 25.6 25.6v34.133c0 14.138-11.462 25.6-25.6 25.6h-17.067c-14.138 0-25.6-11.461-25.6-25.6V128zM249.471 221.867h-72.277c-22.994.591-41.177 19.671-40.661 42.667V307.2c0 4.713 3.82 8.533 8.533 8.533s8.533-3.82 8.533-8.533v-42.667c-.515-13.57 10.027-25.009 23.595-25.6h72.277c13.567.591 24.11 12.029 23.596 25.6v34.133h-31.625c-4.714 0-8.533 3.82-8.533 8.533s3.819 8.533 8.533 8.533h40.157a8.533 8.533 0 0 0 8.533-8.533v-42.667c.516-22.994-17.667-42.074-40.661-42.665M281.599 358.4H145.066a8.532 8.532 0 0 0-8.533 8.532 8.532 8.532 0 0 0 8.533 8.533h136.533a8.532 8.532 0 0 0 8.533-8.533 8.532 8.532 0 0 0-8.533-8.532M281.599 409.6H145.066c-4.713 0-8.533 3.82-8.533 8.533s3.82 8.533 8.533 8.533h136.533c4.713 0 8.533-3.82 8.533-8.533s-3.82-8.533-8.533-8.533" clip-path="url(#b)"/>
	</symbol>

	<symbol viewBox="0 0 373 450" id="welcome">
		<path d="M294.735 225.194a7.498 7.498 0 0 0-7.089-5.318 7.46 7.46 0 0 0-7.21 5.152l-66.679 202.377a7.5 7.5 0 0 0 4.19 9.25c21.299 9.044 44.162 13.565 67.026 13.565s45.729-4.521 67.026-13.565a7.502 7.502 0 0 0 4.244-9.084l-61.508-202.377zM230.212 425.4l57.06-173.183 52.619 173.126c-35.2 13.163-74.466 13.182-109.679.057M220.731 269.095c-10.045 8.161-16.255 19.751-17.485 32.636-1.231 12.885 2.671 25.441 10.987 35.358a7.481 7.481 0 0 0 5.75 2.68 7.5 7.5 0 0 0 5.742-12.319c-5.714-6.813-8.395-15.439-7.549-24.292.846-8.852 5.112-16.813 12.014-22.421 10.104-8.208 16.32-19.868 17.505-32.833 1.182-12.91-2.783-25.453-11.16-35.338 41.856-8.592 73.826-52.633 73.826-105.515C310.361 48.022 270.539 0 221.591 0c-32.72 0-62.887 21.961-78.236 56.42a74.522 74.522 0 0 0-6.146-.261c-48.95 0-88.774 48.021-88.774 107.048 0 57.596 37.92 104.707 85.235 106.956l6.97 8.174c5.804 6.805 8.552 15.458 7.737 24.363-.815 8.906-5.085 16.918-12.026 22.557-10.045 8.162-16.255 19.751-17.486 32.636s2.671 25.441 10.988 35.358l25.613 30.54a7.482 7.482 0 0 0 5.75 2.681 7.5 7.5 0 0 0 5.742-12.319l-25.613-30.54c-5.714-6.813-8.395-15.439-7.549-24.292.846-8.852 5.112-16.813 12.014-22.421 10.104-8.208 16.32-19.869 17.505-32.832 1.181-12.909-2.783-25.449-11.159-35.336 27.373-5.62 50.515-26.397 63.255-54.899.877.073 1.757.124 2.637.166l6.974 8.178c5.803 6.805 8.551 15.458 7.736 24.364-.816 8.905-5.085 16.916-12.027 22.554M221.591 15c40.677 0 73.771 41.293 73.771 92.05 0 50.751-33.094 92.04-73.771 92.04-.247 0-.493-.012-.74-.015 3.318-11.219 5.132-23.292 5.132-35.868 0-50.154-28.754-92.355-67.425-103.911C171.852 32.129 195.861 15 221.591 15m-84.383 240.255c-40.68 0-73.774-41.292-73.774-92.048s33.095-92.048 73.774-92.048 73.774 41.292 73.774 92.048c0 50.755-33.094 92.048-73.774 92.048" clip-path="url(#b)"/>
		<path d="M282.425 336.098c-1.722-4.067-6.711-5.837-10.588-3.667-4.306 2.41-5.042 8.346-1.644 11.848 2.443 2.368 6.196 2.875 9.142 1.135 3.166-1.873 4.494-5.921 3.09-9.316-.191-.45.19.46 0 0M294.575 377.838c1.165 2.769 3.902 4.628 6.92 4.63 3.063.001 5.872-1.927 6.988-4.772 1.133-2.883.317-6.272-2.003-8.331-2.405-2.134-5.998-2.481-8.771-.859-3.173 1.857-4.574 5.927-3.134 9.332.19.451-.19-.45 0 0M270.425 410.098c-1.245-2.94-4.272-4.851-7.476-4.605-3.136.239-5.827 2.454-6.673 5.48-1.823 6.526 5.734 12.031 11.389 8.235 2.942-1.975 4.114-5.833 2.76-9.11-.191-.45.19.46 0 0M12.804 33.667A7.5 7.5 0 0 0 2.197 44.273l9.5 9.5c1.465 1.465 3.385 2.197 5.304 2.197s3.839-.732 5.304-2.197a7.5 7.5 0 0 0 0-10.606l-9.501-9.5zM342.739 75.47a7.478 7.478 0 0 0 5.304-2.197l9.5-9.5a7.5 7.5 0 0 0-10.607-10.606l-9.5 9.5a7.5 7.5 0 0 0 0 10.606 7.472 7.472 0 0 0 5.303 2.197M244.885 154.866a7.496 7.496 0 0 0 10.275-2.633l6.845-11.561a7.502 7.502 0 0 0-12.908-7.643l-6.845 11.561a7.5 7.5 0 0 0 2.633 10.276M88.151 342.6l-9.5 9.5a7.5 7.5 0 0 0 5.304 12.802 7.477 7.477 0 0 0 5.304-2.196l9.5-9.5a7.5 7.5 0 0 0 0-10.606 7.502 7.502 0 0 0-10.608 0M11.722 229.002a7.499 7.499 0 0 0-7.5 7.5v13.435c0 4.143 3.357 7.5 7.5 7.5s7.5-3.357 7.5-7.5v-13.435a7.5 7.5 0 0 0-7.5-7.5M365.164 197.188h-13.437a7.5 7.5 0 0 0-7.5 7.5 7.5 7.5 0 0 0 7.5 7.5h13.437a7.5 7.5 0 0 0 7.5-7.5 7.5 7.5 0 0 0-7.5-7.5M128.8 92.728h-13.435a7.5 7.5 0 0 0-7.5 7.5 7.5 7.5 0 0 0 7.5 7.5H128.8a7.5 7.5 0 0 0 7.5-7.5 7.5 7.5 0 0 0-7.5-7.5" clip-path="url(#b)"/>
	</symbol>

	<symbol viewBox="0 0 288 331" id="order">
		<path d="M276.8 57.093l-101.2-54.8c-9.6-5.2-22.8-1.2-28 8.4l-59.2 110h-72c-9.2 0-16.4 7.2-16.4 16.4v178c0 9.2 7.2 16.4 16.4 16.4h230c9.199 0 16.399-7.2 16.399-16.4v-41.6h6.8c3.601 0 6.4-2.8 6.4-6.4v-47.6c0-3.6-2.8-6.4-6.4-6.4h-6.8v-46.8c0-7.6-5.6-14.4-12.8-16l35.2-65.2c5.201-10 1.601-22.4-8.399-28m-72-24.4l-63.2 117.2h-18l67.6-124.4 13.6 7.2zm-45.6-16c2-3.6 6.8-5.2 10.399-3.2l10 5.6-70.399 130.8h-22l72-133.2zm-146.8 120c0-1.2 1.6-3.2 3.6-3.2h65.2l-8.8 16H16c-1.2 0-2.4 0-3.6.4v-13.2m237.2 178.4c0 2-1.6 3.601-3.6 3.601H16c-2 0-3.6-1.601-3.6-3.601v-148.8c0-2 1.6-3.6 3.6-3.6H245.6c2 0 3.601 1.6 3.601 3.6v46.8h-24.4c-10.8 0-19.2 8.801-19.2 19.2v22c0 10.8 8.801 19.2 19.2 19.2h24.8v41.6zm12.8-89.199h.399v34.8H224.8c-3.6 0-6.399-2.8-6.399-6.4v-22c0-3.6 2.8-6.399 6.399-6.399h37.6zm11.2-147.201l-38.399 71.2H156l60-110.8 54.4 29.6c4 1.6 5.2 6.4 3.2 10" clip-path="url(#b)"/>
		<path d="M249.2 72.693l-3.2-1.6c-8-4.4-18.8-1.2-23.2 6.8l-4 7.6c-2 4-2.8 8.8-1.2 13.2 1.2 4.4 4.4 8 8.4 10l3.2 1.6c2.399 1.2 5.2 2 8 2 6.399 0 12-3.6 15.2-8.8l4-7.6c4-8.4.8-18.8-7.2-23.2m-4.4 17.2l-4 7.6c-1.2 2-4 2.8-6 1.6l-3.2-2c-.8-.4-1.6-1.6-2-2.4-.399-1.2-.399-2.4.4-3.2l4-7.6c.8-1.2 2.4-2.4 4-2.4.8 0 1.2 0 2 .4l3.2 1.6c1.6 1.6 2.4 4 1.6 6.4" clip-path="url(#b)"/>
	</symbol>

	<symbol viewBox="0 0 424 473" id="prog">
		<path d="M281.227 359.258v-11.143c0-4.143-3.357-7.5-7.5-7.5a7.498 7.498 0 0 0-7.5 7.5v11.142c0 4.143 3.356 7.5 7.5 7.5a7.5 7.5 0 0 0 7.5-7.499M149.195 359.258v-11.143a7.5 7.5 0 0 0-7.5-7.5 7.5 7.5 0 0 0-7.5 7.5v11.142a7.5 7.5 0 0 0 7.5 7.5 7.499 7.499 0 0 0 7.5-7.499M234.019 367.784V354.11c0-6.967-5.669-12.634-12.635-12.634h-27.348c-6.966 0-12.634 5.668-12.634 12.634v13.674c0 14.506 11.802 26.308 26.308 26.308 14.506-.001 26.309-11.803 26.309-26.308m-37.617 0v-11.309h22.615v11.308c0 6.235-5.072 11.308-11.309 11.308-6.233 0-11.306-5.072-11.306-11.307" clip-path="url(#b)"/>
		<path d="M423.196 203.764c-1.469-20.142-19.043-35.35-39.212-33.886-15.643 1.14-29.695 2.07-43.146 2.824 1.083-5.134 2.186-10.909 3.395-17.766 7.748-43.938 8.612-81.318 2.503-108.101C340.649 20.16 327.371 3.719 309.347.54c-18.022-3.173-36.125 7.73-50.967 30.715-14.901 23.078-26.874 58.5-34.621 102.438-2.461 13.952-4.721 28.517-5.162 41.931a5291.971 5291.971 0 0 1-13.898 0c-.441-13.413-2.702-27.978-5.163-41.931-7.748-43.938-19.719-79.36-34.621-102.438C150.072 8.271 131.973-2.637 113.948.54 95.924 3.718 82.646 20.159 76.56 46.835c-6.11 26.782-5.245 64.163 2.502 108.101 1.209 6.856 2.311 12.631 3.394 17.766-13.451-.755-27.504-1.685-43.147-2.824-20.164-1.464-37.743 13.735-39.21 33.886-.711 9.762 2.421 19.217 8.822 26.623 6.4 7.406 15.301 11.875 25.063 12.587 7.046.513 13.79.983 20.335 1.419V364.16a7.5 7.5 0 0 0 15 0v-50.119c44.159 2.66 81.372 3.575 142.327 3.575 60.953 0 98.167-.915 142.326-3.575v108.33a21.566 21.566 0 0 1-16.518 21.011c-82.305 19.984-169.312 19.985-251.616 0a21.565 21.565 0 0 1-16.519-21.011v-22.922a7.5 7.5 0 0 0-15 0v22.922a36.526 36.526 0 0 0 27.98 35.587c42.31 10.274 85.828 15.411 129.347 15.411 43.519 0 87.038-5.137 129.348-15.411a36.525 36.525 0 0 0 27.979-35.587V244.394c6.547-.436 13.289-.905 20.337-1.419 20.151-1.469 35.352-19.058 33.886-39.211m-184.665-67.466c7.403-41.984 18.624-75.494 32.45-96.905 6.58-10.188 19.984-26.861 35.761-24.08 15.788 2.784 22.671 23.035 25.369 34.858 5.669 24.849 4.752 60.175-2.65 102.159-1.501 8.507-2.824 15.276-4.146 21.175-3.579.17-7.146.327-10.711.473 4.293-24.375 6.383-45.547 6.214-62.926a7.501 7.501 0 0 0-7.498-7.427l-.075.001a7.5 7.5 0 0 0-7.427 7.573c.161 16.492-1.86 36.783-6.01 60.307-.18 1.019-.361 2.023-.543 3.029-13.024.413-26.477.69-41.265.861a596.568 596.568 0 0 1 1.836-10.937c5.447-30.893 12.578-55.736 20.621-71.846 7.362-14.745 13.368-17.961 15.749-17.545 1.749.308 3.643 2.599 5.2 6.284a7.5 7.5 0 0 0 13.817-5.835c-4.647-11.008-11.49-14.353-16.412-15.221-14.431-2.541-25.239 12.527-31.775 25.618-8.68 17.385-16.277 43.646-21.972 75.942a553.686 553.686 0 0 0-2.263 13.679c-3 .02-6.07.036-9.196.049.452-12.346 2.597-26.074 4.926-39.286M91.185 50.172c2.697-11.824 9.58-32.075 25.368-34.858 15.792-2.787 29.182 13.892 35.761 24.08 13.826 21.411 25.047 54.92 32.45 96.905 2.33 13.212 4.475 26.941 4.927 39.286-3.126-.013-6.197-.029-9.197-.049-.595-3.955-1.329-8.385-2.263-13.679-5.695-32.296-13.293-58.557-21.972-75.941-6.535-13.09-17.351-28.161-31.774-25.618-14.422 2.543-19.433 20.404-21.097 34.94-2.207 19.278-.372 46.505 5.304 78.742-3.566-.146-7.132-.303-10.711-.473-1.323-5.9-2.646-12.668-4.146-21.174-7.403-41.985-8.319-77.312-2.65-102.161m74.111 125.225c-14.788-.171-28.24-.448-41.265-.861-.182-1.006-.364-2.009-.543-3.028-5.447-30.893-7.244-56.677-5.196-74.565 1.874-16.373 6.412-21.454 8.798-21.874 2.386-.422 8.389 2.801 15.749 17.545 8.042 16.109 15.173 40.954 20.62 71.846.728 4.132 1.33 7.712 1.837 10.937m188.679 123.616c-44.228 2.682-81.298 3.604-142.326 3.604-61.029 0-98.099-.921-142.327-3.604v-53.67c45.117 2.717 82.584 3.574 142.327 3.574 59.741 0 97.209-.858 142.326-3.574v53.67zm34.246-70.999c-62.869 4.58-102.476 5.904-176.572 5.904-74.099 0-113.704-1.324-176.572-5.904a21.504 21.504 0 0 1-14.804-7.435 21.505 21.505 0 0 1-5.211-15.726c.828-11.371 10.347-20.073 21.574-20.073.525 0 1.054.019 1.586.058 19.598 1.428 36.718 2.53 53.269 3.37l.088.004c26.324 1.335 51.222 2.008 82.366 2.274l.013.001h.007c11.569.099 23.996.142 37.685.142s26.115-.043 37.686-.142h.007l.014-.001c31.154-.266 56.059-.939 82.394-2.275l.042-.002c16.555-.84 33.679-1.942 53.282-3.37 11.921-.87 22.298 8.118 23.165 20.015.863 11.903-8.117 22.293-20.019 23.16" clip-path="url(#b)"/>
	</symbol>

	<symbol viewBox="0 0 512 448" id="tea">
	  <path d="M394.655 170.653H95.988c-17.643 0-32 14.357-32 32v21.333c0 76.117 42.048 145.152 109.717 180.16 5.227 2.688 11.669.661 14.379-4.587 2.688-5.228.661-11.669-4.587-14.379-60.544-31.317-98.176-93.077-98.176-161.195v-21.333c0-5.888 4.779-10.667 10.667-10.667h298.667c5.888 0 10.667 4.779 10.667 10.667v21.333c0 68.117-37.632 129.877-98.197 161.173-5.248 2.709-7.274 9.152-4.587 14.379a10.69 10.69 0 0 0 9.493 5.781c1.664 0 3.328-.384 4.885-1.195 67.691-34.986 109.739-104 109.739-180.139v-21.333c0-17.641-14.358-31.998-32-31.998" clip-path="url(#b)"/>
	  <path d="M489.865 390.557c-1.664-3.989-5.547-6.593-9.856-6.593H10.676c-4.309 0-8.192 2.604-9.856 6.593a10.643 10.643 0 0 0 2.304 11.627l23.915 23.936c14.123 14.102 32.853 21.867 52.8 21.867h330.965c19.946 0 38.698-7.765 52.843-21.867l23.915-23.936a10.645 10.645 0 0 0 2.303-11.627m-41.322 20.48c-10.068 10.069-23.487 15.616-37.717 15.616H79.839c-14.229 0-27.648-5.547-37.717-15.616l-5.717-5.717H454.26l-5.717 5.717zM491.359 221.021c-28.736-18.475-74.646 1.579-79.787 3.904-5.354 2.453-7.744 8.768-5.291 14.144s8.747 7.744 14.145 5.291c10.282-4.672 43.264-15.744 59.392-5.355 7.274 4.673 10.837 13.739 10.837 27.648 0 42.709-86.144 68.523-119.403 74.88l-7.552 1.493c-5.781 1.131-9.536 6.741-8.405 12.522 1.003 5.077 5.461 8.598 10.453 8.598.684 0 1.365-.064 2.069-.213l7.488-1.473c5.589-1.066 136.683-26.772 136.683-95.808 0-21.46-6.954-36.799-20.629-45.631M328.372 81.309c17.345-21.675 17.345-55.616 0-77.291a10.634 10.634 0 0 0-14.997-1.664 10.657 10.657 0 0 0-1.664 14.997c10.987 13.717 10.987 36.907-.021 50.667-17.365 21.675-17.365 55.616 0 77.291a10.626 10.626 0 0 0 8.341 4.011c2.325 0 4.693-.768 6.656-2.347 4.607-3.691 5.354-10.411 1.664-14.997-11.007-13.718-11.007-36.907.021-50.667M264.287 81.309c17.365-21.675 17.365-55.616 0-77.291-3.669-4.608-10.389-5.355-14.997-1.664-4.608 3.691-5.355 10.411-1.664 14.997 11.008 13.717 11.008 36.907-.021 50.667-17.344 21.675-17.344 55.616 0 77.291a10.626 10.626 0 0 0 8.341 4.011c2.325 0 4.672-.768 6.656-2.347a10.657 10.657 0 0 0 1.664-14.997c-10.987-13.718-10.987-36.907.021-50.667M200.372 81.33c17.344-21.675 17.344-55.616 0-77.291a10.632 10.632 0 0 0-14.997-1.664c-4.587 3.669-5.333 10.389-1.664 14.976 10.987 13.717 10.987 36.907-.021 50.667-17.365 21.675-17.365 55.616 0 77.291a10.626 10.626 0 0 0 8.341 4.011 10.72 10.72 0 0 0 6.656-2.325c4.608-3.691 5.355-10.411 1.664-14.997-11.008-13.74-11.008-36.908.021-50.668" clip-path="url(#b)"/>
	</symbol>

	<symbol viewBox="0 0 512 448" id="main">
	  <path d="M511.766 350.33a7.516 7.516 0 0 0-7.282-5.658h-48.75c-3.875-104.255-87.964-188.345-192.22-192.22v-9.173h8.518a7.517 7.517 0 0 0 5.313-2.201l32.063-32.063c4.636-4.637 1.235-12.828-5.314-12.828h-96.187c-6.55 0-9.951 8.191-5.313 12.828l32.063 32.063a7.51 7.51 0 0 0 5.313 2.201h8.517v9.173c-104.255 3.875-188.345 87.964-192.22 192.22H7.516a7.516 7.516 0 0 0-3.599 14.112l86.846 47.37 21.492 26.865c7.552 9.438 18.816 14.854 30.904 14.854h225.68c12.089 0 23.354-5.414 30.904-14.854l21.491-26.864 86.848-47.371a7.517 7.517 0 0 0 3.684-8.454M243.081 128.251l-17.033-17.033h59.904l-17.033 17.033h-25.838zm144.927 295.38a24.43 24.43 0 0 1-19.168 9.213H143.16a24.425 24.425 0 0 1-19.168-9.213l-12.669-15.836h289.355l-12.67 15.836zm26.388-30.865H97.603l-60.618-33.063h328.227a7.516 7.516 0 0 0 0-15.031H71.305c3.958-98.461 85.28-177.346 184.695-177.346 99.414 0 180.736 78.885 184.694 177.346h-39.912a7.516 7.516 0 1 0 0 15.031h74.232l-60.618 33.063zM262.72 41.452c4.123-4.01 9.771-9.502 9.829-17.908.048-6.753-3.628-13.735-11.236-21.343a7.516 7.516 0 0 0-10.628 10.627c6.193 6.193 6.843 9.482 6.835 10.61-.014 2.119-2.572 4.606-5.278 7.238-3.898 3.79-8.748 8.507-8.798 15.579-.035 4.962 2.334 9.76 7.241 14.667a7.492 7.492 0 0 0 5.313 2.201 7.487 7.487 0 0 0 5.313-2.201 7.512 7.512 0 0 0 0-10.627c-2.673-2.672-2.838-3.91-2.842-3.91.174-.969 2.725-3.451 4.251-4.933M219.666 41.452c4.124-4.01 9.771-9.502 9.83-17.908.047-6.753-3.628-13.735-11.237-21.343a7.514 7.514 0 0 0-10.627 0 7.514 7.514 0 0 0 0 10.627c6.193 6.193 6.843 9.482 6.835 10.61-.015 2.119-2.572 4.606-5.278 7.238-3.898 3.79-8.748 8.507-8.798 15.579-.035 4.962 2.334 9.76 7.241 14.667 1.467 1.467 3.391 2.201 5.313 2.201s3.846-.733 5.313-2.201a7.514 7.514 0 0 0 0-10.627c-2.672-2.672-2.836-3.91-2.841-3.91.172-.969 2.724-3.451 4.249-4.933M307.841 41.452c4.123-4.01 9.77-9.502 9.829-17.908.048-6.753-3.628-13.735-11.236-21.343a7.515 7.515 0 0 0-10.628 10.627c6.193 6.193 6.843 9.482 6.835 10.61-.016 2.119-2.573 4.606-5.28 7.238-3.897 3.79-8.748 8.507-8.797 15.579-.035 4.962 2.334 9.76 7.241 14.667 1.468 1.467 3.393 2.201 5.314 2.201s3.846-.733 5.313-2.201a7.512 7.512 0 0 0 0-10.627c-2.673-2.672-2.838-3.91-2.842-3.91.174-.969 2.725-3.451 4.251-4.933" clip-path="url(#b)"/>
	</symbol>

	<symbol viewBox="0 0 470 470" id="decor">
	  <path d="M4.983 14.567A680.668 680.668 0 0 0 37.79 25.33l26.251 115.744a7.5 7.5 0 0 0 13.322 2.832l71.126-95.151a685.374 685.374 0 0 0 27.364 2.897v104.964a7.5 7.5 0 0 0 12.092 5.93l47.058-36.443 47.058 36.443a7.494 7.494 0 0 0 7.894.804 7.5 7.5 0 0 0 4.198-6.734V51.652a684.982 684.982 0 0 0 27.364-2.897l71.127 95.151a7.5 7.5 0 0 0 13.323-2.832l10.311-45.463a7.5 7.5 0 1 0-14.629-3.317l-6.717 29.618-56.445-75.51a679.54 679.54 0 0 0 77.277-16.348l-7.48 32.982a7.5 7.5 0 0 0 7.321 9.16 7.503 7.503 0 0 0 7.308-5.843l9.305-41.023a680.305 680.305 0 0 0 32.807-10.763 7.5 7.5 0 0 0 4.545-9.583 7.499 7.499 0 0 0-9.584-4.545 665.316 665.316 0 0 1-34.758 11.327 7.485 7.485 0 0 0-2.749.801 664.763 664.763 0 0 1-97.825 20.651 7.535 7.535 0 0 0-1.604.214 672.64 672.64 0 0 1-37.146 3.832 680.236 680.236 0 0 1-50.898 1.904c-17.042 0-34.007-.637-50.876-1.902a671.18 671.18 0 0 1-37.169-3.834 7.482 7.482 0 0 0-1.604-.215 664.811 664.811 0 0 1-97.819-20.65 7.475 7.475 0 0 0-2.76-.804A663.35 663.35 0 0 1 10.022.439C6.12-.954 1.831 1.083.438 4.984s.644 8.192 4.545 9.583zm70.095 107.345L54.244 30.055a679.774 679.774 0 0 0 77.278 16.348l-56.444 75.509M279.152 52.77v88.552l-39.558-30.635a7.499 7.499 0 0 0-9.184 0l-39.558 30.635V52.77a696.2 696.2 0 0 0 44.149 1.398c14.775 0 29.499-.467 44.151-1.398" clip-path="url(#b)"/>
	  <path d="M459.983 153.384a665.615 665.615 0 0 1-34.766 11.329 7.465 7.465 0 0 0-.869.128 7.48 7.48 0 0 0-1.851.664 665.039 665.039 0 0 1-97.845 20.657c-.444.013-.895.06-1.346.156-.062.013-.121.034-.183.049a671.474 671.474 0 0 1-36.923 3.818l-.091.007c-16.945 1.277-33.988 1.92-51.107 1.92s-34.163-.644-51.109-1.92l-.09-.007a671.539 671.539 0 0 1-36.922-3.818c-.062-.015-.12-.035-.183-.049a7.584 7.584 0 0 0-1.337-.155 665.03 665.03 0 0 1-97.854-20.658 7.466 7.466 0 0 0-1.851-.664 7.463 7.463 0 0 0-.867-.128 665.73 665.73 0 0 1-34.769-11.33 7.5 7.5 0 0 0-5.039 14.128 681.943 681.943 0 0 0 30.312 10.007L13.5 280.061a7.502 7.502 0 0 0 10.595 8.314l53.606-25.862 38.452 45.431a7.5 7.5 0 0 0 13.061-3.286l21.818-102.646a686.286 686.286 0 0 0 27.353 2.789l49.809 107.903a7.501 7.501 0 0 0 13.621 0L291.621 204.8a686.146 686.146 0 0 0 27.354-2.789l21.819 102.647a7.497 7.497 0 0 0 7.336 5.941 7.506 7.506 0 0 0 5.725-2.655l38.452-45.431 53.604 25.863a7.502 7.502 0 0 0 10.596-8.314l-21.796-102.543a681.943 681.943 0 0 0 30.312-10.007 7.5 7.5 0 0 0 4.545-9.583 7.499 7.499 0 0 0-9.585-4.545zM117.721 286.579l-32.323-38.19a7.499 7.499 0 0 0-8.983-1.91L31.352 268.22l18.381-86.478a679.853 679.853 0 0 0 86.386 18.28l-18.398 86.557m117.282 5.086l-39.552-85.683a696.474 696.474 0 0 0 39.552 1.13 696.5 696.5 0 0 0 39.552-1.13l-39.552 85.683zm203.651-23.445l-45.062-21.741a7.5 7.5 0 0 0-8.983 1.91l-32.323 38.19-18.398-86.557a679.713 679.713 0 0 0 86.386-18.279l18.38 86.477z" clip-path="url(#b)"/>
	  <path d="M459.983 306.328a666.33 666.33 0 0 1-34.76 11.327 7.491 7.491 0 0 0-2.744.8 664.608 664.608 0 0 1-97.833 20.651 7.562 7.562 0 0 0-1.593.213 670.89 670.89 0 0 1-37.151 3.832 679.702 679.702 0 0 1-50.898 1.904c-17.042 0-34.007-.637-50.876-1.902a672.324 672.324 0 0 1-37.174-3.834 7.506 7.506 0 0 0-1.594-.213 664.886 664.886 0 0 1-97.825-20.649 7.484 7.484 0 0 0-2.758-.804 666.692 666.692 0 0 1-34.753-11.324 7.501 7.501 0 0 0-5.039 14.128 680.706 680.706 0 0 0 32.808 10.763l26.251 115.744a7.501 7.501 0 0 0 13.322 2.832l71.126-95.151a684.982 684.982 0 0 0 27.364 2.897v34.02c0 4.143 3.357 7.5 7.5 7.5s7.5-3.357 7.5-7.5V358.66a695.456 695.456 0 0 0 44.149 1.398c14.774 0 29.497-.467 44.148-1.398v88.553l-39.558-30.636a7.499 7.499 0 0 0-9.184 0l-39.558 30.636v-25.65c0-4.142-3.357-7.5-7.5-7.5s-7.5 3.358-7.5 7.5v40.944a7.5 7.5 0 0 0 12.092 5.929l47.058-36.443 47.058 36.443a7.494 7.494 0 0 0 7.895.803 7.501 7.501 0 0 0 4.197-6.733V357.539a685.178 685.178 0 0 0 27.364-2.897l71.127 95.151a7.5 7.5 0 0 0 13.323-2.832l26.25-115.744a682.525 682.525 0 0 0 32.807-10.763 7.5 7.5 0 0 0-5.041-14.126zM75.078 427.8l-20.833-91.857a679.774 679.774 0 0 0 77.278 16.348L75.078 427.8m319.852 0l-56.445-75.51a679.39 679.39 0 0 0 77.278-16.349L394.93 427.8z" clip-path="url(#b)"/>
	</symbol>

	<symbol viewBox="0 0 511 503" id="place-alt">
		<path d="M167.974 346.227c21.086 29.73 42.138 56.32 56.09 73.446 2.031 2.492 3.934 4.804 5.777 7.031h-42.103a8.532 8.532 0 0 0-8.533 8.532 8.532 8.532 0 0 0 8.533 8.533H324.27a8.532 8.532 0 0 0 8.533-8.533 8.532 8.532 0 0 0-8.533-8.532h-42.103c1.843-2.228 3.746-4.54 5.786-7.031 13.942-17.067 34.986-43.716 56.08-73.446a749.506 749.506 0 0 0 56.371-90.854c17.426-34.219 26.267-62.626 26.267-84.438a170.55 170.55 0 0 0-49.98-120.841 8.532 8.532 0 1 0-12.076 12.057 153.545 153.545 0 0 1 44.988 108.783c0 19.098-8.209 44.902-24.405 76.689a732.904 732.904 0 0 1-55.091 88.748c-20.804 29.346-41.6 55.637-55.381 72.532a1511.437 1511.437 0 0 1-12.22 14.78 8.643 8.643 0 0 1-13.004 0 1513.93 1513.93 0 0 1-12.22-14.78c-13.781-16.887-34.577-43.179-55.381-72.532a732.826 732.826 0 0 1-55.091-88.748c-16.213-31.787-24.405-57.591-24.405-76.689-.005-61.809 36.959-117.627 93.867-141.747a154.58 154.58 0 0 1 119.552 0 8.537 8.537 0 0 0 6.664-15.718c-86.897-36.652-187.056 4.062-223.734 90.948a170.04 170.04 0 0 0-13.414 66.517c0 21.811 8.841 50.219 26.266 84.48a749.246 749.246 0 0 0 56.368 90.813" clip-path="url(#b)"/>
		<path d="M256.003 93.905a8.533 8.533 0 0 0 8.533-8.533 8.533 8.533 0 0 0-8.533-8.533c-40.71-.001-75.752 28.757-83.695 68.685-7.943 39.928 13.426 79.906 51.037 95.486 37.611 15.58 80.99 2.421 103.608-31.428 22.617-33.849 18.175-78.962-10.611-107.749a8.535 8.535 0 0 0-14.394 3.767 8.537 8.537 0 0 0 2.327 8.299c23.03 23.029 26.585 59.118 8.492 86.198s-52.796 37.608-82.885 25.146c-30.089-12.462-47.185-44.444-40.833-76.387 6.353-31.943 34.386-54.95 66.954-54.951M508.786 465.711l-52.48-93.867a26.522 26.522 0 0 0-23.219-13.406H372.27c-4.713 0-8.533 3.82-8.533 8.533s3.82 8.533 8.533 8.533h60.817a9.464 9.464 0 0 1 8.337 4.659l52.463 93.867a7.68 7.68 0 0 1-.077 7.885 9.386 9.386 0 0 1-8.26 4.522H26.457a9.388 9.388 0 0 1-8.252-4.522 7.681 7.681 0 0 1-.077-7.885l52.463-93.867a9.452 9.452 0 0 1 8.328-4.659h60.817c4.713 0 8.533-3.82 8.533-8.533s-3.82-8.533-8.533-8.533H78.92a26.537 26.537 0 0 0-23.236 13.406L3.212 465.711a24.748 24.748 0 0 0 .265 24.841 26.284 26.284 0 0 0 22.98 12.954H485.55a26.282 26.282 0 0 0 22.972-12.954 24.746 24.746 0 0 0 .264-24.841" clip-path="url(#b)"/>
		<path d="M418.137 401.104h-34.133a8.574 8.574 0 0 0-4.736 1.435l-25.6 17.066a8.535 8.535 0 0 0 9.472 14.2l23.424-15.633h31.573a8.533 8.533 0 0 0 8.533-8.533 8.534 8.534 0 0 0-8.533-8.535M366.937 460.838a8.533 8.533 0 0 0 8.533 8.533h68.267c4.713 0 8.533-3.82 8.533-8.533s-3.82-8.533-8.533-8.533H375.47a8.533 8.533 0 0 0-8.533 8.533M153.603 435.238a8.533 8.533 0 0 0 4.745-15.634l-25.6-17.066a8.579 8.579 0 0 0-4.745-1.435H93.87a8.533 8.533 0 0 0 0 17.066h31.573l23.45 15.633a8.525 8.525 0 0 0 4.71 1.436M68.27 452.305c-4.713 0-8.533 3.82-8.533 8.533s3.82 8.533 8.533 8.533h68.267c4.713 0 8.533-3.82 8.533-8.533s-3.82-8.533-8.533-8.533H68.27z" clip-path="url(#b)"/>		
	</symbol>

	<symbol viewBox="0 0 512 452" id="masks">
		<path d="M511.206 28.386A29.839 29.839 0 0 0 496.388 4.08a29.8 29.8 0 0 0-28.418-.913C428.079 23.1 385.245 33.209 340.657 33.209c-44.596 0-87.433-10.107-127.322-30.04a29.805 29.805 0 0 0-28.421.912 29.832 29.832 0 0 0-14.817 24.292 570.47 570.47 0 0 0-.795 30.097c0 19.148.962 38.206 2.834 56.842-.265.001-.528.011-.792.011-44.601 0-87.438-10.106-127.321-30.04a29.801 29.801 0 0 0-28.409.915A29.844 29.844 0 0 0 .787 110.495 575.28 575.28 0 0 0 0 140.588c0 81.807 17.077 158.903 48.086 217.088 32.281 60.572 76.055 93.931 123.257 93.931 47.06 0 90.708-33.164 122.959-93.385 14.983 7.475 30.524 11.267 46.355 11.267 47.201 0 90.973-33.357 123.255-93.929C494.922 217.374 512 140.276 512 58.467c0-10.05-.267-20.176-.794-30.081M301.547 274.433c-6.11 22.188-13.775 42.957-22.904 61.802l-.055.113a298.876 298.876 0 0 1-5.114 10.068c-27.924 52.395-64.194 81.248-102.13 81.248-37.936 0-74.205-28.854-102.128-81.249-29.194-54.78-45.272-127.878-45.272-205.828 0-9.631.254-19.333.752-28.841.153-2.917 2.127-4.372 2.969-4.864.644-.375 1.7-.834 3.005-.834.802 0 1.699.175 2.65.65 43.236 21.609 89.674 32.565 138.025 32.565 4.796 0 9.566-.139 14.322-.354.08-.001.162-.007.242-.01 43.115-1.985 84.586-12.771 123.461-32.201 2.498-1.25 4.617-.42 5.656.184.842.491 2.815 1.947 2.969 4.864.499 9.503.752 19.206.752 28.841 0 46.587-5.747 91.438-16.603 131.685-.271.706-.467 1.43-.597 2.161m141.236-10.132c-27.923 52.393-64.192 81.247-102.126 81.247-12.116 0-24.137-2.978-35.854-8.845 7.544-16.965 14.029-35.206 19.395-54.44 4.268-4.492 10.144-7.033 16.445-7.033 7.271 0 14.152 3.5 18.407 9.364a11.958 11.958 0 0 0 9.699 4.942c2.437 0 4.896-.741 7.02-2.282 5.353-3.883 6.542-11.368 2.66-16.72-8.744-12.051-22.868-19.247-37.786-19.247-3.106 0-6.158.318-9.133.904 7.333-35.138 11.174-72.839 11.174-111.603a578.66 578.66 0 0 0-.784-30.097 29.843 29.843 0 0 0-14.827-24.295 29.805 29.805 0 0 0-28.411-.915c-32.448 16.217-66.852 25.928-102.571 28.986a545.906 545.906 0 0 1-2.849-55.8c0-9.619.256-19.318.761-28.841.146-2.813 1.919-4.253 2.963-4.863 1.039-.606 3.157-1.434 5.661-.181 43.245 21.61 89.684 32.566 138.027 32.566 48.335 0 94.771-10.956 138.017-32.567 2.501-1.251 4.62-.423 5.659.182 1.044.609 2.816 2.049 2.964 4.877.505 9.498.761 19.196.761 28.825.003 77.953-16.076 151.054-45.272 205.836" clip-path="url(#b)"/>
		<path d="M437.465 116.631c-6.126-2.497-13.109.448-15.603 6.57-2.994 7.35-10.061 12.098-18.002 12.098-7.938 0-15-4.749-17.995-12.099-2.495-6.122-9.481-9.061-15.604-6.569-6.123 2.495-9.064 9.48-6.569 15.603 6.685 16.406 22.45 27.008 40.167 27.008 17.722 0 33.491-10.6 40.175-27.008 2.495-6.123-.447-13.109-6.569-15.603M141.039 198.749c-6.121-2.498-13.108.445-15.603 6.569-2.994 7.352-10.061 12.099-18.002 12.099-7.937 0-15-4.749-17.994-12.098-2.495-6.123-9.48-9.068-15.603-6.57-6.122 2.494-9.065 9.48-6.57 15.602 6.683 16.408 22.451 27.008 40.168 27.008 17.72 0 33.489-10.6 40.174-27.007 2.494-6.123-.447-13.108-6.57-15.603M268.157 198.749c-6.124-2.498-13.108.447-15.603 6.57-2.994 7.35-10.061 12.098-18.002 12.098-7.937 0-15-4.749-17.995-12.099-2.494-6.122-9.482-9.062-15.603-6.569-6.123 2.495-9.065 9.48-6.57 15.603 6.685 16.406 22.451 27.008 40.167 27.008 17.722 0 33.492-10.6 40.175-27.008 2.495-6.123-.446-13.109-6.569-15.603M206.458 335.687c-5.354-3.881-12.839-2.688-16.719 2.665-4.314 5.95-11.023 9.361-18.407 9.361-7.265 0-14.139-3.5-18.39-9.361-3.88-5.354-11.365-6.546-16.719-2.665-5.352 3.881-6.546 11.365-2.665 16.719 8.739 12.052 22.86 19.25 37.774 19.25 14.923 0 29.05-7.197 37.789-19.25 3.882-5.354 2.689-12.837-2.663-16.719" clip-path="url(#b)"/>
	</symbol>

    <!--иконки используются для страницы Конструктор выездных праздников -->

	<symbol viewBox="0 0 605 513" id="animation">
        <path d="M594,98.8c-11.4-26.4-31.5-42.4-59.5-47.6c-39-7.2-99.9,6.7-114.5,51.6C411.9,76.4,399.3,44,375,23
	C354.6,5.4,323.3-2.6,286.9,0.7c-32.9,3-65.6,14.9-87.4,31.9c-26.1,20.5-40.5,52.2-42.7,94.3c-36-27.4-90.8-23.7-125.3,8.6
	c-41.4,38.8-36.1,97.3-17.3,139.2c19.7,43.8,60.5,91.2,116.2,92.8c10.6,0.3,21.5-1.6,31.6-5.4c-1.5,4.7-1.2,9.7,0.9,13.7
	c2,3.8,5.3,6.4,9.7,7.5c6.9,1.7,11.5-1.8,14.2-5.5c0.4,8.7,4.8,17.3,12.7,24.9c5.5,5.2,12.1,9,18.5,12.7c3.4,1.9,6.9,3.9,10.1,6.1
	c12.3,8.1,20,19.3,21.1,30.6c0.9,9.5-2.8,18.8-10.9,26.8c-1.6,1.5-1.1,3.5,0,4.6c1.2,1.2,3.2,1.7,4.8,0.2
	c13.5-12.5,17.5-30.7,10.2-46.2c-5.3-11.3-17.9-19-30.1-26.5c-18.9-11.6-36.7-22.6-29.2-45.6c0.2-0.6,0.1-1.2-0.2-1.7
	c7.1,1.9,15.9,2.4,21.6-1.2c3.3-2.1,5.2-5.4,5.7-9.7c1.7-14.5-15.3-18.5-21.8-19.4c7.9-11.5,11.8-24.8,11.4-38.4c0,0,0,0,0.1,0.1
	c20.3,16.6,47.8,26,77.4,26.3c-8,6.7-14.4,17.6-11.3,27.5c2.1,6.7,10,8.4,16.3,6.6c3.9-1.1,7.3-3.5,10.1-6.1
	c-9.1,13.1-9.7,30.3-1.8,51.1c2.4,6.2,5.4,12.2,8.4,18c3.4,6.7,7,13.7,9.4,21c8.9,26.4-0.4,46.1-17.2,67.6c-1.4,1.8-0.7,4.1,0.7,5.2
	c0.5,0.4,1.2,0.7,1.9,0.7c0.8,0,1.6-0.3,2.2-1.2c14.1-17.9,27.4-37.6,21.8-63.8c-2.4-11.1-7.6-22-12.7-32.5
	c-10.8-22.3-20.9-43.4-6.3-66.7c3.2,4.1,8,6.9,13.3,7.8c5.6,0.9,11.1-0.5,15.6-3.8c5.1-3.8,8.1-9.7,8.4-16.1c0.3-6.1-2-11.9-6.1-16
	c15.9-3,30.7-10.1,44.2-21.1c8,10.8,17.9,19.6,29.4,26.3c-4.6-1.9-10.1-1.4-15.7,1.4c-7.5,3.7-13.5,11-14.5,17.6
	c-0.8,5.3,1,11.8,6.8,13.5c2.1,0.6,4.5,0.6,7.3,0c-6.8,8.2-14.1,20.5-12.5,34.9c0.6,5.5,2.1,10.7,3.6,15.6c2,6.7,4,13.6,3.7,21.3
	c-0.4,12.4-6,19.5-11.9,27c-2.9,3.7-5.9,7.4-8.4,12c-1,1.9-0.1,3.5,1.1,4.3c1.4,0.8,3.4,0.7,4.5-1c2.9-4.4,5.7-8,8.4-11.5
	c8-10.4,14.4-18.6,13.2-36.4c-0.4-5.8-1.9-11.2-3.4-16.5c-0.8-2.9-1.7-5.9-2.3-9c-3.9-18.3,3.5-31.4,16.1-45.3
	c0.2,4.2,2.3,8.3,6,11.3c4.8,3.9,11.3,5.3,17,3.8c12.2-3.3,20.5-17.3,18.1-30.2c22.5,3.2,46.1-0.8,66.7-11.2
	c26.2-13.3,47.2-34.5,62.3-63.1c13.1-24.9,21.3-54.7,23.7-86.4C605.9,156.3,605.4,125,594,98.8z M416.2,326.8
	c8.6,4.7,17.9,8.2,27.7,10.4c2.3,10.8-0.3,18.5-7.7,23c-4.9,3-11.1,3-15.6,0c-3.7-2.5-5.3-6.6-4.5-11.2c1.1-1.5,0.6-3.4-0.3-4.5
	c-0.8-0.9-2.3-1.5-4-0.5c-4.6,2.9-9.7,6.1-15.3,7.3c-2.2,0.4-3.8,0.1-4.7-1.1c-1.3-1.7-1.1-4.9,0.4-7.9c1.8-3.6,5.2-7,9.5-9.2
	c2.9-1.5,5.7-2,8.8-2.5c1.6-0.3,3.3-0.5,4.9-1c0.7-0.2,1.1-0.7,1.2-1.5C416.7,327.6,416.5,327.1,416.2,326.8z M310.2,334.6
	c-1.1-0.7-2.6-0.9-3.8,0.4c-0.7,0.8-1.3,1.6-2,2.4c-2.4,3-5,6-8.1,8.3c-2.9,2.1-7,4.3-9.9,2.8c-3.7-1.9-2.3-8.1-1.9-9.3
	c1.9-7.5,6.7-13.6,14.3-18.2c2.1-0.1,4.4-0.3,7.1-0.6c0,0,0,0,0,0c0.1,0.1,0.2,0.1,0.4,0.2c8.4,1.5,16.8,1.9,24.9,1.3
	c0.1,0.2,0.3,0.4,0.5,0.5c5,3.5,8.1,9.2,8,14.4c-0.1,3.1-1.2,7.4-6.5,10.7c-3.7,2.3-7.6,2.9-11.5,1.7c-4.5-1.4-8.5-5.3-10.7-10.3
	c0.1-0.1,0.1-0.2,0.2-0.3C312.2,337.2,311.4,335.4,310.2,334.6z M307.3,313.3c-0.1,0-0.3,0-0.4,0c-0.6,0-1,0.2-1.4,0.4
	c-35.2-0.5-74.8-5.4-102-37.4c-23.1-27.2-30.9-64-35-93c-4.8-33.8-8-77.1,10.2-112.8c18.9-37,58.3-51.4,88.1-56.9
	C299.7,7.5,347,3.4,377.6,37.1c20.6,22.7,35.1,57.5,44.4,106.3c6.1,31.9,8.5,78.4-14.5,118.4C386.2,298.8,347.8,318.6,307.3,313.3z
	 M432.2,215.6c5.1-30.5,2-64.6-9.5-104.2c18.1-40.7,65.6-62.7,113.1-52.3c25.6,5.6,43.5,21.5,53.2,47.3c7.4,19.7,9.9,45.6,7.2,74.9
	c-5.3,58.2-29.6,104.9-68.5,131.5c-23.5,16-52.7,22.3-80.1,17.3c-0.6-0.4-1.4-0.5-2.1-0.4c-22.5-4.7-41.5-16.7-54.9-34.7
	c0,0-0.1-0.1-0.1-0.1C412,275,427.1,246.2,432.2,215.6z M164.2,206.4c7.4,36,20.1,62.6,38.8,81.4c1.9,21.2-5.5,40.3-21,53.8
	c-18,15.7-44.9,21.8-70.3,15.9h0c-38.9-9-73.7-43.5-93.2-92.3c-18.9-47.4-12.7-93,16.5-122C52.5,125.8,74.3,117,97.7,117
	c19,0,39,5.8,58.9,17.4C156.2,155.8,158.7,180.1,164.2,206.4z M169.9,358.7c9.6-4.8,18.2-11.5,24.9-19.4l0.1,0
	c5.3,0.7,15.2,2,18.8,7.1c1.3,1.8,1.6,3.9,1.1,6.3c-0.5,2.3-1.6,4.1-3.5,5.2c-5.3,3.4-14.9,1.2-20.1,0.1l-0.1,0c-0.1,0-0.2,0-0.3,0
	c-0.9-0.6-2.1-0.7-3.1-0.3c-0.9,0.4-1.6,1.1-1.8,2.1c-0.2,0.8-0.4,1.8-0.6,2.8c-1.2,6-2.6,13.5-9,14.2c-4.5,0.5-8.3-3.5-9-7.5
	C166.7,365.9,167.5,362.7,169.9,358.7z"/>

	</symbol>

	<symbol viewBox="0 0 512 573.2" id="eat">
        <g>
            <path d="M0.3,418c-1.7-22.1,4-48.6,4-75.4c0-16.4,1.2-32.8,0.7-49.1c-0.5-16.2,4.6-30.5,11-44.9
		c2.4-5.4,7-7.5,11.7-9.6c16.3-7.2,32.9-14,49.1-21.4c12.9-5.9,25.2-12.8,38.1-18.6c8.3-3.7,13.2-9.3,14.1-18.3
		c0.1-0.7,0.3-1.5,0.5-2.2c7.3-25.8,19.8-35.6,46.3-36.6c22.3-0.9,23.6-2.1,23.7-23.6c0-12.1-2.9-23.5-8.7-34.2
		c-14.8-27.2-32.9-51.4-60.2-67.3c-2.5-1.5-5-3.3-7.1-5.3c-2.3-2.2-3-5.5-1.4-8.1c1.5-2.6,4.5-4,7.7-2.9c8.5,2.9,16.6,7.2,23.1,13.2
		c16.3,15.3,31.9,31.3,44.2,50.1c10.9,16.6,16,35.1,16.6,54.8c0.1,4.5,0.2,8.9,0.4,13.4c0.2,3.1,1.4,5.9,4.6,7
		c10,3.2,19.8,5.6,29.7-1.3c22.7-16,48.4-26.2,73.3-37.8c23-10.7,45.4-22.3,67.3-35C412,51.2,436,39.3,459.7,26.9
		c6.3-3.3,8.6-2,13.5,2.8c15.7,15.4,20.8,34.8,24.3,55.8c6.1,36.7,9.6,73.7,13.9,110.7c1.9,16.8-0.5,31.6-10.8,46.2
		c-16.7,23.7-32.1,48.3-49.5,71.6c-17.3,23.2-32.7,47.8-48.2,72.3c-25.9,41-53.5,80.5-86.3,116.4c-11,12-20.1,25.8-30.2,38.7
		c-3.2,4.1-6.3,8.3-9.8,12.1c-2.6,2.9-6.7,5.1-9.9,2.4c-6.6-5.8-11.6-2.9-17.8,0.8c-16.3,9.5-34.6,13.3-53.2,15.2
		c-8.9,0.9-17.9,0-26.8,0.8c-35.7,3.4-67.3-9.5-98.3-24.6c-11.4-5.6-21.4-13.5-30.2-22.7c-6.2-6.4-12.3-12.9-18.8-19.1
		C6.8,492,0.5,474.3,0.3,454.1C0.3,443.7,0.3,433.2,0.3,418z M420.5,125c-1.8,1.6-3.6,3.1-5.4,4.7c-1,3.1-2,6.1-3,9.2
		c-1.7,1.7-3.5,3.4-5.2,5c-5.5,1.3-8.7,5.7-11.8,9.7c-26.6,25.6-47.1,50.8-68.3,75.8c-27.8,32.8-47.8,67.1-74.7,100.8
		c-2.8,3.5-5.4,7.1-7.8,10.8c-0.7,1.1-1.1,3.5-0.5,4.1c1.4,1.3,3.6,2.7,5.4,2.7c8.3-0.1,13.5-5.4,18.1-11.5
		c7.1-9.5,13.7-19.5,21.6-28.4c41.6-46.8,77.1-98.1,111.2-150.4c2.8-4.4,5.9-8.6,6.4-14c1.7-1.6,3.4-3.3,5.2-4.9c1-3.1,2-6.1,3-9.2
		c1.8-1.6,3.6-3.2,5.4-4.7C420.1,124.6,420.5,125,420.5,125z M434.1,108.1l0-0.8l-0.1,1.3c-1.8,0.8-3.7,1.6-5.5,2.4l0.1,0.8l0.1-1.3
		C430.4,109.7,432.2,108.9,434.1,108.1z M443.6,94.6l-1.2-0.3l0.8,0.2c0.4-0.6,0.8-1.1,1-1.7c0.2-0.4,0-0.9-0.1-1.4
		C444,92.5,443.8,93.6,443.6,94.6z M429.7,188.6l-0.2-0.8l0.4,1.3c-3.7-3.5-8.9-5.6-9.6-11.6c-0.3-2.6,3.7-7,5.3-5.6
		c12.3,11.3,16.1-0.2,21.2-7.7c5.5-8,10.5-16.2,15.8-24.3c5-7.6,9.2-15,4.5-24.8c-2-4.2,2.5-7.9,7.8-8.2c3.3-0.2,6,5.4,10.2,0.5
		c-1.1-9.2-2.1-18.7-3.4-28.3c-0.4-2.9-5.2-4.3-7.1-2.2c-2,2.2-4,4.4-5.7,6.9c-18.5,26.9-37.1,53.8-55.3,80.9
		C379,216.1,344.2,267,303,313.1c-7.4,8.3-13.5,17.7-20.2,26.6c-4.5,5.9-2,8.9,4.1,11.1c2.2,0.8,2.9,3.4,2.3,5.7
		c-0.8,3.4-3.4,4.5-6.6,4.6c-0.7,0-1.5-0.2-2.2-0.5c-5.2-2.9-9.6-2.7-13.8,2.1c-4.2,4.7-7.5,9.1-5.3,15.9c1.4,4.2,1.8,8.7,2.9,13.1
		c1.1,4.3,5.6,5.3,8.4,1.7c12.7-16.5,25.2-33.1,37.7-49.7c3.3-4.4,0.6-8.3-1.3-12.3c-1.7-3.9,0-9.4,3.7-8.2
		c12.9,4.2,16.8-5.1,22.6-12.7c5-6.4,5.2-11.7-0.9-17.4c-1-1-0.7-4.3,0.1-6c0.9-2.1,4.2-3.2,5.6-1.7c8,8.6,12.6,3.3,17.2-3.5
		c2.5-3.7,5.3-7.2,8.1-10.6c4.3-5.1,5.1-9.6,0.8-15.8c-3.7-5.3,1.1-11.5,6.6-8.8c7,3.5,11,2.1,15.1-3.4c2.2-3,4.3-6.1,6.8-8.8
		c5.8-6.3,8-12.2,0.5-19c-1.7-1.5-0.7-4.2,1.1-5.9c1.7-1.7,4.4-2.6,5.9-1c7.2,7.3,11.8,2.5,16.1-3.2
		C422.5,199.9,426,194.2,429.7,188.6z M74,325.7c-15.7-7.3-29.5-17.3-40.2-31.1c-1.8-2.3-3.5-4.8-5.6-6.9c-0.9-0.9-2.8-1.5-4-1.2
		c-1.1,0.3-2.6,1.9-2.7,3c-1,8.1-2.2,16.2-2.5,24.4c-0.9,21.6,0.1,43.3-2.6,64.6c-3.2,24.6-0.8,49-0.8,73.5
		c0.1,18,7.7,32.6,19.7,45.8c22.1,24.4,48.5,41.5,80.1,50.4c39,11.1,78,10.8,116.4-2.2c22.1-7.5,23.5-11.3,20.9-34.7
		c-2.2-20-3.7-40-5.3-58.1c2-15.2,2.5-28.7,1.3-42c-1-11.1-3-22.1-5-33c-0.8-4.3-2.8-10-7.2-10.5c-11.2-1.3-21-8.6-31.7-8.8
		c-21.1-0.5-41.2-6.3-61.9-8.4 M199.6,341.7c17,1,30.7-4.7,40.7-18.8c4.3-6,9.2-11.7,13.9-17.4c17.8-22,29.2-44.1,47.3-65.8
		c14.3-17.1,23.7-33.2,37.6-50.6c15.8-19.7,42.8-40.2,57.7-60.6c11.9-16.2,23.3-32.7,35-49c5.1-7.1,12.5-12.8,13.6-22.4
		c-10.6-4-17.5,4.7-26.2,7.6c-2.8,0.9-5,3.1-7.7,4.5c-25,13.1-49.9,26.4-75.2,39c-17.9,8.9-36.5,16.7-54.6,25.2
		c-8.7,4.1-17.1,9-24.1,16c-3.8,3.8-6,7.6-5.3,13.7c2.7,23.2-4.4,43.9-17.5,62.9c-15.8,22.9-37.4,32.8-65.2,29.5
		c-15.5-1.8-26.1-9.9-32.9-23.4c-2-4-3.1-8.4-4.8-12.4c-3.8-8.9-5.8-9.5-15.4-5.4c-21.1,9.2-42.3,18.3-63.4,27.5
		c-3.4,1.5-6.8,3-10,4.8c-10.9,6.1-12.6,10.3-6.8,21.7c6.4,12.7,15,23.9,26.5,32.6c21.1,15.9,45.3,26.1,70.4,32.2
		C154.9,338.2,177.5,338.9,199.6,341.7z M270.9,530.9c4.6,0.1,5.8-2.8,7.6-5c10.4-12.6,20.2-25.8,31.3-37.7
		c37.6-40.7,66.8-87.3,96-134c3.2-5.1,3.7-9.1-1.4-13.4c-3.2-2.7-3-6.6,0-9.8c2.2-2.4,5.2-3.3,8-1.2c4.5,3.5,8,3,11.1-1.8
		c3.6-5.7,7.1-11.4,10.8-16.9c3.9-5.9,6-11.2,1.3-18.3c-2.8-4.3,1.2-10.3,5.8-8.9c9.2,2.7,14.1-1.6,18.3-8.2
		c4.4-6.9,8.6-13.9,12.7-21c1.9-3.3,1.5-6.7,0.6-10.6c-2.2-8.8-1.9-9.5,6.6-11.9c4.7-1.3,7.9-3.3,10.6-7.1
		c5.6-7.8,7.2-16.2,4.9-25.3c-0.5-2.1-1.3-4.8-3.9-4.7c-1.9,0.1-4.4,1.4-5.3,3c-14.1,23.7-30.1,46-47.6,67.3
		c-24.1,29.3-47.3,59.2-71,88.8c-25.2,31.3-49.7,63-71.3,97c-5.2,8.1-9.5,16.4-19.7,20.1c-5.3,1.9-9.5,7.5-9.2,14.2
		C267.9,500.6,267.4,516,270.9,530.9z M487.1,136.4c-8.3,5.3-12.3,12.4-17,19.1c-14.7,21.5-28.4,43.8-44.8,63.9
		c-34.2,42.1-66.7,85.6-99.6,128.7c-18.1,23.6-34.3,48.7-56.7,68.8c-2,1.8-3.1,5.1-3.4,7.9c-0.9,7.4-1.3,14.8-1.5,22.2
		c0,1.9,1.1,4.3,2.5,5.5c1.9,1.8,4.4,0.4,6-1.1c9.2-8.6,18.2-17.3,25.6-27.8c14-20.1,28.8-39.8,43.8-59.2
		c21.4-27.6,43.3-54.9,65-82.3c26.8-33.8,53.7-67.6,74.4-105.7c1.4-2.6,3.5-4.8,5.4-7.1C495.7,158.5,492.4,147.9,487.1,136.4z
		 M183.6,171.7c0.7-15.3-0.3-16.5-10.8-16.4c-14.8,0.1-24.1,6.5-28.1,20.4c-5.2,18.1-1.7,35.5,7.3,51.6c4.5,8,12.1,12.7,21.6,14.1
		c21,3.3,39.9-7.2,50.1-28.8c3.8-8,6.3-16.7,9.7-24.9c2.8-6.8,1.4-13.1-1.8-19.3c-6.5-12.4-18.2-13.5-26.5-2.6
		c-3.6,4.7-5.1,10.7-10,14.6c-3.5,2.7-10.1,1-10.9-3.3C183.7,174.3,183.6,171.3,183.6,171.7z"/>
        </g>
        <path d="M34.2,462.3"/>

	</symbol>

	<symbol viewBox="0 0 512 452" id="calendar">

        <path d="M403.9,299.9c-1.2-12.1-2.4-23.5-2.7-33.4c-0.5-16.2-1-32.5-1.4-48.7c-1.2-41.7-2.4-84.8-4.4-127.1
		c-0.2-3.3-1.9-5.9-4.8-7.3l-0.4-0.2l0.1-0.4c2.3-9.8-0.8-21-8.1-28.6c-9.4-9.9-24.6-12.9-40.8-8.1l-0.6,0.2l-0.1-0.6
		c-1.5-12.3-7-25.4-14.3-34.2c-6.3-7.6-16.8-11.6-25.6-9.8C294,3,289.1,7.7,286.9,14.9c-1.1,3.7,1.7,5.4,2.6,5.8l0.4,0.2l-0.2,0.4
		c-3,7.9-4.8,15.2-5.4,21.9l-0.1,0.8l-0.7-0.4c-1.1-0.6-2.1-0.8-3.3-0.7c-41,3.4-82.3,2.3-122.2,1.3l-2-0.1l0-0.5
		c0.7-14.9-1.7-34.2-17.5-41.1c-7.6-3.4-18.2-2.3-25.1,2.4c-3.5,2.4-7.5,6.8-7.1,14l0,0.1l0,0.1c-0.2,0.7-0.3,1.4-0.2,2.1
		c0.8,5.7,0.4,12.4-0.1,19.5c-0.2,3-0.4,6-0.5,9l0,0.6l-0.6-0.2c-0.1,0-0.2-0.1-0.3-0.1c-0.1,0-0.1-0.1-0.2-0.1
		c-7.9-1.4-15.9-2-23.8-2C57.8,47.8,35.6,53,19.3,58c-2.6,0.8-4.4,3.2-4.3,5.7c0.2,5.8,0.7,11.8,1.7,19.7l0,0.1l0,0.1
		C10.1,135.1,8.6,188,7.1,239.2c-0.2,7.1-0.4,14.2-0.6,21.2c-0.4,12-1.6,25.2-3,39.1c-3.3,34.3-7,73.1,2.7,102.1
		c18.1,53.9,101.7,49.3,157,46.2c9.1-0.5,17.6-1,24.7-1.1c49.8-0.9,107.5-2.8,160.5-14.4c21.4-4.7,37.4-9.5,48.5-29.8
		C411.7,375.8,407.5,335.5,403.9,299.9z M298.9,21.1c0.6-2.2,1.2-4.3,1.7-6.4c0.1-0.5,0.1-1,0-1.5l-0.1-0.3l0.3-0.2
		c6.4-3.9,16,5.1,18.5,9.2c2.5,4,4.2,8.4,5.6,12.2c2.8,7.8,6.1,19.3,2.4,28.7c-2.8,7.2-7.6,8.8-11.1,8.9c-0.1,0-0.2,0-0.3,0
		c-7.1,0-15.5-6.2-18.9-14C291.9,45.9,295.5,33.3,298.9,21.1z M115.2,22c0-0.1,0.1-0.2,0.1-0.3c0.1-0.2,0.1-0.3,0.2-0.5
		c1.1-6.5,5.6-10.1,12.4-9.9c7.5,0.2,12.8,5.4,15.2,15c1.3,5.1,1.8,11.3,1.4,17.9l0,0.2l-0.2,0.1c-0.8,0.6-1.4,1.7-1.5,2.8
		c-0.1,1,0.2,2,0.9,2.7l0.2,0.2l0,0.2c-0.5,3.6-1.2,6.7-2,9.4c-1.3,4.2-3.6,12-9.9,13.7c-0.9,0.2-1.8,0.4-2.7,0.4
		c-1.8,0-3.4-0.5-5-1.6c-5.3-3.6-7.6-12.4-8.2-17.1c-0.6-5.3-0.5-10.6-0.4-15.8c0.1-5.6,0.2-11.4-0.6-17.2l0-0.1L115.2,22z
		 M24.9,78.3c0.5-3.4,0.9-6.7,1.2-9.3l0-0.4l0.3-0.1c23.5-5.2,46-6.1,69.8-7c2.2-0.1,4.4-0.2,6.7-0.3c0.8,0,1.5-0.2,2.3-0.6l0.6-0.3
		l0.1,0.7c1.3,12.1,6.5,19.5,16.4,23.2c6.1,2.3,11.7,2,16.7-1c9.5-5.5,14.6-19,16.1-28.8c0-0.2,0.1-0.4,0.1-0.6c0-0.2,0-0.4,0.1-0.6
		l0.1-0.5l0.5,0.1c36.6,6.6,77.3,7.6,124.5,3c1.4-0.1,2.5-0.7,3.7-1.6l0.7-0.6l0.1,0.9c1.3,9.1,5.2,16.3,12,22
		c7.3,6.1,16.8,8.4,25.4,6.1c7.9-2.1,13.9-7.8,16.8-15.9c1-2.7,1.6-5.8,1.9-9.9l0-0.4l0.4-0.1c9.3-1.6,21.2-2.4,29.9,5.2
		c7.6,6.5,8.7,16.7,2.7,24.7c-1.1,1.5-1.4,3.1-0.9,4.7c0.6,2.1,2.5,3.9,4.8,4.7l0.3,0.1l0,0.3c0.1,6.9,0.3,13.9,0.5,20.7
		c0.1,4.7,0.3,9.3,0.4,14l0,0.5l-0.7,0c-1.5,0-3.1,0-4.6,0c-135.4,0-245.4,3.9-345.8,12.4c0,0,0,0-0.1,0l-0.6,0.1l0-0.6
		c0.4-22.5,0.3-42.2-0.3-60.3c-0.1-1.8-0.7-3.2-2.1-4.1l-0.3-0.2L24.9,78.3z M386.1,354.5c-5.5,31.2-26.2,52.1-63.5,63.8
		c-29.3,9.2-67.2,9.8-100.7,10.3c-7.9,0.1-15.4,0.2-22.6,0.5c-6.7,0.2-13.5,0.5-20.7,0.9c-12.6,0.6-25.4,1.2-38,1.2
		c-14.9,0-29.6-0.8-43.5-3.5c-16.4-3.1-33.7-11.5-47.5-23.1c-15.1-12.6-25.2-28.2-28.7-44c-2.5-11.5-1.3-24.9-0.1-37.9
		c0.6-6.2,1.1-12.1,1.2-17.7c0.6-24.5,1.6-49.4,2.5-73.5c1-25.5,2.1-51.9,2.6-77.8l0-0.5l0.5,0c0.1,0,0.2,0,0.3,0.1
		c49.1-0.5,98.9-1.3,147.1-2.2c66.7-1.1,135.6-2.3,203.5-2.6c0,0,0.1,0,0.2,0c0.1,0,0.2-0.1,0.4-0.1l0.5,0l0,0.5
		c1,36.8,2.2,74.2,3.4,110.4c0.6,17.1,1.1,34.2,1.7,51.3c0.1,4.4,0.6,9.1,1,14.1C386.7,334.8,387.7,345.4,386.1,354.5z"/>
        <path d="M327.4,192.2c-0.4-0.3-1-0.3-1.5-0.1l-0.5,0.2l-0.2-0.5c-0.1-0.3-0.3-0.7-0.9-0.7c-17.8,0.5-38.5,1.2-58.7,2.6
		c-0.2,0-0.4,0.1-0.5,0.3c-0.1,0.2,0,0.4,0.1,0.5l0.1,0.2l0.5,0c18.3,1.8,38.6,1.3,58.8-1.5l0.6-0.1l0,0.6
		c-0.1,5.5-0.2,11.1-0.4,16.6c-0.4,17.8-0.9,36.1-0.4,54.2l0,0.5l-0.5,0c-6.6,0.4-13.3,0.7-19.8,1.1c-11.7,0.6-23.7,1.2-35.5,2.2
		l-0.5,0l0-0.5c-1.1-11.6-2.2-23.6-2.4-35.7c-0.1-4.5,0-9.1,0.1-13.6c0.2-7.7,0.4-15.6-0.5-23.3l0-0.2l-0.1,0.1
		c-5.9,22.1-2.8,49.8,0.6,74.1c0.1,0.4,0.3,0.6,0.6,0.7c0.5,0.2,1.2,0,1.5-0.3l0.2-0.2l0.2,0c15.8,1.2,33.6,0.6,56-1.8
		c0.6-0.1,0.9-0.4,1.1-0.7c0.3-0.4,0.4-0.9,0.2-1.4l-0.1-0.3l0.2-0.2c0.1-0.1,0.2-0.3,0.2-0.5c1.2-18.1,1.5-36.6,1.8-54.5
		c0.1-5.7,0.2-11.5,0.3-17.2C328,192.8,327.8,192.4,327.4,192.2z"/>
        <path d="M328,191.4c-0.6-0.4-1.3-0.5-2-0.3c-0.4-0.6-1-0.9-1.7-0.9c-17.8,0.5-38.5,1.2-58.8,2.6c-0.6,0-1.1,0.4-1.3,0.9
		c-0.2,0.4-0.1,0.9,0,1.2c0,0,0,0,0,0.1c-6,22.3-2.9,50.2,0.5,74.6c0.1,0.7,0.6,1.3,1.3,1.5c0.8,0.3,1.7,0.1,2.4-0.4
		c5.2,0.4,10.6,0.6,16.4,0.6c11.7,0,24.6-0.8,39.7-2.4c0.8-0.1,1.4-0.5,1.8-1.1c0.4-0.6,0.5-1.3,0.4-2c0.2-0.3,0.2-0.5,0.3-0.8
		c1.2-18.1,1.5-36.6,1.8-54.5c0.1-5.7,0.2-11.5,0.3-17.2C329,192.5,328.6,191.8,328,191.4z M327.7,210.5
		c-0.3,17.9-0.6,36.4-1.8,54.5c0,0.2-0.1,0.3-0.2,0.5l-0.2,0.2l0.1,0.3c0.1,0.5,0.1,1-0.2,1.4c-0.2,0.3-0.5,0.6-1.1,0.7
		c-22.4,2.4-40.2,3-56,1.8l-0.2,0l-0.2,0.2c-0.4,0.4-1,0.5-1.5,0.3c-0.4-0.1-0.6-0.4-0.6-0.7c-3.4-24.3-6.5-52.1-0.6-74.1l0.1-0.1
		l0,0.2c0.9,7.6,0.7,15.6,0.5,23.3c-0.1,4.5-0.2,9.1-0.1,13.6c0.3,12.1,1.4,24.1,2.4,35.7l0,0.5l0.5,0c11.8-1,23.8-1.6,35.5-2.2
		c6.5-0.3,13.2-0.6,19.8-1.1l0.5,0l0-0.5c-0.5-18,0-36.4,0.4-54.2c0.1-5.5,0.3-11.1,0.4-16.6l0-0.6l-0.6,0.1
		c-20.2,2.8-40.5,3.3-58.8,1.5l-0.5,0l-0.1-0.2c-0.1-0.1-0.2-0.4-0.1-0.5c0.1-0.2,0.2-0.3,0.5-0.3c20.3-1.4,40.9-2.1,58.7-2.6
		c0.6,0,0.8,0.4,0.9,0.7l0.2,0.5l0.5-0.2c0.5-0.2,1.1-0.2,1.5,0.1c0.3,0.2,0.5,0.6,0.5,1.1C327.8,199,327.8,204.8,327.7,210.5z
		 M323.3,264.1c-6.4,0.4-13,0.7-19.3,1c-11.5,0.6-23.4,1.1-35,2.2c-1-11.5-2.1-23.3-2.4-35.1c-0.1-4.5,0-9.1,0.1-13.5
		c0.2-7.5,0.4-15.3-0.5-22.8c18,1.7,38,1.2,57.8-1.5c-0.1,5.3-0.2,10.7-0.4,16C323.3,228,322.8,246.2,323.3,264.1z"/>
        <path class="st0" d="M327.4,288.9c-0.4-0.3-1-0.3-1.5-0.1l-0.5,0.2l-0.2-0.5c-0.1-0.3-0.3-0.7-0.9-0.7c-17.8,0.5-38.5,1.2-58.7,2.6
		c-0.2,0-0.4,0.1-0.5,0.3c-0.1,0.2,0,0.4,0.1,0.5l0.1,0.2l0.5,0c18.3,1.8,38.6,1.3,58.8-1.5l0.6-0.1l0,0.6
		c-0.1,5.5-0.2,11.1-0.4,16.6c-0.4,17.8-0.9,36.1-0.4,54.2l0,0.5l-0.5,0c-6.6,0.4-13.3,0.7-19.8,1.1c-11.7,0.6-23.7,1.2-35.5,2.2
		l-0.5,0l0-0.5c-1.1-11.6-2.2-23.6-2.4-35.7c-0.1-4.5,0-9.1,0.1-13.6c0.2-7.7,0.4-15.6-0.5-23.3l0-0.2l-0.1,0.1
		c-5.9,22.1-2.8,49.8,0.6,74.1c0.1,0.4,0.3,0.6,0.6,0.7c0.5,0.2,1.2,0,1.5-0.3l0.2-0.2l0.2,0c15.8,1.2,33.6,0.6,56-1.8
		c0.6-0.1,0.9-0.4,1.1-0.7c0.3-0.4,0.4-0.9,0.2-1.4l-0.1-0.3l0.2-0.2c0.1-0.1,0.2-0.3,0.2-0.5c1.2-18.1,1.5-36.6,1.8-54.5
		c0.1-5.7,0.2-11.5,0.3-17.2C328,289.5,327.8,289.1,327.4,288.9z"/>
        <path d="M328,288.1c-0.6-0.4-1.3-0.5-2-0.3c-0.4-0.6-1-0.9-1.7-0.9c-17.8,0.5-38.5,1.2-58.8,2.6c-0.6,0-1.1,0.4-1.3,0.9
		c-0.2,0.4-0.1,0.9,0,1.2c0,0,0,0,0,0.1c-6,22.3-2.9,50.2,0.5,74.6c0.1,0.7,0.6,1.3,1.3,1.5c0.8,0.3,1.7,0.1,2.4-0.4
		c5.2,0.4,10.6,0.6,16.4,0.6c11.7,0,24.6-0.8,39.7-2.4c0.8-0.1,1.4-0.5,1.8-1.1c0.4-0.6,0.5-1.3,0.4-2c0.2-0.3,0.2-0.5,0.3-0.8
		c1.2-18.1,1.5-36.6,1.8-54.5c0.1-5.7,0.2-11.5,0.3-17.2C329,289.2,328.6,288.5,328,288.1z M327.7,307.2
		c-0.3,17.9-0.6,36.4-1.8,54.5c0,0.2-0.1,0.3-0.2,0.5l-0.2,0.2l0.1,0.3c0.1,0.5,0.1,1-0.2,1.4c-0.2,0.3-0.5,0.6-1.1,0.7
		c-22.4,2.4-40.2,3-56,1.8l-0.2,0l-0.2,0.2c-0.4,0.4-1,0.5-1.5,0.3c-0.4-0.1-0.6-0.4-0.6-0.7c-3.4-24.3-6.5-52.1-0.6-74.1l0.1-0.1
		l0,0.2c0.9,7.6,0.7,15.6,0.5,23.3c-0.1,4.5-0.2,9.1-0.1,13.6c0.3,12.1,1.4,24.1,2.4,35.7l0,0.5l0.5,0c11.8-1,23.8-1.6,35.5-2.2
		c6.5-0.3,13.2-0.6,19.8-1.1l0.5,0l0-0.5c-0.5-18,0-36.4,0.4-54.2c0.1-5.5,0.3-11.1,0.4-16.6l0-0.6l-0.6,0.1
		c-20.2,2.8-40.5,3.3-58.8,1.5l-0.5,0l-0.1-0.2c-0.1-0.1-0.2-0.4-0.1-0.5c0.1-0.2,0.2-0.3,0.5-0.3c20.3-1.4,40.9-2.1,58.7-2.6
		c0.6,0,0.8,0.4,0.9,0.7l0.2,0.5l0.5-0.2c0.5-0.2,1.1-0.2,1.5,0.1c0.3,0.2,0.5,0.6,0.5,1.1C327.8,295.7,327.8,301.4,327.7,307.2z
		 M323.3,360.8c-6.4,0.4-13,0.7-19.3,1c-11.5,0.6-23.4,1.1-35,2.2c-1-11.5-2.1-23.3-2.4-35.1c-0.1-4.5,0-9.1,0.1-13.5
		c0.2-7.5,0.4-15.3-0.5-22.8c18,1.7,38,1.2,57.8-1.5c-0.1,5.3-0.2,10.7-0.4,16C323.3,324.7,322.8,342.9,323.3,360.8z"/>
        <path d="M241,288.9c-0.4-0.3-1-0.3-1.5-0.1L239,289l-0.2-0.5c-0.1-0.3-0.3-0.7-0.9-0.7c-17.8,0.5-38.5,1.2-58.7,2.6
		c-0.2,0-0.4,0.1-0.5,0.3c-0.1,0.2,0,0.4,0.1,0.5l0.1,0.2l0.5,0c18.3,1.8,38.6,1.3,58.8-1.5l0.6-0.1l0,0.6
		c-0.1,5.5-0.2,11.1-0.4,16.6c-0.4,17.8-0.9,36.1-0.4,54.2l0,0.5l-0.5,0c-6.6,0.4-13.3,0.7-19.8,1.1c-11.7,0.6-23.7,1.2-35.5,2.2
		l-0.5,0l0-0.5c-1.1-11.6-2.2-23.6-2.4-35.7c-0.1-4.5,0-9.1,0.1-13.6c0.2-7.7,0.4-15.6-0.5-23.3l0-0.2l-0.1,0.1
		c-5.9,22.1-2.8,49.8,0.6,74.1c0.1,0.4,0.3,0.6,0.6,0.7c0.5,0.2,1.2,0,1.5-0.3l0.2-0.2l0.2,0c15.8,1.2,33.6,0.6,56-1.8
		c0.6-0.1,0.9-0.4,1.1-0.7c0.3-0.4,0.4-0.9,0.2-1.4l-0.1-0.3l0.2-0.2c0.1-0.1,0.2-0.3,0.2-0.5c1.2-18.1,1.5-36.6,1.8-54.5
		c0.1-5.7,0.2-11.5,0.3-17.2C241.6,289.5,241.4,289.1,241,288.9z"/>
        <path d="M241.6,288.1c-0.6-0.4-1.3-0.5-2-0.3c-0.4-0.6-1-0.9-1.7-0.9c-17.8,0.5-38.5,1.2-58.8,2.6c-0.6,0-1.1,0.4-1.3,0.9
		c-0.2,0.4-0.1,0.9,0,1.2c0,0,0,0,0,0.1c-6,22.3-2.9,50.2,0.5,74.6c0.1,0.7,0.6,1.3,1.3,1.5c0.8,0.3,1.7,0.1,2.4-0.4
		c5.2,0.4,10.6,0.6,16.4,0.6c11.7,0,24.6-0.8,39.7-2.4c0.8-0.1,1.4-0.5,1.8-1.1c0.4-0.6,0.5-1.3,0.4-2c0.2-0.3,0.2-0.5,0.3-0.8
		c1.2-18.1,1.5-36.6,1.8-54.5c0.1-5.7,0.2-11.5,0.3-17.2C242.6,289.2,242.2,288.5,241.6,288.1z M241.3,307.2
		c-0.3,17.9-0.6,36.4-1.8,54.5c0,0.2-0.1,0.3-0.2,0.5l-0.2,0.2l0.1,0.3c0.1,0.5,0.1,1-0.2,1.4c-0.2,0.3-0.5,0.6-1.1,0.7
		c-22.4,2.4-40.2,3-56,1.8l-0.2,0l-0.2,0.2c-0.4,0.4-1,0.5-1.5,0.3c-0.4-0.1-0.6-0.4-0.6-0.7c-3.4-24.3-6.5-52.1-0.6-74.1l0.1-0.1
		l0,0.2c0.9,7.6,0.7,15.6,0.5,23.3c-0.1,4.5-0.2,9.1-0.1,13.6c0.3,12.1,1.4,24.1,2.4,35.7l0,0.5l0.5,0c11.8-1,23.8-1.6,35.5-2.2
		c6.5-0.3,13.2-0.6,19.8-1.1l0.5,0l0-0.5c-0.5-18,0-36.4,0.4-54.2c0.1-5.5,0.3-11.1,0.4-16.6l0-0.6l-0.6,0.1
		c-20.2,2.8-40.5,3.3-58.8,1.5l-0.5,0l-0.1-0.2c-0.1-0.1-0.2-0.4-0.1-0.5c0.1-0.2,0.2-0.3,0.5-0.3c20.3-1.4,40.9-2.1,58.7-2.6
		c0.6,0,0.8,0.4,0.9,0.7l0.2,0.5l0.5-0.2c0.5-0.2,1.1-0.2,1.5,0.1c0.3,0.2,0.5,0.6,0.5,1.1C241.4,295.7,241.4,301.4,241.3,307.2z
		 M236.9,360.8c-6.4,0.4-13,0.7-19.3,1c-11.5,0.6-23.4,1.1-35,2.2c-1-11.5-2.1-23.3-2.4-35.1c-0.1-4.5,0-9.1,0.1-13.5
		c0.2-7.5,0.4-15.3-0.5-22.8c18,1.7,38,1.2,57.8-1.5c-0.1,5.3-0.2,10.7-0.4,16C236.9,324.7,236.4,342.9,236.9,360.8z"/>
        <path d="M241,192.2c-0.4-0.3-1-0.3-1.5-0.1l-0.5,0.2l-0.2-0.5c-0.1-0.3-0.3-0.7-0.9-0.7c-17.8,0.5-38.5,1.2-58.7,2.6
		c-0.2,0-0.4,0.1-0.5,0.3c-0.1,0.2,0,0.4,0.1,0.5l0.1,0.2l0.5,0c18.3,1.8,38.6,1.3,58.8-1.5l0.6-0.1l0,0.6
		c-0.1,5.5-0.2,11.1-0.4,16.6c-0.4,17.8-0.9,36.1-0.4,54.2l0,0.5l-0.5,0c-6.6,0.4-13.3,0.7-19.8,1.1c-11.7,0.6-23.7,1.2-35.5,2.2
		l-0.5,0l0-0.5c-1.1-11.6-2.2-23.6-2.4-35.7c-0.1-4.5,0-9.1,0.1-13.6c0.2-7.7,0.4-15.6-0.5-23.3l0-0.2l-0.1,0.1
		c-5.9,22.1-2.8,49.8,0.6,74.1c0.1,0.4,0.3,0.6,0.6,0.7c0.5,0.2,1.2,0,1.5-0.3l0.2-0.2l0.2,0c15.8,1.2,33.6,0.6,56-1.8
		c0.6-0.1,0.9-0.4,1.1-0.7c0.3-0.4,0.4-0.9,0.2-1.4l-0.1-0.3l0.2-0.2c0.1-0.1,0.2-0.3,0.2-0.5c1.2-18.1,1.5-36.6,1.8-54.5
		c0.1-5.7,0.2-11.5,0.3-17.2C241.6,192.8,241.4,192.4,241,192.2z"/>
        <path d="M241.6,191.4c-0.6-0.4-1.3-0.5-2-0.3c-0.4-0.6-1-0.9-1.7-0.9c-17.8,0.5-38.5,1.2-58.8,2.6c-0.6,0-1.1,0.4-1.3,0.9
		c-0.2,0.4-0.1,0.9,0,1.2c0,0,0,0,0,0.1c-6,22.3-2.9,50.2,0.5,74.6c0.1,0.7,0.6,1.3,1.3,1.5c0.8,0.3,1.7,0.1,2.4-0.4
		c5.2,0.4,10.6,0.6,16.4,0.6c11.7,0,24.6-0.8,39.7-2.4c0.8-0.1,1.4-0.5,1.8-1.1c0.4-0.6,0.5-1.3,0.4-2c0.2-0.3,0.2-0.5,0.3-0.8
		c1.2-18.1,1.5-36.6,1.8-54.5c0.1-5.7,0.2-11.5,0.3-17.2C242.6,192.5,242.2,191.8,241.6,191.4z M241.3,210.5
		c-0.3,17.9-0.6,36.4-1.8,54.5c0,0.2-0.1,0.3-0.2,0.5l-0.2,0.2l0.1,0.3c0.1,0.5,0.1,1-0.2,1.4c-0.2,0.3-0.5,0.6-1.1,0.7
		c-22.4,2.4-40.2,3-56,1.8l-0.2,0l-0.2,0.2c-0.4,0.4-1,0.5-1.5,0.3c-0.4-0.1-0.6-0.4-0.6-0.7c-3.4-24.3-6.5-52.1-0.6-74.1l0.1-0.1
		l0,0.2c0.9,7.6,0.7,15.6,0.5,23.3c-0.1,4.5-0.2,9.1-0.1,13.6c0.3,12.1,1.4,24.1,2.4,35.7l0,0.5l0.5,0c11.8-1,23.8-1.6,35.5-2.2
		c6.5-0.3,13.2-0.6,19.8-1.1l0.5,0l0-0.5c-0.5-18,0-36.4,0.4-54.2c0.1-5.5,0.3-11.1,0.4-16.6l0-0.6l-0.6,0.1
		c-20.2,2.8-40.5,3.3-58.8,1.5l-0.5,0l-0.1-0.2c-0.1-0.1-0.2-0.4-0.1-0.5c0.1-0.2,0.2-0.3,0.5-0.3c20.3-1.4,40.9-2.1,58.7-2.6
		c0.6,0,0.8,0.4,0.9,0.7l0.2,0.5l0.5-0.2c0.5-0.2,1.1-0.2,1.5,0.1c0.3,0.2,0.5,0.6,0.5,1.1C241.4,199,241.4,204.8,241.3,210.5z
		 M236.9,264.1c-6.4,0.4-13,0.7-19.3,1c-11.5,0.6-23.4,1.1-35,2.2c-1-11.5-2.1-23.3-2.4-35.1c-0.1-4.5,0-9.1,0.1-13.5
		c0.2-7.5,0.4-15.3-0.5-22.8c18,1.7,38,1.2,57.8-1.5c-0.1,5.3-0.2,10.7-0.4,16C236.9,228,236.4,246.2,236.9,264.1z"/>
        <path d="M152,288.9c-0.4-0.3-1-0.3-1.5-0.1L150,289l-0.2-0.5c-0.1-0.3-0.3-0.7-0.9-0.7c-17.8,0.5-38.5,1.2-58.7,2.6
		c-0.2,0-0.4,0.1-0.5,0.3c-0.1,0.2,0,0.4,0.1,0.5l0.1,0.2l0.5,0c18.3,1.8,38.6,1.3,58.8-1.5l0.6-0.1l0,0.6
		c-0.1,5.5-0.2,11.1-0.4,16.6c-0.4,17.8-0.9,36.1-0.4,54.2l0,0.5l-0.5,0c-6.6,0.4-13.3,0.7-19.8,1.1c-11.7,0.6-23.7,1.2-35.5,2.2
		l-0.5,0l0-0.5c-1.1-11.6-2.2-23.6-2.4-35.7c-0.1-4.5,0-9.1,0.1-13.6c0.2-7.7,0.4-15.6-0.5-23.3l0-0.2l-0.1,0.1
		c-5.9,22.1-2.8,49.8,0.6,74.1c0.1,0.4,0.3,0.6,0.6,0.7c0.5,0.2,1.2,0,1.5-0.3l0.2-0.2l0.2,0c15.8,1.2,33.6,0.6,56-1.8
		c0.6-0.1,0.9-0.4,1.1-0.7c0.3-0.4,0.4-0.9,0.2-1.4l-0.1-0.3l0.2-0.2c0.1-0.1,0.2-0.3,0.2-0.5c1.2-18.1,1.5-36.6,1.8-54.5
		c0.1-5.7,0.2-11.5,0.3-17.2C152.5,289.5,152.3,289.1,152,288.9z"/>
        <path d="M152.5,288.1c-0.6-0.4-1.3-0.5-2-0.3c-0.4-0.6-1-0.9-1.7-0.9c-17.8,0.5-38.5,1.2-58.8,2.6c-0.6,0-1.1,0.4-1.3,0.9
		c-0.2,0.4-0.1,0.9,0,1.2c0,0,0,0,0,0.1c-6,22.3-2.9,50.2,0.5,74.6c0.1,0.7,0.6,1.3,1.3,1.5c0.8,0.3,1.7,0.1,2.4-0.4
		c5.2,0.4,10.6,0.6,16.4,0.6c11.7,0,24.6-0.8,39.7-2.4c0.8-0.1,1.4-0.5,1.8-1.1c0.4-0.6,0.5-1.3,0.4-2c0.2-0.3,0.2-0.5,0.3-0.8
		c1.2-18.1,1.5-36.6,1.8-54.5c0.1-5.7,0.2-11.5,0.3-17.2C153.5,289.2,153.2,288.5,152.5,288.1z M152.2,307.2
		c-0.3,17.9-0.6,36.4-1.8,54.5c0,0.2-0.1,0.3-0.2,0.5l-0.2,0.2l0.1,0.3c0.1,0.5,0.1,1-0.2,1.4c-0.2,0.3-0.5,0.6-1.1,0.7
		c-22.4,2.4-40.2,3-56,1.8l-0.2,0l-0.2,0.2c-0.4,0.4-1,0.5-1.5,0.3c-0.4-0.1-0.6-0.4-0.6-0.7c-3.4-24.3-6.5-52.1-0.6-74.1l0.1-0.1
		l0,0.2c0.9,7.6,0.7,15.6,0.5,23.3c-0.1,4.5-0.2,9.1-0.1,13.6c0.3,12.1,1.4,24.1,2.4,35.7l0,0.5l0.5,0c11.8-1,23.8-1.6,35.5-2.2
		c6.5-0.3,13.2-0.6,19.8-1.1l0.5,0l0-0.5c-0.5-18,0-36.4,0.4-54.2c0.1-5.5,0.3-11.1,0.4-16.6l0-0.6l-0.6,0.1
		c-20.2,2.8-40.5,3.3-58.8,1.5l-0.5,0l-0.1-0.2c-0.1-0.1-0.2-0.4-0.1-0.5c0.1-0.2,0.2-0.3,0.5-0.3c20.3-1.4,40.9-2.1,58.7-2.6
		c0.6,0,0.8,0.4,0.9,0.7l0.2,0.5l0.5-0.2c0.5-0.2,1.1-0.2,1.5,0.1c0.3,0.2,0.5,0.6,0.5,1.1C152.4,295.7,152.3,301.4,152.2,307.2z
		 M147.9,360.8c-6.4,0.4-13,0.7-19.3,1c-11.5,0.6-23.4,1.1-35,2.2c-1-11.5-2.1-23.3-2.4-35.1c-0.1-4.5,0-9.1,0.1-13.5
		c0.2-7.5,0.4-15.3-0.5-22.8c18,1.7,38,1.2,57.8-1.5c-0.1,5.3-0.2,10.7-0.4,16C147.8,324.7,147.4,342.9,147.9,360.8z"/>
        <path d="M152,192.2c-0.4-0.3-1-0.3-1.5-0.1l-0.5,0.2l-0.2-0.5c-0.1-0.3-0.3-0.7-0.9-0.7c-17.8,0.5-38.5,1.2-58.7,2.6
		c-0.2,0-0.4,0.1-0.5,0.3c-0.1,0.2,0,0.4,0.1,0.5l0.1,0.2l0.5,0c18.3,1.8,38.6,1.3,58.8-1.5l0.6-0.1l0,0.6
		c-0.1,5.5-0.2,11.1-0.4,16.6c-0.4,17.8-0.9,36.1-0.4,54.2l0,0.5l-0.5,0c-6.6,0.4-13.3,0.7-19.8,1.1c-11.7,0.6-23.7,1.2-35.5,2.2
		l-0.5,0l0-0.5c-1.1-11.6-2.2-23.6-2.4-35.7c-0.1-4.5,0-9.1,0.1-13.6c0.2-7.7,0.4-15.6-0.5-23.3l0-0.2l-0.1,0.1
		c-5.9,22.1-2.8,49.8,0.6,74.1c0.1,0.4,0.3,0.6,0.6,0.7c0.5,0.2,1.2,0,1.5-0.3l0.2-0.2l0.2,0c15.8,1.2,33.6,0.6,56-1.8
		c0.6-0.1,0.9-0.4,1.1-0.7c0.3-0.4,0.4-0.9,0.2-1.4l-0.1-0.3l0.2-0.2c0.1-0.1,0.2-0.3,0.2-0.5c1.2-18.1,1.5-36.6,1.8-54.5
		c0.1-5.7,0.2-11.5,0.3-17.2C152.5,192.8,152.3,192.4,152,192.2z"/>
        <path d="M152.5,191.4c-0.6-0.4-1.3-0.5-2-0.3c-0.4-0.6-1-0.9-1.7-0.9c-17.8,0.5-38.5,1.2-58.8,2.6c-0.6,0-1.1,0.4-1.3,0.9
		c-0.2,0.4-0.1,0.9,0,1.2c0,0,0,0,0,0.1c-6,22.3-2.9,50.2,0.5,74.6c0.1,0.7,0.6,1.3,1.3,1.5c0.8,0.3,1.7,0.1,2.4-0.4
		c5.2,0.4,10.6,0.6,16.4,0.6c11.7,0,24.6-0.8,39.7-2.4c0.8-0.1,1.4-0.5,1.8-1.1c0.4-0.6,0.5-1.3,0.4-2c0.2-0.3,0.2-0.5,0.3-0.8
		c1.2-18.1,1.5-36.6,1.8-54.5c0.1-5.7,0.2-11.5,0.3-17.2C153.5,192.5,153.2,191.8,152.5,191.4z M152.2,210.5
		c-0.3,17.9-0.6,36.4-1.8,54.5c0,0.2-0.1,0.3-0.2,0.5l-0.2,0.2l0.1,0.3c0.1,0.5,0.1,1-0.2,1.4c-0.2,0.3-0.5,0.6-1.1,0.7
		c-22.4,2.4-40.2,3-56,1.8l-0.2,0l-0.2,0.2c-0.4,0.4-1,0.5-1.5,0.3c-0.4-0.1-0.6-0.4-0.6-0.7c-3.4-24.3-6.5-52.1-0.6-74.1l0.1-0.1
		l0,0.2c0.9,7.6,0.7,15.6,0.5,23.3c-0.1,4.5-0.2,9.1-0.1,13.6c0.3,12.1,1.4,24.1,2.4,35.7l0,0.5l0.5,0c11.8-1,23.8-1.6,35.5-2.2
		c6.5-0.3,13.2-0.6,19.8-1.1l0.5,0l0-0.5c-0.5-18,0-36.4,0.4-54.2c0.1-5.5,0.3-11.1,0.4-16.6l0-0.6l-0.6,0.1
		c-20.2,2.8-40.5,3.3-58.8,1.5l-0.5,0l-0.1-0.2c-0.1-0.1-0.2-0.4-0.1-0.5c0.1-0.2,0.2-0.3,0.5-0.3c20.3-1.4,40.9-2.1,58.7-2.6
		c0.6,0,0.8,0.4,0.9,0.7l0.2,0.5l0.5-0.2c0.5-0.2,1.1-0.2,1.5,0.1c0.3,0.2,0.5,0.6,0.5,1.1C152.4,199,152.3,204.8,152.2,210.5z
		 M147.9,264.1c-6.4,0.4-13,0.7-19.3,1c-11.5,0.6-23.4,1.1-35,2.2c-1-11.5-2.1-23.3-2.4-35.1c-0.1-4.5,0-9.1,0.1-13.5
		c0.2-7.5,0.4-15.3-0.5-22.8c18,1.7,38,1.2,57.8-1.5c-0.1,5.3-0.2,10.7-0.4,16C147.8,228,147.4,246.2,147.9,264.1z"/>

	</symbol>
</svg>