<?xml version="1.0" encoding="utf-8"?>
<!-- Generator: Adobe Illustrator 22.1.0, SVG Export Plug-In . SVG Version: 6.00 Build 0)  -->
<svg version="1.1" id="Слой_1" xmlns="http://www.w3.org/2000/svg" xmlns:xlink="http://www.w3.org/1999/xlink" x="0px" y="0px"
	 viewBox="0 0 219.2 99.7" style="enable-background:new 0 0 219.2 99.7;" xml:space="preserve">
<style type="text/css">
	.st0{fill:#FFFFFF;}
</style>
<g>
	<path class="st0" d="M154.1,41.3c-1.5-0.7-3.1-0.9-4.6-0.5c0.6-1.4,1-2.9,1-4.5c0-1-1.5-0.9-1.5,0.1c0.1,1.6-0.5,3.2-1.2,4.7
		c-1.2-1-2.6-2.2-4.1-2.3c-1-0.1-1.3,1.4-0.3,1.5c1.2,0.1,2.6,1.2,3.6,2.1c0,0.1,0,0.2,0,0.3c-0.8,1.6-1.6,3.1-2,4.8
		c-0.2,0.9,1.3,1.3,1.5,0.3c0.4-1.5,1-2.9,1.7-4.3c1.1,0.9,2.1,2,2.9,3.2c0.6,0.8,1.8,0,1.3-0.8c-0.9-1.3-1.9-2.3-3.1-3.3
		c1.3-0.5,2.7-0.4,4,0.2C154.2,43.1,154.9,41.7,154.1,41.3z"/>
	<path class="st0" d="M103.2,67.8c-0.6-1.5-2-2.3-3.6-1.7c-1.5,0.5-2.1,2.2-1.7,3.6c0.4,1.5,2.1,2.6,3.5,1.6c0,0,0.1-0.1,0.1-0.1
		C103,70.7,103.9,69.4,103.2,67.8z"/>
	<path class="st0" d="M104.8,76.9c-0.8-2-2.8-3.2-4.9-2.3c-1.6,0.7-3.3,2.9-2.7,4.6c0.3,0.7,1,1.9,1.7,2.3c1,0.6,2.6,0.4,3.6,0.3
		c0.3-0.1,0.5-0.3,0.6-0.5C104.7,80.6,105.5,78.5,104.8,76.9z"/>
	<path class="st0" d="M219.1,49.6c-0.6-2.3-3-3.4-5.2-3c-2.8,0.6-4.1,3.2-4.7,5.7c-0.2,1,1.3,1.3,1.5,0.3c0.3-1.4,2.2-6.4,4.9-4.6
		c0.6,1.4,1.3,2.9,1.9,4.3c-0.3,1-0.7,1.9-1.1,2.9c-1.5,3-4,5-7.6,4.5c-4.6-0.8-8.6-4.7-9.6-9.3c0.4-0.4,0.8-0.8,1.2-1.2
		c0.1-0.1,0.2-0.2,0.2-0.4c5.4-4.2,10.7-10.3,12-17.1c0.3-1.8,0.6-4.4-1.2-5.6c-2.2-1.5-4.5,0.3-5.9,2c-1.6,2-3.2,4.4-4.5,7.1
		c-0.1-1.3-0.3-2.5-0.6-3.7c-0.5-1.9-1.6-7-4.2-6.9c-3.1,0-2.7,5.1-2.6,7.1c0.1,2.2,0.4,4.4,1,6.5c0.9,3.1,2.6,5.8,2.4,9.1
		c0,0.4,0.2,0.6,0.5,0.7c0,0.5,0,0.9,0.1,1.4c-0.4,0.3-0.9,0.6-1.3,0.9c-4.3,2.6-13.2,5.6-16.3-0.2c-0.4-0.8-0.6-1.6-0.7-2.5
		c1.3,0,2.6,0.1,4.1,0.2c2,0.1,5.2-0.2,6-2.6c1.6-4.9-6.1-5.1-8.7-3.2c-1.4,1-2.3,2.4-2.7,3.9c-3,0.1-5.7,1.2-8.1,3.1
		c-0.8,0.6,0,1.9,0.8,1.3c2.4-1.9,4.7-2.5,7.1-2.6c0,2.5,1.3,5,3.8,6.3c4,2.1,9,0.9,13.3-1.2c-2.7,2.4-5.7,4.6-8.9,6.4
		c-2.9,1.6-5.8,2.6-8.8,3.2c-0.2,0-0.3,0-0.5,0.1c-3,0.6-6,1-9.2,1.3c-1.5,0.2-2.9,0.4-4.3,0.6c-0.4-0.3-0.9-0.2-1.1,0.2
		c-4.1,0.7-8.2,1.7-12.3,2c-6.2,0.4-12.4,0.1-18.5-1c-12-2.2-23.7-7-33.4-14.5C93,47.3,88.9,43,85.3,38.3c-1.8-2.4-3.4-4.8-4.9-7.3
		c-1.6-2.7-3.8-5.8-4.3-9.1c1,0.9,2.5,1.6,3.3,2.2c2.7,1.8,5.4,4.3,8.5,5.5c3.1,1.2,6.2,0.1,7.7-2.5c1.8-0.2,3.6-1,5.2-1.6
		c1.7-0.6,3.5-1.2,5.3-1.6c0.7-0.2,1.3-0.4,2-0.5c0.9-0.2,1.7-0.4,2.6-0.6c2.2-0.8,3.8,0.3,4.8,3.4c-0.5,0.9,0.9,1.6,1.3,0.7
		c1.3-2.4-0.2-5-2.8-5.7c-4.7-1.2-11.2,2-15.5,3.5c-0.7,0.3-1.4,0.5-2.1,0.6c0,0-0.1,0-0.2,0c0.1-0.3,0.1-0.5,0.2-0.8
		c0.4-2.9-2.8-6.5-5.5-3.8c-2.3,2.3,0,5.6,2.6,6.2c0.1,0,0.2,0,0.3,0c-0.2,0.2-0.3,0.4-0.3,0.4c-1.2,0.9-3.6,1.2-4.9,0.8
		c-3-1-5.8-3.6-8.4-5.4c-1.4-1-2.1-2.1-2.4-3.2c0.4-0.2,0.8-0.4,1.2-0.7c4.3-2.6,8.5-5.5,11.4-9.7c1.8-2.7,3.3-7.2-0.8-8.6
		c-3.9-1.4-6.9,2.5-8.5,5.5c-1.4,2.7-2.6,5.6-3.8,8.4c-0.1,0.1-0.1,0.3-0.2,0.4c2.2-5.7,2.7-12.4-2.6-14.6c-3-1.2-5.9,0.9-6.7,3.9
		c-1.1,4,1,9.8,3.2,13.1c0.7,1.1,1.4,1.8,2.1,2.3c-0.3,0.4-0.6,0.8-0.9,1.2c-3.4,4-11.2,7.8-16.4,5c-0.9-0.5-1.5-1.2-1.9-2
		c0.4,0,0.8-0.1,1.2-0.2c3.3-0.7,6.8-3.5,5.8-7.2c-0.7-2.8-3.8-4.4-6.3-2.6c-2.3,1.6-3.2,5.7-2.8,8.6c-1.9-0.1-3.8-0.4-5.3-0.5
		c-4.9-0.2-8.9,1.7-11.5,5.8c-0.5,0.8,0.8,1.5,1.3,0.7c2.2-3.5,5.6-5.1,9.6-5.1c2.1,0,4.2,0.4,6.2,0.5c2.7,8.1,15.9,3.1,20-0.9
		c0.7-0.7,1.4-1.6,2.2-2.7c0.1,0,0.2,0,0.3,0c0,2.7,1,5.5,2.4,8.1c0,0,0,0,0,0.1c-2.5,5-4.6,10.1-6.6,15.3c-0.1,0.1-0.2,0.3-0.2,0.6
		c-1,2.5-1.9,5.1-2.9,7.7c-1.4,3.9-2.9,7.8-4.3,11.7c-0.4,1.1-1.3,2.7,0.1,3.5c1.7,1,5.1-1.3,6.7-1.9c1.8-0.7,3.3-1.7,4.8-2.7
		c0.4,0.3,1.3,0.1,1.3-0.6c0-0.1,0-0.2,0-0.3c0.6-0.4,1.2-0.8,1.8-1.3c1.3-0.9,2.5-1.7,3.8-2.6c0.3,0,0.5-0.1,0.6-0.4
		c1.1-0.8,2.2-1.6,3.3-2.4c0.3,0,0.6-0.1,0.7-0.5c0.3-0.2,0.5-0.4,0.8-0.6c2.3-1.6,4.8-2.5,6.6-4.6c0.1,0.1,0.1,0.1,0.2,0.2
		c1.6,1.4,3.2,2.6,4.9,3.9c-1.6,7.7-3.1,15.5-4.7,23.2c-0.5,2.4-2.8,12.5,0.8,13.5c1.5,0.4,3.9-1.6,5-2.3c2.7-1.7,4.8-4.1,6.9-6.5
		c2.1-2.5,4.5-4.7,6.6-7c2.7-3,5-6.5,7.4-9.7c0.1-0.1,0.1-0.2,0.1-0.3c2.4,0.8,4.9,1.4,7.4,2c0.3,0.1,0.6,0.1,0.9,0.2
		c-0.2,1.6-0.2,3.3-0.2,4.9c0,0.2,0,0.3,0,0.5c0.4,10,4.9,20.2,13.3,25.9c1.2,0.8,3.7,2.6,5.3,1.6c1.8-1.2,1.2-5.6,1.4-7.5
		c0.6-6.1,1.1-12.2,2.3-18.1c0.2-0.2,0.3-0.5,0.2-0.8c0.4-1.8,0.9-3.6,1.4-5.4c3.2-0.4,6.4-1.1,9.6-1.6c4.1,6.1,9.9,10.5,14.3,16.5
		c2.5,3.5,5.1,7,7.6,10.5c0.8,1.1,2.3,4.2,4.2,3.5c1.6-0.5,2.3-3.5,2.7-4.9c1.2-3.7,1.7-7.8,2.2-11.7c1-7.9,1.1-15.9-0.3-23.8
		c1.7-1.3,3.3-2.8,4.9-4.3c1.5,4.9,5.8,9,11,9.6c3.1,0.3,5.7-0.7,7.5-3.2C217.9,56,219.8,52.3,219.1,49.6z M197.9,43.2
		c-1.2-4.6-4.2-9.1-2.9-14c-0.2-1.3,0.4-2.1,1.8-2.4c0.5,1,1,2,1.3,3c0.6,1.6,1,3.2,1.2,4.9c0.2,1.3,0.2,2.5,0.1,3.8
		C198.8,40,198.3,41.6,197.9,43.2z M179.7,45c0.5-0.9,4.3-4.5,5.8-2.9c0.2,1.3,0.4,2.6,0.6,3.8c-1.2,0.3-2.5,0.4-3.7,0.2
		c-0.9-0.1-1.8-0.2-2.7-0.3c-0.1,0-0.2,0-0.3,0C179.5,45.5,179.6,45.2,179.7,45z M94.3,25.1c0.8-0.4,0.7-0.1,0.4,0.5
		C93.9,25.6,93.3,25.6,94.3,25.1z M79.6,12.7c1.3-2.9,2.4-6.5,4.6-8.9c0.3-0.2,0.5-0.4,0.8-0.7c1.8-2,3.4-0.7,4.9,3.8
		c-0.1,0.6-0.9,1.4-1.2,1.9c-0.8,1.1-1.6,2.1-2.6,3c-2.2,2.1-4.8,3.8-7.4,5.4c-0.3,0.2-0.6,0.4-0.9,0.6
		C77.9,16.2,78.8,14.5,79.6,12.7z M53.5,18.6c0.2-0.7,0.4-1.7,0.9-2.3c0.4-1.1,1.2-1.2,2.4-0.6c3-0.5,3.4,1.1,1.3,4.7
		c-1.2,1.5-3,2-4.9,2C53.1,21.2,53.2,19.8,53.5,18.6z M73.8,18.3c-0.1-0.1-0.3-0.1-0.4-0.2c-1.3-0.9-2.2-3-2.7-4.3
		c-0.5-1.2-0.9-2.5-1.2-3.8c-0.4-1.7-1.4-6.1,0.6-7.3C71,2.8,71.9,2.9,72.9,3c2.1-0.6,3.2,0.1,3.5,2c0.2,0.7,0.3,1.6,0.3,2.4
		c0,1.4-0.2,2.8-0.5,4.1C75.8,13.8,75,16.2,73.8,18.3z M70.6,47.2c0-0.1,0-0.1,0.1-0.2c0,0,0.1,0,0.1,0.1c-0.2,0.6-0.5,1.2-0.8,1.8
		C70.2,48.3,70.4,47.7,70.6,47.2z M69.8,63.5c0.1-0.3,0-0.6-0.2-0.8c0,0,0.1,0,0.1-0.1c0.1-0.1,0.2-0.2,0.2-0.2c0,0.3,0,0.7,0.1,0.9
		c0,0,0,0.1,0,0.1C70,63.5,69.9,63.5,69.8,63.5z M73.2,61.8c-0.5,0.3-1.1,0.6-1.7,0.9c-0.1-1-0.2-2.2-1.1-2.5
		c-0.4-0.1-2.1,0.1-2.3-0.2c0.1,0.1,0.1-0.6,0.1-0.8c0-0.5,0-1,0-1.5c0-0.2-0.2-0.5-0.4-0.6c-0.3-0.1-0.6-0.2-0.8-0.2
		c0.2-0.4,0.3-0.7,0.4-0.9c0.1-0.3,0.2-0.7,0.4-1c0.9,0.1,1.9,0.2,2.8,0.5c-0.1,1-0.5,2.2,0.3,3c0.9,0.9,2.6,0.4,3.8,0.6
		c0.1,0.5,0,1.3-0.1,1.9C74,61.3,73.6,61.6,73.2,61.8z M82.3,55.5c0.2-1.2,0.3-2.5-0.3-3.2c-1.3-1.5-4.6,0-5.6-1.7
		c-0.9-1.6,0.9-3.8,0-5.2c-0.8-1.1-2.9-1.4-4.5-1.7c0.3-0.7,0.5-1.4,0.8-2.2c0.1,0,0.1,0,0.2,0c1.4-0.4,4.7-0.1,5.5,1.1
		c1,1.3,0,3.5-0.3,5c-0.1,0.4,0.2,0.8,0.6,0.9c1.6,0.5,3.6,0.8,5,1.6c1.6,0.9,1.2,2,0.9,3.5C83.9,54.3,83.1,54.9,82.3,55.5z
		 M87.9,51.4c0.7-1.8,1.5-4,1-5.8c-0.4-1.4-1.6-1.7-2.9-2.2c-2.1-0.8-2.9-2-3.5-4.2c-0.2-0.6-0.3-1.3-0.6-1.8
		c-1.3-1.9-4.4-2.1-6.4-2.4c0.8-1.7,1.5-3.4,2.4-5.1c1.1,1.8,2.3,3.5,3.3,5c3.2,4.9,6.9,9.4,11.2,13.3
		C91.1,49.7,89.5,50.5,87.9,51.4z M114.7,70c0-0.7-0.2-1.4-0.8-2.1c-1.6-2.1-4.7-3-7-1.4c-2,1.4-2.3,4.4-0.8,6.2
		c1.3,1.6,3.3,1.9,5.1,1.1c0.1,0,0.2,0,0.2,0c-0.7,0.8-1.5,1.6-2.2,2.4c-1.9,1.9-3.6,4.1-5.4,6.1c-1.6,1.7-4.1,4.7-6.5,5.3
		c-0.8,0.8-1.4,0.7-1.9-0.2c1.6,0.1,3-1.4,3-3c0-1.9-2.3-3.2-4-2.4c0.1-0.6,0.2-1.3,0.3-1.8c0.4-2.7,1-5.4,1.5-8
		c1.2-5.9,2.4-11.8,3.6-17.7c0.6,0.4,1.3,0.8,1.9,1.2c-0.9,0.4-1.7,1.1-2.2,2c-0.8,1.6-0.1,3.4,1,4.6c2.6,2.6,7.2,0.1,6.8-3.3
		c2.4,1.3,4.9,2.4,7.4,3.4c-0.9,0.7-1,2-0.6,3.1c0.2,0.7,0.6,1.4,1.2,1.8c0.4,0.2,0.8,0.3,1.2,0.4C116,68.3,115.4,69.1,114.7,70z
		 M118.9,64.5c0-0.1,0-0.3-0.1-0.4c-0.2-0.3-0.5-0.4-0.8-0.4c-0.1-0.2-0.2-0.3-0.3-0.4c0,0,0,0,0-0.1c0.6,0.2,1.1,0.4,1.7,0.6
		C119.2,64.1,119,64.3,118.9,64.5z M130.4,72.8c6.2,1.9,12.7,2.4,19.1,1.4c-0.3,1.6-0.6,3.2-0.8,4.8c0,0-0.1,0-0.1,0
		c-6.1,1.2-12,0.5-17.6-2.1C130.7,75.5,130.5,74.1,130.4,72.8z M135.8,89c-1.1-1.7-2.1-3.6-2.9-5.5c5,1.3,9.9,2.4,15.1,2.1
		c-0.1,1.4-0.3,2.7-0.4,4.1c-0.1,0-0.1,0-0.2,0C143.5,90.2,139.6,90,135.8,89z M147.2,94.4c0,1.4-0.1,3.3-0.4,3.5
		c-1.3,0.8-4.2-1.6-4.8-2.1c-0.7-0.6-1.4-1.2-2.1-1.8C142.4,94.2,144.8,94.4,147.2,94.4z M164.1,65.6c1.6-0.3,3.2-0.5,4.8-0.6
		c2.3-0.2,4.6-0.5,6.7-0.9c-1.5,3-3.5,5.6-5.9,7.9C167.7,70,165.7,68,164.1,65.6z M175.7,78.6c-0.3-0.4-0.7-0.8-1-1.3
		c-0.6-0.8-1.3-1.5-1.9-2.2c3.4-3.2,5.7-8,7.8-12.1c0-0.1,0-0.1,0.1-0.2c1.9-0.6,3.7-1.3,5.5-2.3c0.2-0.1,0.5-0.3,0.7-0.4
		C183.7,66.6,180,72.7,175.7,78.6z M191,85.5c-0.3,1.5-0.5,3-0.9,4.4c-0.6,2.1-0.7,5.2-3.7,3.3c-0.7-0.5-1.4-1.6-2-2.6
		c2.8-3.8,5.3-7.7,7.5-11.8C191.7,81,191.3,83.3,191,85.5z M192.3,61.8c0.2,2.6,0.3,5.2,0.3,7.7c-3.7,5.7-7.4,11.3-11.2,16.8
		c-0.3-0.5-0.7-0.9-1-1.4c-0.4-0.6-0.8-1.2-1.2-1.7C184.3,76.6,188.7,69.4,192.3,61.8z M199.1,45.2c0.3,0,0.6-0.2,0.8-0.6
		c0.5-1.7,0.8-3.5,1-5.3c0.9-2.3,2.1-4.4,3.2-6.3c0.6-1.1,1.7-3.5,2.8-4.2c5.6-3.6,4.3,2.2,3.9,3.9c-0.7,2.9-2.4,5.6-4.2,8
		c-2.2,2.8-4.7,5.5-7.6,7.6C198.9,47.2,199,46.2,199.1,45.2z"/>
	<path class="st0" d="M34.6,76.7c0.3-0.2,0.2-0.7-0.1-0.8c-1.4-0.2-6.3,0-6.9-1.5c-0.3-0.7,0-2-0.1-2.8c-0.1-1-0.3-1.9-0.5-2.9
		c-0.1-0.4-0.6-0.3-0.8-0.1c-1.4,2.1-2.8,4.1-4.1,6.2c-1.8-0.4-7.9-1.9-6.6,0.8c0.9,2,4.4,2.1,3.9,4.8c-0.2,0.9-1.3,2-1.8,2.8
		c-0.5,0.8-0.8,1.5-1,2.5c-0.1,0.3,0.2,0.6,0.5,0.5c1.1-0.4,2.3-0.8,3.3-1.4c1.1-0.5,3-2.1,4.2-1.5c0.8,0.4,1.9,2.1,2.7,2.8
		c0.8,0.7,1.5,1.4,2.5,1.6c0.3,0,0.5-0.2,0.5-0.4c-0.2-1.9-1-3.9-1.1-5.8C29.1,79.2,32.8,77.8,34.6,76.7z M28.1,80
		c-0.2,0.6,0.3,1.6,0.5,2.2c0.4,1.5,0.7,3,0.9,4.5c-1.3-0.6-2.6-2.3-3.5-3.2c-0.4-0.4-0.9-1.6-1.7-1.6c-0.8,0-1.7,0.9-2.4,1.3
		c-1.4,0.8-2.8,1.4-4.3,2c0.6-1.6,1.7-2.7,2.4-4.2c0.3-0.6,0.6-1.3,0.3-1.9c-0.5-1.3-2.5-1.7-3.2-2.8c-0.9-0.4-0.9-0.8,0.2-1.1
		c0.5,0.1,1.1,0.2,1.6,0.2c1.1,0.2,2.2,0.3,3.3,0.5c0.3,0,0.5-0.2,0.5-0.4l3.6-5.4c0.2,1.3,0.3,2.6,0.3,3.9c0,0.7-0.2,1.4,0.3,2
		c0.4,0.5,1,0.5,1.6,0.5c1.5,0.1,3,0.1,4.5,0.3c-1.1,0.7-2.1,1.4-3.2,2C29.4,79,28.3,79.4,28.1,80z"/>
	<path class="st0" d="M25.6,79.2c0.1-1.1-1-1.8-1.9-1.6c-0.9,0.1-1.9,1.1-1.6,2.1c0.2,0.6,0.7,0.8,1.3,0.9c0,0,0.1,0.1,0.2,0.1
		C24.5,80.7,25.6,80.2,25.6,79.2z M22.9,79.3c0-0.5,0.6-0.9,1-0.9c0.4,0,0.9,0.3,0.9,0.7c0,0.1-0.1,0.3-0.1,0.4
		c-0.1-0.1-0.3-0.1-0.4,0C23.9,79.7,22.9,79.9,22.9,79.3z"/>
	<path class="st0" d="M8.8,20.5c0.1-1-1.4-0.9-1.5,0.1C7.2,21.8,7,23,6.8,24.3c-0.2,1,1.3,1.3,1.5,0.3C8.6,23.2,8.7,21.9,8.8,20.5z"
		/>
	<path class="st0" d="M13.8,24.6c-1,0.6-2,1-3.1,1.4c-0.9,0.3-0.5,1.7,0.5,1.4c1.2-0.4,2.3-0.9,3.4-1.6
		C15.5,25.3,14.7,24.1,13.8,24.6z"/>
	<path class="st0" d="M4.8,27.4c-0.9,0-1.9,0-2.8-0.2c-0.7-0.1-1.3-0.4-1.9,0.1C-0.1,27.5,0,28,0.1,28.2c0,0,0,0,0,0.1
		c0.2,0.4,0.5,0.4,0.8,0.3C2.2,28.8,3.4,29,4.6,29c0.1,0,0.2,0,0.3,0c0,0,0,0,0,0c0,0,0,0,0,0c0,0,0.1,0,0.1,0c0,0,0.1,0,0.1,0
		C6,28.7,5.7,27.4,4.8,27.4z"/>
	<path class="st0" d="M4.9,30.9c-0.7,1-1.5,2-2.2,3c-0.6,0.8,0.5,1.8,1.1,1c0.7-1,1.5-2,2.2-3C6.6,31.1,5.5,30.1,4.9,30.9z"/>
	<path class="st0" d="M12.3,33.7c-0.8-0.9-1.6-1.8-2.5-2.7c-0.7-0.7-1.7,0.4-1,1.1c0.9,0.8,1.7,1.7,2.5,2.7
		C11.9,35.6,12.9,34.4,12.3,33.7z"/>
	<path class="st0" d="M110.4,6.7c-1,0-2.1-0.2-3.1-0.3c0.1-1.3,0.3-2.5,0-3.7c-0.1-0.5-0.8-0.5-1.1-0.1c-0.7,1.1-1.4,2.2-2,3.3
		c-1.1-0.2-2.2-0.3-3.4-0.4c-0.3,0-0.4,0.1-0.5,0.3c-0.4,0-0.9,0.4-0.5,0.9c0.7,1,1.5,1.9,2.3,2.8c-0.4,0.8-0.8,1.5-1.2,2.3
		c-0.2,0.5,0.2,1,0.7,0.8c0.9-0.3,1.7-0.6,2.6-1c0.6,0.6,1.2,1.1,1.8,1.7c0,0,0,0,0,0.1c0,0.7,1.2,0.7,1.2-0.1c0-1,0-2.1,0-3.1
		c1.3-0.7,2.5-1.5,3.7-2.3C111.3,7.4,111,6.7,110.4,6.7z M106.4,4.6c0,0.5-0.1,1.1-0.1,1.6c-0.3,0-0.5-0.1-0.8-0.1
		C105.8,5.5,106.1,5,106.4,4.6z M106.1,7.3c0,0.3-0.1,0.5-0.1,0.8c0,0.4,0,0.9-0.1,1.3c-0.5,0.3-1,0.5-1.5,0.7
		c-0.3-0.3-0.6-0.6-0.8-0.9c0.4-0.7,0.8-1.5,1.2-2.2C105.3,7.2,105.7,7.2,106.1,7.3z M101.3,6.6c0.8,0.1,1.5,0.1,2.3,0.3
		c-0.3,0.5-0.6,1-0.8,1.5C102.3,7.8,101.8,7.2,101.3,6.6z M102.7,10.9c0.1-0.2,0.2-0.4,0.3-0.6c0.1,0.1,0.2,0.2,0.3,0.3
		C103.1,10.7,102.9,10.8,102.7,10.9z M105.3,11c0.2-0.1,0.4-0.2,0.6-0.3c0,0.3,0,0.6,0,0.9C105.7,11.4,105.5,11.2,105.3,11z
		 M107.2,8.7c0-0.4,0-0.8,0.1-1.2c0.5,0.1,1,0.2,1.6,0.2C108.3,8.1,107.7,8.4,107.2,8.7z"/>
</g>
</svg>
