<?xml version="1.0" encoding="utf-8"?>
<!-- Generator: Adobe Illustrator 22.1.0, SVG Export Plug-In . SVG Version: 6.00 Build 0)  -->
<svg version="1.1" id="Слой_1" xmlns="http://www.w3.org/2000/svg" xmlns:xlink="http://www.w3.org/1999/xlink" x="0px" y="0px"
	 viewBox="0 0 223.5 106.7" style="enable-background:new 0 0 223.5 106.7;" xml:space="preserve">
<style type="text/css">
	.st0{fill:#FFFFFF;}
</style>
<g>
	<path class="st0" d="M114,37.6c-1.6,0-3.2,0.5-4.4,1.5c0-1.6-0.3-3.1-1-4.5c-0.4-0.9-1.8-0.2-1.3,0.7c0.7,1.4,0.9,3.1,0.9,4.7
		c-1.5-0.4-3.3-0.9-4.7-0.4c-0.9,0.3-0.6,1.8,0.3,1.5c1.2-0.4,2.8,0,4.2,0.4c0,0.1,0.1,0.2,0.1,0.2c-0.1,1.8-0.2,3.5,0.1,5.2
		c0.2,1,1.7,0.6,1.5-0.3c-0.3-1.5-0.3-3.1-0.2-4.6c1.4,0.4,2.7,0.9,4,1.7c0.8,0.5,1.7-0.8,0.8-1.3c-1.3-0.8-2.7-1.3-4.2-1.8
		c1-1,2.3-1.5,3.7-1.4C114.9,39.1,115,37.6,114,37.6z"/>
	<path class="st0" d="M78.8,82.8c-1.2-1.1-2.8-1.2-3.9,0c-1.1,1.1-1,2.9-0.1,4c1,1.2,3,1.5,3.8,0c0,0,0-0.1,0-0.1
		C79.8,85.6,80.1,84,78.8,82.8z"/>
	<path class="st0" d="M84.1,90.5c-1.6-1.5-3.9-1.7-5.4-0.1c-1.1,1.2-1.9,4-0.5,5.3c0.5,0.5,1.7,1.3,2.5,1.4c1.1,0.1,2.5-0.7,3.4-1.3
		c0.3-0.2,0.4-0.4,0.3-0.7C85.4,93.8,85.3,91.6,84.1,90.5z"/>
	<path class="st0" d="M176.6,18.1c-1.5-1.8-4.1-1.9-6-0.5c-2.3,1.7-2.4,4.6-1.9,7.2c0.2,1,1.7,0.6,1.5-0.3c-0.3-1.4-0.6-6.7,2.5-6.2
		c1.2,1,2.3,2.1,3.5,3.1c0.1,1,0.2,2.1,0.2,3.1c-0.1,3.4-1.5,6.2-5,7.2c-4.5,1.2-9.7-0.7-12.6-4.5c0.2-0.5,0.4-1.1,0.6-1.6
		c0.1-0.2,0-0.3,0-0.4c3.1-6.1,5.5-13.8,3.7-20.6c-0.5-1.8-1.3-4.2-3.4-4.6c-2.6-0.5-4,2.2-4.5,4.3c-0.6,2.4-1,5.3-1.2,8.3
		c-0.6-1.1-1.3-2.1-2.1-3.1c-1.2-1.6-4.3-5.7-6.7-4.5c-2.8,1.3-0.3,5.7,0.6,7.5c1,2,2.2,3.8,3.6,5.5c2.1,2.4,4.8,4.2,6,7.2
		c0.1,0.3,0.4,0.5,0.7,0.4c0.2,0.4,0.4,0.8,0.6,1.2c-0.3,0.4-0.6,0.9-0.9,1.3c-2.8,4.1-9.7,10.6-14.8,6.6c-0.7-0.5-1.3-1.2-1.6-2
		c1.2-0.5,2.5-1,3.8-1.6c1.9-0.8,4.6-2.4,4.3-4.8c-0.6-5.1-7.7-2.1-9.2,0.7c-0.9,1.5-1.1,3.1-0.8,4.7c-2.6,1.4-4.7,3.5-6.1,6.2
		c-0.5,0.9,0.8,1.7,1.3,0.8c1.4-2.7,3.2-4.2,5.4-5.3c1.1,2.3,3.3,4,6,4.1c4.5,0.2,8.6-2.9,11.6-6.6c-1.5,3.3-3.2,6.6-5.4,9.5
		c-2,2.6-4.2,4.7-6.6,6.6c-0.2,0-0.3,0.1-0.4,0.3c-2.4,1.8-5.1,3.4-7.8,5c-1.3,0.7-2.5,1.5-3.7,2.4c-0.5-0.2-0.9,0.2-1,0.7
		c-3.4,2.4-6.7,4.9-10.4,6.9c-5.4,3-11.2,5.2-17.2,6.7c-11.8,3-24.4,3.5-36.4,0.7c-5.8-1.3-11.3-3.5-16.6-6.3
		c-2.6-1.4-5.1-2.9-7.5-4.6c-2.6-1.8-5.9-3.7-7.7-6.5c1.3,0.4,2.9,0.4,3.9,0.6c3.2,0.5,6.7,1.6,10,1.4c3.3-0.2,5.7-2.5,6-5.5
		c1.6-0.9,2.8-2.4,4.1-3.6c1.3-1.3,2.7-2.5,4.1-3.7c0.5-0.4,1.1-0.9,1.6-1.3c0.7-0.6,1.4-1.1,2.1-1.6c1.7-1.6,3.6-1.3,5.8,1.1
		c-0.1,1,1.4,1.1,1.5,0.1c0.2-2.8-2.2-4.5-4.9-4c-4.8,0.9-9.3,6.5-12.7,9.7c-0.6,0.5-1,1-1.7,1.5c0,0-0.1,0.1-0.2,0.1
		c-0.1-0.3-0.1-0.5-0.2-0.8c-0.9-2.8-5.3-4.7-6.6-1.2c-1.2,3.1,2.3,5.1,4.9,4.6c0.1,0,0.2-0.1,0.3-0.1c-0.1,0.3-0.1,0.5-0.1,0.5
		c-0.7,1.3-2.8,2.6-4.2,2.7c-3.1,0.4-6.8-0.9-9.9-1.4c-1.7-0.3-2.8-1-3.5-1.9c0.3-0.3,0.5-0.7,0.8-1.1c2.8-4.1,5.5-8.5,6.3-13.5
		c0.5-3.2,0-7.9-4.3-7.5c-4.1,0.4-5.3,5.2-5.5,8.5c-0.2,3.1,0,6.2,0,9.2c0,0.1,0,0.3,0,0.5c-0.4-6.1-2.7-12.4-8.4-12.1
		c-3.3,0.1-5,3.3-4.5,6.3c0.7,4.1,4.9,8.5,8.4,10.6c1.1,0.7,2,1.1,2.8,1.2c-0.1,0.5-0.2,1-0.3,1.4c-1.5,5-6.9,11.8-12.8,11.3
		c-1.1-0.1-1.9-0.4-2.6-1c0.4-0.2,0.7-0.4,1-0.7c2.7-2,4.8-6,2.3-9c-1.8-2.2-5.3-2.4-6.8,0.2c-1.4,2.5-0.5,6.5,1,8.9
		c-1.8,0.7-3.7,1.2-5.1,1.8C3.5,66.6,0.7,70,0,74.8c-0.1,1,1.4,1,1.5,0.1c0.6-4.1,3-6.9,6.6-8.6c1.9-0.9,4-1.4,5.9-2.2
		c5.8,6.3,15.7-3.8,17.8-9.1c0.4-0.9,0.6-2.1,0.8-3.4c0.1,0,0.2,0,0.3-0.1c1.1,2.5,3.2,4.6,5.6,6.4c0,0,0,0,0,0.1
		c-0.2,5.6,0,11.1,0.3,16.6c-0.1,0.2,0,0.4,0,0.6c0.2,2.7,0.4,5.4,0.6,8.2c0.3,4.1,0.6,8.3,1,12.4c0.1,1.2-0.1,3,1.5,3.1
		c2,0.2,4.1-3.3,5.3-4.5c1.3-1.4,2.3-2.9,3.3-4.4c0.5,0.1,1.2-0.4,0.9-1.1c0-0.1-0.1-0.2-0.1-0.3c0.4-0.6,0.7-1.3,1.1-1.9
		c0.8-1.3,1.6-2.6,2.3-4c0.2-0.1,0.4-0.3,0.4-0.6c0.7-1.2,1.4-2.3,2-3.5c0.3-0.1,0.5-0.4,0.4-0.8c0.2-0.3,0.3-0.6,0.5-0.9
		c1.4-2.4,3.3-4.3,4.1-6.9c0.1,0,0.2,0.1,0.3,0.1c2,0.6,4,1.1,6.1,1.5c1.8,7.7,3.6,15.4,5.4,23.1c0.6,2.4,2.6,12.5,6.4,12
		c1.5-0.2,2.9-3,3.6-4.1c1.7-2.7,2.7-5.7,3.6-8.8c0.9-3.1,2.1-6.1,3.1-9.2c1.3-3.8,1.8-8,2.7-11.9c0-0.1,0-0.2,0-0.3
		c2.5-0.3,5.1-0.8,7.5-1.3c0.3-0.1,0.6-0.1,0.9-0.2c0.5,1.6,1.1,3.1,1.9,4.6c0,0.2,0.1,0.3,0.2,0.4c4.5,8.9,12.9,16.3,22.8,18
		c1.5,0.2,4.5,0.8,5.5-0.7c1.1-1.8-1.2-5.6-1.9-7.4c-2-5.8-4.1-11.5-5.4-17.5c0.1-0.3,0-0.6-0.2-0.8c-0.4-1.8-0.7-3.6-0.9-5.5
		c2.7-1.7,5.4-3.6,8-5.5c6.2,3.8,13.4,5.5,19.8,9c3.8,2.1,7.5,4.2,11.3,6.4c1.2,0.7,3.8,2.8,5.3,1.4c1.2-1.1,0.6-4.2,0.4-5.6
		c-0.5-3.9-1.7-7.8-2.9-11.5c-2.4-7.6-5.6-14.9-10.2-21.5c1-1.9,1.9-3.9,2.6-5.9c3.4,3.9,9,5.8,14,4.2c2.9-1,4.9-3,5.5-6.1
		C178.2,24.4,178.4,20.3,176.6,18.1z M154.7,21.1c-3-3.7-7.6-6.5-8.5-11.5c-0.7-1-0.5-2,0.6-2.9c0.9,0.7,1.7,1.4,2.5,2.2
		c1.2,1.2,2.2,2.5,3.1,4c0.7,1.1,1.2,2.2,1.7,3.4C154.2,17.8,154.4,19.5,154.7,21.1z M138.9,30.3c0-1,2-5.8,4-5.1
		c0.7,1.1,1.4,2.2,2.1,3.2c-1,0.8-2.1,1.4-3.3,1.7c-0.9,0.3-1.7,0.5-2.6,0.8c-0.1,0-0.2,0.1-0.2,0.1
		C138.9,30.8,138.9,30.6,138.9,30.3z M52.9,47.7c0.5-0.7,0.6-0.4,0.6,0.3C52.8,48.4,52.3,48.6,52.9,47.7z M34.4,42.6
		c0-3.2-0.5-6.9,0.5-10c0.1-0.3,0.3-0.6,0.4-0.9c0.8-2.6,2.8-2.1,6,1.4c0.1,0.6-0.2,1.7-0.3,2.2c-0.3,1.3-0.6,2.6-1.1,3.8
		c-1.2,2.9-2.8,5.5-4.5,8c-0.2,0.3-0.4,0.6-0.6,0.9C34.4,46.4,34.5,44.5,34.4,42.6z M13.2,58.7C13,58,12.9,57,13.1,56.3
		c-0.1-1.1,0.5-1.6,2-1.5c2.5-1.7,3.5-0.4,3.2,3.7c-0.5,1.8-1.9,3-3.6,3.9C13.8,61.3,13.4,60,13.2,58.7z M31.5,50.1
		c-0.1,0-0.3,0-0.4-0.1c-1.5-0.3-3.2-1.8-4.3-2.8c-1-0.9-1.9-1.9-2.7-2.9c-1.1-1.4-3.8-5-2.5-6.9c0.9-0.3,1.8-0.6,2.6-0.9
		c1.6-1.4,3-1.2,4,0.3c0.5,0.6,0.9,1.3,1.3,2c0.6,1.2,1,2.6,1.3,3.9C31.4,45.2,31.7,47.6,31.5,50.1z M40.6,77.7c0-0.1,0-0.1,0-0.2
		c0,0,0.1,0,0.1,0c0.1,0.6,0.1,1.3,0,2C40.6,78.9,40.6,78.3,40.6,77.7z M46.6,92.9c0-0.3-0.2-0.6-0.5-0.7c0,0,0-0.1,0.1-0.1
		c0.1-0.1,0.1-0.2,0.1-0.3c0.2,0.3,0.3,0.6,0.4,0.8c0,0,0.1,0.1,0.1,0.1C46.8,92.7,46.7,92.8,46.6,92.9z M49,89.9
		c-0.3,0.5-0.7,1-1.1,1.5c-0.5-0.8-1.1-1.9-2.1-1.8c-0.4,0.1-1.8,1-2.2,0.8c0.1,0.1-0.2-0.6-0.2-0.7c-0.2-0.4-0.4-0.9-0.6-1.4
		c-0.1-0.2-0.4-0.4-0.6-0.4c-0.3,0-0.6,0.1-0.8,0.1c0-0.4,0-0.8,0-1c0-0.4-0.1-0.7-0.1-1.1c0.9-0.2,1.8-0.6,2.7-0.7
		c0.4,0.9,0.4,2.2,1.5,2.6c1.2,0.4,2.6-0.7,3.7-1.1c0.3,0.5,0.5,1.1,0.7,1.8C49.5,89.1,49.3,89.5,49,89.9z M54.7,80.4
		c-0.3-1.2-0.8-2.4-1.6-2.8c-1.8-0.8-4.2,1.9-5.8,0.8c-1.4-1.1-0.7-3.8-2.2-4.7c-1.1-0.7-3.2-0.1-4.7,0.4c0-0.8-0.1-1.5-0.1-2.3
		c0.1,0,0.1-0.1,0.2-0.1c1.1-1,4.2-2.1,5.5-1.3c1.4,0.8,1.5,3.2,1.8,4.7c0.1,0.4,0.5,0.6,0.9,0.6c1.6-0.2,3.6-0.8,5.2-0.7
		c1.8,0.1,2,1.3,2.3,2.8C55.6,78.6,55.2,79.5,54.7,80.4z M58.1,74.3c-0.1-1.9-0.3-4.3-1.5-5.7c-1-1.1-2.2-0.9-3.5-0.8
		c-2.3,0.2-3.5-0.6-5-2.3c-0.4-0.5-0.8-1-1.3-1.4c-1.9-1.2-4.8-0.1-6.8,0.4c0-1.9,0-3.7,0-5.6c1.7,1.2,3.5,2.2,5.1,3.2
		c4.9,3.1,10.2,5.6,15.7,7.4C60.2,71.5,59.2,72.9,58.1,74.3z M90.2,80c-0.2-0.6-0.7-1.2-1.6-1.6c-2.3-1.2-5.5-0.8-6.9,1.6
		c-1.2,2.2-0.3,4.9,1.9,6c1.9,0.9,3.8,0.3,5.1-1.1c0.1,0,0.1-0.1,0.2-0.1c-0.3,1-0.7,2.1-1,3.1c-0.9,2.6-1.5,5.2-2.4,7.8
		c-0.7,2.2-1.7,5.9-3.7,7.5c-0.4,1.1-1,1.2-1.8,0.6c1.5-0.6,2.1-2.5,1.5-4c-0.7-1.7-3.5-2-4.6-0.5c-0.2-0.6-0.3-1.2-0.5-1.8
		c-0.8-2.6-1.3-5.3-1.9-7.9C73,83.7,71.6,77.9,70.2,72c0.7,0.1,1.5,0.2,2.2,0.3c-0.7,0.7-1.1,1.7-1.1,2.7c-0.1,1.8,1.3,3.2,2.9,3.7
		c3.4,1.3,6.6-2.9,4.8-5.8c2.7,0.1,5.4,0.1,8.1,0c-0.5,1-0.1,2.3,0.8,3.1c0.5,0.5,1.1,1,1.8,1.1c0.4,0,0.9,0,1.2-0.2
		C90.7,78,90.4,79,90.2,80z M91.7,73.3c-0.1-0.1-0.1-0.2-0.2-0.3c-0.3-0.2-0.6-0.2-0.9,0c-0.1-0.1-0.3-0.2-0.4-0.2c0,0,0,0-0.1-0.1
		c0.6-0.1,1.2-0.1,1.8-0.2C91.8,72.9,91.7,73.1,91.7,73.3z M105.6,76c6.5-0.8,12.5-3.1,18-6.6c0.4,1.6,0.8,3.1,1.2,4.7
		c0,0-0.1,0-0.1,0.1c-5,3.6-10.7,5.4-16.9,5.4C107,78.4,106.3,77.3,105.6,76z M117.3,88.5c-1.8-1.1-3.4-2.4-5-3.8
		c5.1-0.9,10-1.9,14.6-4.4c0.4,1.3,0.9,2.6,1.3,3.9c-0.1,0-0.1,0-0.2,0.1C124.7,86.5,121.2,87.9,117.3,88.5z M129.9,88.7
		c0.5,1.3,1.3,3,1.1,3.3c-0.8,1.2-4.5,0.3-5.2,0.1c-0.9-0.2-1.8-0.5-2.6-0.8C125.4,90.6,127.7,89.7,129.9,88.7z M133.3,55.6
		c1.3-0.9,2.7-1.8,4.1-2.6c2-1.2,3.9-2.3,5.8-3.6c-0.2,3.3-0.9,6.5-2.1,9.6C138.4,58,135.8,57,133.3,55.6z M149.2,62.5
		c-0.5-0.2-0.9-0.5-1.4-0.7c-0.9-0.4-1.8-0.8-2.7-1.2c1.8-4.3,1.9-9.7,2.1-14.2c0-0.1,0-0.1,0-0.2c1.5-1.3,2.8-2.8,4.1-4.4
		c0.2-0.2,0.3-0.4,0.5-0.7C151.5,48.3,150.7,55.4,149.2,62.5z M166,62.4c0.4,1.5,0.8,2.9,1,4.4c0.4,2.1,1.5,5-1.9,4.5
		c-0.9-0.1-1.9-0.9-2.9-1.6c1-4.6,1.6-9.2,1.9-13.9C164.8,58.1,165.4,60.3,166,62.4z M157.4,40.3c1.3,2.2,2.4,4.6,3.5,6.9
		c-1,6.7-2,13.3-3.2,19.9c-0.5-0.3-1-0.6-1.5-0.8c-0.6-0.3-1.2-0.7-1.9-1.1C156.2,57.1,157.2,48.8,157.4,40.3z M156.6,22.4
		c0.3-0.1,0.5-0.4,0.5-0.8c-0.3-1.8-0.7-3.5-1.3-5.2c-0.1-2.4,0-4.9,0.3-7.1c0.1-1.3,0.1-3.9,0.8-5c3.6-5.6,4.8,0.2,5.1,1.9
		c0.5,3,0.2,6.1-0.5,9c-0.8,3.5-2,6.9-3.8,10.1C157.3,24.4,156.9,23.4,156.6,22.4z"/>
	<path class="st0" d="M192.9,84.5c0.2-0.3-0.1-0.7-0.4-0.6c-1.3,0.4-5.7,2.6-6.9,1.5c-0.5-0.5-0.8-1.9-1.2-2.5
		c-0.5-0.9-1-1.7-1.6-2.4c-0.2-0.3-0.7,0-0.7,0.3c-0.4,2.5-0.8,4.9-1.2,7.4c-1.8,0.4-8,1.5-5.6,3.5c1.7,1.4,4.9,0.1,5.5,2.8
		c0.2,0.9-0.3,2.3-0.4,3.2c-0.1,0.9-0.1,1.7,0.1,2.6c0.1,0.3,0.5,0.4,0.7,0.2c0.9-0.8,1.7-1.7,2.5-2.6c0.8-0.9,1.8-3.2,3.1-3.1
		c0.9,0,2.6,1.1,3.6,1.4c1,0.3,1.9,0.7,2.9,0.4c0.2-0.1,0.4-0.4,0.3-0.6c-1-1.6-2.5-3.1-3.4-4.8C189,89.1,191.8,86.3,192.9,84.5z
		 M188.4,90.2c0.1,0.7,1,1.3,1.3,1.8c1,1.2,1.9,2.5,2.7,3.8c-1.4,0-3.4-1-4.5-1.5c-0.5-0.2-1.5-1.1-2.2-0.8
		c-0.7,0.3-1.2,1.5-1.6,2.2c-0.9,1.3-2,2.5-3.1,3.6c-0.1-1.6,0.5-3.2,0.5-4.9c0-0.7,0-1.4-0.5-1.9c-1-1-3-0.5-4.1-1.2
		c-1,0-1.1-0.3-0.3-1.1c0.5-0.2,1.1-0.3,1.6-0.5c1.1-0.3,2.1-0.6,3.2-0.9c0.3-0.1,0.4-0.4,0.3-0.6l1-6.4c0.7,1.1,1.4,2.2,1.9,3.4
		c0.3,0.7,0.4,1.3,1.1,1.6c0.6,0.3,1.1,0,1.7-0.2c1.4-0.5,2.8-1.1,4.2-1.6c-0.7,1.1-1.4,2.1-2.1,3.2
		C189.2,88.7,188.3,89.5,188.4,90.2z"/>
	<path class="st0" d="M185.8,90.5c-0.4-1-1.6-1.2-2.5-0.7c-0.8,0.5-1.3,1.8-0.6,2.6c0.4,0.4,1,0.4,1.5,0.2c0.1,0,0.1,0,0.2,0
		C185.4,92.3,186.2,91.4,185.8,90.5z M183.3,91.7c-0.3-0.4,0.2-1.1,0.6-1.3c0.4-0.2,0.9-0.2,1.1,0.3c0.1,0.1,0.1,0.3,0,0.4
		c-0.1,0-0.3,0-0.4,0.2C184.5,91.6,183.6,92.2,183.3,91.7z"/>
	<path class="st0" d="M214.4,30.6c-0.3-0.9-1.7-0.2-1.3,0.7c0.4,1.2,0.8,2.4,1,3.6c0.2,1,1.7,0.6,1.5-0.3
		C215.3,33.2,214.9,31.9,214.4,30.6z"/>
	<path class="st0" d="M220.7,32.3c-0.6,0.9-1.4,1.8-2.2,2.5c-0.7,0.7,0.3,1.8,1,1.1c0.9-0.9,1.7-1.8,2.4-2.8
		C222.5,32.3,221.2,31.5,220.7,32.3z"/>
	<path class="st0" d="M213.7,38.6c-0.8,0.4-1.7,0.7-2.6,1c-0.6,0.2-1.4,0.2-1.7,0.8c-0.1,0.3,0.1,0.7,0.3,0.9c0,0,0,0,0,0
		c0.3,0.2,0.7,0.2,0.9-0.1c1.2-0.3,2.4-0.7,3.5-1.2c0.1,0,0.2-0.1,0.2-0.1c0,0,0,0,0,0c0,0,0,0,0,0c0,0,0.1,0,0.1-0.1
		c0,0,0,0,0.1-0.1C215.2,39.3,214.4,38.3,213.7,38.6z"/>
	<path class="st0" d="M215.2,41.7c-0.3,1.2-0.5,2.4-0.8,3.6c-0.2,0.9,1.2,1.4,1.4,0.5c0.3-1.2,0.5-2.4,0.8-3.6
		C216.9,41.2,215.4,40.8,215.2,41.7z"/>
	<path class="st0" d="M223.1,41.2c-1.1-0.5-2.2-1-3.4-1.4c-0.9-0.3-1.4,1.1-0.5,1.4c1.1,0.4,2.3,0.9,3.4,1.4
		C223.5,43.1,223.9,41.6,223.1,41.2z"/>
	<path class="st0" d="M60,24.3c-1,0.4-2,0.7-3,1c-0.4-1.2-0.8-2.4-1.6-3.4c-0.3-0.4-0.9-0.1-1,0.4c-0.2,1.3-0.3,2.6-0.5,3.9
		c-1.1,0.3-2.2,0.6-3.2,1c-0.2,0.1-0.3,0.3-0.3,0.5c-0.4,0.2-0.6,0.8-0.1,1c1.1,0.6,2.2,1.1,3.3,1.6c-0.1,0.9-0.1,1.7-0.2,2.6
		c0,0.5,0.6,0.8,1,0.5c0.7-0.6,1.3-1.3,1.9-1.9c0.8,0.3,1.5,0.5,2.3,0.8c0,0,0,0,0,0.1c0.3,0.7,1.4,0.1,1-0.5
		c-0.5-0.9-0.9-1.9-1.3-2.8c0.9-1.2,1.6-2.4,2.4-3.7C61,24.6,60.5,24.1,60,24.3z M55.4,24c0.2,0.5,0.4,1,0.6,1.5
		c-0.3,0.1-0.5,0.1-0.8,0.2C55.2,25.2,55.3,24.6,55.4,24z M56.3,26.6c0.1,0.3,0.2,0.5,0.3,0.8c0.2,0.4,0.3,0.8,0.5,1.2
		c-0.3,0.4-0.7,0.9-1.1,1.3c-0.4-0.1-0.8-0.3-1.1-0.4c0.1-0.8,0.1-1.7,0.2-2.5C55.5,26.9,55.9,26.8,56.3,26.6z M51.7,28
		c0.7-0.3,1.4-0.5,2.2-0.7c-0.1,0.6-0.1,1.1-0.2,1.7C53,28.7,52.3,28.4,51.7,28z M54.7,31.3c0-0.2,0-0.4,0.1-0.6
		c0.1,0.1,0.3,0.1,0.4,0.2C55,31,54.8,31.2,54.7,31.3z M57.1,30.4c0.1-0.2,0.3-0.4,0.4-0.5c0.1,0.3,0.3,0.5,0.4,0.8
		C57.7,30.5,57.4,30.4,57.1,30.4z M57.8,27.5c-0.2-0.4-0.3-0.8-0.4-1.2c0.5-0.1,1-0.3,1.5-0.5C58.6,26.4,58.2,27,57.8,27.5z"/>
</g>
</svg>
