<?xml version="1.0" encoding="utf-8"?>
<!-- Generator: Adobe Illustrator 22.1.0, SVG Export Plug-In . SVG Version: 6.00 Build 0)  -->
<svg version="1.1" id="Слой_1" xmlns="http://www.w3.org/2000/svg" xmlns:xlink="http://www.w3.org/1999/xlink" x="0px" y="0px"
	 viewBox="0 0 388.9 131.1" style="enable-background:new 0 0 388.9 131.1;" xml:space="preserve">
<style type="text/css">
	.st0{fill:#C4468D;}
</style>
<g>
	<path class="st0" d="M46.9,98.3c1,1.4,2.4,1.6,3.5,2.2c1.5,0.7,3,1.4,4.3,2.6c0.7,0.6,1.3,1.5,1,2.5c-0.3,1.1-1.4,1.1-2.3,1.1
		c-4,0.1-7.9,0.2-11.9,0.2c-8.1-0.1-16.2,0-24.3,0.1c-1.1,0-2.6,0.4-3.1-1.1c-0.5-1.5,0.5-2.5,1.6-3.4c1.7-1.4,3.6-2.2,5.5-3
		c0.5-0.2,0.9-0.4,1-1c-4.4,0-8.8,0-13.2,0c-0.6,0-1.3,0.1-1.8-0.3c-0.5-0.3-0.4-0.9-0.3-1.4C7,95.9,7.8,96,8.4,96
		c4.7,0,9.4,0,14.1,0c0.9,0,1.9,0,2.8,0c3.5,0,3.6,0,4-3.6c0.2-2.7,0.2-5.4,0.3-8.1c0.3-10.2,0.7-20.3,1.1-30.5
		c0.1-1.5-0.4-2-1.9-2.1c-5.5-0.5-10.7-1.9-15.1-5.4c-2.9-2.3-5.4-5-6.9-8.4c-0.3-0.6-0.6-1.2-1.3-1.5C2.4,35.2,1,33,1,29.9
		c0-3.2,1.6-5.4,4.7-6.5c-1.4-2-2.4-4.1-4.9-4.7C-0.1,18.5,0,17.7,0,17c0.1-0.8,0.7-0.8,1.3-0.8c1.2,0,2.2,0.5,3,1.3
		c1,0.9,1.9,1.8,2.6,3c0.9,1.7,2.1,3.1,4.2,3.1c0.1,0,0.2,0.1,0.4,0.1c1.3,0.2,1.9,2.5,3.2,1.7c1.2-0.7,2.3-1.7,3.7-2
		c1-0.2,0.9-1,0.9-1.8c0.1-2.6,0.8-5.1,2.4-7.2c0.4-0.6,0.9-1,1.7-1c0.6,0,1.1,0.2,1.4,0.8c0.3,0.5,0,1-0.4,1.4
		c-1.8,1.6-2.1,3.9-2.4,6.1c-0.1,0.6-0.1,1.3,0.7,1.5c1.3,0.4,2.6,0.9,3.5,2c0.4,0.4,0.7,0,1.1-0.3c0.8-0.8,1.8-1.3,2.8-1.8
		c2.4-1,3.6-5.2,2.1-7.3c-0.1-0.2-0.3-0.3-0.4-0.4c-0.4-0.7-0.7-1.4,0.1-2c0.8-0.7,1.6-0.3,2.1,0.4c1.9,2.2,1.6,4.8,0.8,7.3
		c-0.5,1.4-1.3,2.2,1,2.4c1.9,0.2,2.1,2.6,3.7,3.5c0.9-1,2-1.9,3.5-2.5c2.3-0.8,2.3-3.3,0.4-5.1c-1-0.9-1.9-1.8-2.8-2.7
		c-0.6-0.6-0.8-1.3-0.1-2c0.6-0.7,1.1-0.5,1.7,0c2.4,2,4.4,4.2,4.6,7.5c0.1,0.9,0.5,1.6,1.5,1.6c1.5-0.1,2.2,0.6,2.9,1.9
		c0.6,1.1,1.3,1.1,2.5,0.3c5.2-3.4,10.2-7.4,16.7-7.9c0.7-0.1,1.5,0,2.3,0c0.7,0,1.5,0.2,1.4,1.1c0,0.9-0.5,1.4-1.5,1.3
		c-3.4-0.3-6.3,1.3-9.3,2.4c-0.6,0.2-1.2,0.7-1.8,1.1c0.2,0.1,0.3,0.3,0.4,0.4c4.7,2.7,5.5,7.4,1.5,11.1c-1.7,1.6-2.1,3.7-3.3,5.5
		c-2.7,4.4-6.6,7.1-11.4,8.9c-3.1,1.1-6.3,1.7-9.5,2.1c-1.2,0.1-0.8,1-0.8,1.5c0,5.5,0,11.1,0.1,16.6c0.1,7.8,0,15.7,0.5,23.5
		c0.2,2.4,0.4,2.6,2.6,2.6c11,0,22-0.1,33-0.1c0.5,0,1.1,0.3,1.4-0.2c0.2-0.5-0.4-0.9-0.7-1.2c-4.5-5.1-6.7-10.9-6.4-17.7
		c0-1,0-1.9,1.4-2c0.4,0,0.8,0,0.5-0.6c-0.2-0.4-0.4-1-0.9-0.7c-1.5,0.7-3.5,0.1-4,2.8c-0.7,3.7-4.7,5.4-7.8,3.9
		c-2.5-1.1-3.7-3.7-2.9-6.4c0.3-1,0.4-1.5-0.8-1.9c-1.4-0.4-2.6-1.2-3.4-2.4c-2.6-3.8-0.2-8.3,4.5-8.5c1.5-0.1,2.1-0.2,2.5-2
		c0.6-2.8,2.5-4.7,5.6-4.9c0.7,0,0.9-0.3,0.9-1c-0.2-3,0.9-5.1,3-5.7c2.9-0.8,6,0.1,7.3,2.4c0.9,1.6,1.7,2.8,3.8,1.9
		c2.7-1.2,3.5-2.6,3.1-5.1c-0.3-2-0.9-3.9-1.6-5.8c-0.4-1-0.1-1.6,0.6-2c1-0.5,1.6,0.3,1.8,1.1c0.4,1.2,1,2.3,1.2,3.5
		c0.7,4.6,2.3,9.1,3.4,13.7c2.1-1.7,4.6-1.4,6.9-1.4c1.1,0,2.5,0.3,2.9-0.7c0.4-0.9-0.5-2.1-1.1-2.8c-0.7-0.8-1.6-1.6-0.6-2.5
		c1.1-0.9,2.1-0.1,2.8,0.9c0.7,1,1.4,1.9,1.4,3.2c0,0.7,0.4,1.2,1.1,1.3c3.7,0.1,6.1,2.2,8.2,5.2c2.3-3.6,6.5-4.7,9.3-7.5
		c2.1-2,3.8-4.4,6.5-5.9c1.5-0.8,3-1,4.5-0.7c1.1,0.3,2.1,0.2,3-0.2c2.4-1.1,4.9-1,7.4-1c0.9,0,1.8,0.1,1.8,1.4
		c0,1.2-0.9,1.4-1.8,1.3c-2.1-0.2-4.1,0.1-6.1,0.7c-0.8,0.2-1.1,0.4-0.8,1.3c0.6,2.1-0.1,4.2-0.5,6.3c-0.4,2.1-0.5,4-0.1,6.1
		c1.1,5.6,0.6,10.1-5.1,13.6c-0.7,0.4-0.8,1.1-0.9,1.9c-0.2,4.7-1.2,9.1-3.8,13.1c-1.1,1.7-2.5,3.3-4.1,5c4,0,7.8,0,11.7,0
		c-0.4-0.9-0.8-1.8-1.1-2.7c-0.6-1.5-0.1-2.3,1.5-2.3c1.6,0,3.3-0.1,4.9,0c1.5,0.1,1.9-0.5,1.7-1.9c-0.3-2.1-0.6-4.2-0.8-6.3
		c-0.4-3.6-0.6-7.1,0.3-10.7c0.7-2.9,1.6-3.6,4.6-3.6c1,0,2,0,3,0.1c1.6,0.1,2.3-0.4,1.9-2.1c-1-4.6-0.8-9.2-0.5-13.9
		c0.1-2.2,0.1-4.6,2.6-5.8c0.8-0.4,0.2-1.4,0.2-2.1c0-2.5,1-3.8,3.5-4.6c1.9-0.6,3.8,0.1,5.1,1.8c0.8,1.1,0.7,2.3,0.7,3.4
		c-0.1,1.1,0.5,1.2,1.3,1.2c1.1,0,1.3-0.4,1.1-1.4c-0.6-4.7-0.4-9.4-0.4-14.1c0-1.5,0.5-2.7,1.9-3.4c1.1-0.5,1.2-0.9,0.7-2.1
		c-1.1-2.8,0.2-5.8,2.8-6.6c2.9-0.9,6,0.6,6.8,3.3c0.1,0.3,0.2,0.6,0.2,0.9c-0.5,2.1,0.6,2.1,2.2,1.9c1.3-0.1,1.3-0.7,1.3-1.7
		c0.1-3.5-0.4-7,0.5-10.5c0.4-1.5,1.2-2.4,2.7-2.7c1.8-0.4,3.5-1,5.3-1.1c0.8,0,1.1-0.2,0.8-1.2c-0.8-2.5-0.5-4.7,1.6-6.5
		c2-1.7,4.8-1.7,7.2-0.3c2.3,1.3,2.4,3.5,2.1,5.7c-0.2,1.4,0.3,1.6,1.5,1.7c1.4,0.1,2.7,0.4,4,0.8c2.3,0.7,3.4,2.3,3.6,4.7
		c0.2,2.9,0.5,5.8,0.5,8.6c0,1.3,0.8,1.4,1.7,1.5c1.3,0.1,0.7-0.8,0.7-1.4c-0.1-1.9,0.9-3.8,2.6-4.4c2-0.6,4-0.8,5.8,0.8
		c1.8,1.6,1.6,3.7,0.9,5.5c-0.5,1.2-0.2,1.5,0.8,1.9c2.4,0.9,3.2,2.9,3.4,5.3c0.2,3.9,0.4,7.8,0.6,11.7c0,0.5,0,1,0.1,1.5
		c0.1,0.5,0.1,1.3,0.9,1.3c0.9,0,0.6-0.8,0.6-1.3c0.2-2.5,1.5-4.2,3.8-5.1c1.7-0.7,3.3-0.5,4.7,0.8c1.4,1.2,1.5,2.7,1.3,4.3
		c-0.1,1.2-0.1,2.2,0.9,3.3c1.8,1.9,1.4,4.6,1.7,7c0.4,3.5-0.2,6.9-0.4,10.3c-0.1,1.4,0.3,2,1.7,1.8c1.1-0.1,2.1,0,3.2,0.1
		c2.4,0.1,3.7,1.2,4.1,3.5c1.1,5.9,0.3,11.6-0.9,17.3c-0.5,2.2-0.6,2.2,1.7,2.2c1.6,0,3.3-0.1,4.9-0.1c1.6,0,1.9,0.6,1.4,2.2
		c-0.3,1.2-1.9,2.2-1.1,3.2c0.5,0.6,2.2,0.2,3.4,0.2c4.8,0,9.7,0,14.5,0c0.6,0,1.4,0.3,1.5-0.7c0.1-0.8-0.7-0.7-1.2-0.9
		c-2.6-0.7-4.8-2-6.5-4.1c-0.6-0.8-1.3-1.1-2.3-1.3c-2.5-0.4-4.8-1.4-6.6-3.3c-4.3-4.6-2.7-11.9,3.1-14.3c4.8-2,9.9-0.2,12.4,4.3
		c0.1,0.2,0.3,0.3,0.3,0.5c0,3.3,2.3,3.1,4.6,3.1c3.5-0.1,7,0,10.5-0.1c1.8-0.1,2.6,0.7,2.5,2.4c-0.3,4.8-1.5,9.2-6.1,11.7
		c-0.6,0.3-1.3,0.5-1.9,0.8c-0.5,0.2-1.2,0.4-1,1.2c0.2,0.6,0.8,0.5,1.3,0.6c0.5,0,1,0,1.5,0c4.6,0,9.2,0,13.8,0
		c1.4,0,1.5-0.6,0.9-1.5c-1.9-3.1-3.5-6.3-4.8-9.7c-3.1-7.8-4.4-15.8-1.8-24c1.2-3.7,3.5-6.8,5.9-9.8c2.5-3,5-5.9,6.7-9.4
		c1.8-3.8,2-7.5,1.3-11.7c-0.7-4.1-3.3-6.6-6.3-8.6c-2.2-1.5-4.7-3-7.2-4.1c-1.3-0.6-1.7-1.4-0.7-2.7c4.2-5.1,11.7-8,18-4.2
		c2.2,1.3,3.8,3.7,6.2,4.8c1.8,0.8,3.6,1.8,5.9,1.5c5.4-0.6,10.3-2.9,15.7-3.7c10.2-1.5,22,8.9,18.1,20.4
		c-2.4,6.9-6.6,12.5-11.4,17.7c-1,1.1-1.4,1.7-0.5,3.2c5.5,9.1,5,18.6,1.7,28.2c-1.4,4.2-3.3,8.2-5.8,11.9c-1,1.4-0.8,1.7,1.1,1.7
		c5.8,0,11.5-0.1,17.3-0.1c0.7,0,1.5,0.2,1.7-0.8c0.2-1-0.5-1.3-1.2-1.6c-3.8-1.3-6.7-3.7-8.2-7.5c-0.7-1.7-1-3.5-1.1-5.3
		c-0.1-1.4,0.6-2,2-2c4.8,0.1,9.5,0.1,14.3,0.2c1.4,0,2.1-0.3,2.3-1.9c0.5-5.1,6.5-9,11.4-7.5c4.7,1.4,7.4,4.7,7.3,8.8
		c-0.2,4.5-3.5,8.4-8.2,9.4c-1.2,0.3-2,0.7-2.8,1.8c-1.6,2.3-4,3.7-6.7,4.5c-0.6,0.2-1.5,0-1.4,1.1c0.1,1.2,1.1,0.9,1.7,0.9
		c6.2,0,12.3,0,18.5,0c1.1,0,2.7-0.5,2.8,1.2c0.1,2.1-1.7,1.4-2.8,1.4c-6,0.1-12.1,0-18.1,0.1c-0.5,0-1.4-0.4-1.6,0.4
		c-0.2,0.7,0.3,1.3,0.8,1.8c1.2,1.1,2.6,1.7,4,2.3c0.4,0.2,0.8,0.3,1.2,0.5c0.7,0.3,1.2,0.9,1.1,1.6c-0.2,0.8-0.8,1.3-1.7,1.2
		c-0.6,0-1.1,0.1-1.7,0.1c-5.5,0-10.9,0-16.4,0c-0.9,0-1.8,0.1-2.1-1.1c-0.3-1.1,0.6-1.6,1.3-2c1.5-0.7,2.8-1.6,4-2.7
		c0.5-0.4,1-1.1,0.7-1.8c-0.3-0.6-1-0.3-1.5-0.3c-6.5,0-12.9,0-19.4,0c-1,0-1.6,0.3-2.2,1.1c-1,1.5-2.2,2.8-3.4,4.2
		c-0.9,1-2.1,1.4-3.5,1.4c-6.3,0-12.7-0.4-19-0.4c-3.6,0-6.1-1.3-7.7-4.4c-0.8-1.5-1.8-1.9-3.4-1.9c-5.1,0.1-10.3,0-15.4,0.1
		c-0.6,0-1.6-0.4-1.8,0.3c-0.3,0.8,0,1.7,0.7,2.4c1.2,1.2,2.6,2.1,4.1,2.9c0.9,0.4,1.5,1,1.3,2c-0.2,1.1-1.2,1-2,0.9
		c-6,0-11.9,0-17.9-0.1c-0.8,0-1.7,0.1-1.9-1.1c-0.1-1.1,0.5-1.5,1.4-1.8c1.5-0.5,2.9-1.1,4.1-2.1c0.7-0.6,1.2-1.2,1.3-2.2
		c0.1-1.1-0.2-1.4-1.3-1.4c-6.3,0.1-12.7,0.1-19,0c-1,0-1.7,0.3-2.5,0.9c-5.1,4.3-11.2,5.7-17.6,5.7c-17.5,0.1-34.9,0.1-52.4,0.1
		c-8.9,0-17.8,0.1-26.7-0.1c-6.2-0.1-12.1-1.8-16.9-6c-0.6-0.5-1.1-0.6-1.9-0.6c-5.1,0.1-10.3,0.1-15.4,0.2c-2.1,0-3.5,1.8-5.5,2.3
		c-0.4,0.1-0.7,0.4-1,0.5c-1.9,0.4-3.2,1.1-2.1,3.5c0.5,1.1-0.2,1.9-1.5,2c-4.3,0.1-8.7,0.2-13,0.2c-2.8,0-3.2-0.7-2.7-3.4
		c0.2-0.9-0.2-1.1-0.9-1.3c-3-0.9-5.8-2-8.4-3.8c-0.3-0.2-0.7-0.2-1.1-0.2C68.6,98.3,57.8,98.3,46.9,98.3z M298,59.8
		c-1.4,0-3.6,0-5.7,0c-0.9,0-1.4,0.4-1.6,1.2c-1.1,3.8-1.5,7.7-0.9,11.7c0.9,5.8,2.8,11.2,5.5,16.4c1.9,3.6,3.6,7.4,5.9,10.8
		c0.9,1.3,1.9,1.9,3.6,1.9c2.4,0,4.8,0.3,7.1,0.3c4.4,0.1,8.8,1,13.3,0.2c1.1-0.2,2-0.5,2.7-1.4c6.3-8.1,11.1-16.9,12.9-27.2
		c0.8-4.4,1.1-8.8-0.4-13.2c-0.5-1.4-1.1-1.8-2.5-1.8C324.8,58.5,311.8,59.5,298,59.8z M338.1,55.9c-0.3-0.6-0.5-0.8-0.6-1.1
		c-1.7-2.9-1.7-3,0.6-5.4c0.2-0.2,0.4-0.5,0.6-0.7c4.1-4.4,8-9,10.1-14.8c1.3-3.6,1.7-7.2-0.1-10.8c-2.7-5.3-8.8-8.3-14.8-7.6
		c-4,0.5-7.7,2-11.6,2.9c-4.6,1-8.8,0.6-12.8-2.4c-1.7-1.3-3.1-2.9-5.1-4c-4.2-2.2-10-0.3-12.4,2.1c-0.8,0.7-0.6,1.1,0.2,1.6
		c1.3,0.7,2.6,1.5,3.8,2.4c4,2.8,7.5,6.1,9,10.8c1.3,3.9,1.1,7.9-0.3,11.8c-1.4,3.9-4.2,6.9-6.9,9.9c-1.7,2-3.5,3.9-5.1,6.5
		C308,56.7,322.9,56.3,338.1,55.9z M210.3,90.4C210.3,90.4,210.3,90.4,210.3,90.4c9.5-0.1,19-0.1,28.4-0.1c0.5,0,1,0.2,1.4-0.2
		c0.8-0.9,1.2-6.2,0.5-7.2c-0.9-1.2-1.7-2.5-2.8-3.5c-4.1-3.9-8.2-4.9-12.8-0.6c-0.4,0.3-0.8,0.6-1.2,0.9c-4.7,3.6-9.4,4.6-13.9-0.8
		c-2.8-3.5-5.9-3.2-9.6-1.4c-2.2,1.1-3.9,2.9-5.8,4.4c-3,2.4-6.2,3.5-10,1.9c-2.3-1-4.1-2.5-5.8-4.2c-2.4-2.3-5-3-8.2-1.7
		c-2.4,1-4.3,2.7-6.3,4.2c-3.5,2.5-6.3,2.8-9.1,0.8c-1.3-0.9-2.5-2.1-3.8-3c-1.5-1-3-2.1-5-1.8c-4.6,0.6-8.8,7.7-7,12.1
		c0.3,0.8,0.9,0.8,1.5,0.8c2.6-0.1,5.3-0.1,7.9-0.1c11.3-0.1,22.6,0.1,33.9-0.1C191.8,90.3,201,90.4,210.3,90.4z M189.2,93.1
		c0,0.1,0,0.3,0,0.4c-18.5,0-37,0-55.5,0c-0.5,0-1.3-0.3-1.5,0.3c-0.2,0.5,0.3,1,0.6,1.5c1.8,2.6,4.3,4.2,7.2,5.3
		c5.1,1.9,10.4,2.1,15.7,2.1c5.6,0,11.2,0,16.7-0.1c15.2-0.2,30.5-0.1,45.7-0.2c5.5,0,10.9,0.3,16.3-0.7c5.1-0.9,9.5-2.9,12.6-7.2
		c0.3-0.3,0.6-0.7,0.4-1.2c-0.2-0.5-0.7-0.4-1.1-0.4c-0.8,0-1.6,0.1-2.4,0.1C225.8,93.1,207.5,93.1,189.2,93.1z M191.5,67.9
		c13-0.1,26.1-0.3,39.1-0.6c0.6,0,1.6,0.3,1.7-0.7c0.5-3.8,1.8-7.6-1.6-10.9c-2.6-2.5-5.8-3-8.8-0.9c-1,0.7-1.9,1.6-2.9,2.3
		c-2.2,1.7-4.5,2.8-7.2,1.6c-1.4-0.6-2.4-1.8-3.5-2.8c-2.5-2.3-5.8-3.3-9.3-0.8c-0.9,0.7-1.7,1.4-2.6,2c-4.4,3.1-7,3.7-11.4-0.3
		c-0.6-0.6-1.3-1.1-2-1.7c-2.6-2.2-5.5-1.8-7.9,0.5c-1.1,1.1-2.2,2.2-3.4,3.2c-2.2,1.8-4.6,2.2-7.3,1.1c-2.3-0.9-3.7-2.8-5.7-4.2
		c-4-2.7-10.4-0.1-10.9,4.7c-0.2,2.2,0.4,4.5,0.6,6.7c0.1,1.2,1,1,1.8,1c4.6-0.1,9.3-0.3,13.9-0.4C173.3,67.8,182.4,67.9,191.5,67.9
		z M84.2,77.8c-3.8,0-7.5,0-11.3,0c-0.9,0-1.7,0-1.4,1.3c0.4,2.3,0.7,4.6,1.6,6.7c2.3,5.7,6.4,9.7,11.8,12.3c2,1,3.9,2.2,6.4,2.1
		c2.1-0.1,2.3,0.6,1.6,2.6c-0.3,0.9-0.2,1.3,0.8,1.3c3,0,6,0,9,0c0.9,0,1.2-0.2,0.7-1.1c-1-2-0.8-2.4,1.3-3c3-0.9,5.8-2.2,8.4-3.9
		c5.8-3.8,9-9.3,10.1-16.1c0.3-1.6,0-2.3-2-2.3c-4.5,0.2-9,0-13.5,0C99.9,77.8,92,77.8,84.2,77.8z M138.7,80.1c2-2,3.6-3.8,6.1-4.4
		c3.6-0.9,6.3,0.6,8.9,2.8c3.7,3.3,5.4,3.6,8.6,1.6c0.7-0.4,1.2-1,1.9-1.5c1.6-1.2,3.2-2.3,5-3.1c4.3-2,8-1.1,11.3,2.1
		c1.6,1.5,3.1,3.1,5.3,3.7c3.3,1,5.8-0.4,8.1-2.5c1.8-1.7,3.7-3.1,5.9-4.2c4.7-2.4,8.6-0.9,12.2,2.6c4.5,4.4,5.9,3.5,10.5,0.3
		c0.1-0.1,0.2-0.2,0.3-0.3c2.3-1.6,4.3-3.6,7.3-3.8c4.8-0.3,8.3,2,11.3,5.7c0.6-2.4,0.6-4.6,0.2-6.8c-0.3-1.7-0.9-2.3-2.8-2.3
		c-19.2,0-38.4,0-57.6,0.5c-9.7,0.2-19.3,0.3-29,0.5c-3.8,0.1-7.7,0.1-11.5,0.2c-0.6,0-1.4-0.2-1.6,0.8
		C138.6,74.5,138.4,77.1,138.7,80.1z M58.3,38.3c-1,0-1.8,0-2.5,0c-5.3,0-10.7-0.1-16,0.1c-1.2,0-2.1-1.2-3.3-0.6
		c-1.3,0.6-2.7,0.6-4.1,0.6c-6.9,0-13.8,0-20.7,0.1c-0.4,0-1.1-0.3-1.3,0.3c-0.2,0.5,0.3,0.7,0.6,1.1c5,6.7,11.9,9.1,19.9,9.2
		c1.8,0,2.4,0.7,2.4,2.4c0,3.5-0.2,6.9-0.4,10.3c-0.4,11-0.6,22-1.3,32.9c-0.1,1.9-0.6,3.4-2.5,4.1c-1.3,0.5-2.6,1.1-3.9,1.7
		c-2.4,1-4.9,1.7-7.2,3.4c10.9,0,21.6,0,32.3,0c-3.5-2.1-7-4-10.8-5.2c-2.3-0.8-3.1-2.3-3.1-4.7c0-6.3-0.1-12.6-0.3-18.8
		c-0.2-7.9-0.6-15.8-0.5-23.7c0-1.7,0.6-2.4,2.4-2.5c4.2,0,8.4-0.9,12.1-2.9C53.5,44.4,56.5,42.2,58.3,38.3z M190.8,46.3
		c0,0,0-0.1,0-0.1c8.5,0,17.1,0,25.6,0c2.8,0,2.8,0,2.5-2.7c-0.1-0.6-0.2-1.3-0.1-1.9c0.3-2.4-0.9-4.1-2.6-5.6
		c-3.7-3.4-6-3.4-9.1,0.5c-2.1,2.5-3.5,2.9-6.5,2c-1.4-0.4-2.6-1.2-3.8-2c-4.9-3.3-7-3.2-11.8,0.3c-2.5,1.9-5.2,2.9-8.4,1.6
		c-1.7-0.7-3.1-1.9-4.6-2.8c-1.7-1-3.3-2.6-5.4-1c-2.6,1.9-5.1,3.9-4.3,7.8c0.2,0.7,0.1,1.5,0.1,2.3c0,1.3,0.6,1.8,2,1.8
		C173.3,46.3,182.1,46.3,190.8,46.3z M147.8,55.2c0.6-0.5,1-0.9,1.5-1.2c3.9-2.9,8-3.9,11.7,0.1c0.9,1,2,1.9,3,2.7
		c2,1.7,3.9,1.7,5.9,0.1c1.6-1.3,3.1-2.7,4.7-4.1c2.3-1.9,4.8-2.2,7.5-1c1.7,0.7,3,2,4.3,3.2c2.3,2.1,4.6,2.8,7.7,0.5
		c0.7-0.6,1.5-1.1,2.3-1.7c4.7-4,8.4-3.9,13.2-0.1c4.1,3.2,3.9,4.6,9.8-0.1c0.2-0.2,0.5-0.3,0.8-0.5c2.8-2.7,5.9-2.8,9.3-1.3
		c1.2,0.5,2,1.7,3.3,1.9c0-3.8-0.6-4.6-4-4.6c-10.5-0.1-20.9-0.6-31.4-0.3c-10,0.3-20.1,0.1-30.1,0.2c-5.7,0-11.4,0.1-17.1,0.2
		c-0.7,0-1.8-0.1-1.9,0.8C148.1,51.7,147.5,53.3,147.8,55.2z M127,48.9c-2,0.7-3.6,2-4.9,3.6c-1.6,2-3.5,3.7-5.7,5
		c-1.9,1.1-3.6,2.4-5,4.2c-1.4,1.9-2.1,3.9-1.3,6.3c1.3,3.8,3.9,5.9,7.8,6.7c5.8,1.2,12.7-2.4,11.1-10.5c-0.7-3.6-0.6-7.2,0.6-10.8
		c0.3-0.9,0.3-1.8,0.2-2.7C127.9,51.9,126.7,51.5,127,48.9z M161.8,34.7c1-0.1,1.3-0.9,1.8-1.4c2.1-2,4.5-2.4,7.2-1.3
		c1.6,0.6,2.9,1.6,4.3,2.5c3.2,2.1,6.4,2.9,9.2-0.7c1.7-2.2,4.4-2.7,7.1-2.4c2.5,0.3,4.5,1.7,6.7,2.8c0.6,0.3,1.2,0.6,1.8,0.9
		c3.1,1.6,3.7,1.6,5.9-1.3c2.6-3.4,6.2-3.6,9.3-2.1c1.1,0.6,2.1,1.5,3.2,2.2c0.3-3.3-0.7-5-3.3-5.7c-3.9-1-7.9-1.5-11.9-1.7
		c-5.4-0.3-10.8,0.2-16.2,0.3c-7.8,0.2-15.5,0.8-23.1,2.5c-1.3,0.3-2.2,0.9-2.1,2.4C161.8,32.7,161.8,33.7,161.8,34.7z M93.8,58.7
		c-3.3-0.4-4.7-0.1-6,1.5c-2.2,2.6-2.2,7.3-0.3,10.1c2.7,4,9,5.6,14.3,3.2c5.3-2.4,6.9-8,3.7-12.7c-1.3-1.8-2.9-2.8-5-3.2
		c-0.7-0.1-1,0.2-1.1,0.9c-0.1,0.9,0.5,0.7,1,0.6c1-0.1,1.8,0.3,1.8,1.3c0.1,1.1-0.9,1.2-1.7,1.4c-1.8,0.3-3.5,0.1-5.2-0.3
		C93.2,61.2,93,60.8,93.8,58.7z M363.6,103.3c-1.9-2.1-3.3-8.3-2.6-10.7c0.3-1.1,1-1.3,1.9-1.4c5-0.5,7.9-4.2,8.7-8.6
		c0.2-1.1,0-1.3-1-1.3c-7,0-14,0.1-21.1,0c-1.4,0-1.5,0.6-1.2,1.6c0.4,1.3,0.9,2.6,1.7,3.7c1.6,2.4,4,3.7,6.7,4.4
		c0.9,0.2,1.9,0.4,1.8,1.7c-0.3,3.6,0.9,7.6-3,10.6C358.4,103.3,360.9,103.3,363.6,103.3z M277.6,104c-0.8-1.3-2.1-2-2.3-3.4
		c-0.3-2-0.5-4-0.6-6c-0.1-1.8,0.6-2.6,2.2-3c4.3-1,6-4.3,6.8-8.2c0.2-1,0-1.6-1.3-1.6c-6.5,0.1-12.9,0.1-19.4,0.1
		c-1.3,0-1.5,0.5-1.3,1.6c0.8,4.1,3.6,8,8.7,8.4c1.4,0.1,2,0.8,2,2.2c0,3.4,0,6.8-2.4,9.9C272.6,104,275,104,277.6,104z M178,16
		c-0.1,0.7,0.1,1.3,0.9,0.8c3.2-1.9,6.1-0.6,9,0.9c1.9,1,3.8,1.1,5.7-0.6c2.1-1.9,4.8-2.8,7.6-1.2c1,0.6,1.2,0.2,1-0.8
		c-0.4-2.5-1.9-3.6-5.5-3.9c-5.3-0.4-10.6-0.5-15.8,1.1C179,12.9,177.9,14,178,16z M178,22.7c-0.3,1.5,0.3,2.4,2.3,1.8
		c0.5-0.2,1.1-0.1,1.7-0.1c6.3-0.2,12.6-0.4,19-0.6c0.6,0,1.3,0.3,1.5-0.8c0.3-2.1-0.8-3.4-2.3-4.5c-1.2-0.9-2.6-0.6-3.8,0.2
		c-0.6,0.4-1.3,0.8-1.9,1.2c-2.2,1.3-4.3,2.2-6.8,0.6c-1.3-0.9-2.9-1.4-4.5-1.6C180.5,18.5,177.9,20.2,178,22.7z M374.3,84.8
		c1-0.5,2-0.9,2.8-1.4c3-1.9,3.8-6.2,1.8-8.8c-1.8-2.4-4.3-3.1-7.2-2.7c-3,0.4-4.5,2.6-5.3,5.3c-0.3,1,0.2,1.3,1.1,1.3
		c1.6-0.1,3.1,0,4.7-0.1c1.4-0.1,2.1,0.5,2.1,2C374.3,81.8,374.3,83.2,374.3,84.8z M263.2,79.1c0.7,0,1.4,0,2.1,0
		c1.6,0.1,1.8-0.4,1.2-1.9c-2.1-4.9-8.1-5.1-11.2-2.1c-1.5,1.5-2.4,3.3-1.7,5.4c0.8,2.5,2.3,4.4,4.9,5.2c1.6,0.5,1-0.5,0.8-1.3
		C258.4,79.2,258.9,79,263.2,79.1z M45.5,34.5c2.1-0.2,3.6-1.1,4.6-2.9c1.1-1.9,0.3-3.5-0.6-5.1c-0.3-0.5-1-1.3-1.7-0.1
		c-0.8,1.4-1.6,1.5-2.4,0c-0.6-1-1.1-0.7-1.6-0.2c-0.6,0.5-1.1,1.1-1.6,1.8c-1.3,1.7-1.5,3.6-0.4,5C42.8,34.2,44.3,34.2,45.5,34.5z
		 M30.3,25.9c-0.6,0.5-1.1,0.9-1.5,1.4c-1.8,2.1-0.7,6.2,1.7,6.7c3.9,0.8,5.6-0.4,6.5-4.3c0.4-1.9-0.3-3-1.7-4
		c-0.5-0.3-0.9-0.7-1.5-0.4c-0.6,0.3-0.3,0.8-0.2,1.3c0.2,0.7-0.3,1.2-0.9,1.5c-0.7,0.3-1.2,0-1.6-0.6C31,27,30.7,26.5,30.3,25.9z
		 M22.8,26.1c-0.3,1.7-0.5,2-1.3,2.1c-1.3,0.2-1.3-0.9-1.6-1.6c-0.2-0.5-0.4-0.7-0.9-0.6c-1.2,0.2-3,2.2-3.1,3.5
		c-0.2,2,1.3,3.9,3.4,4.5c2.4,0.6,4.5-0.2,5.4-2C25.7,29.9,24.9,27.5,22.8,26.1z M54.3,30.7c0.1,1.4,0.6,2.5,1.7,3.4
		c2.1,1.6,4.8,0.8,6.6-2c1.3-2,0.8-4-1.4-5.1c-1.2-0.6-2.1-1.1-2,1c0,0.6-0.4,1.3-1.3,1.3c-0.7,0-1.2-0.3-1.4-1
		c-0.1-0.4,0.2-1-0.3-1.1c-0.7-0.2-0.7,0.5-1,0.9C54.7,28.9,54.3,29.7,54.3,30.7z M6.7,26c-2.5,1.1-3.6,2.9-3.1,4.8
		c0.5,2.1,2.3,3.5,4.3,3.4c2.3-0.1,4.2-1.6,4.5-3.5c0.4-2.2-0.5-3.8-2.6-4.7C9.4,27.1,10.2,29,8.3,29C6.6,29,7,27.2,6.7,26z
		 M74.9,64.8c1.7,0,3.1-1.4,3.1-3c0-1.7-1.9-3.6-3.7-3.6c-1.5,0-3.1,1.7-3.1,3.3C71.3,63.2,73.1,64.8,74.9,64.8z M84.1,55.9
		c-1.1,1.2-1.6,2.4-2.7,3.1c-0.8,0.5-1,1.1-0.9,2.2c0.2,1.5-0.2,3-1.2,4.2c-0.5,0.6-1.4,1.2-0.2,2.1c1.1,0.9,1.6,0.2,2.3-0.5
		C84.3,63.8,84.5,60.1,84.1,55.9z M56.2,63.8c-2,0-3.5,1.1-3.5,2.5c0,1.7,1.7,3.3,3.7,3.3c1.8,0,2.8-0.9,2.9-2.5
		C59.1,65.1,58,63.8,56.2,63.8z M67.3,71.3c1.6,0,2.8-1.1,2.8-2.6c0-1.8-1.8-3.7-3.5-3.7c-1.5,0-2.7,1.2-2.6,2.8
		C64,69.7,65.6,71.3,67.3,71.3z M189.9,8.3c1.6,0,3.4-1.4,3.4-2.8c0.1-1.3-1.5-2.7-3-2.7c-1.8,0-3.3,1.3-3.3,2.8
		C186.9,7.1,188.2,8.3,189.9,8.3z M60.9,72.2c-1.7,0-3.2,1.4-3.2,3.1c0,1.4,1.2,2.7,2.7,2.8c1.6,0.1,3.1-1.5,3.2-3.4
		C63.5,73.2,62.6,72.3,60.9,72.2z M63.8,56.9c-1.6,0.1-3.3,1.6-3.3,3c0,1.4,1.5,2.8,2.8,2.7c1.7-0.1,3.6-1.9,3.5-3.3
		C66.6,58,65.1,56.8,63.8,56.9z M70.3,55.3c1.3,0,2.8-1.5,2.7-2.8c0-1.3-2-2.9-3.5-2.8c-1.3,0.2-2.6,0.7-2.7,2.3
		C66.7,53.5,68.7,55.3,70.3,55.3z M88,75.2c-1.9-1.7-3.1-3.4-4-5.5c-0.2-0.4-0.2-1.1-1-0.6c-0.9,0.5-2.7,4.7-2.4,5.6
		c0.1,0.4,0.6,0.4,0.9,0.4C83.7,75.2,85.9,75.2,88,75.2z M75.7,68.9c-1.5,0-2.8,1.2-2.8,2.7c0,1.7,1.6,3.4,3.1,3.4
		c1.3-0.1,2.5-1.5,2.5-3C78.6,70.1,77.4,68.8,75.7,68.9z M166.5,26c1.6,0,2.7-1,2.6-2.6c-0.1-1.5-1.2-2-2.6-2.1c-1.6,0-2,1-2,2.3
		C164.4,24.9,164.7,26.1,166.5,26z M212.4,20.3c-1.2,0.2-2.2,0.6-2.1,2.1c0.1,1.3,0.9,2.2,2.2,2.3c1.2,0.1,2.4-1.1,2.3-2.4
		C214.7,20.8,213.6,20.6,212.4,20.3z M225.9,45c-0.2,1.3,0.8,1.2,1.8,1.3c1.5,0.1,2.7-0.2,2.9-1.9c0.1-1.2-0.6-2.1-1.8-2.2
		C227.4,42.1,226,43.5,225.9,45z M154.9,45c0-1.7-0.6-2.6-1.9-2.6c-1.1,0-2.3,0.5-2.3,1.7c0,1.3,0.9,2.2,2.4,2.2
		C154.5,46.5,155,45.9,154.9,45z M75.1,54.9c0,0.2,0,0.3,0,0.5c0.9,0.4,2,0.5,2.6,1.2c1.6,1.6,2.3,0.3,3.1-0.7
		c0.6-0.8,0.8-1.7,0.9-2.9C79.7,54.5,77.5,54.9,75.1,54.9z M111.4,74.9c-1.1-1.2-2-2.3-3-3.4c-1,1.1-2,2.2-3,3.4
		C107.4,74.9,109.3,74.9,111.4,74.9z M40.8,35.4c-0.5-0.6-0.9-1-1.1-1.5c-0.5-1.1-0.9-1.2-1.7-0.2c-0.5,0.6-1.3,1.3-1,1.9
		c0.5,1,1.6,0.6,2.5,0.2C39.8,35.6,40.3,35.5,40.8,35.4z M13.8,36c0.7-0.2,1.8,0.4,1.9-0.8c0-0.2-0.8-1.4-1.5-1.3
		c-0.8,0.1-1.6,0.9-1.7,1.6C12.4,36.4,13.4,35.7,13.8,36z M50.8,35.3c1,0.2,1.9,0.7,2.6-0.2c0.1-0.2-0.4-1.2-0.8-1.3
		C51.4,33.5,51.4,34.8,50.8,35.3z"/>
	<path class="st0" d="M7.5,120.4c4,0.1,7.6,1.5,11.1,3.3c2.3,1.1,4.5,2.3,6.9,3.1c4.6,1.7,9.2,1.4,13.8,0.1c3.2-0.9,6.3-2.4,9.5-3.4
		c3.2-1,6.2-2.5,9.6-3c1.9-0.3,4-1,5.9-1.1c2.7-0.1,5.6,0,8.3,1c3.9,1.5,7.5,3.5,11.2,5.3c6.9,3.2,13.6,2.6,20.1-0.9
		c3.5-1.9,7.1-3.6,11-4.5c5.6-1.2,10.8,0.2,15.9,2.4c2.8,1.2,5.3,2.8,8.1,4c5,2.1,9.8,1.3,14.6-0.6c3.4-1.4,6.7-3,10.1-4.4
		c6-2.5,12-2.4,18.1-0.2c3.7,1.4,7.4,2.9,11.2,4.2c6.4,2.1,12.4,1.2,18.2-2c3.9-2.2,7.9-4.4,12.6-3.9c3.5,0.3,6.8,1.6,10,2.9
		c4.4,1.8,8.8,3.8,13.6,4.6c3.2,0.5,6.1-0.1,9-1.1c4.6-1.6,9.1-3.4,13.8-4.7c8.1-2.3,15.9-1.6,23.5,2.2c3.4,1.7,6.9,3.3,10.8,4.1
		c4,0.9,7.7-0.1,11.3-1.7c3.3-1.5,6.5-3.2,9.9-4.5c4.9-1.9,9.8-1.9,14.6,0c4.2,1.6,8.4,3.4,12.6,5.2c6.6,2.9,12.8,2.2,18.7-1.9
		c2.5-1.7,5.1-3.3,7.9-4.5c2.8-1.1,5.6-1.2,8.5-0.7c0.9,0.2,1.1,0.7,1,1.5c0,0.9-0.7,1.3-1.4,1.1c-5.2-1.4-9.2,1.2-13.2,3.8
		c-2.6,1.7-5.2,3.4-8.2,4.3c-4.8,1.3-9.3,0.4-13.8-1.2c-4.5-1.6-8.6-4-13.1-5.4c-5.1-1.6-10-1.2-14.8,1c-2.9,1.3-5.7,2.8-8.6,4.2
		c-6.3,3-12.3,2.2-18.4-0.7c-3.2-1.5-6.3-3.1-9.8-4.2c-5.3-1.6-10.6-1.4-15.9-0.1c-5.3,1.3-10.2,3.5-15.4,5.1
		c-5.6,1.7-11,1.1-16.4-0.8c-3.4-1.2-6.6-2.8-10-4.1c-5.9-2.1-11.5-1.7-16.9,1.5c-9,5.2-18,4.9-27.2,0.4c-3.7-1.8-7.6-3.3-11.8-3.4
		c-4.9-0.2-9.4,1.3-13.7,3.4c-4.4,2.1-8.9,4-13.8,4.4c-4.6,0.4-8.7-1.1-12.7-3.2c-2.9-1.5-5.8-3.2-9-4c-5.9-1.5-11.3-0.3-16.5,2.7
		c-3.8,2.2-7.9,3.8-12.3,4.7c-4.7,0.9-9.1-0.1-13.3-2c-3.9-1.8-7.7-3.6-11.5-5.7c-1.1-0.6-2.5-0.6-3.8-0.7c-1.2-0.1-2.1-1.5-3.3-0.8
		c-1.2,0.8-2.5,0.7-3.8,0.9c-4.5,0.5-8.4,2.8-12.4,4.8c-4.1,2-8.3,3.4-12.8,4c-4.5,0.6-8.6-0.9-12.7-2.7c-3.9-1.8-7.7-3.8-11.9-4.8
		c-1.6-0.3-3.1-0.3-4.7-0.3c-0.8,0-1.6,0-1.6-1c0-0.9,0.4-1.4,1.3-1.5C6.3,120.6,6.9,120.5,7.5,120.4z"/>
	<path class="st0" d="M331.7,74.1c0,6.6-5.8,12.1-12.9,12.1c-6.5,0-12.1-5.6-12.1-12c0.1-6.4,6.1-12.1,12.8-12.1
		C326.5,62.1,331.7,67.2,331.7,74.1z M309.7,74.2c0,5.3,3.9,9.3,9.1,9.3c5.8,0,10.2-4.1,10.2-9.5c0-5.3-3.8-9.2-9.2-9.2
		C314.3,64.9,309.4,68.8,309.7,74.2z"/>
	<path class="st0" d="M336.9,71.2c-0.4,6-2.2,11.5-5.1,16.7c-1.4,2.5-2.9,4.9-4.8,7.1c-0.5,0.6-0.9,1.5-1.9,0.7
		c-1-0.8-0.7-1.6,0-2.4c2.2-2.8,4.1-5.8,5.6-9c2-4.2,3.3-8.6,3.5-13.3c0-0.6,0.1-1.3,0.2-1.9c0.1-0.7,0.4-1.4,1.3-1.2
		c0.8,0.1,1.2,0.7,1.1,1.5C336.9,69.9,336.9,70.5,336.9,71.2z"/>
	<path class="st0" d="M293.7,66.9c0.1-0.8,0.1-1.9,0.3-2.9c0.2-1,0.7-1.9,1.8-1.7c1.2,0.2,1.2,1.3,0.9,2.3c-1,3.6-0.5,6.7,2.6,9.1
		c0.6,0.5,0.9,1.2,0.3,2c-0.6,0.8-1.2,0.6-1.9,0.2C294.6,73.7,293.7,70.7,293.7,66.9z"/>
	<path class="st0" d="M324.1,31.1c0.2-1.7,0.3-4.3,1.3-6.7c1.3-3,3.3-4.8,6.5-5.6c10.3-2.5,17.1,5.8,14.7,14.2
		c-1.5,5.2-4,9.7-7.9,13.5c-2.4,2.4-4.1,2.5-6.7,0.4C327.5,43.4,323.7,38.1,324.1,31.1z M326.6,32.4c-0.3,4.7,2.8,8.8,6.8,12.3
		c0.8,0.7,1.9,0.8,2.7,0.1c4.5-4.1,8-8.8,8-15.2c0.1-6.9-7.3-10.5-13.2-7.6C327.3,23.9,326.7,27.5,326.6,32.4z"/>
	<path class="st0" d="M310.8,32.9c-0.4,4.5-1.3,8.6-3,12.5c-0.4,0.9-0.9,1.6-1.9,1.2c-1.2-0.4-0.8-1.5-0.5-2.2
		c1.1-2.7,2-5.5,2.4-8.4c0.2-1.8,0.4-3.5,0.1-5.2c-0.1-0.9,0.1-1.5,1-1.6c0.8-0.1,1.5,0.3,1.6,1.2C310.6,31.3,310.7,32.2,310.8,32.9
		z"/>
	<path class="st0" d="M88.9,80.2c3.1,0,6.3-0.3,9.4,0.1c2.4,0.3,4.8-0.3,7.2-0.1c0.9,0.1,1.8,0.1,1.8,1.2c0,1-0.7,1.5-1.7,1.6
		c-0.2,0-0.4,0-0.6,0c-7.8-0.4-15.6,0.3-23.4-0.4c-1-0.1-2.1,0.2-3.2,0c-0.9-0.2-1.6-0.5-1.4-1.5c0.2-1.1,1.1-1.1,1.9-1.1
		c2.5,0.1,5,0.1,7.5,0.2C87.3,80.2,88.1,80.2,88.9,80.2C88.9,80.2,88.9,80.2,88.9,80.2z"/>
	<path class="st0" d="M119.3,81.4c-0.4,4.6-3.2,8.2-6.9,11.1c-0.8,0.7-1.7,1.2-2.6,1.8c-0.8,0.6-1.3,0.2-1.7-0.4
		c-0.4-0.6-0.2-1.1,0.4-1.6c1.6-1.2,3.2-2.4,4.6-3.8c1.8-1.8,2.8-4,3.3-6.5c0.1-0.4,0-0.8,0.1-1.1c0.1-1,0.3-2,1.6-1.9
		C119.3,79.2,119.4,80.2,119.3,81.4z"/>
	<path class="st0" d="M39.1,47.2c-0.6,0-1.1-0.5-1.3-1.2c-0.2-0.9,0.4-1.4,1.2-1.5c3.1-0.6,6.2-1.2,9.1-2.7c1-0.5,2-1,2.9-1.6
		c0.7-0.4,1.5-0.7,2,0.1c0.5,0.8,0.3,1.7-0.6,2.3c-2.7,1.7-5.7,2.8-8.8,3.6C42.2,46.6,40.7,46.9,39.1,47.2z"/>
	<path class="st0" d="M327.9,74.1c0.4,4.5-4.3,8.2-8.6,8.3c-4.3,0.1-8.4-4-8.3-8.2c0.1-3.8,3.5-8.2,8.7-8.2
		C324.6,65.9,328.3,69.9,327.9,74.1z M316,73c0.6,0,1.6,0.1,1.4-0.5c-0.3-0.9-0.3-2.4-1.5-2.4c-0.8,0-1.6,1-1.6,1.9
		C314.2,73.4,315.5,72.6,316,73z M321.8,73.3c1.1-0.2,2.5,1.1,3.2-0.4c0.3-0.7-0.3-2-0.9-2.1C322.7,70.7,322.5,72.2,321.8,73.3z
		 M319,79.6c0.5-0.1,1.3,0.2,1.1-0.7c-0.2-0.7-0.2-1.9-1.1-1.9c-0.5,0-1.3,0.9-1.4,1.8C317.6,79.7,318.5,79.4,319,79.6z M319.7,70.7
		c0.5-0.6,1.7-0.8,1.1-1.8c-0.3-0.5-1.4-0.4-1.7-0.1C318.3,69.6,319.6,70,319.7,70.7z M321.8,76.2c0.8,0.8,0.5,1.8,1.6,1.7
		c0.5,0,1.2-0.7,1-1.1C324,75.8,323,76.5,321.8,76.2z"/>
</g>
</svg>
