<svg xmlns="http://www.w3.org/2000/svg" width="239.29466248" height="191.69999695">
    <g fill="#67af26" stroke="#67af26" class="selected" clip-path="url(#a)" transform="rotate(152.761 90.26721954 78.80258942)">
      <path d="M158.02431495 41.78489297c-3.32 1.644-6.624 3.334-9.875 5.109-.198.108-1.197.601-2.081.997.041.993-.964 1.992-2.123 1.366-28.57-15.403-56.82.498-66.733 29.635-8.016 23.564 6.604 50.826 26.578 62.946 47.366 28.74 85.938-45.653 59.066-81.555-.007-.007-.007-.016-.013-.023-.588.175-1.283.024-1.803-.661-2.475-3.26 1.515-8.837 3.147-11.542 2.87-4.757 6.412-9.117 9.446-13.777-5.314 2.239-10.479 4.966-15.609 7.505m-88.445-2.903c-10.418-3.005-20.968-.187-31.116 2.591-.045.013-.077-.021-.121-.016-.459.084-.951-.026-1.37-.493-7.767-8.611-16.348-16.388-24.75-24.355 4.922 11.369 9.029 23.07 11.24 35.299.267.673.064 1.548-.784 1.84-8.399 2.9-12.903 15.652-15.841 23.239-5.226 13.498-1.928 30.555 7.785 40.984 16.142 17.334 45.418 11.367 63.255.557-2.614-5.596-4.43-11.621-5.347-17.707-.215.108-.461.182-.762.178-17.361-.196-34.638 1.529-51.985 1.475-1.583-.005-1.531-2.288 0-2.421 17.218-1.491 34.694-3.09 51.985-2.33.164.008.293.064.431.105-.763-7.611-.1-15.221 2.373-22.114-17.208.112-34.411.553-51.619.626-1.392.007-1.363-2.048 0-2.14 17.659-1.184 35.339-1.879 53.04-1.887 3.233-7.046 7.627-13.287 12.83-18.402-.046-.182-.064-.374-.037-.573 1.2-8.866-12.816-12.612-19.207-14.456m109.521-7.135c-2.203 4.132-5.142 7.883-7.814 11.716-1.852 2.657-8.95 10.845-7.481 14.469.677-.198 1.468-.074 1.993.629 33.42 44.653-20.71 118.383-70.995 81.347-6.478-4.771-11.855-11.509-15.797-19.161-18.345 14.251-54.547 17.676-69.568-3.409-8.957-12.574-10.524-29.243-4.947-43.636 2.55-6.577 7.799-20.73 16.194-22.429-3.993-14.085-8.828-27.8-15.047-41.078-.79-1.688 1.225-3.477 2.664-2.055 10.318 10.191 21.337 19.648 31.06 30.433.039.044.047.092.081.136 13.176-5.489 25.984-5.608 39.306-.246 4.857 1.954 13.3 6.362 13.498 12.331 14.3-11.899 33.524-15.626 51.773-4.8 2.044-2.699 8.068-4.901 9.815-5.819 7.531-3.955 15.311-8.078 23.354-10.913 1.482-.521 2.562 1.266 1.911 2.485"/>
      <path fill="none" stroke="none" stroke-miterlimit="10" stroke-width="1.41700006" d="M158.02431495 41.78489297c-3.32 1.644-6.624 3.334-9.875 5.109-.198.108-1.197.601-2.081.997.041.993-.964 1.992-2.123 1.366-28.57-15.403-56.82.498-66.733 29.635-8.016 23.564 6.604 50.826 26.578 62.946 47.366 28.74 85.938-45.653 59.066-81.555-.007-.007-.007-.016-.013-.023-.588.175-1.283.024-1.803-.661-2.475-3.26 1.515-8.837 3.147-11.542 2.87-4.757 6.412-9.117 9.446-13.777-5.314 2.239-10.479 4.966-15.609 7.505zm-88.445-2.903c-10.418-3.005-20.968-.187-31.116 2.591-.045.013-.077-.021-.121-.016-.459.084-.951-.026-1.37-.493-7.767-8.611-16.348-16.388-24.75-24.355 4.922 11.369 9.029 23.07 11.24 35.299.267.673.064 1.548-.784 1.84-8.399 2.9-12.903 15.652-15.841 23.239-5.226 13.498-1.928 30.555 7.785 40.984 16.142 17.334 45.418 11.367 63.255.557-2.614-5.596-4.43-11.621-5.347-17.707-.215.108-.461.182-.762.178-17.361-.196-34.638 1.529-51.985 1.475-1.583-.005-1.531-2.288 0-2.421 17.218-1.491 34.694-3.09 51.985-2.33.164.008.293.064.431.105-.763-7.611-.1-15.221 2.373-22.114-17.208.112-34.411.553-51.619.626-1.392.007-1.363-2.048 0-2.14 17.659-1.184 35.339-1.879 53.04-1.887 3.233-7.046 7.627-13.287 12.83-18.402-.046-.182-.064-.374-.037-.573 1.2-8.866-12.816-12.612-19.207-14.456zm109.521-7.135c-2.203 4.132-5.142 7.883-7.814 11.716-1.852 2.657-8.95 10.845-7.481 14.469.677-.198 1.468-.074 1.993.629 33.42 44.653-20.71 118.383-70.995 81.347-6.478-4.771-11.855-11.509-15.797-19.161-18.345 14.251-54.547 17.676-69.568-3.409-8.957-12.574-10.524-29.243-4.947-43.636 2.55-6.577 7.799-20.73 16.194-22.429-3.993-14.085-8.828-27.8-15.047-41.078-.79-1.688 1.225-3.477 2.664-2.055 10.318 10.191 21.337 19.648 31.06 30.433.039.044.047.092.081.136 13.176-5.489 25.984-5.608 39.306-.246 4.857 1.954 13.3 6.362 13.498 12.331 14.3-11.899 33.524-15.626 51.773-4.8 2.044-2.699 8.068-4.901 9.815-5.819 7.531-3.955 15.311-8.078 23.354-10.913 1.482-.521 2.562 1.266 1.911 2.485z"/>
      <path d="M152.20331495 75.22009297c-5.827-2.811-19.443.81-25.597 1.348-10.444.911-21.521 2.974-32.015 2.016-1.783-.163-1.849-2.807 0-2.821 12.302-.095 24.699-1.945 36.943-3.018 4.44-.389 19.308-3.994 22.601.546.908 1.253-.787 2.481-1.932 1.929"/>
      <path fill="none" stroke="none" stroke-miterlimit="10" stroke-width="1.41700006" d="M152.20331495 75.22009297c-5.827-2.811-19.443.81-25.597 1.348-10.444.911-21.521 2.974-32.015 2.016-1.783-.163-1.849-2.807 0-2.821 12.302-.095 24.699-1.945 36.943-3.018 4.44-.389 19.308-3.994 22.601.546.908 1.253-.787 2.481-1.932 1.929z"/>
      <path d="M154.37531495 89.41769297c-.576.169-1.145.356-1.711.56-1.67.571-2.332-1.736-1.112-2.64-3.489 2.588-17.3 1.661-24.935 1.623-10.465-.053-20.931-.158-31.393-.394-1.611-.036-1.611-2.465 0-2.501 11.95-.27 23.905-.356 35.857-.416 4.611-.024 21.075-2.764 24.04.94.791.987.562 2.423-.746 2.828"/>
      <path fill="none" stroke="none" stroke-miterlimit="10" stroke-width="1.41700006" d="M154.37531495 89.41769297c-.576.169-1.145.356-1.711.56-1.67.571-2.332-1.736-1.112-2.64-3.489 2.588-17.3 1.661-24.935 1.623-10.465-.053-20.931-.158-31.393-.394-1.611-.036-1.611-2.465 0-2.501 11.95-.27 23.905-.356 35.857-.416 4.611-.024 21.075-2.764 24.04.94.791.987.562 2.423-.746 2.828z"/>
      <path d="M154.18401495 102.32099297c-11.418-.225-22.818 1.859-34.208 2.452-6.378.333-18.067 1.419-22.602-4.389-.319-.409-.043-1.07.533-.917 18.854 5.019 37.173-.905 56.277-.529 2.179.043 2.182 3.427 0 3.383"/>
      <path fill="none" stroke="none" stroke-miterlimit="10" stroke-width="1.41700006" d="M154.18401495 102.32099297c-11.418-.225-22.818 1.859-34.208 2.452-6.378.333-18.067 1.419-22.602-4.389-.319-.409-.043-1.07.533-.917 18.854 5.019 37.173-.905 56.277-.529 2.179.043 2.182 3.427 0 3.383z"/>
      <path d="M70.81531495 89.72539297c-6.392 1.871-14.754.179-21.332-.138-9.056-.437-18.126-1.004-27.163-1.736-1.484-.12-1.528-2.352 0-2.339 9.052.069 18.117.414 27.163.766 6.691.259 14.906-.8 21.332 1.164 1.119.343 1.139 1.95 0 2.283"/>
      <path fill="none" stroke="none" stroke-miterlimit="10" stroke-width="1.41700006" d="M70.81531495 89.72539297c-6.392 1.871-14.754.179-21.332-.138-9.056-.437-18.126-1.004-27.163-1.736-1.484-.12-1.528-2.352 0-2.339 9.052.069 18.117.414 27.163.766 6.691.259 14.906-.8 21.332 1.164 1.119.343 1.139 1.95 0 2.283z"/>
    </g>
</svg>
