<?xml version="1.0" encoding="utf-8"?>
<!-- Generator: Adobe Illustrator 17.1.0, SVG Export Plug-In . SVG Version: 6.00 Build 0)  -->
<!DOCTYPE svg PUBLIC "-//W3C//DTD SVG 1.1//EN" "http://www.w3.org/Graphics/SVG/1.1/DTD/svg11.dtd">
<svg version="1.1" id="Layer_1" xmlns="http://www.w3.org/2000/svg" xmlns:xlink="http://www.w3.org/1999/xlink" x="0px" y="0px"
	 viewBox="0 0 76.9627 50.0109" enable-background="new 0 0 76.9627 50.0109" xml:space="preserve">
<g>
	<g>
		<defs>
			<path id="SVGID_1_" d="M58.1199,4.5619c2.6557-0.7513,5.3135-1.5034,7.9701-2.2538c2.6566-0.7498,5.3129-1.502,7.9719-2.2536
				c1.593-0.4507,2.9008,1.9493,2.9008,5.332c0,3.0717,0,6.1496,0,9.2217c0,3.0717,0,6.15,0,9.2248
				c0,3.3823-1.3063,5.7796-2.9008,5.3289c-2.6581-0.7517-5.3154-1.5052-7.9719-2.2569c-2.6563-0.7517-5.3129-1.5055-7.9701-2.2572
				c-1.5933-0.4508-2.8986-2.4814-2.8986-4.511c0-1.8449,0-3.6899,0-5.5347c0-1.842,0-3.6868,0-5.5323
				C55.2213,7.0405,56.526,5.0126,58.1199,4.5619"/>
		</defs>
		<clipPath id="SVGID_2_">
			<use xlink:href="#SVGID_1_"  overflow="visible"/>
		</clipPath>
		
			<linearGradient id="SVGID_3_" gradientUnits="userSpaceOnUse" x1="-210.9438" y1="107.5266" x2="-210.3645" y2="107.5266" gradientTransform="matrix(-50.9238 0 0 -32.2832 -10673.3779 3485.9104)">
			<stop  offset="0" style="stop-color:#003D41"/>
			<stop  offset="1" style="stop-color:#8FC575"/>
		</linearGradient>
		<rect x="55.2213" y="-0.3963" clip-path="url(#SVGID_2_)" fill="url(#SVGID_3_)" width="21.7415" height="30.0088"/>
	</g>
	<g>
		<defs>
			<path id="SVGID_4_" d="M18.8433,4.5619c-2.6568-0.7513-5.3135-1.5034-7.9702-2.2538c-2.6571-0.7498-5.3134-1.502-7.9728-2.2536
				C1.3071-0.3963,0,2.0037,0,5.3864c0,3.0717,0,6.1496,0,9.2217c0,3.0717,0,6.15,0,9.2248c0,3.3823,1.3063,5.7796,2.9002,5.3289
				c2.6584-0.7517,5.3152-1.5052,7.9728-2.2569c2.6559-0.7517,5.3126-1.5055,7.9702-2.2572
				c1.5926-0.4508,2.8976-2.4814,2.8976-4.511c0-1.8449,0-3.6899,0-5.5347c0-1.842,0-3.6868,0-5.5323
				C21.7409,7.0405,20.4367,5.0126,18.8433,4.5619"/>
		</defs>
		<clipPath id="SVGID_5_">
			<use xlink:href="#SVGID_4_"  overflow="visible"/>
		</clipPath>
		
			<linearGradient id="SVGID_6_" gradientUnits="userSpaceOnUse" x1="-206.5121" y1="126.0896" x2="-206.0417" y2="126.0896" gradientTransform="matrix(49.9204 0 0 32.2832 10320.0156 -4055.9673)">
			<stop  offset="0" style="stop-color:#7ED688"/>
			<stop  offset="1" style="stop-color:#C2F8A8"/>
		</linearGradient>
		<rect x="0" y="-0.3963" clip-path="url(#SVGID_5_)" fill="url(#SVGID_6_)" width="21.7409" height="30.0088"/>
	</g>
	<g>
		<defs>
			<path id="SVGID_7_" d="M44.1031,4.5619c1.3285-0.7513,2.6566-1.5034,3.9854-2.2538c1.3281-0.7498,2.6563-1.502,3.986-2.2536
				c0.7963-0.4507,1.4504,1.9493,1.4504,5.332c0,3.0717,0,6.1496,0,9.2217c0,3.0717,0,6.15,0,9.2248
				c0,3.3823-0.6531,5.7796-1.4504,5.3289c-1.3291-0.7517-2.6575-1.5052-3.986-2.2569c-1.3281-0.7517-2.6566-1.5055-3.9854-2.2572
				c-0.7963-0.4508-1.4486-2.4814-1.4486-4.511c0-1.8449,0-3.6899,0-5.5347c0-1.842,0-3.6868,0-5.5323
				C42.6546,7.0405,43.3065,5.0126,44.1031,4.5619"/>
		</defs>
		<clipPath id="SVGID_8_">
			<use xlink:href="#SVGID_7_"  overflow="visible"/>
		</clipPath>
		
			<linearGradient id="SVGID_9_" gradientUnits="userSpaceOnUse" x1="-213.4505" y1="107.5266" x2="-212.744" y2="107.5266" gradientTransform="matrix(-24.0253 0 0 -32.2832 -5077.0571 3485.9104)">
			<stop  offset="0" style="stop-color:#005741"/>
			<stop  offset="1" style="stop-color:#8FC575"/>
		</linearGradient>
		<rect x="42.6546" y="-0.3963" clip-path="url(#SVGID_8_)" fill="url(#SVGID_9_)" width="10.8703" height="30.0088"/>
	</g>
	<g>
		<defs>
			<path id="SVGID_10_" d="M32.8592,4.5619c-1.3279-0.7513-2.6567-1.5034-3.9851-2.2538c-1.3284-0.7498-2.6563-1.502-3.986-2.2536
				c-0.7967-0.4507-1.4503,1.9493-1.4503,5.332c0,3.0717,0,6.1496,0,9.2217c0,3.0717,0,6.15,0,9.2248
				c0,3.3823,0.6531,5.7796,1.4503,5.3289c1.3292-0.7517,2.6576-1.5052,3.986-2.2569c1.3284-0.7517,2.6568-1.5055,3.9851-2.2572
				c0.7967-0.4508,1.449-2.4814,1.449-4.511c0-1.8449,0-3.6899,0-5.5347c0-1.842,0-3.6868,0-5.5323
				C34.3082,7.0405,33.6563,5.0126,32.8592,4.5619"/>
		</defs>
		<clipPath id="SVGID_11_">
			<use xlink:href="#SVGID_10_"  overflow="visible"/>
		</clipPath>
		
			<linearGradient id="SVGID_12_" gradientUnits="userSpaceOnUse" x1="-204.3817" y1="126.0896" x2="-203.8931" y2="126.0896" gradientTransform="matrix(25.3638 0 0 32.2832 5212.6006 -4055.9673)">
			<stop  offset="0" style="stop-color:#65BD6F"/>
			<stop  offset="1" style="stop-color:#C2F8A8"/>
		</linearGradient>
		<rect x="23.4378" y="-0.3963" clip-path="url(#SVGID_11_)" fill="url(#SVGID_12_)" width="10.8704" height="30.0088"/>
	</g>
	<g>
		<defs>
			<path id="SVGID_13_" d="M39.5465,4.5619c0.1989-0.7513,0.3979-1.5034,0.5966-2.2538c0.1994-0.7498,0.398-1.502,0.597-2.2536
				c0.1193-0.4507,0.2174,1.9493,0.2174,5.332c0,3.0717,0,6.1496,0,9.2217c0,3.0717,0,6.15,0,9.2248
				c0,3.3823-0.0981,5.7796-0.2174,5.3289c-0.1989-0.7517-0.3976-1.5052-0.597-2.2569c-0.1988-0.7517-0.3977-1.5055-0.5966-2.2572
				c-0.1192-0.4508-0.2169-2.4814-0.2169-4.511c0-1.8449,0-3.6899,0-5.5347c0-1.842,0-3.6868,0-5.5323
				C39.3296,7.0405,39.4274,5.0126,39.5465,4.5619"/>
		</defs>
		<clipPath id="SVGID_14_">
			<use xlink:href="#SVGID_13_"  overflow="visible"/>
		</clipPath>
		
			<linearGradient id="SVGID_15_" gradientUnits="userSpaceOnUse" x1="-239.0345" y1="107.5181" x2="-238.1297" y2="107.5181" gradientTransform="matrix(-3.6737 0 0 -32.2838 -837.1835 3485.7012)">
			<stop  offset="0" style="stop-color:#187041"/>
			<stop  offset="1" style="stop-color:#F5F8FF"/>
		</linearGradient>
		<rect x="39.3296" y="-0.3963" clip-path="url(#SVGID_14_)" fill="url(#SVGID_15_)" width="1.6279" height="30.0088"/>
	</g>
	<g>
		<defs>
			<path id="SVGID_16_" d="M37.4161,4.5619c-0.1989-0.7513-0.3982-1.5034-0.597-2.2538c-0.1988-0.7498-0.3977-1.502-0.597-2.2536
				c-0.1193-0.4507-0.2169,1.9493-0.2169,5.332c0,3.0717,0,6.1496,0,9.2217c0,3.0717,0,6.15,0,9.2248
				c0,3.3823,0.0976,5.7796,0.2169,5.3289c0.1993-0.7517,0.3982-1.5052,0.597-2.2569c0.1989-0.7517,0.3977-1.5055,0.597-2.2572
				c0.1193-0.4508,0.2171-2.4814,0.2171-4.511c0-1.8449,0-3.6899,0-5.5347c0-1.842,0-3.6868,0-5.5323
				C37.6331,7.0405,37.5354,5.0126,37.4161,4.5619"/>
		</defs>
		<clipPath id="SVGID_17_">
			<use xlink:href="#SVGID_16_"  overflow="visible"/>
		</clipPath>
		
			<linearGradient id="SVGID_18_" gradientUnits="userSpaceOnUse" x1="-188.7766" y1="126.0896" x2="-187.8712" y2="126.0896" gradientTransform="matrix(5.472 0 0 32.2832 1068.9882 -4055.9673)">
			<stop  offset="0" style="stop-color:#4BA354"/>
			<stop  offset="1" style="stop-color:#F6F6FB"/>
		</linearGradient>
		<rect x="36.0051" y="-0.3963" clip-path="url(#SVGID_17_)" fill="url(#SVGID_18_)" width="1.6281" height="30.0088"/>
	</g>
</g>
<path fill="#4D4D4D" d="M67.3291,40.291c-0.1564-0.026-0.3396-0.0463-0.5457-0.0636c-0.2032-0.0146-0.4296-0.0234-0.6735-0.0234
	c-0.7609,0.0026-1.4692,0.0697-2.1192,0.1945c-0.6507,0.1276-1.2225,0.2876-1.7131,0.4847v8.9185h2.3693v-7.4899
	c0.1506-0.061,0.331-0.1073,0.5398-0.1423c0.2088-0.0319,0.4237-0.0494,0.6445-0.0494c0.1943,0,0.3803,0.0114,0.5632,0.0374
	c0.1826,0.0236,0.3483,0.0584,0.4995,0.1018L67.3291,40.291z"/>
<path fill="#4D4D4D" d="M61.0807,42.7242c-0.1777-0.5228-0.4357-0.97-0.7813-1.3474c-0.3424-0.3743-0.7664-0.6652-1.2662-0.8648
	c-0.502-0.2037-1.0768-0.3054-1.7269-0.308c-0.6848,0.0026-1.2977,0.1219-1.8347,0.3602c-0.537,0.2377-0.9931,0.5745-1.3676,1.0102
	c-0.3745,0.4352-0.6617,0.9492-0.8561,1.5471c-0.1977,0.5953-0.2935,1.2546-0.2965,1.9771c0,0.726,0.1019,1.3879,0.3049,1.989
	c0.2032,0.5978,0.5019,1.1144,0.9028,1.5502c0.3982,0.4384,0.8912,0.7751,1.4803,1.0132c0.5928,0.2351,1.2749,0.3571,2.0499,0.3599
	c0.4561,0,0.9005-0.0288,1.3297-0.0872c0.4296-0.0579,0.8275-0.1361,1.1933-0.2377c0.3627-0.1016,0.6793-0.2209,0.9435-0.3544
	l-0.6793-1.7765c-0.2236,0.1158-0.4758,0.2205-0.7637,0.3076c-0.2845,0.0902-0.5833,0.1595-0.9001,0.2091
	c-0.3163,0.049-0.6328,0.0754-0.9491,0.0754c-0.4613,0-0.8736-0.0754-1.2364-0.2262c-0.3661-0.1512-0.6652-0.3804-0.9004-0.6855
	c-0.2322-0.3049-0.3862-0.6853-0.4585-1.144l6.0442-0.819c0.0173-0.1392,0.0351-0.6703,0.0351-0.8011
	C61.3477,43.8302,61.2575,43.2465,61.0807,42.7242z M55.1114,44.5934c0.0148-0.5865,0.1133-1.0769,0.2962-1.472
	c0.1829-0.3972,0.4327-0.6938,0.7489-0.8939c0.3166-0.2002,0.6824-0.2992,1.0978-0.2992c0.3686,0,0.6848,0.0787,0.9521,0.2382
	c0.27,0.1569,0.4761,0.3949,0.6211,0.7084c0.1453,0.3162,0.2208,0.7083,0.2208,1.1789L55.1114,44.5934z"/>
<rect x="49.6174" y="36.1279" fill="#4D4D4D" width="2.369" height="13.6739"/>
<rect x="45.7783" y="36.1279" fill="#4D4D4D" width="2.3687" height="13.6739"/>
<path fill="#4D4D4D" d="M44.5459,42.7242c-0.1768-0.5228-0.4351-0.97-0.7809-1.3474c-0.3425-0.3743-0.7662-0.6652-1.2656-0.8648
	c-0.5023-0.2037-1.0769-0.3054-1.7274-0.308c-0.685,0.0026-1.2978,0.1219-1.8348,0.3602c-0.5374,0.2377-0.9928,0.5745-1.3672,1.0102
	c-0.3747,0.4352-0.6619,0.9492-0.8568,1.5471c-0.1971,0.5953-0.293,1.2546-0.2957,1.9771c0,0.726,0.1016,1.3879,0.3044,1.989
	c0.2034,0.5978,0.5025,1.1144,0.9028,1.5502c0.3982,0.4384,0.8915,0.7751,1.4809,1.0132c0.5922,0.2351,1.2744,0.3571,2.0496,0.3599
	c0.4559,0,0.9001-0.0288,1.3297-0.0872c0.4296-0.0579,0.8271-0.1361,1.1932-0.2377c0.3627-0.1016,0.679-0.2209,0.9432-0.3544
	l-0.679-1.7765c-0.2236,0.1158-0.4761,0.2205-0.7637,0.3076c-0.2845,0.0902-0.5833,0.1595-0.8998,0.2091
	c-0.3162,0.049-0.6332,0.0754-0.9492,0.0754c-0.4617,0-0.8741-0.0754-1.2368-0.2262c-0.3665-0.1512-0.6652-0.3804-0.9001-0.6855
	c-0.2325-0.3049-0.3864-0.6853-0.4589-1.144l6.0446-0.819c0.0172-0.1392,0.0348-0.6703,0.0348-0.8011
	C44.8132,43.8302,44.7236,43.2465,44.5459,42.7242z M38.5771,44.5934c0.0145-0.5865,0.1135-1.0769,0.296-1.472
	c0.1835-0.3972,0.4326-0.6938,0.749-0.8939c0.3164-0.2002,0.6829-0.2992,1.0977-0.2992c0.3686,0,0.685,0.0787,0.9525,0.2382
	c0.2695,0.1569,0.4758,0.3949,0.6211,0.7084c0.1451,0.3162,0.2205,0.7083,0.2205,1.1789L38.5771,44.5934z"/>
<path fill="#4D4D4D" d="M36.0971,49.6798v-1.9684c-0.0817,0.035-0.1834,0.0668-0.308,0.0959
	c-0.1219,0.026-0.247,0.0406-0.3716,0.0439c-0.2059,0-0.3889-0.0323-0.552-0.0961c-0.1621-0.0667-0.2903-0.1744-0.3832-0.3252
	c-0.0954-0.151-0.1418-0.3544-0.1449-0.6066v-4.6339h1.7596V40.413h-1.7596v-2.7693l-2.3342,0.6792v2.0901h-1.202v1.7765h1.202
	v4.7906c-0.0031,0.9842,0.2148,1.7245,0.6531,2.2179c0.4384,0.4963,1.1092,0.7434,2.012,0.7434c0.1945,0,0.38-0.0146,0.563-0.038
	c0.1829-0.0229,0.3487-0.0548,0.4998-0.0928C35.8787,49.7699,36.0007,49.7262,36.0971,49.6798z"/>
<rect x="27.711" y="40.413" fill="#4D4D4D" width="2.3691" height="9.3888"/>
<path fill="#4D4D4D" d="M30.2542,37.626c-0.0027-0.241-0.0641-0.4556-0.1861-0.6474c-0.1216-0.1918-0.2842-0.3424-0.4874-0.453
	c-0.2033-0.113-0.4327-0.1683-0.6854-0.1709c-0.2524,0.0026-0.4817,0.0579-0.6849,0.1709c-0.2033,0.1106-0.3659,0.2611-0.4879,0.453
	c-0.1219,0.1918-0.1825,0.4065-0.1855,0.6474c0.0031,0.2408,0.0636,0.4587,0.1855,0.6505c0.122,0.1943,0.2846,0.3481,0.4879,0.4613
	c0.2032,0.1162,0.4326,0.1746,0.6849,0.1772c0.2527-0.0026,0.4821-0.061,0.6854-0.1772c0.2032-0.1132,0.3658-0.267,0.4874-0.4613
	C30.1901,38.0847,30.2515,37.8668,30.2542,37.626z"/>
<path fill="#4D4D4D" d="M26.4154,49.8018v-6.4275c0-0.6767-0.1454-1.2484-0.4388-1.7217c-0.293-0.4702-0.7402-0.8304-1.3412-1.077
	c-0.6036-0.247-1.3672-0.3689-2.2966-0.3715c-0.772,0.0026-1.4658,0.0667-2.0814,0.1886c-0.6156,0.1247-1.1702,0.2873-1.6633,0.4905
	v8.9185h2.3686v-7.4726c0.16-0.0636,0.3659-0.1162,0.6156-0.1595c0.247-0.0437,0.514-0.0667,0.7959-0.0667
	c0.5427,0.0026,0.9519,0.1392,1.2334,0.4034c0.2788,0.2668,0.4211,0.6354,0.4211,1.1118v6.1836H26.4154z"/>
<path fill="#4D4D4D" d="M17.3329,49.3315V40.413h-2.369v7.4383c-0.1335,0.0547-0.3191,0.1016-0.5573,0.1449
	c-0.2381,0.0407-0.5113,0.061-0.8188,0.0641c-0.5223,0.0026-0.9173-0.1193-1.1843-0.3601
	c-0.2673-0.2439-0.4008-0.6151-0.4008-1.1203V40.413H9.6336v6.1143c0,0.81,0.1511,1.472,0.4503,1.9854
	c0.2961,0.514,0.7402,0.8944,1.3266,1.1383c0.5865,0.2408,1.312,0.3629,2.1773,0.3598c0.4906,0,0.9722-0.0288,1.4402-0.0872
	c0.4671-0.0579,0.8997-0.1361,1.2948-0.2377C16.7204,49.5844,17.0572,49.465,17.3329,49.3315z"/>
</svg>
