<?xml version="1.0" encoding="utf-8"?>
<!-- Generator: Adobe Illustrator 12.0.1, SVG Export Plug-In . SVG Version: 6.00 Build 51448)  -->
<!DOCTYPE svg PUBLIC "-//W3C//DTD SVG 1.1//EN" "http://www.w3.org/Graphics/SVG/1.1/DTD/svg11.dtd" [
	<!ENTITY ns_svg "http://www.w3.org/2000/svg">
	<!ENTITY ns_xlink "http://www.w3.org/1999/xlink">
]>
<svg  version="1.1" id="Ebene_1" xmlns="&ns_svg;" xmlns:xlink="&ns_xlink;" width="588.023" height="356.688"
	 viewBox="0 0 588.023 356.688" overflow="visible" enable-background="new 0 0 588.023 356.688" xml:space="preserve">
<g>
	<path fill="#FFFFFF" stroke="#000000" stroke-width="12.096" d="M567.072,6.048c8.424,0,14.903,6.768,14.903,14.832l0,0v0.216
		V335.88v0.216l0,0c0,8.064-6.768,14.544-15.191,14.544l0,0l0,0H21.528h-0.216l0,0c-8.424,0-15.264-6.479-15.264-14.544l0,0
		l0.072-0.216V21.096L6.048,20.88l0,0c0-8.064,6.192-14.832,14.616-14.832l0,0H567.072L567.072,6.048z"/>
	<path fill="#E2001A" d="M180.72,337.392c86.904,0,157.393-70.56,157.393-157.464c0-86.904-70.488-157.392-157.393-157.392
		c-86.976,0-157.464,70.488-157.464,157.392C23.256,266.832,93.744,337.392,180.72,337.392L180.72,337.392L180.72,337.392z"/>
	<path fill="#F6A800" d="M409.752,337.392c86.904,0,157.392-70.56,157.392-157.464c0-86.904-70.487-157.392-157.392-157.392
		c-86.977,0-157.392,70.488-157.392,157.392C252.36,266.832,322.775,337.392,409.752,337.392L409.752,337.392L409.752,337.392z"/>
	<path fill="#EB690A" d="M295.128,287.928c-26.496-28.224-42.768-66.24-42.768-108c0-41.328,15.984-78.984,41.976-107.064l0,0
		l3.312,1.728l0,0c25.128,27.936,40.465,64.872,40.465,105.336c0,40.68-15.48,77.688-40.752,105.696l0,0L295.128,287.928
		L295.128,287.928z"/>
	<polygon fill="#FFFFFF" points="54.144,140.472 67.896,140.472 85.536,184.464 101.304,140.472 115.848,140.472 115.848,199.08 
		104.544,199.08 104.544,155.592 89.424,199.08 80.856,199.08 65.736,156.168 65.736,199.08 54.144,199.08 54.144,140.472 	"/>
	<polygon fill="#FFFFFF" points="173.736,199.08 173.736,154.224 164.088,154.224 164.088,199.08 173.736,199.08 	"/>
	<g>
		<polygon fill="#FFFFFF" points="238.248,199.08 238.248,141.264 228.096,141.264 228.096,199.08 238.248,199.08 		"/>
		<polygon fill="#FFFFFF" points="222.264,154.224 222.264,164.952 244.872,164.952 244.872,154.224 222.264,154.224 		"/>
	</g>
	<polygon fill="#FFFFFF" points="451.439,199.08 451.439,154.224 441.792,154.224 441.792,199.08 451.439,199.08 	"/>
	<polygon fill="#FFFFFF" points="538.56,199.08 538.56,142.992 528.912,142.992 528.912,199.08 538.56,199.08 	"/>
	<path fill="#FFFFFF" d="M320.04,154.224h-10.008v44.856h10.151v-29.665l0,0c2.376-4.824,9.504-5.832,10.656-5.832l0,0v-9.648l0,0
		c-2.376,0-10.512,1.8-10.8,6.192l0,0V154.224L320.04,154.224z"/>
	<path fill="#FFFFFF" d="M473.472,154.224h-10.08v44.856h10.225v-29.665l0,0c2.304-4.824,9.504-5.832,10.584-5.832l0,0v-9.648l0,0
		c-2.305,0-10.44,1.8-10.729,6.192l0,0V154.224L473.472,154.224z"/>
	<path fill="#FFFFFF" d="M203.976,167.04h9.864l0,0c0-7.848-5.04-12.672-13.32-12.672c-8.28,0-14.832,4.32-14.832,13.968
		c0,9.647,10.152,11.016,11.808,11.448c2.016,0.575,7.56,1.224,7.56,7.344c0,2.304-2.736,2.88-5.112,2.88
		c-2.304,0-4.68-1.8-4.68-4.464l0,0h-11.016l0,0c0,10.08,7.848,14.112,15.696,14.112s15.336-6.337,15.336-13.969
		c0-7.487-7.344-11.88-13.104-12.744c-8.712-1.224-7.848-8.784-2.808-8.784C204.12,164.16,203.832,166.248,203.976,167.04
		L203.976,167.04L203.976,167.04z"/>
	<path fill="#FFFFFF" d="M384.768,183.023c-3.6,4.536-9.144,7.416-15.336,7.416c-10.8,0-19.512-8.712-19.512-19.368
		c0-10.8,8.712-19.512,19.512-19.512c6.12,0,11.664,2.808,15.192,7.272l0,0h12.672l0,0c-4.68-11.088-15.552-18.36-27.864-18.36
		c-16.92,0-30.6,13.68-30.6,30.6c0,16.776,13.68,30.528,30.6,30.528c12.528,0,23.328-7.775,28.08-18.576l0,0H384.768
		L384.768,183.023z"/>
	<path d="M516.96,311.472c0-10.224,8.352-17.784,18.144-17.784c9.648,0,18,7.561,18,17.784c0,10.296-8.352,17.784-18,17.784
		C525.312,329.256,516.96,321.768,516.96,311.472L516.96,311.472L516.96,311.472z"/>
	<path fill="#FFFFFF" d="M531.288,321.768h-3.097v-20.52h7.849l0,0c4.824,0,7.2,1.728,7.2,5.832c0,3.672-2.305,5.256-5.257,5.615
		l0,0l5.832,9.072h-3.527l-5.4-8.928h-3.6V321.768L531.288,321.768z"/>
	<path d="M530.928,310.104v-6.191h6.696l0,0c2.88,2.376,3.672,3.456,0,6.191l0,0H530.928L530.928,310.104z"/>
	<path fill="#FFFFFF" d="M515.376,200.16c12.888,0,23.4-10.513,23.4-23.329c0-12.96-10.513-23.4-23.4-23.4v9.936
		c7.416,0,13.464,6.048,13.464,13.464c0,7.344-6.048,13.392-13.464,13.392V200.16z M515.376,200.16L515.376,200.16v-9.937l0,0l0,0
		l0,0c-7.416,0-13.464-6.048-13.464-13.392c0-7.416,6.048-13.464,13.464-13.464l0,0v-9.936l0,0c-12.888,0-23.4,10.44-23.4,23.4
		C491.976,189.647,502.488,200.16,515.376,200.16L515.376,200.16L515.376,200.16z"/>
	<path fill="#FFFFFF" d="M428.256,200.16c12.96,0,23.4-10.513,23.4-23.329c0-12.96-10.44-23.4-23.4-23.4l0,0v9.936l0,0
		c7.416,0,13.464,6.048,13.464,13.464c0,7.344-6.048,13.392-13.464,13.392l0,0l0,0l0,0V200.16L428.256,200.16L428.256,200.16
		L428.256,200.16z M428.256,153.432c-12.888,0-23.4,10.44-23.4,23.4c0,12.816,10.513,23.329,23.4,23.329v-9.937
		c-7.416,0-13.464-6.048-13.464-13.392c0-7.416,6.048-13.464,13.464-13.464V153.432z"/>
	<path fill="#FFFFFF" d="M275.904,181.439h22.824l0,0c0.072-0.647,0.145-1.368,0.145-2.016v-1.944
		c-0.36-10.44-6.912-23.256-22.968-23.4v10.872c5.472,0,10.872,2.52,10.872,7.488l0,0h-10.872V181.439L275.904,181.439z
		 M275.904,200.304c9.072-0.144,21.816-6.048,21.816-13.608l0,0h-12.168l0,0c0,1.801-4.68,3.456-9.648,3.385V200.304z
		 M264.744,181.439h11.16v-9h-10.872l0,0l0,0c0-4.968,5.4-7.488,10.872-7.488V154.08c-0.072,0-0.216,0-0.288,0
		c-14.544,0-22.464,12.096-22.536,23.904v0.432c0.216,11.161,7.344,21.889,22.392,21.889c0.144,0,0.288,0,0.432,0V190.08
		C270.432,190.008,264.744,187.775,264.744,181.439L264.744,181.439L264.744,181.439z"/>
	<path fill="#FFFFFF" d="M150.624,200.16c12.888,0,23.4-10.513,23.4-23.329c0-12.96-10.512-23.4-23.4-23.4v9.936
		c7.416,0,13.464,6.048,13.464,13.464c0,7.344-6.048,13.392-13.464,13.392V200.16z M150.624,200.16L150.624,200.16v-9.937l0,0l0,0
		l0,0c-7.416,0-13.464-6.048-13.464-13.392c0-7.416,6.048-13.464,13.464-13.464l0,0v-9.936l0,0c-12.96,0-23.4,10.44-23.4,23.4
		C127.224,189.647,137.664,200.16,150.624,200.16L150.624,200.16L150.624,200.16z"/>
</g>
</svg>
