<svg xmlns="http://www.w3.org/2000/svg" viewBox="0 0 455.32 110.18"><defs><style>.a{fill:#00579f;}.b{fill:#faa61a;}.c{fill:#e2001a;}.d{fill:#f6a800;}.e{fill:#eb690a;}.f{fill:#fff;}</style></defs><title>logo-visa-mastercard</title><polygon class="a" points="111.78 95.54 90.88 95.54 103.95 14.73 124.85 14.73 111.78 95.54"/><path class="a" d="M189.58,19.53a51.5,51.5,0,0,0-18.74-3.44c-20.64,0-35.17,11-35.26,26.74-.17,11.61,10.4,18.05,18.31,21.92,8.08,4,10.83,6.54,10.83,10.06-.08,5.41-6.53,7.91-12.55,7.91-8.34,0-12.81-1.29-19.61-4.3l-2.75-1.29-2.92,18.14c4.9,2.23,13.93,4.21,23.3,4.3,21.93,0,36.2-10.83,36.37-27.6.08-9.2-5.5-16.25-17.54-22-7.31-3.7-11.78-6.19-11.78-10,.09-3.44,3.79-7,12-7a35.5,35.5,0,0,1,15.57,3.09l1.89.86,2.84-17.45Z" transform="translate(-2.05 -2.82)"/><path class="a" d="M217.35,69.73c1.72-4.64,8.34-22.61,8.34-22.61-.09.17,1.72-4.73,2.75-7.74l1.46,7s4,19.34,4.82,23.38Zm25.79-52.18H227c-5,0-8.77,1.46-10.92,6.71L185,98.36h21.93l4.39-12.12h26.83c.6,2.84,2.49,12.12,2.49,12.12H260L243.14,17.55h0Z" transform="translate(-2.05 -2.82)"/><path class="a" d="M75.48,17.55,55,72.66,52.78,61.48C49,48.58,37.13,34.57,23.89,27.61L42.63,98.28h22.1L97.57,17.55H75.48Z" transform="translate(-2.05 -2.82)"/><path class="b" d="M36,17.55H2.39L2,19.18c26.23,6.71,43.59,22.87,50.73,42.3L45.47,24.34c-1.2-5.16-4.9-6.62-9.46-6.79Z" transform="translate(-2.05 -2.82)"/><path class="c" d="M322.14,113A55.09,55.09,0,1,0,267,57.9a55.11,55.11,0,0,0,55.1,55.1Z" transform="translate(-2.05 -2.82)"/><path class="d" d="M402.29,113a55.09,55.09,0,1,0-55.08-55.1A55.11,55.11,0,0,0,402.29,113Z" transform="translate(-2.05 -2.82)"/><path class="e" d="M362.17,95.69a55.16,55.16,0,0,1-.28-75.26h0l1.16.6h0a55.08,55.08,0,0,1-.1,73.85h0l-.78.81Z" transform="translate(-2.05 -2.82)"/><polygon class="f" points="275.8 41.27 280.61 41.27 286.78 56.66 292.3 41.27 297.39 41.27 297.39 61.78 293.44 61.78 293.44 46.56 288.14 61.78 285.15 61.78 279.86 46.76 279.86 61.78 275.8 61.78 275.8 41.27"/><polygon class="f" points="317.65 61.78 317.65 46.08 314.27 46.08 314.27 61.78 317.65 61.78"/><polygon class="f" points="340.22 61.78 340.22 41.55 336.67 41.55 336.67 61.78 340.22 61.78"/><polygon class="f" points="334.63 46.08 334.63 49.84 342.54 49.84 342.54 46.08 334.63 46.08"/><polygon class="f" points="414.83 61.78 414.83 46.08 411.45 46.08 411.45 61.78 414.83 61.78"/><polygon class="f" points="445.31 61.78 445.31 42.15 441.94 42.15 441.94 61.78 445.31 61.78"/><path class="f" d="M370.89,48.9h-3.5V64.6h3.55V54.22h0c.83-1.69,3.33-2,3.73-2h0V48.8h0c-.83,0-3.68.63-3.78,2.17h0V48.9Z" transform="translate(-2.05 -2.82)"/><path class="f" d="M424.58,48.9h-3.53V64.6h3.58V54.22h0c.81-1.69,3.33-2,3.7-2h0V48.8h0c-.81,0-3.65.63-3.75,2.17h0V48.9Z" transform="translate(-2.05 -2.82)"/><path class="f" d="M330.28,53.39h3.45c0-2.75-1.76-4.43-4.66-4.43s-5.19,1.51-5.19,4.89,3.55,3.85,4.13,4,2.65.43,2.65,2.57c0,.81-1,1-1.79,1a1.62,1.62,0,0,1-1.64-1.56h-3.85c0,3.53,2.75,4.94,5.49,4.94s5.37-2.22,5.37-4.89-2.57-4.16-4.59-4.46c-3-.43-2.75-3.07-1-3.07s1.56.73,1.61,1Z" transform="translate(-2.05 -2.82)"/><path class="f" d="M393.54,59a6.82,6.82,0,1,1-5.37-11,6.77,6.77,0,0,1,5.32,2.54h4.43a10.53,10.53,0,0,0-9.75-6.42,10.7,10.7,0,1,0,0,21.39A10.81,10.81,0,0,0,398,59h-4.46Z" transform="translate(-2.05 -2.82)"/><path class="f" d="M439.25,65a8.18,8.18,0,1,0,0-16.35V52.1a4.7,4.7,0,1,1,0,9.4Zm0,0h0V61.5h0a4.7,4.7,0,1,1,0-9.4h0V48.62h0a8.18,8.18,0,1,0,0,16.35Z" transform="translate(-2.05 -2.82)"/><path class="f" d="M408.76,65a8.18,8.18,0,1,0,0-16.35h0V52.1h0a4.7,4.7,0,1,1,0,9.4h0V65Zm0-16.35a8.18,8.18,0,1,0,0,16.35V61.5a4.7,4.7,0,1,1,0-9.4Z" transform="translate(-2.05 -2.82)"/><path class="f" d="M355.45,58.43h8a6.63,6.63,0,0,0,.05-.71V57c-.13-3.65-2.42-8.14-8-8.19v3.8c1.91,0,3.8.88,3.8,2.62h-3.8v3.15Zm0,6.6c3.17-.05,7.63-2.12,7.63-4.76h-4.26c0,.63-1.64,1.21-3.38,1.18Zm-3.91-6.6h3.91V55.28h-3.8c0-1.74,1.89-2.62,3.8-2.62v-3.8h-.1c-5.09,0-7.86,4.23-7.89,8.36v.15C347.54,61.27,350,65,355.3,65h.15V61.45c-1.91,0-3.91-.81-3.91-3Z" transform="translate(-2.05 -2.82)"/><path class="f" d="M311.61,65a8.18,8.18,0,1,0,0-16.35V52.1a4.7,4.7,0,1,1,0,9.4Zm0,0h0V61.5h0a4.7,4.7,0,1,1,0-9.4h0V48.62h0a8.18,8.18,0,1,0,0,16.35Z" transform="translate(-2.05 -2.82)"/></svg>