<?xml version="1.0" encoding="utf-8"?>
<!-- Generator: Adobe Illustrator 21.0.0, SVG Export Plug-In . SVG Version: 6.00 Build 0)  -->
<svg version="1.1" id="Слой_1" xmlns="http://www.w3.org/2000/svg" xmlns:xlink="http://www.w3.org/1999/xlink" x="0px" y="0px"
	 viewBox="0 0 192.9 25.6" style="enable-background:new 0 0 192.9 25.6;" xml:space="preserve">
<style type="text/css">
	.st0{fill:#00579F;}
	.st1{fill:#FAA61A;}
	.st2{fill:#E2001A;}
	.st3{fill:#F6A800;}
	.st4{fill:#EB690A;}
	.st5{fill:#FFFFFF;}
	.st6{fill:#4DB45E;}
	.st7{fill:url(#path24_1_);}
	.st8{clip-path:url(#SVGID_2_);fill:url(#SVGID_3_);}
	.st9{clip-path:url(#SVGID_5_);fill:url(#SVGID_6_);}
	.st10{clip-path:url(#SVGID_8_);fill:url(#SVGID_9_);}
	.st11{clip-path:url(#SVGID_11_);fill:url(#SVGID_12_);}
	.st12{clip-path:url(#SVGID_14_);fill:url(#SVGID_15_);}
	.st13{clip-path:url(#SVGID_17_);fill:url(#SVGID_18_);}
	.st14{fill:#4D4D4D;}
</style>
<title>logo-visa-mastercard</title>
<g>
	<polygon class="st0" points="23.3,21.9 19,21.9 21.7,5.1 26.1,5.1 	"/>
	<path class="st0" d="M39.1,5.5c-1.2-0.5-2.6-0.7-3.9-0.7c-4.3,0-7.3,2.3-7.4,5.6c0,2.4,2.2,3.8,3.8,4.6c1.7,0.8,2.3,1.4,2.3,2.1
		c0,1.1-1.4,1.7-2.6,1.7c-1.7,0-2.7-0.3-4.1-0.9l-0.6-0.3l-0.6,3.8c1,0.5,2.9,0.9,4.9,0.9c4.6,0,7.6-2.3,7.6-5.8
		c0-1.9-1.1-3.4-3.7-4.6c-1.5-0.8-2.5-1.3-2.5-2.1c0-0.7,0.8-1.5,2.5-1.5c1.1,0,2.2,0.2,3.2,0.6l0.4,0.2L39.1,5.5L39.1,5.5z"/>
	<path class="st0" d="M44.9,16c0.4-1,1.7-4.7,1.7-4.7c0,0,0.4-1,0.6-1.6l0.3,1.5c0,0,0.8,4,1,4.9L44.9,16z M50.3,5.1h-3.4
		c-1,0-1.8,0.3-2.3,1.4l-6.5,15.5h4.6l0.9-2.5h5.6c0.1,0.6,0.5,2.5,0.5,2.5h4L50.3,5.1L50.3,5.1L50.3,5.1z"/>
	<path class="st0" d="M15.3,5.1l-4.3,11.5l-0.5-2.3c-0.8-2.7-3.3-5.6-6-7.1l3.9,14.7h4.6l6.9-16.8H15.3z"/>
	<path class="st1" d="M7.1,5.1h-7L0,5.4c5.5,1.4,9.1,4.8,10.6,8.8L9.1,6.5C8.8,5.4,8,5.1,7.1,5.1L7.1,5.1z"/>
	<path class="st2" d="M66.8,25c6.3,0,11.5-5.2,11.5-11.5C78.3,7.1,73.1,2,66.8,2c-6.3,0-11.5,5.1-11.5,11.5
		C55.3,19.8,60.4,25,66.8,25L66.8,25z"/>
	<path class="st3" d="M83.5,25C89.9,25,95,19.8,95,13.5S89.9,2,83.5,2C77.2,2,72,7.1,72,13.5c0,0,0,0,0,0C72,19.8,77.2,25,83.5,25z"
		/>
	<path class="st4" d="M75.1,21.4C71,17,71,10.1,75.1,5.7l0,0l0.2,0.1l0,0c3.9,4.4,3.9,11,0,15.4l0,0C75.3,21.2,75.1,21.4,75.1,21.4z
		"/>
	<polygon class="st5" points="57.5,10.6 58.5,10.6 59.8,13.8 61,10.6 62,10.6 62,14.9 61.2,14.9 61.2,11.7 60.1,14.9 59.5,14.9 
		58.4,11.8 58.4,14.9 57.5,14.9 	"/>
	<polygon class="st5" points="66.3,14.9 66.3,11.6 65.6,11.6 65.6,14.9 	"/>
	<polygon class="st5" points="71,14.9 71,10.7 70.2,10.7 70.2,14.9 	"/>
	<polygon class="st5" points="69.8,11.6 69.8,12.4 71.5,12.4 71.5,11.6 	"/>
	<polygon class="st5" points="86.5,14.9 86.5,11.6 85.8,11.6 85.8,14.9 	"/>
	<polygon class="st5" points="92.9,14.9 92.9,10.8 92.2,10.8 92.2,14.9 	"/>
	<path class="st5" d="M77,11.6h-0.7v3.3H77v-2.2l0,0c0.2-0.4,0.7-0.4,0.8-0.4l0,0v-0.7l0,0c-0.2,0-0.8,0.1-0.8,0.5l0,0V11.6z"/>
	<path class="st5" d="M88.2,11.6h-0.7v3.3h0.7v-2.2l0,0c0.2-0.4,0.7-0.4,0.8-0.4l0,0v-0.7l0,0c-0.2,0-0.8,0.1-0.8,0.5l0,0V11.6z"/>
	<path class="st5" d="M68.5,12.5h0.7c0-0.6-0.4-0.9-1-0.9s-1.1,0.3-1.1,1c0,0.7,0.7,0.8,0.9,0.8s0.6,0.1,0.6,0.5
		c0,0.2-0.2,0.2-0.4,0.2c-0.2,0-0.3-0.1-0.3-0.3H67c0,0.7,0.6,1,1.1,1s1.1-0.5,1.1-1c0-0.6-0.5-0.9-1-0.9c-0.6-0.1-0.6-0.6-0.2-0.6
		C68.5,12.3,68.5,12.5,68.5,12.5L68.5,12.5z"/>
	<path class="st5" d="M81.7,13.7c-0.5,0.6-1.4,0.7-2,0.3c-0.6-0.5-0.7-1.4-0.3-2c0.3-0.3,0.7-0.6,1.1-0.6c0.4,0,0.8,0.2,1.1,0.5h0.9
		c-0.3-0.8-1.1-1.3-2-1.3c-1.2,0-2.3,0.9-2.3,2.2c0,1.2,0.9,2.3,2.2,2.3c0,0,0.1,0,0.1,0c0.9,0,1.7-0.5,2.1-1.4H81.7z"/>
	<path class="st5" d="M91.2,15c0.9,0,1.7-0.7,1.8-1.6c0-0.9-0.7-1.7-1.6-1.8c0,0-0.1,0-0.1,0v0.7c0.5,0,1,0.4,1,1s-0.4,1-1,1V15z
		 M91.2,15L91.2,15v-0.7l0,0c-0.5,0-1-0.4-1-1s0.4-1,1-1l0,0v-0.7l0,0c-0.9,0-1.7,0.7-1.8,1.6c0,0.9,0.7,1.7,1.6,1.8
		C91.1,15,91.2,15,91.2,15L91.2,15z"/>
	<path class="st5" d="M84.9,15c0.9,0,1.7-0.7,1.8-1.6c0-0.9-0.7-1.7-1.6-1.8c0,0-0.1,0-0.1,0l0,0v0.7l0,0c0.5,0,1,0.4,1,1
		s-0.4,1-1,1l0,0V15z M84.9,11.6c-0.9,0-1.7,0.7-1.8,1.6c0,0.9,0.7,1.7,1.6,1.8c0,0,0.1,0,0.1,0v-0.7c-0.5,0-1-0.4-1-1s0.4-1,1-1
		V11.6z"/>
	<path class="st5" d="M73.7,13.6h1.7c0,0,0-0.1,0-0.1v-0.2c0-0.8-0.5-1.7-1.7-1.7v0.8c0.4,0,0.8,0.2,0.8,0.5h-0.8L73.7,13.6
		L73.7,13.6z M73.7,15c0.7,0,1.6-0.4,1.6-1h-0.9c0,0.1-0.3,0.3-0.7,0.2L73.7,15z M72.9,13.6h0.8v-0.7h-0.8c0-0.4,0.4-0.5,0.8-0.5
		v-0.8h0c-1.1,0-1.6,0.9-1.6,1.7v0c0,0.8,0.5,1.6,1.6,1.6h0v-0.7C73.3,14.2,72.9,14.1,72.9,13.6L72.9,13.6z"/>
	<path class="st5" d="M64.6,15c0.9,0,1.7-0.7,1.8-1.6c0-0.9-0.7-1.7-1.6-1.8c0,0-0.1,0-0.1,0v0.7c0.5,0,1,0.4,1,1s-0.4,1-1,1V15z
		 M64.6,15L64.6,15v-0.7l0,0c-0.5,0-1-0.4-1-1s0.4-1,1-1l0,0v-0.7l0,0c-0.9,0-1.7,0.7-1.8,1.6c0,0.9,0.7,1.7,1.6,1.8
		C64.5,15,64.5,15,64.6,15L64.6,15z"/>
</g>
<g>
	<g id="g5">
		<path id="path7" class="st6" d="M111.7,5.3L111.7,5.3c0,0-2.2,0-2.8,2.1c-0.5,1.9-2,7.2-2.1,7.3h-0.4c0,0-1.5-5.4-2.1-7.3
			c-0.6-2.1-2.8-2.1-2.8-2.1h-5v15.9h5v-9.4h0.2h0.2l2.9,9.4h3.5l2.9-9.4h0.4v9.4h5V5.3H111.7z"/>
	</g>
	<g id="g9">
		<path id="path11" class="st6" d="M129.9,5.3c0,0-1.5,0.1-2.1,1.7l-3.5,7.8h-0.4V5.3h-5v15.9h4.7l0,0c0,0,1.5-0.1,2.2-1.7l3.5-7.8
			h0.4v9.4h5V5.3H129.9z"/>
	</g>
	<g id="g13">
		<path id="path15" class="st6" d="M136.8,12.5v8.7h5v-5.1h5.4c2.4,0,4.3-1.5,5.1-3.6H136.8z"/>
	</g>
	<g id="g17">
		
			<linearGradient id="path24_1_" gradientUnits="userSpaceOnUse" x1="136.1429" y1="16.2286" x2="152.6244" y2="16.2286" gradientTransform="matrix(1 0 0 -1 0 24.8049)">
			<stop  offset="0.3" style="stop-color:#00B4E6"/>
			<stop  offset="1" style="stop-color:#088CCB"/>
		</linearGradient>
		<path id="path24" class="st7" d="M147.2,5.3h-11.1c0.6,3,2.8,5.4,5.7,6.2l0,0c0.7,0.2,1.4,0.3,2.1,0.3h8.5
			c0.1-0.4,0.1-0.7,0.1-1.1C152.6,7.7,150.2,5.3,147.2,5.3z"/>
	</g>
</g>
<g>
	<g>
		<g>
			<g>
				<defs>
					<path id="SVGID_1_" d="M182.4,2.4c1.3-0.4,2.7-0.8,4-1.1c1.3-0.4,2.7-0.8,4-1.1c0.8-0.2,1.5,1,1.5,2.7c0,1.6,0,3.1,0,4.7
						c0,1.6,0,3.1,0,4.7c0,1.7-0.7,2.9-1.5,2.7c-1.3-0.4-2.7-0.8-4-1.1c-1.3-0.4-2.7-0.8-4-1.1c-0.8-0.2-1.5-1.3-1.5-2.3
						c0-0.9,0-1.9,0-2.8c0-0.9,0-1.9,0-2.8C180.9,3.7,181.6,2.6,182.4,2.4"/>
				</defs>
				<clipPath id="SVGID_2_">
					<use xlink:href="#SVGID_1_"  style="overflow:visible;"/>
				</clipPath>
				
					<linearGradient id="SVGID_3_" gradientUnits="userSpaceOnUse" x1="-475.4758" y1="312.5376" x2="-475.1823" y2="312.5376" gradientTransform="matrix(-50.9238 0 0 32.2832 -24025.3242 -10082.2246)">
					<stop  offset="0" style="stop-color:#003D41"/>
					<stop  offset="1" style="stop-color:#8FC575"/>
				</linearGradient>
				<rect x="180.9" y="-0.1" class="st8" width="11" height="15.2"/>
			</g>
		</g>
		<g>
			<g>
				<defs>
					<path id="SVGID_4_" d="M162.5,2.4c-1.3-0.4-2.7-0.8-4-1.1c-1.3-0.4-2.7-0.8-4-1.1c-0.8-0.2-1.5,1-1.5,2.7c0,1.6,0,3.1,0,4.7
						c0,1.6,0,3.1,0,4.7c0,1.7,0.7,2.9,1.5,2.7c1.3-0.4,2.7-0.8,4-1.1c1.3-0.4,2.7-0.8,4-1.1c0.8-0.2,1.5-1.3,1.5-2.3
						c0-0.9,0-1.9,0-2.8c0-0.9,0-1.9,0-2.8C163.9,3.7,163.3,2.6,162.5,2.4"/>
				</defs>
				<clipPath id="SVGID_5_">
					<use xlink:href="#SVGID_4_"  style="overflow:visible;"/>
				</clipPath>
				
					<linearGradient id="SVGID_6_" gradientUnits="userSpaceOnUse" x1="-455.5501" y1="270.6512" x2="-455.3118" y2="270.6512" gradientTransform="matrix(49.9204 0 0 -32.2832 22899.6523 8744.9727)">
					<stop  offset="0" style="stop-color:#7ED688"/>
					<stop  offset="1" style="stop-color:#C2F8A8"/>
				</linearGradient>
				<rect x="152.9" y="-0.1" class="st9" width="11" height="15.2"/>
			</g>
		</g>
		<g>
			<g>
				<defs>
					<path id="SVGID_7_" d="M175.3,2.4c0.7-0.4,1.3-0.8,2-1.1c0.7-0.4,1.3-0.8,2-1.1c0.4-0.2,0.7,1,0.7,2.7c0,1.6,0,3.1,0,4.7
						c0,1.6,0,3.1,0,4.7c0,1.7-0.3,2.9-0.7,2.7c-0.7-0.4-1.3-0.8-2-1.1c-0.7-0.4-1.3-0.8-2-1.1c-0.4-0.2-0.7-1.3-0.7-2.3
						c0-0.9,0-1.9,0-2.8c0-0.9,0-1.9,0-2.8C174.5,3.7,174.9,2.6,175.3,2.4"/>
				</defs>
				<clipPath id="SVGID_8_">
					<use xlink:href="#SVGID_7_"  style="overflow:visible;"/>
				</clipPath>
				
					<linearGradient id="SVGID_9_" gradientUnits="userSpaceOnUse" x1="-486.6128" y1="312.5376" x2="-486.2548" y2="312.5376" gradientTransform="matrix(-24.0253 0 0 32.2832 -11512.1875 -10082.2246)">
					<stop  offset="0" style="stop-color:#005741"/>
					<stop  offset="1" style="stop-color:#8FC575"/>
				</linearGradient>
				<rect x="174.5" y="-0.1" class="st10" width="5.5" height="15.2"/>
			</g>
		</g>
		<g>
			<g>
				<defs>
					<path id="SVGID_10_" d="M169.6,2.4c-0.7-0.4-1.3-0.8-2-1.1c-0.7-0.4-1.3-0.8-2-1.1c-0.4-0.2-0.7,1-0.7,2.7c0,1.6,0,3.1,0,4.7
						c0,1.6,0,3.1,0,4.7c0,1.7,0.3,2.9,0.7,2.7c0.7-0.4,1.3-0.8,2-1.1c0.7-0.4,1.3-0.8,2-1.1c0.4-0.2,0.7-1.3,0.7-2.3
						c0-0.9,0-1.9,0-2.8c0-0.9,0-1.9,0-2.8C170.3,3.7,170,2.6,169.6,2.4"/>
				</defs>
				<clipPath id="SVGID_11_">
					<use xlink:href="#SVGID_10_"  style="overflow:visible;"/>
				</clipPath>
				
					<linearGradient id="SVGID_12_" gradientUnits="userSpaceOnUse" x1="-445.918" y1="270.6512" x2="-445.6704" y2="270.6512" gradientTransform="matrix(25.3638 0 0 -32.2832 11477.6299 8744.9727)">
					<stop  offset="0" style="stop-color:#65BD6F"/>
					<stop  offset="1" style="stop-color:#C2F8A8"/>
				</linearGradient>
				<rect x="164.8" y="-0.1" class="st11" width="5.5" height="15.2"/>
			</g>
		</g>
		<g>
			<g>
				<defs>
					<path id="SVGID_13_" d="M172.9,2.4c0.1-0.4,0.2-0.8,0.3-1.1c0.1-0.4,0.2-0.8,0.3-1.1c0.1-0.2,0.1,1,0.1,2.7c0,1.6,0,3.1,0,4.7
						c0,1.6,0,3.1,0,4.7c0,1.7,0,2.9-0.1,2.7c-0.1-0.4-0.2-0.8-0.3-1.1c-0.1-0.4-0.2-0.8-0.3-1.1c-0.1-0.2-0.1-1.3-0.1-2.3
						c0-0.9,0-1.9,0-2.8c0-0.9,0-1.9,0-2.8C172.8,3.7,172.9,2.6,172.9,2.4"/>
				</defs>
				<clipPath id="SVGID_14_">
					<use xlink:href="#SVGID_13_"  style="overflow:visible;"/>
				</clipPath>
				
					<linearGradient id="SVGID_15_" gradientUnits="userSpaceOnUse" x1="-602.299" y1="312.5458" x2="-601.8405" y2="312.5458" gradientTransform="matrix(-3.6737 0 0 32.2838 -2039.0021 -10082.6787)">
					<stop  offset="0" style="stop-color:#187041"/>
					<stop  offset="1" style="stop-color:#F5F8FF"/>
				</linearGradient>
				<rect x="172.8" y="-0.1" class="st12" width="0.8" height="15.2"/>
			</g>
		</g>
		<g>
			<g>
				<defs>
					<path id="SVGID_16_" d="M171.9,2.4c-0.1-0.4-0.2-0.8-0.3-1.1c-0.1-0.4-0.2-0.8-0.3-1.1c-0.1-0.2-0.1,1-0.1,2.7
						c0,1.6,0,3.1,0,4.7c0,1.6,0,3.1,0,4.7c0,1.7,0,2.9,0.1,2.7c0.1-0.4,0.2-0.8,0.3-1.1c0.1-0.4,0.2-0.8,0.3-1.1
						c0.1-0.2,0.1-1.3,0.1-2.3c0-0.9,0-1.9,0-2.8c0-0.9,0-1.9,0-2.8C172,3.7,171.9,2.6,171.9,2.4"/>
				</defs>
				<clipPath id="SVGID_17_">
					<use xlink:href="#SVGID_16_"  style="overflow:visible;"/>
				</clipPath>
				
					<linearGradient id="SVGID_18_" gradientUnits="userSpaceOnUse" x1="-374.2302" y1="270.6512" x2="-373.7714" y2="270.6512" gradientTransform="matrix(5.472 0 0 -32.2832 2218.9407 8744.9727)">
					<stop  offset="0" style="stop-color:#4BA354"/>
					<stop  offset="1" style="stop-color:#F6F6FB"/>
				</linearGradient>
				<rect x="171.2" y="-0.1" class="st13" width="0.8" height="15.2"/>
			</g>
		</g>
	</g>
	<path class="st14" d="M187,20.5c-0.1,0-0.2,0-0.3,0c-0.1,0-0.2,0-0.3,0c-0.4,0-0.7,0-1.1,0.1c-0.3,0.1-0.6,0.1-0.9,0.2v4.5h1.2
		v-3.8c0.1,0,0.2-0.1,0.3-0.1c0.1,0,0.2,0,0.3,0c0.1,0,0.2,0,0.3,0c0.1,0,0.2,0,0.3,0.1L187,20.5z"/>
	<path class="st14" d="M183.9,21.7c-0.1-0.3-0.2-0.5-0.4-0.7c-0.2-0.2-0.4-0.3-0.6-0.4c-0.3-0.1-0.5-0.2-0.9-0.2
		c-0.3,0-0.7,0.1-0.9,0.2c-0.3,0.1-0.5,0.3-0.7,0.5c-0.2,0.2-0.3,0.5-0.4,0.8c-0.1,0.3-0.1,0.6-0.2,1c0,0.4,0.1,0.7,0.2,1
		c0.1,0.3,0.3,0.6,0.5,0.8c0.2,0.2,0.5,0.4,0.8,0.5c0.3,0.1,0.6,0.2,1,0.2c0.2,0,0.5,0,0.7,0c0.2,0,0.4-0.1,0.6-0.1
		c0.2-0.1,0.3-0.1,0.5-0.2l-0.3-0.9c-0.1,0.1-0.2,0.1-0.4,0.2c-0.1,0-0.3,0.1-0.5,0.1c-0.2,0-0.3,0-0.5,0c-0.2,0-0.4,0-0.6-0.1
		c-0.2-0.1-0.3-0.2-0.5-0.3c-0.1-0.2-0.2-0.3-0.2-0.6L184,23c0-0.1,0-0.3,0-0.4C184,22.3,184,22,183.9,21.7z M180.8,22.7
		c0-0.3,0.1-0.5,0.2-0.7c0.1-0.2,0.2-0.4,0.4-0.5c0.2-0.1,0.3-0.2,0.6-0.2c0.2,0,0.3,0,0.5,0.1c0.1,0.1,0.2,0.2,0.3,0.4
		c0.1,0.2,0.1,0.4,0.1,0.6L180.8,22.7z"/>
	<rect x="178.1" y="18.4" class="st14" width="1.2" height="6.9"/>
	<rect x="176.1" y="18.4" class="st14" width="1.2" height="6.9"/>
	<path class="st14" d="M175.5,21.7c-0.1-0.3-0.2-0.5-0.4-0.7c-0.2-0.2-0.4-0.3-0.6-0.4c-0.3-0.1-0.5-0.2-0.9-0.2
		c-0.3,0-0.7,0.1-0.9,0.2c-0.3,0.1-0.5,0.3-0.7,0.5c-0.2,0.2-0.3,0.5-0.4,0.8c-0.1,0.3-0.1,0.6-0.1,1c0,0.4,0.1,0.7,0.2,1
		c0.1,0.3,0.3,0.6,0.5,0.8c0.2,0.2,0.5,0.4,0.8,0.5c0.3,0.1,0.6,0.2,1,0.2c0.2,0,0.5,0,0.7,0c0.2,0,0.4-0.1,0.6-0.1
		c0.2-0.1,0.3-0.1,0.5-0.2l-0.3-0.9c-0.1,0.1-0.2,0.1-0.4,0.2c-0.1,0-0.3,0.1-0.5,0.1c-0.2,0-0.3,0-0.5,0c-0.2,0-0.4,0-0.6-0.1
		c-0.2-0.1-0.3-0.2-0.5-0.3c-0.1-0.2-0.2-0.3-0.2-0.6l3.1-0.4c0-0.1,0-0.3,0-0.4C175.6,22.3,175.6,22,175.5,21.7z M172.5,22.7
		c0-0.3,0.1-0.5,0.1-0.7c0.1-0.2,0.2-0.4,0.4-0.5c0.2-0.1,0.3-0.2,0.6-0.2c0.2,0,0.3,0,0.5,0.1c0.1,0.1,0.2,0.2,0.3,0.4
		c0.1,0.2,0.1,0.4,0.1,0.6L172.5,22.7z"/>
	<path class="st14" d="M171.2,25.3v-1c0,0-0.1,0-0.2,0c-0.1,0-0.1,0-0.2,0c-0.1,0-0.2,0-0.3,0c-0.1,0-0.1-0.1-0.2-0.2
		c0-0.1-0.1-0.2-0.1-0.3v-2.3h0.9v-0.9h-0.9v-1.4l-1.2,0.3v1.1h-0.6v0.9h0.6v2.4c0,0.5,0.1,0.9,0.3,1.1c0.2,0.3,0.6,0.4,1,0.4
		c0.1,0,0.2,0,0.3,0c0.1,0,0.2,0,0.3,0C171.1,25.3,171.2,25.3,171.2,25.3z"/>
	<rect x="167" y="20.6" class="st14" width="1.2" height="4.8"/>
	<path class="st14" d="M168.2,19.2c0-0.1,0-0.2-0.1-0.3c-0.1-0.1-0.1-0.2-0.2-0.2c-0.1-0.1-0.2-0.1-0.3-0.1c-0.1,0-0.2,0-0.3,0.1
		c-0.1,0.1-0.2,0.1-0.2,0.2c-0.1,0.1-0.1,0.2-0.1,0.3c0,0.1,0,0.2,0.1,0.3c0.1,0.1,0.1,0.2,0.2,0.2c0.1,0.1,0.2,0.1,0.3,0.1
		c0.1,0,0.2,0,0.3-0.1c0.1-0.1,0.2-0.1,0.2-0.2C168.2,19.4,168.2,19.3,168.2,19.2z"/>
	<path class="st14" d="M166.3,25.3v-3.3c0-0.3-0.1-0.6-0.2-0.9c-0.1-0.2-0.4-0.4-0.7-0.5c-0.3-0.1-0.7-0.2-1.2-0.2
		c-0.4,0-0.7,0-1.1,0.1c-0.3,0.1-0.6,0.1-0.8,0.2v4.5h1.2v-3.8c0.1,0,0.2-0.1,0.3-0.1c0.1,0,0.3,0,0.4,0c0.3,0,0.5,0.1,0.6,0.2
		c0.1,0.1,0.2,0.3,0.2,0.6v3.1L166.3,25.3L166.3,25.3z"/>
	<path class="st14" d="M161.7,25.1v-4.5h-1.2v3.8c-0.1,0-0.2,0.1-0.3,0.1c-0.1,0-0.3,0-0.4,0c-0.3,0-0.5-0.1-0.6-0.2
		c-0.1-0.1-0.2-0.3-0.2-0.6v-3.1h-1.2v3.1c0,0.4,0.1,0.7,0.2,1c0.2,0.3,0.4,0.5,0.7,0.6c0.3,0.1,0.7,0.2,1.1,0.2c0.2,0,0.5,0,0.7,0
		c0.2,0,0.5-0.1,0.7-0.1C161.4,25.2,161.6,25.2,161.7,25.1z"/>
</g>
</svg>
