<?xml version="1.0" encoding="utf-8"?>
<!-- Generator: Adobe Illustrator 21.0.0, SVG Export Plug-In . SVG Version: 6.00 Build 0)  -->
<svg version="1.1" id="Режим_изоляции"
	 xmlns="http://www.w3.org/2000/svg" xmlns:xlink="http://www.w3.org/1999/xlink" x="0px" y="0px" viewBox="0 0 176 28.3"
	 style="enable-background:new 0 0 176 28.3;" xml:space="preserve">
<style type="text/css">
	.st0{fill:#9ACC4E;}
</style>
<path class="st0" d="M172.6,4.6c0.4,0,0.8-0.3,0.8-0.7c0-0.4-0.2-0.6-0.7-0.6c-0.1,0-0.3,0-0.4,0v1.3H172.6z M171.4,3.1h1.4
	c0.4,0,1.2,0.1,1.2,0.8c0,0.5-0.4,0.8-0.9,1c0.4,0.6,0.7,1,1,1.2c0.2,0.2,0.3,0.2,0.6,0.3v0.2h-0.9c-0.5-0.6-0.8-1-1.2-1.6h-0.3
	c0,0.6,0,1.1,0,1.2c0,0.2,0.2,0.2,0.4,0.3v0.2h-1.3V6.3c0.1,0,0.2-0.1,0.2-0.2c0-0.2,0-0.6,0-1.2V4.2c0-0.4,0-0.7-0.1-0.8
	c0-0.1-0.1-0.1-0.3-0.1V3.1z M172.8,7.7c1.5,0,2.7-1.3,2.7-2.8c0-1.5-1.2-2.8-2.7-2.8c-1.5,0-2.7,1.3-2.7,2.8
	C170.2,6.4,171.3,7.7,172.8,7.7 M172.8,1.7c1.7,0,3.2,1.4,3.2,3.2c0,1.7-1.4,3.1-3.2,3.1c-1.8,0-3.1-1.4-3.1-3.1
	C169.7,3.2,171.1,1.7,172.8,1.7"/>
<path class="st0" d="M124.2,14.2c-0.1,0.9-0.4,1.6-0.8,2.4c-0.8,1.5-2.3,2.6-4.5,2.6l-0.2,0c-1.9-0.1-3.3-0.9-4.4-2.4
	c-1.1-1.5-1.5-3.5-1.6-5.9c0-0.2,0-0.3,0-0.5c0-1.7,0.3-3.3,0.9-4.6c0.6-1.2,1.3-2,2.2-2.4c0.9-0.4,1.8-0.6,2.7-0.6
	c0.4,0,0.7,0,1,0.1c1.8,0.2,3.3,1.8,3.2,2.5c0,0.2-0.3,0.4-0.7,0.2c-0.3-0.1-0.5-0.2-1.1-0.3c-0.7,0-2.3,0.5-2.2,2.6
	c0.1,1.8,1.5,3,3.3,3.1c0.2,0,0.4,0,0.7,0c2.5-0.2,3.8-2.1,3.8-4.3c0-1.7-1.1-3.6-2.7-4.7c-1.9-1.3-3.6-2-6.5-2h-0.7l0,0
	c-2.8,0-5.5,0.9-7.5,2.7c-1.9,1.8-3.3,4.4-3.3,8.1v0.3c0,6.5,4.8,10.9,11.4,10.8h0.3c3.1,0,5.6-0.9,7.3-2.7c1.3-1.4,2-3.2,2.2-5
	H124.2z M75.9,9c1,0,1.7,0.5,2.2,1.6c0.3,0.6,0.4,1.2,0.4,1.9v0.3h-5C73.5,11.3,74,9.1,75.9,9 M80.9,16.6c-0.4,1.5-1.7,2.8-3.7,2.8
	c-1.5,0-3.1-1-3.5-2.5c-0.3-1.2-0.3-1.9-0.3-2.1h10.4v-0.8c0-1.9-0.4-3-0.8-3.9c-0.5-0.9-1.4-1.8-2.5-2.6c-1.1-0.8-2.6-1.2-4.5-1.2
	c-5.1-0.1-8.1,3.9-8.1,8c0,4.1,2.9,7.4,8.3,7.4c2.2,0,4-0.7,5.4-2c0.9-0.9,1.6-2,2-3.2H80.9z M160.3,12.7V10c0-0.5-0.4-0.8-1-0.8
	h-1.1V6.8h9.8v2.3h-1.6c-0.7,0-1,0.4-1,1.1v8c0,0.7,0.4,1,1,1h1.6v2.3h-9.7v-2.3h1.1c0.7,0,1-0.2,1-0.9V15h-5.8v3.3
	c0,0.6,0.4,0.9,1,0.9h1.1v2.3h-9.7v-2.3h1.6c0.7,0,1-0.4,1-1.1V9.9c0-0.5-0.4-0.7-1-0.7h-1.6V6.8h9.8v2.3h-1.1c-0.7,0-1,0.2-1,1.1
	v2.4H160.3z M38.6,12.7V10c0-0.5-0.4-0.8-1-0.8h-1.1V6.8h9.8v2.3h-1.6c-0.7,0-1,0.4-1,1.1v8c0,0.7,0.4,1,1,1h1.6v2.3h-9.7v-2.3h1.1
	c0.7,0,1-0.2,1-0.9V15h-5.8v3.3c0,0.6,0.4,0.9,1,0.9h1.1v2.3h-9.7v-2.3h1.6c0.7,0,1-0.4,1-1.1V9.9c0-0.5-0.4-0.7-1-0.7h-1.6V6.8h9.8
	v2.3h-1.1c-0.7,0-1,0.2-1,1.1v2.4H38.6z M134.9,14.1c0,3.7,0.7,5.3,2.5,5.3c1.9,0,2.5-1.6,2.5-5.3c0-3.7-0.7-5.3-2.5-5.3
	C135.6,8.8,134.9,10.4,134.9,14.1 M145.6,14.1c0,5-3.4,7.8-8.1,7.8c-4.7,0-8.1-2.8-8.1-7.8s3.4-7.8,8.1-7.8
	C142.2,6.2,145.6,9,145.6,14.1 M93,14.4c0,3.1,0.7,5,2.5,5c1.8,0,2.5-1.9,2.5-5c0-3.1-0.7-5-2.5-5C93.8,9.4,93,11.4,93,14.4
	 M92.8,9.3L92.8,9.3c1-1.9,2.6-2.8,4.6-2.8c4.7,0,6.2,4,6.2,7.8c0,3.8-1.4,7.8-6.2,7.8c-1.9,0-3.6-0.7-4.3-2.1L93,20.1v4.6
	c0,0.9,0.2,1.4,1.1,1.4h1.3v2.3h-10V26h1.2c0.9,0,1.1-0.5,1.1-1.4v-14c0-0.9-0.2-1.4-1.1-1.4h-1.2V7h6.7L92.8,9.3z M56.1,9.3
	c-1.8,0-2.5,1.9-2.5,5c0,3.1,0.7,5,2.5,5c1.8,0,2.5-1.9,2.5-5C58.6,11.2,57.9,9.3,56.1,9.3 M59.5,6.8h6.7v2.3h-1.2
	c-0.9,0-1.1,0.5-1.1,1.4v14c0,0.9,0.2,1.4,1.1,1.4h1.2v2.3h-10v-2.3h1.3c0.9,0,1.1-0.5,1.1-1.4V20l-0.1-0.1
	c-0.7,1.4-2.4,2.1-4.3,2.1c-4.7,0-6.2-4-6.2-7.8c0-3.8,1.4-7.8,6.2-7.8c2,0,3.6,0.8,4.6,2.8h0.1L59.5,6.8z M8.1,12.6h4.6l-2.3-7.1
	h-0.1L8.1,12.6z M14.8,0.7L20,16.8c0.6,1.9,1.1,2.4,2.2,2.4h1.1v2.3H11.8v-2.3h0.9c0.9,0,1.7-0.1,1.7-0.5c0-0.3,0-0.7-0.2-1.1
	l-0.7-2.3H7.2l-0.4,1.3c-0.3,1.1-0.5,1.6-0.5,2c0,0.5,1.1,0.6,1.9,0.6h0.9v2.3H0v-2.3h1.1c1.1,0,1.5-0.4,2.2-2.4L8.5,0.7H14.8z"/>
</svg>
