
<svg xmlns:dc="http://purl.org/dc/elements/1.1/" xmlns:cc="http://creativecommons.org/ns#" xmlns:rdf="http://www.w3.org/1999/02/22-rdf-syntax-ns#" xmlns:svg="http://www.w3.org/2000/svg" xmlns="http://www.w3.org/2000/svg" height="200" width="150" version="1.1" style="">
           
           <path style="fill:#7cbd41;fill-opacity:1;fill-rule:nonzero;stroke:none" d="m-4.2553184032440186,35.1063831448555 c-6.916,0.03700000000000001 -13.819,0.517 -20.733,0.3980000000000023 c1.114,22.402 2.9210000000000003,45.023 2.372,67.451 c-0.4150000000000003,16.902 -6.407,38.051 0.23800000000000004,54.348 c31.216,-0.6740000000000046 62.711,1.6820000000000008 94,0.101 c28.043,-1.417 57.926,-8.974 85.41,-0.2140000000000004 c0.10800000000000012,-0.134 0.21700000000000041,-0.255 0.32300000000000195,-0.4100000000000003 c0.16200000000000103,-0.23700000000000004 0.4940000000000003,-0.035 0.3790000000000017,0.22200000000000095 c-0.06500000000000022,0.1450000000000002 -0.11400000000000052,0.271 -0.17300000000000001,0.405 c0.11100000000000022,0.054000000000000374 0.22300000000000098,0.10500000000000002 0.3140000000000017,0.17400000000000004 c0.16000000000000097,-0.1470000000000002 0.3190000000000018,-0.3030000000000003 0.4780000000000003,-0.456 c-0.161000000000001,-0.801 0.22400000000000103,-1.6620000000000008 1.274,-1.6480000000000001 c-1.7930000000000001,-0.022000000000000176 -3.164,-98.907 -2.641,-117.174 c-0.09500000000000083,-0.03600000000000001 -0.18800000000000044,-0.04800000000000011 -0.2830000000000003,-0.10400000000000002 c-10.77,-6.3100000000000005 -34.605,-1.952 -46.647,-1.795 M35.03168159675599,30.5173831448555 c27.698,0.3790000000000017 55.273,2.353 83.009,2.058 c8.205,-0.08700000000000062 32.75,-4.023 40.03,2.433 c0.6030000000000006,-0.09100000000000073 1.2610000000000001,0.2290000000000011 1.3250000000000002,1.057 c3.098,39.458 5.389,81.755 3.354,121.272 c-0.0430000000000003,0.8250000000000006 -0.7440000000000034,1.606 -1.553,1.8010000000000002 c-1.3980000000000001,1.363 -2.8760000000000003,2.348 -5.041,2.461 c-0.779,0.04100000000000011 -1.197,-0.6100000000000034 -1.188,-1.2730000000000001 c-28.944,-7.662 -59.801,-0.38400000000000195 -89.141,1.101 c-11.723,0.5940000000000006 -85.425,4.494 -87.345,-1.784 c0.01700000000000015,0.05500000000000011 -0.020000000000000115,0.10900000000000012 -0.07200000000000002,0.126 c-0.257,0.08500000000000058 -0.513,0.17 -0.7690000000000039,0.255 c-0.7520000000000034,0.99 -2.3040000000000003,1.314 -2.941,-0.1130000000000005 c-5.806,-13.007 -3.075,-29.044 -2.034,-42.77 c2.089,-27.55 -1.324,-54.912 -0.5860000000000006,-82.468 c0.0020000000000000144,-0.0900000000000007 0.03700000000000001,-0.15500000000000044 0.05200000000000032,-0.23600000000000004 c-0.24200000000000021,-0.8540000000000006 0.2150000000000004,-1.9220000000000002 1.391,-1.974 c6.893,-0.3050000000000003 13.775,-0.8230000000000006 20.674,-0.9460000000000006 " id="svg_1" transform="rotate(90 67.31510162353517,96.84288787841797) "/></svg>